<svg xmlns="http://www.w3.org/2000/svg" width="230.82" height="201.463" viewBox="0 0 230.82 201.463"><defs><style>.a{fill:#f2f2f2;}.b{fill:#324958;}.c,.h{opacity:0.1;}.d{fill:#9a9a9a;}.e{fill:#17987c;}.f{fill:#fff;}.g{fill:#e6e6e6;}</style></defs><path class="a" d="M-1,525.66c.294,0,21.755-38.218,99.954-47.331s135.821,40.57,130.529,47.037S20.167,550.942-1,525.66Z" transform="translate(1 -336.919)"/><path class="b" d="M33.725,213.873a182.6,182.6,0,0,1,82.336-20.133A182.6,182.6,0,0,1,198.4,213.873c14.121,7.32,25.477,15.951,30.827,22.993,1.95-2.654-.912-49.872-8.832-68.6A151.765,151.765,0,0,0,80.436,75.5,80.338,80.338,0,0,0,23.254,99.185q-.477.477-.945.961A80.21,80.21,0,0,0,.577,165.482c2.035,17.037,7.049,52.672,14.133,60.227A134.9,134.9,0,0,1,33.725,213.873Z" transform="translate(0.294 -53.301)"/><ellipse class="c" cx="24.098" cy="5.027" rx="24.098" ry="5.027" transform="translate(93.943 142.07)"/><path class="d" d="M389.186,74.057c-22.09,0-39.394-4.007-39.393-9.117,0-3.064,6.132-5.8,16.822-7.5a.294.294,0,0,1,.1.58h0c-10.07,1.6-16.326,4.254-16.327,6.918,0,4.621,17.77,8.527,38.8,8.529s38.806-3.9,38.807-8.522c0-2.676-6.3-5.334-16.43-6.937a.294.294,0,0,1,.09-.581h0c10.757,1.7,16.926,4.442,16.926,7.518C428.58,70.058,411.276,74.059,389.186,74.057Z" transform="translate(-246.666 -40.54)"/><path class="e" d="M417.311,119.6a22.632,22.632,0,0,0,39.144-.095A356.206,356.206,0,0,1,417.311,119.6Z" transform="translate(-294.334 -84.372)"/><path class="e" d="M451.2,28.842a22.636,22.636,0,1,0-43.468.231A168.223,168.223,0,0,0,451.2,28.842Z" transform="translate(-286.909 0.01)"/><circle class="f" cx="2.646" cy="2.646" r="2.646" transform="translate(145.169 7.352)"/><circle class="f" cx="4.41" cy="4.41" r="4.41" transform="translate(129.586 16.465)"/><circle class="f" cx="2.646" cy="2.646" r="2.646" transform="translate(139.877 39.103)"/><ellipse class="g" cx="16.347" cy="2.71" rx="16.347" ry="2.71" transform="translate(102.375 144.344)"/><ellipse class="c" cx="27.503" cy="5.738" rx="27.503" ry="5.738" transform="translate(36.739 166.938)"/><ellipse class="c" cx="41.008" cy="8.555" rx="41.008" ry="8.555" transform="translate(135.241 171.175)"/><ellipse class="g" cx="21.082" cy="3.495" rx="21.082" ry="3.495" transform="translate(43.076 168.996)"/><ellipse class="g" cx="36.043" cy="5.975" rx="36.043" ry="5.975" transform="translate(140.215 173.211)"/><circle class="f" cx="2.058" cy="2.058" r="2.058" transform="translate(15.225 91.726)"/><circle class="f" cx="2.058" cy="2.058" r="2.058" transform="translate(159.276 121.712)"/><path class="f" d="M99.814,436.352H98.785v-1.029a1.323,1.323,0,1,0-2.646,0v1.029H95.11a1.323,1.323,0,1,0,0,2.646h1.029v1.029a1.323,1.323,0,1,0,2.646,0V439h1.029a1.323,1.323,0,1,0,0-2.646Z" transform="translate(-65.921 -306.408)"/><path class="e" d="M621.924,353.226h-.535v-.535a.688.688,0,0,0-1.376,0v.535h-.535a.688.688,0,0,0,0,1.376h.535v.535a.688.688,0,0,0,1.376,0V354.6h.535a.688.688,0,0,0,0-1.376Z" transform="translate(-436.583 -248.518)"/><path class="e" d="M90.918,232.22h-.535v-.535a.688.688,0,1,0-1.376,0v.537h-.535a.688.688,0,1,0,0,1.376h.537v.535a.688.688,0,0,0,1.376,0V233.6h.535a.688.688,0,0,0,0-1.376Z" transform="translate(-61.682 -163.084)"/><path class="f" d="M225.918,232.22h-.535v-.535a.688.688,0,1,0-1.376,0v.537h-.535a.688.688,0,0,0,0,1.376h.537v.535a.688.688,0,0,0,1.376,0V233.6h.535a.688.688,0,0,0,0-1.376Z" transform="translate(-156.995 -163.084)"/><path class="f" d="M690.924,472.226h-.535v-.535a.688.688,0,0,0-1.376,0v.535h-.535a.688.688,0,0,0,0,1.376h.535v.535a.688.688,0,0,0,1.376,0V473.6h.535a.688.688,0,0,0,0-1.376Z" transform="translate(-485.298 -332.534)"/><path class="f" d="M480.924,277.226h-.535v-.535a.688.688,0,0,0-1.376,0v.535h-.535a.688.688,0,0,0,0,1.376h.535v.535a.688.688,0,0,0,1.376,0V278.6h.535a.688.688,0,1,0,0-1.376Z" transform="translate(-337.034 -194.861)"/><path class="f" d="M159.918,327.22h-.535v-.535a.688.688,0,0,0-1.376,0v.537h-.535a.688.688,0,0,0,0,1.376h.537v.535a.688.688,0,1,0,1.376,0V328.6h.535a.688.688,0,0,0,0-1.376Z" transform="translate(-110.397 -230.156)"/><path class="f" d="M165.918,161.22h-.535v-.535a.688.688,0,0,0-1.376,0v.537h-.535a.688.688,0,1,0,0,1.376h.537v.535a.688.688,0,0,0,1.376,0V162.6h.535a.688.688,0,0,0,0-1.376Z" transform="translate(-114.633 -112.957)"/><path class="a" d="M210.255,348.626h.536v.536h.1v-.536h.536v-.1H210.9v-.536h-.1v.536h-.536Z" transform="translate(-148.149 -245.681)"/><g transform="translate(63.622 43.456)"><rect class="g" width="0.845" height="17.07" transform="translate(11.063 2.366)"/><path class="g" d="M294.174,291.349l18.653-5.783.931-2.806.971-.166-.9-3.9-.769.661-1.138-.8-11.692,2.473Z" transform="translate(-271.019 -240.112)"/><path class="g" d="M360.787,269.583s10.538-1.482,7.377-7.233-7.948,5.272-7.948,5.272Z" transform="translate(-317.646 -227.503)"/><path class="f" d="M232.937,362.091l-2.7,6.76-.507,4.394-1.69,5.239v13.521l1.352,1.69,2.535,2.7-1.521,13.69-.845,2.028v9.464l2.535,4.9s-4.225,1.352-3.718,3.549,10.309-.507,10.309-.507l2.2-27.041.169-2.7,1.521-6.253.338-16.9h.676V396.4l-1.859,7.268s-2.028,16.9-1.859,19.267,3.211,2.366,3.211,2.366-.169,2.366,4.732,4.9a7.727,7.727,0,0,0,3.682,1.044,1.87,1.87,0,0,0,1.467-2.949l-4.135-5.869,3.211-5.577v-6.084l1.183-13.521,2.7-2.7,1.69-13.69-1.521-3.042-.845-8.45-2.028-6.591C245.275,358.035,232.937,362.091,232.937,362.091Z" transform="translate(-224.325 -297.953)"/><path class="e" d="M244.139,197.192a12.843,12.843,0,0,1,17.969,2.645l0,0a12.844,12.844,0,1,1-17.973-2.648Z" transform="translate(-232.036 -180.882)"/><g class="h" transform="translate(8.748 14.449)"><path d="M248.859,199.5a12.844,12.844,0,0,1,17.972,2.643c-.216-.22-12.742-12.775-20.616,7.664l-1.048-6A12.848,12.848,0,0,1,248.859,199.5Z" transform="translate(-245.167 -196.958)"/></g><path class="f" d="M244.017,201.5a12.845,12.845,0,0,1,21.663-1.663c-.216-.22-12.741-12.775-20.615,7.664l-1.048-6Z" transform="translate(-235.607 -180.885)"/><path class="f" d="M217.6,214.659c-3.042,1.352-2.028,7.267-2.028,7.267s1.014,20.45.507,24.844,6.253,8.62,6.253,8.62c-.507,1.859,1.521,1.014,1.521,1.014,9.634-3.38,20.788.338,20.788.338,1.69.169.676-2.028.676-2.028l2.366-22.478-.845-3.549-1.859-.507-.556-1.565c-16.949-.382-20.6-11.337-20.6-11.337l1.761-6.112C222.07,208.405,217.6,214.659,217.6,214.659Z" transform="translate(-215.411 -191.082)"/><path class="g" d="M306.062,349.662s9.128,7.819,9.454,1.264-9.8-3.277-9.8-3.277Z" transform="translate(-279.169 -288.32)"/><path class="g" d="M237.113,277.737l.025,1.159a70.116,70.116,0,0,0,3.437,20.206h0l3.155.462,13.655.841.984-4.491-11.529-3.988s-.868-8.293-1.674-11.815a7.177,7.177,0,0,0-3.391-4.788C239.511,275.21,237.113,277.737,237.113,277.737Z" transform="translate(-230.733 -237.834)"/><circle class="g" cx="3.127" cy="3.127" r="3.127" transform="translate(6.162 22.309)"/><circle class="g" cx="2.282" cy="2.282" r="2.282" transform="translate(9.204)"/><path class="a" d="M287.915,220.307h.536v.536h.1v-.536h.536v-.1h-.536v-.536h-.1v.536h-.536Z" transform="translate(-266.6 -198.541)"/><path class="a" d="M305.915,237.307h.536v.536h.1v-.536h.536v-.1h-.536v-.536h-.1v.536h-.536Z" transform="translate(-279.308 -210.544)"/></g></svg>