<svg xmlns="http://www.w3.org/2000/svg" viewBox="0 0 75.42 14.42">
  <title>Booster logo with chevron</title>
  <path d="M2.89 0H0l3.25 7.22L0 14.42h2.89l3.27-7.21L2.89 0Z" fill="#5fb53b"/>
  <path fill="#fff" d="M16.89.8c1.19 0 2.43.2 3.35.79.88.58 1.33 1.51 1.33 2.61 0 1.19-.54 2.07-1.93 2.61 1.62.49 2.45 1.51 2.45 3.01s-.79 2.54-2.05 3.08c-.96.4-2.18.5-3.31.5h-2.84V.8h3.01Zm2.95 3.49c0-.77-.27-1.22-.72-1.51-.65-.41-1.57-.47-2.65-.47h-.86V6.2h1.21c1.89 0 3.02-.59 3.02-1.91Zm-.61 7.22c.61-.29 1.03-.81 1.03-1.67 0-1.26-.92-2.12-2.63-2.12h-2.02v4.18h.96c1.04 0 1.96-.05 2.66-.38Zm4.69-2.61c0-2.63 1.96-4.72 4.59-4.72S33.1 6.27 33.1 8.9s-1.96 4.72-4.59 4.72-4.59-2.09-4.59-4.72Zm7.51 0c0-1.75-1.22-3.21-2.92-3.21s-2.92 1.46-2.92 3.21 1.22 3.2 2.92 3.2 2.92-1.46 2.92-3.2Zm3.19 0c0-2.63 1.96-4.72 4.59-4.72S43.8 6.27 43.8 8.9s-1.96 4.72-4.59 4.72-4.59-2.09-4.59-4.72Zm7.51 0c0-1.75-1.22-3.21-2.92-3.21s-2.92 1.46-2.92 3.21 1.22 3.2 2.92 3.2 2.92-1.46 2.92-3.2Zm3.19 3.32 1.15-.92c.59.63 1.24.95 1.96.95.88 0 1.62-.45 1.62-1.39 0-.7-.83-1.03-1.73-1.39-1.19-.47-2.58-.99-2.58-2.61 0-1.82 1.4-2.68 2.9-2.68 1.03 0 2.05.34 2.77.99l-.97 1.04c-.41-.36-1.17-.67-1.78-.67-.83 0-1.35.49-1.35 1.19s.86 1.03 1.73 1.37c1.17.45 2.63 1.12 2.63 2.68 0 2.02-1.57 2.83-3.26 2.83-1.22 0-2.39-.49-3.1-1.4Zm9.24-.04c-.22-.5-.29-1.17-.29-1.87V5.84h-1.21V4.4h1.21V2.24h1.64V4.4h2.52v1.44h-2.52v4.07c0 .23 0 .43.02.7.05.95.36 1.51 1.26 1.51.36 0 .72-.11 1.01-.25l.45 1.31c-.45.23-1.08.4-1.68.4-1.26 0-2.03-.56-2.41-1.4Zm5.09-3.28c0-2.68 1.96-4.72 4.46-4.72s4.11 1.78 4.11 4.2c0 .31-.04.7-.07.94h-6.86c.11 1.55 1.17 2.9 2.9 2.9 1.19 0 2.14-.43 2.68-1.46l1.19.76c-.9 1.44-2.12 2.11-3.94 2.11-2.86 0-4.46-2.09-4.46-4.72Zm4.48-3.31c-1.46 0-2.4 1.06-2.72 2.41h5.11c-.07-1.28-1.04-2.41-2.39-2.41Zm8-1.19v1.5c.54-.97 1.35-1.71 2.32-1.71.38 0 .63.04.97.11l-.31 1.75c-.27-.13-.5-.18-.85-.18-.92 0-1.58.54-2.14 1.51v6.03h-1.64V4.4h1.64Z"/>
</svg>