<svg xmlns="http://www.w3.org/2000/svg" width="249.072" height="201.463" viewBox="0 0 249.072 201.463"><defs><style>.a{fill:#324958;}.b{fill:#f2f2f2;}.c{fill:#d09734;}.d{opacity:0.1;}.e{fill:#e6e6e6;}.f{fill:#fff;}.g{fill:#d76c42;}.h{fill:#3f3d56;}</style></defs><path class="a" d="M249.072,200.96v59.412a87.684,87.684,0,0,1-87.682,87.686H0V288.646a87.767,87.767,0,0,1,55.829-81.718,86.141,86.141,0,0,1,8.543-2.832c.056-.019.116-.035.172-.048q1.283-.351,2.582-.662c.048-.013.094-.024.143-.035a87.74,87.74,0,0,1,16.265-2.294c.648-.03,1.3-.054,1.95-.067.234-.008.471-.013.71-.013q.742-.016,1.493-.016Z" transform="translate(0 -146.906)"/><ellipse class="b" cx="2.238" cy="1.791" rx="2.238" ry="1.791" transform="translate(34.997 76.108)"/><ellipse class="b" cx="1.791" cy="2.238" rx="1.791" ry="2.238" transform="translate(197.063 149.531)"/><circle class="b" cx="1.791" cy="1.791" r="1.791" transform="translate(108.419 89.539)"/><circle class="c" cx="0.895" cy="0.895" r="0.895" transform="translate(202.436 78.794)"/><ellipse class="c" cx="0.895" cy="1.343" rx="0.895" ry="1.343" transform="translate(40.37 132.518)"/><path class="b" d="M91.076,579.99h-.49v-.49h-.1v.49H90v.1h.49v.49h.1v-.49h.49Z" transform="translate(-65.792 -423.628)"/><path class="b" d="M676.076,431.99h-.49v-.49h-.1v.49H675v.1h.49v.49h.1v-.49h.49Z" transform="translate(-493.441 -315.437)"/><path class="b" d="M827.076,401.99h-.49v-.49h-.1v.49H826v.1h.49v.49h.1v-.49h.49Z" transform="translate(-603.825 -293.506)"/><path class="b" d="M502.076,481.99h-.49v-.49h-.1v.49H501v.1h.49v.49h.1v-.49h.49Z" transform="translate(-366.243 -351.988)"/><path class="b" d="M783.076,491.99h-.49v-.49h-.1v.49H782v.1h.49v.49h.1v-.49h.49Z" transform="translate(-571.66 -359.298)"/><path class="b" d="M444.076,534.99h-.49v-.49h-.1v.49H443v.1h.49v.49h.1v-.49h.49Z" transform="translate(-323.844 -390.732)"/><path class="b" d="M572.076,536.99h-.49v-.49h-.1v.49H571v.1h.49v.49h.1v-.49h.49Z" transform="translate(-417.415 -392.194)"/><path class="b" d="M93.076,366.99h-.49v-.49h-.1v.49H92v.1h.49v.49h.1v-.49h.49Z" transform="translate(-67.254 -267.92)"/><g transform="translate(0 0)"><path class="b" d="M116.205,605.5C52.166,605.5.228,622.769.01,644.1H232.4C232.183,622.769,180.245,605.5,116.205,605.5Z" transform="translate(-0.007 -442.635)"/><g class="d" transform="translate(73.162 180.154)"><ellipse cx="21.518" cy="5.977" rx="21.518" ry="5.977"/></g><g class="d" transform="translate(119.694 169.396)"><ellipse cx="21.518" cy="5.977" rx="21.518" ry="5.977"/></g><g class="d" transform="translate(75.29 180.869)"><ellipse cx="19.251" cy="5.372" rx="19.251" ry="5.372" transform="translate(0 0)"/></g><g class="d" transform="translate(121.851 170.124)"><ellipse cx="19.251" cy="5.372" rx="19.251" ry="5.372" transform="translate(0 0)"/></g><rect class="e" width="0.773" height="15.618" transform="translate(182.096 62.05)"/><path class="e" d="M592.416,385.046,585.3,401.437l1.392,2.319-.464.773,3.247,1.7V405.3l1.237-.309,5.257-9.587Z" transform="translate(-427.87 -281.478)"/><path class="e" d="M585.172,456.907s-5.257,8.2.618,9.432,1.082-8.659,1.082-8.659Z" transform="translate(-426.192 -334.01)"/><path class="f" d="M608.294,437.405l-1.855,6.031-.773,7.731-1.392,2.783,1.546,12.525,2.474,2.474,1.082,12.371v5.567l2.938,5.1-3.783,5.37a1.711,1.711,0,0,0,1.342,2.7,7.069,7.069,0,0,0,3.369-.955c4.484-2.32,4.33-4.484,4.33-4.484s2.783,0,2.938-2.165-1.7-17.628-1.7-17.628l-1.7-6.649V450.085h.619l.309,15.463,1.392,5.721.155,2.474,2.01,24.741s8.969,2.474,9.432.464-3.4-3.247-3.4-3.247l2.319-4.484v-8.659l-.773-1.856-1.392-12.525L630.1,465.7l1.237-1.546v-12.37l-1.546-4.794-.464-4.02-2.474-6.185S615.562,433.076,608.294,437.405Z" transform="translate(-441.738 -318.22)"/><path class="g" d="M630.078,281.242a11.752,11.752,0,1,1-21.184-7.009l0,0a11.751,11.751,0,0,1,21.181,7.012Z" transform="translate(-443.42 -197.002)"/><g class="d" transform="translate(165.167 73.105)"><path d="M633.879,278.053l-.959,5.491c-7.2-18.7-18.664-7.214-18.862-7.013a11.751,11.751,0,0,1,19.82,1.522Z" transform="translate(-614.059 -271.791)"/></g><path class="f" d="M635.029,275.753l-.959,5.491c-7.2-18.7-18.664-7.213-18.862-7.012a11.752,11.752,0,0,1,19.821,1.522Z" transform="translate(-449.731 -197.005)"/><path class="f" d="M627.947,283.993l1.611,5.592s-3.344,10.023-18.851,10.372l-.508,1.432-1.7.464-.773,3.247,2.165,20.566s-.928,2.01.618,1.856c0,0,10.206-3.4,19.02-.309,0,0,1.856.773,1.392-.928,0,0,6.185-3.866,5.721-7.886s.464-22.731.464-22.731.928-5.412-1.856-6.649C635.248,289.019,631.16,283.3,627.947,283.993Z" transform="translate(-444.261 -207.563)"/><path class="e" d="M649.988,429.418s-9.688.973-7.006,6.345,7.457-4.533,7.457-4.533Z" transform="translate(-469.691 -313.915)"/><path class="e" d="M671.552,339.267a6.566,6.566,0,0,0-1.082,5.257c.619,3.247,2.938,10.515,2.938,10.515l-8.2,7.577,2.474,3.4L678.82,360.3l2.474-1.546h0a64.152,64.152,0,0,0-4.544-18.194l-.4-.98S673.407,338.34,671.552,339.267Z" transform="translate(-486.286 -247.761)"/><circle class="e" cx="2.861" cy="2.861" r="2.861" transform="translate(181.632 80.296)"/><circle class="e" cx="2.088" cy="2.088" r="2.088" transform="translate(180.396 59.885)"/></g><path class="b" d="M478.076,350.99h-.49v-.49h-.1v.49H477v.1h.49v.49h.1v-.49h.49Z" transform="translate(-348.698 -256.224)"/><path class="b" d="M642.076,294.99h-.49v-.49h-.1v.49H641v.1h.49v.49h.1v-.49h.49Z" transform="translate(-468.586 -215.286)"/><path class="b" d="M624.076,311.99h-.49v-.49h-.1v.49H623v.1h.49v.49h.1v-.49h.49Z" transform="translate(-455.428 -227.714)"/><ellipse class="b" cx="0.895" cy="1.343" rx="0.895" ry="1.343" transform="translate(148.712 70.736)"/><g transform="translate(0 0)"><circle class="c" cx="22.588" cy="22.588" r="22.588" transform="translate(41.402 38.452)"/><path class="g" d="M8.72-17.958c4.816,0,8.72,4.913,8.72,10.974S8.72,14.227,8.72,14.227,0-.923,0-6.984,3.9-17.958,8.72-17.958Z" transform="translate(66.317 175.009)"/><path class="c" d="M3.717-17.958c2.053,0,3.717,3.386,3.717,7.562S3.717-.143,3.717-.143,0-6.219,0-10.4,1.664-17.958,3.717-17.958Z" transform="translate(71.319 175.009)"/><path class="b" d="M244.392,79.4c0,75.057-9.438,75.057-21.077,75.057-6.017,0-11.446,0-15.285-10.368a64.764,64.764,0,0,1-2.9-11.768c-1.84-11.118-2.9-27.825-2.9-52.921a144.251,144.251,0,0,1,2.9-27.947c.843-4.254,1.828-8.36,2.9-12.276,1.307-4.795,2.738-9.3,4.183-13.428.969-2.774,1.947-5.377,2.9-7.781A167.254,167.254,0,0,1,223.315,0S244.392,37.948,244.392,79.4Z" transform="translate(-147.841)"/><g class="d" transform="translate(64.373 17.969)"><path d="M242.221,66.8V197.66h-2.9V74.584C240.294,71.81,241.272,69.207,242.221,66.8Z" transform="translate(-239.325 -66.803)"/></g><circle class="h" cx="11.584" cy="11.584" r="11.584" transform="translate(61.541 61.386) rotate(-80.783)"/><path class="b" d="M233.448,525.181c-2.576-6.34-5.883-7.434-8.045-7.339v-1.027H191.616v1.027c-2.162-.095-5.469,1-8.045,7.339-4.183,10.3,2.574,28,2.574,28s-3.611-24.683,8.381-24.846a14.2,14.2,0,0,0,3.762,3.413v6.639h19.366v-6.034a14.179,14.179,0,0,0,4.838-4.018c11.992.162,8.381,24.846,8.381,24.846S237.631,535.479,233.448,525.181Z" transform="translate(-133.035 -377.804)"/><circle class="g" cx="9.01" cy="9.01" r="9.01" transform="translate(65.821 42.797)"/></g><path class="g" d="M844.548,200.96h-.538a22.079,22.079,0,0,0,22.053,21.932v-.538A21.539,21.539,0,0,1,844.548,200.96Z" transform="translate(-616.991 -146.906)"/><path class="g" d="M807.548,200.96h-.538a32.039,32.039,0,0,0,32.006,31.884v-.538A31.5,31.5,0,0,1,807.548,200.96Z" transform="translate(-589.943 -146.906)"/><path class="g" d="M769.538,200.96H769a42.277,42.277,0,0,0,42.229,42.106v-.538A41.738,41.738,0,0,1,769.538,200.96Z" transform="translate(-562.157 -146.906)"/></svg>