<svg xmlns="http://www.w3.org/2000/svg" viewBox="0 0 450.814 398.207">
  <g transform="translate(17786.504 -22711.736)">
    <path fill="#f6f6f6" d="M-17357.347 22954.821c-18.261-9.317-40.116-9.995-60.21-12.136l-71.947-7.66c-27.251-2.9-55.023-3.515-81.545-10.895-20.151-5.6-36.066-15.508-51.731-28.629-14.647-12.268-28.19-23.982-48.791-23.523-27.89.621-65.117 14.964-70.943 44.82-1.606 8.242.436 16.039 4.372 23.376 4.8 8.943 11.368 17.218 12.041 27.639.682 10.521-3.832 20.312-11.8 27.351-7.389 6.551-16.418 11.018-24.21 17.038-14.078 10.896-25.868 26.414-24.243 44.707 1.539 17.384 15.7 28.179 32.878 30.107 21.316 2.369 41.685-8.051 61.793-13.083 22.822-5.684 46.895-7.934 70.228-4.145 20.425 3.316 39.69 11.032 58.689 18.729 19.151 7.759 38.477 15.745 59.007 19.383a131.552 131.552 0 0 0 61.546-3.7c15.774-4.851 36.142-13.107 42.016-29.634 3.363-9.474.739-19.563.1-29.241-.673-10.251 1.952-19.989 9.384-27.573 13.509-13.794 37.568-9.123 49.874-24.257 11.871-14.585-3-31.8-16.513-38.672Z"/>
    <ellipse cx="8.39" cy="5.225" fill="#fff" rx="8.39" ry="5.225" transform="rotate(-75.66 5931.68 22591.19)"/>
    <path fill="#324958" d="M-17411.501 22735.953c.4-3.324-.38-9-4.84-9-4.31 0-6.807 5.318-7.342 8.9-.483 3.242.216 8.508 4.29 9.063 4.593.622 7.193-5.164 7.861-8.734.18-.966-1.3-1.382-1.48-.411-.514 2.708-1.9 6.746-4.948 7.532-4.028 1.028-4.593-4.588-4.187-7.224s2.131-7.194 5.359-7.497c3.812-.39 4.064 4.773 3.751 7.393-.118.961 1.418.951 1.536-.021Z"/>
    <path fill="#fff" d="m-17401.898 22786.516-.339-12.331h8.734l-8.03-22.755a9.562 9.562 0 0 0-9.248-6.379l-19.935 2.377-17.751 1.952 14.478 19.986-2.425 9.762Z"/>
    <path fill="#324958" d="M-17584.437 22756.542c1.135-.149 19.405-11.817 42.041-12.28 31.577-.683 58.911 33.072 58.911 33.072l-66.519-8.682-36.992-4.82Z"/>
    <path fill="#fff" d="m-17509.524 22755.756-6.869 9.541 28.361 7s-10.091-10.576-21.492-16.541Z"/>
    <path fill="#324958" d="m-17510.191 22755.365-6.867 9.531a.776.776 0 0 0 .457 1.13l28.361 7a.776.776 0 0 0 .75-1.284 87.8 87.8 0 0 0-21.648-16.658c-.873-.468-1.649.858-.776 1.326a86.316 86.316 0 0 1 21.337 16.439l.75-1.284-28.361-7 .457 1.125 6.873-9.529c.575-.822-.755-1.593-1.331-.8Z"/>
    <g transform="translate(-17727.836 22990.086)">
      <path fill="#324958" d="m32.667 54.247 1.772-47.679-17.248.139-3.124 43.718Z"/>
      <ellipse cx="8.626" cy="6.566" fill="#324958" rx="8.626" ry="6.566" transform="rotate(-.41 25.769 -2397.966)"/>
      <path fill="#324958" d="M36.155 42.82 10.7 50.414a8.894 8.894 0 0 0-6.3 7.568L0 98.915l15.706 5.805 47.91-19.616S49.287 46.658 36.155 42.82Z"/>
      <path fill="#f4f4f6" d="M203.515 95.36c0-.848-.514-6.165-1.028-6.91-2.132-3.232-7.635-1.269-15.28-.74-7.953.555-15.139.077-16.991 3.797-.334.668 0 4.958 0 5.652.355 13.708 33.663 10.692 33.3-1.8Z"/>
    </g>
    <path fill="#4dd1c8" d="m-17687.568 23037.199-26.403-41.992-14.941 8.359 26.922 40.548Z"/>
    <path fill="#324958" d="M-17525.346 23079.225c0-4.568-7.224-7.738-16.133-7.08s-15.511 5.195-15.511 9.762c0 12.131 31.644 8.133 31.644-2.682Z"/>
    <ellipse cx="12.233" cy="11.858" fill="#fff" rx="12.233" ry="11.858" transform="translate(-17699.803 23051.141)"/>
    <path fill="#f4f4f6" d="m-17666.274 23032.386-2.148-239.793c-.092-10.389 9.13-18.568 19.8-17.541l78.745 7.491 79.364 7.527 144.64 13.775a9.914 9.914 0 0 1 3.951 1.243 9.336 9.336 0 0 1 4.793 8.1l.041 133.666a9.428 9.428 0 0 1-6.725 8.945l-298.914 93.075a18.6 18.6 0 0 1-5.543.85c-9.535-.001-17.913-7.447-18.004-17.338Z"/>
    <path fill="#324958" d="m-17607.007 23038.551 26.239-8.169 63.006-19.617 75.947-23.632 65.677-20.45 21.795-6.787a103.1 103.1 0 0 0 10.276-3.206c.139-.062.293-.092.432-.139.94-.293.514-1.773-.406-1.48l-26.219 8.144-63.005 19.631-75.943 23.634-65.682 20.444-21.79 6.787a105.4 105.4 0 0 0-10.306 3.206 3 3 0 0 1-.432.134c-.935.298-.535 1.782.411 1.482Zm-88.275.373c5.333 19.467 28.726 35.734 25.551 43.867-3.761 9.639-24.538 9.7-39.392 7.928l3.036 6.993s37.193 8.668 50.937-7.969 6.1-44.4 6.1-44.4Z"/>
    <path fill="none" stroke="#324958" stroke-miterlimit="10" stroke-width="4" d="m-17624.561 22907.395 69.171 55.2s7.779 17.777 5.04 34.829c-5.04 31.382 30.894 58.058-.072 78.779"/>
    <path fill="#f4f4f6" d="m-17625.803 22910.701 58.638 46.621c.909.724 1.8 1.588 2.78 2.214.873.555 1.87.9 2.749 1.5 9.6 6.489 8.765 20.1 8.734 30.226 0 6.941-.2 13.918.627 20.829a64.993 64.993 0 0 0 4.783 17.14 144.284 144.284 0 0 1 5.313 15.2c1.356 4.758 3.211 10.594 1.716 15.516-2.014 6.618-7.193 10.373-12.2 14.571-3.031 2.569-7.034 6.736-3.946 10.789 2.081 2.713 5.729 3.53 8.93 3.992a31.788 31.788 0 0 0 11.2-.39c5.076-1.089 11.565-3.71 11.992-9.675l-1.505.2.755 5.035a18.263 18.263 0 0 1 .349 2.656c-.277 2.312-2.322 4.29-4.264 5.42-5.318 3.083-13.194 3.448-19.056 2.055-4.11-.951-7.522-3.442-8.221-7.768a16.558 16.558 0 0 1 .57-6.35c.185-.817-.971-1.387-1.4-.591-.473.873.858 1.649 1.331.776l-1.418-.56c-1.377 6.242-.514 12.47 6.165 15.2 6.165 2.512 14.7 2.055 20.788-.442 3-1.228 5.939-3.427 6.849-6.679a4.866 4.866 0 0 0 .108-2.122c-.288-2.358-.719-4.706-1.074-7.054-.139-.9-1.454-.606-1.511.205-.514 7.4-12.29 8.971-17.844 8.847-3.5-.077-8.138-.462-10.82-2.959s-1.192-5.256.915-7.465c3.329-3.483 7.563-5.724 10.553-9.577s5.138-8.221 4.722-13.23c-.76-9.572-4.624-19.128-8.3-27.9-5.41-12.845-4.465-26.532-4.562-40.157-.067-9.33-.545-20.192-8.611-26.424a14.458 14.458 0 0 0-2.291-1.476c-.236-.118-1.726-.853-.94-.355a24.235 24.235 0 0 1-2.019-1.6l-31.141-24.762-28.35-22.535c-.766-.611-1.86.468-1.084 1.085Z"/>
    <path fill="#324958" d="M-17666.731 23047.037s-3.478 27.138 22.175 22.447c18.276-3.34 26.717-22.365 36.895-20.274 0 0-9.921 6.941-14.859 34.09-.2 1.058 5.914-.565 6.227-1.593 6.278-20.67 30.39-32.5 25.34-47.078-6.473-18.656-75.778 12.408-75.778 12.408Z"/>
    <path fill="#fff" d="m-17630.652 23015.295 52.077-5.677 16.991-42.074 12.182-4.07s-2.5-5.975-8.39-4l-5.919 1.1 3.201-4.945a11.5 11.5 0 0 0-6.342 7.635l-19.008 24.317-8.735-2.862"/>
    <path fill="#fff" stroke="#324958" stroke-linecap="round" stroke-linejoin="round" stroke-miterlimit="10" stroke-width="2" d="M-17695.045 22951.914s3.36-17.417 24.1-32.882l38.453-15.65a5.749 5.749 0 0 1 5.138.411c1.747 1.053 3.535 3.283 6.314 3.812 5.061.961.046 2.507-3.134 2.456-2.826-.041-9.207-1.7-9.207-1.7s-13.664 11.822-26.464 15.711c0 0-3.463 11.144-6.242 24.9"/>
    <path fill="#4dd1c8" d="M-17693.459 23044.225s-16.955-42.02-3.083-90.578c0 0 14.386-9.145 31.608-4.706l.272 9.315c-2.054 1.156 69.564 25.124 69.564 25.124s2.99 20.885-5.081 28.587l-10.091 2.25-9.633 21.25a35.318 35.318 0 0 1-27.118 20.551c-11.747 1.624-27.731-.005-46.438-11.793Z"/>
    <path fill="#324958" d="M-17624.144 22909.325a7.46 7.46 0 0 0-3.282-.643 26.717 26.717 0 0 1-4.665-.514 3.036 3.036 0 0 0-3.353 1.819c-.488 1.475.863 3.124 1.829 4.11 1.6 1.634 2.821.267 4.434-.478a30.56 30.56 0 0 0 5.037-2.97.753.753 0 0 0 0-1.32Zm18.75 164.944c-2.2-.709-7.373 1.115-8.56 1.408-.848.211-4.537-.97-4.537-.97s-1.906 3.863-3.627 7.336c-1.609 3.264 1.865 6.099 4.891 3.977l.051-.036c2.965-2.086 5.949-4.162 8.843-6.346 1.228-.915 6.227-4.316 2.939-5.369Zm-97.445 17.047-1.505-.827c-3.894-4.285-6.53-1.433-9.274.437l-13.333 9.089a8.113 8.113 0 0 0-1.541 1.788c.267 1.1 5.107 3.73 10.887 1.156 6.71-3 15.2-5.811 15.2-5.811Z"/>
    <path fill="#fff" stroke="#324958" stroke-linecap="round" stroke-linejoin="round" stroke-miterlimit="10" stroke-width="1.49" d="M-17656.488 22962.645s-6.582 4.588-2.975 9.967c5.21 7.779 21.276 8.919 33.951 1.634 0 0-4.624-4.593-5.138-16.138l-8.976-1.454s-8.97 9.13-16.862 5.991Z"/>
    <path fill="#fff" d="M-17635.589 22928.722a36.1 36.1 0 0 1 21.317 13.04c2.466 3.165 4.408 6.962 4.177 10.923-.3 5.251-4.568 9.793-9.675 11.57s-10.851 1.135-15.927-.7c0 0-14.828-2.482-15.927-15.028s6.057-23.371 16.035-19.805"/>
    <path fill="none" stroke="#324958" stroke-linecap="round" stroke-linejoin="round" stroke-miterlimit="10" stroke-width="1.5" d="M-17635.59 22928.723a36.1 36.1 0 0 1 21.317 13.04c2.461 3.16 4.408 6.96 4.177 10.923-.637 11.087-13.358 12.428-21.903 11.817"/>
    <path fill="#f36f12" d="M-17622.215 22925.844a11.2 11.2 0 0 1-2.518 6.571c-2.466 3.047-11.139 7.522-6.366 12.2a9 9 0 0 1 1.079 1.089c.776 1.058-.026 2.518-.349 3.648a.781.781 0 0 1-1.29.339c-1.223-1.028-3.119-2.471-4.788-2.055a2.631 2.631 0 0 0-1.1.591 6.854 6.854 0 0 0-.514 3.864 4.625 4.625 0 0 0 .206.514.755.755 0 0 1 .041.627 7.193 7.193 0 0 0 1.028 2.137c1.151 1.593 5.426 4.788 3.406 6.993-2.821 3.083-9.89-.776-12.413-2.61-.935-.688-2.7-3.314-3.771-3.447.355 0 .719-.072.6-.211a.771.771 0 0 1 .17-1.207c.062-.041.134-.062.2-.1a49.5 49.5 0 0 1 6.942-20.786c1.2-1.937 2.8-5.086 5.112-6.047a8.025 8.025 0 0 1 3.812-.38 11.062 11.062 0 0 0 5.086-3.555c.827-.976 1.7-2.451 3.211-2.189 1.829.308 2.291 2.122 2.214 4.013Z"/>
    <g fill="#324958">
      <path stroke="#324958" stroke-linecap="round" stroke-linejoin="round" stroke-miterlimit="10" stroke-width="4.49" d="M-17652.626 22951.912s21.356-8.734 23.422-25.514-11.668-2.02-11.668-2.02-15.554 14.592-11.754 27.534Z"/>
      <path stroke="#324958" stroke-linecap="round" stroke-linejoin="round" stroke-miterlimit="10" stroke-width="4.49" d="M-17630.386 22931.202s-7.311-12.932-13.671-12.845-14.859 17.88-8.57 33.556c5.364 13.255 22.241-20.711 22.241-20.711Z"/>
      <path d="M-17625.751 22937.993a2.273 2.273 0 0 0-2.487.371.76.76 0 0 0 0 1.084 3.514 3.514 0 0 0 2.394 1.1c.8.041 2.158-.211 2.081-1.238-.061-.802-1.14-1.172-1.988-1.317Z"/>
    </g>
    <path fill="#fff" d="m-17718.201 23040.29 3.787.93a7.676 7.676 0 0 1 5.691 8.109l-3.511 46.4-16.26-6.25 4.676-45.054a4.838 4.838 0 0 1 1.918-3.376 4.467 4.467 0 0 1 3.7-.759Z"/>
    <g transform="translate(-17732.078 22911.467)">
      <path fill="#f4f4f6" d="m114.703 4.512 2.677-3.17c.632-.751-.455-1.842-1.09-1.085l-2.671 3.17c-.637.751.447 1.845 1.084 1.085Zm6.555 5.877 2.337-2.939c.6-.771-.477-1.865-1.094-1.089l-2.327 2.944c-.606.766.473 1.86 1.084 1.084Zm9.798 7.542 2.476-2.98c.633-.75-.454-1.841-1.083-1.084l-2.482 2.975c-.627.755.452 1.85 1.089 1.089Zm11.062 8.843 2.81-2.8a.771.771 0 0 0-1.088-1.084l-2.81 2.8a.771.771 0 0 0 1.088 1.084Zm14.774 10.861 1.873-2.338a.8.8 0 0 0 0-1.089.781.781 0 0 0-1.089 0l-1.871 2.338a.8.8 0 0 0 0 1.089.781.781 0 0 0 1.089 0Zm32.736 124.475a18.892 18.892 0 0 0-8.02 2.836c-1.67 1.141-3.658 3.18-3.155 5.41.879 3.879 7.707 3.833 10.738 3.848a.771.771 0 0 0 0-1.541c-2.266 0-8.072.18-9.145-2.394-.858-2.055 2.228-4.039 3.699-4.794a19.3 19.3 0 0 1 6.289-1.88c.976-.134.56-1.613-.406-1.485Z"/>
      <path fill="#f4f4f6" d="M184.855 169.329c3.833 1.541 10.348 2.006 13.605-1.208 3.715-3.668-5.138-4.186-6.874-3.93-.971.144-.56 1.624.411 1.485a11.719 11.719 0 0 1 2.507-.141 6.792 6.792 0 0 1 2.22.462q1.028 0 .416.771c-.252 1.207-2.656 1.644-3.715 1.88a13.749 13.749 0 0 1-8.159-.784c-.922-.37-1.315 1.115-.411 1.48Zm-4.763-99.444 1.983-.19a.791.791 0 0 0 .77-.77.771.771 0 0 0-.77-.766l-1.983.19a.791.791 0 0 0-.766.771.771.771 0 0 0 .766.765Zm.802 12.691h2.178a.771.771 0 1 0 0-1.541h-2.178a.771.771 0 0 0 0 1.541Zm.205 14.966 1.783-.575c.94-.3.514-1.788-.406-1.485l-1.782.581c-.936.303-.536 1.788.405 1.479Zm6.011 24.246 2.446-1.593c.824-.513.057-1.865-.776-1.325l-2.445 1.593c-.828.513-.055 1.865.775 1.325Zm2.153 34.679 1.192.961a.786.786 0 0 0 1.084 0 .771.771 0 0 0 0-1.084l-1.187-.96a.791.791 0 0 0-1.089 0 .776.776 0 0 0 0 1.084Z"/>
      <ellipse cx="8.565" cy="6.612" fill="#4dd1c8" rx="8.565" ry="6.612" transform="rotate(-26.92 179.474 42.956)"/>
    </g>
    <path fill="#f4f4f6" d="M-17723.119 23004.732c3.458-.067 7.255-2.348 7.8-6.032.57-3.878-3.782-5.107-6.726-3.978-1.968.76-7.63 4.11-4.7 6.746 2.461 2.22 6.165-.175 6.987-2.774.3-.945-1.182-1.346-1.485-.406a3.263 3.263 0 0 1-2.138 2.234c-2.014.663-2.62-.889-1.3-2.384a7.643 7.643 0 0 1 5.303-2.366c3.206.262 2.821 3.545 1.156 5.333a6.731 6.731 0 0 1-4.9 2.091.771.771 0 0 0 0 1.541Z"/>
    <path fill="#324958" d="M-17715.489 23035.736c-2.805-2.639-5.651-5.251-8.415-7.902-.283-.262-.565-.514-.837-.807l1.725-2.753c.925-.344 2.877.827 3.483 1.382a4.884 4.884 0 0 1 .354 6.735c-.606.766.478 1.86 1.089 1.084 3.509-4.455.3-11.817-5.878-10.656-2.284.422-3.728 2.533-2.411 4.625.94 1.5 2.667 2.672 3.946 3.874l5.857 5.492c.719.678 1.809-.406 1.084-1.084Zm-1.577 1.793a24.148 24.148 0 0 0-17.885-6.325.771.771 0 0 0 0 1.541c2.276 0 3.252 1.151 4.347 3.083.8 1.392 1.582 2.744 3.114 3.432a4.96 4.96 0 0 0 6.725-3.042c.349-.925-1.135-1.326-1.48-.406-1.387 3.684-5.287 2.266-6.833-.39a10.954 10.954 0 0 0-2.189-3.267 5.785 5.785 0 0 0-3.684-.935v1.541a22.607 22.607 0 0 1 16.785 5.852c.724.668 1.814-.416 1.084-1.084Z"/>
    <path fill="#fff" d="M-17727.809 23101.469c.94 1.541 4.444.087 5.744-.262 4.357-1.171 8.4-1.958 11.612-5.189 1.315-1.32 3.242-3.812 3.376-5.652.266-3.683-2.668-2.825-4.625-1.752-2.389 1.305-5.652 3.37-8.133 4.953-3.84 2.461-9.891 4.773-7.974 7.902Z"/>
    <g fill="#4dd1c8">
      <path d="M-17728.354 23102.015c1.439 1.629 3.93.7 5.682.18 2.9-.858 5.924-1.428 8.668-2.759 2.96-1.439 10.487-7.707 7.07-11.668-1.1-1.29-2.933-.812-4.275-.242a62.251 62.251 0 0 0-8.385 4.984c-2.81 1.778-11.164 4.737-8.883 9.351.442.884 1.767.108 1.331-.776-1.413-2.856 6.479-6.083 8.328-7.249s3.684-2.338 5.569-3.442c1.356-.8 3.514-2.569 4.84-1.331 1.7 1.6-1.028 4.727-2.178 5.986a14.669 14.669 0 0 1-5.816 3.73c-1.916.709-3.91 1.13-5.867 1.69-1.248.36-3.925 1.675-5 .457-.658-.74-1.737.349-1.084 1.089Z"/>
      <path d="m-17714.414 23090.383 4.331 4.316a.767.767 0 1 0 1.082-1.084l-4.329-4.321a.771.771 0 0 0-1.084 1.089Zm-3.844 2.495 3.827 5.191c.581.791 1.916 0 1.326-.776l-3.828-5.189c-.58-.786-1.911 0-1.325.774Zm-3.684 2.406 2.569 5.457.457-1.131-.113.046c-.9.37-.514 1.855.406 1.485l.118-.051a.781.781 0 0 0 .457-1.125l-2.569-5.455c-.416-.9-1.741-.12-1.325.774Zm-3.782 2.632.73 3.329c.211.966 1.7.555 1.48-.411l-.73-3.329c-.21-.961-1.69-.555-1.48.411Z"/>
    </g>
    <path fill="none" stroke="#324958" stroke-linecap="round" stroke-linejoin="round" stroke-miterlimit="10" stroke-width="2" d="m-17594.631 22984.719 8.734 2.862 19.011-24.317a11.5 11.5 0 0 1 6.34-7.635l-1.942 4.711 4.886-1.279c5.893-1.464 8.179 4.413 8.179 4.413l-12.182 4.07-16.99 42.073-52.057 5.678 14.088 3.134"/>
    <path fill="#fff" d="M-17659.626 22960.781s-37.615 41.103-51.78 85.848a4.383 4.383 0 0 1-5.847 2.672 4.167 4.167 0 0 1-2.369-5.42c5.408-13.482 25.233-59.271 54.976-85.633Z"/>
    <g transform="translate(-17717.539 23021.297)">
      <ellipse cx="1.886" cy="1.829" fill="#324958" rx="1.886" ry="1.829" transform="translate(0 21.75)"/>
      <path fill="#324958" d="M17.314.968a72.906 72.906 0 0 0 16.18 36.514c.632.76 1.716-.334 1.089-1.089A71.478 71.478 0 0 1 18.799.557c-.133-.976-1.618-.557-1.485.411Z"/>
      <path fill="#f4f4f6" d="m176.074 22.104 1.978-.586a.768.768 0 0 0-.406-1.478l-1.983.585a.769.769 0 0 0 .411 1.479Zm1.865 14.659 1.788.478a.767.767 0 0 0 .406-1.48l-1.783-.483a.771.771 0 0 0-.411 1.485Z"/>
    </g>
    <path fill="#324958" d="m-17652.363 22899.992-.36-30.462-.6-49.837c-.047-4.234-.237-8.498-.15-12.734.1-4.871 4.162-4.881 7.743-4.788l38.077 1 51.44 1.355 18.5.488c2.466.062 5.652-.4 8.061.406 4.341 1.454 3.052 9.248 3.083 12.773l.3 23.167.581 43.25c.031 2.363.046 4.655-2.569 5.878a15.4 15.4 0 0 1-3.894.832l-19.1 3.144-45.126 7.429-2.918.478c-.976.159-.56 1.644.406 1.485l37.2-6.124 24.184-3.982c3.55-.586 9.89-.514 12.254-3.74 2.117-2.887 1.028-8.6 1.028-11.894l-.31-23.757-.565-43.672c-.057-4.141-2.327-6.931-6.612-7.085-4.151-.149-8.3-.216-12.454-.324l-49.375-1.3-46.529-1.192c-2.855-.072-5.718-.237-8.57-.227a6.035 6.035 0 0 0-6.366 5.924c-.046 1.141 0 2.3.041 3.442l.514 44.8.514 42.8.031 2.461a.771.771 0 0 0 1.541 0Z"/>
    <path fill="#fff" d="m-17587.85 22872.791 1.87-58.407a6.8 6.8 0 0 0-6.55-6.91l-46.58-2.384a6.823 6.823 0 0 0-7.28 7l2.923 64.811a6.854 6.854 0 0 0 7.6 6.381l41.78-4.028a6.8 6.8 0 0 0 6.237-6.463Z"/>
    <path fill="#4dd1c8" d="M-17589.869 22856.246c-1.989-3.186-4.722-5.071-7.707-5.215-1.094.128-2.2.319-3.324.555a10.892 10.892 0 0 0-2.6 1.428c-6.135 4.506-9.762 11.658-13.42 18.383.951 3.71 1.88 7.707 2.656 9.762l13.244-1.253 6.916-.668a6.8 6.8 0 0 0 6.258-6.448l.365-11.4a24.785 24.785 0 0 0-2.388-5.144Z"/>
    <path fill="#f36f12" d="M-17602.171 22821.047a.7.7 0 0 1-.3.036 10.394 10.394 0 0 0-10.006 5.98c-2.143 4.666 1.063 10.333 5.569 10.184 3.658-.123 7.316-3.463 8.565-7.4 1.32-4.162-.75-7.625-3.828-8.8Z"/>
    <path fill="#1b6964" d="M-17605.331 22872.934c-3.001-8.148-5.891-17.227-11.817-23.772-2.836-3.134-6.808-6.638-11.242-4.784-3.532 1.484-6.263 4.856-8.693 7.707a71.344 71.344 0 0 0-7.039 10.045l.658 14.771a6.854 6.854 0 0 0 7.6 6.381l32.975-3.18c-.745-2.435-1.582-4.824-2.446-7.167Z"/>
    <path fill="#324958" d="m-17578.748 22816.86 40.44-1.721c.986-.046.992-1.582 0-1.541l-40.44 1.721c-.986.041-.992 1.582 0 1.541Zm1.068 14.566 37.537-3c.981-.077.992-1.618 0-1.541l-37.537 2.996c-.976.08-.986 1.617 0 1.545Zm-.534 17.309 39.1-1.028a.771.771 0 0 0 0-1.541l-39.1 1.028a.771.771 0 0 0 0 1.541Zm-.247 22.997 39.364-3.565c.976-.087.986-1.624 0-1.541l-39.364 3.596c-.976.087-.986 1.624 0 1.541Z"/>
    <path fill="#9ee6e1" d="M-17653.519 22753.855a14.936 14.936 0 0 1 17.109-11.73l290.062 48.542a8.374 8.374 0 0 1-2.4 16.57l-291.932-35.559a14.936 14.936 0 0 1-12.848-17.823Z"/>
    <path fill="#f4f4f6" d="M-17579.756 22761.086c-1.588 2.831-2.308 7.461-.196 10.23 2.245 2.944 6.756 2.97 9.623 1.074l-1.028-.277a8.73 8.73 0 0 0 10.676 3.16 8.709 8.709 0 0 0 4.286-10.647c-.319-.93-1.8-.514-1.48.406a7.227 7.227 0 0 1-2.99 8.611 7.133 7.133 0 0 1-9.166-2.307.781.781 0 0 0-1.028-.272c-2.594 1.711-7.022 1.541-8.219-1.839a9.6 9.6 0 0 1 .884-7.368.767.767 0 0 0-1.326-.771Z"/>
    <path fill="#fff" d="M-17558.133 22747.365s2.471 5.924 17.037 7.111c11.642.945 17.037-6.6 17.037-6.6l-7.09-7.026Z"/>
    <path fill="#324958" d="M-17558.795 22747.756c2.235 5.138 10.79 6.681 15.414 7.249 7.07.884 15.48-.581 19.966-6.746a.776.776 0 0 0-.118-.93l-3.54-3.5c-.992-.98-2.256-2.866-3.53-3.492-1.541-.74-4.722.735-6.263 1.11l-21.466 5.19c-.961.231-.555 1.716.406 1.48l20.407-4.929 4.819-1.166a4.624 4.624 0 0 0 1.31-.313c.627-.442 0 .139-.236-.211 1.824 2.569 4.783 4.722 7.023 6.931l-.118-.93c-4.208 5.78-12.413 6.828-18.954 5.939-4.14-.56-11.816-1.901-13.789-6.443-.4-.92-1.721-.139-1.331.76Z"/>
    <path fill="#fff" d="M-17570.024 22772.295s4.768-7.867 10.569-7.487c0 0-11.647 32.44-47.571 28.864 0 0-3.232-6.54 5.7-17.864l17.556 1.844a94.077 94.077 0 0 1 13.746-5.357Z"/>
    <path fill="#324958" d="M-17569.361 22772.684c2.086-3.4 5.652-7.193 9.906-7.111l-.736-.971c-3.751 10.363-12.57 19.631-22.334 24.384a42.182 42.182 0 0 1-14.546 3.992c-2.764.252-5.713-.288-8.426.057-1.135.144-1.028.159-1.228-1.382-.617-4.675 1.85-9.438 4.4-13.158 1.254-1.829.714-1.947 2.728-1.737l5.569.581 6.325.668a19.567 19.567 0 0 0 3.889.406c1.2-.139 2.425-1.028 3.489-1.49a79.411 79.411 0 0 1 10.531-3.89.767.767 0 1 0-.406-1.48 77.515 77.515 0 0 0-9.407 3.4c-1.125.478-2.245.971-3.35 1.485a7.28 7.28 0 0 1-.951.447c-.452.139.221 0 .092 0-3.365.18-7.121-.745-10.466-1.1l-5.645-.615c-1.207-.123-1.541-.293-2.358.627-3.412 3.751-6.243 9.723-6.068 14.9a6.517 6.517 0 0 0 .514 2.949c.709 1.3 2.44.935 3.807 1a47.268 47.268 0 0 0 16.871-2.161 45.183 45.183 0 0 0 21.209-15.1 45.1 45.1 0 0 0 7.256-12.388.776.776 0 0 0-.74-.977c-4.84-.082-8.853 4-11.236 7.871-.55.858.8 1.629 1.315.791Z"/>
    <path fill="#f4f4f6" d="M-17638.095 22751.536c-2.949 3.535-4.022 9.048-.035 12.331a5.8 5.8 0 0 0 9.377-2.944h-1.486a8.15 8.15 0 0 0 11.077 5.986 8.145 8.145 0 0 0 3.397-12.13c-.545-.822-1.875-.057-1.331.776 2.307 3.489 1.346 8.221-2.672 9.911s-8.077-.868-8.986-4.958a.776.776 0 0 0-1.485 0c-.915 3.848-5.549 4.074-7.748 1.264s-1.156-6.592.981-9.15c.628-.752-.451-1.843-1.089-1.086Zm28.018 5.456c-.607 4.717.257 10.317 4.978 12.65a6.448 6.448 0 0 0 8.976-3.36l-1.48-.406a5.231 5.231 0 0 0 7.265 5.549c4.943-2.055 5.112-7.959 3.6-12.331-.324-.93-1.809-.514-1.485.411.966 2.795 1.454 6.022-.4 8.575a5.015 5.015 0 0 1-3.432 2.178 3.623 3.623 0 0 1-4.079-3.992.767.767 0 0 0-1.48-.406c-1.5 3.879-6.34 3.525-8.8.884s-2.569-6.392-2.134-9.762c.12-.976-1.416-.971-1.545 0Z"/>
    <path fill="#324958" d="M-17570.227 22771.576c-9.248 3.211-19.4 7.275-26.768 13.872-.74.663.349 1.747 1.084 1.084 7.162-6.412 17.094-10.363 26.09-13.486.93-.319.514-1.8-.406-1.48Zm56.476 30.527 32.091 1.932a3.6 3.6 0 0 1 3.4 3.6l-.185 4.83a3.036 3.036 0 0 1-2.98 2.913l-32.017 1.537a3.6 3.6 0 0 1-3.787-3.525l.113-8.3a3.083 3.083 0 0 1 3.365-2.987Zm1.938 20.917 29.229.417a3.047 3.047 0 0 1 3.083 3.165l-.221 4.018a3.052 3.052 0 0 1-2.862 2.841l-29.358 2.159a3.083 3.083 0 0 1-3.335-3.146l.34-6.592a3.083 3.083 0 0 1 3.124-2.862Zm-1.466 35.509c0-3.083-.154-6.165.036-9.248.329-5.256 5.382-4.845 9.171-4.845h20.588a.771.771 0 1 0 0-1.541h-22.668c-3.809 0-7.861.94-8.55 5.441-.513 3.278-.102 6.859-.118 10.168a.771.771 0 0 0 1.541 0Z"/>
    <path fill="#fff" d="M-17472.136 22770.176a9.965 9.965 0 0 0 4.439 6.679l-.416-4.737a14 14 0 0 0 9.644 4.573 17.366 17.366 0 0 0-8.806-8.415c-3.859-1.654-9.058-1.263-13.071 0Z"/>
    <path fill="#324958" d="M-17472.875 22770.38a11.477 11.477 0 0 0 4.794 7.116.771.771 0 0 0 1.156-.663l-.416-4.737-1.31.545a15.326 15.326 0 0 0 10.183 4.794c.622.051.9-.678.663-1.156-4.419-8.801-13.677-11.427-22.74-8.776a.776.776 0 0 0 0 1.485l8.22 1.93c.961.226 1.372-1.254.406-1.48l-8.22-1.935v1.506c4.033-1.182 8.58-1.66 12.557 0a16.693 16.693 0 0 1 8.447 8.077l.668-1.156a13.7 13.7 0 0 1-9.1-4.352.776.776 0 0 0-1.31.514l.416 4.737 1.156-.663a10.055 10.055 0 0 1-4.11-6.2c-.17-.956-1.649-.555-1.459.416Z"/>
    <path fill="#f4f4f6" d="M-17398.145 22791.284a1.588 1.588 0 0 0-1.844-.421 1.428 1.428 0 0 0-.6 2.086.74.74 0 0 0 .853.334c1.058.3 2.461-.879 1.593-2Z"/>
    <path fill="#fff" d="M-17537.756 22748.86c6.165 3.679 12.716-.257 16-8.051s.924-16.107-5.282-18.558-18.276 2.605-17.181 9.674c0 0 2.3 7.82.3 12.845"/>
    <path fill="#324958" d="M-17538.142 22749.525c12.252 6.808 21.532-11.411 17.612-21.466a10.964 10.964 0 0 0-11.524-7.141c-4.624.406-10.276 2.759-12.331 7.193a7.434 7.434 0 0 0-.288 5.138c.863 3.668 1.295 7.707 0 11.334-.329.935 1.156 1.341 1.48.411a18.812 18.812 0 0 0 .6-8.734c-.221-1.747-.971-3.6-.94-5.354.1-5.77 8.457-8.668 13.163-8.5 17.207.6 7.8 34.028-7.013 25.8-.868-.478-1.644.848-.776 1.331Z"/>
    <path fill="#f36f12" d="m-17413.93 22994.441.483 3.294-.771 2.368a1.29 1.29 0 0 0 1.7 1.572l7.347-2.605a1.541 1.541 0 0 0 .211-2.826 1.639 1.639 0 0 0-1.187-.113l-4.536 1.295.565-3.663Z"/>
    <path fill="#324958" d="M-17543.917 22731.671c4.732-3.083 8.878-4.445 14.15-6.515 4.69-1.845 11.072-4.778 16.25-4.234 5.415.57 3.55 5.384.735 7.748l-6.864 5.76-1.253-4.624-14.9-.175Z"/>
    <path fill="#324958" d="M-17543.527 22732.334a70.3 70.3 0 0 1 12.243-5.77 109.306 109.306 0 0 1 11.3-4.151c2.521-.673 11.132-2.189 8.738 3.082a9.693 9.693 0 0 1-2.836 3.268c-2.024 1.721-4.069 3.417-6.1 5.138l1.284.339-1.257-4.624a.786.786 0 0 0-.74-.565l-13.3-.154c-3.368-.036-6.681 1.243-9.923 2.055a.768.768 0 0 0 .411 1.48c3.427-.868 6.679-2.055 9.854-2.009l12.958.149-.74-.56 1.254 4.624a.776.776 0 0 0 1.284.339c2.4-2.014 4.994-3.915 7.239-6.093a8.621 8.621 0 0 0 2.364-3.674c.909-3.16-1.48-4.855-4.393-5.076-5.2-.4-10.342 1.993-15.049 3.874-5.261 2.106-10.548 3.961-15.362 7.007-.843.519-.072 1.85.771 1.32Zm16.411 6.756c-.242-.678-1.233-.652-1.737-.277a2.84 2.84 0 0 0-.647 2.507c.1.653.406 1.7 1.187 1.86s1.37-.75 1.541-1.408a4.562 4.562 0 0 0-.344-2.682Z"/>
    <g transform="translate(-17544.893 22719.02)">
      <path fill="#324958" d="M6.253 19.323a7.768 7.768 0 0 0 6.648 7.193c.971.154 1.387-1.326.411-1.48a6.266 6.266 0 0 1-5.523-5.687c-.077-.981-1.613-.987-1.544 0Z"/>
      <ellipse cx="20.752" cy="8.539" fill="#324958" rx="20.752" ry="8.539" transform="rotate(-5.73 2325.978 -1419.769)"/>
      <path fill="#4dd1c8" d="M30.848 17.547c-1.125-5.1-9.633-7.682-13.4-8.29l-1.454-.237a19.329 19.329 0 0 0-7.362-.408.823.823 0 0 0-.673.553c-2.5.991-4.747 3.2-7.09 4.862-.299 1.028-.458 2.152-.725 3.161-.051.2-.1.4-.144.608a3.627 3.627 0 0 0 3.334 1.106c2.816-.425 4.727-2.978 5.739-5.81a8.7 8.7 0 0 0 8.734-1.434c.041-.036.072-.079.108-.115a16.8 16.8 0 0 1 2.785 1.452c2.142 1.392 2.569 2.893 3.483 5.355l.108.3c-.17.79-.293 1.58-.411 2.431-.159 1.155-.663 2.158-.822 3.3-.087.608-.514 1.4.108 1.282 1.855-.322 3.6-2.231 4.336-3.866 1.983.188 3.951-1.483 3.345-4.248Z"/>
      <path fill="#324958" d="M15.285.852A1.356 1.356 0 0 0 13.317.2a1.331 1.331 0 0 0-.457 1.952 1.541 1.541 0 0 0 1.978.406.658.658 0 0 0 .375-.6 1.428 1.428 0 0 0 .072-1.1Zm93.149 123.827 39.109 7.25 53.85 9.978a31.227 31.227 0 0 1 4.742.879c.082.031-.457-.673-.426-.288.046.591.324 1.161.39 1.752s.1-.4 0 .4a15.445 15.445 0 0 1-.375 1.511l-1.634 6.679.74-.565-33.91-3.031-54.1-4.84-12.481-1.126.74.976 4.321-20.094c.205-.963-1.274-1.377-1.485-.411l-4.321 20.094a.786.786 0 0 0 .745.971l33.91 3.036 54.1 4.84 12.485 1.115a.766.766 0 0 0 .74-.56l1.639-6.679a8.358 8.358 0 0 0-.051-4.711.755.755 0 0 0-.514-.514l-33.01-6.119-52.637-9.762-12.11-2.245c-1.019-.195-1.433 1.269-.457 1.464Z"/>
    </g>
    <path fill="#4dd1c8" d="M-17418.068 22931.067c-.118.144 4.239 64.886 4.239 64.886h3.655l9.12-56.085 26.825-.586-12.208 15.66 2.245 2.97 21.512-18.44a59.5 59.5 0 0 0-20.669-15.177c-12.449-5.189-34.719 6.772-34.719 6.772Z"/>
    <g fill="#324958">
      <path d="m-17437.705 22863.31 3.535-15.706 96.206 15.83-2.117 8.611Z"/>
      <path d="m-17429.813 22844.532 1.67 5.837a.771.771 0 0 0 1.485-.406l-1.673-5.837a.771.771 0 0 0-1.482.406Zm12.726 2.347 2.435 5.873c.375.9 1.86.514 1.48-.411l-2.451-5.868c-.375-.899-1.865-.51-1.484.411Zm11.4 2.318 2.79 4.891a.771.771 0 0 0 1.331-.776l-2.79-4.891a.771.771 0 0 0-1.331.776Zm11.525 2.389a14.432 14.432 0 0 0 3.54 4.629c.745.647 1.839-.437 1.089-1.089a13.215 13.215 0 0 1-3.298-4.311c-.431-.9-1.757-.118-1.331.771Zm12.699 2.635 2.258 4.048c.483.863 1.814.087 1.331-.776l-2.256-4.048c-.483-.863-1.809-.087-1.333.776Zm10.889 2.071 2.173 3.56c.514.843 1.844.072 1.326-.776l-2.168-3.56c-.514-.842-1.847-.072-1.331.776Zm8.708 1.737 2.055 3.268c.514.832 1.855.067 1.326-.776l-2.055-3.263c-.514-.837-1.86-.067-1.326.771Zm-75.839-58.494-133.394-15.928 1.223-1.063 2.204-1.927 77.16 9.454 143.274 17.612c3.268.4 5.323-2.569 5.323-2.569 3.719 2.209 3.951 8.077 3.951 8.077l.678 10.426Z"/>
      <path d="M-17337.204 22813.191c-.164-3.345-1.464-6.828-4.326-8.734a.791.791 0 0 0-1.028.277c-2.569 3.535-8.179 1.778-11.817 1.331l-22.283-2.733-64.064-7.9-46.846-5.749-32.677-4.011-32.075-3.94-11.196-1.372c-1.171-.144-3.195-.822-4.367-.483-1.269.359-2.754 2.306-3.771 3.185-.56.483-.046 1.238.545 1.31l36.638 4.373 66.17 7.892 23.721 2.831 5.811.694a6.859 6.859 0 0 1 1.541.262c16.339 3.959 32.693 7.839 49.041 11.759 16.6 3.977 33.16 8.1 49.786 11.94.308.067.617.144.92.221a.781.781 0 0 0 .976-.745l-.7-10.409c-.062-.981-1.6-.986-1.541 0l.683 10.435.976-.74-42.752-10.25-54.886-13.193c-8.529-2.055-17.566-2.43-26.26-3.468l-65.446-7.81-28.648-3.416-9.865-1.177a30.372 30.372 0 0 0-5.426-.647 4.419 4.419 0 0 1-.725-.088l.545 1.31 1.789-1.541c.452-.4.894-.807 1.356-1.187.586-.483-.385 0-.2 0a9.546 9.546 0 0 1 1.618.2l9.151 1.095 30.827 3.761 36.992 4.542 43.522 5.343 65.014 7.984 24 2.944a96.9 96.9 0 0 0 9.649 1.156 6.885 6.885 0 0 0 5.575-2.959l-1.028.277c2.374 1.582 3.432 4.624 3.566 7.409.031.981 1.567.986 1.516.021Z"/>
      <path d="M-17344.027 22814.732c-2.461-.134-2.482-3.843 0-3.843s2.471 3.71 0 3.843c-.981.051-.986 1.588 0 1.541a3.458 3.458 0 1 0-3.448-3.596 3.514 3.514 0 0 0 3.447 3.6.771.771 0 0 0 0-1.541Zm-9.68 44.335 2.055 3.2c.514.832 1.86.062 1.326-.776l-2.055-3.2c-.514-.833-1.86-.058-1.326.776Zm7.27 1.476 1.752 3.039a.771.771 0 0 0 1.326-.776l-1.753-3.036a.771.771 0 0 0-1.325.773Z"/>
    </g>
    <path fill="#fff" d="M-17404.204 22840.844s-14.468 29.424-7.922 61.315l7.922-8.615s-.2-17.535-2.595-22.016c0 0 5.061-18.286 2.913-22.714.001-.001 4.676-4.97-.318-7.97Z"/>
    <path fill="#324958" d="M-17404.865 22840.459a95.1 95.1 0 0 0-6.576 19.21c-3.4 13.965-4.239 28.551-1.423 42.7a.776.776 0 0 0 1.284.339c2.43-2.651 4.891-5.277 7.3-7.943 1.665-1.839.75-5.21.632-7.522-.252-4.835-.324-10.224-1.958-14.838a8.59 8.59 0 0 1-.4-.986c.041.226 0 .411 0 .108a8.328 8.328 0 0 1 .447-1.664q.858-3.355 1.541-6.736c.879-4.316 2.636-10.44.8-14.7l-.123.93c2.7-2.949 3.042-6.782-.473-9.171-.822-.555-1.593.776-.776 1.326 2.692 1.834 2.086 4.655.164 6.761a.812.812 0 0 0-.133.926c.745 1.726.447 3.987.277 5.8a72.443 72.443 0 0 1-1.277 7.984q-.642 3.083-1.413 6.14a8.294 8.294 0 0 0-.587 2.507 14.667 14.667 0 0 0 .76 2.127 29.018 29.018 0 0 1 .668 3.309c.432 2.738.658 5.513.832 8.282q.2 3.144.283 6.3c0 .514 0 1.074.036 1.6s.514-.4-.057.067c-2.805 2.363-5.138 5.6-7.64 8.3l1.284.339c-2.807-14.088-1.883-28.649 1.591-42.536a92.745 92.745 0 0 1 6.252-18.183c.447-.886-.878-1.665-1.315-.776Z"/>
    <path fill="#f36f12" d="M-17413.357 22899.433s1.48 9.916 2.913 17.13c0 0-9.222 9.762-7.327 19.663 0 0 12.408-8.472 38.688-9.89l-5.528-7.794s6.325-2.975 6.4-6.2-6.682-14.383-6.682-14.383-6.988-1.567-10.615-5.287l-8.683.868Z"/>
    <path fill="#fff" d="M-17397.797 22887.966c.766 1.927 8.03 4.5 10 3.725a5.3 5.3 0 0 0 3.18-4.937 7.671 7.671 0 0 0-2.646-5.441 15.557 15.557 0 0 0-5.489-3.083"/>
    <g fill="#324958">
      <path d="M-17398.456 22888.364c1.028 1.958 3.884 2.887 5.857 3.514 2.184.688 4.537 1.264 6.474-.272a6.462 6.462 0 0 0 1.747-7.486c-1.384-3.513-4.811-5.373-8.166-6.606-.93-.339-1.331 1.15-.406 1.485 2.466.9 5.107 2.173 6.54 4.506s1.433 7.07-2.132 7.547c-2.291.3-7.445-1.331-8.59-3.468-.468-.873-1.793-.097-1.324.78Zm5.835-40.203a101.4 101.4 0 0 1-11.005-7.814c-.765-.643-1.541.457-.765 1.105s1.541 1.278 2.332 1.9a.642.642 0 0 0 0 1.028 28.784 28.784 0 0 0 8.827 5.172c.884.308 1.32-.909.611-1.392Z"/>
      <path d="M-17390.504 22899.976c-2.014 5.138-8.966 11.653-13.8 5.436a14.751 14.751 0 0 1-2.9-8.02c-.221-3.211 1.1-5.652 1.752-8.709.951-4.449-1.829-9.31.617-13.513 1.347-2.327 4.574-4.526 7.415-3.596 1.449.473 2.107 1.757 3.4 2.363a6.761 6.761 0 0 0 4.562.319.807.807 0 0 1 .971.514c.766 3.807-1.978 5.785-5.271 6.479 5.117 4.439 5.585 12.814 3.257 18.727Z"/>
    </g>
    <path fill="#fff" d="m-17383.179 22911.462 23.454-18.574-10.188-23.798v-6.037s-7.83 2.2-1.754 7.835c0 0 .961 12.392 4.927 19.056a204.523 204.523 0 0 0-18.54 9.49s-2.523 6.592 2.1 12.028Z"/>
    <path fill="#324958" d="m-17382.618 22912.009 23.454-18.574a.791.791 0 0 0 .123-.935l-6.79-15.819c-1.064-2.487-2.25-4.953-3.206-7.481a3.324 3.324 0 0 1-.206-.483c.17.755.1-.915.1-1.192v-4.47a.771.771 0 0 0-.971-.74 7.283 7.283 0 0 0-3.96 2.574 3.674 3.674 0 0 0-.56 2.929 5.379 5.379 0 0 0 .837 1.829c.313.462 1.213 1.053 1.367 1.351a9.709 9.709 0 0 1 .283 2.569c.211 1.634.462 3.257.771 4.871a38.39 38.39 0 0 0 3.972 11.894l.273-1.033a182.1 182.1 0 0 0-17.2 8.668c-1.925 1.122-2.115 2.101-2.336 4.331a13.163 13.163 0 0 0 2.975 9.711c.617.776 1.7-.319 1.089-1.089a11.7 11.7 0 0 1-2.24-10.168c.468-1.968 3.74-2.836 5.539-3.8q6.366-3.391 12.963-6.345a.776.776 0 0 0 .277-1.053c-3.036-5.313-4.11-11.786-4.742-17.808-.225-2.057-2.877-3.157-2.325-5.305.37-1.418 2.153-2.271 3.437-2.646l-.971-.74c0 2.107-.4 4.6.185 6.618a64.174 64.174 0 0 0 3.054 7.116l7.07 16.487.123-.93-23.459 18.574c-.791.617.3 1.7 1.074 1.089Zm-2.025-31.645a7.572 7.572 0 0 0-3.082-.459c-1.028-.065-1.028 1.446 0 1.544a.7.7 0 0 0 .514.468 2.737 2.737 0 0 0 2.738-.334.766.766 0 0 0-.17-1.219Zm-4.989.689a2.415 2.415 0 0 0-.929-.238c-1.028-.065-1.028 1.477 0 1.543a.257.257 0 0 1 .123.031.832.832 0 0 0 1.084-.274.766.766 0 0 0-.278-1.062Z"/>
    <path fill="#f36f12" d="m-17432.454 22805.189-5.251 16.138 17.386-3.817s-4.798-10.209-12.135-12.321Z"/>
    <path fill="#324958" d="M-17385.973 22884.062a1.9 1.9 0 0 1-2.014 1.1c-.981-.1-.976 1.433 0 1.541a3.422 3.422 0 0 0 3.5-2.23c.348-.923-1.134-1.323-1.486-.406Zm-2.827 97.336a65.575 65.575 0 0 1 4.353-14.381c1.433-3.083 5.78-11.473 10.317-9.711 2.1.812 3.18 4 4.064 5.888 1.274 2.713 2.487 5.436 3.519 8.257a135.536 135.536 0 0 1 4.83 16.955l2.965-.817a214.459 214.459 0 0 1-5.287-22.894 26.2 26.2 0 0 1-.514-5.765c0-.349.077-.976.077-.976-1.028-.606-.915.334-.915.313a5.05 5.05 0 0 0 .6.591c2.785 3.016 4.583 7.342 6.386 10.98q2.343 4.732 4.47 9.567c.714 1.634 3.237.452 2.81-1.182-1.058-4.064-2.338-8.082-3.771-12.033-2-5.533-4.244-11.889-8.519-16.117-1.408-1.4-3.6.776-2.173 2.173 4.141 4.11 6.237 10.507 8.128 15.876 1.259 3.6 2.41 7.234 3.37 10.918l2.81-1.187a228.255 228.255 0 0 0-4.475-9.567c-1.958-3.946-3.982-9.012-7.3-12.053-1.028-.925-2.492-1.541-3.632-.411-1.028 1.028-.981 2.857-.935 4.187.2 5.426 1.593 10.892 2.821 16.153q1.433 6.165 3.083 12.243c.514 1.911 3.4 1.11 2.965-.817a124.7 124.7 0 0 0-6.447-21.071c-1.69-4.023-4.054-12.059-9.361-12.47-5.092-.4-9.027 5-11.231 8.873-3.083 5.438-4.708 11.578-5.971 17.661-.4 1.932 2.569 2.759 2.965.817Zm-19.908-159.951c.6.072 59.085 9.248 59.4 9.315v9.145l-59.395-5.96Zm64.577 125.569v-63.509a.781.781 0 0 0-.77-.766l-12.449-.19a.771.771 0 0 0 0 1.541l12.449.211-.766-.771v63.484a.771.771 0 0 0 1.541 0Zm-79.204-64.902-19.714 1.094a.786.786 0 0 0-.771.766v26.2a.771.771 0 0 0 1.541 0v-26.2l-.771.766 19.715-1.09c.981-.051.992-1.588 0-1.541Z"/>
    <path fill="#4dd1c8" d="m-17448.103 22807.025 10.4 14.329-16.577 4.542s-5.511-9.53 6.177-18.871Z"/>
    <path fill="#f36f12" d="M-17390.371 22956.222v9.373a1.187 1.187 0 0 0 1.2 1.161 1.207 1.207 0 0 0 1.151-.837l1.857-6.116c.062-.216 2.923-2.7 2.923-2.7l-2.687-2.808-1.325 1.269-2.338-.432a1.177 1.177 0 0 0-.781 1.09Z"/>
    <path fill="#f36f12" d="M-17389.179 22955.606a1.161 1.161 0 0 0-1.346 1c-.031.283-.041.55-.057.735a77.659 77.659 0 0 0-.3 7.933c0 .6.128 1.469.92 1.469a1.241 1.241 0 0 0 1.449-1.135c.339-1.8.514-7.3.514-7.3a4.624 4.624 0 0 0-.27-2.059 1.135 1.135 0 0 0-.894-.643Z"/>
    <path fill="#f36f12" d="M-17389.178 22954.836a2.055 2.055 0 0 0-2.091 1.541c-.546 2.055-.355 4.583-.386 6.679 0 1.115-.375 3.3.745 4.11a2.132 2.132 0 0 0 2.446-.154c1.505-1.274 1.084-5.208 1.166-6.961.077-1.647.591-4.876-1.675-5.236-.966-.154-1.387 1.326-.411 1.48 1.223.2.421 6.1.37 6.756a6.1 6.1 0 0 1-.2 2c-.956 1.4-.925-1-.92-1.582 0-.858-.221-7.1.951-7.152a.742.742 0 0 0 .005-1.481Z"/>
    <path fill="#324958" d="M-17418.86 22821.329c-.19-7.106-5.919-13.934-12.187-16.78-7.193-3.278-16.036-.864-21.122 5.06a18.049 18.049 0 0 0-1.69 21.137c4.136 6.654 12.756 10.451 20.407 8.262 7.393-2.112 14.386-9.788 14.591-17.679a.771.771 0 0 0-1.541 0c-.17 6.232-5.169 12.249-10.512 15.013-6.561 3.4-14.8 1.475-19.734-3.884a16.508 16.508 0 0 1-1.891-19.782c3.776-6.077 11.683-9.556 18.676-7.557 6.71 1.922 13.266 9 13.461 16.2.031 1 1.567 1 1.541.01Z"/>
    <path fill="#324958" d="m-17433.195 22804.97-2.784 8.554-1.819 5.585a7.483 7.483 0 0 0-.664 2.307 8.8 8.8 0 0 0 .843 2.358l2.057 5.575 3.042 8.3c.339.925 1.824.514 1.485-.406l-2.874-7.827-2.014-5.513a14.559 14.559 0 0 1-1.028-2.774c.082.7.072.077.2-.252.216-.555.37-1.141.555-1.7l1.86-5.729 2.626-8.067c.308-.945-1.176-1.351-1.48-.411Z"/>
    <path fill="#324958" d="m-17437.911 22820.589-16.575 4.542a.767.767 0 0 0 .406 1.48l16.58-4.542a.771.771 0 0 0-.411-1.48Zm-231.275-27.996.375 42.233.6 67.249.125 15.368a.771.771 0 0 0 1.541 0l-.37-42.231-.6-67.265-.13-15.364a.771.771 0 0 0-1.541 0Z"/>
    <path fill="#f4f4f6" d="m-17548.791 23023.842 2.291-.74c.935-.3.514-1.783-.411-1.48l-2.291.74c-.935.304-.514 1.783.411 1.48Z"/>
    <path fill="#324958" d="m-17403.683 22747.637 10.229 27.534.74-.976-16.513-.591.74.565-2.641-17.56c-.144-.971-1.629-.56-1.48.411l2.641 17.56a.771.771 0 0 0 .74.56l16.513.6a.776.776 0 0 0 .74-.976l-10.214-27.538c-.339-.917-1.824-.517-1.48.411Z"/>
    <path fill="#324958" d="m-17398.73 22767.166-17.211-14.931.118.935 4.018-6.448a.771.771 0 0 0-1.208-.935l-5.831 5.935a.771.771 0 0 0-.2.745l6.165 19.6.74-.971-8.622-.14-6.6-.113c-1.295 0-3.206-.4-4.465-.072-.771.206-.416-.324.077.349-.164-.221-.344-.442-.488-.673-.735-1.182-1.649-2.281-2.466-3.406l-7.709-10.649-5.359-7.4-.662 1.158 27.744-3.047c.971-.108.981-1.649 0-1.541l-27.744 3.051c-.514.057-1.028.632-.663 1.156l12.577 17.366c.971 1.336 2.461 4.624 4.11 5.138a11.047 11.047 0 0 0 2.795.046l6.33.1 11.144.18a.771.771 0 0 0 .74-.971l-4.819-15.359c-.339-1.084-.606-2.23-1.028-3.283-.108-.267-.134-.591-.267-.848.149.293-.575.611.087.324 1.079-.473 2.3-2.338 3.124-3.175l2.395-2.431-1.211-.935-4.014 6.448a.776.776 0 0 0 .118.93l17.211 14.925c.745.647 1.839-.437 1.089-1.084Z"/>
    <path fill="#324958" d="M-17427.923 22747.601c-4.182-.4-8.3.488-12.4 1.161-.434.514-1.416.365-1.343-.437a6.412 6.412 0 0 1 5.42-5.893c3.53-.6 6.638 1.284 8.863 3.864.39.452.174 1.382-.54 1.305Zm11.179 11.735a11.817 11.817 0 0 0 5.375 4.765c.9.39 1.68-.93.776-1.326a10.363 10.363 0 0 1-4.82-4.215.771.771 0 0 0-1.331.776Zm-26.089-2.348a52.879 52.879 0 0 0-2.358 15.028l9.248-5.5Z"/>
    <path fill="#324958" d="M-17443.573 22756.783a56.922 56.922 0 0 0-2.389 15.234.776.776 0 0 0 1.156.663l9.248-5.5a.776.776 0 0 0 .278-1.035l-6.882-9.521c-.575-.8-1.906-.031-1.326.776l6.874 9.505.277-1.028-9.245 5.502 1.156.663a55.134 55.134 0 0 1 2.333-14.853.768.768 0 0 0-1.48-.406Z"/>
    <path fill="#fff" d="m-17443.52 22763.652 9.073-10.363a4.028 4.028 0 0 1-2.116 7.589 16.528 16.528 0 0 1-6.623 10.011"/>
    <path fill="#324958" d="m-17442.978 22764.197 9.073-10.372-.93.123a3.3 3.3 0 0 1-1.727 6.17.781.781 0 0 0-.74.565 16.313 16.313 0 0 1-6.272 9.551c-.786.581 0 1.916.776 1.326a17.916 17.916 0 0 0 6.977-10.471l-.74.565a4.838 4.838 0 0 0 2.499-9.029.776.776 0 0 0-.93.123l-9.07 10.36c-.647.74.432 1.834 1.084 1.089Z"/>
    <path fill="#4dd1c8" d="M-17405.82 22728.416a4.11 4.11 0 0 1-.75 6.35c-3.6 2.276-6-.786-6.6-3.9a4.393 4.393 0 0 1-4.881-1.315c-1.9 3.525-7.532 2.9-9.248-1.567-.927-2.383-.988-6.031 1.404-7.583a2.918 2.918 0 0 1 3.561.1 7.979 7.979 0 0 1 6.968-8.675c4.177-.6 7.193 1.865 7.193 5.585 1.937-.889 4.809.514 5.652 2.692 1.521 3.879.051 6.952-3.3 8.313Z"/>
    <path fill="#324958" d="M-17416.719 22738.261a3.5 3.5 0 0 1-2.641 1.541c-.981.067-.992 1.6 0 1.541a5.138 5.138 0 0 0 3.966-2.286c.555-.824-.776-1.593-1.325-.776Zm-.658-2.955c-.241-.6-.925-1.028-1.4-.3a5.071 5.071 0 0 0-.808 2.356c-.072.73.853.92 1.31.539a2.7 2.7 0 0 0 .99-2.25 1.13 1.13 0 0 0-.092-.345Zm-194.95 199.313c-1.027-.612-2.641-.072-3.727.19a27.965 27.965 0 0 0-4.771 1.644c-1.983.879.128 2.487.8 2.512 1.747.062 7.075-.3 8.133-1.942a1.56 1.56 0 0 0-.437-2.4Zm-4.799 9.479a8.955 8.955 0 0 1-8.22 3.289c-.968-.134-1.387 1.346-.411 1.479a10.5 10.5 0 0 0 9.69-3.679c.626-.755-.452-1.846-1.084-1.089Z"/>
    <path fill="#fff" d="M-17637.841 22924.293a37.239 37.239 0 0 1-5.651 20.731c-.514.843.807 1.618 1.331.776a38.8 38.8 0 0 0 5.872-21.507.771.771 0 0 0-1.541 0Z"/>
    <path fill="#324958" d="M-17531.02 22734.69a.8.8 0 0 0-.842.16 3.355 3.355 0 0 0-.884 1.12.8.8 0 0 0 1.146 1.027 1.839 1.839 0 0 0 1.027-1.582.76.76 0 0 0-.447-.725Zm6.761 1.587a1.475 1.475 0 0 0-.843 1.947.776.776 0 0 0 1.439-.067 2.929 2.929 0 0 0 .148-1.227c-.062-.6-.39-.755-.74-.653Z"/>
    <path fill="#fff" d="M-17541.639 22735.544c-3.432.548-2.528-1.77-4.701-1.066-1.578.514-1.583 2.492-.972 3.751.807 1.665 3.695 2.245 4.523.315"/>
    <path fill="#324958" d="M-17541.841 22734.806a2.523 2.523 0 0 1-2.126-.442 2.929 2.929 0 0 0-1.259-.75 2.8 2.8 0 0 0-3.2 2.482 3.879 3.879 0 0 0 2.151 4.079 3.078 3.078 0 0 0 4.152-1.238c.447-.884-.879-1.66-1.326-.776a1.765 1.765 0 0 1-2.908.113c-.714-.791-.976-3.016.514-3.139.611-.046.889.488 1.377.791a4.366 4.366 0 0 0 3.016.36c1.033-.154.56-1.613-.406-1.48Z"/>
    <g fill="#f4f4f6">
      <path d="M-17548.795 22772.2a1.765 1.765 0 0 0-2.832-.467 1.747 1.747 0 0 0 0 2.214 1.028 1.028 0 0 0 1.11.837 1.859 1.859 0 0 0 1.722-2.584Zm192.715 33.91-85.155-10.63c-.981-.123-.971 1.413 0 1.541l85.168 10.631c.981.123.971-1.413 0-1.541Zm-173.155-36.362c-3.083-6.168-12.624-5-13.394 2.1a7.023 7.023 0 0 0 4.023 7.28c3.442 1.6 7.5.555 10.789-.925a.781.781 0 0 0 .355-.868l-.3-1.541-1.408.591 3.5 5.652a.776.776 0 0 0 1.326 0l2.856-4.789-1.326-.776c-1.567 3.535 8.56 4.537 10.358 4.83a138.532 138.532 0 0 0 26.013 1.993.771.771 0 0 0 0-1.541 139.5 139.5 0 0 1-23.362-1.572c-1.192-.164-12.007-2.209-11.694-2.913.39-.884-.812-1.649-1.326-.776l-2.863 4.792h1.326l-3.491-5.652a.776.776 0 0 0-1.408.591l.3 1.541.355-.868c-4.362 1.968-12.552 2.667-12.552-4.2 0-6.1 8.025-7.285 10.584-2.153.442.889 1.767.108 1.331-.776Zm51.655 8.146a20.12 20.12 0 0 0 11.494 10.157.766.766 0 0 0 .945-.514l.843-4.722-1.284.339c1.993 1.541 2.543 2.122 5.025 2.261q4.547.262 9.079.586 9.325.678 18.625 1.634 18.753 1.922 37.347 5c.966.159 1.382-1.32.406-1.485q-17.3-2.872-34.742-4.778-8.793-.941-17.609-1.647-4.285-.329-8.57-.611c-1.505-.1-3.036-.123-4.542-.277a6.722 6.722 0 0 1-3.941-1.812c-.4-.313-1.171-.293-1.284.339l-.843 4.722.945-.514a18.63 18.63 0 0 1-10.573-9.454c-.437-.893-1.763-.113-1.326.776Zm94.013 14.961a1.541 1.541 0 0 0-2.435-.969 1.367 1.367 0 0 0-.421 1.283 1.711 1.711 0 0 0 .446 1.027c.915 1.059 2.549-.138 2.41-1.341Zm9.016-3.515c-4.187-1.084-6.479 3.941-4.012 7.044 1.665 2.1 4.377 2.641 6.916 2.291 2.2-.3 5.354-1.135 6.386-3.355a3.016 3.016 0 0 0-.981-3.843c-1.604-1.073-3.767-.318-5.195.713a4.157 4.157 0 0 0-1.9 3.93 1.655 1.655 0 0 0 2.43 1.5c.915-.344.514-1.829-.411-1.485-.766.288-.514-.76-.4-1.187a3.237 3.237 0 0 1 1.771-1.888l1.168-.47c1.541-.365 2.189.062 1.993 1.269.272 1.757-1.49 2.3-2.887 2.764-2 .668-4.475 1.028-6.391-.082a3.917 3.917 0 0 1-2.109-3.219 2.625 2.625 0 0 1 3.216-2.5.768.768 0 1 0 .406-1.482Z"/>
      <path d="M-17370.928 22793.456a6.261 6.261 0 0 0 11.149.629h-1.307l2.62 5.282c.416.832 1.541.206 1.4-.6a4.624 4.624 0 0 1 .75-3.376h-1.321l2.62 4.675a.768.768 0 0 0 1.331-.768l-2.62-4.675a.776.776 0 0 0-1.326 0 5.991 5.991 0 0 0-.9 4.562l1.4-.591-2.62-5.282a.776.776 0 0 0-1.326 0 4.729 4.729 0 0 1-8.508-.627c-.412-.9-1.733-.118-1.322.771Z"/>
    </g>
    <path fill="#324958" d="m-17595.176 22914.592 63.74-9.865c.976-.154.56-1.634-.411-1.485l-63.709 9.87c-.976.149-.56 1.634.406 1.48Z"/>
    <path fill="#324958" d="m-17540.647 22905.472.714 102.957a.771.771 0 1 0 1.541 0l-.719-102.957a.771.771 0 0 0-1.541 0Z"/>
    <path fill="#324958" d="M-17573.006 22911.048c-1.542 17.625 17.576 34.367 33.339 35.399l-.216-40.974Zm92.71-13.049-28.85-16.453a4.657 4.657 0 0 0-5.296.476l-20.93 17.433a3.033 3.033 0 0 0 .386 4.925l32.006 19.164Z"/>
    <path fill="#fff" d="M-17462.003 22885.716c-2.194-4.624 1.973-9.135 3.319-10.754 5.569-6.7 5.611-15.285.092-19.169s-14.503-1.591-20.077 5.109-5.611 15.29-.092 19.169c2.352 1.658 8.82 4.431 5.357 12.139"/>
    <path fill="#324958" d="M-17461.274 22885.512c-1.577-3.91.75-7.08 3.124-10a19.01 19.01 0 0 0 4.239-8.966c.9-5.749-1.937-11.478-7.8-13-11.92-3.083-27.04 12.089-20.521 23.8 1.326 2.389 3.447 3.5 5.569 5.03 3.427 2.482 4.11 5.739 2.507 9.639-.38.909 1.1 1.31 1.48.406 1.793-4.311.956-8.221-2.78-11.052-1.807-1.375-3.837-2.269-5.136-4.252-1.911-2.959-1.875-6.756-.755-10 2.301-6.682 9.044-12.411 16.312-12.442 7.758-.031 11.278 7.285 8.981 14.083-1.963 5.811-9.474 10.317-6.715 17.166.365.9 1.85.514 1.48-.411Z"/>
    <path fill="#eee" d="m-17535.637 22899.674 31.728 19.398 22.466-17.845-32.38-19.73Z"/>
    <g fill="#324958">
      <path d="M-17500.279 23059.669s2.831-20.675 2.892-21.065v-.01l8.154 2.518-4.746 19.852Z"/>
      <path stroke="#324958" stroke-miterlimit="10" stroke-width="4.49" d="m-17499.775 23054.356-9.454-1.824a1.844 1.844 0 0 0-2.127 1.269l-.1.36a1.541 1.541 0 0 0 .778 1.747l14.242 7.794a1.834 1.834 0 0 0 2.677-1.254l.514-3.437a1.665 1.665 0 0 0-2.338-1.675 1.773 1.773 0 0 1-2.132-.678l-.935-1.541a1.654 1.654 0 0 0-1.125-.76Zm55.661-19.399-6.086-.391a1.182 1.182 0 0 0-1.269.812l-.036.2a.8.8 0 0 0 .591.879l9.479 3.309a1.207 1.207 0 0 0 1.621-.838l.108-1.87c.041-.668-.817-1.079-1.577-.755a1.243 1.243 0 0 1-1.387-.231l-.687-.771a1.1 1.1 0 0 0-.757-.344Z"/>
      <path d="m-17444.086 23037.612-2.287-10.563 5.2-4.273 1.125 14.836Zm2.913-14.848h.015l-.015.012Z"/>
    </g>
    <path fill="#324958" d="m-17498.75 23047.831 7.5-83.6 45.3-3.266 7.712 71.935h-6.812l-12.947-58.741-16.728 4.352-13.785 72.354Z"/>
    <path fill="#fff" d="M-17517.276 22978.959s21.99 23.737 57.9 17.736c33.293-5.564 32.173-28.957 32.173-28.957l-9.887-32.779 8.282-5.739-27.954-50.351s-39.269 17.412-69.459 72.916l22.221 4.11Z"/>
    <path fill="#f4f4f6" d="M-17472.765 22893.701c6.854.4 14.026-2.055 19.75-5.621l-1.125-.457 14.488 41.066c.324.925 1.809.514 1.48-.411l-14.489-41.066a.776.776 0 0 0-1.13-.46c-5.503 3.45-12.377 5.8-18.974 5.413-.986-.057-.981 1.48 0 1.541Zm-33.673 53.295 14.118-13.359 8.272-7.815a11.231 11.231 0 0 0 2.882-3.694 28.772 28.772 0 0 0 2.056-19.79.771.771 0 0 0-1.485.406 27.1 27.1 0 0 1-2 18.779 9.5 9.5 0 0 1-2.769 3.412l-16.992 16.06-5.161 4.913c-.724.683.365 1.767 1.084 1.089Z"/>
    <path fill="#f4f4f6" d="m-17496.64 22937.681 8.957-1.541-.971-.74c.563 8.056-2.365 17.376-10.129 20.968-.894.416-.113 1.742.776 1.326 8.221-3.8 11.493-13.728 10.9-22.293a.786.786 0 0 0-.976-.746l-8.968 1.541c-.971.164-.56 1.644.411 1.48Z"/>
    <path fill="#324958" d="M-17445.354 22862.478a10.3 10.3 0 0 1-1.588 5.929c-2.852 4.871-8.478 6.962-14.078 6.245a.75.75 0 0 1-.313-1.3c.93-.75 4.624-4.079 3.833-5.405-1.66-2.738-5.009 1.053-6.165 2.22-.478.478-1.5.113-1.4-.55.319-2.245 1.449-4.362 1.654-6.623.4-4.3-6.248-4.7-8.935-6.592-3.569-2.494-3.651-7.25-.727-10.442 4.157-4.557 16.266-6.885 17.982.159a9.746 9.746 0 0 1 10.754 3.874c2.687 4.11.4 7.619-3.268 10.009 1.228.226 2 .488 2.256 2.476Z"/>
    <ellipse cx="4.141" cy="3.062" fill="#fff" rx="4.141" ry="3.062" transform="rotate(-31.13 32299.005 42799.564)"/>
    <path fill="#4dd1c8" d="M-17467.275 22859.297c-3.309-3.596-11.129 1.726-7.892 5.785 3.083 3.874 10.938-1.413 8.015-5.652-.56-.807-1.9-.041-1.331.776 1.86 2.682-3.535 6.309-5.462 3.91-2.023-2.522 3.509-6.021 5.586-3.755.668.755 1.752-.334 1.084-1.064Z"/>
    <ellipse cx="3.679" cy="2.718" fill="#fff" rx="3.679" ry="2.718" transform="rotate(-31.13 32288.579 42809.581)"/>
    <g fill="#4dd1c8">
      <path d="M-17474.903 22855.56c-3.005-3.278-10.07 1.541-7.135 5.246 2.8 3.524 9.91-1.264 7.253-5.092-.56-.807-1.891-.036-1.326.776 1.593 2.3-3.083 5.42-4.706 3.376-1.731-2.148 3.047-5.138 4.825-3.217.673.73 1.757-.36 1.089-1.089Z"/>
      <path d="M-17474.055 22860.837a2.286 2.286 0 0 0-2.363-1.567.786.786 0 0 0-.766.766.776.776 0 0 0 .766.771.92.92 0 0 1 .586.1.637.637 0 0 1 .3.339.786.786 0 0 0 .945.539.776.776 0 0 0 .514-.945Zm2.05.976-.108.051c-.976.457-.185 1.793.786 1.341l.108-.051c.976-.452.185-1.793-.786-1.341Zm-6.381-4.269a.776.776 0 1 0-.067 1.541.776.776 0 1 0 .067-1.541Z"/>
    </g>
    <path fill="#324958" d="M-17476.69 22861.306c-1.589-.843-5.981.704-6.675 1.583a.745.745 0 0 0 .257 1.063 5.485 5.485 0 0 0 4.449.511c.9-.247 2.62-1.254 2.569-2.271a1.028 1.028 0 0 0-.6-.886Zm-2.278 9.043a11.37 11.37 0 0 0 8.637-1.747c.808-.555.041-1.885-.776-1.33a9.762 9.762 0 0 1-7.455 1.592c-.966-.185-1.377 1.295-.406 1.485Z"/>
    <path fill="#eee" stroke="#324958" stroke-miterlimit="10" stroke-width="1.501" d="m-17518.453 22887.306-8.57 7.732a1.512 1.512 0 0 1-2.238-.236c-1.277-1.907-2.88-5.583.65-8.91 3.342-3.157 7.569-1.827 9.848-.723a1.275 1.275 0 0 1 .312 2.137Z"/>
    <path fill="#324958" d="m-17523.654 22899.338 9.189-8.702c.718-.68-.246-1.88-.964-1.198l-9.185 8.707c-.722.68.242 1.876.96 1.193Zm2.348 4.828 17.453-12.705c.801-.588-.17-1.781-.97-1.198l-17.448 12.71c-.801.583.17 1.776.965 1.193Zm21.344-10.217-13.256 12.992c-.699.69.26 1.894.97 1.198l13.26-12.997c.703-.685-.261-1.888-.965-1.192Z"/>
    <path fill="#fff" d="M-17477.005 22892.912s-12.505-7.818-24.087-1.673l9.536 1.477a5.603 5.603 0 0 0 5.56 2.411l2.91 1.857Z"/>
    <path fill="#324958" d="M-17476.548 22892.286c-7.335-4.52-17.077-5.659-24.86-1.752a.776.776 0 0 0 .238 1.467l4.522.7c1.525.238 3.534.213 4.984.774-1.029-.398.309.695.684 1.008a6.317 6.317 0 0 0 2.791 1.37c.506.105 1.058.011 1.539.111a3.285 3.285 0 0 1 1.045.338 18.219 18.219 0 0 1 2.018 1.305.807.807 0 0 0 .938-.024l6.118-4.083c.822-.55-.148-1.742-.965-1.193l-6.118 4.083.939-.025c-1.055-.68-2.226-1.785-3.464-1.999-1.4-.255-2.334.069-3.578-.827-.38-.278-.655-.654-1-.959s-.34-.438-.806-.638c-1.39-.59-3.502-.545-4.987-.774l-4.519-.7.233 1.467c7.271-3.652 16.443-2.648 23.315 1.592.86.52 1.776-.718.936-1.24Z"/>
    <g fill="#fff">
      <path d="M-17507.951 22926.464c-.43.007-.848-.228-1.038-.584-.167-.312-.138-.671.08-.986a161.652 161.652 0 0 1 31.356-33.42c6.27-5.076 13.38-10.83 21.132-14.163.133-.058.267-.088.397-.09.448-.007.82.317.925.808.096.452-.067 1.054-.654 1.306-7.523 3.239-14.573 8.988-20.793 14.06l-.049.04c-12.071 9.85-22.317 20.801-30.45 32.553l-.088.127h-.04a1.065 1.065 0 0 1-.778.349Z"/>
      <path d="M-17507.956 22926.164a.777.777 0 0 0 .638-.346h.026c8.502-12.285 18.94-23.177 30.507-32.615 6.327-5.16 13.332-10.88 20.913-14.144.898-.385.483-1.863-.43-1.473-7.654 3.291-14.655 8.935-21.063 14.121a161.413 161.413 0 0 0-31.297 33.357c-.395.57.151 1.11.706 1.1m.01.6c-.54.009-1.066-.29-1.308-.742-.222-.415-.186-.888.099-1.3a161.955 161.955 0 0 1 31.415-33.483c6.284-5.087 13.41-10.854 21.2-14.204.17-.073.342-.11.51-.114.596-.01 1.088.41 1.224 1.045.149.695-.192 1.371-.829 1.645-7.484 3.222-14.517 8.957-20.721 14.017l-.05.04c-12.049 9.83-22.275 20.762-30.393 32.49l-.175.254-.075.001c-.246.22-.56.345-.897.35Z"/>
    </g>
    <path fill="#4dd1c8" d="m-17527.462 22887.288-.011.107c-.237 1.61 2.386 1.886 2.612.276l.011-.107c.238-1.601-2.374-1.885-2.612-.276Z"/>
    <path fill="#f4f4f6" d="M-17448.238 22937.793a67.5 67.5 0 0 1-27.934 24.569c-.848.406-.2 1.541.591 1.4a69.8 69.8 0 0 0 27.667-10.879c.822-.545.051-1.875-.771-1.326a68.8 68.8 0 0 1-27.318 10.728l.591 1.4a68.945 68.945 0 0 0 28.525-25.131c.515-.834-.796-1.609-1.325-.776Z"/>
    <path fill="#324958" d="M-17416.06 22732.573v.19a.771.771 0 1 0 1.541 0v-.19a.771.771 0 0 0-1.541 0Zm-3.144-.982-.128.062c-.884.442-.108 1.767.776 1.326l.128-.062c.884-.442.106-1.768-.776-1.326Z"/>
    <path fill="#4dd1c8" d="M-17410.008 22732.886a2.6 2.6 0 0 0-2.492.852.827.827 0 0 0 0 1 1.978 1.978 0 0 0 .124 2.052 1.709 1.709 0 0 0 2.091.226 2.446 2.446 0 0 0 1.48-1.85 1.942 1.942 0 0 0-1.203-2.28Z"/>
    <path fill="#fff" d="M-17645.028 22774.084c.771 3.083 1.372 6.551-.581 9.32-1.747 2.466-5.652 3.083-7.059-.087-.4-.9-1.721-.123-1.326.776 1.382 3.134 5.39 3.781 8.056 1.865 3.93-2.836 3.432-8.164 2.389-12.285a.768.768 0 0 0-1.479.411Z"/>
    <path fill="#f4f4f6" d="M-17337.827 22807.429c1.223 1.387.575 3.92-.868 4.937-1.7 1.187-4.038.241-5.4-.992-.732-.662-1.823.416-1.088 1.085 2.024 1.839 5.431 2.887 7.707.879a5.127 5.127 0 0 0 .714-7c-.658-.748-1.742.346-1.089 1.091Zm-192.376 268.626c1.372 4.28-2.271 7.106-6.237 7.364-.981.067-.992 1.6 0 1.541 4.937-.324 9.407-4.033 7.707-9.31-.304-.931-1.783-.531-1.485.41Z"/>
    <path fill="#324958" d="M-17645.974 22773.984a16.476 16.476 0 0 1 .2 6.222c-.513 2.215-3.442 6.165-5.472 2.79a.771.771 0 0 0-1.326.776c1.567 2.625 4.7 2.482 6.612.283 2.514-2.899 2.014-6.988 1.466-10.477-.152-.976-1.634-.557-1.48.406Z"/>
    <path fill="#fff" d="m-17581.647 22951.609 9.4 7.892c.75.632 1.844-.447 1.084-1.084l-9.394-7.892c-.756-.632-1.847.447-1.09 1.084Zm-11.868-9.973 4.5 3.776c.756.632 1.843-.452 1.09-1.089l-4.506-3.771c-.75-.632-1.841.447-1.084 1.084Zm-13.512-11.303 10.629 8.924c.755.632 1.844-.452 1.084-1.089l-10.64-8.919c-.755-.632-1.844.447-1.089 1.084Zm-7.774-6.52 4.912 4.11c.75.632 1.844-.452 1.084-1.089l-4.912-4.11c-.75-.632-1.841.447-1.084 1.084Zm-6.551-5.493 3.684 3.083c.75.627 1.844-.452 1.084-1.089l-3.684-3.083c-.75-.632-1.841.452-1.084 1.084Zm271.129-61.325 10.024 1.806c.966.17 1.377-1.31.406-1.485l-10.024-1.801c-.963-.174-1.382 1.305-.406 1.48Zm-15.824-2.846 12.156 2.2c.966.175 1.382-1.31.411-1.485l-12.13-2.18c-.972-.174-1.383 1.305-.412 1.48Zm-16.878-3.03 13.184 2.368c.971.175 1.382-1.305.411-1.48l-13.189-2.374c-.963-.174-1.382 1.31-.406 1.486Zm-7.388-1.332 3.694.668c.966.17 1.382-1.31.411-1.485l-3.694-.663c-.964-.174-1.382 1.305-.411 1.48Z"/>
    <path fill="#324958" d="m-17717.137 23085.871 3.813-33.396c.1-.894-1.254-.986-1.511-.2-3.427 10.471-6.309 21.121-9.736 31.592l1.505.206 2.379-21.065c.108-.981-1.428-.971-1.541 0l-2.374 21.065c-.1.9 1.254.986 1.511.206 3.432-10.477 6.309-21.122 9.761-31.598l-1.51-.206-3.817 33.396c-.108.981 1.428.976 1.541 0Z"/>
  </g>
</svg>