<svg xmlns="http://www.w3.org/2000/svg" viewBox="0 0 450 326.149">
  <path fill="#fff" d="m299.176 176.77-93.315 10.653a148.955 148.955 0 0 0-1.776-16.257 80.894 80.894 0 0 0-4.519-16.7c-4.737-11.723-5.755-10.028-5.755-10.028 54.051-13.377 77.905-10.151 77.905-10.151 34.408-21.331 27.46 42.483 27.46 42.483Z"/>
  <path fill="#9ee6e1" d="M300.314 132.826c-8.2 3.988-17.412 8.8-19.98 18.327a13.9 13.9 0 0 0 2.141 12.131 16.55 16.55 0 0 0 10.392 6.158c5.518.909 11.122-.682 15.878-3.477a.63.63 0 0 0-.635-1.085 23.437 23.437 0 0 1-13.344 3.529 15.726 15.726 0 0 1-10.558-4.993 12.462 12.462 0 0 1-2.894-11.051 19.843 19.843 0 0 1 6.565-10.629c3.832-3.377 8.5-5.627 13.055-7.844.729-.351.09-1.421-.635-1.085Z"/>
  <path fill="#f4f4f6" d="M281.263 129.778a4.768 4.768 0 0 1 1.323.175c17.576 5.07 13.961 41.274 13.7 43.64-1.277 4.571-7.562 9.052-18.194 12.971-9.06 3.338-21.3 6.3-36.356 8.859-21.837 3.685-43.4 5.358-49.621 5.777l-5.367-55.855c41.861-9.2 83.99-10.906 84.414-10.919l.664-.027.489-.45c1.337-1.165 5.533-4.189 8.945-4.189m0-1.8c-4.869 0-10.167 4.647-10.167 4.647s-43.281 1.66-86.318 11.315l5.7 59.166s101.58-6.06 107.62-29.189c0 0 4.8-39.983-14.99-45.687a6.539 6.539 0 0 0-1.844-.252Z"/>
  <path fill="#f6f6f6" d="M444.69 261.799c7.531-11.79 7.8-27-4.059-37.994-21.23-19.653-48.04-5.4-73.05-9.98-17.625-3.221-10.8-14.079-21.088-27.816-6.745-9.024-20.391-6.023-22.016-17.182-4.3-1.52-13.167-4.1-17.591-5.242-10.662-2.7-23.011-.179-33.782-2.33-13.954-2.79-105.751 15.251-112.7 2.33-8.664-16.157 71.237-75.847 70.867-92.653-.521-24.958-24.2-44.881-49.367-34.55-10.838 4.443-22.225 10.061-34.351 9.431-33.044-1.715-69.834 1.809-81.946 37.122-12.723 37.146 11.842 77.034 30.68 107.932 7.394 12.131 20.842 48.429 11.165 59.29-8.725 9.777-20.368 15.8-31.433 22.67-5.324 3.316-10.449 7.314-13.348 12.756-14.817 27.871 35.27 34.147 52.72 35.947 27.127 2.771 54.321-.308 81.472-1.274 38.32-1.359 84.419 16.958 120.067-4.917 16.958-10.421 34.948-22.6 54.629-27.6 23.967-6.093 58.451-2.957 73.131-25.94Z"/>
  <path fill="#324958" d="M119.846 90.309s-9.355 8.687-6.868 9.417c5.03 1.421 19.013-6.4 19.013-6.4Zm145.026 39.196a.947.947 0 0 1-.947-.947V75.819a.947.947 0 0 1 .549-.853l40.073-18.521a.947.947 0 0 1 .862.038l30.51 17.288a.947.947 0 0 1 .474.819v50.532a.948.948 0 1 1-1.895 0v-49.98L304.884 58.36l-39.088 18.061v52.142a.947.947 0 0 1-.924.942Z"/>
  <path fill="#fff" d="M160.706 52.169s-51.47 6.8-57.211 34.1l33.816 8.384 11.468-22.845-8.772 3.9 14.921-13.547 8.806-3.079Z"/>
  <path fill="#324958" d="m64.824 210.045-39.291 1.985a3.055 3.055 0 0 0-2.842 3.027 2.7 2.7 0 0 0 2.762 2.738l39.4-.564ZM264.872 86.26l37.493 21.992v12.061a3.448 3.448 0 0 0 4.055 3.391l29.524-5.286V69.283l-71.309 3.83Z"/>
  <path fill="#4dd1c8" d="M418.575 174.178c3.477-.043 7.38-.639 9.8-3.4a10.667 10.667 0 0 0 2.312-7.835 17.78 17.78 0 0 0-1-4.808c-.27-.753-1.483-.431-1.208.336 1.7 4.765 1.511 11.174-3.842 13.433a15.929 15.929 0 0 1-6.063 1.014.63.63 0 0 0 0 1.26Z"/>
  <path fill="#9ee6e1" d="M419.589 170.28a5.75 5.75 0 0 1 5.566-.564 5.982 5.982 0 0 1 3.316 4.2 3.789 3.789 0 0 1-1.975 4.168c-1.682.891-3.789-.038-5.3-.838a.635.635 0 0 0-.857.862 10.35 10.35 0 0 0 9.772 5.495c.8-.071.81-1.331 0-1.255a9.141 9.141 0 0 1-8.692-4.874l-.857.857a8.647 8.647 0 0 0 5.21 1.288 5.18 5.18 0 0 0 3.751-3.2 5.764 5.764 0 0 0-.516-4.675 6.868 6.868 0 0 0-10.042-2.544c-.663.474-.038 1.539.635 1.08Z"/>
  <path fill="#4dd1c8" d="m191.803 123.021 17.79 15.859c.8-5.04 5.5-14.755 9.024-20.368l-26.644 3.894a6.354 6.354 0 0 0-.17.615Zm226.531 49.869a11.037 11.037 0 0 0 13.561 4.168 10.7 10.7 0 0 0 3.619-2.563c.545-.592-.341-1.483-.891-.886a9.747 9.747 0 0 1-15.2-1.35c-.431-.682-1.516-.052-1.085.63Z"/>
  <path fill="#324958" d="M419.347 165.084c2.037.36 2.529 2.842 2.842 4.571a41.446 41.446 0 0 1 .474 12.145c-.156 1.421-.564 3.946-2.416 4.022a2.117 2.117 0 0 1-2.2-1.947l-1.2-16.669a1.965 1.965 0 0 1 2.5-2.122Z"/>
  <path fill="#324958" d="M365.211 127.137s54.558 3.406 55.657 50.655c.919 39.471-66.7 71.62-66.7 71.62Z"/>
  <path fill="#324958" d="M356.457 247.934s34.015-30.751 15.063-110.22c-2.87-12.041-12.055-21.462-20.2 14.556s5.137 95.664 5.137 95.664Z"/>
  <path fill="#4dd1c8" d="M356.457 247.934s29.411-41.068 13.173-105.438c-2.7-10.684-10.317-19.147-17.284 12.984s4.111 92.454 4.111 92.454Zm-140.563-124.78a55.86 55.86 0 0 0-5.632 16.678l-19.155-17.441-4.448 15.447-72.9-17.441 9.64-16.157-10.895-4.112s24.157 2.207 34.706-27.715c0 0 10.279-4.4 16.579-3.136 6.556 1.322 29.368 3.789 42.906 5.21 6.631.692 13.263 2.875 17.63 7.9l11.724 13.8"/>
  <path fill="#324958" d="M187.265 137.99c1.97-9.753 5.461-19.1 8.829-28.421.81-2.245 1.61-4.5 2.368-6.764.256-.777-.947-1.07-1.213-.332-1.606 4.168-3.212 8.4-3.6 12.884a20.409 20.409 0 0 0 2.051 10.061 16.432 16.432 0 0 0 3.15 4.737c.568.578 1.454-.313.886-.886a18.4 18.4 0 0 1-4.382-8.673 16.641 16.641 0 0 1-.474-4.737 27.72 27.72 0 0 1 1.165-6.158c.682-2.34 1.558-4.618 2.435-6.892l-1.213-.332c-2.937 8.957-6.537 17.682-9.118 26.763-.791 2.785-1.5 5.594-2.07 8.436-.156.786 1.052 1.127 1.213.332Z"/>
  <path fill="#f36f12" d="M163.766 69.283c-20.738 16.967-43.393 50.21-52.01 48.485 0 0-8.171 14.684-10.994 29.3-4.429 22.931-.062 40.784-.062 40.784l83.594-4.187 5.921-45.8s-26.208-13.216 15.447-63.416l-4.358-.45-31.22 30.514a19.558 19.558 0 0 1-18.587 4.936 7.9 7.9 0 0 1-4.547-12.083c5.684-8.37 14.092-20.415 19.989-27.473Z"/>
  <circle cx="18.895" cy="18.895" r="18.895" fill="#964308" transform="translate(119.837 124.75)"/>
  <path fill="#fff" d="m424.955 154.104 3.515-2.226a.635.635 0 0 0-.152-1.146l-4.49-.947.379.924 1.464-2.719c.379-.711-.7-1.345-1.085-.635l-1.464 2.719a.635.635 0 0 0 .374.924l4.49.947-.152-1.151-3.515 2.226c-.68.435-.05 1.524.636 1.084Z"/>
  <path fill="#324958" d="M211.317 283.906c-11.642 0-18.714-.611-18.856-.625l.241-2.5a319.11 319.11 0 0 0 52.285-1.023c27.869-2.7 68.792-10.156 105.486-30.344a17.009 17.009 0 0 0 6.018-5.537c6.816-10.359 21.861-39.348 15.188-84.461-1.97-11.368-5.934-24.11-8.835-24.764-.537-.123-1.172.606-1.507 1.047-3.171 4.225-6.86 16.983-6.885 17.1l-1.031-2.271c.108-.474 2.312-11.666 5.8-16.294 1.576-2.1 3.162-2.259 4.216-2.023 1.817.407 4.614 2.331 7.963 14.267 1.758 6.281 2.851 12.5 2.861 12.557 6.821 45.947-8.594 75.584-15.532 86.209a19.643 19.643 0 0 1-6.934 6.376c-37.112 20.42-78.445 27.947-106.584 30.666a361.532 361.532 0 0 1-33.894 1.62Z"/>
  <path fill="#9ee6e1" d="M195.029 190.373c9.4-3.169 14.722-12.4 15.887-21.851a27.4 27.4 0 0 0-1.563-14.007c-1.952-4.557-5.9-8.223-11.1-8.052-5.608.161-11.449 3.832-13.182 9.308-.246.772.947 1.1 1.213.336 1.449-4.59 6.205-7.745 10.852-8.308a9.578 9.578 0 0 1 6.513 1.421 12.6 12.6 0 0 1 4.22 5.073c1.947 3.969 2.293 8.664 1.923 13.012a29.558 29.558 0 0 1-3.973 12.655 20.9 20.9 0 0 1-11.131 9.208c-.758.256-.431 1.468.336 1.208Z"/>
  <path fill="#f4f4f6" d="M355.627 248.417s-112.7 77.977-290.34 2.743a31.039 31.039 0 0 1-18.862-31.8c.043-.407.09-.815.147-1.227a30.86 30.86 0 0 1 11.975-20.136c15.669-11.946 58.21-40.068 129.929-57.031-.028.043 9.336.867 16.361 14.878s90.766-13.855 90.766-13.855l-12.148-13.969h1.23c15.764-.739 31.627-1.009 49.073-.412a12.524 12.524 0 0 1 10.009 5.589c10.17 15.35 35.592 61.917 11.86 115.22Z"/>
  <path fill="#9ee6e1" d="M271.769 176.589a38.6 38.6 0 0 0 .9-17.322c-1-5.551-3.685-11.1-8.711-14.044a16.474 16.474 0 0 0-9.474-2.174 17.962 17.962 0 0 0-10.724 4.831 18.668 18.668 0 0 0-5.589 10.8 22.888 22.888 0 0 0 1.8 12.723c.834 1.895 1.895 3.87 1.956 5.992a8.931 8.931 0 0 1-2.013 5.248c-2.392 3.377-5.821 6.527-5.755 11.008a7.021 7.021 0 0 0 .782 3.088 1.257 1.257 0 0 0 2.169-1.269 5.746 5.746 0 0 1 .322-4.988 24.713 24.713 0 0 1 3.316-4.8 19 19 0 0 0 3.164-5.135 9.417 9.417 0 0 0 0-6.134c-.635-2-1.7-3.837-2.368-5.821a19.894 19.894 0 0 1-1.1-5.727 17.668 17.668 0 0 1 3.117-11.008 15.631 15.631 0 0 1 8.569-5.888 14.073 14.073 0 0 1 9.123.663 15.475 15.475 0 0 1 1.672.872c.265.166.526.336.781.516l.351.256c-.128-.095.227.185.279.227a15.1 15.1 0 0 1 1.383 1.312 11.594 11.594 0 0 1 1.08 1.326 18.854 18.854 0 0 1 1.895 3.387l.062.142c-.043-.109.038.09.038.085l.185.474a25.405 25.405 0 0 1 .905 2.928 28.511 28.511 0 0 1 .677 3.884 36.323 36.323 0 0 1 .185 4.187 38.922 38.922 0 0 1-.265 4.135 28.913 28.913 0 0 1-.265 1.79q-.161.947-.384 1.918c-.137.616-.3 1.227-.474 1.828a1.256 1.256 0 0 0 2.421.668Z"/>
  <path fill="#4dd1c8" d="M293.96 128.284a27.473 27.473 0 0 1-9.308 11.307c-4.58 3.193-10 4.576-15.229 6.3-4.9 1.62-9.995 3.7-13.457 7.7-3.117 3.586-4.869 8.725-2.927 13.291a11.747 11.747 0 0 0 11.809 7.02c.8-.085.805-1.34 0-1.255a10.634 10.634 0 0 1-10.378-5.656c-2.226-4.306-.436-9.412 2.634-12.789 3.463-3.813 8.46-5.731 13.263-7.285 4.993-1.62 10.151-3.013 14.556-5.973a28.71 28.71 0 0 0 10.137-12.021c.327-.734-.753-1.374-1.085-.635Z"/>
  <path fill="#fff" d="m439.877 174.245-1.719 6.016a.635.635 0 0 0 1.052.611l4.633-4.765-1.071-.445-.057 4.595a.63.63 0 0 0 .474.606 3.6 3.6 0 0 1 2.7 1.918c.37.72 1.454.085 1.08-.635a4.737 4.737 0 0 0-3.453-2.5l.474.606.057-4.595a.635.635 0 0 0-1.07-.445l-4.642 4.779 1.052.611 1.7-6.02a.63.63 0 0 0-1.213-.332Z"/>
  <path fill="#f4f4f6" d="M283.923 152.821c.062.583.142 1.16.232 1.734.767 2.785 1.611 5.547 2.326 8.318l.057.218 17.052-1.388v-13.264Z"/>
  <path fill="#fff" d="m435.655 161.096 3.628 4.31c.431.512 1.175-.047 1.052-.611l-.791-3.524-.606.8a7.044 7.044 0 0 0 5.49-3.159c.445-.677-.639-1.307-1.085-.635a5.713 5.713 0 0 1-4.405 2.539.64.64 0 0 0-.606.8l.791 3.524 1.052-.611-3.633-4.31c-.521-.621-1.421.27-.886.886Z"/>
  <ellipse cx="13.026" cy="7.314" fill="#324958" rx="13.026" ry="7.314" transform="translate(398.629 229.546)"/>
  <path fill="#f36f12" d="M419.683 237.968a3.6 3.6 0 0 0 2.231-4.5c-1.146-3.472-3.908-8.526-10.269-8.526s-9.071 4.964-10.236 8.436a3.619 3.619 0 0 0 2.2 4.585 22.86 22.86 0 0 0 16.074.005Z"/>
  <path fill="#324958" d="M411.655 240.683a25.886 25.886 0 0 1-8.455-1.53 4.912 4.912 0 0 1-2.97-6.158c2.008-5.987 6.068-9.289 11.425-9.289s9.474 3.316 11.463 9.388a4.87 4.87 0 0 1-3.008 6.068 25.743 25.743 0 0 1-8.455 1.521Zm0-14.48c-5.372 0-7.887 4.121-9.047 7.579a2.369 2.369 0 0 0 1.421 3 21.581 21.581 0 0 0 15.229 0 2.368 2.368 0 0 0 1.459-2.918c-1.138-3.493-3.652-7.662-9.062-7.662Z"/>
  <path fill="#964308" d="M417.604 236.126a1.781 1.781 0 0 0 1.179-2.25c-.606-1.738-2.065-4.263-5.424-4.263s-4.789 2.487-5.4 4.225a1.786 1.786 0 0 0 1.165 2.293 12.619 12.619 0 0 0 8.484 0Z"/>
  <ellipse cx="62.558" cy="31.016" fill="#324958" rx="62.558" ry="31.016" transform="rotate(-10.4 1367.093 -1009.243)"/>
  <path fill="#9ee6e1" d="M327.024 241.653c-7.579-13.092-31.319-17.616-59.318-12.477s-47.533 17.706-49.84 32.129c-2.738 17.09 26.938 34.27 60.223 29.254 37.149-5.593 57.782-33.611 48.935-48.906Z"/>
  <path fill="#324958" d="M266.094 292.73c-19.264 0-34.967-6.991-42.977-15.077-5.149-5.21-7.389-10.895-6.489-16.541 2.368-14.916 22.353-27.947 50.854-33.157 29.145-5.348 52.943-.213 60.631 13.088 3.122 5.4 2.923 12.377-.573 19.639-5.684 11.795-21.983 27.028-49.262 31.135a81.184 81.184 0 0 1-12.184.913Zm23.262-64.387a119.153 119.153 0 0 0-21.42 2.075c-27.445 5.035-46.61 17.242-48.831 31.092-.767 4.8 1.236 9.777 5.793 14.376 8.9 9 29.278 17.014 53 13.438 26.313-3.965 41.968-18.473 47.368-29.742 3.126-6.489 3.358-12.628.663-17.294-5.21-9.028-18.739-13.95-36.577-13.95Z"/>
  <path fill="#4dd1c8" d="M313.955 260.545c-8.142 7.868-20.577 14.509-36.17 16.863-15.257 2.3-29.69-.474-40.021-5.774a13.7 13.7 0 0 1-1.151-23.684c7.962-5.087 18.833-9.118 31.618-11.468 15.92-2.918 30.344-2.444 40.689 1.179a13.77 13.77 0 0 1 5.035 22.883Z"/>
  <path fill="#9ee6e1" d="M266.928 278.847a65.2 65.2 0 0 1-29.453-6.655 14.343 14.343 0 0 1-1.2-24.792c8.2-5.239 19.212-9.232 31.845-11.553 15.906-2.918 30.472-2.492 41.006 1.2a14.4 14.4 0 0 1 5.263 23.944c-9.109 8.8-22.078 14.85-36.511 17.052a73.514 73.514 0 0 1-10.95.804Zm21.121-43.663a109.757 109.757 0 0 0-19.7 1.895c-12.472 2.288-23.329 6.224-31.4 11.368a13.092 13.092 0 0 0 1.099 22.618c11.184 5.736 25.631 7.82 39.642 5.713 14.182-2.141 26.9-8.052 35.829-16.692l.436.45-.436-.45a13.145 13.145 0 0 0-4.808-21.827 62.611 62.611 0 0 0-20.662-3.076Z"/>
  <circle cx="5.509" cy="5.509" r="5.509" fill="#9ee6e1" transform="translate(238.919 153.166)"/>
  <path fill="#f4f4f6" d="m275.18 173.506-7.868 2.752v6.7h11.3Z"/>
  <circle cx="3.178" cy="3.178" r="3.178" fill="#f4f4f6" transform="translate(266.606 220.314)"/>
  <circle cx="2.804" cy="2.804" r="2.804" fill="#f4f4f6" transform="translate(230 233.473)"/>
  <circle cx="1.985" cy="1.985" r="1.985" fill="#f4f4f6" transform="translate(212.299 256.863)"/>
  <path fill="#4dd1c8" d="M118.042 164.008s-42.9 45.5-6.655 103.1c0 0-26.246-8.052-46.771-16.8a30.317 30.317 0 0 1-17.8-34.626q.128-.559.284-1.123a29.87 29.87 0 0 1 10.653-15.693c9.738-7.508 32.067-23.438 60.289-34.858Z"/>
  <circle cx="2.586" cy="2.586" r="2.586" fill="#f4f4f6" transform="translate(299.777 220.011)"/>
  <circle cx="2.245" cy="2.245" r="2.245" fill="#f4f4f6" transform="translate(325.218 232.313)"/>
  <path fill="#324958" d="M82.801 190.799c2.842-1.724 3.652-5.116 1.691-7.3l-9.35-10.421a7.311 7.311 0 0 0-7.351-1.454l-51.333 16.182a6.4 6.4 0 0 0-4.263 7.19 5.064 5.064 0 0 0 5.812 4.168l27.033-4.111a6.286 6.286 0 0 1 5.859 2.151l3.789 5.343a5.054 5.054 0 0 0 6.721 1.142Zm3.202 64.126a3.055 3.055 0 0 1 1.241 4.713l-8.365 10.625a5.765 5.765 0 0 1-6.11 1.682l-49.447-13.481a5.248 5.248 0 0 1-3.737-5.788 4.107 4.107 0 0 1 4.524-3.486l27.056 2.728a5.177 5.177 0 0 0 3.979-1.227l5.12-4.5a3.06 3.06 0 0 1 3.174-.531Zm-1.999-30.528c-.246-4.462-4.434-7.745-9.4-7.47l-72.333 4.017a2.582 2.582 0 0 0-2.264 2.747 2.506 2.506 0 0 0 2.316 2.544l36.947 1.345a11.747 11.747 0 0 1 8.256 3.87l2.136 2.368 25.029-.474c5.282-.122 9.583-4.182 9.313-8.947Zm177.874-59.086-.829 14.277h-.947l-2.3-9.772-.426-1.8-1.786-.5-.436-.123v-2.079h6.721m3.316-3.14h-13.189v7.579l2.728.763 2.87 12.188h6.39l1.194-20.553Z"/>
  <ellipse cx="6.589" cy="2.951" fill="#324958" rx="6.589" ry="2.951" transform="translate(252.021 159.238)"/>
  <path fill="#324958" d="M275.473 181.165a11.415 11.415 0 0 1-.062-1.843 1.816 1.816 0 0 1 .024-.36c0-.043.076-.625 0-.213.043-.289.1-.578.166-.867a12.2 12.2 0 0 1 .516-1.658c.194-.512-.095.194.043-.1l.185-.388a12.391 12.391 0 0 1 .852-1.463c.142-.208.194-.275.289-.412.033-.057.213-.289 0 0a12.816 12.816 0 0 1 1.146-1.284 6.048 6.048 0 0 1 .531-.474l.36-.308c.057-.052.279-.223 0 0a11.746 11.746 0 0 1 1.393-.914c.189-.109.379-.208.578-.3l.322-.147c-.379.18-.161.062-.066.028.587-.208 1.179-.4 1.767-.611a27.993 27.993 0 0 0 3.581-1.516 11.658 11.658 0 0 0 5.585-5.793c1.052-2.676.028-5.447-1.8-7.5a18.634 18.634 0 0 0-6.887-4.467 25.361 25.361 0 0 0-15.5-1.1c-4.945 1.17-10.061 3.922-11.7 9.052a1.9 1.9 0 0 0 1.312 2.316 1.933 1.933 0 0 0 2.321-1.317c.038-.123.085-.251.123-.374s.175-.422 0-.057c.095-.213.194-.422.308-.625s.227-.4.35-.592l.171-.251c.09-.128.28-.36.076-.109a11.032 11.032 0 0 1 .99-1.061c.171-.161.351-.308.526-.474.265-.227.038-.038 0 0l.374-.279a16.419 16.419 0 0 1 2.624-1.478l.218-.095c-.261.109.223-.085.218-.085.223-.09.474-.171.677-.251q.711-.251 1.421-.474a20.316 20.316 0 0 1 6.158-.848c.625 0 1.246.028 1.866.081a11.763 11.763 0 0 1 1.544.2 23.065 23.065 0 0 1 3.609.947c.639.223 1 .365 1.464.573a21.862 21.862 0 0 1 3.245 1.828l.393.279c.033.024.279.218.066.047.242.194.474.4.7.606a8.762 8.762 0 0 1 .871.929c-.208-.251.033.043.081.109a7.245 7.245 0 0 1 .45.621c.057.1.1.2.156.3.19.379-.038-.2.062.171.066.265.152.521.2.8-.066-.374 0-.09 0 0v.417c0 .137-.062.474 0 .09a1.447 1.447 0 0 1-.071.346c-.028.114-.071.227-.1.346-.1.36.071-.071-.1.246a8.044 8.044 0 0 1-.516.867c-.071.1-.142.2-.218.3.18-.232-.066.071-.114.123a11.572 11.572 0 0 1-1.217 1.194c-.422.37.161-.109-.1.085-.118.09-.237.175-.36.256q-.327.218-.668.426a16.3 16.3 0 0 1-1.483.777l-.474.218c.076-.033.3-.123-.043 0l-.758.294c-.54.2-1.085.388-1.629.573a14.015 14.015 0 0 0-2.842 1.284c-4.476 2.747-7.513 8.052-6.925 13.353a1.945 1.945 0 0 0 1.895 1.895 1.91 1.91 0 0 0 1.895-1.895Zm-24.465-8.938-4.817-29.013c-.133-.8-1.341-.474-1.208.332l4.813 29.017c.136.796 1.348.474 1.212-.336Zm-3.241-.545-5.466-27.412c-.156-.791-1.369-.474-1.213.336l5.466 27.407c.157.792 1.37.475 1.213-.331Zm-12.406 12.372-1.947-14.253-6.035.753.692 14.333Z"/>
  <path fill="#fff" d="M259.581 143.821s-20.4 19.6-48.789 24.086l-1.421-11.634s6.333-7.929 11.875-13.8 9.611-5.329 9.611-5.329-11.406-5.84-14.5-12.69a7.894 7.894 0 0 1-.474-1.3c6.859-12.562 19.672-26.085 19.672-26.085 6.888 9.322 24.026 46.752 24.026 46.752Z"/>
  <path fill="#9ee6e1" d="M231.582 178.332c4.869-3.562 3.979-11.16.976-15.631-1.809-2.7-4.874-4.713-8.166-3.344-3.59 1.5-5.447 5.613-6.21 9.185-.474 2.245-.692 4.547-.947 6.821q-.474 4.088-.838 8.176c-.071.805 1.184.8 1.255 0 .374-4.135.763-8.289 1.355-12.406.474-3.467 1.464-7.171 4.206-9.573a4.988 4.988 0 0 1 4.415-1.288 6.432 6.432 0 0 1 3.358 2.368 13.343 13.343 0 0 1 2.724 7.138c.218 2.733-.426 5.76-2.757 7.465-.644.474 0 1.563.635 1.085Z"/>
  <path fill="#4dd1c8" d="M221.237 178.423v-2.558a2.392 2.392 0 0 1 1.862-2.34l1.525-.351a2.406 2.406 0 0 1 2.752 1.421v2.842s-2.089 2.634-6.139.986Zm64.87-8.115 6.764 3.112a1.54 1.54 0 0 1 .9 1.4v2.591l-9.947 1.132.526-7.2a1.241 1.241 0 0 1 1.762-1.037Z"/>
  <path fill="#9ee6e1" d="m222.994 185.352-.625-1.194a1.9 1.9 0 0 0-1.895-1.009l-6.726.772a1.918 1.918 0 0 0-1.535 1.142l-.687 1.6Z"/>
  <path fill="#324958" d="M209.919 168.434a.879.879 0 0 1-.861-.757l-1.723-10.295a.958.958 0 0 1 .314-.881 102.547 102.547 0 0 0 12.087-12.754c7-8.712 15.071-11.794 23.283-8.924a.947.947 0 0 1 .463 1.126.856.856 0 0 1-.992.618c-7.523-2.625-14.942.272-21.457 8.379a107.582 107.582 0 0 1-11.885 12.647l1.464 8.744c5.327-1.763 32.54-11.185 45.751-23.818-1.757-4.153-12.755-29.807-21.217-43.954a.977.977 0 0 1-.109-.975.837.837 0 0 1 1.551-.013c9.288 15.531 21.475 44.517 21.591 44.8a.97.97 0 0 1-.2 1.047c-14.688 14.5-46.453 24.552-47.8 24.972a.845.845 0 0 1-.263.037Z"/>
  <path fill="#f36f12" d="m214.878 168.696-6.811.474c-1.208-5.864-1.937-10.895-3.647-14.414l5.845-3.287a2.454 2.454 0 0 1 3.145.616 21.118 21.118 0 0 1 3.477 15.025 2.089 2.089 0 0 1-2.008 1.587Z"/>
  <path fill="#4dd1c8" d="M224.848 174.757a16.561 16.561 0 0 0 .516-9.511c-.677-3.188-3.074-7.347-6.9-6.736-3.074.474-4.045 3.789-4.012 6.489 0 1.8.526 3.553.611 5.348a19.321 19.321 0 0 1-.815 6.385 22.473 22.473 0 0 1-2.06 5.139 11.7 11.7 0 0 1-4.552 4.382c-.711.388-.076 1.473.635 1.085a13.994 13.994 0 0 0 6.29-7.579 22.731 22.731 0 0 0 1.6-11.141 23.545 23.545 0 0 1-.431-4.462 5.646 5.646 0 0 1 1.222-3.5 3.112 3.112 0 0 1 3.936-.445 7.219 7.219 0 0 1 2.842 3.875 16.342 16.342 0 0 1 .8 5.343 12.359 12.359 0 0 1-.748 4.694c-.308.734.772 1.378 1.085.635Z"/>
  <path fill="#324958" d="m205.108 178.759 37-5.139a1.25 1.25 0 0 0 1.061-1.464 1.251 1.251 0 0 1 1.089-1.468l9.35-1.445 1.961 1.312 3.86 10.752-12.59 1.421a3.548 3.548 0 0 0-3.889-3.249l-37.42 3.789Z"/>
  <path fill="#fff" d="M194.409 240.547c1.97 9.474 8.052 46.42-11.477 67.343a2.937 2.937 0 0 1-2.567.919l-81.564-11.662a2.908 2.908 0 0 1-1.748-4.831c6.371-6.968 17.427-23.513 15.3-52.891a2.913 2.913 0 0 1 2.97-3.136l76.309 1.942a2.9 2.9 0 0 1 2.777 2.316Z"/>
  <path fill="#324958" d="M189.775 249.687a4.839 4.839 0 0 1-4.5-3.917 3.624 3.624 0 0 1 .668-3.022 3.264 3.264 0 0 1 2.908-1.111 4.936 4.936 0 0 1 4.088 3.894 3.51 3.51 0 0 1-1.009 3.373 3.193 3.193 0 0 1-2.155.783Zm-1.34-6.821a1.9 1.9 0 0 0-1.525.682 2.335 2.335 0 0 0-.407 1.98 3.591 3.591 0 0 0 3.273 2.9 1.966 1.966 0 0 0 1.326-.474 2.236 2.236 0 0 0 .606-2.188 3.685 3.685 0 0 0-2.994-2.889 2.672 2.672 0 0 0-.279-.014Z"/>
  <path fill="#324958" d="M191.514 248.427a4.3 4.3 0 0 1-3.538-3.387 2.875 2.875 0 0 1 .81-2.78 4.263 4.263 0 0 1 3.534 3.387 2.842 2.842 0 0 1-.806 2.78ZM105.3 293.114a4.65 4.65 0 0 1-3.638-1.421 1.923 1.923 0 0 1-.426-1.184c0-1.468 1.786-2.615 4.064-2.615s4.064 1.146 4.064 2.615a1.971 1.971 0 0 1-.422 1.189 4.675 4.675 0 0 1-3.642 1.416Zm0-3.979c-1.611 0-2.809.715-2.809 1.359a.724.724 0 0 0 .166.422 4.161 4.161 0 0 0 5.286 0 .725.725 0 0 0 .166-.422c0-.644-1.203-1.359-2.809-1.359Z"/>
  <path fill="#324958" d="M108.446 291.309a4.056 4.056 0 0 1-3.145 1.184 1.8 1.8 0 1 1 3.145-1.184Z"/>
  <path fill="#fff" d="m99.048 293.327 80.193 11.742a3.434 3.434 0 0 0 3.249-1.322c4.329-5.741 17.569-26.7 10.516-60.81a3.316 3.316 0 0 0-3.107-2.619l-74.467-.545a1.743 1.743 0 0 1-1.682-2.2 1.743 1.743 0 0 1 1.686-1.288l74.779.445c2.591.047 5.21 1.667 5.618 4.225 1.895 11.941 8.962 44.426-14 68.063l-83.031-11.871a2.237 2.237 0 0 1-.474-.062 1.914 1.914 0 0 1 .72-3.758Z"/>
  <path fill="#324958" d="M126.348 85.912a.947.947 0 0 1-.365-1.809c8.943-3.7 12.993-8.479 16.579-12.695a44.643 44.643 0 0 1 4.514-4.836c1.677-1.464 7.579-6.352 13.443-7.631a.947.947 0 0 1 .4 1.838c-5.4 1.184-11.008 5.817-12.6 7.209a44.056 44.056 0 0 0-4.32 4.637c-3.714 4.377-7.92 9.341-17.284 13.216a.947.947 0 0 1-.367.071Z"/>
  <path fill="#324958" d="M113.463 100.673h-.5a.942.942 0 0 1-.919-1.033c0-.189.474-4.344 5.722-8.867l-14.503-3.619a.947.947 0 0 1-.715-.947c0-.265.36-6.527 7.617-14.059 6.57-6.816 20.368-16.062 48.874-21.415a.947.947 0 0 1 .351 1.852c-27.847 5.21-41.319 14.149-47.713 20.714-5.438 5.575-6.8 10.421-7.138 12.235l15.508 3.846 12.893 3.2a.947.947 0 0 1 .294 1.7c-.371.282-9.717 6.393-19.771 6.393Zm6.584-9.341c-3.922 3.022-5.353 5.945-5.864 7.446 6.631-.208 13.007-3.212 16.1-4.907Z"/>
  <path fill="#324958" d="M141.787 74.678a.947.947 0 0 1-.156-1.871l3.671-.625a.947.947 0 1 1 .317 1.857l-3.671.625a.947.947 0 0 1-.161.014Z"/>
  <path fill="#4dd1c8" d="M266.773 182.742a36.175 36.175 0 0 1 .242-5.263c.038-.346-.076.5-.024.156a2.3 2.3 0 0 1 .038-.261c.038-.227.071-.474.109-.687q.114-.639.242-1.279c.185-.886.4-1.757.649-2.624s.512-1.677.81-2.5c.147-.412.308-.824.474-1.232.076-.189.147-.384.232-.568-.028.057-.227.521-.043.114.047-.109.09-.218.137-.322a41.828 41.828 0 0 1 2.51-4.76q.715-1.17 1.511-2.288c.237-.336.474-.668.729-1 .066-.09.137-.189.213-.279-.043.052-.346.436-.066.09.147-.185.289-.369.44-.549a40.921 40.921 0 0 1 3.652-3.927 38.41 38.41 0 0 1 1.97-1.729l.474-.384c.09-.071.18-.152.275-.213-.474.317-.2.156-.095.071.37-.275.744-.549 1.123-.815a35.184 35.184 0 0 1 4.429-2.648 38.22 38.22 0 0 1 1.16-.549c.123-.057.436-.265.578-.256-.237 0-.351.142-.076.033l.44-.175a27.953 27.953 0 0 1 2.728-.914q.711-.192 1.421-.341l.654-.123.379-.066.185-.028-.194.028c.071.057.573-.057.654-.066q.327-.028.654-.043h1.483l.635.052c.36.028-.474-.081-.123 0l.36.062a11.368 11.368 0 0 1 1.317.327 3.732 3.732 0 0 0 .682.246s-.436-.2-.18-.076c.109.052.223.1.332.156a9.339 9.339 0 0 1 1.208.706l.161.114c.327.223-.171-.133-.194-.152.109.109.242.194.355.3a9.233 9.233 0 0 1 .753.739c.1.114.2.227.3.346a2.3 2.3 0 0 0 .166.208c0-.024-.374-.516-.152-.189s.4.583.587.9.308.549.445.834c.08.161.137.341.227.5 0 .024-.208-.54-.118-.284.038.109.085.213.128.317a14.77 14.77 0 0 1 .587 2.008c.076.346.128.7.194 1.047.052.27-.043-.351-.043-.317s.024.189.033.284c0 .213.043.426.062.639a17.949 17.949 0 0 1 0 2.141 10 10 0 0 1-.095 1.066c-.047.441.1-.635 0-.033q-.052.313-.114.625a14.838 14.838 0 0 1-.549 2.023c-.052.152-.114.3-.166.474-.2.554.194-.417 0-.033s-.3.654-.474.947-.332.578-.521.853l-.26.379c-.227.322.137-.18.152-.194-.076.076-.137.171-.2.251a6.405 6.405 0 0 1-.62.663c-.1.109-.213.208-.327.313-.5.441.45-.27.062-.038-.208.128-.412.242-.625.355-.322.171.663-.246.175-.076l-.474.161a25.679 25.679 0 0 1-3.638.748c-2.814.474-5.94 1.014-8.015 3.155a6.343 6.343 0 0 0-1.293 1.866 2.577 2.577 0 0 0 .9 3.434c1.085.573 2.875.384 3.434-.9a7.848 7.848 0 0 1 .474-.829c.189-.322-.436.474-.066.1l.365-.365a1.792 1.792 0 0 0 .175-.147s-.545.374-.232.18l.341-.223c.294-.18.611-.3.909-.474 0 0-.621.242-.256.109l.237-.085c.137-.052.279-.1.417-.142q.535-.171 1.066-.3a32.75 32.75 0 0 1 2.037-.407c2.809-.474 5.684-.767 7.839-2.842a14.975 14.975 0 0 0 4.13-8.526 18.871 18.871 0 0 0-1.26-10.336 12.543 12.543 0 0 0-7.749-7.062c-4.074-1.288-8.635-.474-12.533 1.014a42.011 42.011 0 0 0-26.066 36.042 25.586 25.586 0 0 0 0 2.762 2.51 2.51 0 0 0 5.021 0Z"/>
  <path fill="#f4f4f6" d="m298.783 176.774-44.128 5.083 3.141 7.347 41.977-5.3Z"/>
  <path fill="#324958" d="M138.521 244.325a82.66 82.66 0 0 1-4.94 30.756 81.3 81.3 0 0 1-3.477 8.124c-.3.606.474 1.307.985.758a94.181 94.181 0 0 0 16.232-23.609q1.762-3.666 3.2-7.465l-1.232-.166a73.893 73.893 0 0 1-13.116 36.35c-.474.663.625 1.293 1.085.635a75.352 75.352 0 0 0 12.069-28.283 77.046 77.046 0 0 0 1.217-8.7c.062-.758-1-.782-1.236-.171a92.807 92.807 0 0 1-13.883 24.494q-2.473 3.126-5.21 6.03l.985.763a83.424 83.424 0 0 0 8.588-39.514c-.028-.81-1.284-.81-1.255 0Zm57.455-2.785c1.279 9.616 4.382 31.021 11.975 42.361l-25.02 23.987s12.6-15.1 13.94-35.327a157.819 157.819 0 0 0-.895-31.021Z"/>
  <path fill="#324958" d="M195.35 241.54c.687 5.173 1.473 10.331 2.5 15.447a108.767 108.767 0 0 0 5.131 18.417 45.946 45.946 0 0 0 4.429 8.81l.095-.763-8.479 8.133-13.457 12.9-3.079 2.956.886.891a48.312 48.312 0 0 0 3.519-4.955 73.362 73.362 0 0 0 6.594-13.072 63.212 63.212 0 0 0 4.093-19.028 167.328 167.328 0 0 0-.061-20.272 145.267 145.267 0 0 0-.545-6.428c-.109-1.014-.17-2.07-.379-3.069v-.133c-.123-.8-1.331-.474-1.213.332.028.171.052.341.076.512s0-.047 0 0v.142l.043.351c.038.3.076.592.109.886.218 1.857.388 3.714.526 5.575a165.613 165.613 0 0 1 .336 18.9 74.451 74.451 0 0 1-1.009 10.658 61.849 61.849 0 0 1-2.4 9.052 70.923 70.923 0 0 1-6.489 13.713 60.298 60.298 0 0 1-2.7 4.1c-.3.412-.6.824-.914 1.232l-.085.114-.137.175-.194.242c0 .028-.043.052-.062.076-.512.616.294 1.459.886.891l8.469-8.128 13.463-12.893 3.084-2.956a.644.644 0 0 0 .1-.763c-3.316-4.964-5.324-10.738-6.939-16.441a157.3 157.3 0 0 1-3.823-17.853 267.177 267.177 0 0 1-1.127-7.749c-.095-.793-1.355-.803-1.247-.002Zm-82.035-4.628 7.607.047 18.251.1 22.012.128 19.023.109c3.084 0 6.186.142 9.265.052h.128a.63.63 0 0 0 0-1.255l-7.6-.043-18.255-.1-22.007-.128-19.047-.1c-3.079 0-6.181-.147-9.265-.057h-.128a.63.63 0 0 0 0 1.255Zm97.837 63.515s8.1.44 11.648 1l.1-3.084Z"/>
  <path fill="#324958" d="M211.153 301.052a114.882 114.882 0 0 1 11.482.981.644.644 0 0 0 .8-.606l.1-3.084a.635.635 0 0 0-.791-.606l-10.269 1.819-1.483.265c-.8.137-.474 1.35.332 1.208l10.269-1.819 1.483-.261-.8-.606-.1 3.084.791-.606c-3.9-.606-7.877-.81-11.813-1.023-.811-.044-.806 1.211-.001 1.254Z"/>
  <path fill="#324958" d="M219.85 301.905a3.424 3.424 0 0 1-1.947-4.031.63.63 0 0 0-.289-.711.654.654 0 0 0-.758.1 6.091 6.091 0 0 0-2.368 5.21l1.075-.445a2.842 2.842 0 0 1-.284-3.477c.327-.474-.213-1.018-.711-.924a3.7 3.7 0 0 0-1.487.682 3.316 3.316 0 0 0-1.336 2.975c.057.8 1.312.805 1.255 0a2.369 2.369 0 0 1 .213-1.288 1.692 1.692 0 0 1 .3-.412 2.673 2.673 0 0 1 .208-.194s.1-.081.052-.047.085-.057.081-.052a3.452 3.452 0 0 1 .407-.232c.043-.024.232-.1.09-.047l.175-.066a2.526 2.526 0 0 1 .369-.1l-.72-.9a4.149 4.149 0 0 0 .474 5 .635.635 0 0 0 1.07-.445 4.959 4.959 0 0 1 2.013-4.325l-1.047-.611a4.653 4.653 0 0 0 2.525 5.452.644.644 0 0 0 .857-.227.635.635 0 0 0-.227-.857Z"/>
  <path fill="#f4f4f6" d="m214.808 282.854-5.158-.819-4 2.529v3.141l1.156 3.358 5.168.815 4-2.529v-3.135Z"/>
  <path fill="#324958" d="m212.108 292.536-5.774-.914-1.317-3.789v-3.628l4.5-2.842 5.769.947 1.322 3.789v3.591Zm-4.836-2.037 4.562.72 3.515-2.217v-2.686l-1.009-2.9-4.557-.725-3.51 2.222v2.69Z"/>
  <path fill="#324958" d="m213.251 285.776-1.89 1.194-2.439-.388-.275-.772-.279-.81 1.89-1.2 2.444.393.535 1.544Z"/>
  <path fill="#324958" d="m205.648 284.611 1.156 3.358 5.168.815 4-2.529v3.096l-4 2.529-5.168-.815-1.156-3.358Z"/>
  <path fill="#f4f4f6" d="m204.975 305.761 2.307-6.726-2.4-5.869-4.159-.644-4.737.857-2.3 6.736 2.425 5.878 4.149.639Z"/>
  <path fill="#324958" d="m200.267 307.267-4.609-.715-2.624-6.414 2.49-7.309 5.21-.947 4.614.715 2.6 6.414-2.5 7.3Zm-3.714-1.847 3.695.573 4.263-.782 2.113-6.158-2.179-5.324-3.7-.573-4.263.772-2.1 6.158Z"/>
  <path fill="#324958" d="m201.281 303.425-1.269-3.117 1.184-3.463 2.657-.474 1.279 3.117-1.194 3.472Zm-.6-3.117.995 2.43 1.791-.332.995-2.9-.995-2.43-1.8.336Z"/>
  <path fill="#324958" d="m201.48 303.075-1.132-2.766 1.085-3.178 1.089-.208 1.137-.208 1.137 2.776-1.094 3.188-2.174.4Z"/>
  <path fill="#324958" d="m204.814 293.152-4.718.862-2.3 6.736 2.406 5.869-4.093-.63-2.406-5.869 2.3-6.74 4.718-.862Zm23.083-3.056s4.405 6.5 6.054 9.573l2.416-1.838Z"/>
  <path fill="#324958" d="M227.371 290.413a111.843 111.843 0 0 1 6.054 9.573.635.635 0 0 0 .862.227l2.416-1.838a.639.639 0 0 0 .128-.985l-7.422-6.759-1.089-.976c-.592-.545-1.483.341-.886.886l7.4 6.759 1.066.976.128-.985-2.416 1.838.862.232a111.851 111.851 0 0 0-6.054-9.573c-.433-.673-1.523-.047-1.049.625Z"/>
  <path fill="#324958" d="M231.862 297.628a3.472 3.472 0 0 1 1.895-3.889.635.635 0 0 0 0-1.213 5.959 5.959 0 0 0-5.537 1.421l1.047.611a2.916 2.916 0 0 1 2.411-2.468c.474-.047.886-.677.445-1.07a3.718 3.718 0 0 0-1.516-.8 3.268 3.268 0 0 0-3.088.876c-.592.554.3 1.421.891.891a1.961 1.961 0 0 1 2-.516 2.307 2.307 0 0 1 .649.313l.1.071c.109.071.047.1 0 0 0 .024.052.043.066.057l.445-1.07a4.14 4.14 0 0 0-3.619 3.387.63.63 0 0 0 1.047.611 4.666 4.666 0 0 1 4.32-1.108v-1.211a4.748 4.748 0 0 0-2.757 5.433c.171.791 1.383.474 1.213-.332Z"/>
  <ellipse cx="3.453" cy="4.396" fill="#f4f4f6" rx="3.453" ry="4.396" transform="translate(218.622 295.496)"/>
  <path fill="#324958" d="M222.075 304.918c-2.25 0-4.078-2.255-4.078-5.026s1.828-5.021 4.078-5.021 4.078 2.255 4.078 5.021-1.828 5.026-4.078 5.026Zm0-8.791c-1.558 0-2.842 1.691-2.842 3.789s1.265 3.789 2.842 3.789 2.842-1.691 2.842-3.789-1.283-3.79-2.842-3.79Z"/>
  <circle cx="4.396" cy="4.396" r="4.396" fill="#f4f4f6" transform="translate(230.351 292.839)"/>
  <path fill="#324958" d="M234.746 302.256a5.021 5.021 0 1 1 5.021-5.021 5.021 5.021 0 0 1-5.021 5.021Zm0-8.787a3.789 3.789 0 1 0 3.766 3.789 3.789 3.789 0 0 0-3.766-3.789Zm-13.533 7.934a6.091 6.091 0 0 0 4.116-3.586.63.63 0 0 0-.441-.772.654.654 0 0 0-.772.441c.057-.128 0 .038-.024.052l-.057.123-.142.261a5.073 5.073 0 0 1-.313.493c-.1.147.076-.09-.033.047-.028.038-.062.071-.09.1a2.957 2.957 0 0 1-.2.227 5.043 5.043 0 0 1-.431.412l-.109.09c-.038.028-.09.071 0 0l-.27.189a5.089 5.089 0 0 1-.516.3l-.246.123h-.047l-.128.052a6.6 6.6 0 0 1-.6.185.627.627 0 1 0 .336 1.208Z"/>
  <path fill="#324958" d="M234.098 293.398a33.582 33.582 0 0 1 .289 5.684c-.024.805 1.232.805 1.255 0a36.1 36.1 0 0 0-.332-6.025.63.63 0 0 0-.772-.436.644.644 0 0 0-.44.772ZM341.683 73.389l-30.884 24.366a6.224 6.224 0 0 1-6.513.767l-40.769-19.245a4.514 4.514 0 0 1-2.553-3.519l-1.146-9a4.339 4.339 0 0 1 .947-3.312l26.971-32.778a6.224 6.224 0 0 1 6.608-2l45.288 13.638a6.224 6.224 0 0 1 4.424 5.959V68.5a6.22 6.22 0 0 1-2.374 4.889Z"/>
  <path fill="#324958" d="M306.949 100.043a7.2 7.2 0 0 1-3.069-.692l-40.765-19.245a5.438 5.438 0 0 1-3.093-4.263l-1.142-9a5.324 5.324 0 0 1 1.16-4.022l26.976-32.778a7.143 7.143 0 0 1 7.617-2.312l45.272 13.676a7.105 7.105 0 0 1 5.1 6.859v20.235a7.1 7.1 0 0 1-2.728 5.627l-30.884 24.366a7.133 7.133 0 0 1-4.444 1.549Zm-14.4-70.739a5.272 5.272 0 0 0-4.069 1.928l-27 32.778a3.429 3.429 0 0 0-.748 2.586l1.146 9a3.567 3.567 0 0 0 2.023 2.79l40.765 19.242a5.253 5.253 0 0 0 5.528-.63l30.883-24.37a5.263 5.263 0 0 0 2.008-4.149V48.266a5.253 5.253 0 0 0-3.756-5.059l-45.25-13.679a5.353 5.353 0 0 0-1.535-.224Z"/>
  <path fill="#4dd1c8" d="m335.71 50.497-26.91 33.2a4.661 4.661 0 0 1-5.575 1.317l-35.118-16.607a4.41 4.41 0 0 1-1.421-6.835l23.916-28.986a4.67 4.67 0 0 1 5.016-1.492l38.107 12.374a4.405 4.405 0 0 1 1.985 7.029Z"/>
  <path fill="#324958" d="M334.256 75.033c-3.131 0-5.684-3.221-5.684-7.176s2.544-7.171 5.684-7.171 5.684 3.216 5.684 7.171-2.553 7.176-5.684 7.176Zm0-11.842c-1.715 0-3.164 2.136-3.164 4.661s1.449 4.661 3.164 4.661 3.169-2.132 3.169-4.661-1.449-4.656-3.169-4.656Z"/>
  <path fill="#4dd1c8" d="M276.221 138.487a2.2 2.2 0 0 1-1.094-4.107c4.206-2.4 4.9-6.21 5.684-10.625.587-3.249 1.2-6.608 3.264-9.616 5.135-7.465 13.817-10.634 21.477-13.429 1.165-.426 2.321-.848 3.448-1.279 16.579-6.324 26.943-14.044 23.736-31.168a2.2 2.2 0 1 1 4.32-.81c4 21.358-11.146 30.225-26.488 36.085q-1.724.654-3.51 1.3c-7.385 2.7-15.025 5.485-19.359 11.795-1.53 2.226-2.032 4.988-2.567 7.91-.872 4.8-1.862 10.236-7.839 13.651a2.179 2.179 0 0 1-1.072.293Z"/>
  <path fill="#324958" d="M267.16 134.333s6.205-4.737 10.056.763c2.96 4.22 2.179 7.077-2.908 10.222Z"/>
  <path fill="#324958" d="m273.915 147.032-8.46-12.983.947-.706c.142-.109 3.505-2.629 7.134-2.065a6.972 6.972 0 0 1 4.737 3.107c1.644 2.34 2.226 4.306 1.838 6.186-.426 2.079-2.051 3.931-5.111 5.826Zm-5.021-12.313 5.765 8.858c1.753-1.232 2.719-2.368 2.951-3.519s-.218-2.506-1.421-4.239a4.5 4.5 0 0 0-3.041-2.07 7.191 7.191 0 0 0-4.254.976Z"/>
  <path fill="#4dd1c8" d="M273.957 146.612c-1.137 0-3.5-1.776-5.632-5.059a16.641 16.641 0 0 1-2.307-5.04c-.346-1.487-.123-2.241.175-2.435a.616.616 0 0 1 .341-.085c1.137 0 3.5 1.772 5.637 5.054a16.736 16.736 0 0 1 2.3 5.04c.346 1.487.123 2.245-.175 2.435a.578.578 0 0 1-.339.09Z"/>
  <path fill="#9ee6e1" d="M266.544 134.612c.843 0 3.079 1.672 5.1 4.775 2.293 3.515 2.572 6.054 2.307 6.589-.843 0-3.079-1.667-5.1-4.77-2.293-3.519-2.572-6.058-2.307-6.594m0-1.255a1.223 1.223 0 0 0-.682.189c-1.355.881-.474 4.614 1.947 8.341 2.075 3.193 4.618 5.343 6.158 5.343a1.246 1.246 0 0 0 .682-.185c1.355-.881.474-4.618-1.942-8.346-2.079-3.193-4.623-5.343-6.158-5.343Z"/>
  <path fill="#324958" d="M276.225 137.227a.947.947 0 0 1-.474-1.757 12.525 12.525 0 0 0 1.454-.971.947.947 0 0 1 1.156 1.487 13.948 13.948 0 0 1-1.677 1.118.947.947 0 0 1-.459.123Zm4.108-3.828a.936.936 0 0 1-.791-1.449 13.021 13.021 0 0 0 1.454-3.207.947.947 0 0 1 1.8.568 15 15 0 0 1-1.672 3.662.947.947 0 0 1-.786.426Zm2.439-7.105a1.1 1.1 0 0 1-.175 0 .947.947 0 0 1-.753-1.1c.076-.4.152-.8.223-1.194.152-.838.308-1.705.474-2.553a.947.947 0 1 1 1.838.393 76.39 76.39 0 0 0-.474 2.5c-.076.4-.147.805-.223 1.2a.947.947 0 0 1-.891.739Zm1.762-7.356a.9.9 0 0 1-.346-.066.947.947 0 0 1-.526-1.222 14.1 14.1 0 0 1 1.468-2.785c.166-.242.336-.474.512-.715a.947.947 0 0 1 1.511 1.127c-.161.218-.317.436-.474.658a12.091 12.091 0 0 0-1.274 2.411.947.947 0 0 1-.872.578Zm4.386-6.1a.947.947 0 0 1-.649-1.625 27.129 27.129 0 0 1 3.046-2.473.947.947 0 1 1 1.08 1.544 24.314 24.314 0 0 0-2.842 2.3.947.947 0 0 1-.635.242Zm6.186-4.367a.947.947 0 0 1-.474-1.772 48.708 48.708 0 0 1 3.467-1.7.947.947 0 0 1 .767 1.719 41.744 41.744 0 0 0-3.316 1.639.947.947 0 0 1-.443.113Zm6.9-3.122a.947.947 0 0 1-.341-1.819c1.2-.474 2.42-.919 3.567-1.336a.947.947 0 1 1 .644 1.767c-1.132.417-2.368.862-3.529 1.326a.947.947 0 0 1-.365.047Zm7.105-2.638a.947.947 0 0 1-.332-1.824l.71-.27c1-.379 1.895-.739 2.795-1.1a.947.947 0 1 1 .711 1.743c-.891.365-1.819.729-2.842 1.118l-.72.27a.915.915 0 0 1-.346.047Zm7.01-2.889a.947.947 0 0 1-.393-1.8 64.242 64.242 0 0 0 3.349-1.658.947.947 0 0 1 .886 1.667 70.803 70.803 0 0 1-3.448 1.7.947.947 0 0 1-.417.071Zm6.679-3.576a.947.947 0 0 1-.507-1.738c1.08-.682 2.1-1.421 3.027-2.122a.947.947 0 1 1 1.16 1.483 40.269 40.269 0 0 1-3.178 2.231.947.947 0 0 1-.526.133Zm5.935-4.7a.947.947 0 0 1-.668-1.606 23.735 23.735 0 0 0 2.368-2.762.947.947 0 0 1 1.521 1.118 27.036 27.036 0 0 1-2.558 2.975.947.947 0 0 1-.66.274Zm4.438-6.091a.886.886 0 0 1-.417-.1.947.947 0 0 1-.422-1.26 21.2 21.2 0 0 0 1.326-3.363.947.947 0 1 1 1.8.535 22.267 22.267 0 0 1-1.449 3.666.947.947 0 0 1-.862.521Zm2.16-7.214h-.118a.947.947 0 0 1-.815-1.052 25.516 25.516 0 0 0 .194-3.164v-.474a.947.947 0 0 1 .924-.947.947.947 0 0 1 .947.947v.512a27.483 27.483 0 0 1-.208 3.4.947.947 0 0 1-.943.777Zm-.12-7.58a.947.947 0 0 1-.947-.815c-.081-.6-.18-1.2-.294-1.814a.947.947 0 1 1 1.847-.346c.123.639.227 1.279.313 1.895a.947.947 0 0 1-.81 1.061Zm-64.106 68.862a2.605 2.605 0 0 0-1.592-1.359.706.706 0 0 0-.857.862c.341 1.132 1.028 3.316 2.458 3.434a.63.63 0 0 0 .663-.559.066.066 0 0 1 .024-.047 3.361 3.361 0 0 0-.696-2.331Z"/>
  <path fill="#eee" d="M276.633 52.217a10.2 10.2 0 0 1 4.841 7.148 9.7 9.7 0 0 1-2.539 8.052 9.876 9.876 0 0 1-4.173 2.714c-.767.251-.44 1.464.332 1.208a11.458 11.458 0 0 0 6.987-6.594 10.975 10.975 0 0 0-.843-9.649 11.231 11.231 0 0 0-3.969-3.96.63.63 0 0 0-.635 1.085Z"/>
  <path fill="#9ee6e1" d="M298.636 50.25a8.446 8.446 0 0 1-4.874-3.5 3.929 3.929 0 0 1-.36-.72c-.1-.27-.062-.431-.128-.587v.043a.469.469 0 0 1-.142.137l-.166.057c-.1.033-.081 0-.085 0s.374.171.393.18c.4.175.81.341 1.217.5a38.268 38.268 0 0 0 8.4 2.018c1.767.251 3.671.3 5.21 1.269 2.368 1.5 4.77 3.832 7.82 3.2l-.336-1.208a24.679 24.679 0 0 0-6.437 4.107 20.79 20.79 0 0 0-4.419 5.21 16.46 16.46 0 0 0-1.525 3.415 4.792 4.792 0 0 0-.327 2.492c.332 1.359 1.8 1.393 2.9 1.071a15.579 15.579 0 0 0 4.633-2.5 23.824 23.824 0 0 0 4.187-3.709 10.47 10.47 0 0 0 1.421-2.169 24.627 24.627 0 0 0 1.6-3.789c.351-1.146.805-3.055-.426-3.875a1.956 1.956 0 0 0-1.615-.208.627.627 0 0 0 .336 1.208h.081c.213-.043-.137 0 .076 0a2.569 2.569 0 0 1 .27 0c-.232 0 .256.09.09.028.043 0 .232.142.057 0a.379.379 0 0 1 .128.133c-.1-.175 0 .052.038.081.047.147-.047-.133 0 0a1.333 1.333 0 0 1 .043.147 2.625 2.625 0 0 1 .028.568 4.914 4.914 0 0 1-.161.985 16.384 16.384 0 0 1-1.09 2.956 13.487 13.487 0 0 1-1.445 2.643 19.422 19.422 0 0 1-3.486 3.316 20.23 20.23 0 0 1-4.23 2.629 5.244 5.244 0 0 1-1.6.474.763.763 0 0 1-.474-.052c.152.057-.142-.128 0 0-.095-.095-.047 0-.118-.152.066.147-.057-.261-.038-.142a1.564 1.564 0 0 1 0-.365 5.087 5.087 0 0 1 .242-1.127 14.745 14.745 0 0 1 1.345-3.159 19.158 19.158 0 0 1 3.879-4.737 25.427 25.427 0 0 1 4.386-3.188 20.89 20.89 0 0 1 1.506-.805l.441-.208c.071-.033.355-.152.047 0a.627.627 0 1 0-.336-1.208c-2.88.592-5.21-2.3-7.536-3.491a7.546 7.546 0 0 0-2.269-.621c-1.213-.194-2.43-.336-3.643-.526a41.137 41.137 0 0 1-4.59-.947q-1.161-.317-2.288-.734c-.682-.251-1.35-.654-2.046-.834a.947.947 0 0 0-1.17.919 3.382 3.382 0 0 0 .507 1.753 9.624 9.624 0 0 0 5.774 4.334c.772.237 1.1-.976.332-1.213Z"/>
  <path fill="#9ee6e1" d="M313.344 62.523c-1.393 1.606-2.757 3.259-4.708 4.13-.872.388-3.032 1.2-4 .564-1.956-1.269 1.061-6.4 2.008-7.7a22.434 22.434 0 0 1 9.474-7.266h.057a.621.621 0 0 1 .947.365c1.314 4.29-1.173 6.923-3.778 9.907Z"/>
  <path fill="#9ee6e1" d="M293.573 47.698a1.928 1.928 0 0 0-2.046.862 3.44 3.44 0 0 0-.284 2.529c.322 1.895.639 3.789 1.123 5.641a10.123 10.123 0 0 0 2.127 4.358 9.158 9.158 0 0 0 4.618 2.3c1.7.469 4.05 1.3 4.05 3.4a.63.63 0 0 0 1.255 0 4.223 4.223 0 0 0-2.169-3.486c-1.383-.886-3.031-1.094-4.552-1.629-3.126-1.1-3.96-4.263-4.524-7.214l-.6-3.169a5.126 5.126 0 0 1-.156-1.421c.038-.417.327-1.037.848-.919.786.18 1.123-1.028.332-1.213Z"/>
  <path fill="#9ee6e1" d="M284.511 47.323a9.53 9.53 0 0 1 8.133 1.378c.658.474 1.288-.621.63-1.08a10.729 10.729 0 0 0-9.095-1.511.63.63 0 0 0 .332 1.213Zm10.786 14.405a10.535 10.535 0 0 1-10.421 10.326.63.63 0 0 0 0 1.255 11.785 11.785 0 0 0 11.671-11.581.63.63 0 0 0-1.255 0Z"/>
  <path fill="#9ee6e1" d="M288.234 70.31a3.348 3.348 0 0 0-3.714-2.255c-2.757.474-2.515 7.105 1.719 7.105 2.393.024 2.895-2.751 1.995-4.85Z"/>
  <path fill="#eee" d="M302.416 37.726a19.734 19.734 0 0 0 7.214 9.35 19.17 19.17 0 0 0 12.287 3.349 19.648 19.648 0 0 0 7.295-1.956c.725-.355.09-1.421-.635-1.085a18.346 18.346 0 0 1-12.268 1.336 18.113 18.113 0 0 1-9.511-5.93 17.841 17.841 0 0 1-3.164-5.371c-.279-.753-1.492-.426-1.213.332Z"/>
  <path fill="#9ee6e1" d="M306.603 66.507a17.541 17.541 0 0 1 1.7 8.365 31.1 31.1 0 0 1-1.933 10.421c-.275.763.947 1.089 1.213.336a32.148 32.148 0 0 0 1.975-10.937 18.765 18.765 0 0 0-1.866-8.806c-.379-.711-1.464-.081-1.085.635Zm-10.549-30.538c-.336 4.524 2.78 8.128 4.874 11.842a.627.627 0 1 0 1.085-.63c-1.975-3.491-5.021-6.925-4.7-11.193.062-.805-1.194-.8-1.255 0Z"/>
  <path fill="#eee" d="M325.55 47.584c-.128-1.772.564-3.245 2.51-2.653a4.661 4.661 0 0 1 2.027 1.421 5.03 5.03 0 0 1 1.236 2.2 2.8 2.8 0 0 1-.507 2.411c-2.675 3.143-5.053-.504-5.266-3.379Z"/>
  <path fill="#9ee6e1" d="m307.422 85.889 21.988-27 6.082-7.475c.5-.621-.379-1.516-.891-.886l-21.988 27-6.082 7.475c-.507.621.379 1.516.891.886Z"/>
  <path fill="#fff" d="M180.325 48.37s4.078 18.393-14.281 31.419 14.978 12.083 29.429-4.6l-2.406-18.947Z"/>
  <path fill="#324958" d="M166.49 89.688a13.884 13.884 0 0 1-3.685-.431c-2.231-.616-2.885-1.809-3.041-2.7-.365-2.075 1.511-4.538 5.736-7.536 17.607-12.491 14.063-29.723 13.907-30.453a.94.94 0 0 1 1.412-.985l12.742 7.835a.947.947 0 0 1 .441.682l2.406 18.947a.947.947 0 0 1-.223.734c-7.854 9.094-21.482 13.907-29.695 13.907Zm15.025-39.481c.474 5.272.118 19.677-14.926 30.348-4.922 3.5-5.049 5.21-4.969 5.684.118.677 1.108 1.047 1.686 1.208 5.566 1.544 21.922-2.169 31.177-12.562l-2.293-18.1Z"/>
  <path fill="#fff" d="M186.574 62.738c3.358 1.568 7.745 2.226 10.937.995 8.01-3.093 12.481-12.074 8.052-23.518s-14.476-18.208-22.485-15.11-11.1 12.865-5.509 25.446c1.179 2.657 2.918 6.016 2.174 10.07"/>
  <path fill="#324958" d="M193.693 65.304a18.151 18.151 0 0 1-7.531-1.715.947.947 0 1 1 .8-1.705c3.491 1.629 7.494 2.008 10.193.947 7.006-2.676 12.041-10.62 7.541-22.277a26.607 26.607 0 0 0-9.545-12.567c-3.988-2.681-8.157-3.392-11.738-2.013a11.5 11.5 0 0 0-6.631 6.48c-1.937 4.685-1.359 10.975 1.634 17.711l.284.639c1.2 2.657 2.69 5.959 1.952 9.98a.947.947 0 0 1-1.852-.341c.635-3.439-.668-6.319-1.814-8.862l-.294-.654c-3.2-7.209-3.789-14.026-1.648-19.193a13.329 13.329 0 0 1 7.678-7.517c4.168-1.606 8.952-.824 13.462 2.207a28.461 28.461 0 0 1 10.255 13.452c4.94 12.789-.995 21.789-8.607 24.731a11.615 11.615 0 0 1-4.14.7Z"/>
  <path fill="#324958" d="M200.964 25.51c-2.06-11.506-18.161 5.911-21.358 8.171a49.262 49.262 0 0 1-5.945 3.737l2.165 8.4h1a34.193 34.193 0 0 1-.715-4.377 2.3 2.3 0 0 1 3.96-1.511 1.214 1.214 0 0 0 1.994-.232 14.1 14.1 0 0 0 1.156-5.4 5.386 5.386 0 0 0 7.939-4.4 6.158 6.158 0 0 0 6.48 1.554 4.979 4.979 0 0 0 3.324-5.942Z"/>
  <path fill="#f36f12" d="M182.647 49.498c-2-1.7-4.628-2.43-7.105-3.193a7.045 7.045 0 0 0-7.058 1.2c-1.862 1.421-5.722 1.895-7.328 2a.9.9 0 0 0-.829.819c-.189 2.013-.251 7.508 4.017 11.458a.947.947 0 0 0 1.194.066l6.049-4.652 3.027.336a1.35 1.35 0 0 0 1.284-.606c1.175-1.79 2.686-3.662 2.724-5.907v-.095a4.689 4.689 0 0 1 1.374.246 3.748 3.748 0 0 0 2.766.175c.899-.365.478-1.35-.115-1.847Z"/>
  <path fill="#324958" d="M199.486 42.031c-.573-.63-1.213-1.222-1.8-1.895-.782-.872-2.321-1.388-2.463.137a5.32 5.32 0 0 0 1.037 2.776 4.8 4.8 0 0 0 2.089 2.06c1.26.549 3.117.322 2.425-1.222a7.105 7.105 0 0 0-1.288-1.856Zm-7.437-6.062a1.217 1.217 0 0 0-2.051-.071c-.815 1.592 2.444 3.747 2.463 1.52a2.808 2.808 0 0 0-.412-1.449Zm6.821-2.288a1.215 1.215 0 0 0-2.051-.071c-.815 1.592 2.444 3.747 2.458 1.521a2.747 2.747 0 0 0-.407-1.449Zm.658-3.185c-.294-.365-8.687-4.533-14.48-.516a98.293 98.293 0 0 0-10.776 12.382s-8.052-22.366 8.844-26.496a9.832 9.832 0 0 1 9 2.368c3.609-4.912 7.621-20.666 17.8-17.914 24.399 6.594-10.388 30.176-10.388 30.176Z"/>
  <path fill="#f36f12" d="M192.129 18.23s-3.482 5.135-7.579 6.12-5.334-4.983 0-6.864 7.579.744 7.579.744Zm-56.931 133.998a5.059 5.059 0 0 0 1.895-4.419l7.167-5.75a5.045 5.045 0 0 0 4.737-.891 6.632 6.632 0 0 0 1.592-2.492.393.393 0 0 0-.431-.54l-2.548.412a.82.82 0 0 1-.777-.3l-1.729-2.136a.824.824 0 0 1-.123-.819l1.018-2.487a.393.393 0 0 0-.384-.545 5.1 5.1 0 0 0-2.908 1.123 5.04 5.04 0 0 0-1.895 4.419l-7.171 5.75a5.1 5.1 0 0 0-4.737.891 5.003 5.003 0 0 0 6.29 7.783Zm-1.577-1.35-2.458.393a.549.549 0 0 1-.512-.189l-1.549-1.918a.545.545 0 0 1-.081-.535l.914-2.312a.545.545 0 0 1 .426-.341l.332-.052 2.132-.341a.535.535 0 0 1 .507.194l1.549 1.895a.545.545 0 0 1 .081.535l-.744 1.895-.171.426a.545.545 0 0 1-.426.355Z"/>
  <path fill="#f4f4f6" d="M103.495 223.62c4.528-.294 9.052-.654 13.576-1.018q18.388-1.483 36.743-3.363 27.165-2.752 54.241-6.205 33.157-4.22 66.154-9.545c24.157-3.913 48.234-8.313 72.179-13.348q4.514-.947 9-1.933c1.577-.341.909-2.762-.668-2.42q-36.087 7.816-72.543 13.855-33.489 5.6-67.12 9.98-27.81 3.638-55.7 6.541-19.468 2.018-38.974 3.657c-5.547.474-11.1.8-16.645 1.269h-.218c-1.606.1-1.615 2.615 0 2.515Z"/>
  <path fill="#324958" d="M197.733 48.237a5.372 5.372 0 0 1-4.339-.947 5.457 5.457 0 0 1-2.056-3.6.635.635 0 0 0-.772-.441.644.644 0 0 0-.436.772 6.5 6.5 0 0 0 7.934 5.414c.791-.175.474-1.383-.332-1.208Z"/>
  <path fill="#9ee6e1" d="m314.627 41.055-3.036 2.269c-.474.346-.369 1.194.313 1.17l8.659-.279c.805-.028.805-1.284 0-1.255l-8.659.279.317 1.17 3.041-2.255a.644.644 0 0 0 .223-.862.63.63 0 0 0-.857-.223Z"/>
  <path fill="#eee" d="m298.745 75.729 5.106-2.842.729-.417c.711-.388.076-1.473-.63-1.08l-5.106 2.842-.729.407c-.706.393-.076 1.478.635 1.085Z"/>
  <path fill="#eee" d="m299.271 71.148 3.093 5.476a.63.63 0 0 0 1.085-.635l-3.1-5.466a.626.626 0 1 0-1.08.635Z"/>
  <path fill="#324958" d="M267.439 119.166q4.675 2.06 9.341 4.135a.644.644 0 0 0 .947-.545l1.089-8.375 1.734-13.263.4-3.06a.625.625 0 0 0-.313-.54l-10.336-6.006-1.454-.848a.635.635 0 0 0-.947.545v11.842a.63.63 0 0 0 1.255 0V91.209l-.947.54 10.336 6.006 1.454.848-.308-.545-1.094 8.375-1.734 13.263-.4 3.06.947-.54-9.341-4.135c-.734-.327-1.374.758-.635 1.085Z"/>
  <path fill="#324958" d="M274.525 98.651c-.616-.919-1.483-1.066-2.094-.374a2.117 2.117 0 0 0-.72 1.364 5.324 5.324 0 0 0 1.123 4.31 1.391 1.391 0 0 0 2.6-.621 6.158 6.158 0 0 0-.9-4.68Zm-6.768 19.97 1.994-6.56 3.5 1.279-1.577 7.015 2.795-1.677.748-11.032-4.675-2.2-.9.441s.047 6.016.118 6.158"/>
  <path fill="#324958" d="m268.363 118.786 1.994-6.56-.772.441 3.5 1.279-.441-.772-1.577 7.01a.635.635 0 0 0 .947.711c.886-.531 1.8-1.037 2.662-1.592.573-.365.474-1.071.516-1.682l.5-7.73.156-2.259a.611.611 0 0 0-.313-.54l-3.221-1.516c-.474-.218-.947-.474-1.421-.658-.568-.227-1.08.166-1.592.417a.625.625 0 0 0-.313.54c0 1.033 0 2.06.038 3.088 0 .692 0 1.383.038 2.075a4.63 4.63 0 0 0 .066 1.175c.237.772 1.449.445 1.213-.332.076.246 0-.071 0-.194v-.739c0-.7-.028-1.421-.038-2.1q0-1.483-.033-2.97l-.308.545.9-.441h-.635l4.675 2.2-.308-.545-.658 9.668-.09 1.364.313-.54-2.8 1.672.924.711 1.577-7.01a.64.64 0 0 0-.436-.772l-3.5-1.284a.639.639 0 0 0-.772.441l-1.994 6.575c-.237.772.976 1.1 1.213.332Zm-47.368 13.207c-1.255 3.107-5.03 6.309-7.986 7.759-2.743 1.345-3.283-.777-2.885-3.084a29.926 29.926 0 0 1 5.4-12.344 10.1 10.1 0 0 1 2.861 2.449c.7 1.023 2.046 2.037 2.506 3.145.436 1.028.535 1 .104 2.075Z"/>
  <path fill="#324958" d="M212.16 140.729h-.165a2.158 2.158 0 0 1-1.785-1.031c-1.921-4.284 4.113-14.907 4.788-16.079.16-.272.295-.7.589-.683s.654.667.787.956c3.543 6.161 12.135 11.694 12.225 11.749a.905.905 0 0 1 .518.782.935.935 0 0 1-.415.854.758.758 0 0 1-.876-.045 48.054 48.054 0 0 1-6.8-5.057c-1.691 2.493-6.144 8.554-8.866 8.554Zm3.505-14.861c-2.25 4.2-4.855 10.472-3.826 12.767.123.268.226.282.3.286 1.337.141 4.9-3.9 7.648-7.928a25.067 25.067 0 0 1-4.11-5.125Z"/>
  <path fill="#324958" stroke="#324958" stroke-width=".5" d="m191.354 122.241 7.055 6.913-4.2-7.927-.7-5.049Z"/>
</svg>