<svg xmlns="http://www.w3.org/2000/svg" viewBox="0 0 478.838 362.724">
  <path fill="#fff" d="M468.82 315.924c-12.475 15.5-34.643 25.3-55.092 22.238-23.539-3.528-34.724-20.046-54.558-29.708-27.153-13.216-41.12 21.578-56.745 35.49-42.128 37.622-85.687-16.558-130.6-9.521-19.018 2.979-33.983 15.535-51.488 22.48-47.687 18.912-106.187-10.051-118.1-60.41-11.089-46.876 20.162-92.431 68.943-93.9 14.35-.433 28.982-.449 43.121 2.379 11.447 2.288 21.588 8.836 32.995 11.054 13.912 2.707 22.5-3.73 34.083-10.141 26.881-14.879 56.629-27.692 86.978-33.111 28.141-5.04 58.348-3.377 79.941-25.489 20.938-21.442 31.619-51.745 59.154-66.71 16.185-8.811 39.482-13.287 53.716 1.542 13.987 14.577 11.623 38.534 5.575 56.171-7.611 22.2-21.674 44.739-24.194 68.373-2.4 22.48 13.4 40.081 26.4 56.559 14.75 18.647 11.565 38.198-.129 52.704Z"/>
  <path fill="#324958" d="M214.122 47.245s3.79 4.975 0 9.219a151.467 151.467 0 0 1-4.335 4.637 5.665 5.665 0 0 1-5.65 1.467l-3.3-.983Z"/>
  <path fill="#f6f6f6" d="M169.262 235.555h-5.363l3.518 61.307h5.363Zm3.896-3.796 38.761 28.927a13.826 13.826 0 0 1 5.373 8.866l2.263 14h-4.536l-1.724-8.9a20.439 20.439 0 0 0-7.994-12.6l-35.177-20.671Z"/>
  <circle cx="8.886" cy="8.886" r="8.886" fill="#f6f6f6" transform="translate(208.139 278.504)"/>
  <ellipse cx="9.093" cy="9.501" fill="#f6f6f6" rx="9.093" ry="9.501" transform="translate(164.136 290.218)"/>
  <ellipse cx="4.955" cy="5.136" fill="#fff" rx="4.955" ry="5.136" transform="rotate(-37.32 525.493 -94.33)"/>
  <path fill="#f6f6f6" d="m162.261 231.759-41.836 31.755a13.826 13.826 0 0 0-5.378 8.866l-2.258 14h4.536l1.724-8.9a20.424 20.424 0 0 1 8-12.6l35.17-20.671Z"/>
  <path fill="#f6f6f6" d="M159.67 215.282h15.585v29.199H159.67z"/>
  <path fill="#fff" d="M253.276 301.232c-3.841-10.786-5.287-14.768-5.852-16.26l8.377-5.676 3.11 19.295Z"/>
  <path fill="#324958" d="m255.045 281.08 2.722 16.9-3.881 1.82c-3.024-8.478-4.466-12.49-5.182-14.421l6.341-4.294m1.542-3.569-10.419 7.057c.217.368 6.522 18.1 6.522 18.1l7.394-3.463-3.493-21.674ZM105.702 170.508a43.181 43.181 0 0 0 12.1 32.914 41.3 41.3 0 0 0 7.883 6.331 2.09 2.09 0 1 0 2.107-3.609 38.162 38.162 0 0 1-1.734-1.134l-.842-.6-.378-.282c-.192-.146-.2-.151-.025 0l-.3-.237a38.929 38.929 0 0 1-3.09-2.777 40.842 40.842 0 0 1-2.858-3.125 46.876 46.876 0 0 1-.645-.812l-.131-.171-.227-.3q-.675-.917-1.29-1.86a40.936 40.936 0 0 1-2.1-3.574 44.488 44.488 0 0 1-.917-1.86c-.131-.287-.257-.575-.383-.862-.257-.57.151.383-.086-.2-.1-.232-.192-.464-.282-.7a41.331 41.331 0 0 1-2.238-7.969 38.996 38.996 0 0 1-.207-1.3c0 .081.05.408 0 0a37.731 37.731 0 0 1-.257-2.999 37.761 37.761 0 0 1 .081-4.894 2.092 2.092 0 0 0-2.087-2.087 2.137 2.137 0 0 0-2.092 2.087Z"/>
  <path fill="#324958" d="m111.938 188.16 26.674-12.44a2.1 2.1 0 0 0 .751-2.858 2.147 2.147 0 0 0-2.858-.751l-26.674 12.44a2.1 2.1 0 0 0-.751 2.858 2.147 2.147 0 0 0 2.858.751Zm168.604 97.845c0 1.467-3.7 2.651-8.271 2.651s-8.276-1.185-8.276-2.651 3.7-5.595 8.276-5.595 8.271 4.133 8.271 5.595Z"/>
  <path fill="#324958" d="M272.268 289.704c-4.637 0-9.32-1.144-9.32-3.7 0-2.188 4.315-6.643 9.32-6.643s9.315 4.456 9.315 6.643c-.001 2.556-4.678 3.7-9.315 3.7Zm-7.228-3.725c.257.5 2.692 1.633 7.228 1.633s6.966-1.149 7.223-1.633c-.136-1.008-3.312-4.536-7.223-4.536s-7.087 3.538-7.228 4.536Zm14.456.035Zm.605-160.048V48.041h-20.662l-38.544 27.828a8.281 8.281 0 0 0-2.823 6.648l2.359 43.348Z"/>
  <path fill="#324958" d="m280.101 127.019-59.684-.116a1.043 1.043 0 0 1-1.043-1.008l-2.359-43.348a9.3 9.3 0 0 1 3.175-7.485l.081-.066 38.544-27.828a1.008 1.008 0 0 1 .61-.2h20.666a1.043 1.043 0 0 1 1.043 1.043v77.925a1.048 1.048 0 0 1-.307.741 1.008 1.008 0 0 1-.726.342Zm-58.7-2.2 57.652.111V49.082h-19.29l-38.227 27.6a7.253 7.253 0 0 0-2.435 5.781Z"/>
  <path fill="#324958" d="M280.101 35.486v12.555l-37.45 30.873a7.409 7.409 0 0 0-2.692 5.711v13.977H222.79l-2.65-47.38 41.805-16.19Z"/>
  <path fill="#324958" d="M239.959 99.65h-17.173a1.038 1.038 0 0 1-1.038-1.008l-2.651-47.38a1.038 1.038 0 0 1 .665-1.008l41.835-16.175a1.008 1.008 0 0 1 .4-.071l18.146.433a1.043 1.043 0 0 1 1.008 1.043v12.555a1.043 1.043 0 0 1-.378.806l-37.45 30.873a6.326 6.326 0 0 0-2.314 4.9v13.977a1.048 1.048 0 0 1-1.053 1.048Zm-16.165-2.092h15.123V84.624a8.428 8.428 0 0 1 3.075-6.517l37.072-30.56V36.509l-16.916-.408-40.904 15.838Z"/>
  <path fill="#fff" d="m244.687 56.992-4 26.387 38.683-33.332v-13.67Z"/>
  <path fill="#f4f4f6" d="M239.959 125.865V84.68a7.147 7.147 0 0 1 2.1-5.04l38.042-31.569v70.077"/>
  <path fill="#324958" d="M239.959 126.913a1.048 1.048 0 0 1-1.048-1.048V84.679a8.251 8.251 0 0 1 2.409-5.8l.071-.066 38.045-31.568a1.043 1.043 0 0 1 1.709.806v70.094a1.044 1.044 0 1 1-2.087 0V50.263L242.767 80.38a6.139 6.139 0 0 0-1.759 4.284v41.2a1.048 1.048 0 0 1-1.049 1.049Z"/>
  <path fill="#fff" d="m240.14 48.712 11.144-3.821 17.747-6.079 4.032-1.391-.539-1.275-12.3 6.3-19.6 10.046-4.5 2.3a.691.691 0 0 0-.348.6v29.739l1.371-.181-4.788-16.593-.685-2.374a.7.7 0 0 0-1.371.186l-.549 17.8-.076 2.49c-.03.9 1.361.9 1.391 0l.549-17.8.081-2.49-1.371.181 4.788 16.593.685 2.374a.7.7 0 0 0 1.366-.186V55.395l-.343.6 12.3-6.3 19.631-10.054 4.5-2.3a.7.7 0 0 0-.539-1.275l-11.114 3.82-17.767 6.089-4.063 1.406c-.842.287-.479 1.633.368 1.341Z"/>
  <path fill="#324958" d="m247.747 62.179 2.671-3.377-1.164-.68c-.565 1.749 1.552 2.949 3.024 2.288 1.84-.827 1.885-2.959 3.06-4.34l-.842.111a4.929 4.929 0 0 0 4.622-.192c1.734-.776 3.362-1.84 5.01-2.777l10.373-5.912a.7.7 0 0 0-.7-1.2l-9.526 5.424c-1.573.892-3.14 1.81-4.728 2.687-1.265.706-2.954 1.568-4.365.771a.7.7 0 0 0-.842.111 21.6 21.6 0 0 0-1.694 3.11 2.016 2.016 0 0 1-1.169 1.008c-.418.076-1.038-.242-.877-.726.2-.63-.726-1.235-1.164-.68l-2.676 3.382c-.549.7.428 1.684 1.008 1.008Zm21.215-5.787c-2.682 1.542-5.413 2.989-8.09 4.536l1.008.418a5.04 5.04 0 0 0-2.987-2.983.706.706 0 0 0-.857.5 10.338 10.338 0 0 1-5.388 5.993c-2.52 1.195-5.3 1.724-7.4 3.649a.7.7 0 0 0 .68 1.164l.852-.328c.827-.318.469-1.663-.373-1.341l-.852.323.68 1.164c2.182-2.016 5.292-2.384 7.818-3.785a11.724 11.724 0 0 0 5.333-6.467l-.857.5a3.5 3.5 0 0 1 2.016 2.016.711.711 0 0 0 1.008.418c2.676-1.547 5.413-2.994 8.065-4.536a.7.7 0 0 0-.7-1.2Zm-29.003 34.74h-20.484l1.976 34.734h18.508Z"/>
  <path fill="#324958" d="M239.959 126.914h-18.508a1.043 1.043 0 0 1-1.043-1.008l-1.976-34.739a1.043 1.043 0 0 1 1.043-1.1h20.484a1.048 1.048 0 0 1 1.043 1.048v34.734a1.048 1.048 0 0 1-1.043 1.069Zm-17.521-2.092h16.477V92.175h-18.337Z"/>
  <path fill="#324958" d="m271.23 266.725 115.09 8.639 36.8-20.52-1.628-116.973a13.68 13.68 0 0 0-13.68-13.488H195.82v43.756h74.744Z"/>
  <path fill="#324958" d="M251.337 118.148h131.891v4.41a3.71 3.71 0 0 1-3.71 3.71H244.687v-1.477a6.643 6.643 0 0 1 6.643-6.643Z"/>
  <path fill="#1b6964" d="M379.544 127.317H244.687a1.048 1.048 0 0 1-1.043-1.048v-1.472a7.7 7.7 0 0 1 7.692-7.692h131.893a1.048 1.048 0 0 1 1.048 1.043v4.41a4.763 4.763 0 0 1-4.733 4.759Zm-133.788-2.092h133.788a2.666 2.666 0 0 0 2.661-2.666v-3.362H251.336a5.6 5.6 0 0 0-5.6 5.6Z"/>
  <path fill="#324958" d="m383.228 117.719 19.762-55.218a4.425 4.425 0 0 0-4.163-5.912h-81a8.065 8.065 0 0 0-7.672 5.544l-18.365 55.309Z"/>
  <path fill="#1b6964" d="m383.228 118.763-91.438-.287a1.043 1.043 0 0 1-1.008-1.376l18.362-55.293a9.113 9.113 0 0 1 8.665-6.25h81a5.464 5.464 0 0 1 5.146 7.309l-19.743 55.208a1.038 1.038 0 0 1-.983.691Zm-89.993-2.374 89.261.282 19.511-54.512a3.382 3.382 0 0 0-3.18-4.536h-81a7.057 7.057 0 0 0-6.684 4.824Z"/>
  <path fill="#9ee6e1" d="m382.346 112.775 18.236-51.256h-87.058l-17.178 51.211ZM355.37 56.6a1.759 1.759 0 1 1-1.759 1.759 1.759 1.759 0 0 1 1.759-1.759Z"/>
  <path fill="#324958" d="M325.904 117.72c1.447.418 4.032 1.4 4.032 4.491 0 3.74-4.98 3.755-4.98 3.755h58.272v-8.246Z"/>
  <path fill="#1b6964" d="M383.228 127.019h-58.262a1.048 1.048 0 0 1 0-2.092c.156 0 3.937-.066 3.937-2.712 0-1.759-1.008-2.833-3.286-3.488a1.043 1.043 0 0 1 .287-2.046h57.325a1.043 1.043 0 0 1 1.048 1.043v8.246a1.048 1.048 0 0 1-1.048 1.048Zm-53.151-2.092h52.108v-6.164h-52.42a5.041 5.041 0 0 1 1.22 3.448 4.179 4.179 0 0 1-.907 2.712Z"/>
  <path fill="#f36f12" d="m361.151 112.297 30.782-1.462s1.25 17.183-11.724 17.974c-14.743.897-17.662-7.087-19.058-16.512Z"/>
  <ellipse cx="15.419" cy="3.952" fill="#f36f12" rx="15.419" ry="3.952" transform="rotate(-2.56 2463.636 -7627.88)"/>
  <path fill="#324958" d="M390.31 110.713c.045.5-.328.963-1.053 1.416-2.016 1.265-6.764 2.319-12.364 2.6-5.4.272-10.151-.242-12.515-1.225-.953-.388-1.512-.862-1.573-1.391-.2-1.835 5.817-3.629 13.408-4.032s13.915.793 14.097 2.632Z"/>
  <path fill="#964308" d="M386.096 111.208a.675.675 0 0 1 .065 1.346 63.729 63.729 0 0 1-9.98 1.008 67.9 67.9 0 0 1-10.081-.328.675.675 0 0 1-.065-1.346 64.341 64.341 0 0 1 9.975-1.008 67.344 67.344 0 0 1 10.086.328Z"/>
  <path fill="#f36f12" d="m364.927 114.882-5.318 1.739a6.049 6.049 0 0 0-2.329 1.124 3.176 3.176 0 0 0-1.008 2.253c-.116 3.3 3.528 5.383 6.361 5.842a21.851 21.851 0 0 0 6.331-.151 1.442 1.442 0 0 0 1.4-1.4c0-.675-.64-1.512-1.4-1.391-3.165.413-7.132.973-9.405-1.623a1.67 1.67 0 0 1-.192-.272 3.166 3.166 0 0 1-.217-.408c.05.1.045.06 0-.1a2.553 2.553 0 0 1-.071-.292c.035.217 0-.2 0-.212 0 .287.131-.333 0-.106l.071-.121c-.076.1-.045.081.076-.055a4.485 4.485 0 0 1 .7-.277c1.905-.63 3.821-1.25 5.726-1.875a1.391 1.391 0 1 0-.741-2.682Z"/>
  <path fill="#f4f4f6" d="M383.39 274.064a8.9 8.9 0 0 1-.9-.03l-110.229-8.276-.055-6.175 112.427 7.258 37.365-17.052.081 4.451-32.848 18.307a12.017 12.017 0 0 1-5.841 1.517Z"/>
  <path fill="#324958" d="m420.981 251.406.04 2.228-32.3 18a10.969 10.969 0 0 1-5.333 1.386 7.469 7.469 0 0 1-.822-.03l-109.266-8.2-.04-4.1 111.041 7.173.5.035.479-.217 35.68-16.275m2.016-3.226-38.539 17.606-113.263-7.328.081 8.266 111.182 8.347c.328 0 .655.04.978.04a13.06 13.06 0 0 0 6.351-1.653l33.393-18.614-.121-6.668Z"/>
  <path fill="#f4f4f6" d="m272.465 254.96-.585 28.977"/>
  <path fill="#324958" d="M271.88 284.986a1.043 1.043 0 0 1-1.008-1.064l.585-28.977a1.044 1.044 0 0 1 2.087.04l-.585 28.977a1.043 1.043 0 0 1-1.079 1.023Zm61.256-11.437c0 .862-2.959 1.563-6.608 1.563s-6.608-.7-6.608-1.563 2.959-3.286 6.608-3.286 6.608 2.424 6.608 3.286Z"/>
  <path fill="#324958" d="M326.528 276.156c-2.3 0-7.651-.252-7.651-2.606 0-1.809 3.856-4.33 7.651-4.33s7.651 2.52 7.651 4.33c.001 2.35-5.347 2.606-7.651 2.606Zm-5.323-2.782a20.859 20.859 0 0 0 10.645 0 7.888 7.888 0 0 0-10.644-.001Zm10.913.353Zm63.353 26.583c.04 1.719-4.108 3.11-9.254 3.11s-9.36-1.391-9.4-3.11 4.032-6.553 9.179-6.553 9.431 4.839 9.475 6.553Z"/>
  <path fill="#324958" d="M386.217 304.442c-4.985 0-10.378-1.29-10.444-4.128a6.594 6.594 0 0 1 2.193-3.977 11.764 11.764 0 0 1 8.029-3.654c5.544 0 10.464 5.086 10.519 7.561a2.364 2.364 0 0 1-.751 1.734c-1.446 1.527-5.196 2.464-9.546 2.464Zm-.222-9.673a9.7 9.7 0 0 0-6.552 3.024 5.357 5.357 0 0 0-1.6 2.47c0 .534 2.9 2.087 8.357 2.087 4.123 0 7.173-.912 8.065-1.81a.569.569 0 0 0 .156-.232c-.02-1.094-3.755-5.519-8.428-5.519Z"/>
  <path fill="#f4f4f6" d="m384.554 254.96 1.154 42.314"/>
  <path fill="#324958" d="M385.708 298.323a1.043 1.043 0 0 1-1.043-1.008l-1.154-42.34a1.043 1.043 0 0 1 1.008-1.069 1.008 1.008 0 0 1 1.074 1.008l1.149 42.34a1.043 1.043 0 0 1-1.008 1.074Zm45.308-18.655c.03 1.129-3.559 2.183-8.019 2.354s-8.1-.6-8.135-1.729 3.483-4.451 7.944-4.622 8.175 2.873 8.21 3.997Z"/>
  <path fill="#324958" d="M421.762 283.091c-2.954 0-6.129-.4-7.354-1.512a1.734 1.734 0 0 1-.595-1.225c-.055-2.016 4.254-5.519 8.952-5.7a11.739 11.739 0 0 1 8.065 2.923 3.239 3.239 0 0 1 1.235 2.087c.086 2.928-7.5 3.372-9.022 3.427-.419-.005-.847 0-1.281 0Zm-5.771-2.949c.706.413 3.145 1.008 6.966.837s6.255-.917 6.921-1.386a9.275 9.275 0 0 0-7.054-2.878 9.4 9.4 0 0 0-6.83 3.427Zm13.992-.353Z"/>
  <path fill="#f4f4f6" d="m421.545 237.284 1.154 40.228"/>
  <path fill="#324958" d="M422.699 278.56a1.043 1.043 0 0 1-1.043-1.008l-1.154-40.228a1.048 1.048 0 0 1 1.008-1.074 1.008 1.008 0 0 1 1.074 1.008l1.154 40.228a1.043 1.043 0 0 1-1.008 1.074ZM260.01 227.354l25.394-24.386 88.545.565-10.232 28.267Z"/>
  <path fill="#4dd1c8" d="m371.575 210.08-1.694-10.681a3.15 3.15 0 0 0-2.757-2.631l-19.335-2.172a3.145 3.145 0 0 0-3.065 1.512l-3.584 6.1-49.98-2.961a1.981 1.981 0 0 0-2.092 1.986l.04 6.981 80.622 6.936Z"/>
  <path fill="#fff" d="m372.134 208.231-88.994-7.561a.827.827 0 0 0-.862 1.048l2.077 7.218 85 6.845Z"/>
  <path fill="#9ee6e1" d="m283.185 206.88 77.5 2.737a4.622 4.622 0 0 1 4.441 4.269l.726 9.577-83.167-4.451-1.688-10.01a1.86 1.86 0 0 1 2.188-2.122Z"/>
  <path fill="#fff" d="m365.189 227.793 4.824-13.886-95.43-.832a.822.822 0 0 0-.741 1.19l2.687 5.423-2.807 1.437Z"/>
  <path fill="#1b6964" d="m363.717 231.8-98.692-4.294-2.414-8.569a1.845 1.845 0 0 1 1.885-2.339l70.062 4.244 1.739-2.571a3.675 3.675 0 0 1 3.387-1.6l22.5 2.1a3.679 3.679 0 0 1 3.3 4.184Z"/>
  <path fill="#f4f4f6" d="m363.717 231.8 10.988-29.673v23.282l-10.988 32.919Z"/>
  <path fill="#324958" d="M363.716 259.371a.929.929 0 0 1-.166 0 1.038 1.038 0 0 1-.877-1.008V231.8a1.121 1.121 0 0 1 .06-.363l10.993-29.673a1.043 1.043 0 0 1 2.017.366v23.282a1.039 1.039 0 0 1-.055.328l-10.993 32.919a1.038 1.038 0 0 1-.979.712Zm1.043-27.385v19.915l8.9-26.664v-17.278Zm-84.622-13.735 11.916.721 18.836 1.139 4.33.262c.9.055.892-1.336 0-1.391l-11.916-.731-18.836-1.144-4.33-.262c-.892-.05-.892 1.341 0 1.4Z"/>
  <path fill="#324958" d="M280.136 218.251c7.188.126 14.39-.166 21.573-.4q11.19-.358 22.385-.837l4.688-.2c.892-.035.9-1.431 0-1.391q-6.638.292-13.276.544c-8.236.318-16.472.615-24.7.8-3.528.076-7.1.156-10.655.091a.7.7 0 0 0 0 1.4Zm62.234 2.727a8.721 8.721 0 0 0 3.246 5.706 2.1 2.1 0 0 0 2.742-.086c.882-.867.791-2.117.64-3.241l-1.164.675 2.767 2.359a.7.7 0 0 0 1.094-.847c-.272-.585 1.008-.585 1.25-.565.711.071 1.416.232 2.122.348l4.355.731c.877.146 1.25-1.195.368-1.341-2.147-.363-4.294-.781-6.457-1.079a2.893 2.893 0 0 0-2.369.454 1.779 1.779 0 0 0-.474 2.157l1.094-.847-2.787-2.354a.7.7 0 0 0-1.164.675c.076.565.257 1.85-.539 2.041-.63.146-1.316-.741-1.658-1.154a8.212 8.212 0 0 1-1.744-4.007c-.136-.882-1.482-.5-1.341.373Z"/>
  <path fill="#f4f4f6" d="m284.713 188.649 86.085.7a3.876 3.876 0 0 0 3.906-3.856v-32.657a3.881 3.881 0 0 0-4.093-3.871l-86.756 4.834a3.876 3.876 0 0 0-3.659 3.972l.67 27.107a3.876 3.876 0 0 0 3.846 3.775Z"/>
  <path fill="#324958" d="M370.831 190.389h-.04l-86.085-.691a4.909 4.909 0 0 1-4.879-4.8l-.675-27.128a4.9 4.9 0 0 1 4.647-5.04l86.761-4.834a4.93 4.93 0 0 1 5.2 4.914v32.679a4.92 4.92 0 0 1-4.924 4.919Zm-86.106-2.782 86.085.7a2.833 2.833 0 0 0 2.833-2.833v-32.643a2.838 2.838 0 0 0-2.989-2.828l-86.761 4.834a2.818 2.818 0 0 0-2.671 2.9l.675 27.107a2.818 2.818 0 0 0 2.807 2.762Z"/>
  <path fill="#324958" d="M330.566 169.117c-.4-2.747-2.228-6.119-5.544-5.519a5.416 5.416 0 0 0-3.115 2.263c-2.379-.746-4.935-.328-5.514 2.314a6.109 6.109 0 0 0 2.974 6.421 4.327 4.327 0 0 0 3.468-.192c.817 1.638 2.1 2.838 4.153 1.981 3.089-1.275 4.026-4.153 3.578-7.268Zm-9.688.534a1.794 1.794 0 0 1-1.185 1.462c-1.956.691-3.422-2.556-2.152-3.891a1.668 1.668 0 0 1 1.618-.5 2.618 2.618 0 0 1 1.719 2.934Zm6.885.5c.05-1.678-.665-3.7-2.4-4.294-1.008-.348-.58-1.981.454-1.628 2.455.832 3.71 3.438 3.639 5.922-.035 1.1-1.729 1.1-1.694.01Zm38.454 32.475c0-1.4-.408-3.241-2.157-3.281a1.673 1.673 0 0 0-1.57 1.01c-.131.272-.187.67-.5.741a2.148 2.148 0 0 1-1.1-.307 14.053 14.053 0 0 0-4.884-1.285 34 34 0 0 0-5.408.161c-.887.076-.9 1.472 0 1.391 3.06-.257 6.376-.56 9.249.771 1.053.5 2.47 1.144 3.407.076.287-.323.418-1.29.948-1.144.706.2.64 1.3.645 1.86a.7.7 0 1 0 1.391 0Zm-81.604 4.537c8.8.318 17.581.706 26.372 1.1q14.148.635 28.287 1.26 7.092.3 14.174.565c.766.025.978-1.26.187-1.371-9.073-1.27-18.2-2.414-27.314-3.528q-12.475-1.557-24.955-3.06c-1.673-.2-3.347-.408-5.04-.6-.887-.106-.877 1.285 0 1.391q7.147.852 14.29 1.729 14.2 1.739 28.393 3.528c4.753.61 9.5 1.23 14.244 1.9l.181-1.371c-8.79-.312-17.581-.706-26.366-1.1-9.431-.418-18.856-.857-28.287-1.255q-7.092-.3-14.179-.57c-.892-.03-.892 1.361 0 1.4Zm-10.465-128.28-22.677 3.483v14.653l23.609-5.852Z"/>
  <path fill="#4dd1c8" d="M346.625 65.304c-12.46 0-24.239 10.081-26.306 22.566a20 20 0 0 0 2.379 13.72c4.219.066 8.841-.817 11.79-3.357a4.447 4.447 0 0 1-1.608-4.783 1.063 1.063 0 0 1 0-.217c.68-4.168 4.325-9.108 6.9-12.319l.035-.04a7.465 7.465 0 0 1-3.841-2.424c-2.843-3.624.746-7.142 4.088-8.463 1.684-.665 4.032-1.22 5.635 0a4.155 4.155 0 0 1 .433.373 6.371 6.371 0 0 1 2.092-1.341 5.988 5.988 0 0 1 8.266 3.846c3.024-.222 5.882 3.024 5.862 5.958 0 3.024-1.976 7.445-4.763 9.143a2.807 2.807 0 0 1 1.371 1.008 3.528 3.528 0 0 1-.383 4.385 5.953 5.953 0 0 1-3.71 1.6 1.764 1.764 0 0 1-1.512-.565.8.8 0 0 1-.312-.922 1.038 1.038 0 0 1 .232-.726c1.275-1.573 1.351-3.947 1.693-5.857a10.261 10.261 0 0 0 .03-3.488c-.559-3.352-3.085-7.636-7.082-6.8a9.685 9.685 0 0 0-4.6 2.818 7.087 7.087 0 0 0 3.458-1.094c.953-.67 1.855.9.907 1.557a9.106 9.106 0 0 1-5.968 1.326c-.222.272-.428.549-.635.827a.817.817 0 0 1 .464 1.008c-.03.081-.065.161-.1.242a.872.872 0 0 1-.655.882q-.121.03-.03 0c-.1.066-.121.076-.065.03a.9.9 0 0 1-1.154.061c-.307.474-.6.938-.857 1.366-1.386 2.268-3.236 4.723-3.9 7.359a.817.817 0 0 1-.04.469c-1.552 4.138 5.676 6.089 8.664 5.57 1.134-.2 1.618 1.512.479 1.739a13.41 13.41 0 0 1-7.888-1.512c-3.024 2.828-7.636 3.977-12.1 4.1a18.871 18.871 0 0 0 15.212 7.057 25.877 25.877 0 0 0 14.179-4.436c-2.213-1.739-4.113-4.032-4.249-6.7a.913.913 0 0 1 1.542-.64l.5.62a.953.953 0 0 1 0 1.2 9.822 9.822 0 0 0 3.745 4.431 27.282 27.282 0 0 0 10.592-17.037c2.097-12.439-6.326-22.54-18.79-22.54Zm-7.208 23.509a34.255 34.255 0 0 1 3.478-4.264c.61-.741 1.764.1 1.512.9a.862.862 0 0 1 .156 1.058 8.15 8.15 0 0 1-4.123 3.629c-.771.308-1.381-.698-1.023-1.323Zm5.464 7.727c-2.364.741-4.99-.5-4.814-3.216a1.048 1.048 0 0 1 1.008-1.008 8.755 8.755 0 0 0 3.3-.5 12.959 12.959 0 0 0 2.858-2.344c.5-.439 1.6-.378 1.714.454a6.164 6.164 0 0 1-4.068 6.618Zm5.343-12.2v.1c-.06.408-.5 1.109-.9 1.179h-.081a.9.9 0 0 1-1.159-1.26 3.739 3.739 0 0 1 .635-.8l.035-.03a.73.73 0 0 1 .146-.1.694.694 0 0 1 .151-.071l.126-.04a.931.931 0 0 1 .237 0h.086a.917.917 0 0 1 .313.106.791.791 0 0 1 .242.222.607.607 0 0 1 .065.106.925.925 0 0 1 .071.161 1.516 1.516 0 0 1 .035.161v.171a.519.519 0 0 1-.001.092Z"/>
  <path fill="#324958" d="M227.927 210.856a14.547 14.547 0 0 1-14.55 14.552h-89.1a14.5 14.5 0 0 1-10.282-4.264c-6.321-6.316-4.667-15.882.3-22.374 5.4-7.057 13.67-12.011 21.76-15.414 12.147-5.111 25.605-6.865 38.716-6.623a113.423 113.423 0 0 1 33.69 5.489 26.948 26.948 0 0 1 3.881 1.618c8.806 4.536 14.779 14.295 15.474 24.038.071.972.111 1.97.111 2.978Z"/>
  <path fill="#324958" d="M213.381 226.451h-89.1a15.489 15.489 0 0 1-11.023-4.567c-6.991-6.991-4.793-17.213.212-23.75 4.8-6.27 12.258-11.568 22.178-15.741 11.22-4.723 24.386-6.976 39.144-6.7a113.908 113.908 0 0 1 34 5.544 27.972 27.972 0 0 1 4.032 1.684c8.856 4.562 15.3 14.562 16.039 24.89.076 1.074.116 2.072.116 3.055a15.625 15.625 0 0 1-15.6 15.59Zm-40.957-48.7c-13.518 0-25.61 2.2-35.969 6.553-9.577 4.032-16.759 9.108-21.331 15.086-4.466 5.837-6.492 14.9-.393 21a13.412 13.412 0 0 0 9.547 3.952h89.1a13.518 13.518 0 0 0 13.5-13.5c0-.932-.035-1.88-.106-2.9-.691-9.627-6.684-18.942-14.915-23.186a25.478 25.478 0 0 0-3.73-1.563 112.074 112.074 0 0 0-33.383-5.434c-.776 0-1.552-.005-2.324-.005Z"/>
  <path fill="#1b6964" d="m192.786 148.856 53.257-8.841c5.912-.983 19.038 8.12 14.471 18.08-9.456 20.605-29.8 53.272-61.922 83.071l-16.83-9.481c20.363-26.034 32.521-58.469 32.521-58.469l-72.078-19.2 37.017-18.624Z"/>
  <path fill="#1b6964" d="M129.342 176.713s-3.554 17.41-.822 23.186c6.991 14.688 91.1 2.067 91.1 2.067l21.311 86.348 15.741-10.212-10.585-86.191a15.726 15.726 0 0 0-10.852-13.065l-73.438-23.273Z"/>
  <path fill="#324958" d="m159.463 163.512-58.2 14.92a14.617 14.617 0 0 1-18.221-13.518l-3.338-77.12a14.617 14.617 0 0 1 10.474-14.647l4.294-1.26 1.215-11.093a9.511 9.511 0 0 1-11.89-7.8l-2.228-15.3a9.511 9.511 0 0 1 8.065-10.792l28.438-4.032a9.521 9.521 0 0 1 10.736 7.878l1.91 11.759a9.521 9.521 0 0 1-6.921 10.711l-5.7 1.512c.3 2.813.721 6.7 1.058 9.879l15.3-4.5a14.617 14.617 0 0 1 18.357 10.746l17.262 75.239a14.617 14.617 0 0 1-10.61 17.415Z"/>
  <path fill="#324958" d="M97.621 179.944a15.656 15.656 0 0 1-15.625-14.975l-3.341-77.118a15.625 15.625 0 0 1 11.22-15.7l3.629-1.064.983-9a10.55 10.55 0 0 1-11.729-8.952l-2.223-15.333a10.56 10.56 0 0 1 8.967-11.976l28.433-4.032a10.63 10.63 0 0 1 11.905 8.77l1.91 11.774a10.534 10.534 0 0 1-7.687 11.885l-4.834 1.3c.247 2.324.554 5.182.832 7.752l14.113-4.148a15.625 15.625 0 0 1 19.659 11.524l17.258 75.233a15.565 15.565 0 0 1-11.37 18.647l-58.2 14.91a15.852 15.852 0 0 1-3.9.5ZM95.687 59.73a1.033 1.033 0 0 1 .68.252 1.048 1.048 0 0 1 .358.907l-1.214 11.089a1.048 1.048 0 0 1-.746.892l-4.294 1.26a13.544 13.544 0 0 0-9.723 13.609l3.342 77.119a13.564 13.564 0 0 0 16.916 12.566l58.2-14.92a13.478 13.478 0 0 0 9.854-16.165l-17.263-75.243a13.559 13.559 0 0 0-17.042-9.975l-15.3 4.5a1.043 1.043 0 0 1-1.336-.887c-.338-3.181-.756-7.057-1.058-9.884a1.043 1.043 0 0 1 .771-1.119l5.7-1.512a8.453 8.453 0 0 0 6.159-9.557l-1.91-11.754a8.518 8.518 0 0 0-9.547-7.057l-28.438 4.032a8.463 8.463 0 0 0-7.193 9.577l2.228 15.3a8.473 8.473 0 0 0 10.585 6.946 1.009 1.009 0 0 1 .272.015Z"/>
  <path fill="#4dd1c8" d="M188.435 139.378s-58.2 16.371-58.393 32.874l-1.512 9.652s26.906 2.646 53.076-17.894l-3.221-7.8 2.424-1.825 7.238 3.417 9.809-5.958Z"/>
  <path fill="#fff" d="M89.593 112.15c.474 1.583-.59 3.528-.983 5.121q-.907 3.654-2.067 7.228a104.844 104.844 0 0 1-5.67 13.917.706.706 0 0 1-1.2 0 27.591 27.591 0 0 0-6.225-7.515.685.685 0 0 1-.176-.675c.64-1.709 1.754-3.1 2.475-4.753 2.636-6.049-3.629-6.25-7.293-4.471-4.375 2.132-8.16 5.857-11.855 8.977q-11.5 9.7-22.057 20.409a.7.7 0 0 1-1.159-.675l11.552-56.464c.544-2.636 1.437-5.444.932-8.145a12.208 12.208 0 0 0-3.685-6.18 34.593 34.593 0 0 0-11.83-7.853 54.587 54.587 0 0 1-9.118-4.985c-2.162-1.4-5.509-1.285-6.941-3.574a.7.7 0 0 1 .6-1.048c8.216 1.058 16.044-1.416 23.468-4.753 3.528-1.6 7.026-3.377 10.585-5 2.465-1.149 9.834-2.823 10.378-5.7a.706.706 0 0 1 1.346 0c.806 5.04 1.825 10.126 2.4 15.217.393 3.417.267 6.628-1.633 9.461a8.034 8.034 0 0 1 3.4 7.057c-.131 2.813-.444 4.93.469 7.742.741 2.3 2.581 4.158 3.881 6.185a50.655 50.655 0 0 0 9.073 10.4c1.779 1.613 3.12 3.937 5.04 5.343 1.684 1.215 3.654 2.077 5.292 3.337a2.646 2.646 0 0 1 1 1.386Z"/>
  <path fill="#324958" d="M240.932 289.351a1.149 1.149 0 0 1-.388-.071 1.054 1.054 0 0 1-.63-.721l-17.894-72.527a1.048 1.048 0 0 1 2.016-.5l17.541 71.105 13.97-9.076-9.773-88.711a1.045 1.045 0 1 1 2.077-.232l9.859 89.362a1.043 1.043 0 0 1-.469 1.008L241.497 289.2a1.038 1.038 0 0 1-.565.151Z"/>
  <path fill="#f36f12" d="m188.436 139.378 2.324 5.7s-23.69 26.336-63.449 28.64v-7.248Z"/>
  <path fill="#964308" d="M126.267 174.827v-9.037l62.748-27.8 2.979 7.3-.439.5a86.778 86.778 0 0 1-17.036 13.637 99.761 99.761 0 0 1-47.128 15.343Zm2.092-7.677v5.454c35.283-2.465 57.788-24.26 61.181-27.758l-1.663-4.073Z"/>
  <path fill="#f36f12" d="m118.218 56.07-9.985 101.817c-1.784 7.878 5.237 14.728 13.322 13.488 17.823-2.737 46.982-10.414 68.706-31.976l2.817-76.364s-8.342-25.408-74.86-6.965Z"/>
  <path fill="#964308" d="M119.664 172.58a12.979 12.979 0 0 1-9.521-4.1 11.81 11.81 0 0 1-2.944-10.716l9.98-101.817a1.038 1.038 0 0 1 .761-.9c27.808-7.712 49.013-8.851 63.031-3.392 10.736 4.184 13.009 10.776 13.105 11.054a1.009 1.009 0 0 1 .05.363l-2.822 76.367a1.064 1.064 0 0 1-.307.706c-21.311 21.17-49.442 29.234-69.286 32.259a13.333 13.333 0 0 1-2.051.176Zm-.479-115.693-9.909 101.123v.126a9.753 9.753 0 0 0 2.414 8.927 10.988 10.988 0 0 0 9.728 3.3c19.446-2.984 46.957-10.852 67.834-31.392l2.787-75.737c-.4-.958-2.989-6.255-12.1-9.713-9.276-3.539-27.346-5.797-60.754 3.366Zm-10.952 101.015Z"/>
  <path fill="#964308" d="m156.832 128.638-.5-.5c-2.5-2.465-4.244-5.242-3.876-8.9.227-2.238 1.8-4.5 3.528-6.769a30.92 30.92 0 0 1-.066-5.877c.272-2.782 1.426-5.333 2.369-7.929-2.319-2.4-4.587-3.967-5.247-7.853-.61-3.574.554-6.971 1.956-10.212-.086-.171-.166-.343-.242-.5-1.991-4.441-1.92-8.312-.57-12.9.862-2.923 1.865-5.776 1.668-8.881a27.666 27.666 0 0 0-1.27-6.094c-3.17-.5-6.487-.963-9.925-1.326-.161 3.755-.822 7.137-3.5 10.237a52.159 52.159 0 0 1 .842 7.057 25.014 25.014 0 0 1-.5 5.04 15.805 15.805 0 0 1 1.159 2.409c1.442 3.952-.267 7.561-1.875 11.119.66 3.392 1.678 6.724 1.89 10.187a17.692 17.692 0 0 1-1.008 6.618c.222.61.423 1.225.585 1.85a28.867 28.867 0 0 1-.277 16.155 41.441 41.441 0 0 1-2.107 4.788 1.268 1.268 0 0 0 .035.363c.413 4.33.675 8.927-1.008 13.029a31.794 31.794 0 0 1-2.888 5.111c.187 3.382.192 6.734-1.19 9.965-.751 1.759-1.588 3.4-2.389 5.015a33.085 33.085 0 0 1 .811 8.478 5.6 5.6 0 0 1-.111.832 142.808 142.808 0 0 0 21.276-6.689 37.257 37.257 0 0 1-.726-5.544c-.3-4.269-.343-8.7 1.825-12.465a24.048 24.048 0 0 1-.272-6.845c.318-3.128 1.104-6.011 1.603-8.969Z"/>
  <path fill="#964308" d="M175.976 139.817c.156-1.008.383-1.971.625-2.944a21.124 21.124 0 0 1-1.855-4.093c-1.22-3.871-.277-7.4.832-11.149-.565-1.1-1.169-2.193-1.729-3.312a17.991 17.991 0 0 1-.575-15.308c-1.426-3.942-1.225-7.677-.5-11.85a36.658 36.658 0 0 0 .67-7.183 13.744 13.744 0 0 0-1.1-.665c-.963-.5-.106-1.976.852-1.462l.091.055a17.551 17.551 0 0 0-2.55-7.107c-1.976-3.206-3.644-5.756-3.594-9.678.055-4.194.58-7.44-.912-10.62a184.138 184.138 0 0 0-9.864-1.976c1.008 3.977 1.557 7.747.388 12.047-.7 2.555-1.754 5.071-1.961 7.737a13.65 13.65 0 0 0 1.139 6.215c.03-.066.06-.131.086-.2.358-.8 1.578-.358 1.578.423v.7a.771.771 0 0 1-.575.776c-.055.116-.1.237-.156.358l.318.63c2.193 4.2 4.511 7.878 4.032 12.848a19.462 19.462 0 0 1-1.008 4.315 6.89 6.89 0 0 1 2.268 4.375c.318 4.1-2.384 6.9-4.8 9.824.363 3.7 1.159 7.364 1.331 11.089a22.226 22.226 0 0 1-.227 4.36 19.841 19.841 0 0 1 1.326 1.583 9.274 9.274 0 0 1 .9 9.693c-.943 1.961-2.47 3.528-3.654 5.358l-.071.126c.791 3.614 2.324 7.016 3.3 10.64a15.7 15.7 0 0 1 .544 4.093 111.471 111.471 0 0 0 17.425-10.232 12.231 12.231 0 0 1-2.574-9.466Z"/>
  <path fill="#964308" d="M168.405 55.017a13.746 13.746 0 0 1 .746 5.166c-.076 2.52-.63 5.141-.126 7.621.5 2.344 1.956 4.158 3.181 6.144a19.8 19.8 0 0 1 3.055 9.249 10.111 10.111 0 0 1 3.891 9.481c-.439 3.836-2.46 7.031-3.977 10.414.2.554.428 1.109.7 1.678 2.182 4.577 3.417 8.317 2.374 13.473a51.68 51.68 0 0 1-.852 3.417 18.588 18.588 0 0 1 2.182 7.782 27.82 27.82 0 0 1-1.154 7.223c1.769 3.075 3.841 5.832 5.04 8.861q3.488-2.853 6.789-6.114l2.818-76.362a146.617 146.617 0 0 0-24.667-8.033Zm-28.41 48.922a.626.626 0 0 0-.055-.181c-1.789-4.935-3.8-9.073-2.056-14.35a38.397 38.397 0 0 1 1.169-3.024 24.023 24.023 0 0 1-.227-8.307c.262-1.512.62-3.024.922-4.536-1.714-3-4.032-6.331-2.561-9.884a9.854 9.854 0 0 1 1.936-2.8q-.106-.565-.2-1.134c-.3-1.925.388-5.227.307-8.019-3.08.655-6.149 1.447-9.169 2.152-.418.1-.832.207-1.24.318a65.936 65.936 0 0 1-1.058 3.286c1.416 1.915 3.024 3.836 3.528 6.2.665 3.1-.343 6.094-1.8 8.831.5 4.657-.857 9.466-2.435 13.791-1.512 4.214-3.478 8.286-4.874 12.546 1.1 4.032 2.712 7.964 2.6 12.208a22.323 22.323 0 0 1-2.994 10.136 31.467 31.467 0 0 1-.5 11.845 62.045 62.045 0 0 1-2.989 7.722c.156.62.313 1.245.464 1.89.9 3.74 1.663 7.924-1.043 11.089-.121.141-.257.272-.383.408.741 3.049 1.346 5.807-.66 9.113-1.084 1.779-2.591 3.271-3.407 5.212a7.487 7.487 0 0 0-.348 1.008 12.223 12.223 0 0 0 8.619 1.88c1.764-.272 3.649-.6 5.615-.978a28.59 28.59 0 0 1 3.488-11.381c-.06-.393-.121-.786-.171-1.169-.7-5.292 1.069-9.184 3.816-13.5-.126-1.87-.3-3.74-.277-5.615.066-4.94 2.016-8.69 4.093-12.838-.5-5.071-1.331-10.081-.393-15.182a50.679 50.679 0 0 1 2.283-6.737Z"/>
  <path fill="#964308" d="M125.904 57.89a38.89 38.89 0 0 1-.953-1.4 10.657 10.657 0 0 1-.565-1.008 22.057 22.057 0 0 1-4.063.766l-12.846 101.418a12.188 12.188 0 0 0 1.759 8.065 13.009 13.009 0 0 1 1.87-7.818c1.144-1.82 2.939-2.939 4.461-4.39a19.507 19.507 0 0 1-.882-4.98 19.745 19.745 0 0 1 1.8-7.792 33.362 33.362 0 0 1-1.351-6.487c-.312-4.2 1.4-7.561 3.624-10.993.469-.721.907-1.452 1.316-2.2l-.091-.751c-.635-5.04-1.678-10.187-1.008-15.283a35.549 35.549 0 0 1 1.442-6.195 25.807 25.807 0 0 1-.9-5.751 24.4 24.4 0 0 1 3.024-12.641c1.512-2.676 3.473-5.131 5.01-7.8-.5-3.473-1.759-6.729-2.107-10.429a11.194 11.194 0 0 1 .46-4.331Zm7.869 109.957 1.064 4.783a.7.7 0 0 0 1.346-.373l-1.069-4.783a.7.7 0 0 0-1.341.373Zm7.55-1.683a13.825 13.825 0 0 0 1.512 5.1.7.7 0 0 0 1.2-.7 12.222 12.222 0 0 1-1.326-4.4.716.716 0 0 0-.7-.7.7.7 0 0 0-.7.7Zm18.292-6.17 2.394 5.136a.7.7 0 0 0 .872.282.706.706 0 0 0 .4-.822l-.05-.282a.7.7 0 0 0-.857-.5.711.711 0 0 0-.5.857l.05.282 1.27-.539-2.374-5.126a.7.7 0 0 0-1.2.706Zm7.727-3.473 3.427 4.1 1.008-1.008-.232-.237a.704.704 0 0 0-1.008.983l.232.237a.706.706 0 0 0 1.008 0 .716.716 0 0 0 0-1.008l-3.427-4.047a.7.7 0 0 0-.983 0 .706.706 0 0 0 0 .983Zm7.908-4.849 3.286 3.68a.7.7 0 0 0 1.008 0 .711.711 0 0 0 0-.983l-3.286-3.68a.704.704 0 0 0-.983 1.008Zm7.293-5.398 3.4 2.687.5-1.19h-.5a.7.7 0 0 0 0 1.391h.5a.706.706 0 0 0 .64-.428.691.691 0 0 0-.146-.761l-3.4-2.687a.751.751 0 0 0-.5-.207.7.7 0 0 0-.5 1.19Z"/>
  <path fill="#fff" d="M44.547 87.861s4.859-11.79-34.391-25.2c0 0 37.219-3.528 50.233-18.65a36.643 36.643 0 0 0 1.623 13.276 16.378 16.378 0 0 1-1.006 13.487"/>
  <path fill="#324958" d="M44.546 88.904a1.114 1.114 0 0 1-.4-.076 1.048 1.048 0 0 1-.575-1.351c.03-.086.5-1.512-.655-3.937-1.825-3.826-8.569-11.5-33.1-19.89a1.043 1.043 0 0 1 .237-2.016c.368-.035 36.951-3.68 49.542-18.277a1.043 1.043 0 0 1 1.83.771 36.1 36.1 0 0 0 1.568 12.848 17.255 17.255 0 0 1-1.139 14.39 1.048 1.048 0 1 1-1.759-1.134 15.429 15.429 0 0 0 .927-12.576 35.973 35.973 0 0 1-1.754-10.953c-11.472 10.8-34.779 15.091-44.583 16.467 20.993 7.732 28.055 14.915 30.243 19.7 1.437 3.175.691 5.177.6 5.393a1.048 1.048 0 0 1-.982.641Z"/>
  <path fill="#4dd1c8" d="M122.114 55.38c-4.536-.721-13.609 3.906-13.609 3.906s-22.042 47.234-22.944 73.212c-2.662 76.681 83.403-69.693 36.553-77.118Z"/>
  <path fill="#4dd1c8" d="M122.295 54.704c-3.206-.469-6.618.791-9.577 1.951-1.25.5-2.49 1.008-3.7 1.6a2.52 2.52 0 0 0-1.139.706 18.227 18.227 0 0 0-.932 2.016q-1.084 2.4-2.127 4.829-3.412 7.863-6.507 15.867c-2.621 6.774-5.071 13.609-7.233 20.555a159.721 159.721 0 0 0-5.2 20.847 76.414 76.414 0 0 0-1.008 16.3 34.3 34.3 0 0 0 1.643 9.945 9.577 9.577 0 0 0 3.674 5.151 6.613 6.613 0 0 0 5.227.544 17.455 17.455 0 0 0 6.049-3.367 47.153 47.153 0 0 0 6.406-6.3 94.258 94.258 0 0 0 6.674-8.861c2.3-3.422 4.436-6.966 6.422-10.585q3.15-5.741 5.822-11.729c1.8-4.032 3.448-8.15 4.879-12.334a110.715 110.715 0 0 0 3.422-12.037 70.643 70.643 0 0 0 1.633-11.351 38.306 38.306 0 0 0-.6-9.834 19.884 19.884 0 0 0-3.226-7.707 15.121 15.121 0 0 0-6.427-5.04 18.725 18.725 0 0 0-4.173-1.159c-.877-.136-1.255 1.2-.368 1.346a19.534 19.534 0 0 1 2.218.5c.353.1.7.207 1.048.328l.469.171c.1.04.454.186.383.151a15.817 15.817 0 0 1 1.794.917c.277.166.544.343.812.5l.373.272c.156.116.106.076.313.247a13.67 13.67 0 0 1 1.391 1.311q.323.343.62.711a7.5 7.5 0 0 1 .5.68 16.49 16.49 0 0 1 1.008 1.663c.151.287.3.58.433.877.181.393.227.5.358.832a26.427 26.427 0 0 1 1.689 8.569 53.113 53.113 0 0 1-.62 10.3 91.543 91.543 0 0 1-2.581 11.558c-1.169 4.058-2.561 8.065-4.118 11.986s-3.352 7.939-5.267 11.795q-2.787 5.671-6.054 11.114c-2.016 3.312-4.143 6.553-6.467 9.657a69.83 69.83 0 0 1-6.4 7.48 28.226 28.226 0 0 1-5.958 4.793 14.989 14.989 0 0 1-1.416.726l-.161.071c-.091.04.121-.045-.04 0l-.368.146c-.217.081-.439.151-.66.217s-.428.116-.645.161a1.659 1.659 0 0 0-.307.06l-.151.025c-.192.03.146 0-.045 0a6.632 6.632 0 0 1-1.225.025h-.207l-.222-.035q-.287-.06-.575-.151l-.262-.091c-.232-.081.06.04-.141-.06q-.274-.128-.534-.282l-.242-.156c-.066-.045-.312-.237-.141-.1a5.486 5.486 0 0 1-.5-.423 5.909 5.909 0 0 1-.454-.5c-.045-.055-.212-.262-.166-.2l-.176-.242a10.88 10.88 0 0 1-.8-1.366c-.06-.121-.116-.242-.171-.363l-.086-.192c-.076-.166 0 .04-.04-.1a17.415 17.415 0 0 1-.328-.847 24.989 24.989 0 0 1-1.008-4.239 62.794 62.794 0 0 1-.5-12.455 93.923 93.923 0 0 1 3.221-19.154c1.8-7.057 4.032-14.022 6.462-20.9 2.193-6.195 4.567-12.324 7.057-18.4q2.44-5.938 5.071-11.8c.217-.5.439-.968.655-1.447a3.614 3.614 0 0 0 .328-.711c.05-.232-.141.166-.186.161a3.04 3.04 0 0 0 .706-.343q1.663-.8 3.377-1.477a36.537 36.537 0 0 1 4.693-1.552 11.185 11.185 0 0 1 4.259-.449c.859.155 1.237-1.191.35-1.322Z"/>
  <path fill="#4dd1c8" d="M101.998 134.55s-3.75-17.682-16-25.706c0 0-9.728 6.588-8.816 28.615l15.439 20.257s10.509-4.829 18.977-18.06-9.6-5.106-9.6-5.106Z"/>
  <path fill="#4dd1c8" d="m92.517 158.159-15.676-20.555v-.114c-.907-21.961 8.569-28.64 8.967-28.912l.192-.131.2.126c11.18 7.314 15.383 22.768 16.049 25.494 1.956-.837 9.365-3.8 11.437-1.4 1.089 1.26.5 3.614-1.784 7.193-8.428 13.166-19.018 18.146-19.123 18.186Zm-14.99-20.812 15.216 19.943c1.633-.827 10.983-5.943 18.574-17.8 2.046-3.2 2.682-5.393 1.845-6.366-1.623-1.885-8.5.625-11.008 1.749l-.393.176-.091-.423c-.035-.171-3.816-17.435-15.625-25.333-1.366 1.047-9.305 8.27-8.519 28.054Z"/>
  <path fill="#324958" d="M101.998 135.588a1.043 1.043 0 0 1-1.033-.892c-.025-.151-2.324-15.237-11.422-21.639-9.5-6.684-24.537-21.356-26.659-31.619a1.1 1.1 0 0 1 .05-.6c0-.055 2.147-5.58-.635-8.231-1.255-.428-5.993-2.52-5.807-9.975a6.986 6.986 0 0 0-.161-2.016c-.912.832-2.641 4.289-2.041 6.966a8.746 8.746 0 0 0 3.926 5.837 1.053 1.053 0 0 1 .5 1.28 9.785 9.785 0 0 0 2.177 9.153 1.044 1.044 0 1 1-1.6 1.341 12.057 12.057 0 0 1-2.772-10.378 11.286 11.286 0 0 1-4.279-6.769c-.761-3.4 1.215-7.823 2.918-9.148a1.86 1.86 0 0 1 2.087-.343c.963.5 1.386 1.789 1.326 4.113-.166 6.769 4.3 7.929 4.486 7.974a1.124 1.124 0 0 1 .444.227c3.695 3.181 1.981 8.992 1.487 10.414 2.147 9.295 16.26 23.372 25.752 30.051 9.839 6.926 12.188 22.39 12.284 23.045a1.043 1.043 0 0 1-.882 1.185Zm-69.529 16.553a1.114 1.114 0 0 1-.469-.106 1.043 1.043 0 0 1-.554-1.134l11.87-62.164c-3.024-.267-12.8.04-23.272 12.6a1.043 1.043 0 1 1-1.6-1.336c13.488-16.18 25.842-13.307 26.362-13.155a1.048 1.048 0 0 1 .771 1.21l-11.404 59.676c7.278-7.682 28.428-29.063 37.8-28.5a4.274 4.274 0 0 1 3.811 2.52c.827 1.956.64 5.665-4.97 12.228a1.043 1.043 0 0 1-1.835-.58l-1.1-11.18c-10.081 4.219-27.778 22.067-34.618 29.587a1.038 1.038 0 0 1-.792.334Zm37.421-30.609.9 9.123c3.71-4.919 3.4-7.263 3.049-8.065a2.218 2.218 0 0 0-2.016-1.245 6.607 6.607 0 0 0-1.933.187Z"/>
  <path fill="#324958" d="M44.547 87.86s-11.543-7.445-30.172 4.34l19.3-13.443s11.689 2.011 10.872 9.103Z"/>
  <path fill="#324958" d="M14.375 93.248a1.043 1.043 0 0 1-.595-1.9l19.3-13.443a1.033 1.033 0 0 1 .776-.171c.5.086 12.662 2.273 11.729 10.252a1.053 1.053 0 0 1-1.6.761c-.136-.086-11.291-6.89-29.048 4.34a1.008 1.008 0 0 1-.562.161Zm20.162-8.78a22.843 22.843 0 0 1 8.881 1.668c-1.008-4.163-7.767-5.887-9.511-6.265l-8.7 6.079a31.755 31.755 0 0 1 9.34-1.487Z"/>
  <path fill="#324958" d="M44.547 87.86s1.391-10.514-23.267-10.862l9.466-4.385s15.625 5.746 13.801 15.247Z"/>
  <path fill="#324958" d="M44.546 88.904h-.166a1.053 1.053 0 0 1-.872-1.159 5.612 5.612 0 0 0-1.638-3.967c-2.223-2.52-7.6-5.544-20.605-5.726a1.048 1.048 0 0 1-.428-2.016l9.446-4.38a1.053 1.053 0 0 1 .8-.03c.67.247 16.447 6.164 14.491 16.422a1.048 1.048 0 0 1-1.028.856ZM25.632 76.111c6.643.469 11.7 1.8 15.121 3.992-3.337-3.488-8.533-5.756-10.005-6.351Zm51.416 61.927a1.033 1.033 0 0 1-.887-.5c-3.065-4.935-6.049-10.277-7.188-15.943a1.046 1.046 0 0 1 2.051-.408c1.114 5.6 4.153 10.812 6.91 15.252a1.055 1.055 0 0 1-.887 1.6Zm9.05-4.022a3.775 3.775 0 0 0-1.079-2.782 1.889 1.889 0 0 0-2.48.454 3.614 3.614 0 0 0-.912 2.122 2.445 2.445 0 0 0 .741 2.949 2.1 2.1 0 0 0 2.626.04 3.08 3.08 0 0 0 1.104-2.783Zm4.029 12.969a1.048 1.048 0 0 1-1.008-.827c-2.52-11.875 1.7-31.815 1.885-32.657a1.043 1.043 0 0 1 2.041.433c-.045.2-4.3 20.353-1.885 31.79a1.033 1.033 0 0 1-.8 1.235 1.109 1.109 0 0 1-.232.025Zm-47.626-14.774 21.008-13.287a.726.726 0 0 0 .323-.791q-2.132-8.644-4.259-17.284c-.212-.867-1.557-.5-1.341.373q2.137 8.659 4.269 17.284l.323-.786-21.019 13.286c-.756.479-.055 1.684.7 1.2Z"/>
  <path fill="#324958" d="m57.244 102.826 1.673-4.94.237-.7-1.164.307 2.888 3.528.418.5a.711.711 0 0 0 1.008 0 .721.721 0 0 0 0-1.008l-2.888-3.528-.423-.5a.7.7 0 0 0-1.164.307l-1.673 4.94-.237.7a.706.706 0 0 0 .5.857.716.716 0 0 0 .857-.5Zm-14.149 23.941-1.749 5.04a.706.706 0 0 0 .67.882 14.663 14.663 0 0 0 2.7-.076c.59-.05 1.174-.121 1.759-.2a.7.7 0 0 0 .5-.857.716.716 0 0 0-.857-.5c.333-.045.126 0 .03 0l-.333.04c-.378.045-.761.086-1.144.121a14.922 14.922 0 0 1-2.641.071l.67.882 1.754-5.04a.7.7 0 0 0-1.346-.368Zm16.956-9.909-6.769.277.67.882c.726-1.764 1.371-3.992-.116-5.575a7.089 7.089 0 0 0-2.651-1.376l-3.528-1.341v1.346l3.06-.706c.751-.171.6-1.426-.187-1.366l-4.536.338a.706.706 0 0 0-.5 1.19l3.528 3.458a.714.714 0 0 0 1.008-1.008l-3.528-3.458-.5 1.19 4.536-.338-.186-1.366-3.055.7c-.726.171-.595 1.119 0 1.346l2.8 1.069a11.25 11.25 0 0 1 2.419 1.008c1.512 1.033.615 3.17.071 4.481a.7.7 0 0 0 .675.882l6.769-.272c.892-.035.9-1.431 0-1.4Zm-5.524-38.907a121.206 121.206 0 0 0-1.8-3.186c-.2-.333-.418-.842-.7-1.245-.822.313-1.673.544-2.52.817-1.053.333-2.067.776-3.085 1.2a21.069 21.069 0 0 0 2.762 3.664c.318.353.65.7.978 1.033 1.3-.57 2.52-1.275 3.77-1.91.207-.106.418-.186.635-.272-.02-.031-.025-.071-.04-.101Zm-9.284-1.452a7.813 7.813 0 0 0-1.794.822c-.756.474-.055 1.684.706 1.2a6 6 0 0 1 1.457-.68c.85-.268.488-1.614-.369-1.342Zm1.743 2.304-.161.076h-.035a7.157 7.157 0 0 0-1.008.534c-.166.076-.333.156-.5.222a.726.726 0 0 0-.5.857.7.7 0 0 0 .857.5l.307-.136a.63.63 0 0 0 .328-.116l.166-.1c.373-.176.746-.358 1.1-.565.651-.372.202-1.559-.554-1.272Zm26.603 47.793a15.923 15.923 0 0 1-2.157 4.834.333.333 0 0 1 0 .076l-.151.307a.59.59 0 0 1-.353.313c-.171.2-.353.4-.539.6-.62.65-1.6-.333-.983-.983.212-.222.4-.444.585-.675.035-1.794.086-3.584.106-5.383 0-1.275-.534-2.918-.328-4.128.272-1.563 1.966-1.547 3.085-.837 2.106 1.345 1.315 3.905.735 5.876Zm-8.8-32.254c1.174 1.936 2.273 3.926 3.337 5.928a96.416 96.416 0 0 1 5.63 12.278 32.023 32.023 0 0 1 1.82 6.815c.111.877 1.512.887 1.391 0-.559-4.451-2.334-8.725-4.173-12.777a126.49 126.49 0 0 0-5.544-10.8A90.166 90.166 0 0 0 66 93.639a.7.7 0 0 0-1.2.706Zm129.957 74.906s13.15 16.482 15.812 21.346c3.584 6.553 5.756 17.808 6.275 17.641s23.125-12.6 23.125-12.6l-3.11-13.075Z"/>
  <path fill="#324958" d="M216.828 209.274a1.144 1.144 0 0 1-.5-.126c-.575-.307-.721-.761-1.7-4.219-1.008-3.659-2.747-9.778-4.965-13.836-2.591-4.728-15.585-21.029-15.716-21.195a1.043 1.043 0 0 1 1.119-1.648l42.1 13.307a1.053 1.053 0 0 1 .7.756l3.1 13.075a1.048 1.048 0 0 1-.5 1.159c-10.348 5.686-22.793 12.505-23.3 12.672a1.08 1.08 0 0 1-.338.055Zm-19.154-38c3.851 4.894 11.754 15.086 13.8 18.821 2.334 4.264 4.032 10.288 5.146 14.269.252.9.5 1.8.706 2.44 3.165-1.684 13.776-7.5 21.432-11.7l-2.787-11.724ZM50.268 98.017l10.313-4c.827-.318.469-1.663-.368-1.341l-10.313 4c-.827.318-.469 1.669.368 1.341Zm-1.881-4.123a4.536 4.536 0 0 0 3.488-5.872l-1.27.539a5.5 5.5 0 0 0 8.256 1.4c.7-.57-.3-1.547-1.008-.983a4.093 4.093 0 0 1-6.049-1.124.7.7 0 0 0-1.27.539 3.135 3.135 0 0 1-2.52 4.158c-.882.146-.5 1.487.368 1.341Z"/>
  <path fill="#4dd1c8" d="M185.29 55.178c-2.863-5.7-9.471-9.778-15.424-10.756a25.776 25.776 0 0 0-19.99 5c-5.524 4.5-6.225 12-5.645 18.725a54.976 54.976 0 0 0 4.215 16.877l5.827-2.263c3.049 5.6 9.8 16.885 9.8 16.885s4.088-4.194 10.963-14.189a51.107 51.107 0 0 0 3.135 4.879s6.381-10.892 8.922-16.785c2.794-6.477 1.253-12.294-1.803-18.373Z"/>
  <path fill="#324958" d="m52.99 82.956 2.016 4.536a.7.7 0 0 0 .943.212.716.716 0 0 0 .252-.953l-2.016-4.536a.7.7 0 0 0-.953-.247.711.711 0 0 0-.247.953Zm2.756-29.674c-3.347 1.7-5.383 4.94-7.924 7.561a13.266 13.266 0 0 1-4.814 3.327 17.505 17.505 0 0 1-6.341 1.043 48.686 48.686 0 0 1-8.357-1.008c-.872-.156-1.25 1.185-.368 1.346 4.708.857 9.632 1.724 14.335.358a14.113 14.113 0 0 0 5.4-2.969 43.5 43.5 0 0 0 3.891-4.224 16.618 16.618 0 0 1 4.879-4.209c.8-.408.1-1.608-.706-1.2Zm129.318 106.203a438.249 438.249 0 0 1 36.291 31.009c9.158 8.846 10.439 24.89 10.439 24.89s26.331-15.509 45.1-46.135l-54.526-27.612Z"/>
  <path fill="#324958" d="M231.804 216.432a1.008 1.008 0 0 1-.5-.121 1.049 1.049 0 0 1-.56-.842c0-.156-1.361-15.761-10.121-24.224a440.208 440.208 0 0 0-36.205-30.923 1.043 1.043 0 0 1-.413-.938 1.069 1.069 0 0 1 .59-.842l37.3-17.833a1.043 1.043 0 0 1 .922 0l54.537 27.6a1.048 1.048 0 0 1 .423 1.477c-18.69 30.495-45.2 46.337-45.465 46.493a1.049 1.049 0 0 1-.508.153Zm-44.749-56.741a444.88 444.88 0 0 1 35.036 30.051c7.672 7.4 9.96 19.441 10.585 23.871a149.208 149.208 0 0 0 42.763-43.948l-53.084-26.849Z"/>
  <path fill="#fff" d="M172.009 39.225s1.643 11.507-10.9 12.51c-9.9.791-9.935 14.295-4.3 22.425a33.266 33.266 0 0 1 5.308 13.846l1.754 11.291 5.252-7.6c1.905-3.276 3.024-8.317 3.453-12.1.444-4.093 2.334-9.849 9.073-12.692 11.144-4.7 10.051 3.458 21.034-7.057A104.861 104.861 0 0 0 219.2 39.989l-5.353-20.056-22.349-.559Z"/>
  <path fill="#324958" d="M163.87 100.335a.907.907 0 0 1-.232-.025 1.043 1.043 0 0 1-.8-.857l-1.754-11.286a32.057 32.057 0 0 0-5.136-13.418c-3.992-5.776-5.136-13.67-2.717-18.776a8.994 8.994 0 0 1 7.8-5.282c3.594-.287 6.225-1.512 7.9-3.584 2.626-3.266 2.051-7.7 2.046-7.742a1.053 1.053 0 0 1 .292-.877L190.75 18.65a1.033 1.033 0 0 1 .771-.313l22.349.559a1.033 1.033 0 0 1 .983.761l5.368 20.081a1.064 1.064 0 0 1-.111.8 105.468 105.468 0 0 1-16.7 20.081c-6.447 6.164-8.977 6.245-12.571 5.862a15.278 15.278 0 0 0-8.775 1.381c-6.21 2.621-8.024 7.888-8.453 11.845-.408 3.755-1.562 9.012-3.589 12.5a.338.338 0 0 1-.045.071l-5.247 7.6a1.048 1.048 0 0 1-.862.459Zm9.229-60.727a13.058 13.058 0 0 1-2.52 8.791c-2.062 2.571-5.217 4.032-9.385 4.375a6.9 6.9 0 0 0-6.074 4.1c-2.087 4.4-1.008 11.593 2.545 16.694a34 34 0 0 1 5.479 14.28l1.356 8.7 3.74-5.408c1.845-3.206 2.913-8.11 3.3-11.638.5-4.536 2.571-10.529 9.713-13.544 4.879-2.062 7.616-1.769 9.809-1.512 2.808.3 4.839.5 10.913-5.292a108.259 108.259 0 0 0 16.129-19.27l-5.04-18.892-21.114-.5ZM36.482 70.471a13.171 13.171 0 0 0 13.695-1.275c.7-.539 0-1.749-.706-1.2a11.8 11.8 0 0 1-12.289 1.27c-.801-.398-1.511.807-.7 1.205Z"/>
  <path fill="#fff" d="m252.368 205.03 21.255-49.457s-27.6-16.83-64.951-6.139l-32.9 28.73s62.166 6.709 76.596 26.866Z"/>
  <path fill="#324958" d="M252.368 206.073a1.043 1.043 0 0 1-.852-.423c-13.992-19.547-75.269-26.351-75.889-26.417a1.043 1.043 0 0 1-.575-1.825l32.909-28.73a1.008 1.008 0 0 1 .4-.217 91.263 91.263 0 0 1 47.047-.953c11.593 2.878 18.473 7.026 18.76 7.2a1.048 1.048 0 0 1 .418 1.305l-21.26 49.46a1.048 1.048 0 0 1-.847.625Zm-74.162-28.65c11.366 1.416 59.291 8.327 73.9 25.575l20.187-46.972c-4.728-2.556-30.212-14.975-63.131-5.645Z"/>
  <path fill="#4dd1c8" d="M193.003 64.301s6.628-.781 9.36 8.937 24.99 78.852 24.99 78.852-34.114 16.17-38.917-12.712Z"/>
  <path fill="#4dd1c8" d="M208.088 156.93a22.148 22.148 0 0 1-10.308-2.248c-5.2-2.717-8.458-7.848-9.688-15.242v-.08l4.582-75.344.287-.035c.071 0 6.956-.706 9.738 9.184 2.7 9.577 24.759 78.152 24.985 78.842l.091.292-.277.131c-.13.039-9.697 4.5-19.41 4.5Zm-19.3-17.566c1.2 7.147 4.335 12.1 9.32 14.7 10.615 5.544 26.533-1.144 28.821-2.162-1.588-4.945-22.284-69.281-24.895-78.575-2.324-8.266-7.445-8.725-8.7-8.695Z"/>
  <path fill="#fff" d="M192.105 73.182c.4-1.038 6.185-7.233 8.528-9.345-2.853-1.275-7.208.973-9.819 1.951-.323.121-6.512-6.764-6.512-6.764s-5.6-9-6.336-3.851-2.44 4.536-2.44 4.536c-3.5 4.924-.106 16.487 6.653 21.17s5.323 23.458 5.323 23.458c-1.008 45.283 3.417 42.844 3.417 42.844 13.569-6.981 15.02-38.075 15.02-38.075Z"/>
  <path fill="#324958" d="M200.23 157.831a1.083 1.083 0 0 1-.353-.061c-13.907-4.985-13.821-26.644-13.74-45.752.055-13.443.106-26.145-4.652-30.4-6.729-6.008-10.282-17.813-6.794-22.551a1.512 1.512 0 0 1 1.169-.6c1.144-.045 2.374 1.114 4.128 3.09-.272-.5-.534-.948-.766-1.351-1.366-2.384-2.208-3.9-2.3-4.914a2.243 2.243 0 0 1 3.977-1.613l9.864 11.023.922-.4c2.823-1.21 5.746-2.465 9.1-1.971a1.109 1.109 0 0 1 .882.731c.232.675.413 1.215-8.342 10.378l26.336 65.546a1.048 1.048 0 0 1-1.915.781l-26.613-66.181a1.048 1.048 0 0 1 .217-1.109c2.878-3.024 5.958-6.356 7.45-8.16a19.4 19.4 0 0 0-6.285 1.9c-.544.237-1.089.469-1.643.7a1.043 1.043 0 0 1-1.169-.272l-10.378-11.593-.045-.055a.131.131 0 0 0-.176-.05.136.136 0 0 0-.1.161 21.939 21.939 0 0 0 2.016 4.068c1.875 3.281 3.024 5.358 2.682 6.7a1.169 1.169 0 0 1-.867.887c-.932.222-1.618-.57-3.443-2.687a25.43 25.43 0 0 0-3.271-3.387c-2.172 3.831.64 13.952 6.739 19.4 5.459 4.884 5.408 17.435 5.348 31.966-.076 18.413-.156 39.29 12.359 43.776a1.043 1.043 0 0 1-.353 2.016Z"/>
  <path fill="#324958" d="M200.23 157.831a1.043 1.043 0 0 1-.7-1.82c11.462-10.262 13.256-27.41 13.271-27.581a1.046 1.046 0 1 1 2.082.2c-.076.736-1.88 18.12-13.962 28.937a1.048 1.048 0 0 1-.7.262Zm3.156-12.268a3.575 3.575 0 0 0-1.008-2.616 1.775 1.775 0 0 0-2.334.428 3.382 3.382 0 0 0-.857 2.016 2.3 2.3 0 0 0 .7 2.772 1.976 1.976 0 0 0 2.47.04 2.918 2.918 0 0 0 1.029-2.64Z"/>
  <ellipse cx="6.895" cy="5.736" fill="#f4f4f6" rx="6.895" ry="5.736" transform="rotate(-60 150.711 -147.582)"/>
  <path fill="#324958" d="M217.146 56.847c1.437-2.55 1.719-5.938-.146-8.357a5.949 5.949 0 0 0-7.354-1.512 8.71 8.71 0 0 0-4.8 7.288 6.189 6.189 0 0 0 4.189 6.462c3.251.927 6.5-1.159 8.115-3.886a.7.7 0 1 0-1.2-.706 6.329 6.329 0 0 1-5.721 3.4 4.533 4.533 0 0 1-3.982-4.365 7.3 7.3 0 0 1 3.135-6.442 4.867 4.867 0 0 1 6.018.045c2.057 1.9 1.82 5.1.549 7.359a.7.7 0 1 0 1.2.711Zm-22.213 154.544 15.625-24.244c.5-.756-.716-1.457-1.2-.706l-15.625 24.244c-.504.756.716 1.457 1.2.706Zm35.555-26.074 2.984-4.869a.7.7 0 1 0-1.2-.706l-2.984 4.864a.7.7 0 1 0 1.2.7Zm-1.623-8.054-3.15 6.613a.716.716 0 0 0 .252.953.7.7 0 0 0 .953-.252l3.145-6.608a.716.716 0 0 0-.247-.953.706.706 0 0 0-.953.247Zm-4.879 5.816 2.6-6.275a.7.7 0 0 0-.5-.857.716.716 0 0 0-.857.5l-2.6 6.27a.7.7 0 0 0 .5.857.711.711 0 0 0 .857-.5Zm37.369-25.02c-2.631-3.68-7.344-2.853-10.731-.655a6.406 6.406 0 0 0-1.431 9.34c2.52 3.024 7.808 3.2 10.671.655 2.293-2.037 3.876-6.981 1.491-9.34Zm-.363 3.443a39.08 39.08 0 0 0-3.407-.9c.978-.383 1.981-.726 2.893-1.1a2.9 2.9 0 0 1 .514 2Zm-11.134 3.06c-1.094-2.606-.116-4.783 2.167-6.124 2.107-1.235 5.04-2.016 7.057-.5a.62.62 0 0 0 .05.378l-3.765 1.568a6.82 6.82 0 0 0-.963.464.761.761 0 0 0-.353.252 27.9 27.9 0 0 0-3.306 5.272 4.466 4.466 0 0 1-.887-1.305Zm2.188 2.288a26.658 26.658 0 0 1 2.253-3.916c.439.847 1.043 1.714 1.336 2.47a18.289 18.289 0 0 0 .65 2.016 6.452 6.452 0 0 1-4.239-.58Zm5.912-.06a.774.774 0 0 0-.066-.086l-.066-.055c-.045-.207-.292-.65-.358-.857-.181-.554-.393-1.1-.62-1.643l.1.076a9.322 9.322 0 0 0 2.162 1.512 5.627 5.627 0 0 1-1.154 1.053Zm-5.937 5.507-6.825 18.443c-.312.842 1.008 1.2 1.341.368l6.83-18.443c.307-.842-1.039-1.205-1.346-.368Zm-13.528-1.818c3.135-2.414-.151-6.275-1.411-8.74a3.17 3.17 0 0 1 .222-3.836c1.391-1.6 3.463-2.273 5.418-2.9a.706.706 0 0 0 .166-1.27 16.744 16.744 0 0 0-8.2-2.586.7.7 0 0 0-.186 1.366l14.29 2.928c.877.176 1.25-1.164.373-1.346l-14.285-2.923-.181 1.366a15.363 15.363 0 0 1 7.49 2.394l.166-1.27c-3.06.983-7.934 2.878-7.152 6.961a13.172 13.172 0 0 0 2.016 4.088c.675 1.149 2.016 3.453.59 4.572-.7.539 0 1.749.7 1.2Z"/>
  <path fill="#324958" d="M237.56 168.951a2.222 2.222 0 0 0-2.288 1.8 1.82 1.82 0 0 0 1.542 2.016 1.623 1.623 0 0 0 1.119.207 2.374 2.374 0 0 0 1.719-2.379 2.02 2.02 0 0 0-2.092-1.644Zm-3.296-2.808 5.912-1.225a.7.7 0 0 0-.373-1.341l-5.928 1.245a.7.7 0 0 0-.5.857.711.711 0 0 0 .857.5Zm.116-9.491 4.985 3.5a.7.7 0 0 0 .953-.247.711.711 0 0 0-.247-.953l-4.985-3.5a.7.7 0 0 0-.706 1.2Zm-11.478 15.383 5.776-10.529a.7.7 0 0 0-1.2-.7l-.373.63a.7.7 0 0 0 1.2.706l.368-.635-1.2-.716-5.781 10.524c-.428.786.771 1.512 1.2.706Zm-.373-13.261-4.7 12.46c-.318.842 1.008 1.2 1.346.373l4.7-12.465c.317-.837-1.009-1.2-1.346-.368Zm-7.217 9.638 5.146-10.081c.408-.8-.8-1.512-1.2-.7l-5.141 10.081c-.408.8.8 1.512 1.2.7ZM212 163.31l-8.292-3.14a.675.675 0 0 0-.675.181l-8.775 11.2c-.549.7.428 1.689 1.008.983l8.775-11.22-.675.176 8.286 3.14c.842.323 1.2-1.008.373-1.341Z"/>
  <path fill="#324958" d="m202.518 161.799-.181 6.825a.706.706 0 0 0 1.048.6l3.76-1.689-1.048-.6-.771 5.877 1.048-.6-2.485-1.376a.7.7 0 0 0-.953.953l2.55 4.133a.706.706 0 0 0 1.2 0l2.127-3.836-1.27-.539-.086.408c-.176.877 1.164 1.25 1.346.373l.081-.408c.151-.741-.867-1.26-1.27-.539l-2.132 3.841h1.2l-2.556-4.133-.953.953 2.485 1.381a.711.711 0 0 0 1.048-.6l.771-5.877c.076-.58-.635-.786-1.048-.6l-3.765 1.694 1.048.6.181-6.825a.7.7 0 0 0-1.391 0Zm19.845 15.69a34.283 34.283 0 0 1-2.631 5.161.711.711 0 0 1-.953.252c-3.407-1.457-7.238-1.094-10.519-2.923a.706.706 0 0 1-.146-1.094 27.652 27.652 0 0 0 4.118-6.321.675.675 0 0 1 .968-.227.716.716 0 0 1 .307.071 92.591 92.591 0 0 1 8.539 4.294.706.706 0 0 1 .317.787Zm17.909 10.282a97.532 97.532 0 0 0 6.966-17.087.7.7 0 0 0-1.346-.368 95.156 95.156 0 0 1-6.825 16.749c-.416.797.784 1.513 1.205.706Z"/>
  <path fill="#fff" d="M265.575 188.104c4.824-5.812 9.743-11.553 13.317-18.246a.711.711 0 0 0-.111-.842l-7.147-6.608c-.655-.61-1.643.373-.983 1.008l7.147 6.608-.111-.842c-3.528 6.588-8.347 12.238-13.105 17.959-.57.685.408 1.678.983 1.008Z"/>
  <path fill="#324958" d="m256.673 278.096-15.741 10.212 7.868.454-1.356-3.589Z"/>
  <path fill="#324958" d="M248.799 289.826h-.06l-7.868-.456a1.043 1.043 0 0 1-.5-1.92l15.736-10.227a1.048 1.048 0 0 1 1.2 1.709l-8.609 6.6 1.079 2.858a1.048 1.048 0 0 1-.978 1.416Zm-4.627-2.359 3.085.176-.66-1.744ZM168.39 178.568a24.668 24.668 0 0 1-14.471 11.961 23.638 23.638 0 0 1-5.423 1.008c-.892.055-.9 1.452 0 1.4a26.044 26.044 0 0 0 17.838-8.891 24.724 24.724 0 0 0 3.271-4.773c.418-.791-.786-1.512-1.2-.7Zm24.588 18.463 4.869-.1a.7.7 0 0 0 0-1.4l-4.869.1a.7.7 0 0 0 0 1.391Zm-15.656.227c4.239-.2 8.483-.312 12.732-.166.892.03.892-1.366 0-1.4-4.249-.146-8.493-.025-12.732.171-.897.046-.902 1.44 0 1.395Z"/>
  <path fill="#324958" d="M138.893 184.551a16.259 16.259 0 0 0 3.024 9.93 10.454 10.454 0 0 0 3.816 3.165 7.167 7.167 0 0 0 2.984.822c5.04-.06 10.081-.368 15.1-.575 3.422-.141 6.84-.282 10.262-.469.887-.045.9-1.442 0-1.391-6.048.323-12.067.544-18.1.776l-6.553.242a6.023 6.023 0 0 1-1.089 0 8.332 8.332 0 0 1-4.249-2.213c-2.737-2.611-3.831-6.6-3.805-10.282a.7.7 0 0 0-1.391 0Zm106.53 87.476 1.472 5.151a.706.706 0 0 0 .857.5.7.7 0 0 0 .5-.857l-1.487-5.146a.7.7 0 1 0-1.346.368Zm-4.41-15.468 2.4 8.428a.7.7 0 0 0 1.346-.373l-2.409-8.428a.7.7 0 0 0-1.341.373Zm-9.492-33.227 8.019 28.1a.7.7 0 0 0 1.346-.373l-8.019-28.09a.7.7 0 0 0-1.341.368Z"/>
  <path fill="#fff" d="m170.315 245.112 11.573-12.672 8.236 4.219-16.129 13.866Z"/>
  <path fill="#324958" d="m182.125 233.736 6.144 3.165-14.068 12.1-2.556-3.76 10.479-11.472m-.469-2.586-12.665 13.833 4.8 7.057 18.2-15.625-10.333-5.287Z"/>
  <circle cx="8.886" cy="8.886" r="8.886" fill="#f6f6f6" transform="translate(106.448 281.332)"/>
  <circle cx="4.466" cy="4.466" r="4.466" fill="#fff" transform="translate(111.665 286.186)"/>
  <circle cx="4.667" cy="4.667" r="4.667" fill="#fff" transform="translate(212.393 283.842)"/>
  <path fill="#324958" d="M238.745 33.065c-1.578 5.04-6.553 8.685-11.386 10.288-5.04 1.678-11.27 1.512-15.872-1.4-3.528-2.228-5.857-7.369-5.544-11.774-4.234 4.168-10.54 6.7-16.341 4.536a10.993 10.993 0 0 1-6.442-6.608 4.033 4.033 0 0 1-6.169-1.628c-2.475-4.864-1.608-11.457 1.21-15.958 5.892-9.4 18.04-3.634 21.119 4.975 4.743-9.577 13.609-16.356 24.7-11.83 6.719 2.747 15.1 12.6 9.456 19.658a7.475 7.475 0 0 1 5.269 9.741Z"/>
  <path fill="#324958" d="M167.629 38.157s2.414 3.317 2.818 3.614c3.609 2.651 10.02.338 12.7-2.324a18.609 18.609 0 0 0 5.262-10.313c-.131-10.015-3.695-10.277-3.695-10.277Z"/>
  <path fill="#324958" d="M174.449 43.978a7.682 7.682 0 0 1-4.622-1.366 29.441 29.441 0 0 1-3.024-3.836 1.048 1.048 0 0 1 .066-1.311l17.062-19.32a1.038 1.038 0 0 1 .862-.353c.459.035 4.536.645 4.657 11.311a19.807 19.807 0 0 1-5.57 11.089 14.527 14.527 0 0 1-9.431 3.785Zm-3.357-3.024c3.024 2.2 8.866.2 11.316-2.243a17.95 17.95 0 0 0 4.955-9.577c-.086-6.507-1.613-8.463-2.369-9.032l-16.026 18.12c.892 1.235 1.87 2.475 2.122 2.727Zm-.024 0Zm14.056 10.963a12.6 12.6 0 0 0 6.366 7.707c.8.4 1.512-.8.7-1.2a11.265 11.265 0 0 1-5.726-6.875.7.7 0 0 0-1.341.368Z"/>
  <ellipse cx="13.019" cy="7.485" fill="#4dd1c8" rx="13.019" ry="7.485" transform="rotate(-52.12 117.057 -149.088)"/>
  <path fill="#324958" d="M171.837 41.449a5.993 5.993 0 0 1-3.755-1.21c-3.765-2.939-2.939-10.111 1.905-16.336s11.593-8.806 15.368-5.872c1.885 1.467 2.676 4.032 2.228 7.233a19.822 19.822 0 0 1-4.133 9.108c-3.508 4.485-7.969 7.077-11.613 7.077Zm9.773-22.531c-2.959 0-6.956 2.384-9.975 6.265-3.982 5.126-5.04 11.265-2.268 13.408s8.448-.378 12.435-5.5a17.789 17.789 0 0 0 3.71-8.115c.343-2.424-.171-4.3-1.442-5.287a3.921 3.921 0 0 0-2.459-.772Z"/>
  <path fill="#fff" d="M199.156 12.375a34.461 34.461 0 0 0-21.87 6.966 1.384 1.384 0 0 0 0 1.971 1.437 1.437 0 0 0 1.971 0 28.418 28.418 0 0 1 9.254-4.622 32.818 32.818 0 0 1 10.661-1.512c1.794.055 1.789-2.727 0-2.782Z"/>
  <ellipse cx="5.373" cy="3.085" fill="#fff" rx="5.373" ry="3.085" transform="rotate(-52.12 111.994 -156.302)"/>
  <path fill="#324958" d="M170.265 31.382a3.054 3.054 0 0 1-1.915-.635c-1.825-1.421-1.512-4.763.68-7.6s5.368-3.952 7.2-2.52a3.619 3.619 0 0 1 1.154 3.528 9.472 9.472 0 0 1-5.308 6.8 4.723 4.723 0 0 1-1.811.427Zm4.032-9.3a5.434 5.434 0 0 0-3.619 2.354c-1.512 1.956-1.8 4.078-1.043 4.667a1.714 1.714 0 0 0 1.653-.04 6.88 6.88 0 0 0 2.616-2.117 6.84 6.84 0 0 0 1.406-3.06 1.736 1.736 0 0 0-.363-1.613 1.058 1.058 0 0 0-.649-.191Z"/>
  <ellipse cx="6.895" cy="5.736" fill="#f4f4f6" rx="6.895" ry="5.736" transform="rotate(-60 137.35 -137.413)"/>
  <path fill="#324958" d="M201.667 50.359c1.431-2.55 1.719-5.938-.146-8.357a5.964 5.964 0 0 0-7.359-1.512 8.71 8.71 0 0 0-4.8 7.293 6.191 6.191 0 0 0 4.194 6.457c3.246.927 6.5-1.154 8.115-3.886a.7.7 0 0 0-1.2-.706 6.376 6.376 0 0 1-5.721 3.4 4.533 4.533 0 0 1-3.982-4.365 7.319 7.319 0 0 1 3.135-6.442c1.8-1.215 4.315-1.512 6.018.045 2.056 1.9 1.82 5.1.549 7.359a.7.7 0 0 0 1.2.711Z"/>
  <path fill="#f4f4f6" d="M205.981 51.943c-.076-1.164-.837-3.17-2.193-3.347-2.092-.267-2.883 3.241-3.024 4.708-.262 2.334-.171 5.741 1.552 7.561a1.164 1.164 0 0 0 .1.121c2.98 2.714 3.641-7.904 3.565-9.043Z"/>
  <path fill="#324958" d="M202.002 49.901a5.449 5.449 0 0 1 .686-.171l.171-.03c-.171.025 0 0 .04 0h.872a4.659 4.659 0 0 1 .645.166c.146.045 0 0 .03 0l.141.071c.091.045.181.1.272.156l.076.055c-.081-.06.055.045.071.06a2.409 2.409 0 0 1 .227.227s.121.151.066.076.045.071.06.091.116.2.171.3c0 0 .081.187.05.106s.03.1.04.121a3.671 3.671 0 0 1 .111.4.7.7 0 1 0 1.346-.368 3.574 3.574 0 0 0-2.193-2.606 4.96 4.96 0 0 0-3.251 0 .7.7 0 1 0 .368 1.346Zm4.589 11.034a21.916 21.916 0 0 1-8.418 16.185l1.164.675.625-4.118a3.281 3.281 0 0 1 .791-1.976 2.631 2.631 0 0 1 3.337-.222c.791.428 1.512-.776.706-1.2a4.1 4.1 0 0 0-4.209-.186 3.937 3.937 0 0 0-1.905 2.8c-.242 1.512-.459 3.024-.691 4.536a.706.706 0 0 0 1.164.675 23.236 23.236 0 0 0 8.831-17.173c.04-.892-1.356-.892-1.4 0Z"/>
  <path fill="#324958" d="M202.892 70.113c-.953.439-2.419.7-3.024 1.6-1.008 1.512-.927 3.926-1.1 5.857a.706.706 0 0 0 .7-.444.565.565 0 0 0 .393-.227l2.293-2.918c.5-.645 1.482-1.467 1.648-2.3a1.6 1.6 0 0 0-.91-1.568Z"/>
  <path fill="#fff" d="M235.795 19.502a11.5 11.5 0 0 1-9.778 6.134 11.684 11.684 0 0 1-6.048-1.578c-1.774-1.008-3.528-2.616-3.906-4.728-.156-.882-1.512-.5-1.346.373.635 3.654 4.667 6.139 8 6.951a12.672 12.672 0 0 0 10.3-1.956 12.979 12.979 0 0 0 3.987-4.506c.418-.791-.781-1.512-1.2-.7Zm-31.734 1.366a10.676 10.676 0 0 1-3.095 13.992c-.731.5-.035 1.719.706 1.2a11.936 11.936 0 0 0 3.589-15.9.7.7 0 1 0-1.2.706Z"/>
  <path fill="#324958" d="M235.175 30.243a6.8 6.8 0 0 0 7.853-2.309 4.032 4.032 0 0 0 .3-4.708 2.646 2.646 0 0 0-3.967-.454 2.133 2.133 0 0 0 1.437 3.614.7.7 0 0 0 0-1.391.691.691 0 0 1-.645-.559.726.726 0 0 1 .413-.837 1.4 1.4 0 0 1 1.946 1.094 3.309 3.309 0 0 1-1.038 2.954 5.444 5.444 0 0 1-5.923 1.25.7.7 0 0 0-.857.5.711.711 0 0 0 .5.857ZM200.609 15.56a14.935 14.935 0 0 1 9.219-14.159c.827-.328.469-1.673-.368-1.346a16.356 16.356 0 0 0-10.242 15.509c.03.888 1.421.893 1.391-.004Zm-15.43 16.895 6.991 10.161c.5.736 1.714.04 1.2-.7l-6.991-10.162c-.499-.735-1.709-.04-1.2.701Zm27.219 18.192c-.5-.645-1.26-.121-1.683.313a4.7 4.7 0 0 0-.812 1.24.932.932 0 0 0-.06.766.973.973 0 0 0 1.235.554 2.707 2.707 0 0 0 1.179-1.114c.267-.489.529-1.27.141-1.759Zm-13.468-6.502c-.5-.645-1.26-.121-1.684.313a2.63 2.63 0 0 0-.907 1.774.948.948 0 0 0 1.27.786 2.707 2.707 0 0 0 1.179-1.114c.268-.489.526-1.27.142-1.759Zm-6.451 178.284q3.372-3.417 6.623-6.956c.6-.66-.378-1.648-1.008-.983q-3.246 3.528-6.618 6.956c-.63.64.353 1.623.983 1.008Zm-3.212 1.25q-4 3.962-8.16 7.752a.7.7 0 0 0 .136 1.094l14.884 7.213 2.127 1.033.166-1.275-13.04 2.107-1.88.3.675 1.164 6.351-5.383c.685-.58-.3-1.557-.983-.983l-6.366 5.383c-.59.5.065 1.26.675 1.164l13.04-2.107 1.885-.3a.706.706 0 0 0 .166-1.275l-14.869-7.2-2.127-1.008.141 1.094q4.158-3.8 8.16-7.757a.704.704 0 1 0-.983-1.008Z"/>
  <path fill="#fff" d="M148.541 85.184a45.455 45.455 0 0 1 10.54-6.235"/>
  <path fill="#324958" d="M148.546 86.247a1.043 1.043 0 0 1-.645-1.865 46.594 46.594 0 0 1 10.771-6.371 1.044 1.044 0 0 1 .822 1.92 44.259 44.259 0 0 0-10.3 6.094 1.008 1.008 0 0 1-.648.222Zm29.657 4.728a1.054 1.054 0 0 1-.761-.333 22.557 22.557 0 0 1-5.842-11.4 1.044 1.044 0 1 1 2.067-.3 20.654 20.654 0 0 0 5.3 10.267 1.043 1.043 0 0 1-.761 1.759Zm-.1-7.631a.922.922 0 0 0-1.185.781 1.371 1.371 0 0 0 .62 1.235.675.675 0 0 0 .771.328 1.237 1.237 0 0 0-.206-2.344Zm-24.184-5.63a1.442 1.442 0 0 0-1.83-.323 1.341 1.341 0 0 0-.786 1.729 1.149 1.149 0 0 0 1.835.363h.045a1.865 1.865 0 0 0 .776-.7 1.069 1.069 0 0 0-.04-1.069Zm43.161 162.639c-3.589.817-7.268 1.134-10.847 2.016a.565.565 0 0 1-.736.287c-.111-.04-.227-.076-.328-.121a.756.756 0 0 1-.187-.091c-.559 0-1.069-.691-.539-1.164a63.318 63.318 0 0 0 5.484-5.489.716.716 0 0 1 .847-.111 42.657 42.657 0 0 0 6.477 3.407c.545.228.333 1.14-.171 1.266Z"/>
  <path fill="#324958" d="M198.593 241.215a1.008 1.008 0 0 1-.746-.318 1.043 1.043 0 0 1 0-1.477c.232-.227 23.246-22.682 30.076-31.815a1.048 1.048 0 1 1 1.673 1.255c-6.926 9.239-29.34 31.13-30.288 32.057a1.053 1.053 0 0 1-.715.298Zm-29.553 1.99a2.994 2.994 0 0 0-.973 3.221l7.339 23.514a2.913 2.913 0 0 0 5.66-.353 35.589 35.589 0 0 0 .388-6.225 128.928 128.928 0 0 1 .872-18.609l-7.026-.872v-5.766Zm81.842 54.422.655 9.713a2.611 2.611 0 0 0 1.7 2.273l17.773 6.553a2.621 2.621 0 0 0 2.228-.2 2.616 2.616 0 0 0 .6-4.032l-14.211-15.466-4.612 4.153Z"/>
  <path fill="#fff" d="M216.481 188.104c5.66 4.536 9.2 11.543 11.144 18.418a51.166 51.166 0 0 1 1.568 7.984c.1.877 1.512.887 1.391 0-.978-8.5-3.886-17.022-9.4-23.69a26.137 26.137 0 0 0-3.72-3.71c-.7-.554-1.683.423-1.008 1.008Z"/>
  <path fill="#964308" d="m151.616 163.281 1.351 4.627a.711.711 0 0 0 .857.5.7.7 0 0 0 .5-.852l-1.356-4.627a.7.7 0 1 0-1.341.368Z"/>
  <path fill="#f4f4f6" d="m261.159 227.511 103.767 4.179a2.848 2.848 0 0 1 2.782 2.792v20.953a2.853 2.853 0 0 1-3 2.792l-97.86-3.181a2.883 2.883 0 0 1-2.707-2.092l-5.912-21.951a2.823 2.823 0 0 1 2.929-3.493Z"/>
  <path fill="#324958" d="M364.825 259.275h-.131l-97.875-3.221a3.9 3.9 0 0 1-3.686-2.864l-5.912-21.936a3.72 3.72 0 0 1 .7-3.332 4 4 0 0 1 3.276-1.477l103.787 4.179a3.881 3.881 0 0 1 3.785 3.836v20.953a3.76 3.76 0 0 1-1.164 2.722 4 4 0 0 1-2.782 1.139Zm-103.792-30.722a1.855 1.855 0 0 0-1.477.7 1.653 1.653 0 0 0-.318 1.482l5.912 21.936a1.85 1.85 0 0 0 1.734 1.321l97.875 3.2a1.916 1.916 0 0 0 1.4-.529 1.688 1.688 0 0 0 .5-1.22v-20.962a1.794 1.794 0 0 0-1.774-1.749l-103.787-4.178h-.086Z"/>
  <path fill="#324958" d="M306.911 244.295c-.932-2.314-4.672-1.724-7.1-1.411a3.282 3.282 0 0 0-2.712 4.748 6.1 6.1 0 0 0 6.084 3.619c2.427-.312 4.655-4.647 3.728-6.956Z"/>
  <path fill="#324958" d="M302.561 252.334a7.167 7.167 0 0 1-6.432-4.31 4.6 4.6 0 0 1 .176-4.073 4.436 4.436 0 0 1 3.367-2.1l.3-.04c2.671-.348 6.709-.877 7.908 2.092.706 1.754.03 3.962-.837 5.449a5.509 5.509 0 0 1-3.725 2.934 5.439 5.439 0 0 1-.757.048Zm.65-8.71a23.922 23.922 0 0 0-2.974.257l-.3.04a2.384 2.384 0 0 0-1.83 1.089 2.52 2.52 0 0 0-.045 2.233 5.076 5.076 0 0 0 4.985 2.969 3.65 3.65 0 0 0 2.188-1.92 4.667 4.667 0 0 0 .7-3.609c-.33-.827-1.449-1.059-2.724-1.059Z"/>
  <ellipse cx="3.866" cy="5.01" fill="#f4f4f6" rx="3.866" ry="5.01" transform="rotate(-57.84 371.708 -143.33)"/>
  <path fill="#324958" d="M302.561 252.334a7.168 7.168 0 0 1-6.432-4.31 4.6 4.6 0 0 1 .176-4.073 4.436 4.436 0 0 1 3.367-2.1 7.107 7.107 0 0 1 7.193 4.259 4.6 4.6 0 0 1-.181 4.068 4.415 4.415 0 0 1-3.367 2.107 5.444 5.444 0 0 1-.756.05Zm-2.156-8.443a3.741 3.741 0 0 0-.473.03 2.384 2.384 0 0 0-1.831 1.089 2.52 2.52 0 0 0-.045 2.233 5.076 5.076 0 0 0 4.985 2.969 2.384 2.384 0 0 0 1.83-1.089 2.52 2.52 0 0 0 .045-2.233 5.131 5.131 0 0 0-4.511-2.999Z"/>
  <path fill="#324958" d="M301.684 242.289a4.37 4.37 0 0 1 2.994-3.362 5.484 5.484 0 0 1 4.965.842 6.275 6.275 0 0 1 2.4 6.432 2.9 2.9 0 0 1-2.6 2.233c-.877.106-.892 1.512 0 1.4a4.28 4.28 0 0 0 3.674-2.52 6.926 6.926 0 0 0 .252-4.229 7.312 7.312 0 0 0-8.463-5.686 5.847 5.847 0 0 0-4.536 4.506c-.161.877 1.18 1.25 1.341.368Z"/>
  <path fill="#fff" d="M270.282 137.412a1.048 1.048 0 0 1-.03-2.092c9.97-.272 19.8-.5 32.879-.68a1.044 1.044 0 1 1 0 2.087c-13.065.207-22.889.408-32.854.68Zm47.149-.67c-3.473 0-6.784-.025-9.99-.081a1.044 1.044 0 1 1 0-2.087c5.544.091 11.417.1 17.914.035a1.044 1.044 0 1 1 0 2.087c-2.708.031-5.364.046-7.924.046Zm67.153 17.092h-.025a1.048 1.048 0 0 1-1.008-1.069c.071-3.261.091-8.972.091-13.186a3.967 3.967 0 0 0-4.032-3.977c-9.637.2-27.334.554-37.637.8a1.069 1.069 0 0 1-1.069-1.008 1.043 1.043 0 0 1 1.008-1.069c10.308-.242 28.01-.6 37.642-.8a6.049 6.049 0 0 1 6.185 6.049c0 4.224-.025 9.95-.091 13.231a1.048 1.048 0 0 1-1.064 1.029Zm.05 37.032a1.048 1.048 0 0 1-1.058-1.043c0-10.535-.035-21.291-.076-31.977a1.043 1.043 0 0 1 1.043-1.048 1.048 1.048 0 0 1 1.048 1.043c.035 10.681.06 21.442.076 31.976a1.048 1.048 0 0 1-1.043 1.048Zm.01 15.505a1.043 1.043 0 0 1-1.043-1.043v-10.66a1.048 1.048 0 0 1 1.043-1.048 1.048 1.048 0 0 1 1.043 1.048v10.655a1.048 1.048 0 0 1-1.043 1.048Zm-.004 16.921a1.043 1.043 0 0 1-1.064-1.008V210.66a1.043 1.043 0 0 1 1.043-1.043 1.043 1.043 0 0 1 1.043 1.043v11.623a1.043 1.043 0 0 1-1.023 1.008Zm-.087 36.82a1.049 1.049 0 0 1-1.043-1.048q.045-12.6.066-25.2a1.048 1.048 0 0 1 1.048-1.043 1.053 1.053 0 0 1 1.043 1.048q0 12.6-.065 25.2a1.048 1.048 0 0 1-1.049 1.043Z"/>
</svg>