<svg xmlns="http://www.w3.org/2000/svg" viewBox="0 0 550.007 350">
  <path fill="#fff" d="M294.295 255.973c-5.79-18.77-19.071-33.093-38.558-18.11-5.79 4.435-9.263 11.33-14.949 15.84s-15.869 5.158-18.851-1.482c-2.4-5.344 1.5-11.3 5.4-15.672 10.155-11.382 22.128-21.937 27.385-36.254s.208-33.973-14.509-37.985c-13.988-3.809-27.066 7.891-36.474 18.914-19.476 22.77-39.826 48.742-69.272 54.289-28.126 5.3-58.764-12.888-67.6-40.11-3.254-9.975-8.215-37.927-23.4-29.243-13.843 7.926-9.535 36.133-5.79 47.856 1.928 6.033 4.365 12.083 4.3 18.428-.174 17.861-13.663 12-25.295 9.8-15.09-2.85-18.673 7.389-15.744 20.526 3.815 17.149 16.79 31.333 32.421 39.427 29.376 15.25 63.992 6.426 94.173 18.6 31.032 12.517 55 33.325 90.444 28.485 44.505-6.072 91.342-44.752 76.319-93.309Zm203.213-74.529a24.063 24.063 0 0 0-2.061 14.682 15.3 15.3 0 0 0 .938 3.144c1.441 3.566 4.006 6.206 6.947 8.991a21.623 21.623 0 0 1 6.45 10.541c2.414 9.42-.44 17.618-5.732 24.5-5.6 7.295-13.93 13.119-21.618 17.369q-6.073 3.37-12.424 6.154A155 155 0 0 1 421.7 279.29a129.023 129.023 0 0 1-30.841-.492c-8.991-1.361-18.168-4.4-24.762-10.954-2.941-2.924-5.529-6.947-5.3-11.278.208-3.717 2.669-6.432 5.564-8.5 4.3-3.051 8.783-5.517 12.61-9.263 2.148-2.1 5.384-4.915 5.5-8.065.1-3.283-3.149-5.517-5.564-7.254-7.584-5.46-16.408-7.619-25.1-10.56-4.632-1.569-9.263-4.14-11.405-8.511-3.207-6.5 1.453-15.481 8.615-16.61 8.684-1.366 17.606 6.253 25.955 8.105 13.316 2.93 27.825.093 40.33-4.771a148.828 148.828 0 0 0 34.834-19.75c10.728-8.076 20.142-17.913 32.375-23.83 8.013-3.885 18.857-4.73 25.04 2.854a12.818 12.818 0 0 1 2.976 10.033c-.648 3.989-3.306 7.156-6.039 9.958-3.347 3.463-6.852 6.6-8.98 11.042Z"/>
  <path fill="#324958" d="m467.616 160.573-6.942-7.121-66.493 60.68 5.778 5.708Z"/>
  <path fill="#f4f4f6" d="m35.93 29.944 19 54.665 164.031-68.867Z"/>
  <path fill="#fff" d="M72.306 72.74a3.474 3.474 0 0 0-2.049.637 87.058 87.058 0 0 0-17.021 13.617 41.859 41.859 0 0 0-9.263 14.688c-2.061 5.917-1.824 12.546-1.482 18.706.278 5.083.492 5.969 5.564 6.258 2.993.162 5.992.122 8.991.046 2.148-.058 4.7.168 6.751-.66 3.694-1.488 3.41-5.512 3.607-8.887.4-6.733.666-13.5 1.928-20.142a56.765 56.765 0 0 1 2.461-9.153c1.094-2.895 3.149-5.6 3.92-8.586a5.645 5.645 0 0 0-.753-4.7 3.6 3.6 0 0 0-2.654-1.824Z"/>
  <path fill="#9ee6e1" d="M20.355 16.373 77.747 82.09a4.192 4.192 0 0 0 5.147.938c12.268-6.606 59.528-32 76.694-41.488 22.342-12.343 79.38-31.877 79.38-31.877a2.553 2.553 0 0 0-1.129-4.857A1059.46 1059.46 0 0 0 103.25.579c-25.092.9-61.566 4.192-79.334 6.438a5.674 5.674 0 0 0-3.561 9.356Z"/>
  <path fill="#f36f12" d="m173.252 302.024-2.09 13.316a2.079 2.079 0 0 0 2.049 2.4h30.482a2.084 2.084 0 0 0 1.737-3.26 10.3 10.3 0 0 0-4.915-3.514c-5.211-2.055-18.764-8.036-24.357-10.514a2.073 2.073 0 0 0-2.906 1.569Z"/>
  <path fill="#1b6964" d="M201.928 10.01s-40.232-3.063-89.495 5.732c-28.48 5.1-75.38 19.539-75.38 19.539l17.855 49.327 15.325-11.232-18.272-22.11s49.7-22.579 67.083-27.79c39.92-11.961 82.884-13.466 82.884-13.466Z"/>
  <path fill="#f36f12" d="m86.953 247.573-7.057-9.663a1.841 1.841 0 0 0-2.791-.22l-19.117 19.135a1.847 1.847 0 0 0 .967 3.121 8.994 8.994 0 0 0 5.286-.88c4.562-1.98 16.824-6.733 21.89-8.684a1.835 1.835 0 0 0 .822-2.808Z"/>
  <path fill="#324958" d="M166.235 184.107s10.577 112.717-82.484 69.88l4.828-7.526s13.357-.069 21.543-1.621 23.812-5.517 23.812-5.517.666-32.45-8.76-54.717c-10.032-23.704 40.812-38.311 41.061-.499Z"/>
  <path fill="#4dd1c8" d="M107.008 62.145 64.403 97.519s-20.333 13.75-1.876 28.994l32.1-.394Z"/>
  <path fill="#324958" d="m88.783 208.886 55.1-5.732-3.341-24Z"/>
  <path fill="#4dd1c8" d="M180.009 167.718c2.27-8.192 7.023-16.39 13.686-21.919-23.43-62.035-86.693-83.647-86.693-83.647-27.894 23.262-13.692 60.055-13.692 60.055s5.344 20.113-10.832 45.859 6.3 40.822 6.3 40.822l44.336-18.555.162-.069 22.707-9.506 23.245-9.726c.247-1.137.485-2.249.781-3.314Z"/>
  <path fill="#4dd1c8" d="M181.93 130.12s-9.6-37.771-54.85-43.173c-8.354-1-29.671 1.511-22.313 25.2s47.081 41.627 79.954 28.948Z"/>
  <path fill="#fff" d="M181.931 142.424s3.555-15.933-10.549-32c0 0 6.334-11.979 11.267-17.317 0 0-4.794-1.737-1.806-6.154s8.337-4.278 10.635-2.49c0 0 9.176 27.639 2.5 52.025.001.024-6.916 6.393-12.047 5.936Z"/>
  <path fill="#324958" d="M160.909 145.781c-10.9 0-25.63-1.853-37.354-10.051a1.158 1.158 0 1 1 1.3-1.864c20.107 14.063 50.624 8.493 50.948 8.435a.851.851 0 0 1 .208 0c1.517 0 1.737-4.516 1.812-6.693.11-2.391.162-3.6 1.326-3.862s1.7.892 1.957 1.378a18.144 18.144 0 0 1 2.009 7.99c2.478-.5 7.752-1.9 9.773-4.962.307-3.016 3.011-31.75-2.351-50.844a8.25 8.25 0 0 0-5.853 0 4.829 4.829 0 0 0-3.474 4.394 2.217 2.217 0 0 0 1.772 2.362 1.158 1.158 0 0 1-.695 2.171 4.487 4.487 0 0 1-3.352-4.551 7.11 7.11 0 0 1 4.991-6.536 10.036 10.036 0 0 1 8.105.382 1.158 1.158 0 0 1 .509.66c5.952 20.5 2.681 51.174 2.536 52.471a1.156 1.156 0 0 1-.151.457c-3.08 5.153-12.482 6.426-12.882 6.479a1.134 1.134 0 0 1-1.279-1.239 16.433 16.433 0 0 0-.712-5.888c-.168 3.445-.614 7.984-3.937 8.105a89.594 89.594 0 0 1-15.206 1.206Z"/>
  <path fill="#324958" d="M183.135 121.141a1.158 1.158 0 0 1-.857-.382 51.991 51.991 0 0 0-11.458-9.321 1.158 1.158 0 0 1-.481-1.442 71.712 71.712 0 0 1 16.031-22.359 1.158 1.158 0 1 1 1.517 1.7 70.883 70.883 0 0 0-15.053 20.657 53.461 53.461 0 0 1 11.151 9.263 1.125 1.125 0 0 1-.851 1.882ZM44.498 126.93a1.158 1.158 0 0 1-.949-.51c-.22-.33-5.384-8.3-2.895-20.038 2.553-11.955 11.961-23.158 27.964-33.313a1.158 1.158 0 1 1 1.216 1.922c-15.412 9.79-24.484 20.5-26.921 31.8a26.319 26.319 0 0 0 2.246 17.849l16.79-.33a11.506 11.506 0 0 1-.376-14.283 1.14 1.14 0 0 1 2.009.834c0 .075-.509 8.036 5.558 11.371a1.158 1.158 0 0 1-1.1 2 13.1 13.1 0 0 1-6.368-9.066c-.481 2.426-.1 5.79 3.549 9.443a1.158 1.158 0 0 1-.782 1.951l-19.91.388Z"/>
  <path fill="#324958" d="M55.806 110.401a1.112 1.112 0 0 1-.428-.087 1.158 1.158 0 0 1-.625-1.471c4.5-11.035 21-21.734 21.705-22.186a1.158 1.158 0 0 1 1.233 1.916c-.168.1-16.6 10.763-20.842 21.126a1.158 1.158 0 0 1-1.043.702Z"/>
  <path fill="#324958" d="M69.637 94.224a1.158 1.158 0 0 1-1.042-1.6l5.442-12.372a1.158 1.158 0 0 1 2.084.921l-5.443 12.374a1.158 1.158 0 0 1-1.042.677Zm83.004 87.938.782-15.73 42.015-15.707a150.478 150.478 0 0 1 4.348 17.785c.973 5.656 2.131 22.3 2.131 22.3l-68.641-.55Z"/>
  <path fill="#324958" d="M195.449 150.725s25.092 79.282-14.659 152.885h-7.364s1.32-17.2.579-26.279c-1.013-12.424 2.75-23.581 3.514-30.36 1.158-10.045-8.841-35.044-19.105-59.91-2.5-6.033-1.059-27.159-1.059-27.159Z"/>
  <path fill="#f36f12" d="M196.266 153.422a40.183 40.183 0 0 0-2.762-8.105L153.695 161.4l-.434 8.476Z"/>
  <path fill="#324958" d="m195.415 153.729.851-.307a40.173 40.173 0 0 0-2.762-8.105l-3.184 1.285c1.714 2.351 3.433 4.715 5.095 7.127Zm-13.895 5.315 2.895-1.1q-1.442-3.9-3.04-7.746l-3.636 1.488c1.2 2.461 2.507 4.904 3.781 7.358Zm-16.387 6.265 3.283-1.256a1.132 1.132 0 0 1-.046-.15c-.793-2.443-1.853-4.9-2.605-7.4l-2.594 1.048a50.486 50.486 0 0 0 1.962 7.758Z"/>
  <path fill="#f36f12" d="m157.331 159.901-3.63 1.471-.434 8.476 3.694-1.413Z"/>
  <path fill="#fff" d="M189.978 253.079c-2.067 8.308-5.118 16.321-7.694 24.472-.3.932 1.158 1.332 1.459.4 2.582-8.152 5.633-16.159 7.7-24.467a.76.76 0 0 0-1.465-.405Zm2.999-43.173c.353 3.9.579 7.816.579 11.73.029 2.576.122 5.176.087 7.752-.029 1.992-.145 4.689-1.876 6.027-1.1.845-2.652.764-3.526 1.957a2.2 2.2 0 0 0 1.025 3.294c.816.388 1.783.347 2.559.811a2.576 2.576 0 0 1 1.239 1.974c.081 1.274-1.413 2.015-1.7 3.219-.232.949 1.233 1.355 1.465.405a3.05 3.05 0 0 1 .8-1.227 3.769 3.769 0 0 0 .892-1.615 3.931 3.931 0 0 0-1.349-3.647 4.458 4.458 0 0 0-1.934-.932c-.538-.127-2.055-.289-1.9-1.158.122-.683 1.239-.892 1.737-1.077a5.6 5.6 0 0 0 1.708-.915c1.772-1.447 2.2-3.92 2.316-6.073.139-2.449-.046-4.927-.041-7.376 0-4.394-.214-8.783-.608-13.16-.093-.961-1.61-.973-1.523 0Zm-2.194-15.429a164.588 164.588 0 0 1 1.679 10.63.787.787 0 0 0 .758.758.758.758 0 0 0 .758-.758q-.689-5.541-1.737-11.035c-.176-.956-1.643-.55-1.458.405Zm-6.792-25.422a195.064 195.064 0 0 1 5.79 20.57c.214.955 1.679.55 1.465-.4a194.8 194.8 0 0 0-5.79-20.576c-.313-.919-1.783-.527-1.465.406Z"/>
  <path fill="#fff" d="M197.632 166.536c-.787 6.878-3.509 13.519-8.6 18.289-.718.666.359 1.737 1.071 1.071 5.408-5.089 8.21-12.083 9.049-19.36.116-.967-1.407-.955-1.517 0Z"/>
  <path fill="#324958" d="M190.707 285.853h-18.509v17.982h10.815ZM85.355 245.054H99.69l-2.918 14.954-18.295-6.183Z"/>
  <path fill="#fff" d="M57.571 257.791a2.924 2.924 0 0 1-.382-3.323c3.613-7.578 11.984-15.672 21.033-16.547.382.116.9.342.961.672.324 1.737-5.651 6.253-10.456 9.9a100.518 100.518 0 0 0-11.156 9.298Z"/>
  <path fill="#f36f12" d="M78.159 238.692a1.612 1.612 0 0 1 .272.122c-.093.307-.579 1.227-2.8 3.236-1.939 1.737-4.562 3.729-7.341 5.842a112.147 112.147 0 0 0-10.549 8.684 2.252 2.252 0 0 1 .156-1.737c3.474-7.347 11.579-15.18 20.263-16.107m.168-1.54c-9.263.811-17.907 8.823-21.8 16.992a3.809 3.809 0 0 0 1.1 4.724c7.591-8.412 28.306-19.568 20.705-21.716Z"/>
  <path fill="#fff" d="m103.094 65.387 15.667-12.934 13.463 5.772 6.3 23.471Z"/>
  <path fill="#324958" d="M138.526 82.837a1.158 1.158 0 0 1-.475-.1l-35.432-16.309a1.158 1.158 0 0 1-.249-1.911l15.669-12.94a1.158 1.158 0 0 1 1.158-.168l13.455 5.79a1.158 1.158 0 0 1 .654.753l6.3 23.471a1.158 1.158 0 0 1-1.1 1.436Zm-33.307-17.722 31.576 14.532-5.529-20.593-12.314-5.277Z"/>
  <path fill="#9ee6e1" d="M102.307 66.047s18.527 20.13 44.429 21.555l-7.665-14.045-32.063-11.412Z"/>
  <path fill="#fff" d="M126.791 60.489c5.182 3.242 10.786 3.827 14.543.973 5.558-4.215 4.956-14.358-1.337-22.649s-18.851-13.831-24.4-9.616-3.474 16.987 4.284 24.9"/>
  <path fill="#324958" d="M135.516 64.426a17.948 17.948 0 0 1-9.35-2.97 1.158 1.158 0 0 1 1.2-1.934c4.944 3.092 10.022 3.474 13.252 1.031 5.052-3.827 4.352-13.276-1.558-21.051-6.131-8.076-18.063-13-22.805-9.4-1.945 1.476-2.518 4.012-2.652 5.882-.405 5.639 2.432 12.592 7.057 17.3a1.158 1.158 0 1 1-1.621 1.592c-5.06-5.147-8.157-12.806-7.706-19.065.243-3.346 1.465-5.952 3.543-7.526 6.328-4.811 19.586 1.389 26 9.842 6.664 8.777 7.167 19.684 1.123 24.247a10.578 10.578 0 0 1-6.483 2.052Z"/>
  <path fill="#324958" d="M131.886 21.734a12.228 12.228 0 0 1-14.908 9.79c-1.911 3.856.064 7.469 2.854 10.259a13.435 13.435 0 0 1 1.737 1.552.828.828 0 0 1-1.158 1.158c-1.274-1.036-3.323-2.4-4.383-.868a2.447 2.447 0 0 0 .139 2.472c.66 1.3 3.121 3.2 1.777 4.817-1 1.2-3.8-1.158-4.632-1.835a18.9 18.9 0 0 1-3.92-4.365 18.364 18.364 0 0 1-3.2-11.162 12.774 12.774 0 0 1 .544-2.895c1.343-4.186 4.458-5.558 8.019-7.469 5.089-2.733 2.484-7.9 5.847-11.44 5.703-5.993 12.106 4.862 11.284 9.986Zm-1.042 18.746a3.717 3.717 0 0 0-2.148-2.692 1.558 1.558 0 0 0-.579-.052c-1.922.156-1.534 2.188-.457 3.225.821.816 3.311 1.487 3.184-.481Zm4.307-5.558a3.7 3.7 0 0 0-2.148-2.686 1.691 1.691 0 0 0-.579-.058c-1.922.156-1.534 2.188-.457 3.225.85.816 3.34 1.487 3.184-.481Zm-10.879 10.427a1.042 1.042 0 0 0-.99 1.361c.417 1.32.741 3.781.064 8.105-1.2 7.717 7.138 17.154 19.366 20.107 13.079 3.155 24.9-5.882 21.109-15.163-3.827-9.391-13.976-1.285-18.706-14.237-4.261-11.649-13.947 2.316-13.142 6.982 0 0-3.034 1.581-6.751-6.536a1.048 1.048 0 0 0-.949-.619Z"/>
  <path fill="#fff" d="M139.215 44.255c-.625-.394-1.447-.324-2.252.579a7.167 7.167 0 0 0-1.418 3.057c-.284 1.274-.469 6.641 2.316 4.8 1.882-1.251 2.351-3.977 2.432-6.067a2.686 2.686 0 0 0-1.078-2.369Z"/>
  <path fill="#324958" d="M136.824 54.219a2.073 2.073 0 0 1-1.158-.359c-2.044-1.4-1.233-6.16-1.227-6.206a8.51 8.51 0 0 1 1.685-3.561 2.788 2.788 0 0 1 3.711-.8 3.815 3.815 0 0 1 1.6 3.393c-.145 3.422-1.158 5.79-2.941 6.947a3.016 3.016 0 0 1-1.67.586Zm1.633-9.061c-.174 0-.388.145-.637.428a5.945 5.945 0 0 0-1.158 2.547 7.43 7.43 0 0 0 .237 3.781 1.407 1.407 0 0 0 .324-.174c1.459-.967 1.853-3.341 1.928-5.164a1.615 1.615 0 0 0-.533-1.372.289.289 0 0 0-.161-.046Z"/>
  <path fill="#fff" d="M140.685 42.259c-.266.579-.116 1.285.758 1.882a6.311 6.311 0 0 0 2.791.892c1.158.1 5.79-.324 3.891-2.518-1.285-1.482-3.688-1.586-5.5-1.436a2.351 2.351 0 0 0-1.94 1.181Z"/>
  <path fill="#324958" d="M144.507 46.172h-.393a7.486 7.486 0 0 1-3.323-1.088 2.574 2.574 0 0 1-1.158-3.3 3.474 3.474 0 0 1 2.895-1.829c3.016-.261 5.211.353 6.455 1.824a2.21 2.21 0 0 1 .509 2.576c-.869 1.66-3.896 1.817-4.985 1.817Zm-.718-4.006a8.2 8.2 0 0 0-1.083.046 1.262 1.262 0 0 0-1 .527c-.075.151.289.405.359.457a5.118 5.118 0 0 0 2.258.7 7.04 7.04 0 0 0 3.022-.515 1.305 1.305 0 0 0-.1-.122 4.6 4.6 0 0 0-3.456-1.094Zm-3.1.1Z"/>
  <path fill="#f4f4f6" d="M140.31 40.017a27.567 27.567 0 0 0-3.6-1.488c-1.088-.446-3.41-.515-2.5 1.343a7.4 7.4 0 0 0 5.309 3.81c3.122.377 3.122-2.292.791-3.665Z"/>
  <path fill="#324958" d="M384.044 257.055a1.158 1.158 0 0 1-.973-1.737l47.359-78.611a1.158 1.158 0 0 1 .978-.55h15.416a1.158 1.158 0 0 1 1.048.683l26.093 60.5a1.158 1.158 0 0 1-2.1.9l-25.792-59.823h-14.022l-47.046 78.055a1.158 1.158 0 0 1-.961.583Z"/>
  <path fill="#324958" d="M438.668 262.846a1.158 1.158 0 0 1-1.158-1.042l-7.237-84.423a1.158 1.158 0 0 1 2.27-.2l7.26 84.429a1.158 1.158 0 0 1-1.036 1.233Z"/>
  <ellipse cx="45.112" cy="30.227" fill="#324958" rx="45.112" ry="30.227" transform="rotate(-39.3 460.667 -432.798)"/>
  <ellipse cx="45.112" cy="30.227" fill="#9ee6e1" rx="45.112" ry="30.227" transform="rotate(-39.3 452.595 -428.963)"/>
  <ellipse cx="37.377" cy="25.046" fill="#4dd1c8" rx="37.377" ry="25.046" transform="rotate(-39.3 455.984 -442.384)"/>
  <ellipse cx="27.969" cy="18.741" fill="#1b6964" rx="27.969" ry="18.741" transform="rotate(-39.3 459.359 -457.283)"/>
  <ellipse cx="14.821" cy="9.929" fill="#f36f12" rx="14.821" ry="9.929" transform="rotate(-39.3 463.087 -479.376)"/>
  <path fill="#fff" d="M422.058 182.371a1.158 1.158 0 0 1-.51-.122 84.311 84.311 0 0 1-6.716-3.746 1.158 1.158 0 0 1 1.2-1.934 83.387 83.387 0 0 0 6.536 3.642 1.158 1.158 0 0 1-.509 2.159Zm-12.87-8a1.106 1.106 0 0 1-.689-.237 70.975 70.975 0 0 1-5.853-5.008 1.158 1.158 0 1 1 1.569-1.644 69.488 69.488 0 0 0 5.668 4.846 1.158 1.158 0 0 1-.695 2.044Zm-10.937-10.467a1.158 1.158 0 0 1-.88-.405 66.994 66.994 0 0 1-4.585-6.206 1.158 1.158 0 0 1 1.911-1.245 63.18 63.18 0 0 0 4.429 5.992 1.158 1.158 0 0 1-.874 1.864Zm-108.4-10.635a42.038 42.038 0 0 1-7.752-.764 1.158 1.158 0 0 1 .434-2.235 40.027 40.027 0 0 0 7.335.724 1.158 1.158 0 0 1 0 2.275Zm7.526-.672a1.158 1.158 0 0 1-.2-2.264 45.3 45.3 0 0 0 7.138-1.928 1.158 1.158 0 0 1 .793 2.125 48.366 48.366 0 0 1-7.527 2.044 1.274 1.274 0 0 1-.185.023Zm92.563-1.389a1.158 1.158 0 0 1-1.025-.637 66.918 66.918 0 0 1-3.011-7.1 1.158 1.158 0 1 1 2.142-.77 64.151 64.151 0 0 0 2.895 6.861 1.158 1.158 0 0 1-1.019 1.644ZM377.093 151a1.158 1.158 0 0 1-.1-2.27 27.614 27.614 0 0 0 7.075-1.644 1.158 1.158 0 1 1 .793 2.131 29.385 29.385 0 0 1-7.665 1.777Zm-7.526-.481a.916.916 0 0 1-.249-.029 26.719 26.719 0 0 1-7.353-2.854 1.158 1.158 0 0 1 1.123-1.986 24.559 24.559 0 0 0 6.727 2.628 1.158 1.158 0 0 1-.243 2.246Zm-94.538-.139a1.107 1.107 0 0 1-.423-.087 37.007 37.007 0 0 1-6.9-3.665 1.158 1.158 0 1 1 1.274-1.882 35.265 35.265 0 0 0 6.484 3.468 1.158 1.158 0 0 1-.428 2.194Zm36.607-2.837a1.158 1.158 0 0 1-.533-2.148 58.5 58.5 0 0 0 6.322-3.914 1.158 1.158 0 1 1 1.314 1.853 60.227 60.227 0 0 1-6.571 4.053 1.157 1.157 0 0 1-.527.156Zm79.612-1.644a1.158 1.158 0 0 1-.614-2.1 44.2 44.2 0 0 0 5.436-4.1l.434-.388a1.158 1.158 0 1 1 1.523 1.691l-.452.405a46.319 46.319 0 0 1-5.72 4.319 1.112 1.112 0 0 1-.608.179Zm-34.616-2.837a1.158 1.158 0 0 1-.834-.365 36.779 36.779 0 0 1-4.632-6.3 1.158 1.158 0 0 1 1.957-1.158 34.692 34.692 0 0 0 4.33 5.917 1.158 1.158 0 0 1-.834 1.911Zm-94-1.158a1.158 1.158 0 0 1-.84-.376 31.119 31.119 0 0 1-2.6-3.271 30.109 30.109 0 0 1-1.9-3.178 1.158 1.158 0 1 1 2.021-1.042 28.594 28.594 0 0 0 1.737 2.93 29.3 29.3 0 0 0 2.408 3.034 1.158 1.158 0 0 1-.081 1.609 1.123 1.123 0 0 1-.758.272Zm61.369-3.08a1.158 1.158 0 0 1-.764-1.986 70.963 70.963 0 0 0 5.28-5.28 1.158 1.158 0 1 1 1.691 1.523 73.391 73.391 0 0 1-5.448 5.454 1.158 1.158 0 0 1-.747.266Zm60.831-1.853a1.158 1.158 0 0 1-1.1-.915 75.019 75.019 0 0 1-1.378-7.526 1.158 1.158 0 1 1 2.258-.3 71.724 71.724 0 0 0 1.337 7.341 1.158 1.158 0 0 1-.845 1.372 1 1 0 0 1-.26 0Zm17.7-1.117a1.123 1.123 0 0 1-.735-.278 1.158 1.158 0 0 1-.127-1.6 74.968 74.968 0 0 0 4.568-5.911 1.158 1.158 0 0 1 1.87 1.3 79.692 79.692 0 0 1-4.707 6.091 1.158 1.158 0 0 1-.857.376Zm-53.843-5.627a1.158 1.158 0 0 1-1.036-.666 247.095 247.095 0 0 1-2.408-5.494l-.637-1.482a1.158 1.158 0 1 1 2.09-.9l.643 1.488c.77 1.8 1.563 3.659 2.385 5.448a1.158 1.158 0 0 1-.579 1.505 1.065 1.065 0 0 1-.469.081Zm-92.986-1.644a1.158 1.158 0 0 1-1.106-.88 34.623 34.623 0 0 1-.868-7.781 1.158 1.158 0 0 1 1.158-1.158 1.158 1.158 0 0 1 1.158 1.158 32.484 32.484 0 0 0 .811 7.272 1.158 1.158 0 0 1-.9 1.337 1 1 0 0 1-.26.029Zm78.448-1.019a1.094 1.094 0 0 1-.666-.22 1.158 1.158 0 0 1-.255-1.586 73.543 73.543 0 0 0 4.058-6.263 1.158 1.158 0 1 1 1.968 1.158 75.22 75.22 0 0 1-4.2 6.455 1.158 1.158 0 0 1-.909.434Zm77.117-4.116a1.158 1.158 0 0 1-.984-1.737 98.591 98.591 0 0 0 3.508-6.635 1.158 1.158 0 1 1 2.049.984 98 98 0 0 1-3.589 6.791 1.158 1.158 0 0 1-1 .573Zm-28.369-1.494a1.158 1.158 0 0 1-1.158-1.1 75.98 75.98 0 0 1-.052-2.837c0-1.592.046-3.225.139-4.852a1.158 1.158 0 0 1 2.269.127 86.544 86.544 0 0 0-.127 4.724c0 .926 0 1.853.046 2.762a1.158 1.158 0 0 1-1.1 1.158Zm-40.411-5.581a1.158 1.158 0 0 1-1.019-.625 64.387 64.387 0 0 0-3.729-6.455 1.158 1.158 0 1 1 1.9-1.251q.973 1.476 1.87 3.016a81.595 81.595 0 0 0 1.969-5.141 1.158 1.158 0 1 1 2.154.735 88.748 88.748 0 0 1-2.733 6.913c.2.382.405.77.579 1.158a1.158 1.158 0 0 1-1.013 1.65Zm-86.843-2.843a1.129 1.129 0 0 1-1.112-1.372 38.218 38.218 0 0 1 2.38-7.434 1.158 1.158 0 1 1 2.084.909 36.34 36.34 0 0 0-2.241 6.994 1.158 1.158 0 0 1-1.112.851Zm162.189-3.746a1.146 1.146 0 0 1-1.065-1.552c.654-1.7 1.268-3.439 1.812-5.095.2-.637.388-1.3.538-1.98a1.158 1.158 0 0 1 2.223.509c-.174.735-.37 1.465-.579 2.165a83.88 83.88 0 0 1-1.841 5.211 1.158 1.158 0 0 1-1.088.712Zm-34.158-2.964a.711.711 0 0 1-.156 0 1.158 1.158 0 0 1-.973-1.279 96.217 96.217 0 0 1 1.326-7.595 1.158 1.158 0 1 1 2.217.509c-.2.892-.394 1.824-.579 2.779a98.311 98.311 0 0 0-.735 4.591 1.158 1.158 0 0 1-1.1.961Zm-49.506-3.1a1.157 1.157 0 0 1-.874-.411 62.056 62.056 0 0 0-5.118-5.4 1.158 1.158 0 1 1 1.552-1.667 64.251 64.251 0 0 1 5.315 5.61 1.158 1.158 0 0 1-.145 1.6 1.112 1.112 0 0 1-.73.237Zm12.494-3.584a1.329 1.329 0 0 1-.26-.029 1.158 1.158 0 0 1-.845-1.372 75.628 75.628 0 0 0 1.366-7.347 1.158 1.158 0 1 1 2.252.307 78.654 78.654 0 0 1-1.407 7.567 1.158 1.158 0 0 1-1.106.845Zm-84.979-.428a1.158 1.158 0 0 1-.926-1.806 35.008 35.008 0 0 1 3.532-4.163 50.009 50.009 0 0 1 1.737-1.633 1.158 1.158 0 0 1 1.511 1.708 27.51 27.51 0 0 0-1.633 1.534 32.316 32.316 0 0 0-3.294 3.885 1.158 1.158 0 0 1-.926.475Zm159.213-4.69a1.158 1.158 0 0 1-1.158-1.094 28.085 28.085 0 0 0-1.158-7.185 1.158 1.158 0 0 1 2.177-.66 30.244 30.244 0 0 1 1.279 7.758 1.158 1.158 0 0 1-1.1 1.158Zm-97.843-1.638a1.111 1.111 0 0 1-.66-.214 53.31 53.31 0 0 0-6.328-3.879 1.158 1.158 0 0 1 1.048-2.021 55.442 55.442 0 0 1 6.6 4.053 1.158 1.158 0 0 1-.66 2.067Zm64.189-1.32a1.273 1.273 0 0 1-.428-.081 1.158 1.158 0 0 1-.625-1.488 32.859 32.859 0 0 1 3.763-6.884 1.158 1.158 0 1 1 1.841 1.337 30.345 30.345 0 0 0-3.474 6.409 1.158 1.158 0 0 1-1.075.701Zm-114.29-2.38a1.158 1.158 0 0 1-.579-2.125 42.264 42.264 0 0 1 7.081-3.236 1.158 1.158 0 1 1 .753 2.148 39.719 39.719 0 0 0-6.7 3.063 1.158 1.158 0 0 1-.555.15Zm36.7-3.248a1.159 1.159 0 0 1-.365-.064c-.284-.093-.579-.191-.857-.278a43.264 43.264 0 0 0-6.316-1.505 1.158 1.158 0 0 1 .365-2.246 46.309 46.309 0 0 1 6.646 1.609c.3.093.579.191.9.3a1.158 1.158 0 0 1-.37 2.217Zm39.051-1.326h-.041a1.158 1.158 0 0 1-1.1-1.158 72.475 72.475 0 0 0-.104-7.474 1.158 1.158 0 0 1 2.275-.145c.1 1.621.156 3.271.156 4.9 0 .921 0 1.864-.052 2.8a1.158 1.158 0 0 1-1.135 1.077Zm-61.543-.457a1.158 1.158 0 0 1-.185-2.264 47.243 47.243 0 0 1 7.741-.654 1.158 1.158 0 0 1 0 2.275 45.989 45.989 0 0 0-7.37.625Zm129.142-3.867a1.158 1.158 0 0 1-.9-.446 11.2 11.2 0 0 0-5.448-4.053 1.158 1.158 0 0 1 .695-2.171 13.461 13.461 0 0 1 6.56 4.828 1.149 1.149 0 0 1-.88 1.841Zm-20.119-.7a1.158 1.158 0 0 1-.677-2.055 24.394 24.394 0 0 1 6.988-3.74 1.158 1.158 0 1 1 .689 2.171 22.147 22.147 0 0 0-6.322 3.4 1.159 1.159 0 0 1-.654.226Zm-48.493-10.115a1.158 1.158 0 0 1-1.123-.944 69.1 69.1 0 0 0-1.656-7.277 1.158 1.158 0 0 1 2.188-.625 72.492 72.492 0 0 1 1.737 7.526 1.158 1.158 0 0 1-.932 1.314 1.12 1.12 0 0 1-.191.006Zm-4.177-14.555a1.158 1.158 0 0 1-1.054-.706 62.811 62.811 0 0 0-3.248-6.7 1.158 1.158 0 1 1 2.002-1.111 64.582 64.582 0 0 1 3.364 6.947 1.125 1.125 0 0 1-1.048 1.569Zm-7.4-13.223a1.117 1.117 0 0 1-.9-.452 68.266 68.266 0 0 0-4.724-5.79 1.158 1.158 0 0 1 1.679-1.534 70.7 70.7 0 0 1 4.857 5.934 1.158 1.158 0 0 1-.915 1.841Zm-10.166-11.18a1.158 1.158 0 0 1-.753-.284 73.536 73.536 0 0 0-5.836-4.632 1.158 1.158 0 0 1 1.332-1.847 76.948 76.948 0 0 1 6.015 4.8 1.158 1.158 0 0 1-.759 1.963Zm-12.274-8.875a1.158 1.158 0 0 1-.579-.156 87.003 87.003 0 0 0-6.612-3.52 1.158 1.158 0 0 1 .984-2.055c2.316 1.123 4.632 2.316 6.785 3.613a1.158 1.158 0 0 1 .4 1.557 1.123 1.123 0 0 1-1 .562Zm-13.681-6.583a1.158 1.158 0 0 1-.417-.081 99.883 99.883 0 0 0-7.092-2.478 1.158 1.158 0 1 1 .677-2.171c2.472.77 4.91 1.621 7.243 2.53a1.158 1.158 0 0 1-.411 2.2Zm-14.474-4.527a1.065 1.065 0 0 1-.272-.035 132.42 132.42 0 0 0-7.358-1.557 1.158 1.158 0 1 1 .405-2.241c2.53.457 5.054 1 7.492 1.586a1.158 1.158 0 0 1-.266 2.246Zm-14.922-2.729h-.145a131.174 131.174 0 0 0-7.492-.753 1.158 1.158 0 0 1 .168-2.27c2.553.191 5.112.446 7.608.764a1.158 1.158 0 0 1-.139 2.27Zm-15.134-1.158h-.029a141.981 141.981 0 0 0-7.526 0h-.029a1.158 1.158 0 0 1 0-2.275c2.53-.058 5.095-.058 7.642 0a1.158 1.158 0 0 1-.029 2.281Z"/>
  <path fill="#eee" d="m541.901 185.661-14.086 3.034 10.242 4.226a344.944 344.944 0 0 1-10.485 18.063l-7.769-5.9 1.569 15.429a268.457 268.457 0 0 1-17.27 22.782c5.292-6.878 8.146-15.053 5.732-24.5a21.624 21.624 0 0 0-6.45-10.543c-2.964-2.785-5.529-5.425-6.948-8.991a100.554 100.554 0 0 1 53.571-29.949q-4.03 8.407-8.106 16.349Z"/>
  <path fill="#f4f4f6" d="M504.073 243.3a47.078 47.078 0 0 1-2.42 2.895l-5.27-13.125-5.211 22.174a95.755 95.755 0 0 1-8.736 5.436q-6.073 3.37-12.424 6.154c1.667-21.491 10.537-49.79 24.843-65.908.5-.579 1-1.112 1.511-1.65 1.442 3.566 4.006 6.206 6.947 8.991a21.624 21.624 0 0 1 6.45 10.543c2.456 9.414-.398 17.612-5.69 24.49Zm-58.191 12.65c-3.109-2.385-6.125-3.943-10.149-3.439-5.257.648-9.842 4.116-13.745 7.469l-.5.417a382.075 382.075 0 0 1-.7-5.871.973.973 0 0 1-1.042-1.575l.8-.787c-.151-1.43-.307-2.866-.44-4.3-.255.29-.521.579-.776.863-.828.926-2.183-.434-1.361-1.355a89.17 89.17 0 0 1 1.911-2.1 266.157 266.157 0 0 1-.579-7.729.724.724 0 0 0-1.221-.5c-5.616 6.432-7.6 17.369-4.776 26.007a71.033 71.033 0 0 0-9.263-5.367.718.718 0 0 0-.973.973c4.846 10.456 18.527 18.926 29.77 13.264 3.016-1.517 5.628-3.028 9.084-3.427a44.115 44.115 0 0 0 6.177-.683c1.737-.463 4.689-1.609 4.892-3.688.261-3.066-5.135-6.655-7.109-8.172Z"/>
  <path fill="#fff" d="M110.005 121.829a1.158 1.158 0 0 1-.95-.5 22.521 22.521 0 0 1-2.675-19.227 22.95 22.95 0 0 1 13.368-14.578 1.158 1.158 0 0 1 .845 2.113 20.657 20.657 0 0 0-12.036 13.142 20.223 20.223 0 0 0 2.4 17.288 1.158 1.158 0 0 1-.949 1.766Z"/>
</svg>