<svg xmlns="http://www.w3.org/2000/svg" width="450.814" height="398.207" viewBox="0 0 450.814 398.207"><g transform="translate(17786.504 -22711.736)"><path d="M429.157,82.856c-18.261-9.317-40.116-9.995-60.21-12.136L297,63.06c-27.251-2.9-55.023-3.515-81.545-10.895-20.151-5.6-36.066-15.508-51.731-28.629C149.077,11.268,135.534-.446,114.933.013,87.043.634,49.816,14.977,43.99,44.833c-1.606,8.242.436,16.039,4.372,23.376,4.8,8.943,11.368,17.218,12.041,27.639.682,10.521-3.832,20.312-11.8,27.351-7.389,6.551-16.418,11.018-24.21,17.038C10.315,151.133-1.475,166.651.15,184.944c1.539,17.384,15.7,28.179,32.878,30.107C54.344,217.42,74.713,207,94.821,201.968c22.822-5.684,46.895-7.934,70.228-4.145,20.425,3.316,39.69,11.032,58.689,18.729,19.151,7.759,38.477,15.745,59.007,19.383a131.552,131.552,0,0,0,61.546-3.7c15.774-4.851,36.142-13.107,42.016-29.634,3.363-9.474.739-19.563.1-29.241-.673-10.251,1.952-19.989,9.384-27.573,13.509-13.794,37.568-9.123,49.874-24.257,11.871-14.585-3-31.8-16.513-38.672Z" transform="translate(-17786.504 22871.965)" fill="#f6f6f6"/><ellipse cx="8.39" cy="5.225" rx="8.39" ry="5.225" transform="translate(-17424.77 22742.773) rotate(-75.66)" fill="#fff"/><path d="M12.315,9c.4-3.324-.38-9-4.84-9C3.165,0,.668,5.318.133,8.9c-.483,3.242.216,8.508,4.29,9.063,4.593.622,7.193-5.164,7.861-8.734.18-.966-1.3-1.382-1.48-.411-.514,2.708-1.9,6.746-4.948,7.532-4.028,1.028-4.593-4.588-4.187-7.224S3.8,1.932,7.028,1.629c3.812-.39,4.064,4.773,3.751,7.393-.118.961,1.418.951,1.536-.021Z" transform="translate(-17423.816 22726.953)" fill="#324958"/><path d="M46.569,41.465,46.23,29.134h8.734L46.934,6.379A9.562,9.562,0,0,0,37.686,0L17.751,2.377,0,4.329,14.478,24.315l-2.425,9.762Z" transform="translate(-17448.467 22745.051)" fill="#fff"/><path d="M2.559,12.29C3.694,12.141,21.964.473,44.6.01c31.577-.683,58.911,33.072,58.911,33.072L36.992,24.4,0,19.58Z" transform="translate(-17586.996 22744.252)" fill="#324958"/><path d="M6.869,0,0,9.541l28.361,7S18.27,5.965,6.869,0Z" transform="translate(-17516.393 22755.756)" fill="#fff"/><path d="M6.967.381.1,9.912a.776.776,0,0,0,.457,1.13l28.361,7a.776.776,0,0,0,.75-1.284A87.8,87.8,0,0,0,8.02.1c-.873-.468-1.649.858-.776,1.326A86.316,86.316,0,0,1,28.581,17.865l.75-1.284-28.361-7,.457,1.125L8.3,1.177c.575-.822-.755-1.593-1.331-.8Z" transform="translate(-17517.158 22754.984)" fill="#324958"/><g transform="translate(-17727.836 22990.086)"><path d="M18.6,47.679,20.372,0,3.124.139,0,43.857Z" transform="translate(14.067 6.568)" fill="#324958"/><ellipse cx="8.626" cy="6.566" rx="8.626" ry="6.566" transform="translate(17.16 0.123) rotate(-0.41)" fill="#324958"/><path d="M36.155,0,10.7,7.594a8.894,8.894,0,0,0-6.3,7.568L0,56.095,15.706,61.9l47.91-19.616S49.287,3.838,36.155,0Z" transform="translate(0 42.82)" fill="#324958"/><path d="M33.447,8.725c0-.848-.514-6.165-1.028-6.91-2.132-3.232-7.635-1.269-15.28-.74C9.186,1.63,2,1.152.148,4.872c-.334.668,0,4.958,0,5.652.355,13.708,33.663,10.692,33.3-1.8Z" transform="translate(170.068 86.635)" fill="#f4f4f6"/></g><path d="M41.344,41.992,14.941,0,0,8.359,26.922,48.907Z" transform="translate(-17728.912 22995.207)" fill="#4dd1c8"/><path d="M31.644,7.166c0-4.568-7.224-7.738-16.133-7.08S0,5.281,0,9.848C0,21.979,31.644,17.981,31.644,7.166Z" transform="translate(-17556.99 23072.059)" fill="#324958"/><ellipse cx="12.233" cy="11.858" rx="12.233" ry="11.858" transform="translate(-17699.803 23051.141)" fill="#fff"/><path d="M2.148,257.421,0,17.628C-.092,7.239,9.13-.94,19.8.087L98.545,7.578l79.364,7.527L322.549,28.88a9.914,9.914,0,0,1,3.951,1.243,9.336,9.336,0,0,1,4.793,8.1l.041,133.666a9.428,9.428,0,0,1-6.725,8.945L25.695,273.909a18.6,18.6,0,0,1-5.543.85C10.617,274.758,2.239,267.312,2.148,257.421Z" transform="translate(-17668.422 22774.965)" fill="#f4f4f6"/><path d="M.946,83.518l26.239-8.169L90.191,55.732,166.138,32.1,231.815,11.65,253.61,4.863a103.1,103.1,0,0,0,10.276-3.206c.139-.062.293-.092.432-.139.94-.293.514-1.773-.406-1.48L237.693,8.182,174.688,27.813,98.745,51.447,33.063,71.891l-21.79,6.787A105.4,105.4,0,0,0,.967,81.884a3,3,0,0,1-.432.134C-.4,82.316,0,83.8.946,83.5Z" transform="translate(-17607.953 22955.033)" fill="#324958"/><path d="M13.841,0c5.333,19.467,28.726,35.734,25.551,43.867C35.631,53.506,14.854,53.567,0,51.795l3.036,6.993s37.193,8.668,50.937-7.969,6.1-44.4,6.1-44.4Z" transform="translate(-17709.123 23038.924)" fill="#324958"/><path d="M0,0,69.171,55.2s7.779,17.777,5.04,34.829c-5.04,31.382,30.894,58.058-.072,78.779" transform="translate(-17624.561 22907.395)" fill="none" stroke="#324958" stroke-miterlimit="10" stroke-width="4"/><path d="M.256,1.26,58.894,47.881c.909.724,1.8,1.588,2.78,2.214.873.555,1.87.9,2.749,1.5,9.6,6.489,8.765,20.1,8.734,30.226,0,6.941-.2,13.918.627,20.829a64.993,64.993,0,0,0,4.783,17.14,144.284,144.284,0,0,1,5.313,15.2c1.356,4.758,3.211,10.594,1.716,15.516-2.014,6.618-7.193,10.373-12.2,14.571-3.031,2.569-7.034,6.736-3.946,10.789,2.081,2.713,5.729,3.53,8.93,3.992a31.788,31.788,0,0,0,11.2-.39c5.076-1.089,11.565-3.71,11.992-9.675l-1.505.2.755,5.035a18.263,18.263,0,0,1,.349,2.656c-.277,2.312-2.322,4.29-4.264,5.42-5.318,3.083-13.194,3.448-19.056,2.055-4.11-.951-7.522-3.442-8.221-7.768a16.558,16.558,0,0,1,.57-6.35c.185-.817-.971-1.387-1.4-.591-.473.873.858,1.649,1.331.776l-1.418-.56c-1.377,6.242-.514,12.47,6.165,15.2,6.165,2.512,14.7,2.055,20.788-.442,3-1.228,5.939-3.427,6.849-6.679a4.866,4.866,0,0,0,.108-2.122c-.288-2.358-.719-4.706-1.074-7.054-.139-.9-1.454-.606-1.511.205-.514,7.4-12.29,8.971-17.844,8.847-3.5-.077-8.138-.462-10.82-2.959s-1.192-5.256.915-7.465c3.329-3.483,7.563-5.724,10.553-9.577s5.138-8.221,4.722-13.23c-.76-9.572-4.624-19.128-8.3-27.9-5.41-12.845-4.465-26.532-4.562-40.157-.067-9.33-.545-20.192-8.611-26.424A14.458,14.458,0,0,0,63.8,49.433c-.236-.118-1.726-.853-.94-.355a24.235,24.235,0,0,1-2.019-1.6L29.7,22.716,1.35.181C.584-.43-.51.649.266,1.266Z" transform="translate(-17626.059 22909.441)" fill="#f4f4f6"/><path d="M.158,18.373S-3.32,45.511,22.333,40.82C40.609,37.48,49.05,18.455,59.228,20.546c0,0-9.921,6.941-14.859,34.09-.2,1.058,5.914-.565,6.227-1.593,6.278-20.67,30.39-32.5,25.34-47.078C69.463-12.691.158,18.373.158,18.373Z" transform="translate(-17666.889 23028.664)" fill="#324958"/><path d="M0,59.666l52.077-5.677L69.068,11.915,81.25,7.845s-2.5-5.975-8.39-4l-5.919,1.1L70.142,0A11.5,11.5,0,0,0,63.8,7.635L44.792,31.952,36.057,29.09" transform="translate(-17630.652 22955.629)" fill="#fff"/><path d="M0,48.953S3.36,31.536,24.1,16.071L62.553.421a5.749,5.749,0,0,1,5.138.411c1.747,1.053,3.535,3.283,6.314,3.812,5.061.961.046,2.507-3.134,2.456-2.826-.041-9.207-1.7-9.207-1.7S48,17.222,35.2,21.111c0,0-3.463,11.144-6.242,24.9" transform="translate(-17695.045 22902.961)" fill="#fff" stroke="#324958" stroke-linecap="round" stroke-linejoin="round" stroke-miterlimit="10" stroke-width="2"/><path d="M8.539,96.5S-8.416,54.48,5.456,5.922c0,0,14.386-9.145,31.608-4.706l.272,9.315C35.282,11.687,106.9,35.655,106.9,35.655s2.99,20.885-5.081,28.587l-10.091,2.25-9.633,21.25a35.318,35.318,0,0,1-27.118,20.551C43.23,109.917,27.246,108.288,8.539,96.5Z" transform="translate(-17701.998 22947.725)" fill="#4dd1c8"/><g transform="translate(-17728.492 22908.125)"><path d="M11.4,1.2A7.46,7.46,0,0,0,8.118.557,26.717,26.717,0,0,1,3.453.043,3.036,3.036,0,0,0,.1,1.862c-.488,1.475.863,3.124,1.829,4.11,1.6,1.634,2.821.267,4.434-.478A30.56,30.56,0,0,0,11.4,2.524a.753.753,0,0,0,0-1.32Z" transform="translate(92.948 0)" fill="#324958"/><path d="M17.133.162c-2.2-.709-7.373,1.115-8.56,1.408C7.725,1.781,4.036.6,4.036.6S2.13,4.463.409,7.936C-1.2,11.2,2.274,14.035,5.3,11.913l.051-.036C8.316,9.791,11.3,7.715,14.194,5.531c1.228-.915,6.227-4.316,2.939-5.369Z" transform="translate(105.965 165.982)" fill="#324958"/><path d="M25.653,3.066l-1.505-.827c-3.894-4.285-6.53-1.433-9.274.437L1.541,11.765A8.113,8.113,0,0,0,0,13.553c.267,1.1,5.107,3.73,10.887,1.156,6.71-3,15.2-5.811,15.2-5.811Z" transform="translate(0 180.125)" fill="#324958"/></g><path d="M4.055,5.991s-6.582,4.588-2.975,9.967c5.21,7.779,21.276,8.919,33.951,1.634,0,0-4.624-4.593-5.138-16.138L20.917,0S11.947,9.13,4.055,5.991Z" transform="translate(-17660.543 22956.654)" fill="#fff" stroke="#324958" stroke-linecap="round" stroke-linejoin="round" stroke-miterlimit="10" stroke-width="1.49"/><path d="M16.147.689a36.1,36.1,0,0,1,21.317,13.04c2.466,3.165,4.408,6.962,4.177,10.923-.3,5.251-4.568,9.793-9.675,11.57s-10.851,1.135-15.927-.7c0,0-14.828-2.482-15.927-15.028S6.169-2.877,16.147.689" transform="translate(-17651.736 22928.033)" fill="#fff"/><path d="M0,0A36.1,36.1,0,0,1,21.317,13.04C23.778,16.2,25.725,20,25.494,23.963,24.857,35.05,12.136,36.391,3.591,35.78" transform="translate(-17635.59 22928.723)" fill="none" stroke="#324958" stroke-linecap="round" stroke-linejoin="round" stroke-miterlimit="10" stroke-width="1.5"/><path d="M27.349,4.043a11.2,11.2,0,0,1-2.518,6.571c-2.466,3.047-11.139,7.522-6.366,12.2a9,9,0,0,1,1.079,1.089c.776,1.058-.026,2.518-.349,3.648a.781.781,0,0,1-1.29.339c-1.223-1.028-3.119-2.471-4.788-2.055a2.631,2.631,0,0,0-1.1.591,6.854,6.854,0,0,0-.514,3.864,4.625,4.625,0,0,0,.206.514.755.755,0,0,1,.041.627,7.193,7.193,0,0,0,1.028,2.137c1.151,1.593,5.426,4.788,3.406,6.993-2.821,3.083-9.89-.776-12.413-2.61-.935-.688-2.7-3.314-3.771-3.447.355,0,.719-.072.6-.211a.771.771,0,0,1,.17-1.207c.062-.041.134-.062.2-.1A49.5,49.5,0,0,1,7.912,12.2c1.2-1.937,2.8-5.086,5.112-6.047a8.025,8.025,0,0,1,3.812-.38,11.062,11.062,0,0,0,5.086-3.555c.827-.976,1.7-2.451,3.211-2.189,1.829.308,2.291,2.122,2.214,4.013Z" transform="translate(-17649.564 22921.801)" fill="#f36f12"/><g transform="translate(-17654.836 22918.357)"><path d="M.6,33.534S21.956,24.8,24.022,8.02,12.354,6,12.354,6-3.2,20.592.6,33.534Z" transform="translate(1.61 0.021)" fill="#324958" stroke="#324958" stroke-linecap="round" stroke-linejoin="round" stroke-miterlimit="10" stroke-width="4.49"/><path d="M24.45,12.845S17.139-.087,10.779,0-4.08,17.88,2.209,33.556C7.573,46.811,24.45,12.845,24.45,12.845Z" transform="translate(0 0)" fill="#324958" stroke="#324958" stroke-linecap="round" stroke-linejoin="round" stroke-miterlimit="10" stroke-width="4.49"/><path d="M2.714.2A2.273,2.273,0,0,0,.227.571a.76.76,0,0,0,0,1.084,3.514,3.514,0,0,0,2.394,1.1c.8.041,2.158-.211,2.081-1.238C4.641.715,3.562.345,2.714.2Z" transform="translate(26.371 19.436)" fill="#324958"/></g><path d="M10.293.122l3.787.93a7.676,7.676,0,0,1,5.691,8.109l-3.511,46.4L0,49.311,4.676,4.257A4.838,4.838,0,0,1,6.594.881a4.467,4.467,0,0,1,3.7-.759Z" transform="translate(-17728.494 23040.168)" fill="#fff"/><g transform="translate(-17732.078 22911.467)"><path d="M1.278,4.512l2.677-3.17C4.587.591,3.5-.5,2.865.257L.194,3.427C-.443,4.178.641,5.272,1.278,4.512Z" transform="translate(113.425 0)" fill="#f4f4f6"/><path d="M1.263,4.294,3.6,1.355C4.2.584,3.123-.51,2.506.266L.179,3.21c-.606.766.473,1.86,1.084,1.084Z" transform="translate(119.995 6.095)" fill="#f4f4f6"/><path d="M1.278,4.321l2.476-2.98C4.387.591,3.3-.5,2.671.257L.189,3.232C-.438,3.987.641,5.082,1.278,4.321Z" transform="translate(129.778 13.61)" fill="#f4f4f6"/><path d="M1.273,4.071l2.81-2.8A.771.771,0,0,0,2.995.187l-2.81,2.8A.771.771,0,0,0,1.273,4.071Z" transform="translate(140.845 22.703)" fill="#f4f4f6"/><path d="M1.3,3.648,3.173,1.31a.8.8,0,0,0,0-1.089.781.781,0,0,0-1.089,0L.213,2.559a.8.8,0,0,0,0,1.089.781.781,0,0,0,1.089,0Z" transform="translate(155.592 33.987)" fill="#f4f4f6"/><path d="M11.254.008a18.892,18.892,0,0,0-8.02,2.836C1.564,3.985-.424,6.024.079,8.254c.879,3.879,7.707,3.833,10.738,3.848a.771.771,0,0,0,0-1.541c-2.266,0-8.072.18-9.145-2.394C.814,6.112,3.9,4.128,5.371,3.373a19.3,19.3,0,0,1,6.289-1.88c.976-.134.56-1.613-.406-1.485Z" transform="translate(178.374 162.102)" fill="#f4f4f6"/><path d="M.511,5.194C4.344,6.735,10.859,7.2,14.116,3.986,17.831.318,8.978-.2,7.242.056c-.971.144-.56,1.624.411,1.485A11.719,11.719,0,0,1,10.16,1.4a6.792,6.792,0,0,1,2.22.462q1.028,0,.416.771c-.252,1.207-2.656,1.644-3.715,1.88A13.749,13.749,0,0,1,.922,3.729C0,3.359-.393,4.844.511,5.209Z" transform="translate(184.344 164.135)" fill="#f4f4f6"/><path d="M.766,1.726l1.983-.19A.791.791,0,0,0,3.519.766.771.771,0,0,0,2.749,0L.766.19A.791.791,0,0,0,0,.961.771.771,0,0,0,.766,1.726Z" transform="translate(179.326 68.159)" fill="#f4f4f6"/><path d="M.771,1.541H2.949A.771.771,0,1,0,2.949,0H.771a.771.771,0,0,0,0,1.541Z" transform="translate(180.123 81.035)" fill="#f4f4f6"/><path d="M.941,2.1l1.783-.575c.94-.3.514-1.788-.406-1.485L.536.621C-.4.924,0,2.409.941,2.1Z" transform="translate(180.158 95.442)" fill="#f4f4f6"/><path d="M1.13,3.043,3.576,1.45C4.4.937,3.633-.415,2.8.125L.355,1.718C-.473,2.231.3,3.583,1.13,3.043Z" transform="translate(185.98 118.745)" fill="#f4f4f6"/><path d="M.221,1.3l1.192.961a.786.786,0,0,0,1.084,0,.771.771,0,0,0,0-1.084L1.31.217a.791.791,0,0,0-1.089,0,.776.776,0,0,0,0,1.084Z" transform="translate(189.042 155.167)" fill="#f4f4f6"/><ellipse cx="8.565" cy="6.612" rx="8.565" ry="6.612" transform="translate(0 85.911) rotate(-26.92)" fill="#4dd1c8"/></g><path d="M4.449,10.41c3.458-.067,7.255-2.348,7.8-6.032C12.819.5,8.467-.729,5.523.4c-1.968.76-7.63,4.11-4.7,6.746,2.461,2.22,6.165-.175,6.987-2.774.3-.945-1.182-1.346-1.485-.406A3.263,3.263,0,0,1,4.187,6.2c-2.014.663-2.62-.889-1.3-2.384A7.643,7.643,0,0,1,8.19,1.45c3.206.262,2.821,3.545,1.156,5.333a6.731,6.731,0,0,1-4.9,2.091.771.771,0,0,0,0,1.541Z" transform="translate(-17727.568 22994.322)" fill="#f4f4f6"/><g transform="translate(-17735.691 23022.697)"><path d="M11.39,13.039C8.585,10.4,5.739,7.788,2.975,5.137c-.283-.262-.565-.514-.837-.807L3.863,1.577c.925-.344,2.877.827,3.483,1.382A4.884,4.884,0,0,1,7.7,9.694c-.606.766.478,1.86,1.089,1.084,3.509-4.455.3-11.817-5.878-10.656C.627.544-.817,2.655.5,4.747c.94,1.5,2.667,2.672,3.946,3.874l5.857,5.492c.719.678,1.809-.406,1.084-1.084Z" transform="translate(8.812 0)" fill="#324958"/><path d="M18.625,6.374A24.148,24.148,0,0,0,.74.049a.771.771,0,0,0,0,1.541c2.276,0,3.252,1.151,4.347,3.083.8,1.392,1.582,2.744,3.114,3.432a4.96,4.96,0,0,0,6.725-3.042c.349-.925-1.135-1.326-1.48-.406-1.387,3.684-5.287,2.266-6.833-.39A10.954,10.954,0,0,0,4.424,1,5.785,5.785,0,0,0,.74.065V1.606A22.607,22.607,0,0,1,17.525,7.458c.724.668,1.814-.416,1.084-1.084Z" transform="translate(0 8.458)" fill="#324958"/><path d="M.366,13.779c.94,1.541,4.444.087,5.744-.262,4.357-1.171,8.4-1.958,11.612-5.189,1.315-1.32,3.242-3.812,3.376-5.652C21.364-1.007,18.43-.149,16.473.924c-2.389,1.305-5.652,3.37-8.133,4.953C4.5,8.338-1.551,10.65.366,13.779Z" transform="translate(7.516 64.993)" fill="#fff"/></g><g transform="translate(-17728.867 23086.947)"><path d="M.513,15.068c1.439,1.629,3.93.7,5.682.18,2.9-.858,5.924-1.428,8.668-2.759C17.823,11.05,25.35,4.782,21.933.821,20.833-.469,19,.009,17.658.579A62.251,62.251,0,0,0,9.273,5.563C6.463,7.341-1.891,10.3.39,14.914c.442.884,1.767.108,1.331-.776C.308,11.282,8.2,8.055,10.049,6.889s3.684-2.338,5.569-3.442c1.356-.8,3.514-2.569,4.84-1.331,1.7,1.6-1.028,4.727-2.178,5.986a14.669,14.669,0,0,1-5.816,3.73c-1.916.709-3.91,1.13-5.867,1.69-1.248.36-3.925,1.675-5,.457-.658-.74-1.737.349-1.084,1.089Z" transform="translate(0 0)" fill="#4dd1c8"/><path d="M.187,1.273,4.518,5.589A.767.767,0,1,0,5.6,4.505L1.271.184A.771.771,0,0,0,.187,1.273Z" transform="translate(14.266 2.163)" fill="#4dd1c8"/><path d="M.146,1.1,3.973,6.291c.581.791,1.916,0,1.326-.776L1.471.326C.891-.46-.44.326.146,1.1Z" transform="translate(10.463 4.831)" fill="#4dd1c8"/><path d="M.08,1.174,2.649,6.631,3.106,5.5l-.113.046c-.9.37-.514,1.855.406,1.485l.118-.051a.781.781,0,0,0,.457-1.125L1.405.4C.989-.5-.336.28.08,1.174Z" transform="translate(6.845 7.163)" fill="#4dd1c8"/><path d="M.02.96.75,4.289c.211.966,1.7.555,1.48-.411L1.5.549C1.29-.412-.19-.006.02.96Z" transform="translate(3.123 10.009)" fill="#4dd1c8"/></g><path d="M36.021,29.09l8.734,2.862L63.766,7.635A11.5,11.5,0,0,1,70.106,0L68.164,4.711,73.05,3.432c5.893-1.464,8.179,4.413,8.179,4.413L69.047,11.915,52.057,53.988,0,59.666,14.088,62.8" transform="translate(-17630.652 22955.629)" fill="none" stroke="#324958" stroke-linecap="round" stroke-linejoin="round" stroke-miterlimit="10" stroke-width="2"/><path d="M60.288,2.533S22.673,43.636,8.508,88.381a4.383,4.383,0,0,1-5.847,2.672,4.167,4.167,0,0,1-2.369-5.42C5.7,72.151,25.525,26.362,55.268,0Z" transform="translate(-17719.914 22958.248)" fill="#fff"/><g transform="translate(-17717.539 23021.297)"><ellipse cx="1.886" cy="1.829" rx="1.886" ry="1.829" transform="translate(0 21.75)" fill="#324958"/><path d="M.008.968A72.906,72.906,0,0,0,16.188,37.482c.632.76,1.716-.334,1.089-1.089A71.478,71.478,0,0,1,1.493.557C1.36-.419-.125,0,.008.968Z" transform="translate(17.306 0)" fill="#324958"/><path d="M.941,2.1l1.978-.586A.768.768,0,0,0,2.513.036L.53.621A.769.769,0,0,0,.941,2.1Z" transform="translate(175.133 20.004)" fill="#f4f4f6"/><path d="M.543,1.507l1.788.478A.767.767,0,0,0,2.737.505L.954.022A.771.771,0,0,0,.543,1.507Z" transform="translate(177.396 35.256)" fill="#f4f4f6"/></g><path d="M2.66,99.433,2.3,68.971,1.7,19.134C1.653,14.9,1.463,10.636,1.55,6.4c.1-4.871,4.162-4.881,7.743-4.788l38.077,1L98.81,3.967l18.5.488c2.466.062,5.652-.4,8.061.406,4.341,1.454,3.052,9.248,3.083,12.773l.3,23.167.581,43.25c.031,2.363.046,4.655-2.569,5.878a15.4,15.4,0,0,1-3.894.832l-19.1,3.144-45.126,7.429-2.918.478c-.976.159-.56,1.644.406,1.485l37.2-6.124,24.184-3.982c3.55-.586,9.89-.514,12.254-3.74,2.117-2.887,1.028-8.6,1.028-11.894L130.49,53.8l-.565-43.672c-.057-4.141-2.327-6.931-6.612-7.085-4.151-.149-8.3-.216-12.454-.324l-49.375-1.3L14.955.227C12.1.155,9.237-.01,6.385,0A6.035,6.035,0,0,0,.019,5.924c-.046,1.141,0,2.3.041,3.442l.514,44.8.514,42.8.031,2.461a.771.771,0,0,0,1.541,0Z" transform="translate(-17655.023 22800.559)" fill="#324958"/><path d="M58.543,67.717,60.413,9.31A6.8,6.8,0,0,0,53.863,2.4L7.283.016a6.823,6.823,0,0,0-7.28,7L2.926,71.827a6.854,6.854,0,0,0,7.6,6.381L52.306,74.18a6.8,6.8,0,0,0,6.237-6.463Z" transform="translate(-17646.393 22805.074)" fill="#fff"/><path d="M27.051,5.215C25.062,2.029,22.329.144,19.344,0c-1.094.128-2.2.319-3.324.555a10.892,10.892,0,0,0-2.6,1.428C7.285,6.489,3.658,13.641,0,20.366c.951,3.71,1.88,7.707,2.656,9.762L15.9,28.875l6.916-.668a6.8,6.8,0,0,0,6.258-6.448l.365-11.4A24.785,24.785,0,0,0,27.051,5.215Z" transform="translate(-17616.92 22851.031)" fill="#4dd1c8"/><path d="M10.987,0a.7.7,0,0,1-.3.036A10.394,10.394,0,0,0,.681,6.016C-1.462,10.682,1.744,16.349,6.25,16.2c3.658-.123,7.316-3.463,8.565-7.4,1.32-4.162-.75-7.625-3.828-8.8Z" transform="translate(-17613.158 22821.047)" fill="#f36f12"/><g transform="translate(-17653.828 22741.916)"><path d="M38.791,29.072C35.79,20.924,32.9,11.845,26.974,5.3,24.138,2.166,20.166-1.338,15.732.516,12.2,2,9.469,5.372,7.039,8.223A71.344,71.344,0,0,0,0,18.268L.658,33.039a6.854,6.854,0,0,0,7.6,6.381l32.975-3.18c-.745-2.435-1.582-4.824-2.446-7.167Z" transform="translate(9.706 101.946)" fill="#1b6964"/><path d="M.742,3.263l40.44-1.721c.986-.046.992-1.582,0-1.541L.742,1.722c-.986.041-.992,1.582,0,1.541Z" transform="translate(74.338 71.681)" fill="#324958"/><path d="M.736,4.545l37.537-3c.981-.077.992-1.618,0-1.541L.736,3C-.24,3.08-.25,4.617.736,4.545Z" transform="translate(75.412 84.965)" fill="#324958"/><path d="M.742,2.569l39.1-1.028a.771.771,0,0,0,0-1.541L.742,1.028A.771.771,0,0,0,.742,2.569Z" transform="translate(74.872 104.25)" fill="#324958"/><path d="M.736,5.11,40.1,1.545c.976-.087.986-1.624,0-1.541L.736,3.6c-.976.087-.986,1.624,0,1.541Z" transform="translate(74.631 124.706)" fill="#324958"/><path d="M.309,11.939A14.936,14.936,0,0,1,17.418.209L307.48,48.751a8.374,8.374,0,0,1-2.4,16.57L13.148,29.762A14.936,14.936,0,0,1,.3,11.939Z" transform="translate(0 0)" fill="#9ee6e1"/></g><path d="M1.508.381C-.08,3.212-.8,7.842,1.312,10.611c2.245,2.944,6.756,2.97,9.623,1.074l-1.028-.277a8.73,8.73,0,0,0,10.676,3.16A8.709,8.709,0,0,0,24.869,3.921c-.319-.93-1.8-.514-1.48.406a7.227,7.227,0,0,1-2.99,8.611,7.133,7.133,0,0,1-9.166-2.307.781.781,0,0,0-1.028-.272C7.611,12.07,3.183,11.9,1.986,8.52a9.6,9.6,0,0,1,.884-7.368A.767.767,0,0,0,1.544.381Z" transform="translate(-17581.264 22760.705)" fill="#f4f4f6"/><path d="M0,6.515s2.471,5.924,17.037,7.111c11.642.945,17.037-6.6,17.037-6.6L26.984,0Z" transform="translate(-17558.133 22740.85)" fill="#fff"/><path d="M.086,7.619C2.321,12.757,10.876,14.3,15.5,14.868c7.07.884,15.48-.581,19.966-6.746a.776.776,0,0,0-.118-.93l-3.54-3.5C30.816,2.712,29.552.826,28.278.2c-1.541-.74-4.722.735-6.263,1.11L.549,6.5c-.961.231-.555,1.716.406,1.48L21.362,3.051l4.819-1.166a4.624,4.624,0,0,0,1.31-.313c.627-.442,0,.139-.236-.211,1.824,2.569,4.783,4.722,7.023,6.931l-.118-.93c-4.208,5.78-12.413,6.828-18.954,5.939C11.066,12.741,3.39,11.4,1.417,6.858c-.4-.92-1.721-.139-1.331.76Z" transform="translate(-17558.881 22740.137)" fill="#324958"/><path d="M37.572,7.5S42.34-.367,48.141.013c0,0-11.647,32.44-47.571,28.864,0,0-3.232-6.54,5.7-17.864l17.556,1.844A94.077,94.077,0,0,1,37.572,7.5Z" transform="translate(-17607.596 22764.795)" fill="#fff"/><path d="M39,8.664c2.086-3.4,5.652-7.193,9.906-7.111L48.17.582C44.419,10.945,35.6,20.213,25.836,24.966A42.182,42.182,0,0,1,11.29,28.958c-2.764.252-5.713-.288-8.426.057-1.135.144-1.028.159-1.228-1.382-.617-4.675,1.85-9.438,4.4-13.158,1.254-1.829.714-1.947,2.728-1.737l5.569.581,6.325.668a19.567,19.567,0,0,0,3.889.406c1.2-.139,2.425-1.028,3.489-1.49A79.411,79.411,0,0,1,38.567,9.013a.767.767,0,1,0-.406-1.48,77.515,77.515,0,0,0-9.407,3.4c-1.125.478-2.245.971-3.35,1.485a7.28,7.28,0,0,1-.951.447c-.452.139.221,0,.092,0-3.365.18-7.121-.745-10.466-1.1L8.434,11.15c-1.207-.123-1.541-.293-2.358.627C2.664,15.528-.167,21.5.008,26.677a6.517,6.517,0,0,0,.514,2.949c.709,1.3,2.44.935,3.807,1A47.268,47.268,0,0,0,21.2,28.465a45.183,45.183,0,0,0,21.209-15.1A45.1,45.1,0,0,0,49.665.977.776.776,0,0,0,48.925,0c-4.84-.082-8.853,4-11.236,7.871-.55.858.8,1.629,1.315.791Z" transform="translate(-17608.361 22764.02)" fill="#324958"/><path d="M2.635.257C-.314,3.792-1.387,9.305,2.6,12.588a5.8,5.8,0,0,0,9.377-2.944H10.491A8.15,8.15,0,0,0,21.568,15.63,8.145,8.145,0,0,0,24.965,3.5c-.545-.822-1.875-.057-1.331.776,2.307,3.489,1.346,8.221-2.672,9.911s-8.077-.868-8.986-4.958a.776.776,0,0,0-1.485,0c-.915,3.848-5.549,4.074-7.748,1.264s-1.156-6.592.981-9.15C4.352.591,3.273-.5,2.635.257Z" transform="translate(-17640.73 22751.279)" fill="#f4f4f6"/><path d="M.171.74C-.436,5.457.428,11.057,5.149,13.39a6.448,6.448,0,0,0,8.976-3.36l-1.48-.406a5.231,5.231,0,0,0,7.265,5.549c4.943-2.055,5.112-7.959,3.6-12.331-.324-.93-1.809-.514-1.485.411.966,2.795,1.454,6.022-.4,8.575a5.015,5.015,0,0,1-3.432,2.178,3.623,3.623,0,0,1-4.079-3.992.767.767,0,0,0-1.48-.406c-1.5,3.879-6.34,3.525-8.8.884S1.265,4.1,1.7.73C1.82-.246.284-.241.155.73Z" transform="translate(-17610.248 22756.252)" fill="#f4f4f6"/><path d="M27.015.056C17.767,3.267,7.615,7.331.247,13.928c-.74.663.349,1.747,1.084,1.084C8.493,8.6,18.425,4.649,27.421,1.526c.93-.319.514-1.8-.406-1.48Z" transform="translate(-17597.242 22771.52)" fill="#324958"/><path d="M3.478.013,35.569,1.945a3.6,3.6,0,0,1,3.4,3.6l-.185,4.83a3.036,3.036,0,0,1-2.98,2.913L3.787,14.825A3.6,3.6,0,0,1,0,11.3L.113,3A3.083,3.083,0,0,1,3.478.013Z" transform="translate(-17517.229 22802.09)" fill="#324958"/><path d="M3.464,0,32.693.417a3.047,3.047,0,0,1,3.083,3.165L35.555,7.6a3.052,3.052,0,0,1-2.862,2.841L3.335,12.6A3.083,3.083,0,0,1,0,9.454L.34,2.862A3.083,3.083,0,0,1,3.464,0Z" transform="translate(-17515.277 22823.02)" fill="#324958"/><path d="M1.682,15.634c0-3.083-.154-6.165.036-9.248C2.047,1.13,7.1,1.541,10.889,1.541H31.477a.771.771,0,1,0,0-1.541H8.809C5,0,.948.94.259,5.441-.254,8.719.157,12.3.141,15.609a.771.771,0,0,0,1.541,0Z" transform="translate(-17514.961 22842.895)" fill="#324958"/><path d="M8.21,3a9.965,9.965,0,0,0,4.439,6.679l-.416-4.737a14,14,0,0,0,9.644,4.573A17.366,17.366,0,0,0,13.071,1.1C9.212-.554,4.013-.163,0,1.1Z" transform="translate(-17480.346 22767.176)" fill="#fff"/><path d="M8.221,3.862a11.477,11.477,0,0,0,4.794,7.116.771.771,0,0,0,1.156-.663l-.416-4.737-1.31.545a15.326,15.326,0,0,0,10.183,4.794c.622.051.9-.678.663-1.156C18.872.96,9.614-1.666.551.985a.776.776,0,0,0,0,1.485L8.771,4.4c.961.226,1.372-1.254.406-1.48L.957.985V2.491c4.033-1.182,8.58-1.66,12.557,0a16.693,16.693,0,0,1,8.447,8.077l.668-1.156a13.7,13.7,0,0,1-9.1-4.352.776.776,0,0,0-1.31.514l.416,4.737,1.156-.663a10.055,10.055,0,0,1-4.11-6.2c-.17-.956-1.649-.555-1.459.416Z" transform="translate(-17481.096 22766.518)" fill="#324958"/><path d="M2.681.555A1.588,1.588,0,0,0,.837.134a1.428,1.428,0,0,0-.6,2.086.74.74,0,0,0,.853.334c1.058.3,2.461-.879,1.593-2Z" transform="translate(-17400.826 22790.729)" fill="#f4f4f6"/><path d="M6.533,27.235c6.165,3.679,12.716-.257,16-8.051S23.457,3.077,17.251.626-1.025,3.231.07,10.3c0,0,2.3,7.82.3,12.845" transform="translate(-17544.289 22721.625)" fill="#fff"/><g transform="translate(-17544.99 22720.088)"><path d="M6.848,28.676C19.1,35.484,28.38,17.265,24.46,7.21A10.964,10.964,0,0,0,12.936.069C8.312.475,2.66,2.828.605,7.262A7.434,7.434,0,0,0,.317,12.4c.863,3.668,1.295,7.707,0,11.334-.329.935,1.156,1.341,1.48.411a18.812,18.812,0,0,0,.6-8.734c-.221-1.747-.971-3.6-.94-5.354.1-5.77,8.457-8.668,13.163-8.5,17.207.6,7.8,34.028-7.013,25.8-.868-.478-1.644.848-.776,1.331Z" transform="translate(0 0.761)" fill="#324958"/><path d="M.341.678.824,3.972.053,6.34a1.29,1.29,0,0,0,1.7,1.572L9.1,5.307a1.541,1.541,0,0,0,.211-2.826,1.639,1.639,0,0,0-1.187-.113L3.588,3.663,4.153,0Z" transform="translate(130.719 273.675)" fill="#f36f12"/><path d="M0,10.815C4.732,7.732,8.878,6.37,14.15,4.3,18.84,2.455,25.222-.478,30.4.066c5.415.57,3.55,5.384.735,7.748l-6.864,5.76L23.018,8.95l-14.9-.175Z" transform="translate(1.073 0.768)" fill="#324958"/><path d="M1.136,12.246a70.3,70.3,0,0,1,12.243-5.77,109.306,109.306,0,0,1,11.3-4.151C27.2,1.652,35.811.136,33.417,5.407a9.693,9.693,0,0,1-2.836,3.268c-2.024,1.721-4.069,3.417-6.1,5.138l1.284.339L24.508,9.528a.786.786,0,0,0-.74-.565l-13.3-.154C7.1,8.773,3.787,10.052.545,10.864a.768.768,0,0,0,.411,1.48c3.427-.868,6.679-2.055,9.854-2.009l12.958.149-.74-.56,1.254,4.624a.776.776,0,0,0,1.284.339c2.4-2.014,4.994-3.915,7.239-6.093A8.621,8.621,0,0,0,35.169,5.12c.909-3.16-1.48-4.855-4.393-5.076-5.2-.4-10.342,1.993-15.049,3.874C10.466,6.024,5.179,7.879.365,10.925c-.843.519-.072,1.85.771,1.32Z" transform="translate(0.327 0)" fill="#324958"/></g><path d="M2.427.539C2.185-.139,1.194-.113.69.262A2.84,2.84,0,0,0,.043,2.769c.1.653.406,1.7,1.187,1.86S2.6,3.879,2.771,3.221A4.562,4.562,0,0,0,2.427.539Z" transform="translate(-17529.543 22738.551)" fill="#324958"/><g transform="translate(-17544.893 22719.02)"><path d="M.008.712A7.768,7.768,0,0,0,6.656,7.905c.971.154,1.387-1.326.411-1.48A6.266,6.266,0,0,1,1.544.738C1.467-.243-.069-.249,0,.738Z" transform="translate(6.245 18.611)" fill="#324958"/><ellipse cx="20.752" cy="8.539" rx="20.752" ry="8.539" transform="matrix(0.995, -0.099, 0.099, 0.995, 152.187, 223.173)" fill="#324958"/><path d="M30.848,9.115c-1.125-5.1-9.633-7.682-13.4-8.29L15.994.588A19.329,19.329,0,0,0,8.632.18a.823.823,0,0,0-.673.553c-2.5.991-4.747,3.2-7.09,4.862C.57,6.623.411,7.747.144,8.756c-.051.2-.1.4-.144.608A3.627,3.627,0,0,0,3.334,10.47c2.816-.425,4.727-2.978,5.739-5.81a8.7,8.7,0,0,0,8.734-1.434c.041-.036.072-.079.108-.115A16.8,16.8,0,0,1,20.7,4.563c2.142,1.392,2.569,2.893,3.483,5.355l.108.3c-.17.79-.293,1.58-.411,2.431-.159,1.155-.663,2.158-.822,3.3-.087.608-.514,1.4.108,1.282,1.855-.322,3.6-2.231,4.336-3.866,1.983.188,3.951-1.483,3.345-4.248Z" transform="translate(0 8.432)" fill="#4dd1c8"/><path d="M2.675.852A1.356,1.356,0,0,0,.707.2,1.331,1.331,0,0,0,.25,2.152a1.541,1.541,0,0,0,1.978.406.658.658,0,0,0,.375-.6,1.428,1.428,0,0,0,.072-1.1Z" transform="translate(12.61)" fill="#324958"/><path d="M4.862,1.482,43.971,8.732l53.85,9.978a31.227,31.227,0,0,1,4.742.879c.082.031-.457-.673-.426-.288.046.591.324,1.161.39,1.752s.1-.4,0,.4a15.445,15.445,0,0,1-.375,1.511l-1.634,6.679.74-.565-33.91-3.031-54.1-4.84L.767,20.081l.74.976L5.828.963C6.033,0,4.554-.414,4.343.552L.022,20.646a.786.786,0,0,0,.745.971l33.91,3.036,54.1,4.84,12.485,1.115a.766.766,0,0,0,.74-.56l1.639-6.679a8.358,8.358,0,0,0-.051-4.711.755.755,0,0,0-.514-.514L70.066,12.025,17.429,2.263,5.319.018C4.3-.177,3.886,1.287,4.862,1.482Z" transform="translate(103.572 123.197)" fill="#324958"/></g><path d="M0,8.077c-.118.144,4.239,64.886,4.239,64.886H7.894l9.12-56.085,26.825-.586L31.631,31.952l2.245,2.97,21.512-18.44A59.5,59.5,0,0,0,34.719,1.305C22.27-3.884,0,8.077,0,8.077Z" transform="translate(-17418.068 22922.99)" fill="#4dd1c8"/><g transform="translate(-17571.895 22779.783)"><path d="M0,15.706,3.535,0,99.741,15.83l-2.117,8.611Z" transform="translate(134.19 67.821)" fill="#324958"/><path d="M.018.936l1.67,5.837a.771.771,0,0,0,1.485-.406L1.5.53A.771.771,0,0,0,.018.936Z" transform="translate(142.064 63.813)" fill="#324958"/><path d="M.082.916,2.517,6.789c.375.9,1.86.514,1.48-.411L1.546.51C1.171-.389-.319,0,.062.921Z" transform="translate(154.726 66.18)" fill="#324958"/><path d="M.091,1.135l2.79,4.891A.771.771,0,0,0,4.212,5.25L1.422.359a.771.771,0,0,0-1.331.776Z" transform="translate(166.117 68.279)" fill="#324958"/><path d="M.083,1.171A14.432,14.432,0,0,0,3.623,5.8c.745.647,1.839-.437,1.089-1.089A13.215,13.215,0,0,1,1.414.4C.983-.5-.343.282.083,1.171Z" transform="translate(177.65 70.632)" fill="#324958"/><path d="M.1,1.152,2.358,5.2c.483.863,1.814.087,1.331-.776L1.433.376C.95-.487-.376.289.1,1.152Z" transform="translate(190.332 73.286)" fill="#324958"/><path d="M.116,1.14,2.289,4.7c.514.843,1.844.072,1.326-.776L1.447.364C.933-.478-.4.292.116,1.14Z" transform="translate(201.205 75.369)" fill="#324958"/><path d="M.123,1.132,2.178,4.4c.514.832,1.855.067,1.326-.776L1.449.361C.935-.476-.411.294.123,1.132Z" transform="translate(209.906 77.114)" fill="#324958"/><path d="M133.394,18.918,0,2.99,1.223,1.927,3.427,0l77.16,9.454L223.861,27.066c3.268.4,5.323-2.569,5.323-2.569,3.719,2.209,3.951,8.077,3.951,8.077L233.813,43Z" transform="translate(0.796 0.834)" fill="#324958"/><path d="M234.691,33.408c-.164-3.345-1.464-6.828-4.326-8.734a.791.791,0,0,0-1.028.277c-2.569,3.535-8.179,1.778-11.817,1.331l-22.283-2.733-64.064-7.9L84.327,9.9,51.65,5.889,19.575,1.949,8.379.577C7.208.433,5.184-.245,4.012.094,2.743.453,1.258,2.4.241,3.279c-.56.483-.046,1.238.545,1.31L37.424,8.962l66.17,7.892,23.721,2.831,5.811.694a6.859,6.859,0,0,1,1.541.262C151.006,24.6,167.36,28.48,183.708,32.4c16.6,3.977,33.16,8.1,49.786,11.94.308.067.617.144.92.221a.781.781,0,0,0,.976-.745l-.7-10.409c-.062-.981-1.6-.986-1.541,0l.683,10.435.976-.74-42.752-10.25L137.17,19.659c-8.529-2.055-17.566-2.43-26.26-3.468L45.464,8.381,16.816,4.965,6.951,3.788a30.372,30.372,0,0,0-5.426-.647A4.419,4.419,0,0,1,.8,3.053l.545,1.31L3.134,2.822c.452-.4.894-.807,1.356-1.187.586-.483-.385,0-.2,0a9.546,9.546,0,0,1,1.618.2L15.059,2.93,45.886,6.691l36.992,4.542L126.4,16.576l65.014,7.984,24,2.944a96.9,96.9,0,0,0,9.649,1.156,6.885,6.885,0,0,0,5.575-2.959l-1.028.277c2.374,1.582,3.432,4.624,3.566,7.409.031.981,1.567.986,1.516.021Z" transform="translate(0 0)" fill="#324958"/><path d="M3.448,5.374c-2.461-.134-2.482-3.843,0-3.843s2.471,3.71,0,3.843c-.981.051-.986,1.588,0,1.541A3.458,3.458,0,1,0,0,3.319a3.514,3.514,0,0,0,3.447,3.6.771.771,0,0,0,0-1.541Z" transform="translate(224.42 29.575)" fill="#324958"/><path d="M.123,1.134l2.055,3.2c.514.832,1.86.062,1.326-.776L1.449.358C.935-.475-.411.3.123,1.134Z" transform="translate(218.065 78.15)" fill="#324958"/><path d="M.075,1.1,1.827,4.139a.771.771,0,0,0,1.326-.776L1.4.327A.771.771,0,0,0,.075,1.1Z" transform="translate(225.383 79.66)" fill="#324958"/></g><path d="M9.622,0S-4.846,29.424,1.7,61.315L9.622,52.7s-.2-17.535-2.595-22.016c0,0,5.061-18.286,2.913-22.714C9.941,7.969,14.616,3,9.622,0Z" transform="translate(-17413.826 22840.844)" fill="#fff"/><path d="M9.694.41A95.1,95.1,0,0,0,3.118,19.62c-3.4,13.965-4.239,28.551-1.423,42.7a.776.776,0,0,0,1.284.339c2.43-2.651,4.891-5.277,7.3-7.943,1.665-1.839.75-5.21.632-7.522-.252-4.835-.324-10.224-1.958-14.838a8.59,8.59,0,0,1-.4-.986c.041.226,0,.411,0,.108A8.328,8.328,0,0,1,9,29.814q.858-3.355,1.541-6.736c.879-4.316,2.636-10.44.8-14.7l-.123.93c2.7-2.949,3.042-6.782-.473-9.171-.822-.555-1.593.776-.776,1.326,2.692,1.834,2.086,4.655.164,6.761A.812.812,0,0,0,10,9.15c.745,1.726.447,3.987.277,5.8A72.443,72.443,0,0,1,9,22.934q-.642,3.083-1.413,6.14A8.294,8.294,0,0,0,7,31.581a14.667,14.667,0,0,0,.76,2.127,29.018,29.018,0,0,1,.668,3.309c.432,2.738.658,5.513.832,8.282q.2,3.144.283,6.3c0,.514,0,1.074.036,1.6s.514-.4-.057.067c-2.805,2.363-5.138,5.6-7.64,8.3l1.284.339C.359,47.817,1.283,33.256,4.757,19.369A92.745,92.745,0,0,1,11.009,1.186C11.456.3,10.131-.479,9.694.41Z" transform="translate(-17414.559 22840.049)" fill="#324958"/><path d="M4.67,6.761s1.48,9.916,2.913,17.13c0,0-9.222,9.762-7.327,19.663,0,0,12.408-8.472,38.688-9.89l-5.528-7.794s6.325-2.975,6.4-6.2S33.134,5.287,33.134,5.287,26.146,3.72,22.519,0L13.836.868Z" transform="translate(-17418.027 22892.672)" fill="#f36f12"/><path d="M0,9.736c.766,1.927,8.03,4.5,10,3.725a5.3,5.3,0,0,0,3.18-4.937,7.671,7.671,0,0,0-2.646-5.441A15.557,15.557,0,0,0,5.045,0" transform="translate(-17397.797 22878.23)" fill="#fff"/><g transform="translate(-17407.232 22840.152)"><path d="M.1,10.9c1.028,1.958,3.884,2.887,5.857,3.514,2.184.688,4.537,1.264,6.474-.272a6.462,6.462,0,0,0,1.747-7.486C12.794,3.143,9.367,1.283,6.012.05,5.082-.289,4.681,1.2,5.606,1.535c2.466.9,5.107,2.173,6.54,4.506s1.433,7.07-2.132,7.547c-2.291.3-7.445-1.331-8.59-3.468C.956,9.247-.369,10.023.1,10.9Z" transform="translate(8.676 37.312)" fill="#324958"/><path d="M12.092,8.009A101.4,101.4,0,0,1,1.087.195C.322-.448-.454.652.322,1.3S1.863,2.578,2.654,3.2a.642.642,0,0,0,0,1.028A28.784,28.784,0,0,0,11.481,9.4c.884.308,1.32-.909.611-1.392Z" transform="translate(2.519 0)" fill="#324958"/><path d="M16.728,28.62c-2.014,5.138-8.966,11.653-13.8,5.436a14.751,14.751,0,0,1-2.9-8.02c-.221-3.211,1.1-5.652,1.752-8.709.951-4.449-1.829-9.31.617-13.513C3.744,1.487,6.971-.712,9.812.218c1.449.473,2.107,1.757,3.4,2.363a6.761,6.761,0,0,0,4.562.319.807.807,0,0,1,.971.514c.766,3.807-1.978,5.785-5.271,6.479,5.117,4.439,5.585,12.814,3.257,18.727Z" transform="translate(0 31.204)" fill="#324958"/></g><path d="M2.788,48.409,26.242,29.835,16.054,6.037V0S8.224,2.2,14.3,7.835c0,0,.961,12.392,4.927,19.056A204.523,204.523,0,0,0,.687,36.381s-2.523,6.592,2.1,12.028Z" transform="translate(-17385.967 22863.053)" fill="#fff"/><g transform="translate(-17391.332 22862.289)"><path d="M4.113,49.72,27.567,31.146a.791.791,0,0,0,.123-.935L20.9,14.392c-1.064-2.487-2.25-4.953-3.206-7.481a3.324,3.324,0,0,1-.206-.483c.17.755.1-.915.1-1.192V.766a.771.771,0,0,0-.971-.74A7.283,7.283,0,0,0,12.657,2.6a3.674,3.674,0,0,0-.56,2.929,5.379,5.379,0,0,0,.837,1.829c.313.462,1.213,1.053,1.367,1.351a9.709,9.709,0,0,1,.283,2.569c.211,1.634.462,3.257.771,4.871a38.39,38.39,0,0,0,3.972,11.894L19.6,27.01A182.1,182.1,0,0,0,2.4,35.678C.475,36.8.285,37.779.064,40.009A13.163,13.163,0,0,0,3.039,49.72c.617.776,1.7-.319,1.089-1.089a11.7,11.7,0,0,1-2.24-10.168c.468-1.968,3.74-2.836,5.539-3.8q6.366-3.391,12.963-6.345a.776.776,0,0,0,.277-1.053c-3.036-5.313-4.11-11.786-4.742-17.808C15.7,7.4,13.048,6.3,13.6,4.152c.37-1.418,2.153-2.271,3.437-2.646l-.971-.74c0,2.107-.4,4.6.185,6.618A64.174,64.174,0,0,0,19.305,14.5l7.07,16.487.123-.93L3.039,48.631c-.791.617.3,1.7,1.074,1.089Z" transform="translate(4.601 0)" fill="#324958"/><path d="M3.853.459A7.572,7.572,0,0,0,.771,0C-.257-.065-.257,1.446.771,1.544a.7.7,0,0,0,.514.468,2.737,2.737,0,0,0,2.738-.334A.766.766,0,0,0,3.853.459Z" transform="translate(2.836 17.616)" fill="#324958"/><path d="M1.7.238A2.415,2.415,0,0,0,.771,0C-.257-.065-.257,1.477.771,1.543a.257.257,0,0,1,.123.031A.832.832,0,0,0,1.978,1.3.766.766,0,0,0,1.7.238Z" transform="translate(0 18.526)" fill="#324958"/></g><path d="M5.251,0,0,16.138l17.386-3.817S12.588,2.112,5.251,0Z" transform="translate(-17437.705 22805.189)" fill="#f36f12"/><g transform="translate(-17443.82 22821.447)"><path d="M2.748.512a1.9,1.9,0,0,1-2.014,1.1c-.981-.1-.976,1.433,0,1.541a3.422,3.422,0,0,0,3.5-2.23C4.582,0,3.1-.4,2.748.517Z" transform="translate(55.099 62.103)" fill="#324958"/><path d="M3,31.781A65.575,65.575,0,0,1,7.353,17.4c1.433-3.083,5.78-11.473,10.317-9.711,2.1.812,3.18,4,4.064,5.888,1.274,2.713,2.487,5.436,3.519,8.257a135.536,135.536,0,0,1,4.83,16.955l2.965-.817a214.459,214.459,0,0,1-5.287-22.894,26.2,26.2,0,0,1-.514-5.765c0-.349.077-.976.077-.976-1.028-.606-.915.334-.915.313a5.05,5.05,0,0,0,.6.591c2.785,3.016,4.583,7.342,6.386,10.98q2.343,4.732,4.47,9.567c.714,1.634,3.237.452,2.81-1.182-1.058-4.064-2.338-8.082-3.771-12.033-2-5.533-4.244-11.889-8.519-16.117-1.408-1.4-3.6.776-2.173,2.173,4.141,4.11,6.237,10.507,8.128,15.876,1.259,3.6,2.41,7.234,3.37,10.918l2.81-1.187c-1.413-3.221-2.913-6.412-4.475-9.567-1.958-3.946-3.982-9.012-7.3-12.053-1.028-.925-2.492-1.541-3.632-.411-1.028,1.028-.981,2.857-.935,4.187.2,5.426,1.593,10.892,2.821,16.153q1.433,6.165,3.083,12.243c.514,1.911,3.4,1.11,2.965-.817A124.7,124.7,0,0,0,26.6,16.9c-1.69-4.023-4.054-12.059-9.361-12.47-5.092-.4-9.027,5-11.231,8.873C2.925,18.741,1.3,24.881.037,30.964c-.4,1.932,2.569,2.759,2.965.817Z" transform="translate(52.02 128.17)" fill="#324958"/><path d="M0,0C.6.072,59.085,9.248,59.4,9.315V18.46L.005,12.5Z" transform="translate(35.112 0)" fill="#324958"/><path d="M13.99,64.465V.956A.781.781,0,0,0,13.22.19L.771,0a.771.771,0,0,0,0,1.541l12.449.211L12.454.981V64.465a.771.771,0,0,0,1.541,0Z" transform="translate(85.699 61.104)" fill="#324958"/><path d="M20.485.006.771,1.1A.786.786,0,0,0,0,1.866v26.2a.771.771,0,0,0,1.541,0V1.866l-.771.766L20.485,1.542c.981-.051.992-1.588,0-1.541Z" transform="translate(0 60.661)" fill="#324958"/></g><path d="M7.477,0l10.4,14.329L1.3,18.871S-4.211,9.341,7.477,0Z" transform="translate(-17455.58 22807.025)" fill="#4dd1c8"/><path d="M0,1.927V11.3a1.187,1.187,0,0,0,1.2,1.161,1.207,1.207,0,0,0,1.151-.837L4.208,5.508c.062-.216,2.923-2.7,2.923-2.7L4.444,0,3.119,1.269.781.837A1.177,1.177,0,0,0,0,1.927Z" transform="translate(-17390.371 22954.295)" fill="#f36f12"/><path d="M1.712.016a1.161,1.161,0,0,0-1.346,1c-.031.283-.041.55-.057.735a77.659,77.659,0,0,0-.3,7.933c0,.6.128,1.469.92,1.469a1.241,1.241,0,0,0,1.449-1.135c.339-1.8.514-7.3.514-7.3A4.624,4.624,0,0,0,2.622.659,1.135,1.135,0,0,0,1.728.016Z" transform="translate(-17390.891 22955.59)" fill="#f36f12"/><g transform="translate(-17669.186 22742.32)"><path d="M2.537.032A2.055,2.055,0,0,0,.446,1.573C-.1,3.628.091,6.156.06,8.252c0,1.115-.375,3.3.745,4.11a2.132,2.132,0,0,0,2.446-.154C4.756,10.934,4.335,7,4.417,5.247,4.494,3.6,5.008.371,2.742.011c-.966-.154-1.387,1.326-.411,1.48,1.223.2.421,6.1.37,6.756a6.1,6.1,0,0,1-.2,2c-.956,1.4-.925-1-.92-1.582,0-.858-.221-7.1.951-7.152A.742.742,0,0,0,2.537.032Z" transform="translate(277.471 212.484)" fill="#f36f12"/><path d="M37.643,18.253c-.19-7.106-5.919-13.934-12.187-16.78C18.263-1.805,9.42.609,4.334,6.533A18.049,18.049,0,0,0,2.644,27.67C6.78,34.324,15.4,38.121,23.051,35.932c7.393-2.112,14.386-9.788,14.591-17.679a.771.771,0,0,0-1.541,0c-.17,6.232-5.169,12.249-10.512,15.013-6.561,3.4-14.8,1.475-19.734-3.884A16.508,16.508,0,0,1,3.964,9.6C7.74,3.523,15.647.044,22.64,2.043c6.71,1.922,13.266,9,13.461,16.2.031,1,1.567,1,1.541.01Z" transform="translate(212.683 60.756)" fill="#324958"/><path d="M5.267.534,2.483,9.088.664,14.673A7.483,7.483,0,0,0,0,16.98a8.8,8.8,0,0,0,.843,2.358L2.9,24.913l3.042,8.3c.339.925,1.824.514,1.485-.406L4.553,24.98,2.539,19.467a14.559,14.559,0,0,1-1.028-2.774c.082.7.072.077.2-.252.216-.555.37-1.141.555-1.7l1.86-5.729L6.752.945C7.06,0,5.576-.406,5.272.534Z" transform="translate(230.724 62.116)" fill="#324958"/><path d="M17.139.013.564,4.555A.767.767,0,0,0,.97,6.035L17.55,1.493a.771.771,0,0,0-.411-1.48Z" transform="translate(214.136 78.256)" fill="#324958"/><path d="M0,.781.375,43.014l.6,67.249L1.1,125.631a.771.771,0,0,0,1.541,0L2.271,83.4l-.6-67.265L1.541.771A.771.771,0,0,0,0,.771Z" transform="translate(0 49.492)" fill="#324958"/><path d="M.937,2.26l2.291-.74c.935-.3.514-1.783-.411-1.48L.526.78C-.409,1.084.012,2.563.937,2.26Z" transform="translate(119.458 279.262)" fill="#f4f4f6"/><path d="M8.935.928,19.164,28.462l.74-.976L3.391,26.895l.74.565L1.49,9.9c-.144-.971-1.629-.56-1.48.411L2.651,27.871a.771.771,0,0,0,.74.56l16.513.6a.776.776,0,0,0,.74-.976L10.43.517C10.091-.4,8.606,0,8.95.928Z" transform="translate(256.568 4.389)" fill="#324958"/><path d="M50.489,21.61,33.278,6.679l.118.935,4.018-6.448A.771.771,0,0,0,36.206.231L30.375,6.166a.771.771,0,0,0-.2.745l6.165,19.6.74-.971L28.458,25.4l-6.6-.113c-1.295,0-3.206-.4-4.465-.072-.771.206-.416-.324.077.349-.164-.221-.344-.442-.488-.673-.735-1.182-1.649-2.281-2.466-3.406L6.807,10.836l-5.359-7.4L.786,4.594,28.53,1.547c.971-.108.981-1.649,0-1.541L.786,3.057c-.514.057-1.028.632-.663,1.156L12.7,21.579c.971,1.336,2.461,4.624,4.11,5.138a11.047,11.047,0,0,0,2.795.046l6.33.1,11.144.18a.771.771,0,0,0,.74-.971L33,10.713c-.339-1.084-.606-2.23-1.028-3.283-.108-.267-.134-.591-.267-.848.149.293-.575.611.087.324,1.079-.473,2.3-2.338,3.124-3.175L37.311,1.3,36.1.365,32.086,6.813a.776.776,0,0,0,.118.93L49.415,22.668c.745.647,1.839-.437,1.089-1.084Z" transform="translate(219.967 3.236)" fill="#324958"/><path d="M13.743,5.281c-4.182-.4-8.3.488-12.4,1.161C.909,6.956-.073,6.807,0,6.005A6.412,6.412,0,0,1,5.42.112c3.53-.6,6.638,1.284,8.863,3.864C14.673,4.428,14.457,5.358,13.743,5.281Z" transform="translate(227.52 0)" fill="#324958"/><path d="M.091,1.135A11.817,11.817,0,0,0,5.466,5.9c.9.39,1.68-.93.776-1.326A10.363,10.363,0,0,1,1.422.359a.771.771,0,0,0-1.331.776Z" transform="translate(252.351 15.881)" fill="#324958"/><path d="M2.358,0A52.879,52.879,0,0,0,0,15.028l9.248-5.5Z" transform="translate(223.995 14.668)" fill="#324958"/><path d="M2.389.538A56.922,56.922,0,0,0,0,15.772a.776.776,0,0,0,1.156.663l9.248-5.5A.776.776,0,0,0,10.682,9.9L3.8.379c-.575-.8-1.906-.031-1.326.776l6.874,9.505.277-1.028L.38,15.134l1.156.663A55.134,55.134,0,0,1,3.869.944.768.768,0,0,0,2.389.538Z" transform="translate(223.224 13.925)" fill="#324958"/></g><path d="M0,10.363,9.073,0A4.028,4.028,0,0,1,6.957,7.589,16.528,16.528,0,0,1,.334,17.6" transform="translate(-17443.52 22753.289)" fill="#fff"/><path d="M1.284,11.672,10.357,1.3l-.93.123A3.3,3.3,0,0,1,7.7,7.593a.781.781,0,0,0-.74.565A16.313,16.313,0,0,1,.688,17.709c-.786.581,0,1.916.776,1.326A17.916,17.916,0,0,0,8.441,8.564l-.74.565A4.838,4.838,0,0,0,10.2.1a.776.776,0,0,0-.93.123L.2,10.583c-.647.74.432,1.834,1.084,1.089Z" transform="translate(-17444.262 22752.525)" fill="#324958"/><path d="M22.075,16.68a4.11,4.11,0,0,1-.75,6.35c-3.6,2.276-6-.786-6.6-3.9a4.393,4.393,0,0,1-4.881-1.315c-1.9,3.525-7.532,2.9-9.248-1.567C-.331,13.865-.392,10.217,2,8.665a2.918,2.918,0,0,1,3.561.1A7.979,7.979,0,0,1,12.529.09c4.177-.6,7.193,1.865,7.193,5.585,1.937-.889,4.809.514,5.652,2.692,1.521,3.879.051,6.952-3.3,8.313Z" transform="translate(-17427.895 22711.736)" fill="#4dd1c8"/><g transform="translate(-17626.314 22734.625)"><path d="M3.381.328A3.5,3.5,0,0,1,.74,1.869c-.981.067-.992,1.6,0,1.541A5.138,5.138,0,0,0,4.706,1.124C5.261.3,3.93-.469,3.381.348Z" transform="translate(206.214 3.308)" fill="#324958"/><path d="M2.208.681c-.241-.6-.925-1.028-1.4-.3A5.071,5.071,0,0,0,0,2.737c-.072.73.853.92,1.31.539A2.7,2.7,0,0,0,2.3,1.026,1.13,1.13,0,0,0,2.208.681Z" transform="translate(206.729 0)" fill="#324958"/><path d="M9.327.281C8.3-.331,6.686.209,5.6.471A27.965,27.965,0,0,0,.829,2.115c-1.983.879.128,2.487.8,2.512,1.747.062,7.075-.3,8.133-1.942a1.56,1.56,0,0,0-.437-2.4Z" transform="translate(4.66 199.713)" fill="#324958"/><path d="M9.188.257A8.955,8.955,0,0,1,.968,3.546C0,3.412-.419,4.892.557,5.025a10.5,10.5,0,0,0,9.69-3.679C10.873.591,9.795-.5,9.163.257Z" transform="translate(0 209.216)" fill="#324958"/></g><path d="M5.768.74A37.239,37.239,0,0,1,.117,21.471c-.514.843.807,1.618,1.331.776A38.8,38.8,0,0,0,7.32.74a.771.771,0,0,0-1.541,0Z" transform="translate(-17643.609 22923.553)" fill="#fff"/><path d="M1.814.057A.8.8,0,0,0,.972.217a3.355,3.355,0,0,0-.884,1.12A.8.8,0,0,0,1.234,2.364,1.839,1.839,0,0,0,2.261.782.76.76,0,0,0,1.814.057Z" transform="translate(-17532.834 22734.633)" fill="#324958"/><path d="M.956.029A1.475,1.475,0,0,0,.113,1.976a.776.776,0,0,0,1.439-.067A2.929,2.929,0,0,0,1.7.682c-.062-.6-.39-.755-.74-.653Z" transform="translate(-17525.215 22736.248)" fill="#324958"/><path d="M6.05,1.2C2.618,1.748,3.522-.57,1.349.134-.229.648-.234,2.626.377,3.885,1.184,5.55,4.072,6.13,4.9,4.2" transform="translate(-17547.689 22734.344)" fill="#fff"/><path d="M6.626,1.242A2.523,2.523,0,0,1,4.5.8,2.929,2.929,0,0,0,3.241.05a2.8,2.8,0,0,0-3.2,2.482A3.879,3.879,0,0,0,2.192,6.611,3.078,3.078,0,0,0,6.344,5.373c.447-.884-.879-1.66-1.326-.776A1.765,1.765,0,0,1,2.11,4.71c-.714-.791-.976-3.016.514-3.139.611-.046.889.488,1.377.791a4.366,4.366,0,0,0,3.016.36c1.033-.154.56-1.613-.406-1.48Z" transform="translate(-17548.467 22733.564)" fill="#324958"/><g transform="translate(-17552.027 22765.748)"><path d="M3.232,1A1.765,1.765,0,0,0,.4.533a1.747,1.747,0,0,0,0,2.214,1.028,1.028,0,0,0,1.11.837A1.859,1.859,0,0,0,3.232,1Z" transform="translate(0 5.452)" fill="#f4f4f6"/><path d="M85.887,10.637.732.007c-.981-.123-.971,1.413,0,1.541L85.9,12.179c.981.123.971-1.413,0-1.541Z" transform="translate(110.06 29.725)" fill="#f4f4f6"/><path d="M13.453,4C10.37-2.168.829-1,.059,6.1a7.023,7.023,0,0,0,4.023,7.28c3.442,1.6,7.5.555,10.789-.925a.781.781,0,0,0,.355-.868l-.3-1.541-1.408.591,3.5,5.652a.776.776,0,0,0,1.326,0L21.2,11.5l-1.326-.776c-1.567,3.535,8.56,4.537,10.358,4.83a138.532,138.532,0,0,0,26.013,1.993.771.771,0,0,0,0-1.541,139.5,139.5,0,0,1-23.362-1.572c-1.192-.164-12.007-2.209-11.694-2.913.39-.884-.812-1.649-1.326-.776L17,15.537h1.326L14.835,9.885a.776.776,0,0,0-1.408.591l.3,1.541.355-.868c-4.362,1.968-12.552,2.667-12.552-4.2,0-6.1,8.025-7.285,10.584-2.153.442.889,1.767.108,1.331-.776Z" transform="translate(9.339)" fill="#f4f4f6"/><path d="M.092,1.169A20.12,20.12,0,0,0,11.586,11.326a.766.766,0,0,0,.945-.514l.843-4.722-1.284.339c1.993,1.541,2.543,2.122,5.025,2.261q4.547.262,9.079.586,9.325.678,18.625,1.634,18.753,1.922,37.347,5c.966.159,1.382-1.32.406-1.485q-17.3-2.872-34.742-4.778Q39.037,8.706,30.221,8q-4.285-.329-8.57-.611c-1.505-.1-3.036-.123-4.542-.277A6.722,6.722,0,0,1,13.168,5.3c-.4-.313-1.171-.293-1.284.339l-.843,4.722.945-.514A18.63,18.63,0,0,1,1.413.393C.976-.5-.35.28.087,1.169Z" transform="translate(74.355 10.977)" fill="#f4f4f6"/><path d="M2.883,1.269A1.541,1.541,0,0,0,.448.3,1.367,1.367,0,0,0,.027,1.583,1.711,1.711,0,0,0,.473,2.61C1.388,3.669,3.022,2.472,2.883,1.269Z" transform="translate(165.577 25.838)" fill="#f4f4f6"/><path d="M5.028.15C.841-.934-1.451,4.091,1.016,7.194c1.665,2.1,4.377,2.641,6.916,2.291,2.2-.3,5.354-1.135,6.386-3.355a3.016,3.016,0,0,0-.981-3.843C11.733,1.214,9.57,1.969,8.142,3a4.157,4.157,0,0,0-1.9,3.93,1.655,1.655,0,0,0,2.43,1.5c.915-.344.514-1.829-.411-1.485-.766.288-.514-.76-.4-1.187A3.237,3.237,0,0,1,9.632,3.87L10.8,3.4c1.541-.365,2.189.062,1.993,1.269.272,1.757-1.49,2.3-2.887,2.764-2,.668-4.475,1.028-6.391-.082A3.917,3.917,0,0,1,1.406,4.132a2.625,2.625,0,0,1,3.216-2.5A.767.767,0,1,0,5.028.15Z" transform="translate(172.448 23.442)" fill="#f4f4f6"/><path d="M.058,1.171A6.261,6.261,0,0,0,11.207,1.8H9.9l2.62,5.282c.416.832,1.541.206,1.4-.6a4.624,4.624,0,0,1,.75-3.376H13.349l2.62,4.675A.768.768,0,0,0,17.3,7.013l-2.62-4.675a.776.776,0,0,0-1.326,0,5.991,5.991,0,0,0-.9,4.562l1.4-.591-2.62-5.282a.776.776,0,0,0-1.326,0A4.729,4.729,0,0,1,1.4.4C.988-.5-.333.282.078,1.171Z" transform="translate(181.041 26.537)" fill="#f4f4f6"/></g><path d="M.937,11.365,64.677,1.5c.976-.154.56-1.634-.411-1.485L.557,9.885c-.976.149-.56,1.634.406,1.48Z" transform="translate(-17596.113 22903.227)" fill="#324958"/><path d="M.005.771.719,103.728a.771.771,0,1,0,1.541,0L1.541.771A.771.771,0,0,0,0,.771Z" transform="translate(-17540.652 22904.701)" fill="#324958"/><path d="M.088,5.575C-1.454,23.2,17.664,39.942,33.427,40.974L33.211,0Z" transform="translate(-17573.094 22905.473)" fill="#324958"/><path d="M55.442,13.719,25.041.392a4.655,4.655,0,0,0-5.215,1.028L.852,20.943a3.031,3.031,0,0,0,.9,4.855L35.574,41.489Z" transform="matrix(0.995, 0.105, -0.105, 0.995, -17534.02, 22878.527)" fill="#324958"/><path d="M20.866,31.814c-2.194-4.624,1.973-9.135,3.319-10.754,5.569-6.7,5.611-15.285.092-19.169S9.774.3,4.2,7s-5.611,15.29-.092,19.169C6.46,27.827,12.928,30.6,9.465,38.308" transform="translate(-17482.869 22853.902)" fill="#fff"/><path d="M22.529,32.377c-1.577-3.91.75-7.08,3.124-10a19.01,19.01,0,0,0,4.239-8.966c.9-5.749-1.937-11.478-7.8-13-11.92-3.083-27.04,12.089-20.521,23.8,1.326,2.389,3.447,3.5,5.569,5.03,3.427,2.482,4.11,5.739,2.507,9.639-.38.909,1.1,1.31,1.48.406,1.793-4.311.956-8.221-2.78-11.052C6.54,26.859,4.51,25.965,3.211,23.982c-1.911-2.959-1.875-6.756-.755-10C4.757,7.3,11.5,1.571,18.768,1.54c7.758-.031,11.278,7.285,8.981,14.083-1.963,5.811-9.474,10.317-6.715,17.166.365.9,1.85.514,1.48-.411Z" transform="translate(-17483.803 22853.135)" fill="#324958"/><path d="M0,20.356,33.571,36.309,54.03,16.215,19.776,0Z" transform="matrix(0.995, 0.105, -0.105, 0.995, -17533.5, 22879.42)" fill="#eee"/><g transform="translate(-17511.502 23022.764)"><path d="M0,21.075S2.831.4,2.892.01V0l8.154,2.518L6.3,22.37Z" transform="translate(11.223 15.83)" fill="#324958"/><path d="M11.727,1.86,2.273.036A1.844,1.844,0,0,0,.146,1.305l-.1.36A1.541,1.541,0,0,0,.824,3.412l14.242,7.794a1.834,1.834,0,0,0,2.677-1.254l.514-3.437A1.665,1.665,0,0,0,15.919,4.84a1.773,1.773,0,0,1-2.132-.678l-.935-1.541a1.654,1.654,0,0,0-1.125-.76Z" transform="translate(0 29.732)" fill="#324958" stroke="#324958" stroke-miterlimit="10" stroke-width="4.49"/><path d="M7.4.4,1.314.009A1.182,1.182,0,0,0,.045.821l-.036.2A.8.8,0,0,0,.6,1.9l9.479,3.309A1.207,1.207,0,0,0,11.7,4.371l.108-1.87c.041-.668-.817-1.079-1.577-.755a1.243,1.243,0,0,1-1.387-.231L8.157.744A1.1,1.1,0,0,0,7.4.4Z" transform="translate(59.988 11.793)" fill="#324958" stroke="#324958" stroke-miterlimit="10" stroke-width="4.49"/><path d="M2.287,14.848,0,4.285,5.2.012,6.325,14.848ZM5.2,0h.015L5.2.012Z" transform="translate(65.129 0)" fill="#324958"/></g><path d="M0,86.866l7.5-83.6L52.8,0l7.712,71.935H53.7L40.753,13.194,24.025,17.546,10.24,89.9Z" transform="translate(-17498.75 22960.965)" fill="#324958"/><path d="M8.945,100.09s21.99,23.737,57.9,17.736c33.293-5.564,32.173-28.957,32.173-28.957L89.131,56.09l8.282-5.739L69.459,0S30.19,17.412,0,72.916l22.221,4.11Z" transform="translate(-17526.221 22878.869)" fill="#fff"/><g transform="translate(-17507.756 22841.652)"><path d="M.738,7.049c6.854.4,14.026-2.055,19.75-5.621L19.363.971,33.851,42.037c.324.925,1.809.514,1.48-.411L20.842.56A.776.776,0,0,0,19.712.1C14.209,3.55,7.335,5.9.738,5.513c-.986-.057-.981,1.48,0,1.541Z" transform="translate(34.253 45)" fill="#f4f4f6"/><path d="M1.318,45.188,15.436,31.829l8.272-7.815a11.231,11.231,0,0,0,2.882-3.694A28.772,28.772,0,0,0,28.646.53a.771.771,0,0,0-1.485.406,27.1,27.1,0,0,1-2,18.779,9.5,9.5,0,0,1-2.769,3.412L5.4,39.187.239,44.1c-.724.683.365,1.767,1.084,1.089Z" transform="translate(0 60.156)" fill="#f4f4f6"/><path d="M2.543,3.048,11.5,1.507l-.971-.74C11.092,8.823,8.164,18.143.4,21.735c-.894.416-.113,1.742.776,1.326,8.221-3.8,11.493-13.728,10.9-22.293A.786.786,0,0,0,11.1.022L2.132,1.563c-.971.164-.56,1.644.411,1.48Z" transform="translate(8.573 92.981)" fill="#f4f4f6"/><path d="M29.8,20.826a10.3,10.3,0,0,1-1.588,5.929C25.36,31.626,19.734,33.717,14.134,33a.75.75,0,0,1-.313-1.3c.93-.75,4.624-4.079,3.833-5.405-1.66-2.738-5.009,1.053-6.165,2.22-.478.478-1.5.113-1.4-.55.319-2.245,1.449-4.362,1.654-6.623.4-4.3-6.248-4.7-8.935-6.592C-.761,12.256-.843,7.5,2.081,4.308c4.157-4.557,16.266-6.885,17.982.159A9.746,9.746,0,0,1,30.817,8.341c2.687,4.11.4,7.619-3.268,10.009,1.228.226,2,.488,2.256,2.476Z" transform="translate(32.602 0)" fill="#324958"/></g><ellipse cx="4.141" cy="3.062" rx="4.141" ry="3.062" transform="matrix(0.856, -0.517, 0.517, 0.856, -17476.318, 22861.723)" fill="#fff"/><path d="M8.661,1.19C5.352-2.406-2.468,2.916.769,6.975c3.083,3.874,10.938-1.413,8.015-5.652-.56-.807-1.9-.041-1.331.776,1.86,2.682-3.535,6.309-5.462,3.91C-.032,3.487,5.5-.012,7.577,2.254,8.245,3.009,9.329,1.92,8.661,1.19Z" transform="translate(-17475.936 22858.107)" fill="#4dd1c8"/><ellipse cx="3.679" cy="2.718" rx="3.679" ry="2.718" transform="matrix(0.856, -0.517, 0.517, 0.856, -17482.998, 22857.775)" fill="#fff"/><g transform="translate(-17482.738 22854.471)"><path d="M7.835,1.089C4.83-2.189-2.235,2.63.7,6.335,3.5,9.859,10.61,5.071,7.953,1.243c-.56-.807-1.891-.036-1.326.776,1.593,2.3-3.083,5.42-4.706,3.376C.19,3.247,4.968.257,6.746,2.178c.673.73,1.757-.36,1.089-1.089Z" transform="translate(0 0)" fill="#4dd1c8"/><path d="M3.129,1.575A2.286,2.286,0,0,0,.766.008.786.786,0,0,0,0,.774a.776.776,0,0,0,.766.771.92.92,0,0,1,.586.1.637.637,0,0,1,.3.339.786.786,0,0,0,.945.539.776.776,0,0,0,.514-.945Z" transform="translate(5.554 4.791)" fill="#4dd1c8"/><path d="M.554.092.446.143C-.53.6.261,1.936,1.232,1.484l.108-.051C2.316.981,1.525-.36.554.092Z" transform="translate(10.179 7.25)" fill="#4dd1c8"/><path d="M.892.009A.776.776,0,1,0,.825,1.55.776.776,0,1,0,.892.009Z" transform="translate(3.46 3.064)" fill="#4dd1c8"/></g><path d="M6.8.243C5.211-.6.819.947.125,1.826A.745.745,0,0,0,.382,2.889,5.485,5.485,0,0,0,4.831,3.4c.9-.247,2.62-1.254,2.569-2.271A1.028,1.028,0,0,0,6.8.243Z" transform="translate(-17483.49 22861.063)" fill="#324958"/><path d="M.555,3.21A11.37,11.37,0,0,0,9.192,1.463C10,.908,9.233-.422,8.416.133A9.762,9.762,0,0,1,.961,1.725C-.005,1.54-.416,3.02.555,3.21Z" transform="translate(-17479.523 22867.139)" fill="#324958"/><path d="M11.932,2.862,4.226,11.447a1.511,1.511,0,0,1-2.25,0C.506,9.685-1.472,6.2,1.688,2.523,4.678-.966,9.019-.087,11.4.771a1.274,1.274,0,0,1,.534,2.091Z" transform="matrix(0.995, 0.105, -0.105, 0.995, -17530.025, 22883.205)" fill="#eee" stroke="#324958" stroke-miterlimit="10" stroke-width="1.5"/><path d="M1.28,10.955,9.5,1.342C10.143.591,9.059-.5,8.417.252L.2,9.87C-.446,10.621.638,11.71,1.28,10.955Z" transform="matrix(0.995, 0.105, -0.105, 0.995, -17523.777, 22888.303)" fill="#324958"/><path d="M1.328,15.759,17.343,1.3c.735-.668-.355-1.752-1.089-1.089L.244,14.675c-.735.663.355,1.747,1.084,1.084Z" transform="matrix(0.995, 0.105, -0.105, 0.995, -17520.973, 22888.346)" fill="#324958"/><path d="M12,.26.187,14.564c-.622.76.457,1.855,1.089,1.089L13.093,1.344C13.72.589,12.636-.505,12.009.26Z" transform="matrix(0.995, 0.105, -0.105, 0.995, -17511.875, 22892.43)" fill="#324958"/><path d="M24.117,2.631S10.867-3.828,0,3.494l9.633.468a5.6,5.6,0,0,0,5.78,1.814L18.5,7.316Z" transform="matrix(0.995, 0.105, -0.105, 0.995, -17500.725, 22887.762)" fill="#fff"/><path d="M25.258,2.734C17.494-.99,7.691-1.1.365,3.6a.776.776,0,0,0,.39,1.433l4.568.221c1.541.077,3.535-.159,5.035.247-1.064-.288.38.658.786.93A6.314,6.314,0,0,0,14.062,7.5c.514.051,1.053-.1,1.541-.051a3.283,3.283,0,0,1,1.074.226A18.209,18.209,0,0,1,18.82,8.761a.807.807,0,0,0,.93-.123l5.652-4.7c.76-.632-.329-1.716-1.084-1.084l-5.652,4.7.93-.123c-1.12-.565-2.4-1.541-3.653-1.624C14.525,5.7,13.631,6.12,12.3,5.36c-.406-.236-.719-.581-1.094-.848s-.385-.4-.868-.55C8.894,3.521,6.8,3.788,5.3,3.716L.735,3.495,1.12,4.928C7.964.535,17.186.571,24.461,4.065c.909.426,1.69-.9.8-1.331Z" transform="matrix(0.995, 0.105, -0.105, 0.995, -17501.393, 22886.914)" fill="#324958"/><g transform="matrix(1, -0.017, 0.017, 1, -17509.596, 22878.432)" fill="#fff"><path d="M 0.8280184268951416 48.04571533203125 C 0.3975884020328522 48.04571533203125 -0.01552159339189529 47.80420303344727 -0.1999515891075134 47.44475555419922 C -0.3614116013050079 47.13005447387695 -0.3258616030216217 46.77106475830078 -0.1024015918374062 46.45981597900391 C 8.925628662109375 34.03532409667969 19.66299819946289 22.97409439086914 31.81244850158691 13.5820140838623 C 38.16745758056641 8.61463451385498 45.37182998657227 2.983374357223511 53.1784782409668 -0.2173655480146408 C 53.31311798095703 -0.2722655534744263 53.44702911376953 -0.3000055551528931 53.57700729370117 -0.3000055551528931 C 54.02481842041016 -0.3000055551528931 54.39077758789062 0.03099445812404156 54.48764801025391 0.5236444473266602 C 54.57682800292969 0.9771944880485535 54.40336990356445 1.575564503669739 53.811767578125 1.817574501037598 C 46.23576736450195 4.927514553070068 39.09038925170898 10.5556640625 32.78613662719727 15.52128410339355 L 32.7364387512207 15.5604248046875 C 20.50113868713379 25.20068359375 10.07289886474609 35.97548294067383 1.741428375244141 47.58549499511719 L 1.651658415794373 47.7105827331543 L 1.612143993377686 47.7105827331543 C 1.40554940700531 47.92785263061523 1.132296323776245 48.04571533203125 0.8280184268951416 48.04571533203125 Z" stroke="none"/><path d="M 0.8280214667320251 47.74571228027344 C 1.062817811965942 47.74571228027344 1.300813436508179 47.64749145507812 1.471998453140259 47.41058349609375 L 1.497688412666321 47.41058349609375 C 10.20632839202881 35.27499389648438 20.82625770568848 24.56259536743164 32.55080795288086 15.32475471496582 C 38.96284866333008 10.27425479888916 46.06334686279297 4.674004554748535 53.69817733764648 1.539914488792419 C 54.60243988037109 1.16999351978302 54.21189880371094 -0.3148378729820251 53.29228973388672 0.06021445989608765 C 45.58551788330078 3.21999454498291 38.49015808105469 8.74317455291748 31.99592781066895 13.81936454772949 C 19.87385749816895 23.19028472900391 9.147978782653809 34.23967361450195 0.1412984132766724 46.63477325439453 C -0.2629566192626953 47.19784164428711 0.2735475897789001 47.74571228027344 0.8280214667320251 47.74571228027344 M 0.8280184268951416 48.3457145690918 C 0.2879784107208252 48.3457145690918 -0.2324015945196152 48.0386848449707 -0.466871589422226 47.58171463012695 C -0.681501567363739 47.16339492797852 -0.6374815702438354 46.69070434570312 -0.3460915982723236 46.28484344482422 C 8.699687957763672 33.8359260559082 19.45697784423828 22.75417518615723 31.62896919250488 13.34466457366943 C 37.99800872802734 8.366324424743652 45.21970748901367 2.72150444984436 53.06467819213867 -0.494935542345047 C 53.23600006103516 -0.5647955536842346 53.40802001953125 -0.600005567073822 53.57700729370117 -0.600005567073822 C 54.17240905761719 -0.600005567073822 54.65665817260742 -0.1717055439949036 54.78200912475586 0.4657644629478455 C 54.9190673828125 1.162764430046082 54.56679916381836 1.832834482192993 53.92535781860352 2.095244407653809 C 46.38846969604492 5.189124584197998 39.26057815551758 10.80349445343018 32.97176742553711 15.75695419311523 L 32.92206954956055 15.79610443115234 C 20.70891761779785 25.41890525817871 10.30021858215332 36.17327499389648 1.985158443450928 47.76040267944336 L 1.805628418922424 48.01058578491211 L 1.730929017066956 48.01058578491211 C 1.48103392124176 48.22636032104492 1.165261149406433 48.3457145690918 0.8280184268951416 48.3457145690918 Z" stroke="none" fill="#fff"/></g><path d="M0,1.216v.108c-.067,1.624,2.569,1.624,2.625,0V1.216C2.693-.4.068-.408,0,1.216Z" transform="matrix(0.995, 0.105, -0.105, 0.995, -17527.334, 22886.078)" fill="#4dd1c8"/><g transform="translate(-17476.572 22731.502)"><path d="M28.334.373A67.5,67.5,0,0,1,.4,24.942c-.848.406-.2,1.541.591,1.4A69.8,69.8,0,0,0,28.658,15.463c.822-.545.051-1.875-.771-1.326A68.8,68.8,0,0,1,.569,24.865l.591,1.4A68.945,68.945,0,0,0,29.685,1.134C30.2.3,28.889-.475,28.36.358Z" transform="translate(0 205.918)" fill="#f4f4f6"/><path d="M0,.771v.19a.771.771,0,1,0,1.541,0V.771A.771.771,0,0,0,0,.771Z" transform="translate(60.512 0.3)" fill="#324958"/><path d="M.518.089.39.151c-.884.442-.108,1.767.776,1.326l.128-.062C2.178.973,1.4-.353.518.089Z" transform="translate(56.85)" fill="#324958"/><path d="M2.722.053A2.6,2.6,0,0,0,.23.905a.827.827,0,0,0,0,1A1.978,1.978,0,0,0,.354,3.957a1.709,1.709,0,0,0,2.091.226,2.446,2.446,0,0,0,1.48-1.85A1.942,1.942,0,0,0,2.722.053Z" transform="translate(63.842 1.331)" fill="#4dd1c8"/></g><g transform="translate(-17654.066 22720.789)"><path d="M9.038.956c.771,3.083,1.372,6.551-.581,9.32-1.747,2.466-5.652,3.083-7.059-.087-.4-.9-1.721-.123-1.326.776,1.382,3.134,5.39,3.781,8.056,1.865,3.93-2.836,3.432-8.164,2.389-12.285A.768.768,0,0,0,9.038.956Z" transform="translate(0 52.339)" fill="#fff"/><path d="M7.6,1.339c1.223,1.387.575,3.92-.868,4.937-1.7,1.187-4.038.241-5.4-.992C.6,4.622-.491,5.7.244,6.369c2.024,1.839,5.431,2.887,7.707.879a5.127,5.127,0,0,0,.714-7C8.007-.5,6.923.594,7.576,1.339Z" transform="translate(308.639 85.301)" fill="#f4f4f6"/></g><path d="M6.977.936C8.349,5.216,4.706,8.042.74,8.3c-.981.067-.992,1.6,0,1.541,4.937-.324,9.407-4.033,7.707-9.31C8.143-.4,6.664,0,6.962.941Z" transform="translate(-17537.18 23075.119)" fill="#f4f4f6"/><path d="M6.672.963a16.476,16.476,0,0,1,.2,6.222C6.359,9.4,3.43,13.35,1.4,9.975a.771.771,0,0,0-1.326.776c1.567,2.625,4.7,2.482,6.612.283C9.2,8.135,8.7,4.046,8.152.557,8-.419,6.518,0,6.672.963Z" transform="translate(-17652.646 22773.021)" fill="#324958"/><g transform="translate(-17621.609 22848.293)"><path d="M.257,1.276l9.4,7.892c.75.632,1.844-.447,1.084-1.084L1.347.192C.591-.44-.5.639.257,1.276Z" transform="translate(39.705 102.04)" fill="#fff"/><path d="M.257,1.276l4.5,3.776C5.513,5.684,6.6,4.6,5.847,3.963L1.341.192C.591-.44-.5.639.257,1.276Z" transform="translate(27.837 92.067)" fill="#fff"/><path d="M.271,1.276,10.9,10.2c.755.632,1.844-.452,1.084-1.089L1.344.192C.589-.44-.5.639.255,1.276Z" transform="translate(14.311 80.764)" fill="#fff"/><path d="M.257,1.281l4.912,4.11c.75.632,1.844-.452,1.084-1.089L1.341.192C.591-.44-.5.639.257,1.276Z" transform="translate(6.551 74.239)" fill="#fff"/><path d="M.257,1.28,3.941,4.363c.75.627,1.844-.452,1.084-1.089L1.341.191C.591-.441-.5.643.257,1.275Z" transform="translate(0 68.747)" fill="#fff"/><path d="M.557,1.494,10.581,3.3c.966.17,1.377-1.31.406-1.485L.963.014C0-.16-.419,1.319.557,1.494Z" transform="translate(270.829 7.208)" fill="#fff"/><path d="M.529,1.479l12.156,2.2c.966.175,1.382-1.31.411-1.485L.966.014C-.006-.16-.417,1.319.554,1.494Z" transform="translate(255.033 4.377)" fill="#fff"/><path d="M.557,1.5,13.741,3.868c.971.175,1.382-1.305.411-1.48L.963.014C0-.16-.419,1.324.557,1.5Z" transform="translate(238.127 1.326)" fill="#fff"/><path d="M.553,1.494l3.694.668c.966.17,1.382-1.31.411-1.485L.964.014C0-.16-.418,1.319.553,1.494Z" transform="translate(230.743 0)" fill="#fff"/></g><path d="M7.47,34.131,11.283.735c.1-.894-1.254-.986-1.511-.2C6.345,11.006,3.463,21.656.036,32.127l1.505.206L3.92,11.268c.108-.981-1.428-.971-1.541,0L.005,32.333c-.1.9,1.254.986,1.511.206C4.948,22.062,7.825,11.417,11.277.941L9.767.735,5.95,34.131c-.108.981,1.428.976,1.541,0Z" transform="translate(-17724.607 23051.74)" fill="#324958"/></g></svg>