<svg xmlns="http://www.w3.org/2000/svg" viewBox="0 0 450 347.328">
  <path d="M449.801 283.905c1.618 16.382-6.788 33.625-19.816 44.269-15.767 12.877-36.813 17.5-57.159 18.151-62.945 1.954-119.868-28.677-181.407-15.228-16.727 3.652-35.749 12.243-52.594 15.318s-38.346-1.694-51.246-12.952c-20.343-17.745-17.178-50.571-31.308-73.566-13.77-22.404-42.878-33.658-52.107-58.28-5.927-15.8-1.85-34.2 7.782-48.058 20.677-29.746 58.659-43.1 91.215-25.2 15.7 8.633 28.729 21.311 43.308 31.695 37.788 26.964 84.516 37.726 130.194 45.934s92.5 14.693 134.348 34.784c15.138 7.266 30.356 17.323 36.425 32.977a38.578 38.578 0 0 1 2.365 10.156Z" fill="#f6f6f6" />
  <path d="m107.957 272.286 30.635-22.787 5.5 26.827a1.239 1.239 0 0 0 2.152.558 1.239 1.239 0 0 0 .289-.946l-4.264-38.218-41.28 19.584Z" fill="#fff" />
  <path d="m112.924 238.49 30.3-12.545s5.109 6.812 5.544 31.222l-3.614 1.088a31.454 31.454 0 0 0-2.365-9.6 35.535 35.535 0 0 1-2.512-10.147 66.709 66.709 0 0 1-27.338 18.662Z" fill="#fff" />
  <path d="m235.9 122.734-27.253-59.8c-.336-.733-1.419-.1-1.083.634l27.262 59.79c.336.733 1.419.1 1.088-.634Z" fill="#324958" />
  <path d="M64.658 92.132 52.17 180.04c-.114.79 1.1 1.131 1.211.336l12.484-87.913c.108-.79-1.098-1.131-1.207-.331Z" fill="#324958" />
  <path d="m84.905 86.753 24.911 54.43c.336.733 1.419.1 1.083-.634L85.988 86.114c-.336-.733-1.419-.095-1.083.634Z" fill="#324958" />
  <path d="m60.424 94.511-20.815 52.065c-.3.752.913 1.079 1.211.336l20.814-52.065c.299-.752-.912-1.074-1.21-.336Z" fill="#324958" />
  <path d="m146.378 94.601 2.7 22.5h24.6s4.064-13.326-.166-24.244-27.134 1.744-27.134 1.744Z" fill="#324958" />
  <path d="m304.871 258.127 5.719 45.8a2.569 2.569 0 0 0 2.261 2.233 2.569 2.569 0 0 0 2.838-2.233l5.677-45.527Z" fill="#324958" />
  <path d="M329.044 106.878s-1.623-12.129-5.085-14.135c-7.63-4.414-33.336 7.488-33.336 7.488l-4.314 34.136 25.938 7.257Z" fill="#324958" />
  <path d="m381.785 290.735-17.314-7.271 3.018 24.949c-1.178 2.592-9.4-1.419-9.021-3.732.544-3.311 4.939-.388 4.939-.388l-8.889-30.919 29.405-1.7Z" fill="#324958" />
  <path d="M379.634 292.324a36.523 36.523 0 0 1-4.731-2.28l3.288 11.434s-3.7-2.479-4.158.331c-.322 1.963 6.623 5.327 7.6 3.146l-1.509-12.451Z" fill="#324958" />
  <path d="m310.084 110.248 46.795-13.477-20.8 58.886h-2.6l2.6-19.286-25.73 7.971Z" fill="#f4f4f6" />
  <path d="m130.185 221.589-12.56 23.97s-.605 10.611 7.744 5.852c0 0-13.936 12.654-26.288 6.717s-5.606-35.995-5.606-35.995l23-11.254Z" fill="#1b6964" />
  <path d="M106.24 260.672a17.28 17.28 0 0 1-7.569-1.694c-12.877-6.188-6.4-35.8-6.117-37.054a.946.946 0 0 1 .5-.639l23-11.23a.946.946 0 0 1 .993.1l13.719 10.71a.946.946 0 0 1 .255 1.178l-12.465 23.789c-.038 1.377.218 4.565 1.826 5.563 1 .62 2.526.36 4.518-.781a.946.946 0 0 1 1.1 1.519c-.469.403-9.575 8.539-19.76 8.539Zm-11.935-37.9c-.752 3.68-5.568 29.329 5.2 34.5 7.9 3.784 16.642-.535 21.491-3.742a4.055 4.055 0 0 1-1.589-.568c-2.99-1.854-2.715-7.238-2.7-7.465a.89.89 0 0 1 .1-.383l12.2-23.274-12.651-9.859Z" fill="#324958" />
  <path d="M391.686 232.577c-11.746 42.168-92.776 56.436-180.986 31.879S72.837 185.541 89.38 145.014c9.518-23.35 86.262-40.565 174.472-16s139.575 61.39 127.834 103.563Z" fill="#324958" />
  <path d="M293.768 276.813c-26.018 0-54.5-4.082-83.154-12.063-29.017-8.08-55.423-19.911-76.356-34.221-19.9-13.6-34.486-29.088-42.187-44.8-7.015-14.31-8.042-28.426-2.98-40.829 4.925-12.058 27.139-22.082 57.982-26.16 35.432-4.683 76.938-1.14 116.845 9.977 45.063 12.55 79.213 27.768 101.508 45.234 11.353 8.912 19.4 18.326 23.908 27.981a43.47 43.47 0 0 1 2.635 30.749c-5.715 20.521-27.754 35.148-62.065 41.189a209.475 209.475 0 0 1-36.136 2.943ZM179.01 117.336a243.224 243.224 0 0 0-31.86 2.025c-30.616 4.045-52.646 13.922-57.481 25.772-5 12.233-3.969 26.174 2.961 40.319 16.037 32.712 61.308 62.864 118.15 78.7 87.9 24.476 168.919 10.275 180.6-31.657l.3.085-.3-.085c5.677-20.389-3.179-39.916-26.326-58.049-21.917-17.172-56.942-32.773-101.286-45.125a320.2 320.2 0 0 0-84.758-11.985Z" fill="#324958" />
  <path d="M392.609 224.895c-11.741 42.168-92.771 56.44-180.986 31.874S73.76 177.859 90.308 137.332c9.532-23.35 86.257-40.56 174.472-15.994s139.57 61.389 127.829 103.557Z" fill="#fff" stroke="#324958" />
  <path d="m5.574 31.59 95.5-15.393a3.747 3.747 0 0 1 4.2 2.668l19.225 67.425a3.737 3.737 0 0 1-1.892 4.347l-85.41 44.571a3.747 3.747 0 0 1-5.317-2.233L2.584 36.373a3.742 3.742 0 0 1 2.99-4.783Z" fill="#324958" />
  <path d="m6.028 34.055 97.32-15.687 19.821 69.492-87.059 45.418Z" fill="#fff" />
  <path d="m377.239 191.299-2.976 16.131a2.943 2.943 0 0 1-1.419 2.044c-1.963 1.112-5.989 2.479-9.7-1.892l-2.315-15.758" fill="#324958" />
  <path d="M368.871 210.912a7.728 7.728 0 0 1-5.984-3.136.293.293 0 0 1-.071-.156l-2.314-15.758a.308.308 0 0 1 .265-.355.312.312 0 0 1 .355.265l2.3 15.668c3.52 4.087 7.3 2.838 9.248 1.76a2.64 2.64 0 0 0 1.287-1.826l2.971-16.136a.317.317 0 0 1 .62.118l-2.975 16.131a3.255 3.255 0 0 1-1.589 2.261 8.482 8.482 0 0 1-4.113 1.164Z" fill="#324958" />
  <path d="M130.995 9.853 244.646.018a5 5 0 0 1 5.435 4.986v67.392a5 5 0 0 1-4.693 5l-102.024 6.3a5 5 0 0 1-5.2-4.1l-11.635-63.863a5 5 0 0 1 4.466-5.88Z" fill="#324958" />
  <path d="m130.181 12.682 115.236-9.958v71.734l-102.823 6.346Z" fill="#fff" />
  <path d="m331.433 220.737 26.6-26.042 20.04 33.923-20.048 20.881s-15.243-6.642-26.592-28.762Z" fill="#f4f4f6" />
  <path d="m348.756 121.844 9.333-27.655c.26-.766-.946-1.093-1.211-.331l-9.333 27.65c-.26.772.946 1.098 1.211.336Z" fill="#324958" />
  <path d="M308.868 104.611q.369 15.873.7 31.751a.629.629 0 0 0 1.254 0q-.369-15.873-.7-31.752a.629.629 0 0 0-1.254 0Z" fill="#324958" />
  <ellipse cx="13.392" cy="15.185" rx="13.392" ry="15.185" transform="rotate(-33.55 97.322 -101.428)" fill="#fff" />
  <path d="M90.913 44.888a.719.719 0 0 1 .284 0 .6.6 0 0 1-.1-.412c.714-5.525 2.039-11.022 2.484-16.557a13.326 13.326 0 0 0-5.506-.246 11.826 11.826 0 0 0-7.153 4.039c1.3 1.419 2.4 3.127 3.548 4.537 2.115 2.588 3.993 5.393 6 8.042.159.195.301.403.443.597Z" fill="#4dd1c8" />
  <path d="M90.586 46.969c-2.209-2.957-4.352-5.979-6.623-8.9-1.2-1.547-2.474-3.567-3.945-5.161a14.317 14.317 0 0 0-1.664 11.511c2.072 8 9.773 13.463 17.2 12.2a11.474 11.474 0 0 0 1.746-.43q-3.293-4.645-6.714-9.22Z" fill="#1b6964" />
  <path d="M92.824 43.067c3.737-2.195 7.285-4.7 10.88-7.1a16.647 16.647 0 0 0-8.633-7.565c-.43 4.887-1.533 9.754-2.247 14.665Z" fill="#9ee6e1" />
  <path d="m310.033 114.715 46.052-15.355c.766-.255.435-1.466-.331-1.211l-46.057 15.355c-.762.255-.435 1.471.336 1.211Z" fill="#324958" />
  <path d="m310.411 130.284 35.425-13.619 5.057-1.949c.747-.284.421-1.5-.336-1.211l-35.421 13.624-5.057 1.944c-.751.289-.425 1.505.332 1.211Z" fill="#324958" />
  <path d="m297.804 119.626-9.906 22.924a44.526 44.526 0 0 1-27.669-16.628s-3.174 2-6.9-1.419a8.207 8.207 0 0 1 8.3-2.2l20.885 10.038s.7-18.35 8.6-31.283c-.013.001 11.714 2.229 6.69 18.568Z" fill="#fff" />
  <path d="M287.898 143.491h-.1a45.021 45.021 0 0 1-27.849-16.406c-1.32.473-4.139.946-7.252-1.892a.946.946 0 0 1-.08-1.306 9.1 9.1 0 0 1 9.253-2.493l.156.057 19.618 9.433c.336-4.6 1.892-19.268 8.652-30.318a.946.946 0 0 1 .979-.43 11.164 11.164 0 0 1 6.944 5.062c2.2 3.647 2.365 8.6.473 14.707a.117.117 0 0 1-.033.095l-9.906 22.924a.946.946 0 0 1-.855.567ZM260.21 124.98a.946.946 0 0 1 .738.36 44.335 44.335 0 0 0 26.353 16.174l9.6-22.234c1.7-5.549 1.594-9.967-.312-13.132a9.4 9.4 0 0 0-5.067-4.011c-7.337 12.531-8.089 30.044-8.1 30.224a.946.946 0 0 1-1.348.809l-20.814-10a7.238 7.238 0 0 0-6.519 1.268c2.781 1.992 4.939.681 4.962.667a.918.918 0 0 1 .506-.118Zm37.575-5.355Z" fill="#324958" />
  <path d="M185.941 110.387v13.246l6.623 5.9s-7.848 2.616-10.464-2.933l.317 4.257s-1.783.137-2.148-2.479-1.623-3.122 0-4.731-1.306-13.246-1.306-13.246Z" fill="#fff" />
  <path d="M185.3 110.387v9.65a35.325 35.325 0 0 0 0 3.609c.052.473.539.762.87 1.055l2.11 1.892 3.846 3.42.279-1.045c-3.387 1.121-8 .97-9.754-2.644a.629.629 0 0 0-1.168.317l.312 4.257.629-.629a.383.383 0 0 1-.1 0c-.132-.061.08.033-.109 0a1.31 1.31 0 0 1-.676-.374c-.771-.771-.686-2.124-.993-3.108-.208-.672-.681-1.448-.27-2.119.36-.591.809-.894.97-1.6a13.04 13.04 0 0 0-.062-4.494 58.6 58.6 0 0 0-.946-5.35 81.284 81.284 0 0 0-.676-2.971l-.605.795h6.987a.629.629 0 0 0 0-1.254h-6.968a.634.634 0 0 0-.605.795 67.243 67.243 0 0 1 1.556 7.985c.175 1.372.5 3.127.033 4.442a.705.705 0 0 1-.09.18c0 .028-.09.123 0 0-.076.095-.175.18-.255.27a2.923 2.923 0 0 0-.724 1.291 5.6 5.6 0 0 0 .53 2.64c.35 1.23.322 2.607 1.372 3.51a2.417 2.417 0 0 0 1.637.624.643.643 0 0 0 .629-.629l-.317-4.258-1.168.317c2 4.12 7.266 4.513 11.174 3.221a.634.634 0 0 0 .274-1.05l-6.623-5.9.185.445V110.43a.639.639 0 1 0-1.277-.043Z" fill="#324958" />
  <path d="M299.199 98.159s5.336 4.977 12.063 2.072 6.022-6.277 2.649-7.488-5.369-5.71-5.4-10.034 7.9-15.611.605-18.18c-6.457-2.271-14.665 2.838-18.922 14.589s6.651 13.288 11.405 8.472c.023.001 3.552 5.621-2.4 10.569Z" fill="#fff" />
  <path d="M306.934 102.095a13.245 13.245 0 0 1-8.378-3.245.943.943 0 0 1 .043-1.414c3.841-3.188 3.311-6.623 2.7-8.312-2.938 2.2-7.167 2.63-9.977.856-1.476-.946-4.631-3.9-1.987-11.183 4.688-12.943 13.657-17.418 20.1-15.138a5.246 5.246 0 0 1 3.174 2.711c1.419 3.018-.213 7.332-1.642 11.14a19.139 19.139 0 0 0-1.509 5.2c.028 3.709 1.679 8.042 4.778 9.158 1.892.681 3.075 1.992 3.122 3.5s-.9 3.661-5.715 5.738a11.775 11.775 0 0 1-4.7.984Zm-6.278-3.983a10.388 10.388 0 0 0 10.232 1.254c4.31-1.859 4.593-3.491 4.579-3.945 0-.71-.724-1.377-1.892-1.788-4.092-1.466-5.994-6.689-6.027-10.918a19.644 19.644 0 0 1 1.627-5.885c1.235-3.311 2.772-7.38 1.7-9.679a3.368 3.368 0 0 0-2.1-1.731c-5.52-1.958-13.4 2.247-17.678 14.017-1.556 4.291-1.121 7.47 1.225 8.95s6.348.852 8.628-1.457a.946.946 0 0 1 1.466.161 8.958 8.958 0 0 1-1.76 11.021Zm-1.457.047Z" fill="#324958" />
  <path d="M319.067 70.977c-.809 1.75-2.256 2.763-3.761 3.874a25.055 25.055 0 0 0-6.065 6.892.639.639 0 0 1-1.173-.322c.071-1.542 1.088-7.853-2.625-5.544a.629.629 0 0 1-.946-.539c.341-2.536 1.788-5.033 1.386-7.6-4.205.691-8.822 1.466-12.654-.662a.629.629 0 0 1 .312-1.168c.757 0 5.733-.241 3.591-1.088-.984-.388-2.687 0-3.784-.18a7.569 7.569 0 0 1-4.868-2.649.643.643 0 0 1 .279-1.05 23.452 23.452 0 0 1 2.441-.861.724.724 0 0 1 .359-.946c4.731-1.921 9.679-1.864 14.627-.918 3.917.757 8.988 1.457 11.684 4.7a7.649 7.649 0 0 1 1.197 8.061Z" fill="#4dd1c8" />
  <path d="m112.815 67.193-9.343-6.831a3.586 3.586 0 0 0-.946-2.365c-1.419-1.367 0-5.454 0-5.454a3.094 3.094 0 0 0-1.8 1.977l-.473 1.519-5.057-3.311c-.345-.227-.885.052-1.045.539a.629.629 0 0 0 .128.676l3.42 3.037a28.7 28.7 0 0 0-.147 4.257c.189.577 1.476 3.406 3.051 3.1 1.8-.35 4.835 5.4 11.353 8.676Z" fill="#fff" />
  <path d="m113.132 66.644-8.174-5.975-1.168-.856.307.544a4.347 4.347 0 0 0-.52-1.987c-.218-.4-.587-.676-.8-1.064a2.332 2.332 0 0 1-.246-1.012 9.632 9.632 0 0 1 .6-3.572.629.629 0 0 0-.771-.771 3.643 3.643 0 0 0-1.949 1.712 12.475 12.475 0 0 0-.743 2.219l.922-.374-4.612-3.032a3.254 3.254 0 0 0-.7-.407 1.462 1.462 0 0 0-1.712 1.036c-.317 1.069.766 1.7 1.443 2.309l2.266 2.015-.18-.445a28 28 0 0 0-.2 3.827 5.563 5.563 0 0 0 2 3.6 2.559 2.559 0 0 0 1.112.563 2.068 2.068 0 0 0 .591 0c.241 0 .076-.052.279 0-.147-.024.123.043.156.057-.09-.038.137.071.17.09a4.069 4.069 0 0 1 .615.445c1.23 1.041 2.3 2.275 3.472 3.387a27.622 27.622 0 0 0 6.386 4.631.664.664 0 0 0 .946-.378l.823-5.847c.114-.79-1.1-1.131-1.211-.336l-.842 5.852.922-.378a33.5 33.5 0 0 1-8.378-6.651 8.282 8.282 0 0 0-2.365-1.935 2.077 2.077 0 0 0-.643-.18 4.263 4.263 0 0 1-.648.024c-.587-.085-1.055-.738-1.353-1.192a5.355 5.355 0 0 1-.752-1.462 2.213 2.213 0 0 1-.038-.473c0-.322 0-.643.024-.946.028-.658.071-1.32.123-1.977.033-.388.156-.818-.123-1.145a20.957 20.957 0 0 0-2.053-1.826l-1.15-1.022c-.123-.109-.378-.383-.043-.407.2 0 .747.473.908.591l1.7 1.121 2.427 1.594a.629.629 0 0 0 .946-.374c.161-.535.293-1.079.473-1.6a2.535 2.535 0 0 1 .842-1.154 4.08 4.08 0 0 1 .388-.241c.189-.1 0 0 .1-.047l-.776-.771a9.513 9.513 0 0 0-.568 4.574 2.909 2.909 0 0 0 .473 1.2 4.4 4.4 0 0 1 .875 1.391c.147.516.047 1.045.516 1.391 2.238 1.67 4.508 3.311 6.765 4.948l2.507 1.831c.66.446 1.289-.642.641-1.115Z" fill="#324958" />
  <path d="M300.288 70.451c-.473-.946-1.542-.26-2.058.227a4.8 4.8 0 0 0-1.339 2.256c-.378 1.391 2.152.421 2.559 0a4.206 4.206 0 0 0 .719-1.206 1.419 1.419 0 0 0 .119-1.277Z" fill="#324958" />
  <path d="m338.482 251.012-1.755-20.181 3.609 5.052a14.19 14.19 0 0 0 .861-4.934c.08-3.141.946-4.343.946-4.343s.785 4.641 1.495 5.275 1.566 6.206-1.334 6.992l1.963 8.042Z" fill="#fff" />
  <path d="M338.482 251.958a.946.946 0 0 1-.946-.861l-1.76-20.176a.946.946 0 0 1 1.708-.629l2.465 3.453a16.611 16.611 0 0 0 .3-2.815c.085-3.335 1.012-4.731 1.121-4.868a.946.946 0 0 1 1.694.393 20.9 20.9 0 0 0 1.221 4.759c.842.809 1.239 3.68.776 5.639a3.884 3.884 0 0 1-1.67 2.564l1.779 7.285a.946.946 0 0 1-.369.989l-5.781 4.1a.946.946 0 0 1-.538.167Zm-.52-17.777 1.32 15.138 3.912-2.772-1.812-7.427a.946.946 0 0 1 .667-1.154c.175-.047.7-.194 1.045-1.112a6.831 6.831 0 0 0-.142-4.314 4.527 4.527 0 0 1-.814-1.656v.09a15.021 15.021 0 0 1-.946 5.289.946.946 0 0 1-1.627.17Zm5.033-1.594Zm1.258-1.419Z" fill="#324958" />
  <path d="M293.324 73.853a.5.5 0 0 0 0-.445.61.61 0 0 0-.033-.085.667.667 0 0 0-.606-.473 5.491 5.491 0 0 0-2.805.885c-.662.36-1.892 1.15-1.859 2.02.1 2.034 4.56-.691 5.2-1.183a.473.473 0 0 0 .1-.719Z" fill="#324958" />
  <path d="M305.434 80.524a1.313 1.313 0 0 0-1.254.36c-.549.809.028 2.063 1.055 1.8.861-.23 1.225-1.858.199-2.16Z" fill="#324958" />
  <path d="M294.828 78.626a4.6 4.6 0 0 1-1.358.322c-.1 0-.265-.809-.317-.9a.61.61 0 0 0-.889-.26 3.037 3.037 0 0 0-1.627 3.032c.128.7.8.776 1.391.558a36.235 36.235 0 0 0 3.283-1.6c.633-.315.188-1.398-.483-1.152Z" fill="#f36f12" />
  <path d="M186.939 114.115h-8.742s-1.022-11.528-4.38-16.249c0 0-19.1 5.2-33.369-3.538 0 0-2.261-13.667.61-21.5l-9.419 13.1-22.063-10.45 1.381-10.407 17.219 5.97 14.561-14.726 4.962-.109a15.332 15.332 0 0 1 8.662-4.929c4.556-.743 10.18 2.119 10.024 7.332a5.589 5.589 0 0 1-.071.724l7.02 3.827 12.371 29.715Z" fill="#4dd1c8" />
  <path d="M149.624 67.193a11.354 11.354 0 0 1 6.514-3.387c4.139-.6 9.215-5.379 7.129-8.406s-3.226-2.365-3.226-6.859l-4.627-1.354-.946 6.15s-4.48 1.012-4.731 5.076c-.132 3.07 1.67 1.972-.113 8.78Z" fill="#fff" />
  <path d="M150.068 67.628a9.783 9.783 0 0 1 3.056-2.233 13.086 13.086 0 0 1 3.486-1.041 11.04 11.04 0 0 0 7.436-5.724 3.987 3.987 0 0 0 .232-2.607 6.857 6.857 0 0 0-1.627-2.465 9.369 9.369 0 0 1-1.471-1.8 7.14 7.14 0 0 1-.473-3.231.643.643 0 0 0-.473-.605l-4.622-1.353a.634.634 0 0 0-.776.435l-.946 6.15.435-.44a6.953 6.953 0 0 0-4.645 3.557 6.041 6.041 0 0 0-.43 3.671c.118.62.416 1.31.5 1.864a13.813 13.813 0 0 1-.728 5.2.629.629 0 0 0 1.211.336 19 19 0 0 0 .814-4.887 7.5 7.5 0 0 0-.407-2.19 4.731 4.731 0 0 1 2.039-5.5 6.622 6.622 0 0 1 1.987-.861.625.625 0 0 0 .44-.44l.946-6.15-.771.44 4.626 1.353-.473-.606a6.951 6.951 0 0 0 1.452 4.958c1.008 1.145 2.588 2.365 2.185 4.092-.473 1.958-2.308 3.515-3.969 4.475a8.888 8.888 0 0 1-2.838 1.088 14.475 14.475 0 0 0-3.5 1.022 10.776 10.776 0 0 0-3.6 2.569c-.51.644.374 1.538.904.923Z" fill="#324958" />
  <path d="M156.564 69.35a6.768 6.768 0 0 0-1.594-3.713 3.486 3.486 0 0 0-3.411-.8.629.629 0 0 0 .331 1.211c2.365-.667 3.113 1.859 3.463 3.643.156.79 1.367.473 1.211-.336Z" fill="#324958" />
  <path d="M165.414 31.866a3.5 3.5 0 0 0-2.531-.506c-3.065.511-5.469 3.255-7.37 5.487a23.837 23.837 0 0 0-4.839 9.3 10.8 10.8 0 0 0-.393 4.258 5.265 5.265 0 0 0 2.086 3.614c1.94 1.315 4.6.752 6.694-.293a16.051 16.051 0 0 0 7.214-6.94c1.22-2.422 4.111-3.756 3.912-6.429-.137-1.826-2.782-5.4-3.572-7.1a3.416 3.416 0 0 0-1.201-1.391Z" fill="#fff" />
  <path d="M165.731 31.325c-2.11-1.31-4.664-.345-6.509.984a26.842 26.842 0 0 0-8.553 11.741c-.88 2.465-1.618 5.369-.624 7.914a5.284 5.284 0 0 0 5.241 3.449 12.456 12.456 0 0 0 6.623-2.677 16.169 16.169 0 0 0 4.7-5.2 12.405 12.405 0 0 1 1.864-2.588 11.916 11.916 0 0 0 1.807-2.271c1.1-2.006.222-3.9-.8-5.719-.558-.993-1.173-1.954-1.746-2.938a7.427 7.427 0 0 0-1.992-2.677c-.667-.473-1.291.624-.634 1.088a5.82 5.82 0 0 1 1.471 2.11c.435.757.889 1.471 1.329 2.209.729 1.23 1.892 2.838 1.632 4.371-.307 1.689-2.006 2.867-3 4.153-.606.781-1 1.675-1.533 2.5a13.982 13.982 0 0 1-2.011 2.436 15.251 15.251 0 0 1-5.3 3.449c-1.94.71-4.362.88-5.785-.9-1.514-1.892-1.14-4.541-.539-6.713a23.179 23.179 0 0 1 2.838-6.325 26.964 26.964 0 0 1 4.608-5.44c1.58-1.419 4.182-3.169 6.3-1.85.665.408 1.294-.675.613-1.106Z" fill="#324958" />
  <path d="M161.142 43.105a41.954 41.954 0 0 0-5.066 1.641 1.083 1.083 0 0 0-.572 1.448 2.673 2.673 0 0 0 2.143 1.632 4.324 4.324 0 0 0 4.139-1.8 5.2 5.2 0 0 0 .714-1.627 1.093 1.093 0 0 0-1.358-1.291Z" fill="#324958" />
  <path d="M156.61 40.034a1.069 1.069 0 0 0-.908-.686 6.445 6.445 0 0 0-4 1.419c-.757.549-2 1.5-1.419 2.6.729 1.419 2.559.516 3.543-.071s3.352-1.918 2.784-3.262Z" fill="#324958" />
  <path d="M162.713 36.236c-.473-.771-1.452-.052-1.892.364-.539.473-1.169 1.93-.35 2.507.643.473 1.457-.279 1.85-.757a2.017 2.017 0 0 0 .392-2.114Z" fill="#324958" />
  <path d="M175.666 26.926c-1.4-3.1-5.2-4.182-7.5-2.067-1.145-5.137-9.31-3.188-11.353 1.183-2.186 4.617 1.746 9.967 6.41 8.539a6.523 6.523 0 0 0 2.365 4.655 2.782 2.782 0 0 1 2.365-.052c1.064.582 1.093 2.11.87 3.151a2.688 2.688 0 0 1-2.45 2.152 2.852 2.852 0 0 0-2.365 3.993 2.733 2.733 0 0 0 2.952 1.448c1.85-.227 3.548-1.731 4.66-3.141a9.125 9.125 0 0 0 1.944-7.569 4.986 4.986 0 0 0-1.1-2.091c2.984-2.343 4.9-6.473 3.202-10.201Z" fill="#f36f12" />
  <path d="M150.461 66.247c.142-1.623.156-4.787-1.537-5.71-1.826-1-3.132 1.064-3.695 2.469a.629.629 0 0 0 .44.776l.237.033c.795.118 1.135-1.093.336-1.211l-.241-.033.44.771a4.1 4.1 0 0 1 .719-1.325c.795-.818 1.419-.27 1.7.572a9.277 9.277 0 0 1 .345 3.657c-.071.809 1.183.8 1.254 0Z" fill="#324958" />
  <path d="m150.206 67.193 2.346 18.4-4.163 6.4-2.753-5.544 3.359-19.339Z" fill="#324958" />
  <path d="m164.582 80.831 8.113 14.475a.63.63 0 0 0 1.088-.634l-8.1-14.475c-.393-.7-1.476-.071-1.083.634Z" fill="#324958" />
  <path d="m179.317 109.408 5.823.473c.8.062.8-1.192 0-1.258l-5.823-.473c-.804-.062-.799 1.192 0 1.258Z" fill="#324958" />
  <path d="M434.243 228.618s-19.641 30.848-48.573 44.392c-12.016 5.625-39.95 3.141-39.95 3.141-8.619-10.5-8.619-27.3-8.619-27.3l7.247-5.79 6.689 14.878s8.77-6.211 28.757-12.716l7.47-8.283q1.135-4.177 2.507-8.3a.625.625 0 0 1 .6-.473 22.306 22.306 0 0 0 6.727-.9l15.563-15.302 8.132-21.032 8.08-3.865s9.968 28.858 5.37 41.55Z" fill="#f36f12" />
  <path d="M184.459 111.3a.918.918 0 0 0-1.268-.331c-1.036.658 0 2.332.946 1.675a.993.993 0 0 0 .322-1.343Z" fill="#324958" />
  <path d="M99.523 55.839a6.429 6.429 0 0 0 1.074 4.153c.449.667 1.537.038 1.083-.634a5.308 5.308 0 0 1-.889-3.52c.071-.809-1.187-.8-1.258 0Z" fill="#324958" />
  <path d="m115.71 69.591-.53 7.328" fill="#fff" />
  <path d="m115.081 69.591-.53 7.328c-.057.8 1.2.8 1.258 0l.525-7.328c.062-.8-1.197-.8-1.253 0Z" fill="#324958" />
  <path d="M113.831 69.085a1.031 1.031 0 0 0-.989-.795 1.106 1.106 0 0 0-.615 2 .643.643 0 0 0 .833.033.9.9 0 0 0 .161-.047 1.008 1.008 0 0 0 .61-1.187Z" fill="#324958" />
  <path d="M439.607 223.883c-7.044 8.089-27.825 30.522-55.683 47.779a.946.946 0 0 0-.449.724l-1.689 18.35-17.314-7.272 6.434 28.081a1.419 1.419 0 0 0 .781.946 1.419 1.419 0 0 0 2.01-1.367l-.9-14.892 9.329 3.926 1.826 14.665a1.353 1.353 0 0 0 1.324 1.183 1.348 1.348 0 0 0 1.329-1.041l4.641-19.58 21.439-14.632-6.5 25.072a1.339 1.339 0 0 0 2.219 1.306 1.32 1.32 0 0 0 .255-.331c1.594-2.928 21.784-38.6 32.608-82.066a.946.946 0 0 0-1.665-.852Z" fill="#fff" />
  <path d="M386.081 280.177a192.361 192.361 0 0 0 52.684-44.723c.511-.62-.374-1.514-.885-.889a191.447 191.447 0 0 1-52.433 44.526.629.629 0 0 0 .634 1.083Z" fill="#324958" />
  <path d="M442.336 217.752a374.413 374.413 0 0 1-34.613 89.5c-.383.71.7 1.344 1.083.634a375.771 375.771 0 0 0 34.727-89.791c.194-.785-1.017-1.121-1.211-.336Z" fill="#324958" />
  <path d="m385.134 267.891-.9 47.925a.629.629 0 1 0 1.258 0l.9-47.925a.629.629 0 0 0-1.258 0Z" fill="#324958" />
  <path d="M386.388 290.906c16.041-8.9 32.168-19.074 44.794-32.532.553-.587-.336-1.476-.889-.885-12.569 13.383-28.582 23.478-44.538 32.333-.705.393-.071 1.476.633 1.084Z" fill="#324958" />
  <path d="M428.878 187.08c-9.461-.591-17.437 8.331-21.439 14.48.393 2.734.667 5.487.9 8.241 12.773-3.647 23.057-14.39 23.057-14.39Z" fill="#f36f12" />
  <path d="M434.474 223.027a17.271 17.271 0 0 0-15.653-13.175c-.8-.066-.8 1.192 0 1.254a15.971 15.971 0 0 1 14.442 12.257.629.629 0 0 0 1.211-.336Z" fill="#324958" />
  <path d="M416.711 221.763a23.411 23.411 0 0 1-23.9 13.316c-.8-.085-.795 1.168 0 1.258a24.6 24.6 0 0 0 24.982-13.941c.346-.727-.737-1.366-1.082-.633Z" fill="#324958" />
  <path d="m387.873 236.3 1.121-3.345c.27-.8.53-2.7 1.107-3.311.814-.847 2.536-.624 3.728-.785a38.618 38.618 0 0 0 9.215-2.323c5.152-2.058 9.537-5.511 11.509-10.823.284-.757-.946-1.088-1.206-.336-3.463 9.314-14.665 12.087-23.563 12.607a.648.648 0 0 0-.606.473q-1.263 3.747-2.517 7.5c-.26.766.946 1.1 1.211.336Z" fill="#324958" />
  <path d="M411.517 218.315s-6.717-4.8-4.054-20.474 1.362-21.491-7.678-22.191c-11.5-.889-15.611 17.617-17.03 23.274s-.989 25.389 9.149 25.256l.151 3.874s13.26-1.191 19.462-9.739Z" fill="#fff" />
  <path d="M392.036 228.977a.913.913 0 0 1-.62-.237.945.945 0 0 1-.322-.667l-.118-3.009a7.948 7.948 0 0 1-5.6-3.184c-4.617-5.856-4.773-18.373-3.557-23.18l.194-.771c1.651-6.623 6.031-24.126 17.844-23.213 3.633.284 6.055 1.353 7.626 3.363 2.536 3.245 2.786 8.832.9 19.925-2.512 14.8 3.619 19.509 3.68 19.551a.946.946 0 0 1 .208 1.32c-6.367 8.785-19.613 10.067-20.157 10.1Zm-.151-5.757a.946.946 0 0 1 .946.9l.114 2.838c3.018-.473 12.247-2.318 17.3-8.562-1.764-1.807-5.932-7.626-3.7-20.744 1.76-10.369 1.6-15.715-.535-18.449-1.221-1.566-3.222-2.4-6.287-2.644-10.218-.79-14.324 15.611-15.866 21.794l-.2.776c-1 3.95-1.121 16.041 3.212 21.534a6.018 6.018 0 0 0 5.01 2.55Z" fill="#324958" />
  <path d="M381.459 245.572c3.406.08 7.569.18 9.811 3.165 2.583 3.4.605 7.768-.993 11.112-.35.729.733 1.362 1.083.634 1.774-3.709 3.756-8.359 1.159-12.2-2.432-3.591-7.138-3.879-11.06-3.974a.629.629 0 1 0 0 1.258Z" fill="#324958" />
  <path d="M360.256 252.158a32.962 32.962 0 0 0-14.589 10.038c-.516.615.369 1.509.889.885a31.778 31.778 0 0 1 14.031-9.712c.762-.265.435-1.481-.331-1.211Z" fill="#324958" />
  <path d="M412.671 195.391c-3.415 2.512-7.64 9.352-7.64 9.352s-9.934 4.158-4.532 12.072c.355.52.747 1.291 1.353 1.481 0 0 4.546-8.453 8.312-9.664 9.139-2.938 12.683-5.61 12.683-5.61" fill="#fff" />
  <path d="M401.852 219.256a.946.946 0 0 1-.714-.326c-2.195-2.536-3.065-5.109-2.588-7.645.766-4.078 4.787-6.623 5.814-7.228.757-1.2 4.532-7.034 7.749-9.4a.946.946 0 0 1 1.116 1.518c-3.226 2.365-7.351 9.016-7.394 9.083a.946.946 0 0 1-.364.341c-.043.024-4.385 2.365-5.071 6.046a6.533 6.533 0 0 0 1.324 4.981c1.485-2.517 4.929-7.829 8.151-8.865a61.343 61.343 0 0 0 16.529-8.756.946.946 0 0 1 1.159 1.49 62.763 62.763 0 0 1-17.11 9.059c-2.791.894-6.557 6.954-7.772 9.21a.946.946 0 0 1-.729.473Z" fill="#324958" />
  <path d="m408.163 186.166 1.892 6.836 1.05-.61a8.7 8.7 0 0 1-2.914-4.466.629.629 0 0 0-1.235.166l.114 6.859 1.235-.166-2.048-5.634c-.189-.525-1.088-.662-1.211 0l-1.249 6.76h1.206l-1.334-6.022a.634.634 0 0 0-1.211 0 10.691 10.691 0 0 1-3.567 5.5l1.074.445.142-6.353a.629.629 0 0 0-1.235-.166 9.56 9.56 0 0 1-4.489 5.473l.946.71 2.157-6.594c.222-.667-.833-1.126-1.145-.473a13.624 13.624 0 0 1-5.634 6.065l.856.856a18.956 18.956 0 0 0 2.517-9.608.629.629 0 0 0-1.254 0 17.673 17.673 0 0 1-2.365 8.946.634.634 0 0 0 .861.861 14.759 14.759 0 0 0 6.069-6.514l-1.149-.473-2.162 6.58a.634.634 0 0 0 .946.71 10.88 10.88 0 0 0 5.066-6.225l-1.235-.166-.142 6.353a.639.639 0 0 0 1.074.445 11.827 11.827 0 0 0 3.879-6.036h-1.211l1.334 6.017a.634.634 0 0 0 1.211 0l1.249-6.755h-1.211l2.048 5.634a.634.634 0 0 0 1.235-.17l-.118-6.859-1.23.17a9.836 9.836 0 0 0 3.236 5.014.634.634 0 0 0 1.05-.61l-1.892-6.836a.629.629 0 0 0-1.211.336Z" fill="#324958" />
  <path d="M393.578 208.868c3.406-1.178 7.375-3.747 6.8-7.933a4.257 4.257 0 0 0-6.8-2.914c-2.763 2.029-2.124 5.767-1.58 8.69a34.495 34.495 0 0 1-.719 17.3c-.255.766.946 1.1 1.211.331 1.982-5.979 1.764-12.124.667-18.25-.473-2.555-.946-8.638 3.586-7.687 2.607.544 2.838 3.714 1.7 5.677s-3.207 2.881-5.2 3.572c-.757.26-.43 1.476.336 1.211Z" fill="#324958" />
  <path d="M392.439 223.807c-.53 2.176-1.164 4.887-3.231 6.15-3.737 2.318-7.1-.369-8.61-3.879-1.448-3.373-1.419-7.257-.9-10.824a23.051 23.051 0 0 1 .568-2.805 2.786 2.786 0 0 1-2.143.672c-3.822-.852 2.985-8.08 3.685-8.988.5-.639 1.381.26.894.889l-.076.09a17.826 17.826 0 0 1 .265 3.449 3.524 3.524 0 0 1 1.826-.293c2.129.18 2.98 2.2 3.458 4 .4 1.509.194 5.019 2.365 3.378 1.518-1.154 1.646-5.743 1.656-7.413a.629.629 0 0 1 1.258 0c0 .653-.047 1.679-.17 2.838a.558.558 0 0 1 .27.473 42.983 42.983 0 0 1-1.116 12.266Z" fill="#324958" />
  <path d="m181.208 199.979-1.154-10.521s4.286-2.413 2.772-5.786-2.876-5.9-2.772-8.042-2.611-.738-2.455 1.7a33.026 33.026 0 0 1 0 4.366s-3.425-10.521-5.653-10.1c-1.419.27-.057 3.259.8 5.776s-1.6 6.448-1.84 8.264c-.312 2.365 3.188 6.963 3.188 6.963l.412 8.681Z" fill="#fff" />
  <path d="M174.52 202.226a.946.946 0 0 1-.946-.9l-.407-8.392c-.79-1.083-3.515-5-3.2-7.418a12.723 12.723 0 0 1 .837-2.63c.672-1.722 1.5-3.86 1.045-5.2-.137-.4-.284-.818-.435-1.235-.87-2.4-1.377-3.931-.776-4.977a1.608 1.608 0 0 1 1.131-.79c1.731-.331 3.467 2.436 4.929 5.871a3.671 3.671 0 0 1 1.608-2.569 1.788 1.788 0 0 1 1.892-.123 1.841 1.841 0 0 1 .809 1.826c-.076 1.58.842 3.581 2.01 6.117q.336.714.681 1.49c1.334 2.966-.9 5.469-2.63 6.651l1.083 9.934a.946.946 0 0 1-.752 1.027l-6.708 1.306a.747.747 0 0 1-.175.014Zm-2.247-29.583a14.988 14.988 0 0 0 .946 3.16c.156.43.312.856.449 1.273.676 2-.293 4.494-1.074 6.5a12.692 12.692 0 0 0-.724 2.195c-.189 1.419 1.746 4.6 3.009 6.273a.946.946 0 0 1 .18.516l.36 7.592 4.787-.946-1.06-9.66a.946.946 0 0 1 .473-.922c.142-.08 3.515-2.034 2.365-4.574-.227-.511-.473-1-.672-1.471-1.244-2.715-2.238-4.868-2.186-6.874a2.015 2.015 0 0 0-.568 1.566 33.375 33.375 0 0 1 0 4.5.946.946 0 0 1-1.835.213c-1.46-4.451-3.442-8.586-4.45-9.341Z" fill="#324958" />
  <path d="M386.989 197.326c-.61-.473-1.4.18-1.689.946a7.332 7.332 0 0 0-.36 3.572c.123.7.473 1.15 1.244.984 1.135-.246 1.268-1.788 1.419-2.744a4.111 4.111 0 0 0-.246-2.252 1.419 1.419 0 0 0-.368-.506Z" fill="#324958" />
  <path d="m340.715 221.731 16.675-15.185c.6-.544-.289-1.419-.885-.885l-16.68 15.18c-.596.553.294 1.424.89.89Z" fill="#324958" />
  <path d="m359.15 209.265-12.423 10.952c-.61.539.284 1.419.885.889l12.413-10.956c.61-.535-.284-1.419-.889-.889Z" fill="#324958" />
  <path d="m285.756 246.064-1.273 7.63s-7.64-37.584-98.831-23.851l-3.363-32.868-8.955 1.036-3.028 44.623 28.35 19.145 70.958 12.772s11.618 16.316 26.018 13.364c0 0 5.852-16.883-2.474-42.637Z" fill="#9ee6e1" />
  <path d="M350.356 237.493a21.677 21.677 0 0 1 1.809-5.071 6.5 6.5 0 0 1 1.216-2.048l1.954-.729c-.062.246-.128.473-.194.743.09 1.093-.473 2.309 1.093 2.659 1.765.388 2.365-1.391 2.805-2.63.766-2.176 2.081-3.094 3.922-4.381l4.423-3.089c.658-.473.033-1.547-.634-1.083l-5.161 3.6a11.665 11.665 0 0 0-2.909 2.436 5.139 5.139 0 0 0-.7 1.514l-.147.662q0 1.287-1.542.889c-.237-.378.506-1.689.251-2.309-.7-1.679-2.512-1-3.444 0-2.053 2.209-3.269 5.558-3.945 8.472-.18.79 1.031 1.121 1.211.336Z" fill="#324958" />
  <path d="m349.972 226.617 12.3-10.625c.61-.53-.279-1.419-.889-.885l-12.3 10.62c-.611.526.279 1.415.889.89Z" fill="#324958" />
  <path d="m340.076 233.883-6.339-9.977c-.165-.26-1.939-2.763-1.982-2.365 0-.137.421-.393.511-.506a73.282 73.282 0 0 1 5.487-5.421l16.529-16.33 4.194-4.136c.572-.568-.312-1.452-.889-.885l-26.78 26.458a.643.643 0 0 0-.1.762L339 234.53c.43.676 1.518.047 1.083-.634Z" fill="#324958" />
  <ellipse cx="7.943" cy="4.513" rx="7.943" ry="4.513" transform="translate(361.08 186.852)" fill="#fff" />
  <path d="M377.594 191.365c-.062-2.838-3.2-4.31-5.582-4.82-3.094-.667-6.911-.412-9.556 1.495a4.447 4.447 0 0 0-1.968 2.9 3.723 3.723 0 0 0 1.2 3.122c2.252 2.228 6.031 2.715 9.031 2.365 2.706-.331 6.8-1.712 6.873-5.038a.629.629 0 0 0-1.254 0c-.052 2.256-3.051 3.311-4.844 3.652a11.272 11.272 0 0 1-8.16-1.239 3.3 3.3 0 0 1-1.608-2.115 2.621 2.621 0 0 1 1.05-2.285c1.977-1.755 5.133-2.081 7.654-1.826a9.75 9.75 0 0 1 4.153 1.325 3.214 3.214 0 0 1 1.755 2.488.629.629 0 0 0 1.254-.019Z" fill="#324958" />
  <path d="m363.369 245.141 12.99-13.17c.568-.577-.322-1.467-.889-.889l-12.99 13.175c-.568.572.322 1.462.889.884Z" fill="#324958" />
  <path d="m182.846 250.804 101.447 8.685-25.03 64.775a2.838 2.838 0 0 1-2.64 1.812 2.838 2.838 0 0 1-2.838-3.089l1.973-21.955-37.177-3.174 4.168 21.595a3.42 3.42 0 0 1-3.609 4.059 3.416 3.416 0 0 1-2.838-1.949Z" fill="#fff" />
  <path d="M216.306 320.537c-11.765-24.386-22.962-49.1-34.15-73.773q-1.552-3.42-3.1-6.845c-.331-.733-1.419-.1-1.083.634q13.463 29.8 27.248 59.439c3.311 7.1 6.623 14.144 10.015 21.179.35.728 1.419.09 1.083-.634Z" fill="#324958" />
  <path d="m260.314 323.182 23.615-61.672 3.363-8.794c.293-.752-.946-1.079-1.211-.331l-23.61 61.672-3.368 8.789c-.289.757.946 1.084 1.211.336Z" fill="#324958" />
  <path d="m188.812 262.896 88.793 13.548c.79.123 1.131-1.088.336-1.211l-88.791-13.548c-.795-.123-1.135 1.088-.336 1.211Z" fill="#324958" />
  <path d="m198.637 284.121 73.537 5.942c.8.066.8-1.187 0-1.254l-73.537-5.946c-.804-.066-.799 1.193 0 1.258Z" fill="#324958" />
  <path d="m141.132 62.51-1.419 7.843c-.142.79 1.064 1.131 1.211.336l1.419-7.848c.147-.786-1.064-1.122-1.211-.331Z" fill="#324958" />
  <path d="M170.007 64.307a12.773 12.773 0 0 0-6.4 9.035c-.132.79 1.079 1.131 1.211.331a11.561 11.561 0 0 1 5.819-8.288.63.63 0 1 0-.634-1.088Z" fill="#324958" />
  <path d="M263.89 134.291c-2.886 3.1-5.549 6.405-8.439 9.513a.634.634 0 0 0 .279 1.045l31.018 10.563a.648.648 0 0 0 .71-.289l14.192-19.277-1.144-.475c-1 6.443-2.332 12.829-3.335 19.272l.771-.435-5.236-1.288c-.785-.194-1.121 1.017-.336 1.211l5.237 1.291a.634.634 0 0 0 .771-.44c1-6.443 2.332-12.829 3.311-19.277a.634.634 0 0 0-1.149-.473l-8.165 11.1-4.369 5.939c-.553.747-.823 1.481-1.817 1.632-.842.128-2.725-.946-3.548-1.206l-26.586-9.054.274 1.05c2.886-3.1 5.554-6.405 8.439-9.513.549-.591-.336-1.481-.889-.885Z" fill="#324958" />
  <path d="m300.42 135.786-5.521 14.135.946-.374-3.784-1.925c-.719-.364-1.358.719-.634 1.088l3.784 1.921a.643.643 0 0 0 .946-.374l5.521-14.135c.293-.757-.922-1.083-1.211-.336Z" fill="#324958" />
  <path d="M293.322 248.425a24.319 24.319 0 0 0-4.664-10.459l-10.136-5.251s-2.034 9.016 7.261 9.551l-.208 7.257" fill="#fff" />
  <path d="M285.58 250.44h-.028a.946.946 0 0 1-.918-.946l.18-6.372a8.169 8.169 0 0 1-5.814-3.028c-2.365-3.141-1.419-7.413-1.419-7.569a.964.964 0 0 1 1.353-.643l10.135 5.251a.917.917 0 0 1 .289.232 24.747 24.747 0 0 1 4.844 10.951.946.946 0 1 1-1.859.279 23.239 23.239 0 0 0-4.31-9.877l-8.766-4.537a7.381 7.381 0 0 0 1.221 4.8c1.074 1.419 2.862 2.214 5.322 2.365a.946.946 0 0 1 .889.97l-.2 7.257a.946.946 0 0 1-.919.867Z" fill="#324958" />
  <path d="m296.469 201.692-.076-2.734c-1.121 0-7.441-.241-8.222 0l.076 2.734c.047 1.613 1.925 2.923 4.2 2.923s4.07-1.31 4.022-2.923Z" fill="#324958" />
  <path d="m297.108 201.692-.08-2.734a.639.639 0 0 0-.624-.629c-1.419 0-2.838-.066-4.286-.09h-2.536a6.206 6.206 0 0 0-1.566.123.639.639 0 0 0-.473.606l.057 2.015a3.9 3.9 0 0 0 .648 2.436c1.533 2.01 4.731 2.313 6.883 1.206a3.378 3.378 0 0 0 1.968-2.924.629.629 0 0 0-1.258 0c0 1.973-2.782 2.493-4.258 2.223a3.708 3.708 0 0 1-2.332-1.258 2.831 2.831 0 0 1-.388-1.764l-.052-1.935-.473.606s.095-.033.1-.024h-.009l.331-.028c.322 0 .639 0 .946-.028h2.479c1.419.024 2.791.085 4.191.085l-.629-.624.076 2.734a.643.643 0 0 0 1.285.004Z" fill="#324958" />
  <ellipse cx="2.919" cy="4.111" rx="2.919" ry="4.111" transform="rotate(-88.35 247.875 -47.38)" fill="#324958" />
  <path d="M297.019 198.958a3.953 3.953 0 0 0-3.255-3.354 5.75 5.75 0 0 0-5.175 1.074 2.943 2.943 0 0 0-.289 4.158 5.555 5.555 0 0 0 5.01 1.594c1.746-.251 3.723-1.481 3.709-3.472a.629.629 0 0 0-1.254 0c0 1.178-1.159 1.892-2.176 2.143a4.7 4.7 0 0 1-3.926-.686 1.761 1.761 0 0 1-.473-2.564 4.121 4.121 0 0 1 3.657-1.15c1.249.161 2.838.866 2.909 2.257.052.804 1.305.809 1.263 0Z" fill="#324958" />
  <path d="m282.784 230.595.092-12.247c.033-4.617-.861-9.594 2.923-13.009 5.336-4.816 16.633-3.718 16.557 4.872l-.1 14.565c0 2.115.028 4.234-.047 6.348-.156 4.423-6.032 5.719-9.575 6.031-.795.071-.8 1.329 0 1.254 3.576-.317 8.941-1.448 10.5-5.237.572-1.386.336-3.2.345-4.66l.132-17.848a8.738 8.738 0 0 0-.856-4.764c-2.176-3.728-7.03-5.327-11.126-4.683a12.481 12.481 0 0 0-9.3 6.623c-.809 1.746-.672 3.581-.686 5.45l-.133 17.309a.629.629 0 0 0 1.254 0Z" fill="#324958" />
  <path d="M282.699 221.319c4.47-3.207 10.913-5.2 16.377-3.524.908.274 2.6.894 2.654 2.072l-1.339 2.706a4.931 4.931 0 0 1-1.173.582 19.666 19.666 0 0 1-4.135 1.216 25.042 25.042 0 0 1-9.873-.128c-.79-.161-1.126 1.045-.336 1.211a26.174 26.174 0 0 0 12.938-.473c2.55-.771 6.547-2.715 4.877-6.069-1.481-2.975-6.244-3-9.059-2.838a21.988 21.988 0 0 0-11.566 4.149c-.653.473-.024 1.556.634 1.083Z" fill="#324958" />
  <path d="M213.534 194.62c-.345.18-.681.374-1.022.563a11.551 11.551 0 0 1-.809 1.779 3.521 3.521 0 0 1-1.064 1.67c-.724.473-2.938 1.14-3.747.525-2.148-1.642 5.175-5.171 6.008-5.625.714-.38 1.348.695.634 1.088Z" fill="#324958" />
  <path d="M189.829 242.545c-1.069-4.981 1.481-10.407 5.369-13.5a.629.629 0 0 0-.445-1.069c-6.05.473-12.077 1.8-16.76 5.894-.61.53.279 1.419.885.889 4.418-3.855 10.185-5.076 15.876-5.53l-.44-1.069c-4.257 3.382-6.855 9.315-5.677 14.721.166.79 1.377.473 1.211-.336Z" fill="#324958" />
  <path d="M279.236 246.339a10.407 10.407 0 0 1-4.456 9.934c-.662.473-.038 1.542.634 1.083a11.637 11.637 0 0 0 5.076-11.008c-.09-.79-1.348-.8-1.254 0Z" fill="#324958" />
  <path d="M213.014 228.382s4.475 11.15 21.453 11.15 22.432-7.011 22.432-7.011-19.991-7.257-19.991-23.823c0 0 13.719-6.448 13.085-17.787s-9.277-17.863-17.092-15.228-21.2 15.611-23.506 27.849 3.7 16.268 8.548 14.783 4.896 9.863-4.929 10.067Z" fill="#fff" />
  <path d="M234.466 240.472c-17.413 0-22.134-11.263-22.323-11.741a.937.937 0 0 1 .852-1.291c4.579-.095 6.225-2.763 6.722-3.907a4.071 4.071 0 0 0-.1-4.03 1.24 1.24 0 0 0-1.419-.289 7.2 7.2 0 0 1-6.982-1.495c-1.75-1.561-4.433-5.506-2.767-14.362 2.365-12.659 16.084-25.848 24.126-28.568a12.337 12.337 0 0 1 10.918 1.618c4.366 2.952 7.067 8.222 7.408 14.452.591 10.639-10.407 17.03-13.071 18.416.473 15.3 19.168 22.29 19.362 22.361a.942.942 0 0 1 .421 1.462c-.241.302-5.918 7.374-23.147 7.374Zm-19.963-11.263c1.656 2.767 6.968 9.376 19.963 9.376 12.583 0 18.615-3.907 20.739-5.729-4.622-2-19.253-9.5-19.253-24.159a.946.946 0 0 1 .539-.851c.132-.061 13.132-6.32 12.545-16.883-.312-5.639-2.711-10.374-6.585-13a10.35 10.35 0 0 0-9.262-1.391c-7.465 2.517-20.654 15.3-22.882 27.13-1.5 7.947.714 11.315 2.171 12.612a5.256 5.256 0 0 0 5.156 1.1 3.117 3.117 0 0 1 3.373.837c1.23 1.372 1.4 3.784.426 6.036a8.426 8.426 0 0 1-6.93 4.924Zm-1.49-.828Z" fill="#324958" />
  <path d="M245.602 213.405a22.461 22.461 0 0 1 2.451-.591 20.6 20.6 0 0 0 12.914-10.043 9.381 9.381 0 0 0 .563-7.323c-.549-1.642-2.569-3.222-2.5-5.019.071-1.892 2.247-2.734 3.151-4.158a18.24 18.24 0 0 0 2.365-5.715c.861-3.784.639-8.1-1.6-11.4-5-7.342-15.895-5.975-22.2-1.925.184-4.759-4.258-9.556-9.584-7.569-2.985 1.131-5.256 4.683-6.6 7.309a12.28 12.28 0 0 0-1.353 8.118c-3.945-1.5-7.044 2.365-7.522 5.961-.568 4.257 1.012 8.936 4.655 11.429-.1 1.94-.44 4.778 1.864 5.383 1.642.43 2.985-1.055 4.645-.729 5.345 1.036.137 4.787-1.386 6.793-3.714 4.891-2.99 14.693 3.51 17.858a12.816 12.816 0 0 0 10.1 0 5.806 5.806 0 0 0 3.278-2.413c.662-1.249.544-2.886 1.2-4.191a3.472 3.472 0 0 1 2.049-1.775Z" fill="#324958" />
  <path d="M213.377 207.188c-.781.53-4.414 3.065-5.1 1.58-.388-.87.156-2.7.364-3.576a17.2 17.2 0 0 1 1.287-3.6.558.558 0 0 1 .326-.918c1.755-.289 5.256-.572 6.041 1.533s-1.371 3.941-2.918 4.981Z" fill="#324958" />
  <path d="M217.727 191.748c-.516-.317-.984-.028-1.367.449a2.414 2.414 0 0 0-.435.407 2.574 2.574 0 0 0-.606 1.452c-.043.506.052 1.225.634 1.391s1.008-.378 1.3-.733a3.572 3.572 0 0 0 .743-1.49c.112-.473.216-1.178-.269-1.476Z" fill="#324958" />
  <path d="m55.58 126.178 54.77-28.6c.714-.374.08-1.457-.634-1.083l-54.77 28.6c-.714.374-.081 1.457.634 1.083Z" fill="#324958" />
  <path d="M37.022 134.603c-5.894 2.157-7.134-4.518-8.349-8.416l-5.327-17.058L8.776 62.46 3.262 44.784c-1.116-3.567-3.643-8.515-.033-11.453 1.32-1.069 2.876-1.192 4.47-1.419l6.717-1.05 22.134-3.486 24.074-3.784c4.783-.752 9.641-1.31 14.39-2.256.241-.047.473-.076.729-.114.795-.123.473-1.334-.336-1.211L40.173 25.56l-23.918 3.727c-3.6.563-7.285.946-10.852 1.7A6.694 6.694 0 0 0 .29 39.5c.26.974.6 1.935.9 2.9l4.989 15.96 15.083 48.314 5.875 18.809c.922 2.971 1.6 7.507 4.257 9.461a6.438 6.438 0 0 0 5.946.875c.752-.274.43-1.49-.331-1.211Z" fill="#324958" />
  <path d="m60.902 56.246 6.973 23.09-27.04 12.579-7.876-25.853Z" fill="#f4f4f6" />
  <path d="m28.049 59.946 4.352-7.857h-1.088l3.784 6.7a.634.634 0 0 0 1.168-.317c.232-3.136 3.614-3.832 6.083-4.527l6.557-1.85 12.683-3.567a.629.629 0 0 0-.336-1.211l-17.03 4.8c-3.572 1-8.851 1.755-9.187 6.353l1.168-.317-3.761-6.7a.634.634 0 0 0-1.088 0l-4.347 7.857c-.393.71.691 1.343 1.083.634Z" fill="#324958" />
  <path d="M23.685 47.126a4.521 4.521 0 0 1 4.6-4.5c1.831.066 2.9 1.448 4.513 2.02 2.465.875 5.45-.426 7.815-1.041l21.037-5.487a.629.629 0 0 0-.336-1.211l-12.529 3.265c-4.21 1.1-8.453 2.479-12.725 3.311-3.685.7-5.97-3.056-9.769-1.8a5.8 5.8 0 0 0-3.865 5.454c-.038.8 1.216.8 1.258 0Z" fill="#324958" />
  <path d="m49.421 100.345 3.491 10.554c.251.766 1.466.44 1.211-.331l-3.477-10.559c-.255-.762-1.466-.435-1.211.336Z" fill="#4dd1c8" />
  <path d="M61.763 106.482 55.817 91.41c-.293-.743-1.509-.421-1.211.331l5.946 15.076c.293.743 1.509.421 1.211-.336Z" fill="#324958" />
  <path d="m63.499 96.082 3.278 7.834c.307.733 1.523.412 1.211-.336l-3.283-7.834c-.307-.733-1.523-.412-1.206.336Z" fill="#324958" />
  <path d="m74.067 100.67-4.158-10.961c-.284-.747-1.5-.426-1.211.336l4.182 10.956c.284.747 1.5.426 1.211-.331Z" fill="#4dd1c8" />
  <path d="M75.406 98.414a18.223 18.223 0 0 1 2.152.643c.686.307-.066 1.045-.378 1.362-.568.577.317 1.466.889.889.686-.7 1.362-1.665.851-2.668a1.731 1.731 0 0 0-1.116-.823c-.681-.218-1.377-.412-2.063-.615a.629.629 0 0 0-.336 1.211Z" fill="#324958" />
  <path d="m40.159 100.174 1.2-2.9-1.05.274 2.224 1.917c.606.525 1.5-.36.885-.889l-2.233-1.916a.639.639 0 0 0-1.05.274l-1.187 2.9c-.307.747.9 1.074 1.211.336Z" fill="#324958" />
  <path d="m40.575 98.75 4.764 16.169a.639.639 0 0 0 .946.378l31.709-15.464c.729-.355.095-1.419-.634-1.083l-31.733 15.459.946.378-4.791-16.173a.629.629 0 0 0-1.211.336Z" fill="#324958" />
  <path d="m73.083 67.15 14.542-5.346c.752-.279.426-1.49-.336-1.211l-14.542 5.346c-.752.275-.425 1.49.336 1.211Z" fill="#324958" />
  <path d="m75.766 74.874 1.419-2.517-1.15-.147c.35 1.949 2.365.946 3.576.473l9.991-4.026c.738-.3.416-1.514-.336-1.211l-6.079 2.45c-.719.289-5.856 2.469-5.942 1.992a.639.639 0 0 0-1.15-.151l-1.4 2.517c-.393.71.7 1.343 1.083.634Z" fill="#324958" />
  <path d="m80.624 81.739 5.279 14.31a.634.634 0 0 0 .922.374c6.566-3.42 13.269-6.575 19.835-10 .714-.374.08-1.457-.634-1.083-6.566 3.425-13.246 6.575-19.835 10l.946.378-5.279-14.329c-.279-.752-1.495-.426-1.211.331Z" fill="#324958" />
  <path d="M85.459 91.229c.639-1.466 1.5-2.805 2.148-4.258l-.989.128 2.668 2.592a.634.634 0 0 0 1.074-.44l.5-5.62-1.069.445 2.408 2.417a.634.634 0 0 0 1.05-.279l2.985-9.835h-1.211l3.226 8.515a.634.634 0 0 0 1.211 0l1.083-3.515-1.05.279 1.239 1.419a.624.624 0 0 0 .757.095l2.512-1.746c.658-.473.033-1.547-.634-1.083-1.306.908-1.783 1.8-2.985.435a.634.634 0 0 0-1.05.279l-1.083 3.515h1.211l-3.226-8.515a.634.634 0 0 0-1.211 0l-2.985 9.84 1.05-.279-2.413-2.417a.634.634 0 0 0-1.069.445l-.506 5.606 1.074-.445-2.668-2.6a.634.634 0 0 0-.989.128c-.639 1.466-1.5 2.805-2.148 4.257-.317.733.762 1.377 1.088.634Z" fill="#f36f12" />
  <ellipse cx="6.528" cy="2.441" rx="6.528" ry="2.441" transform="translate(46.247 177.765)" fill="#324958" />
  <ellipse cx="5.785" cy="2.162" rx="5.785" ry="2.162" transform="translate(34.671 144.584)" fill="#324958" />
  <path d="m100.152 95.789-45 22.167c-.729.355-.09 1.419.634 1.083l45.002-22.167c.728-.355.09-1.419-.634-1.083Z" fill="#324958" />
  <path d="m212.815 10.113 2.455 20.128a.639.639 0 0 0 .795.606l21.808-4.258c.79-.156.473-1.367-.336-1.211l-21.808 4.263.795.606-2.436-20.129c-.095-.795-1.353-.8-1.254 0Z" fill="#324958" />
  <path d="m219.636 26.174 5.092-7.891h-1.08l4.764 6.708c.279.388 1.05.435 1.15-.151l2.668-16c.132-.79-1.079-1.126-1.211-.331l-2.668 16 1.145-.151-4.768-6.709a.634.634 0 0 0-1.083 0l-5.092 7.917c-.44.681.643 1.31 1.083.634Z" fill="#324958" />
  <path d="m182.264 26.51 5.473-4.532-1.05-.615c-2 7.834 18.175 2.309 21.16 1.509a.629.629 0 0 0-.331-1.211 80.814 80.814 0 0 1-9.461 1.925c-1.537.213-11.145 2.034-10.142-1.892a.634.634 0 0 0-1.05-.61l-5.469 4.532c-.624.516.27 1.419.885.889Z" fill="#324958" />
  <path d="M187.743 33.861c.918-3.127 3.633-.355 5.516-.255a28.042 28.042 0 0 0 5-.643l12.087-1.651c.795-.109.473-1.32-.336-1.211l-7.611 1.04c-2.838.388-6.206 1.329-9.012.752-1.561-.322-3.028-1.485-4.688-.885a3.572 3.572 0 0 0-2.171 2.517.629.629 0 0 0 1.211.336Z" fill="#324958" />
  <path d="M230.161 37.817a9.479 9.479 0 0 0-8.875 6.727 9.338 9.338 0 0 0 4.328 10.6 9.461 9.461 0 0 0 11.159-1.419 10.318 10.318 0 0 0 2.11-11.5c-.312-.738-1.4-.1-1.083.634 3.018 7.134-4.3 15.2-11.552 11.216s-3.884-14.651 3.912-15c.805-.038.81-1.297.001-1.258Z" fill="#324958" />
  <path d="m222.147 46.487 8.889-1.367-.771-.771-4.172 10.407c-.3.752.913 1.079 1.211.336l4.172-10.407c.2-.473-.36-.837-.771-.776l-8.889 1.367c-.794.123-.473 1.334.331 1.211Z" fill="#324958" />
  <path d="M230.365 44.67a33.416 33.416 0 0 0 3.785 9.792.63.63 0 1 0 1.088-.634 32.273 32.273 0 0 1-3.671-9.494c-.17-.785-1.381-.473-1.211.336Z" fill="#324958" />
  <path d="m187.984 60.667 26.4-2.488-.624-.629q.369 7.413.747 14.826c.043.8 1.3.809 1.258 0l-.752-14.826a.629.629 0 0 0-.629-.624l-26.4 2.484c-.799.074-.809 1.333 0 1.257Z" fill="#324958" />
  <path d="M140.669 19.973c-.833-1.15 1.921-.833 1.869-.833.922 0 1.854-.028 2.782-.047q3.245-.076 6.486-.251 6.471-.341 12.91-1.05c8.226-.9 16.4-2.223 24.566-3.543.795-.128.473-1.339-.336-1.211-10.18 1.646-20.375 3.274-30.663 4.116-4.906.4-9.892.776-14.816.719-1.14 0-2.942-.7-3.9.27a1.825 1.825 0 0 0 .024 2.465c.473.653 1.556 0 1.083-.634Z" fill="#324958" />
  <circle cx="5.979" cy="5.979" r="5.979" transform="translate(195.453 8.675)" fill="#324958" />
  <path d="m177.979 36.444 3.6 24.571 1.211-.331-.142-.757c-.151-.795-1.358-.473-1.211.336l.142.752c.151.8 1.325.473 1.211-.331l-3.6-24.571c-.119-.799-1.325-.473-1.211.331Z" fill="#324958" />
  <path d="M179.53 47.017c1.064 3.117 3.562 7.03 7.389 6.519a5.142 5.142 0 0 0 4.04-3.051 15.62 15.62 0 0 0 .946-4.257 9.793 9.793 0 0 1 .516-2.138 3.666 3.666 0 0 1 .908-1.594 1.7 1.7 0 0 1 2.583-.473c3.359 1.15 2.536 5.544 4.13 8.2a4.256 4.256 0 0 0 4.073 2.3c4.9-.615 4.664-6.519 4.045-10.1-.137-.795-1.348-.473-1.211.336.43 2.465 1 5.79-1.187 7.649-3.491 2.966-5.2-1.958-5.809-4.579-.572-2.531-2.034-5.989-5.251-5.478-3.534.563-3.784 4.731-4.258 7.47s-2.611 5.5-5.677 4.13c-2.077-.946-3.311-3.217-4-5.27-.26-.757-1.471-.43-1.211.336Z" fill="#324958" />
  <path d="m212.867 43.838-31.718 5.6c-.795.137-.473 1.348.331 1.211l31.718-5.6c.791-.137.473-1.348-.331-1.211Z" fill="#324958" />
  <path d="M215.27 72.652c-.393-2.441-1.008-4.731-3.505-5.937-3.061-1.452-5.771-.369-8.151 1.277-1.448 1-3.557 3.174-5.814.18a18.653 18.653 0 0 1-1.027-2.588c-.648-1.221-1.49-2.55-3.018-2.881-1.892-.426-3.392 1.064-4.508 2.6a17.879 17.879 0 0 0-.568-4.385c-.185-.7-1.282-.653-1.287.057 0 4.82 1.069 14.452 1.069 14.452s24.075-2.558 26.809-2.775Z" fill="#324958" />
  <path d="m55.85 192.604 37.159 32.381 11.765 33.142 14.419 36.605a1.164 1.164 0 0 1-1.112 1.519h-.553a1.168 1.168 0 0 1-1.017-.6l-16.789-30.039-10.407-5.875 8.681 24.712a1.164 1.164 0 0 1-1.542 1.462 1.144 1.144 0 0 1-.629-.615Z" fill="#fff" />
  <path d="m128.256 189.999 10.029-6.784 5.4-3.652 2.313-1.566c.7-.473 1.817-1.6 2.677-1.585 1.268 0 3.572 2.588 4.622 3.444l4.622 3.751 9.575 7.8.128-.984-14.7 10.682-8.988 6.523c-.345.251-2.048 1.135-2.152 1.561-.076.326.473.274.473.095 0-.293-.946-.989-1.145-1.206l-7.649-8.042c-.558-.587-1.448.3-.889.889l8.9 9.381a.639.639 0 0 0 .762.1l26.018-18.9a.634.634 0 0 0 .128-.984l-19.192-15.611a.643.643 0 0 0-.757-.095l-20.814 14.088c-.667.449-.038 1.537.634 1.083Z" fill="#324958" />
  <path d="M138.161 240.847a29.319 29.319 0 0 0 2.124-2.365 37.626 37.626 0 0 0 .814 4.934 14.069 14.069 0 0 0 1.812 1.079 21.378 21.378 0 0 0 5.308 1.746c-1.419-15.611-4.967-20.3-4.967-20.3l-10.284 4.257a22.13 22.13 0 0 0 5.194 10.653Z" fill="#fff" />
  <path d="m138.824 166.88-2.209 11.992a2.219 2.219 0 0 1-1.069 1.523c-1.457.823-4.451 1.84-7.214-1.419l-1.717-11.718" fill="#324958" />
  <path d="M132.618 181.52a5.82 5.82 0 0 1-4.522-2.337.293.293 0 0 1-.071-.161l-1.723-11.714a.312.312 0 0 1 .265-.355.307.307 0 0 1 .355.265l1.708 11.614a5.031 5.031 0 0 0 6.76 1.277 1.892 1.892 0 0 0 .918-1.306l2.209-11.992a.313.313 0 1 1 .615.113l-2.209 12a2.5 2.5 0 0 1-1.22 1.731 6.4 6.4 0 0 1-3.084.866Z" fill="#324958" />
  <ellipse cx="5.904" cy="3.354" rx="5.904" ry="3.354" transform="translate(126.813 163.578)" fill="#fff" />
  <path d="M139.249 166.931c-.062-2.176-2.389-3.311-4.258-3.737a9.391 9.391 0 0 0-7.28 1.145c-1.589 1.154-2.081 3.127-.643 4.636 1.679 1.764 4.626 2.138 6.921 1.859 2.115-.26 5.17-1.339 5.246-3.9a.627.627 0 0 0-1.254 0c-.047 1.6-2.238 2.313-3.505 2.564a8.3 8.3 0 0 1-5.828-.851 2.365 2.365 0 0 1-1.216-1.537 1.821 1.821 0 0 1 .714-1.519c1.419-1.287 3.728-1.514 5.554-1.334 1.419.137 4.224.823 4.258 2.677.061.801 1.31.807 1.291-.003Z" fill="#324958" />
  <path d="m120.35 152.224-.047-1.783c-.681 0-4.541-.151-5.019 0l.047 1.783a2.34 2.34 0 0 0 2.559 1.892c1.383.001 2.485-.827 2.46-1.892Z" fill="#324958" />
  <path d="m120.975 152.224-.047-1.783a.639.639 0 0 0-.629-.624c-.87 0-1.741-.047-2.616-.061h-1.547a3.892 3.892 0 0 0-1.022.085.648.648 0 0 0-.473.605l.033 1.258a2.99 2.99 0 0 0 .383 1.684 3.636 3.636 0 0 0 4.565.946 2.432 2.432 0 0 0 1.339-2.104.629.629 0 0 0-1.254 0 1.085 1.085 0 0 1 0 .175c0-.118 0 .061-.024.095s-.061.161-.043.118-.024.043-.033.057a.749.749 0 0 1-.061.1l-.052.076a1.579 1.579 0 0 1-.151.156s-.132.114-.071.066a1.835 1.835 0 0 1-.227.142 2.488 2.488 0 0 1-1.694.237 2.168 2.168 0 0 1-.781-.3 1.509 1.509 0 0 1-.473-.473 1.388 1.388 0 0 1-.1-.185c.038.09 0-.047 0-.076s-.033-.17 0-.066a.89.89 0 0 1 0-.161v-.535l-.076-1.211-.473.606c.118-.033.118 0 0 0h2.3c.852 0 1.7.057 2.555.057l-.639-.662.047 1.783a.632.632 0 0 0 1.264-.005Z" fill="#324958" />
  <ellipse cx="1.897" cy="2.512" rx="1.897" ry="2.512" transform="rotate(-87.97 136.484 16.441)" fill="#324958" />
  <path d="M120.928 150.452a2.734 2.734 0 0 0-2.148-2.365 3.624 3.624 0 0 0-3.439.766 2.2 2.2 0 0 0-.151 3 3.562 3.562 0 0 0 3.288 1.088 2.689 2.689 0 0 0 2.45-2.474.629.629 0 0 0-1.254 0v.151c0 .051.024-.09 0 0a2.192 2.192 0 0 1-.076.251c.043-.1-.052.085-.071.113l-.071.1c.066-.09-.043.043-.057.062a1.253 1.253 0 0 1-.388.293 1.745 1.745 0 0 1-.5.2 2.671 2.671 0 0 1-1.192.033 2.266 2.266 0 0 1-.975-.445 1.225 1.225 0 0 1-.284-.326 1.189 1.189 0 0 1-.061-.1c0-.028-.057-.147 0-.043a.139.139 0 0 0-.038-.114c-.038-.038-.038-.194 0-.066a1.373 1.373 0 0 1 0-.241.946.946 0 0 1 0-.114.885.885 0 0 1 .184-.364 2.132 2.132 0 0 1 .284-.27 2.071 2.071 0 0 1 .5-.255 2.592 2.592 0 0 1 1.23-.114 3.129 3.129 0 0 1 .624.17c.057.028.184.095.265.147l.114.071.085.057c-.033-.024-.033 0 0 0a2.574 2.574 0 0 1 .227.227c.066.08-.043-.066 0 0a1.425 1.425 0 0 1 .1.156l.057.1.028.085.028.114a1 1 0 0 1 0 .118.629.629 0 1 0 1.254 0Z" fill="#324958" />
  <path d="m112.234 171.009.066-9.182c0-1.211-.076-2.469.028-3.676.336-3.945 5.166-6.415 8.662-4.731 3.576 1.727 2.711 5.615 2.692 8.9-.024 2.994.36 6.306-.066 9.277-.4 2.748-4.153 3.449-6.481 3.538-2.744.1-4.783-1.178-4.9-4.13-.033-.8-1.287-.809-1.254 0 .184 4.612 4.021 5.8 7.995 5.2 2.54-.393 5.634-1.689 5.9-4.574.151-1.7 0-3.482.033-5.2l.052-7.63a7.98 7.98 0 0 0-.5-3.874c-3.108-5.96-13.033-3.188-13.387 3.193-.237 4.258-.061 8.6-.09 12.877a.629.629 0 0 0 1.254.014Z" fill="#324958" />
  <path d="M120.517 157.636c-2.649-.412-5.946-.473-8.184 1.306-.975.766-1.627 1.944-.875 3.1 1.273 1.949 5.677 1.892 7.716 1.769 2.228-.137 5.388-1.045 5.781-3.638.118-.79-1.093-1.131-1.211-.336-.544 3.624-7.682 3.061-10.1 2.115s-.412-2.323 1.041-2.838a11.425 11.425 0 0 1 5.492-.284c.79.123 1.131-1.088.336-1.211Z" fill="#324958" />
  <path d="M110.724 259.783a.946.946 0 0 1-.322-1.826c17.144-6.23 29.538-19.807 29.661-19.939a.946.946 0 0 1 1.637.553 35.059 35.059 0 0 0 2.432 9.835 31.694 31.694 0 0 1 2.365 8.761l1.835-.553c-.426-19.239-3.827-27.177-4.972-29.329l-20.247 8.813a.946.946 0 1 1-.752-1.727l21-9.135a.946.946 0 0 1 1.131.3c.218.289 5.293 7.337 5.733 31.756a.946.946 0 0 1-.672.918l-3.614 1.093a.946.946 0 0 1-1.211-.842 30.83 30.83 0 0 0-2.313-9.277 34.028 34.028 0 0 1-2.365-8.468c-3.756 3.742-14.783 13.837-29.022 19.012a.985.985 0 0 1-.304.055Z" fill="#324958" />
  <path d="m112.239 195.916 32.981-3.676c-2.985 7.276-11.453 5.757-11.453 5.757-5.592 4.92-22.163 7.933-22.163 7.933" fill="#fff" />
  <path d="M111.604 206.872a.946.946 0 0 1-.166-1.869c.161-.028 16.377-3.023 21.708-7.711a.946.946 0 0 1 .79-.222c.289.052 6.547 1.083 9.641-3.7l-31.224 3.479a.946.946 0 1 1-.208-1.869l32.981-3.68a.946.946 0 0 1 .974 1.291c-2.838 6.873-10.128 6.59-12.035 6.391-5.989 4.863-21.609 7.749-22.286 7.872Z" fill="#324958" />
  <path d="m84.389 171.483-7.365 7.138s-6.755 19.75 5.317 30.077c3.676 3.151 3.113 8.567 4.825 11.178l5.866 5.109 2.167 6.112s16.434-4.21 20.531-17.4c0 0-5.147-5.757-2.682-13.369 3.255-10.062 1.022-13.889 1.022-13.889-5.729-4.731-9.8-13.246-16.231-19.556-4.363-4.275-13.45 4.6-13.45 4.6Z" fill="#324958" />
  <path d="m87.024 192.24-7.1 18.638 24.812 1.8c5.965 4.754 4.5 10.005 4.5 10.005-5.024 0-7.744-5.62-7.744-5.62-12.3 6.377-32.229 1.85-32.229 1.85-2.616-16.637 7.763-40.295 7.763-40.295s2.365-2.5 6.817-.312c6.71 3.304 3.181 13.934 3.181 13.934Z" fill="#fff" />
  <path d="M109.238 223.627c-4.362 0-7.1-3.638-8.127-5.322-12.5 5.875-31.25 1.717-32.059 1.533a.946.946 0 0 1-.719-.776c-2.63-16.718 7.4-39.841 7.829-40.82a.946.946 0 0 1 1.727.757c-.1.232-9.972 22.991-7.791 39.131 3.453.686 20.3 3.619 30.962-1.892a.95.95 0 0 1 1.282.416c0 .047 2.233 4.48 6.1 5.033.114-1.462-.137-4.839-4.068-8.089l-24.523-1.783a.946.946 0 0 1-.818-1.287l7.1-18.638a.946.946 0 1 1 1.76.672l-6.637 17.494 23.553 1.712a.946.946 0 0 1 .52.2c6.377 5.081 4.882 10.753 4.816 10.989a.946.946 0 0 1-.907.67Z" fill="#324958" />
  <path d="M85.439 171.875s6.15 13.648 16.155 12.65c10.407-1.036-5.6-8.988-5.6-17.546 0 0 5.251 3.718 9.087-1.575s2.365-21.131-3.117-28.208c-4.551-5.852-15.682-1.334-17.579 4.631s1.892 15.27 3.311 17.47.943 9.735-2.257 12.578Z" fill="#fff" />
  <path d="M100.54 185.518c-9.849 0-15.7-12.7-15.951-13.246a.946.946 0 0 1 .232-1.093c2.838-2.517 3.226-9.551 2.077-11.353-1.348-2.138-5.473-11.751-3.406-18.26 1.173-3.676 5.478-6.963 10.242-7.81 3.756-.672 7.03.383 8.988 2.89 5.544 7.134 7.3 23.587 3.136 29.329a7.026 7.026 0 0 1-8.685 2.692c.752 2.923 3.264 5.837 5.35 8.255 2.285 2.654 4.1 4.73 3.382 6.538-.6 1.495-2.682 1.869-4.2 2.02-.399.019-.787.038-1.165.038Zm-13.945-13.451c1.287 2.512 6.855 12.328 14.925 11.524 2.275-.227 2.592-.743 2.635-.847.289-.724-1.646-2.966-3.061-4.608-2.687-3.113-6.027-6.987-6.027-11.155a.942.942 0 0 1 1.485-.771 5.38 5.38 0 0 0 7.777-1.358c3.42-4.731 2.365-20.062-3.094-27.073-2.063-2.654-5.374-2.517-7.162-2.195-4.049.719-7.82 3.529-8.775 6.528-1.817 5.705 2.053 14.859 3.2 16.685 1.592 2.534 1.157 9.842-1.903 13.27Z" fill="#324958" />
  <path d="m134.472 246.737 3.028 32.064 3.1-.979s2.63-21.075 2.3-28.322-6.157-5.815-8.428-2.763Z" fill="#fff" />
  <path d="M137.5 279.746a.946.946 0 0 1-.946-.856l-3.023-32.06a.946.946 0 0 1 .18-.653c1.386-1.864 4.187-3.439 6.651-2.687 1.211.374 3.269 1.637 3.472 5.97.331 7.243-2.2 27.617-2.308 28.483a.946.946 0 0 1-.648.781l-3.1.979a.85.85 0 0 1-.278.043Zm-2.053-32.721 2.884 30.526 1.419-.445c.421-3.482 2.512-21.16 2.219-27.565-.076-1.665-.511-3.756-2.138-4.258-1.319-.392-3.216.379-4.384 1.742Z" fill="#324958" />
  <path d="M141.213 243.704a.634.634 0 0 1-.629.629c-1.116-.09-2.238-.208-3.345-.326a1.323 1.323 0 0 1-.317.2.629.629 0 0 1-.922-.369.113.113 0 0 0 0-.043.648.648 0 0 1 .435-.766 8.408 8.408 0 0 0 .629-.728l.7-.781c.5-.549 1-1.112 1.509-1.66a.629.629 0 0 1 1.045.274 13.062 13.062 0 0 1 .895 3.57Z" fill="#324958" />
  <path d="M150.217 256.637a6.411 6.411 0 0 0-1.263-.1 11.131 11.131 0 0 1-3.2 1.235.648.648 0 0 0-1.022 0 24.6 24.6 0 0 1-.572 7.5.771.771 0 0 0 .52.946l1 .279a.648.648 0 0 0 .776-.44 14.383 14.383 0 0 0 .506-1.769 30.531 30.531 0 0 0 5.279 3.538c.946.516 2.588 1.921 3.453.7a1.933 1.933 0 0 0 .26-.534c-1.709-4.008-5.181-4.708-5.737-11.355Z" fill="#324958" />
  <path d="M145.257 291.941c-1.58 1.627-5.4-3.822-7.02-6.287-.109.2-.218.412-.322.62a.691.691 0 0 1-.9.222l-1.15-.662a.62.62 0 0 1-.326-.544c.307-2.545.553-5.1.728-7.664a.639.639 0 0 1 .577-.582.554.554 0 0 1 .3-.038 3.814 3.814 0 0 0 3.874-1.5.667.667 0 0 1 1.221.317c.118 1.675-.156 3.34 0 5.014a20.716 20.716 0 0 0 1.589 5.8c.426 1.136 2.558 4.147 1.429 5.304Z" fill="#324958" />
  <path d="M133.431 230.311a45.64 45.64 0 0 1-8 3.671c-.109.265-.222.53-.322.8-.27.729-1.419.44-1.22-.274a.628.628 0 0 1-.307-1.216c.317-.09.61-.213.918-.312 1.135-2.578 2.555-5.081 2.872-7.919a.639.639 0 0 1 1.074-.445q2.654 2.247 5.114 4.731a.639.639 0 0 1-.123.965Z" fill="#324958" />
  <path d="M109.542 140.303a10.844 10.844 0 0 1-2.086 1.533.6.6 0 0 1-.378.412 14.036 14.036 0 0 1-9.163.44c-1.476-.445-2.838-1.561-4.314-1.859-2.465-.5-3.69 1.708-3.311 4.229.08.558.407 1.083.473 1.67.114 1.315-.393 3.136-1.892 3.463-.87.194-1.036-.27-1.793-.473-.525-.137-1.3-.87-1.921-.1-.473.582.4 2.654.875 3.666.085.156.166.322.241.473a.634.634 0 0 1-.326.875 19.935 19.935 0 0 1 .781 5.752c-.156 4.409-2.455 8.416-5.123 11.826-1.419 1.788-4.092 4.508-6.694 3.747s-1.31-3.865-.516-5.549c2.4-5.071 2.706-10.284-1.277-14.717-2.6-2.881-5.809-4.906-7.318-8.633a17.137 17.137 0 0 1-.43-10.634c.757-2.971 2.119-7.266 5.033-8.837 5.644-3.032 9.665 2.621 11.68 7.4-.114-.289 6.1-3.013 6.651-3.255a11.193 11.193 0 0 1 8.122-.189 12.158 12.158 0 0 1 5.279 3.836c1.126 1.358 3.212 4.2 5.085 2.233a.629.629 0 0 1 .984.757 7.927 7.927 0 0 1-1.546 1.9 9.422 9.422 0 0 0 2.124-.9.629.629 0 0 1 .757.937Z" fill="#324958" />
  <path d="M103.889 151.292a10.232 10.232 0 0 0-.79-1.419c-.35-.525-3.534-3.69-3.221-1.419a8.105 8.105 0 0 0 1.069 3.515c.473.7 1.419 1.641 2.342 1.547 1.242-.114 1.042-1.226.6-2.224Z" fill="#324958" />
  <path d="M97.725 146.193c-.307-.776-.795-1.419-1.485-1.235s-.828 1.055-.724 1.632c.137.8.946 2.961 2.072 2.484 1.012-.426.412-2.17.137-2.881Z" fill="#324958" />
  <path d="M103.737 144.098a.852.852 0 0 0-.9.038c-.658.473-.284 1.466-.038 2.044.293.691.563 1.462 1.386 1.088 1.028-.469.328-2.735-.448-3.17Z" fill="#324958" />
  <path d="M96.58 156.761a7.1 7.1 0 0 0 7.1.236c.719-.369.085-1.457-.634-1.083a5.8 5.8 0 0 1-5.847-.241c-.686-.426-1.32.662-.634 1.088Z" fill="#324958" />
  <path d="M391.403 231.116a.946.946 0 0 0-1.031.43 1.062 1.062 0 0 0-.118.322 1.623 1.623 0 0 0 .2 1.75.866.866 0 0 0 1.083.128 1.736 1.736 0 0 0 .676-.946 1.235 1.235 0 0 0-.809-1.684Z" fill="#324958" />
  <path d="m119.117 292.773-26.122-69.421c-.279-.747-1.495-.426-1.211.336l26.122 69.416c.283.748 1.499.426 1.211-.331Z" fill="#324958" />
  <path d="M54.289 191.133c13.477 31.477 26.78 63.039 40.725 94.313.326.738 1.419.1 1.083-.634-13.946-31.236-27.243-62.822-40.721-94.3-.317-.743-1.419-.1-1.083.634Z" fill="#324958" />
  <path d="M66.063 218.419c10.3 6.968 20.961 13.4 31.264 20.365.672.449 1.3-.634.634-1.088-10.3-6.968-20.961-13.392-31.264-20.341-.672-.473-1.3.634-.634 1.083Z" fill="#324958" />
  <path d="M72.469 233.41c9.977 6.869 20.341 13.118 30.574 19.613.681.435 1.31-.648.629-1.083-10.213-6.5-20.592-12.744-30.569-19.618-.667-.473-1.297.629-.634 1.088Z" fill="#324958" />
  <path d="M148.408 180.253c.222-.563.61 1.736.629 1.779a4.257 4.257 0 0 0 .6 1.249 7.611 7.611 0 0 0 2.223 1.821 23.067 23.067 0 0 1 7.186 6.855c.44.672 1.528.043 1.083-.634a23.139 23.139 0 0 0-3.959-4.655c-1.547-1.367-3.742-2.209-5.128-3.69-.946-1.027-.53-3.449-2.039-4.016a1.366 1.366 0 0 0-1.8.946c-.3.743.913 1.074 1.211.331Z" fill="#324958" />
  <path d="m142.758 203.508 11.992-10.44c.615-.53-.279-1.419-.885-.885l-12 10.44c-.607.53.284 1.424.893.885Z" fill="#324958" />
  <path d="M143.838 183.323c1.273-.79 1.67 1.94 1.949 2.545a2.891 2.891 0 0 0 1.045 1.272 6.88 6.88 0 0 0 1.892.639 3.813 3.813 0 0 1 2.507 2.323c.317.743 1.419.1 1.083-.634a4.971 4.971 0 0 0-2.015-2.389c-1.528-.9-2.782-.473-3.609-2.484-.6-1.452-1.528-3.572-3.472-2.365-.681.426-.052 1.514.634 1.083Z" fill="#324958" />
</svg>