<svg xmlns="http://www.w3.org/2000/svg" viewBox="0 0 637.85 217.674">
  <defs>
    <filter id="a" x="2.412" y="156.461" width="633.723" height="61.213" filterUnits="userSpaceOnUse">
      <feOffset dx="3" dy="3"/>
      <feGaussianBlur result="b"/>
      <feFlood flood-opacity=".502"/>
      <feComposite operator="in" in2="b"/>
      <feComposite in="SourceGraphic"/>
    </filter>
    <filter id="b" x="0" y="0" width="637.85" height="131.232" filterUnits="userSpaceOnUse">
      <feOffset dx="4" dy="3"/>
      <feGaussianBlur result="d"/>
      <feFlood/>
      <feComposite operator="in" in2="d"/>
      <feComposite in="SourceGraphic"/>
    </filter>
  </defs>
  <g filter="url(#a)" transform="translate(-.003 -.005)">
    <path d="M2.41 200.88v-42.012h14.888q22.383 0 22.383 20.479 0 9.814-6.108 15.674t-16.275 5.859Zm9.463-34.307v26.631h4.688q6.152 0 9.653-3.691t3.5-10.049q0-6.006-3.472-9.448t-9.732-3.443Zm60.52 21.943H52.828q.468 6.534 8.232 6.534a16.072 16.072 0 0 0 8.7-2.344v6.68a22.858 22.858 0 0 1-10.809 2.226q-7.266 0-11.28-4.032t-4.013-11.231q0-7.471 4.336-11.836a14.445 14.445 0 0 1 10.664-4.365q6.562 0 10.151 3.9t3.589 10.572Zm-8.583-5.683q0-6.445-5.215-6.445a4.979 4.979 0 0 0-3.853 1.846 8.377 8.377 0 0 0-1.978 4.6Zm42.36-11.953-11.16 30H84.461l-10.635-30h9.9l5.215 18.486a27 27 0 0 1 1.025 5.332h.117a30.259 30.259 0 0 1 1.084-5.156l5.335-18.662Zm30.022 17.637h-19.57q.469 6.533 8.232 6.533a16.072 16.072 0 0 0 8.7-2.344v6.68a22.858 22.858 0 0 1-10.809 2.226q-7.266 0-11.279-4.028t-4.014-11.235q0-7.471 4.336-11.836a14.445 14.445 0 0 1 10.664-4.365q6.563 0 10.151 3.9t3.589 10.576Zm-8.582-5.684q0-6.445-5.215-6.445a4.979 4.979 0 0 0-3.853 1.846 8.377 8.377 0 0 0-1.978 4.6Zm23.048 18.047H141.4v-44.414h9.258Zm21.79.732q-7.5 0-11.792-4.2t-4.292-11.411q0-7.441 4.453-11.646t12.041-4.2q7.471 0 11.719 4.2t4.248 11.118q0 7.471-4.38 11.807t-11.997 4.332Zm.234-24.375a6.175 6.175 0 0 0-5.1 2.256 9.948 9.948 0 0 0-1.814 6.387q0 8.643 6.973 8.643 6.65 0 6.65-8.877 0-8.409-6.709-8.409Zm31.228 20.157h-.117v17.286h-9.258v-43.8h9.258v4.512h.117a10.883 10.883 0 0 1 9.639-5.244q5.83 0 9.009 4t3.179 10.884q0 7.5-3.706 12.041a12.084 12.084 0 0 1-9.864 4.539 9.341 9.341 0 0 1-8.257-4.218Zm-.264-12.3v2.4a7.637 7.637 0 0 0 1.641 5.068 5.34 5.34 0 0 0 4.307 1.963 5.676 5.676 0 0 0 4.903-2.445 11.811 11.811 0 0 0 1.743-6.929q0-7.91-6.152-7.91a5.777 5.777 0 0 0-4.644 2.153 8.588 8.588 0 0 0-1.802 5.695Zm75.428 15.786h-9.229v-17.109q0-6.533-4.8-6.533a4.414 4.414 0 0 0-3.721 1.963 8.066 8.066 0 0 0-1.436 4.893v16.786h-9.258v-17.285q0-6.357-4.717-6.357a4.521 4.521 0 0 0-3.794 1.875 8.25 8.25 0 0 0-1.421 5.1v16.667h-9.258v-30h9.258v4.688h.117a11.069 11.069 0 0 1 4.028-3.911 11.071 11.071 0 0 1 5.669-1.509q6.357 0 8.7 5.6a11.1 11.1 0 0 1 10.078-5.6q9.785 0 9.785 12.07Zm33.977-12.363h-19.57q.469 6.533 8.229 6.533a16.072 16.072 0 0 0 8.7-2.344v6.68a22.858 22.858 0 0 1-10.805 2.226q-7.266 0-11.279-4.028t-4.016-11.235q0-7.471 4.336-11.836a14.445 14.445 0 0 1 10.664-4.365q6.563 0 10.151 3.9t3.589 10.576Zm-8.584-5.684q0-6.445-5.215-6.445a4.979 4.979 0 0 0-3.853 1.846 8.377 8.377 0 0 0-1.978 4.6Zm42.767 18.047h-9.224v-16.67q0-6.973-4.98-6.973a4.942 4.942 0 0 0-3.96 1.843 7.031 7.031 0 0 0-1.553 4.688v17.112h-9.257v-30h9.258v4.746h.117a10.609 10.609 0 0 1 9.639-5.479q9.961 0 9.961 12.363Zm25.159-.352a13.684 13.684 0 0 1-6.183 1.084q-9.785 0-9.785-10.166v-13.74h-4.863v-6.826h4.863v-6.475l9.229-2.637v9.112h6.738v6.826h-6.738v12.129q0 4.688 3.721 4.688a6.273 6.273 0 0 0 3.018-.85Zm59.869.352h-9.552l-17.313-26.4a38.171 38.171 0 0 1-2.109-3.486h-.117q.234 2.227.234 6.8v23.086h-8.936v-42.012h10.2l16.67 25.576q1.143 1.729 2.109 3.428h.117a44.919 44.919 0 0 1-.234-5.771v-23.233h8.936Zm35.354-12.363h-19.57q.469 6.533 8.232 6.533a16.072 16.072 0 0 0 8.7-2.344v6.68a22.858 22.858 0 0 1-10.809 2.226q-7.266 0-11.279-4.028t-4.014-11.235q0-7.471 4.336-11.836a14.445 14.445 0 0 1 10.664-4.365q6.563 0 10.151 3.9t3.589 10.576Zm-8.584-5.684q0-6.445-5.215-6.445a4.979 4.979 0 0 0-3.853 1.846 8.377 8.377 0 0 0-1.978 4.6Zm31.927 17.7a13.684 13.684 0 0 1-6.182 1.079q-9.785 0-9.785-10.166v-13.74h-4.863v-6.826h4.863v-6.475l9.229-2.637v9.112h6.738v6.826h-6.738v12.129q0 4.688 3.721 4.688a6.273 6.273 0 0 0 3.018-.85Zm48.362-29.653-8.643 30h-9.727l-4.424-17.578a17.9 17.9 0 0 1-.5-3.838h-.176a22.965 22.965 0 0 1-.586 3.721l-4.743 17.695h-9.612l-8.467-30h9.434l4.133 19.57a25.446 25.446 0 0 1 .439 3.34h.176a18.5 18.5 0 0 1 .527-3.457l5.158-19.453h8.818l4.629 19.57a31.117 31.117 0 0 1 .41 3.4h.205a33.78 33.78 0 0 1 .469-3.4l3.9-19.57Zm18.098 30.732q-7.5 0-11.792-4.2t-4.292-11.411q0-7.441 4.453-11.646t12.041-4.2q7.471 0 11.719 4.2t4.248 11.118q0 7.471-4.38 11.807t-11.997 4.332Zm.234-24.375a6.175 6.175 0 0 0-5.1 2.256 9.948 9.948 0 0 0-1.813 6.387q0 8.643 6.973 8.643 6.65 0 6.65-8.877 0-8.409-6.709-8.409Zm41.419 1.992a8.031 8.031 0 0 0-3.9-.908 5.613 5.613 0 0 0-4.717 2.212 9.65 9.65 0 0 0-1.7 6.021v14.326h-9.258v-30h9.258v5.566h.117q2.2-6.094 7.91-6.094a5.962 5.962 0 0 1 2.285.352Zm34.066 21.651h-11.1l-9.58-14.883h-.117v14.883h-9.258v-44.414h9.258v28.271h.117l8.932-13.857h10.986l-10.752 14.092Z" fill="#fff"/>
  </g>
  <g filter="url(#b)" transform="translate(-.003 -.005)">
    <path d="M107.669 87.368q0 18.545-13.008 28.608T57.483 126.04H.003V.005h53.525q50.186 0 50.186 30.5a23.783 23.783 0 0 1-3.164 12.085 28.462 28.462 0 0 1-9.624 9.624 40.27 40.27 0 0 1-14.195 5.626v.352a40.014 40.014 0 0 1 16.084 5.317 31.4 31.4 0 0 1 10.986 10.631 25.151 25.151 0 0 1 3.868 13.228Zm-44.3-50.273q0-11.689-18.369-11.689h-7.029v23.818h10.987a15.611 15.611 0 0 0 10.371-3.384 10.877 10.877 0 0 0 4.043-8.745Zm3.955 50.1a11.462 11.462 0 0 0-3.955-8.965q-3.952-3.518-10.459-3.518H37.971v25.752h12.657q7.734 0 12.217-3.56a11.734 11.734 0 0 0 4.482-9.712Zm148.321-7.734q0 22.764-13.755 35.771t-38.45 13.008q-24.521 0-38.188-12.7t-13.667-35.027q0-14.326 6.416-24.873a41.722 41.722 0 0 1 18.281-16.172q11.866-5.628 27.334-5.628 16 0 27.729 5.889a42.864 42.864 0 0 1 18.018 16.348 44.515 44.515 0 0 1 6.285 23.381Zm-37.969.176q0-18.369-14.062-18.369t-14.06 19.245q0 20.3 14.238 20.3 13.887.002 13.887-21.179Zm144.851-.176q0 22.764-13.755 35.771t-38.45 13.008q-24.521 0-38.188-12.7t-13.667-35.027q0-14.326 6.416-24.873a41.722 41.722 0 0 1 18.281-16.172q11.866-5.628 27.334-5.628 16 0 27.729 5.889a42.864 42.864 0 0 1 18.018 16.348 44.515 44.515 0 0 1 6.285 23.381Zm-37.969.176q0-18.369-14.062-18.369t-14.06 19.245q0 20.3 14.238 20.3 13.887.002 13.887-21.179Zm117.871 16.52q0 15.293-11.646 23.687t-32.473 8.396a112.915 112.915 0 0 1-14.987-1.233 92.571 92.571 0 0 1-14.546-2.988V97.74q16.611 7.383 27.773 7.383 10.986 0 10.986-5.713a4.509 4.509 0 0 0-2.549-3.911q-2.549-1.538-13.359-5.142-11.953-3.779-17.4-10.02t-5.449-16.26q0-13.975 11.118-22.1t31.243-8.137a99.313 99.313 0 0 1 24.961 3.428v25.225a75.486 75.486 0 0 0-12.129-3.953 48.989 48.989 0 0 0-11.074-1.582 12.054 12.054 0 0 0-5.889 1.23 3.785 3.785 0 0 0-2.2 3.428 4.781 4.781 0 0 0 2.373 4.131q2.373 1.582 9.492 3.779 13.8 4.043 19.775 10.371t5.98 16.26Zm63.848 28.653a36.477 36.477 0 0 1-8.35 2.329 76.338 76.338 0 0 1-13.975 1.1q-15.645 0-24.478-8.613t-8.833-24.521v-32.61h-14.54l-5.177-25.928h19.718V18.374l36.914-10.2v28.389h18.721v25.928h-18.721V88.95q0 11.865 9.4 11.865a25.511 25.511 0 0 0 9.316-1.934Zm38.545-33.135q.967 5.8 6.68 9.1t15.117 3.3a62.256 62.256 0 0 0 24.785-5.01v23.73q-13.623 5.445-33.046 5.445-23.555 0-36.65-12.041T468.61 83.061q0-14.5 5.757-25.576a41.423 41.423 0 0 1 17.051-17.358 50.377 50.377 0 0 1 24.918-6.287q13.975 0 23.906 5.449a36.3 36.3 0 0 1 15.073 15.293q5.142 9.844 5.142 23.027v14.063Zm22.5-19.6q0-15.557-11.162-15.557a9.445 9.445 0 0 0-7.822 4.263q-3.164 4.259-3.691 11.294Zm106.531-3.955a29.1 29.1 0 0 0-5.713-1.758 28.91 28.91 0 0 0-5.977-.791q-18.545 0-18.545 21.445v39.024h-37.441v-90h37.441v15.82h.352a28.1 28.1 0 0 1 9.756-12.964 25.062 25.062 0 0 1 14.766-4.438 12.685 12.685 0 0 1 5.361 1.055Z" fill="#4dd1c8"/>
  </g>
</svg>