<svg xmlns="http://www.w3.org/2000/svg" viewBox="0 0 111 18.536">
  <path d="m96.228.064-4.529 10-4.53-10h-1.811l6.341 14.025L98.047.064ZM78.601 3.325l2.726 6.012h-5.452ZM78.257.064l-6.33 14.025h1.82l1.389-3.1h6.942l1.39 3.1h1.816L78.95.064ZM101.214.064v14.025h7.151l.88-1.688h-6.375V7.636h5.04V5.982h-5.04V1.711h5.482l.878-1.647ZM70.329.064l-4.493 10L61.82 1.28l-3.979 8.784-4.351-10h-2.7l-2.42 5.355.909 2.011 2.783-6.144 5.783 12.8 3.98-8.8 4.015 8.8L72.14.064ZM28.35.069l-.751 1.643h7.444l-8.03 12.347h11.062l.743-1.643h-8.764L38.084.069Z" fill="#fff"/>
  <path d="m40.519.064 4.055 9-4.054 9h3.6l4.081-9-4.081-9Z" fill="#5fb53b"/>
  <path d="M1.56 12.691h-.038v1.373H0V0h1.522v6.234h.038a3.6 3.6 0 0 1 3.283-1.893 3.482 3.482 0 0 1 2.862 1.276 5.267 5.267 0 0 1 1.034 3.419 5.888 5.888 0 0 1-1.159 3.817 3.861 3.861 0 0 1-3.173 1.434 3.125 3.125 0 0 1-2.847-1.596Zm-.038-3.827v1.327a2.825 2.825 0 0 0 .765 2 2.542 2.542 0 0 0 1.944.821 2.547 2.547 0 0 0 2.166-1.063 4.852 4.852 0 0 0 .784-2.941 3.83 3.83 0 0 0-.733-2.486 2.425 2.425 0 0 0-1.988-.9 2.7 2.7 0 0 0-2.134.923 3.389 3.389 0 0 0-.804 2.319Zm17.209-4.3L14.36 15.585q-1.169 2.95-3.284 2.95a3.481 3.481 0 0 1-.993-.121v-1.363a2.82 2.82 0 0 0 .9.167 1.865 1.865 0 0 0 1.727-1.373l.761-1.8L9.76 4.564h1.688l2.57 7.311q.046.139.195.724h.056q.046-.223.186-.705l2.7-7.329Z" fill="#fff"/>
</svg>