<svg xmlns="http://www.w3.org/2000/svg" width="349.51" height="481.873" viewBox="0 0 349.51 481.873"><defs><style>.a{fill:#afc0e0;}.b{fill:#fff;opacity:0.2;}.b,.c{isolation:isolate;}.c{opacity:0.1;}.d{fill:#d76c42;}.e{fill:#d09734;}.f{fill:#e3e8f4;}.g{fill:#17987c;}</style></defs><g transform="translate(-58.763 -55.716) rotate(30)"><path class="a" d="M309.61,394.941a20.3,20.3,0,0,0-3.979,1.135c-28.618,11.428-28.14,86.235-28.14,86.235h-8.425s-2.653-32.1-14.213-77.905c-10.415-41.208,32.3-78.139,40.974-85.142.976-.78,1.517-1.194,1.517-1.194C340.365,333.88,309.61,394.941,309.61,394.941Z" transform="translate(0 -199.551)"/><path class="b" d="M300.5,319.379c-.992-.456-2.016-.891-3.1-1.289,0,0-.531.414-1.517,1.194-8.674,7-51.389,43.935-40.974,85.142,11.561,45.8,14.187,77.895,14.187,77.895h4.738s-2.626-32.1-14.213-77.905C249.241,363.4,291.542,326.605,300.5,319.379Z" transform="translate(-0.023 -199.56)"/><path class="a" d="M569.158,404.416c-11.587,45.8-14.2,77.895-14.2,77.895H546.52s.531-78.181-30.1-86.909a16.79,16.79,0,0,0-2.021-.472s-30.772-61.061,12.266-76.86c0,0,.435.324,1.22.955C535.861,325.407,579.69,362.731,569.158,404.416Z" transform="translate(-117.606 -199.551)"/><path class="c" d="M347.3,394.95a20.3,20.3,0,0,0-3.979,1.135,519.54,519.54,0,0,1-9.8-76.8c.976-.78,1.517-1.194,1.517-1.194C378.059,333.89,347.3,394.95,347.3,394.95Z" transform="translate(-37.694 -199.56)"/><path class="c" d="M527.917,319.063a477.969,477.969,0,0,1-11.465,76.4,16.8,16.8,0,0,0-2.021-.472s-30.772-61.061,12.266-76.86C526.681,318.108,527.116,318.432,527.917,319.063Z" transform="translate(-117.621 -199.578)"/><path class="d" d="M308.006,332.458s-15.976-22.338-12.649-36.576,15.308-53.487,25.479-53.2,20.881,9.5,29.41,12.272,26.231,4.1,29.517-.876S403.2,261.334,405.6,281.5s-18.177,40.517-14.462,57.617S401.967,375.2,401.967,375.2s-20.855-4.124-23.838-23.957S364.8,328.153,364.8,328.153s8.089,15.345,2.1,24.964-25.665,30.214-21.331,37.719-15.952-16.964-12.2-29.136,13.468-39.338,1.207-44.575-9.54,30.142-9.54,30.142Z" transform="translate(-2.941 -4.075)"/><path class="e" d="M375.121,251.371c1.732-1,9.559,29.891,8.608,38.909s-8.142,28.564-8.142,28.564-4.536-15.856-6.56-24.695-11.684-5.571-16.856,2.8-1.481,20.1-1.481,20.1-3.821-3.952-8.333-14.434-6.625-20.809-15.131-18.207S314.172,305.8,314.172,305.8s-.447-7.44-6.381-21.719,23.32-36.943,25.219-37.654S375.121,251.371,375.121,251.371Z" transform="translate(0 0)"/><path class="f" d="M433.081,206.967q-4.457,17.582-10.446,36.077c-5.99,18.495-18.951,19.742-64.727,0a347.206,347.206,0,0,1-9.6-34.809c-11.072-48.19-24.352-140.022,3.942-234.348A351.085,351.085,0,0,1,387.889-107S412.061-79.247,429.8-26.129,458.834,105.484,433.081,206.967Z" transform="translate(-38.536)"/><circle class="a" cx="38.003" cy="38.003" r="38.003" transform="translate(315.196 10.765)"/><path class="g" d="M444.768,162.8a26.952,26.952,0,0,1-44.035,20.845,27.239,27.239,0,0,1-5.051-5.481,26.532,26.532,0,0,1-1.74-2.86,26.9,26.9,0,0,1-3.072-12.5v-.642a26.984,26.984,0,0,1,19.63-25.318,27.866,27.866,0,0,1,6.494-.987h.806a26.952,26.952,0,0,1,26.968,26.936Z" transform="translate(-64.617 -114.007)"/><path class="a" d="M444.756-26.129c-43.117,20.644-77.576,0-77.576,0A351.085,351.085,0,0,1,402.849-107S427.02-79.247,444.756-26.129Z" transform="translate(-53.496)"/><path class="a" d="M444.557,484.78q-3.024,11.905-6.738,24.219-1.761,5.873-3.714,11.842c-1.952,5.969-18.951,19.742-64.727,0,0,0-1.486-4.186-3.714-11.842-1.666-5.783-3.74-13.534-5.9-22.967,0,0,17.041,7.274,41.229,7.274A113.586,113.586,0,0,0,444.557,484.78Z" transform="translate(-50.012 -277.813)"/><path class="f" d="M443.044,530.43q-1.761,5.873-3.714,11.842c-1.952,5.969-18.951,19.742-64.727,0,0,0-1.486-4.186-3.714-11.842C370.885,530.43,417.541,543.853,443.044,530.43Z" transform="translate(-55.237 -299.244)"/><path class="b" d="M410.526,136.767l-.058.042L390.89,162.084v.642a26.9,26.9,0,0,0,3.072,12.5L417.03,135.78Z" transform="translate(-64.626 -113.974)"/><path class="b" d="M421.024,178.894,404.991,202.9a27.238,27.238,0,0,1-5.051-5.481l19.1-20.5Z" transform="translate(-68.875 -133.287)"/><path class="b" d="M368.124,243.038a347.748,347.748,0,0,1-9.6-34.809C347.449,160.034,334.169,68.2,362.463-26.124a352.354,352.354,0,0,1,31.223-73.263c-3.592-5.035-5.836-7.6-5.836-7.6A351.059,351.059,0,0,0,352.2-26.124C323.9,68.2,337.183,160.034,348.255,208.229a347.748,347.748,0,0,0,9.6,34.809c18.086,7.794,31.981,9.428,42.178,8.558C391.325,250.932,380.746,248.476,368.124,243.038Z" transform="translate(-38.513 -0.005)"/></g></svg>