<svg id="space-background" xmlns="http://www.w3.org/2000/svg" xmlns:xlink="http://www.w3.org/1999/xlink" viewBox="0 0 1922 1011">
  <defs>
    <clipPath id="clip-path">
      <rect id="Rectangle_11310" data-name="Rectangle 11310" width="1380" height="292" transform="translate(46.307 781)" fill="#fff" stroke="#707070" stroke-width="1"/>
    </clipPath>
  </defs>
  <g id="Group_265072" data-name="Group 265072" transform="translate(1 -61)">
    <rect id="Rectangle_10450" data-name="Rectangle 10450" width="1922" height="1009" transform="translate(-1 63)" fill="#25323a"/>
    <g id="Sparkles" transform="translate(0 80)" opacity="0.5">
      <path id="Union_13" data-name="Union 13" d="M-12683.562,2973.869l-.424.243-.046-.083.424-.243-.246-.424.083-.049.243.424.428-.247.045.083-.424.247.247.424-.084.049Zm626.877-1.8c0-.744.4-1.345.893-1.345s.9.6.9,1.345-.4,1.342-.9,1.342S-12056.685,2972.806-12056.685,2972.066Zm-1392.418,0c0-.744.4-1.345.9-1.345s.893.6.893,1.345-.4,1.342-.893,1.342S-13449.1,2972.806-13449.1,2972.066Zm1338.694-7.612a.9.9,0,0,1,.894-.9.9.9,0,0,1,.9.9.9.9,0,0,1-.9.893A.893.893,0,0,1-12110.408,2964.454Zm-267.4-.9a1.32,1.32,0,0,1-.935-1.62l.265-.994-.994-.264a1.327,1.327,0,0,1-.936-1.62,1.328,1.328,0,0,1,1.623-.938l.991.268.268-.994a1.323,1.323,0,0,1,1.619-.935,1.32,1.32,0,0,1,.936,1.62l-.265.994.994.268a1.322,1.322,0,0,1,.935,1.62,1.324,1.324,0,0,1-1.619.935l-.994-.268-.268.994a1.322,1.322,0,0,1-1.274.981A1.32,1.32,0,0,1-12377.807,2963.554Zm-90.717-2.471v-.49h-.49v-.1h.49v-.49h.1v.49h.49v.1h-.49v.49Zm113.094-2.586a2.049,2.049,0,0,1,1.71-2.3,2.052,2.052,0,0,1,1.869,2.172,2.055,2.055,0,0,1-1.713,2.3h-.052A2.068,2.068,0,0,1-12355.43,2958.5Zm170.278-8.494-.49.017,0-.094.489-.017-.017-.49.1,0,.018.49.49-.017,0,.094-.489.017.017.49-.1,0Zm150.082-.135v-.49h-.49v-.094h.49v-.49h.094v.49h.489v.094h-.489v.49Zm-115.69-1.6-.49.017,0-.1.49-.017-.018-.49.1,0,.018.49.49-.017v.1l-.487.018.015.49-.094,0Zm219.243-2.7v-.49h-.49v-.1h.49v-.49h.1v.49h.49v.1h-.49v.49Zm-440.416-5.676-.49.017,0-.1.49-.017-.018-.49.1,0,.014.49.49-.017,0,.1-.49.017.018.49-.094,0Zm373.246-1.947a1.79,1.79,0,0,1,1.79-1.793,1.793,1.793,0,0,1,1.79,1.793,1.792,1.792,0,0,1-1.79,1.79A1.789,1.789,0,0,1-11998.687,2937.942Zm-130.257-1.793v-.49h-.49v-.094h.49v-.49h.094v.49h.49v.094h-.49v.49Zm-37.905-1.588-.49.018,0-.094.489-.017-.017-.49.094,0,.017.49.49-.017,0,.1-.49.014.018.49-.094,0Zm-216.4-5.94.139-.518-.518-.139.027-.1.518.139.14-.518.1.028-.139.518.518.135-.028.1-.518-.139-.139.514Zm-6.614-12.512-.49.017,0-.1.49-.017-.018-.49.1,0,.018.49.49-.017,0,.1-.49.017.018.49-.1,0Zm348.332-1.477v-.49h-.49v-.094h.49v-.49h.1v.49h.49v.094h-.49v.49Zm-75.581-2.69v-.49h-.49v-.094h.49v-.49h.094v.49h.489v.094h-.489v.49Zm168.763-1.658c0-.74.4-1.345.9-1.345s.9.6.9,1.345-.4,1.342-.9,1.342S-11948.346,2911.023-11948.346,2910.282Zm-77.58-132.307v-.49h-.489v-.1h.489v-.487h.094v.487h.49v.1h-.49v.49Zm-1315.683,0v-.49h-.49v-.094h.49v-.49h.1v.49h.49v.094h-.49v.49Zm1281.253-1.29v-.49h-.489v-.1h.489v-.49h.1v.49h.49v.1h-.49v.49Zm-1383.238,0v-.49h-.49v-.1h.49v-.49h.1v.49h.49v.1h-.49v.49Zm1281.966-1.022-.49.017,0-.094.494-.017-.021-.49.1,0,.018.49.49-.017,0,.1-.49.014.018.49-.1,0Zm-1069.031,0-.49.017,0-.094.49-.017-.018-.49.1,0,.017.49.49-.017,0,.1-.49.014.018.49-.1,0Zm-447.27-1.442-.268-.994-.99.264a1.323,1.323,0,0,1-1.623-.935,1.321,1.321,0,0,1,.935-1.62l.994-.268-.265-.994a1.322,1.322,0,0,1,.936-1.62,1.322,1.322,0,0,1,1.619.935l.268.994.994-.264a1.322,1.322,0,0,1,1.62.935,1.323,1.323,0,0,1-.936,1.62l-.994.268.265.994a1.321,1.321,0,0,1-.935,1.62,1.334,1.334,0,0,1-.343.045A1.325,1.325,0,0,1-13677.929,2774.222Zm1213.221-3.013c0-.744.4-1.345.894-1.345s.9.6.9,1.345-.4,1.342-.9,1.342S-12464.708,2771.948-12464.708,2771.208Zm533.73-.094v-.49h-.49v-.1h.49v-.49h.1v.49h.49v.1h-.49v.49Zm-1654.142,0v-.49h-.489v-.1h.489v-.49h.1v.49h.49v.1h-.49v.49Zm1220.472-2.8a.9.9,0,0,1,.865-.928.9.9,0,0,1,.925.865.893.893,0,0,1-.862.925h-.032A.894.894,0,0,1-12364.647,2768.313Zm-944.158,0a.9.9,0,0,1,.866-.928.9.9,0,0,1,.924.865.893.893,0,0,1-.861.925h-.032A.9.9,0,0,1-13308.806,2768.313Zm-415.689-.827c0-.744.4-1.345.893-1.345s.9.6.9,1.345-.4,1.342-.9,1.342S-13724.5,2768.226-13724.5,2767.486Zm1204.4-.427a.9.9,0,0,1,.9-.9.9.9,0,0,1,.9.9.9.9,0,0,1-.9.9A.9.9,0,0,1-12520.1,2767.058Zm169.569.222a.687.687,0,0,1-.489-.841h0l.14-.518-.519-.139a.689.689,0,0,1-.49-.841.693.693,0,0,1,.845-.49v0l.519.139.139-.518a.687.687,0,0,1,.841-.49.688.688,0,0,1,.487.844l-.14.518.518.139a.685.685,0,0,1,.487.841.686.686,0,0,1-.842.487l-.518-.139-.139.518a.683.683,0,0,1-.66.511A.7.7,0,0,1-12350.526,2767.281Zm-1320.246-16.579a.9.9,0,0,1,.9-.893.9.9,0,0,1,.9.893.9.9,0,0,1-.9.9A.9.9,0,0,1-13670.772,2750.7Zm1486.747-2.662c-.024-.74.354-1.355.848-1.373s.914.57.942,1.31-.354,1.355-.848,1.373h-.021C-12183.589,2749.35-12184,2748.769-12184.025,2748.04Zm-1069.7,0c-.028-.74.354-1.355.848-1.373s.914.57.942,1.31-.354,1.355-.849,1.373h-.021C-13253.291,2749.35-13253.7,2748.769-13253.727,2748.04Zm85.595-5.133v-.49h-.49v-.1h.49v-.49h.094v.49h.49v.1h-.49v.49Zm-596.656-16.927a1.792,1.792,0,0,1,1.79-1.79,1.789,1.789,0,0,1,1.789,1.79,1.79,1.79,0,0,1-1.789,1.793A1.793,1.793,0,0,1-13764.788,2725.98Zm20.37-7.7v-.49h-.49v-.1h.49v-.49h.1v.49h.49v.1h-.49v.49Zm1776.688-9.235-.139-.514-.518.135a.685.685,0,0,1-.842-.483.691.691,0,0,1,.487-.844l.514-.139-.139-.514a.687.687,0,0,1,.486-.841.689.689,0,0,1,.845.483l.139.518.515-.139h0a.688.688,0,0,1,.841.487.688.688,0,0,1-.486.841l-.519.139.14.518a.692.692,0,0,1-.486.841.689.689,0,0,1-.178.023A.687.687,0,0,1-11967.729,2709.043Zm-1880.241-.083v-.49h-.49v-.1h.49v-.49h.1v.49h.49v.1h-.49v.49Zm448.729-4.915a2.05,2.05,0,0,1,1.79-2.238,2.05,2.05,0,0,1,1.79,2.238,2.052,2.052,0,0,1-1.79,2.238A2.052,2.052,0,0,1-13399.241,2704.045Zm909.624-8.095.139-.518-.518-.139.027-.1.518.139.14-.518.1.028-.139.518.518.139-.028.1-.514-.139-.14.518Zm-619.839-7.156.017-.49-.489-.017,0-.1.49.017.018-.49.1,0-.017.49.489.017,0,.1-.49-.017-.018.49Zm-541.088-.216v-.49h-.49v-.1h.49v-.49h.1v.49h.49v.1h-.49v.49Zm290.2-2.641a.691.691,0,0,1-.486-.841l.139-.518-.518-.139a.689.689,0,0,1-.486-.841.688.688,0,0,1,.841-.49l0,0,.514.139.14-.518a.69.69,0,0,1,.845-.487.692.692,0,0,1,.486.841l-.14.518.519.139a.684.684,0,0,1,.482.841.685.685,0,0,1-.841.487l-.518-.139-.136.518a.692.692,0,0,1-.667.51A.7.7,0,0,1-13360.346,2685.937Zm1035.115-11.247.122-.521-.521-.122.024-.1.521.118.118-.521.1.024-.122.521.521.122-.021.1-.524-.118-.118.521Zm-954.616,0,.119-.521-.521-.122.024-.1.521.118.122-.521.1.024-.121.521.524.122-.024.1-.521-.118-.121.521Zm1177.131-23.05-.14-.518-.518.139h0a.69.69,0,0,1-.841-.487.692.692,0,0,1,.486-.845l.519-.135-.14-.518v0a.69.69,0,0,1,.487-.841.691.691,0,0,1,.844.487l.136.518.519-.139h0a.688.688,0,0,1,.841.487.693.693,0,0,1-.486.845l-.518.135.139.518v0a.689.689,0,0,1-.486.841.7.7,0,0,1-.177.023A.686.686,0,0,1-12102.716,2651.639Zm-403.095-1.116a.689.689,0,0,1-.49-.841l0,0,.135-.518-.514-.139a.687.687,0,0,1-.49-.841.69.69,0,0,1,.841-.487h0l.518.139.139-.518a.688.688,0,0,1,.842-.487.688.688,0,0,1,.486.841v0l-.139.514.518.139a.689.689,0,0,1,.486.841.687.687,0,0,1-.841.49h0l-.514-.139-.14.514a.689.689,0,0,1-.665.513A.679.679,0,0,1-12505.811,2650.524Zm-1232.149-8.533v-.49h-.49v-.1h.49v-.49h.1v.49h.489v.1h-.489v.49Zm75.581-5.825v-.49h-.49v-.094h.49v-.49h.1v.49h.49v.094h-.49v.49Zm1314.359-5.78a.687.687,0,0,1-.515-.824v0l.118-.521-.518-.122a.684.684,0,0,1-.519-.824.69.69,0,0,1,.824-.518h0l.519.122.121-.521a.693.693,0,0,1,.824-.518.692.692,0,0,1,.518.827l-.122.521.521.122a.687.687,0,0,1,.519.824.694.694,0,0,1-.824.518l0,0-.521-.118-.118.521a.7.7,0,0,1-.676.535A.687.687,0,0,1-12348.02,2630.386Zm-948.795,0a.689.689,0,0,1-.518-.824v0l.121-.521-.521-.122a.687.687,0,0,1-.519-.824.693.693,0,0,1,.824-.518h0l.521.122.122-.521a.688.688,0,0,1,.823-.518.694.694,0,0,1,.519.827h0l-.118.521.521.122a.685.685,0,0,1,.515.824.69.69,0,0,1-.824.518v0l-.521-.118-.121.521a.692.692,0,0,1-.673.535A.687.687,0,0,1-13296.814,2630.386Zm758.139-8.477v-.49h-.49v-.1h.49v-.49h.094v.49h.489v.1h-.489v.49Zm-1214.887-10.781v-.49h-.489v-.1h.489v-.49h.1v.49h.49v.1h-.49v.49Zm34.43-1.164v-.49h-.489v-.1h.489v-.49h.1v.49h.49v.1h-.49v.49Zm1324.831-6.138-.49.017,0-.1.49-.017-.018-.49.1,0,.018.49.49-.017,0,.1-.494.018.021.49-.1,0Zm-935.819,0-.49.017,0-.1.49-.017-.018-.49.1,0,.018.49.49-.017,0,.1-.49.018.018.49-.1,0Zm1399.122-3.441a.9.9,0,0,1,.327-1.223.9.9,0,0,1,1.224.327.9.9,0,0,1-.327,1.223.892.892,0,0,1-.447.12A.9.9,0,0,1-11931,2600.384Zm-130,0a.9.9,0,0,1,.327-1.223.9.9,0,0,1,1.223.327.9.9,0,0,1-.326,1.223.9.9,0,0,1-.449.12A.891.891,0,0,1-12061,2600.384Zm-1383.093.327a.894.894,0,0,1-.33-1.223.9.9,0,0,1,1.223-.327.894.894,0,0,1,.327,1.223.891.891,0,0,1-.773.447A.888.888,0,0,1-13444.091,2600.711Zm-142.133,0a.894.894,0,0,1-.33-1.223.9.9,0,0,1,1.223-.327.894.894,0,0,1,.33,1.223.9.9,0,0,1-.776.447A.888.888,0,0,1-13586.224,2600.711Zm-89.922-5.839a2.052,2.052,0,0,1,1.793-2.238,2.052,2.052,0,0,1,1.79,2.238,2.052,2.052,0,0,1-1.79,2.238A2.052,2.052,0,0,1-13676.146,2594.872Zm836.239-2.652.017-.49-.489-.017,0-.1.49.017.018-.487h.1l-.017.49.49.018,0,.1-.49-.017-.018.49Zm685.143-5.533-.49.017,0-.1.49-.018-.018-.487.1,0,.018.487.49-.014,0,.094-.49.017.018.49-.1,0Zm-1068.819,0-.489.017,0-.1.49-.018-.018-.487.1,0,.018.487.489-.014v.094l-.489.017.017.49-.094,0Zm-624.927-1.766v-.49h-.49v-.1h.49v-.49h.1v.49h.49v.1h-.49v.49Zm680.371-12.79a.89.89,0,0,1,.33-1.22.894.894,0,0,1,1.223.327.9.9,0,0,1-.33,1.223.888.888,0,0,1-.446.12A.892.892,0,0,1-13168.139,2572.131Zm794.163-2.072a.9.9,0,0,1-.331-1.223.9.9,0,0,1,1.224-.327.894.894,0,0,1,.33,1.223.9.9,0,0,1-.776.447A.888.888,0,0,1-12373.976,2570.059Zm-733.973-5.276.021-.49-.494-.017,0-.1.49.017.017-.49.1,0-.018.49.49.017,0,.1-.49-.017-.018.49Zm361.286-11.136-.365-.393-.389.365a.686.686,0,0,1-.97-.031.687.687,0,0,1,.031-.973l.389-.365-.364-.393a.689.689,0,0,1,.034-.97.688.688,0,0,1,.974.031l.365.393.393-.365a.686.686,0,0,1,.97.035.686.686,0,0,1-.031.97l-.394.365.365.393a.686.686,0,0,1-.034.97.689.689,0,0,1-.472.187A.685.685,0,0,1-12746.662,2553.647Zm-286.129-5.543a2.054,2.054,0,0,1-2.176-1.87,2.051,2.051,0,0,1,2.3-1.71,2.051,2.051,0,0,1,2.173,1.866,2.03,2.03,0,0,1-2.2,1.715Zm-692.243-10.535c0-.74.4-1.342.9-1.342s.9.6.9,1.342-.4,1.345-.9,1.345S-13725.034,2538.313-13725.034,2537.569Zm898.439-2.516a2.056,2.056,0,0,1-2.176-1.87,2.054,2.054,0,0,1,2.3-1.71,2.054,2.054,0,0,1,2.176,1.866,2.034,2.034,0,0,1-2.205,1.715Zm-541.668-6.291-.14-.518-.518.139h0a.684.684,0,0,1-.841-.487.689.689,0,0,1,.486-.841l.519-.139-.14-.518a.692.692,0,0,1,.487-.841.691.691,0,0,1,.844.487l.136.518.519-.139a.687.687,0,0,1,.841.483.687.687,0,0,1-.483.844l-.518.139.139.518a.69.69,0,0,1-.486.841.689.689,0,0,1-.178.023A.685.685,0,0,1-13368.263,2528.761Zm-470.487-3.771a2.053,2.053,0,0,1,2.238-1.79,2.053,2.053,0,0,1,2.238,1.79,2.053,2.053,0,0,1-2.238,1.793A2.053,2.053,0,0,1-13838.75,2524.99Zm167.438-3.969a.9.9,0,0,1,.9-.9.9.9,0,0,1,.893.9.9.9,0,0,1-.893.9A.9.9,0,0,1-13671.312,2521.021Zm1585.835-1.946a.688.688,0,0,1-.49-.841v0l.139-.518-.515-.139a.688.688,0,0,1-.49-.841.69.69,0,0,1,.842-.487h0l.519.139.135-.518a.694.694,0,0,1,.845-.487.688.688,0,0,1,.487.841v0l-.14.514.519.139a.691.691,0,0,1,.486.841.688.688,0,0,1-.842.49l0,0-.515-.136-.139.514a.691.691,0,0,1-.666.513A.677.677,0,0,1-12085.477,2519.075Zm-1333.006-.49-.139-.514-.515.136,0,0a.687.687,0,0,1-.841-.49.689.689,0,0,1,.486-.841l.518-.139-.139-.514v0a.688.688,0,0,1,.486-.841.688.688,0,0,1,.842.487l.139.518.518-.139h0a.689.689,0,0,1,.841.487.687.687,0,0,1-.49.841l-.514.139.139.518v0a.69.69,0,0,1-.486.841.7.7,0,0,1-.178.023A.69.69,0,0,1-13418.482,2518.585Zm451.2-2.412-.424.247-.049-.083.428-.247-.247-.424.083-.045.243.424.425-.247.048.083-.424.247.243.424-.079.045Zm38.295-4.89.139-.518-.518-.139.027-.1.518.139.14-.518.1.028-.139.514.518.139-.028.1-.518-.135-.139.514Zm-815.963-22.5v-.49h-.49v-.1h.49v-.49h.094v.49h.494v.1h-.494v.49Zm906.8-1.957.018-.49-.49-.017,0-.094.49.017.018-.49.1,0-.018.487.49.017,0,.1-.49-.017-.018.49Zm148.66-2.336-.434.233-.046-.087.435-.229-.232-.431.087-.045.229.431.434-.229.046.083-.435.229.229.434-.084.045Zm150.263-1.144v-.49h-.49v-.094h.49v-.49h.094v.49h.49v.094h-.49v.49Zm-1309.277-3.882v-.49h-.49v-.1h.49v-.49h.1v.49h.49v.1h-.49v.49Zm1184.1-2.224-.265-.99-.994.264a1.318,1.318,0,0,1-1.619-.935,1.32,1.32,0,0,1,.935-1.62l.994-.268-.268-.994a1.32,1.32,0,0,1,.935-1.62,1.323,1.323,0,0,1,1.62.935l.268.994.994-.264a1.319,1.319,0,0,1,1.619.935,1.324,1.324,0,0,1-.935,1.62l-.994.264.268.994a1.33,1.33,0,0,1-.935,1.623,1.336,1.336,0,0,1-.342.045A1.329,1.329,0,0,1-12664.407,2477.239Zm266.186-11.859-.49.017,0-.094.49-.017-.018-.49.1,0,.018.49.489-.018v.094l-.489.017.017.49-.094,0Zm-934.757,0-.49.017,0-.094.49-.017-.018-.49.1,0,.017.49.49-.018,0,.094-.494.017.021.49-.1,0Zm912.217-3.656a1.32,1.32,0,0,1-.935-1.62l.264-.994-.994-.264a1.328,1.328,0,0,1-.935-1.623,1.324,1.324,0,0,1,1.619-.935l.994.268.268-.994a1.321,1.321,0,0,1,1.62-.935,1.32,1.32,0,0,1,.935,1.62l-.264.994.994.264a1.328,1.328,0,0,1,.935,1.623,1.324,1.324,0,0,1-1.619.935l-.994-.268-.268.994a1.322,1.322,0,0,1-1.275.981A1.318,1.318,0,0,1-12420.762,2461.723Zm-685.431-2.339.017-.49-.489-.014v-.1l.489.017.021-.49.094,0-.018.49.49.017,0,.094-.489-.017-.018.49Zm-544.887-.3v-.49h-.49v-.094h.49v-.49h.094v.49h.49v.094h-.49v.49Zm1096.895-5.227a.687.687,0,0,1-.486-.841v0l.139-.514-.518-.139a.686.686,0,0,1-.486-.841.687.687,0,0,1,.841-.49h0l.515.139.14-.518a.689.689,0,0,1,.841-.487.689.689,0,0,1,.49.841v0l-.14.518.515.136a.693.693,0,0,1,.49.844.689.689,0,0,1-.841.487h0l-.518-.139-.14.518a.687.687,0,0,1-.664.51A.7.7,0,0,1-12554.185,2453.854Zm396.65-5.61-.49.017,0-.1.49-.017-.018-.49.1,0,.018.49.49-.017,0,.1-.494.017.021.49-.1,0Zm-1068.9,0-.49.017,0-.1.486-.017-.014-.49.094,0,.018.49.49-.017,0,.1-.489.017.017.49-.1,0Zm1292.9-4.644a.687.687,0,0,1-.486-.841l.139-.514-.518-.139a.688.688,0,0,1-.483-.844.689.689,0,0,1,.841-.487l.518.139.136-.518a.693.693,0,0,1,.845-.483.689.689,0,0,1,.486.841l-.139.518.518.135a.69.69,0,0,1,.483.844.689.689,0,0,1-.841.487l-.519-.139-.135.518a.693.693,0,0,1-.664.508A.671.671,0,0,1-11933.532,2443.6Zm-1649.775-.483-.14-.518-.514.139a.693.693,0,0,1-.845-.487.687.687,0,0,1,.486-.841l.518-.139-.139-.518a.687.687,0,0,1,.486-.841.687.687,0,0,1,.842.487l.139.514.518-.139a.692.692,0,0,1,.842.487.69.69,0,0,1-.487.844l-.514.139.135.514a.686.686,0,0,1-.482.841.7.7,0,0,1-.183.025A.686.686,0,0,1-13583.308,2443.118Zm987.856-.007-.139-.518-.518.139h0a.683.683,0,0,1-.841-.487.686.686,0,0,1,.49-.841l.514-.139-.139-.518a.688.688,0,0,1,.486-.841.686.686,0,0,1,.845.487l.14.518.514-.139h0a.682.682,0,0,1,.841.487.687.687,0,0,1-.486.841l-.518.139.139.518a.688.688,0,0,1-.486.841.694.694,0,0,1-.182.024A.684.684,0,0,1-12595.451,2443.111Zm515.629-1.668.139-.518-.518-.139.028-.1.514.139.14-.518.1.028-.139.518.518.139-.028.1-.514-.139-.14.518Zm-1343.85-.49-.518.139-.028-.1.519-.139-.14-.518.1-.028.139.518.518-.139.028.1-.519.139.14.518-.1.028Zm645.229-1.609v-.49h-.49v-.1h.49v-.49h.1v.49h.49v.1h-.49v.49Zm-145.31-3.142a.683.683,0,0,1-.486-.841v0l.139-.514-.518-.139a.683.683,0,0,1-.486-.841.687.687,0,0,1,.841-.49l.518.139.14-.518a.687.687,0,0,1,.841-.487.69.69,0,0,1,.49.841l0,0-.139.518.518.139a.683.683,0,0,1,.486.841.687.687,0,0,1-.841.487l-.518-.139-.14.518a.687.687,0,0,1-.664.51A.7.7,0,0,1-12923.753,2436.2Zm881.439-.629-.427.247-.046-.083.425-.247-.247-.424.083-.049.243.424.428-.243.046.083-.425.243.247.424-.083.049Zm-1420.115.375.247-.424-.424-.243.048-.083.425.243.243-.424.083.049-.246.424.427.247-.049.08-.424-.243-.246.424Zm-215.5-33.144-.268-.994-.99.268a1.325,1.325,0,0,1-1.623-.938,1.323,1.323,0,0,1,.935-1.62l.994-.264-.265-.994a1.321,1.321,0,0,1,.936-1.62,1.32,1.32,0,0,1,1.619.935l.268.994.994-.268a1.325,1.325,0,0,1,1.62.935,1.323,1.323,0,0,1-.936,1.62l-.994.268.265.994a1.32,1.32,0,0,1-.935,1.62,1.326,1.326,0,0,1-.346.046A1.325,1.325,0,0,1-13677.929,2402.8ZM-11971,2383.542a.9.9,0,0,1,.33-1.223.894.894,0,0,1,1.224.327.9.9,0,0,1-.33,1.223.891.891,0,0,1-.446.12A.9.9,0,0,1-11971,2383.542Zm-1449.895.327a.9.9,0,0,1-.327-1.223.893.893,0,0,1,1.224-.327.9.9,0,0,1,.327,1.223.9.9,0,0,1-.776.447A.892.892,0,0,1-13420.895,2383.869Zm-249.878-1.522a.9.9,0,0,1,.9-.9.9.9,0,0,1,.9.9.9.9,0,0,1-.9.893A.9.9,0,0,1-13670.772,2382.347Zm1473.053-4.028a1.793,1.793,0,0,1,1.728-1.853,1.792,1.792,0,0,1,1.853,1.728,1.79,1.79,0,0,1-1.728,1.852h-.063A1.791,1.791,0,0,1-12197.72,2378.318Zm-199.811.066a.691.691,0,0,1-.486-.841l.139-.518-.515-.139a.687.687,0,0,1-.486-.841.686.686,0,0,1,.841-.487l.518.139.14-.518a.684.684,0,0,1,.841-.483.685.685,0,0,1,.486.841l-.139.514.518.139a.688.688,0,0,1,.483.845.683.683,0,0,1-.841.483l-.515-.135-.139.514a.691.691,0,0,1-.666.51A.7.7,0,0,1-12397.53,2378.385Zm-220.6-1.846a.9.9,0,0,1,.9-.893.9.9,0,0,1,.9.893.9.9,0,0,1-.9.9A.9.9,0,0,1-12618.133,2376.539Zm108.416-5.947-.425.243-.048-.08.427-.247-.246-.424.083-.049.243.424.424-.243.049.083-.424.243.247.424-.084.049Zm406.4-3.993a1.325,1.325,0,0,1-.935-1.62l.268-.994-.994-.268a1.32,1.32,0,0,1-.935-1.62,1.32,1.32,0,0,1,1.619-.935l.994.264.265-.994a1.326,1.326,0,0,1,1.623-.935,1.327,1.327,0,0,1,.935,1.62l-.268.994.994.268a1.322,1.322,0,0,1,.935,1.62,1.319,1.319,0,0,1-1.619.935l-.994-.264-.268.994a1.322,1.322,0,0,1-1.277.98A1.338,1.338,0,0,1-12103.321,2366.6Zm-297.306-6.614-.49.017,0-.094.49-.017-.018-.49.1,0,.018.49.49-.017,0,.094-.49.017.018.49-.1,0Zm-934.1,0-.489.017,0-.094.49-.017-.018-.49.1,0,.018.49.489-.017v.094l-.489.017.017.49-.094,0Zm-430.058-3.111a1.792,1.792,0,0,1,1.79-1.793,1.79,1.79,0,0,1,1.789,1.793,1.789,1.789,0,0,1-1.789,1.79A1.792,1.792,0,0,1-13764.788,2356.874Zm1236.9-.827v-.49h-.49v-.094h.49v-.49h.094v.49h.49v.094h-.49v.49Zm195.15-2.829a.9.9,0,0,1-.326-1.223.9.9,0,0,1,1.223-.327.9.9,0,0,1,.327,1.223.892.892,0,0,1-.774.447A.9.9,0,0,1-12332.741,2353.217Zm-328.229-.421-.515.139-.028-.1.519-.139-.14-.518.1-.028.139.518.518-.139.028.1-.519.136.14.518-.1.028Zm-288.594-.678a.9.9,0,0,1,.327-1.223.9.9,0,0,1,1.224.327.9.9,0,0,1-.327,1.224.891.891,0,0,1-.447.12A.9.9,0,0,1-12949.563,2352.119Zm-423.19-1.48,0,0-.379-.379-.376.379a.694.694,0,0,1-.977,0,.69.69,0,0,1,0-.973v0l.379-.379-.379-.379a.686.686,0,0,1,0-.97.688.688,0,0,1,.974,0l0,0,.376.375.379-.375a.687.687,0,0,1,.973,0,.687.687,0,0,1,0,.973l-.379.379.379.379a.687.687,0,0,1,0,.973.69.69,0,0,1-.488.2A.681.681,0,0,1-13372.754,2350.638Zm-371.664-.421v-.49h-.49v-.094h.49v-.49h.1v.49h.49v.094h-.49v.49Zm909.12-1.839.018-.49-.49-.014,0-.1.489.018.018-.49.1,0-.018.49.49.017,0,.094-.49-.017-.017.49Zm-1012.673-7.479v-.49h-.49v-.094h.49v-.49h.1v.49h.49v.094h-.49v.49Zm1829.229-6.642-.379-.379-.379.379a.686.686,0,0,1-.973,0,.69.69,0,0,1,0-.973l.378-.379-.378-.379a.69.69,0,0,1,0-.973.689.689,0,0,1,.973,0l.379.379.379-.379a.69.69,0,0,1,.974,0,.69.69,0,0,1,0,.973l-.379.379.379.379v0a.686.686,0,0,1,0,.969.687.687,0,0,1-.486.2A.687.687,0,0,1-12018.741,2334.258Zm-149.369-7.639-.486.017,0-.1.486-.017-.014-.49.094,0,.018.49.49-.017,0,.1-.489.017.017.49-.1,0Zm-1069.229,0-.49.017,0-.1.49-.017-.018-.49.094,0,.018.49.49-.017,0,.1-.49.017.018.49-.094,0Zm134-5.676.017-.49-.489-.017,0-.094.49.014.018-.487.1,0-.017.487.489.017,0,.1-.49-.018-.018.49Zm-547.205-.424v-.49h-.49v-.1h.49v-.49h.1v.49h.49v.1h-.49v.49Zm1214.378-2.03a.9.9,0,0,1,.33-1.223.9.9,0,0,1,1.224.327.9.9,0,0,1-.326,1.223.9.9,0,0,1-.449.12A.9.9,0,0,1-12436.166,2318.489ZM-12779,2315.3v-.49h-.49v-.094h.49v-.49h.1v.49h.49v.094h-.49v.49Zm-1036.982-.883-.139-.518-.515.139h0a.683.683,0,0,1-.842-.487.685.685,0,0,1,.487-.841l.518-.139-.139-.518a.692.692,0,0,1,.486-.844.687.687,0,0,1,.841.49l.139.518.519-.139h0a.686.686,0,0,1,.842.487.689.689,0,0,1-.49.841l-.515.139.139.518a.687.687,0,0,1-.489.841.7.7,0,0,1-.182.025A.684.684,0,0,1-13815.981,2314.419Zm1662.966-19.825-.49.017,0-.1.489-.017-.017-.487.1,0,.018.487.49-.014,0,.094-.489.017.017.49-.1,0Zm-1068.763,0-.49.017,0-.1.49-.017-.018-.487.094,0,.018.487.49-.014,0,.094-.49.017.018.49-.095,0Zm-578.444-28.195-.518.139-.028-.1.519-.139-.14-.518.1-.024.14.518.518-.139.028.1-.519.139.14.518-.1.024Zm365.353-1.5a2.052,2.052,0,0,1,2.238-1.79,2.055,2.055,0,0,1,2.238,1.79,2.052,2.052,0,0,1-2.238,1.79A2.05,2.05,0,0,1-13434.87,2264.9Zm-219.08.991-.139-.518-.519.139a.688.688,0,0,1-.841-.487.686.686,0,0,1,.486-.841l.519-.139-.14-.518a.689.689,0,0,1,.486-.841.687.687,0,0,1,.842.487l.139.514.518-.135a.69.69,0,0,1,.842.483.691.691,0,0,1-.487.844l-.514.139.135.514a.685.685,0,0,1-.486.841.671.671,0,0,1-.181.024A.685.685,0,0,1-13653.95,2265.888Zm1721.231-.549a.894.894,0,0,1,.893-.9.9.9,0,0,1,.9.9.894.894,0,0,1-.9.893A.893.893,0,0,1-11932.719,2265.339Zm-1652.352,0a.9.9,0,0,1,.9-.9.894.894,0,0,1,.893.9.893.893,0,0,1-.893.893A.894.894,0,0,1-13585.07,2265.339Zm968.939-3.062a1.792,1.792,0,0,1,1.79-1.79,1.792,1.792,0,0,1,1.793,1.79,1.79,1.79,0,0,1-1.793,1.79A1.79,1.79,0,0,1-12616.131,2262.277Zm-465,.779a.9.9,0,0,1-.865-.928.9.9,0,0,1,.928-.862.893.893,0,0,1,.862.924.9.9,0,0,1-.893.866Zm374.511-6.906-.139-.514-.515.135,0,0a.688.688,0,0,1-.842-.49.687.687,0,0,1,.487-.841l.518-.139-.139-.514v0a.687.687,0,0,1,.486-.841.687.687,0,0,1,.841.487l.14.518.518-.139h0a.69.69,0,0,1,.842.487.688.688,0,0,1-.49.841l-.515.139.139.518v0a.688.688,0,0,1-.489.841.7.7,0,0,1-.178.023A.688.688,0,0,1-12706.623,2256.15Zm167.947-2.3v-.49h-.49v-.1h.49v-.49h.094v.49h.489v.1h-.489v.49Zm167.595-7.333a.686.686,0,0,1-.482-.841l.135-.518-.514-.139a.687.687,0,0,1-.487-.841.689.689,0,0,1,.842-.487l.518.139.139-.518a.687.687,0,0,1,.842-.487.689.689,0,0,1,.486.841l-.14.518.519.139a.686.686,0,0,1,.486.841.687.687,0,0,1-.841.49v0l-.519-.135-.139.514a.69.69,0,0,1-.666.51A.7.7,0,0,1-12371.081,2246.515Zm-84.173-6.844-.375-.379-.379.379h0a.69.69,0,0,1-.973,0,.688.688,0,0,1,0-.973l.379-.379-.379-.379h0a.688.688,0,0,1,0-.973.691.691,0,0,1,.974,0l.379.379.375-.379h0a.69.69,0,0,1,.973,0,.688.688,0,0,1,0,.973l-.379.379.379.379h0a.688.688,0,0,1,0,.973.684.684,0,0,1-.485.2A.693.693,0,0,1-12455.254,2239.672Zm-714.65-2.565a.9.9,0,0,1,.893-.9.9.9,0,0,1,.9.9.9.9,0,0,1-.9.9A.9.9,0,0,1-13169.9,2237.107Zm767.209-1.133-.49.017,0-.094.489-.017-.017-.49.1,0,.018.49.49-.017,0,.094-.49.017.017.49-.1,0Zm-933.543,0-.49.017,0-.094.49-.017-.018-.49.1,0,.018.49.49-.017,0,.094-.49.017.018.49-.1,0Zm1329.874-2.669v-.49h-.49v-.094h.49v-.49h.1v.49h.49v.094h-.49v.49Zm-1362.914,0v-.49h-.489v-.094h.489v-.49h.095v.49h.489v.094h-.489v.49Zm1259.357-9.315v-.49h-.49v-.1h.49v-.49h.1v.49h.49v.1h-.49v.49Zm-1282.574,0v-.49h-.49v-.1h.49v-.49h.1v.49h.489v.1h-.489v.49Zm1231.8-5.154-.489.017,0-.094.49-.017-.018-.49.1,0,.018.49.489-.017v.094l-.489.017.017.49-.094,0Zm-1069,0-.49.017,0-.094.49-.017-.018-.49.1,0,.018.49.489-.017v.094l-.489.017.017.49-.094,0Zm596.427-3.785v-.49h-.494v-.094h.494v-.49h.094v.49h.49v.094h-.49v.49Zm452.09-3.121a1.794,1.794,0,0,1,1.731-1.853,1.787,1.787,0,0,1,1.849,1.728,1.785,1.785,0,0,1-1.728,1.849h-.063A1.79,1.79,0,0,1-12181.183,2211.929Zm-1069.594,0a1.789,1.789,0,0,1,1.728-1.853,1.786,1.786,0,0,1,1.85,1.728,1.786,1.786,0,0,1-1.725,1.849h-.063A1.786,1.786,0,0,1-13250.776,2211.929Zm-122.582-11.421a.69.69,0,0,1-.486-.841l.139-.518-.515-.139a.689.689,0,0,1-.486-.844.687.687,0,0,1,.841-.483l.519.135.139-.514a.687.687,0,0,1,.841-.487.689.689,0,0,1,.487.841l-.14.518.519.139a.684.684,0,0,1,.482.841.685.685,0,0,1-.841.487l-.515-.139-.139.518a.69.69,0,0,1-.666.51A.7.7,0,0,1-13373.358,2200.508Zm-381.048-4.153c0-.744.4-1.345.893-1.345s.9.6.9,1.345-.4,1.342-.9,1.342S-13754.406,2197.095-13754.406,2196.355Zm-75.567-1.495a.894.894,0,0,1,.9-.893.893.893,0,0,1,.893.893.893.893,0,0,1-.893.9A.894.894,0,0,1-13829.974,2194.86Zm809.974-2.77-.122-.521-.521.122h0a.689.689,0,0,1-.824-.518.687.687,0,0,1,.518-.824l.521-.122-.121-.521a.691.691,0,0,1,.518-.827.693.693,0,0,1,.824.518l.118.521.521-.118,0,0a.69.69,0,0,1,.823.518.684.684,0,0,1-.514.824l-.525.122.122.521v0a.688.688,0,0,1-.515.824.689.689,0,0,1-.152.017A.687.687,0,0,1-13020,2192.09Zm115.624-2.3a2.05,2.05,0,0,1,1.79-2.239,2.05,2.05,0,0,1,1.79,2.239,2.05,2.05,0,0,1-1.79,2.238A2.05,2.05,0,0,1-12904.376,2189.789Zm-772.7-1.787a2.061,2.061,0,0,1,1.456-2.52,2.059,2.059,0,0,1,2.52,1.456,2.055,2.055,0,0,1-1.456,2.52,2.048,2.048,0,0,1-.533.071A2.062,2.062,0,0,1-13677.073,2188Zm1729.276-.552-.139-.514-.518.135,0,0a.688.688,0,0,1-.841-.49.688.688,0,0,1,.49-.841l.514-.139-.139-.514v0a.688.688,0,0,1,.486-.841.691.691,0,0,1,.845.487l.14.518.514-.139h0a.687.687,0,0,1,.841.487.687.687,0,0,1-.486.841l-.518.139.139.518v0a.689.689,0,0,1-.486.841.7.7,0,0,1-.177.023A.688.688,0,0,1-11947.8,2187.45Zm-1505.641.49a.692.692,0,0,1-.489-.845h0l.14-.518-.519-.139a.688.688,0,0,1-.49-.841.691.691,0,0,1,.845-.487l.519.139.139-.518a.682.682,0,0,1,.841-.487.682.682,0,0,1,.486.841l-.139.518.518.139a.687.687,0,0,1,.487.841.688.688,0,0,1-.842.49v0l-.518-.139-.139.518a.688.688,0,0,1-.664.513A.7.7,0,0,1-13453.437,2187.94Zm108.068-4.4a1.79,1.79,0,0,1,1.794-1.79,1.79,1.79,0,0,1,1.79,1.79,1.792,1.792,0,0,1-1.79,1.79A1.792,1.792,0,0,1-13345.369,2183.54Zm532.277.685a.893.893,0,0,1-.862-.924.894.894,0,0,1,.925-.865.9.9,0,0,1,.865.928.894.894,0,0,1-.9.863Zm244.247-3.305a2.052,2.052,0,0,1,2.238-1.793,2.052,2.052,0,0,1,2.238,1.793,2.052,2.052,0,0,1-2.238,1.79A2.052,2.052,0,0,1-12568.845,2180.919Zm-213.244,1.567a.687.687,0,0,1-.483-.841l.139-.518-.518-.139a.686.686,0,0,1-.486-.841.691.691,0,0,1,.841-.487l.518.139.14-.518a.686.686,0,0,1,.844-.483.685.685,0,0,1,.483.841l-.136.514.515.139a.69.69,0,0,1,.486.845.691.691,0,0,1-.841.487l-.518-.139-.14.514a.686.686,0,0,1-.665.51A.691.691,0,0,1-12782.089,2182.487Zm71.174-.959a.9.9,0,0,1,.894-.9.9.9,0,0,1,.9.9.9.9,0,0,1-.9.9A.9.9,0,0,1-12710.915,2181.528Zm377.833.827v-.49h-.489v-.1h.489v-.49h.094v.49h.49v.1h-.49v.49Zm-615.668-124.709v-.49h-.49v-.1h.49v-.49h.1v.49h.49v.1h-.49v.49Zm-805.886-6.545v-.49h-.49v-.094h.49v-.49h.094v.49h.49v.094h-.49v.49Zm1403.683-4.619c0-.744.4-1.345.9-1.345s.894.6.894,1.345-.4,1.342-.894,1.342S-12350.953,2047.222-12350.953,2046.482Zm-1300.13.316v-.49h-.49v-.1h.49v-.49h.1v.49h.49v.1h-.49v.49Zm760.846-1.255v-.49h-.49v-.1h.49v-.49h.1v.49h.489v.1h-.489v.49Zm111.794-1.154v-.49h-.49v-.1h.49v-.49h.1v.49h.49v.1h-.49v.49Zm677.187-1.863-.139-.518-.515.139a.694.694,0,0,1-.845-.487.687.687,0,0,1,.487-.841l.518-.139-.139-.518a.686.686,0,0,1,.486-.841.686.686,0,0,1,.841.487l.14.514.518-.139a.689.689,0,0,1,.841.487.69.69,0,0,1-.486.845l-.515.139.136.514a.685.685,0,0,1-.483.841.684.684,0,0,1-.182.025A.691.691,0,0,1-12101.257,2042.526Zm-866.9.327v-.49h-.49v-.1h.49v-.49h.094v.49h.489v.1h-.489v.49Zm136.1-1.967.018-.49-.49-.017,0-.094.489.014.018-.487h.1l-.018.49.49.017,0,.1-.49-.017-.017.49Zm294.331-.893a.688.688,0,0,1-.486-.841l.139-.518-.518-.139a.687.687,0,0,1-.483-.844.686.686,0,0,1,.842-.483l.514.135.14-.514a.688.688,0,0,1,.844-.487.692.692,0,0,1,.487.841l-.14.518.515.139a.686.686,0,0,1,.486.841.686.686,0,0,1-.841.487l-.518-.139-.14.518a.685.685,0,0,1-.663.51A.694.694,0,0,1-12537.728,2039.993Zm-1310.782-2.61v-.49h-.49v-.094h.49v-.49h.1v.49h.49v.094h-.49v.49Zm1444.528-5.408a.685.685,0,0,1-.515-.824l.118-.521-.521-.122a.69.69,0,0,1-.515-.824.69.69,0,0,1,.823-.518l.521.122.122-.521a.687.687,0,0,1,.823-.514.691.691,0,0,1,.519.824l-.122.521.521.122a.685.685,0,0,1,.515.824.691.691,0,0,1-.824.518l-.521-.122-.121.521a.688.688,0,0,1-.668.533A.682.682,0,0,1-12403.981,2031.974Zm-933.588,0a.691.691,0,0,1-.519-.824l.122-.521-.521-.122a.688.688,0,0,1-.515-.824.691.691,0,0,1,.824-.518l.521.122.121-.521a.688.688,0,0,1,.824-.514.686.686,0,0,1,.515.824l-.118.521.521.122a.687.687,0,0,1,.515.824.69.69,0,0,1-.823.518l-.521-.122-.122.521a.686.686,0,0,1-.668.533A.674.674,0,0,1-13337.569,2031.974Zm702.226-.6-.379-.379-.376.379h0a.688.688,0,0,1-.974,0,.687.687,0,0,1,0-.973l.379-.379-.379-.379h0a.687.687,0,0,1,0-.973.69.69,0,0,1,.973,0l.376.379.379-.379h0a.691.691,0,0,1,.974,0,.687.687,0,0,1,0,.973l-.379.379.379.379h0a.687.687,0,0,1,0,.973.678.678,0,0,1-.484.2A.687.687,0,0,1-12635.344,2031.37Zm655.867-2.607-.519.139-.027-.1.518-.139-.139-.518.1-.028.135.518.519-.139.027.1-.518.139.139.518-.1.028Zm-1428.013.49.14-.518-.519-.139.028-.1.514.139.14-.518.1.028-.139.518.518.139-.028.1-.514-.139-.14.518Zm307.39-1.039.017-.49-.489-.017.007-.1.486.017.018-.49.1,0-.017.49.489.017,0,.1-.49-.017-.018.49Zm222.062-6.878v-.49h-.49v-.1h.49v-.49h.1v.49h.49v.1h-.49v.49Zm475.225-2.513a1.792,1.792,0,0,1,1.79-1.79,1.792,1.792,0,0,1,1.793,1.79,1.79,1.79,0,0,1-1.793,1.79A1.79,1.79,0,0,1-12402.813,2018.822Zm380.093-1.133a.9.9,0,0,1,.9-.9.9.9,0,0,1,.9.9.9.9,0,0,1-.9.893A.9.9,0,0,1-12022.721,2017.689Zm-1325.54,0a.9.9,0,0,1,.9-.9.9.9,0,0,1,.9.9.9.9,0,0,1-.9.893A.9.9,0,0,1-13348.261,2017.689Zm529.268-.584.017-.49-.489-.017,0-.094.49.014.018-.487.094,0-.018.487.49.017,0,.1-.49-.017-.017.49Zm-942.1-1.241v-.49h-.489v-.094h.489v-.49h.095v.49h.489v.094h-.489v.49Zm1089.882-.785a.9.9,0,0,1,.33-1.224.9.9,0,0,1,1.223.327.894.894,0,0,1-.33,1.223.888.888,0,0,1-.446.12A.9.9,0,0,1-12671.209,2015.079Zm-1165.466-1.9v-.49h-.49v-.094h.49v-.49h.094v.49h.49v.094h-.49v.49Zm168.767-1.658c0-.74.4-1.342.893-1.342s.9.6.9,1.342-.4,1.345-.9,1.345S-13667.908,2012.257-13667.908,2011.517Zm1334.271.758v-.49h-.49v-.094h.49v-.49h.1v.49h.489v.094h-.489v.49Zm-753.4-7.841.018-.49-.49-.017,0-.1.489.017.018-.49.094,0-.017.49.489.017v.1l-.489-.017-.021.49Zm990.673-1.331v-.49h-.49v-.1h.49v-.49h.094v.49h.489v.1h-.489v.49Zm-1310.108,0v-.49h-.49v-.1h.49v-.49h.1v.49h.489v.1h-.489v.49Zm-339.021-1.491v-.49h-.49v-.1h.49v-.49h.094v.49h.489v.1h-.489v.49Zm1256.308-.118a2.059,2.059,0,0,1-1.456-2.52,2.064,2.064,0,0,1,2.523-1.456,2.057,2.057,0,0,1,1.453,2.52,2.057,2.057,0,0,1-1.985,1.527A2.057,2.057,0,0,1-12489.184,2001.493Zm-1290.737-.421v-.49h-.49v-.1h.49v-.49h.1v.49h.49v.1h-.49v.49Zm973.992-.862a2.055,2.055,0,0,1-1.71-2.3,2.053,2.053,0,0,1,1.866-2.176,2.053,2.053,0,0,1,1.714,2.3,2.073,2.073,0,0,1-1.818,2.177Zm848.563-4.369-.264-.994-.994.268a1.321,1.321,0,0,1-1.62-.935,1.32,1.32,0,0,1,.936-1.62l.994-.268-.268-.994a1.322,1.322,0,0,1,.935-1.62,1.328,1.328,0,0,1,1.623.935l.265.994.994-.264a1.32,1.32,0,0,1,1.619.935,1.321,1.321,0,0,1-.935,1.62l-.994.264.268.994a1.328,1.328,0,0,1-.936,1.623,1.316,1.316,0,0,1-.34.045A1.333,1.333,0,0,1-11957.365,1995.842Zm-1483.959.938a1.328,1.328,0,0,1-.938-1.623l.268-.994-.994-.264a1.321,1.321,0,0,1-.935-1.62,1.32,1.32,0,0,1,1.619-.935l.994.264.268-.994a1.323,1.323,0,0,1,1.62-.935,1.323,1.323,0,0,1,.935,1.62l-.268.994.994.268a1.325,1.325,0,0,1,.938,1.62,1.328,1.328,0,0,1-1.623.935l-.994-.268-.265.994a1.331,1.331,0,0,1-1.28.983A1.308,1.308,0,0,1-13441.324,1996.78Zm-385.07-3.17a2.053,2.053,0,0,1,1.79-2.238,2.052,2.052,0,0,1,1.794,2.238,2.055,2.055,0,0,1-1.794,2.238A2.055,2.055,0,0,1-13826.395,1993.61Zm1478.277-3.09a2.053,2.053,0,0,1,2.238-1.793,2.055,2.055,0,0,1,2.238,1.793,2.055,2.055,0,0,1-2.238,1.79A2.053,2.053,0,0,1-12348.117,1990.52Zm-248.032.028-.424.243-.049-.083.428-.243-.247-.424.083-.049.244.424.424-.243.049.083-.425.243.244.424-.08.049Zm403.88-.546a.688.688,0,0,1-.515-.824l.122-.521-.521-.118a.689.689,0,0,1-.518-.824.683.683,0,0,1,.823-.518h0l.521.122.118-.521a.688.688,0,0,1,.827-.514.686.686,0,0,1,.514.824l-.121.521.521.118a.687.687,0,0,1,.514.827.686.686,0,0,1-.823.514l-.521-.122-.118.521a.689.689,0,0,1-.67.533A.684.684,0,0,1-12192.27,1990Zm-1069.986,0a.688.688,0,0,1-.515-.824l.122-.521-.525-.118a.687.687,0,0,1-.514-.824.683.683,0,0,1,.823-.518h0l.521.122.118-.521a.688.688,0,0,1,.828-.514.686.686,0,0,1,.514.824l-.121.521.521.118a.687.687,0,0,1,.514.827.69.69,0,0,1-.823.514l-.521-.122-.122.521a.682.682,0,0,1-.666.533A.684.684,0,0,1-13262.256,1990Zm-388.288-.5v-.49h-.49v-.094h.49v-.49h.1v.49h.49v.094h-.49v.49Zm1606.917-.612-.139-.518-.515.139h0a.688.688,0,0,1-.841-.487.689.689,0,0,1,.486-.841l.519-.139-.14-.518v0a.69.69,0,0,1,.487-.841.687.687,0,0,1,.841.49l.139.514.519-.139h0a.688.688,0,0,1,.841.49.688.688,0,0,1-.489.841l-.515.139.139.514v0a.686.686,0,0,1-.49.841.679.679,0,0,1-.176.023A.69.69,0,0,1-12043.627,1988.894Zm-1418,.487a.688.688,0,0,1-.49-.841v0l.14-.514-.515-.139a.69.69,0,0,1-.49-.841.689.689,0,0,1,.842-.49h0l.518.139.136-.518a.693.693,0,0,1,.845-.487.689.689,0,0,1,.486.841v0l-.139.518.518.139a.688.688,0,0,1,.487.841.688.688,0,0,1-.842.487h0l-.515-.139-.139.518a.691.691,0,0,1-.666.51A.685.685,0,0,1-13461.626,1989.38Zm752.372-.007a.685.685,0,0,1-.486-.841l.139-.514-.518-.139a.688.688,0,0,1-.483-.845.688.688,0,0,1,.842-.487l.514.139.14-.514a.688.688,0,0,1,.845-.487.69.69,0,0,1,.486.841l-.14.518.515.139a.686.686,0,0,1,.486.841.686.686,0,0,1-.841.487l-.518-.139-.14.518a.685.685,0,0,1-.66.508A.677.677,0,0,1-12709.254,1989.373Zm151.4-.82.139-.518-.518-.139.027-.1.518.139.136-.518.1.028-.139.518.518.136-.027.1-.519-.139-.139.518Zm-516.126-1.015a2.056,2.056,0,0,1-1.71-2.3,2.051,2.051,0,0,1,1.866-2.176,2.055,2.055,0,0,1,1.714,2.3,2.073,2.073,0,0,1-1.819,2.177Zm-252.908-.066a2.055,2.055,0,0,1-1.544-2.468,2.06,2.06,0,0,1,2.468-1.543,2.063,2.063,0,0,1,1.544,2.471,2.062,2.062,0,0,1-2,1.593A2.046,2.046,0,0,1-13326.889,1987.472Zm372.637-3.128c0-.744.4-1.345.9-1.345s.893.6.893,1.345-.4,1.342-.893,1.342S-12954.252,1985.084-12954.252,1984.344Z" transform="translate(13849 -1983)" fill="#fff"/>
    </g>
    <path id="Path_109551" data-name="Path 109551" d="M0,0H1920V1010H0Z" transform="translate(0 61)" fill="rgba(158,230,225,0.05)"/>
  </g>
  <g id="Mask_Group_34" data-name="Mask Group 34" transform="translate(-45.307 -63)" clip-path="url(#clip-path)">
    <g id="Group_269854" data-name="Group 269854">
      <path id="Path_106998" data-name="Path 106998" d="M-1,776.512c1.816,0,134.407-236.118,617.547-292.423S1455.684,734.737,1422.99,774.7,129.775,932.714-1,776.512Z" transform="translate(1 303.883)" fill="#283842"/>
      <ellipse id="Ellipse_2074" data-name="Ellipse 2074" cx="133.96" cy="50.584" rx="133.96" ry="50.584" transform="translate(560.496 815.809)" fill="#2c404b" opacity="0.45"/>
      <ellipse id="Ellipse_2075" data-name="Ellipse 2075" cx="90.873" cy="27.268" rx="90.873" ry="27.268" transform="translate(607.369 838.682)" fill="#304653" opacity="0.66"/>
      <ellipse id="Ellipse_2076" data-name="Ellipse 2076" cx="115.545" cy="77.638" rx="115.545" ry="77.638" transform="translate(240.012 958.539)" fill="#2c404b" opacity="0.45"/>
      <ellipse id="Ellipse_2077" data-name="Ellipse 2077" cx="253.359" cy="52.854" rx="253.359" ry="52.854" transform="translate(800.543 1001.105)" fill="#2c404b" opacity="0.45"/>
      <ellipse id="Ellipse_2078" data-name="Ellipse 2078" cx="88.57" cy="47.291" rx="88.57" ry="47.291" transform="translate(266.637 986.396)" fill="#304653" opacity="0.66"/>
      <ellipse id="Ellipse_2079" data-name="Ellipse 2079" cx="222.685" cy="36.915" rx="222.685" ry="36.915" transform="translate(831.266 1013.682)" fill="#304653" opacity="0.66"/>
    </g>
  </g>
  <rect id="Rectangle_11311" data-name="Rectangle 11311" width="1920" height="1011" transform="translate(1)" fill="rgba(0,255,239,0.04)"/>
</svg>
