<svg xmlns="http://www.w3.org/2000/svg" viewBox="0 0 1920 1080">
  <defs>
    <style>
      .cls-1{fill:#fff}.cls-2,.cls-3{fill:#304653;opacity:.66;isolation:isolate}.cls-3{fill:#2c404b;opacity:.45}
    </style>
  </defs>
  <path fill="#25323a" d="M0 0h1920v1080H0z" id="Space"/>
  <g id="Stars">
    <path class="cls-1" d="m169.91 790.49.99-.27.27.99c.19.71.91 1.12 1.62.94s1.12-.91.94-1.62l-.27-.99 1-.27c.71-.19 1.13-.92.94-1.62s-.92-1.13-1.62-.94l-.99.27-.27-.99c-.19-.71-.92-1.13-1.62-.94s-1.13.92-.94 1.62l.27.99-.99.27c-.71.19-1.12.91-.94 1.62.19.71.91 1.12 1.62.94Z"/>
    <ellipse id="Ellipse_41" class="cls-1" cx="24.5" cy="10.61" rx="1.79" ry="2.24"/>
    <circle id="Ellipse_43" class="cls-1" cx="20.02" cy="211.86" r=".89"/>
    <ellipse id="Ellipse_44" class="cls-1" cx="182.09" cy="28.52" rx=".89" ry="1.34"/>
    <path class="cls-1" d="M198.07 6.02h.49v.49h.1v-.49h.49v-.1h-.49v-.49h-.1v.49h-.49v.1ZM87.52 32.38h.49v.49h.1v-.49h.49v-.1h-.49v-.49h-.1v.49h-.49v.1Zm-75.58-2.69h.49v.49h.1v-.49h.49v-.1h-.49v-.49h-.1v.49h-.49v.1Zm91.18-11.57h.49v.49h.1v-.49h.49v-.1h-.49v-.49h-.1v.49h-.49v.1Zm-34.43-.54h.49v.49h.1v-.49h.49v-.1h-.49v-.49h-.1v.49h-.49v.1Zm128.84 45.73h.49v.49h.1v-.49h.49v-.1h-.49v-.49h-.1v.49h-.49v.1Zm-103.55 4.3h.49v.49h.1v-.49h.49v-.1h-.49v-.49h-.1v.49h-.49v.1Z"/>
    <ellipse id="Ellipse_45" class="cls-1" cx="95.59" cy="213.35" rx=".89" ry="1.34"/>
    <circle id="Ellipse_48" class="cls-1" cx="1852.21" cy="954.94" r="1.79"/>
    <circle id="Ellipse_49" class="cls-1" cx="1739.59" cy="981.45" r=".89"/>
    <ellipse id="Ellipse_50" class="cls-1" cx="1901.65" cy="927.28" rx=".89" ry="1.34"/>
    <path class="cls-1" d="M1719.67 952.66h.49v.49h.1v-.49h.49v-.1h-.49v-.49h-.1v.49h-.49v.1Zm87.42-21.52h.49v.49h.1v-.49h.49v-.1h-.49v-.49h-.1v.49h-.49v.1Zm-75.59-2.69h.49v.49h.1v-.49h.49v-.1h-.49v-.49h-.1v.49h-.49v.1Zm91.19-133.96h.49v.49h.1v-.49h.49v-.1h-.49v-.49h-.1v.49h-.49v.1Zm-34.43-1.3h.49v.49h.1v-.49h.49v-.1h-.49v-.49h-.1v.49h-.49v.1Zm25.28 173.19h.49v.49h.1v-.49h.49v-.1h-.49v-.49h-.1v.49h-.49v.1Z"/>
    <ellipse id="Ellipse_51" class="cls-1" cx="1793.31" cy="989.06" rx=".89" ry="1.34"/>
    <path class="cls-1" d="M1917.1 962.07h.49v.49h.1v-.49h.49v-.1h-.49v-.49h-.1v.49h-.49v.1Zm.53-174.45h.49v.49h.1v-.49h.49v-.1h-.49v-.49h-.1v.49h-.49v.1ZM.1 53.89h.49v.49h.1v-.49h.49v-.1H.69v-.49h-.1v.49H.1v.1Zm1870.12-8.39-.52.14-.14-.52-.1.03.14.52-.52.14.03.1.51-.14.14.52.1-.03-.14-.52.52-.14-.03-.1Zm30.43 158.57.52-.14.14.52c.1.37.48.58.84.49s.58-.48.49-.84l-.14-.52.52-.14c.37-.1.58-.48.49-.84s-.48-.58-.84-.49l-.52.14-.14-.52c-.1-.37-.48-.58-.84-.49s-.58.48-.49.84l.14.52-.52.14c-.37.1-.58.48-.49.84s.48.58.84.49Zm-10.17-191.95.99-.27.27.99c.19.71.91 1.12 1.62.94s1.12-.91.94-1.62l-.27-.99 1-.27c.71-.19 1.13-.92.94-1.62s-.92-1.13-1.62-.94l-.99.27-.27-.99c-.19-.71-.92-1.13-1.62-.94s-1.13.92-.94 1.62l.27.99-.99.27c-.71.19-1.12.91-.94 1.62.19.71.91 1.12 1.62.94Zm-143.29 47.03.51-.14.14.52c.1.37.48.58.84.49s.58-.48.49-.84l-.14-.52.52-.14c.37-.1.58-.48.49-.84s-.48-.58-.84-.49l-.52.14-.14-.52c-.1-.37-.48-.58-.84-.49s-.58.48-.49.84l.14.51-.52.14c-.37.1-.58.48-.49.84s.48.58.84.49Z"/>
    <ellipse id="Ellipse_57" class="cls-1" cx="174.75" cy="611.87" rx="1.79" ry="2.24"/>
    <circle id="Ellipse_58" class="cls-1" cx="86.1" cy="742.98" r="1.79"/>
    <circle id="Ellipse_59" class="cls-1" cx="179.23" cy="767.7" r=".89"/>
    <path class="cls-1" d="M1.18 601.43H.69v.49h-.1v-.49H.1v-.1h.49v-.49h.1v.49h.49v.1Zm110.55 57.07h-.49v.49h-.1v-.49h-.49v-.1h.49v-.49h.1v.49h.49v.1Zm75.58-5.82h-.49v.49h-.1v-.49h-.49v-.1h.49v-.49h.1v.49h.49v.1Zm-91.18-25.04h-.49v.49h-.1v-.49h-.49v-.1h.49v-.49h.1v.49h.49v.1Zm34.43-1.17h-.49v.49h-.1v-.49h-.49v-.1h.49v-.49h.1v.49h.49v.1Zm-128.84 99h-.49v.49h-.1v-.49H.64v-.1h.49v-.49h.1v.49h.49v.1Zm103.55 9.32h-.49v.49h-.1v-.49h-.49v-.1h.49v-.49h.1v.49h.49v.1Z"/>
    <ellipse id="Ellipse_61" class="cls-1" cx="125.5" cy="784.49" rx=".89" ry="1.34"/>
    <path class="cls-1" d="M199.15 705.09h-.49v.49h-.1v-.49h-.49v-.1h.49v-.49h.1v.49h.49v.1Z"/>
    <ellipse id="Ellipse_62" class="cls-1" cx="12.59" cy="541.99" rx="2.24" ry="1.79"/>
    <circle id="Ellipse_64" class="cls-1" cx="178.69" cy="538.02" r=".89"/>
    <path class="cls-1" d="M1.18 495.97H.69v.49h-.1v-.49H.1v-.1h.49v-.49h.1v.49h.49v.1Zm103.56 9.32h-.49v.49h-.1v-.49h-.49v-.1h.49v-.49h.1v.49h.49v.1Z"/>
    <ellipse id="Ellipse_65" class="cls-1" cx="124.96" cy="554.57" rx=".89" ry="1.34"/>
    <path class="cls-1" d="M198.61 475.59h-.49v.49h-.1v-.49h-.49v-.1h.49V475h.1v.49h.49v.1Z"/>
    <circle id="Ellipse_66" class="cls-1" cx="174.02" cy="204.47" r="2.06"/>
    <path class="cls-1" d="m48.36 283.54.52-.14.14.52.1-.03-.14-.52.52-.14-.03-.1-.51.14-.14-.52-.1.03.14.52-.52.14.03.1Zm-13.89 45.54-.52.14-.14-.52c-.1-.37-.48-.58-.84-.49s-.58.48-.49.84l.14.52-.52.14c-.37.1-.58.48-.49.84s.48.58.84.49l.52-.14.14.52c.1.37.48.58.84.49s.58-.48.49-.84l-.14-.52.52-.14c.37-.1.58-.48.49-.84s-.48-.58-.84-.49Zm162.03-48.53-.51.14-.14-.52c-.1-.37-.48-.58-.84-.49s-.58.48-.49.84l.14.52-.52.14c-.37.1-.58.48-.49.84s.48.58.84.49l.52-.14.14.52c.1.37.48.58.84.49s.58-.48.49-.84l-.14-.51.52-.14c.37-.1.58-.48.49-.84s-.48-.58-.84-.49Zm-26.59 138.53.99-.27.27.99c.19.71.91 1.12 1.62.94s1.12-.91.94-1.62l-.27-.99 1-.27c.71-.19 1.13-.92.94-1.62s-.92-1.13-1.62-.94l-.99.27-.27-.99c-.19-.71-.92-1.13-1.62-.94s-1.13.92-.94 1.62l.27.99-.99.27c-.71.19-1.12.91-.94 1.62.19.71.91 1.12 1.62.94Z"/>
    <circle id="Ellipse_69" class="cls-1" cx="86.1" cy="373.87" r="1.79"/>
    <circle id="Ellipse_70" class="cls-1" cx="179.23" cy="399.35" r=".89"/>
    <path class="cls-1" d="M1.72 357.41h-.49v.49h-.1v-.49H.64v-.1h.49v-.49h.1v.49h.49v.1Zm103.55 9.32h-.49v.49h-.1v-.49h-.49v-.1h.49v-.49h.1v.49h.49v.1Zm93.88-29.7h-.49v.49h-.1v-.49h-.49v-.1h.49v-.49h.1v.49h.49v.1ZM1882.72 723.7l-.51.14-.14-.52c-.1-.37-.48-.58-.84-.49s-.58.48-.49.84l.14.52-.52.14c-.37.1-.58.48-.49.84s.48.58.84.49l.52-.14.14.52c.1.37.48.58.84.49s.58-.48.49-.84l-.14-.51.52-.14c.37-.1.58-.48.49-.84s-.48-.58-.84-.49Zm-134.98-57.4-.52.14-.14-.52c-.1-.37-.48-.58-.84-.49s-.58.48-.49.84l.14.52-.52.14c-.37.1-.58.48-.49.84s.48.58.84.49l.52-.14.14.52c.1.37.48.58.84.49s.58-.48.49-.84l-.14-.52.52-.14c.37-.1.58-.48.49-.84s-.48-.58-.84-.49Z"/>
    <circle id="Ellipse_73" class="cls-1" cx="1917.28" cy="282.34" r=".89"/>
    <path class="cls-1" d="M1843.32 249.82h-.49v.49h-.1v-.49h-.49v-.1h.49v-.49h.1v.49h.49v.1Zm-103.55-9.32h-.49v.49h-.1v-.49h-.49v-.1h.49v-.49h.1v.49h.49v.1Zm29.16 217.19.52.14.14-.52.1.03-.14.52.52.14-.03.1-.51-.14-.14.52-.1-.03.14-.51-.52-.14.03-.1Zm-20.27-75.75-.99-.27-.27.99c-.19.71-.91 1.12-1.62.94-.71-.19-1.12-.91-.94-1.62l.27-.99-1-.27c-.71-.19-1.12-.91-.94-1.62s.91-1.12 1.62-.94l.99.27.27-1c.19-.71.92-1.13 1.62-.94s1.13.92.94 1.62l-.27.99.99.27c.71.19 1.13.92.94 1.62s-.92 1.13-1.62.94Zm16.46 153.27-.52-.14-.14.52c-.1.37-.48.58-.84.49s-.58-.48-.49-.84l.14-.52-.52-.14c-.37-.1-.58-.48-.49-.84s.48-.58.84-.49l.52.14.14-.52c.12-.36.51-.56.87-.44.33.11.53.45.46.8l-.14.52.52.14c.37.1.58.48.49.84-.1.37-.48.58-.84.49Zm151.95-75.47-.51-.14-.14.52c-.1.37-.48.58-.84.49s-.58-.48-.49-.84l.14-.52-.52-.14c-.37-.1-.58-.48-.49-.84s.48-.58.84-.49l.52.14.14-.52c.1-.37.48-.59.84-.49s.59.48.49.84l-.14.52.52.14c.37.1.58.48.49.84s-.48.58-.84.49Zm-87.47-108.48.38-.38.38.38c.27.27.7.27.97 0s.27-.7 0-.97l-.38-.38.38-.38c.27-.27.27-.7 0-.97s-.7-.27-.97 0l-.38.38-.38-.38c-.27-.27-.7-.27-.97 0s-.27.7 0 .97l.38.38-.38.38c-.27.27-.27.7 0 .97s.7.27.97 0Z"/>
    <circle id="Ellipse_78" class="cls-1" cx="1878.88" cy="400.09" r=".89"/>
    <path class="cls-1" d="m1807.3 452.28-.42.24.24.42-.08.05-.24-.42-.42.25-.05-.08.42-.25-.25-.42.09-.05.25.42.42-.25.04.09Zm-2.48-446.77.52-.14.14.52c.1.37.48.58.84.49s.58-.48.49-.84l-.14-.52.52-.14c.37-.1.58-.48.49-.84s-.48-.58-.84-.49l-.52.14-.14-.52c-.1-.37-.48-.58-.84-.49s-.58.48-.49.84l.14.52-.52.14c-.37.1-.58.48-.49.84s.48.58.84.49Z"/>
    <circle id="Ellipse_80" class="cls-1" cx="1827.28" cy="34.69" r=".89"/>
    <path class="cls-1" d="M1753.32 19.61h-.49v.49h-.1v-.49h-.49v-.1h.49v-.49h.1v.49h.49v.1Z"/>
    <circle id="Ellipse_81" class="cls-1" cx="1918.88" cy="616.94" r=".89"/>
    <circle id="Ellipse_82" class="cls-1" cx="1788.88" cy="616.94" r=".89"/>
    <ellipse id="Ellipse_84" class="cls-1" cx="451.65" cy="721.04" rx="1.79" ry="2.24"/>
    <path class="cls-1" d="M508.08 794.49h-.49v.49h-.1v-.49H507v-.1h.49v-.49h.1v.49h.49v.1ZM406.1 793.2h-.49v.49h-.1v-.49h-.49v-.1h.49v-.49h.1v.49h.49v.1Z"/>
    <ellipse id="Ellipse_88" class="cls-1" cx="400.89" cy="989.06" rx=".89" ry="1.34"/>
    <path class="cls-1" d="M264.57 787.62h-.49v.49h-.1v-.49h-.49v-.1h.49v-.49h.1v.49h.49v.1ZM441.26 45.5l.52.14.14-.52.1.03-.14.52.52.14-.03.1-.51-.14-.14.52-.1-.03.14-.51-.52-.14.03-.1Zm-44.1 158.57-.52-.14-.14.52c-.1.37-.48.58-.84.49s-.58-.48-.49-.84l.14-.52-.52-.14c-.37-.1-.58-.48-.49-.84s.48-.58.84-.49l.52.14.14-.52c.12-.36.51-.56.87-.44.33.11.53.45.46.8l-.14.52.52.14c.37.1.58.48.49.84-.1.37-.48.58-.84.49Zm13.5-191.95-.99-.27-.27.99c-.19.71-.91 1.12-1.62.94-.71-.19-1.12-.91-.94-1.62l.27-.99-1-.27c-.71-.19-1.12-.91-.94-1.62s.91-1.12 1.62-.94l.99.27.27-1c.19-.71.92-1.13 1.62-.94s1.13.92.94 1.62l-.27.99.99.27c.71.19 1.13.92.94 1.62s-.92 1.13-1.62.94Zm66.58 204.53-.51-.14-.14.52c-.1.37-.48.58-.84.49s-.58-.48-.49-.84l.14-.52-.52-.14c-.37-.1-.58-.48-.49-.84s.48-.58.84-.49l.52.14.14-.52c.1-.37.48-.59.84-.49s.59.48.49.84l-.14.52.52.14c.37.1.58.48.49.84s-.48.58-.84.49Zm11.01 483.46.51.14.14-.52c.1-.37.48-.58.84-.49s.58.48.49.84l-.14.52.52.14c.37.1.58.48.49.84s-.48.58-.84.49l-.52-.14-.14.52c-.1.37-.48.59-.84.49s-.59-.48-.49-.84l.14-.52-.52-.14c-.37-.1-.58-.48-.49-.84s.48-.58.84-.49Z"/>
    <ellipse id="Ellipse_89" class="cls-1" cx="416.47" cy="281.9" rx="2.24" ry="1.79"/>
    <circle id="Ellipse_90" class="cls-1" cx="505.53" cy="200.54" r="1.79"/>
    <circle id="Ellipse_91" class="cls-1" cx="264.93" cy="282.34" r=".89"/>
    <path class="cls-1" d="M479.33 249.82h.49v.49h.1v-.49h.49v-.1h-.49v-.49h-.1v.49h-.49v.1Zm-23.21-9.32h.49v.49h.1v-.49h.49v-.1h-.49v-.49h-.1v.49h-.49v.1Zm24.06 304.88.51-.14.14.52c.1.37.48.58.84.49s.58-.48.49-.84l-.14-.52.52-.14c.37-.1.58-.48.49-.84s-.48-.58-.84-.49l-.52.14-.14-.52c-.1-.37-.48-.58-.84-.49s-.58.48-.49.84l.14.51-.52.14c-.37.1-.58.48-.49.84s.48.58.84.49Zm-54.16-87.69-.52.14-.14-.52-.1.03.14.52-.52.14.03.1.51-.14.14.52.1-.03-.14-.52.52-.14-.03-.1Zm3.95 77.52.52-.14.14.52c.1.37.48.58.84.49s.58-.48.49-.84l-.14-.52.52-.14c.37-.1.58-.48.49-.84s-.48-.58-.84-.49l-.52.14-.14-.52c-.1-.37-.48-.58-.84-.49s-.58.48-.49.84l.14.52-.52.14c-.37.1-.58.48-.49.84s.48.58.84.49Zm-164.83-75.47.51-.14.14.52c.1.37.48.58.84.49s.58-.48.49-.84l-.14-.52.52-.14c.37-.1.58-.48.49-.84s-.48-.58-.84-.49l-.52.14-.14-.52c-.1-.37-.48-.58-.84-.49s-.58.48-.49.84l.14.51-.52.14c-.37.1-.58.48-.49.84s.48.58.84.49Zm211.21-92.1-.38-.38-.38.38c-.27.27-.7.27-.97 0s-.27-.7 0-.97l.38-.38-.38-.38c-.27-.27-.27-.7 0-.97s.7-.27.97 0l.38.38.38-.38c.28-.25.72-.23.97.05.24.26.24.66 0 .92l-.38.38.38.38c.27.27.27.7 0 .97s-.7.27-.97 0Z"/>
    <circle id="Ellipse_92" class="cls-1" cx="428.66" cy="400.09" r=".89"/>
    <path class="cls-1" d="m386.5 452.28.42.24-.25.42.08.05.25-.42.42.25.05-.09-.42-.25.25-.42-.09-.05-.25.43-.42-.25-.04.09Zm2.47-446.76-.52-.14-.14.52c-.1.37-.48.58-.84.49s-.58-.48-.49-.84l.14-.52-.52-.14c-.37-.1-.58-.48-.49-.84s.48-.58.84-.49l.52.14.14-.52c.12-.36.51-.56.87-.44.33.11.53.45.46.8l-.14.52.52.14c.37.1.58.48.49.84-.1.37-.48.58-.84.49Z"/>
    <circle id="Ellipse_93" class="cls-1" cx="501.74" cy="34.69" r=".89"/>
    <path class="cls-1" d="M442.14 19.61h.49v.49h.1v-.49h.49v-.1h-.49v-.49h-.1v.49h-.49v.1Z"/>
    <circle id="Ellipse_94" class="cls-1" cx="263.33" cy="616.94" r=".89"/>
    <circle id="Ellipse_95" class="cls-1" cx="405.46" cy="616.94" r=".89"/>
    <circle id="Ellipse_96" class="cls-1" cx="522.67" cy="2.47" r="2.06"/>
    <path class="cls-1" d="m586.24 4.19.52.12.12-.52c.09-.37.45-.6.83-.52s.6.45.52.83l-.12.52.52.12c.37.09.6.45.52.83s-.45.6-.83.52l-.52-.12-.12.52c-.09.37-.46.6-.83.52s-.6-.46-.52-.83l.12-.52-.52-.12c-.37-.09-.6-.45-.52-.83s.45-.6.83-.52Z"/>
    <circle id="Ellipse_98" class="cls-1" cx="541.19" cy="785.28" r=".89"/>
    <path class="cls-1" d="m617.95 792.59.49-.02-.02-.49h.1l.02.49.49-.02v.1l-.49.02.02.49h-.1l-.02-.49-.49.02v-.1Z"/>
    <ellipse id="Ellipse_99" class="cls-1" cx="596.27" cy="765.01" rx=".89" ry="1.34" transform="rotate(-2.01 595.317 763.71)"/>
    <path class="cls-1" d="m510.93 46.16.52.12.12-.52c.09-.37.45-.6.83-.52s.6.45.52.83l-.12.52.52.12c.37.09.6.45.52.83s-.45.6-.83.52l-.52-.12-.12.52c-.09.37-.46.6-.83.52s-.6-.46-.52-.83l.12-.52-.52-.12c-.37-.09-.6-.45-.52-.83s.45-.6.83-.52Z"/>
    <circle id="Ellipse_101" class="cls-1" cx="600.11" cy="228.86" r="1.79"/>
    <path class="cls-1" d="m514.95 376.87-.49.02-.02-.49h-.1l.02.49-.49.02v.1l.49-.02.02.49h.1l-.02-.5.49-.02v-.1Zm112.95-65.39-.49.02-.02-.49h-.1l.02.49-.49.02v.1l.49-.02.02.49h.1l-.02-.5.49-.02v-.1Zm-15.56 32.02-.49.02-.02-.49h-.1l.02.49-.49.02v.1l.49-.02.02.49h.1l-.02-.5.49-.02v-.1Zm-98.89-90.64-.49.02-.02-.49h-.1l.02.49-.49.02v.1l.49-.02.02.49h.1l-.02-.5.49-.02v-.1Zm106.53-17.14-.49.02-.02-.49h-.1l.02.49-.49.02v.1l.49-.02.02.49h.1l-.02-.5.49-.02v-.1ZM516.71 482.26l-.49.02-.02-.49h-.1l.02.49-.49.02v.1l.49-.02.02.49h.1l-.02-.5.49-.02v-.1Zm106.54-17.13-.49.02-.02-.49h-.1l.02.49-.49.02v.1l.49-.02.02.49h.1l-.02-.5.49-.02v-.1Zm-54.37 225.82.52.12.12-.52.1.02-.12.52.52.12-.02.1-.52-.12-.12.52-.1-.02.12-.52-.53-.12.02-.1Zm-15.13-44.48-.52-.12-.12.52c-.09.37-.45.6-.83.52s-.6-.45-.52-.83l.12-.52-.52-.12c-.37-.09-.6-.45-.52-.83s.45-.6.83-.52l.52.12.12-.52c.06-.37.42-.63.8-.56.37.06.63.42.56.8 0 .02 0 .05-.02.07l-.12.52.52.12c.37.09.6.46.52.83-.09.37-.45.6-.82.52Zm-34.19-25.76-.49.02-.02-.49h-.1l.02.49-.49.02v.1l.49-.02.02.49h.1l-.02-.5.49-.02v-.1Zm106.54-17.14-.49.02-.02-.49h-.1l.02.49-.49.02v.1l.49-.02.02.49h.1l-.02-.5.49-.02v-.1ZM1656.23 4.19l.52.12.12-.52c.09-.37.45-.6.83-.52s.6.45.52.83l-.12.52.52.12c.37.09.6.45.52.83s-.45.6-.83.52l-.52-.12-.12.52c-.09.37-.46.6-.83.52s-.6-.46-.52-.83l.12-.52-.52-.12c-.37-.09-.6-.45-.52-.83s.45-.6.83-.52Z"/>
    <ellipse id="Ellipse_106" class="cls-1" cx="1495.46" cy="975.44" rx="1.79" ry="2.24" transform="rotate(-2.01 1492.87 973.901)"/>
    <circle id="Ellipse_107" class="cls-1" cx="1485.35" cy="785.28" r=".89"/>
    <path class="cls-1" d="m1681.76 951.48.49-.02-.02-.49h.1l.02.49.49-.02v.1l-.49.02.02.49h-.1l-.02-.49-.49.02v-.1Zm-205.08 5.33.49-.02-.02-.49h.1l.02.49.49-.02v.1l-.49.02.02.49h-.1l-.02-.49-.49.02v-.1Zm221.17 8.38.49-.02-.02-.49h.1l.02.49.49-.02v.1l-.49.02.02.49h-.1l-.02-.49-.49.02v-.1Zm-34.39 1.73.49-.02-.02-.49h.1l.02.49.49-.02v.1l-.49.02.02.49h-.1l-.02-.49-.49.02v-.1Zm23.52-174.33.49-.02-.02-.49h.1l.02.49.49-.02v.1l-.49.02.02.49h-.1l-.02-.49-.49.02v-.1Z"/>
    <ellipse id="Ellipse_108" class="cls-1" cx="1665.97" cy="765.01" rx=".89" ry="1.34" transform="rotate(-2.01 1663.063 763.623)"/>
    <path class="cls-1" d="m1458.75 933.03.49-.02-.02-.49h.1l.02.49.49-.02v.1l-.49.02.02.49h-.1l-.02-.49-.49.02v-.1Zm-14.24-886.87.52.12.12-.52c.09-.37.45-.6.83-.52s.6.45.52.83l-.12.52.52.12c.37.09.6.45.52.83s-.45.6-.83.52l-.52-.12-.12.52c-.09.37-.46.6-.83.52s-.6-.46-.52-.83l.12-.52-.52-.12c-.37-.09-.6-.45-.52-.83s.45-.6.83-.52Z"/>
    <circle id="Ellipse_110" class="cls-1" cx="1669.71" cy="228.86" r="1.79"/>
    <path class="cls-1" d="m1449.06 376.87-.49.02-.02-.49h-.1l.02.49-.49.02v.1l.49-.02.02.49h.1l-.02-.5.49-.02v-.1Zm247.61-65.39-.49.02-.02-.49h-.1l.02.49-.49.02v.1l.49-.02.02.49h.1l-.02-.5.49-.02v-.1Zm-15.09 32.02-.49.02-.02-.49h-.1l.02.49-.49.02v.1l.49-.02.02.49h.1l-.02-.5.49-.02v-.1Zm-234.59-90.64-.49.02-.02-.49h-.1l.02.49-.49.02v.1l.49-.02.02.49h.1l-.02-.5.49-.02v-.1Zm242-17.14-.49.02-.02-.49h-.1l.02.49-.49.02v.1l.49-.02.02.49h.1l-.02-.5.49-.02v-.1Z"/>
    <circle id="Ellipse_112" class="cls-1" cx="1653.17" cy="395.26" r="1.79"/>
    <path class="cls-1" d="m1451.46 482.26-.49.02-.02-.49h-.1l.02.49-.49.02v.1l.49-.02.02.49h.1l-.02-.5.49-.02v-.1Zm240.69-17.13-.49.02-.02-.49h-.1l.02.49-.49.02v.1l.49-.02.02.49h.1l-.02-.5.49-.02v-.1ZM1523.5 690.95l.52.12.12-.52.1.02-.12.52.52.12-.02.1-.52-.12-.12.52-.1-.02.12-.52-.53-.12.02-.1Zm-20.95-44.48-.52-.12-.12.52c-.09.37-.45.6-.83.52s-.6-.45-.52-.83l.12-.52-.52-.12c-.37-.09-.6-.45-.52-.83s.45-.6.83-.52l.52.12.12-.52c.06-.37.42-.63.8-.56.37.06.63.42.56.8 0 .02 0 .05-.02.07l-.12.52.52.12c.37.09.6.46.52.83-.09.37-.45.6-.82.52Zm-47.17-25.76-.49.02-.02-.49h-.1l.02.49-.49.02v.1l.49-.02.02.49h.1l-.02-.5.49-.02v-.1Zm239.54-17.14-.49.02-.02-.49h-.1l.02.49-.49.02v.1l.49-.02.02.49h.1l-.02-.5.49-.02v-.1Z"/>
    <ellipse id="Ellipse_114" class="cls-1" cx="1503.22" cy="7.52" rx="2.24" ry="1.79"/>
    <circle id="Ellipse_115" class="cls-1" cx="1448.08" cy="35.82" r="1.79"/>
    <ellipse id="Ellipse_116" class="cls-1" cx="1499.04" cy="63.48" rx=".89" ry="1.34"/>
    <path class="cls-1" d="M1514.97 28.69h.49v-.49h.1v.49h.49v.1h-.49v.49h-.1v-.49h-.49v-.1Zm.56 170.08h.49v-.49h.1v.49h.49v.1h-.49v.49h-.1v-.49h-.49v-.1Zm-48.91 746.5-.52-.14-.14.52-.1-.03.14-.52-.52-.14.03-.1.51.14.14-.52.1.03-.14.51.52.14-.03.1Zm31.45-163.82.52.14.14-.52c.1-.37.48-.58.84-.49s.58.48.49.84l-.14.52.52.14c.37.1.58.48.49.84s-.48.58-.84.49l-.52-.14-.14.52c-.12.36-.51.56-.87.44a.696.696 0 0 1-.46-.8l.14-.52-.52-.14a.696.696 0 0 1-.49-.84c.1-.37.48-.58.84-.49Zm-27.75 193.67.99.27.27-.99c.19-.71.91-1.12 1.62-.94.71.19 1.12.91.94 1.62l-.27.99 1 .27c.71.19 1.12.91.94 1.62s-.91 1.12-1.62.94l-.99-.27-.27 1c-.19.71-.92 1.13-1.62.94s-1.13-.92-.94-1.62l.27-.99-.99-.27c-.71-.19-1.13-.92-.94-1.62s.92-1.13 1.62-.94Zm9.2-712.47-.51-.14-.14.52c-.1.37-.48.58-.84.49s-.58-.48-.49-.84l.14-.52-.52-.14c-.37-.1-.58-.48-.49-.84s.48-.58.84-.49l.52.14.14-.52c.1-.37.48-.59.84-.49s.59.48.49.84l-.14.52.52.14c.37.1.58.48.49.84s-.48.58-.84.49Z"/>
    <circle id="Ellipse_118" class="cls-1" cx="1475.57" cy="586.28" r=".89"/>
    <circle id="Ellipse_119" class="cls-1" cx="1516.81" cy="369.44" r=".89"/>
    <ellipse id="Ellipse_121" class="cls-1" cx="775.2" cy="2.3" rx="2.24" ry="1.79" transform="rotate(-87.99 775.228 2.279)"/>
    <circle id="Ellipse_122" class="cls-1" cx="768" cy="279.16" r=".89"/>
    <path class="cls-1" d="m761.6 20.93.49.02-.02.49h.1l.02-.49.49.02v-.1l-.49-.02.02-.49h-.1l-.02.49-.49-.02v.1Zm-13.07 23.78.49.02-.02.49h.1l.02-.49.49.02v-.1l-.49-.02.02-.49h-.1l-.02.49-.49-.02v.1Zm-6.77 536.6-.49-.02-.02.49h-.1l.02-.49-.49-.02v-.1l.49.02.02-.49h.1l-.02.49.49.02v.1Zm-1.51 124.01-.49-.02-.02.49h-.1l.02-.49-.49-.02v-.1l.49.02.02-.49h.1l-.02.49.49.02v.1Z"/>
    <ellipse id="Ellipse_124" class="cls-1" cx="816.37" cy="563.31" rx="1.79" ry="2.24" transform="rotate(-87.99 816.414 563.306)"/>
    <path class="cls-1" d="m743.51 475.92-.49-.02-.02.49h-.1l.02-.49-.49-.02v-.1l.49.02.02-.49h.1l-.02.49.49.02v.1Zm87.02-269.12-.52.12-.12-.52c-.09-.37-.45-.6-.83-.52s-.6.45-.52.83l.12.52-.52.12c-.37.09-.6.45-.52.83s.45.6.83.52l.52-.12.12.52c.09.37.45.6.83.52s.6-.45.52-.83l-.12-.52.52-.12c.37-.09.6-.45.52-.83s-.45-.6-.83-.52Zm-84.16 130.67-.49-.02-.02.49h-.1l.02-.49-.49-.02v-.1l.49.02.02-.49h.1l-.02.49.49.02v.1Zm-65.89 421.95h.49v.49h.1v-.49h.49v-.1h-.49v-.49h-.1v.49h-.49v.1Z"/>
    <circle id="Ellipse_125" class="cls-1" cx="680.09" cy="254.11" r=".89"/>
    <circle id="Ellipse_126" class="cls-1" cx="681.74" cy="588.68" r=".89"/>
    <circle id="Ellipse_127" class="cls-1" cx="1360.45" cy="16.5" r="2.06"/>
    <circle id="Ellipse_129" class="cls-1" cx="1329.9" cy="784.06" r=".89"/>
    <path class="cls-1" d="M1380.09 977.5h.49v-.49h.1v.49h.49v.1h-.49v.49h-.1v-.49h-.49v-.1Z"/>
    <ellipse id="Ellipse_130" class="cls-1" cx="1385.29" cy="788.21" rx=".89" ry="1.34"/>
    <path class="cls-1" d="m1310.87 54.16.51.14.14-.52c.1-.37.48-.58.84-.49s.58.48.49.84l-.14.52.52.14c.37.1.58.48.49.84s-.48.58-.84.49l-.52-.14-.14.52c-.1.37-.48.59-.84.49s-.59-.48-.49-.84l.14-.52-.52-.14c-.37-.1-.58-.48-.49-.84s.48-.58.84-.49Zm20.93 278.3h-.49v-.49h-.1v.49h-.49v.1h.49v.49h.1v-.49h.49v-.1Zm-10.79-102.2h-.49v-.49h-.1v.49h-.49v.1h.49v.49h.1v-.49h.49v-.1Zm-10.55 269.5h-.49v-.49h-.1v.49h-.49v.1h.49v.49h.1v-.49h.49v-.1Zm48.67 212.43.52.14.14-.52.1.03-.14.52.52.14-.03.1-.51-.14-.14.52-.1-.03.14-.51-.52-.14.03-.1Zm-14.34-45.53-.52-.14-.14.52c-.1.37-.48.58-.84.49s-.58-.48-.49-.84l.14-.52-.52-.14c-.37-.1-.58-.48-.49-.84s.48-.58.84-.49l.52.14.14-.52a.684.684 0 1 1 1.34.28c0 .02-.01.05-.02.07l-.14.52.52.14c.37.1.58.48.49.84-.1.37-.48.58-.84.49Zm-33.78-28.34h-.49v-.49h-.1v.49h-.49v.1h.49v.49h.1v-.49h.49v-.1Zm-14.59-168.33-.52-.14-.14.52c-.1.37-.48.58-.84.49s-.58-.48-.49-.84l.14-.52-.52-.14c-.37-.1-.58-.48-.49-.84s.48-.58.84-.49l.52.14.14-.52c.12-.36.51-.56.87-.44.33.11.53.45.46.8l-.14.52.52.14c.37.1.58.48.49.84-.1.37-.48.58-.84.49Zm156.65-75.47-.51-.14-.14.52c-.1.37-.48.58-.84.49s-.58-.48-.49-.84l.14-.52-.52-.14c-.37-.1-.58-.48-.49-.84s.48-.58.84-.49l.52.14.14-.52c.1-.37.48-.59.84-.49s.59.48.49.84l-.14.52.52.14c.37.1.58.48.49.84s-.48.58-.84.49Zm-59.98-137.85.38-.38.38.38c.27.27.7.27.97 0s.27-.7 0-.97l-.38-.38.38-.38c.27-.27.27-.7 0-.97s-.7-.27-.97 0l-.38.38-.38-.38c-.27-.27-.7-.27-.97 0s-.27.7 0 .97l.38.38-.38.38c-.27.27-.27.7 0 .97s.7.27.97 0Z"/>
    <circle id="Ellipse_132" class="cls-1" cx="1413.71" cy="335.04" r=".89"/>
    <path class="cls-1" d="m1349.89 347.3-.42.24.24.42-.08.05-.24-.42-.42.25-.05-.08.42-.25-.25-.42.09-.05.25.42.42-.25.04.09Zm77.47 125.99.99.27.27-.99c.19-.71.91-1.12 1.62-.94.71.19 1.12.91.94 1.62l-.27.99 1 .27c.71.19 1.12.91.94 1.62s-.91 1.12-1.62.94l-.99-.27-.27 1c-.19.71-.92 1.13-1.62.94s-1.13-.92-.94-1.62l.27-.99-.99-.27c-.71-.19-1.13-.92-.94-1.62s.92-1.13 1.62-.94Z"/>
    <ellipse id="Ellipse_133" class="cls-1" cx="946.52" cy="206.79" rx="1.79" ry="2.24"/>
    <path class="cls-1" d="M991.65 67.75h-.49v-.49h-.1v.49h-.49v.1h.49v.49h.1v-.49h.49v-.1Zm-90.12 21.52h-.49v-.49h-.1v.49h-.49v.1h.49v.49h.1v-.49h.49v-.1Zm77.92 2.69h-.49v-.49h-.1v.49h-.49v.1h.49v.49h.1v-.49h.49v-.1Zm-58.51 12.1h-.49v-.49h-.1v.49h-.49v.1h.49v.49h.1v-.49h.49v-.1Z"/>
    <ellipse id="Ellipse_134" class="cls-1" cx="915.75" cy="31.34" rx=".89" ry="1.34"/>
    <path class="cls-1" d="m920.87 527.93-.52-.14-.14.52-.1-.03.14-.52-.52-.14.03-.1.51.14.14-.52.1.03-.14.51.52.14-.03.1Zm3.97-77.56.52.14.14-.52c.1-.37.48-.58.84-.49s.58.48.49.84l-.14.52.52.14c.37.1.58.48.49.84s-.48.58-.84.49l-.52-.14-.14.52c-.12.36-.51.56-.87.44a.696.696 0 0 1-.46-.8l.14-.52-.52-.14a.696.696 0 0 1-.49-.84c.1-.37.48-.58.84-.49Zm-43.49 82.97.42-.24-.24-.42.08-.05.24.42.42-.25.05.08-.42.25.25.42-.09.05-.25-.42-.42.25-.04-.09Z"/>
    <circle id="Ellipse_136" class="cls-1" cx="900.32" cy="368.67" r=".89"/>
    <ellipse id="Ellipse_138" class="cls-1" cx="1063.25" cy="44.97" rx="2.24" ry="1.79" transform="rotate(-87.99 1063.288 44.942)"/>
    <circle id="Ellipse_139" class="cls-1" cx="1036.04" cy="200.33" r=".89"/>
    <path class="cls-1" d="m1049.64 63.6.49.02-.02.49h.1l.02-.49.49.02v-.1l-.49-.02.02-.49h-.1l-.02.49-.49-.02v.1Zm-13.07 23.78.49.02-.02.49h.1l.02-.49.49.02v-.1l-.49-.02.02-.49h-.1l-.02.49-.49-.02v.1Zm-26.77 521.37-.49-.02-.02.49h-.1l.02-.49-.49-.02v-.1l.49.02.02-.49h.1l-.02.49.49.02v.1Z"/>
    <ellipse id="Ellipse_140" class="cls-1" cx="1022.57" cy="550.26" rx="1.79" ry="2.24" transform="rotate(-87.99 1022.619 550.25)"/>
    <path class="cls-1" d="m1011.55 503.36-.49-.02-.02.49h-.1l.02-.49-.49-.02v-.1l.49.02.02-.49h.1l-.02.49.49.02v.1Zm2.86-138.45-.49-.02-.02.49h-.1l.02-.49-.49-.02v-.1l.49.02.02-.49h.1l-.02.49.49.02v.1Zm55.76 90.85h.49v-.49h.1v.49h.49v.1h-.49v.49h-.1v-.49h-.49v-.1Zm-.56-124.04h.49v-.49h.1v.49h.49v.1h-.49v.49h-.1v-.49h-.49v-.1Zm-1.1-133.09-.51-.14-.14.52c-.1.37-.48.58-.84.49s-.58-.48-.49-.84l.14-.52-.52-.14c-.37-.1-.58-.48-.49-.84s.48-.58.84-.49l.52.14.14-.52c.1-.37.48-.59.84-.49s.59.48.49.84l-.14.52.52.14c.37.1.58.48.49.84s-.48.58-.84.49Zm22.74-107.83h-.49v-.49h-.1v.49h-.49v.1h.49v.49h.1v-.49h.49v-.1Zm106.37 239.14.52-.14.14.52.1-.03-.14-.52.52-.14-.03-.1-.51.14-.14-.52-.1.03.14.52-.52.14.03.1Zm-53.79-59.13-.52.14-.14-.52c-.1-.37-.48-.58-.84-.49s-.58.48-.49.84l.14.52-.52.14c-.37.1-.58.48-.49.84s.48.58.84.49l.52-.14.14.52c.1.37.48.58.84.49s.58-.48.49-.84l-.14-.52.52-.14c.37-.1.58-.48.49-.84s-.48-.58-.84-.49Zm43.47 218.93-.99.27-.27-.99c-.19-.71-.91-1.12-1.62-.94s-1.12.91-.94 1.62l.27.99-1 .27c-.71.19-1.13.92-.94 1.62s.92 1.13 1.62.94l.99-.27.27.99c.19.71.92 1.13 1.62.94s1.13-.92.94-1.62l-.27-.99.99-.27c.71-.19 1.12-.91.94-1.62-.19-.71-.91-1.12-1.62-.94Z"/>
    <ellipse id="Ellipse_142" class="cls-1" cx="1292.5" cy="157.92" rx="2.24" ry="1.79"/>
    <circle id="Ellipse_143" class="cls-1" cx="1244.76" cy="239.28" r="1.79"/>
    <circle id="Ellipse_144" class="cls-1" cx="1139.08" cy="198.53" r=".89"/>
    <path class="cls-1" d="M1225.34 191.47h.49v-.49h.1v.49h.49v.1h-.49v.49h-.1v-.49h-.49v-.1ZM1292.01 5.2l-.52-.14-.14.52-.1-.03.14-.52-.52-.14.03-.1.51.14.14-.52.1.03-.14.51.52.14-.03.1Zm-152.67-1.65.51.14.14-.52c.1-.37.48-.58.84-.49s.58.48.49.84l-.14.52.52.14c.37.1.58.48.49.84s-.48.58-.84.49l-.52-.14-.14.52c-.1.37-.48.59-.84.49s-.59-.48-.49-.84l.14-.52-.52-.14c-.37-.1-.58-.48-.49-.84s.48-.58.84-.49Zm74.42 42.12-.38.38-.38-.38c-.27-.27-.7-.27-.97 0s-.27.7 0 .97l.38.38-.38.38c-.27.27-.27.7 0 .97s.7.27.97 0l.38-.38.38.38c.27.27.7.27.97 0s.27-.7 0-.97l-.38-.38.38-.38c.27-.27.27-.7 0-.97s-.7-.27-.97 0Z"/>
    <circle id="Ellipse_145" class="cls-1" cx="1178.67" cy="31.63" r=".89"/>
    <path class="cls-1" d="m1252.48 7.71.42-.24-.24-.42.08-.05.24.42.42-.25.05.08-.42.25.25.42-.09.05-.25-.42-.42.25-.04-.09Zm2.52 450.06-.52.14-.14-.52c-.1-.37-.48-.58-.84-.49s-.58.48-.49.84l.14.52-.52.14c-.37.1-.58.48-.49.84s.48.58.84.49l.52-.14.14.52c.1.37.48.58.84.49s.58-.48.49-.84l-.14-.52.52-.14c.37-.1.58-.48.49-.84s-.48-.58-.84-.49Z"/>
    <circle id="Ellipse_146" class="cls-1" cx="1241.87" cy="353.54" r=".89"/>
    <path class="cls-1" d="m1100.77 568.86.36.39-.39.36c-.28.26-.29.69-.03.97s.69.29.97.03l.39-.36.37.39c.26.28.69.29.97.03s.29-.69.03-.97l-.36-.39.39-.36c.28-.26.29-.69.03-.97s-.69-.29-.97-.03l-.39.36-.36-.39c-.26-.28-.69-.29-.97-.03s-.29.69-.03.97Zm59.07-66.94-.23-.43-.43.23-.05-.08.43-.23-.23-.43.08-.05.23.43.43-.23.05.09-.43.23.23.43-.09.04Zm5.49 488.39.25.42.42-.25.05.09-.42.25.25.42-.09.05-.25-.43-.42.25-.05-.08.43-.25-.25-.42.08-.05Z"/>
    <ellipse id="Ellipse_57-2" class="cls-1" cx="968.65" cy="863.36" rx="1.79" ry="2.24"/>
    <path class="cls-1" d="M795.08 852.91h-.49v.49h-.1v-.49H794v-.1h.49v-.49h.1v.49h.49v.1Zm110.56 57.08h-.49v.49h-.1v-.49h-.49v-.1h.49v-.49h.1v.49h.49v.1Zm75.58-5.83h-.49v.49h-.1v-.49h-.49v-.1h.49v-.49h.1v.49h.49v.1Zm-91.19-25.04h-.49v.49h-.1v-.49h-.49v-.1h.49v-.49h.1v.49h.49v.1Zm34.43-1.16h-.49v.49h-.1v-.49h-.49v-.1h.49v-.49h.1v.49h.49v.1Zm68.59 78.61h-.49v.49h-.1v-.49h-.49v-.1h.49v-.49h.1v.49h.49v.1Z"/>
    <ellipse id="Ellipse_62-2" class="cls-1" cx="806.5" cy="793.48" rx="2.24" ry="1.79"/>
    <circle id="Ellipse_64-2" class="cls-1" cx="972.59" cy="789.51" r=".89"/>
    <path class="cls-1" d="M795.08 747.46h-.49v.49h-.1v-.49H794v-.1h.49v-.49h.1v.49h.49v.1Zm103.56 9.32h-.49v.49h-.1v-.49h-.49v-.1h.49v-.49h.1v.49h.49v.1Z"/>
    <ellipse id="Ellipse_65-2" class="cls-1" cx="918.87" cy="806.06" rx=".89" ry="1.34"/>
    <path class="cls-1" d="M992.51 727.08h-.49v.49h-.1v-.49h-.49v-.1h.49v-.49h.1v.49h.49v.1Zm-28.69-56.52.99-.27.27.99c.19.71.91 1.12 1.62.94s1.12-.91.94-1.62l-.27-.99 1-.27c.71-.19 1.13-.92.94-1.62s-.92-1.13-1.62-.94l-.99.27-.27-.99c-.19-.71-.92-1.13-1.62-.94s-1.13.92-.94 1.62l.27.99-.99.27c-.71.19-1.12.91-.94 1.62.19.71.91 1.12 1.62.94Z"/>
    <circle id="Ellipse_70-2" class="cls-1" cx="973.13" cy="650.83" r=".89"/>
    <path class="cls-1" d="m1059.04 711.23.51-.14.14.52c.1.37.48.58.84.49s.58-.48.49-.84l-.14-.52.52-.14c.37-.1.58-.48.49-.84s-.48-.58-.84-.49l-.52.14-.14-.52c-.1-.37-.48-.58-.84-.49s-.58.48-.49.84l.14.51-.52.14c-.37.1-.58.48-.49.84s.48.58.84.49Z"/>
    <circle id="Ellipse_94-2" class="cls-1" cx="1057.23" cy="868.42" r=".89"/>
    <circle id="Ellipse_73-2" class="cls-1" cx="741.09" cy="1062.44" r=".89"/>
    <path class="cls-1" d="M773.61 988.49V988h-.49v-.1h.49v-.49h.1v.49h.49v.1h-.49v.49h-.1Zm9.32-103.56v-.49h-.49v-.1h.49v-.49h.1v.49h.49v.1h-.49v.49h-.1Zm-217.19 29.16-.14.52.52.14-.03.1-.52-.14-.14.52-.1-.03.14-.51-.52-.14.03-.1.51.14.14-.52.1.03Zm75.75-20.27.27-.99-.99-.27c-.71-.19-1.12-.91-.94-1.62.19-.71.91-1.12 1.62-.94l.99.27.27-1c.19-.71.91-1.12 1.62-.94s1.12.91.94 1.62l-.27.99 1 .27c.71.19 1.13.92.94 1.62s-.92 1.13-1.62.94l-.99-.27-.27.99c-.19.71-.92 1.13-1.62.94s-1.13-.92-.94-1.62Zm-153.27 16.46.14-.52-.52-.14c-.37-.1-.58-.48-.49-.84s.48-.58.84-.49l.52.14.14-.52c.1-.37.48-.58.84-.49s.58.48.49.84l-.14.52.52.14c.36.12.56.51.44.87-.11.33-.45.53-.8.46l-.52-.14-.14.52c-.1.37-.48.58-.84.49a.696.696 0 0 1-.49-.84Zm75.47 151.95.14-.51-.52-.14c-.37-.1-.58-.48-.49-.84s.48-.58.84-.49l.52.14.14-.52c.1-.37.48-.58.84-.49s.58.48.49.84l-.14.52.52.14c.37.1.59.48.49.84s-.48.59-.84.49l-.52-.14-.14.52c-.1.37-.48.58-.84.49s-.58-.48-.49-.84Zm108.48-87.46.38.38-.38.38c-.27.27-.27.7 0 .97s.7.27.97 0l.38-.38.38.38c.27.27.7.27.97 0s.27-.7 0-.97l-.38-.38.38-.38c.27-.27.27-.7 0-.97s-.7-.27-.97 0l-.38.38-.38-.38c-.27-.27-.7-.27-.97 0s-.27.7 0 .97Z"/>
    <circle id="Ellipse_78-2" class="cls-1" cx="623.34" cy="1024.04" r=".89"/>
    <path class="cls-1" d="m571.15 952.46-.24-.42-.42.24-.05-.08.42-.24-.25-.42.08-.05.25.42.42-.25.05.09-.42.25.25.42-.09.04Zm140.8-110.63-.02-.49.49-.02v-.1l-.49.02-.02-.49h-.1l.02.49-.49.02v.1l.5-.02.02.49h.1Zm-32.02-15.09-.02-.49.49-.02v-.1l-.49.02-.02-.49h-.1l.02.49-.49.02v.1l.5-.02.02.49h.1Zm107.78 7.41-.02-.49.49-.02v-.1l-.49.02-.02-.49h-.1l.02.49-.49.02v.1l.5-.02.02.49h.1Zm-229.41 3.16-.02-.49.49-.02v-.1l-.49.02-.02-.49h-.1l.02.49-.49.02v.1l.5-.02.02.49h.1Z"/>
    <circle id="Ellipse_43-2" class="cls-1" cx="565.89" cy="71.91" r=".89"/>
    <ellipse id="Ellipse_45-2" class="cls-1" cx="641.46" cy="73.41" rx=".89" ry="1.34"/>
    <circle id="Ellipse_66-2" class="cls-1" cx="719.88" cy="64.52" r="2.06"/>
    <path class="cls-1" d="m594.23 143.59.52-.14.14.52.1-.03-.14-.52.52-.14-.03-.1-.51.14-.14-.52-.1.03.14.52-.52.14.03.1Zm-13.89 45.54-.52.14-.14-.52c-.1-.37-.48-.58-.84-.49s-.58.48-.49.84l.14.52-.52.14c-.37.1-.58.48-.49.84s.48.58.84.49l.52-.14.14.52c.1.37.48.58.84.49s.58-.48.49-.84l-.14-.52.52-.14c.37-.1.58-.48.49-.84s-.48-.58-.84-.49Zm162.03-48.53-.51.14-.14-.52c-.1-.37-.48-.58-.84-.49s-.58.48-.49.84l.14.52-.52.14c-.37.1-.58.48-.49.84s.48.58.84.49l.52-.14.14.52c.1.37.48.58.84.49s.58-.48.49-.84l-.14-.51.52-.14c.37-.1.58-.48.49-.84s-.48-.58-.84-.49Zm-194.79 76.86h-.49v.49h-.1v-.49h-.49v-.1h.49v-.49h.1v.49h.49v.1Zm197.43-20.38h-.49v.49h-.1v-.49h-.49v-.1h.49v-.49h.1v.49h.49v.1Z"/>
    <circle id="Ellipse_91-2" class="cls-1" cx="810.79" cy="142.39" r=".89"/>
    <circle id="Ellipse_43-3" class="cls-1" cx="1774.4" cy="201.92" r=".89"/>
    <ellipse id="Ellipse_45-3" class="cls-1" cx="1698.84" cy="200.43" rx=".89" ry="1.34"/>
    <circle id="Ellipse_66-3" class="cls-1" cx="1620.41" cy="209.31" r="2.06"/>
    <path class="cls-1" d="m1746.06 130.24-.52.14-.14-.52-.1.03.14.52-.52.14.03.1.51-.14.14.52.1-.03-.14-.52.52-.14-.03-.1Zm13.89-45.54.52-.14.14.52c.1.37.48.58.84.49s.58-.48.49-.84l-.14-.52.52-.14c.37-.1.58-.48.49-.84s-.48-.58-.84-.49l-.52.14-.14-.52c-.1-.37-.48-.58-.84-.49s-.58.48-.49.84l.14.52-.52.14c-.37.1-.58.48-.49.84s.48.58.84.49Zm-162.03 48.53.51-.14.14.52c.1.37.48.58.84.49s.58-.48.49-.84l-.14-.52.52-.14c.37-.1.58-.48.49-.84s-.48-.58-.84-.49l-.52.14-.14-.52c-.1-.37-.48-.58-.84-.49s-.58.48-.49.84l.14.51-.52.14c-.37.1-.58.48-.49.84s.48.58.84.49Zm194.79-76.86h.49v-.49h.1v.49h.49v.1h-.49v.49h-.1v-.49h-.49v-.1Zm-197.43 20.38h.49v-.49h.1v.49h.49v.1h-.49v.49h-.1v-.49h-.49v-.1Z"/>
    <circle id="Ellipse_91-3" class="cls-1" cx="1529.5" cy="131.44" r=".89"/>
    <circle id="Ellipse_43-4" class="cls-1" cx="208.25" cy="808.78" r=".89"/>
    <ellipse id="Ellipse_45-4" class="cls-1" cx="206.75" cy="884.35" rx="1.34" ry=".89"/>
    <circle id="Ellipse_66-4" class="cls-1" cx="215.64" cy="962.78" r="2.06"/>
    <path class="cls-1" d="m136.57 837.12.14.52-.52.14.03.1.52-.14.14.52.1-.03-.14-.51.52-.14-.03-.1-.52.14-.14-.52-.1.03Zm-45.54-13.89-.14-.52.52-.14c.37-.1.58-.48.49-.84s-.48-.58-.84-.49l-.52.14-.14-.52c-.1-.37-.48-.58-.84-.49s-.58.48-.49.84l.14.52-.52.14c-.37.1-.58.48-.49.84s.48.58.84.49l.52-.14.14.52c.1.37.48.58.84.49s.58-.48.49-.84Zm48.53 162.03-.14-.51.52-.14c.37-.1.58-.48.49-.84s-.48-.58-.84-.49l-.52.14-.14-.52c-.1-.37-.48-.58-.84-.49s-.58.48-.49.84l.14.52-.52.14c-.37.1-.58.48-.49.84s.48.58.84.49l.51-.14.14.52c.1.37.48.58.84.49s.58-.48.49-.84ZM62.7 790.48v-.49h-.49v-.1h.49v-.49h.1v.49h.49v.1h-.49v.49h-.1ZM83.08 987.9v-.49h-.49v-.1h.49v-.49h.1v.49h.49v.1h-.49v.49h-.1Z"/>
    <circle id="Ellipse_91-4" class="cls-1" cx="137.77" cy="1053.69" r=".89"/>
    <path class="cls-1" d="M1171.2 1039.82h.49v.49h.1v-.49h.49v-.1h-.49v-.49h-.1v.49h-.49v.1Zm-34.42-1.29h.49v.49h.1v-.49h.49v-.1h-.49v-.49h-.1v.49h-.49v.1Zm129.37-5.57h.49v.49h.1v-.49h.49v-.1h-.49v-.49h-.1v.49h-.49v.1Zm-34.91-63.92-.51.14-.14-.52c-.1-.37-.48-.58-.84-.49s-.58.48-.49.84l.14.52-.52.14c-.37.1-.58.48-.49.84s.48.58.84.49l.52-.14.14.52c.1.37.48.58.84.49s.58-.48.49-.84l-.14-.51.52-.14c.37-.1.58-.48.49-.84s-.48-.58-.84-.49Zm-134.98-57.41-.52.14-.14-.52c-.1-.37-.48-.58-.84-.49s-.58.48-.49.84l.14.52-.52.14c-.37.1-.58.48-.49.84s.48.58.84.49l.52-.14.14.52c.1.37.48.58.84.49s.58-.48.49-.84l-.14-.52.52-.14c.37-.1.58-.48.49-.84s-.48-.58-.84-.49Zm-60.76 126.29.49-.02-.02-.49h.1l.02.49.49-.02v.1l-.49.02.02.49h-.1l-.02-.49-.49.02v-.1ZM286.68 862.66v.49h-.49v.1h.49v.49h.1v-.49h.49v-.1h-.49v-.49h-.1Zm1.29-34.43v.49h-.49v.1h.49v.49h.1v-.49h.49v-.1h-.49v-.49h-.1Zm5.57 129.38v.49h-.49v.1h.49v.49h.1v-.49h.49v-.1h-.49v-.49h-.1Zm63.93-34.92-.14-.51.52-.14c.37-.1.58-.48.49-.84s-.48-.58-.84-.49l-.52.14-.14-.52c-.1-.37-.48-.58-.84-.49s-.58.48-.49.84l.14.52-.52.14c-.37.1-.58.48-.49.84s.48.58.84.49l.51-.14.14.52c.1.37.48.58.84.49s.58-.48.49-.84Zm57.4-134.98-.14-.52.52-.14c.37-.1.58-.48.49-.84s-.48-.58-.84-.49l-.52.14-.14-.52c-.1-.37-.48-.58-.84-.49s-.58.48-.49.84l.14.52-.52.14c-.37.1-.58.48-.49.84s.48.58.84.49l.52-.14.14.52c.1.37.48.58.84.49s.58-.48.49-.84Zm-126.29-60.76.02.49.49-.02v.1l-.49.02.02.49h-.1l-.02-.49-.49.02v-.1l.49-.02-.02-.49h.1Zm67.16-533.06h.49v.49h.1v-.49h.49v-.1h-.49v-.49h-.1v.49h-.49v.1Zm-34.43-1.29h.49v.49h.1v-.49h.49v-.1h-.49v-.49h-.1v.49h-.49v.1Zm129.38-5.57h.49v.49h.1v-.49h.49v-.1h-.49v-.49h-.1v.49h-.49v.1Zm-34.91-63.92-.51.14-.14-.52c-.1-.37-.48-.58-.84-.49s-.58.48-.49.84l.14.52-.52.14c-.37.1-.58.48-.49.84s.48.58.84.49l.52-.14.14.52c.1.37.48.58.84.49s.58-.48.49-.84l-.14-.51.52-.14c.37-.1.58-.48.49-.84s-.48-.58-.84-.49ZM280.79 65.7l-.52.14-.14-.52c-.1-.37-.48-.58-.84-.49s-.58.48-.49.84l.14.52-.52.14c-.37.1-.58.48-.49.84s.48.58.84.49l.52-.14.14.52c.1.37.48.58.84.49s.58-.48.49-.84l-.14-.52.52-.14c.37-.1.58-.48.49-.84s-.48-.58-.84-.49Zm-60.75 126.29.49-.02-.02-.49h.1l.02.49.49-.02v.1l-.49.02.02.49h-.1l-.02-.49-.49.02v-.1Z"/>
  </g>
  <g id="Planet">
    <path d="M-50.56 1111.65c1.82 0 134.41-236.12 617.55-292.42 483.14-56.31 839.14 250.65 806.44 290.61S80.22 1267.85-50.56 1111.65Z" fill="#283842"/>
    <ellipse id="Ellipse_2074" class="cls-3" cx="643.89" cy="897.65" rx="133.96" ry="50.58"/>
    <ellipse id="Ellipse_2075" class="cls-2" cx="647.68" cy="897.21" rx="90.87" ry="27.27"/>
    <ellipse id="Ellipse_2076" class="cls-3" cx="305" cy="1067.44" rx="115.54" ry="77.64"/>
    <ellipse id="Ellipse_2077" class="cls-3" cx="1003.34" cy="1092.22" rx="253.36" ry="52.85"/>
    <ellipse id="Ellipse_2078" class="cls-2" cx="304.65" cy="1064.95" rx="88.57" ry="47.29"/>
    <ellipse id="Ellipse_2079" class="cls-2" cx="1003.39" cy="1088.86" rx="222.68" ry="36.92"/>
  </g>
</svg>