<svg xmlns="http://www.w3.org/2000/svg" xmlns:xlink="http://www.w3.org/1999/xlink" width="500" height="174" viewBox="0 0 500 174">
  <defs>
    <clipPath id="clip-Action_amount_DO_1">
      <rect width="500" height="174"/>
    </clipPath>
  </defs>
  <g id="Action_amount_DO_1" data-name="Action_amount_DO – 1" clip-path="url(#clip-Action_amount_DO_1)">
    <rect width="500" height="174" fill="#f4f4f6"/>
    <g id="Group_264685" data-name="Group 264685" transform="translate(481 34)">
      <g id="Rectangle_3830" data-name="Rectangle 3830" transform="translate(-450.8 -4)" fill="#fff" stroke="#2777d3" stroke-width="1">
        <rect width="439.8" height="114" rx="4" stroke="none"/>
        <rect x="0.5" y="0.5" width="438.8" height="113" rx="3.5" fill="none"/>
      </g>
      <path id="Rectangle_5239" data-name="Rectangle 5239" d="M4,0H50a0,0,0,0,1,0,0V113.8a0,0,0,0,1,0,0H4a4,4,0,0,1-4-4V4A4,4,0,0,1,4,0Z" transform="translate(-451 -4)" fill="#2777d3"/>
      <g id="Info" transform="translate(-438 40.444)">
        <g id="Group_11913" data-name="Group 11913">
          <circle id="Ellipse_6" data-name="Ellipse 6" cx="12" cy="12" r="12" fill="#fff"/>
        </g>
        <path id="Path_6649" data-name="Path 6649" d="M153,35.709V25.291a.29.29,0,0,1,.29-.291h1.919a.29.29,0,0,1,.29.291V35.709a.29.29,0,0,1-.29.291H153.29A.29.29,0,0,1,153,35.709Zm.29-13.209h1.919a.29.29,0,0,0,.29-.291V20.291a.29.29,0,0,0-.29-.291H153.29a.29.29,0,0,0-.29.291v1.919A.29.29,0,0,0,153.29,22.5Z" transform="translate(-142 -16)" fill="#2777d3"/>
      </g>
    </g>
    <path id="Path_101532" data-name="Path 101532" d="M1.21,0V-9.8H4.04q5.421,0,5.421,4.778a4.709,4.709,0,0,1-1.5,3.647A5.74,5.74,0,0,1,3.924,0ZM2.83-8.422v7.048h1.3A3.632,3.632,0,0,0,6.8-2.317a3.583,3.583,0,0,0,.954-2.666q0-3.438-3.562-3.438ZM14.178.164A3.47,3.47,0,0,1,11.59-.817a3.544,3.544,0,0,1-.967-2.6,3.687,3.687,0,0,1,1.008-2.755,3.708,3.708,0,0,1,2.717-.991,3.358,3.358,0,0,1,2.557.964,3.723,3.723,0,0,1,.916,2.673,3.669,3.669,0,0,1-.988,2.683A3.548,3.548,0,0,1,14.178.164ZM14.253-5.9a1.81,1.81,0,0,0-1.47.649,2.719,2.719,0,0,0-.54,1.791,2.561,2.561,0,0,0,.547,1.733,1.837,1.837,0,0,0,1.463.632,1.743,1.743,0,0,0,1.439-.622,2.754,2.754,0,0,0,.5-1.771,2.8,2.8,0,0,0-.5-1.784A1.734,1.734,0,0,0,14.253-5.9ZM28.848-7,26.783,0H25.122L23.851-4.744a3,3,0,0,1-.1-.615h-.027a2.805,2.805,0,0,1-.123.6L22.224,0H20.6L18.539-7H20.18l1.271,5.045a2.989,2.989,0,0,1,.082.6h.048a3.249,3.249,0,0,1,.109-.615L23.105-7H24.6l1.258,5.065a3.543,3.543,0,0,1,.089.6h.048a3.191,3.191,0,0,1,.1-.6L27.337-7Zm7.41,7H34.672V-3.944q0-1.962-1.388-1.962a1.515,1.515,0,0,0-1.2.543,2.016,2.016,0,0,0-.472,1.371V0H30.023V-7h1.593v1.162h.027a2.5,2.5,0,0,1,2.27-1.326,2.114,2.114,0,0,1,1.743.742,3.33,3.33,0,0,1,.6,2.143Zm3.527,0H38.192V-10.363h1.593Zm5.168.164a3.47,3.47,0,0,1-2.587-.981,3.544,3.544,0,0,1-.967-2.6,3.687,3.687,0,0,1,1.008-2.755,3.708,3.708,0,0,1,2.717-.991,3.358,3.358,0,0,1,2.557.964A3.723,3.723,0,0,1,48.6-3.527a3.669,3.669,0,0,1-.988,2.683A3.548,3.548,0,0,1,44.953.164ZM45.028-5.9a1.81,1.81,0,0,0-1.47.649,2.719,2.719,0,0,0-.54,1.791,2.561,2.561,0,0,0,.547,1.733,1.837,1.837,0,0,0,1.463.632,1.743,1.743,0,0,0,1.439-.622,2.754,2.754,0,0,0,.5-1.771,2.8,2.8,0,0,0-.5-1.784A1.734,1.734,0,0,0,45.028-5.9ZM55.419,0H53.881V-1.094h-.027A2.316,2.316,0,0,1,51.728.164,2.239,2.239,0,0,1,50.111-.4a1.961,1.961,0,0,1-.584-1.483q0-1.982,2.283-2.311l2.078-.294q0-1.5-1.422-1.5a3.378,3.378,0,0,0-2.256.861V-6.508a4.919,4.919,0,0,1,2.557-.656,2.326,2.326,0,0,1,2.652,2.611ZM53.888-3.438l-1.47.205a2.33,2.33,0,0,0-1.029.332.969.969,0,0,0-.345.851.932.932,0,0,0,.318.728,1.231,1.231,0,0,0,.851.284,1.57,1.57,0,0,0,1.2-.509,1.806,1.806,0,0,0,.475-1.282ZM63.718,0H62.132V-1.189H62.1A2.53,2.53,0,0,1,59.746.164a2.546,2.546,0,0,1-2.068-.94,3.9,3.9,0,0,1-.776-2.56,4.251,4.251,0,0,1,.858-2.782,2.808,2.808,0,0,1,2.287-1.046A2.19,2.19,0,0,1,62.1-6.029h.027v-4.334h1.586ZM62.152-3.2v-.916a1.785,1.785,0,0,0-.485-1.265A1.619,1.619,0,0,0,60.43-5.9a1.666,1.666,0,0,0-1.4.663A2.955,2.955,0,0,0,58.522-3.4a2.648,2.648,0,0,0,.489,1.685,1.59,1.59,0,0,0,1.316.619,1.646,1.646,0,0,0,1.319-.6A2.253,2.253,0,0,0,62.152-3.2ZM0,1H64.757V2H0Z" transform="translate(101 120)" fill="#2777d3"/>
    <path id="Path_101533" data-name="Path 101533" d="M7.082,6.236H4.252V15H3.1V6.236H.28V5.2h6.8ZM14.28,15H13.159V10.967q0-2.187-1.627-2.187a1.774,1.774,0,0,0-1.381.632,2.356,2.356,0,0,0-.561,1.624V15H8.47V4.637H9.591V9.162h.027a2.546,2.546,0,0,1,2.3-1.326q2.365,0,2.365,2.851Zm2.687-8.777a.71.71,0,0,1-.513-.205.692.692,0,0,1-.212-.52.718.718,0,0,1,.725-.731.724.724,0,0,1,.523.208.73.73,0,0,1,0,1.036A.718.718,0,0,1,16.967,6.223ZM17.514,15H16.393V8h1.121Zm1.846-.253v-1.2a3.318,3.318,0,0,0,2.017.677q1.477,0,1.477-.984a.854.854,0,0,0-.126-.475,1.26,1.26,0,0,0-.342-.345,2.631,2.631,0,0,0-.506-.27q-.291-.12-.625-.25a8.056,8.056,0,0,1-.817-.373,2.468,2.468,0,0,1-.588-.424,1.577,1.577,0,0,1-.355-.537,1.9,1.9,0,0,1-.12-.7,1.673,1.673,0,0,1,.226-.872,2,2,0,0,1,.6-.636,2.805,2.805,0,0,1,.858-.386,3.805,3.805,0,0,1,.995-.13,4.016,4.016,0,0,1,1.627.314V9.285A3.171,3.171,0,0,0,21.9,8.779a2.078,2.078,0,0,0-.567.072,1.389,1.389,0,0,0-.434.2.932.932,0,0,0-.28.311.819.819,0,0,0-.1.4.959.959,0,0,0,.1.458,1.008,1.008,0,0,0,.291.328,2.221,2.221,0,0,0,.465.26q.273.116.622.253a8.658,8.658,0,0,1,.834.366,2.86,2.86,0,0,1,.629.424,1.656,1.656,0,0,1,.4.543,1.753,1.753,0,0,1,.14.731,1.725,1.725,0,0,1-.229.9,1.963,1.963,0,0,1-.612.636,2.8,2.8,0,0,1-.882.376,4.354,4.354,0,0,1-1.046.123A3.971,3.971,0,0,1,19.359,14.747ZM33.018,5.621a1.493,1.493,0,0,0-.745-.185Q31.1,5.437,31.1,6.92V8h1.641v.957H31.1V15H29.982V8.957h-1.2V8h1.2V6.865a2.358,2.358,0,0,1,.636-1.74A2.146,2.146,0,0,1,32.2,4.486a2.2,2.2,0,0,1,.813.123Zm3.849,9.543a3.247,3.247,0,0,1-2.478-.981,3.634,3.634,0,0,1-.926-2.6,3.785,3.785,0,0,1,.964-2.755,3.465,3.465,0,0,1,2.6-.991,3.14,3.14,0,0,1,2.444.964,3.822,3.822,0,0,1,.878,2.673,3.761,3.761,0,0,1-.947,2.683A3.317,3.317,0,0,1,36.866,15.164Zm.082-6.385a2.132,2.132,0,0,0-1.709.735,3.018,3.018,0,0,0-.629,2.027,2.854,2.854,0,0,0,.636,1.962,2.161,2.161,0,0,0,1.7.718,2.049,2.049,0,0,0,1.671-.7,3.055,3.055,0,0,0,.584-2A3.108,3.108,0,0,0,38.62,9.49,2.04,2.04,0,0,0,36.948,8.779Zm8.846.355a1.371,1.371,0,0,0-.848-.226,1.431,1.431,0,0,0-1.2.677,3.129,3.129,0,0,0-.482,1.846V15H42.144V8h1.121V9.442h.027a2.444,2.444,0,0,1,.731-1.152,1.668,1.668,0,0,1,1.1-.414,1.83,1.83,0,0,1,.67.1ZM56.95,15H55.829V10.98A3.032,3.032,0,0,0,55.47,9.3a1.361,1.361,0,0,0-1.207-.52,1.494,1.494,0,0,0-1.22.656,2.511,2.511,0,0,0-.5,1.572V15H51.42V10.844q0-2.064-1.593-2.064A1.475,1.475,0,0,0,48.61,9.4a2.557,2.557,0,0,0-.479,1.61V15H47.011V8h1.121V9.107h.027a2.378,2.378,0,0,1,2.174-1.271,2.022,2.022,0,0,1,1.982,1.449A2.5,2.5,0,0,1,54.64,7.836q2.311,0,2.311,2.851Zm6.528-8.777a.71.71,0,0,1-.513-.205.692.692,0,0,1-.212-.52.718.718,0,0,1,.725-.731A.724.724,0,0,1,64,4.975a.73.73,0,0,1,0,1.036A.718.718,0,0,1,63.479,6.223ZM64.025,15H62.9V8h1.121Zm1.846-.253v-1.2a3.318,3.318,0,0,0,2.017.677q1.477,0,1.477-.984a.854.854,0,0,0-.126-.475,1.26,1.26,0,0,0-.342-.345,2.631,2.631,0,0,0-.506-.27q-.291-.12-.625-.25a8.056,8.056,0,0,1-.817-.373,2.468,2.468,0,0,1-.588-.424A1.577,1.577,0,0,1,66,10.563a1.9,1.9,0,0,1-.12-.7,1.673,1.673,0,0,1,.226-.872,2,2,0,0,1,.6-.636,2.805,2.805,0,0,1,.858-.386,3.805,3.805,0,0,1,.995-.13,4.016,4.016,0,0,1,1.627.314V9.285a3.171,3.171,0,0,0-1.777-.506,2.078,2.078,0,0,0-.567.072,1.389,1.389,0,0,0-.434.2.932.932,0,0,0-.28.311.819.819,0,0,0-.1.4.959.959,0,0,0,.1.458,1.008,1.008,0,0,0,.291.328,2.221,2.221,0,0,0,.465.26q.273.116.622.253a8.657,8.657,0,0,1,.834.366,2.86,2.86,0,0,1,.629.424,1.656,1.656,0,0,1,.4.543,1.753,1.753,0,0,1,.14.731,1.725,1.725,0,0,1-.229.9,1.963,1.963,0,0,1-.612.636,2.8,2.8,0,0,1-.882.376,4.354,4.354,0,0,1-1.046.123A3.971,3.971,0,0,1,65.871,14.747Zm14.971-.068a3.643,3.643,0,0,1-1.914.485,3.169,3.169,0,0,1-2.417-.974,3.53,3.53,0,0,1-.919-2.526,3.881,3.881,0,0,1,.991-2.779,3.467,3.467,0,0,1,2.646-1.049,3.682,3.682,0,0,1,1.627.342V9.326a2.85,2.85,0,0,0-1.668-.547,2.254,2.254,0,0,0-1.76.769,2.918,2.918,0,0,0-.687,2.02,2.779,2.779,0,0,0,.646,1.941,2.227,2.227,0,0,0,1.733.711,2.81,2.81,0,0,0,1.723-.608Zm4.621.485a3.247,3.247,0,0,1-2.478-.981,3.633,3.633,0,0,1-.926-2.6,3.785,3.785,0,0,1,.964-2.755,3.465,3.465,0,0,1,2.6-.991,3.14,3.14,0,0,1,2.444.964,3.822,3.822,0,0,1,.878,2.673A3.761,3.761,0,0,1,88,14.156,3.317,3.317,0,0,1,85.463,15.164Zm.082-6.385a2.132,2.132,0,0,0-1.709.735,3.018,3.018,0,0,0-.629,2.027,2.854,2.854,0,0,0,.636,1.962,2.161,2.161,0,0,0,1.7.718,2.049,2.049,0,0,0,1.671-.7,3.055,3.055,0,0,0,.584-2,3.108,3.108,0,0,0-.584-2.023A2.04,2.04,0,0,0,85.545,8.779ZM100.68,15H99.559V10.98A3.032,3.032,0,0,0,99.2,9.3a1.361,1.361,0,0,0-1.207-.52,1.494,1.494,0,0,0-1.22.656,2.511,2.511,0,0,0-.5,1.572V15H95.149V10.844q0-2.064-1.593-2.064A1.475,1.475,0,0,0,92.34,9.4a2.557,2.557,0,0,0-.479,1.61V15H90.74V8h1.121V9.107h.027a2.378,2.378,0,0,1,2.174-1.271,2.022,2.022,0,0,1,1.982,1.449,2.5,2.5,0,0,1,2.324-1.449q2.311,0,2.311,2.851Zm3.268-1.012h-.027V18.22H102.8V8h1.121V9.23h.027a2.651,2.651,0,0,1,2.42-1.395,2.563,2.563,0,0,1,2.112.94,3.893,3.893,0,0,1,.759,2.519,4.339,4.339,0,0,1-.854,2.813,2.845,2.845,0,0,1-2.338,1.056A2.342,2.342,0,0,1,103.947,13.988Zm-.027-2.823v.978a2.081,2.081,0,0,0,.564,1.473,2.012,2.012,0,0,0,3.028-.174,3.575,3.575,0,0,0,.578-2.167,2.822,2.822,0,0,0-.54-1.832,1.787,1.787,0,0,0-1.463-.663,1.986,1.986,0,0,0-1.572.68A2.5,2.5,0,0,0,103.92,11.165ZM112.15,15h-1.121V4.637h1.121Zm7.9-3.22H115.1a2.618,2.618,0,0,0,.629,1.8,2.168,2.168,0,0,0,1.654.636,3.439,3.439,0,0,0,2.174-.779v1.053a4.063,4.063,0,0,1-2.44.67,2.959,2.959,0,0,1-2.331-.954,3.9,3.9,0,0,1-.848-2.683,3.828,3.828,0,0,1,.926-2.663,2.97,2.97,0,0,1,2.3-1.029,2.632,2.632,0,0,1,2.126.889,3.705,3.705,0,0,1,.752,2.468Zm-1.148-.95a2.281,2.281,0,0,0-.468-1.511,1.6,1.6,0,0,0-1.282-.54,1.811,1.811,0,0,0-1.347.567,2.575,2.575,0,0,0-.684,1.483Zm6.091,4.1a2.161,2.161,0,0,1-1.046.219q-1.839,0-1.839-2.051V8.957h-1.2V8h1.2V6.291l1.121-.362V8h1.764v.957h-1.764V12.9a1.635,1.635,0,0,0,.239,1,.955.955,0,0,0,.793.3,1.179,1.179,0,0,0,.731-.232Zm7.123-3.151h-4.942a2.618,2.618,0,0,0,.629,1.8,2.168,2.168,0,0,0,1.654.636,3.439,3.439,0,0,0,2.174-.779v1.053a4.063,4.063,0,0,1-2.44.67,2.959,2.959,0,0,1-2.331-.954,3.9,3.9,0,0,1-.848-2.683,3.828,3.828,0,0,1,.926-2.663,2.97,2.97,0,0,1,2.3-1.029,2.632,2.632,0,0,1,2.126.889,3.705,3.705,0,0,1,.752,2.468Zm-1.148-.95a2.281,2.281,0,0,0-.468-1.511,1.6,1.6,0,0,0-1.282-.54,1.811,1.811,0,0,0-1.347.567,2.575,2.575,0,0,0-.684,1.483ZM142.652,15h-1.121V13.906H141.5a2.347,2.347,0,0,1-2.153,1.258,2.3,2.3,0,0,1-1.637-.554,1.918,1.918,0,0,1-.591-1.47q0-1.962,2.311-2.283l2.1-.294q0-1.784-1.442-1.784a3.446,3.446,0,0,0-2.283.861V8.492a4.338,4.338,0,0,1,2.379-.656q2.468,0,2.468,2.611Zm-1.121-3.541-1.688.232a2.741,2.741,0,0,0-1.176.386,1.114,1.114,0,0,0-.4.981,1.068,1.068,0,0,0,.366.837,1.413,1.413,0,0,0,.974.325,1.8,1.8,0,0,0,1.377-.584,2.088,2.088,0,0,0,.543-1.48ZM150.575,15h-1.121V11.008q0-2.229-1.627-2.229a1.765,1.765,0,0,0-1.391.632,2.344,2.344,0,0,0-.55,1.6V15h-1.121V8h1.121V9.162h.027a2.526,2.526,0,0,1,2.3-1.326,2.142,2.142,0,0,1,1.757.742,3.3,3.3,0,0,1,.608,2.143Zm8.087,0h-1.121V13.811h-.027a2.588,2.588,0,0,1-2.406,1.354,2.615,2.615,0,0,1-2.109-.94,3.856,3.856,0,0,1-.79-2.56,4.2,4.2,0,0,1,.875-2.782,2.886,2.886,0,0,1,2.331-1.046,2.244,2.244,0,0,1,2.1,1.135h.027V4.637h1.121Zm-1.121-3.165V10.8a2,2,0,0,0-.561-1.436,1.88,1.88,0,0,0-1.422-.588,1.936,1.936,0,0,0-1.613.752,3.3,3.3,0,0,0-.588,2.078,2.964,2.964,0,0,0,.564,1.911,1.843,1.843,0,0,0,1.514.7,1.915,1.915,0,0,0,1.521-.677A2.521,2.521,0,0,0,157.541,11.835Zm10.876-2.7a1.371,1.371,0,0,0-.848-.226,1.431,1.431,0,0,0-1.2.677,3.129,3.129,0,0,0-.482,1.846V15h-1.121V8h1.121V9.442h.027a2.444,2.444,0,0,1,.731-1.152,1.668,1.668,0,0,1,1.1-.414,1.83,1.83,0,0,1,.67.1Zm6.843,2.646h-4.942a2.618,2.618,0,0,0,.629,1.8,2.168,2.168,0,0,0,1.654.636,3.439,3.439,0,0,0,2.174-.779v1.053a4.063,4.063,0,0,1-2.44.67A2.959,2.959,0,0,1,170,14.21a3.9,3.9,0,0,1-.848-2.683,3.828,3.828,0,0,1,.926-2.663,2.97,2.97,0,0,1,2.3-1.029,2.632,2.632,0,0,1,2.126.889,3.705,3.705,0,0,1,.752,2.468Zm-1.148-.95a2.281,2.281,0,0,0-.468-1.511,1.6,1.6,0,0,0-1.282-.54,1.811,1.811,0,0,0-1.347.567,2.575,2.575,0,0,0-.684,1.483ZM181.966,15h-1.121V13.906h-.027a2.347,2.347,0,0,1-2.153,1.258,2.3,2.3,0,0,1-1.637-.554,1.918,1.918,0,0,1-.591-1.47q0-1.962,2.311-2.283l2.1-.294q0-1.784-1.442-1.784a3.446,3.446,0,0,0-2.283.861V8.492a4.338,4.338,0,0,1,2.379-.656q2.468,0,2.468,2.611Zm-1.121-3.541-1.688.232a2.741,2.741,0,0,0-1.176.386,1.114,1.114,0,0,0-.4.981,1.068,1.068,0,0,0,.366.837,1.413,1.413,0,0,0,.974.325,1.8,1.8,0,0,0,1.377-.584,2.088,2.088,0,0,0,.543-1.48ZM190.053,15h-1.121V13.811H188.9a2.588,2.588,0,0,1-2.406,1.354,2.615,2.615,0,0,1-2.109-.94,3.856,3.856,0,0,1-.79-2.56,4.2,4.2,0,0,1,.875-2.782,2.886,2.886,0,0,1,2.331-1.046,2.244,2.244,0,0,1,2.1,1.135h.027V4.637h1.121Zm-1.121-3.165V10.8a2,2,0,0,0-.561-1.436,1.88,1.88,0,0,0-1.422-.588,1.936,1.936,0,0,0-1.613.752,3.3,3.3,0,0,0-.588,2.078,2.964,2.964,0,0,0,.564,1.911,1.843,1.843,0,0,0,1.514.7,1.915,1.915,0,0,0,1.521-.677A2.521,2.521,0,0,0,188.932,11.835ZM197.894,8l-3.22,8.121q-.861,2.174-2.42,2.174a2.565,2.565,0,0,1-.731-.089v-1a2.078,2.078,0,0,0,.663.123,1.374,1.374,0,0,0,1.271-1.012l.561-1.326L191.283,8h1.244l1.894,5.387q.034.1.144.533h.041q.034-.164.137-.52L196.731,8Zm8.5-2.379a1.493,1.493,0,0,0-.745-.185q-1.176,0-1.176,1.483V8h1.641v.957H204.47V15h-1.114V8.957h-1.2V8h1.2V6.865a2.358,2.358,0,0,1,.636-1.74,2.146,2.146,0,0,1,1.586-.639,2.2,2.2,0,0,1,.813.123Zm3.849,9.543a3.247,3.247,0,0,1-2.478-.981,3.634,3.634,0,0,1-.926-2.6,3.785,3.785,0,0,1,.964-2.755,3.465,3.465,0,0,1,2.6-.991,3.14,3.14,0,0,1,2.444.964,3.822,3.822,0,0,1,.878,2.673,3.761,3.761,0,0,1-.947,2.683A3.317,3.317,0,0,1,210.239,15.164Zm.082-6.385a2.132,2.132,0,0,0-1.709.735,3.018,3.018,0,0,0-.629,2.027,2.854,2.854,0,0,0,.636,1.962,2.161,2.161,0,0,0,1.7.718,2.049,2.049,0,0,0,1.671-.7,3.055,3.055,0,0,0,.584-2,3.108,3.108,0,0,0-.584-2.023A2.04,2.04,0,0,0,210.321,8.779Zm8.846.355a1.371,1.371,0,0,0-.848-.226,1.431,1.431,0,0,0-1.2.677,3.129,3.129,0,0,0-.482,1.846V15h-1.121V8h1.121V9.442h.027a2.444,2.444,0,0,1,.731-1.152,1.668,1.668,0,0,1,1.1-.414,1.83,1.83,0,0,1,.67.1Zm8.7,0a1.371,1.371,0,0,0-.848-.226,1.431,1.431,0,0,0-1.2.677,3.129,3.129,0,0,0-.482,1.846V15h-1.121V8h1.121V9.442h.027a2.444,2.444,0,0,1,.731-1.152,1.668,1.668,0,0,1,1.1-.414,1.83,1.83,0,0,1,.67.1Zm6.843,2.646H229.77a2.618,2.618,0,0,0,.629,1.8,2.168,2.168,0,0,0,1.654.636,3.439,3.439,0,0,0,2.174-.779v1.053a4.063,4.063,0,0,1-2.44.67,2.959,2.959,0,0,1-2.331-.954,3.9,3.9,0,0,1-.848-2.683,3.828,3.828,0,0,1,.926-2.663,2.97,2.97,0,0,1,2.3-1.029,2.632,2.632,0,0,1,2.126.889,3.705,3.705,0,0,1,.752,2.468Zm-1.148-.95a2.281,2.281,0,0,0-.468-1.511,1.6,1.6,0,0,0-1.282-.54,1.811,1.811,0,0,0-1.347.567,2.575,2.575,0,0,0-.684,1.483ZM241.91,8l-2.789,7h-1.1l-2.652-7h1.23l1.777,5.086a4.565,4.565,0,0,1,.246.978h.027a4.622,4.622,0,0,1,.219-.95L240.728,8Zm1.777-1.777a.71.71,0,0,1-.513-.205.692.692,0,0,1-.212-.52.718.718,0,0,1,.725-.731.724.724,0,0,1,.523.208.73.73,0,0,1,0,1.036A.718.718,0,0,1,243.688,6.223ZM244.234,15h-1.121V8h1.121Zm7.9-3.22h-4.942a2.618,2.618,0,0,0,.629,1.8,2.168,2.168,0,0,0,1.654.636,3.439,3.439,0,0,0,2.174-.779v1.053a4.063,4.063,0,0,1-2.44.67,2.959,2.959,0,0,1-2.331-.954,3.9,3.9,0,0,1-.848-2.683,3.828,3.828,0,0,1,.926-2.663,2.97,2.97,0,0,1,2.3-1.029,2.632,2.632,0,0,1,2.126.889,3.705,3.705,0,0,1,.752,2.468Zm-1.148-.95a2.281,2.281,0,0,0-.468-1.511,1.6,1.6,0,0,0-1.282-.54,1.811,1.811,0,0,0-1.347.567,2.575,2.575,0,0,0-.684,1.483ZM262.644,8l-2.1,7h-1.162L257.94,9.989a3.265,3.265,0,0,1-.109-.649H257.8a3.065,3.065,0,0,1-.144.636L256.095,15h-1.121l-2.119-7h1.176l1.449,5.264a3.171,3.171,0,0,1,.1.629h.055a2.942,2.942,0,0,1,.123-.643L257.366,8h1.025l1.449,5.277a3.77,3.77,0,0,1,.1.629H260a2.91,2.91,0,0,1,.116-.629L261.536,8Zm1.688,7.15a.726.726,0,0,1-.537-.226.743.743,0,0,1-.222-.54.754.754,0,0,1,.222-.543.72.72,0,0,1,.537-.229.739.739,0,0,1,.547.229.748.748,0,0,1,.226.543.737.737,0,0,1-.226.54A.745.745,0,0,1,264.332,15.15Z" transform="translate(101 76)" fill="#31313a"/>
    <path id="Path_101534" data-name="Path 101534" d="M7.758-9.148H3.8V-6.4H7.438v2.047H3.8V0H1.281V-11.2H7.758ZM13.172.2A4.3,4.3,0,0,1,10.027-.926,4.064,4.064,0,0,1,8.883-3.969,4.065,4.065,0,0,1,10.07-7.074,4.487,4.487,0,0,1,13.281-8.2a4.249,4.249,0,0,1,3.125,1.121,3.985,3.985,0,0,1,1.133,2.965A4.23,4.23,0,0,1,16.371-.961,4.348,4.348,0,0,1,13.172.2Zm.063-6.5a1.647,1.647,0,0,0-1.359.6A2.653,2.653,0,0,0,11.391-4q0,2.3,1.859,2.3,1.773,0,1.773-2.367Q15.023-6.3,13.234-6.3Zm11.125.531a2.142,2.142,0,0,0-1.039-.242,1.5,1.5,0,0,0-1.258.59,2.573,2.573,0,0,0-.453,1.605V0H19.141V-8h2.469v1.484h.031A2.136,2.136,0,0,1,23.75-8.141a1.59,1.59,0,0,1,.609.094ZM38.258,0H35.8V-4.562Q35.8-6.3,34.516-6.3a1.177,1.177,0,0,0-.992.523,2.151,2.151,0,0,0-.383,1.3V0H30.672V-4.609q0-1.7-1.258-1.7a1.206,1.206,0,0,0-1.012.5,2.2,2.2,0,0,0-.379,1.359V0H25.555V-8h2.469v1.25h.031a2.952,2.952,0,0,1,1.074-1.043,2.952,2.952,0,0,1,1.512-.4A2.3,2.3,0,0,1,32.961-6.7,2.959,2.959,0,0,1,35.648-8.2q2.609,0,2.609,3.219ZM49.844-5.773A2.142,2.142,0,0,0,48.8-6.016a1.5,1.5,0,0,0-1.258.59,2.573,2.573,0,0,0-.453,1.605V0H44.625V-8h2.469v1.484h.031a2.136,2.136,0,0,1,2.109-1.625,1.59,1.59,0,0,1,.609.094ZM58.117-3.3H52.9q.125,1.742,2.2,1.742a4.286,4.286,0,0,0,2.32-.625V-.4A6.1,6.1,0,0,1,54.531.2,4.058,4.058,0,0,1,51.523-.879a4.058,4.058,0,0,1-1.07-3,4.281,4.281,0,0,1,1.156-3.156A3.852,3.852,0,0,1,54.453-8.2,3.5,3.5,0,0,1,57.16-7.156a4,4,0,0,1,.957,2.82ZM55.828-4.812q0-1.719-1.391-1.719a1.328,1.328,0,0,0-1.027.492,2.234,2.234,0,0,0-.527,1.227ZM66.242,0H63.906V-1.148h-.031A2.607,2.607,0,0,1,61.492.2a2.492,2.492,0,0,1-1.832-.66,2.366,2.366,0,0,1-.668-1.762q0-2.328,2.758-2.687L63.922-5.2q0-1.312-1.422-1.312a4.853,4.853,0,0,0-2.719.852V-7.523a6.116,6.116,0,0,1,1.41-.469,7.413,7.413,0,0,1,1.629-.2q3.422,0,3.422,3.414Zm-2.32-3.25v-.539L62.469-3.6q-1.2.156-1.2,1.086a.9.9,0,0,0,.293.691,1.126,1.126,0,0,0,.793.27,1.462,1.462,0,0,0,1.133-.48A1.735,1.735,0,0,0,63.922-3.25ZM76.023,0H73.555V-1.1h-.031A2.768,2.768,0,0,1,71.047.2,3.033,3.033,0,0,1,68.633-.863a4.382,4.382,0,0,1-.914-2.957A4.77,4.77,0,0,1,68.727-7a3.287,3.287,0,0,1,2.641-1.2,2.246,2.246,0,0,1,2.156,1.109h.031v-4.758h2.469ZM73.6-3.891v-.6a1.893,1.893,0,0,0-.453-1.3,1.5,1.5,0,0,0-1.18-.516,1.487,1.487,0,0,0-1.281.645,2.993,2.993,0,0,0-.461,1.77,2.59,2.59,0,0,0,.445,1.625,1.479,1.479,0,0,0,1.234.57,1.485,1.485,0,0,0,1.223-.6A2.507,2.507,0,0,0,73.6-3.891ZM85.719-8,82.469.641Q81.3,3.758,78.938,3.758a4.524,4.524,0,0,1-1.477-.2V1.586a2.076,2.076,0,0,0,1.07.289,1.337,1.337,0,0,0,1.328-.9l.422-.992L77.031-8h2.734l1.492,4.867a6.325,6.325,0,0,1,.219,1.07h.031a7.463,7.463,0,0,1,.258-1.055L83.273-8ZM96.344-9.953a2.494,2.494,0,0,0-.914-.187q-1.187,0-1.187,1.289V-8H96.07v1.82H94.242V0H91.781V-6.18H90.438V-8h1.344v-.992a2.88,2.88,0,0,1,.891-2.2,3.4,3.4,0,0,1,2.422-.836,4.253,4.253,0,0,1,1.25.156ZM101.07.2A4.3,4.3,0,0,1,97.926-.926a4.064,4.064,0,0,1-1.145-3.043,4.065,4.065,0,0,1,1.188-3.105A4.487,4.487,0,0,1,101.18-8.2,4.249,4.249,0,0,1,104.3-7.074a3.985,3.985,0,0,1,1.133,2.965A4.23,4.23,0,0,1,104.27-.961,4.348,4.348,0,0,1,101.07.2Zm.063-6.5a1.647,1.647,0,0,0-1.359.6A2.653,2.653,0,0,0,99.289-4q0,2.3,1.859,2.3,1.773,0,1.773-2.367Q102.922-6.3,101.133-6.3Zm11.125.531a2.142,2.142,0,0,0-1.039-.242,1.5,1.5,0,0,0-1.258.59,2.573,2.573,0,0,0-.453,1.605V0h-2.469V-8h2.469v1.484h.031a2.136,2.136,0,0,1,2.109-1.625,1.59,1.59,0,0,1,.609.094Zm10.781,0A2.142,2.142,0,0,0,122-6.016a1.5,1.5,0,0,0-1.258.59,2.573,2.573,0,0,0-.453,1.605V0H117.82V-8h2.469v1.484h.031a2.136,2.136,0,0,1,2.109-1.625,1.59,1.59,0,0,1,.609.094ZM131.313-3.3h-5.219q.125,1.742,2.2,1.742a4.286,4.286,0,0,0,2.32-.625V-.4A6.1,6.1,0,0,1,127.727.2a4.058,4.058,0,0,1-3.008-1.074,4.058,4.058,0,0,1-1.07-3A4.281,4.281,0,0,1,124.8-7.031,3.852,3.852,0,0,1,127.648-8.2a3.5,3.5,0,0,1,2.707,1.039,4,4,0,0,1,.957,2.82Zm-2.289-1.516q0-1.719-1.391-1.719a1.328,1.328,0,0,0-1.027.492,2.234,2.234,0,0,0-.527,1.227ZM140.4-8l-2.977,8h-2.812l-2.836-8h2.641L135.8-3.07a7.2,7.2,0,0,1,.273,1.422h.031a8.069,8.069,0,0,1,.289-1.375L137.82-8Zm2.3-1.266a1.442,1.442,0,0,1-1.023-.371,1.2,1.2,0,0,1-.4-.91,1.153,1.153,0,0,1,.4-.906A1.49,1.49,0,0,1,142.7-11.8a1.486,1.486,0,0,1,1.027.352,1.158,1.158,0,0,1,.395.906,1.191,1.191,0,0,1-.395.922A1.466,1.466,0,0,1,142.7-9.266ZM143.922,0h-2.469V-8h2.469Zm9.266-3.3h-5.219q.125,1.742,2.2,1.742a4.286,4.286,0,0,0,2.32-.625V-.4A6.1,6.1,0,0,1,149.6.2a4.058,4.058,0,0,1-3.008-1.074,4.058,4.058,0,0,1-1.07-3,4.281,4.281,0,0,1,1.156-3.156A3.852,3.852,0,0,1,149.523-8.2a3.5,3.5,0,0,1,2.707,1.039,4,4,0,0,1,.957,2.82ZM150.9-4.812q0-1.719-1.391-1.719a1.328,1.328,0,0,0-1.027.492,2.234,2.234,0,0,0-.527,1.227ZM166.242-8l-2.3,8h-2.594l-1.18-4.687a4.773,4.773,0,0,1-.133-1.023h-.047a6.124,6.124,0,0,1-.156.992L158.563,0H156l-2.258-8h2.516l1.1,5.219a6.787,6.787,0,0,1,.117.891h.047a4.933,4.933,0,0,1,.141-.922L159.039-8h2.352l1.234,5.219a8.3,8.3,0,0,1,.109.906h.055a9.017,9.017,0,0,1,.125-.906L163.953-8Z" transform="translate(101 67)" fill="#31313a"/>
  </g>
</svg>
