<svg xmlns="http://www.w3.org/2000/svg" xmlns:xlink="http://www.w3.org/1999/xlink" width="1000" height="162" viewBox="0 0 1000 162">
  <defs>
    <clipPath id="clip-Anatomy">
      <rect width="1000" height="162"/>
    </clipPath>
  </defs>
  <g id="Anatomy" clip-path="url(#clip-Anatomy)">
    <rect width="1000" height="162" fill="#f4f4f6"/>
    <g id="Group_268784" data-name="Group 268784" transform="translate(435.078 77.5)">
      <g id="Group_11913" data-name="Group 11913">
        <circle id="Ellipse_6" data-name="Ellipse 6" cx="8" cy="8" r="8" fill="#2777d3"/>
      </g>
      <path id="Path_6649" data-name="Path 6649" d="M153,30.41v-6.9a.192.192,0,0,1,.192-.192h1.272a.192.192,0,0,1,.192.192v6.9a.192.192,0,0,1-.192.192h-1.272A.192.192,0,0,1,153,30.41Zm.192-8.753h1.272a.192.192,0,0,0,.192-.192V20.192a.192.192,0,0,0-.192-.192h-1.272a.192.192,0,0,0-.192.192v1.272A.192.192,0,0,0,153.192,21.657Z" transform="translate(-145.711 -17.349)" fill="#fff"/>
    </g>
    <g id="Group_268785" data-name="Group 268785" transform="translate(412.902 -339.64)">
      <path id="Path_1" data-name="Path 1" d="M12,0A12,12,0,1,1,0,12,12,12,0,0,1,12,0Z" transform="translate(89.863 359.776)" fill="#17987c"/>
      <path id="Path_3" data-name="Path 3" d="M0,0H1V39H0Z" transform="translate(102.363 398.776) rotate(180)" fill="#17987c"/>
      <g id="Group_5" data-name="Group 5" transform="translate(-307.129 529.276) rotate(-90)">
        <g id="Group_6" data-name="Group 6" transform="translate(0 351)">
          <path id="Path_8" data-name="Path 8" d="M0,0H1V5H0Z" transform="translate(128 1) rotate(-90)" fill="#17987c"/>
          <path id="Path_9" data-name="Path 9" d="M0,0H1V5H0Z" transform="translate(128 115.984) rotate(-90)" fill="#17987c"/>
          <path id="Path_7" data-name="Path 7" d="M0,0H1V114.484H0Z" transform="translate(130 0.75)" fill="#17987c"/>
        </g>
      </g>
      <text id="_1" data-name="1" transform="translate(99.363 376.776)" fill="#fff" font-size="14" font-family="SegoeUI-Semibold, Segoe UI" font-weight="600"><tspan x="0" y="0">1</tspan></text>
    </g>
    <g id="Group_264703" data-name="Group 264703" transform="translate(461.578 60.376)">
      <g id="Group_264702" data-name="Group 264702">
        <rect id="Rectangle_3835" data-name="Rectangle 3835" width="110.491" height="36" rx="2" transform="translate(0.28 7.295)" fill="#494955"/>
        <path id="Path_101498" data-name="Path 101498" d="M7.082-8.764H4.252V0H3.1V-8.764H.28V-9.8h6.8ZM10.028.164A3.247,3.247,0,0,1,7.55-.817a3.633,3.633,0,0,1-.926-2.6,3.785,3.785,0,0,1,.964-2.755,3.465,3.465,0,0,1,2.6-.991,3.14,3.14,0,0,1,2.444.964,3.822,3.822,0,0,1,.878,2.673,3.761,3.761,0,0,1-.947,2.683A3.317,3.317,0,0,1,10.028.164Zm.082-6.385A2.132,2.132,0,0,0,8.4-5.486a3.018,3.018,0,0,0-.629,2.027A2.854,2.854,0,0,0,8.408-1.5a2.161,2.161,0,0,0,1.7.718,2.049,2.049,0,0,0,1.671-.7,3.055,3.055,0,0,0,.584-2,3.108,3.108,0,0,0-.584-2.023A2.04,2.04,0,0,0,10.11-6.221ZM18.231.164a3.247,3.247,0,0,1-2.478-.981,3.634,3.634,0,0,1-.926-2.6,3.785,3.785,0,0,1,.964-2.755,3.465,3.465,0,0,1,2.6-.991,3.14,3.14,0,0,1,2.444.964,3.822,3.822,0,0,1,.878,2.673,3.761,3.761,0,0,1-.947,2.683A3.317,3.317,0,0,1,18.231.164Zm.082-6.385a2.132,2.132,0,0,0-1.709.735,3.018,3.018,0,0,0-.629,2.027A2.854,2.854,0,0,0,16.611-1.5a2.161,2.161,0,0,0,1.7.718,2.049,2.049,0,0,0,1.671-.7,3.055,3.055,0,0,0,.584-2,3.108,3.108,0,0,0-.584-2.023A2.04,2.04,0,0,0,18.313-6.221ZM24.63,0H23.509V-10.363H24.63Zm5.517-.068A2.161,2.161,0,0,1,29.1.15Q27.262.15,27.262-1.9V-6.043h-1.2V-7h1.2V-8.709l1.121-.362V-7h1.764v.957H28.383V-2.1a1.635,1.635,0,0,0,.239,1,.955.955,0,0,0,.793.3,1.179,1.179,0,0,0,.731-.232Zm2.071-8.709a.71.71,0,0,1-.513-.205.692.692,0,0,1-.212-.52.7.7,0,0,1,.212-.523.7.7,0,0,1,.513-.208.724.724,0,0,1,.523.208.7.7,0,0,1,.215.523.693.693,0,0,1-.215.513A.718.718,0,0,1,32.218-8.777ZM32.765,0H31.644V-7h1.121Zm3.418-1.012h-.027V3.22H35.034V-7h1.121v1.23h.027A2.651,2.651,0,0,1,38.6-7.164a2.563,2.563,0,0,1,2.112.94,3.893,3.893,0,0,1,.759,2.519,4.339,4.339,0,0,1-.854,2.813A2.845,2.845,0,0,1,38.281.164,2.342,2.342,0,0,1,36.183-1.012Zm-.027-2.823v.978a2.081,2.081,0,0,0,.564,1.473,1.873,1.873,0,0,0,1.432.6,1.876,1.876,0,0,0,1.6-.779,3.575,3.575,0,0,0,.578-2.167,2.822,2.822,0,0,0-.54-1.832,1.787,1.787,0,0,0-1.463-.663,1.986,1.986,0,0,0-1.572.68A2.5,2.5,0,0,0,36.155-3.835ZM50.75-5.865a1.371,1.371,0,0,0-.848-.226,1.431,1.431,0,0,0-1.2.677,3.129,3.129,0,0,0-.482,1.846V0H47.1V-7h1.121v1.442h.027a2.444,2.444,0,0,1,.731-1.152,1.668,1.668,0,0,1,1.1-.414,1.83,1.83,0,0,1,.67.1Zm1.791-2.912a.71.71,0,0,1-.513-.205.692.692,0,0,1-.212-.52.7.7,0,0,1,.212-.523.7.7,0,0,1,.513-.208.724.724,0,0,1,.523.208.7.7,0,0,1,.215.523.693.693,0,0,1-.215.513A.718.718,0,0,1,52.541-8.777ZM53.088,0H51.967V-7h1.121Zm8.244-.561q0,3.855-3.691,3.855a4.956,4.956,0,0,1-2.27-.492V1.682a4.661,4.661,0,0,0,2.256.656q2.584,0,2.584-2.748v-.766h-.027A2.622,2.622,0,0,1,57.777.164a2.628,2.628,0,0,1-2.1-.933,3.73,3.73,0,0,1-.8-2.505,4.358,4.358,0,0,1,.858-2.837,2.866,2.866,0,0,1,2.348-1.053,2.282,2.282,0,0,1,2.1,1.135h.027V-7h1.121Zm-1.121-2.6V-4.2a2,2,0,0,0-.564-1.429,1.857,1.857,0,0,0-1.4-.595,1.947,1.947,0,0,0-1.627.755,3.372,3.372,0,0,0-.588,2.116,2.894,2.894,0,0,0,.564,1.87,1.822,1.822,0,0,0,1.494.7,1.951,1.951,0,0,0,1.535-.67A2.5,2.5,0,0,0,60.211-3.165ZM69.412,0H68.291V-4.033q0-2.188-1.627-2.187a1.774,1.774,0,0,0-1.381.632,2.356,2.356,0,0,0-.561,1.624V0H63.6V-10.363h1.121v4.525h.027a2.546,2.546,0,0,1,2.3-1.326q2.365,0,2.365,2.851Zm5.359-.068A2.161,2.161,0,0,1,73.726.15Q71.887.15,71.887-1.9V-6.043h-1.2V-7h1.2V-8.709l1.121-.362V-7h1.764v.957H73.008V-2.1a1.635,1.635,0,0,0,.239,1,.955.955,0,0,0,.793.3,1.179,1.179,0,0,0,.731-.232Z" transform="translate(18 28.658)" fill="#fff"/>
      </g>
      <rect id="Rectangle_3836" data-name="Rectangle 3836" width="8.033" height="8.033" transform="translate(-5.4 24.975) rotate(-45)" fill="#494955"/>
    </g>
    <g id="Group_268794" data-name="Group 268794" transform="translate(539.402 -275.453)">
      <path id="Path_1-2" data-name="Path 1" d="M12,0A12,12,0,1,1,0,12,12,12,0,0,1,12,0Z" transform="translate(49.675 350.953)" fill="#17987c"/>
      <path id="Path_3-2" data-name="Path 3" d="M0,0H1V48.155H0Z" transform="translate(67.675 362.453) rotate(90)" fill="#17987c"/>
      <text id="_3" data-name="3" transform="translate(57.675 367.953)" fill="#fff" font-size="14" font-family="SegoeUI-Semibold, Segoe UI" font-weight="600"><tspan x="0" y="0">3</tspan></text>
    </g>
    <g id="Group_268796" data-name="Group 268796" transform="translate(319.247 -277.453)">
      <path id="Path_1-3" data-name="Path 1" d="M12,0A12,12,0,1,1,0,12,12,12,0,0,1,12,0Z" transform="translate(67.675 350.953)" fill="#17987c"/>
      <path id="Path_3-3" data-name="Path 3" d="M0,0H1V48.155H0Z" transform="translate(115.83 362.453) rotate(90)" fill="#17987c"/>
      <text id="_2" data-name="2" transform="translate(75.675 367.953)" fill="#fff" font-size="14" font-family="SegoeUI-Semibold, Segoe UI" font-weight="600"><tspan x="0" y="0">2</tspan></text>
    </g>
    <g id="Group_268795" data-name="Group 268795" transform="translate(390.402 -232.453)">
      <path id="Path_1-4" data-name="Path 1" d="M12,0A12,12,0,1,1,0,12,12,12,0,0,1,12,0Z" transform="translate(55.675 350.953)" fill="#17987c"/>
      <path id="Path_3-4" data-name="Path 3" d="M0,0H1V29.63H0Z" transform="translate(68.175 351.768) rotate(180)" fill="#17987c"/>
      <text id="_4" data-name="4" transform="translate(63.675 367.953)" fill="#fff" font-size="14" font-family="SegoeUI-Semibold, Segoe UI" font-weight="600"><tspan x="0" y="0">4</tspan></text>
    </g>
  </g>
</svg>
