<svg xmlns="http://www.w3.org/2000/svg" xmlns:xlink="http://www.w3.org/1999/xlink" width="1000" height="131" viewBox="0 0 1000 131">
  <defs>
    <clipPath id="clip-Anatomy_-_Tag">
      <rect width="1000" height="131"/>
    </clipPath>
  </defs>
  <g id="Anatomy_-_Tag" data-name="Anatomy - Tag" clip-path="url(#clip-Anatomy_-_Tag)">
    <rect width="1000" height="131" fill="#f4f4f6"/>
    <path id="Path_1" data-name="Path 1" d="M12,0A12,12,0,1,1,0,12,12,12,0,0,1,12,0Z" transform="translate(488.5 30.136)" fill="#17987c"/>
    <path id="Path_3" data-name="Path 3" d="M0,0H1V37.147H0Z" transform="translate(501 69.136) rotate(180)" fill="#17987c"/>
    <g id="Group_5" data-name="Group 5" transform="translate(89.429 199.636) rotate(-90)">
      <g id="Group_6" data-name="Group 6" transform="translate(0 384.571)">
        <path id="Path_8" data-name="Path 8" d="M0,0H1V5H0Z" transform="translate(128 1) rotate(-90)" fill="#17987c"/>
        <path id="Path_9" data-name="Path 9" d="M0,0H1V5H0Z" transform="translate(128 53) rotate(-90)" fill="#17987c"/>
        <path id="Path_7" data-name="Path 7" d="M0,0H1V51.5H0Z" transform="translate(130 0.75)" fill="#17987c"/>
      </g>
    </g>
    <text id="_1" data-name="1" transform="translate(497 47.136)" fill="#fff" font-size="14" font-family="SegoeUI-Semibold, Segoe UI" font-weight="600"><tspan x="0" y="0">1</tspan></text>
    <rect id="Container" width="53" height="20" rx="2" transform="translate(474 81)" fill="#d7efcd"/>
    <text id="ACTIVE" transform="translate(482 95)" fill="#376822" font-size="10" font-family="SegoeUI, Segoe UI" letter-spacing="0.1em"><tspan x="0" y="0">ACTIVE</tspan></text>
    <g id="Group_268794" data-name="Group 268794" transform="translate(502.402 -271.953)">
      <path id="Path_1-2" data-name="Path 1" d="M12,0A12,12,0,1,1,0,12,12,12,0,0,1,12,0Z" transform="translate(49.675 350.953)" fill="#17987c"/>
      <path id="Path_3-2" data-name="Path 3" d="M0,0H1V48.155H0Z" transform="translate(67.675 362.453) rotate(90)" fill="#17987c"/>
      <text id="_2" data-name="2" transform="translate(57.675 367.953)" fill="#fff" font-size="14" font-family="SegoeUI-Semibold, Segoe UI" font-weight="600"><tspan x="0" y="0">2</tspan></text>
    </g>
  </g>
</svg>
