<svg xmlns="http://www.w3.org/2000/svg" xmlns:xlink="http://www.w3.org/1999/xlink" width="1000" height="141" viewBox="0 0 1000 141">
  <defs>
    <clipPath id="clip-Anatomy_-_Standard">
      <rect width="1000" height="141"/>
    </clipPath>
  </defs>
  <g id="Anatomy_-_Standard" data-name="Anatomy - Standard" clip-path="url(#clip-Anatomy_-_Standard)">
    <rect width="1000" height="141" fill="#f4f4f6"/>
    <text id="Corvette" transform="translate(337.544 48)" fill="#1a1a1e" stroke="rgba(0,0,0,0)" stroke-width="1" font-size="14" font-family="SegoeUI, Segoe UI"><tspan x="0" y="0">Corvette</tspan></text>
    <text id="Corvette-2" data-name="Corvette" transform="translate(490.544 48)" fill="#1a1a1e" stroke="rgba(0,0,0,0)" stroke-width="1" font-size="14" font-family="SegoeUI, Segoe UI"><tspan x="0" y="0">Corvette</tspan></text>
    <path id="Path_1" data-name="Path 1" d="M12,0A12,12,0,1,1,0,12,12,12,0,0,1,12,0Z" transform="translate(303.456 87)" fill="#17987c"/>
    <path id="Path_101128" data-name="Path 101128" d="M12,0A12,12,0,1,1,0,12,12,12,0,0,1,12,0Z" transform="translate(506.544 87)" fill="#17987c"/>
    <path id="Path_101130" data-name="Path 101130" d="M12,0A12,12,0,1,1,0,12,12,12,0,0,1,12,0Z" transform="translate(641.544 87)" fill="#17987c"/>
    <path id="Path_3" data-name="Path 3" d="M0,0H1V39H0Z" transform="translate(316.544 103) rotate(180)" fill="#17987c"/>
    <path id="Path_101129" data-name="Path 101129" d="M0,0H1V39H0Z" transform="translate(519.631 103) rotate(180)" fill="#17987c"/>
    <path id="Path_101131" data-name="Path 101131" d="M0,0H1V39H0Z" transform="translate(654.631 103) rotate(180)" fill="#17987c"/>
    <g id="Group_5" data-name="Group 5" transform="translate(-47.544 194.5) rotate(-90)">
      <g id="Group_6" data-name="Group 6" transform="translate(0 351)">
        <path id="Path_8" data-name="Path 8" d="M0,0H1V5H0Z" transform="translate(128 1) rotate(-90)" fill="#17987c"/>
        <path id="Path_9" data-name="Path 9" d="M0,0H1V5H0Z" transform="translate(128 24.175) rotate(-90)" fill="#17987c"/>
        <path id="Path_7" data-name="Path 7" d="M0,0H1V22.675H0Z" transform="translate(130 0.75)" fill="#17987c"/>
      </g>
    </g>
    <g id="Group_264479" data-name="Group 264479" transform="translate(141.544 194.5) rotate(-90)">
      <g id="Group_6-2" data-name="Group 6" transform="translate(0 351)">
        <path id="Path_8-2" data-name="Path 8" d="M0,0H1V5H0Z" transform="translate(128 1) rotate(-90)" fill="#17987c"/>
        <path id="Path_9-2" data-name="Path 9" d="M0,0H1V5H0Z" transform="translate(128 51) rotate(-90)" fill="#17987c"/>
        <path id="Path_7-2" data-name="Path 7" d="M0,0H1V49.5H0Z" transform="translate(130 0.75)" fill="#17987c"/>
      </g>
    </g>
    <g id="Group_264480" data-name="Group 264480" transform="translate(258.544 194.5) rotate(-90)">
      <g id="Group_6-3" data-name="Group 6" transform="translate(0 351)">
        <path id="Path_8-3" data-name="Path 8" d="M0,0H1V5H0Z" transform="translate(128 1) rotate(-90)" fill="#17987c"/>
        <path id="Path_9-3" data-name="Path 9" d="M0,0H1V5H0Z" transform="translate(128 87) rotate(-90)" fill="#17987c"/>
        <path id="Path_7-3" data-name="Path 7" d="M0,0H1V85.5H0Z" transform="translate(130 0.75)" fill="#17987c"/>
      </g>
    </g>
    <text id="_1" data-name="1" transform="translate(312.456 104)" fill="#fff" font-size="14" font-family="SegoeUI-Semibold, Segoe UI" font-weight="600"><tspan x="0" y="0">1</tspan></text>
    <text id="_2" data-name="2" transform="translate(514.544 104)" fill="#fff" font-size="14" font-family="SegoeUI-Semibold, Segoe UI" font-weight="600"><tspan x="0" y="0">2</tspan></text>
    <text id="_3" data-name="3" transform="translate(649.544 104)" fill="#fff" font-size="14" font-family="SegoeUI-Semibold, Segoe UI" font-weight="600"><tspan x="0" y="0">3</tspan></text>
    <text id="Corvette-3" data-name="Corvette" transform="translate(643.544 48)" fill="#1a1a1e" stroke="rgba(0,0,0,0)" stroke-width="1" font-size="14" font-family="SegoeUI, Segoe UI"><tspan x="0" y="0">Corvette</tspan></text>
    <g id="Component_26_2" data-name="Component 26 – 2" transform="translate(305.544 32)">
      <g id="Rectangle_10027" data-name="Rectangle 10027" fill="#fff" stroke="#9494a4" stroke-width="2">
        <rect width="20" height="20" rx="1" stroke="none"/>
        <rect x="-1" y="-1" width="22" height="22" rx="2" fill="none"/>
      </g>
    </g>
    <g id="Checked" transform="translate(456.544 30)">
      <path id="Path_5845" data-name="Path 5845" d="M46.2,0h-18a2.971,2.971,0,0,0-3,3V21a2.971,2.971,0,0,0,3,3h18a2.971,2.971,0,0,0,3-3V3A2.971,2.971,0,0,0,46.2,0ZM44.64,8.52l-8.76,8.76a1.16,1.16,0,0,1-1.68,0l-4.32-4.32a1.188,1.188,0,0,1,1.68-1.68l3.48,3.48,7.92-7.92a1.16,1.16,0,0,1,1.68,0A1.442,1.442,0,0,1,44.64,8.52Z" transform="translate(-25.2)" fill="#2777d3"/>
    </g>
    <g id="Component_27_2" data-name="Component 27 – 2" transform="translate(609.544 30)">
      <path id="Subtraction_10" data-name="Subtraction 10" d="M-2398-1078h-18a2.968,2.968,0,0,1-3-3v-18a2.968,2.968,0,0,1,3-3h18a2.968,2.968,0,0,1,3,3v18A2.968,2.968,0,0,1-2398-1078Zm-15.75-13a1.251,1.251,0,0,0-1.25,1.25,1.251,1.251,0,0,0,1.25,1.25h13.5a1.252,1.252,0,0,0,1.25-1.25,1.252,1.252,0,0,0-1.25-1.25Z" transform="translate(2419 1102)" fill="#2777d3"/>
    </g>
  </g>
</svg>
