<svg xmlns="http://www.w3.org/2000/svg" xmlns:xlink="http://www.w3.org/1999/xlink" width="485" height="398" viewBox="0 0 485 398">
  <defs>
    <filter id="Card" x="15.5" y="26.5" width="454" height="346" filterUnits="userSpaceOnUse">
      <feOffset dy="1" input="SourceAlpha"/>
      <feGaussianBlur stdDeviation="1.5" result="blur"/>
      <feFlood flood-opacity="0.161"/>
      <feComposite operator="in" in2="blur"/>
      <feComposite in="SourceGraphic"/>
    </filter>
    <clipPath id="clip-bar_chart_-_dont">
      <rect width="485" height="398"/>
    </clipPath>
  </defs>
  <g id="bar_chart_-_dont" data-name="bar chart - dont" clip-path="url(#clip-bar_chart_-_dont)">
    <rect width="485" height="398" fill="#f4f4f6"/>
    <g id="Card-2" data-name="Card" transform="translate(20 30)">
      <g transform="matrix(1, 0, 0, 1, -20, -30)" filter="url(#Card)">
        <rect id="Card-3" data-name="Card" width="445" height="337" rx="2" transform="translate(20 30)" fill="#fff"/>
      </g>
      <rect id="Card-4" data-name="Card" width="445" height="61" rx="2" fill="#fafafa"/>
      <text id="Top_performing_LOB_-_Quote_volume" data-name="Top performing LOB - Quote volume" transform="translate(20 37)" fill="#31313a" font-size="16" font-family="SegoeUI-Semibold, Segoe UI" font-weight="600"><tspan x="0" y="0">Top performing LOB - Quote volume</tspan></text>
      <line id="Line_27" data-name="Line 27" x2="445" transform="translate(0 61)" fill="none" stroke="#e6e6ea" stroke-width="1"/>
      <g id="External" transform="translate(409 23)">
        <g id="Group_270302" data-name="Group 270302">
          <g id="Group_270301" data-name="Group 270301">
            <path id="Path_101932" data-name="Path 101932" d="M8.169,8.655a.212.212,0,0,0,.3,0l2.642-2.639V7.8a.192.192,0,0,0,.2.2h1.376a.2.2,0,0,0,.2-.2V3.312a.2.2,0,0,0-.2-.2l-4.477,0a.21.21,0,0,0-.21.21V4.689a.2.2,0,0,0,.2.2H9.985L7.342,7.528a.214.214,0,0,0,0,.3Z" fill="#2777d3"/>
            <path id="Path_101933" data-name="Path 101933" d="M15.24,0H4.76A.762.762,0,0,0,4,.76V4H.76A.762.762,0,0,0,0,4.76V15.24A.762.762,0,0,0,.76,16H11.24a.762.762,0,0,0,.76-.76V12h3.24a.762.762,0,0,0,.76-.76V.76A.762.762,0,0,0,15.24,0ZM10.667,14.667H1.333V5.333H4V12h6.667Zm4-4H5.333V1.333h9.334Z" fill="#2777d3"/>
          </g>
          <rect id="Rectangle_11495" data-name="Rectangle 11495" width="16" height="16" transform="translate(0 0)" fill="none"/>
        </g>
      </g>
      <g id="Favorite-empty" transform="translate(373 23)">
        <g id="Group_270307" data-name="Group 270307">
          <path id="Path_101936" data-name="Path 101936" d="M8.8,6.412l.225.691a.332.332,0,0,0,.317.23h3.313L10.561,8.854l-.587.427a.334.334,0,0,0-.122.372l.225.691.8,2.46-2.092-1.52L8.2,10.857a.333.333,0,0,0-.392,0l-.588.427L5.124,12.8l.8-2.46.225-.691a.334.334,0,0,0-.122-.372l-.587-.427L3.346,7.333H6.659a.332.332,0,0,0,.317-.23L7.2,6.412,8,3.952ZM8,.453A.359.359,0,0,0,7.653.7L5.933,6H.366a.365.365,0,0,0-.215.66l4.5,3.272-1.72,5.3a.364.364,0,0,0,.561.408L8,12.363l4.5,3.272a.364.364,0,0,0,.561-.408l-1.72-5.3,4.5-3.272A.365.365,0,0,0,15.634,6H10.067L8.347.7A.359.359,0,0,0,8,.453Z" transform="translate(0)" fill="#2777d3"/>
          <rect id="Rectangle_11503" data-name="Rectangle 11503" width="16" height="16" transform="translate(0)" fill="none"/>
        </g>
      </g>
      <g id="Group_270734" data-name="Group 270734" transform="translate(-89)">
        <rect id="Rectangle_11678" data-name="Rectangle 11678" width="210" height="1" transform="translate(204 81) rotate(90)" fill="#e6e6ea"/>
        <text id="Houston_TX" data-name="Houston, TX" transform="translate(193 236)" fill="#31313a" font-size="12" font-family="SegoeUI, Segoe UI"><tspan x="-64.576" y="0">Houston, TX</tspan></text>
        <text id="Phoenix_AZ" data-name="Phoenix, AZ" transform="translate(193 281)" fill="#31313a" font-size="12" font-family="SegoeUI, Segoe UI"><tspan x="-62.848" y="0">Phoenix, AZ</tspan></text>
        <text id="_0" data-name="$0" transform="translate(203 314)" fill="#31313a" font-size="12" font-family="SegoeUI, Segoe UI"><tspan x="-6.469" y="0">$0</tspan></text>
        <text id="Chicago_IL" data-name="Chicago, IL" transform="translate(193 191)" fill="#31313a" font-size="12" font-family="SegoeUI, Segoe UI"><tspan x="-57.604" y="0">Chicago, IL</tspan></text>
        <text id="Los_Angeles_CA" data-name="Los Angeles, CA" transform="translate(193 146)" fill="#31313a" font-size="12" font-family="SegoeUI, Segoe UI"><tspan x="-84.264" y="0">Los Angeles, CA</tspan></text>
        <text id="Miami_FL" data-name="Miami, FL" transform="translate(193 101)" fill="#31313a" font-size="12" font-family="SegoeUI, Segoe UI"><tspan x="-50.426" y="0">Miami, FL</tspan></text>
        <rect id="Rectangle_11680" data-name="Rectangle 11680" width="210" height="1" transform="translate(443 81) rotate(90)" fill="#e6e6ea"/>
        <text id="_10k" data-name="$10k" transform="translate(324 314)" fill="#31313a" font-size="12" font-family="SegoeUI, Segoe UI"><tspan x="-12.686" y="0">$10k</tspan></text>
        <rect id="Rectangle_11726" data-name="Rectangle 11726" width="210" height="1" transform="translate(324 81) rotate(90)" fill="#e6e6ea"/>
        <text id="_5k" data-name="$5k" transform="translate(263 314)" fill="#31313a" font-size="12" font-family="SegoeUI, Segoe UI"><tspan x="-9.451" y="0">$5k</tspan></text>
        <rect id="Rectangle_11727" data-name="Rectangle 11727" width="210" height="1" transform="translate(503 81) rotate(90)" fill="#e6e6ea"/>
        <text id="_30k" data-name="$30k" transform="translate(502 314)" fill="#31313a" font-size="12" font-family="SegoeUI, Segoe UI"><tspan x="-12.686" y="0">$30k</tspan></text>
        <rect id="Rectangle_11817" data-name="Rectangle 11817" width="210" height="1" transform="translate(383 81) rotate(90)" fill="#e6e6ea"/>
        <rect id="Rectangle_11818" data-name="Rectangle 11818" width="210" height="1" transform="translate(264 81) rotate(90)" fill="#e6e6ea"/>
        <rect id="Rectangle_11682" data-name="Rectangle 11682" width="65" height="30" transform="translate(204 261)" fill="#d93911"/>
        <rect id="Rectangle_11683" data-name="Rectangle 11683" width="104" height="30" transform="translate(204 216)" fill="#f36f12"/>
        <rect id="Rectangle_11684" data-name="Rectangle 11684" width="110" height="30" transform="translate(204 171)" fill="#fbac0e"/>
        <rect id="Rectangle_11685" data-name="Rectangle 11685" width="178" height="30" transform="translate(204 126)" fill="#97c964"/>
        <rect id="Rectangle_11686" data-name="Rectangle 11686" width="270" height="30" transform="translate(204 81)" fill="#30bbb1"/>
        <text id="_15k" data-name="$15k" transform="translate(383 314)" fill="#31313a" font-size="12" font-family="SegoeUI, Segoe UI"><tspan x="-12.686" y="0">$15k</tspan></text>
        <text id="_25k" data-name="$25k" transform="translate(442 314)" fill="#31313a" font-size="12" font-family="SegoeUI, Segoe UI"><tspan x="-12.686" y="0">$25k</tspan></text>
      </g>
    </g>
  </g>
</svg>
