<svg id="_1-1" data-name="1-1" xmlns="http://www.w3.org/2000/svg" width="495" height="283" viewBox="0 0 495 283">
  <rect id="Rectangle_9977" data-name="Rectangle 9977" width="495" height="283" fill="#f4f4f6"/>
  <g id="Breadcrumbs_1" data-name="Breadcrumbs – 1" transform="translate(211.445 133.5)">
    <g id="Symbol_150" data-name="Symbol 150" transform="translate(-58 -112)">
      <path id="Path_101128" data-name="Path 101128" d="M8.873,0H7.6L6.563-2.748H2.406L1.429,0H.15L3.91-9.8H5.1ZM6.187-3.78,4.648-7.957a4,4,0,0,1-.15-.656H4.471a3.661,3.661,0,0,1-.157.656L2.789-3.78Zm8.75,3.459a3.643,3.643,0,0,1-1.914.485A3.169,3.169,0,0,1,10.606-.81a3.53,3.53,0,0,1-.919-2.526,3.881,3.881,0,0,1,.991-2.779,3.467,3.467,0,0,1,2.646-1.049,3.682,3.682,0,0,1,1.627.342v1.148a2.85,2.85,0,0,0-1.668-.547,2.254,2.254,0,0,0-1.76.769,2.918,2.918,0,0,0-.687,2.02,2.779,2.779,0,0,0,.646,1.941,2.227,2.227,0,0,0,1.733.711,2.81,2.81,0,0,0,1.723-.608Zm6.467,0a3.643,3.643,0,0,1-1.914.485A3.169,3.169,0,0,1,17.073-.81a3.53,3.53,0,0,1-.919-2.526,3.881,3.881,0,0,1,.991-2.779A3.467,3.467,0,0,1,19.79-7.164a3.682,3.682,0,0,1,1.627.342v1.148a2.85,2.85,0,0,0-1.668-.547,2.254,2.254,0,0,0-1.76.769,2.918,2.918,0,0,0-.687,2.02,2.779,2.779,0,0,0,.646,1.941,2.227,2.227,0,0,0,1.733.711A2.81,2.81,0,0,0,21.4-1.388Zm4.621.485a3.247,3.247,0,0,1-2.478-.981,3.633,3.633,0,0,1-.926-2.6,3.785,3.785,0,0,1,.964-2.755,3.465,3.465,0,0,1,2.6-.991,3.14,3.14,0,0,1,2.444.964,3.822,3.822,0,0,1,.878,2.673,3.761,3.761,0,0,1-.947,2.683A3.317,3.317,0,0,1,26.024.164Zm.082-6.385a2.132,2.132,0,0,0-1.709.735,3.018,3.018,0,0,0-.629,2.027A2.854,2.854,0,0,0,24.4-1.5a2.161,2.161,0,0,0,1.7.718,2.049,2.049,0,0,0,1.671-.7,3.055,3.055,0,0,0,.584-2,3.108,3.108,0,0,0-.584-2.023A2.04,2.04,0,0,0,26.106-6.221ZM36.962,0H35.841V-1.107h-.027A2.3,2.3,0,0,1,33.653.164q-2.5,0-2.5-2.98V-7h1.114v4.006q0,2.215,1.7,2.215a1.715,1.715,0,0,0,1.35-.6,2.315,2.315,0,0,0,.53-1.583V-7h1.121Zm8.073,0H43.914V-3.992q0-2.229-1.627-2.229a1.765,1.765,0,0,0-1.391.632,2.344,2.344,0,0,0-.55,1.6V0H39.225V-7h1.121v1.162h.027a2.526,2.526,0,0,1,2.3-1.326,2.142,2.142,0,0,1,1.757.742,3.3,3.3,0,0,1,.608,2.143Zm5.359-.068A2.161,2.161,0,0,1,49.349.15Q47.51.15,47.51-1.9V-6.043h-1.2V-7h1.2V-8.709l1.121-.362V-7h1.764v.957H48.631V-2.1a1.635,1.635,0,0,0,.239,1,.955.955,0,0,0,.793.3,1.179,1.179,0,0,0,.731-.232Zm1.073-.185v-1.2a3.318,3.318,0,0,0,2.017.677q1.477,0,1.477-.984a.854.854,0,0,0-.126-.475,1.26,1.26,0,0,0-.342-.345,2.631,2.631,0,0,0-.506-.27q-.291-.12-.625-.25a8.056,8.056,0,0,1-.817-.373,2.468,2.468,0,0,1-.588-.424,1.577,1.577,0,0,1-.355-.537,1.9,1.9,0,0,1-.12-.7,1.673,1.673,0,0,1,.226-.872,2,2,0,0,1,.6-.636,2.805,2.805,0,0,1,.858-.386,3.805,3.805,0,0,1,.995-.13,4.016,4.016,0,0,1,1.627.314v1.135a3.171,3.171,0,0,0-1.777-.506,2.078,2.078,0,0,0-.567.072,1.389,1.389,0,0,0-.434.2.932.932,0,0,0-.28.311.819.819,0,0,0-.1.4.959.959,0,0,0,.1.458,1.008,1.008,0,0,0,.291.328,2.221,2.221,0,0,0,.465.26q.273.116.622.253a8.658,8.658,0,0,1,.834.366,2.86,2.86,0,0,1,.629.424,1.656,1.656,0,0,1,.4.543,1.753,1.753,0,0,1,.14.731,1.725,1.725,0,0,1-.229.9,1.963,1.963,0,0,1-.612.636,2.8,2.8,0,0,1-.882.376,4.354,4.354,0,0,1-1.046.123A3.971,3.971,0,0,1,51.468-.253Z" transform="translate(74 125)" fill="#2777d3"/>
      <g id="Group_8413" data-name="Group 8413" transform="translate(10 4)">
        <rect id="Rectangle_3875" data-name="Rectangle 3875" width="16" height="16" transform="translate(64 108) rotate(90)" fill="none"/>
        <path id="Path_5567" data-name="Path 5567" d="M382.3,13.533l-4.2-4.2,4.2-4.2a.644.644,0,0,0,0-.933h0a.644.644,0,0,0-.933,0l-4.2,4.2-.467.467a.644.644,0,0,0,0,.933l.467.467,4.2,4.2a.644.644,0,0,0,.933,0h0A.643.643,0,0,0,382.3,13.533Z" transform="translate(-323.5 106.667)" fill="#2777d3"/>
      </g>
    </g>
  </g>
</svg>
