<svg xmlns="http://www.w3.org/2000/svg" xmlns:xlink="http://www.w3.org/1999/xlink" width="1000" height="363" viewBox="0 0 1000 363">
  <defs>
    <clipPath id="clip-path">
      <rect id="Rectangle_9975" data-name="Rectangle 9975" width="940" height="303" fill="none" stroke="#707070" stroke-width="1"/>
    </clipPath>
    <filter id="Rectangle_3801" x="305.5" y="215.5" width="1289" height="318" filterUnits="userSpaceOnUse">
      <feOffset dy="1" input="SourceAlpha"/>
      <feGaussianBlur stdDeviation="1.5" result="blur"/>
      <feFlood flood-opacity="0.161"/>
      <feComposite operator="in" in2="blur"/>
      <feComposite in="SourceGraphic"/>
    </filter>
    <clipPath id="clip-path-2">
      <rect width="1280" height="203" fill="none"/>
    </clipPath>
    <clipPath id="clip-path-3">
      <rect width="153" height="237" fill="none"/>
    </clipPath>
    <clipPath id="clip-path-4">
      <rect width="72" height="237" fill="none"/>
    </clipPath>
    <clipPath id="clip-path-5">
      <rect width="153" height="229" fill="none"/>
    </clipPath>
    <clipPath id="clip-Spacing">
      <rect width="1000" height="363"/>
    </clipPath>
  </defs>
  <g id="Spacing" clip-path="url(#clip-Spacing)">
    <rect width="1000" height="363" fill="#f4f4f6"/>
    <g id="Mask_Group_1" data-name="Mask Group 1" transform="translate(30 30)" clip-path="url(#clip-path)">
      <g id="Side_nav" data-name="Side nav" transform="translate(0 -4)">
        <path id="Path_5700" data-name="Path 5700" d="M0-1,249.5,0V1012H0V-1Z" transform="translate(0 70)" fill="#fff"/>
        <g id="Group_9278" data-name="Group 9278" transform="translate(0 1031.5)">
          <rect id="Rectangle_5289" data-name="Rectangle 5289" width="249.5" height="50" transform="translate(0 0.5)" fill="none"/>
          <rect id="Rectangle_5290" data-name="Rectangle 5290" width="249.5" height="1" transform="translate(0 0.5)" fill="#e6e6ea"/>
          <g id="Group_9276" data-name="Group 9276">
            <g id="Group_9274" data-name="Group 9274">
              <text id="Collapse_" data-name="Collapse " transform="translate(59.845 31.5)" fill="#3d3d3d" font-size="14" font-family="SegoeUI, Segoe UI"><tspan x="0" y="0">Collapse </tspan></text>
              <g id="Chevron-left" transform="translate(20 15.5)">
                <g id="Group_8160" data-name="Group 8160">
                  <rect id="Rectangle_5352" data-name="Rectangle 5352" width="20" height="20" fill="none"/>
                  <path id="Path_5827" data-name="Path 5827" d="M18.35,18.75l-1.2,1.2a.25.25,0,0,1-.4,0L12,15.2a.25.25,0,0,1,0-.4l4.75-4.7a.25.25,0,0,1,.4,0l1.2,1.2a.25.25,0,0,1,0,.4L15,15l3.4,3.35a.25.25,0,0,1-.05.4Z" transform="translate(-5.95 -5)" fill="#2f2f2f"/>
                </g>
              </g>
              <rect id="Rectangle_5422" data-name="Rectangle 5422" width="249.5" height="50" fill="none"/>
            </g>
          </g>
        </g>
        <rect id="Rectangle_5301" data-name="Rectangle 5301" width="60" height="50" transform="translate(0 70)" fill="none" opacity="0.3"/>
        <rect id="Rectangle_5317" data-name="Rectangle 5317" width="20" height="20" transform="translate(20 85)" fill="none"/>
        <path id="zui-nav-home" d="M20,10.6H17.5v8.142a.833.833,0,0,1-.833.833H12V14.1H8v5.5H3.333a.833.833,0,0,1-.833-.833V10.6H0L10,.6Z" transform="translate(20 85.4)" fill="#494955"/>
        <g id="Group_9285" data-name="Group 9285" transform="translate(0 120)">
          <path id="Path_101139" data-name="Path 101139" d="M8.873,0H7.6L6.563-2.748H2.406L1.429,0H.15L3.91-9.8H5.1ZM6.187-3.78,4.648-7.957a4,4,0,0,1-.15-.656H4.471a3.661,3.661,0,0,1-.157.656L2.789-3.78Zm8.75,3.459a3.643,3.643,0,0,1-1.914.485A3.169,3.169,0,0,1,10.606-.81a3.53,3.53,0,0,1-.919-2.526,3.881,3.881,0,0,1,.991-2.779,3.467,3.467,0,0,1,2.646-1.049,3.682,3.682,0,0,1,1.627.342v1.148a2.85,2.85,0,0,0-1.668-.547,2.254,2.254,0,0,0-1.76.769,2.918,2.918,0,0,0-.687,2.02,2.779,2.779,0,0,0,.646,1.941,2.227,2.227,0,0,0,1.733.711,2.81,2.81,0,0,0,1.723-.608Zm6.467,0a3.643,3.643,0,0,1-1.914.485A3.169,3.169,0,0,1,17.073-.81a3.53,3.53,0,0,1-.919-2.526,3.881,3.881,0,0,1,.991-2.779A3.467,3.467,0,0,1,19.79-7.164a3.682,3.682,0,0,1,1.627.342v1.148a2.85,2.85,0,0,0-1.668-.547,2.254,2.254,0,0,0-1.76.769,2.918,2.918,0,0,0-.687,2.02,2.779,2.779,0,0,0,.646,1.941,2.227,2.227,0,0,0,1.733.711A2.81,2.81,0,0,0,21.4-1.388Zm4.621.485a3.247,3.247,0,0,1-2.478-.981,3.633,3.633,0,0,1-.926-2.6,3.785,3.785,0,0,1,.964-2.755,3.465,3.465,0,0,1,2.6-.991,3.14,3.14,0,0,1,2.444.964,3.822,3.822,0,0,1,.878,2.673,3.761,3.761,0,0,1-.947,2.683A3.317,3.317,0,0,1,26.024.164Zm.082-6.385a2.132,2.132,0,0,0-1.709.735,3.018,3.018,0,0,0-.629,2.027A2.854,2.854,0,0,0,24.4-1.5a2.161,2.161,0,0,0,1.7.718,2.049,2.049,0,0,0,1.671-.7,3.055,3.055,0,0,0,.584-2,3.108,3.108,0,0,0-.584-2.023A2.04,2.04,0,0,0,26.106-6.221ZM36.962,0H35.841V-1.107h-.027A2.3,2.3,0,0,1,33.653.164q-2.5,0-2.5-2.98V-7h1.114v4.006q0,2.215,1.7,2.215a1.715,1.715,0,0,0,1.35-.6,2.315,2.315,0,0,0,.53-1.583V-7h1.121Zm8.073,0H43.914V-3.992q0-2.229-1.627-2.229a1.765,1.765,0,0,0-1.391.632,2.344,2.344,0,0,0-.55,1.6V0H39.225V-7h1.121v1.162h.027a2.526,2.526,0,0,1,2.3-1.326,2.142,2.142,0,0,1,1.757.742,3.3,3.3,0,0,1,.608,2.143Zm5.359-.068A2.161,2.161,0,0,1,49.349.15Q47.51.15,47.51-1.9V-6.043h-1.2V-7h1.2V-8.709l1.121-.362V-7h1.764v.957H48.631V-2.1a1.635,1.635,0,0,0,.239,1,.955.955,0,0,0,.793.3,1.179,1.179,0,0,0,.731-.232ZM65.666,0H64.545V-4.02A3.032,3.032,0,0,0,64.186-5.7a1.361,1.361,0,0,0-1.207-.52,1.494,1.494,0,0,0-1.22.656,2.511,2.511,0,0,0-.5,1.572V0H60.136V-4.156q0-2.064-1.593-2.064a1.475,1.475,0,0,0-1.217.619,2.557,2.557,0,0,0-.479,1.61V0H55.727V-7h1.121v1.107h.027a2.378,2.378,0,0,1,2.174-1.271,2.027,2.027,0,0,1,1.251.4,2.012,2.012,0,0,1,.731,1.049,2.5,2.5,0,0,1,2.324-1.449q2.311,0,2.311,2.851ZM72.8,0H71.675V-1.094h-.027A2.347,2.347,0,0,1,69.494.164,2.3,2.3,0,0,1,67.857-.39a1.918,1.918,0,0,1-.591-1.47q0-1.962,2.311-2.283l2.1-.294q0-1.784-1.442-1.784a3.446,3.446,0,0,0-2.283.861V-6.508a4.338,4.338,0,0,1,2.379-.656q2.468,0,2.468,2.611ZM71.675-3.541l-1.688.232a2.741,2.741,0,0,0-1.176.386,1.114,1.114,0,0,0-.4.981,1.068,1.068,0,0,0,.366.837,1.413,1.413,0,0,0,.974.325,1.8,1.8,0,0,0,1.377-.584,2.088,2.088,0,0,0,.543-1.48ZM80.719,0H79.6V-3.992q0-2.229-1.627-2.229a1.765,1.765,0,0,0-1.391.632,2.344,2.344,0,0,0-.55,1.6V0H74.908V-7h1.121v1.162h.027a2.526,2.526,0,0,1,2.3-1.326,2.142,2.142,0,0,1,1.757.742,3.3,3.3,0,0,1,.608,2.143Zm7.123,0H86.721V-1.094h-.027A2.347,2.347,0,0,1,84.54.164,2.3,2.3,0,0,1,82.9-.39a1.918,1.918,0,0,1-.591-1.47q0-1.962,2.311-2.283l2.1-.294q0-1.784-1.442-1.784A3.446,3.446,0,0,0,83-5.359V-6.508a4.338,4.338,0,0,1,2.379-.656q2.468,0,2.468,2.611ZM86.721-3.541l-1.688.232a2.741,2.741,0,0,0-1.176.386,1.114,1.114,0,0,0-.4.981,1.068,1.068,0,0,0,.366.837,1.413,1.413,0,0,0,.974.325,1.8,1.8,0,0,0,1.377-.584,2.088,2.088,0,0,0,.543-1.48Zm9.208,2.98q0,3.855-3.691,3.855a4.956,4.956,0,0,1-2.27-.492V1.682a4.661,4.661,0,0,0,2.256.656q2.584,0,2.584-2.748v-.766H94.78A2.622,2.622,0,0,1,92.374.164a2.628,2.628,0,0,1-2.1-.933,3.73,3.73,0,0,1-.8-2.505,4.358,4.358,0,0,1,.858-2.837,2.866,2.866,0,0,1,2.348-1.053,2.282,2.282,0,0,1,2.1,1.135h.027V-7h1.121Zm-1.121-2.6V-4.2a2,2,0,0,0-.564-1.429,1.857,1.857,0,0,0-1.4-.595,1.947,1.947,0,0,0-1.627.755,3.372,3.372,0,0,0-.588,2.116,2.894,2.894,0,0,0,.564,1.87,1.822,1.822,0,0,0,1.494.7,1.951,1.951,0,0,0,1.535-.67A2.5,2.5,0,0,0,94.808-3.165Zm9.017-.055H98.882a2.618,2.618,0,0,0,.629,1.8,2.168,2.168,0,0,0,1.654.636,3.439,3.439,0,0,0,2.174-.779V-.506a4.063,4.063,0,0,1-2.44.67A2.959,2.959,0,0,1,98.567-.79a3.9,3.9,0,0,1-.848-2.683,3.828,3.828,0,0,1,.926-2.663,2.97,2.97,0,0,1,2.3-1.029,2.632,2.632,0,0,1,2.126.889,3.705,3.705,0,0,1,.752,2.468Zm-1.148-.95a2.281,2.281,0,0,0-.468-1.511,1.6,1.6,0,0,0-1.282-.54,1.811,1.811,0,0,0-1.347.567A2.575,2.575,0,0,0,98.9-4.17ZM115.459,0h-1.121V-4.02a3.032,3.032,0,0,0-.359-1.682,1.361,1.361,0,0,0-1.207-.52,1.494,1.494,0,0,0-1.22.656,2.511,2.511,0,0,0-.5,1.572V0h-1.121V-4.156q0-2.064-1.593-2.064a1.475,1.475,0,0,0-1.217.619,2.557,2.557,0,0,0-.479,1.61V0H105.52V-7h1.121v1.107h.027a2.378,2.378,0,0,1,2.174-1.271,2.027,2.027,0,0,1,1.251.4,2.012,2.012,0,0,1,.731,1.049,2.5,2.5,0,0,1,2.324-1.449q2.311,0,2.311,2.851ZM123.2-3.22h-4.942a2.618,2.618,0,0,0,.629,1.8,2.168,2.168,0,0,0,1.654.636,3.439,3.439,0,0,0,2.174-.779V-.506a4.063,4.063,0,0,1-2.44.67,2.959,2.959,0,0,1-2.331-.954,3.9,3.9,0,0,1-.848-2.683,3.828,3.828,0,0,1,.926-2.663,2.97,2.97,0,0,1,2.3-1.029,2.632,2.632,0,0,1,2.126.889,3.705,3.705,0,0,1,.752,2.468Zm-1.148-.95a2.281,2.281,0,0,0-.468-1.511,1.6,1.6,0,0,0-1.282-.54,1.811,1.811,0,0,0-1.347.567,2.575,2.575,0,0,0-.684,1.483ZM130.71,0h-1.121V-3.992q0-2.229-1.627-2.229a1.765,1.765,0,0,0-1.391.632,2.344,2.344,0,0,0-.55,1.6V0H124.9V-7h1.121v1.162h.027a2.526,2.526,0,0,1,2.3-1.326,2.142,2.142,0,0,1,1.757.742,3.3,3.3,0,0,1,.608,2.143Zm5.359-.068a2.162,2.162,0,0,1-1.046.219q-1.839,0-1.839-2.051V-6.043h-1.2V-7h1.2V-8.709l1.121-.362V-7h1.764v.957h-1.764V-2.1a1.635,1.635,0,0,0,.239,1,.955.955,0,0,0,.793.3,1.179,1.179,0,0,0,.731-.232Z" transform="translate(59.737 31)" fill="#31313a"/>
          <g id="Accounts" transform="translate(20 16)">
            <g id="Group_8145" data-name="Group 8145">
              <circle id="Ellipse_6" data-name="Ellipse 6" cx="3.167" cy="3.167" r="3.167" transform="translate(6.833)" fill="#31313a"/>
              <path id="Path_5793" data-name="Path 5793" d="M14.55,11.615v8.75H8.3v-8.75a3.5,3.5,0,0,1,6.25,0Z" transform="translate(-1.383 -1.615)" fill="#31313a"/>
              <circle id="Ellipse_7" data-name="Ellipse 7" cx="2.833" cy="2.833" r="2.833" transform="translate(14.333 0.583)" fill="#31313a"/>
              <path id="Path_5794" data-name="Path 5794" d="M22.883,11.237v7.833H17.3V11.237a3.046,3.046,0,0,1,5.583,0Z" transform="translate(-2.883 -1.571)" fill="#31313a"/>
              <circle id="Ellipse_8" data-name="Ellipse 8" cx="2.833" cy="2.833" r="2.833" transform="translate(0 0.583)" fill="#31313a"/>
              <path id="Path_5795" data-name="Path 5795" d="M5.667,11.249v7.833H0V11.249a3.167,3.167,0,0,1,1.417-1.5A3.083,3.083,0,0,1,2.75,9.5a3.083,3.083,0,0,1,1.417.25,3.167,3.167,0,0,1,1.5,1.5Z" transform="translate(0 -1.582)" fill="#31313a"/>
            </g>
          </g>
          <rect id="Rectangle_3681" data-name="Rectangle 3681" width="249.5" height="50" fill="none"/>
          <g id="Chevron-down" transform="translate(214.5 15)">
            <g id="Group_8144" data-name="Group 8144">
              <rect id="Rectangle_5318" data-name="Rectangle 5318" width="20" height="20" fill="none"/>
              <path id="Path_5792" data-name="Path 5792" d="M18.75,15.072l1.2,1.2a.25.25,0,0,1,0,.4l-4.75,4.75a.25.25,0,0,1-.4,0l-4.7-4.75a.25.25,0,0,1,0-.4l1.2-1.2a.25.25,0,0,1,.4,0l3.3,3.35,3.35-3.4a.25.25,0,0,1,.4.05Z" transform="translate(-5 -7.472)" fill="#494955"/>
            </g>
          </g>
        </g>
        <g id="Group_264128" data-name="Group 264128" transform="translate(0 170)">
          <path id="Path_101138" data-name="Path 101138" d="M5.236.164A4.327,4.327,0,0,1,1.894-1.21,5.1,5.1,0,0,1,.643-4.785,5.384,5.384,0,0,1,1.921-8.559,4.478,4.478,0,0,1,5.4-9.967,4.209,4.209,0,0,1,8.668-8.6,5.106,5.106,0,0,1,9.912-5.024,5.417,5.417,0,0,1,8.641-1.23,3.773,3.773,0,0,1,8-.656l2.755,1.976H8.668L6.822-.062A5.314,5.314,0,0,1,5.236.164Zm.082-9.092A3.16,3.16,0,0,0,2.81-7.813a4.314,4.314,0,0,0-.964,2.926,4.384,4.384,0,0,0,.937,2.919,3.08,3.08,0,0,0,2.454,1.1A3.218,3.218,0,0,0,7.779-1.921a4.3,4.3,0,0,0,.93-2.946,4.479,4.479,0,0,0-.9-3A3.094,3.094,0,0,0,5.318-8.928ZM17.35,0H16.229V-1.107H16.2A2.3,2.3,0,0,1,14.041.164q-2.5,0-2.5-2.98V-7h1.114v4.006q0,2.215,1.7,2.215a1.715,1.715,0,0,0,1.35-.6,2.315,2.315,0,0,0,.53-1.583V-7H17.35Zm5.188.164A3.247,3.247,0,0,1,20.06-.817a3.633,3.633,0,0,1-.926-2.6A3.785,3.785,0,0,1,20.1-6.173a3.465,3.465,0,0,1,2.6-.991,3.14,3.14,0,0,1,2.444.964,3.822,3.822,0,0,1,.878,2.673,3.761,3.761,0,0,1-.947,2.683A3.317,3.317,0,0,1,22.538.164Zm.082-6.385a2.132,2.132,0,0,0-1.709.735,3.018,3.018,0,0,0-.629,2.027A2.854,2.854,0,0,0,20.918-1.5a2.161,2.161,0,0,0,1.7.718,2.049,2.049,0,0,0,1.671-.7,3.055,3.055,0,0,0,.584-2,3.108,3.108,0,0,0-.584-2.023A2.04,2.04,0,0,0,22.62-6.221ZM31.063-.068A2.161,2.161,0,0,1,30.017.15Q28.178.15,28.178-1.9V-6.043h-1.2V-7h1.2V-8.709L29.3-9.071V-7h1.764v.957H29.3V-2.1a1.635,1.635,0,0,0,.239,1,.955.955,0,0,0,.793.3,1.179,1.179,0,0,0,.731-.232Zm2.071-8.709a.71.71,0,0,1-.513-.205.692.692,0,0,1-.212-.52.7.7,0,0,1,.212-.523.7.7,0,0,1,.513-.208.724.724,0,0,1,.523.208.7.7,0,0,1,.215.523.693.693,0,0,1-.215.513A.718.718,0,0,1,33.134-8.777ZM33.681,0H32.56V-7h1.121Zm8.08,0H40.64V-3.992q0-2.229-1.627-2.229a1.765,1.765,0,0,0-1.391.632,2.344,2.344,0,0,0-.55,1.6V0H35.95V-7h1.121v1.162H37.1a2.526,2.526,0,0,1,2.3-1.326,2.142,2.142,0,0,1,1.757.742,3.3,3.3,0,0,1,.608,2.143Zm8.087-.561q0,3.855-3.691,3.855a4.956,4.956,0,0,1-2.27-.492V1.682a4.661,4.661,0,0,0,2.256.656q2.584,0,2.584-2.748v-.766H48.7A2.622,2.622,0,0,1,46.293.164a2.628,2.628,0,0,1-2.1-.933,3.73,3.73,0,0,1-.8-2.505,4.358,4.358,0,0,1,.858-2.837A2.866,2.866,0,0,1,46.6-7.164a2.282,2.282,0,0,1,2.1,1.135h.027V-7h1.121Zm-1.121-2.6V-4.2a2,2,0,0,0-.564-1.429,1.857,1.857,0,0,0-1.4-.595,1.947,1.947,0,0,0-1.627.755,3.372,3.372,0,0,0-.588,2.116,2.894,2.894,0,0,0,.564,1.87,1.822,1.822,0,0,0,1.494.7,1.951,1.951,0,0,0,1.535-.67A2.5,2.5,0,0,0,48.727-3.165ZM60.963,0H59.842V-1.094h-.027A2.347,2.347,0,0,1,57.661.164,2.3,2.3,0,0,1,56.024-.39a1.918,1.918,0,0,1-.591-1.47q0-1.962,2.311-2.283l2.1-.294q0-1.784-1.442-1.784a3.446,3.446,0,0,0-2.283.861V-6.508A4.338,4.338,0,0,1,58.5-7.164q2.468,0,2.468,2.611ZM59.842-3.541l-1.688.232a2.741,2.741,0,0,0-1.176.386,1.114,1.114,0,0,0-.4.981,1.068,1.068,0,0,0,.366.837,1.413,1.413,0,0,0,.974.325A1.8,1.8,0,0,0,59.3-1.364a2.088,2.088,0,0,0,.543-1.48ZM68.886,0H67.765V-3.992q0-2.229-1.627-2.229a1.765,1.765,0,0,0-1.391.632,2.344,2.344,0,0,0-.55,1.6V0H63.075V-7H64.2v1.162h.027a2.526,2.526,0,0,1,2.3-1.326,2.142,2.142,0,0,1,1.757.742,3.3,3.3,0,0,1,.608,2.143Zm8.087,0H75.852V-1.189h-.027A2.588,2.588,0,0,1,73.418.164a2.615,2.615,0,0,1-2.109-.94,3.856,3.856,0,0,1-.79-2.56,4.2,4.2,0,0,1,.875-2.782,2.886,2.886,0,0,1,2.331-1.046,2.244,2.244,0,0,1,2.1,1.135h.027v-4.334h1.121ZM75.852-3.165V-4.2a2,2,0,0,0-.561-1.436,1.88,1.88,0,0,0-1.422-.588,1.936,1.936,0,0,0-1.613.752,3.3,3.3,0,0,0-.588,2.078,2.964,2.964,0,0,0,.564,1.911,1.843,1.843,0,0,0,1.514.7,1.915,1.915,0,0,0,1.521-.677A2.521,2.521,0,0,0,75.852-3.165Zm10.876-2.7a1.371,1.371,0,0,0-.848-.226,1.431,1.431,0,0,0-1.2.677A3.129,3.129,0,0,0,84.2-3.568V0H83.077V-7H84.2v1.442h.027a2.444,2.444,0,0,1,.731-1.152,1.668,1.668,0,0,1,1.1-.414,1.83,1.83,0,0,1,.67.1ZM93.57-3.22H88.628a2.618,2.618,0,0,0,.629,1.8,2.168,2.168,0,0,0,1.654.636,3.439,3.439,0,0,0,2.174-.779V-.506a4.063,4.063,0,0,1-2.44.67A2.959,2.959,0,0,1,88.313-.79a3.9,3.9,0,0,1-.848-2.683,3.828,3.828,0,0,1,.926-2.663,2.97,2.97,0,0,1,2.3-1.029,2.632,2.632,0,0,1,2.126.889,3.705,3.705,0,0,1,.752,2.468Zm-1.148-.95a2.281,2.281,0,0,0-.468-1.511,1.6,1.6,0,0,0-1.282-.54,1.811,1.811,0,0,0-1.347.567,2.575,2.575,0,0,0-.684,1.483ZM101.076,0H99.955V-3.992q0-2.229-1.627-2.229a1.765,1.765,0,0,0-1.391.632,2.344,2.344,0,0,0-.55,1.6V0H95.266V-7h1.121v1.162h.027a2.526,2.526,0,0,1,2.3-1.326,2.142,2.142,0,0,1,1.757.742,3.3,3.3,0,0,1,.608,2.143Zm7.738-3.22h-4.942a2.618,2.618,0,0,0,.629,1.8,2.168,2.168,0,0,0,1.654.636,3.439,3.439,0,0,0,2.174-.779V-.506a4.063,4.063,0,0,1-2.44.67,2.959,2.959,0,0,1-2.331-.954,3.9,3.9,0,0,1-.848-2.683,3.828,3.828,0,0,1,.926-2.663,2.97,2.97,0,0,1,2.3-1.029,2.632,2.632,0,0,1,2.126.889,3.705,3.705,0,0,1,.752,2.468Zm-1.148-.95a2.281,2.281,0,0,0-.468-1.511,1.6,1.6,0,0,0-1.282-.54,1.811,1.811,0,0,0-1.347.567,2.575,2.575,0,0,0-.684,1.483ZM119.328-7l-2.1,7h-1.162l-1.442-5.011a3.265,3.265,0,0,1-.109-.649h-.027a3.066,3.066,0,0,1-.144.636L112.779,0h-1.121l-2.119-7h1.176l1.449,5.264a3.171,3.171,0,0,1,.1.629h.055a2.942,2.942,0,0,1,.123-.643L114.051-7h1.025l1.449,5.277a3.768,3.768,0,0,1,.1.629h.055a2.909,2.909,0,0,1,.116-.629L118.221-7Zm6.31,7h-1.121V-1.094h-.027A2.347,2.347,0,0,1,122.336.164,2.3,2.3,0,0,1,120.7-.39a1.918,1.918,0,0,1-.591-1.47q0-1.962,2.311-2.283l2.1-.294q0-1.784-1.442-1.784a3.446,3.446,0,0,0-2.283.861V-6.508a4.338,4.338,0,0,1,2.379-.656q2.468,0,2.468,2.611Zm-1.121-3.541-1.688.232a2.741,2.741,0,0,0-1.176.386,1.114,1.114,0,0,0-.4.981,1.068,1.068,0,0,0,.366.837,1.413,1.413,0,0,0,.974.325,1.8,1.8,0,0,0,1.377-.584,2.088,2.088,0,0,0,.543-1.48ZM128.871,0H127.75V-10.363h1.121Zm1.846-.253v-1.2a3.318,3.318,0,0,0,2.017.677q1.477,0,1.477-.984a.854.854,0,0,0-.126-.475,1.26,1.26,0,0,0-.342-.345,2.631,2.631,0,0,0-.506-.27q-.291-.12-.625-.25a8.056,8.056,0,0,1-.817-.373,2.468,2.468,0,0,1-.588-.424,1.577,1.577,0,0,1-.355-.537,1.9,1.9,0,0,1-.12-.7,1.673,1.673,0,0,1,.226-.872,2,2,0,0,1,.6-.636,2.805,2.805,0,0,1,.858-.386,3.805,3.805,0,0,1,.995-.13,4.016,4.016,0,0,1,1.627.314v1.135a3.171,3.171,0,0,0-1.777-.506,2.078,2.078,0,0,0-.567.072,1.389,1.389,0,0,0-.434.2.932.932,0,0,0-.28.311.819.819,0,0,0-.1.4.959.959,0,0,0,.1.458,1.008,1.008,0,0,0,.291.328,2.221,2.221,0,0,0,.465.26q.273.116.622.253a8.658,8.658,0,0,1,.834.366,2.86,2.86,0,0,1,.629.424,1.656,1.656,0,0,1,.4.543,1.753,1.753,0,0,1,.14.731,1.725,1.725,0,0,1-.229.9,1.963,1.963,0,0,1-.612.636,2.8,2.8,0,0,1-.882.376,4.354,4.354,0,0,1-1.046.123A3.971,3.971,0,0,1,130.717-.253Z" transform="translate(59.737 31)" fill="#31313a"/>
          <rect id="Rectangle_3681-2" data-name="Rectangle 3681" width="249.5" height="50" fill="none"/>
          <g id="Chevron-down-2" data-name="Chevron-down" transform="translate(234.5 35) rotate(180)">
            <g id="Group_8144-2" data-name="Group 8144">
              <rect id="Rectangle_5318-2" data-name="Rectangle 5318" width="20" height="20" fill="none"/>
              <path id="Path_5792-2" data-name="Path 5792" d="M8.75.128l1.2,1.2a.25.25,0,0,1,0,.4L5.2,6.478a.25.25,0,0,1-.4,0L.1,1.728a.25.25,0,0,1,0-.4L1.3.128a.25.25,0,0,1,.4,0L5,3.478,8.35.078a.25.25,0,0,1,.4.05Z" transform="translate(5 7.472)" fill="#494955"/>
            </g>
          </g>
          <g id="Group_264129" data-name="Group 264129" transform="translate(20 15)">
            <path id="Path_101122" data-name="Path 101122" d="M17.361.835v18.33a.835.835,0,0,1-.835.835h-5.01V18.088c1.8-.343,3.223-1.378,3.223-3.274,0-2.613-2.246-3.507-4.334-4.05S7.641,9.654,7.641,8.785c0-1.01.927-1.712,2.505-1.712s2.246.785,2.305,1.938h2.037A3.675,3.675,0,0,0,11.532,5.5V3.483H8.685V5.47c-1.779.392-3.224,1.553-3.224,3.34,0,2.13,1.762,3.19,4.334,3.816,2.305.552,2.764,1.362,2.764,2.222,0,.634-.45,1.67-2.505,1.67-1.895,0-2.647-.835-2.747-1.938H5.294a3.864,3.864,0,0,0,3.391,3.533V20H3.474a.835.835,0,0,1-.835-.835V.835A.835.835,0,0,1,3.474,0H16.5a.836.836,0,0,1,.86.81Z" transform="translate(0 0)" fill="#2777d3"/>
            <rect id="Rectangle_9750" data-name="Rectangle 9750" width="20" height="20" transform="translate(0 0)" fill="none"/>
          </g>
        </g>
        <g id="Group_264130" data-name="Group 264130" transform="translate(0 220)">
          <text id="Quotes" transform="translate(59.853 26.871)" fill="#2777d3" font-size="14" font-family="SegoeUI-Semibold, Segoe UI" font-weight="600"><tspan x="0" y="0">Quotes</tspan></text>
          <rect id="Rectangle_3681-3" data-name="Rectangle 3681" width="249.5" height="42" fill="none"/>
        </g>
        <g id="Group_264131" data-name="Group 264131" transform="translate(0 262)">
          <path id="Path_101141" data-name="Path 101141" d="M8.313,0H6.945L5.3-2.748A5.985,5.985,0,0,0,4.867-3.4a2.494,2.494,0,0,0-.434-.441,1.5,1.5,0,0,0-.479-.25,1.968,1.968,0,0,0-.578-.079H2.434V0H1.285V-9.8H4.211A4.17,4.17,0,0,1,5.4-9.642a2.654,2.654,0,0,1,.943.489,2.271,2.271,0,0,1,.625.817,2.709,2.709,0,0,1,.226,1.145,2.757,2.757,0,0,1-.154.94,2.455,2.455,0,0,1-.437.762,2.652,2.652,0,0,1-.684.571,3.49,3.49,0,0,1-.9.366v.027a2.068,2.068,0,0,1,.427.25,2.351,2.351,0,0,1,.345.332,4.391,4.391,0,0,1,.325.434q.161.243.359.564ZM2.434-8.764v3.555H3.992a2.364,2.364,0,0,0,.8-.13,1.844,1.844,0,0,0,.632-.373,1.689,1.689,0,0,0,.417-.595,1.991,1.991,0,0,0,.15-.79,1.537,1.537,0,0,0-.509-1.227,2.188,2.188,0,0,0-1.473-.441ZM14.725-3.22H9.782a2.618,2.618,0,0,0,.629,1.8,2.168,2.168,0,0,0,1.654.636,3.439,3.439,0,0,0,2.174-.779V-.506a4.063,4.063,0,0,1-2.44.67A2.959,2.959,0,0,1,9.468-.79,3.9,3.9,0,0,1,8.62-3.473a3.828,3.828,0,0,1,.926-2.663,2.97,2.97,0,0,1,2.3-1.029,2.632,2.632,0,0,1,2.126.889,3.705,3.705,0,0,1,.752,2.468Zm-1.148-.95a2.281,2.281,0,0,0-.468-1.511,1.6,1.6,0,0,0-1.282-.54,1.811,1.811,0,0,0-1.347.567A2.575,2.575,0,0,0,9.8-4.17ZM22.23,0H21.109V-3.992q0-2.229-1.627-2.229a1.765,1.765,0,0,0-1.391.632,2.344,2.344,0,0,0-.55,1.6V0H16.42V-7h1.121v1.162h.027a2.526,2.526,0,0,1,2.3-1.326,2.142,2.142,0,0,1,1.757.742,3.3,3.3,0,0,1,.608,2.143Zm7.738-3.22H25.026a2.618,2.618,0,0,0,.629,1.8,2.168,2.168,0,0,0,1.654.636,3.439,3.439,0,0,0,2.174-.779V-.506a4.063,4.063,0,0,1-2.44.67A2.959,2.959,0,0,1,24.712-.79a3.9,3.9,0,0,1-.848-2.683,3.828,3.828,0,0,1,.926-2.663,2.97,2.97,0,0,1,2.3-1.029,2.632,2.632,0,0,1,2.126.889,3.705,3.705,0,0,1,.752,2.468ZM28.82-4.17a2.281,2.281,0,0,0-.468-1.511,1.6,1.6,0,0,0-1.282-.54,1.811,1.811,0,0,0-1.347.567A2.575,2.575,0,0,0,25.04-4.17ZM40.482-7l-2.1,7H37.222L35.779-5.011a3.265,3.265,0,0,1-.109-.649h-.027a3.066,3.066,0,0,1-.144.636L33.934,0H32.813L30.693-7h1.176l1.449,5.264a3.171,3.171,0,0,1,.1.629h.055a2.942,2.942,0,0,1,.123-.643L35.205-7H36.23L37.68-1.723a3.767,3.767,0,0,1,.1.629h.055a2.909,2.909,0,0,1,.116-.629L39.375-7Zm6.31,7H45.671V-1.094h-.027A2.347,2.347,0,0,1,43.49.164,2.3,2.3,0,0,1,41.853-.39a1.918,1.918,0,0,1-.591-1.47q0-1.962,2.311-2.283l2.1-.294q0-1.784-1.442-1.784a3.446,3.446,0,0,0-2.283.861V-6.508a4.338,4.338,0,0,1,2.379-.656q2.468,0,2.468,2.611ZM45.671-3.541l-1.688.232a2.741,2.741,0,0,0-1.176.386,1.114,1.114,0,0,0-.4.981,1.068,1.068,0,0,0,.366.837,1.413,1.413,0,0,0,.974.325,1.8,1.8,0,0,0,1.377-.584,2.088,2.088,0,0,0,.543-1.48ZM50.025,0H48.9V-10.363h1.121Zm7.253-1.012h-.027V3.22H56.13V-7h1.121v1.23h.027A2.651,2.651,0,0,1,59.7-7.164a2.563,2.563,0,0,1,2.112.94,3.893,3.893,0,0,1,.759,2.519,4.339,4.339,0,0,1-.854,2.813A2.845,2.845,0,0,1,59.377.164,2.342,2.342,0,0,1,57.278-1.012Zm-.027-2.823v.978a2.081,2.081,0,0,0,.564,1.473,1.873,1.873,0,0,0,1.432.6,1.876,1.876,0,0,0,1.6-.779,3.575,3.575,0,0,0,.578-2.167,2.822,2.822,0,0,0-.54-1.832,1.787,1.787,0,0,0-1.463-.663,1.986,1.986,0,0,0-1.572.68A2.5,2.5,0,0,0,57.251-3.835Zm10.76-2.03a1.371,1.371,0,0,0-.848-.226,1.431,1.431,0,0,0-1.2.677,3.129,3.129,0,0,0-.482,1.846V0H64.36V-7h1.121v1.442h.027a2.444,2.444,0,0,1,.731-1.152,1.668,1.668,0,0,1,1.1-.414,1.83,1.83,0,0,1,.67.1ZM74.854-3.22H69.911a2.618,2.618,0,0,0,.629,1.8,2.168,2.168,0,0,0,1.654.636,3.439,3.439,0,0,0,2.174-.779V-.506a4.063,4.063,0,0,1-2.44.67A2.959,2.959,0,0,1,69.6-.79a3.9,3.9,0,0,1-.848-2.683,3.828,3.828,0,0,1,.926-2.663,2.97,2.97,0,0,1,2.3-1.029,2.632,2.632,0,0,1,2.126.889,3.705,3.705,0,0,1,.752,2.468Zm-1.148-.95a2.281,2.281,0,0,0-.468-1.511,1.6,1.6,0,0,0-1.282-.54,1.811,1.811,0,0,0-1.347.567,2.575,2.575,0,0,0-.684,1.483Zm2.42,3.917v-1.2a3.318,3.318,0,0,0,2.017.677q1.477,0,1.477-.984a.854.854,0,0,0-.126-.475,1.26,1.26,0,0,0-.342-.345,2.631,2.631,0,0,0-.506-.27q-.291-.12-.625-.25a8.056,8.056,0,0,1-.817-.373,2.468,2.468,0,0,1-.588-.424,1.577,1.577,0,0,1-.355-.537,1.9,1.9,0,0,1-.12-.7,1.673,1.673,0,0,1,.226-.872,2,2,0,0,1,.6-.636,2.805,2.805,0,0,1,.858-.386,3.805,3.805,0,0,1,.995-.13,4.016,4.016,0,0,1,1.627.314v1.135a3.171,3.171,0,0,0-1.777-.506,2.078,2.078,0,0,0-.567.072,1.389,1.389,0,0,0-.434.2.932.932,0,0,0-.28.311.819.819,0,0,0-.1.4.959.959,0,0,0,.1.458,1.008,1.008,0,0,0,.291.328,2.221,2.221,0,0,0,.465.26q.273.116.622.253a8.658,8.658,0,0,1,.834.366,2.86,2.86,0,0,1,.629.424,1.656,1.656,0,0,1,.4.543,1.753,1.753,0,0,1,.14.731,1.725,1.725,0,0,1-.229.9,1.963,1.963,0,0,1-.612.636,2.8,2.8,0,0,1-.882.376A4.354,4.354,0,0,1,78,.164,3.971,3.971,0,0,1,76.125-.253ZM88.115-3.22H83.173a2.618,2.618,0,0,0,.629,1.8,2.168,2.168,0,0,0,1.654.636,3.439,3.439,0,0,0,2.174-.779V-.506a4.063,4.063,0,0,1-2.44.67A2.959,2.959,0,0,1,82.858-.79a3.9,3.9,0,0,1-.848-2.683,3.828,3.828,0,0,1,.926-2.663,2.97,2.97,0,0,1,2.3-1.029,2.632,2.632,0,0,1,2.126.889,3.705,3.705,0,0,1,.752,2.468Zm-1.148-.95A2.281,2.281,0,0,0,86.5-5.681a1.6,1.6,0,0,0-1.282-.54,1.811,1.811,0,0,0-1.347.567,2.575,2.575,0,0,0-.684,1.483ZM95.621,0H94.5V-3.992q0-2.229-1.627-2.229a1.765,1.765,0,0,0-1.391.632,2.344,2.344,0,0,0-.55,1.6V0H89.811V-7h1.121v1.162h.027a2.526,2.526,0,0,1,2.3-1.326,2.142,2.142,0,0,1,1.757.742,3.3,3.3,0,0,1,.608,2.143Zm5.359-.068A2.161,2.161,0,0,1,99.935.15Q98.1.15,98.1-1.9V-6.043h-1.2V-7h1.2V-8.709l1.121-.362V-7h1.764v.957H99.217V-2.1a1.635,1.635,0,0,0,.239,1,.955.955,0,0,0,.793.3,1.179,1.179,0,0,0,.731-.232ZM107.488,0h-1.121V-1.094h-.027A2.347,2.347,0,0,1,104.187.164a2.3,2.3,0,0,1-1.637-.554,1.918,1.918,0,0,1-.591-1.47q0-1.962,2.311-2.283l2.1-.294q0-1.784-1.442-1.784a3.446,3.446,0,0,0-2.283.861V-6.508a4.338,4.338,0,0,1,2.379-.656q2.468,0,2.468,2.611Zm-1.121-3.541-1.688.232a2.741,2.741,0,0,0-1.176.386,1.114,1.114,0,0,0-.4.981,1.068,1.068,0,0,0,.366.837,1.413,1.413,0,0,0,.974.325,1.8,1.8,0,0,0,1.377-.584,2.088,2.088,0,0,0,.543-1.48Zm6.48,3.473A2.161,2.161,0,0,1,111.8.15q-1.839,0-1.839-2.051V-6.043h-1.2V-7h1.2V-8.709l1.121-.362V-7h1.764v.957h-1.764V-2.1a1.635,1.635,0,0,0,.239,1,.955.955,0,0,0,.793.3,1.179,1.179,0,0,0,.731-.232Zm2.071-8.709a.71.71,0,0,1-.513-.205.692.692,0,0,1-.212-.52.7.7,0,0,1,.212-.523.7.7,0,0,1,.513-.208.724.724,0,0,1,.523.208.7.7,0,0,1,.215.523.693.693,0,0,1-.215.513A.718.718,0,0,1,114.919-8.777ZM115.466,0h-1.121V-7h1.121Zm5.2.164a3.247,3.247,0,0,1-2.478-.981,3.633,3.633,0,0,1-.926-2.6,3.785,3.785,0,0,1,.964-2.755,3.465,3.465,0,0,1,2.6-.991,3.14,3.14,0,0,1,2.444.964,3.822,3.822,0,0,1,.878,2.673A3.761,3.761,0,0,1,123.2-.844,3.317,3.317,0,0,1,120.661.164Zm.082-6.385a2.132,2.132,0,0,0-1.709.735,3.018,3.018,0,0,0-.629,2.027,2.854,2.854,0,0,0,.636,1.962,2.161,2.161,0,0,0,1.7.718,2.049,2.049,0,0,0,1.671-.7,3.055,3.055,0,0,0,.584-2,3.108,3.108,0,0,0-.584-2.023A2.04,2.04,0,0,0,120.743-6.221ZM131.749,0h-1.121V-3.992q0-2.229-1.627-2.229a1.765,1.765,0,0,0-1.391.632,2.344,2.344,0,0,0-.55,1.6V0h-1.121V-7h1.121v1.162h.027a2.526,2.526,0,0,1,2.3-1.326,2.142,2.142,0,0,1,1.757.742,3.3,3.3,0,0,1,.608,2.143Zm10.719-.321a3.643,3.643,0,0,1-1.914.485,3.169,3.169,0,0,1-2.417-.974,3.53,3.53,0,0,1-.919-2.526,3.881,3.881,0,0,1,.991-2.779,3.468,3.468,0,0,1,2.646-1.049,3.682,3.682,0,0,1,1.627.342v1.148a2.85,2.85,0,0,0-1.668-.547,2.254,2.254,0,0,0-1.76.769,2.918,2.918,0,0,0-.687,2.02,2.779,2.779,0,0,0,.646,1.941,2.227,2.227,0,0,0,1.733.711,2.81,2.81,0,0,0,1.723-.608Zm5.346-5.544a1.371,1.371,0,0,0-.848-.226,1.431,1.431,0,0,0-1.2.677,3.129,3.129,0,0,0-.482,1.846V0h-1.121V-7h1.121v1.442h.027a2.444,2.444,0,0,1,.731-1.152,1.668,1.668,0,0,1,1.1-.414,1.83,1.83,0,0,1,.67.1Zm6.843,2.646h-4.942a2.618,2.618,0,0,0,.629,1.8A2.168,2.168,0,0,0,152-.779a3.439,3.439,0,0,0,2.174-.779V-.506a4.063,4.063,0,0,1-2.44.67A2.959,2.959,0,0,1,149.4-.79a3.9,3.9,0,0,1-.848-2.683,3.828,3.828,0,0,1,.926-2.663,2.97,2.97,0,0,1,2.3-1.029,2.632,2.632,0,0,1,2.126.889,3.705,3.705,0,0,1,.752,2.468Zm-1.148-.95a2.281,2.281,0,0,0-.468-1.511,1.6,1.6,0,0,0-1.282-.54,1.811,1.811,0,0,0-1.347.567,2.575,2.575,0,0,0-.684,1.483ZM161.362,0h-1.121V-1.094h-.027A2.347,2.347,0,0,1,158.061.164a2.3,2.3,0,0,1-1.637-.554,1.918,1.918,0,0,1-.591-1.47q0-1.962,2.311-2.283l2.1-.294q0-1.784-1.442-1.784a3.446,3.446,0,0,0-2.283.861V-6.508a4.338,4.338,0,0,1,2.379-.656q2.468,0,2.468,2.611Zm-1.121-3.541-1.688.232a2.741,2.741,0,0,0-1.176.386,1.114,1.114,0,0,0-.4.981,1.068,1.068,0,0,0,.366.837,1.413,1.413,0,0,0,.974.325,1.8,1.8,0,0,0,1.377-.584,2.088,2.088,0,0,0,.543-1.48Zm6.48,3.473a2.162,2.162,0,0,1-1.046.219q-1.839,0-1.839-2.051V-6.043h-1.2V-7h1.2V-8.709l1.121-.362V-7h1.764v.957h-1.764V-2.1a1.635,1.635,0,0,0,.239,1,.955.955,0,0,0,.793.3,1.179,1.179,0,0,0,.731-.232Zm4.423.232a3.247,3.247,0,0,1-2.478-.981,3.634,3.634,0,0,1-.926-2.6,3.785,3.785,0,0,1,.964-2.755,3.465,3.465,0,0,1,2.6-.991,3.14,3.14,0,0,1,2.444.964,3.822,3.822,0,0,1,.878,2.673,3.761,3.761,0,0,1-.947,2.683A3.317,3.317,0,0,1,171.145.164Zm.082-6.385a2.132,2.132,0,0,0-1.709.735,3.018,3.018,0,0,0-.629,2.027,2.854,2.854,0,0,0,.636,1.962,2.161,2.161,0,0,0,1.7.718,2.049,2.049,0,0,0,1.671-.7,3.055,3.055,0,0,0,.584-2A3.108,3.108,0,0,0,172.9-5.51,2.04,2.04,0,0,0,171.227-6.221Zm8.846.355a1.371,1.371,0,0,0-.848-.226,1.431,1.431,0,0,0-1.2.677,3.129,3.129,0,0,0-.482,1.846V0h-1.121V-7h1.121v1.442h.027a2.444,2.444,0,0,1,.731-1.152,1.668,1.668,0,0,1,1.1-.414,1.83,1.83,0,0,1,.67.1Z" transform="translate(59.5 26.871)" fill="#31313a"/>
          <rect id="Rectangle_3681-4" data-name="Rectangle 3681" width="249.5" height="42" fill="none"/>
        </g>
        <g id="Group_11709" data-name="Group 11709" transform="translate(0 304)">
          <text id="Prospecting" transform="translate(59.831 31)" fill="#31313a" font-size="14" font-family="SegoeUI, Segoe UI"><tspan x="0" y="0">Prospecting</tspan></text>
          <rect id="Rectangle_3681-5" data-name="Rectangle 3681" width="249.5" height="50" fill="none"/>
          <g id="Chevron-down-3" data-name="Chevron-down" transform="translate(214.5 15)">
            <g id="Group_8144-3" data-name="Group 8144">
              <rect id="Rectangle_5318-3" data-name="Rectangle 5318" width="20" height="20" fill="none"/>
              <path id="Path_5792-3" data-name="Path 5792" d="M18.75,15.072l1.2,1.2a.25.25,0,0,1,0,.4l-4.75,4.75a.25.25,0,0,1-.4,0l-4.7-4.75a.25.25,0,0,1,0-.4l1.2-1.2a.25.25,0,0,1,.4,0l3.3,3.35,3.35-3.4a.25.25,0,0,1,.4.05Z" transform="translate(-5 -7.472)" fill="#494955"/>
            </g>
          </g>
          <g id="Group_264122" data-name="Group 264122" transform="translate(20 16)">
            <path id="Path_101116" data-name="Path 101116" d="M3,11" transform="translate(0 -1.833)" fill="#383a45"/>
            <path id="Path_101117" data-name="Path 101117" d="M3,11" transform="translate(0 -1.833)" fill="#383a45"/>
            <g id="Group_264121" data-name="Group 264121">
              <g id="Group_264120" data-name="Group 264120" transform="translate(0 2.008)">
                <path id="Path_101118" data-name="Path 101118" d="M19.992,13.933a1.567,1.567,0,0,0,.008-.2,3.342,3.342,0,0,0-.183-1.085,1.487,1.487,0,0,0-.083-.2,2.632,2.632,0,0,0-.183-.372L15.942,5.466a2.436,2.436,0,0,0-2.15-1.224,2.612,2.612,0,0,0-.833.139A2.455,2.455,0,0,0,11.583,5.6,1.585,1.585,0,0,1,10,6.372,1.6,1.6,0,0,1,8.417,5.6,2.6,2.6,0,0,0,7.042,4.381a2.612,2.612,0,0,0-.833-.139,2.436,2.436,0,0,0-2.15,1.224L.45,12.074a2.632,2.632,0,0,0-.183.372,1.487,1.487,0,0,0-.083.2A3.341,3.341,0,0,0,0,13.731a1.567,1.567,0,0,0,.008.2v.015a1.167,1.167,0,0,0-.008.17,4.029,4.029,0,0,0,4.167,3.873,4.029,4.029,0,0,0,4.167-3.873,2.877,2.877,0,0,0-.067-.651A2.588,2.588,0,0,0,10,14.119a2.551,2.551,0,0,0,1.725-.651,3.325,3.325,0,0,0-.058.651,4.029,4.029,0,0,0,4.167,3.873A4.029,4.029,0,0,0,20,14.119a1.168,1.168,0,0,0-.008-.17Zm-15.825,2.5a2.411,2.411,0,0,1-2.493-2.318A2.411,2.411,0,0,1,4.167,11.8,2.411,2.411,0,0,1,6.66,14.119,2.411,2.411,0,0,1,4.167,16.437Zm11.667,0a2.411,2.411,0,0,1-2.493-2.318A2.411,2.411,0,0,1,15.833,11.8a2.411,2.411,0,0,1,2.493,2.318A2.411,2.411,0,0,1,15.833,16.437Z" transform="translate(0 -2.008)" fill="#494955"/>
                <g id="Group_264118" data-name="Group 264118" transform="translate(4.899)">
                  <path id="Path_101119" data-name="Path 101119" d="M8.792,3.482a3.848,3.848,0,0,1,1.244.782,2,2,0,0,0-3.884-.87l-.033.1A3.89,3.89,0,0,1,8.792,3.482Z" transform="translate(-6.119 -2.008)" fill="#494955"/>
                </g>
                <g id="Group_264119" data-name="Group 264119" transform="translate(11.208)">
                  <path id="Path_101120" data-name="Path 101120" d="M15.193,3.488a3.91,3.91,0,0,1,2.746.016l-.035-.11a2,2,0,0,0-3.892.835A4.031,4.031,0,0,1,15.193,3.488Z" transform="translate(-14 -2.008)" fill="#494955"/>
                </g>
              </g>
              <rect id="Rectangle_9737" data-name="Rectangle 9737" width="20" height="20" fill="none"/>
            </g>
          </g>
        </g>
        <g id="Group_11711" data-name="Group 11711" transform="translate(0 354)">
          <text id="Marketing" transform="translate(59.84 31)" fill="#31313a" font-size="14" font-family="SegoeUI, Segoe UI"><tspan x="0" y="0">Marketing</tspan></text>
          <rect id="Rectangle_3681-6" data-name="Rectangle 3681" width="249.5" height="50" fill="none"/>
          <g id="Chevron-down-4" data-name="Chevron-down" transform="translate(214.5 15)">
            <g id="Group_8144-4" data-name="Group 8144">
              <rect id="Rectangle_5318-4" data-name="Rectangle 5318" width="20" height="20" fill="none"/>
              <path id="Path_5792-4" data-name="Path 5792" d="M18.75,15.072l1.2,1.2a.25.25,0,0,1,0,.4l-4.75,4.75a.25.25,0,0,1-.4,0l-4.7-4.75a.25.25,0,0,1,0-.4l1.2-1.2a.25.25,0,0,1,.4,0l3.3,3.35,3.35-3.4a.25.25,0,0,1,.4.05Z" transform="translate(-5 -7.472)" fill="#494955"/>
            </g>
          </g>
          <g id="Group_264117" data-name="Group 264117" transform="translate(20 16)">
            <path id="Path_101115" data-name="Path 101115" d="M18.575,3H1.425A1.425,1.425,0,0,0,0,4.425V14.908a1.425,1.425,0,0,0,1.425,1.425h17.15A1.425,1.425,0,0,0,20,14.908V4.425A1.425,1.425,0,0,0,18.575,3Zm.288,3.006-8.518,5.129a.657.657,0,0,1-.184.067c-.01,0-.018.007-.028.01a1.771,1.771,0,0,1-.266,0c-.01,0-.018-.008-.027-.01a.652.652,0,0,1-.185-.067L1.137,6.006a.617.617,0,0,1-.208-.86.649.649,0,0,1,.881-.2l7.975,4.8a.42.42,0,0,0,.43,0l7.975-4.8a.649.649,0,0,1,.881.2A.617.617,0,0,1,18.863,6.006Z" fill="#494955"/>
            <rect id="Rectangle_9736" data-name="Rectangle 9736" width="20" height="20" fill="none"/>
          </g>
        </g>
        <g id="Group_11712" data-name="Group 11712" transform="translate(0 404)">
          <text id="Reporting" transform="translate(59.841 31)" fill="#31313a" font-size="14" font-family="SegoeUI, Segoe UI"><tspan x="0" y="0">Reporting</tspan></text>
          <rect id="Rectangle_3681-7" data-name="Rectangle 3681" width="249.5" height="50" fill="none"/>
          <g id="Reports" transform="translate(19.945 15)">
            <path id="Path_5831" data-name="Path 5831" d="M17.215,19.96H0V11.976a.333.333,0,0,1,.333-.333H4.158a.333.333,0,0,1,.333.333V17.3H6.4V7.568a.333.333,0,0,1,.333-.333h3.826a.333.333,0,0,1,.333.333V17.3h1.913V.333A.333.333,0,0,1,13.14,0h3.826A.333.333,0,0,1,17.3.333h0Z" transform="translate(0 0)" fill="#494955"/>
          </g>
          <g id="Chevron-down-5" data-name="Chevron-down" transform="translate(214.5 15)">
            <g id="Group_8144-5" data-name="Group 8144">
              <rect id="Rectangle_5318-5" data-name="Rectangle 5318" width="20" height="20" fill="none"/>
              <path id="Path_5792-5" data-name="Path 5792" d="M18.75,15.072l1.2,1.2a.25.25,0,0,1,0,.4l-4.75,4.75a.25.25,0,0,1-.4,0l-4.7-4.75a.25.25,0,0,1,0-.4l1.2-1.2a.25.25,0,0,1,.4,0l3.3,3.35,3.35-3.4a.25.25,0,0,1,.4.05Z" transform="translate(-5 -7.472)" fill="#494955"/>
            </g>
          </g>
        </g>
        <g id="Group_11713" data-name="Group 11713" transform="translate(0 931)">
          <text id="Settings" transform="translate(59.85 31)" fill="#31313a" font-size="14" font-family="SegoeUI, Segoe UI"><tspan x="0" y="0">Settings</tspan></text>
          <rect id="Rectangle_3681-8" data-name="Rectangle 3681" width="249.5" height="50" fill="none"/>
          <g id="Group_8155" data-name="Group 8155" transform="translate(20 15)">
            <rect id="Rectangle_5334" data-name="Rectangle 5334" width="20" height="20" fill="none"/>
            <g id="GearSettings" transform="translate(0 0)">
              <path id="Path_5826" data-name="Path 5826" d="M18.784,12.583l-1.25-.75A7.667,7.667,0,0,0,17.784,10a8.167,8.167,0,0,0-.25-1.75l1.333-.75A.833.833,0,0,0,19.2,6.333h0L17.534,3.5a.917.917,0,0,0-1.167-.333l-1.25.75a7.917,7.917,0,0,0-2.833-1.583V.833A.833.833,0,0,0,11.451,0H8.117a.833.833,0,0,0-.833.833v1.5a8,8,0,0,0-2.917,1.5l-1.25-.75a.833.833,0,0,0-1.167.25h0L.284,6.167A.833.833,0,0,0,.451,7.333h0l1.25.75a7.833,7.833,0,0,0,0,3.583L.451,12.5a.833.833,0,0,0-.333,1.167h0L1.784,16.5a.833.833,0,0,0,1.167.333h.083L4.367,16a8,8,0,0,0,2.75,1.583v1.583A.833.833,0,0,0,7.951,20h3.333a.833.833,0,0,0,.833-.833V17.583a7.75,7.75,0,0,0,2.667-1.5l1.333.833a.833.833,0,0,0,1.167-.25h.083l1.75-2.833a.833.833,0,0,0-.25-1.167Zm-11.583.5A4,4,0,0,1,5.7,10.5a4.083,4.083,0,0,1,0-.583,4.917,4.917,0,0,1,0-.5A4,4,0,0,1,7.117,6.833L8.2,6.167a3.917,3.917,0,0,1,1.417-.25,3.833,3.833,0,0,1,1.5.25L12.2,6.75a3.917,3.917,0,0,1,1.5,2.667,4.084,4.084,0,0,1,0,.5,3.5,3.5,0,0,1,0,.583,4.083,4.083,0,0,1-2.667,3.167l-1.333.25-1.333-.25a4,4,0,0,1-1.25-.583Z" fill="#494955"/>
            </g>
          </g>
        </g>
        <rect id="Rectangle_4697" data-name="Rectangle 4697" width="249.5" height="50" transform="translate(0.5 70.5)" fill="none"/>
        <g id="Group_11714" data-name="Group 11714" transform="translate(0.5 981.5)">
          <g id="Group_11663" data-name="Group 11663" transform="translate(19.5 15.5)">
            <text id="Help_and_Training" data-name="Help and Training" transform="translate(40 16)" fill="#3d3d3d" font-size="14" font-family="SegoeUI, Segoe UI"><tspan x="0" y="0">Help and Training</tspan></text>
            <g id="Group_8157" data-name="Group 8157">
              <rect id="Rectangle_5332" data-name="Rectangle 5332" width="20" height="20" fill="none"/>
              <g id="HelpTraining" transform="translate(1 0)">
                <path id="Path_5824" data-name="Path 5824" d="M11.942.5A9.085,9.085,0,0,0,6.024.5a8.919,8.919,0,0,0-2.417,1.25l-.583.5-.333.333A9,9,0,0,0,9.025,18h.5l-.417,1.667A.25.25,0,0,0,9.275,20h.083a10.28,10.28,0,0,0,8.669-10V9A9,9,0,0,0,11.942.5ZM9.108,15.916a1.25,1.25,0,1,1,1.25-1.25h0A1.25,1.25,0,0,1,9.108,15.916Zm2.667-6.752-1.084.917c-.667.5-.667.5-.667,1.334H8.108A3,3,0,0,1,9.442,8.581l.917-.834a2.167,2.167,0,0,0,.25-2.251,1.584,1.584,0,0,0-1.584-1c-1.75,0-1.917,1.917-1.917,2.167l-2-.167a4.057,4.057,0,0,1,4-4,3.584,3.584,0,0,1,3.417,2.251,4.084,4.084,0,0,1-.75,4.418Z" transform="translate(0)" fill="#494955"/>
              </g>
            </g>
          </g>
          <rect id="Rectangle_5956" data-name="Rectangle 5956" width="249.5" height="50" fill="none"/>
        </g>
        <path id="Path_101140" data-name="Path 101140" d="M8.654,0H7.506V-4.471H2.434V0H1.285V-9.8H2.434v4.3H7.506V-9.8H8.654ZM14,.164a3.247,3.247,0,0,1-2.478-.981,3.634,3.634,0,0,1-.926-2.6,3.785,3.785,0,0,1,.964-2.755,3.465,3.465,0,0,1,2.6-.991,3.14,3.14,0,0,1,2.444.964,3.822,3.822,0,0,1,.878,2.673A3.761,3.761,0,0,1,16.54-.844,3.317,3.317,0,0,1,14,.164Zm.082-6.385a2.132,2.132,0,0,0-1.709.735,3.018,3.018,0,0,0-.629,2.027A2.854,2.854,0,0,0,12.38-1.5a2.161,2.161,0,0,0,1.7.718,2.049,2.049,0,0,0,1.671-.7,3.055,3.055,0,0,0,.584-2,3.108,3.108,0,0,0-.584-2.023A2.04,2.04,0,0,0,14.082-6.221ZM29.217,0H28.1V-4.02A3.032,3.032,0,0,0,27.737-5.7a1.361,1.361,0,0,0-1.207-.52,1.494,1.494,0,0,0-1.22.656,2.511,2.511,0,0,0-.5,1.572V0H23.687V-4.156q0-2.064-1.593-2.064a1.475,1.475,0,0,0-1.217.619,2.557,2.557,0,0,0-.479,1.61V0H19.277V-7H20.4v1.107h.027A2.378,2.378,0,0,1,22.6-7.164a2.027,2.027,0,0,1,1.251.4,2.012,2.012,0,0,1,.731,1.049,2.5,2.5,0,0,1,2.324-1.449q2.311,0,2.311,2.851Zm7.745-3.22H32.02a2.618,2.618,0,0,0,.629,1.8A2.168,2.168,0,0,0,34.3-.779a3.439,3.439,0,0,0,2.174-.779V-.506a4.063,4.063,0,0,1-2.44.67A2.959,2.959,0,0,1,31.705-.79a3.9,3.9,0,0,1-.848-2.683,3.828,3.828,0,0,1,.926-2.663,2.97,2.97,0,0,1,2.3-1.029,2.632,2.632,0,0,1,2.126.889,3.705,3.705,0,0,1,.752,2.468Zm-1.148-.95a2.281,2.281,0,0,0-.468-1.511,1.6,1.6,0,0,0-1.282-.54,1.811,1.811,0,0,0-1.347.567,2.575,2.575,0,0,0-.684,1.483Z" transform="translate(59.859 101)" fill="#3d3d3d"/>
      </g>
      <g id="Header">
        <g id="Zywave_header" data-name="Zywave header">
          <rect id="Rectangle_1" data-name="Rectangle 1" width="1920" height="60" fill="#fff"/>
          <path id="Path_5690" data-name="Path 5690" d="M0,0H1920V5H0Z" transform="translate(0 60)" fill="#2777d3"/>
          <g id="Group_8109" data-name="Group 8109" transform="translate(-176.611 -32.669)">
            <g id="Group_8108" data-name="Group 8108">
              <path id="Path_5691" data-name="Path 5691" d="M340.587,52.669l-6.541,14.446L327.5,52.669h-2.616l9.16,20.259,9.167-20.259Z" fill="#8b8d8e"/>
              <path id="Path_5692" data-name="Path 5692" d="M322.153,72.928h2.623L315.63,52.669h-1l-9.146,20.259h2.629l2.006-4.484h10.028Zm-10.965-6.865,3.938-8.684,3.938,8.684Z" fill="#8b8d8e"/>
              <path id="Path_5693" data-name="Path 5693" d="M350.18,63.606h7.281V61.216H350.18V55.048H358.1l1.27-2.379H347.79V72.928h10.328l1.27-2.439H350.18Z" fill="#8b8d8e"/>
              <path id="Path_5694" data-name="Path 5694" d="M303.177,52.669l-6.49,14.446-5.8-12.689-5.748,12.689-6.285-14.446h-3.9l-3.5,7.735,1.313,2.9,4.02-8.874,8.353,18.494,5.748-12.713,5.8,12.713,9.107-20.259Z" fill="#8b8d8e"/>
              <path id="Path_5695" data-name="Path 5695" d="M245,70.511l11.6-17.834h-14.06l-1.085,2.373H252.21l-11.6,17.834h15.978l1.073-2.373Z" fill="#8b8d8e"/>
            </g>
            <path id="Path_5696" data-name="Path 5696" d="M265.319,52.669h-5.2l5.856,13-5.856,13h5.2l5.894-13Z" fill="#739600"/>
          </g>
          <g id="Group_70" data-name="Group 70" transform="translate(-4.8)">
            <rect id="Rectangle_2" data-name="Rectangle 2" width="390" height="42" rx="2" transform="translate(254.8 9)" fill="#fff"/>
            <path id="Rectangle_2_-_Outline" data-name="Rectangle 2 - Outline" d="M2,1A1,1,0,0,0,1,2V40a1,1,0,0,0,1,1H388a1,1,0,0,0,1-1V2a1,1,0,0,0-1-1H2M2,0H388a2,2,0,0,1,2,2V40a2,2,0,0,1-2,2H2a2,2,0,0,1-2-2V2A2,2,0,0,1,2,0Z" transform="translate(254.8 9)" fill="#dbdbdb"/>
            <text id="Search" transform="translate(268.8 36)" fill="#c6c6c6" font-size="14" font-family="OpenSans-Regular, Open Sans"><tspan x="0" y="0">Search</tspan></text>
            <path id="Rectangle_3" data-name="Rectangle 3" d="M0,0H47a1,1,0,0,1,1,1V39a1,1,0,0,1-1,1H0a0,0,0,0,1,0,0V0A0,0,0,0,1,0,0Z" transform="translate(595.8 10)" fill="#fafafa"/>
            <rect id="Rectangle_4" data-name="Rectangle 4" width="1" height="40" transform="translate(595.8 10)" fill="#ebebeb"/>
            <path id="Path_3" data-name="Path 3" d="M303.8,258.3l-5-5a6.354,6.354,0,0,0,1.1-4.9,6.471,6.471,0,0,0-5.6-5.3,6.53,6.53,0,0,0-2,12.9,6.914,6.914,0,0,0,4.9-1.1l5,5a1.088,1.088,0,0,0,1.5,0A1.222,1.222,0,0,0,303.8,258.3Zm-14.7-9.5a4.458,4.458,0,0,1,3.7-3.7,4.57,4.57,0,0,1,5.2,5.2,4.458,4.458,0,0,1-3.7,3.7A4.609,4.609,0,0,1,289.1,248.8Z" transform="translate(324.8 -222.052)" fill="#5786bd"/>
            <path id="Path_4" data-name="Path 4" d="M284.1,240h24v24h-24Z" transform="translate(327.8 -222)" fill="none"/>
            <rect id="Rectangle_6" data-name="Rectangle 6" width="24" height="24" transform="translate(611.8 18)" fill="none"/>
            <rect id="Rectangle_7" data-name="Rectangle 7" width="24" height="24" transform="translate(571.8 18)" fill="none"/>
          </g>
          <g id="Group_13998" data-name="Group 13998" transform="translate(183 -944)">
            <path id="Path_401" data-name="Path 401" d="M172,94.5v3a.472.472,0,0,1-.5.5h-3a.472.472,0,0,1-.5-.5v-3a.472.472,0,0,1,.5-.5h3A.472.472,0,0,1,172,94.5Zm5.5-.5h-3a.472.472,0,0,0-.5.5v3a.472.472,0,0,0,.5.5h3a.472.472,0,0,0,.5-.5v-3A.472.472,0,0,0,177.5,94Zm-6,12h-3a.472.472,0,0,0-.5.5v3a.472.472,0,0,0,.5.5h3a.472.472,0,0,0,.5-.5v-3A.472.472,0,0,0,171.5,106Zm12-12h-3a.472.472,0,0,0-.5.5v3a.472.472,0,0,0,.5.5h3a.472.472,0,0,0,.5-.5v-3A.472.472,0,0,0,183.5,94Zm-12,6h-3a.472.472,0,0,0-.5.5v3a.472.472,0,0,0,.5.5h3a.472.472,0,0,0,.5-.5v-3A.472.472,0,0,0,171.5,100Zm6,0h-3a.472.472,0,0,0-.5.5v3a.472.472,0,0,0,.5.5h3a.472.472,0,0,0,.5-.5v-3A.472.472,0,0,0,177.5,100Zm0,6h-3a.472.472,0,0,0-.5.5v3a.472.472,0,0,0,.5.5h3a.472.472,0,0,0,.5-.5v-3A.472.472,0,0,0,177.5,106Zm6-6h-3a.472.472,0,0,0-.5.5v3a.472.472,0,0,0,.5.5h3a.472.472,0,0,0,.5-.5v-3A.472.472,0,0,0,183.5,100Zm0,6h-3a.472.472,0,0,0-.5.5v3a.472.472,0,0,0,.5.5h3a.472.472,0,0,0,.5-.5v-3A.472.472,0,0,0,183.5,106Z" transform="translate(-327 872)" fill="#9494a4"/>
            <rect id="Rectangle_190" data-name="Rectangle 190" width="24" height="24" transform="translate(-163 962)" fill="none"/>
          </g>
        </g>
        <g id="Group_13999" data-name="Group 13999" transform="translate(640)">
          <rect id="Rectangle_5392" data-name="Rectangle 5392" width="208" height="60" transform="translate(1072)" fill="none"/>
          <g id="Group_8927" data-name="Group 8927" transform="translate(255)">
            <text id="Adam_Gilson" data-name="Adam Gilson" transform="translate(970 29)" fill="#494955" font-size="14" font-family="SegoeUI-Semibold, Segoe UI" font-weight="600"><tspan x="-81.033" y="0">Adam Gilson</tspan></text>
          </g>
          <circle id="Ellipse_402" data-name="Ellipse 402" cx="18" cy="18" r="18" transform="translate(1234 13)" fill="#78788c"/>
          <text id="Willis_Insurance_-_Nashville" data-name="Willis Insurance - Nashville" transform="translate(1225 45)" fill="#494955" font-size="12" font-family="SegoeUI, Segoe UI"><tspan x="-141.047" y="0">Willis Insurance - Nashville</tspan></text>
          <text id="AG" transform="translate(1243 36)" fill="#fff" font-size="14" font-family="SegoeUI-Semibold, Segoe UI" font-weight="600"><tspan x="0" y="0">AG</tspan></text>
        </g>
      </g>
      <path id="Path_101135" data-name="Path 101135" d="M17.2,0H13.889L12.251-4.634H5.091L3.517,0H.216L7.033-18.205h3.4ZM11.451-7.1,8.925-14.358A8.6,8.6,0,0,1,8.684-15.5H8.633a7.432,7.432,0,0,1-.254,1.143L5.878-7.1ZM19.7,0V-18.205h5.776a6.826,6.826,0,0,1,4.183,1.155,3.591,3.591,0,0,1,1.542,3.009,4.3,4.3,0,0,1-.876,2.691A4.726,4.726,0,0,1,27.9-9.725v.051a4.751,4.751,0,0,1,3,1.39A4.234,4.234,0,0,1,32.03-5.23a4.585,4.585,0,0,1-1.841,3.783A7.288,7.288,0,0,1,25.543,0Zm3.009-15.78v5.18h1.955a3.755,3.755,0,0,0,2.469-.743,2.577,2.577,0,0,0,.9-2.1q0-2.336-3.123-2.336Zm0,7.6v5.764h2.577A3.919,3.919,0,0,0,27.9-3.193a2.671,2.671,0,0,0,.92-2.152q0-2.831-3.923-2.831ZM48.1-.762A11.036,11.036,0,0,1,42.986.3a8.366,8.366,0,0,1-6.348-2.5A9.113,9.113,0,0,1,34.252-8.76a9.557,9.557,0,0,1,2.685-7.059,9.186,9.186,0,0,1,6.786-2.691,11.121,11.121,0,0,1,4.38.749v3a7.816,7.816,0,0,0-4.062-1.092,6.376,6.376,0,0,0-4.792,1.892,6.949,6.949,0,0,0-1.834,5.053A6.627,6.627,0,0,0,39.127-4.12a5.965,5.965,0,0,0,4.507,1.784A8.069,8.069,0,0,0,48.1-3.555Zm23.3,0A11.036,11.036,0,0,1,66.282.3a8.366,8.366,0,0,1-6.348-2.5A9.113,9.113,0,0,1,57.548-8.76a9.557,9.557,0,0,1,2.685-7.059,9.186,9.186,0,0,1,6.786-2.691,11.121,11.121,0,0,1,4.38.749v3a7.816,7.816,0,0,0-4.062-1.092,6.376,6.376,0,0,0-4.792,1.892,6.949,6.949,0,0,0-1.834,5.053A6.627,6.627,0,0,0,62.423-4.12,5.965,5.965,0,0,0,66.93-2.336,8.069,8.069,0,0,0,71.4-3.555ZM80.285.3A6.444,6.444,0,0,1,75.48-1.517a6.581,6.581,0,0,1-1.8-4.831,6.848,6.848,0,0,1,1.873-5.116A6.886,6.886,0,0,1,80.6-13.3a6.237,6.237,0,0,1,4.748,1.79,6.915,6.915,0,0,1,1.7,4.964,6.813,6.813,0,0,1-1.834,4.983A6.589,6.589,0,0,1,80.285.3Zm.14-11.261A3.362,3.362,0,0,0,77.7-9.75a5.05,5.05,0,0,0-1,3.326,4.756,4.756,0,0,0,1.016,3.218,3.411,3.411,0,0,0,2.717,1.174A3.237,3.237,0,0,0,83.1-3.187a5.114,5.114,0,0,0,.933-3.288A5.191,5.191,0,0,0,83.1-9.788,3.221,3.221,0,0,0,80.425-10.956ZM109.484,0h-2.945V-7.084a5.741,5.741,0,0,0-.578-2.958,2.125,2.125,0,0,0-1.949-.914A2.348,2.348,0,0,0,102.051-9.8a4.714,4.714,0,0,0-.806,2.768V0H98.287V-7.325q0-3.631-2.564-3.631a2.313,2.313,0,0,0-1.961,1.092,4.814,4.814,0,0,0-.768,2.831V0H90.048V-13h2.945v2.057h.051a4.5,4.5,0,0,1,4.1-2.361,3.866,3.866,0,0,1,2.355.743,3.7,3.7,0,0,1,1.377,1.949,4.639,4.639,0,0,1,4.316-2.691q4.291,0,4.291,5.294Zm6.589-1.917h-.051v7.9h-2.945V-13h2.945v2.285h.051a4.827,4.827,0,0,1,4.418-2.59,4.654,4.654,0,0,1,3.859,1.739,7.3,7.3,0,0,1,1.384,4.672,8.1,8.1,0,0,1-1.562,5.205A5.165,5.165,0,0,1,119.907.267,4.26,4.26,0,0,1,116.073-1.917ZM116-7.046v1.612a3.44,3.44,0,0,0,.908,2.412,2.989,2.989,0,0,0,2.3.99,3.01,3.01,0,0,0,2.571-1.276,5.938,5.938,0,0,0,.933-3.561,4.679,4.679,0,0,0-.87-3,2.858,2.858,0,0,0-2.355-1.085,3.173,3.173,0,0,0-2.533,1.117A4.138,4.138,0,0,0,116-7.046ZM138.417,0h-2.856V-2.031h-.051A4.3,4.3,0,0,1,131.562.3a4.159,4.159,0,0,1-3-1.041,3.641,3.641,0,0,1-1.085-2.755q0-3.682,4.24-4.291l3.859-.546q0-2.78-2.641-2.78a6.273,6.273,0,0,0-4.189,1.6v-2.577a9.136,9.136,0,0,1,4.748-1.219q4.926,0,4.926,4.85Zm-2.844-6.386L132.844-6a4.326,4.326,0,0,0-1.911.616,1.8,1.8,0,0,0-.641,1.581,1.73,1.73,0,0,0,.59,1.352,2.286,2.286,0,0,0,1.581.527,2.916,2.916,0,0,0,2.228-.946,3.353,3.353,0,0,0,.882-2.38ZM153.588,0h-2.945V-7.325q0-3.644-2.577-3.644a2.814,2.814,0,0,0-2.222,1.009,3.744,3.744,0,0,0-.876,2.545V0H142.01V-13h2.958v2.158h.051a4.633,4.633,0,0,1,4.215-2.463,3.925,3.925,0,0,1,3.237,1.377,6.185,6.185,0,0,1,1.117,3.98Zm14.854-13L162.576,2.082q-1.828,4.037-5.129,4.037a6.15,6.15,0,0,1-1.549-.165V3.5a4.119,4.119,0,0,0,1.27.229,2.62,2.62,0,0,0,2.463-1.625l.876-2.133L155.34-13H158.6l3.1,9.445q.051.178.229.939h.063q.063-.292.229-.914L165.471-13ZM189.363,5.979h-2.945V-2.234h-.051A4.553,4.553,0,0,1,182.013.3a4.764,4.764,0,0,1-3.853-1.746A7.2,7.2,0,0,1,176.706-6.2a7.889,7.889,0,0,1,1.593-5.173,5.262,5.262,0,0,1,4.285-1.936,4,4,0,0,1,3.783,2.107h.051V-13h2.945Zm-2.907-11.9V-7.592a3.379,3.379,0,0,0-.908-2.387,3.008,3.008,0,0,0-2.3-.978,3.087,3.087,0,0,0-2.583,1.225,5.552,5.552,0,0,0-.946,3.459,4.812,4.812,0,0,0,.914,3.11,2.9,2.9,0,0,0,2.361,1.13,3.147,3.147,0,0,0,2.526-1.1A4.141,4.141,0,0,0,186.456-5.916ZM204.547,0H201.6V-2.057h-.051A4.239,4.239,0,0,1,197.564.3q-4.608,0-4.608-5.535V-13H195.9v7.465q0,3.5,2.7,3.5A2.732,2.732,0,0,0,200.757-3a3.7,3.7,0,0,0,.844-2.526V-13h2.945Zm9.6.3a6.444,6.444,0,0,1-4.805-1.822,6.581,6.581,0,0,1-1.8-4.831,6.848,6.848,0,0,1,1.873-5.116,6.886,6.886,0,0,1,5.046-1.841,6.237,6.237,0,0,1,4.748,1.79,6.915,6.915,0,0,1,1.7,4.964,6.813,6.813,0,0,1-1.834,4.983A6.589,6.589,0,0,1,214.145.3Zm.14-11.261a3.362,3.362,0,0,0-2.729,1.206,5.05,5.05,0,0,0-1,3.326,4.756,4.756,0,0,0,1.016,3.218,3.411,3.411,0,0,0,2.717,1.174,3.237,3.237,0,0,0,2.672-1.155,5.114,5.114,0,0,0,.933-3.288,5.191,5.191,0,0,0-.933-3.313A3.221,3.221,0,0,0,214.284-10.956ZM230.763-.14a5.1,5.1,0,0,1-2.272.432q-3.783,0-3.783-3.631v-7.351h-2.171V-13h2.171v-3.009l2.945-.838V-13h3.11v2.311h-3.11v6.5a2.561,2.561,0,0,0,.419,1.65,1.739,1.739,0,0,0,1.4.5,2.025,2.025,0,0,0,1.295-.432ZM244.156-5.7h-8.861a3.746,3.746,0,0,0,1.111,2.78,4.133,4.133,0,0,0,2.914.978,6.425,6.425,0,0,0,3.821-1.244V-.812A8.73,8.73,0,0,1,238.443.3a5.815,5.815,0,0,1-4.5-1.771,7.084,7.084,0,0,1-1.631-4.983,6.927,6.927,0,0,1,1.8-4.945A5.876,5.876,0,0,1,238.57-13.3a5.124,5.124,0,0,1,4.126,1.714,7.116,7.116,0,0,1,1.46,4.761Zm-2.844-2.082a3.8,3.8,0,0,0-.749-2.469,2.5,2.5,0,0,0-2.031-.882,2.858,2.858,0,0,0-2.152.927,4.234,4.234,0,0,0-1.085,2.425Zm4.837,7.376V-3.136a5.876,5.876,0,0,0,3.644,1.257q2.666,0,2.666-1.574a1.241,1.241,0,0,0-.229-.755,2.182,2.182,0,0,0-.616-.552,4.841,4.841,0,0,0-.914-.432q-.527-.19-1.174-.432a12.432,12.432,0,0,1-1.441-.673,4.353,4.353,0,0,1-1.066-.806,3.043,3.043,0,0,1-.641-1.022,3.763,3.763,0,0,1-.216-1.333,3.081,3.081,0,0,1,.444-1.657,3.861,3.861,0,0,1,1.193-1.206,5.722,5.722,0,0,1,1.7-.736,7.788,7.788,0,0,1,1.968-.248,8.945,8.945,0,0,1,3.225.546v2.577a5.436,5.436,0,0,0-3.148-.939,4.112,4.112,0,0,0-1.009.114,2.605,2.605,0,0,0-.768.317,1.561,1.561,0,0,0-.5.489,1.166,1.166,0,0,0-.178.628,1.343,1.343,0,0,0,.178.711,1.614,1.614,0,0,0,.527.514,4.55,4.55,0,0,0,.838.406q.489.184,1.124.4a16.415,16.415,0,0,1,1.5.7,5.084,5.084,0,0,1,1.136.806A3.16,3.16,0,0,1,255.125-5a3.535,3.535,0,0,1,.254,1.4,3.207,3.207,0,0,1-.457,1.727A3.809,3.809,0,0,1,253.7-.647a5.705,5.705,0,0,1-1.758.717,9.134,9.134,0,0,1-2.1.235A8.852,8.852,0,0,1,246.149-.406Z" transform="translate(280 162)" fill="#31313a"/>
      <g id="Quote_history_table" data-name="Quote history table" transform="translate(-165 -42)">
        <g id="Group_14123" data-name="Group 14123" transform="translate(445 231)">
          <g transform="matrix(1, 0, 0, 1, -310, -219)" filter="url(#Rectangle_3801)">
            <rect id="Rectangle_3801-2" data-name="Rectangle 3801" width="1280" height="309" rx="2" transform="translate(310 219)" fill="#fff"/>
          </g>
          <path id="Rectangle_3802" data-name="Rectangle 3802" d="M2,0H1278a2,2,0,0,1,2,2V56a0,0,0,0,1,0,0H0a0,0,0,0,1,0,0V2A2,2,0,0,1,2,0Z" fill="#f4f4f6"/>
          <g id="Repeat_Grid_2" data-name="Repeat Grid 2" transform="translate(0 106)" clip-path="url(#clip-path-2)">
            <g transform="translate(-285 -266)">
              <rect id="Rectangle_3804" data-name="Rectangle 3804" width="1600" height="1" transform="translate(285 266)" fill="#cbcbd2"/>
            </g>
            <g transform="translate(-285 -215)">
              <rect id="Rectangle_3804-2" data-name="Rectangle 3804" width="1600" height="1" transform="translate(285 266)" fill="#cbcbd2"/>
            </g>
            <g transform="translate(-285 -164)">
              <rect id="Rectangle_3804-3" data-name="Rectangle 3804" width="1600" height="1" transform="translate(285 266)" fill="#cbcbd2"/>
            </g>
            <g transform="translate(-285 -113)">
              <rect id="Rectangle_3804-4" data-name="Rectangle 3804" width="1600" height="1" transform="translate(285 266)" fill="#cbcbd2"/>
            </g>
          </g>
          <path id="Path_101137" data-name="Path 101137" d="M1.319,0V-9.994H2.953V-1.4H7.185V0ZM13.467,0l-.321-1.053h-.055a3.1,3.1,0,0,1-1.1.94,3.481,3.481,0,0,1-1.422.25,2.406,2.406,0,0,1-1.74-.6,2.251,2.251,0,0,1-.625-1.7,2,2,0,0,1,.868-1.764,5.006,5.006,0,0,1,2.646-.649l1.306-.041v-.4a1.529,1.529,0,0,0-.338-1.083,1.38,1.38,0,0,0-1.049-.359,3.628,3.628,0,0,0-1.114.171,8.409,8.409,0,0,0-1.025.4l-.52-1.148a5.591,5.591,0,0,1,1.347-.489A6.2,6.2,0,0,1,11.7-7.7a3.27,3.27,0,0,1,2.177.629,2.462,2.462,0,0,1,.735,1.976V0ZM11.074-1.094a1.99,1.99,0,0,0,1.4-.489,1.772,1.772,0,0,0,.53-1.371v-.656l-.971.041a3.321,3.321,0,0,0-1.651.379,1.153,1.153,0,0,0-.516,1.036,1.011,1.011,0,0,0,.3.783A1.292,1.292,0,0,0,11.074-1.094Zm10.862-1.06a1.978,1.978,0,0,1-.807,1.7,3.863,3.863,0,0,1-2.311.591,5.458,5.458,0,0,1-2.427-.458V-1.709a5.958,5.958,0,0,0,2.481.615q1.483,0,1.483-.9a.709.709,0,0,0-.164-.479,1.942,1.942,0,0,0-.54-.4,9.293,9.293,0,0,0-1.046-.465A4.838,4.838,0,0,1,16.84-4.341a1.872,1.872,0,0,1-.461-1.312,1.724,1.724,0,0,1,.783-1.507A3.714,3.714,0,0,1,19.291-7.7a6.031,6.031,0,0,1,2.522.54l-.52,1.21a5.61,5.61,0,0,0-2.058-.506q-1.271,0-1.271.725a.729.729,0,0,0,.332.6,7.291,7.291,0,0,0,1.446.677,6.609,6.609,0,0,1,1.36.663,1.982,1.982,0,0,1,.629.694A2.008,2.008,0,0,1,21.937-2.153Zm4.553.991a3.907,3.907,0,0,0,1.176-.185v1.21a3.243,3.243,0,0,1-.687.195,4.733,4.733,0,0,1-.872.079q-2.283,0-2.283-2.406V-6.344H22.791v-.711L23.9-7.643l.547-1.6h.991v1.682H27.59v1.217H25.437V-2.3a1.135,1.135,0,0,0,.291.858A1.059,1.059,0,0,0,26.489-1.162Zm9.625,1.3A3.657,3.657,0,0,1,33.356-.892a3.906,3.906,0,0,1-.995-2.833,4.285,4.285,0,0,1,.923-2.912A3.188,3.188,0,0,1,35.82-7.7a3.116,3.116,0,0,1,2.365.909,3.474,3.474,0,0,1,.868,2.5v.868H34.016a2.483,2.483,0,0,0,.595,1.692,2.071,2.071,0,0,0,1.579.591,5.829,5.829,0,0,0,1.248-.126,6.539,6.539,0,0,0,1.241-.42V-.376a4.932,4.932,0,0,1-1.189.4A7.294,7.294,0,0,1,36.114.137ZM35.82-6.48A1.614,1.614,0,0,0,34.593-6a2.313,2.313,0,0,0-.55,1.415h3.432A2.093,2.093,0,0,0,37.023-6,1.543,1.543,0,0,0,35.82-6.48ZM43.429.137A2.633,2.633,0,0,1,41.221-.889a4.609,4.609,0,0,1-.793-2.878,4.624,4.624,0,0,1,.8-2.9A2.658,2.658,0,0,1,43.456-7.7a2.606,2.606,0,0,1,2.27,1.1h.082a9.63,9.63,0,0,1-.116-1.285v-2.755H47.3V0H46.047l-.28-.991h-.075A2.568,2.568,0,0,1,43.429.137Zm.431-1.3A1.748,1.748,0,0,0,45.3-1.719a2.933,2.933,0,0,0,.465-1.808v-.226a3.389,3.389,0,0,0-.465-2.03,1.724,1.724,0,0,0-1.456-.6A1.477,1.477,0,0,0,42.54-5.7a3.521,3.521,0,0,0-.458,1.958,3.433,3.433,0,0,0,.444,1.917A1.5,1.5,0,0,0,43.859-1.162ZM51.208,0H49.6V-7.561h1.606Zm-1.7-9.563a.889.889,0,0,1,.236-.663.919.919,0,0,1,.673-.232.9.9,0,0,1,.66.232.889.889,0,0,1,.236.663.873.873,0,0,1-.236.646.892.892,0,0,1-.66.236.911.911,0,0,1-.673-.236A.873.873,0,0,1,49.506-9.563Zm6.815,8.4A3.907,3.907,0,0,0,57.5-1.347v1.21a3.243,3.243,0,0,1-.687.195,4.733,4.733,0,0,1-.872.079q-2.283,0-2.283-2.406V-6.344H52.623v-.711l1.107-.588.547-1.6h.991v1.682h2.153v1.217H55.269V-2.3a1.135,1.135,0,0,0,.291.858A1.059,1.059,0,0,0,56.321-1.162ZM62.31.137A3.657,3.657,0,0,1,59.551-.892a3.906,3.906,0,0,1-.995-2.833,4.285,4.285,0,0,1,.923-2.912A3.188,3.188,0,0,1,62.016-7.7a3.116,3.116,0,0,1,2.365.909,3.474,3.474,0,0,1,.868,2.5v.868H60.211a2.483,2.483,0,0,0,.595,1.692,2.071,2.071,0,0,0,1.579.591,5.829,5.829,0,0,0,1.248-.126,6.539,6.539,0,0,0,1.241-.42V-.376a4.932,4.932,0,0,1-1.189.4A7.294,7.294,0,0,1,62.31.137ZM62.016-6.48A1.614,1.614,0,0,0,60.789-6a2.313,2.313,0,0,0-.55,1.415H63.67A2.093,2.093,0,0,0,63.219-6,1.543,1.543,0,0,0,62.016-6.48ZM69.624.137A2.633,2.633,0,0,1,67.416-.889a4.609,4.609,0,0,1-.793-2.878,4.624,4.624,0,0,1,.8-2.9A2.658,2.658,0,0,1,69.651-7.7a2.606,2.606,0,0,1,2.27,1.1H72a9.629,9.629,0,0,1-.116-1.285v-2.755H73.5V0H72.242l-.28-.991h-.075A2.568,2.568,0,0,1,69.624.137Zm.431-1.3A1.748,1.748,0,0,0,71.5-1.719a2.933,2.933,0,0,0,.465-1.808v-.226a3.389,3.389,0,0,0-.465-2.03,1.724,1.724,0,0,0-1.456-.6,1.477,1.477,0,0,0-1.306.687,3.521,3.521,0,0,0-.458,1.958,3.433,3.433,0,0,0,.444,1.917A1.5,1.5,0,0,0,70.055-1.162Z" transform="translate(310.413 34)" fill="#3d3d3d"/>
          <path id="Path_101136" data-name="Path 101136" d="M6.973,0H1.319V-9.994H6.973v1.381H2.953v2.721H6.72v1.367H2.953v3.138h4.02Zm5.783-6.344H10.91V0H9.3V-6.344H8.053V-7.1L9.3-7.588V-8.08a2.751,2.751,0,0,1,.629-1.986,2.571,2.571,0,0,1,1.921-.646,5.126,5.126,0,0,1,1.668.28l-.424,1.217a3.7,3.7,0,0,0-1.135-.191.924.924,0,0,0-.8.338,1.7,1.7,0,0,0-.25,1.015v.492h1.846Zm5.079,0H15.989V0H14.376V-6.344H13.132V-7.1l1.244-.492V-8.08A2.751,2.751,0,0,1,15-10.066a2.571,2.571,0,0,1,1.921-.646,5.126,5.126,0,0,1,1.668.28L18.17-9.215a3.7,3.7,0,0,0-1.135-.191.924.924,0,0,0-.8.338,1.7,1.7,0,0,0-.25,1.015v.492h1.846ZM22.429.137A3.657,3.657,0,0,1,19.67-.892a3.906,3.906,0,0,1-.995-2.833A4.285,4.285,0,0,1,19.6-6.638,3.188,3.188,0,0,1,22.135-7.7a3.116,3.116,0,0,1,2.365.909,3.474,3.474,0,0,1,.868,2.5v.868H20.33a2.483,2.483,0,0,0,.595,1.692,2.071,2.071,0,0,0,1.579.591,5.829,5.829,0,0,0,1.248-.126,6.539,6.539,0,0,0,1.241-.42V-.376a4.932,4.932,0,0,1-1.189.4A7.294,7.294,0,0,1,22.429.137ZM22.135-6.48A1.614,1.614,0,0,0,20.908-6a2.313,2.313,0,0,0-.55,1.415h3.432A2.093,2.093,0,0,0,23.338-6,1.543,1.543,0,0,0,22.135-6.48ZM30.242.137a3.31,3.31,0,0,1-2.608-1,4.184,4.184,0,0,1-.892-2.875,4.208,4.208,0,0,1,.933-2.933,3.461,3.461,0,0,1,2.7-1.025,5.054,5.054,0,0,1,2.153.444L32.04-5.961a4.865,4.865,0,0,0-1.682-.4q-1.962,0-1.962,2.6a3.119,3.119,0,0,0,.489,1.911,1.692,1.692,0,0,0,1.432.639,4.109,4.109,0,0,0,2.03-.533v1.4a3.173,3.173,0,0,1-.919.362A5.517,5.517,0,0,1,30.242.137Zm6.7-1.3a3.907,3.907,0,0,0,1.176-.185v1.21a3.243,3.243,0,0,1-.687.195,4.733,4.733,0,0,1-.872.079q-2.283,0-2.283-2.406V-6.344H33.243v-.711l1.107-.588.547-1.6h.991v1.682h2.153v1.217H35.889V-2.3a1.135,1.135,0,0,0,.291.858A1.059,1.059,0,0,0,36.941-1.162ZM41.234,0H39.628V-7.561h1.606Zm-1.7-9.563a.889.889,0,0,1,.236-.663.919.919,0,0,1,.673-.232.9.9,0,0,1,.66.232.889.889,0,0,1,.236.663.873.873,0,0,1-.236.646.892.892,0,0,1-.66.236.911.911,0,0,1-.673-.236A.873.873,0,0,1,39.532-9.563ZM45.254,0,42.383-7.561h1.7l1.538,4.4a8.71,8.71,0,0,1,.479,1.791h.055a12.026,12.026,0,0,1,.479-1.791l1.538-4.4h1.709L46.99,0Zm9.071.137A3.657,3.657,0,0,1,51.567-.892a3.906,3.906,0,0,1-.995-2.833A4.285,4.285,0,0,1,51.5-6.638,3.188,3.188,0,0,1,54.031-7.7a3.116,3.116,0,0,1,2.365.909,3.474,3.474,0,0,1,.868,2.5v.868H52.227a2.483,2.483,0,0,0,.595,1.692,2.071,2.071,0,0,0,1.579.591,5.829,5.829,0,0,0,1.248-.126,6.539,6.539,0,0,0,1.241-.42V-.376a4.932,4.932,0,0,1-1.189.4A7.294,7.294,0,0,1,54.325.137ZM54.031-6.48A1.614,1.614,0,0,0,52.8-6a2.313,2.313,0,0,0-.55,1.415h3.432A2.093,2.093,0,0,0,55.234-6,1.543,1.543,0,0,0,54.031-6.48ZM65.276.137A2.633,2.633,0,0,1,63.068-.889a4.609,4.609,0,0,1-.793-2.878,4.624,4.624,0,0,1,.8-2.9A2.658,2.658,0,0,1,65.3-7.7a2.606,2.606,0,0,1,2.27,1.1h.082a9.629,9.629,0,0,1-.116-1.285v-2.755h1.613V0H67.895l-.28-.991h-.075A2.568,2.568,0,0,1,65.276.137Zm.431-1.3a1.748,1.748,0,0,0,1.442-.557,2.933,2.933,0,0,0,.465-1.808v-.226a3.389,3.389,0,0,0-.465-2.03,1.724,1.724,0,0,0-1.456-.6,1.477,1.477,0,0,0-1.306.687,3.521,3.521,0,0,0-.458,1.958,3.433,3.433,0,0,0,.444,1.917A1.5,1.5,0,0,0,65.707-1.162ZM76.18,0l-.321-1.053H75.8a3.1,3.1,0,0,1-1.1.94,3.481,3.481,0,0,1-1.422.25,2.406,2.406,0,0,1-1.74-.6,2.251,2.251,0,0,1-.625-1.7,2,2,0,0,1,.868-1.764A5.006,5.006,0,0,1,74.43-4.58l1.306-.041v-.4A1.529,1.529,0,0,0,75.4-6.108a1.38,1.38,0,0,0-1.049-.359,3.628,3.628,0,0,0-1.114.171,8.409,8.409,0,0,0-1.025.4l-.52-1.148a5.591,5.591,0,0,1,1.347-.489A6.2,6.2,0,0,1,74.416-7.7a3.27,3.27,0,0,1,2.177.629,2.462,2.462,0,0,1,.735,1.976V0ZM73.787-1.094a1.99,1.99,0,0,0,1.4-.489,1.772,1.772,0,0,0,.53-1.371v-.656l-.971.041a3.321,3.321,0,0,0-1.651.379,1.153,1.153,0,0,0-.516,1.036,1.011,1.011,0,0,0,.3.783A1.292,1.292,0,0,0,73.787-1.094Zm8.6-.068a3.907,3.907,0,0,0,1.176-.185v1.21a3.243,3.243,0,0,1-.687.195A4.733,4.733,0,0,1,82,.137q-2.283,0-2.283-2.406V-6.344H78.688v-.711L79.8-7.643l.547-1.6h.991v1.682h2.153v1.217H81.334V-2.3a1.135,1.135,0,0,0,.291.858A1.059,1.059,0,0,0,82.387-1.162Zm5.988,1.3A3.657,3.657,0,0,1,85.617-.892a3.906,3.906,0,0,1-.995-2.833,4.285,4.285,0,0,1,.923-2.912A3.188,3.188,0,0,1,88.081-7.7a3.116,3.116,0,0,1,2.365.909,3.474,3.474,0,0,1,.868,2.5v.868H86.276a2.483,2.483,0,0,0,.595,1.692,2.071,2.071,0,0,0,1.579.591A5.829,5.829,0,0,0,89.7-1.261a6.539,6.539,0,0,0,1.241-.42V-.376a4.932,4.932,0,0,1-1.189.4A7.294,7.294,0,0,1,88.375.137ZM88.081-6.48A1.614,1.614,0,0,0,86.854-6,2.313,2.313,0,0,0,86.3-4.58h3.432A2.093,2.093,0,0,0,89.284-6,1.543,1.543,0,0,0,88.081-6.48Z" transform="translate(20.634 34)" fill="#3d3d3d"/>
          <text id="Actions" transform="translate(1211.122 34)" fill="#3d3d3d" font-size="14" font-family="OpenSans-Semibold, Open Sans" font-weight="600"><tspan x="0" y="0">Actions</tspan></text>
          <rect id="Rectangle_5415" data-name="Rectangle 5415" width="1" height="252" transform="translate(286.537 57)" fill="#cbcbd2"/>
          <rect id="Rectangle_9959" data-name="Rectangle 9959" width="1" height="252" transform="translate(1190.005 57)" fill="#cbcbd2"/>
          <rect id="Rectangle_3803" data-name="Rectangle 3803" width="1280" height="1" transform="translate(0 56)" fill="#dbdbdb"/>
          <g id="Repeat_Grid_32" data-name="Repeat Grid 32" transform="translate(307.667 72)" clip-path="url(#clip-path-3)">
            <g transform="translate(-630 -232)">
              <text id="names" transform="translate(630 247)" fill="#3d3d3d" font-size="14" font-family="SegoeUI, Segoe UI"><tspan x="0" y="0">09/12/19 9:32 AM</tspan></text>
            </g>
            <g transform="translate(-630 -181)">
              <text id="names-2" data-name="names" transform="translate(630 247)" fill="#3d3d3d" font-size="14" font-family="SegoeUI, Segoe UI"><tspan x="0" y="0">09/19/18 8:48 AM</tspan></text>
            </g>
            <g transform="translate(-630 -130)">
              <text id="names-3" data-name="names" transform="translate(630 247)" fill="#3d3d3d" font-size="14" font-family="SegoeUI, Segoe UI"><tspan x="0" y="0">09/18/18 8:43 AM</tspan></text>
            </g>
            <g transform="translate(-630 -79)">
              <text id="names-4" data-name="names" transform="translate(630 247)" fill="#3d3d3d" font-size="14" font-family="SegoeUI, Segoe UI"><tspan x="0" y="0">09/08/17 1:16 PM</tspan></text>
            </g>
            <g transform="translate(-630 -28)">
              <text id="names-5" data-name="names" transform="translate(630 247)" fill="#3d3d3d" font-size="14" font-family="SegoeUI, Segoe UI"><tspan x="0" y="0">09/08/17 12:07 PM</tspan></text>
            </g>
          </g>
          <g id="Repeat_Grid_49" data-name="Repeat Grid 49" transform="translate(30.725 75)" clip-path="url(#clip-path-4)">
            <g transform="translate(-720.83 -377)">
              <text id="lastnames" transform="translate(720.83 392)" fill="#3d3d3d" font-size="14" font-family="SegoeUI, Segoe UI"><tspan x="0" y="0">01/01/2020</tspan></text>
            </g>
            <g transform="translate(-720.83 -326)">
              <text id="lastnames-2" data-name="lastnames" transform="translate(720.83 392)" fill="#3d3d3d" font-size="14" font-family="SegoeUI, Segoe UI"><tspan x="0" y="0">01/01/2019</tspan></text>
            </g>
            <g transform="translate(-720.83 -275)">
              <text id="lastnames-3" data-name="lastnames" transform="translate(720.83 392)" fill="#3d3d3d" font-size="14" font-family="SegoeUI, Segoe UI"><tspan x="0" y="0">01/01/2019</tspan></text>
            </g>
            <g transform="translate(-720.83 -224)">
              <text id="lastnames-4" data-name="lastnames" transform="translate(720.83 392)" fill="#3d3d3d" font-size="14" font-family="SegoeUI, Segoe UI"><tspan x="0" y="0">01/01/2018</tspan></text>
            </g>
            <g transform="translate(-720.83 -173)">
              <text id="lastnames-5" data-name="lastnames" transform="translate(720.83 392)" fill="#3d3d3d" font-size="14" font-family="SegoeUI, Segoe UI"><tspan x="0" y="0">01/01/2018</tspan></text>
            </g>
          </g>
          <g id="Icon_link" data-name="Icon link" transform="translate(1211 115)">
            <rect id="Rectangle_5240" data-name="Rectangle 5240" width="36" height="36" rx="18" fill="none"/>
            <g id="Menu" transform="translate(18 18) rotate(90)">
              <g id="Menu-2" data-name="Menu" transform="translate(-8 -8)">
                <g id="Group_264468" data-name="Group 264468">
                  <rect id="Rectangle_9968" data-name="Rectangle 9968" width="2.7" height="2.67" rx="0.3" transform="translate(6.7 0.7)" fill="#2777d3"/>
                  <rect id="Rectangle_9969" data-name="Rectangle 9969" width="2.7" height="2.67" rx="0.3" transform="translate(6.7 6.7)" fill="#2777d3"/>
                  <rect id="Rectangle_9970" data-name="Rectangle 9970" width="2.7" height="2.67" rx="0.3" transform="translate(6.7 12.7)" fill="#2777d3"/>
                </g>
                <rect id="Rectangle_9971" data-name="Rectangle 9971" width="16" height="16" fill="none"/>
              </g>
            </g>
          </g>
          <g id="Icon_link-2" data-name="Icon link" transform="translate(1211 166)">
            <rect id="Rectangle_5240-2" data-name="Rectangle 5240" width="36" height="36" rx="18" fill="none"/>
            <g id="Menu-3" data-name="Menu" transform="translate(18 18) rotate(90)">
              <g id="Menu-4" data-name="Menu" transform="translate(-8 -8)">
                <g id="Group_264468-2" data-name="Group 264468">
                  <rect id="Rectangle_9968-2" data-name="Rectangle 9968" width="2.7" height="2.67" rx="0.3" transform="translate(6.7 0.7)" fill="#2777d3"/>
                  <rect id="Rectangle_9969-2" data-name="Rectangle 9969" width="2.7" height="2.67" rx="0.3" transform="translate(6.7 6.7)" fill="#2777d3"/>
                  <rect id="Rectangle_9970-2" data-name="Rectangle 9970" width="2.7" height="2.67" rx="0.3" transform="translate(6.7 12.7)" fill="#2777d3"/>
                </g>
                <rect id="Rectangle_9971-2" data-name="Rectangle 9971" width="16" height="16" fill="none"/>
              </g>
            </g>
          </g>
          <g id="Icon_link-3" data-name="Icon link" transform="translate(1211 217)">
            <rect id="Rectangle_5240-3" data-name="Rectangle 5240" width="36" height="36" rx="18" fill="none"/>
            <g id="Menu-5" data-name="Menu" transform="translate(18 18) rotate(90)">
              <g id="Menu-6" data-name="Menu" transform="translate(-8 -8)">
                <g id="Group_264468-3" data-name="Group 264468">
                  <rect id="Rectangle_9968-3" data-name="Rectangle 9968" width="2.7" height="2.67" rx="0.3" transform="translate(6.7 0.7)" fill="#2777d3"/>
                  <rect id="Rectangle_9969-3" data-name="Rectangle 9969" width="2.7" height="2.67" rx="0.3" transform="translate(6.7 6.7)" fill="#2777d3"/>
                  <rect id="Rectangle_9970-3" data-name="Rectangle 9970" width="2.7" height="2.67" rx="0.3" transform="translate(6.7 12.7)" fill="#2777d3"/>
                </g>
                <rect id="Rectangle_9971-3" data-name="Rectangle 9971" width="16" height="16" fill="none"/>
              </g>
            </g>
          </g>
          <g id="Icon_link-4" data-name="Icon link" transform="translate(1211 64)">
            <rect id="Rectangle_5240-4" data-name="Rectangle 5240" width="36" height="36" rx="18" fill="none"/>
            <g id="Menu-7" data-name="Menu" transform="translate(18 18) rotate(90)">
              <g id="Menu-8" data-name="Menu" transform="translate(-8 -8)">
                <g id="Group_264468-4" data-name="Group 264468">
                  <rect id="Rectangle_9968-4" data-name="Rectangle 9968" width="2.7" height="2.67" rx="0.3" transform="translate(6.7 0.7)" fill="#2777d3"/>
                  <rect id="Rectangle_9969-4" data-name="Rectangle 9969" width="2.7" height="2.67" rx="0.3" transform="translate(6.7 6.7)" fill="#2777d3"/>
                  <rect id="Rectangle_9970-4" data-name="Rectangle 9970" width="2.7" height="2.67" rx="0.3" transform="translate(6.7 12.7)" fill="#2777d3"/>
                </g>
                <rect id="Rectangle_9971-4" data-name="Rectangle 9971" width="16" height="16" fill="none"/>
              </g>
            </g>
          </g>
          <g id="Icon_link-5" data-name="Icon link" transform="translate(1211 268)">
            <rect id="Rectangle_5240-5" data-name="Rectangle 5240" width="36" height="36" rx="18" fill="none"/>
            <g id="Menu-9" data-name="Menu" transform="translate(18 18) rotate(90)">
              <g id="Menu-10" data-name="Menu" transform="translate(-8 -8)">
                <g id="Group_264468-5" data-name="Group 264468">
                  <rect id="Rectangle_9968-5" data-name="Rectangle 9968" width="2.7" height="2.67" rx="0.3" transform="translate(6.7 0.7)" fill="#2777d3"/>
                  <rect id="Rectangle_9969-5" data-name="Rectangle 9969" width="2.7" height="2.67" rx="0.3" transform="translate(6.7 6.7)" fill="#2777d3"/>
                  <rect id="Rectangle_9970-5" data-name="Rectangle 9970" width="2.7" height="2.67" rx="0.3" transform="translate(6.7 12.7)" fill="#2777d3"/>
                </g>
                <rect id="Rectangle_9971-5" data-name="Rectangle 9971" width="16" height="16" fill="none"/>
              </g>
            </g>
          </g>
          <text id="Status" transform="translate(781.413 34)" fill="#3d3d3d" font-size="14" font-family="OpenSans-Semibold, Open Sans" font-weight="600"><tspan x="0" y="0">Status</tspan></text>
          <rect id="Rectangle_9974" data-name="Rectangle 9974" width="1" height="252" transform="translate(757.537 57)" fill="#cbcbd2"/>
          <g id="Repeat_Grid_72" data-name="Repeat Grid 72" transform="translate(778.667 72)" clip-path="url(#clip-path-5)">
            <g transform="translate(-630 -232)">
              <text id="names-6" data-name="names" transform="translate(630 247)" fill="#3d3d3d" font-size="14" font-family="SegoeUI, Segoe UI"><tspan x="0" y="0">Quoting</tspan></text>
            </g>
            <g transform="translate(-630 -181)">
              <text id="names-7" data-name="names" transform="translate(630 247)" fill="#3d3d3d" font-size="14" font-family="SegoeUI, Segoe UI"><tspan x="0" y="0">Quoting</tspan></text>
            </g>
            <g transform="translate(-630 -130)">
              <text id="names-8" data-name="names" transform="translate(630 247)" fill="#3d3d3d" font-size="14" font-family="SegoeUI, Segoe UI"><tspan x="0" y="0">Quoting</tspan></text>
            </g>
            <g transform="translate(-630 -79)">
              <text id="names-9" data-name="names" transform="translate(630 247)" fill="#3d3d3d" font-size="14" font-family="SegoeUI, Segoe UI"><tspan x="0" y="0">Sold</tspan></text>
            </g>
            <g transform="translate(-630 -28)">
              <text id="names-10" data-name="names" transform="translate(630 247)" fill="#3d3d3d" font-size="14" font-family="SegoeUI, Segoe UI"><tspan x="0" y="0">Quoting</tspan></text>
            </g>
          </g>
        </g>
      </g>
    </g>
    <path id="Line_3" data-name="Line 3" d="M.5,302h-1v-2h1Zm0-4h-1v-2h1Zm0-4h-1v-2h1Zm0-4h-1v-2h1Zm0-4h-1v-2h1Zm0-4h-1v-2h1Zm0-4h-1v-2h1Zm0-4h-1v-2h1Zm0-4h-1v-2h1Zm0-4h-1v-2h1Zm0-4h-1v-2h1Zm0-4h-1v-2h1Zm0-4h-1v-2h1Zm0-4h-1v-2h1Zm0-4h-1v-2h1Zm0-4h-1v-2h1Zm0-4h-1v-2h1Zm0-4h-1v-2h1Zm0-4h-1v-2h1Zm0-4h-1v-2h1Zm0-4h-1v-2h1Zm0-4h-1v-2h1Zm0-4h-1v-2h1Zm0-4h-1v-2h1Zm0-4h-1v-2h1Zm0-4h-1v-2h1Zm0-4h-1v-2h1Zm0-4h-1v-2h1Zm0-4h-1v-2h1Zm0-4h-1v-2h1Zm0-4h-1v-2h1Zm0-4h-1v-2h1Zm0-4h-1v-2h1Zm0-4h-1v-2h1Zm0-4h-1v-2h1Zm0-4h-1v-2h1Zm0-4h-1v-2h1Zm0-4h-1v-2h1Zm0-4h-1v-2h1Zm0-4h-1v-2h1Zm0-4h-1v-2h1Zm0-4h-1v-2h1Zm0-4h-1v-2h1Zm0-4h-1v-2h1Zm0-4h-1v-2h1Zm0-4h-1v-2h1Zm0-4h-1v-2h1Zm0-4h-1v-2h1Zm0-4h-1v-2h1Zm0-4h-1v-2h1Zm0-4h-1v-2h1Zm0-4h-1V96h1Zm0-4h-1V92h1Zm0-4h-1V88h1Zm0-4h-1V84h1Zm0-4h-1V80h1Zm0-4h-1V76h1Zm0-4h-1V72h1Zm0-4h-1V68h1Zm0-4h-1V64h1Zm0-4h-1V60h1Zm0-4h-1V56h1Zm0-4h-1V52h1Zm0-4h-1V48h1Zm0-4h-1V44h1Zm0-4h-1V40h1Zm0-4h-1V36h1Zm0-4h-1V32h1Zm0-4h-1V28h1Zm0-4h-1V24h1Zm0-4h-1V20h1Zm0-4h-1V16h1Zm0-4h-1V12h1Zm0-4h-1V8h1Zm0-4h-1V4h1Zm0-4h-1V0h1Z" transform="translate(309.5 30.5)" fill="#17987c"/>
    <rect id="Rectangle_3876" data-name="Rectangle 3876" width="660" height="30" transform="translate(310 94)" fill="#17987c" opacity="0.2"/>
    <rect id="Rectangle_3877" data-name="Rectangle 3877" width="660" height="20" transform="translate(310 146)" fill="#17987c" opacity="0.2"/>
    <g id="Breadcrumbs" transform="translate(291 128)">
      <g id="_4" data-name=" 4" transform="translate(-39 -112)">
        <path id="Path_101128" data-name="Path 101128" d="M5.511-2.089A1.926,1.926,0,0,1,4.759-.473a3.26,3.26,0,0,1-2.041.58A5.112,5.112,0,0,1,.569-.252v-.881a5.656,5.656,0,0,0,1.053.322A5.539,5.539,0,0,0,2.75-.693a2.276,2.276,0,0,0,1.375-.346A1.137,1.137,0,0,0,4.587-2a1.238,1.238,0,0,0-.164-.669,1.522,1.522,0,0,0-.548-.481,7.664,7.664,0,0,0-1.168-.5,3.729,3.729,0,0,1-1.566-.929,2.051,2.051,0,0,1-.47-1.4,1.743,1.743,0,0,1,.682-1.445,2.835,2.835,0,0,1,1.8-.537,5.319,5.319,0,0,1,2.154.43l-.285.795a4.867,4.867,0,0,0-1.891-.408A1.83,1.83,0,0,0,2-6.837a1.027,1.027,0,0,0-.408.865,1.325,1.325,0,0,0,.15.669,1.416,1.416,0,0,0,.508.478,6.306,6.306,0,0,0,1.093.481,4.327,4.327,0,0,1,1.7.945A1.859,1.859,0,0,1,5.511-2.089ZM9.469.107a2.7,2.7,0,0,1-2.06-.795A3.077,3.077,0,0,1,6.655-2.9a3.413,3.413,0,0,1,.7-2.261,2.328,2.328,0,0,1,1.883-.838,2.22,2.22,0,0,1,1.751.728,2.789,2.789,0,0,1,.645,1.92v.564H7.579A2.333,2.333,0,0,0,8.1-1.208a1.811,1.811,0,0,0,1.4.537,4.741,4.741,0,0,0,1.88-.4v.795a4.718,4.718,0,0,1-.894.293A5.026,5.026,0,0,1,9.469.107ZM9.228-5.248A1.456,1.456,0,0,0,8.1-4.786a2.129,2.129,0,0,0-.5,1.278h3.078A1.96,1.96,0,0,0,10.3-4.8,1.323,1.323,0,0,0,9.228-5.248ZM14.045,0h-.892V-8.357h.892Zm4.377.107a2.7,2.7,0,0,1-2.06-.795A3.077,3.077,0,0,1,15.608-2.9a3.413,3.413,0,0,1,.7-2.261,2.328,2.328,0,0,1,1.883-.838,2.22,2.22,0,0,1,1.751.728,2.789,2.789,0,0,1,.645,1.92v.564H16.532a2.333,2.333,0,0,0,.524,1.574,1.811,1.811,0,0,0,1.4.537,4.741,4.741,0,0,0,1.88-.4v.795a4.718,4.718,0,0,1-.894.293A5.026,5.026,0,0,1,18.423.107Zm-.242-5.355a1.456,1.456,0,0,0-1.131.462,2.129,2.129,0,0,0-.5,1.278h3.078A1.96,1.96,0,0,0,19.255-4.8,1.323,1.323,0,0,0,18.181-5.248ZM24.46.107a2.512,2.512,0,0,1-1.979-.787,3.236,3.236,0,0,1-.7-2.226,3.337,3.337,0,0,1,.712-2.283,2.562,2.562,0,0,1,2.028-.806,4.024,4.024,0,0,1,.849.091,2.8,2.8,0,0,1,.666.215l-.274.757a4.192,4.192,0,0,0-.645-.2A2.878,2.878,0,0,0,24.5-5.2Q22.7-5.2,22.7-2.917a2.724,2.724,0,0,0,.438,1.665,1.523,1.523,0,0,0,1.3.58,3.966,3.966,0,0,0,1.509-.317V-.2A3.217,3.217,0,0,1,24.46.107Zm4.786-.736A2.913,2.913,0,0,0,29.7-.663a2.955,2.955,0,0,0,.349-.073v.682a1.63,1.63,0,0,1-.427.115,3.207,3.207,0,0,1-.508.046q-1.708,0-1.708-1.8v-3.5h-.843v-.43l.843-.371.376-1.257H28.3v1.364h1.708v.693H28.3v3.464a1.192,1.192,0,0,0,.252.816A.878.878,0,0,0,29.246-.628ZM37.705,0l-.177-.838h-.043a2.477,2.477,0,0,1-.878.749,2.677,2.677,0,0,1-1.093.2,1.966,1.966,0,0,1-1.372-.451,1.646,1.646,0,0,1-.5-1.284q0-1.783,2.852-1.869l1-.032v-.365a1.492,1.492,0,0,0-.3-1.023,1.226,1.226,0,0,0-.953-.33,3.885,3.885,0,0,0-1.665.451l-.274-.682a4.19,4.19,0,0,1,.953-.371A4.129,4.129,0,0,1,36.3-5.983a2.242,2.242,0,0,1,1.56.467,1.95,1.95,0,0,1,.508,1.5V0ZM35.691-.628A1.81,1.81,0,0,0,37-1.085a1.689,1.689,0,0,0,.475-1.278V-2.9l-.892.038a3.243,3.243,0,0,0-1.533.33,1,1,0,0,0-.47.91.919.919,0,0,0,.293.736A1.215,1.215,0,0,0,35.691-.628ZM44.231,0V-3.808A1.536,1.536,0,0,0,43.9-4.882a1.335,1.335,0,0,0-1.026-.354,1.692,1.692,0,0,0-1.354.5,2.522,2.522,0,0,0-.43,1.649V0H40.2V-5.887h.725l.145.806h.043a1.821,1.821,0,0,1,.768-.674,2.5,2.5,0,0,1,1.1-.239,2.236,2.236,0,0,1,1.6.513,2.183,2.183,0,0,1,.537,1.641V0Zm9.2,0-.177-.838h-.043a2.477,2.477,0,0,1-.878.749,2.677,2.677,0,0,1-1.093.2,1.966,1.966,0,0,1-1.372-.451,1.646,1.646,0,0,1-.5-1.284q0-1.783,2.852-1.869l1-.032v-.365a1.492,1.492,0,0,0-.3-1.023,1.226,1.226,0,0,0-.953-.33,3.885,3.885,0,0,0-1.665.451l-.274-.682a4.19,4.19,0,0,1,.953-.371,4.129,4.129,0,0,1,1.039-.134,2.242,2.242,0,0,1,1.56.467,1.95,1.95,0,0,1,.508,1.5V0ZM51.417-.628a1.81,1.81,0,0,0,1.308-.457A1.689,1.689,0,0,0,53.2-2.363V-2.9l-.892.038a3.243,3.243,0,0,0-1.533.33,1,1,0,0,0-.47.91.919.919,0,0,0,.293.736A1.215,1.215,0,0,0,51.417-.628Zm6.864.736A2.512,2.512,0,0,1,56.3-.679a3.236,3.236,0,0,1-.7-2.226,3.337,3.337,0,0,1,.712-2.283,2.562,2.562,0,0,1,2.028-.806,4.024,4.024,0,0,1,.849.091,2.8,2.8,0,0,1,.666.215l-.274.757a4.192,4.192,0,0,0-.645-.2,2.878,2.878,0,0,0-.618-.078q-1.794,0-1.794,2.288a2.724,2.724,0,0,0,.438,1.665,1.523,1.523,0,0,0,1.3.58A3.966,3.966,0,0,0,59.77-.988V-.2A3.217,3.217,0,0,1,58.282.107Zm5.237,0a2.512,2.512,0,0,1-1.979-.787,3.236,3.236,0,0,1-.7-2.226,3.337,3.337,0,0,1,.712-2.283,2.562,2.562,0,0,1,2.028-.806,4.024,4.024,0,0,1,.849.091,2.8,2.8,0,0,1,.666.215l-.274.757a4.192,4.192,0,0,0-.645-.2,2.878,2.878,0,0,0-.618-.078q-1.794,0-1.794,2.288A2.724,2.724,0,0,0,62.2-1.251a1.523,1.523,0,0,0,1.3.58,3.966,3.966,0,0,0,1.509-.317V-.2A3.217,3.217,0,0,1,63.519.107Zm7.965-3.056A3.247,3.247,0,0,1,70.759-.7a2.554,2.554,0,0,1-2,.808,2.653,2.653,0,0,1-1.4-.371,2.446,2.446,0,0,1-.945-1.063,3.706,3.706,0,0,1-.333-1.622,3.242,3.242,0,0,1,.72-2.242,2.545,2.545,0,0,1,2-.8,2.49,2.49,0,0,1,1.963.822A3.233,3.233,0,0,1,71.484-2.949ZM67-2.949A2.794,2.794,0,0,0,67.45-1.23a1.566,1.566,0,0,0,1.327.591,1.577,1.577,0,0,0,1.329-.588,2.78,2.78,0,0,0,.454-1.721,2.735,2.735,0,0,0-.454-1.705,1.6,1.6,0,0,0-1.34-.583,1.569,1.569,0,0,0-1.321.575A2.766,2.766,0,0,0,67-2.949Zm6.886-2.938v3.819a1.536,1.536,0,0,0,.328,1.074,1.335,1.335,0,0,0,1.026.354,1.674,1.674,0,0,0,1.351-.5,2.547,2.547,0,0,0,.427-1.649V-5.887h.892V0h-.736l-.129-.79h-.048a1.777,1.777,0,0,1-.76.666,2.554,2.554,0,0,1-1.109.231A2.25,2.25,0,0,1,73.517-.4a2.172,2.172,0,0,1-.534-1.633V-5.887ZM83.827,0V-3.808A1.536,1.536,0,0,0,83.5-4.882a1.335,1.335,0,0,0-1.026-.354,1.692,1.692,0,0,0-1.354.5,2.522,2.522,0,0,0-.43,1.649V0H79.8V-5.887h.725l.145.806h.043a1.821,1.821,0,0,1,.768-.674,2.5,2.5,0,0,1,1.1-.239,2.236,2.236,0,0,1,1.6.513,2.183,2.183,0,0,1,.537,1.641V0Zm4.625-.628a2.913,2.913,0,0,0,.457-.035,2.955,2.955,0,0,0,.349-.073v.682a1.63,1.63,0,0,1-.427.115,3.207,3.207,0,0,1-.508.046q-1.708,0-1.708-1.8v-3.5h-.843v-.43l.843-.371.376-1.257h.516v1.364h1.708v.693H87.506v3.464a1.192,1.192,0,0,0,.252.816A.878.878,0,0,0,88.451-.628Z" transform="translate(77 124)" fill="#2777d3"/>
        <g id="Group_8413" data-name="Group 8413" transform="translate(58 112)">
          <rect id="Rectangle_3875" data-name="Rectangle 3875" width="16" height="16" transform="translate(16) rotate(90)" fill="none"/>
          <path id="Path_5567" data-name="Path 5567" d="M382.3,13.533l-4.2-4.2,4.2-4.2a.644.644,0,0,0,0-.933h0a.644.644,0,0,0-.933,0l-4.2,4.2-.467.467a.644.644,0,0,0,0,.933l.467.467,4.2,4.2a.644.644,0,0,0,.933,0h0A.643.643,0,0,0,382.3,13.533Z" transform="translate(-371.5 -1.333)" fill="#2777d3"/>
        </g>
      </g>
    </g>
  </g>
</svg>
