<svg xmlns="http://www.w3.org/2000/svg" xmlns:xlink="http://www.w3.org/1999/xlink" width="1000" height="215" viewBox="0 0 1000 215">
  <defs>
    <filter id="Rectangle_10023" x="522.5" y="63.5" width="159" height="127" filterUnits="userSpaceOnUse">
      <feOffset dy="1" input="SourceAlpha"/>
      <feGaussianBlur stdDeviation="1.5" result="blur"/>
      <feFlood flood-opacity="0.161"/>
      <feComposite operator="in" in2="blur"/>
      <feComposite in="SourceGraphic"/>
    </filter>
    <clipPath id="clip-button-dropdown_usage">
      <rect width="1000" height="215"/>
    </clipPath>
  </defs>
  <g id="button-dropdown_usage" clip-path="url(#clip-button-dropdown_usage)">
    <rect width="1000" height="215" fill="#f4f4f6"/>
    <g id="Dropdown_Button" data-name="Dropdown Button" transform="translate(377.514 31)">
      <rect id="Rectangle_3990" data-name="Rectangle 3990" width="101.329" height="33" rx="16.5" transform="translate(0 2)" fill="#2777d3"/>
      <g id="Group_264634" data-name="Group 264634" transform="translate(-1 8)">
        <g id="Chevron_up" data-name="Chevron up" transform="translate(79.329 10) rotate(180)">
          <g id="Group_264667" data-name="Group 264667" transform="translate(-8 -8)">
            <path id="Path_101500" data-name="Path 101500" d="M4,10.7,2.8,9.4a.3.3,0,0,1,0-.4l5-5a.3.3,0,0,1,.4,0l5,5.1a.3.3,0,0,1,0,.4L12,10.7a.3.3,0,0,1-.4,0L8,7.1,4.4,10.7a.3.3,0,0,1-.4,0Z" fill="#fff"/>
            <rect id="Rectangle_10039" data-name="Rectangle 10039" width="16" height="16" fill="none"/>
          </g>
        </g>
        <path id="Path_101501" data-name="Path 101501" d="M.759-.39V-2.064A2.587,2.587,0,0,0,1.3-1.7a4.146,4.146,0,0,0,.66.277,5.2,5.2,0,0,0,.7.174,3.717,3.717,0,0,0,.643.062,2.742,2.742,0,0,0,1.528-.342,1.124,1.124,0,0,0,.5-.991,1.081,1.081,0,0,0-.167-.6,1.757,1.757,0,0,0-.468-.468A4.92,4.92,0,0,0,3.982-4Q3.575-4.19,3.11-4.4q-.5-.267-.93-.54a4,4,0,0,1-.749-.6,2.531,2.531,0,0,1-.5-.749,2.438,2.438,0,0,1-.181-.978,2.256,2.256,0,0,1,.311-1.2,2.627,2.627,0,0,1,.82-.841,3.761,3.761,0,0,1,1.159-.492,5.5,5.5,0,0,1,1.326-.161,5.353,5.353,0,0,1,2.242.349v1.606a3.581,3.581,0,0,0-2.146-.6,3.846,3.846,0,0,0-.721.068,2.144,2.144,0,0,0-.643.226,1.391,1.391,0,0,0-.461.4.989.989,0,0,0-.178.595,1.125,1.125,0,0,0,.137.567,1.464,1.464,0,0,0,.4.438,4.086,4.086,0,0,0,.643.386q.379.188.878.407.513.267.967.561a4.56,4.56,0,0,1,.8.649,2.854,2.854,0,0,1,.547.79,2.319,2.319,0,0,1,.2.988,2.448,2.448,0,0,1-.3,1.258,2.424,2.424,0,0,1-.81.834A3.608,3.608,0,0,1,4.751.021a6.61,6.61,0,0,1-1.4.144,5.967,5.967,0,0,1-.6-.038Q2.386.089,2.01.017A6.759,6.759,0,0,1,1.3-.157,2.251,2.251,0,0,1,.759-.39ZM14.027,0H12.489V-1.094h-.027A2.316,2.316,0,0,1,10.336.164,2.239,2.239,0,0,1,8.719-.4,1.961,1.961,0,0,1,8.135-1.88q0-1.982,2.283-2.311L12.5-4.484q0-1.5-1.422-1.5a3.378,3.378,0,0,0-2.256.861V-6.508a4.919,4.919,0,0,1,2.557-.656,2.326,2.326,0,0,1,2.652,2.611ZM12.5-3.438l-1.47.205A2.33,2.33,0,0,0,10-2.9a.969.969,0,0,0-.345.851.932.932,0,0,0,.318.728,1.231,1.231,0,0,0,.851.284,1.57,1.57,0,0,0,1.2-.509A1.806,1.806,0,0,0,12.5-2.83ZM21.991-7,19.284,0H17.568L14.991-7h1.723l1.552,4.895a4.563,4.563,0,0,1,.219.943H18.5a5.064,5.064,0,0,1,.191-.916L20.323-7Zm6.891,3.931H24.11a2.017,2.017,0,0,0,.6,1.5,2.225,2.225,0,0,0,1.569.526,3.459,3.459,0,0,0,2.058-.67V-.437a4.7,4.7,0,0,1-2.529.6A3.131,3.131,0,0,1,23.382-.79,3.814,3.814,0,0,1,22.5-3.473a3.73,3.73,0,0,1,.967-2.663,3.164,3.164,0,0,1,2.4-1.029,2.759,2.759,0,0,1,2.222.923,3.832,3.832,0,0,1,.786,2.563ZM27.351-4.19a2.044,2.044,0,0,0-.4-1.33A1.348,1.348,0,0,0,25.854-6a1.539,1.539,0,0,0-1.159.5A2.28,2.28,0,0,0,24.11-4.19ZM39.614,0H38.076V-1.094h-.027A2.316,2.316,0,0,1,35.923.164,2.239,2.239,0,0,1,34.306-.4a1.961,1.961,0,0,1-.584-1.483q0-1.982,2.283-2.311l2.078-.294q0-1.5-1.422-1.5a3.378,3.378,0,0,0-2.256.861V-6.508a4.919,4.919,0,0,1,2.557-.656,2.326,2.326,0,0,1,2.652,2.611ZM38.083-3.438l-1.47.205a2.33,2.33,0,0,0-1.029.332.969.969,0,0,0-.345.851.932.932,0,0,0,.318.728,1.231,1.231,0,0,0,.851.284,1.57,1.57,0,0,0,1.2-.509,1.806,1.806,0,0,0,.475-1.282Zm3.028,3.22v-1.47a3.164,3.164,0,0,0,1.962.677q1.436,0,1.436-.848a.668.668,0,0,0-.123-.407,1.175,1.175,0,0,0-.332-.3,2.607,2.607,0,0,0-.492-.232q-.284-.1-.632-.232a6.694,6.694,0,0,1-.776-.362,2.344,2.344,0,0,1-.574-.434,1.639,1.639,0,0,1-.345-.55,2.026,2.026,0,0,1-.116-.718,1.659,1.659,0,0,1,.239-.892A2.079,2.079,0,0,1,42-6.634a3.081,3.081,0,0,1,.916-.4,4.194,4.194,0,0,1,1.06-.133,4.817,4.817,0,0,1,1.736.294v1.388a2.927,2.927,0,0,0-1.7-.506,2.214,2.214,0,0,0-.543.062,1.4,1.4,0,0,0-.414.171.841.841,0,0,0-.267.263.628.628,0,0,0-.1.338.723.723,0,0,0,.1.383.869.869,0,0,0,.284.277,2.45,2.45,0,0,0,.451.219q.263.1.6.215a8.839,8.839,0,0,1,.81.376,2.737,2.737,0,0,1,.612.434,1.7,1.7,0,0,1,.39.561,1.9,1.9,0,0,1,.137.755,1.727,1.727,0,0,1-.246.93,2.051,2.051,0,0,1-.656.656,3.072,3.072,0,0,1-.947.386A4.918,4.918,0,0,1,43.1.164,4.767,4.767,0,0,1,41.111-.219Z" transform="translate(15.248 15)" fill="#fff"/>
      </g>
    </g>
    <g id="Dropdown_Button-2" data-name="Dropdown Button" transform="translate(527 31)">
      <g id="Dropdown_options" data-name="Dropdown options" transform="translate(-16)">
        <g transform="matrix(1, 0, 0, 1, -511, -31)" filter="url(#Rectangle_10023)">
          <rect id="Rectangle_10023-2" data-name="Rectangle 10023" width="150" height="118" transform="translate(527 67)" fill="#fff"/>
        </g>
        <g id="dropdown_item" data-name="dropdown item" transform="translate(16 42)">
          <rect id="Rectangle_4665" data-name="Rectangle 4665" width="150" height="36" fill="#fff"/>
          <text id="PDF" transform="translate(15 22)" fill="#494955" font-size="14" font-family="SegoeUI, Segoe UI"><tspan x="0" y="0">PDF</tspan></text>
        </g>
        <g id="dropdown_item-2" data-name="dropdown item" transform="translate(16 78)">
          <rect id="Rectangle_4665-2" data-name="Rectangle 4665" width="150" height="36" fill="#fff"/>
          <text id="Excel" transform="translate(15 22)" fill="#494955" font-size="14" font-family="SegoeUI, Segoe UI"><tspan x="0" y="0">Excel</tspan></text>
        </g>
        <g id="dropdown_item-3" data-name="dropdown item" transform="translate(16 114)">
          <rect id="Rectangle_4665-3" data-name="Rectangle 4665" width="150" height="36" fill="#fff"/>
          <text id="PowerPoint" transform="translate(15 22)" fill="#494955" font-size="14" font-family="SegoeUI, Segoe UI"><tspan x="0" y="0">PowerPoint</tspan></text>
        </g>
      </g>
      <g id="Group_264634-2" data-name="Group 264634" transform="translate(0 8)">
        <path id="Path_7189" data-name="Path 7189" d="M15.036,9.421,12,12.457,8.964,9.421a1,1,0,0,0-1.414,0h0a1,1,0,0,0,0,1.414l3.743,3.743a1,1,0,0,0,1.414,0l3.743-3.743a1,1,0,0,0,0-1.414h0A1,1,0,0,0,15.036,9.421Z" transform="translate(61.743 -1)" fill="#fff"/>
        <text id="Action" transform="translate(16 15)" fill="#fff" font-size="14" font-family="SegoeUI-Semibold, Segoe UI" font-weight="600"><tspan x="0" y="0">Action</tspan></text>
      </g>
      <g id="Group_264632" data-name="Group 264632">
        <rect id="Rectangle_3990-2" data-name="Rectangle 3990" width="103" height="36" rx="18" fill="#1f5ea8"/>
        <g id="Chevron_up-2" data-name="Chevron up" transform="translate(80 18)">
          <g id="Group_264667-2" data-name="Group 264667" transform="translate(-8 -8)">
            <path id="Path_101500-2" data-name="Path 101500" d="M4,10.7,2.8,9.4a.3.3,0,0,1,0-.4l5-5a.3.3,0,0,1,.4,0l5,5.1a.3.3,0,0,1,0,.4L12,10.7a.3.3,0,0,1-.4,0L8,7.1,4.4,10.7a.3.3,0,0,1-.4,0Z" fill="#fff"/>
            <rect id="Rectangle_10039-2" data-name="Rectangle 10039" width="16" height="16" fill="none"/>
          </g>
        </g>
        <path id="Path_101502" data-name="Path 101502" d="M.759-.39V-2.064A2.587,2.587,0,0,0,1.3-1.7a4.146,4.146,0,0,0,.66.277,5.2,5.2,0,0,0,.7.174,3.717,3.717,0,0,0,.643.062,2.742,2.742,0,0,0,1.528-.342,1.124,1.124,0,0,0,.5-.991,1.081,1.081,0,0,0-.167-.6,1.757,1.757,0,0,0-.468-.468A4.92,4.92,0,0,0,3.982-4Q3.575-4.19,3.11-4.4q-.5-.267-.93-.54a4,4,0,0,1-.749-.6,2.531,2.531,0,0,1-.5-.749,2.438,2.438,0,0,1-.181-.978,2.256,2.256,0,0,1,.311-1.2,2.627,2.627,0,0,1,.82-.841,3.761,3.761,0,0,1,1.159-.492,5.5,5.5,0,0,1,1.326-.161,5.353,5.353,0,0,1,2.242.349v1.606a3.581,3.581,0,0,0-2.146-.6,3.846,3.846,0,0,0-.721.068,2.144,2.144,0,0,0-.643.226,1.391,1.391,0,0,0-.461.4.989.989,0,0,0-.178.595,1.125,1.125,0,0,0,.137.567,1.464,1.464,0,0,0,.4.438,4.086,4.086,0,0,0,.643.386q.379.188.878.407.513.267.967.561a4.56,4.56,0,0,1,.8.649,2.854,2.854,0,0,1,.547.79,2.319,2.319,0,0,1,.2.988,2.448,2.448,0,0,1-.3,1.258,2.424,2.424,0,0,1-.81.834A3.608,3.608,0,0,1,4.751.021a6.61,6.61,0,0,1-1.4.144,5.967,5.967,0,0,1-.6-.038Q2.386.089,2.01.017A6.759,6.759,0,0,1,1.3-.157,2.251,2.251,0,0,1,.759-.39ZM14.027,0H12.489V-1.094h-.027A2.316,2.316,0,0,1,10.336.164,2.239,2.239,0,0,1,8.719-.4,1.961,1.961,0,0,1,8.135-1.88q0-1.982,2.283-2.311L12.5-4.484q0-1.5-1.422-1.5a3.378,3.378,0,0,0-2.256.861V-6.508a4.919,4.919,0,0,1,2.557-.656,2.326,2.326,0,0,1,2.652,2.611ZM12.5-3.438l-1.47.205A2.33,2.33,0,0,0,10-2.9a.969.969,0,0,0-.345.851.932.932,0,0,0,.318.728,1.231,1.231,0,0,0,.851.284,1.57,1.57,0,0,0,1.2-.509A1.806,1.806,0,0,0,12.5-2.83ZM21.991-7,19.284,0H17.568L14.991-7h1.723l1.552,4.895a4.563,4.563,0,0,1,.219.943H18.5a5.064,5.064,0,0,1,.191-.916L20.323-7Zm6.891,3.931H24.11a2.017,2.017,0,0,0,.6,1.5,2.225,2.225,0,0,0,1.569.526,3.459,3.459,0,0,0,2.058-.67V-.437a4.7,4.7,0,0,1-2.529.6A3.131,3.131,0,0,1,23.382-.79,3.814,3.814,0,0,1,22.5-3.473a3.73,3.73,0,0,1,.967-2.663,3.164,3.164,0,0,1,2.4-1.029,2.759,2.759,0,0,1,2.222.923,3.832,3.832,0,0,1,.786,2.563ZM27.351-4.19a2.044,2.044,0,0,0-.4-1.33A1.348,1.348,0,0,0,25.854-6a1.539,1.539,0,0,0-1.159.5A2.28,2.28,0,0,0,24.11-4.19ZM39.614,0H38.076V-1.094h-.027A2.316,2.316,0,0,1,35.923.164,2.239,2.239,0,0,1,34.306-.4a1.961,1.961,0,0,1-.584-1.483q0-1.982,2.283-2.311l2.078-.294q0-1.5-1.422-1.5a3.378,3.378,0,0,0-2.256.861V-6.508a4.919,4.919,0,0,1,2.557-.656,2.326,2.326,0,0,1,2.652,2.611ZM38.083-3.438l-1.47.205a2.33,2.33,0,0,0-1.029.332.969.969,0,0,0-.345.851.932.932,0,0,0,.318.728,1.231,1.231,0,0,0,.851.284,1.57,1.57,0,0,0,1.2-.509,1.806,1.806,0,0,0,.475-1.282Zm3.028,3.22v-1.47a3.164,3.164,0,0,0,1.962.677q1.436,0,1.436-.848a.668.668,0,0,0-.123-.407,1.175,1.175,0,0,0-.332-.3,2.607,2.607,0,0,0-.492-.232q-.284-.1-.632-.232a6.694,6.694,0,0,1-.776-.362,2.344,2.344,0,0,1-.574-.434,1.639,1.639,0,0,1-.345-.55,2.026,2.026,0,0,1-.116-.718,1.659,1.659,0,0,1,.239-.892A2.079,2.079,0,0,1,42-6.634a3.081,3.081,0,0,1,.916-.4,4.194,4.194,0,0,1,1.06-.133,4.817,4.817,0,0,1,1.736.294v1.388a2.927,2.927,0,0,0-1.7-.506,2.214,2.214,0,0,0-.543.062,1.4,1.4,0,0,0-.414.171.841.841,0,0,0-.267.263.628.628,0,0,0-.1.338.723.723,0,0,0,.1.383.869.869,0,0,0,.284.277,2.45,2.45,0,0,0,.451.219q.263.1.6.215a8.839,8.839,0,0,1,.81.376,2.737,2.737,0,0,1,.612.434,1.7,1.7,0,0,1,.39.561,1.9,1.9,0,0,1,.137.755,1.727,1.727,0,0,1-.246.93,2.051,2.051,0,0,1-.656.656,3.072,3.072,0,0,1-.947.386A4.918,4.918,0,0,1,43.1.164,4.767,4.767,0,0,1,41.111-.219Z" transform="translate(15 23)" fill="#fff"/>
      </g>
    </g>
  </g>
</svg>
