<svg xmlns="http://www.w3.org/2000/svg" xmlns:xlink="http://www.w3.org/1999/xlink" width="1000" height="300" viewBox="0 0 1000 300">
  <defs>
    <clipPath id="clip-button-group_states">
      <rect width="1000" height="300"/>
    </clipPath>
  </defs>
  <g id="button-group_states" clip-path="url(#clip-button-group_states)">
    <rect width="1000" height="300" fill="#f4f4f6"/>
    <path id="Path_101545" data-name="Path 101545" d="M8.654,0H7.506V-4.471H2.434V0H1.285V-9.8H2.434v4.3H7.506V-9.8H8.654ZM14,.164a3.247,3.247,0,0,1-2.478-.981,3.634,3.634,0,0,1-.926-2.6,3.785,3.785,0,0,1,.964-2.755,3.465,3.465,0,0,1,2.6-.991,3.14,3.14,0,0,1,2.444.964,3.822,3.822,0,0,1,.878,2.673A3.761,3.761,0,0,1,16.54-.844,3.317,3.317,0,0,1,14,.164Zm.082-6.385a2.132,2.132,0,0,0-1.709.735,3.018,3.018,0,0,0-.629,2.027A2.854,2.854,0,0,0,12.38-1.5a2.161,2.161,0,0,0,1.7.718,2.049,2.049,0,0,0,1.671-.7,3.055,3.055,0,0,0,.584-2,3.108,3.108,0,0,0-.584-2.023A2.04,2.04,0,0,0,14.082-6.221ZM24.78-7,21.991,0h-1.1L18.238-7h1.23l1.777,5.086a4.565,4.565,0,0,1,.246.978h.027a4.622,4.622,0,0,1,.219-.95L23.6-7Zm6.829,3.78H26.667a2.618,2.618,0,0,0,.629,1.8,2.168,2.168,0,0,0,1.654.636,3.439,3.439,0,0,0,2.174-.779V-.506a4.063,4.063,0,0,1-2.44.67A2.959,2.959,0,0,1,26.353-.79,3.9,3.9,0,0,1,25.5-3.473a3.828,3.828,0,0,1,.926-2.663,2.97,2.97,0,0,1,2.3-1.029,2.632,2.632,0,0,1,2.126.889,3.705,3.705,0,0,1,.752,2.468Zm-1.148-.95a2.281,2.281,0,0,0-.468-1.511,1.6,1.6,0,0,0-1.282-.54,1.811,1.811,0,0,0-1.347.567,2.575,2.575,0,0,0-.684,1.483Zm6.494-1.7a1.371,1.371,0,0,0-.848-.226,1.431,1.431,0,0,0-1.2.677,3.129,3.129,0,0,0-.482,1.846V0H33.3V-7h1.121v1.442h.027a2.444,2.444,0,0,1,.731-1.152,1.668,1.668,0,0,1,1.1-.414,1.83,1.83,0,0,1,.67.1Z" transform="translate(213 105)" fill="#17987c"/>
    <path id="Path_101546" data-name="Path 101546" d="M6.262-8.764H2.434v3.391H5.975v1.032H2.434V0H1.285V-9.8H6.262ZM10.9.164A3.247,3.247,0,0,1,8.418-.817a3.633,3.633,0,0,1-.926-2.6,3.785,3.785,0,0,1,.964-2.755,3.465,3.465,0,0,1,2.6-.991A3.14,3.14,0,0,1,13.5-6.2a3.822,3.822,0,0,1,.878,2.673,3.761,3.761,0,0,1-.947,2.683A3.317,3.317,0,0,1,10.9.164Zm.082-6.385a2.132,2.132,0,0,0-1.709.735,3.018,3.018,0,0,0-.629,2.027A2.854,2.854,0,0,0,9.276-1.5a2.161,2.161,0,0,0,1.7.718,2.049,2.049,0,0,0,1.671-.7,3.055,3.055,0,0,0,.584-2A3.108,3.108,0,0,0,12.65-5.51,2.04,2.04,0,0,0,10.979-6.221Zm9.967,5.9a3.643,3.643,0,0,1-1.914.485A3.169,3.169,0,0,1,16.615-.81,3.53,3.53,0,0,1,15.7-3.336a3.881,3.881,0,0,1,.991-2.779,3.467,3.467,0,0,1,2.646-1.049,3.682,3.682,0,0,1,1.627.342v1.148a2.85,2.85,0,0,0-1.668-.547,2.254,2.254,0,0,0-1.76.769,2.918,2.918,0,0,0-.687,2.02A2.779,2.779,0,0,0,17.49-1.49a2.227,2.227,0,0,0,1.733.711,2.81,2.81,0,0,0,1.723-.608ZM28.3,0H27.18V-1.107h-.027A2.3,2.3,0,0,1,24.992.164q-2.5,0-2.5-2.98V-7H23.6v4.006q0,2.215,1.7,2.215a1.715,1.715,0,0,0,1.35-.6,2.315,2.315,0,0,0,.53-1.583V-7H28.3ZM30.14-.253v-1.2a3.318,3.318,0,0,0,2.017.677q1.477,0,1.477-.984a.854.854,0,0,0-.126-.475,1.26,1.26,0,0,0-.342-.345,2.631,2.631,0,0,0-.506-.27q-.291-.12-.625-.25a8.056,8.056,0,0,1-.817-.373,2.468,2.468,0,0,1-.588-.424,1.577,1.577,0,0,1-.355-.537,1.9,1.9,0,0,1-.12-.7,1.673,1.673,0,0,1,.226-.872,2,2,0,0,1,.6-.636,2.805,2.805,0,0,1,.858-.386,3.805,3.805,0,0,1,.995-.13,4.016,4.016,0,0,1,1.627.314v1.135a3.171,3.171,0,0,0-1.777-.506,2.078,2.078,0,0,0-.567.072,1.389,1.389,0,0,0-.434.2.932.932,0,0,0-.28.311.819.819,0,0,0-.1.4.959.959,0,0,0,.1.458,1.008,1.008,0,0,0,.291.328,2.221,2.221,0,0,0,.465.26q.273.116.622.253a8.658,8.658,0,0,1,.834.366,2.86,2.86,0,0,1,.629.424,1.656,1.656,0,0,1,.4.543,1.753,1.753,0,0,1,.14.731,1.725,1.725,0,0,1-.229.9,1.963,1.963,0,0,1-.612.636,2.8,2.8,0,0,1-.882.376,4.354,4.354,0,0,1-1.046.123A3.971,3.971,0,0,1,30.14-.253Z" transform="translate(215 156)" fill="#17987c"/>
    <path id="Path_101547" data-name="Path 101547" d="M2.434-3.705V0H1.285V-9.8H3.979a3.555,3.555,0,0,1,2.437.766,2.734,2.734,0,0,1,.865,2.16,2.971,2.971,0,0,1-.96,2.283,3.67,3.67,0,0,1-2.594.889Zm0-5.059v4.02h1.2a2.69,2.69,0,0,0,1.815-.543,1.924,1.924,0,0,0,.625-1.535q0-1.941-2.3-1.941Zm10.192,2.9a1.371,1.371,0,0,0-.848-.226,1.431,1.431,0,0,0-1.2.677A3.129,3.129,0,0,0,10.1-3.568V0H8.976V-7H10.1v1.442h.027a2.444,2.444,0,0,1,.731-1.152,1.668,1.668,0,0,1,1.1-.414,1.83,1.83,0,0,1,.67.1ZM19.469-3.22H14.526a2.618,2.618,0,0,0,.629,1.8,2.168,2.168,0,0,0,1.654.636,3.439,3.439,0,0,0,2.174-.779V-.506a4.063,4.063,0,0,1-2.44.67A2.959,2.959,0,0,1,14.212-.79a3.9,3.9,0,0,1-.848-2.683,3.828,3.828,0,0,1,.926-2.663,2.97,2.97,0,0,1,2.3-1.029,2.632,2.632,0,0,1,2.126.889,3.705,3.705,0,0,1,.752,2.468ZM18.32-4.17a2.281,2.281,0,0,0-.468-1.511,1.6,1.6,0,0,0-1.282-.54,1.811,1.811,0,0,0-1.347.567A2.575,2.575,0,0,0,14.54-4.17ZM20.74-.253v-1.2a3.318,3.318,0,0,0,2.017.677q1.477,0,1.477-.984a.854.854,0,0,0-.126-.475,1.26,1.26,0,0,0-.342-.345,2.631,2.631,0,0,0-.506-.27q-.291-.12-.625-.25a8.056,8.056,0,0,1-.817-.373,2.468,2.468,0,0,1-.588-.424,1.577,1.577,0,0,1-.355-.537,1.9,1.9,0,0,1-.12-.7,1.673,1.673,0,0,1,.226-.872,2,2,0,0,1,.6-.636,2.805,2.805,0,0,1,.858-.386,3.805,3.805,0,0,1,.995-.13,4.016,4.016,0,0,1,1.627.314v1.135a3.171,3.171,0,0,0-1.777-.506,2.078,2.078,0,0,0-.567.072,1.389,1.389,0,0,0-.434.2.932.932,0,0,0-.28.311.819.819,0,0,0-.1.4.959.959,0,0,0,.1.458,1.008,1.008,0,0,0,.291.328,2.221,2.221,0,0,0,.465.26q.273.116.622.253a8.658,8.658,0,0,1,.834.366,2.86,2.86,0,0,1,.629.424,1.656,1.656,0,0,1,.4.543,1.753,1.753,0,0,1,.14.731,1.725,1.725,0,0,1-.229.9,1.963,1.963,0,0,1-.612.636,2.8,2.8,0,0,1-.882.376,4.354,4.354,0,0,1-1.046.123A3.971,3.971,0,0,1,20.74-.253Zm5.94,0v-1.2A3.318,3.318,0,0,0,28.7-.779q1.477,0,1.477-.984a.854.854,0,0,0-.126-.475,1.26,1.26,0,0,0-.342-.345,2.631,2.631,0,0,0-.506-.27q-.291-.12-.625-.25a8.056,8.056,0,0,1-.817-.373,2.468,2.468,0,0,1-.588-.424,1.577,1.577,0,0,1-.355-.537,1.9,1.9,0,0,1-.12-.7,1.673,1.673,0,0,1,.226-.872,2,2,0,0,1,.6-.636,2.805,2.805,0,0,1,.858-.386,3.805,3.805,0,0,1,.995-.13A4.016,4.016,0,0,1,31-6.85v1.135a3.171,3.171,0,0,0-1.777-.506,2.078,2.078,0,0,0-.567.072,1.389,1.389,0,0,0-.434.2.932.932,0,0,0-.28.311.819.819,0,0,0-.1.4.959.959,0,0,0,.1.458,1.008,1.008,0,0,0,.291.328,2.221,2.221,0,0,0,.465.26q.273.116.622.253a8.658,8.658,0,0,1,.834.366,2.86,2.86,0,0,1,.629.424,1.656,1.656,0,0,1,.4.543,1.753,1.753,0,0,1,.14.731,1.725,1.725,0,0,1-.229.9,1.963,1.963,0,0,1-.612.636A2.8,2.8,0,0,1,29.6.041a4.354,4.354,0,0,1-1.046.123A3.971,3.971,0,0,1,26.681-.253ZM38.671-3.22H33.729a2.618,2.618,0,0,0,.629,1.8,2.168,2.168,0,0,0,1.654.636,3.439,3.439,0,0,0,2.174-.779V-.506a4.063,4.063,0,0,1-2.44.67A2.959,2.959,0,0,1,33.414-.79a3.9,3.9,0,0,1-.848-2.683,3.828,3.828,0,0,1,.926-2.663,2.97,2.97,0,0,1,2.3-1.029,2.632,2.632,0,0,1,2.126.889,3.705,3.705,0,0,1,.752,2.468Zm-1.148-.95a2.281,2.281,0,0,0-.468-1.511,1.6,1.6,0,0,0-1.282-.54,1.811,1.811,0,0,0-1.347.567,2.575,2.575,0,0,0-.684,1.483ZM46.341,0H45.22V-1.189h-.027A2.588,2.588,0,0,1,42.786.164a2.615,2.615,0,0,1-2.109-.94,3.856,3.856,0,0,1-.79-2.56,4.2,4.2,0,0,1,.875-2.782,2.886,2.886,0,0,1,2.331-1.046,2.244,2.244,0,0,1,2.1,1.135h.027v-4.334h1.121ZM45.22-3.165V-4.2a2,2,0,0,0-.561-1.436,1.88,1.88,0,0,0-1.422-.588,1.936,1.936,0,0,0-1.613.752,3.3,3.3,0,0,0-.588,2.078A2.964,2.964,0,0,0,41.6-1.48a1.843,1.843,0,0,0,1.514.7,1.915,1.915,0,0,0,1.521-.677A2.521,2.521,0,0,0,45.22-3.165Z" transform="translate(203 207)" fill="#17987c"/>
    <path id="Path_101548" data-name="Path 101548" d="M1.285,0V-9.8H3.992q5.182,0,5.182,4.778A4.815,4.815,0,0,1,7.735-1.377,5.338,5.338,0,0,1,3.883,0ZM2.434-8.764v7.725H3.9a4.152,4.152,0,0,0,3-1.032A3.869,3.869,0,0,0,7.971-5q0-3.767-4.006-3.767Zm9.092-.014a.71.71,0,0,1-.513-.205A.692.692,0,0,1,10.8-9.5a.7.7,0,0,1,.212-.523.7.7,0,0,1,.513-.208.724.724,0,0,1,.523.208.7.7,0,0,1,.215.523.693.693,0,0,1-.215.513A.718.718,0,0,1,11.525-8.777ZM12.072,0H10.951V-7h1.121Zm1.846-.253v-1.2a3.318,3.318,0,0,0,2.017.677q1.477,0,1.477-.984a.854.854,0,0,0-.126-.475,1.26,1.26,0,0,0-.342-.345,2.631,2.631,0,0,0-.506-.27q-.291-.12-.625-.25a8.056,8.056,0,0,1-.817-.373,2.468,2.468,0,0,1-.588-.424,1.577,1.577,0,0,1-.355-.537,1.9,1.9,0,0,1-.12-.7,1.673,1.673,0,0,1,.226-.872,2,2,0,0,1,.6-.636,2.805,2.805,0,0,1,.858-.386,3.805,3.805,0,0,1,.995-.13,4.016,4.016,0,0,1,1.627.314v1.135a3.171,3.171,0,0,0-1.777-.506,2.078,2.078,0,0,0-.567.072,1.389,1.389,0,0,0-.434.2.932.932,0,0,0-.28.311.819.819,0,0,0-.1.4.959.959,0,0,0,.1.458,1.008,1.008,0,0,0,.291.328,2.221,2.221,0,0,0,.465.26q.273.116.622.253a8.658,8.658,0,0,1,.834.366,2.86,2.86,0,0,1,.629.424,1.656,1.656,0,0,1,.4.543,1.753,1.753,0,0,1,.14.731,1.725,1.725,0,0,1-.229.9,1.963,1.963,0,0,1-.612.636,2.8,2.8,0,0,1-.882.376,4.354,4.354,0,0,1-1.046.123A3.971,3.971,0,0,1,13.918-.253ZM25.293,0H24.172V-1.094h-.027A2.347,2.347,0,0,1,21.991.164,2.3,2.3,0,0,1,20.354-.39a1.918,1.918,0,0,1-.591-1.47q0-1.962,2.311-2.283l2.1-.294q0-1.784-1.442-1.784a3.446,3.446,0,0,0-2.283.861V-6.508a4.338,4.338,0,0,1,2.379-.656q2.468,0,2.468,2.611ZM24.172-3.541l-1.688.232a2.741,2.741,0,0,0-1.176.386,1.114,1.114,0,0,0-.4.981,1.068,1.068,0,0,0,.366.837,1.413,1.413,0,0,0,.974.325,1.8,1.8,0,0,0,1.377-.584,2.088,2.088,0,0,0,.543-1.48Zm4.382,2.529h-.027V0H27.405V-10.363h1.121V-5.77h.027a2.651,2.651,0,0,1,2.42-1.395,2.566,2.566,0,0,1,2.109.94,3.881,3.881,0,0,1,.762,2.519A4.339,4.339,0,0,1,32.99-.892,2.845,2.845,0,0,1,30.652.164,2.3,2.3,0,0,1,28.554-1.012Zm-.027-2.823v.978a2.081,2.081,0,0,0,.564,1.473,1.873,1.873,0,0,0,1.432.6,1.876,1.876,0,0,0,1.6-.779A3.575,3.575,0,0,0,32.7-3.726a2.822,2.822,0,0,0-.54-1.832,1.787,1.787,0,0,0-1.463-.663,1.986,1.986,0,0,0-1.572.68A2.5,2.5,0,0,0,28.526-3.835ZM36.757,0H35.636V-10.363h1.121Zm7.9-3.22H39.71a2.618,2.618,0,0,0,.629,1.8,2.168,2.168,0,0,0,1.654.636,3.439,3.439,0,0,0,2.174-.779V-.506a4.063,4.063,0,0,1-2.44.67A2.959,2.959,0,0,1,39.4-.79a3.9,3.9,0,0,1-.848-2.683,3.828,3.828,0,0,1,.926-2.663,2.97,2.97,0,0,1,2.3-1.029,2.632,2.632,0,0,1,2.126.889,3.705,3.705,0,0,1,.752,2.468ZM43.5-4.17a2.281,2.281,0,0,0-.468-1.511,1.6,1.6,0,0,0-1.282-.54,1.811,1.811,0,0,0-1.347.567,2.575,2.575,0,0,0-.684,1.483ZM52.322,0H51.2V-1.189h-.027A2.588,2.588,0,0,1,48.768.164a2.615,2.615,0,0,1-2.109-.94,3.856,3.856,0,0,1-.79-2.56,4.2,4.2,0,0,1,.875-2.782,2.886,2.886,0,0,1,2.331-1.046,2.244,2.244,0,0,1,2.1,1.135H51.2v-4.334h1.121ZM51.2-3.165V-4.2a2,2,0,0,0-.561-1.436,1.88,1.88,0,0,0-1.422-.588,1.936,1.936,0,0,0-1.613.752,3.3,3.3,0,0,0-.588,2.078,2.964,2.964,0,0,0,.564,1.911,1.843,1.843,0,0,0,1.514.7,1.915,1.915,0,0,0,1.521-.677A2.521,2.521,0,0,0,51.2-3.165Z" transform="translate(197 258)" fill="#17987c"/>
    <path id="Path_101544" data-name="Path 101544" d="M1.285,0V-9.8H3.992q5.182,0,5.182,4.778A4.815,4.815,0,0,1,7.735-1.377,5.338,5.338,0,0,1,3.883,0ZM2.434-8.764v7.725H3.9a4.152,4.152,0,0,0,3-1.032A3.869,3.869,0,0,0,7.971-5q0-3.767-4.006-3.767ZM16.577-3.22H11.635a2.618,2.618,0,0,0,.629,1.8,2.168,2.168,0,0,0,1.654.636,3.439,3.439,0,0,0,2.174-.779V-.506a4.063,4.063,0,0,1-2.44.67A2.959,2.959,0,0,1,11.32-.79a3.9,3.9,0,0,1-.848-2.683A3.828,3.828,0,0,1,11.4-6.135a2.97,2.97,0,0,1,2.3-1.029,2.632,2.632,0,0,1,2.126.889,3.705,3.705,0,0,1,.752,2.468Zm-1.148-.95a2.281,2.281,0,0,0-.468-1.511,1.6,1.6,0,0,0-1.282-.54,1.811,1.811,0,0,0-1.347.567,2.575,2.575,0,0,0-.684,1.483Zm6.3-5.209a1.493,1.493,0,0,0-.745-.185q-1.176,0-1.176,1.483V-7h1.641v.957H19.811V0H18.7V-6.043H17.5V-7h1.2V-8.135a2.358,2.358,0,0,1,.636-1.74,2.146,2.146,0,0,1,1.586-.639,2.2,2.2,0,0,1,.813.123ZM27.665,0H26.544V-1.094h-.027A2.347,2.347,0,0,1,24.363.164,2.3,2.3,0,0,1,22.726-.39a1.918,1.918,0,0,1-.591-1.47q0-1.962,2.311-2.283l2.1-.294q0-1.784-1.442-1.784a3.446,3.446,0,0,0-2.283.861V-6.508A4.338,4.338,0,0,1,25.2-7.164q2.468,0,2.468,2.611ZM26.544-3.541l-1.688.232a2.741,2.741,0,0,0-1.176.386,1.114,1.114,0,0,0-.4.981,1.068,1.068,0,0,0,.366.837,1.413,1.413,0,0,0,.974.325A1.8,1.8,0,0,0,26-1.364a2.088,2.088,0,0,0,.543-1.48ZM35.438,0H34.316V-1.107h-.027A2.3,2.3,0,0,1,32.129.164q-2.5,0-2.5-2.98V-7h1.114v4.006q0,2.215,1.7,2.215a1.715,1.715,0,0,0,1.35-.6,2.315,2.315,0,0,0,.53-1.583V-7h1.121Zm3.384,0H37.7V-10.363h1.121Zm5.517-.068A2.161,2.161,0,0,1,43.292.15Q41.453.15,41.453-1.9V-6.043h-1.2V-7h1.2V-8.709l1.121-.362V-7h1.764v.957H42.574V-2.1a1.635,1.635,0,0,0,.239,1,.955.955,0,0,0,.793.3,1.179,1.179,0,0,0,.731-.232Z" transform="translate(205 54)" fill="#17987c"/>
    <path id="Rectangle_3990" data-name="Rectangle 3990" d="M-.5-.5H53a18.5,18.5,0,0,1,7.2,35.546A18.385,18.385,0,0,1,53,36.5H-.5ZM53,35.5a17.5,17.5,0,0,0,0-35H.5v35Z" transform="translate(413 30)" fill="#cbcbd2"/>
    <path id="Path_101526" data-name="Path 101526" d="M1.21,0V-9.8H4.04q5.421,0,5.421,4.778a4.709,4.709,0,0,1-1.5,3.647A5.74,5.74,0,0,1,3.924,0ZM2.83-8.422v7.048h1.3A3.632,3.632,0,0,0,6.8-2.317a3.583,3.583,0,0,0,.954-2.666q0-3.438-3.562-3.438ZM17-3.069H12.229a2.017,2.017,0,0,0,.6,1.5,2.225,2.225,0,0,0,1.569.526,3.459,3.459,0,0,0,2.058-.67V-.437a4.7,4.7,0,0,1-2.529.6A3.131,3.131,0,0,1,11.5-.79a3.814,3.814,0,0,1-.878-2.683,3.73,3.73,0,0,1,.967-2.663,3.164,3.164,0,0,1,2.4-1.029,2.759,2.759,0,0,1,2.222.923A3.832,3.832,0,0,1,17-3.678ZM15.47-4.19a2.044,2.044,0,0,0-.4-1.33A1.348,1.348,0,0,0,13.973-6a1.539,1.539,0,0,0-1.159.5,2.28,2.28,0,0,0-.584,1.306ZM20.1,0H18.512V-10.363H20.1ZM28.1-3.069H23.324a2.017,2.017,0,0,0,.6,1.5,2.225,2.225,0,0,0,1.569.526,3.459,3.459,0,0,0,2.058-.67V-.437a4.7,4.7,0,0,1-2.529.6A3.131,3.131,0,0,1,22.6-.79a3.814,3.814,0,0,1-.878-2.683,3.73,3.73,0,0,1,.967-2.663,3.164,3.164,0,0,1,2.4-1.029,2.759,2.759,0,0,1,2.222.923A3.832,3.832,0,0,1,28.1-3.678ZM26.564-4.19a2.044,2.044,0,0,0-.4-1.33A1.348,1.348,0,0,0,25.067-6a1.539,1.539,0,0,0-1.159.5,2.28,2.28,0,0,0-.584,1.306ZM33.3-.075a2.748,2.748,0,0,1-1.224.232q-2.037,0-2.037-1.955V-5.756H28.868V-7h1.169V-8.62l1.586-.451V-7H33.3v1.244H31.623v3.5a1.379,1.379,0,0,0,.226.889A.936.936,0,0,0,32.6-1.1a1.09,1.09,0,0,0,.7-.232ZM40.51-3.069H35.738a2.017,2.017,0,0,0,.6,1.5,2.225,2.225,0,0,0,1.569.526,3.459,3.459,0,0,0,2.058-.67V-.437a4.7,4.7,0,0,1-2.529.6A3.131,3.131,0,0,1,35.01-.79a3.814,3.814,0,0,1-.878-2.683A3.73,3.73,0,0,1,35.1-6.135a3.164,3.164,0,0,1,2.4-1.029,2.759,2.759,0,0,1,2.222.923,3.832,3.832,0,0,1,.786,2.563ZM38.979-4.19a2.044,2.044,0,0,0-.4-1.33A1.348,1.348,0,0,0,37.481-6a1.539,1.539,0,0,0-1.159.5,2.28,2.28,0,0,0-.584,1.306Z" transform="translate(428 53)" fill="#2777d3"/>
    <path id="Rectangle_3990-2" data-name="Rectangle 3990" d="M-.5-.5h67v37H-.5Zm66,1H.5v35h65Z" transform="translate(347 30)" fill="#cbcbd2"/>
    <path id="Path_101523" data-name="Path 101523" d="M11.737,0H10.124V-6.344q0-.779.1-1.907h-.027a6.586,6.586,0,0,1-.267.923L7,0H5.879L2.946-7.273a6.851,6.851,0,0,1-.26-.978H2.659q.055.588.055,1.921V0H1.21V-9.8H3.5L6.077-3.274A9.655,9.655,0,0,1,6.46-2.153h.034q.253-.772.41-1.148L9.529-9.8h2.208Zm5.339.164a3.47,3.47,0,0,1-2.587-.981,3.544,3.544,0,0,1-.967-2.6A3.687,3.687,0,0,1,14.53-6.173a3.708,3.708,0,0,1,2.717-.991A3.358,3.358,0,0,1,19.8-6.2a3.723,3.723,0,0,1,.916,2.673,3.669,3.669,0,0,1-.988,2.683A3.548,3.548,0,0,1,17.076.164ZM17.151-5.9a1.81,1.81,0,0,0-1.47.649,2.719,2.719,0,0,0-.54,1.791,2.561,2.561,0,0,0,.547,1.733,1.837,1.837,0,0,0,1.463.632,1.743,1.743,0,0,0,1.439-.622,2.754,2.754,0,0,0,.5-1.771,2.8,2.8,0,0,0-.5-1.784A1.734,1.734,0,0,0,17.151-5.9ZM28.362-7,25.655,0H23.939L21.362-7h1.723l1.552,4.895a4.563,4.563,0,0,1,.219.943h.021a5.064,5.064,0,0,1,.191-.916L26.694-7Zm6.891,3.931H30.481a2.017,2.017,0,0,0,.6,1.5,2.225,2.225,0,0,0,1.569.526,3.459,3.459,0,0,0,2.058-.67V-.437a4.7,4.7,0,0,1-2.529.6A3.131,3.131,0,0,1,29.753-.79a3.814,3.814,0,0,1-.878-2.683,3.73,3.73,0,0,1,.967-2.663,3.164,3.164,0,0,1,2.4-1.029,2.759,2.759,0,0,1,2.222.923,3.832,3.832,0,0,1,.786,2.563ZM33.722-4.19a2.044,2.044,0,0,0-.4-1.33A1.348,1.348,0,0,0,32.225-6a1.539,1.539,0,0,0-1.159.5,2.28,2.28,0,0,0-.584,1.306Z" transform="translate(362 53)" fill="#2777d3"/>
    <path id="Rectangle_3990-3" data-name="Rectangle 3990" d="M18-.5H54.5v37H18A18.5,18.5,0,0,1,10.8.954,18.385,18.385,0,0,1,18-.5ZM53.5.5H18a17.5,17.5,0,0,0,0,35H53.5Z" transform="translate(293 30)" fill="#cbcbd2"/>
    <path id="Path_101522" data-name="Path 101522" d="M6.713,0H1.21V-9.8H6.494v1.381H2.837v2.775h3.37v1.374H2.837v2.9H6.713Zm7.93,0H13.057V-1.189h-.027A2.53,2.53,0,0,1,10.671.164,2.546,2.546,0,0,1,8.6-.776a3.9,3.9,0,0,1-.776-2.56,4.251,4.251,0,0,1,.858-2.782,2.808,2.808,0,0,1,2.287-1.046,2.19,2.19,0,0,1,2.058,1.135h.027v-4.334h1.586ZM13.077-3.2v-.916a1.785,1.785,0,0,0-.485-1.265,1.619,1.619,0,0,0-1.237-.52,1.666,1.666,0,0,0-1.4.663A2.955,2.955,0,0,0,9.447-3.4a2.648,2.648,0,0,0,.489,1.685,1.59,1.59,0,0,0,1.316.619,1.646,1.646,0,0,0,1.319-.6A2.253,2.253,0,0,0,13.077-3.2ZM17.514-8.47a.953.953,0,0,1-.667-.253.832.832,0,0,1-.277-.643.854.854,0,0,1,.277-.649.939.939,0,0,1,.667-.26.969.969,0,0,1,.684.26.849.849,0,0,1,.28.649.837.837,0,0,1-.28.632A.962.962,0,0,1,17.514-8.47ZM18.3,0H16.714V-7H18.3Zm5.763-.075a2.748,2.748,0,0,1-1.224.232Q20.8.157,20.8-1.8V-5.756H19.633V-7H20.8V-8.62l1.586-.451V-7h1.675v1.244H22.388v3.5a1.379,1.379,0,0,0,.226.889.936.936,0,0,0,.752.267,1.09,1.09,0,0,0,.7-.232Z" transform="translate(308 53)" fill="#2777d3"/>
    <path id="Rectangle_3990-4" data-name="Rectangle 3990" d="M-.5-.5H53a18.5,18.5,0,0,1,7.2,35.546A18.385,18.385,0,0,1,53,36.5H-.5ZM53,35.5a17.5,17.5,0,0,0,0-35H.5v35Z" transform="translate(413 183)" fill="#cbcbd2"/>
    <path id="Path_101528" data-name="Path 101528" d="M1.21,0V-9.8H4.04q5.421,0,5.421,4.778a4.709,4.709,0,0,1-1.5,3.647A5.74,5.74,0,0,1,3.924,0ZM2.83-8.422v7.048h1.3A3.632,3.632,0,0,0,6.8-2.317a3.583,3.583,0,0,0,.954-2.666q0-3.438-3.562-3.438ZM17-3.069H12.229a2.017,2.017,0,0,0,.6,1.5,2.225,2.225,0,0,0,1.569.526,3.459,3.459,0,0,0,2.058-.67V-.437a4.7,4.7,0,0,1-2.529.6A3.131,3.131,0,0,1,11.5-.79a3.814,3.814,0,0,1-.878-2.683,3.73,3.73,0,0,1,.967-2.663,3.164,3.164,0,0,1,2.4-1.029,2.759,2.759,0,0,1,2.222.923A3.832,3.832,0,0,1,17-3.678ZM15.47-4.19a2.044,2.044,0,0,0-.4-1.33A1.348,1.348,0,0,0,13.973-6a1.539,1.539,0,0,0-1.159.5,2.28,2.28,0,0,0-.584,1.306ZM20.1,0H18.512V-10.363H20.1ZM28.1-3.069H23.324a2.017,2.017,0,0,0,.6,1.5,2.225,2.225,0,0,0,1.569.526,3.459,3.459,0,0,0,2.058-.67V-.437a4.7,4.7,0,0,1-2.529.6A3.131,3.131,0,0,1,22.6-.79a3.814,3.814,0,0,1-.878-2.683,3.73,3.73,0,0,1,.967-2.663,3.164,3.164,0,0,1,2.4-1.029,2.759,2.759,0,0,1,2.222.923A3.832,3.832,0,0,1,28.1-3.678ZM26.564-4.19a2.044,2.044,0,0,0-.4-1.33A1.348,1.348,0,0,0,25.067-6a1.539,1.539,0,0,0-1.159.5,2.28,2.28,0,0,0-.584,1.306ZM33.3-.075a2.748,2.748,0,0,1-1.224.232q-2.037,0-2.037-1.955V-5.756H28.868V-7h1.169V-8.62l1.586-.451V-7H33.3v1.244H31.623v3.5a1.379,1.379,0,0,0,.226.889A.936.936,0,0,0,32.6-1.1a1.09,1.09,0,0,0,.7-.232ZM40.51-3.069H35.738a2.017,2.017,0,0,0,.6,1.5,2.225,2.225,0,0,0,1.569.526,3.459,3.459,0,0,0,2.058-.67V-.437a4.7,4.7,0,0,1-2.529.6A3.131,3.131,0,0,1,35.01-.79a3.814,3.814,0,0,1-.878-2.683A3.73,3.73,0,0,1,35.1-6.135a3.164,3.164,0,0,1,2.4-1.029,2.759,2.759,0,0,1,2.222.923,3.832,3.832,0,0,1,.786,2.563ZM38.979-4.19a2.044,2.044,0,0,0-.4-1.33A1.348,1.348,0,0,0,37.481-6a1.539,1.539,0,0,0-1.159.5,2.28,2.28,0,0,0-.584,1.306Z" transform="translate(428 206)" fill="#2777d3"/>
    <path id="Rectangle_3990-5" data-name="Rectangle 3990" d="M-.5-.5h67v37H-.5Zm66,1H.5v35h65Z" transform="translate(347 183)" fill="#cbcbd2"/>
    <path id="Path_101529" data-name="Path 101529" d="M11.737,0H10.124V-6.344q0-.779.1-1.907h-.027a6.586,6.586,0,0,1-.267.923L7,0H5.879L2.946-7.273a6.851,6.851,0,0,1-.26-.978H2.659q.055.588.055,1.921V0H1.21V-9.8H3.5L6.077-3.274A9.655,9.655,0,0,1,6.46-2.153h.034q.253-.772.41-1.148L9.529-9.8h2.208Zm5.339.164a3.47,3.47,0,0,1-2.587-.981,3.544,3.544,0,0,1-.967-2.6A3.687,3.687,0,0,1,14.53-6.173a3.708,3.708,0,0,1,2.717-.991A3.358,3.358,0,0,1,19.8-6.2a3.723,3.723,0,0,1,.916,2.673,3.669,3.669,0,0,1-.988,2.683A3.548,3.548,0,0,1,17.076.164ZM17.151-5.9a1.81,1.81,0,0,0-1.47.649,2.719,2.719,0,0,0-.54,1.791,2.561,2.561,0,0,0,.547,1.733,1.837,1.837,0,0,0,1.463.632,1.743,1.743,0,0,0,1.439-.622,2.754,2.754,0,0,0,.5-1.771,2.8,2.8,0,0,0-.5-1.784A1.734,1.734,0,0,0,17.151-5.9ZM28.362-7,25.655,0H23.939L21.362-7h1.723l1.552,4.895a4.563,4.563,0,0,1,.219.943h.021a5.064,5.064,0,0,1,.191-.916L26.694-7Zm6.891,3.931H30.481a2.017,2.017,0,0,0,.6,1.5,2.225,2.225,0,0,0,1.569.526,3.459,3.459,0,0,0,2.058-.67V-.437a4.7,4.7,0,0,1-2.529.6A3.131,3.131,0,0,1,29.753-.79a3.814,3.814,0,0,1-.878-2.683,3.73,3.73,0,0,1,.967-2.663,3.164,3.164,0,0,1,2.4-1.029,2.759,2.759,0,0,1,2.222.923,3.832,3.832,0,0,1,.786,2.563ZM33.722-4.19a2.044,2.044,0,0,0-.4-1.33A1.348,1.348,0,0,0,32.225-6a1.539,1.539,0,0,0-1.159.5,2.28,2.28,0,0,0-.584,1.306Z" transform="translate(362 206)" fill="#2777d3"/>
    <path id="Rectangle_3990-6" data-name="Rectangle 3990" d="M18-.5H54.5v37H18A18.5,18.5,0,0,1,10.8.954,18.385,18.385,0,0,1,18-.5ZM53.5.5H18a17.5,17.5,0,0,0,0,35H53.5Z" transform="translate(293 183)" fill="#1f5ea8"/>
    <path id="Path_101530" data-name="Path 101530" d="M6.713,0H1.21V-9.8H6.494v1.381H2.837v2.775h3.37v1.374H2.837v2.9H6.713Zm7.93,0H13.057V-1.189h-.027A2.53,2.53,0,0,1,10.671.164,2.546,2.546,0,0,1,8.6-.776a3.9,3.9,0,0,1-.776-2.56,4.251,4.251,0,0,1,.858-2.782,2.808,2.808,0,0,1,2.287-1.046,2.19,2.19,0,0,1,2.058,1.135h.027v-4.334h1.586ZM13.077-3.2v-.916a1.785,1.785,0,0,0-.485-1.265,1.619,1.619,0,0,0-1.237-.52,1.666,1.666,0,0,0-1.4.663A2.955,2.955,0,0,0,9.447-3.4a2.648,2.648,0,0,0,.489,1.685,1.59,1.59,0,0,0,1.316.619,1.646,1.646,0,0,0,1.319-.6A2.253,2.253,0,0,0,13.077-3.2ZM17.514-8.47a.953.953,0,0,1-.667-.253.832.832,0,0,1-.277-.643.854.854,0,0,1,.277-.649.939.939,0,0,1,.667-.26.969.969,0,0,1,.684.26.849.849,0,0,1,.28.649.837.837,0,0,1-.28.632A.962.962,0,0,1,17.514-8.47ZM18.3,0H16.714V-7H18.3Zm5.763-.075a2.748,2.748,0,0,1-1.224.232Q20.8.157,20.8-1.8V-5.756H19.633V-7H20.8V-8.62l1.586-.451V-7h1.675v1.244H22.388v3.5a1.379,1.379,0,0,0,.226.889.936.936,0,0,0,.752.267,1.09,1.09,0,0,0,.7-.232Z" transform="translate(308 206)" fill="#2777d3"/>
    <path id="Rectangle_3990-7" data-name="Rectangle 3990" d="M-.5-.5H53a18.5,18.5,0,0,1,7.2,35.546A18.385,18.385,0,0,1,53,36.5H-.5ZM53,35.5a17.5,17.5,0,0,0,0-35H.5v35Z" transform="translate(413 234)" fill="#cbcbd2"/>
    <path id="Path_101535" data-name="Path 101535" d="M1.21,0V-9.8H4.04q5.421,0,5.421,4.778a4.709,4.709,0,0,1-1.5,3.647A5.74,5.74,0,0,1,3.924,0ZM2.83-8.422v7.048h1.3A3.632,3.632,0,0,0,6.8-2.317a3.583,3.583,0,0,0,.954-2.666q0-3.438-3.562-3.438ZM17-3.069H12.229a2.017,2.017,0,0,0,.6,1.5,2.225,2.225,0,0,0,1.569.526,3.459,3.459,0,0,0,2.058-.67V-.437a4.7,4.7,0,0,1-2.529.6A3.131,3.131,0,0,1,11.5-.79a3.814,3.814,0,0,1-.878-2.683,3.73,3.73,0,0,1,.967-2.663,3.164,3.164,0,0,1,2.4-1.029,2.759,2.759,0,0,1,2.222.923A3.832,3.832,0,0,1,17-3.678ZM15.47-4.19a2.044,2.044,0,0,0-.4-1.33A1.348,1.348,0,0,0,13.973-6a1.539,1.539,0,0,0-1.159.5,2.28,2.28,0,0,0-.584,1.306ZM20.1,0H18.512V-10.363H20.1ZM28.1-3.069H23.324a2.017,2.017,0,0,0,.6,1.5,2.225,2.225,0,0,0,1.569.526,3.459,3.459,0,0,0,2.058-.67V-.437a4.7,4.7,0,0,1-2.529.6A3.131,3.131,0,0,1,22.6-.79a3.814,3.814,0,0,1-.878-2.683,3.73,3.73,0,0,1,.967-2.663,3.164,3.164,0,0,1,2.4-1.029,2.759,2.759,0,0,1,2.222.923A3.832,3.832,0,0,1,28.1-3.678ZM26.564-4.19a2.044,2.044,0,0,0-.4-1.33A1.348,1.348,0,0,0,25.067-6a1.539,1.539,0,0,0-1.159.5,2.28,2.28,0,0,0-.584,1.306ZM33.3-.075a2.748,2.748,0,0,1-1.224.232q-2.037,0-2.037-1.955V-5.756H28.868V-7h1.169V-8.62l1.586-.451V-7H33.3v1.244H31.623v3.5a1.379,1.379,0,0,0,.226.889A.936.936,0,0,0,32.6-1.1a1.09,1.09,0,0,0,.7-.232ZM40.51-3.069H35.738a2.017,2.017,0,0,0,.6,1.5,2.225,2.225,0,0,0,1.569.526,3.459,3.459,0,0,0,2.058-.67V-.437a4.7,4.7,0,0,1-2.529.6A3.131,3.131,0,0,1,35.01-.79a3.814,3.814,0,0,1-.878-2.683A3.73,3.73,0,0,1,35.1-6.135a3.164,3.164,0,0,1,2.4-1.029,2.759,2.759,0,0,1,2.222.923,3.832,3.832,0,0,1,.786,2.563ZM38.979-4.19a2.044,2.044,0,0,0-.4-1.33A1.348,1.348,0,0,0,37.481-6a1.539,1.539,0,0,0-1.159.5,2.28,2.28,0,0,0-.584,1.306Z" transform="translate(428 257)" fill="#2777d3"/>
    <path id="Rectangle_3990-8" data-name="Rectangle 3990" d="M-.5-.5h67v37H-.5Zm66,1H.5v35h65Z" transform="translate(347 234)" fill="#cbcbd2"/>
    <path id="Path_101536" data-name="Path 101536" d="M11.737,0H10.124V-6.344q0-.779.1-1.907h-.027a6.586,6.586,0,0,1-.267.923L7,0H5.879L2.946-7.273a6.851,6.851,0,0,1-.26-.978H2.659q.055.588.055,1.921V0H1.21V-9.8H3.5L6.077-3.274A9.655,9.655,0,0,1,6.46-2.153h.034q.253-.772.41-1.148L9.529-9.8h2.208Zm5.339.164a3.47,3.47,0,0,1-2.587-.981,3.544,3.544,0,0,1-.967-2.6A3.687,3.687,0,0,1,14.53-6.173a3.708,3.708,0,0,1,2.717-.991A3.358,3.358,0,0,1,19.8-6.2a3.723,3.723,0,0,1,.916,2.673,3.669,3.669,0,0,1-.988,2.683A3.548,3.548,0,0,1,17.076.164ZM17.151-5.9a1.81,1.81,0,0,0-1.47.649,2.719,2.719,0,0,0-.54,1.791,2.561,2.561,0,0,0,.547,1.733,1.837,1.837,0,0,0,1.463.632,1.743,1.743,0,0,0,1.439-.622,2.754,2.754,0,0,0,.5-1.771,2.8,2.8,0,0,0-.5-1.784A1.734,1.734,0,0,0,17.151-5.9ZM28.362-7,25.655,0H23.939L21.362-7h1.723l1.552,4.895a4.563,4.563,0,0,1,.219.943h.021a5.064,5.064,0,0,1,.191-.916L26.694-7Zm6.891,3.931H30.481a2.017,2.017,0,0,0,.6,1.5,2.225,2.225,0,0,0,1.569.526,3.459,3.459,0,0,0,2.058-.67V-.437a4.7,4.7,0,0,1-2.529.6A3.131,3.131,0,0,1,29.753-.79a3.814,3.814,0,0,1-.878-2.683,3.73,3.73,0,0,1,.967-2.663,3.164,3.164,0,0,1,2.4-1.029,2.759,2.759,0,0,1,2.222.923,3.832,3.832,0,0,1,.786,2.563ZM33.722-4.19a2.044,2.044,0,0,0-.4-1.33A1.348,1.348,0,0,0,32.225-6a1.539,1.539,0,0,0-1.159.5,2.28,2.28,0,0,0-.584,1.306Z" transform="translate(362 257)" fill="#2777d3"/>
    <path id="Rectangle_3990-9" data-name="Rectangle 3990" d="M18-.5H54.5v37H18A18.5,18.5,0,0,1,10.8.954,18.385,18.385,0,0,1,18-.5ZM53.5.5H18a17.5,17.5,0,0,0,0,35H53.5Z" transform="translate(293 234)" fill="#e6e6ea"/>
    <path id="Path_101537" data-name="Path 101537" d="M6.713,0H1.21V-9.8H6.494v1.381H2.837v2.775h3.37v1.374H2.837v2.9H6.713Zm7.93,0H13.057V-1.189h-.027A2.53,2.53,0,0,1,10.671.164,2.546,2.546,0,0,1,8.6-.776a3.9,3.9,0,0,1-.776-2.56,4.251,4.251,0,0,1,.858-2.782,2.808,2.808,0,0,1,2.287-1.046,2.19,2.19,0,0,1,2.058,1.135h.027v-4.334h1.586ZM13.077-3.2v-.916a1.785,1.785,0,0,0-.485-1.265,1.619,1.619,0,0,0-1.237-.52,1.666,1.666,0,0,0-1.4.663A2.955,2.955,0,0,0,9.447-3.4a2.648,2.648,0,0,0,.489,1.685,1.59,1.59,0,0,0,1.316.619,1.646,1.646,0,0,0,1.319-.6A2.253,2.253,0,0,0,13.077-3.2ZM17.514-8.47a.953.953,0,0,1-.667-.253.832.832,0,0,1-.277-.643.854.854,0,0,1,.277-.649.939.939,0,0,1,.667-.26.969.969,0,0,1,.684.26.849.849,0,0,1,.28.649.837.837,0,0,1-.28.632A.962.962,0,0,1,17.514-8.47ZM18.3,0H16.714V-7H18.3Zm5.763-.075a2.748,2.748,0,0,1-1.224.232Q20.8.157,20.8-1.8V-5.756H19.633V-7H20.8V-8.62l1.586-.451V-7h1.675v1.244H22.388v3.5a1.379,1.379,0,0,0,.226.889.936.936,0,0,0,.752.267,1.09,1.09,0,0,0,.7-.232Z" transform="translate(308 257)" fill="#afafbb"/>
    <path id="Rectangle_3990-10" data-name="Rectangle 3990" d="M-.5-.5H53a18.5,18.5,0,0,1,7.2,35.546A18.385,18.385,0,0,1,53,36.5H-.5ZM53,35.5a17.5,17.5,0,0,0,0-35H.5v35Z" transform="translate(413 81)" fill="#cbcbd2"/>
    <path id="Path_101527" data-name="Path 101527" d="M1.21,0V-9.8H4.04q5.421,0,5.421,4.778a4.709,4.709,0,0,1-1.5,3.647A5.74,5.74,0,0,1,3.924,0ZM2.83-8.422v7.048h1.3A3.632,3.632,0,0,0,6.8-2.317a3.583,3.583,0,0,0,.954-2.666q0-3.438-3.562-3.438ZM17-3.069H12.229a2.017,2.017,0,0,0,.6,1.5,2.225,2.225,0,0,0,1.569.526,3.459,3.459,0,0,0,2.058-.67V-.437a4.7,4.7,0,0,1-2.529.6A3.131,3.131,0,0,1,11.5-.79a3.814,3.814,0,0,1-.878-2.683,3.73,3.73,0,0,1,.967-2.663,3.164,3.164,0,0,1,2.4-1.029,2.759,2.759,0,0,1,2.222.923A3.832,3.832,0,0,1,17-3.678ZM15.47-4.19a2.044,2.044,0,0,0-.4-1.33A1.348,1.348,0,0,0,13.973-6a1.539,1.539,0,0,0-1.159.5,2.28,2.28,0,0,0-.584,1.306ZM20.1,0H18.512V-10.363H20.1ZM28.1-3.069H23.324a2.017,2.017,0,0,0,.6,1.5,2.225,2.225,0,0,0,1.569.526,3.459,3.459,0,0,0,2.058-.67V-.437a4.7,4.7,0,0,1-2.529.6A3.131,3.131,0,0,1,22.6-.79a3.814,3.814,0,0,1-.878-2.683,3.73,3.73,0,0,1,.967-2.663,3.164,3.164,0,0,1,2.4-1.029,2.759,2.759,0,0,1,2.222.923A3.832,3.832,0,0,1,28.1-3.678ZM26.564-4.19a2.044,2.044,0,0,0-.4-1.33A1.348,1.348,0,0,0,25.067-6a1.539,1.539,0,0,0-1.159.5,2.28,2.28,0,0,0-.584,1.306ZM33.3-.075a2.748,2.748,0,0,1-1.224.232q-2.037,0-2.037-1.955V-5.756H28.868V-7h1.169V-8.62l1.586-.451V-7H33.3v1.244H31.623v3.5a1.379,1.379,0,0,0,.226.889A.936.936,0,0,0,32.6-1.1a1.09,1.09,0,0,0,.7-.232ZM40.51-3.069H35.738a2.017,2.017,0,0,0,.6,1.5,2.225,2.225,0,0,0,1.569.526,3.459,3.459,0,0,0,2.058-.67V-.437a4.7,4.7,0,0,1-2.529.6A3.131,3.131,0,0,1,35.01-.79a3.814,3.814,0,0,1-.878-2.683A3.73,3.73,0,0,1,35.1-6.135a3.164,3.164,0,0,1,2.4-1.029,2.759,2.759,0,0,1,2.222.923,3.832,3.832,0,0,1,.786,2.563ZM38.979-4.19a2.044,2.044,0,0,0-.4-1.33A1.348,1.348,0,0,0,37.481-6a1.539,1.539,0,0,0-1.159.5,2.28,2.28,0,0,0-.584,1.306Z" transform="translate(428 104)" fill="#2777d3"/>
    <path id="Rectangle_3990-11" data-name="Rectangle 3990" d="M-.5-.5h67v37H-.5Zm66,1H.5v35h65Z" transform="translate(347 81)" fill="#cbcbd2"/>
    <path id="Path_101524" data-name="Path 101524" d="M11.737,0H10.124V-6.344q0-.779.1-1.907h-.027a6.586,6.586,0,0,1-.267.923L7,0H5.879L2.946-7.273a6.851,6.851,0,0,1-.26-.978H2.659q.055.588.055,1.921V0H1.21V-9.8H3.5L6.077-3.274A9.655,9.655,0,0,1,6.46-2.153h.034q.253-.772.41-1.148L9.529-9.8h2.208Zm5.339.164a3.47,3.47,0,0,1-2.587-.981,3.544,3.544,0,0,1-.967-2.6A3.687,3.687,0,0,1,14.53-6.173a3.708,3.708,0,0,1,2.717-.991A3.358,3.358,0,0,1,19.8-6.2a3.723,3.723,0,0,1,.916,2.673,3.669,3.669,0,0,1-.988,2.683A3.548,3.548,0,0,1,17.076.164ZM17.151-5.9a1.81,1.81,0,0,0-1.47.649,2.719,2.719,0,0,0-.54,1.791,2.561,2.561,0,0,0,.547,1.733,1.837,1.837,0,0,0,1.463.632,1.743,1.743,0,0,0,1.439-.622,2.754,2.754,0,0,0,.5-1.771,2.8,2.8,0,0,0-.5-1.784A1.734,1.734,0,0,0,17.151-5.9ZM28.362-7,25.655,0H23.939L21.362-7h1.723l1.552,4.895a4.563,4.563,0,0,1,.219.943h.021a5.064,5.064,0,0,1,.191-.916L26.694-7Zm6.891,3.931H30.481a2.017,2.017,0,0,0,.6,1.5,2.225,2.225,0,0,0,1.569.526,3.459,3.459,0,0,0,2.058-.67V-.437a4.7,4.7,0,0,1-2.529.6A3.131,3.131,0,0,1,29.753-.79a3.814,3.814,0,0,1-.878-2.683,3.73,3.73,0,0,1,.967-2.663,3.164,3.164,0,0,1,2.4-1.029,2.759,2.759,0,0,1,2.222.923,3.832,3.832,0,0,1,.786,2.563ZM33.722-4.19a2.044,2.044,0,0,0-.4-1.33A1.348,1.348,0,0,0,32.225-6a1.539,1.539,0,0,0-1.159.5,2.28,2.28,0,0,0-.584,1.306Z" transform="translate(362 104)" fill="#2777d3"/>
    <path id="Rectangle_3990-12" data-name="Rectangle 3990" d="M18-.5H54.5v37H18A18.5,18.5,0,0,1,10.8.954,18.385,18.385,0,0,1,18-.5ZM53.5.5H18a17.5,17.5,0,0,0,0,35H53.5Z" transform="translate(293 81)" fill="#4e92df"/>
    <path id="Path_101525" data-name="Path 101525" d="M6.713,0H1.21V-9.8H6.494v1.381H2.837v2.775h3.37v1.374H2.837v2.9H6.713Zm7.93,0H13.057V-1.189h-.027A2.53,2.53,0,0,1,10.671.164,2.546,2.546,0,0,1,8.6-.776a3.9,3.9,0,0,1-.776-2.56,4.251,4.251,0,0,1,.858-2.782,2.808,2.808,0,0,1,2.287-1.046,2.19,2.19,0,0,1,2.058,1.135h.027v-4.334h1.586ZM13.077-3.2v-.916a1.785,1.785,0,0,0-.485-1.265,1.619,1.619,0,0,0-1.237-.52,1.666,1.666,0,0,0-1.4.663A2.955,2.955,0,0,0,9.447-3.4a2.648,2.648,0,0,0,.489,1.685,1.59,1.59,0,0,0,1.316.619,1.646,1.646,0,0,0,1.319-.6A2.253,2.253,0,0,0,13.077-3.2ZM17.514-8.47a.953.953,0,0,1-.667-.253.832.832,0,0,1-.277-.643.854.854,0,0,1,.277-.649.939.939,0,0,1,.667-.26.969.969,0,0,1,.684.26.849.849,0,0,1,.28.649.837.837,0,0,1-.28.632A.962.962,0,0,1,17.514-8.47ZM18.3,0H16.714V-7H18.3Zm5.763-.075a2.748,2.748,0,0,1-1.224.232Q20.8.157,20.8-1.8V-5.756H19.633V-7H20.8V-8.62l1.586-.451V-7h1.675v1.244H22.388v3.5a1.379,1.379,0,0,0,.226.889.936.936,0,0,0,.752.267,1.09,1.09,0,0,0,.7-.232Z" transform="translate(308 104)" fill="#2777d3"/>
    <g id="Primary_Button" data-name="Primary Button" transform="translate(413 132)">
      <path id="Rectangle_3990-13" data-name="Rectangle 3990" d="M-.5-.5H53a18.5,18.5,0,0,1,7.2,35.546A18.385,18.385,0,0,1,53,36.5H-.5ZM53,35.5a17.5,17.5,0,0,0,0-35H.5v35Z" fill="#cbcbd2"/>
      <text id="Delete" transform="translate(15 23)" fill="#2777d3" font-size="14" font-family="SegoeUI-Semibold, Segoe UI" font-weight="600"><tspan x="0" y="0">Delete</tspan></text>
    </g>
    <g id="Primary_Button-2" data-name="Primary Button" transform="translate(347 132)">
      <path id="Rectangle_3990-14" data-name="Rectangle 3990" d="M-.5-.5h67v37H-.5Zm66,1H.5v35h65Z" fill="#cbcbd2"/>
      <text id="Move" transform="translate(15 23)" fill="#2777d3" font-size="14" font-family="SegoeUI-Semibold, Segoe UI" font-weight="600"><tspan x="0" y="0">Move</tspan></text>
    </g>
    <g id="Primary_Button-3" data-name="Primary Button" transform="translate(293 132)">
      <path id="Rectangle_3990-15" data-name="Rectangle 3990" d="M18-.5H54.5v37H18A18.5,18.5,0,0,1,10.8.954,18.385,18.385,0,0,1,18-.5ZM53.5.5H18a17.5,17.5,0,0,0,0,35H53.5Z" fill="#cbcbd2"/>
      <text id="Edit" transform="translate(15 23)" fill="#2777d3" font-size="14" font-family="SegoeUI-Semibold, Segoe UI" font-weight="600"><tspan x="0" y="0">Edit</tspan></text>
    </g>
    <path id="Rectangle_10240" data-name="Rectangle 10240" d="M16-.5H50.5v33H16A16.5,16.5,0,0,1,4.333,4.333,16.392,16.392,0,0,1,16-.5ZM49.5.5H16a15.5,15.5,0,0,0,0,31H49.5Z" transform="translate(295 134)" fill="#2777d3"/>
    <path id="Rectangle_3990-16" data-name="Rectangle 3990" d="M0,0H53A18,18,0,0,1,71,18v0A18,18,0,0,1,53,36H0a0,0,0,0,1,0,0V0A0,0,0,0,1,0,0Z" transform="translate(636 30)" fill="#2777d3"/>
    <path id="Path_101539" data-name="Path 101539" d="M1.21,0V-9.8H4.04q5.421,0,5.421,4.778a4.709,4.709,0,0,1-1.5,3.647A5.74,5.74,0,0,1,3.924,0ZM2.83-8.422v7.048h1.3A3.632,3.632,0,0,0,6.8-2.317a3.583,3.583,0,0,0,.954-2.666q0-3.438-3.562-3.438ZM17-3.069H12.229a2.017,2.017,0,0,0,.6,1.5,2.225,2.225,0,0,0,1.569.526,3.459,3.459,0,0,0,2.058-.67V-.437a4.7,4.7,0,0,1-2.529.6A3.131,3.131,0,0,1,11.5-.79a3.814,3.814,0,0,1-.878-2.683,3.73,3.73,0,0,1,.967-2.663,3.164,3.164,0,0,1,2.4-1.029,2.759,2.759,0,0,1,2.222.923A3.832,3.832,0,0,1,17-3.678ZM15.47-4.19a2.044,2.044,0,0,0-.4-1.33A1.348,1.348,0,0,0,13.973-6a1.539,1.539,0,0,0-1.159.5,2.28,2.28,0,0,0-.584,1.306ZM20.1,0H18.512V-10.363H20.1ZM28.1-3.069H23.324a2.017,2.017,0,0,0,.6,1.5,2.225,2.225,0,0,0,1.569.526,3.459,3.459,0,0,0,2.058-.67V-.437a4.7,4.7,0,0,1-2.529.6A3.131,3.131,0,0,1,22.6-.79a3.814,3.814,0,0,1-.878-2.683,3.73,3.73,0,0,1,.967-2.663,3.164,3.164,0,0,1,2.4-1.029,2.759,2.759,0,0,1,2.222.923A3.832,3.832,0,0,1,28.1-3.678ZM26.564-4.19a2.044,2.044,0,0,0-.4-1.33A1.348,1.348,0,0,0,25.067-6a1.539,1.539,0,0,0-1.159.5,2.28,2.28,0,0,0-.584,1.306ZM33.3-.075a2.748,2.748,0,0,1-1.224.232q-2.037,0-2.037-1.955V-5.756H28.868V-7h1.169V-8.62l1.586-.451V-7H33.3v1.244H31.623v3.5a1.379,1.379,0,0,0,.226.889A.936.936,0,0,0,32.6-1.1a1.09,1.09,0,0,0,.7-.232ZM40.51-3.069H35.738a2.017,2.017,0,0,0,.6,1.5,2.225,2.225,0,0,0,1.569.526,3.459,3.459,0,0,0,2.058-.67V-.437a4.7,4.7,0,0,1-2.529.6A3.131,3.131,0,0,1,35.01-.79a3.814,3.814,0,0,1-.878-2.683A3.73,3.73,0,0,1,35.1-6.135a3.164,3.164,0,0,1,2.4-1.029,2.759,2.759,0,0,1,2.222.923,3.832,3.832,0,0,1,.786,2.563ZM38.979-4.19a2.044,2.044,0,0,0-.4-1.33A1.348,1.348,0,0,0,37.481-6a1.539,1.539,0,0,0-1.159.5,2.28,2.28,0,0,0-.584,1.306Z" transform="translate(651 53)" fill="#fff"/>
    <rect id="Rectangle_3990-17" data-name="Rectangle 3990" width="66" height="36" transform="translate(569 30)" fill="#2777d3"/>
    <path id="Path_101531" data-name="Path 101531" d="M11.737,0H10.124V-6.344q0-.779.1-1.907h-.027a6.586,6.586,0,0,1-.267.923L7,0H5.879L2.946-7.273a6.851,6.851,0,0,1-.26-.978H2.659q.055.588.055,1.921V0H1.21V-9.8H3.5L6.077-3.274A9.655,9.655,0,0,1,6.46-2.153h.034q.253-.772.41-1.148L9.529-9.8h2.208Zm5.339.164a3.47,3.47,0,0,1-2.587-.981,3.544,3.544,0,0,1-.967-2.6A3.687,3.687,0,0,1,14.53-6.173a3.708,3.708,0,0,1,2.717-.991A3.358,3.358,0,0,1,19.8-6.2a3.723,3.723,0,0,1,.916,2.673,3.669,3.669,0,0,1-.988,2.683A3.548,3.548,0,0,1,17.076.164ZM17.151-5.9a1.81,1.81,0,0,0-1.47.649,2.719,2.719,0,0,0-.54,1.791,2.561,2.561,0,0,0,.547,1.733,1.837,1.837,0,0,0,1.463.632,1.743,1.743,0,0,0,1.439-.622,2.754,2.754,0,0,0,.5-1.771,2.8,2.8,0,0,0-.5-1.784A1.734,1.734,0,0,0,17.151-5.9ZM28.362-7,25.655,0H23.939L21.362-7h1.723l1.552,4.895a4.563,4.563,0,0,1,.219.943h.021a5.064,5.064,0,0,1,.191-.916L26.694-7Zm6.891,3.931H30.481a2.017,2.017,0,0,0,.6,1.5,2.225,2.225,0,0,0,1.569.526,3.459,3.459,0,0,0,2.058-.67V-.437a4.7,4.7,0,0,1-2.529.6A3.131,3.131,0,0,1,29.753-.79a3.814,3.814,0,0,1-.878-2.683,3.73,3.73,0,0,1,.967-2.663,3.164,3.164,0,0,1,2.4-1.029,2.759,2.759,0,0,1,2.222.923,3.832,3.832,0,0,1,.786,2.563ZM33.722-4.19a2.044,2.044,0,0,0-.4-1.33A1.348,1.348,0,0,0,32.225-6a1.539,1.539,0,0,0-1.159.5,2.28,2.28,0,0,0-.584,1.306Z" transform="translate(584 53)" fill="#fff"/>
    <g id="Primary_Button-4" data-name="Primary Button" transform="translate(514 30)">
      <path id="Rectangle_3990-18" data-name="Rectangle 3990" d="M18,0H54a0,0,0,0,1,0,0V36a0,0,0,0,1,0,0H18A18,18,0,0,1,0,18v0A18,18,0,0,1,18,0Z" fill="#2777d3"/>
      <text id="Edit-2" data-name="Edit" transform="translate(15 23)" fill="#fff" font-size="14" font-family="SegoeUI-Semibold, Segoe UI" font-weight="600"><tspan x="0" y="0">Edit</tspan></text>
    </g>
    <path id="Rectangle_3990-19" data-name="Rectangle 3990" d="M0,0H53A18,18,0,0,1,71,18v0A18,18,0,0,1,53,36H0a0,0,0,0,1,0,0V0A0,0,0,0,1,0,0Z" transform="translate(636 132)" fill="#2777d3"/>
    <path id="Path_101540" data-name="Path 101540" d="M1.21,0V-9.8H4.04q5.421,0,5.421,4.778a4.709,4.709,0,0,1-1.5,3.647A5.74,5.74,0,0,1,3.924,0ZM2.83-8.422v7.048h1.3A3.632,3.632,0,0,0,6.8-2.317a3.583,3.583,0,0,0,.954-2.666q0-3.438-3.562-3.438ZM17-3.069H12.229a2.017,2.017,0,0,0,.6,1.5,2.225,2.225,0,0,0,1.569.526,3.459,3.459,0,0,0,2.058-.67V-.437a4.7,4.7,0,0,1-2.529.6A3.131,3.131,0,0,1,11.5-.79a3.814,3.814,0,0,1-.878-2.683,3.73,3.73,0,0,1,.967-2.663,3.164,3.164,0,0,1,2.4-1.029,2.759,2.759,0,0,1,2.222.923A3.832,3.832,0,0,1,17-3.678ZM15.47-4.19a2.044,2.044,0,0,0-.4-1.33A1.348,1.348,0,0,0,13.973-6a1.539,1.539,0,0,0-1.159.5,2.28,2.28,0,0,0-.584,1.306ZM20.1,0H18.512V-10.363H20.1ZM28.1-3.069H23.324a2.017,2.017,0,0,0,.6,1.5,2.225,2.225,0,0,0,1.569.526,3.459,3.459,0,0,0,2.058-.67V-.437a4.7,4.7,0,0,1-2.529.6A3.131,3.131,0,0,1,22.6-.79a3.814,3.814,0,0,1-.878-2.683,3.73,3.73,0,0,1,.967-2.663,3.164,3.164,0,0,1,2.4-1.029,2.759,2.759,0,0,1,2.222.923A3.832,3.832,0,0,1,28.1-3.678ZM26.564-4.19a2.044,2.044,0,0,0-.4-1.33A1.348,1.348,0,0,0,25.067-6a1.539,1.539,0,0,0-1.159.5,2.28,2.28,0,0,0-.584,1.306ZM33.3-.075a2.748,2.748,0,0,1-1.224.232q-2.037,0-2.037-1.955V-5.756H28.868V-7h1.169V-8.62l1.586-.451V-7H33.3v1.244H31.623v3.5a1.379,1.379,0,0,0,.226.889A.936.936,0,0,0,32.6-1.1a1.09,1.09,0,0,0,.7-.232ZM40.51-3.069H35.738a2.017,2.017,0,0,0,.6,1.5,2.225,2.225,0,0,0,1.569.526,3.459,3.459,0,0,0,2.058-.67V-.437a4.7,4.7,0,0,1-2.529.6A3.131,3.131,0,0,1,35.01-.79a3.814,3.814,0,0,1-.878-2.683A3.73,3.73,0,0,1,35.1-6.135a3.164,3.164,0,0,1,2.4-1.029,2.759,2.759,0,0,1,2.222.923,3.832,3.832,0,0,1,.786,2.563ZM38.979-4.19a2.044,2.044,0,0,0-.4-1.33A1.348,1.348,0,0,0,37.481-6a1.539,1.539,0,0,0-1.159.5,2.28,2.28,0,0,0-.584,1.306Z" transform="translate(651 155)" fill="#fff"/>
    <rect id="Rectangle_3990-20" data-name="Rectangle 3990" width="66" height="36" transform="translate(569 132)" fill="#2777d3"/>
    <path id="Path_101532" data-name="Path 101532" d="M11.737,0H10.124V-6.344q0-.779.1-1.907h-.027a6.586,6.586,0,0,1-.267.923L7,0H5.879L2.946-7.273a6.851,6.851,0,0,1-.26-.978H2.659q.055.588.055,1.921V0H1.21V-9.8H3.5L6.077-3.274A9.655,9.655,0,0,1,6.46-2.153h.034q.253-.772.41-1.148L9.529-9.8h2.208Zm5.339.164a3.47,3.47,0,0,1-2.587-.981,3.544,3.544,0,0,1-.967-2.6A3.687,3.687,0,0,1,14.53-6.173a3.708,3.708,0,0,1,2.717-.991A3.358,3.358,0,0,1,19.8-6.2a3.723,3.723,0,0,1,.916,2.673,3.669,3.669,0,0,1-.988,2.683A3.548,3.548,0,0,1,17.076.164ZM17.151-5.9a1.81,1.81,0,0,0-1.47.649,2.719,2.719,0,0,0-.54,1.791,2.561,2.561,0,0,0,.547,1.733,1.837,1.837,0,0,0,1.463.632,1.743,1.743,0,0,0,1.439-.622,2.754,2.754,0,0,0,.5-1.771,2.8,2.8,0,0,0-.5-1.784A1.734,1.734,0,0,0,17.151-5.9ZM28.362-7,25.655,0H23.939L21.362-7h1.723l1.552,4.895a4.563,4.563,0,0,1,.219.943h.021a5.064,5.064,0,0,1,.191-.916L26.694-7Zm6.891,3.931H30.481a2.017,2.017,0,0,0,.6,1.5,2.225,2.225,0,0,0,1.569.526,3.459,3.459,0,0,0,2.058-.67V-.437a4.7,4.7,0,0,1-2.529.6A3.131,3.131,0,0,1,29.753-.79a3.814,3.814,0,0,1-.878-2.683,3.73,3.73,0,0,1,.967-2.663,3.164,3.164,0,0,1,2.4-1.029,2.759,2.759,0,0,1,2.222.923,3.832,3.832,0,0,1,.786,2.563ZM33.722-4.19a2.044,2.044,0,0,0-.4-1.33A1.348,1.348,0,0,0,32.225-6a1.539,1.539,0,0,0-1.159.5,2.28,2.28,0,0,0-.584,1.306Z" transform="translate(584 155)" fill="#fff"/>
    <g id="Primary_Button-5" data-name="Primary Button" transform="translate(514 132)">
      <path id="Rectangle_3990-21" data-name="Rectangle 3990" d="M18,0H54a0,0,0,0,1,0,0V36a0,0,0,0,1,0,0H18A18,18,0,0,1,0,18v0A18,18,0,0,1,18,0Z" fill="#2777d3"/>
      <text id="Edit-3" data-name="Edit" transform="translate(15 23)" fill="#fff" font-size="14" font-family="SegoeUI-Semibold, Segoe UI" font-weight="600"><tspan x="0" y="0">Edit</tspan></text>
    </g>
    <path id="Rectangle_3990-22" data-name="Rectangle 3990" d="M0,0H53A18,18,0,0,1,71,18v0A18,18,0,0,1,53,36H0a0,0,0,0,1,0,0V0A0,0,0,0,1,0,0Z" transform="translate(636 183)" fill="#2777d3"/>
    <path id="Path_101541" data-name="Path 101541" d="M1.21,0V-9.8H4.04q5.421,0,5.421,4.778a4.709,4.709,0,0,1-1.5,3.647A5.74,5.74,0,0,1,3.924,0ZM2.83-8.422v7.048h1.3A3.632,3.632,0,0,0,6.8-2.317a3.583,3.583,0,0,0,.954-2.666q0-3.438-3.562-3.438ZM17-3.069H12.229a2.017,2.017,0,0,0,.6,1.5,2.225,2.225,0,0,0,1.569.526,3.459,3.459,0,0,0,2.058-.67V-.437a4.7,4.7,0,0,1-2.529.6A3.131,3.131,0,0,1,11.5-.79a3.814,3.814,0,0,1-.878-2.683,3.73,3.73,0,0,1,.967-2.663,3.164,3.164,0,0,1,2.4-1.029,2.759,2.759,0,0,1,2.222.923A3.832,3.832,0,0,1,17-3.678ZM15.47-4.19a2.044,2.044,0,0,0-.4-1.33A1.348,1.348,0,0,0,13.973-6a1.539,1.539,0,0,0-1.159.5,2.28,2.28,0,0,0-.584,1.306ZM20.1,0H18.512V-10.363H20.1ZM28.1-3.069H23.324a2.017,2.017,0,0,0,.6,1.5,2.225,2.225,0,0,0,1.569.526,3.459,3.459,0,0,0,2.058-.67V-.437a4.7,4.7,0,0,1-2.529.6A3.131,3.131,0,0,1,22.6-.79a3.814,3.814,0,0,1-.878-2.683,3.73,3.73,0,0,1,.967-2.663,3.164,3.164,0,0,1,2.4-1.029,2.759,2.759,0,0,1,2.222.923A3.832,3.832,0,0,1,28.1-3.678ZM26.564-4.19a2.044,2.044,0,0,0-.4-1.33A1.348,1.348,0,0,0,25.067-6a1.539,1.539,0,0,0-1.159.5,2.28,2.28,0,0,0-.584,1.306ZM33.3-.075a2.748,2.748,0,0,1-1.224.232q-2.037,0-2.037-1.955V-5.756H28.868V-7h1.169V-8.62l1.586-.451V-7H33.3v1.244H31.623v3.5a1.379,1.379,0,0,0,.226.889A.936.936,0,0,0,32.6-1.1a1.09,1.09,0,0,0,.7-.232ZM40.51-3.069H35.738a2.017,2.017,0,0,0,.6,1.5,2.225,2.225,0,0,0,1.569.526,3.459,3.459,0,0,0,2.058-.67V-.437a4.7,4.7,0,0,1-2.529.6A3.131,3.131,0,0,1,35.01-.79a3.814,3.814,0,0,1-.878-2.683A3.73,3.73,0,0,1,35.1-6.135a3.164,3.164,0,0,1,2.4-1.029,2.759,2.759,0,0,1,2.222.923,3.832,3.832,0,0,1,.786,2.563ZM38.979-4.19a2.044,2.044,0,0,0-.4-1.33A1.348,1.348,0,0,0,37.481-6a1.539,1.539,0,0,0-1.159.5,2.28,2.28,0,0,0-.584,1.306Z" transform="translate(651 206)" fill="#fff"/>
    <rect id="Rectangle_3990-23" data-name="Rectangle 3990" width="66" height="36" transform="translate(569 183)" fill="#2777d3"/>
    <path id="Path_101533" data-name="Path 101533" d="M11.737,0H10.124V-6.344q0-.779.1-1.907h-.027a6.586,6.586,0,0,1-.267.923L7,0H5.879L2.946-7.273a6.851,6.851,0,0,1-.26-.978H2.659q.055.588.055,1.921V0H1.21V-9.8H3.5L6.077-3.274A9.655,9.655,0,0,1,6.46-2.153h.034q.253-.772.41-1.148L9.529-9.8h2.208Zm5.339.164a3.47,3.47,0,0,1-2.587-.981,3.544,3.544,0,0,1-.967-2.6A3.687,3.687,0,0,1,14.53-6.173a3.708,3.708,0,0,1,2.717-.991A3.358,3.358,0,0,1,19.8-6.2a3.723,3.723,0,0,1,.916,2.673,3.669,3.669,0,0,1-.988,2.683A3.548,3.548,0,0,1,17.076.164ZM17.151-5.9a1.81,1.81,0,0,0-1.47.649,2.719,2.719,0,0,0-.54,1.791,2.561,2.561,0,0,0,.547,1.733,1.837,1.837,0,0,0,1.463.632,1.743,1.743,0,0,0,1.439-.622,2.754,2.754,0,0,0,.5-1.771,2.8,2.8,0,0,0-.5-1.784A1.734,1.734,0,0,0,17.151-5.9ZM28.362-7,25.655,0H23.939L21.362-7h1.723l1.552,4.895a4.563,4.563,0,0,1,.219.943h.021a5.064,5.064,0,0,1,.191-.916L26.694-7Zm6.891,3.931H30.481a2.017,2.017,0,0,0,.6,1.5,2.225,2.225,0,0,0,1.569.526,3.459,3.459,0,0,0,2.058-.67V-.437a4.7,4.7,0,0,1-2.529.6A3.131,3.131,0,0,1,29.753-.79a3.814,3.814,0,0,1-.878-2.683,3.73,3.73,0,0,1,.967-2.663,3.164,3.164,0,0,1,2.4-1.029,2.759,2.759,0,0,1,2.222.923,3.832,3.832,0,0,1,.786,2.563ZM33.722-4.19a2.044,2.044,0,0,0-.4-1.33A1.348,1.348,0,0,0,32.225-6a1.539,1.539,0,0,0-1.159.5,2.28,2.28,0,0,0-.584,1.306Z" transform="translate(584 206)" fill="#fff"/>
    <g id="Primary_Button-6" data-name="Primary Button" transform="translate(514 183)">
      <path id="Rectangle_3990-24" data-name="Rectangle 3990" d="M18,0H54a0,0,0,0,1,0,0V36a0,0,0,0,1,0,0H18A18,18,0,0,1,0,18v0A18,18,0,0,1,18,0Z" fill="#1f5ea8"/>
      <text id="Edit-4" data-name="Edit" transform="translate(15 23)" fill="#fff" font-size="14" font-family="SegoeUI-Semibold, Segoe UI" font-weight="600"><tspan x="0" y="0">Edit</tspan></text>
    </g>
    <path id="Rectangle_3990-25" data-name="Rectangle 3990" d="M0,0H53A18,18,0,0,1,71,18v0A18,18,0,0,1,53,36H0a0,0,0,0,1,0,0V0A0,0,0,0,1,0,0Z" transform="translate(636 234)" fill="#2777d3"/>
    <path id="Path_101542" data-name="Path 101542" d="M1.21,0V-9.8H4.04q5.421,0,5.421,4.778a4.709,4.709,0,0,1-1.5,3.647A5.74,5.74,0,0,1,3.924,0ZM2.83-8.422v7.048h1.3A3.632,3.632,0,0,0,6.8-2.317a3.583,3.583,0,0,0,.954-2.666q0-3.438-3.562-3.438ZM17-3.069H12.229a2.017,2.017,0,0,0,.6,1.5,2.225,2.225,0,0,0,1.569.526,3.459,3.459,0,0,0,2.058-.67V-.437a4.7,4.7,0,0,1-2.529.6A3.131,3.131,0,0,1,11.5-.79a3.814,3.814,0,0,1-.878-2.683,3.73,3.73,0,0,1,.967-2.663,3.164,3.164,0,0,1,2.4-1.029,2.759,2.759,0,0,1,2.222.923A3.832,3.832,0,0,1,17-3.678ZM15.47-4.19a2.044,2.044,0,0,0-.4-1.33A1.348,1.348,0,0,0,13.973-6a1.539,1.539,0,0,0-1.159.5,2.28,2.28,0,0,0-.584,1.306ZM20.1,0H18.512V-10.363H20.1ZM28.1-3.069H23.324a2.017,2.017,0,0,0,.6,1.5,2.225,2.225,0,0,0,1.569.526,3.459,3.459,0,0,0,2.058-.67V-.437a4.7,4.7,0,0,1-2.529.6A3.131,3.131,0,0,1,22.6-.79a3.814,3.814,0,0,1-.878-2.683,3.73,3.73,0,0,1,.967-2.663,3.164,3.164,0,0,1,2.4-1.029,2.759,2.759,0,0,1,2.222.923A3.832,3.832,0,0,1,28.1-3.678ZM26.564-4.19a2.044,2.044,0,0,0-.4-1.33A1.348,1.348,0,0,0,25.067-6a1.539,1.539,0,0,0-1.159.5,2.28,2.28,0,0,0-.584,1.306ZM33.3-.075a2.748,2.748,0,0,1-1.224.232q-2.037,0-2.037-1.955V-5.756H28.868V-7h1.169V-8.62l1.586-.451V-7H33.3v1.244H31.623v3.5a1.379,1.379,0,0,0,.226.889A.936.936,0,0,0,32.6-1.1a1.09,1.09,0,0,0,.7-.232ZM40.51-3.069H35.738a2.017,2.017,0,0,0,.6,1.5,2.225,2.225,0,0,0,1.569.526,3.459,3.459,0,0,0,2.058-.67V-.437a4.7,4.7,0,0,1-2.529.6A3.131,3.131,0,0,1,35.01-.79a3.814,3.814,0,0,1-.878-2.683A3.73,3.73,0,0,1,35.1-6.135a3.164,3.164,0,0,1,2.4-1.029,2.759,2.759,0,0,1,2.222.923,3.832,3.832,0,0,1,.786,2.563ZM38.979-4.19a2.044,2.044,0,0,0-.4-1.33A1.348,1.348,0,0,0,37.481-6a1.539,1.539,0,0,0-1.159.5,2.28,2.28,0,0,0-.584,1.306Z" transform="translate(651 257)" fill="#fff"/>
    <rect id="Rectangle_3990-26" data-name="Rectangle 3990" width="66" height="36" transform="translate(569 234)" fill="#2777d3"/>
    <path id="Path_101538" data-name="Path 101538" d="M11.737,0H10.124V-6.344q0-.779.1-1.907h-.027a6.586,6.586,0,0,1-.267.923L7,0H5.879L2.946-7.273a6.851,6.851,0,0,1-.26-.978H2.659q.055.588.055,1.921V0H1.21V-9.8H3.5L6.077-3.274A9.655,9.655,0,0,1,6.46-2.153h.034q.253-.772.41-1.148L9.529-9.8h2.208Zm5.339.164a3.47,3.47,0,0,1-2.587-.981,3.544,3.544,0,0,1-.967-2.6A3.687,3.687,0,0,1,14.53-6.173a3.708,3.708,0,0,1,2.717-.991A3.358,3.358,0,0,1,19.8-6.2a3.723,3.723,0,0,1,.916,2.673,3.669,3.669,0,0,1-.988,2.683A3.548,3.548,0,0,1,17.076.164ZM17.151-5.9a1.81,1.81,0,0,0-1.47.649,2.719,2.719,0,0,0-.54,1.791,2.561,2.561,0,0,0,.547,1.733,1.837,1.837,0,0,0,1.463.632,1.743,1.743,0,0,0,1.439-.622,2.754,2.754,0,0,0,.5-1.771,2.8,2.8,0,0,0-.5-1.784A1.734,1.734,0,0,0,17.151-5.9ZM28.362-7,25.655,0H23.939L21.362-7h1.723l1.552,4.895a4.563,4.563,0,0,1,.219.943h.021a5.064,5.064,0,0,1,.191-.916L26.694-7Zm6.891,3.931H30.481a2.017,2.017,0,0,0,.6,1.5,2.225,2.225,0,0,0,1.569.526,3.459,3.459,0,0,0,2.058-.67V-.437a4.7,4.7,0,0,1-2.529.6A3.131,3.131,0,0,1,29.753-.79a3.814,3.814,0,0,1-.878-2.683,3.73,3.73,0,0,1,.967-2.663,3.164,3.164,0,0,1,2.4-1.029,2.759,2.759,0,0,1,2.222.923,3.832,3.832,0,0,1,.786,2.563ZM33.722-4.19a2.044,2.044,0,0,0-.4-1.33A1.348,1.348,0,0,0,32.225-6a1.539,1.539,0,0,0-1.159.5,2.28,2.28,0,0,0-.584,1.306Z" transform="translate(584 257)" fill="#fff"/>
    <g id="Primary_Button-7" data-name="Primary Button" transform="translate(514 234)">
      <path id="Rectangle_3990-27" data-name="Rectangle 3990" d="M18,0H54a0,0,0,0,1,0,0V36a0,0,0,0,1,0,0H18A18,18,0,0,1,0,18v0A18,18,0,0,1,18,0Z" fill="#e6e6ea"/>
      <text id="Edit-5" data-name="Edit" transform="translate(15 23)" fill="#afafbb" font-size="14" font-family="SegoeUI-Semibold, Segoe UI" font-weight="600"><tspan x="0" y="0">Edit</tspan></text>
    </g>
    <path id="Rectangle_3990-28" data-name="Rectangle 3990" d="M0,0H53A18,18,0,0,1,71,18v0A18,18,0,0,1,53,36H0a0,0,0,0,1,0,0V0A0,0,0,0,1,0,0Z" transform="translate(636 81)" fill="#2777d3"/>
    <path id="Path_101543" data-name="Path 101543" d="M1.21,0V-9.8H4.04q5.421,0,5.421,4.778a4.709,4.709,0,0,1-1.5,3.647A5.74,5.74,0,0,1,3.924,0ZM2.83-8.422v7.048h1.3A3.632,3.632,0,0,0,6.8-2.317a3.583,3.583,0,0,0,.954-2.666q0-3.438-3.562-3.438ZM17-3.069H12.229a2.017,2.017,0,0,0,.6,1.5,2.225,2.225,0,0,0,1.569.526,3.459,3.459,0,0,0,2.058-.67V-.437a4.7,4.7,0,0,1-2.529.6A3.131,3.131,0,0,1,11.5-.79a3.814,3.814,0,0,1-.878-2.683,3.73,3.73,0,0,1,.967-2.663,3.164,3.164,0,0,1,2.4-1.029,2.759,2.759,0,0,1,2.222.923A3.832,3.832,0,0,1,17-3.678ZM15.47-4.19a2.044,2.044,0,0,0-.4-1.33A1.348,1.348,0,0,0,13.973-6a1.539,1.539,0,0,0-1.159.5,2.28,2.28,0,0,0-.584,1.306ZM20.1,0H18.512V-10.363H20.1ZM28.1-3.069H23.324a2.017,2.017,0,0,0,.6,1.5,2.225,2.225,0,0,0,1.569.526,3.459,3.459,0,0,0,2.058-.67V-.437a4.7,4.7,0,0,1-2.529.6A3.131,3.131,0,0,1,22.6-.79a3.814,3.814,0,0,1-.878-2.683,3.73,3.73,0,0,1,.967-2.663,3.164,3.164,0,0,1,2.4-1.029,2.759,2.759,0,0,1,2.222.923A3.832,3.832,0,0,1,28.1-3.678ZM26.564-4.19a2.044,2.044,0,0,0-.4-1.33A1.348,1.348,0,0,0,25.067-6a1.539,1.539,0,0,0-1.159.5,2.28,2.28,0,0,0-.584,1.306ZM33.3-.075a2.748,2.748,0,0,1-1.224.232q-2.037,0-2.037-1.955V-5.756H28.868V-7h1.169V-8.62l1.586-.451V-7H33.3v1.244H31.623v3.5a1.379,1.379,0,0,0,.226.889A.936.936,0,0,0,32.6-1.1a1.09,1.09,0,0,0,.7-.232ZM40.51-3.069H35.738a2.017,2.017,0,0,0,.6,1.5,2.225,2.225,0,0,0,1.569.526,3.459,3.459,0,0,0,2.058-.67V-.437a4.7,4.7,0,0,1-2.529.6A3.131,3.131,0,0,1,35.01-.79a3.814,3.814,0,0,1-.878-2.683A3.73,3.73,0,0,1,35.1-6.135a3.164,3.164,0,0,1,2.4-1.029,2.759,2.759,0,0,1,2.222.923,3.832,3.832,0,0,1,.786,2.563ZM38.979-4.19a2.044,2.044,0,0,0-.4-1.33A1.348,1.348,0,0,0,37.481-6a1.539,1.539,0,0,0-1.159.5,2.28,2.28,0,0,0-.584,1.306Z" transform="translate(651 104)" fill="#fff"/>
    <rect id="Rectangle_3990-29" data-name="Rectangle 3990" width="66" height="36" transform="translate(569 81)" fill="#2777d3"/>
    <path id="Path_101534" data-name="Path 101534" d="M11.737,0H10.124V-6.344q0-.779.1-1.907h-.027a6.586,6.586,0,0,1-.267.923L7,0H5.879L2.946-7.273a6.851,6.851,0,0,1-.26-.978H2.659q.055.588.055,1.921V0H1.21V-9.8H3.5L6.077-3.274A9.655,9.655,0,0,1,6.46-2.153h.034q.253-.772.41-1.148L9.529-9.8h2.208Zm5.339.164a3.47,3.47,0,0,1-2.587-.981,3.544,3.544,0,0,1-.967-2.6A3.687,3.687,0,0,1,14.53-6.173a3.708,3.708,0,0,1,2.717-.991A3.358,3.358,0,0,1,19.8-6.2a3.723,3.723,0,0,1,.916,2.673,3.669,3.669,0,0,1-.988,2.683A3.548,3.548,0,0,1,17.076.164ZM17.151-5.9a1.81,1.81,0,0,0-1.47.649,2.719,2.719,0,0,0-.54,1.791,2.561,2.561,0,0,0,.547,1.733,1.837,1.837,0,0,0,1.463.632,1.743,1.743,0,0,0,1.439-.622,2.754,2.754,0,0,0,.5-1.771,2.8,2.8,0,0,0-.5-1.784A1.734,1.734,0,0,0,17.151-5.9ZM28.362-7,25.655,0H23.939L21.362-7h1.723l1.552,4.895a4.563,4.563,0,0,1,.219.943h.021a5.064,5.064,0,0,1,.191-.916L26.694-7Zm6.891,3.931H30.481a2.017,2.017,0,0,0,.6,1.5,2.225,2.225,0,0,0,1.569.526,3.459,3.459,0,0,0,2.058-.67V-.437a4.7,4.7,0,0,1-2.529.6A3.131,3.131,0,0,1,29.753-.79a3.814,3.814,0,0,1-.878-2.683,3.73,3.73,0,0,1,.967-2.663,3.164,3.164,0,0,1,2.4-1.029,2.759,2.759,0,0,1,2.222.923,3.832,3.832,0,0,1,.786,2.563ZM33.722-4.19a2.044,2.044,0,0,0-.4-1.33A1.348,1.348,0,0,0,32.225-6a1.539,1.539,0,0,0-1.159.5,2.28,2.28,0,0,0-.584,1.306Z" transform="translate(584 104)" fill="#fff"/>
    <g id="Primary_Button-8" data-name="Primary Button" transform="translate(514 81)">
      <path id="Rectangle_3990-30" data-name="Rectangle 3990" d="M18,0H54a0,0,0,0,1,0,0V36a0,0,0,0,1,0,0H18A18,18,0,0,1,0,18v0A18,18,0,0,1,18,0Z" fill="#4e92df"/>
      <text id="Edit-6" data-name="Edit" transform="translate(15 23)" fill="#fff" font-size="14" font-family="SegoeUI-Semibold, Segoe UI" font-weight="600"><tspan x="0" y="0">Edit</tspan></text>
    </g>
    <path id="Rectangle_10241" data-name="Rectangle 10241" d="M16-.5H50.5v33H16A16.5,16.5,0,0,1,4.333,4.333,16.392,16.392,0,0,1,16-.5ZM49.5.5H16a15.5,15.5,0,0,0,0,31H49.5Z" transform="translate(516 134)" fill="#fff"/>
  </g>
</svg>
