<svg xmlns="http://www.w3.org/2000/svg" xmlns:xlink="http://www.w3.org/1999/xlink" width="500" height="96" viewBox="0 0 500 96">
  <defs>
    <clipPath id="clip-button-group_Labeling-DO-NOT_1">
      <rect width="500" height="96"/>
    </clipPath>
  </defs>
  <g id="button-group_Labeling-DO-NOT_1" data-name="button-group_Labeling-DO-NOT – 1" clip-path="url(#clip-button-group_Labeling-DO-NOT_1)">
    <rect width="500" height="96" fill="#f4f4f6"/>
    <path id="Rectangle_3990" data-name="Rectangle 3990" d="M-.5-.5H53a18.5,18.5,0,0,1,7.2,35.546A18.385,18.385,0,0,1,53,36.5H-.5ZM53,35.5a17.5,17.5,0,0,0,0-35H.5v35Z" transform="translate(364 30)" fill="#cbcbd2"/>
    <path id="Path_101557" data-name="Path 101557" d="M1.21,0V-9.8H4.04q5.421,0,5.421,4.778a4.709,4.709,0,0,1-1.5,3.647A5.74,5.74,0,0,1,3.924,0ZM2.83-8.422v7.048h1.3A3.632,3.632,0,0,0,6.8-2.317a3.583,3.583,0,0,0,.954-2.666q0-3.438-3.562-3.438ZM17-3.069H12.229a2.017,2.017,0,0,0,.6,1.5,2.225,2.225,0,0,0,1.569.526,3.459,3.459,0,0,0,2.058-.67V-.437a4.7,4.7,0,0,1-2.529.6A3.131,3.131,0,0,1,11.5-.79a3.814,3.814,0,0,1-.878-2.683,3.73,3.73,0,0,1,.967-2.663,3.164,3.164,0,0,1,2.4-1.029,2.759,2.759,0,0,1,2.222.923A3.832,3.832,0,0,1,17-3.678ZM15.47-4.19a2.044,2.044,0,0,0-.4-1.33A1.348,1.348,0,0,0,13.973-6a1.539,1.539,0,0,0-1.159.5,2.28,2.28,0,0,0-.584,1.306ZM20.1,0H18.512V-10.363H20.1ZM28.1-3.069H23.324a2.017,2.017,0,0,0,.6,1.5,2.225,2.225,0,0,0,1.569.526,3.459,3.459,0,0,0,2.058-.67V-.437a4.7,4.7,0,0,1-2.529.6A3.131,3.131,0,0,1,22.6-.79a3.814,3.814,0,0,1-.878-2.683,3.73,3.73,0,0,1,.967-2.663,3.164,3.164,0,0,1,2.4-1.029,2.759,2.759,0,0,1,2.222.923A3.832,3.832,0,0,1,28.1-3.678ZM26.564-4.19a2.044,2.044,0,0,0-.4-1.33A1.348,1.348,0,0,0,25.067-6a1.539,1.539,0,0,0-1.159.5,2.28,2.28,0,0,0-.584,1.306ZM33.3-.075a2.748,2.748,0,0,1-1.224.232q-2.037,0-2.037-1.955V-5.756H28.868V-7h1.169V-8.62l1.586-.451V-7H33.3v1.244H31.623v3.5a1.379,1.379,0,0,0,.226.889A.936.936,0,0,0,32.6-1.1a1.09,1.09,0,0,0,.7-.232ZM40.51-3.069H35.738a2.017,2.017,0,0,0,.6,1.5,2.225,2.225,0,0,0,1.569.526,3.459,3.459,0,0,0,2.058-.67V-.437a4.7,4.7,0,0,1-2.529.6A3.131,3.131,0,0,1,35.01-.79a3.814,3.814,0,0,1-.878-2.683A3.73,3.73,0,0,1,35.1-6.135a3.164,3.164,0,0,1,2.4-1.029,2.759,2.759,0,0,1,2.222.923,3.832,3.832,0,0,1,.786,2.563ZM38.979-4.19a2.044,2.044,0,0,0-.4-1.33A1.348,1.348,0,0,0,37.481-6a1.539,1.539,0,0,0-1.159.5,2.28,2.28,0,0,0-.584,1.306Z" transform="translate(379 53)" fill="#2777d3"/>
    <path id="Rectangle_3990-2" data-name="Rectangle 3990" d="M-.5-.5h245v37H-.5Zm244,1H.5v35h243Z" transform="translate(120 30)" fill="#cbcbd2"/>
    <path id="Path_101556" data-name="Path 101556" d="M11.737,0H10.124V-6.344q0-.779.1-1.907h-.027a6.586,6.586,0,0,1-.267.923L7,0H5.879L2.946-7.273a6.851,6.851,0,0,1-.26-.978H2.659q.055.588.055,1.921V0H1.21V-9.8H3.5L6.077-3.274A9.655,9.655,0,0,1,6.46-2.153h.034q.253-.772.41-1.148L9.529-9.8h2.208Zm5.339.164a3.47,3.47,0,0,1-2.587-.981,3.544,3.544,0,0,1-.967-2.6A3.687,3.687,0,0,1,14.53-6.173a3.708,3.708,0,0,1,2.717-.991A3.358,3.358,0,0,1,19.8-6.2a3.723,3.723,0,0,1,.916,2.673,3.669,3.669,0,0,1-.988,2.683A3.548,3.548,0,0,1,17.076.164ZM17.151-5.9a1.81,1.81,0,0,0-1.47.649,2.719,2.719,0,0,0-.54,1.791,2.561,2.561,0,0,0,.547,1.733,1.837,1.837,0,0,0,1.463.632,1.743,1.743,0,0,0,1.439-.622,2.754,2.754,0,0,0,.5-1.771,2.8,2.8,0,0,0-.5-1.784A1.734,1.734,0,0,0,17.151-5.9ZM28.362-7,25.655,0H23.939L21.362-7h1.723l1.552,4.895a4.563,4.563,0,0,1,.219.943h.021a5.064,5.064,0,0,1,.191-.916L26.694-7Zm6.891,3.931H30.481a2.017,2.017,0,0,0,.6,1.5,2.225,2.225,0,0,0,1.569.526,3.459,3.459,0,0,0,2.058-.67V-.437a4.7,4.7,0,0,1-2.529.6A3.131,3.131,0,0,1,29.753-.79a3.814,3.814,0,0,1-.878-2.683,3.73,3.73,0,0,1,.967-2.663,3.164,3.164,0,0,1,2.4-1.029,2.759,2.759,0,0,1,2.222.923,3.832,3.832,0,0,1,.786,2.563ZM33.722-4.19a2.044,2.044,0,0,0-.4-1.33A1.348,1.348,0,0,0,32.225-6a1.539,1.539,0,0,0-1.159.5,2.28,2.28,0,0,0-.584,1.306ZM44.3-.075A2.748,2.748,0,0,1,43.08.157q-2.037,0-2.037-1.955V-5.756H39.874V-7h1.169V-8.62l1.586-.451V-7H44.3v1.244H42.629v3.5a1.379,1.379,0,0,0,.226.889.936.936,0,0,0,.752.267,1.09,1.09,0,0,0,.7-.232Zm4.389.239A3.47,3.47,0,0,1,46.1-.817a3.544,3.544,0,0,1-.967-2.6,3.687,3.687,0,0,1,1.008-2.755,3.708,3.708,0,0,1,2.717-.991A3.358,3.358,0,0,1,51.42-6.2a3.723,3.723,0,0,1,.916,2.673,3.669,3.669,0,0,1-.988,2.683A3.548,3.548,0,0,1,48.692.164ZM48.768-5.9a1.81,1.81,0,0,0-1.47.649,2.719,2.719,0,0,0-.54,1.791A2.561,2.561,0,0,0,47.3-1.726a1.837,1.837,0,0,0,1.463.632,1.743,1.743,0,0,0,1.439-.622,2.754,2.754,0,0,0,.5-1.771,2.8,2.8,0,0,0-.5-1.784A1.734,1.734,0,0,0,48.768-5.9ZM63.171,0H61.633V-1.094h-.027A2.316,2.316,0,0,1,59.479.164,2.239,2.239,0,0,1,57.863-.4a1.961,1.961,0,0,1-.584-1.483q0-1.982,2.283-2.311l2.078-.294q0-1.5-1.422-1.5a3.378,3.378,0,0,0-2.256.861V-6.508a4.919,4.919,0,0,1,2.557-.656,2.326,2.326,0,0,1,2.652,2.611ZM61.64-3.438l-1.47.205a2.33,2.33,0,0,0-1.029.332.969.969,0,0,0-.345.851.932.932,0,0,0,.318.728,1.231,1.231,0,0,0,.851.284,1.57,1.57,0,0,0,1.2-.509A1.806,1.806,0,0,0,61.64-2.83ZM71.34,0H69.754V-3.944q0-1.962-1.388-1.962a1.515,1.515,0,0,0-1.2.543A2.016,2.016,0,0,0,66.7-3.992V0H65.105V-7H66.7v1.162h.027A2.5,2.5,0,0,1,69-7.164a2.114,2.114,0,0,1,1.743.742,3.331,3.331,0,0,1,.6,2.143Zm5.038.164a3.47,3.47,0,0,1-2.587-.981,3.544,3.544,0,0,1-.967-2.6,3.687,3.687,0,0,1,1.008-2.755,3.708,3.708,0,0,1,2.717-.991,3.358,3.358,0,0,1,2.557.964,3.723,3.723,0,0,1,.916,2.673,3.669,3.669,0,0,1-.988,2.683A3.548,3.548,0,0,1,76.378.164ZM76.453-5.9a1.81,1.81,0,0,0-1.47.649,2.719,2.719,0,0,0-.54,1.791,2.561,2.561,0,0,0,.547,1.733,1.837,1.837,0,0,0,1.463.632,1.743,1.743,0,0,0,1.439-.622,2.754,2.754,0,0,0,.5-1.771,2.8,2.8,0,0,0-.5-1.784A1.734,1.734,0,0,0,76.453-5.9ZM85.326-.075A2.748,2.748,0,0,1,84.1.157q-2.037,0-2.037-1.955V-5.756H80.9V-7h1.169V-8.62l1.586-.451V-7h1.675v1.244H83.651v3.5a1.379,1.379,0,0,0,.226.889.936.936,0,0,0,.752.267,1.09,1.09,0,0,0,.7-.232ZM92.914,0H91.328V-3.828q0-2.078-1.388-2.078a1.451,1.451,0,0,0-1.176.6,2.394,2.394,0,0,0-.479,1.538V0H86.693V-10.363h1.593v4.525h.027a2.5,2.5,0,0,1,2.27-1.326q2.331,0,2.331,2.851Zm7.854-3.069H96a2.017,2.017,0,0,0,.6,1.5,2.225,2.225,0,0,0,1.569.526,3.459,3.459,0,0,0,2.058-.67V-.437a4.7,4.7,0,0,1-2.529.6A3.131,3.131,0,0,1,95.269-.79a3.814,3.814,0,0,1-.878-2.683,3.73,3.73,0,0,1,.967-2.663,3.164,3.164,0,0,1,2.4-1.029,2.759,2.759,0,0,1,2.222.923,3.832,3.832,0,0,1,.786,2.563ZM99.237-4.19a2.044,2.044,0,0,0-.4-1.33A1.348,1.348,0,0,0,97.74-6a1.539,1.539,0,0,0-1.159.5A2.28,2.28,0,0,0,96-4.19Zm7.1-1.3a1.315,1.315,0,0,0-.827-.226,1.416,1.416,0,0,0-1.176.636,2.843,2.843,0,0,0-.472,1.729V0h-1.586V-7h1.586v1.442h.027a2.438,2.438,0,0,1,.714-1.152,1.612,1.612,0,0,1,1.077-.414,1.337,1.337,0,0,1,.656.13Zm6.583,4.457H112.9V3.22H111.31V-7H112.9v1.23h.027A2.6,2.6,0,0,1,115.3-7.164a2.506,2.506,0,0,1,2.078.937,3.928,3.928,0,0,1,.745,2.516,4.361,4.361,0,0,1-.841,2.8,2.781,2.781,0,0,1-2.3,1.053A2.294,2.294,0,0,1,112.923-1.032Zm-.041-2.762v.868a1.852,1.852,0,0,0,.489,1.3,1.61,1.61,0,0,0,1.241.533A1.621,1.621,0,0,0,116-1.781a3.2,3.2,0,0,0,.5-1.917,2.52,2.52,0,0,0-.468-1.617,1.539,1.539,0,0,0-1.268-.584,1.709,1.709,0,0,0-1.364.6A2.228,2.228,0,0,0,112.882-3.794Zm10.924-1.7a1.315,1.315,0,0,0-.827-.226,1.416,1.416,0,0,0-1.176.636,2.843,2.843,0,0,0-.472,1.729V0h-1.586V-7h1.586v1.442h.027a2.438,2.438,0,0,1,.714-1.152,1.612,1.612,0,0,1,1.077-.414,1.337,1.337,0,0,1,.656.13Zm4.1,5.653a3.47,3.47,0,0,1-2.587-.981,3.544,3.544,0,0,1-.967-2.6,3.687,3.687,0,0,1,1.008-2.755,3.708,3.708,0,0,1,2.717-.991,3.358,3.358,0,0,1,2.557.964,3.723,3.723,0,0,1,.916,2.673,3.669,3.669,0,0,1-.988,2.683A3.548,3.548,0,0,1,127.907.164Zm.075-6.063a1.81,1.81,0,0,0-1.47.649,2.719,2.719,0,0,0-.54,1.791,2.561,2.561,0,0,0,.547,1.733,1.837,1.837,0,0,0,1.463.632,1.743,1.743,0,0,0,1.439-.622,2.754,2.754,0,0,0,.5-1.771,2.8,2.8,0,0,0-.5-1.784A1.734,1.734,0,0,0,127.982-5.9ZM134.75-.294a4.249,4.249,0,0,1-.725,2.656,2.467,2.467,0,0,1-2.071.933,2.283,2.283,0,0,1-.971-.219V1.716a1.5,1.5,0,0,0,.841.308q1.34,0,1.34-2.365V-7h1.586Zm-.779-8.176a.953.953,0,0,1-.667-.253.832.832,0,0,1-.277-.643.854.854,0,0,1,.277-.649.939.939,0,0,1,.667-.26.96.96,0,0,1,.677.26.849.849,0,0,1,.28.649.837.837,0,0,1-.28.632A.953.953,0,0,1,133.971-8.47Zm8.777,5.4h-4.771a2.017,2.017,0,0,0,.6,1.5,2.225,2.225,0,0,0,1.569.526,3.459,3.459,0,0,0,2.058-.67V-.437a4.7,4.7,0,0,1-2.529.6,3.131,3.131,0,0,1-2.423-.954,3.814,3.814,0,0,1-.878-2.683,3.73,3.73,0,0,1,.967-2.663,3.164,3.164,0,0,1,2.4-1.029,2.759,2.759,0,0,1,2.222.923,3.832,3.832,0,0,1,.786,2.563ZM141.217-4.19a2.044,2.044,0,0,0-.4-1.33A1.348,1.348,0,0,0,139.72-6a1.539,1.539,0,0,0-1.159.5,2.28,2.28,0,0,0-.584,1.306ZM149.27-.321a3.911,3.911,0,0,1-1.989.485,3.369,3.369,0,0,1-2.516-.974,3.451,3.451,0,0,1-.957-2.526,3.8,3.8,0,0,1,1.029-2.779,3.678,3.678,0,0,1,2.751-1.049,4.016,4.016,0,0,1,1.688.335v1.477a2.557,2.557,0,0,0-1.559-.547,2.166,2.166,0,0,0-1.647.68,2.487,2.487,0,0,0-.643,1.781,2.371,2.371,0,0,0,.6,1.716,2.148,2.148,0,0,0,1.624.629A2.537,2.537,0,0,0,149.27-1.7Zm5.264.246a2.748,2.748,0,0,1-1.224.232q-2.037,0-2.037-1.955V-5.756H150.1V-7h1.169V-8.62l1.586-.451V-7h1.675v1.244h-1.675v3.5a1.379,1.379,0,0,0,.226.889.936.936,0,0,0,.752.267,1.09,1.09,0,0,0,.7-.232Zm8.319.239a3.47,3.47,0,0,1-2.587-.981,3.544,3.544,0,0,1-.967-2.6,3.687,3.687,0,0,1,1.008-2.755,3.708,3.708,0,0,1,2.717-.991,3.358,3.358,0,0,1,2.557.964,3.723,3.723,0,0,1,.916,2.673,3.669,3.669,0,0,1-.988,2.683A3.548,3.548,0,0,1,162.853.164Zm.075-6.063a1.81,1.81,0,0,0-1.47.649,2.719,2.719,0,0,0-.54,1.791,2.561,2.561,0,0,0,.547,1.733,1.837,1.837,0,0,0,1.463.632,1.743,1.743,0,0,0,1.439-.622,2.754,2.754,0,0,0,.5-1.771,2.8,2.8,0,0,0-.5-1.784A1.734,1.734,0,0,0,162.928-5.9Zm9.242.41a1.315,1.315,0,0,0-.827-.226,1.416,1.416,0,0,0-1.176.636A2.843,2.843,0,0,0,169.7-3.35V0h-1.586V-7H169.7v1.442h.027a2.439,2.439,0,0,1,.714-1.152,1.612,1.612,0,0,1,1.077-.414,1.337,1.337,0,0,1,.656.13ZM181.1-9.071a1.442,1.442,0,0,0-.731-.185q-1.155,0-1.155,1.306V-7h1.627v1.244h-1.62V0h-1.586V-5.756h-1.2V-7h1.2V-8.135a2.209,2.209,0,0,1,.725-1.747,2.639,2.639,0,0,1,1.812-.639,2.69,2.69,0,0,1,.93.13ZM185.069.164a3.47,3.47,0,0,1-2.587-.981,3.544,3.544,0,0,1-.967-2.6,3.687,3.687,0,0,1,1.008-2.755,3.708,3.708,0,0,1,2.717-.991A3.358,3.358,0,0,1,187.8-6.2a3.723,3.723,0,0,1,.916,2.673,3.669,3.669,0,0,1-.988,2.683A3.548,3.548,0,0,1,185.069.164Zm.075-6.063a1.81,1.81,0,0,0-1.47.649,2.719,2.719,0,0,0-.54,1.791,2.561,2.561,0,0,0,.547,1.733,1.837,1.837,0,0,0,1.463.632,1.743,1.743,0,0,0,1.439-.622,2.754,2.754,0,0,0,.5-1.771,2.8,2.8,0,0,0-.5-1.784A1.734,1.734,0,0,0,185.145-5.9ZM191.919,0h-1.593V-10.363h1.593Zm8.429,0h-1.586V-1.189h-.027A2.53,2.53,0,0,1,196.376.164a2.546,2.546,0,0,1-2.068-.94,3.9,3.9,0,0,1-.776-2.56,4.251,4.251,0,0,1,.858-2.782,2.808,2.808,0,0,1,2.287-1.046,2.19,2.19,0,0,1,2.058,1.135h.027v-4.334h1.586Zm-1.565-3.2v-.916A1.785,1.785,0,0,0,198.3-5.38a1.619,1.619,0,0,0-1.237-.52,1.666,1.666,0,0,0-1.4.663,2.955,2.955,0,0,0-.509,1.839,2.648,2.648,0,0,0,.489,1.685,1.59,1.59,0,0,0,1.316.619,1.646,1.646,0,0,0,1.319-.6A2.253,2.253,0,0,0,198.782-3.2Zm9.563.13h-4.771a2.017,2.017,0,0,0,.6,1.5,2.225,2.225,0,0,0,1.569.526,3.459,3.459,0,0,0,2.058-.67V-.437a4.7,4.7,0,0,1-2.529.6,3.131,3.131,0,0,1-2.423-.954,3.814,3.814,0,0,1-.878-2.683,3.73,3.73,0,0,1,.967-2.663,3.164,3.164,0,0,1,2.4-1.029,2.759,2.759,0,0,1,2.222.923,3.832,3.832,0,0,1,.786,2.563ZM206.814-4.19a2.044,2.044,0,0,0-.4-1.33A1.348,1.348,0,0,0,205.317-6a1.539,1.539,0,0,0-1.159.5,2.28,2.28,0,0,0-.584,1.306Zm7.1-1.3a1.315,1.315,0,0,0-.827-.226,1.416,1.416,0,0,0-1.176.636,2.843,2.843,0,0,0-.472,1.729V0h-1.586V-7h1.586v1.442h.027a2.439,2.439,0,0,1,.714-1.152,1.612,1.612,0,0,1,1.077-.414,1.337,1.337,0,0,1,.656.13Z" transform="translate(135 53)" fill="#2777d3"/>
    <path id="Rectangle_3990-3" data-name="Rectangle 3990" d="M18-.5H54.5v37H18A18.5,18.5,0,0,1,10.8.954,18.385,18.385,0,0,1,18-.5ZM53.5.5H18a17.5,17.5,0,0,0,0,35H53.5Z" transform="translate(66 30)" fill="#cbcbd2"/>
    <path id="Path_101555" data-name="Path 101555" d="M6.713,0H1.21V-9.8H6.494v1.381H2.837v2.775h3.37v1.374H2.837v2.9H6.713Zm7.93,0H13.057V-1.189h-.027A2.53,2.53,0,0,1,10.671.164,2.546,2.546,0,0,1,8.6-.776a3.9,3.9,0,0,1-.776-2.56,4.251,4.251,0,0,1,.858-2.782,2.808,2.808,0,0,1,2.287-1.046,2.19,2.19,0,0,1,2.058,1.135h.027v-4.334h1.586ZM13.077-3.2v-.916a1.785,1.785,0,0,0-.485-1.265,1.619,1.619,0,0,0-1.237-.52,1.666,1.666,0,0,0-1.4.663A2.955,2.955,0,0,0,9.447-3.4a2.648,2.648,0,0,0,.489,1.685,1.59,1.59,0,0,0,1.316.619,1.646,1.646,0,0,0,1.319-.6A2.253,2.253,0,0,0,13.077-3.2ZM17.514-8.47a.953.953,0,0,1-.667-.253.832.832,0,0,1-.277-.643.854.854,0,0,1,.277-.649.939.939,0,0,1,.667-.26.969.969,0,0,1,.684.26.849.849,0,0,1,.28.649.837.837,0,0,1-.28.632A.962.962,0,0,1,17.514-8.47ZM18.3,0H16.714V-7H18.3Zm5.763-.075a2.748,2.748,0,0,1-1.224.232Q20.8.157,20.8-1.8V-5.756H19.633V-7H20.8V-8.62l1.586-.451V-7h1.675v1.244H22.388v3.5a1.379,1.379,0,0,0,.226.889.936.936,0,0,0,.752.267,1.09,1.09,0,0,0,.7-.232Z" transform="translate(81 53)" fill="#2777d3"/>
  </g>
</svg>
