<svg xmlns="http://www.w3.org/2000/svg" xmlns:xlink="http://www.w3.org/1999/xlink" width="1000" height="96" viewBox="0 0 1000 96">
  <defs>
    <clipPath id="clip-button-group_usage">
      <rect width="1000" height="96"/>
    </clipPath>
  </defs>
  <g id="button-group_usage" clip-path="url(#clip-button-group_usage)">
    <rect width="1000" height="96" fill="#f4f4f6"/>
    <path id="Rectangle_3990" data-name="Rectangle 3990" d="M-.5-.5H72a18.5,18.5,0,0,1,7.2,35.546A18.385,18.385,0,0,1,72,36.5H-.5ZM72,35.5a17.5,17.5,0,0,0,0-35H.5v35Z" transform="translate(518 30)" fill="#cbcbd2"/>
    <path id="Path_101504" data-name="Path 101504" d="M1.21,0V-9.8H4.04q5.421,0,5.421,4.778a4.709,4.709,0,0,1-1.5,3.647A5.74,5.74,0,0,1,3.924,0ZM2.83-8.422v7.048h1.3A3.632,3.632,0,0,0,6.8-2.317a3.583,3.583,0,0,0,.954-2.666q0-3.438-3.562-3.438ZM17.179,0H15.593V-1.107h-.027A2.282,2.282,0,0,1,13.419.164q-2.481,0-2.481-2.98V-7h1.586v4.02q0,1.887,1.456,1.887a1.471,1.471,0,0,0,1.159-.52,1.991,1.991,0,0,0,.455-1.36V-7h1.586Zm3.678-1.032h-.027V3.22H19.243V-7h1.586v1.23h.027a2.6,2.6,0,0,1,2.379-1.395,2.506,2.506,0,0,1,2.078.937,3.928,3.928,0,0,1,.745,2.516,4.361,4.361,0,0,1-.841,2.8,2.781,2.781,0,0,1-2.3,1.053A2.294,2.294,0,0,1,20.856-1.032Zm-.041-2.762v.868a1.852,1.852,0,0,0,.489,1.3,1.61,1.61,0,0,0,1.241.533,1.621,1.621,0,0,0,1.384-.687,3.2,3.2,0,0,0,.5-1.917,2.52,2.52,0,0,0-.468-1.617A1.539,1.539,0,0,0,22.7-5.9a1.709,1.709,0,0,0-1.364.6A2.228,2.228,0,0,0,20.815-3.794ZM29.271,0H27.679V-10.363h1.593Zm2.864-8.47a.953.953,0,0,1-.667-.253.832.832,0,0,1-.277-.643.854.854,0,0,1,.277-.649.939.939,0,0,1,.667-.26.969.969,0,0,1,.684.26.849.849,0,0,1,.28.649.837.837,0,0,1-.28.632A.962.962,0,0,1,32.136-8.47ZM32.922,0H31.336V-7h1.586ZM40-.321a3.911,3.911,0,0,1-1.989.485A3.369,3.369,0,0,1,35.5-.81a3.451,3.451,0,0,1-.957-2.526,3.8,3.8,0,0,1,1.029-2.779,3.678,3.678,0,0,1,2.751-1.049,4.016,4.016,0,0,1,1.688.335v1.477A2.557,2.557,0,0,0,38.452-5.9a2.166,2.166,0,0,0-1.647.68,2.487,2.487,0,0,0-.643,1.781,2.371,2.371,0,0,0,.6,1.716,2.148,2.148,0,0,0,1.624.629A2.537,2.537,0,0,0,40-1.7ZM46.949,0H45.411V-1.094h-.027A2.316,2.316,0,0,1,43.258.164,2.239,2.239,0,0,1,41.641-.4a1.961,1.961,0,0,1-.584-1.483q0-1.982,2.283-2.311l2.078-.294q0-1.5-1.422-1.5a3.378,3.378,0,0,0-2.256.861V-6.508A4.919,4.919,0,0,1,44.3-7.164a2.326,2.326,0,0,1,2.652,2.611ZM45.418-3.438l-1.47.205a2.33,2.33,0,0,0-1.029.332.969.969,0,0,0-.345.851.932.932,0,0,0,.318.728,1.231,1.231,0,0,0,.851.284,1.57,1.57,0,0,0,1.2-.509,1.806,1.806,0,0,0,.475-1.282ZM52.575-.075a2.748,2.748,0,0,1-1.224.232q-2.037,0-2.037-1.955V-5.756H48.146V-7h1.169V-8.62L50.9-9.071V-7h1.675v1.244H50.9v3.5a1.379,1.379,0,0,0,.226.889.936.936,0,0,0,.752.267,1.09,1.09,0,0,0,.7-.232Zm7.212-2.994H55.016a2.017,2.017,0,0,0,.6,1.5,2.225,2.225,0,0,0,1.569.526,3.459,3.459,0,0,0,2.058-.67V-.437a4.7,4.7,0,0,1-2.529.6A3.131,3.131,0,0,1,54.288-.79a3.814,3.814,0,0,1-.878-2.683,3.73,3.73,0,0,1,.967-2.663,3.164,3.164,0,0,1,2.4-1.029A2.759,2.759,0,0,1,59-6.241a3.832,3.832,0,0,1,.786,2.563ZM58.256-4.19a2.044,2.044,0,0,0-.4-1.33A1.348,1.348,0,0,0,56.759-6a1.539,1.539,0,0,0-1.159.5,2.28,2.28,0,0,0-.584,1.306Z" transform="translate(533 53)" fill="#2777d3"/>
    <path id="Rectangle_3990-2" data-name="Rectangle 3990" d="M-.5-.5h55v37H-.5Zm54,1H.5v35h53Z" transform="translate(464 30)" fill="#cbcbd2"/>
    <path id="Path_101503" data-name="Path 101503" d="M6.713,0H1.21V-9.8H6.494v1.381H2.837v2.775h3.37v1.374H2.837v2.9H6.713Zm7.93,0H13.057V-1.189h-.027A2.53,2.53,0,0,1,10.671.164,2.546,2.546,0,0,1,8.6-.776a3.9,3.9,0,0,1-.776-2.56,4.251,4.251,0,0,1,.858-2.782,2.808,2.808,0,0,1,2.287-1.046,2.19,2.19,0,0,1,2.058,1.135h.027v-4.334h1.586ZM13.077-3.2v-.916a1.785,1.785,0,0,0-.485-1.265,1.619,1.619,0,0,0-1.237-.52,1.666,1.666,0,0,0-1.4.663A2.955,2.955,0,0,0,9.447-3.4a2.648,2.648,0,0,0,.489,1.685,1.59,1.59,0,0,0,1.316.619,1.646,1.646,0,0,0,1.319-.6A2.253,2.253,0,0,0,13.077-3.2ZM17.514-8.47a.953.953,0,0,1-.667-.253.832.832,0,0,1-.277-.643.854.854,0,0,1,.277-.649.939.939,0,0,1,.667-.26.969.969,0,0,1,.684.26.849.849,0,0,1,.28.649.837.837,0,0,1-.28.632A.962.962,0,0,1,17.514-8.47ZM18.3,0H16.714V-7H18.3Zm5.763-.075a2.748,2.748,0,0,1-1.224.232Q20.8.157,20.8-1.8V-5.756H19.633V-7H20.8V-8.62l1.586-.451V-7h1.675v1.244H22.388v3.5a1.379,1.379,0,0,0,.226.889.936.936,0,0,0,.752.267,1.09,1.09,0,0,0,.7-.232Z" transform="translate(479 53)" fill="#2777d3"/>
    <path id="Rectangle_3990-3" data-name="Rectangle 3990" d="M18-.5H72.5v37H18A18.5,18.5,0,0,1,10.8.954,18.385,18.385,0,0,1,18-.5ZM71.5.5H18a17.5,17.5,0,0,0,0,35H71.5Z" transform="translate(392 30)" fill="#cbcbd2"/>
    <path id="Path_101502" data-name="Path 101502" d="M6.713,0H1.21V-9.8H6.494v1.381H2.837v2.775h3.37v1.374H2.837v2.9H6.713ZM14.13-7,11.8-3.459,14.1,0H12.264l-1.23-2.167q-.116-.2-.273-.506h-.027q-.027.062-.287.506L9.194,0H7.362L9.741-3.432,7.485-7H9.331l1.21,2.276q.137.253.267.52h.021L12.394-7Zm2.775,5.968h-.027V3.22H15.292V-7h1.586v1.23h.027a2.6,2.6,0,0,1,2.379-1.395,2.506,2.506,0,0,1,2.078.937,3.928,3.928,0,0,1,.745,2.516,4.361,4.361,0,0,1-.841,2.8A2.781,2.781,0,0,1,18.97.144,2.294,2.294,0,0,1,16.905-1.032Zm-.041-2.762v.868a1.852,1.852,0,0,0,.489,1.3,1.61,1.61,0,0,0,1.241.533,1.621,1.621,0,0,0,1.384-.687,3.2,3.2,0,0,0,.5-1.917,2.52,2.52,0,0,0-.468-1.617A1.539,1.539,0,0,0,18.744-5.9a1.709,1.709,0,0,0-1.364.6A2.228,2.228,0,0,0,16.864-3.794ZM26.831.164a3.47,3.47,0,0,1-2.587-.981,3.544,3.544,0,0,1-.967-2.6,3.687,3.687,0,0,1,1.008-2.755A3.708,3.708,0,0,1,27-7.164a3.358,3.358,0,0,1,2.557.964,3.723,3.723,0,0,1,.916,2.673,3.669,3.669,0,0,1-.988,2.683A3.548,3.548,0,0,1,26.831.164ZM26.906-5.9a1.81,1.81,0,0,0-1.47.649,2.719,2.719,0,0,0-.54,1.791,2.561,2.561,0,0,0,.547,1.733,1.837,1.837,0,0,0,1.463.632,1.743,1.743,0,0,0,1.439-.622,2.754,2.754,0,0,0,.5-1.771,2.8,2.8,0,0,0-.5-1.784A1.734,1.734,0,0,0,26.906-5.9Zm9.242.41a1.315,1.315,0,0,0-.827-.226,1.416,1.416,0,0,0-1.176.636,2.843,2.843,0,0,0-.472,1.729V0H32.088V-7h1.586v1.442H33.7a2.439,2.439,0,0,1,.714-1.152,1.612,1.612,0,0,1,1.077-.414,1.337,1.337,0,0,1,.656.13ZM41.364-.075a2.748,2.748,0,0,1-1.224.232Q38.1.157,38.1-1.8V-5.756H36.935V-7H38.1V-8.62l1.586-.451V-7h1.675v1.244H39.689v3.5a1.379,1.379,0,0,0,.226.889.936.936,0,0,0,.752.267,1.09,1.09,0,0,0,.7-.232Z" transform="translate(407 53)" fill="#2777d3"/>
  </g>
</svg>
