<svg xmlns="http://www.w3.org/2000/svg" xmlns:xlink="http://www.w3.org/1999/xlink" width="1000" height="215" viewBox="0 0 1000 215">
  <defs>
    <filter id="Rectangle_10023" x="420.5" y="63.5" width="159" height="127" filterUnits="userSpaceOnUse">
      <feOffset dy="1" input="SourceAlpha"/>
      <feGaussianBlur stdDeviation="1.5" result="blur"/>
      <feFlood flood-opacity="0.161"/>
      <feComposite operator="in" in2="blur"/>
      <feComposite in="SourceGraphic"/>
    </filter>
    <clipPath id="clip-button-dropdown_anatomy">
      <rect width="1000" height="215"/>
    </clipPath>
  </defs>
  <g id="button-dropdown_anatomy" clip-path="url(#clip-button-dropdown_anatomy)">
    <rect width="1000" height="215" fill="#f4f4f6"/>
    <g id="Dropdown_options" data-name="Dropdown options" transform="translate(409 31)">
      <g transform="matrix(1, 0, 0, 1, -409, -31)" filter="url(#Rectangle_10023)">
        <rect id="Rectangle_10023-2" data-name="Rectangle 10023" width="150" height="118" transform="translate(425 67)" fill="#fff"/>
      </g>
      <g id="dropdown_item" data-name="dropdown item" transform="translate(16 42)">
        <rect id="Rectangle_4665" data-name="Rectangle 4665" width="150" height="36" fill="#fff"/>
        <path id="Path_101503" data-name="Path 101503" d="M2.434-3.705V0H1.285V-9.8H3.979a3.555,3.555,0,0,1,2.437.766,2.734,2.734,0,0,1,.865,2.16,2.971,2.971,0,0,1-.96,2.283,3.67,3.67,0,0,1-2.594.889Zm0-5.059v4.02h1.2a2.69,2.69,0,0,0,1.815-.543,1.924,1.924,0,0,0,.625-1.535q0-1.941-2.3-1.941ZM9.126,0V-9.8h2.707q5.182,0,5.182,4.778a4.815,4.815,0,0,1-1.439,3.647A5.338,5.338,0,0,1,11.724,0Zm1.148-8.764v7.725h1.463a4.152,4.152,0,0,0,3-1.032A3.869,3.869,0,0,0,15.812-5q0-3.767-4.006-3.767Zm13.645,0H20.091v3.391h3.541v1.032H20.091V0H18.942V-9.8h4.977Z" transform="translate(15 22)" fill="#494955"/>
      </g>
      <g id="dropdown_item-2" data-name="dropdown item" transform="translate(16 78)">
        <rect id="Rectangle_4665-2" data-name="Rectangle 4665" width="150" height="36" fill="#fff"/>
        <path id="Path_101504" data-name="Path 101504" d="M6.48,0h-5.2V-9.8H6.262v1.039H2.434V-5.5H5.975v1.032H2.434v3.432H6.48Zm6.85-7L10.979-3.459,13.289,0H11.983L10.609-2.27q-.13-.212-.308-.533h-.027q-.034.062-.321.533L8.552,0H7.26L9.646-3.432,7.362-7H8.668l1.354,2.393q.15.267.294.547h.027L12.093-7ZM19.414-.321A3.643,3.643,0,0,1,17.5.164,3.169,3.169,0,0,1,15.083-.81a3.53,3.53,0,0,1-.919-2.526,3.881,3.881,0,0,1,.991-2.779A3.467,3.467,0,0,1,17.8-7.164a3.682,3.682,0,0,1,1.627.342v1.148a2.85,2.85,0,0,0-1.668-.547A2.254,2.254,0,0,0,16-5.452a2.918,2.918,0,0,0-.687,2.02,2.779,2.779,0,0,0,.646,1.941,2.227,2.227,0,0,0,1.733.711,2.81,2.81,0,0,0,1.723-.608Zm7.321-2.9H21.793a2.618,2.618,0,0,0,.629,1.8,2.168,2.168,0,0,0,1.654.636,3.439,3.439,0,0,0,2.174-.779V-.506a4.063,4.063,0,0,1-2.44.67A2.959,2.959,0,0,1,21.479-.79a3.9,3.9,0,0,1-.848-2.683,3.828,3.828,0,0,1,.926-2.663,2.97,2.97,0,0,1,2.3-1.029,2.632,2.632,0,0,1,2.126.889,3.705,3.705,0,0,1,.752,2.468Zm-1.148-.95a2.281,2.281,0,0,0-.468-1.511,1.6,1.6,0,0,0-1.282-.54,1.811,1.811,0,0,0-1.347.567,2.575,2.575,0,0,0-.684,1.483ZM29.552,0H28.431V-10.363h1.121Z" transform="translate(15 22)" fill="#494955"/>
      </g>
      <g id="dropdown_item-3" data-name="dropdown item" transform="translate(16 114)">
        <rect id="Rectangle_4665-3" data-name="Rectangle 4665" width="150" height="36" fill="#fff"/>
        <path id="Path_101505" data-name="Path 101505" d="M2.434-3.705V0H1.285V-9.8H3.979a3.555,3.555,0,0,1,2.437.766,2.734,2.734,0,0,1,.865,2.16,2.971,2.971,0,0,1-.96,2.283,3.67,3.67,0,0,1-2.594.889Zm0-5.059v4.02h1.2a2.69,2.69,0,0,0,1.815-.543,1.924,1.924,0,0,0,.625-1.535q0-1.941-2.3-1.941ZM11.382.164A3.247,3.247,0,0,1,8.9-.817a3.634,3.634,0,0,1-.926-2.6,3.785,3.785,0,0,1,.964-2.755,3.465,3.465,0,0,1,2.6-.991A3.14,3.14,0,0,1,13.99-6.2a3.822,3.822,0,0,1,.878,2.673,3.761,3.761,0,0,1-.947,2.683A3.317,3.317,0,0,1,11.382.164Zm.082-6.385a2.132,2.132,0,0,0-1.709.735,3.018,3.018,0,0,0-.629,2.027A2.854,2.854,0,0,0,9.762-1.5a2.161,2.161,0,0,0,1.7.718,2.049,2.049,0,0,0,1.671-.7,3.055,3.055,0,0,0,.584-2,3.108,3.108,0,0,0-.584-2.023A2.04,2.04,0,0,0,11.464-6.221ZM25.478-7l-2.1,7H22.217L20.774-5.011a3.265,3.265,0,0,1-.109-.649h-.027a3.066,3.066,0,0,1-.144.636L18.929,0H17.808L15.688-7h1.176l1.449,5.264a3.171,3.171,0,0,1,.1.629h.055a2.942,2.942,0,0,1,.123-.643L20.2-7h1.025l1.449,5.277a3.768,3.768,0,0,1,.1.629h.055a2.909,2.909,0,0,1,.116-.629L24.37-7ZM32.4-3.22H27.46a2.618,2.618,0,0,0,.629,1.8,2.168,2.168,0,0,0,1.654.636,3.439,3.439,0,0,0,2.174-.779V-.506a4.063,4.063,0,0,1-2.44.67A2.959,2.959,0,0,1,27.146-.79,3.9,3.9,0,0,1,26.3-3.473a3.828,3.828,0,0,1,.926-2.663,2.97,2.97,0,0,1,2.3-1.029,2.632,2.632,0,0,1,2.126.889A3.705,3.705,0,0,1,32.4-3.808Zm-1.148-.95a2.281,2.281,0,0,0-.468-1.511,1.6,1.6,0,0,0-1.282-.54,1.811,1.811,0,0,0-1.347.567,2.575,2.575,0,0,0-.684,1.483Zm6.494-1.7a1.371,1.371,0,0,0-.848-.226,1.431,1.431,0,0,0-1.2.677,3.129,3.129,0,0,0-.482,1.846V0H34.1V-7h1.121v1.442h.027a2.444,2.444,0,0,1,.731-1.152,1.668,1.668,0,0,1,1.1-.414,1.83,1.83,0,0,1,.67.1Zm2.516,2.16V0H39.115V-9.8h2.693a3.555,3.555,0,0,1,2.437.766,2.734,2.734,0,0,1,.865,2.16,2.971,2.971,0,0,1-.96,2.283,3.67,3.67,0,0,1-2.594.889Zm0-5.059v4.02h1.2a2.69,2.69,0,0,0,1.815-.543,1.924,1.924,0,0,0,.625-1.535q0-1.941-2.3-1.941ZM49.212.164a3.247,3.247,0,0,1-2.478-.981,3.634,3.634,0,0,1-.926-2.6,3.785,3.785,0,0,1,.964-2.755,3.465,3.465,0,0,1,2.6-.991A3.14,3.14,0,0,1,51.82-6.2,3.822,3.822,0,0,1,52.7-3.527a3.761,3.761,0,0,1-.947,2.683A3.317,3.317,0,0,1,49.212.164Zm.082-6.385a2.132,2.132,0,0,0-1.709.735,3.018,3.018,0,0,0-.629,2.027A2.854,2.854,0,0,0,47.592-1.5a2.161,2.161,0,0,0,1.7.718,2.049,2.049,0,0,0,1.671-.7,3.055,3.055,0,0,0,.584-2,3.108,3.108,0,0,0-.584-2.023A2.04,2.04,0,0,0,49.294-6.221Zm5.77-2.557a.71.71,0,0,1-.513-.205.692.692,0,0,1-.212-.52.7.7,0,0,1,.212-.523.7.7,0,0,1,.513-.208.724.724,0,0,1,.523.208A.7.7,0,0,1,55.8-9.5a.693.693,0,0,1-.215.513A.718.718,0,0,1,55.063-8.777ZM55.61,0H54.489V-7H55.61Zm8.08,0H62.569V-3.992q0-2.229-1.627-2.229a1.765,1.765,0,0,0-1.391.632,2.344,2.344,0,0,0-.55,1.6V0H57.88V-7H59v1.162h.027a2.526,2.526,0,0,1,2.3-1.326,2.142,2.142,0,0,1,1.757.742,3.3,3.3,0,0,1,.608,2.143ZM69.05-.068A2.161,2.161,0,0,1,68,.15Q66.165.15,66.165-1.9V-6.043h-1.2V-7h1.2V-8.709l1.121-.362V-7H69.05v.957H67.286V-2.1a1.635,1.635,0,0,0,.239,1,.955.955,0,0,0,.793.3,1.179,1.179,0,0,0,.731-.232Z" transform="translate(15 22)" fill="#494955"/>
      </g>
    </g>
    <g id="Group_264634" data-name="Group 264634" transform="translate(425 39)">
      <path id="Path_7189" data-name="Path 7189" d="M15.036,9.421,12,12.457,8.964,9.421a1,1,0,0,0-1.414,0h0a1,1,0,0,0,0,1.414l3.743,3.743a1,1,0,0,0,1.414,0l3.743-3.743a1,1,0,0,0,0-1.414h0A1,1,0,0,0,15.036,9.421Z" transform="translate(61.743 -1)" fill="#fff"/>
      <text id="Action" transform="translate(16 15)" fill="#fff" font-size="14" font-family="SegoeUI-Semibold, Segoe UI" font-weight="600"><tspan x="0" y="0">Action</tspan></text>
    </g>
    <g id="Group_264632" data-name="Group 264632" transform="translate(425 31)">
      <rect id="Rectangle_3990" data-name="Rectangle 3990" width="103" height="36" rx="18" fill="#1f5ea8"/>
      <g id="Group_264633" data-name="Group 264633" transform="translate(-1)">
        <g id="Chevron_up" data-name="Chevron up" transform="translate(81 18)">
          <g id="Group_264667" data-name="Group 264667" transform="translate(-8 -8)">
            <path id="Path_101500" data-name="Path 101500" d="M4,10.7,2.8,9.4a.3.3,0,0,1,0-.4l5-5a.3.3,0,0,1,.4,0l5,5.1a.3.3,0,0,1,0,.4L12,10.7a.3.3,0,0,1-.4,0L8,7.1,4.4,10.7a.3.3,0,0,1-.4,0Z" fill="#fff"/>
            <rect id="Rectangle_10039" data-name="Rectangle 10039" width="16" height="16" fill="none"/>
          </g>
        </g>
        <text id="Save_as" data-name="Save as" transform="translate(16 23)" fill="#fff" font-size="14" font-family="SegoeUI-Semibold, Segoe UI" font-weight="600"><tspan x="0" y="0">Save as</tspan></text>
      </g>
    </g>
    <g id="Group_4" data-name="Group 4" transform="translate(288 -322)">
      <path id="Path_1" data-name="Path 1" d="M12,0A12,12,0,1,1,0,12,12,12,0,0,1,12,0Z" transform="translate(68 359)" fill="#17987c"/>
      <path id="Path_3" data-name="Path 3" d="M0,0H1V39H0Z" transform="translate(91 371) rotate(-90)" fill="#17987c"/>
      <g id="Group_5" data-name="Group 5" transform="translate(0 1)">
        <g id="Group_6" data-name="Group 6" transform="translate(0 353)">
          <path id="Path_8" data-name="Path 8" d="M0,0H1V5H0Z" transform="translate(128 1) rotate(-90)" fill="#17987c"/>
          <path id="Path_9" data-name="Path 9" d="M0,0H1V5H0Z" transform="translate(128 34) rotate(-90)" fill="#17987c"/>
          <path id="Path_7" data-name="Path 7" d="M0,0H1V32.5H0Z" transform="translate(130 0.75)" fill="#17987c"/>
        </g>
      </g>
      <path id="Path_101507" data-name="Path 101507" d="M4.2-10.021V0H2.618V-8.08a5.052,5.052,0,0,1-.926.523,7.635,7.635,0,0,1-1.131.379V-8.531q.4-.13.766-.273t.728-.321q.359-.178.725-.4t.755-.5Z" transform="translate(77 376)" fill="#fff"/>
    </g>
    <g id="Group_264635" data-name="Group 264635" transform="translate(386 -249)">
      <path id="Path_1-2" data-name="Path 1" d="M12,0A12,12,0,1,1,0,12,12,12,0,0,1,12,0Z" transform="translate(-25 363)" fill="#17987c"/>
      <path id="Path_3-2" data-name="Path 3" d="M0,0H1V39H0Z" transform="translate(-6 375) rotate(-90)" fill="#17987c"/>
      <g id="Group_5-2" data-name="Group 5" transform="translate(-98 1)">
        <g id="Group_6-2" data-name="Group 6" transform="translate(0 316)">
          <path id="Path_8-2" data-name="Path 8" d="M0,0H1V5H0Z" transform="translate(128 1) rotate(-90)" fill="#17987c"/>
          <path id="Path_9-2" data-name="Path 9" d="M0,0H1V5H0Z" transform="translate(128 116) rotate(-90)" fill="#17987c"/>
          <path id="Path_7-2" data-name="Path 7" d="M0,0H1V114.5H0Z" transform="translate(130 0.75)" fill="#17987c"/>
        </g>
      </g>
      <path id="Path_101508" data-name="Path 101508" d="M.841-.362v-1.49A3.386,3.386,0,0,0,3-1.094a2.517,2.517,0,0,0,1.562-.444,1.432,1.432,0,0,0,.584-1.2q0-1.668-2.55-1.668H1.839V-5.681h.725q2.263,0,2.263-1.572Q4.826-8.7,3.063-8.7A2.892,2.892,0,0,0,1.21-8V-9.406a4.739,4.739,0,0,1,2.358-.561,3.159,3.159,0,0,1,2.092.656,2.092,2.092,0,0,1,.786,1.682A2.4,2.4,0,0,1,4.478-5.141v.027a2.579,2.579,0,0,1,1.675.742,2.211,2.211,0,0,1,.615,1.6A2.616,2.616,0,0,1,5.776-.646a4,4,0,0,1-2.611.81A4.456,4.456,0,0,1,.841-.362Z" transform="translate(-16 380)" fill="#fff"/>
    </g>
    <g id="Group_2" data-name="Group 2" transform="translate(484 -365)">
      <path id="Path_4" data-name="Path 4" d="M12,0A12,12,0,1,1,0,12,12,12,0,0,1,12,0Z" transform="translate(68 403)" fill="#17987c"/>
      <path id="Path_6" data-name="Path 6" d="M0,0H1V39H0Z" transform="translate(31 415) rotate(-90)" fill="#17987c"/>
      <path id="Path_101506" data-name="Path 101506" d="M6.822,0H.67V-.759A2.849,2.849,0,0,1,.8-1.63,3.526,3.526,0,0,1,1.148-2.4a4.265,4.265,0,0,1,.513-.677q.294-.318.629-.615t.684-.574q.349-.277.684-.557.314-.267.574-.523a3.491,3.491,0,0,0,.444-.53,2.4,2.4,0,0,0,.287-.578,2.053,2.053,0,0,0,.1-.66,1.778,1.778,0,0,0-.12-.68,1.322,1.322,0,0,0-.335-.485A1.43,1.43,0,0,0,4.1-8.569a2,2,0,0,0-.643-.1,2.964,2.964,0,0,0-1.224.28,4.188,4.188,0,0,0-1.2.841V-9.071a5,5,0,0,1,.608-.393,4.146,4.146,0,0,1,.636-.28,3.919,3.919,0,0,1,.69-.167,5.179,5.179,0,0,1,.772-.055,3.9,3.9,0,0,1,1.2.174,2.561,2.561,0,0,1,.923.513,2.253,2.253,0,0,1,.591.844,3.03,3.03,0,0,1,.208,1.162A3.614,3.614,0,0,1,6.525-6.2a3.462,3.462,0,0,1-.417.885,4.593,4.593,0,0,1-.653.779q-.383.369-.854.759-.4.321-.79.625T3.1-2.56a3.321,3.321,0,0,0-.509.581,1.042,1.042,0,0,0-.195.584v.034H6.822Z" transform="translate(76 420)" fill="#fff"/>
    </g>
    <g id="Group_264636" data-name="Group 264636" transform="translate(513 -252)">
      <path id="Path_4-2" data-name="Path 4" d="M12,0A12,12,0,1,1,0,12,12,12,0,0,1,12,0Z" transform="translate(68 403)" fill="#17987c"/>
      <path id="Path_6-2" data-name="Path 6" d="M0,0H1V50H0Z" transform="translate(20 415) rotate(-90)" fill="#17987c"/>
      <path id="Path_101509" data-name="Path 101509" d="M6.33-9.8v6.33H7.786v1.319H6.33V0H4.792V-2.153H.355V-3.486q.6-.677,1.234-1.466T2.806-6.566Q3.391-7.39,3.89-8.217A15.065,15.065,0,0,0,4.73-9.8ZM4.792-3.473V-7.588A22.714,22.714,0,0,1,3.319-5.25q-.728,1-1.364,1.777Z" transform="translate(76 420)" fill="#fff"/>
    </g>
  </g>
</svg>
