<svg xmlns="http://www.w3.org/2000/svg" xmlns:xlink="http://www.w3.org/1999/xlink" width="1000" height="96" viewBox="0 0 1000 96">
  <defs>
    <clipPath id="clip-button-group_secondary">
      <rect width="1000" height="96"/>
    </clipPath>
  </defs>
  <g id="button-group_secondary" clip-path="url(#clip-button-group_secondary)">
    <rect width="1000" height="96" fill="#f4f4f6"/>
    <path id="Rectangle_3990" data-name="Rectangle 3990" d="M-.5-.5H53a18.5,18.5,0,0,1,7.2,35.546A18.385,18.385,0,0,1,53,36.5H-.5ZM53,35.5a17.5,17.5,0,0,0,0-35H.5v35Z" transform="translate(512 30)" fill="#cbcbd2"/>
    <path id="Path_101512" data-name="Path 101512" d="M1.21,0V-9.8H4.04q5.421,0,5.421,4.778a4.709,4.709,0,0,1-1.5,3.647A5.74,5.74,0,0,1,3.924,0ZM2.83-8.422v7.048h1.3A3.632,3.632,0,0,0,6.8-2.317a3.583,3.583,0,0,0,.954-2.666q0-3.438-3.562-3.438ZM17-3.069H12.229a2.017,2.017,0,0,0,.6,1.5,2.225,2.225,0,0,0,1.569.526,3.459,3.459,0,0,0,2.058-.67V-.437a4.7,4.7,0,0,1-2.529.6A3.131,3.131,0,0,1,11.5-.79a3.814,3.814,0,0,1-.878-2.683,3.73,3.73,0,0,1,.967-2.663,3.164,3.164,0,0,1,2.4-1.029,2.759,2.759,0,0,1,2.222.923A3.832,3.832,0,0,1,17-3.678ZM15.47-4.19a2.044,2.044,0,0,0-.4-1.33A1.348,1.348,0,0,0,13.973-6a1.539,1.539,0,0,0-1.159.5,2.28,2.28,0,0,0-.584,1.306ZM20.1,0H18.512V-10.363H20.1ZM28.1-3.069H23.324a2.017,2.017,0,0,0,.6,1.5,2.225,2.225,0,0,0,1.569.526,3.459,3.459,0,0,0,2.058-.67V-.437a4.7,4.7,0,0,1-2.529.6A3.131,3.131,0,0,1,22.6-.79a3.814,3.814,0,0,1-.878-2.683,3.73,3.73,0,0,1,.967-2.663,3.164,3.164,0,0,1,2.4-1.029,2.759,2.759,0,0,1,2.222.923A3.832,3.832,0,0,1,28.1-3.678ZM26.564-4.19a2.044,2.044,0,0,0-.4-1.33A1.348,1.348,0,0,0,25.067-6a1.539,1.539,0,0,0-1.159.5,2.28,2.28,0,0,0-.584,1.306ZM33.3-.075a2.748,2.748,0,0,1-1.224.232q-2.037,0-2.037-1.955V-5.756H28.868V-7h1.169V-8.62l1.586-.451V-7H33.3v1.244H31.623v3.5a1.379,1.379,0,0,0,.226.889A.936.936,0,0,0,32.6-1.1a1.09,1.09,0,0,0,.7-.232ZM40.51-3.069H35.738a2.017,2.017,0,0,0,.6,1.5,2.225,2.225,0,0,0,1.569.526,3.459,3.459,0,0,0,2.058-.67V-.437a4.7,4.7,0,0,1-2.529.6A3.131,3.131,0,0,1,35.01-.79a3.814,3.814,0,0,1-.878-2.683A3.73,3.73,0,0,1,35.1-6.135a3.164,3.164,0,0,1,2.4-1.029,2.759,2.759,0,0,1,2.222.923,3.832,3.832,0,0,1,.786,2.563ZM38.979-4.19a2.044,2.044,0,0,0-.4-1.33A1.348,1.348,0,0,0,37.481-6a1.539,1.539,0,0,0-1.159.5,2.28,2.28,0,0,0-.584,1.306Z" transform="translate(527 53)" fill="#2777d3"/>
    <path id="Rectangle_3990-2" data-name="Rectangle 3990" d="M-.5-.5h67v37H-.5Zm66,1H.5v35h65Z" transform="translate(446 30)" fill="#cbcbd2"/>
    <path id="Path_101511" data-name="Path 101511" d="M11.737,0H10.124V-6.344q0-.779.1-1.907h-.027a6.586,6.586,0,0,1-.267.923L7,0H5.879L2.946-7.273a6.851,6.851,0,0,1-.26-.978H2.659q.055.588.055,1.921V0H1.21V-9.8H3.5L6.077-3.274A9.655,9.655,0,0,1,6.46-2.153h.034q.253-.772.41-1.148L9.529-9.8h2.208Zm5.339.164a3.47,3.47,0,0,1-2.587-.981,3.544,3.544,0,0,1-.967-2.6A3.687,3.687,0,0,1,14.53-6.173a3.708,3.708,0,0,1,2.717-.991A3.358,3.358,0,0,1,19.8-6.2a3.723,3.723,0,0,1,.916,2.673,3.669,3.669,0,0,1-.988,2.683A3.548,3.548,0,0,1,17.076.164ZM17.151-5.9a1.81,1.81,0,0,0-1.47.649,2.719,2.719,0,0,0-.54,1.791,2.561,2.561,0,0,0,.547,1.733,1.837,1.837,0,0,0,1.463.632,1.743,1.743,0,0,0,1.439-.622,2.754,2.754,0,0,0,.5-1.771,2.8,2.8,0,0,0-.5-1.784A1.734,1.734,0,0,0,17.151-5.9ZM28.362-7,25.655,0H23.939L21.362-7h1.723l1.552,4.895a4.563,4.563,0,0,1,.219.943h.021a5.064,5.064,0,0,1,.191-.916L26.694-7Zm6.891,3.931H30.481a2.017,2.017,0,0,0,.6,1.5,2.225,2.225,0,0,0,1.569.526,3.459,3.459,0,0,0,2.058-.67V-.437a4.7,4.7,0,0,1-2.529.6A3.131,3.131,0,0,1,29.753-.79a3.814,3.814,0,0,1-.878-2.683,3.73,3.73,0,0,1,.967-2.663,3.164,3.164,0,0,1,2.4-1.029,2.759,2.759,0,0,1,2.222.923,3.832,3.832,0,0,1,.786,2.563ZM33.722-4.19a2.044,2.044,0,0,0-.4-1.33A1.348,1.348,0,0,0,32.225-6a1.539,1.539,0,0,0-1.159.5,2.28,2.28,0,0,0-.584,1.306Z" transform="translate(461 53)" fill="#2777d3"/>
    <path id="Rectangle_3990-3" data-name="Rectangle 3990" d="M18-.5H54.5v37H18A18.5,18.5,0,0,1,10.8.954,18.385,18.385,0,0,1,18-.5ZM53.5.5H18a17.5,17.5,0,0,0,0,35H53.5Z" transform="translate(392 30)" fill="#cbcbd2"/>
    <path id="Path_101510" data-name="Path 101510" d="M6.713,0H1.21V-9.8H6.494v1.381H2.837v2.775h3.37v1.374H2.837v2.9H6.713Zm7.93,0H13.057V-1.189h-.027A2.53,2.53,0,0,1,10.671.164,2.546,2.546,0,0,1,8.6-.776a3.9,3.9,0,0,1-.776-2.56,4.251,4.251,0,0,1,.858-2.782,2.808,2.808,0,0,1,2.287-1.046,2.19,2.19,0,0,1,2.058,1.135h.027v-4.334h1.586ZM13.077-3.2v-.916a1.785,1.785,0,0,0-.485-1.265,1.619,1.619,0,0,0-1.237-.52,1.666,1.666,0,0,0-1.4.663A2.955,2.955,0,0,0,9.447-3.4a2.648,2.648,0,0,0,.489,1.685,1.59,1.59,0,0,0,1.316.619,1.646,1.646,0,0,0,1.319-.6A2.253,2.253,0,0,0,13.077-3.2ZM17.514-8.47a.953.953,0,0,1-.667-.253.832.832,0,0,1-.277-.643.854.854,0,0,1,.277-.649.939.939,0,0,1,.667-.26.969.969,0,0,1,.684.26.849.849,0,0,1,.28.649.837.837,0,0,1-.28.632A.962.962,0,0,1,17.514-8.47ZM18.3,0H16.714V-7H18.3Zm5.763-.075a2.748,2.748,0,0,1-1.224.232Q20.8.157,20.8-1.8V-5.756H19.633V-7H20.8V-8.62l1.586-.451V-7h1.675v1.244H22.388v3.5a1.379,1.379,0,0,0,.226.889.936.936,0,0,0,.752.267,1.09,1.09,0,0,0,.7-.232Z" transform="translate(407 53)" fill="#2777d3"/>
  </g>
</svg>
