<svg xmlns="http://www.w3.org/2000/svg" xmlns:xlink="http://www.w3.org/1999/xlink" width="1000" height="232" viewBox="0 0 1000 232">
  <defs>
    <filter id="Rectangle_10023" x="293.5" y="62.5" width="159" height="127" filterUnits="userSpaceOnUse">
      <feOffset dy="1" input="SourceAlpha"/>
      <feGaussianBlur stdDeviation="1.5" result="blur"/>
      <feFlood flood-opacity="0.161"/>
      <feComposite operator="in" in2="blur"/>
      <feComposite in="SourceGraphic"/>
    </filter>
    <filter id="Rectangle_10023-2" x="589.5" y="62.5" width="159" height="145" filterUnits="userSpaceOnUse">
      <feOffset dy="1" input="SourceAlpha"/>
      <feGaussianBlur stdDeviation="1.5" result="blur-2"/>
      <feFlood flood-opacity="0.161"/>
      <feComposite operator="in" in2="blur-2"/>
      <feComposite in="SourceGraphic"/>
    </filter>
    <clipPath id="clip-button-dropdown_responsiveness">
      <rect width="1000" height="232"/>
    </clipPath>
  </defs>
  <g id="button-dropdown_responsiveness" clip-path="url(#clip-button-dropdown_responsiveness)">
    <rect width="1000" height="232" fill="#f4f4f6"/>
    <text id="flat_light" transform="translate(574 107)" fill="#17987c" font-size="11" font-family="SegoeUI, Segoe UI"><tspan x="-45.687" y="0">Mobile &amp;</tspan><tspan x="-66.381" y="15">touch devices</tspan></text>
    <text id="flat_light-2" data-name="flat_light" transform="translate(278 107)" fill="#17987c" font-size="11" font-family="SegoeUI, Segoe UI"><tspan x="-40.24" y="0">Desktop</tspan></text>
    <g id="Dropdown_Button" data-name="Dropdown Button" transform="translate(298 30)">
      <g id="Dropdown_options" data-name="Dropdown options" transform="translate(-16)">
        <g transform="matrix(1, 0, 0, 1, -282, -30)" filter="url(#Rectangle_10023)">
          <rect id="Rectangle_10023-3" data-name="Rectangle 10023" width="150" height="118" transform="translate(298 66)" fill="#fff"/>
        </g>
        <g id="dropdown_item" data-name="dropdown item" transform="translate(16 42)">
          <rect id="Rectangle_4665" data-name="Rectangle 4665" width="150" height="36" fill="#fff"/>
          <text id="PDF" transform="translate(15 22)" fill="#494955" font-size="14" font-family="SegoeUI, Segoe UI"><tspan x="0" y="0">PDF</tspan></text>
        </g>
        <g id="dropdown_item-2" data-name="dropdown item" transform="translate(16 78)">
          <rect id="Rectangle_4665-2" data-name="Rectangle 4665" width="150" height="36" fill="#fff"/>
          <text id="Excel" transform="translate(15 22)" fill="#494955" font-size="14" font-family="SegoeUI, Segoe UI"><tspan x="0" y="0">Excel</tspan></text>
        </g>
        <g id="dropdown_item-3" data-name="dropdown item" transform="translate(16 114)">
          <rect id="Rectangle_4665-3" data-name="Rectangle 4665" width="150" height="36" fill="#fff"/>
          <text id="PowerPoint" transform="translate(15 22)" fill="#494955" font-size="14" font-family="SegoeUI, Segoe UI"><tspan x="0" y="0">PowerPoint</tspan></text>
        </g>
      </g>
      <g id="Group_264634" data-name="Group 264634" transform="translate(0 8)">
        <path id="Path_7189" data-name="Path 7189" d="M15.036,9.421,12,12.457,8.964,9.421a1,1,0,0,0-1.414,0h0a1,1,0,0,0,0,1.414l3.743,3.743a1,1,0,0,0,1.414,0l3.743-3.743a1,1,0,0,0,0-1.414h0A1,1,0,0,0,15.036,9.421Z" transform="translate(61.743 -1)" fill="#fff"/>
        <text id="Action" transform="translate(16 15)" fill="#fff" font-size="14" font-family="SegoeUI-Semibold, Segoe UI" font-weight="600"><tspan x="0" y="0">Action</tspan></text>
      </g>
      <g id="Group_264632" data-name="Group 264632">
        <rect id="Rectangle_3990" data-name="Rectangle 3990" width="103" height="36" rx="18" fill="#1f5ea8"/>
        <g id="Group_264633" data-name="Group 264633" transform="translate(-1)">
          <g id="Chevron_up" data-name="Chevron up" transform="translate(81 18)">
            <g id="Group_264667" data-name="Group 264667" transform="translate(-8 -8)">
              <path id="Path_101500" data-name="Path 101500" d="M4,10.7,2.8,9.4a.3.3,0,0,1,0-.4l5-5a.3.3,0,0,1,.4,0l5,5.1a.3.3,0,0,1,0,.4L12,10.7a.3.3,0,0,1-.4,0L8,7.1,4.4,10.7a.3.3,0,0,1-.4,0Z" fill="#fff"/>
              <rect id="Rectangle_10039" data-name="Rectangle 10039" width="16" height="16" fill="none"/>
            </g>
          </g>
          <text id="Save_as" data-name="Save as" transform="translate(16 23)" fill="#fff" font-size="14" font-family="SegoeUI-Semibold, Segoe UI" font-weight="600"><tspan x="0" y="0">Save as</tspan></text>
        </g>
      </g>
    </g>
    <g id="Dropdown_Button-2" data-name="Dropdown Button" transform="translate(594 30)">
      <g id="Dropdown_options-2" data-name="Dropdown options" transform="translate(-16)">
        <g transform="matrix(1, 0, 0, 1, -578, -30)" filter="url(#Rectangle_10023-2)">
          <rect id="Rectangle_10023-4" data-name="Rectangle 10023" width="150" height="136" transform="translate(594 66)" fill="#fff"/>
        </g>
        <g id="dropdown_item-4" data-name="dropdown item" transform="translate(16 42)">
          <rect id="Rectangle_4665-4" data-name="Rectangle 4665" width="150" height="42" fill="#fff"/>
          <text id="PDF-2" data-name="PDF" transform="translate(15 24.471)" fill="#494955" font-size="14" font-family="SegoeUI, Segoe UI"><tspan x="0" y="0">PDF</tspan></text>
        </g>
        <g id="dropdown_item-5" data-name="dropdown item" transform="translate(16 84)">
          <rect id="Rectangle_4665-5" data-name="Rectangle 4665" width="150" height="42" fill="#fff"/>
          <text id="Excel-2" data-name="Excel" transform="translate(15 24.471)" fill="#494955" font-size="14" font-family="SegoeUI, Segoe UI"><tspan x="0" y="0">Excel</tspan></text>
        </g>
        <g id="dropdown_item-6" data-name="dropdown item" transform="translate(16 126)">
          <rect id="Rectangle_4665-6" data-name="Rectangle 4665" width="150" height="42" fill="#fff"/>
          <text id="PowerPoint-2" data-name="PowerPoint" transform="translate(15 24.471)" fill="#494955" font-size="14" font-family="SegoeUI, Segoe UI"><tspan x="0" y="0">PowerPoint</tspan></text>
        </g>
      </g>
      <g id="Group_264634-2" data-name="Group 264634" transform="translate(0 8)">
        <path id="Path_7189-2" data-name="Path 7189" d="M15.036,9.421,12,12.457,8.964,9.421a1,1,0,0,0-1.414,0h0a1,1,0,0,0,0,1.414l3.743,3.743a1,1,0,0,0,1.414,0l3.743-3.743a1,1,0,0,0,0-1.414h0A1,1,0,0,0,15.036,9.421Z" transform="translate(61.743 -1)" fill="#fff"/>
        <text id="Action-2" data-name="Action" transform="translate(16 15)" fill="#fff" font-size="14" font-family="SegoeUI-Semibold, Segoe UI" font-weight="600"><tspan x="0" y="0">Action</tspan></text>
      </g>
      <g id="Group_264632-2" data-name="Group 264632">
        <rect id="Rectangle_3990-2" data-name="Rectangle 3990" width="103" height="36" rx="18" fill="#1f5ea8"/>
        <g id="Group_264633-2" data-name="Group 264633" transform="translate(-1)">
          <g id="Chevron_up-2" data-name="Chevron up" transform="translate(81 18)">
            <g id="Group_264667-2" data-name="Group 264667" transform="translate(-8 -8)">
              <path id="Path_101500-2" data-name="Path 101500" d="M4,10.7,2.8,9.4a.3.3,0,0,1,0-.4l5-5a.3.3,0,0,1,.4,0l5,5.1a.3.3,0,0,1,0,.4L12,10.7a.3.3,0,0,1-.4,0L8,7.1,4.4,10.7a.3.3,0,0,1-.4,0Z" fill="#fff"/>
              <rect id="Rectangle_10039-2" data-name="Rectangle 10039" width="16" height="16" fill="none"/>
            </g>
          </g>
          <text id="Save_as-2" data-name="Save as" transform="translate(16 23)" fill="#fff" font-size="14" font-family="SegoeUI-Semibold, Segoe UI" font-weight="600"><tspan x="0" y="0">Save as</tspan></text>
        </g>
      </g>
    </g>
  </g>
</svg>
