<svg xmlns="http://www.w3.org/2000/svg" xmlns:xlink="http://www.w3.org/1999/xlink" width="1000" height="96" viewBox="0 0 1000 96">
  <defs>
    <clipPath id="clip-button-group_dropdown">
      <rect width="1000" height="96"/>
    </clipPath>
  </defs>
  <g id="button-group_dropdown" clip-path="url(#clip-button-group_dropdown)">
    <rect width="1000" height="96" fill="#f4f4f6"/>
    <path id="Rectangle_3990" data-name="Rectangle 3990" d="M-.5-.5H80a18.5,18.5,0,0,1,7.2,35.546A18.385,18.385,0,0,1,80,36.5H-.5ZM80,35.5a17.5,17.5,0,0,0,0-35H.5v35Z" transform="translate(610 30)" fill="#cbcbd2"/>
    <path id="Path_101519" data-name="Path 101519" d="M6.713,0H1.21V-9.8H6.494v1.381H2.837v2.775h3.37v1.374H2.837v2.9H6.713ZM14.13-7,11.8-3.459,14.1,0H12.264l-1.23-2.167q-.116-.2-.273-.506h-.027q-.027.062-.287.506L9.194,0H7.362L9.741-3.432,7.485-7H9.331l1.21,2.276q.137.253.267.52h.021L12.394-7Zm2.775,5.968h-.027V3.22H15.292V-7h1.586v1.23h.027a2.6,2.6,0,0,1,2.379-1.395,2.506,2.506,0,0,1,2.078.937,3.928,3.928,0,0,1,.745,2.516,4.361,4.361,0,0,1-.841,2.8A2.781,2.781,0,0,1,18.97.144,2.294,2.294,0,0,1,16.905-1.032Zm-.041-2.762v.868a1.852,1.852,0,0,0,.489,1.3,1.61,1.61,0,0,0,1.241.533,1.621,1.621,0,0,0,1.384-.687,3.2,3.2,0,0,0,.5-1.917,2.52,2.52,0,0,0-.468-1.617A1.539,1.539,0,0,0,18.744-5.9a1.709,1.709,0,0,0-1.364.6A2.228,2.228,0,0,0,16.864-3.794ZM26.831.164a3.47,3.47,0,0,1-2.587-.981,3.544,3.544,0,0,1-.967-2.6,3.687,3.687,0,0,1,1.008-2.755A3.708,3.708,0,0,1,27-7.164a3.358,3.358,0,0,1,2.557.964,3.723,3.723,0,0,1,.916,2.673,3.669,3.669,0,0,1-.988,2.683A3.548,3.548,0,0,1,26.831.164ZM26.906-5.9a1.81,1.81,0,0,0-1.47.649,2.719,2.719,0,0,0-.54,1.791,2.561,2.561,0,0,0,.547,1.733,1.837,1.837,0,0,0,1.463.632,1.743,1.743,0,0,0,1.439-.622,2.754,2.754,0,0,0,.5-1.771,2.8,2.8,0,0,0-.5-1.784A1.734,1.734,0,0,0,26.906-5.9Zm9.242.41a1.315,1.315,0,0,0-.827-.226,1.416,1.416,0,0,0-1.176.636,2.843,2.843,0,0,0-.472,1.729V0H32.088V-7h1.586v1.442H33.7a2.439,2.439,0,0,1,.714-1.152,1.612,1.612,0,0,1,1.077-.414,1.337,1.337,0,0,1,.656.13ZM41.364-.075a2.748,2.748,0,0,1-1.224.232Q38.1.157,38.1-1.8V-5.756H36.935V-7H38.1V-8.62l1.586-.451V-7h1.675v1.244H39.689v3.5a1.379,1.379,0,0,0,.226.889.936.936,0,0,0,.752.267,1.09,1.09,0,0,0,.7-.232Z" transform="translate(625 53)" fill="#2777d3"/>
    <g id="Chevron_down" data-name="Chevron down" transform="translate(685 48)">
      <g id="Group_265056" data-name="Group 265056" transform="translate(-8 -8)">
        <path id="Path_101501" data-name="Path 101501" d="M11.974,5.284l1.275,1.275a.289.289,0,0,1,0,.407l-5.06,5.083a.289.289,0,0,1-.407,0L2.751,6.966a.289.289,0,0,1,0-.407L4.026,5.284a.289.289,0,0,1,.407,0l3.553,3.6,3.581-3.6A.289.289,0,0,1,11.974,5.284Z" fill="#2777d3"/>
        <rect id="Rectangle_10239" data-name="Rectangle 10239" width="16" height="16" fill="none"/>
      </g>
    </g>
    <path id="Rectangle_3990-2" data-name="Rectangle 3990" d="M-.5-.5h159v37H-.5Zm158,1H.5v35h157Z" transform="translate(452 30)" fill="#cbcbd2"/>
    <path id="Path_101520" data-name="Path 101520" d="M8.859-.67A7.014,7.014,0,0,1,5.448.164,4.748,4.748,0,0,1,1.928-1.189,4.856,4.856,0,0,1,.581-4.771,5.033,5.033,0,0,1,2.054-8.507,5.1,5.1,0,0,1,5.8-9.967a6.97,6.97,0,0,1,2.748.479v1.675a4.73,4.73,0,0,0-2.687-.752A3.421,3.421,0,0,0,3.292-7.533a3.677,3.677,0,0,0-1,2.673A3.852,3.852,0,0,0,3.151-2.2a2.972,2.972,0,0,0,2.338.967,3.7,3.7,0,0,0,1.75-.39V-3.958H5.175V-5.325H8.859Zm7.861-2.4H11.949a2.017,2.017,0,0,0,.6,1.5,2.225,2.225,0,0,0,1.569.526,3.459,3.459,0,0,0,2.058-.67V-.437a4.7,4.7,0,0,1-2.529.6A3.131,3.131,0,0,1,11.221-.79a3.814,3.814,0,0,1-.878-2.683,3.73,3.73,0,0,1,.967-2.663,3.164,3.164,0,0,1,2.4-1.029,2.759,2.759,0,0,1,2.222.923,3.832,3.832,0,0,1,.786,2.563ZM15.189-4.19a2.044,2.044,0,0,0-.4-1.33A1.348,1.348,0,0,0,13.692-6a1.539,1.539,0,0,0-1.159.5,2.28,2.28,0,0,0-.584,1.306ZM24.466,0H22.88V-3.944q0-1.962-1.388-1.962a1.515,1.515,0,0,0-1.2.543,2.016,2.016,0,0,0-.472,1.371V0H18.231V-7h1.593v1.162h.027a2.5,2.5,0,0,1,2.27-1.326,2.114,2.114,0,0,1,1.743.742,3.33,3.33,0,0,1,.6,2.143Zm7.861-3.069H27.556a2.017,2.017,0,0,0,.6,1.5,2.225,2.225,0,0,0,1.569.526,3.459,3.459,0,0,0,2.058-.67V-.437a4.7,4.7,0,0,1-2.529.6A3.131,3.131,0,0,1,26.828-.79a3.814,3.814,0,0,1-.878-2.683,3.73,3.73,0,0,1,.967-2.663,3.164,3.164,0,0,1,2.4-1.029,2.759,2.759,0,0,1,2.222.923,3.832,3.832,0,0,1,.786,2.563ZM30.8-4.19a2.044,2.044,0,0,0-.4-1.33A1.348,1.348,0,0,0,29.3-6a1.539,1.539,0,0,0-1.159.5,2.28,2.28,0,0,0-.584,1.306Zm7.1-1.3a1.315,1.315,0,0,0-.827-.226,1.416,1.416,0,0,0-1.176.636,2.843,2.843,0,0,0-.472,1.729V0H33.838V-7h1.586v1.442h.027a2.439,2.439,0,0,1,.714-1.152,1.612,1.612,0,0,1,1.077-.414,1.337,1.337,0,0,1,.656.13ZM44.393,0H42.854V-1.094h-.027A2.316,2.316,0,0,1,40.7.164,2.239,2.239,0,0,1,39.084-.4,1.961,1.961,0,0,1,38.5-1.88q0-1.982,2.283-2.311l2.078-.294q0-1.5-1.422-1.5a3.378,3.378,0,0,0-2.256.861V-6.508a4.919,4.919,0,0,1,2.557-.656,2.326,2.326,0,0,1,2.652,2.611ZM42.861-3.438l-1.47.205a2.33,2.33,0,0,0-1.029.332.969.969,0,0,0-.345.851.932.932,0,0,0,.318.728,1.231,1.231,0,0,0,.851.284,1.57,1.57,0,0,0,1.2-.509,1.806,1.806,0,0,0,.475-1.282ZM50.019-.075a2.748,2.748,0,0,1-1.224.232q-2.037,0-2.037-1.955V-5.756H45.589V-7h1.169V-8.62l1.586-.451V-7h1.675v1.244H48.344v3.5a1.379,1.379,0,0,0,.226.889.936.936,0,0,0,.752.267,1.09,1.09,0,0,0,.7-.232ZM57.23-3.069H52.459a2.017,2.017,0,0,0,.6,1.5,2.225,2.225,0,0,0,1.569.526,3.459,3.459,0,0,0,2.058-.67V-.437a4.7,4.7,0,0,1-2.529.6A3.131,3.131,0,0,1,51.731-.79a3.814,3.814,0,0,1-.878-2.683,3.73,3.73,0,0,1,.967-2.663,3.164,3.164,0,0,1,2.4-1.029,2.759,2.759,0,0,1,2.222.923,3.832,3.832,0,0,1,.786,2.563ZM55.7-4.19a2.044,2.044,0,0,0-.4-1.33A1.348,1.348,0,0,0,54.2-6a1.539,1.539,0,0,0-1.159.5,2.28,2.28,0,0,0-.584,1.306ZM67.963,0H66.425V-1.094H66.4A2.316,2.316,0,0,1,64.271.164,2.239,2.239,0,0,1,62.655-.4,1.961,1.961,0,0,1,62.07-1.88q0-1.982,2.283-2.311l2.078-.294q0-1.5-1.422-1.5a3.378,3.378,0,0,0-2.256.861V-6.508a4.919,4.919,0,0,1,2.557-.656,2.326,2.326,0,0,1,2.652,2.611ZM66.432-3.438l-1.47.205a2.33,2.33,0,0,0-1.029.332.969.969,0,0,0-.345.851.932.932,0,0,0,.318.728,1.231,1.231,0,0,0,.851.284,1.57,1.57,0,0,0,1.2-.509,1.806,1.806,0,0,0,.475-1.282Zm8.928,2.406h-.027V3.22H73.746V-7h1.586v1.23h.027a2.6,2.6,0,0,1,2.379-1.395,2.506,2.506,0,0,1,2.078.937,3.928,3.928,0,0,1,.745,2.516,4.361,4.361,0,0,1-.841,2.8,2.781,2.781,0,0,1-2.3,1.053A2.294,2.294,0,0,1,75.359-1.032Zm-.041-2.762v.868a1.852,1.852,0,0,0,.489,1.3,1.61,1.61,0,0,0,1.241.533,1.621,1.621,0,0,0,1.384-.687,3.2,3.2,0,0,0,.5-1.917,2.52,2.52,0,0,0-.468-1.617A1.539,1.539,0,0,0,77.2-5.9a1.709,1.709,0,0,0-1.364.6A2.228,2.228,0,0,0,75.318-3.794Zm10.924-1.7a1.315,1.315,0,0,0-.827-.226,1.416,1.416,0,0,0-1.176.636,2.843,2.843,0,0,0-.472,1.729V0H82.182V-7h1.586v1.442h.027a2.438,2.438,0,0,1,.714-1.152,1.612,1.612,0,0,1,1.077-.414,1.337,1.337,0,0,1,.656.13Zm4.1,5.653a3.47,3.47,0,0,1-2.587-.981,3.544,3.544,0,0,1-.967-2.6A3.687,3.687,0,0,1,87.8-6.173a3.708,3.708,0,0,1,2.717-.991,3.358,3.358,0,0,1,2.557.964,3.723,3.723,0,0,1,.916,2.673A3.669,3.669,0,0,1,93-.844,3.548,3.548,0,0,1,90.344.164ZM90.419-5.9a1.81,1.81,0,0,0-1.47.649,2.719,2.719,0,0,0-.54,1.791,2.561,2.561,0,0,0,.547,1.733,1.837,1.837,0,0,0,1.463.632,1.743,1.743,0,0,0,1.439-.622,2.754,2.754,0,0,0,.5-1.771,2.8,2.8,0,0,0-.5-1.784A1.734,1.734,0,0,0,90.419-5.9Zm6.795,4.867h-.027V3.22H95.6V-7h1.586v1.23h.027a2.6,2.6,0,0,1,2.379-1.395,2.506,2.506,0,0,1,2.078.937,3.928,3.928,0,0,1,.745,2.516,4.361,4.361,0,0,1-.841,2.8,2.781,2.781,0,0,1-2.3,1.053A2.294,2.294,0,0,1,97.214-1.032Zm-.041-2.762v.868a1.852,1.852,0,0,0,.489,1.3,1.61,1.61,0,0,0,1.241.533,1.621,1.621,0,0,0,1.384-.687,3.2,3.2,0,0,0,.5-1.917,2.52,2.52,0,0,0-.468-1.617A1.539,1.539,0,0,0,99.053-5.9a1.709,1.709,0,0,0-1.364.6A2.228,2.228,0,0,0,97.173-3.794ZM107.14.164a3.47,3.47,0,0,1-2.587-.981,3.544,3.544,0,0,1-.967-2.6,3.687,3.687,0,0,1,1.008-2.755,3.708,3.708,0,0,1,2.717-.991,3.358,3.358,0,0,1,2.557.964,3.723,3.723,0,0,1,.916,2.673A3.669,3.669,0,0,1,109.8-.844,3.548,3.548,0,0,1,107.14.164Zm.075-6.063a1.81,1.81,0,0,0-1.47.649,2.719,2.719,0,0,0-.54,1.791,2.561,2.561,0,0,0,.547,1.733,1.837,1.837,0,0,0,1.463.632,1.743,1.743,0,0,0,1.439-.622,2.754,2.754,0,0,0,.5-1.771,2.8,2.8,0,0,0-.5-1.784A1.734,1.734,0,0,0,107.215-5.9Zm4.744,5.681v-1.47a3.164,3.164,0,0,0,1.962.677q1.436,0,1.436-.848a.668.668,0,0,0-.123-.407,1.175,1.175,0,0,0-.332-.3,2.607,2.607,0,0,0-.492-.232q-.284-.1-.632-.232A6.694,6.694,0,0,1,113-3.391a2.344,2.344,0,0,1-.574-.434,1.639,1.639,0,0,1-.345-.55,2.026,2.026,0,0,1-.116-.718,1.659,1.659,0,0,1,.239-.892,2.079,2.079,0,0,1,.643-.649,3.081,3.081,0,0,1,.916-.4,4.194,4.194,0,0,1,1.06-.133,4.817,4.817,0,0,1,1.736.294v1.388a2.927,2.927,0,0,0-1.7-.506,2.214,2.214,0,0,0-.543.062,1.4,1.4,0,0,0-.414.171.841.841,0,0,0-.267.263.628.628,0,0,0-.1.338.723.723,0,0,0,.1.383.869.869,0,0,0,.284.277,2.451,2.451,0,0,0,.451.219q.263.1.6.215a8.839,8.839,0,0,1,.81.376,2.737,2.737,0,0,1,.612.434,1.7,1.7,0,0,1,.39.561,1.9,1.9,0,0,1,.137.755,1.727,1.727,0,0,1-.246.93,2.051,2.051,0,0,1-.656.656,3.072,3.072,0,0,1-.947.386,4.919,4.919,0,0,1-1.131.126A4.767,4.767,0,0,1,111.959-.219ZM123.806,0h-1.538V-1.094h-.027A2.316,2.316,0,0,1,120.114.164,2.239,2.239,0,0,1,118.5-.4a1.961,1.961,0,0,1-.584-1.483q0-1.982,2.283-2.311l2.078-.294q0-1.5-1.422-1.5a3.378,3.378,0,0,0-2.256.861V-6.508a4.919,4.919,0,0,1,2.557-.656,2.326,2.326,0,0,1,2.652,2.611Zm-1.531-3.438-1.47.205a2.33,2.33,0,0,0-1.029.332.969.969,0,0,0-.345.851.932.932,0,0,0,.318.728,1.231,1.231,0,0,0,.851.284,1.57,1.57,0,0,0,1.2-.509,1.806,1.806,0,0,0,.475-1.282ZM127.333,0H125.74V-10.363h1.593Z" transform="translate(467 53)" fill="#2777d3"/>
    <path id="Rectangle_3990-3" data-name="Rectangle 3990" d="M18-.5H160.5v37H18A18.5,18.5,0,0,1,10.8.954,18.385,18.385,0,0,1,18-.5ZM159.5.5H18a17.5,17.5,0,0,0,0,35H159.5Z" transform="translate(292 30)" fill="#cbcbd2"/>
    <path id="Path_101521" data-name="Path 101521" d="M11.737,0H10.124V-6.344q0-.779.1-1.907h-.027a6.586,6.586,0,0,1-.267.923L7,0H5.879L2.946-7.273a6.851,6.851,0,0,1-.26-.978H2.659q.055.588.055,1.921V0H1.21V-9.8H3.5L6.077-3.274A9.655,9.655,0,0,1,6.46-2.153h.034q.253-.772.41-1.148L9.529-9.8h2.208Zm5.339.164a3.47,3.47,0,0,1-2.587-.981,3.544,3.544,0,0,1-.967-2.6A3.687,3.687,0,0,1,14.53-6.173a3.708,3.708,0,0,1,2.717-.991A3.358,3.358,0,0,1,19.8-6.2a3.723,3.723,0,0,1,.916,2.673,3.669,3.669,0,0,1-.988,2.683A3.548,3.548,0,0,1,17.076.164ZM17.151-5.9a1.81,1.81,0,0,0-1.47.649,2.719,2.719,0,0,0-.54,1.791,2.561,2.561,0,0,0,.547,1.733,1.837,1.837,0,0,0,1.463.632,1.743,1.743,0,0,0,1.439-.622,2.754,2.754,0,0,0,.5-1.771,2.8,2.8,0,0,0-.5-1.784A1.734,1.734,0,0,0,17.151-5.9ZM28.7,0H27.111V-1.189h-.027A2.53,2.53,0,0,1,24.726.164a2.546,2.546,0,0,1-2.068-.94,3.9,3.9,0,0,1-.776-2.56,4.251,4.251,0,0,1,.858-2.782,2.808,2.808,0,0,1,2.287-1.046,2.19,2.19,0,0,1,2.058,1.135h.027v-4.334H28.7ZM27.132-3.2v-.916a1.785,1.785,0,0,0-.485-1.265,1.619,1.619,0,0,0-1.237-.52,1.666,1.666,0,0,0-1.4.663A2.955,2.955,0,0,0,23.5-3.4a2.648,2.648,0,0,0,.489,1.685,1.59,1.59,0,0,0,1.316.619,1.646,1.646,0,0,0,1.319-.6A2.253,2.253,0,0,0,27.132-3.2Zm9.563.13H31.924a2.017,2.017,0,0,0,.6,1.5,2.225,2.225,0,0,0,1.569.526,3.459,3.459,0,0,0,2.058-.67V-.437a4.7,4.7,0,0,1-2.529.6A3.131,3.131,0,0,1,31.2-.79a3.814,3.814,0,0,1-.878-2.683,3.73,3.73,0,0,1,.967-2.663,3.164,3.164,0,0,1,2.4-1.029,2.759,2.759,0,0,1,2.222.923A3.832,3.832,0,0,1,36.7-3.678ZM35.164-4.19a2.044,2.044,0,0,0-.4-1.33A1.348,1.348,0,0,0,33.667-6a1.539,1.539,0,0,0-1.159.5,2.28,2.28,0,0,0-.584,1.306ZM39.8,0H38.206V-10.363H39.8ZM50.723-.321a3.911,3.911,0,0,1-1.989.485A3.369,3.369,0,0,1,46.218-.81a3.451,3.451,0,0,1-.957-2.526A3.8,3.8,0,0,1,46.29-6.115a3.678,3.678,0,0,1,2.751-1.049,4.016,4.016,0,0,1,1.688.335v1.477A2.557,2.557,0,0,0,49.171-5.9a2.166,2.166,0,0,0-1.647.68,2.487,2.487,0,0,0-.643,1.781,2.371,2.371,0,0,0,.6,1.716,2.148,2.148,0,0,0,1.624.629A2.537,2.537,0,0,0,50.723-1.7ZM55.4.164a3.47,3.47,0,0,1-2.587-.981,3.544,3.544,0,0,1-.967-2.6,3.687,3.687,0,0,1,1.008-2.755,3.708,3.708,0,0,1,2.717-.991,3.358,3.358,0,0,1,2.557.964,3.723,3.723,0,0,1,.916,2.673,3.669,3.669,0,0,1-.988,2.683A3.548,3.548,0,0,1,55.4.164ZM55.474-5.9A1.81,1.81,0,0,0,54-5.25a2.719,2.719,0,0,0-.54,1.791,2.561,2.561,0,0,0,.547,1.733,1.837,1.837,0,0,0,1.463.632,1.743,1.743,0,0,0,1.439-.622,2.754,2.754,0,0,0,.5-1.771,2.8,2.8,0,0,0-.5-1.784A1.734,1.734,0,0,0,55.474-5.9ZM66.89,0H65.3V-3.944q0-1.962-1.388-1.962a1.515,1.515,0,0,0-1.2.543,2.016,2.016,0,0,0-.472,1.371V0H60.655V-7h1.593v1.162h.027a2.5,2.5,0,0,1,2.27-1.326,2.114,2.114,0,0,1,1.743.742,3.331,3.331,0,0,1,.6,2.143Zm5.626-.075a2.748,2.748,0,0,1-1.224.232q-2.037,0-2.037-1.955V-5.756H68.086V-7h1.169V-8.62l1.586-.451V-7h1.675v1.244H70.841v3.5a1.379,1.379,0,0,0,.226.889.936.936,0,0,0,.752.267,1.09,1.09,0,0,0,.7-.232Zm5.428-5.414a1.315,1.315,0,0,0-.827-.226,1.416,1.416,0,0,0-1.176.636,2.843,2.843,0,0,0-.472,1.729V0H73.883V-7h1.586v1.442H75.5a2.438,2.438,0,0,1,.714-1.152,1.612,1.612,0,0,1,1.077-.414,1.337,1.337,0,0,1,.656.13Zm1.921-2.98a.953.953,0,0,1-.667-.253.832.832,0,0,1-.277-.643.854.854,0,0,1,.277-.649.939.939,0,0,1,.667-.26.969.969,0,0,1,.684.26.849.849,0,0,1,.28.649.837.837,0,0,1-.28.632A.962.962,0,0,1,79.864-8.47ZM80.65,0H79.064V-7H80.65Zm3.685-1.012h-.027V0H82.722V-10.363h1.586V-5.77h.027a2.6,2.6,0,0,1,2.379-1.395,2.5,2.5,0,0,1,2.075.94,3.93,3.93,0,0,1,.749,2.519A4.387,4.387,0,0,1,88.7-.892,2.777,2.777,0,0,1,86.4.164,2.255,2.255,0,0,1,84.335-1.012Zm-.041-2.782v.868a1.852,1.852,0,0,0,.489,1.3,1.61,1.61,0,0,0,1.241.533,1.621,1.621,0,0,0,1.384-.687,3.2,3.2,0,0,0,.5-1.917,2.52,2.52,0,0,0-.468-1.617A1.539,1.539,0,0,0,86.174-5.9a1.709,1.709,0,0,0-1.364.6A2.228,2.228,0,0,0,84.294-3.794ZM97.262,0H95.676V-1.107h-.027A2.282,2.282,0,0,1,93.5.164q-2.481,0-2.481-2.98V-7h1.586v4.02q0,1.887,1.456,1.887a1.471,1.471,0,0,0,1.159-.52,1.991,1.991,0,0,0,.455-1.36V-7h1.586Zm5.756-.075a2.748,2.748,0,0,1-1.224.232q-2.037,0-2.037-1.955V-5.756H98.588V-7h1.169V-8.62l1.586-.451V-7h1.675v1.244h-1.675v3.5a1.379,1.379,0,0,0,.226.889.936.936,0,0,0,.752.267,1.09,1.09,0,0,0,.7-.232Zm2.167-8.395a.953.953,0,0,1-.667-.253.832.832,0,0,1-.277-.643.854.854,0,0,1,.277-.649.939.939,0,0,1,.667-.26.969.969,0,0,1,.684.26.849.849,0,0,1,.28.649.837.837,0,0,1-.28.632A.962.962,0,0,1,105.185-8.47ZM105.971,0h-1.586V-7h1.586Zm5.175.164a3.47,3.47,0,0,1-2.587-.981,3.544,3.544,0,0,1-.967-2.6A3.687,3.687,0,0,1,108.6-6.173a3.708,3.708,0,0,1,2.717-.991,3.358,3.358,0,0,1,2.557.964,3.723,3.723,0,0,1,.916,2.673A3.669,3.669,0,0,1,113.8-.844,3.548,3.548,0,0,1,111.146.164Zm.075-6.063a1.81,1.81,0,0,0-1.47.649,2.719,2.719,0,0,0-.54,1.791,2.561,2.561,0,0,0,.547,1.733,1.837,1.837,0,0,0,1.463.632,1.743,1.743,0,0,0,1.439-.622,2.754,2.754,0,0,0,.5-1.771,2.8,2.8,0,0,0-.5-1.784A1.734,1.734,0,0,0,111.221-5.9ZM122.637,0h-1.586V-3.944q0-1.962-1.388-1.962a1.515,1.515,0,0,0-1.2.543A2.016,2.016,0,0,0,118-3.992V0H116.4V-7H118v1.162h.027a2.5,2.5,0,0,1,2.27-1.326,2.114,2.114,0,0,1,1.743.742,3.331,3.331,0,0,1,.6,2.143Zm1.5-.219v-1.47a3.164,3.164,0,0,0,1.962.677q1.436,0,1.436-.848a.668.668,0,0,0-.123-.407,1.175,1.175,0,0,0-.332-.3,2.607,2.607,0,0,0-.492-.232q-.284-.1-.632-.232a6.694,6.694,0,0,1-.776-.362,2.344,2.344,0,0,1-.574-.434,1.639,1.639,0,0,1-.345-.55,2.026,2.026,0,0,1-.116-.718,1.659,1.659,0,0,1,.239-.892,2.079,2.079,0,0,1,.643-.649,3.081,3.081,0,0,1,.916-.4A4.194,4.194,0,0,1,127-7.164a4.817,4.817,0,0,1,1.736.294v1.388a2.927,2.927,0,0,0-1.7-.506,2.214,2.214,0,0,0-.543.062,1.4,1.4,0,0,0-.414.171.841.841,0,0,0-.267.263.628.628,0,0,0-.1.338.723.723,0,0,0,.1.383.869.869,0,0,0,.284.277,2.451,2.451,0,0,0,.451.219q.263.1.6.215a8.839,8.839,0,0,1,.81.376,2.738,2.738,0,0,1,.612.434,1.7,1.7,0,0,1,.39.561,1.9,1.9,0,0,1,.137.755,1.727,1.727,0,0,1-.246.93,2.051,2.051,0,0,1-.656.656,3.072,3.072,0,0,1-.947.386,4.919,4.919,0,0,1-1.131.126A4.767,4.767,0,0,1,124.134-.219Z" transform="translate(307 53)" fill="#2777d3"/>
  </g>
</svg>
