<svg xmlns="http://www.w3.org/2000/svg" xmlns:xlink="http://www.w3.org/1999/xlink" width="1000" height="96" viewBox="0 0 1000 96">
  <defs>
    <clipPath id="clip-button-group_icons">
      <rect width="1000" height="96"/>
    </clipPath>
  </defs>
  <g id="button-group_icons" clip-path="url(#clip-button-group_icons)">
    <rect width="1000" height="96" fill="#f4f4f6"/>
    <path id="Rectangle_3990" data-name="Rectangle 3990" d="M-.5-.5H82a18.5,18.5,0,0,1,7.2,35.546A18.385,18.385,0,0,1,82,36.5H-.5ZM82,35.5a17.5,17.5,0,0,0,0-35H.5v35Z" transform="translate(531 30)" fill="#cbcbd2"/>
    <path id="Path_101518" data-name="Path 101518" d="M2.878,0H1.2V-9.8H2.878Zm12.7,0H13.993V-3.814a3.091,3.091,0,0,0-.311-1.593A1.144,1.144,0,0,0,12.633-5.9a1.265,1.265,0,0,0-1.056.622,2.538,2.538,0,0,0-.434,1.49V0H9.55V-3.944Q9.55-5.9,8.169-5.9a1.246,1.246,0,0,0-1.056.588A2.592,2.592,0,0,0,6.7-3.787V0H5.113V-7H6.7v1.107h.027A2.425,2.425,0,0,1,8.935-7.164a2.082,2.082,0,0,1,1.268.4,1.992,1.992,0,0,1,.742,1.049,2.5,2.5,0,0,1,2.324-1.449q2.311,0,2.311,2.851Zm3.548-1.032H19.1V3.22H17.514V-7H19.1v1.23h.027a2.6,2.6,0,0,1,2.379-1.395,2.506,2.506,0,0,1,2.078.937,3.928,3.928,0,0,1,.745,2.516,4.361,4.361,0,0,1-.841,2.8,2.781,2.781,0,0,1-2.3,1.053A2.294,2.294,0,0,1,19.127-1.032Zm-.041-2.762v.868a1.852,1.852,0,0,0,.489,1.3,1.61,1.61,0,0,0,1.241.533A1.621,1.621,0,0,0,22.2-1.781,3.2,3.2,0,0,0,22.7-3.7a2.52,2.52,0,0,0-.468-1.617A1.539,1.539,0,0,0,20.966-5.9a1.709,1.709,0,0,0-1.364.6A2.228,2.228,0,0,0,19.086-3.794ZM29.053.164a3.47,3.47,0,0,1-2.587-.981,3.544,3.544,0,0,1-.967-2.6,3.687,3.687,0,0,1,1.008-2.755,3.708,3.708,0,0,1,2.717-.991A3.358,3.358,0,0,1,31.78-6.2,3.723,3.723,0,0,1,32.7-3.527a3.669,3.669,0,0,1-.988,2.683A3.548,3.548,0,0,1,29.053.164ZM29.128-5.9a1.81,1.81,0,0,0-1.47.649,2.719,2.719,0,0,0-.54,1.791,2.561,2.561,0,0,0,.547,1.733,1.837,1.837,0,0,0,1.463.632,1.743,1.743,0,0,0,1.439-.622,2.754,2.754,0,0,0,.5-1.771,2.8,2.8,0,0,0-.5-1.784A1.734,1.734,0,0,0,29.128-5.9Zm9.242.41a1.315,1.315,0,0,0-.827-.226,1.416,1.416,0,0,0-1.176.636A2.843,2.843,0,0,0,35.9-3.35V0H34.31V-7H35.9v1.442h.027a2.439,2.439,0,0,1,.714-1.152,1.612,1.612,0,0,1,1.077-.414,1.337,1.337,0,0,1,.656.13ZM43.586-.075a2.748,2.748,0,0,1-1.224.232q-2.037,0-2.037-1.955V-5.756H39.156V-7h1.169V-8.62l1.586-.451V-7h1.675v1.244H41.911v3.5a1.379,1.379,0,0,0,.226.889.936.936,0,0,0,.752.267,1.09,1.09,0,0,0,.7-.232Z" transform="translate(572 53)" fill="#2777d3"/>
    <g id="Add" transform="translate(554 48)">
      <g id="Edit" transform="translate(-3)">
        <g id="Upload" transform="translate(7 4)">
          <g id="Group_13494" data-name="Group 13494" transform="translate(-12 -12)">
            <g id="Group_13493" data-name="Group 13493" transform="translate(0.92)">
              <path id="Path_9311" data-name="Path 9311" d="M1.6,4.8h.854a.2.2,0,0,0,.2-.2V1.315H14.085V4.6a.2.2,0,0,0,.2.2h.854a.2.2,0,0,0,.2-.2V.657A.657.657,0,0,0,14.677,0H2.057A.657.657,0,0,0,1.4.657V4.6A.2.2,0,0,0,1.6,4.8Z" transform="translate(-1.4)" fill="#2777d3"/>
              <path id="Path_9312" data-name="Path 9312" d="M10.182,6.054a.2.2,0,0,0-.329,0L6.37,9.735a.263.263,0,0,0,0,.329l.92.986a.2.2,0,0,0,.329,0L9.2,9.406v8.15a.263.263,0,0,0,.263.263h1.315a.263.263,0,0,0,.263-.263V9.406l1.577,1.643a.2.2,0,0,0,.329,0l.92-.986a.263.263,0,0,0,0-.329Z" transform="translate(-3.084 -2.045)" fill="#2777d3"/>
            </g>
            <rect id="Rectangle_7405" data-name="Rectangle 7405" width="16" height="16" fill="none"/>
          </g>
        </g>
      </g>
    </g>
    <path id="Rectangle_3990-2" data-name="Rectangle 3990" d="M-.5-.5h81v37H-.5Zm80,1H.5v35h79Z" transform="translate(451 30)" fill="#cbcbd2"/>
    <path id="Path_101517" data-name="Path 101517" d="M6.713,0H1.21V-9.8H6.494v1.381H2.837v2.775h3.37v1.374H2.837v2.9H6.713Zm7.93,0H13.057V-1.189h-.027A2.53,2.53,0,0,1,10.671.164,2.546,2.546,0,0,1,8.6-.776a3.9,3.9,0,0,1-.776-2.56,4.251,4.251,0,0,1,.858-2.782,2.808,2.808,0,0,1,2.287-1.046,2.19,2.19,0,0,1,2.058,1.135h.027v-4.334h1.586ZM13.077-3.2v-.916a1.785,1.785,0,0,0-.485-1.265,1.619,1.619,0,0,0-1.237-.52,1.666,1.666,0,0,0-1.4.663A2.955,2.955,0,0,0,9.447-3.4a2.648,2.648,0,0,0,.489,1.685,1.59,1.59,0,0,0,1.316.619,1.646,1.646,0,0,0,1.319-.6A2.253,2.253,0,0,0,13.077-3.2ZM17.514-8.47a.953.953,0,0,1-.667-.253.832.832,0,0,1-.277-.643.854.854,0,0,1,.277-.649.939.939,0,0,1,.667-.26.969.969,0,0,1,.684.26.849.849,0,0,1,.28.649.837.837,0,0,1-.28.632A.962.962,0,0,1,17.514-8.47ZM18.3,0H16.714V-7H18.3Zm5.763-.075a2.748,2.748,0,0,1-1.224.232Q20.8.157,20.8-1.8V-5.756H19.633V-7H20.8V-8.62l1.586-.451V-7h1.675v1.244H22.388v3.5a1.379,1.379,0,0,0,.226.889.936.936,0,0,0,.752.267,1.09,1.09,0,0,0,.7-.232Z" transform="translate(492 53)" fill="#2777d3"/>
    <g id="Add-2" data-name="Add" transform="translate(474 48)">
      <g id="Edit-2" data-name="Edit" transform="translate(-3)">
        <g id="Edit-3" data-name="Edit" transform="translate(-5 -8)">
          <path id="Path_101131" data-name="Path 101131" d="M14.4,5.8c.7-.8,1.7-1.9.3-3.3s-2.6-2.7-4.5-.9L2.3,9.5a3.1,3.1,0,0,0-.8,1.7L.6,14.8a.5.5,0,0,0,.6.6l4.1-1a2.7,2.7,0,0,0,1.3-.7ZM12.8,2c1.1,1.2,2.4,1.7.9,3.1L10.9,2.3C11.4,1.9,11.9,1.1,12.8,2ZM1.9,13.5,2.3,12,4,13.7C3.4,13.8,1.8,14.6,1.9,13.5Zm3-.3L2.8,11.1a.5.5,0,0,1,0-.7L10.2,3h.1L13,5.7v.1L5.6,13.2A.5.5,0,0,1,4.9,13.2Zm-.4-1.8a.5.5,0,0,0,.7,0l5.6-5.6a.5.5,0,0,0-.7-.7L4.6,10.7a.5.5,0,0,0,0,.7Z" fill="#2777d3"/>
          <rect id="Rectangle_10235" data-name="Rectangle 10235" width="16" height="16" fill="none"/>
        </g>
      </g>
    </g>
    <path id="Rectangle_3990-3" data-name="Rectangle 3990" d="M18-.5H82.5v37H18A18.5,18.5,0,0,1,10.8.954,18.385,18.385,0,0,1,18-.5ZM81.5.5H18a17.5,17.5,0,0,0,0,35H81.5Z" transform="translate(369 30)" fill="#cbcbd2"/>
    <path id="Path_101516" data-name="Path 101516" d="M9.263,0H7.479L6.6-2.5H2.741L1.894,0H.116L3.787-9.8H5.619Zm-3.1-3.821-1.36-3.91a4.631,4.631,0,0,1-.13-.615H4.648a4,4,0,0,1-.137.615L3.165-3.821ZM16.8,0H15.21V-1.189h-.027A2.53,2.53,0,0,1,12.824.164a2.546,2.546,0,0,1-2.068-.94,3.9,3.9,0,0,1-.776-2.56,4.251,4.251,0,0,1,.858-2.782,2.808,2.808,0,0,1,2.287-1.046,2.19,2.19,0,0,1,2.058,1.135h.027v-4.334H16.8ZM15.23-3.2v-.916a1.785,1.785,0,0,0-.485-1.265,1.619,1.619,0,0,0-1.237-.52,1.666,1.666,0,0,0-1.4.663A2.955,2.955,0,0,0,11.6-3.4a2.648,2.648,0,0,0,.489,1.685,1.59,1.59,0,0,0,1.316.619,1.646,1.646,0,0,0,1.319-.6A2.253,2.253,0,0,0,15.23-3.2Zm10,3.2H23.646V-1.189h-.027A2.53,2.53,0,0,1,21.26.164a2.546,2.546,0,0,1-2.068-.94,3.9,3.9,0,0,1-.776-2.56,4.251,4.251,0,0,1,.858-2.782,2.808,2.808,0,0,1,2.287-1.046,2.19,2.19,0,0,1,2.058,1.135h.027v-4.334h1.586ZM23.666-3.2v-.916a1.785,1.785,0,0,0-.485-1.265,1.619,1.619,0,0,0-1.237-.52,1.666,1.666,0,0,0-1.4.663A2.955,2.955,0,0,0,20.036-3.4a2.648,2.648,0,0,0,.489,1.685,1.59,1.59,0,0,0,1.316.619,1.646,1.646,0,0,0,1.319-.6A2.253,2.253,0,0,0,23.666-3.2Z" transform="translate(410 53)" fill="#2777d3"/>
    <g id="Edit-4" data-name="Edit" transform="translate(389 48)">
      <g id="Add-3" data-name="Add" transform="translate(3)">
        <g id="Add-4" data-name="Add" transform="translate(-8 -8)">
          <path id="Path_101133" data-name="Path 101133" d="M14,7.5v1a.5.5,0,0,1-.5.5H9v4.5a.5.5,0,0,1-.5.5h-1a.5.5,0,0,1-.5-.5V9H2.5A.5.5,0,0,1,2,8.5v-1A.5.5,0,0,1,2.5,7H7V2.5A.5.5,0,0,1,7.5,2h1a.5.5,0,0,1,.5.5V7h4.5A.5.5,0,0,1,14,7.5Z" fill="#2777d3"/>
          <rect id="Rectangle_10238" data-name="Rectangle 10238" width="16" height="16" fill="none"/>
        </g>
      </g>
    </g>
  </g>
</svg>
