<svg xmlns="http://www.w3.org/2000/svg" xmlns:xlink="http://www.w3.org/1999/xlink" width="1000" height="474" viewBox="0 0 1000 474">
  <defs>
    <filter id="Card" x="85.5" y="26.5" width="409" height="423" filterUnits="userSpaceOnUse">
      <feOffset dy="1" input="SourceAlpha"/>
      <feGaussianBlur stdDeviation="1.5" result="blur"/>
      <feFlood flood-opacity="0.161"/>
      <feComposite operator="in" in2="blur"/>
      <feComposite in="SourceGraphic"/>
    </filter>
    <filter id="Card-2" x="505.5" y="26.5" width="409" height="423" filterUnits="userSpaceOnUse">
      <feOffset dy="1" input="SourceAlpha"/>
      <feGaussianBlur stdDeviation="1.5" result="blur-2"/>
      <feFlood flood-opacity="0.161"/>
      <feComposite operator="in" in2="blur-2"/>
      <feComposite in="SourceGraphic"/>
    </filter>
    <clipPath id="clip-card--carousel">
      <rect width="1000" height="474"/>
    </clipPath>
  </defs>
  <g id="card--carousel" clip-path="url(#clip-card--carousel)">
    <rect width="1000" height="474" fill="#f4f4f6"/>
    <g transform="matrix(1, 0, 0, 1, 0, 0)" filter="url(#Card)">
      <path id="Card-3" data-name="Card" d="M2,0H398a2,2,0,0,1,2,2V412a2,2,0,0,1-2,2H2a2,2,0,0,1-2-2V2A2,2,0,0,1,2,0Z" transform="translate(90 30)" fill="#fff"/>
    </g>
    <g transform="matrix(1, 0, 0, 1, 0, 0)" filter="url(#Card-2)">
      <path id="Card-4" data-name="Card" d="M2,0H398a2,2,0,0,1,2,2V412a2,2,0,0,1-2,2H2a2,2,0,0,1-2-2V2A2,2,0,0,1,2,0Z" transform="translate(510 30)" fill="#fff"/>
    </g>
    <path id="Path_10413" data-name="Path 10413" d="M5,0A5,5,0,1,1,0,5,5,5,0,0,1,5,0Z" transform="translate(263 404)" fill="#2777d3"/>
    <path id="Path_10414" data-name="Path 10414" d="M5,0A5,5,0,1,1,0,5,5,5,0,0,1,5,0Z" transform="translate(278 404)" fill="#a5c7ee"/>
    <path id="Path_10415" data-name="Path 10415" d="M5,0A5,5,0,1,1,0,5,5,5,0,0,1,5,0Z" transform="translate(293 404)" fill="#a5c7ee"/>
    <path id="Path_10416" data-name="Path 10416" d="M5,0A5,5,0,1,1,0,5,5,5,0,0,1,5,0Z" transform="translate(308 404)" fill="#a5c7ee"/>
    <g id="Group_13305" data-name="Group 13305" transform="translate(3292 5563) rotate(180)">
      <circle id="Ellipse_2023" data-name="Ellipse 2023" cx="18" cy="18" r="18" transform="translate(2584 5139)" fill="none" opacity="0.36"/>
      <g id="Chevron_right" data-name="Chevron right" transform="translate(2602 5157)">
        <g id="Chevron_right-2" data-name="Chevron right" transform="translate(-8 -8)">
          <rect id="Rectangle_8129" data-name="Rectangle 8129" width="16" height="16" fill="none"/>
          <path id="Path_8858" data-name="Path 8858" d="M5.3,4,6.6,2.8a.3.3,0,0,1,.4,0l5,5a.3.3,0,0,1,0,.4l-5,5a.3.3,0,0,1-.4,0L5.3,12a.3.3,0,0,1,0-.4L8.9,8,5.3,4.4A.3.3,0,0,1,5.3,4Z" fill="#2777d3"/>
        </g>
      </g>
    </g>
    <g id="Group_13306" data-name="Group 13306" transform="translate(-1871 -4751)">
      <path id="Path_8860" data-name="Path 8860" d="M18,0A18,18,0,1,1,0,18,18,18,0,0,1,18,0Z" transform="translate(2584 5139)" fill="none" opacity="0.36"/>
      <g id="Chevron_right-3" data-name="Chevron right" transform="translate(2602 5157)">
        <g id="Chevron_right-4" data-name="Chevron right" transform="translate(-8 -8)">
          <rect id="Rectangle_8129-2" data-name="Rectangle 8129" width="16" height="16" fill="none"/>
          <path id="Path_8858-2" data-name="Path 8858" d="M5.3,4,6.6,2.8a.3.3,0,0,1,.4,0l5,5a.3.3,0,0,1,0,.4l-5,5a.3.3,0,0,1-.4,0L5.3,12a.3.3,0,0,1,0-.4L8.9,8,5.3,4.4A.3.3,0,0,1,5.3,4Z" fill="#2777d3"/>
        </g>
      </g>
    </g>
    <path id="Path_101193" data-name="Path 101193" d="M11.494,21.414a8.49,8.49,0,0,1-3.936.82,6.435,6.435,0,0,1-4.883-1.924A7.01,7.01,0,0,1,.84,15.262a7.352,7.352,0,0,1,2.065-5.43,7.066,7.066,0,0,1,5.22-2.07,8.554,8.554,0,0,1,3.369.576v2.3A6.012,6.012,0,0,0,8.369,9.8a4.9,4.9,0,0,0-3.687,1.455,5.345,5.345,0,0,0-1.411,3.887A5.1,5.1,0,0,0,4.59,18.831,4.588,4.588,0,0,0,8.057,20.2a6.207,6.207,0,0,0,3.438-.937ZM21.572,22h-2.2V20.438h-.039a3.308,3.308,0,0,1-3.037,1.8,3.2,3.2,0,0,1-2.31-.8,2.8,2.8,0,0,1-.835-2.119q0-2.832,3.262-3.3l2.969-.42q0-2.139-2.031-2.139a4.825,4.825,0,0,0-3.223,1.23V12.7a7.028,7.028,0,0,1,3.652-.937q3.789,0,3.789,3.73Zm-2.187-4.912-2.1.293a3.328,3.328,0,0,0-1.47.474,1.384,1.384,0,0,0-.493,1.216,1.331,1.331,0,0,0,.454,1.04,1.758,1.758,0,0,0,1.216.405,2.243,2.243,0,0,0,1.714-.728,2.58,2.58,0,0,0,.679-1.831Zm10.752-2.93a1.878,1.878,0,0,0-1.182-.322,2.023,2.023,0,0,0-1.68.908,4.061,4.061,0,0,0-.674,2.471V22H24.336V12H26.6v2.061h.039a3.484,3.484,0,0,1,1.021-1.646,2.3,2.3,0,0,1,1.538-.591,1.909,1.909,0,0,1,.938.186ZM40.654,22H38.389V20.3H38.35a3.91,3.91,0,0,1-6.323.591,5.574,5.574,0,0,1-1.108-3.657,6.073,6.073,0,0,1,1.226-3.975,4.011,4.011,0,0,1,3.267-1.494,3.128,3.128,0,0,1,2.939,1.621h.039V7.2h2.266Zm-2.236-4.57V16.121a2.55,2.55,0,0,0-.693-1.807,2.313,2.313,0,0,0-1.768-.742,2.38,2.38,0,0,0-2,.947,4.221,4.221,0,0,0-.728,2.627,3.782,3.782,0,0,0,.7,2.407,2.271,2.271,0,0,0,1.88.884,2.351,2.351,0,0,0,1.885-.854A3.219,3.219,0,0,0,38.418,17.43ZM60.615,22H58.281V15.926H51.689V22H49.365V8h2.324v5.889h6.592V8h2.334Zm11.67-4.385H65.469a2.881,2.881,0,0,0,.854,2.139,3.179,3.179,0,0,0,2.241.752,4.942,4.942,0,0,0,2.939-.957v1.826a6.716,6.716,0,0,1-3.613.859,4.473,4.473,0,0,1-3.462-1.362,5.449,5.449,0,0,1-1.255-3.833,5.328,5.328,0,0,1,1.382-3.8,4.52,4.52,0,0,1,3.433-1.47,3.941,3.941,0,0,1,3.174,1.318,5.474,5.474,0,0,1,1.123,3.662Zm-2.187-1.6a2.919,2.919,0,0,0-.576-1.9,1.925,1.925,0,0,0-1.562-.679,2.2,2.2,0,0,0-1.655.713,3.257,3.257,0,0,0-.835,1.865ZM82.119,22h-2.2V20.438h-.039a3.308,3.308,0,0,1-3.037,1.8,3.2,3.2,0,0,1-2.31-.8,2.8,2.8,0,0,1-.835-2.119q0-2.832,3.262-3.3l2.969-.42q0-2.139-2.031-2.139a4.825,4.825,0,0,0-3.223,1.23V12.7a7.028,7.028,0,0,1,3.652-.937q3.789,0,3.789,3.73Zm-2.187-4.912-2.1.293a3.328,3.328,0,0,0-1.47.474,1.384,1.384,0,0,0-.493,1.216,1.331,1.331,0,0,0,.454,1.04,1.758,1.758,0,0,0,1.216.405,2.243,2.243,0,0,0,1.714-.728,2.58,2.58,0,0,0,.679-1.831ZM93.975,22H91.709V20.3H91.67a3.91,3.91,0,0,1-6.323.591,5.574,5.574,0,0,1-1.108-3.657,6.073,6.073,0,0,1,1.226-3.975,4.011,4.011,0,0,1,3.267-1.494,3.128,3.128,0,0,1,2.939,1.621h.039V7.2h2.266Zm-2.236-4.57V16.121a2.55,2.55,0,0,0-.693-1.807,2.313,2.313,0,0,0-1.768-.742,2.38,2.38,0,0,0-2,.947,4.221,4.221,0,0,0-.728,2.627,3.782,3.782,0,0,0,.7,2.407,2.271,2.271,0,0,0,1.88.884,2.351,2.351,0,0,0,1.885-.854A3.219,3.219,0,0,0,91.738,17.43ZM99.209,22H96.934V7.2h2.275ZM103.3,9.9a1.362,1.362,0,0,1-.952-.361,1.189,1.189,0,0,1-.4-.918,1.219,1.219,0,0,1,.4-.928,1.342,1.342,0,0,1,.952-.371,1.384,1.384,0,0,1,.977.371,1.212,1.212,0,0,1,.4.928,1.2,1.2,0,0,1-.4.9A1.374,1.374,0,0,1,103.3,9.9ZM104.424,22h-2.266V12h2.266Zm11.865,0h-2.266V16.365q0-2.8-1.982-2.8a2.164,2.164,0,0,0-1.709.776,2.88,2.88,0,0,0-.674,1.958V22h-2.275V12h2.275v1.66h.039a3.564,3.564,0,0,1,3.242-1.895,3.02,3.02,0,0,1,2.49,1.06,4.758,4.758,0,0,1,.859,3.062Zm11.23-4.385H120.7a2.881,2.881,0,0,0,.854,2.139,3.179,3.179,0,0,0,2.241.752,4.942,4.942,0,0,0,2.939-.957v1.826a6.716,6.716,0,0,1-3.613.859,4.473,4.473,0,0,1-3.462-1.362,5.449,5.449,0,0,1-1.255-3.833,5.328,5.328,0,0,1,1.382-3.8,4.52,4.52,0,0,1,3.433-1.47,3.941,3.941,0,0,1,3.174,1.318,5.474,5.474,0,0,1,1.123,3.662Zm-2.187-1.6a2.919,2.919,0,0,0-.576-1.9,1.925,1.925,0,0,0-1.562-.679,2.2,2.2,0,0,0-1.655.713,3.257,3.257,0,0,0-.835,1.865Z" transform="translate(109.16 52)" fill="#31313a"/>
    <path id="Path_101194" data-name="Path 101194" d="M11.494,21.414a8.49,8.49,0,0,1-3.936.82,6.435,6.435,0,0,1-4.883-1.924A7.01,7.01,0,0,1,.84,15.262a7.352,7.352,0,0,1,2.065-5.43,7.066,7.066,0,0,1,5.22-2.07,8.554,8.554,0,0,1,3.369.576v2.3A6.012,6.012,0,0,0,8.369,9.8a4.9,4.9,0,0,0-3.687,1.455,5.345,5.345,0,0,0-1.411,3.887A5.1,5.1,0,0,0,4.59,18.831,4.588,4.588,0,0,0,8.057,20.2a6.207,6.207,0,0,0,3.438-.937ZM21.572,22h-2.2V20.438h-.039a3.308,3.308,0,0,1-3.037,1.8,3.2,3.2,0,0,1-2.31-.8,2.8,2.8,0,0,1-.835-2.119q0-2.832,3.262-3.3l2.969-.42q0-2.139-2.031-2.139a4.825,4.825,0,0,0-3.223,1.23V12.7a7.028,7.028,0,0,1,3.652-.937q3.789,0,3.789,3.73Zm-2.187-4.912-2.1.293a3.328,3.328,0,0,0-1.47.474,1.384,1.384,0,0,0-.493,1.216,1.331,1.331,0,0,0,.454,1.04,1.758,1.758,0,0,0,1.216.405,2.243,2.243,0,0,0,1.714-.728,2.58,2.58,0,0,0,.679-1.831Zm10.752-2.93a1.878,1.878,0,0,0-1.182-.322,2.023,2.023,0,0,0-1.68.908,4.061,4.061,0,0,0-.674,2.471V22H24.336V12H26.6v2.061h.039a3.484,3.484,0,0,1,1.021-1.646,2.3,2.3,0,0,1,1.538-.591,1.909,1.909,0,0,1,.938.186ZM40.654,22H38.389V20.3H38.35a3.91,3.91,0,0,1-6.323.591,5.574,5.574,0,0,1-1.108-3.657,6.073,6.073,0,0,1,1.226-3.975,4.011,4.011,0,0,1,3.267-1.494,3.128,3.128,0,0,1,2.939,1.621h.039V7.2h2.266Zm-2.236-4.57V16.121a2.55,2.55,0,0,0-.693-1.807,2.313,2.313,0,0,0-1.768-.742,2.38,2.38,0,0,0-2,.947,4.221,4.221,0,0,0-.728,2.627,3.782,3.782,0,0,0,.7,2.407,2.271,2.271,0,0,0,1.88.884,2.351,2.351,0,0,0,1.885-.854A3.219,3.219,0,0,0,38.418,17.43ZM60.615,22H58.281V15.926H51.689V22H49.365V8h2.324v5.889h6.592V8h2.334Zm11.67-4.385H65.469a2.881,2.881,0,0,0,.854,2.139,3.179,3.179,0,0,0,2.241.752,4.942,4.942,0,0,0,2.939-.957v1.826a6.716,6.716,0,0,1-3.613.859,4.473,4.473,0,0,1-3.462-1.362,5.449,5.449,0,0,1-1.255-3.833,5.328,5.328,0,0,1,1.382-3.8,4.52,4.52,0,0,1,3.433-1.47,3.941,3.941,0,0,1,3.174,1.318,5.474,5.474,0,0,1,1.123,3.662Zm-2.187-1.6a2.919,2.919,0,0,0-.576-1.9,1.925,1.925,0,0,0-1.562-.679,2.2,2.2,0,0,0-1.655.713,3.257,3.257,0,0,0-.835,1.865ZM82.119,22h-2.2V20.438h-.039a3.308,3.308,0,0,1-3.037,1.8,3.2,3.2,0,0,1-2.31-.8,2.8,2.8,0,0,1-.835-2.119q0-2.832,3.262-3.3l2.969-.42q0-2.139-2.031-2.139a4.825,4.825,0,0,0-3.223,1.23V12.7a7.028,7.028,0,0,1,3.652-.937q3.789,0,3.789,3.73Zm-2.187-4.912-2.1.293a3.328,3.328,0,0,0-1.47.474,1.384,1.384,0,0,0-.493,1.216,1.331,1.331,0,0,0,.454,1.04,1.758,1.758,0,0,0,1.216.405,2.243,2.243,0,0,0,1.714-.728,2.58,2.58,0,0,0,.679-1.831ZM93.975,22H91.709V20.3H91.67a3.91,3.91,0,0,1-6.323.591,5.574,5.574,0,0,1-1.108-3.657,6.073,6.073,0,0,1,1.226-3.975,4.011,4.011,0,0,1,3.267-1.494,3.128,3.128,0,0,1,2.939,1.621h.039V7.2h2.266Zm-2.236-4.57V16.121a2.55,2.55,0,0,0-.693-1.807,2.313,2.313,0,0,0-1.768-.742,2.38,2.38,0,0,0-2,.947,4.221,4.221,0,0,0-.728,2.627,3.782,3.782,0,0,0,.7,2.407,2.271,2.271,0,0,0,1.88.884,2.351,2.351,0,0,0,1.885-.854A3.219,3.219,0,0,0,91.738,17.43ZM99.209,22H96.934V7.2h2.275ZM103.3,9.9a1.362,1.362,0,0,1-.952-.361,1.189,1.189,0,0,1-.4-.918,1.219,1.219,0,0,1,.4-.928,1.342,1.342,0,0,1,.952-.371,1.384,1.384,0,0,1,.977.371,1.212,1.212,0,0,1,.4.928,1.2,1.2,0,0,1-.4.9A1.374,1.374,0,0,1,103.3,9.9ZM104.424,22h-2.266V12h2.266Zm11.865,0h-2.266V16.365q0-2.8-1.982-2.8a2.164,2.164,0,0,0-1.709.776,2.88,2.88,0,0,0-.674,1.958V22h-2.275V12h2.275v1.66h.039a3.564,3.564,0,0,1,3.242-1.895,3.02,3.02,0,0,1,2.49,1.06,4.758,4.758,0,0,1,.859,3.062Zm11.23-4.385H120.7a2.881,2.881,0,0,0,.854,2.139,3.179,3.179,0,0,0,2.241.752,4.942,4.942,0,0,0,2.939-.957v1.826a6.716,6.716,0,0,1-3.613.859,4.473,4.473,0,0,1-3.462-1.362,5.449,5.449,0,0,1-1.255-3.833,5.328,5.328,0,0,1,1.382-3.8,4.52,4.52,0,0,1,3.433-1.47,3.941,3.941,0,0,1,3.174,1.318,5.474,5.474,0,0,1,1.123,3.662Zm-2.187-1.6a2.919,2.919,0,0,0-.576-1.9,1.925,1.925,0,0,0-1.562-.679,2.2,2.2,0,0,0-1.655.713,3.257,3.257,0,0,0-.835,1.865Z" transform="translate(529.16 52)" fill="#31313a"/>
  </g>
</svg>
