<svg xmlns="http://www.w3.org/2000/svg" xmlns:xlink="http://www.w3.org/1999/xlink" width="1000" height="354" viewBox="0 0 1000 354">
  <defs>
    <filter id="Card" x="255.5" y="60.5" width="489" height="259" filterUnits="userSpaceOnUse">
      <feOffset dy="1" input="SourceAlpha"/>
      <feGaussianBlur stdDeviation="1.5" result="blur"/>
      <feFlood flood-opacity="0.161"/>
      <feComposite operator="in" in2="blur"/>
      <feComposite in="SourceGraphic"/>
    </filter>
    <filter id="Path_10438" x="516" y="96" width="224" height="90" filterUnits="userSpaceOnUse">
      <feOffset dy="3" input="SourceAlpha"/>
      <feGaussianBlur stdDeviation="3" result="blur-2"/>
      <feFlood flood-opacity="0.161"/>
      <feComposite operator="in" in2="blur-2"/>
      <feComposite in="SourceGraphic"/>
    </filter>
    <clipPath id="clip-cards--actions-header-mobile">
      <rect width="1000" height="354"/>
    </clipPath>
  </defs>
  <g id="cards--actions-header-mobile" clip-path="url(#clip-cards--actions-header-mobile)">
    <rect width="1000" height="354" fill="#f4f4f6"/>
    <rect id="Rectangle_10415" data-name="Rectangle 10415" width="480" height="284" transform="translate(260 30)" fill="#f4f4f6"/>
    <g id="sysbar_dark" data-name="sysbar dark" transform="translate(260 30)">
      <rect id="rectangle" width="480" height="24" fill="#78788c"/>
      <rect id="sysbar" width="118" height="24" transform="translate(362)" fill="none"/>
      <path id="sysbar_time" data-name="sysbar time" d="M5.243,0H3.589V-8l-2.44.832V-8.559L5.031-9.987h.212ZM15.395,0H8.7V-1.142l3.315-3.616A8.256,8.256,0,0,0,13.04-6.094a2.165,2.165,0,0,0,.3-1.077,1.636,1.636,0,0,0-.4-1.148,1.387,1.387,0,0,0-1.077-.437,1.6,1.6,0,0,0-1.251.492,1.936,1.936,0,0,0-.444,1.347H8.511a3.256,3.256,0,0,1,.414-1.637,2.848,2.848,0,0,1,1.183-1.131,3.764,3.764,0,0,1,1.774-.4,3.367,3.367,0,0,1,2.287.728A2.527,2.527,0,0,1,15-7.349a3.416,3.416,0,0,1-.42,1.562,8.882,8.882,0,0,1-1.377,1.856l-2.434,2.6h4.621Zm2.372-1.75a.949.949,0,0,1,.718.263.914.914,0,0,1,.253.66.882.882,0,0,1-.253.646.963.963,0,0,1-.718.256.966.966,0,0,1-.7-.253.867.867,0,0,1-.26-.649.914.914,0,0,1,.253-.66A.94.94,0,0,1,17.767-1.75Zm0-5.8a.949.949,0,0,1,.718.263.914.914,0,0,1,.253.66.882.882,0,0,1-.253.646.963.963,0,0,1-.718.256.966.966,0,0,1-.7-.253.867.867,0,0,1-.26-.649.914.914,0,0,1,.253-.66A.94.94,0,0,1,17.767-7.554Zm4.525,1.818H23.3a1.811,1.811,0,0,0,1.213-.4,1.414,1.414,0,0,0,.448-1.128,1.541,1.541,0,0,0-.373-1.1,1.5,1.5,0,0,0-1.138-.393,1.586,1.586,0,0,0-1.1.386,1.291,1.291,0,0,0-.431,1.008H20.262a2.514,2.514,0,0,1,.407-1.395A2.733,2.733,0,0,1,21.8-9.738a3.7,3.7,0,0,1,1.63-.352,3.423,3.423,0,0,1,2.341.749,2.627,2.627,0,0,1,.851,2.082A2.115,2.115,0,0,1,26.2-6a2.679,2.679,0,0,1-1.1.892,2.442,2.442,0,0,1,1.248.882,2.414,2.414,0,0,1,.427,1.436A2.673,2.673,0,0,1,25.85-.656a3.57,3.57,0,0,1-2.417.793,3.543,3.543,0,0,1-2.352-.766,2.521,2.521,0,0,1-.916-2.037h1.661A1.39,1.39,0,0,0,22.268-1.6a1.672,1.672,0,0,0,1.186.41,1.725,1.725,0,0,0,1.217-.41,1.539,1.539,0,0,0,.444-1.189A1.554,1.554,0,0,0,24.65-4a1.987,1.987,0,0,0-1.381-.424h-.978ZM34.815-4.19a5.428,5.428,0,0,1-.8,3.237A2.837,2.837,0,0,1,31.568.137a2.874,2.874,0,0,1-2.43-1.063A5.2,5.2,0,0,1,28.3-4.074V-5.8a5.346,5.346,0,0,1,.8-3.22,2.863,2.863,0,0,1,2.451-1.073,2.879,2.879,0,0,1,2.437,1.046,5.183,5.183,0,0,1,.824,3.131ZM33.154-6.05A4.211,4.211,0,0,0,32.771-8.1a1.307,1.307,0,0,0-1.217-.653,1.306,1.306,0,0,0-1.2.619,3.892,3.892,0,0,0-.4,1.931v2.256a4.32,4.32,0,0,0,.39,2.078,1.309,1.309,0,0,0,1.224.684,1.286,1.286,0,0,0,1.183-.632,4.065,4.065,0,0,0,.4-1.979Z" transform="translate(437 17)" fill="#fff"/>
      <g id="sysbar_battery" data-name="sysbar battery" transform="translate(78 -378)">
        <rect id="rectangle-2" data-name="rectangle" width="8.615" height="3.231" transform="translate(342 393.769)" fill="rgba(255,255,255,0.9)"/>
        <rect id="rectangle-3" data-name="rectangle" width="8.615" height="3.231" transform="translate(342 390.538)" fill="rgba(255,255,255,0.9)"/>
        <rect id="rectangle-4" data-name="rectangle" width="8.615" height="3.231" transform="translate(342 387.308)" fill="rgba(255,255,255,0.3)"/>
        <rect id="rectangle-5" data-name="rectangle" width="8.615" height="3.231" transform="translate(342 384.077)" fill="rgba(255,255,255,0.3)"/>
        <rect id="rectangle-6" data-name="rectangle" width="4.308" height="1.077" transform="translate(344.154 383)" fill="rgba(255,255,255,0.3)"/>
      </g>
      <path id="sysbar_status_2" data-name="sysbar status 2" d="M19.8,14h14V0Z" transform="translate(377.7 5)" fill="#fff" opacity="0.9"/>
      <path id="sysbar_wifi" data-name="sysbar wifi" d="M8.8,14,17.6,3.1A14.04,14.04,0,0,0,0,3.1L8.8,14Z" transform="translate(377.5 5)" fill="#fff" opacity="0.9"/>
    </g>
    <g transform="matrix(1, 0, 0, 1, 0, 0)" filter="url(#Card)">
      <rect id="Card-2" data-name="Card" width="480" height="250" transform="translate(260 64)" fill="#fff"/>
    </g>
    <path id="Path_10434" data-name="Path 10434" d="M18,1A17,17,0,0,0,5.979,30.021,17,17,0,0,0,30.021,5.979,16.889,16.889,0,0,0,18,1m0-1A18,18,0,1,1,0,18,18,18,0,0,1,18,0Z" transform="translate(695 66)" fill="#2777d3"/>
    <path id="Path_10435" data-name="Path 10435" d="M2,0A2,2,0,1,1,0,2,2,2,0,0,1,2,0Z" transform="translate(722 82) rotate(90)" fill="#2777d3"/>
    <path id="Path_10436" data-name="Path 10436" d="M2,0A2,2,0,1,1,0,2,2,2,0,0,1,2,0Z" transform="translate(715 82) rotate(90)" fill="#2777d3"/>
    <path id="Path_10437" data-name="Path 10437" d="M2,0A2,2,0,1,1,0,2,2,2,0,0,1,2,0Z" transform="translate(708 82) rotate(90)" fill="#2777d3"/>
    <g transform="matrix(1, 0, 0, 1, 0, 0)" filter="url(#Path_10438)">
      <path id="Path_10438-2" data-name="Path 10438" d="M4,0H202a4,4,0,0,1,4,4V68a4,4,0,0,1-4,4H4a4,4,0,0,1-4-4V4A4,4,0,0,1,4,0Z" transform="translate(525 102)" fill="#fff"/>
    </g>
    <path id="Path_10439" data-name="Path 10439" d="M0,0H206V36H0Z" transform="translate(525 102)" fill="#fff"/>
    <path id="Path_10440" data-name="Path 10440" d="M5.236.164A4.3,4.3,0,0,1,1.9-1.21,5.1,5.1,0,0,1,.643-4.785,5.4,5.4,0,0,1,1.921-8.559,4.465,4.465,0,0,1,5.4-9.967,4.206,4.206,0,0,1,8.671-8.6,5.115,5.115,0,0,1,9.912-5.024,5.417,5.417,0,0,1,8.641-1.23,4.382,4.382,0,0,1,5.236.164Zm.082-9.092A3.16,3.16,0,0,0,2.81-7.813a4.314,4.314,0,0,0-.964,2.926,4.344,4.344,0,0,0,.94,2.916,3.065,3.065,0,0,0,2.451,1.1A3.218,3.218,0,0,0,7.779-1.921a4.3,4.3,0,0,0,.93-2.946,4.5,4.5,0,0,0-.9-3A3.094,3.094,0,0,0,5.318-8.928Zm7.52,7.916h-.027V3.22H11.689V-7h1.121v1.23h.027a2.651,2.651,0,0,1,2.42-1.395,2.563,2.563,0,0,1,2.112.94,3.893,3.893,0,0,1,.759,2.519,4.339,4.339,0,0,1-.854,2.813A2.845,2.845,0,0,1,14.937.164,2.342,2.342,0,0,1,12.838-1.012Zm-.027-2.823v.978a2.081,2.081,0,0,0,.564,1.473,1.873,1.873,0,0,0,1.432.6,1.876,1.876,0,0,0,1.6-.779,3.575,3.575,0,0,0,.578-2.167,2.822,2.822,0,0,0-.54-1.832,1.787,1.787,0,0,0-1.463-.663,1.986,1.986,0,0,0-1.572.68A2.5,2.5,0,0,0,12.811-3.835ZM23.167-.068A2.161,2.161,0,0,1,22.121.15Q20.282.15,20.282-1.9V-6.043h-1.2V-7h1.2V-8.709L21.4-9.071V-7h1.764v.957H21.4V-2.1a1.635,1.635,0,0,0,.239,1,.955.955,0,0,0,.793.3,1.179,1.179,0,0,0,.731-.232Zm2.071-8.709a.71.71,0,0,1-.513-.205.692.692,0,0,1-.212-.52.7.7,0,0,1,.212-.523.7.7,0,0,1,.513-.208.724.724,0,0,1,.523.208.7.7,0,0,1,.215.523.693.693,0,0,1-.215.513A.718.718,0,0,1,25.238-8.777ZM25.785,0H24.664V-7h1.121Zm5.2.164A3.247,3.247,0,0,1,28.5-.817a3.633,3.633,0,0,1-.926-2.6,3.785,3.785,0,0,1,.964-2.755,3.465,3.465,0,0,1,2.6-.991,3.14,3.14,0,0,1,2.444.964,3.822,3.822,0,0,1,.878,2.673A3.761,3.761,0,0,1,33.52-.844,3.317,3.317,0,0,1,30.98.164Zm.082-6.385a2.132,2.132,0,0,0-1.709.735,3.018,3.018,0,0,0-.629,2.027A2.854,2.854,0,0,0,29.36-1.5a2.161,2.161,0,0,0,1.7.718,2.049,2.049,0,0,0,1.671-.7,3.055,3.055,0,0,0,.584-2,3.108,3.108,0,0,0-.584-2.023A2.04,2.04,0,0,0,31.063-6.221ZM42.068,0H40.947V-3.992q0-2.229-1.627-2.229a1.765,1.765,0,0,0-1.391.632,2.344,2.344,0,0,0-.55,1.6V0H36.258V-7h1.121v1.162h.027a2.526,2.526,0,0,1,2.3-1.326,2.142,2.142,0,0,1,1.757.742,3.3,3.3,0,0,1,.608,2.143ZM51.83,0H50.709V-8.47a2.6,2.6,0,0,1-.379.3,6.184,6.184,0,0,1-.561.332q-.311.164-.656.308a4.769,4.769,0,0,1-.673.226V-8.442a6.517,6.517,0,0,0,.783-.277q.414-.174.813-.39t.755-.451a6,6,0,0,0,.615-.461h.424Z" transform="translate(540 124)" fill="#494955"/>
    <path id="Path_10441" data-name="Path 10441" d="M0,0H206V36H0Z" transform="translate(525 138)" fill="#fff"/>
    <path id="Path_10442" data-name="Path 10442" d="M5.236.164A4.3,4.3,0,0,1,1.9-1.21,5.1,5.1,0,0,1,.643-4.785,5.4,5.4,0,0,1,1.921-8.559,4.465,4.465,0,0,1,5.4-9.967,4.206,4.206,0,0,1,8.671-8.6,5.115,5.115,0,0,1,9.912-5.024,5.417,5.417,0,0,1,8.641-1.23,4.382,4.382,0,0,1,5.236.164Zm.082-9.092A3.16,3.16,0,0,0,2.81-7.813a4.314,4.314,0,0,0-.964,2.926,4.344,4.344,0,0,0,.94,2.916,3.065,3.065,0,0,0,2.451,1.1A3.218,3.218,0,0,0,7.779-1.921a4.3,4.3,0,0,0,.93-2.946,4.5,4.5,0,0,0-.9-3A3.094,3.094,0,0,0,5.318-8.928Zm7.52,7.916h-.027V3.22H11.689V-7h1.121v1.23h.027a2.651,2.651,0,0,1,2.42-1.395,2.563,2.563,0,0,1,2.112.94,3.893,3.893,0,0,1,.759,2.519,4.339,4.339,0,0,1-.854,2.813A2.845,2.845,0,0,1,14.937.164,2.342,2.342,0,0,1,12.838-1.012Zm-.027-2.823v.978a2.081,2.081,0,0,0,.564,1.473,1.873,1.873,0,0,0,1.432.6,1.876,1.876,0,0,0,1.6-.779,3.575,3.575,0,0,0,.578-2.167,2.822,2.822,0,0,0-.54-1.832,1.787,1.787,0,0,0-1.463-.663,1.986,1.986,0,0,0-1.572.68A2.5,2.5,0,0,0,12.811-3.835ZM23.167-.068A2.161,2.161,0,0,1,22.121.15Q20.282.15,20.282-1.9V-6.043h-1.2V-7h1.2V-8.709L21.4-9.071V-7h1.764v.957H21.4V-2.1a1.635,1.635,0,0,0,.239,1,.955.955,0,0,0,.793.3,1.179,1.179,0,0,0,.731-.232Zm2.071-8.709a.71.71,0,0,1-.513-.205.692.692,0,0,1-.212-.52.7.7,0,0,1,.212-.523.7.7,0,0,1,.513-.208.724.724,0,0,1,.523.208.7.7,0,0,1,.215.523.693.693,0,0,1-.215.513A.718.718,0,0,1,25.238-8.777ZM25.785,0H24.664V-7h1.121Zm5.2.164A3.247,3.247,0,0,1,28.5-.817a3.633,3.633,0,0,1-.926-2.6,3.785,3.785,0,0,1,.964-2.755,3.465,3.465,0,0,1,2.6-.991,3.14,3.14,0,0,1,2.444.964,3.822,3.822,0,0,1,.878,2.673A3.761,3.761,0,0,1,33.52-.844,3.317,3.317,0,0,1,30.98.164Zm.082-6.385a2.132,2.132,0,0,0-1.709.735,3.018,3.018,0,0,0-.629,2.027A2.854,2.854,0,0,0,29.36-1.5a2.161,2.161,0,0,0,1.7.718,2.049,2.049,0,0,0,1.671-.7,3.055,3.055,0,0,0,.584-2,3.108,3.108,0,0,0-.584-2.023A2.04,2.04,0,0,0,31.063-6.221ZM42.068,0H40.947V-3.992q0-2.229-1.627-2.229a1.765,1.765,0,0,0-1.391.632,2.344,2.344,0,0,0-.55,1.6V0H36.258V-7h1.121v1.162h.027a2.526,2.526,0,0,1,2.3-1.326,2.142,2.142,0,0,1,1.757.742,3.3,3.3,0,0,1,.608,2.143Zm10.09-7.232a2.027,2.027,0,0,0-.14-.786,1.557,1.557,0,0,0-.383-.557,1.568,1.568,0,0,0-.571-.332,2.235,2.235,0,0,0-.711-.109,2.352,2.352,0,0,0-.643.089,3.124,3.124,0,0,0-.612.246,3.764,3.764,0,0,0-.574.376,4.148,4.148,0,0,0-.516.485v-1.2a3.352,3.352,0,0,1,1.056-.7,3.719,3.719,0,0,1,1.425-.243,3.441,3.441,0,0,1,1.114.174,2.555,2.555,0,0,1,.889.509,2.354,2.354,0,0,1,.591.827A2.79,2.79,0,0,1,53.3-7.328a3.868,3.868,0,0,1-.133,1.053,3.256,3.256,0,0,1-.4.889,4.288,4.288,0,0,1-.68.8,9.635,9.635,0,0,1-.964.779q-.69.492-1.138.841a5.031,5.031,0,0,0-.711.653,1.894,1.894,0,0,0-.369.608,2.127,2.127,0,0,0-.106.7h4.881V0h-6.05V-.485a4.045,4.045,0,0,1,.137-1.107,2.876,2.876,0,0,1,.451-.909,5.046,5.046,0,0,1,.824-.861q.509-.431,1.248-.971a7.887,7.887,0,0,0,.892-.731,3.8,3.8,0,0,0,.578-.7,2.5,2.5,0,0,0,.311-.708A3.051,3.051,0,0,0,52.158-7.232Z" transform="translate(540 160)" fill="#494955"/>
    <path id="Path_101233" data-name="Path 101233" d="M11.494,21.414a8.49,8.49,0,0,1-3.936.82,6.435,6.435,0,0,1-4.883-1.924A7.01,7.01,0,0,1,.84,15.262a7.352,7.352,0,0,1,2.065-5.43,7.066,7.066,0,0,1,5.22-2.07,8.554,8.554,0,0,1,3.369.576v2.3A6.012,6.012,0,0,0,8.369,9.8a4.9,4.9,0,0,0-3.687,1.455,5.345,5.345,0,0,0-1.411,3.887A5.1,5.1,0,0,0,4.59,18.831,4.588,4.588,0,0,0,8.057,20.2a6.207,6.207,0,0,0,3.438-.937ZM21.572,22h-2.2V20.438h-.039a3.308,3.308,0,0,1-3.037,1.8,3.2,3.2,0,0,1-2.31-.8,2.8,2.8,0,0,1-.835-2.119q0-2.832,3.262-3.3l2.969-.42q0-2.139-2.031-2.139a4.825,4.825,0,0,0-3.223,1.23V12.7a7.028,7.028,0,0,1,3.652-.937q3.789,0,3.789,3.73Zm-2.187-4.912-2.1.293a3.328,3.328,0,0,0-1.47.474,1.384,1.384,0,0,0-.493,1.216,1.331,1.331,0,0,0,.454,1.04,1.758,1.758,0,0,0,1.216.405,2.243,2.243,0,0,0,1.714-.728,2.58,2.58,0,0,0,.679-1.831Zm10.752-2.93a1.878,1.878,0,0,0-1.182-.322,2.023,2.023,0,0,0-1.68.908,4.061,4.061,0,0,0-.674,2.471V22H24.336V12H26.6v2.061h.039a3.484,3.484,0,0,1,1.021-1.646,2.3,2.3,0,0,1,1.538-.591,1.909,1.909,0,0,1,.938.186ZM40.654,22H38.389V20.3H38.35a3.91,3.91,0,0,1-6.323.591,5.574,5.574,0,0,1-1.108-3.657,6.073,6.073,0,0,1,1.226-3.975,4.011,4.011,0,0,1,3.267-1.494,3.128,3.128,0,0,1,2.939,1.621h.039V7.2h2.266Zm-2.236-4.57V16.121a2.55,2.55,0,0,0-.693-1.807,2.313,2.313,0,0,0-1.768-.742,2.38,2.38,0,0,0-2,.947,4.221,4.221,0,0,0-.728,2.627,3.782,3.782,0,0,0,.7,2.407,2.271,2.271,0,0,0,1.88.884,2.351,2.351,0,0,0,1.885-.854A3.219,3.219,0,0,0,38.418,17.43ZM58,22H55.732V16.531q0-2.969-1.982-2.969a2.073,2.073,0,0,0-1.68.859,3.421,3.421,0,0,0-.684,2.2V22H49.111V7.2h2.275V13.66h.039a3.578,3.578,0,0,1,3.242-1.895q3.33,0,3.33,4.072Zm11.221-4.385H62.4a2.881,2.881,0,0,0,.854,2.139,3.179,3.179,0,0,0,2.241.752,4.942,4.942,0,0,0,2.939-.957v1.826a6.716,6.716,0,0,1-3.613.859,4.473,4.473,0,0,1-3.462-1.362,5.449,5.449,0,0,1-1.255-3.833,5.328,5.328,0,0,1,1.382-3.8,4.52,4.52,0,0,1,3.433-1.47A3.941,3.941,0,0,1,68.1,13.084a5.474,5.474,0,0,1,1.123,3.662Zm-2.187-1.6a2.919,2.919,0,0,0-.576-1.9,1.925,1.925,0,0,0-1.562-.679,2.2,2.2,0,0,0-1.655.713,3.257,3.257,0,0,0-.835,1.865ZM79.053,22h-2.2V20.438h-.039a3.308,3.308,0,0,1-3.037,1.8,3.2,3.2,0,0,1-2.31-.8,2.8,2.8,0,0,1-.835-2.119q0-2.832,3.262-3.3l2.969-.42q0-2.139-2.031-2.139a4.825,4.825,0,0,0-3.223,1.23V12.7a7.028,7.028,0,0,1,3.652-.937q3.789,0,3.789,3.73Zm-2.187-4.912-2.1.293a3.328,3.328,0,0,0-1.47.474A1.384,1.384,0,0,0,72.8,19.07a1.331,1.331,0,0,0,.454,1.04,1.758,1.758,0,0,0,1.216.405,2.243,2.243,0,0,0,1.714-.728,2.58,2.58,0,0,0,.679-1.831ZM90.908,22H88.643V20.3H88.6a3.91,3.91,0,0,1-6.323.591,5.574,5.574,0,0,1-1.108-3.657A6.073,6.073,0,0,1,82.4,13.26a4.011,4.011,0,0,1,3.267-1.494A3.128,3.128,0,0,1,88.6,13.387h.039V7.2h2.266Zm-2.236-4.57V16.121a2.55,2.55,0,0,0-.693-1.807,2.313,2.313,0,0,0-1.768-.742,2.38,2.38,0,0,0-2,.947,4.221,4.221,0,0,0-.728,2.627,3.782,3.782,0,0,0,.7,2.407,2.271,2.271,0,0,0,1.88.884,2.351,2.351,0,0,0,1.885-.854A3.219,3.219,0,0,0,88.672,17.43ZM96.143,22H93.867V7.2h2.275Zm4.092-12.1a1.362,1.362,0,0,1-.952-.361,1.189,1.189,0,0,1-.4-.918,1.219,1.219,0,0,1,.4-.928,1.342,1.342,0,0,1,.952-.371,1.384,1.384,0,0,1,.977.371,1.212,1.212,0,0,1,.4.928,1.2,1.2,0,0,1-.4.9A1.374,1.374,0,0,1,100.234,9.9ZM101.357,22H99.092V12h2.266Zm11.865,0h-2.266V16.365q0-2.8-1.982-2.8a2.164,2.164,0,0,0-1.709.776,2.88,2.88,0,0,0-.674,1.958V22h-2.275V12h2.275v1.66h.039a3.564,3.564,0,0,1,3.242-1.895,3.02,3.02,0,0,1,2.49,1.06,4.758,4.758,0,0,1,.859,3.062Zm11.23-4.385h-6.816a2.881,2.881,0,0,0,.854,2.139,3.179,3.179,0,0,0,2.241.752,4.942,4.942,0,0,0,2.939-.957v1.826a6.716,6.716,0,0,1-3.613.859,4.473,4.473,0,0,1-3.462-1.362,5.449,5.449,0,0,1-1.255-3.833,5.328,5.328,0,0,1,1.382-3.8,4.52,4.52,0,0,1,3.433-1.47,3.941,3.941,0,0,1,3.174,1.318,5.474,5.474,0,0,1,1.123,3.662Zm-2.187-1.6a2.919,2.919,0,0,0-.576-1.9,1.925,1.925,0,0,0-1.562-.679,2.2,2.2,0,0,0-1.655.713,3.257,3.257,0,0,0-.835,1.865Z" transform="translate(269 67)" fill="#31313a"/>
    <path id="Rectangle_10416" data-name="Rectangle 10416" d="M1,1V293H479V1H1M0,0H480V294H0Z" transform="translate(260 30)" fill="#707070"/>
  </g>
</svg>
