<svg xmlns="http://www.w3.org/2000/svg" xmlns:xlink="http://www.w3.org/1999/xlink" width="1000" height="200" viewBox="0 0 1000 200">
  <defs>
    <filter id="Rectangle_9995" x="256.999" y="36" width="487" height="223" filterUnits="userSpaceOnUse">
      <feOffset dy="16" input="SourceAlpha"/>
      <feGaussianBlur stdDeviation="2" result="blur"/>
      <feFlood flood-opacity="0.141"/>
      <feComposite operator="in" in2="blur"/>
      <feComposite in="SourceGraphic"/>
    </filter>
    <clipPath id="clip-Dialog_Layout">
      <rect width="1000" height="200"/>
    </clipPath>
  </defs>
  <g id="Dialog_Layout" clip-path="url(#clip-Dialog_Layout)">
    <rect width="1000" height="200" fill="#f4f4f6"/>
    <g id="Small_Dialog" data-name="Small Dialog">
      <rect id="Rectangle_3864" data-name="Rectangle 3864" width="1000" height="471" fill="rgba(0,0,0,0.85)"/>
      <g transform="matrix(1, 0, 0, 1, 0, 0)" filter="url(#Rectangle_9995)">
        <rect id="Rectangle_9995-2" data-name="Rectangle 9995" width="475" height="201" transform="translate(263 36)" fill="#fff"/>
      </g>
      <path id="Path_101908" data-name="Path 101908" d="M11.279,15H10.138V8.424q0-.779.1-1.907h-.027a6.1,6.1,0,0,1-.294.95L6.563,15H6L2.659,7.521a5.859,5.859,0,0,1-.294-1H2.338q.055.588.055,1.921V15H1.285V5.2H2.8l3.008,6.836a8.753,8.753,0,0,1,.451,1.176H6.3q.294-.807.472-1.2L9.844,5.2h1.436Zm7.438,0H17.6V13.906h-.027a2.347,2.347,0,0,1-2.153,1.258,2.3,2.3,0,0,1-1.637-.554,1.918,1.918,0,0,1-.591-1.47q0-1.962,2.311-2.283l2.1-.294q0-1.784-1.442-1.784a3.446,3.446,0,0,0-2.283.861V8.492a4.338,4.338,0,0,1,2.379-.656q2.468,0,2.468,2.611ZM17.6,11.459l-1.688.232a2.741,2.741,0,0,0-1.176.386,1.114,1.114,0,0,0-.4.981,1.068,1.068,0,0,0,.366.837,1.413,1.413,0,0,0,.974.325,1.8,1.8,0,0,0,1.377-.584,2.088,2.088,0,0,0,.543-1.48Zm6.884-2.324a1.371,1.371,0,0,0-.848-.226,1.431,1.431,0,0,0-1.2.677,3.129,3.129,0,0,0-.482,1.846V15H20.829V8H21.95V9.442h.027a2.444,2.444,0,0,1,.731-1.152,1.668,1.668,0,0,1,1.1-.414,1.83,1.83,0,0,1,.67.1ZM31.507,15H29.935l-3.09-3.363h-.027V15H25.7V4.637h1.121v6.569h.027L29.784,8h1.47l-3.247,3.377Zm1.723-8.777a.71.71,0,0,1-.513-.205A.692.692,0,0,1,32.5,5.5a.718.718,0,0,1,.725-.731.724.724,0,0,1,.523.208.73.73,0,0,1,0,1.036A.718.718,0,0,1,33.229,6.223ZM33.776,15H32.655V8h1.121Zm8.08,0H40.735V11.008q0-2.229-1.627-2.229a1.765,1.765,0,0,0-1.391.632,2.344,2.344,0,0,0-.55,1.6V15H36.046V8h1.121V9.162h.027a2.526,2.526,0,0,1,2.3-1.326,2.142,2.142,0,0,1,1.757.742,3.3,3.3,0,0,1,.608,2.143Zm8.087-.561q0,3.855-3.691,3.855a4.956,4.956,0,0,1-2.27-.492V16.682a4.661,4.661,0,0,0,2.256.656q2.584,0,2.584-2.748v-.766h-.027a2.832,2.832,0,0,1-4.508.407,3.73,3.73,0,0,1-.8-2.505,4.358,4.358,0,0,1,.858-2.837A2.866,2.866,0,0,1,46.7,7.836a2.282,2.282,0,0,1,2.1,1.135h.027V8h1.121Zm-1.121-2.6V10.8a2,2,0,0,0-.564-1.429,1.857,1.857,0,0,0-1.4-.595,1.947,1.947,0,0,0-1.627.755,3.372,3.372,0,0,0-.588,2.116,2.894,2.894,0,0,0,.564,1.87,1.822,1.822,0,0,0,1.494.7,1.951,1.951,0,0,0,1.535-.67A2.5,2.5,0,0,0,48.822,11.835ZM57.2,13.988h-.027V18.22H56.048V8h1.121V9.23H57.2a2.651,2.651,0,0,1,2.42-1.395,2.563,2.563,0,0,1,2.112.94,3.893,3.893,0,0,1,.759,2.519,4.339,4.339,0,0,1-.854,2.813,2.845,2.845,0,0,1-2.338,1.056A2.342,2.342,0,0,1,57.2,13.988Zm-.027-2.823v.978a2.081,2.081,0,0,0,.564,1.473,2.012,2.012,0,0,0,3.028-.174,3.575,3.575,0,0,0,.578-2.167,2.822,2.822,0,0,0-.54-1.832,1.787,1.787,0,0,0-1.463-.663,1.986,1.986,0,0,0-1.572.68A2.5,2.5,0,0,0,57.169,11.165ZM65.4,15H64.278V4.637H65.4Zm7.28,0H71.559V13.906h-.027a2.347,2.347,0,0,1-2.153,1.258,2.3,2.3,0,0,1-1.637-.554,1.918,1.918,0,0,1-.591-1.47q0-1.962,2.311-2.283l2.1-.294q0-1.784-1.442-1.784a3.446,3.446,0,0,0-2.283.861V8.492a4.338,4.338,0,0,1,2.379-.656q2.468,0,2.468,2.611Zm-1.121-3.541-1.688.232a2.741,2.741,0,0,0-1.176.386,1.114,1.114,0,0,0-.4.981,1.068,1.068,0,0,0,.366.837,1.413,1.413,0,0,0,.974.325,1.8,1.8,0,0,0,1.377-.584,2.088,2.088,0,0,0,.543-1.48ZM80.6,15H79.481V11.008q0-2.229-1.627-2.229a1.765,1.765,0,0,0-1.391.632,2.344,2.344,0,0,0-.55,1.6V15H74.792V8h1.121V9.162h.027a2.526,2.526,0,0,1,2.3-1.326,2.142,2.142,0,0,1,1.757.742,3.3,3.3,0,0,1,.608,2.143Zm1.688-.253v-1.2a3.318,3.318,0,0,0,2.017.677q1.477,0,1.477-.984a.854.854,0,0,0-.126-.475,1.26,1.26,0,0,0-.342-.345,2.631,2.631,0,0,0-.506-.27q-.291-.12-.625-.25a8.056,8.056,0,0,1-.817-.373,2.468,2.468,0,0,1-.588-.424,1.577,1.577,0,0,1-.355-.537,1.9,1.9,0,0,1-.12-.7,1.673,1.673,0,0,1,.226-.872,2,2,0,0,1,.6-.636,2.805,2.805,0,0,1,.858-.386,3.805,3.805,0,0,1,.995-.13,4.016,4.016,0,0,1,1.627.314V9.285a3.171,3.171,0,0,0-1.777-.506,2.078,2.078,0,0,0-.567.072,1.389,1.389,0,0,0-.434.2.932.932,0,0,0-.28.311.819.819,0,0,0-.1.4.959.959,0,0,0,.1.458,1.008,1.008,0,0,0,.291.328,2.221,2.221,0,0,0,.465.26q.273.116.622.253a8.657,8.657,0,0,1,.834.366,2.86,2.86,0,0,1,.629.424,1.656,1.656,0,0,1,.4.543,1.753,1.753,0,0,1,.14.731,1.725,1.725,0,0,1-.229.9,1.963,1.963,0,0,1-.612.636,2.8,2.8,0,0,1-.882.376,4.354,4.354,0,0,1-1.046.123A3.971,3.971,0,0,1,82.291,14.747ZM97.5,15H96.38V13.906h-.027A2.347,2.347,0,0,1,94.2,15.164a2.3,2.3,0,0,1-1.637-.554,1.918,1.918,0,0,1-.591-1.47q0-1.962,2.311-2.283l2.1-.294q0-1.784-1.442-1.784a3.446,3.446,0,0,0-2.283.861V8.492a4.338,4.338,0,0,1,2.379-.656q2.468,0,2.468,2.611ZM96.38,11.459l-1.688.232a2.741,2.741,0,0,0-1.176.386,1.114,1.114,0,0,0-.4.981,1.068,1.068,0,0,0,.366.837,1.413,1.413,0,0,0,.974.325,1.8,1.8,0,0,0,1.377-.584,2.088,2.088,0,0,0,.543-1.48Zm2.81,3.288v-1.2a3.318,3.318,0,0,0,2.017.677q1.477,0,1.477-.984a.854.854,0,0,0-.126-.475,1.26,1.26,0,0,0-.342-.345,2.631,2.631,0,0,0-.506-.27q-.291-.12-.625-.25a8.056,8.056,0,0,1-.817-.373,2.468,2.468,0,0,1-.588-.424,1.577,1.577,0,0,1-.355-.537,1.9,1.9,0,0,1-.12-.7,1.673,1.673,0,0,1,.226-.872,2,2,0,0,1,.6-.636,2.805,2.805,0,0,1,.858-.386,3.805,3.805,0,0,1,.995-.13,4.016,4.016,0,0,1,1.627.314V9.285a3.171,3.171,0,0,0-1.777-.506,2.078,2.078,0,0,0-.567.072,1.389,1.389,0,0,0-.434.2.932.932,0,0,0-.28.311.819.819,0,0,0-.1.4.959.959,0,0,0,.1.458,1.008,1.008,0,0,0,.291.328,2.221,2.221,0,0,0,.465.26q.273.116.622.253a8.657,8.657,0,0,1,.834.366,2.86,2.86,0,0,1,.629.424,1.656,1.656,0,0,1,.4.543,1.753,1.753,0,0,1,.14.731,1.725,1.725,0,0,1-.229.9,1.963,1.963,0,0,1-.612.636,2.8,2.8,0,0,1-.882.376,4.354,4.354,0,0,1-1.046.123A3.971,3.971,0,0,1,99.189,14.747Zm9.775,0v-1.2a3.318,3.318,0,0,0,2.017.677q1.477,0,1.477-.984a.854.854,0,0,0-.126-.475,1.26,1.26,0,0,0-.342-.345,2.631,2.631,0,0,0-.506-.27q-.291-.12-.625-.25a8.056,8.056,0,0,1-.817-.373,2.468,2.468,0,0,1-.588-.424,1.577,1.577,0,0,1-.355-.537,1.9,1.9,0,0,1-.12-.7,1.673,1.673,0,0,1,.226-.872,2,2,0,0,1,.6-.636,2.805,2.805,0,0,1,.858-.386,3.805,3.805,0,0,1,.995-.13,4.016,4.016,0,0,1,1.627.314V9.285a3.171,3.171,0,0,0-1.777-.506,2.078,2.078,0,0,0-.567.072,1.389,1.389,0,0,0-.434.2.932.932,0,0,0-.28.311.819.819,0,0,0-.1.4.959.959,0,0,0,.1.458,1.008,1.008,0,0,0,.291.328,2.221,2.221,0,0,0,.465.26q.273.116.622.253a8.657,8.657,0,0,1,.834.366,2.86,2.86,0,0,1,.629.424,1.656,1.656,0,0,1,.4.543,1.753,1.753,0,0,1,.14.731,1.725,1.725,0,0,1-.229.9,1.963,1.963,0,0,1-.612.636,2.8,2.8,0,0,1-.882.376,4.354,4.354,0,0,1-1.046.123A3.971,3.971,0,0,1,108.965,14.747Zm9.29.417a3.247,3.247,0,0,1-2.478-.981,3.633,3.633,0,0,1-.926-2.6,3.785,3.785,0,0,1,.964-2.755,3.465,3.465,0,0,1,2.6-.991,3.14,3.14,0,0,1,2.444.964,3.822,3.822,0,0,1,.878,2.673,3.761,3.761,0,0,1-.947,2.683A3.317,3.317,0,0,1,118.255,15.164Zm.082-6.385a2.132,2.132,0,0,0-1.709.735A3.018,3.018,0,0,0,116,11.541a2.854,2.854,0,0,0,.636,1.962,2.161,2.161,0,0,0,1.7.718,2.049,2.049,0,0,0,1.671-.7,3.055,3.055,0,0,0,.584-2,3.108,3.108,0,0,0-.584-2.023A2.04,2.04,0,0,0,118.337,8.779ZM124.653,15h-1.121V4.637h1.121Zm8.244,0h-1.121V13.811h-.027a2.588,2.588,0,0,1-2.406,1.354,2.615,2.615,0,0,1-2.109-.94,3.856,3.856,0,0,1-.79-2.56,4.2,4.2,0,0,1,.875-2.782,2.886,2.886,0,0,1,2.331-1.046,2.244,2.244,0,0,1,2.1,1.135h.027V4.637H132.9Zm-1.121-3.165V10.8a2,2,0,0,0-.561-1.436,1.88,1.88,0,0,0-1.422-.588,1.936,1.936,0,0,0-1.613.752,3.3,3.3,0,0,0-.588,2.078,2.964,2.964,0,0,0,.564,1.911,1.843,1.843,0,0,0,1.514.7,1.915,1.915,0,0,0,1.521-.677A2.521,2.521,0,0,0,131.776,11.835ZM147.82,8l-2.1,7H144.56l-1.442-5.011a3.266,3.266,0,0,1-.109-.649h-.027a3.065,3.065,0,0,1-.144.636L141.271,15H140.15l-2.119-7h1.176l1.449,5.264a3.171,3.171,0,0,1,.1.629h.055a2.942,2.942,0,0,1,.123-.643L142.543,8h1.025l1.449,5.277a3.767,3.767,0,0,1,.1.629h.055a2.909,2.909,0,0,1,.116-.629L146.713,8Zm1.873-1.777a.71.71,0,0,1-.513-.205.692.692,0,0,1-.212-.52.718.718,0,0,1,.725-.731.724.724,0,0,1,.523.208.73.73,0,0,1,0,1.036A.718.718,0,0,1,149.693,6.223ZM150.24,15h-1.121V8h1.121Zm3.391,0H152.51V4.637h1.121Zm3.391,0H155.9V4.637h1.121Zm7.226,0h-1.121V4.637h1.121Zm5.2.164a3.247,3.247,0,0,1-2.478-.981,3.634,3.634,0,0,1-.926-2.6A3.785,3.785,0,0,1,167,8.827a3.465,3.465,0,0,1,2.6-.991,3.14,3.14,0,0,1,2.444.964,3.822,3.822,0,0,1,.878,2.673,3.761,3.761,0,0,1-.947,2.683A3.317,3.317,0,0,1,169.442,15.164Zm.082-6.385a2.132,2.132,0,0,0-1.709.735,3.018,3.018,0,0,0-.629,2.027,2.854,2.854,0,0,0,.636,1.962,2.161,2.161,0,0,0,1.7.718,2.049,2.049,0,0,0,1.671-.7,3.055,3.055,0,0,0,.584-2A3.108,3.108,0,0,0,171.2,9.49,2.04,2.04,0,0,0,169.524,8.779Zm9.967,5.9a3.643,3.643,0,0,1-1.914.485,3.169,3.169,0,0,1-2.417-.974,3.53,3.53,0,0,1-.919-2.526,3.881,3.881,0,0,1,.991-2.779,3.468,3.468,0,0,1,2.646-1.049,3.682,3.682,0,0,1,1.627.342V9.326a2.85,2.85,0,0,0-1.668-.547,2.254,2.254,0,0,0-1.76.769,2.918,2.918,0,0,0-.687,2.02,2.779,2.779,0,0,0,.646,1.941,2.227,2.227,0,0,0,1.733.711,2.81,2.81,0,0,0,1.723-.608ZM187,15h-1.572l-3.09-3.363h-.027V15h-1.121V4.637h1.121v6.569h.027L185.274,8h1.47L183.5,11.377Zm8.23-.068a2.162,2.162,0,0,1-1.046.219q-1.839,0-1.839-2.051V8.957h-1.2V8h1.2V6.291l1.121-.362V8h1.764v.957h-1.764V12.9a1.635,1.635,0,0,0,.239,1,.955.955,0,0,0,.793.3,1.179,1.179,0,0,0,.731-.232Zm7.308.068h-1.121V10.967q0-2.187-1.627-2.187a1.774,1.774,0,0,0-1.381.632,2.356,2.356,0,0,0-.561,1.624V15h-1.121V4.637h1.121V9.162h.027a2.546,2.546,0,0,1,2.3-1.326q2.365,0,2.365,2.851Zm2.687-8.777a.71.71,0,0,1-.513-.205.692.692,0,0,1-.212-.52.718.718,0,0,1,.725-.731.724.724,0,0,1,.523.208.73.73,0,0,1,0,1.036A.718.718,0,0,1,205.222,6.223ZM205.769,15h-1.121V8h1.121Zm1.846-.253v-1.2a3.318,3.318,0,0,0,2.017.677q1.477,0,1.477-.984a.854.854,0,0,0-.126-.475,1.26,1.26,0,0,0-.342-.345,2.631,2.631,0,0,0-.506-.27q-.291-.12-.625-.25a8.056,8.056,0,0,1-.817-.373,2.468,2.468,0,0,1-.588-.424,1.577,1.577,0,0,1-.355-.537,1.9,1.9,0,0,1-.12-.7,1.673,1.673,0,0,1,.226-.872,2,2,0,0,1,.6-.636,2.805,2.805,0,0,1,.858-.386,3.805,3.805,0,0,1,.995-.13,4.016,4.016,0,0,1,1.627.314V9.285a3.171,3.171,0,0,0-1.777-.506,2.078,2.078,0,0,0-.567.072,1.389,1.389,0,0,0-.434.2.932.932,0,0,0-.28.311.819.819,0,0,0-.1.4.959.959,0,0,0,.1.458,1.008,1.008,0,0,0,.291.328,2.221,2.221,0,0,0,.465.26q.273.116.622.253a8.658,8.658,0,0,1,.834.366,2.86,2.86,0,0,1,.629.424,1.656,1.656,0,0,1,.4.543,1.753,1.753,0,0,1,.14.731,1.725,1.725,0,0,1-.229.9,1.963,1.963,0,0,1-.612.636,2.8,2.8,0,0,1-.882.376,4.354,4.354,0,0,1-1.046.123A3.971,3.971,0,0,1,207.614,14.747Zm16.174,3.473h-1.121V13.8h-.027a2.508,2.508,0,0,1-2.393,1.367,2.634,2.634,0,0,1-2.116-.94,3.834,3.834,0,0,1-.8-2.56,4.192,4.192,0,0,1,.875-2.786,2.912,2.912,0,0,1,2.352-1.042,2.207,2.207,0,0,1,2.078,1.135h.027V8h1.121Zm-1.121-6.371V10.83a2.037,2.037,0,0,0-.564-1.456,1.888,1.888,0,0,0-1.432-.595,1.925,1.925,0,0,0-1.6.749,3.341,3.341,0,0,0-.588,2.109,2.894,2.894,0,0,0,.567,1.9,1.811,1.811,0,0,0,1.463.687,1.972,1.972,0,0,0,1.569-.673A2.5,2.5,0,0,0,222.667,11.849ZM231.718,15H230.6V13.893h-.027a2.3,2.3,0,0,1-2.16,1.271q-2.5,0-2.5-2.98V8h1.114v4.006q0,2.215,1.7,2.215a1.715,1.715,0,0,0,1.35-.6,2.315,2.315,0,0,0,.53-1.583V8h1.121Zm5.188.164a3.247,3.247,0,0,1-2.478-.981,3.634,3.634,0,0,1-.926-2.6,3.785,3.785,0,0,1,.964-2.755,3.465,3.465,0,0,1,2.6-.991,3.14,3.14,0,0,1,2.444.964,3.822,3.822,0,0,1,.878,2.673,3.761,3.761,0,0,1-.947,2.683A3.317,3.317,0,0,1,236.906,15.164Zm.082-6.385a2.132,2.132,0,0,0-1.709.735,3.018,3.018,0,0,0-.629,2.027,2.854,2.854,0,0,0,.636,1.962,2.161,2.161,0,0,0,1.7.718,2.049,2.049,0,0,0,1.671-.7,3.055,3.055,0,0,0,.584-2,3.108,3.108,0,0,0-.584-2.023A2.04,2.04,0,0,0,236.988,8.779Zm8.442,6.152a2.162,2.162,0,0,1-1.046.219q-1.839,0-1.839-2.051V8.957h-1.2V8h1.2V6.291l1.121-.362V8h1.764v.957h-1.764V12.9a1.635,1.635,0,0,0,.239,1,.955.955,0,0,0,.793.3,1.179,1.179,0,0,0,.731-.232Zm7.123-3.151h-4.942a2.618,2.618,0,0,0,.629,1.8,2.168,2.168,0,0,0,1.654.636,3.439,3.439,0,0,0,2.174-.779v1.053a4.063,4.063,0,0,1-2.44.67,2.959,2.959,0,0,1-2.331-.954,3.9,3.9,0,0,1-.848-2.683,3.828,3.828,0,0,1,.926-2.663,2.97,2.97,0,0,1,2.3-1.029,2.632,2.632,0,0,1,2.126.889,3.705,3.705,0,0,1,.752,2.468Zm-1.148-.95a2.281,2.281,0,0,0-.468-1.511,1.6,1.6,0,0,0-1.282-.54,1.811,1.811,0,0,0-1.347.567,2.575,2.575,0,0,0-.684,1.483ZM263.095,15h-1.121V13.906h-.027a2.347,2.347,0,0,1-2.153,1.258,2.3,2.3,0,0,1-1.637-.554,1.918,1.918,0,0,1-.591-1.47q0-1.962,2.311-2.283l2.1-.294q0-1.784-1.442-1.784a3.446,3.446,0,0,0-2.283.861V8.492a4.338,4.338,0,0,1,2.379-.656q2.468,0,2.468,2.611Zm-1.121-3.541-1.688.232a2.741,2.741,0,0,0-1.176.386,1.114,1.114,0,0,0-.4.981,1.068,1.068,0,0,0,.366.837,1.413,1.413,0,0,0,.974.325,1.8,1.8,0,0,0,1.377-.584,2.088,2.088,0,0,0,.543-1.48ZM271.018,15H269.9V11.008q0-2.229-1.627-2.229a1.765,1.765,0,0,0-1.391.632,2.344,2.344,0,0,0-.55,1.6V15h-1.121V8h1.121V9.162h.027a2.526,2.526,0,0,1,2.3-1.326,2.142,2.142,0,0,1,1.757.742,3.3,3.3,0,0,1,.608,2.143Zm8.087,0h-1.121V13.811h-.027a2.588,2.588,0,0,1-2.406,1.354,2.615,2.615,0,0,1-2.109-.94,3.856,3.856,0,0,1-.79-2.56,4.2,4.2,0,0,1,.875-2.782,2.886,2.886,0,0,1,2.331-1.046,2.244,2.244,0,0,1,2.1,1.135h.027V4.637H279.1Zm-1.121-3.165V10.8a2,2,0,0,0-.561-1.436A1.88,1.88,0,0,0,276,8.779a1.936,1.936,0,0,0-1.613.752,3.3,3.3,0,0,0-.588,2.078,2.964,2.964,0,0,0,.564,1.911,1.843,1.843,0,0,0,1.514.7,1.915,1.915,0,0,0,1.521-.677A2.521,2.521,0,0,0,277.983,11.835Zm8.374,2.153h-.027V18.22h-1.121V8h1.121V9.23h.027a2.651,2.651,0,0,1,2.42-1.395,2.563,2.563,0,0,1,2.112.94,3.893,3.893,0,0,1,.759,2.519,4.339,4.339,0,0,1-.854,2.813,2.845,2.845,0,0,1-2.338,1.056A2.342,2.342,0,0,1,286.357,13.988Zm-.027-2.823v.978a2.081,2.081,0,0,0,.564,1.473,2.012,2.012,0,0,0,3.028-.174,3.575,3.575,0,0,0,.578-2.167,2.822,2.822,0,0,0-.54-1.832,1.787,1.787,0,0,0-1.463-.663,1.986,1.986,0,0,0-1.572.68A2.5,2.5,0,0,0,286.33,11.165Zm10.76-2.03a1.371,1.371,0,0,0-.848-.226,1.431,1.431,0,0,0-1.2.677,3.129,3.129,0,0,0-.482,1.846V15h-1.121V8h1.121V9.442h.027a2.444,2.444,0,0,1,.731-1.152,1.668,1.668,0,0,1,1.1-.414,1.83,1.83,0,0,1,.67.1Zm6.843,2.646H298.99a2.618,2.618,0,0,0,.629,1.8,2.168,2.168,0,0,0,1.654.636,3.439,3.439,0,0,0,2.174-.779v1.053a4.063,4.063,0,0,1-2.44.67,2.959,2.959,0,0,1-2.331-.954,3.9,3.9,0,0,1-.848-2.683,3.828,3.828,0,0,1,.926-2.663,2.97,2.97,0,0,1,2.3-1.029,2.632,2.632,0,0,1,2.126.889,3.705,3.705,0,0,1,.752,2.468Zm-1.148-.95a2.281,2.281,0,0,0-.468-1.511,1.6,1.6,0,0,0-1.282-.54,1.811,1.811,0,0,0-1.347.567A2.575,2.575,0,0,0,299,10.83ZM311.131,8l-2.789,7h-1.1l-2.652-7h1.23l1.777,5.086a4.564,4.564,0,0,1,.246.978h.027a4.622,4.622,0,0,1,.219-.95L309.948,8Zm6.829,3.78h-4.942a2.618,2.618,0,0,0,.629,1.8,2.168,2.168,0,0,0,1.654.636,3.439,3.439,0,0,0,2.174-.779v1.053a4.063,4.063,0,0,1-2.44.67,2.959,2.959,0,0,1-2.331-.954,3.9,3.9,0,0,1-.848-2.683,3.828,3.828,0,0,1,.926-2.663,2.97,2.97,0,0,1,2.3-1.029,2.632,2.632,0,0,1,2.126.889,3.705,3.705,0,0,1,.752,2.468Zm-1.148-.95a2.281,2.281,0,0,0-.468-1.511,1.6,1.6,0,0,0-1.282-.54,1.811,1.811,0,0,0-1.347.567,2.575,2.575,0,0,0-.684,1.483ZM325.466,15h-1.121V11.008q0-2.229-1.627-2.229a1.765,1.765,0,0,0-1.391.632,2.344,2.344,0,0,0-.55,1.6V15h-1.121V8h1.121V9.162h.027a2.526,2.526,0,0,1,2.3-1.326,2.142,2.142,0,0,1,1.757.742,3.3,3.3,0,0,1,.608,2.143Zm5.359-.068a2.161,2.161,0,0,1-1.046.219q-1.839,0-1.839-2.051V8.957h-1.2V8h1.2V6.291l1.121-.362V8h1.764v.957h-1.764V12.9a1.635,1.635,0,0,0,.239,1,.955.955,0,0,0,.793.3,1.179,1.179,0,0,0,.731-.232Zm8.791-9.311a1.493,1.493,0,0,0-.745-.185q-1.176,0-1.176,1.483V8h1.641v.957H337.7V15h-1.114V8.957h-1.2V8h1.2V6.865a2.358,2.358,0,0,1,.636-1.74,2.146,2.146,0,0,1,1.586-.639,2.2,2.2,0,0,1,.813.123ZM346.2,15h-1.121V13.893h-.027a2.3,2.3,0,0,1-2.16,1.271q-2.5,0-2.5-2.98V8H341.5v4.006q0,2.215,1.7,2.215a1.715,1.715,0,0,0,1.35-.6,2.315,2.315,0,0,0,.53-1.583V8H346.2Zm5.913-5.865a1.371,1.371,0,0,0-.848-.226,1.431,1.431,0,0,0-1.2.677,3.129,3.129,0,0,0-.482,1.846V15h-1.121V8h1.121V9.442h.027a2.444,2.444,0,0,1,.731-1.152,1.668,1.668,0,0,1,1.1-.414,1.83,1.83,0,0,1,.67.1Zm4.464,5.8a2.161,2.161,0,0,1-1.046.219q-1.839,0-1.839-2.051V8.957h-1.2V8h1.2V6.291l1.121-.362V8h1.764v.957h-1.764V12.9a1.635,1.635,0,0,0,.239,1,.955.955,0,0,0,.793.3,1.179,1.179,0,0,0,.731-.232Zm7.308.068h-1.121V10.967q0-2.187-1.627-2.187a1.774,1.774,0,0,0-1.381.632,2.356,2.356,0,0,0-.561,1.624V15h-1.121V4.637h1.121V9.162h.027a2.546,2.546,0,0,1,2.3-1.326q2.365,0,2.365,2.851Zm7.738-3.22H366.68a2.618,2.618,0,0,0,.629,1.8,2.168,2.168,0,0,0,1.654.636,3.439,3.439,0,0,0,2.174-.779v1.053a4.063,4.063,0,0,1-2.44.67,2.959,2.959,0,0,1-2.331-.954,3.9,3.9,0,0,1-.848-2.683,3.828,3.828,0,0,1,.926-2.663,2.97,2.97,0,0,1,2.3-1.029,2.632,2.632,0,0,1,2.126.889,3.705,3.705,0,0,1,.752,2.468Zm-1.148-.95a2.281,2.281,0,0,0-.468-1.511,1.6,1.6,0,0,0-1.282-.54,1.811,1.811,0,0,0-1.347.567,2.575,2.575,0,0,0-.684,1.483Zm6.494-1.7a1.371,1.371,0,0,0-.848-.226,1.431,1.431,0,0,0-1.2.677,3.129,3.129,0,0,0-.482,1.846V15h-1.121V8h1.121V9.442h.027a2.444,2.444,0,0,1,.731-1.152,1.668,1.668,0,0,1,1.1-.414,1.83,1.83,0,0,1,.67.1Zm10.678,2.646H382.7a2.618,2.618,0,0,0,.629,1.8,2.168,2.168,0,0,0,1.654.636,3.439,3.439,0,0,0,2.174-.779v1.053a4.063,4.063,0,0,1-2.44.67,2.959,2.959,0,0,1-2.331-.954,3.9,3.9,0,0,1-.848-2.683,3.828,3.828,0,0,1,.926-2.663,2.97,2.97,0,0,1,2.3-1.029,2.632,2.632,0,0,1,2.126.889,3.705,3.705,0,0,1,.752,2.468Zm-1.148-.95a2.281,2.281,0,0,0-.468-1.511,1.6,1.6,0,0,0-1.282-.54,1.811,1.811,0,0,0-1.347.567,2.575,2.575,0,0,0-.684,1.483ZM395.315,15h-1.121V13.811h-.027a2.588,2.588,0,0,1-2.406,1.354,2.615,2.615,0,0,1-2.109-.94,3.856,3.856,0,0,1-.79-2.56,4.2,4.2,0,0,1,.875-2.782,2.886,2.886,0,0,1,2.331-1.046,2.244,2.244,0,0,1,2.1,1.135h.027V4.637h1.121Zm-1.121-3.165V10.8a2,2,0,0,0-.561-1.436,1.88,1.88,0,0,0-1.422-.588,1.936,1.936,0,0,0-1.613.752,3.3,3.3,0,0,0-.588,2.078,2.964,2.964,0,0,0,.564,1.911,1.843,1.843,0,0,0,1.514.7,1.915,1.915,0,0,0,1.521-.677A2.521,2.521,0,0,0,394.194,11.835Zm3.965-5.612a.71.71,0,0,1-.513-.205.692.692,0,0,1-.212-.52.718.718,0,0,1,.725-.731.724.724,0,0,1,.523.208.73.73,0,0,1,0,1.036A.718.718,0,0,1,398.159,6.223ZM398.706,15h-1.121V8h1.121Zm5.517-.068a2.161,2.161,0,0,1-1.046.219q-1.839,0-1.839-2.051V8.957h-1.2V8h1.2V6.291l1.121-.362V8h1.764v.957h-1.764V12.9a1.635,1.635,0,0,0,.239,1,.955.955,0,0,0,.793.3,1.179,1.179,0,0,0,.731-.232Zm1.073-.185v-1.2a3.318,3.318,0,0,0,2.017.677q1.477,0,1.477-.984a.854.854,0,0,0-.126-.475,1.261,1.261,0,0,0-.342-.345,2.631,2.631,0,0,0-.506-.27q-.291-.12-.625-.25a8.056,8.056,0,0,1-.817-.373,2.468,2.468,0,0,1-.588-.424,1.577,1.577,0,0,1-.355-.537,1.9,1.9,0,0,1-.12-.7,1.673,1.673,0,0,1,.226-.872,2,2,0,0,1,.6-.636,2.805,2.805,0,0,1,.858-.386,3.805,3.805,0,0,1,.995-.13,4.016,4.016,0,0,1,1.627.314V9.285a3.171,3.171,0,0,0-1.777-.506,2.078,2.078,0,0,0-.567.072,1.389,1.389,0,0,0-.434.2.932.932,0,0,0-.28.311.819.819,0,0,0-.1.4.959.959,0,0,0,.1.458,1.008,1.008,0,0,0,.291.328,2.221,2.221,0,0,0,.465.26q.273.116.622.253a8.657,8.657,0,0,1,.834.366,2.861,2.861,0,0,1,.629.424,1.656,1.656,0,0,1,.4.543,1.753,1.753,0,0,1,.14.731,1.724,1.724,0,0,1-.229.9,1.963,1.963,0,0,1-.612.636,2.8,2.8,0,0,1-.882.376,4.354,4.354,0,0,1-1.046.123A3.971,3.971,0,0,1,405.3,14.747Zm6.754.4a.726.726,0,0,1-.537-.226.743.743,0,0,1-.222-.54.754.754,0,0,1,.222-.543.72.72,0,0,1,.537-.229.739.739,0,0,1,.547.229.748.748,0,0,1,.226.543.737.737,0,0,1-.226.54A.745.745,0,0,1,412.05,15.15ZM7.656,41.2l-3.233,6.18V51H3.274V47.4L.123,41.2H1.429l2.194,4.43q.041.082.239.6h.021a3.6,3.6,0,0,1,.26-.6l2.3-4.43Zm2.912,9.967a3.247,3.247,0,0,1-2.478-.981,3.634,3.634,0,0,1-.926-2.6,3.785,3.785,0,0,1,.964-2.755,3.465,3.465,0,0,1,2.6-.991,3.14,3.14,0,0,1,2.444.964,3.822,3.822,0,0,1,.878,2.673,3.761,3.761,0,0,1-.947,2.683A3.318,3.318,0,0,1,10.568,51.164Zm.082-6.385a2.132,2.132,0,0,0-1.709.735,3.018,3.018,0,0,0-.629,2.027A2.854,2.854,0,0,0,8.948,49.5a2.161,2.161,0,0,0,1.7.718,2.049,2.049,0,0,0,1.671-.7,3.055,3.055,0,0,0,.584-2,3.108,3.108,0,0,0-.584-2.023A2.04,2.04,0,0,0,10.65,44.779ZM21.506,51H20.385V49.893h-.027a2.3,2.3,0,0,1-2.16,1.271q-2.5,0-2.5-2.98V44H16.81v4.006q0,2.215,1.7,2.215a1.715,1.715,0,0,0,1.35-.6,2.315,2.315,0,0,0,.53-1.583V44h1.121Zm14.916-7-2.1,7H33.161l-1.442-5.011a3.265,3.265,0,0,1-.109-.649h-.027a3.066,3.066,0,0,1-.144.636L29.873,51H28.752l-2.119-7h1.176l1.449,5.264a3.171,3.171,0,0,1,.1.629h.055a2.942,2.942,0,0,1,.123-.643L31.145,44H32.17l1.449,5.277a3.767,3.767,0,0,1,.1.629h.055a2.909,2.909,0,0,1,.116-.629L35.314,44Zm1.873-1.777a.71.71,0,0,1-.513-.205.692.692,0,0,1-.212-.52.718.718,0,0,1,.725-.731.724.724,0,0,1,.523.208.73.73,0,0,1,0,1.036A.718.718,0,0,1,38.295,42.223ZM38.842,51H37.721V44h1.121Zm3.391,0H41.111V40.637h1.121Zm3.391,0H44.5V40.637h1.121Zm11.915,0H56.417V47.008q0-2.229-1.627-2.229a1.765,1.765,0,0,0-1.391.632,2.344,2.344,0,0,0-.55,1.6V51H51.728V44h1.121v1.162h.027a2.526,2.526,0,0,1,2.3-1.326,2.142,2.142,0,0,1,1.757.742,3.3,3.3,0,0,1,.608,2.143Zm5.038.164a3.247,3.247,0,0,1-2.478-.981,3.634,3.634,0,0,1-.926-2.6,3.785,3.785,0,0,1,.964-2.755,3.465,3.465,0,0,1,2.6-.991,3.14,3.14,0,0,1,2.444.964,3.822,3.822,0,0,1,.878,2.673,3.761,3.761,0,0,1-.947,2.683A3.318,3.318,0,0,1,62.576,51.164Zm.082-6.385a2.132,2.132,0,0,0-1.709.735,3.018,3.018,0,0,0-.629,2.027,2.854,2.854,0,0,0,.636,1.962,2.161,2.161,0,0,0,1.7.718,2.049,2.049,0,0,0,1.671-.7,3.055,3.055,0,0,0,.584-2,3.108,3.108,0,0,0-.584-2.023A2.04,2.04,0,0,0,62.658,44.779ZM72.81,51H71.688V40.637H72.81Zm5.2.164a3.247,3.247,0,0,1-2.478-.981,3.633,3.633,0,0,1-.926-2.6,3.785,3.785,0,0,1,.964-2.755,3.465,3.465,0,0,1,2.6-.991,3.14,3.14,0,0,1,2.444.964,3.822,3.822,0,0,1,.878,2.673,3.761,3.761,0,0,1-.947,2.683A3.318,3.318,0,0,1,78,51.164Zm.082-6.385a2.132,2.132,0,0,0-1.709.735,3.018,3.018,0,0,0-.629,2.027,2.854,2.854,0,0,0,.636,1.962,2.161,2.161,0,0,0,1.7.718,2.049,2.049,0,0,0,1.671-.7,3.055,3.055,0,0,0,.584-2,3.108,3.108,0,0,0-.584-2.023A2.04,2.04,0,0,0,78.087,44.779ZM89.093,51H87.972V47.008q0-2.229-1.627-2.229a1.765,1.765,0,0,0-1.391.632,2.344,2.344,0,0,0-.55,1.6V51H83.282V44H84.4v1.162h.027a2.526,2.526,0,0,1,2.3-1.326,2.142,2.142,0,0,1,1.757.742,3.3,3.3,0,0,1,.608,2.143Zm8.087-.561q0,3.855-3.691,3.855a4.956,4.956,0,0,1-2.27-.492V52.682a4.661,4.661,0,0,0,2.256.656q2.584,0,2.584-2.748v-.766h-.027a2.832,2.832,0,0,1-4.508.407,3.73,3.73,0,0,1-.8-2.505,4.358,4.358,0,0,1,.858-2.837,2.866,2.866,0,0,1,2.348-1.053,2.282,2.282,0,0,1,2.1,1.135h.027V44H97.18Zm-1.121-2.6V46.8a2,2,0,0,0-.564-1.429,1.857,1.857,0,0,0-1.4-.595,1.947,1.947,0,0,0-1.627.755,3.372,3.372,0,0,0-.588,2.116,2.894,2.894,0,0,0,.564,1.87,1.822,1.822,0,0,0,1.494.7,1.951,1.951,0,0,0,1.535-.67A2.5,2.5,0,0,0,96.059,47.835Zm9.017-.055h-4.942a2.618,2.618,0,0,0,.629,1.8,2.168,2.168,0,0,0,1.654.636,3.439,3.439,0,0,0,2.174-.779v1.053a4.063,4.063,0,0,1-2.44.67,2.959,2.959,0,0,1-2.331-.954,3.9,3.9,0,0,1-.848-2.683,3.828,3.828,0,0,1,.926-2.663,2.97,2.97,0,0,1,2.3-1.029,2.632,2.632,0,0,1,2.126.889,3.705,3.705,0,0,1,.752,2.468Zm-1.148-.95a2.281,2.281,0,0,0-.468-1.511,1.6,1.6,0,0,0-1.282-.54,1.811,1.811,0,0,0-1.347.567,2.575,2.575,0,0,0-.684,1.483Zm6.494-1.7a1.371,1.371,0,0,0-.848-.226,1.431,1.431,0,0,0-1.2.677,3.129,3.129,0,0,0-.482,1.846V51h-1.121V44h1.121v1.442h.027a2.444,2.444,0,0,1,.731-1.152,1.668,1.668,0,0,1,1.1-.414,1.83,1.83,0,0,1,.67.1Zm6.2,4.854h-.027V51h-1.121V40.637h1.121V45.23h.027a2.651,2.651,0,0,1,2.42-1.395,2.566,2.566,0,0,1,2.109.94,3.881,3.881,0,0,1,.762,2.519,4.339,4.339,0,0,1-.854,2.813,2.845,2.845,0,0,1-2.338,1.056A2.3,2.3,0,0,1,116.621,49.988Zm-.027-2.823v.978a2.081,2.081,0,0,0,.564,1.473,2.012,2.012,0,0,0,3.028-.174,3.575,3.575,0,0,0,.578-2.167,2.822,2.822,0,0,0-.54-1.832,1.787,1.787,0,0,0-1.463-.663,1.986,1.986,0,0,0-1.572.68A2.5,2.5,0,0,0,116.594,47.165Zm12.735.615h-4.942a2.618,2.618,0,0,0,.629,1.8,2.168,2.168,0,0,0,1.654.636,3.439,3.439,0,0,0,2.174-.779v1.053a4.063,4.063,0,0,1-2.44.67,2.959,2.959,0,0,1-2.331-.954,3.9,3.9,0,0,1-.848-2.683,3.828,3.828,0,0,1,.926-2.663,2.97,2.97,0,0,1,2.3-1.029,2.632,2.632,0,0,1,2.126.889,3.705,3.705,0,0,1,.752,2.468Zm-1.148-.95a2.281,2.281,0,0,0-.468-1.511,1.6,1.6,0,0,0-1.282-.54,1.811,1.811,0,0,0-1.347.567,2.575,2.575,0,0,0-.684,1.483ZM139.87,51h-1.121V49.906h-.027a2.347,2.347,0,0,1-2.153,1.258,2.3,2.3,0,0,1-1.637-.554,1.918,1.918,0,0,1-.591-1.47q0-1.962,2.311-2.283l2.1-.294q0-1.784-1.442-1.784a3.446,3.446,0,0,0-2.283.861V44.492a4.338,4.338,0,0,1,2.379-.656q2.468,0,2.468,2.611Zm-1.121-3.541-1.688.232a2.741,2.741,0,0,0-1.176.386,1.114,1.114,0,0,0-.4.981,1.068,1.068,0,0,0,.366.837,1.413,1.413,0,0,0,.974.325,1.8,1.8,0,0,0,1.377-.584,2.088,2.088,0,0,0,.543-1.48Zm4.382,2.529H143.1V51h-1.121V40.637H143.1V45.23h.027a2.651,2.651,0,0,1,2.42-1.395,2.566,2.566,0,0,1,2.109.94,3.881,3.881,0,0,1,.762,2.519,4.339,4.339,0,0,1-.854,2.813,2.845,2.845,0,0,1-2.338,1.056A2.3,2.3,0,0,1,143.131,49.988Zm-.027-2.823v.978a2.081,2.081,0,0,0,.564,1.473,2.012,2.012,0,0,0,3.028-.174,3.575,3.575,0,0,0,.578-2.167,2.822,2.822,0,0,0-.54-1.832,1.787,1.787,0,0,0-1.463-.663,1.986,1.986,0,0,0-1.572.68A2.5,2.5,0,0,0,143.1,47.165ZM151.334,51h-1.121V40.637h1.121Zm7.9-3.22h-4.942a2.618,2.618,0,0,0,.629,1.8,2.168,2.168,0,0,0,1.654.636,3.439,3.439,0,0,0,2.174-.779v1.053a4.063,4.063,0,0,1-2.44.67,2.959,2.959,0,0,1-2.331-.954,3.9,3.9,0,0,1-.848-2.683,3.828,3.828,0,0,1,.926-2.663,2.97,2.97,0,0,1,2.3-1.029,2.632,2.632,0,0,1,2.126.889,3.705,3.705,0,0,1,.752,2.468Zm-1.148-.95a2.281,2.281,0,0,0-.468-1.511,1.6,1.6,0,0,0-1.282-.54,1.811,1.811,0,0,0-1.347.567,2.575,2.575,0,0,0-.684,1.483Zm9.926,4.1a2.162,2.162,0,0,1-1.046.219q-1.839,0-1.839-2.051V44.957h-1.2V44h1.2V42.291l1.121-.362V44h1.764v.957h-1.764V48.9a1.635,1.635,0,0,0,.239,1,.955.955,0,0,0,.793.3,1.179,1.179,0,0,0,.731-.232Zm4.423.232a3.247,3.247,0,0,1-2.478-.981,3.634,3.634,0,0,1-.926-2.6,3.785,3.785,0,0,1,.964-2.755,3.465,3.465,0,0,1,2.6-.991,3.14,3.14,0,0,1,2.444.964,3.822,3.822,0,0,1,.878,2.673,3.761,3.761,0,0,1-.947,2.683A3.318,3.318,0,0,1,172.43,51.164Zm.082-6.385a2.132,2.132,0,0,0-1.709.735,3.018,3.018,0,0,0-.629,2.027,2.854,2.854,0,0,0,.636,1.962,2.161,2.161,0,0,0,1.7.718,2.049,2.049,0,0,0,1.671-.7,3.055,3.055,0,0,0,.584-2,3.108,3.108,0,0,0-.584-2.023A2.04,2.04,0,0,0,172.512,44.779Zm8.606,5.968v-1.2a3.318,3.318,0,0,0,2.017.677q1.477,0,1.477-.984a.854.854,0,0,0-.126-.475,1.26,1.26,0,0,0-.342-.345,2.631,2.631,0,0,0-.506-.27q-.291-.12-.625-.25a8.056,8.056,0,0,1-.817-.373,2.468,2.468,0,0,1-.588-.424,1.577,1.577,0,0,1-.355-.537,1.9,1.9,0,0,1-.12-.7,1.673,1.673,0,0,1,.226-.872,2,2,0,0,1,.6-.636,2.805,2.805,0,0,1,.858-.386,3.805,3.805,0,0,1,.995-.13,4.016,4.016,0,0,1,1.627.314v1.135a3.171,3.171,0,0,0-1.777-.506,2.078,2.078,0,0,0-.567.072,1.389,1.389,0,0,0-.434.2.932.932,0,0,0-.28.311.819.819,0,0,0-.1.4.959.959,0,0,0,.1.458,1.008,1.008,0,0,0,.291.328,2.221,2.221,0,0,0,.465.26q.273.116.622.253a8.658,8.658,0,0,1,.834.366,2.86,2.86,0,0,1,.629.424,1.656,1.656,0,0,1,.4.543,1.753,1.753,0,0,1,.14.731,1.725,1.725,0,0,1-.229.9,1.963,1.963,0,0,1-.612.636,2.8,2.8,0,0,1-.882.376,4.354,4.354,0,0,1-1.046.123A3.971,3.971,0,0,1,181.118,50.747ZM193.293,51h-1.121V46.967q0-2.187-1.627-2.187a1.774,1.774,0,0,0-1.381.632,2.356,2.356,0,0,0-.561,1.624V51h-1.121V40.637H188.6v4.525h.027a2.546,2.546,0,0,1,2.3-1.326q2.365,0,2.365,2.851Zm5.038.164a3.247,3.247,0,0,1-2.478-.981,3.634,3.634,0,0,1-.926-2.6,3.785,3.785,0,0,1,.964-2.755,3.465,3.465,0,0,1,2.6-.991,3.14,3.14,0,0,1,2.444.964,3.822,3.822,0,0,1,.878,2.673,3.761,3.761,0,0,1-.947,2.683A3.318,3.318,0,0,1,198.331,51.164Zm.082-6.385a2.132,2.132,0,0,0-1.709.735,3.018,3.018,0,0,0-.629,2.027,2.854,2.854,0,0,0,.636,1.962,2.161,2.161,0,0,0,1.7.718,2.049,2.049,0,0,0,1.671-.7,3.055,3.055,0,0,0,.584-2,3.108,3.108,0,0,0-.584-2.023A2.04,2.04,0,0,0,198.413,44.779Zm6.344,5.209h-.027V54.22h-1.121V44h1.121v1.23h.027a2.651,2.651,0,0,1,2.42-1.395,2.563,2.563,0,0,1,2.112.94,3.893,3.893,0,0,1,.759,2.519,4.339,4.339,0,0,1-.854,2.813,2.845,2.845,0,0,1-2.338,1.056A2.342,2.342,0,0,1,204.757,49.988Zm-.027-2.823v.978a2.081,2.081,0,0,0,.564,1.473,2.012,2.012,0,0,0,3.028-.174,3.575,3.575,0,0,0,.578-2.167,2.822,2.822,0,0,0-.54-1.832,1.787,1.787,0,0,0-1.463-.663,1.986,1.986,0,0,0-1.572.68A2.5,2.5,0,0,0,204.729,47.165Zm14.4-5.544a1.493,1.493,0,0,0-.745-.185q-1.176,0-1.176,1.483V44h1.641v.957h-1.641V51H216.1V44.957h-1.2V44h1.2V42.865a2.358,2.358,0,0,1,.636-1.74,2.146,2.146,0,0,1,1.586-.639,2.2,2.2,0,0,1,.813.123Zm3.849,9.543a3.247,3.247,0,0,1-2.478-.981,3.634,3.634,0,0,1-.926-2.6,3.785,3.785,0,0,1,.964-2.755,3.465,3.465,0,0,1,2.6-.991,3.14,3.14,0,0,1,2.444.964,3.822,3.822,0,0,1,.878,2.673,3.761,3.761,0,0,1-.947,2.683A3.318,3.318,0,0,1,222.981,51.164Zm.082-6.385a2.132,2.132,0,0,0-1.709.735,3.018,3.018,0,0,0-.629,2.027,2.854,2.854,0,0,0,.636,1.962,2.161,2.161,0,0,0,1.7.718,2.049,2.049,0,0,0,1.671-.7,3.055,3.055,0,0,0,.584-2,3.108,3.108,0,0,0-.584-2.023A2.04,2.04,0,0,0,223.063,44.779Zm8.846.355a1.371,1.371,0,0,0-.848-.226,1.431,1.431,0,0,0-1.2.677,3.129,3.129,0,0,0-.482,1.846V51h-1.121V44h1.121v1.442h.027a2.444,2.444,0,0,1,.731-1.152,1.668,1.668,0,0,1,1.1-.414,1.83,1.83,0,0,1,.67.1ZM241.972,51h-1.121V49.906h-.027a2.347,2.347,0,0,1-2.153,1.258,2.3,2.3,0,0,1-1.637-.554,1.918,1.918,0,0,1-.591-1.47q0-1.962,2.311-2.283l2.1-.294q0-1.784-1.442-1.784a3.446,3.446,0,0,0-2.283.861V44.492a4.338,4.338,0,0,1,2.379-.656q2.468,0,2.468,2.611Zm-1.121-3.541-1.688.232a2.741,2.741,0,0,0-1.176.386,1.114,1.114,0,0,0-.4.981,1.068,1.068,0,0,0,.366.837,1.413,1.413,0,0,0,.974.325,1.8,1.8,0,0,0,1.377-.584,2.088,2.088,0,0,0,.543-1.48ZM250.059,51h-1.121V49.811h-.027a2.588,2.588,0,0,1-2.406,1.354,2.615,2.615,0,0,1-2.109-.94,3.856,3.856,0,0,1-.79-2.56,4.2,4.2,0,0,1,.875-2.782,2.886,2.886,0,0,1,2.331-1.046,2.244,2.244,0,0,1,2.1,1.135h.027V40.637h1.121Zm-1.121-3.165V46.8a2,2,0,0,0-.561-1.436,1.88,1.88,0,0,0-1.422-.588,1.936,1.936,0,0,0-1.613.752,3.3,3.3,0,0,0-.588,2.078,2.964,2.964,0,0,0,.564,1.911,1.843,1.843,0,0,0,1.514.7,1.915,1.915,0,0,0,1.521-.677A2.521,2.521,0,0,0,248.938,47.835ZM258.3,51h-1.121V49.811h-.027a2.588,2.588,0,0,1-2.406,1.354,2.615,2.615,0,0,1-2.109-.94,3.856,3.856,0,0,1-.79-2.56,4.2,4.2,0,0,1,.875-2.782,2.886,2.886,0,0,1,2.331-1.046,2.244,2.244,0,0,1,2.1,1.135h.027V40.637H258.3Zm-1.121-3.165V46.8a2,2,0,0,0-.561-1.436,1.88,1.88,0,0,0-1.422-.588,1.936,1.936,0,0,0-1.613.752A3.3,3.3,0,0,0,253,47.609a2.964,2.964,0,0,0,.564,1.911,1.843,1.843,0,0,0,1.514.7,1.915,1.915,0,0,0,1.521-.677A2.521,2.521,0,0,0,257.182,47.835Zm3.965-5.612a.71.71,0,0,1-.513-.205.692.692,0,0,1-.212-.52.718.718,0,0,1,.725-.731.724.724,0,0,1,.523.208.73.73,0,0,1,0,1.036A.718.718,0,0,1,261.146,42.223ZM261.693,51h-1.121V44h1.121Zm5.517-.068a2.161,2.161,0,0,1-1.046.219q-1.839,0-1.839-2.051V44.957h-1.2V44h1.2V42.291l1.121-.362V44h1.764v.957h-1.764V48.9a1.635,1.635,0,0,0,.239,1,.955.955,0,0,0,.793.3,1.179,1.179,0,0,0,.731-.232Zm2.071-8.709a.71.71,0,0,1-.513-.205.692.692,0,0,1-.212-.52.718.718,0,0,1,.725-.731.724.724,0,0,1,.523.208.73.73,0,0,1,0,1.036A.718.718,0,0,1,269.281,42.223ZM269.828,51h-1.121V44h1.121Zm5.2.164a3.247,3.247,0,0,1-2.478-.981,3.633,3.633,0,0,1-.926-2.6,3.785,3.785,0,0,1,.964-2.755,3.465,3.465,0,0,1,2.6-.991,3.14,3.14,0,0,1,2.444.964,3.822,3.822,0,0,1,.878,2.673,3.761,3.761,0,0,1-.947,2.683A3.318,3.318,0,0,1,275.023,51.164Zm.082-6.385a2.132,2.132,0,0,0-1.709.735,3.018,3.018,0,0,0-.629,2.027A2.854,2.854,0,0,0,273.4,49.5a2.161,2.161,0,0,0,1.7.718,2.049,2.049,0,0,0,1.671-.7,3.055,3.055,0,0,0,.584-2,3.108,3.108,0,0,0-.584-2.023A2.04,2.04,0,0,0,275.105,44.779ZM286.111,51H284.99V47.008q0-2.229-1.627-2.229a1.765,1.765,0,0,0-1.391.632,2.344,2.344,0,0,0-.55,1.6V51H280.3V44h1.121v1.162h.027a2.526,2.526,0,0,1,2.3-1.326,2.142,2.142,0,0,1,1.757.742,3.3,3.3,0,0,1,.608,2.143Zm7.123,0h-1.121V49.906h-.027a2.347,2.347,0,0,1-2.153,1.258,2.3,2.3,0,0,1-1.637-.554,1.918,1.918,0,0,1-.591-1.47q0-1.962,2.311-2.283l2.1-.294q0-1.784-1.442-1.784a3.446,3.446,0,0,0-2.283.861V44.492a4.338,4.338,0,0,1,2.379-.656q2.468,0,2.468,2.611Zm-1.121-3.541-1.688.232a2.741,2.741,0,0,0-1.176.386,1.114,1.114,0,0,0-.4.981,1.068,1.068,0,0,0,.366.837,1.413,1.413,0,0,0,.974.325,1.8,1.8,0,0,0,1.377-.584,2.088,2.088,0,0,0,.543-1.48ZM296.468,51h-1.121V40.637h1.121Zm7.253-1.012h-.027V54.22h-1.121V44h1.121v1.23h.027a2.651,2.651,0,0,1,2.42-1.395,2.563,2.563,0,0,1,2.112.94,3.893,3.893,0,0,1,.759,2.519,4.339,4.339,0,0,1-.854,2.813,2.845,2.845,0,0,1-2.338,1.056A2.342,2.342,0,0,1,303.721,49.988Zm-.027-2.823v.978a2.081,2.081,0,0,0,.564,1.473,2.012,2.012,0,0,0,3.028-.174,3.575,3.575,0,0,0,.578-2.167,2.822,2.822,0,0,0-.54-1.832,1.787,1.787,0,0,0-1.463-.663,1.986,1.986,0,0,0-1.572.68A2.5,2.5,0,0,0,303.693,47.165ZM311.924,51H310.8V40.637h1.121Zm7.28,0h-1.121V49.906h-.027a2.347,2.347,0,0,1-2.153,1.258,2.3,2.3,0,0,1-1.637-.554,1.918,1.918,0,0,1-.591-1.47q0-1.962,2.311-2.283l2.1-.294q0-1.784-1.442-1.784a3.446,3.446,0,0,0-2.283.861V44.492a4.338,4.338,0,0,1,2.379-.656q2.468,0,2.468,2.611Zm-1.121-3.541-1.688.232a2.741,2.741,0,0,0-1.176.386,1.114,1.114,0,0,0-.4.981,1.068,1.068,0,0,0,.366.837,1.413,1.413,0,0,0,.974.325,1.8,1.8,0,0,0,1.377-.584,2.088,2.088,0,0,0,.543-1.48ZM327.127,51h-1.121V47.008q0-2.229-1.627-2.229a1.765,1.765,0,0,0-1.391.632,2.344,2.344,0,0,0-.55,1.6V51h-1.121V44h1.121v1.162h.027a2.526,2.526,0,0,1,2.3-1.326,2.142,2.142,0,0,1,1.757.742,3.3,3.3,0,0,1,.608,2.143Zm1.688-.253v-1.2a3.318,3.318,0,0,0,2.017.677q1.477,0,1.477-.984a.854.854,0,0,0-.126-.475,1.261,1.261,0,0,0-.342-.345,2.631,2.631,0,0,0-.506-.27q-.291-.12-.625-.25a8.056,8.056,0,0,1-.817-.373,2.468,2.468,0,0,1-.588-.424,1.577,1.577,0,0,1-.355-.537,1.9,1.9,0,0,1-.12-.7,1.673,1.673,0,0,1,.226-.872,2,2,0,0,1,.6-.636,2.805,2.805,0,0,1,.858-.386,3.805,3.805,0,0,1,.995-.13,4.016,4.016,0,0,1,1.627.314v1.135a3.171,3.171,0,0,0-1.777-.506,2.078,2.078,0,0,0-.567.072,1.389,1.389,0,0,0-.434.2.932.932,0,0,0-.28.311.819.819,0,0,0-.1.4.959.959,0,0,0,.1.458,1.008,1.008,0,0,0,.291.328,2.221,2.221,0,0,0,.465.26q.273.116.622.253a8.657,8.657,0,0,1,.834.366,2.861,2.861,0,0,1,.629.424,1.656,1.656,0,0,1,.4.543,1.753,1.753,0,0,1,.14.731,1.724,1.724,0,0,1-.229.9,1.963,1.963,0,0,1-.612.636,2.8,2.8,0,0,1-.882.376,4.354,4.354,0,0,1-1.046.123A3.971,3.971,0,0,1,328.815,50.747Zm7.39-1.306L335.111,52.8h-.8l.8-3.363ZM347.71,51h-1.121V49.893h-.027a2.3,2.3,0,0,1-2.16,1.271q-2.5,0-2.5-2.98V44h1.114v4.006q0,2.215,1.7,2.215a1.715,1.715,0,0,0,1.35-.6,2.315,2.315,0,0,0,.53-1.583V44h1.121Zm3.411-1.012h-.027V54.22h-1.121V44h1.121v1.23h.027a2.651,2.651,0,0,1,2.42-1.395,2.563,2.563,0,0,1,2.112.94,3.893,3.893,0,0,1,.759,2.519,4.339,4.339,0,0,1-.854,2.813,2.845,2.845,0,0,1-2.338,1.056A2.342,2.342,0,0,1,351.121,49.988Zm-.027-2.823v.978a2.081,2.081,0,0,0,.564,1.473,2.012,2.012,0,0,0,3.028-.174,3.575,3.575,0,0,0,.578-2.167,2.822,2.822,0,0,0-.54-1.832,1.787,1.787,0,0,0-1.463-.663,1.986,1.986,0,0,0-1.572.68A2.5,2.5,0,0,0,351.094,47.165ZM364.178,51h-1.121V49.811h-.027a2.588,2.588,0,0,1-2.406,1.354,2.615,2.615,0,0,1-2.109-.94,3.856,3.856,0,0,1-.79-2.56,4.2,4.2,0,0,1,.875-2.782,2.886,2.886,0,0,1,2.331-1.046,2.244,2.244,0,0,1,2.1,1.135h.027V40.637h1.121Zm-1.121-3.165V46.8a2,2,0,0,0-.561-1.436,1.88,1.88,0,0,0-1.422-.588,1.936,1.936,0,0,0-1.613.752,3.3,3.3,0,0,0-.588,2.078,2.964,2.964,0,0,0,.564,1.911,1.843,1.843,0,0,0,1.514.7,1.915,1.915,0,0,0,1.521-.677A2.521,2.521,0,0,0,363.057,47.835Zm8.4,3.165h-1.121V49.906h-.027a2.347,2.347,0,0,1-2.153,1.258,2.3,2.3,0,0,1-1.637-.554,1.918,1.918,0,0,1-.591-1.47q0-1.962,2.311-2.283l2.1-.294q0-1.784-1.442-1.784a3.446,3.446,0,0,0-2.283.861V44.492a4.338,4.338,0,0,1,2.379-.656q2.468,0,2.468,2.611Zm-1.121-3.541-1.688.232a2.741,2.741,0,0,0-1.176.386,1.114,1.114,0,0,0-.4.981,1.068,1.068,0,0,0,.366.837,1.413,1.413,0,0,0,.974.325,1.8,1.8,0,0,0,1.377-.584,2.088,2.088,0,0,0,.543-1.48Zm6.48,3.473a2.161,2.161,0,0,1-1.046.219q-1.839,0-1.839-2.051V44.957h-1.2V44h1.2V42.291l1.121-.362V44h1.764v.957h-1.764V48.9a1.635,1.635,0,0,0,.239,1,.955.955,0,0,0,.793.3,1.179,1.179,0,0,0,.731-.232Zm7.123-3.151H379a2.618,2.618,0,0,0,.629,1.8,2.168,2.168,0,0,0,1.654.636,3.439,3.439,0,0,0,2.174-.779v1.053a4.063,4.063,0,0,1-2.44.67,2.959,2.959,0,0,1-2.331-.954,3.9,3.9,0,0,1-.848-2.683,3.828,3.828,0,0,1,.926-2.663,2.97,2.97,0,0,1,2.3-1.029,2.632,2.632,0,0,1,2.126.889,3.705,3.705,0,0,1,.752,2.468Zm-1.148-.95a2.281,2.281,0,0,0-.468-1.511,1.6,1.6,0,0,0-1.282-.54,1.811,1.811,0,0,0-1.347.567,2.575,2.575,0,0,0-.684,1.483ZM5.906,68.679a3.643,3.643,0,0,1-1.914.485,3.169,3.169,0,0,1-2.417-.974,3.53,3.53,0,0,1-.919-2.526,3.881,3.881,0,0,1,.991-2.779,3.468,3.468,0,0,1,2.646-1.049,3.682,3.682,0,0,1,1.627.342v1.148a2.85,2.85,0,0,0-1.668-.547,2.254,2.254,0,0,0-1.76.769,2.918,2.918,0,0,0-.687,2.02,2.779,2.779,0,0,0,.646,1.941,2.227,2.227,0,0,0,1.733.711,2.81,2.81,0,0,0,1.723-.608Zm4.621.485a3.247,3.247,0,0,1-2.478-.981,3.633,3.633,0,0,1-.926-2.6,3.785,3.785,0,0,1,.964-2.755,3.465,3.465,0,0,1,2.6-.991,3.14,3.14,0,0,1,2.444.964,3.822,3.822,0,0,1,.878,2.673,3.761,3.761,0,0,1-.947,2.683A3.317,3.317,0,0,1,10.527,69.164Zm.082-6.385a2.132,2.132,0,0,0-1.709.735,3.018,3.018,0,0,0-.629,2.027A2.854,2.854,0,0,0,8.907,67.5a2.161,2.161,0,0,0,1.7.718,2.05,2.05,0,0,0,1.671-.7,3.055,3.055,0,0,0,.584-2,3.108,3.108,0,0,0-.584-2.023A2.04,2.04,0,0,0,10.609,62.779ZM21.615,69H20.494V65.008q0-2.229-1.627-2.229a1.765,1.765,0,0,0-1.391.632,2.344,2.344,0,0,0-.55,1.6V69H15.8V62h1.121v1.162h.027a2.526,2.526,0,0,1,2.3-1.326,2.142,2.142,0,0,1,1.757.742,3.3,3.3,0,0,1,.608,2.143Zm5.359-.068a2.161,2.161,0,0,1-1.046.219q-1.839,0-1.839-2.051V62.957h-1.2V62h1.2V60.291l1.121-.362V62h1.764v.957H25.211V66.9a1.635,1.635,0,0,0,.239,1,.955.955,0,0,0,.793.3,1.179,1.179,0,0,0,.731-.232Zm5.147-5.8a1.371,1.371,0,0,0-.848-.226,1.431,1.431,0,0,0-1.2.677,3.129,3.129,0,0,0-.482,1.846V69H28.472V62h1.121v1.442h.027a2.444,2.444,0,0,1,.731-1.152,1.668,1.668,0,0,1,1.1-.414,1.83,1.83,0,0,1,.67.1Zm1.791-2.912a.71.71,0,0,1-.513-.205.692.692,0,0,1-.212-.52.718.718,0,0,1,.725-.731.724.724,0,0,1,.523.208.73.73,0,0,1,0,1.036A.718.718,0,0,1,33.913,60.223ZM34.46,69H33.339V62H34.46Zm3.418-1.012h-.027V69H36.729V58.637h1.121V63.23h.027a2.651,2.651,0,0,1,2.42-1.395,2.566,2.566,0,0,1,2.109.94,3.881,3.881,0,0,1,.762,2.519,4.339,4.339,0,0,1-.854,2.813,2.845,2.845,0,0,1-2.338,1.056A2.3,2.3,0,0,1,37.878,67.988Zm-.027-2.823v.978a2.081,2.081,0,0,0,.564,1.473,2.012,2.012,0,0,0,3.028-.174,3.575,3.575,0,0,0,.578-2.167,2.822,2.822,0,0,0-.54-1.832,1.787,1.787,0,0,0-1.463-.663,1.986,1.986,0,0,0-1.572.68A2.5,2.5,0,0,0,37.851,65.165ZM50.62,69H49.5V67.893h-.027a2.3,2.3,0,0,1-2.16,1.271q-2.5,0-2.5-2.98V62h1.114v4.006q0,2.215,1.7,2.215a1.715,1.715,0,0,0,1.35-.6,2.315,2.315,0,0,0,.53-1.583V62H50.62Zm5.51-.068a2.161,2.161,0,0,1-1.046.219q-1.839,0-1.839-2.051V62.957h-1.2V62h1.2V60.291l1.121-.362V62H56.13v.957H54.366V66.9a1.635,1.635,0,0,0,.239,1,.955.955,0,0,0,.793.3,1.179,1.179,0,0,0,.731-.232ZM58.2,60.223a.71.71,0,0,1-.513-.205.692.692,0,0,1-.212-.52.718.718,0,0,1,.725-.731.724.724,0,0,1,.523.208.73.73,0,0,1,0,1.036A.718.718,0,0,1,58.2,60.223ZM58.748,69H57.627V62h1.121Zm5.2.164a3.247,3.247,0,0,1-2.478-.981,3.634,3.634,0,0,1-.926-2.6,3.785,3.785,0,0,1,.964-2.755,3.465,3.465,0,0,1,2.6-.991,3.14,3.14,0,0,1,2.444.964,3.822,3.822,0,0,1,.878,2.673,3.761,3.761,0,0,1-.947,2.683A3.317,3.317,0,0,1,63.943,69.164Zm.082-6.385a2.132,2.132,0,0,0-1.709.735,3.018,3.018,0,0,0-.629,2.027,2.854,2.854,0,0,0,.636,1.962,2.161,2.161,0,0,0,1.7.718,2.05,2.05,0,0,0,1.671-.7,3.055,3.055,0,0,0,.584-2A3.108,3.108,0,0,0,65.7,63.49,2.04,2.04,0,0,0,64.025,62.779ZM75.031,69H73.91V65.008q0-2.229-1.627-2.229a1.765,1.765,0,0,0-1.391.632,2.344,2.344,0,0,0-.55,1.6V69H69.221V62h1.121v1.162h.027a2.526,2.526,0,0,1,2.3-1.326,2.142,2.142,0,0,1,1.757.742,3.3,3.3,0,0,1,.608,2.143Zm1.688-.253v-1.2a3.318,3.318,0,0,0,2.017.677q1.477,0,1.477-.984a.854.854,0,0,0-.126-.475,1.26,1.26,0,0,0-.342-.345,2.631,2.631,0,0,0-.506-.27q-.291-.12-.625-.25a8.055,8.055,0,0,1-.817-.373,2.468,2.468,0,0,1-.588-.424,1.577,1.577,0,0,1-.355-.537,1.9,1.9,0,0,1-.12-.7,1.673,1.673,0,0,1,.226-.872,2,2,0,0,1,.6-.636,2.805,2.805,0,0,1,.858-.386,3.805,3.805,0,0,1,.995-.13,4.016,4.016,0,0,1,1.627.314v1.135a3.171,3.171,0,0,0-1.777-.506,2.078,2.078,0,0,0-.567.072,1.389,1.389,0,0,0-.434.2.932.932,0,0,0-.28.311.819.819,0,0,0-.1.4.959.959,0,0,0,.1.458,1.008,1.008,0,0,0,.291.328,2.221,2.221,0,0,0,.465.26q.273.116.622.253a8.657,8.657,0,0,1,.834.366,2.86,2.86,0,0,1,.629.424,1.656,1.656,0,0,1,.4.543,1.753,1.753,0,0,1,.14.731,1.725,1.725,0,0,1-.229.9,1.963,1.963,0,0,1-.612.636,2.8,2.8,0,0,1-.882.376,4.354,4.354,0,0,1-1.046.123A3.971,3.971,0,0,1,76.72,68.747Zm7.39-1.306L83.016,70.8h-.8l.8-3.363Zm8.771,1.723a3.247,3.247,0,0,1-2.478-.981,3.633,3.633,0,0,1-.926-2.6,3.785,3.785,0,0,1,.964-2.755,3.465,3.465,0,0,1,2.6-.991,3.14,3.14,0,0,1,2.444.964,3.822,3.822,0,0,1,.878,2.673,3.761,3.761,0,0,1-.947,2.683A3.317,3.317,0,0,1,92.88,69.164Zm.082-6.385a2.132,2.132,0,0,0-1.709.735,3.018,3.018,0,0,0-.629,2.027A2.854,2.854,0,0,0,91.26,67.5a2.161,2.161,0,0,0,1.7.718,2.05,2.05,0,0,0,1.671-.7,3.055,3.055,0,0,0,.584-2,3.108,3.108,0,0,0-.584-2.023A2.04,2.04,0,0,0,92.962,62.779Zm8.846.355a1.371,1.371,0,0,0-.848-.226,1.431,1.431,0,0,0-1.2.677,3.129,3.129,0,0,0-.482,1.846V69H98.157V62h1.121v1.442h.027a2.444,2.444,0,0,1,.731-1.152,1.668,1.668,0,0,1,1.1-.414,1.83,1.83,0,0,1,.67.1ZM116.8,69h-1.121V64.98a3.032,3.032,0,0,0-.359-1.682,1.361,1.361,0,0,0-1.207-.52,1.494,1.494,0,0,0-1.22.656,2.511,2.511,0,0,0-.5,1.572V69h-1.121V64.844q0-2.064-1.593-2.064a1.475,1.475,0,0,0-1.217.619,2.557,2.557,0,0,0-.479,1.61V69h-1.121V62h1.121v1.107h.027a2.378,2.378,0,0,1,2.174-1.271,2.022,2.022,0,0,1,1.982,1.449,2.5,2.5,0,0,1,2.324-1.449q2.311,0,2.311,2.851Zm7.13,0h-1.121V67.906h-.027a2.347,2.347,0,0,1-2.153,1.258,2.3,2.3,0,0,1-1.637-.554,1.918,1.918,0,0,1-.591-1.47q0-1.962,2.311-2.283l2.1-.294q0-1.784-1.442-1.784a3.446,3.446,0,0,0-2.283.861V62.492a4.338,4.338,0,0,1,2.379-.656q2.468,0,2.468,2.611Zm-1.121-3.541-1.688.232a2.741,2.741,0,0,0-1.176.386,1.114,1.114,0,0,0-.4.981,1.068,1.068,0,0,0,.366.837,1.413,1.413,0,0,0,.974.325,1.8,1.8,0,0,0,1.377-.584,2.088,2.088,0,0,0,.543-1.48Zm6.884-2.324a1.371,1.371,0,0,0-.848-.226,1.431,1.431,0,0,0-1.2.677,3.129,3.129,0,0,0-.482,1.846V69h-1.121V62h1.121v1.442h.027a2.444,2.444,0,0,1,.731-1.152,1.668,1.668,0,0,1,1.1-.414,1.83,1.83,0,0,1,.67.1ZM136.719,69h-1.572l-3.09-3.363h-.027V69h-1.121V58.637h1.121v6.569h.027L135,62h1.47l-3.247,3.377Zm9.994,0h-1.121V67.906h-.027a2.347,2.347,0,0,1-2.153,1.258,2.3,2.3,0,0,1-1.637-.554,1.918,1.918,0,0,1-.591-1.47q0-1.962,2.311-2.283l2.1-.294q0-1.784-1.442-1.784a3.446,3.446,0,0,0-2.283.861V62.492a4.338,4.338,0,0,1,2.379-.656q2.468,0,2.468,2.611Zm-1.121-3.541-1.688.232a2.741,2.741,0,0,0-1.176.386,1.114,1.114,0,0,0-.4.981,1.068,1.068,0,0,0,.366.837,1.413,1.413,0,0,0,.974.325,1.8,1.8,0,0,0,1.377-.584,2.088,2.088,0,0,0,.543-1.48ZM154.8,69h-1.121V67.811h-.027a2.588,2.588,0,0,1-2.406,1.354,2.615,2.615,0,0,1-2.109-.94,3.856,3.856,0,0,1-.79-2.56,4.2,4.2,0,0,1,.875-2.782,2.886,2.886,0,0,1,2.331-1.046,2.244,2.244,0,0,1,2.1,1.135h.027V58.637H154.8Zm-1.121-3.165V64.8a2,2,0,0,0-.561-1.436,1.88,1.88,0,0,0-1.422-.588,1.936,1.936,0,0,0-1.613.752,3.3,3.3,0,0,0-.588,2.078,2.964,2.964,0,0,0,.564,1.911,1.843,1.843,0,0,0,1.514.7,1.915,1.915,0,0,0,1.521-.677A2.521,2.521,0,0,0,153.679,65.835ZM163.044,69h-1.121V67.811H161.9a2.588,2.588,0,0,1-2.406,1.354,2.615,2.615,0,0,1-2.109-.94,3.856,3.856,0,0,1-.79-2.56,4.2,4.2,0,0,1,.875-2.782,2.886,2.886,0,0,1,2.331-1.046,2.244,2.244,0,0,1,2.1,1.135h.027V58.637h1.121Zm-1.121-3.165V64.8a2,2,0,0,0-.561-1.436,1.88,1.88,0,0,0-1.422-.588,1.936,1.936,0,0,0-1.613.752,3.3,3.3,0,0,0-.588,2.078,2.964,2.964,0,0,0,.564,1.911,1.843,1.843,0,0,0,1.514.7,1.915,1.915,0,0,0,1.521-.677A2.521,2.521,0,0,0,161.923,65.835Zm3.965-5.612a.71.71,0,0,1-.513-.205.692.692,0,0,1-.212-.52.718.718,0,0,1,.725-.731.724.724,0,0,1,.523.208.73.73,0,0,1,0,1.036A.718.718,0,0,1,165.888,60.223ZM166.435,69h-1.121V62h1.121Zm5.517-.068a2.161,2.161,0,0,1-1.046.219q-1.839,0-1.839-2.051V62.957h-1.2V62h1.2V60.291l1.121-.362V62h1.764v.957h-1.764V66.9a1.635,1.635,0,0,0,.239,1,.955.955,0,0,0,.793.3,1.179,1.179,0,0,0,.731-.232Zm2.071-8.709a.71.71,0,0,1-.513-.205.692.692,0,0,1-.212-.52.718.718,0,0,1,.725-.731.724.724,0,0,1,.523.208.73.73,0,0,1,0,1.036A.718.718,0,0,1,174.022,60.223ZM174.569,69h-1.121V62h1.121Zm5.2.164a3.247,3.247,0,0,1-2.478-.981,3.634,3.634,0,0,1-.926-2.6,3.785,3.785,0,0,1,.964-2.755,3.465,3.465,0,0,1,2.6-.991,3.14,3.14,0,0,1,2.444.964,3.822,3.822,0,0,1,.878,2.673,3.761,3.761,0,0,1-.947,2.683A3.317,3.317,0,0,1,179.765,69.164Zm.082-6.385a2.132,2.132,0,0,0-1.709.735,3.018,3.018,0,0,0-.629,2.027,2.854,2.854,0,0,0,.636,1.962,2.161,2.161,0,0,0,1.7.718,2.05,2.05,0,0,0,1.671-.7,3.055,3.055,0,0,0,.584-2,3.108,3.108,0,0,0-.584-2.023A2.04,2.04,0,0,0,179.847,62.779ZM190.853,69h-1.121V65.008q0-2.229-1.627-2.229a1.765,1.765,0,0,0-1.391.632,2.344,2.344,0,0,0-.55,1.6V69h-1.121V62h1.121v1.162h.027a2.526,2.526,0,0,1,2.3-1.326,2.142,2.142,0,0,1,1.757.742,3.3,3.3,0,0,1,.608,2.143Zm7.123,0h-1.121V67.906h-.027a2.347,2.347,0,0,1-2.153,1.258,2.3,2.3,0,0,1-1.637-.554,1.918,1.918,0,0,1-.591-1.47q0-1.962,2.311-2.283l2.1-.294q0-1.784-1.442-1.784a3.446,3.446,0,0,0-2.283.861V62.492a4.338,4.338,0,0,1,2.379-.656q2.468,0,2.468,2.611Zm-1.121-3.541-1.688.232a2.741,2.741,0,0,0-1.176.386,1.114,1.114,0,0,0-.4.981,1.068,1.068,0,0,0,.366.837,1.413,1.413,0,0,0,.974.325,1.8,1.8,0,0,0,1.377-.584,2.088,2.088,0,0,0,.543-1.48ZM201.209,69h-1.121V58.637h1.121Zm7.253-1.012h-.027V72.22h-1.121V62h1.121v1.23h.027a2.651,2.651,0,0,1,2.42-1.395,2.563,2.563,0,0,1,2.112.94,3.893,3.893,0,0,1,.759,2.519,4.339,4.339,0,0,1-.854,2.813,2.845,2.845,0,0,1-2.338,1.056A2.342,2.342,0,0,1,208.462,67.988Zm-.027-2.823v.978A2.081,2.081,0,0,0,209,67.616a2.012,2.012,0,0,0,3.028-.174,3.575,3.575,0,0,0,.578-2.167,2.822,2.822,0,0,0-.54-1.832,1.787,1.787,0,0,0-1.463-.663,1.986,1.986,0,0,0-1.572.68A2.5,2.5,0,0,0,208.435,65.165ZM216.665,69h-1.121V58.637h1.121Zm7.28,0h-1.121V67.906H222.8a2.347,2.347,0,0,1-2.153,1.258,2.3,2.3,0,0,1-1.637-.554,1.918,1.918,0,0,1-.591-1.47q0-1.962,2.311-2.283l2.1-.294q0-1.784-1.442-1.784a3.446,3.446,0,0,0-2.283.861V62.492a4.338,4.338,0,0,1,2.379-.656q2.468,0,2.468,2.611Zm-1.121-3.541-1.688.232a2.741,2.741,0,0,0-1.176.386,1.114,1.114,0,0,0-.4.981,1.068,1.068,0,0,0,.366.837,1.413,1.413,0,0,0,.974.325,1.8,1.8,0,0,0,1.377-.584,2.088,2.088,0,0,0,.543-1.48ZM231.868,69h-1.121V65.008q0-2.229-1.627-2.229a1.765,1.765,0,0,0-1.391.632,2.344,2.344,0,0,0-.55,1.6V69h-1.121V62h1.121v1.162h.027a2.526,2.526,0,0,1,2.3-1.326,2.142,2.142,0,0,1,1.757.742,3.3,3.3,0,0,1,.608,2.143Zm1.688-.253v-1.2a3.318,3.318,0,0,0,2.017.677q1.477,0,1.477-.984a.854.854,0,0,0-.126-.475,1.26,1.26,0,0,0-.342-.345,2.631,2.631,0,0,0-.506-.27q-.291-.12-.625-.25a8.055,8.055,0,0,1-.817-.373,2.468,2.468,0,0,1-.588-.424,1.577,1.577,0,0,1-.355-.537,1.9,1.9,0,0,1-.12-.7,1.673,1.673,0,0,1,.226-.872,2,2,0,0,1,.6-.636,2.805,2.805,0,0,1,.858-.386,3.805,3.805,0,0,1,.995-.13,4.016,4.016,0,0,1,1.627.314v1.135a3.171,3.171,0,0,0-1.777-.506,2.078,2.078,0,0,0-.567.072,1.389,1.389,0,0,0-.434.2.932.932,0,0,0-.28.311.819.819,0,0,0-.1.4.959.959,0,0,0,.1.458,1.008,1.008,0,0,0,.291.328,2.221,2.221,0,0,0,.465.26q.273.116.622.253a8.658,8.658,0,0,1,.834.366,2.86,2.86,0,0,1,.629.424,1.656,1.656,0,0,1,.4.543,1.753,1.753,0,0,1,.14.731,1.725,1.725,0,0,1-.229.9,1.963,1.963,0,0,1-.612.636,2.8,2.8,0,0,1-.882.376,4.354,4.354,0,0,1-1.046.123A3.971,3.971,0,0,1,233.557,68.747Zm15.21.253h-1.121V67.906h-.027a2.347,2.347,0,0,1-2.153,1.258,2.3,2.3,0,0,1-1.637-.554,1.918,1.918,0,0,1-.591-1.47q0-1.962,2.311-2.283l2.1-.294q0-1.784-1.442-1.784a3.446,3.446,0,0,0-2.283.861V62.492a4.338,4.338,0,0,1,2.379-.656q2.468,0,2.468,2.611Zm-1.121-3.541-1.688.232a2.741,2.741,0,0,0-1.176.386,1.114,1.114,0,0,0-.4.981,1.068,1.068,0,0,0,.366.837,1.413,1.413,0,0,0,.974.325,1.8,1.8,0,0,0,1.377-.584,2.088,2.088,0,0,0,.543-1.48Zm2.81,3.288v-1.2a3.318,3.318,0,0,0,2.017.677q1.477,0,1.477-.984a.854.854,0,0,0-.126-.475,1.26,1.26,0,0,0-.342-.345,2.631,2.631,0,0,0-.506-.27q-.291-.12-.625-.25a8.055,8.055,0,0,1-.817-.373,2.468,2.468,0,0,1-.588-.424,1.577,1.577,0,0,1-.355-.537,1.9,1.9,0,0,1-.12-.7,1.673,1.673,0,0,1,.226-.872,2,2,0,0,1,.6-.636,2.805,2.805,0,0,1,.858-.386,3.805,3.805,0,0,1,.995-.13,4.016,4.016,0,0,1,1.627.314v1.135A3.171,3.171,0,0,0,253,62.779a2.078,2.078,0,0,0-.567.072,1.389,1.389,0,0,0-.434.2.932.932,0,0,0-.28.311.819.819,0,0,0-.1.4.959.959,0,0,0,.1.458,1.008,1.008,0,0,0,.291.328,2.221,2.221,0,0,0,.465.26q.273.116.622.253a8.658,8.658,0,0,1,.834.366,2.86,2.86,0,0,1,.629.424,1.656,1.656,0,0,1,.4.543,1.753,1.753,0,0,1,.14.731,1.725,1.725,0,0,1-.229.9,1.963,1.963,0,0,1-.612.636,2.8,2.8,0,0,1-.882.376,4.354,4.354,0,0,1-1.046.123A3.971,3.971,0,0,1,250.455,68.747Zm9.775,0v-1.2a3.318,3.318,0,0,0,2.017.677q1.477,0,1.477-.984a.854.854,0,0,0-.126-.475,1.26,1.26,0,0,0-.342-.345,2.631,2.631,0,0,0-.506-.27q-.291-.12-.625-.25a8.055,8.055,0,0,1-.817-.373,2.468,2.468,0,0,1-.588-.424,1.577,1.577,0,0,1-.355-.537,1.9,1.9,0,0,1-.12-.7,1.673,1.673,0,0,1,.226-.872,2,2,0,0,1,.6-.636,2.805,2.805,0,0,1,.858-.386,3.805,3.805,0,0,1,.995-.13,4.016,4.016,0,0,1,1.627.314v1.135a3.171,3.171,0,0,0-1.777-.506,2.078,2.078,0,0,0-.567.072,1.389,1.389,0,0,0-.434.2.932.932,0,0,0-.28.311.819.819,0,0,0-.1.4.959.959,0,0,0,.1.458,1.008,1.008,0,0,0,.291.328,2.221,2.221,0,0,0,.465.26q.273.116.622.253a8.657,8.657,0,0,1,.834.366,2.861,2.861,0,0,1,.629.424,1.656,1.656,0,0,1,.4.543,1.753,1.753,0,0,1,.14.731,1.725,1.725,0,0,1-.229.9,1.963,1.963,0,0,1-.612.636,2.8,2.8,0,0,1-.882.376,4.354,4.354,0,0,1-1.046.123A3.971,3.971,0,0,1,260.23,68.747Zm9.29.417a3.247,3.247,0,0,1-2.478-.981,3.633,3.633,0,0,1-.926-2.6,3.785,3.785,0,0,1,.964-2.755,3.465,3.465,0,0,1,2.6-.991,3.14,3.14,0,0,1,2.444.964,3.822,3.822,0,0,1,.878,2.673,3.761,3.761,0,0,1-.947,2.683A3.317,3.317,0,0,1,269.521,69.164Zm.082-6.385a2.132,2.132,0,0,0-1.709.735,3.018,3.018,0,0,0-.629,2.027A2.854,2.854,0,0,0,267.9,67.5a2.161,2.161,0,0,0,1.7.718,2.05,2.05,0,0,0,1.671-.7,3.055,3.055,0,0,0,.584-2,3.108,3.108,0,0,0-.584-2.023A2.04,2.04,0,0,0,269.6,62.779ZM275.919,69H274.8V58.637h1.121Zm8.244,0h-1.121V67.811h-.027a2.588,2.588,0,0,1-2.406,1.354,2.615,2.615,0,0,1-2.109-.94,3.856,3.856,0,0,1-.79-2.56,4.2,4.2,0,0,1,.875-2.782,2.886,2.886,0,0,1,2.331-1.046,2.244,2.244,0,0,1,2.1,1.135h.027V58.637h1.121Zm-1.121-3.165V64.8a2,2,0,0,0-.561-1.436,1.88,1.88,0,0,0-1.422-.588,1.936,1.936,0,0,0-1.613.752,3.3,3.3,0,0,0-.588,2.078,2.964,2.964,0,0,0,.564,1.911,1.843,1.843,0,0,0,1.514.7,1.915,1.915,0,0,0,1.521-.677A2.521,2.521,0,0,0,283.042,65.835Zm10.685-6.214a1.493,1.493,0,0,0-.745-.185q-1.176,0-1.176,1.483V62h1.641v.957h-1.641V69h-1.114V62.957h-1.2V62h1.2V60.865a2.358,2.358,0,0,1,.636-1.74,2.146,2.146,0,0,1,1.586-.639,2.2,2.2,0,0,1,.813.123Zm4.573,3.514a1.371,1.371,0,0,0-.848-.226,1.431,1.431,0,0,0-1.2.677,3.129,3.129,0,0,0-.482,1.846V69h-1.121V62h1.121v1.442h.027a2.444,2.444,0,0,1,.731-1.152,1.668,1.668,0,0,1,1.1-.414,1.83,1.83,0,0,1,.67.1Zm4.143,6.029a3.247,3.247,0,0,1-2.478-.981,3.633,3.633,0,0,1-.926-2.6A3.785,3.785,0,0,1,300,62.827a3.465,3.465,0,0,1,2.6-.991,3.14,3.14,0,0,1,2.444.964,3.822,3.822,0,0,1,.878,2.673,3.761,3.761,0,0,1-.947,2.683A3.317,3.317,0,0,1,302.442,69.164Zm.082-6.385a2.132,2.132,0,0,0-1.709.735,3.018,3.018,0,0,0-.629,2.027,2.854,2.854,0,0,0,.636,1.962,2.161,2.161,0,0,0,1.7.718,2.05,2.05,0,0,0,1.671-.7,3.055,3.055,0,0,0,.584-2,3.108,3.108,0,0,0-.584-2.023A2.04,2.04,0,0,0,302.524,62.779ZM317.659,69h-1.121V64.98a3.032,3.032,0,0,0-.359-1.682,1.361,1.361,0,0,0-1.207-.52,1.494,1.494,0,0,0-1.22.656,2.511,2.511,0,0,0-.5,1.572V69h-1.121V64.844q0-2.064-1.593-2.064a1.475,1.475,0,0,0-1.217.619,2.557,2.557,0,0,0-.479,1.61V69H307.72V62h1.121v1.107h.027a2.378,2.378,0,0,1,2.174-1.271,2.022,2.022,0,0,1,1.982,1.449,2.5,2.5,0,0,1,2.324-1.449q2.311,0,2.311,2.851Zm14.772-7-2.1,7h-1.162l-1.442-5.011a3.265,3.265,0,0,1-.109-.649h-.027a3.066,3.066,0,0,1-.144.636L325.883,69h-1.121l-2.119-7h1.176l1.449,5.264a3.171,3.171,0,0,1,.1.629h.055a2.942,2.942,0,0,1,.123-.643L327.154,62h1.025l1.449,5.277a3.77,3.77,0,0,1,.1.629h.055a2.91,2.91,0,0,1,.116-.629L331.324,62Zm1.873-1.777a.71.71,0,0,1-.513-.205.692.692,0,0,1-.212-.52.718.718,0,0,1,.725-.731.724.724,0,0,1,.523.208.73.73,0,0,1,0,1.036A.718.718,0,0,1,334.3,60.223ZM334.852,69H333.73V62h1.121Zm5.517-.068a2.161,2.161,0,0,1-1.046.219q-1.839,0-1.839-2.051V62.957h-1.2V62h1.2V60.291l1.121-.362V62h1.764v.957H338.6V66.9a1.635,1.635,0,0,0,.239,1,.955.955,0,0,0,.793.3,1.179,1.179,0,0,0,.731-.232Zm7.308.068h-1.121V64.967q0-2.187-1.627-2.187a1.774,1.774,0,0,0-1.381.632,2.356,2.356,0,0,0-.561,1.624V69h-1.121V58.637h1.121v4.525h.027a2.546,2.546,0,0,1,2.3-1.326q2.365,0,2.365,2.851Zm2.687-8.777a.71.71,0,0,1-.513-.205.692.692,0,0,1-.212-.52.718.718,0,0,1,.725-.731.724.724,0,0,1,.523.208.73.73,0,0,1,0,1.036A.718.718,0,0,1,350.362,60.223ZM350.909,69h-1.121V62h1.121Zm8.08,0h-1.121V65.008q0-2.229-1.627-2.229a1.765,1.765,0,0,0-1.391.632,2.344,2.344,0,0,0-.55,1.6V69h-1.121V62H354.3v1.162h.027a2.526,2.526,0,0,1,2.3-1.326,2.142,2.142,0,0,1,1.757.742,3.3,3.3,0,0,1,.608,2.143Zm9.194-.068a2.161,2.161,0,0,1-1.046.219q-1.839,0-1.839-2.051V62.957h-1.2V62h1.2V60.291l1.121-.362V62h1.764v.957H366.42V66.9a1.635,1.635,0,0,0,.239,1,.955.955,0,0,0,.793.3,1.179,1.179,0,0,0,.731-.232Zm7.308.068H374.37V64.967q0-2.187-1.627-2.187a1.774,1.774,0,0,0-1.381.632,2.356,2.356,0,0,0-.561,1.624V69h-1.121V58.637H370.8v4.525h.027a2.546,2.546,0,0,1,2.3-1.326q2.365,0,2.365,2.851Zm2.687-8.777a.71.71,0,0,1-.513-.205.692.692,0,0,1-.212-.52.718.718,0,0,1,.725-.731.724.724,0,0,1,.523.208.73.73,0,0,1,0,1.036A.718.718,0,0,1,378.178,60.223ZM378.725,69H377.6V62h1.121Zm1.846-.253v-1.2a3.318,3.318,0,0,0,2.017.677q1.477,0,1.477-.984a.854.854,0,0,0-.126-.475,1.26,1.26,0,0,0-.342-.345,2.631,2.631,0,0,0-.506-.27q-.291-.12-.625-.25a8.055,8.055,0,0,1-.817-.373,2.468,2.468,0,0,1-.588-.424,1.577,1.577,0,0,1-.355-.537,1.9,1.9,0,0,1-.12-.7,1.673,1.673,0,0,1,.226-.872,2,2,0,0,1,.6-.636,2.805,2.805,0,0,1,.858-.386,3.805,3.805,0,0,1,.995-.13,4.016,4.016,0,0,1,1.627.314v1.135a3.171,3.171,0,0,0-1.777-.506,2.078,2.078,0,0,0-.567.072,1.389,1.389,0,0,0-.434.2.932.932,0,0,0-.28.311.819.819,0,0,0-.1.4.959.959,0,0,0,.1.458,1.008,1.008,0,0,0,.291.328,2.221,2.221,0,0,0,.465.26q.273.116.622.253a8.657,8.657,0,0,1,.834.366,2.861,2.861,0,0,1,.629.424,1.656,1.656,0,0,1,.4.543,1.753,1.753,0,0,1,.14.731,1.725,1.725,0,0,1-.229.9,1.963,1.963,0,0,1-.612.636,2.8,2.8,0,0,1-.882.376,4.354,4.354,0,0,1-1.046.123A3.971,3.971,0,0,1,380.57,68.747ZM7.109,90.22H5.988V85.8H5.961a2.508,2.508,0,0,1-2.393,1.367,2.634,2.634,0,0,1-2.116-.94,3.834,3.834,0,0,1-.8-2.56,4.192,4.192,0,0,1,.875-2.786,2.912,2.912,0,0,1,2.352-1.042,2.207,2.207,0,0,1,2.078,1.135h.027V80H7.109ZM5.988,83.849V82.83a2.037,2.037,0,0,0-.564-1.456,1.888,1.888,0,0,0-1.432-.595,1.925,1.925,0,0,0-1.6.749A3.341,3.341,0,0,0,1.8,83.637a2.894,2.894,0,0,0,.567,1.9,1.811,1.811,0,0,0,1.463.687A1.972,1.972,0,0,0,5.4,85.547,2.5,2.5,0,0,0,5.988,83.849ZM15.039,87H13.918V85.893h-.027a2.3,2.3,0,0,1-2.16,1.271q-2.5,0-2.5-2.98V80h1.114v4.006q0,2.215,1.7,2.215a1.715,1.715,0,0,0,1.35-.6,2.315,2.315,0,0,0,.53-1.583V80h1.121Zm5.188.164a3.247,3.247,0,0,1-2.478-.981,3.633,3.633,0,0,1-.926-2.6,3.785,3.785,0,0,1,.964-2.755,3.465,3.465,0,0,1,2.6-.991,3.14,3.14,0,0,1,2.444.964,3.822,3.822,0,0,1,.878,2.673,3.761,3.761,0,0,1-.947,2.683A3.317,3.317,0,0,1,20.228,87.164Zm.082-6.385a2.132,2.132,0,0,0-1.709.735,3.018,3.018,0,0,0-.629,2.027,2.854,2.854,0,0,0,.636,1.962,2.161,2.161,0,0,0,1.7.718,2.05,2.05,0,0,0,1.671-.7,3.055,3.055,0,0,0,.584-2,3.108,3.108,0,0,0-.584-2.023A2.04,2.04,0,0,0,20.31,80.779Zm8.442,6.152a2.161,2.161,0,0,1-1.046.219q-1.839,0-1.839-2.051V80.957h-1.2V80h1.2V78.291l1.121-.362V80h1.764v.957H26.988V84.9a1.635,1.635,0,0,0,.239,1,.955.955,0,0,0,.793.3,1.179,1.179,0,0,0,.731-.232Zm7.123-3.151H30.933a2.618,2.618,0,0,0,.629,1.8,2.168,2.168,0,0,0,1.654.636,3.439,3.439,0,0,0,2.174-.779v1.053a4.063,4.063,0,0,1-2.44.67,2.959,2.959,0,0,1-2.331-.954,3.9,3.9,0,0,1-.848-2.683,3.828,3.828,0,0,1,.926-2.663A2.97,2.97,0,0,1,33,79.836a2.632,2.632,0,0,1,2.126.889,3.705,3.705,0,0,1,.752,2.468Zm-1.148-.95a2.281,2.281,0,0,0-.468-1.511,1.6,1.6,0,0,0-1.282-.54,1.811,1.811,0,0,0-1.347.567,2.575,2.575,0,0,0-.684,1.483Zm3.233,4.32a.726.726,0,0,1-.537-.226.742.742,0,0,1-.222-.54.754.754,0,0,1,.222-.543.72.72,0,0,1,.537-.229.739.739,0,0,1,.547.229.748.748,0,0,1,.226.543.737.737,0,0,1-.226.54A.745.745,0,0,1,37.96,87.15Z" transform="translate(293 116)" fill="#31313a"/>
      <path id="Path_101909" data-name="Path 101909" d="M17.2,0H13.889L12.251-4.634H5.091L3.517,0H.216L7.033-18.205h3.4ZM11.451-7.1,8.925-14.358A8.6,8.6,0,0,1,8.684-15.5H8.633a7.432,7.432,0,0,1-.254,1.143L5.878-7.1Zm15.463-3.1a2.441,2.441,0,0,0-1.536-.419,2.63,2.63,0,0,0-2.184,1.181,5.28,5.28,0,0,0-.876,3.212V0H19.373V-13h2.945v2.679h.051A4.529,4.529,0,0,1,23.7-12.46a2.994,2.994,0,0,1,2-.768,2.482,2.482,0,0,1,1.219.241ZM39.774-5.7H30.913a3.746,3.746,0,0,0,1.111,2.78,4.133,4.133,0,0,0,2.914.978,6.425,6.425,0,0,0,3.821-1.244V-.812A8.73,8.73,0,0,1,34.062.3a5.815,5.815,0,0,1-4.5-1.771A7.084,7.084,0,0,1,27.93-6.449a6.927,6.927,0,0,1,1.8-4.945A5.876,5.876,0,0,1,34.188-13.3a5.124,5.124,0,0,1,4.126,1.714,7.116,7.116,0,0,1,1.46,4.761ZM36.931-7.782a3.8,3.8,0,0,0-.749-2.469,2.5,2.5,0,0,0-2.031-.882A2.858,2.858,0,0,0,32-10.207a4.234,4.234,0,0,0-1.085,2.425ZM60.988-13,55.123,2.082q-1.828,4.037-5.129,4.037a6.15,6.15,0,0,1-1.549-.165V3.5a4.119,4.119,0,0,0,1.27.229,2.62,2.62,0,0,0,2.463-1.625l.876-2.133L47.887-13h3.263l3.1,9.445q.051.178.229.939h.063q.063-.292.229-.914L58.018-13ZM68.517.3a6.444,6.444,0,0,1-4.805-1.822,6.581,6.581,0,0,1-1.8-4.831,6.848,6.848,0,0,1,1.873-5.116A6.886,6.886,0,0,1,68.834-13.3a6.237,6.237,0,0,1,4.748,1.79,6.915,6.915,0,0,1,1.7,4.964,6.813,6.813,0,0,1-1.834,4.983A6.589,6.589,0,0,1,68.517.3Zm.14-11.261A3.362,3.362,0,0,0,65.927-9.75a5.05,5.05,0,0,0-1,3.326,4.756,4.756,0,0,0,1.016,3.218,3.411,3.411,0,0,0,2.717,1.174,3.237,3.237,0,0,0,2.672-1.155,5.114,5.114,0,0,0,.933-3.288,5.191,5.191,0,0,0-.933-3.313A3.221,3.221,0,0,0,68.656-10.956ZM89.616,0H86.671V-2.057H86.62A4.239,4.239,0,0,1,82.634.3Q78.025.3,78.025-5.23V-13h2.945v7.465q0,3.5,2.7,3.5A2.733,2.733,0,0,0,85.827-3a3.7,3.7,0,0,0,.844-2.526V-13h2.945ZM99.785-.406V-3.136a5.876,5.876,0,0,0,3.644,1.257q2.666,0,2.666-1.574a1.241,1.241,0,0,0-.229-.755,2.181,2.181,0,0,0-.616-.552,4.841,4.841,0,0,0-.914-.432q-.527-.19-1.174-.432a12.432,12.432,0,0,1-1.441-.673,4.353,4.353,0,0,1-1.066-.806,3.043,3.043,0,0,1-.641-1.022A3.763,3.763,0,0,1,99.8-9.458a3.081,3.081,0,0,1,.444-1.657,3.861,3.861,0,0,1,1.193-1.206,5.723,5.723,0,0,1,1.7-.736A7.788,7.788,0,0,1,105.1-13.3a8.945,8.945,0,0,1,3.225.546v2.577a5.436,5.436,0,0,0-3.148-.939,4.112,4.112,0,0,0-1.009.114,2.605,2.605,0,0,0-.768.317,1.561,1.561,0,0,0-.5.489,1.166,1.166,0,0,0-.178.628,1.343,1.343,0,0,0,.178.711,1.614,1.614,0,0,0,.527.514,4.551,4.551,0,0,0,.838.406q.489.184,1.124.4a16.415,16.415,0,0,1,1.5.7,5.084,5.084,0,0,1,1.136.806A3.16,3.16,0,0,1,108.761-5a3.535,3.535,0,0,1,.254,1.4,3.207,3.207,0,0,1-.457,1.727,3.809,3.809,0,0,1-1.219,1.219,5.7,5.7,0,0,1-1.758.717,9.134,9.134,0,0,1-2.1.235A8.852,8.852,0,0,1,99.785-.406ZM123.145,0H120.2V-2.057h-.051A4.239,4.239,0,0,1,116.162.3q-4.608,0-4.608-5.535V-13H114.5v7.465q0,3.5,2.7,3.5A2.733,2.733,0,0,0,119.355-3a3.7,3.7,0,0,0,.844-2.526V-13h2.945ZM134.52-10.194a2.441,2.441,0,0,0-1.536-.419A2.63,2.63,0,0,0,130.8-9.433a5.28,5.28,0,0,0-.876,3.212V0h-2.945V-13h2.945v2.679h.051A4.529,4.529,0,0,1,131.3-12.46a2.994,2.994,0,0,1,2-.768,2.482,2.482,0,0,1,1.219.241ZM147.38-5.7h-8.861a3.746,3.746,0,0,0,1.111,2.78,4.133,4.133,0,0,0,2.914.978,6.425,6.425,0,0,0,3.821-1.244V-.812A8.73,8.73,0,0,1,141.667.3a5.815,5.815,0,0,1-4.5-1.771,7.084,7.084,0,0,1-1.631-4.983,6.927,6.927,0,0,1,1.8-4.945,5.876,5.876,0,0,1,4.462-1.911,5.124,5.124,0,0,1,4.126,1.714,7.116,7.116,0,0,1,1.46,4.761Zm-2.844-2.082a3.8,3.8,0,0,0-.749-2.469,2.5,2.5,0,0,0-2.031-.882,2.858,2.858,0,0,0-2.152.927,4.234,4.234,0,0,0-1.085,2.425Zm7.579,2.641a5.1,5.1,0,0,1-.2-.825,5.809,5.809,0,0,1-.089-1,3.119,3.119,0,0,1,.311-1.4,5.753,5.753,0,0,1,.774-1.174,13,13,0,0,1,1-1.054q.54-.508,1-.99a5.385,5.385,0,0,0,.774-1.016A2.277,2.277,0,0,0,156-13.774a2.075,2.075,0,0,0-.229-1,2.065,2.065,0,0,0-.628-.711,2.836,2.836,0,0,0-.914-.425,4.175,4.175,0,0,0-1.1-.14,5.118,5.118,0,0,0-3.605,1.688v-2.933a8.432,8.432,0,0,1,4.316-1.219,6.9,6.9,0,0,1,1.942.267,4.872,4.872,0,0,1,1.6.787,3.721,3.721,0,0,1,1.079,1.295,3.928,3.928,0,0,1,.394,1.8,4.337,4.337,0,0,1-.33,1.739,6.39,6.39,0,0,1-.832,1.4,7.9,7.9,0,0,1-1.079,1.136q-.578.5-1.079.99a5.577,5.577,0,0,0-.832,1.028,2.2,2.2,0,0,0-.33,1.181,3.294,3.294,0,0,0,.14.99,6.511,6.511,0,0,0,.279.749Zm1.447,5.37a1.877,1.877,0,0,1-1.282-.5,1.545,1.545,0,0,1-.533-1.193,1.521,1.521,0,0,1,.533-1.193,1.822,1.822,0,0,1,1.282-.508,1.806,1.806,0,0,1,1.27.508,1.521,1.521,0,0,1,.533,1.193,1.545,1.545,0,0,1-.533,1.193A1.861,1.861,0,0,1,153.563.229Z" transform="translate(293.108 94)" fill="#3d3d3d"/>
    </g>
  </g>
</svg>
