<svg xmlns="http://www.w3.org/2000/svg" xmlns:xlink="http://www.w3.org/1999/xlink" width="1000" height="526" viewBox="0 0 1000 526">
  <defs>
    <filter id="Rectangle_3883" x="47.549" y="29" width="904.451" height="31" filterUnits="userSpaceOnUse">
      <feOffset dy="8" input="SourceAlpha"/>
      <feGaussianBlur stdDeviation="5" result="blur"/>
      <feFlood flood-opacity="0.4"/>
      <feComposite operator="in" in2="blur"/>
      <feComposite in="SourceGraphic"/>
    </filter>
    <filter id="Rectangle_3880" x="56" y="36" width="887" height="476" filterUnits="userSpaceOnUse">
      <feOffset dy="16" input="SourceAlpha"/>
      <feGaussianBlur stdDeviation="2" result="blur-2"/>
      <feFlood flood-opacity="0.141"/>
      <feComposite operator="in" in2="blur-2"/>
      <feComposite in="SourceGraphic"/>
    </filter>
    <clipPath id="clip-path">
      <rect y="88" width="815" height="378" fill="none"/>
    </clipPath>
    <clipPath id="clip-path-2">
      <rect y="7" width="815" height="717" fill="none"/>
    </clipPath>
    <clipPath id="clip-Dialog_Fixed-footer">
      <rect width="1000" height="526"/>
    </clipPath>
  </defs>
  <g id="Dialog_Fixed-footer" clip-path="url(#clip-Dialog_Fixed-footer)">
    <rect width="1000" height="526" fill="#f4f4f6"/>
    <g id="Plan_details_dialog" data-name="Plan details dialog">
      <path id="Path_101105" data-name="Path 101105" d="M0,0H1000V526H0Z" fill="rgba(0,0,0,0.85)"/>
      <g id="Group_7691" data-name="Group 7691" transform="translate(62 36)">
        <g transform="matrix(1, 0, 0, 1, -62, -36)" filter="url(#Rectangle_3883)">
          <rect id="Rectangle_3883-2" data-name="Rectangle 3883" width="874.451" height="1" transform="translate(62.55 36)" fill="#fff"/>
        </g>
        <g transform="matrix(1, 0, 0, 1, -62, -36)" filter="url(#Rectangle_3880)">
          <rect id="Rectangle_3880-2" data-name="Rectangle 3880" width="875" height="454" transform="translate(62 36)" fill="#fff"/>
        </g>
      </g>
      <g id="Scroll_Group_2" data-name="Scroll Group 2" transform="translate(91.726 -52)" clip-path="url(#clip-path)" style="isolation: isolate">
        <g id="Group_264110" data-name="Group 264110" transform="translate(0.274 179)">
          <g id="Scroll_Group_1" data-name="Scroll Group 1" transform="translate(-0.274 -134)" clip-path="url(#clip-path-2)" style="isolation: isolate">
            <rect id="Rectangle_7481" data-name="Rectangle 7481" width="815" height="41" fill="#f9f9fa"/>
            <rect id="Rectangle_7481-2" data-name="Rectangle 7481" width="815" height="41" transform="translate(0 80)" fill="#f9f9fa"/>
            <rect id="Rectangle_7481-3" data-name="Rectangle 7481" width="815" height="41" transform="translate(0 160)" fill="#f9f9fa"/>
            <rect id="Rectangle_7481-4" data-name="Rectangle 7481" width="815" height="41" transform="translate(0 240)" fill="#f9f9fa"/>
            <rect id="Rectangle_7481-5" data-name="Rectangle 7481" width="815" height="41" transform="translate(0 320)" fill="#f9f9fa"/>
            <rect id="Rectangle_7481-6" data-name="Rectangle 7481" width="815" height="41" transform="translate(0 400)" fill="#f9f9fa"/>
            <rect id="Rectangle_7481-7" data-name="Rectangle 7481" width="815" height="41" transform="translate(0 480)" fill="#f9f9fa"/>
            <rect id="Rectangle_7481-8" data-name="Rectangle 7481" width="815" height="41" transform="translate(0 560)" fill="#f9f9fa"/>
            <rect id="Rectangle_7481-9" data-name="Rectangle 7481" width="815" height="41" transform="translate(0 640)" fill="#f9f9fa"/>
            <rect id="Rectangle_7481-10" data-name="Rectangle 7481" width="815" height="41" transform="translate(0 720)" fill="#f9f9fa"/>
            <path id="Path_101979" data-name="Path 101979" d="M6.33-9.8v6.33H7.786v1.319H6.33V0H4.792V-2.153H.355V-3.486q.6-.677,1.234-1.466T2.806-6.566Q3.391-7.39,3.89-8.217A15.065,15.065,0,0,0,4.73-9.8ZM4.792-3.473V-7.588A22.714,22.714,0,0,1,3.319-5.25q-.728,1-1.364,1.777ZM11.847.164A2.737,2.737,0,0,1,9.458-1.087,6.375,6.375,0,0,1,8.6-4.7a7.074,7.074,0,0,1,.9-3.931,2.923,2.923,0,0,1,2.584-1.333q3.233,0,3.233,5.024a6.614,6.614,0,0,1-.913,3.8A2.937,2.937,0,0,1,11.847.164ZM12-8.7q-1.784,0-1.784,3.931,0,3.678,1.75,3.678,1.723,0,1.723-3.739Q13.692-8.7,12-8.7Z" transform="translate(62.274 67)" fill="#31313a"/>
            <path id="Path_101976" data-name="Path 101976" d="M6.33-9.8v6.33H7.786v1.319H6.33V0H4.792V-2.153H.355V-3.486q.6-.677,1.234-1.466T2.806-6.566Q3.391-7.39,3.89-8.217A15.065,15.065,0,0,0,4.73-9.8ZM4.792-3.473V-7.588A22.714,22.714,0,0,1,3.319-5.25q-.728,1-1.364,1.777Zm7.479-6.549V0H10.685V-8.08a5.052,5.052,0,0,1-.926.523,7.635,7.635,0,0,1-1.131.379V-8.531q.4-.13.766-.273t.728-.321q.359-.178.725-.4t.755-.5Z" transform="translate(62.274 107)" fill="#31313a"/>
            <path id="Path_101975" data-name="Path 101975" d="M6.33-9.8v6.33H7.786v1.319H6.33V0H4.792V-2.153H.355V-3.486q.6-.677,1.234-1.466T2.806-6.566Q3.391-7.39,3.89-8.217A15.065,15.065,0,0,0,4.73-9.8ZM4.792-3.473V-7.588A22.714,22.714,0,0,1,3.319-5.25q-.728,1-1.364,1.777ZM14.889,0H8.736V-.759a2.849,2.849,0,0,1,.13-.872A3.526,3.526,0,0,1,9.215-2.4a4.265,4.265,0,0,1,.513-.677q.294-.318.629-.615t.684-.574q.349-.277.684-.557.314-.267.574-.523a3.491,3.491,0,0,0,.444-.53,2.4,2.4,0,0,0,.287-.578,2.053,2.053,0,0,0,.1-.66,1.778,1.778,0,0,0-.12-.68,1.322,1.322,0,0,0-.335-.485,1.43,1.43,0,0,0-.509-.294,2,2,0,0,0-.643-.1,2.964,2.964,0,0,0-1.224.28,4.188,4.188,0,0,0-1.2.841V-9.071a5,5,0,0,1,.608-.393,4.146,4.146,0,0,1,.636-.28,3.919,3.919,0,0,1,.69-.167,5.179,5.179,0,0,1,.772-.055,3.9,3.9,0,0,1,1.2.174,2.561,2.561,0,0,1,.923.513,2.253,2.253,0,0,1,.591.844,3.03,3.03,0,0,1,.208,1.162,3.615,3.615,0,0,1-.147,1.07,3.462,3.462,0,0,1-.417.885,4.593,4.593,0,0,1-.653.779q-.383.369-.854.759-.4.321-.79.625t-.708.595a3.321,3.321,0,0,0-.509.581,1.042,1.042,0,0,0-.195.584v.034h4.423Z" transform="translate(62.274 147)" fill="#31313a"/>
            <path id="Path_101972" data-name="Path 101972" d="M6.33-9.8v6.33H7.786v1.319H6.33V0H4.792V-2.153H.355V-3.486q.6-.677,1.234-1.466T2.806-6.566Q3.391-7.39,3.89-8.217A15.065,15.065,0,0,0,4.73-9.8ZM4.792-3.473V-7.588A22.714,22.714,0,0,1,3.319-5.25q-.728,1-1.364,1.777ZM8.907-.362v-1.49a3.386,3.386,0,0,0,2.16.759,2.517,2.517,0,0,0,1.562-.444,1.432,1.432,0,0,0,.584-1.2q0-1.668-2.55-1.668H9.905V-5.681h.725q2.263,0,2.263-1.572,0-1.449-1.764-1.449A2.892,2.892,0,0,0,9.276-8V-9.406a4.739,4.739,0,0,1,2.358-.561,3.159,3.159,0,0,1,2.092.656,2.092,2.092,0,0,1,.786,1.682,2.4,2.4,0,0,1-1.969,2.488v.027a2.579,2.579,0,0,1,1.675.742,2.211,2.211,0,0,1,.615,1.6,2.616,2.616,0,0,1-.991,2.129,4,4,0,0,1-2.611.81A4.456,4.456,0,0,1,8.907-.362Z" transform="translate(62.274 187)" fill="#31313a"/>
            <path id="Path_101971" data-name="Path 101971" d="M6.33-9.8v6.33H7.786v1.319H6.33V0H4.792V-2.153H.355V-3.486q.6-.677,1.234-1.466T2.806-6.566Q3.391-7.39,3.89-8.217A15.065,15.065,0,0,0,4.73-9.8ZM4.792-3.473V-7.588A22.714,22.714,0,0,1,3.319-5.25q-.728,1-1.364,1.777ZM14.4-9.8v6.33h1.456v1.319H14.4V0H12.858V-2.153H8.422V-3.486q.6-.677,1.234-1.466t1.217-1.613q.584-.824,1.083-1.651A15.065,15.065,0,0,0,12.8-9.8Zm-1.538,6.33V-7.588A22.714,22.714,0,0,1,11.385-5.25q-.728,1-1.364,1.777Z" transform="translate(62.274 227)" fill="#31313a"/>
            <path id="Path_101968" data-name="Path 101968" d="M6.33-9.8v6.33H7.786v1.319H6.33V0H4.792V-2.153H.355V-3.486q.6-.677,1.234-1.466T2.806-6.566Q3.391-7.39,3.89-8.217A15.065,15.065,0,0,0,4.73-9.8ZM4.792-3.473V-7.588A22.714,22.714,0,0,1,3.319-5.25q-.728,1-1.364,1.777ZM9.126-.226V-1.75a3.468,3.468,0,0,0,1.955.649,2.42,2.42,0,0,0,1.606-.509A1.68,1.68,0,0,0,13.3-2.967a1.532,1.532,0,0,0-.619-1.3A2.911,2.911,0,0,0,10.9-4.73q-.4,0-1.606.082L9.646-9.8h4.826v1.354H10.965L10.8-6q.472-.027.854-.027a3.384,3.384,0,0,1,2.41.8,2.857,2.857,0,0,1,.851,2.188A2.991,2.991,0,0,1,13.942-.7a3.85,3.85,0,0,1-2.676.878A4.429,4.429,0,0,1,9.126-.226Z" transform="translate(62.274 267)" fill="#31313a"/>
            <path id="Path_101967" data-name="Path 101967" d="M6.33-9.8v6.33H7.786v1.319H6.33V0H4.792V-2.153H.355V-3.486q.6-.677,1.234-1.466T2.806-6.566Q3.391-7.39,3.89-8.217A15.065,15.065,0,0,0,4.73-9.8ZM4.792-3.473V-7.588A22.714,22.714,0,0,1,3.319-5.25q-.728,1-1.364,1.777Zm10.555.321A3.6,3.6,0,0,1,15.1-1.8a3.156,3.156,0,0,1-.673,1.049,3.006,3.006,0,0,1-1.022.684,3.343,3.343,0,0,1-1.282.243A3.184,3.184,0,0,1,10.77-.116,2.908,2.908,0,0,1,9.7-.971,4.109,4.109,0,0,1,9.01-2.382a7.021,7.021,0,0,1-.246-1.958,8.192,8.192,0,0,1,.325-2.413A5.3,5.3,0,0,1,9.98-8.518,3.818,3.818,0,0,1,11.313-9.6a3.759,3.759,0,0,1,1.654-.369,6.2,6.2,0,0,1,1.008.075,2.793,2.793,0,0,1,.728.205v1.429a4.712,4.712,0,0,0-.745-.3,3.069,3.069,0,0,0-.909-.123,2.421,2.421,0,0,0-1.06.232,2.348,2.348,0,0,0-.837.68A3.364,3.364,0,0,0,10.6-6.662a5.357,5.357,0,0,0-.208,1.521h.041a2.214,2.214,0,0,1,.851-.766,2.688,2.688,0,0,1,1.261-.28,3.069,3.069,0,0,1,1.159.208,2.431,2.431,0,0,1,.882.6,2.7,2.7,0,0,1,.564.957A3.807,3.807,0,0,1,15.347-3.151Zm-1.6.13a2.82,2.82,0,0,0-.1-.772,1.662,1.662,0,0,0-.3-.6,1.352,1.352,0,0,0-.506-.386,1.73,1.73,0,0,0-.714-.137,1.671,1.671,0,0,0-.721.147,1.6,1.6,0,0,0-.523.386,1.6,1.6,0,0,0-.318.547,1.918,1.918,0,0,0-.106.629,2.725,2.725,0,0,0,.1.714,2.191,2.191,0,0,0,.3.667,1.7,1.7,0,0,0,.523.5,1.417,1.417,0,0,0,.755.195,1.585,1.585,0,0,0,.69-.144,1.409,1.409,0,0,0,.5-.4,1.791,1.791,0,0,0,.308-.6A2.54,2.54,0,0,0,13.747-3.021Z" transform="translate(62.274 307)" fill="#31313a"/>
            <path id="Path_101964" data-name="Path 101964" d="M6.33-9.8v6.33H7.786v1.319H6.33V0H4.792V-2.153H.355V-3.486q.6-.677,1.234-1.466T2.806-6.566Q3.391-7.39,3.89-8.217A15.065,15.065,0,0,0,4.73-9.8ZM4.792-3.473V-7.588A22.714,22.714,0,0,1,3.319-5.25q-.728,1-1.364,1.777Zm10.3-5.537q-.615,1.128-1.162,2.232T12.94-4.56q-.444,1.114-.772,2.246A17.788,17.788,0,0,0,11.662,0H10a16.878,16.878,0,0,1,.468-2.1q.3-1.049.714-2.1T12.1-6.31q.509-1.06,1.083-2.14H8.545V-9.8h6.549Z" transform="translate(62.274 347)" fill="#31313a"/>
            <path id="Path_101963" data-name="Path 101963" d="M6.33-9.8v6.33H7.786v1.319H6.33V0H4.792V-2.153H.355V-3.486q.6-.677,1.234-1.466T2.806-6.566Q3.391-7.39,3.89-8.217A15.065,15.065,0,0,0,4.73-9.8ZM4.792-3.473V-7.588A22.714,22.714,0,0,1,3.319-5.25q-.728,1-1.364,1.777Zm3.9.738a3.164,3.164,0,0,1,.106-.82,2.628,2.628,0,0,1,.318-.731,2.556,2.556,0,0,1,.533-.6,2.636,2.636,0,0,1,.752-.431,2.906,2.906,0,0,1-1.012-.913A2.158,2.158,0,0,1,9.01-7.465a2.256,2.256,0,0,1,.222-1,2.419,2.419,0,0,1,.615-.793,2.9,2.9,0,0,1,.926-.523,3.472,3.472,0,0,1,1.162-.188,3.467,3.467,0,0,1,1.172.191,2.94,2.94,0,0,1,.93.526,2.379,2.379,0,0,1,.612.793,2.27,2.27,0,0,1,.219.991,2.158,2.158,0,0,1-.376,1.234,2.943,2.943,0,0,1-1,.913,2.762,2.762,0,0,1,.749.427,2.593,2.593,0,0,1,.543.6,2.587,2.587,0,0,1,.328.731,3.1,3.1,0,0,1,.109.827,2.839,2.839,0,0,1-.239,1.176,2.643,2.643,0,0,1-.67.913,3.1,3.1,0,0,1-1.032.591,3.968,3.968,0,0,1-1.326.212A3.917,3.917,0,0,1,10.64-.055,3.145,3.145,0,0,1,9.608-.646a2.661,2.661,0,0,1-.677-.913A2.805,2.805,0,0,1,8.688-2.734Zm1.545-.137a2.169,2.169,0,0,0,.123.752,1.589,1.589,0,0,0,.349.567,1.5,1.5,0,0,0,.543.355,1.946,1.946,0,0,0,.708.123,1.834,1.834,0,0,0,.69-.126,1.558,1.558,0,0,0,.543-.362,1.686,1.686,0,0,0,.359-.567,2.019,2.019,0,0,0,.13-.742,2.017,2.017,0,0,0-.123-.708,1.741,1.741,0,0,0-.349-.578,1.648,1.648,0,0,0-.543-.39,1.7,1.7,0,0,0-.708-.144,1.758,1.758,0,0,0-.687.133,1.585,1.585,0,0,0-.547.376,1.756,1.756,0,0,0-.359.578A2.006,2.006,0,0,0,10.233-2.871Zm.335-4.43a1.473,1.473,0,0,0,.109.571,1.49,1.49,0,0,0,.294.458,1.323,1.323,0,0,0,.434.3,1.322,1.322,0,0,0,.537.109,1.287,1.287,0,0,0,.537-.113,1.408,1.408,0,0,0,.438-.308,1.458,1.458,0,0,0,.3-.458,1.455,1.455,0,0,0,.109-.564,1.54,1.54,0,0,0-.106-.574,1.392,1.392,0,0,0-.291-.458,1.339,1.339,0,0,0-.437-.3,1.363,1.363,0,0,0-.547-.109,1.361,1.361,0,0,0-.561.113,1.3,1.3,0,0,0-.434.311,1.416,1.416,0,0,0-.28.461A1.567,1.567,0,0,0,10.568-7.3Z" transform="translate(62.274 387)" fill="#31313a"/>
            <path id="Path_101960" data-name="Path 101960" d="M6.33-9.8v6.33H7.786v1.319H6.33V0H4.792V-2.153H.355V-3.486q.6-.677,1.234-1.466T2.806-6.566Q3.391-7.39,3.89-8.217A15.065,15.065,0,0,0,4.73-9.8ZM4.792-3.473V-7.588A22.714,22.714,0,0,1,3.319-5.25q-.728,1-1.364,1.777ZM15.224-5.435a8.865,8.865,0,0,1-.318,2.529,5,5,0,0,1-.875,1.743A3.442,3.442,0,0,1,12.725-.154a4,4,0,0,1-1.61.325,4.711,4.711,0,0,1-.564-.034Q10.268.1,10.011.048t-.465-.12A3.122,3.122,0,0,1,9.2-.2V-1.627a2.829,2.829,0,0,0,.355.181,3.758,3.758,0,0,0,.461.164,4.551,4.551,0,0,0,.52.116,3.22,3.22,0,0,0,.523.044,2.431,2.431,0,0,0,1.056-.226,2.174,2.174,0,0,0,.81-.67,3.241,3.241,0,0,0,.516-1.1,5.794,5.794,0,0,0,.181-1.528H13.6a1.813,1.813,0,0,1-.325.414,2.266,2.266,0,0,1-.461.342,2.577,2.577,0,0,1-.578.236,2.517,2.517,0,0,1-.68.089,3.012,3.012,0,0,1-1.145-.215A2.7,2.7,0,0,1,9.488-4.4a2.825,2.825,0,0,1-.612-.964,3.442,3.442,0,0,1-.222-1.265,3.627,3.627,0,0,1,.253-1.384,3.08,3.08,0,0,1,.7-1.053,3.1,3.1,0,0,1,1.046-.67,3.546,3.546,0,0,1,1.306-.236,3.193,3.193,0,0,1,1.254.25,2.7,2.7,0,0,1,1.039.793,4.044,4.044,0,0,1,.711,1.4A7.2,7.2,0,0,1,15.224-5.435ZM13.569-6.48a2.984,2.984,0,0,0-.126-.9,2.143,2.143,0,0,0-.352-.69,1.59,1.59,0,0,0-.537-.444,1.486,1.486,0,0,0-.68-.157,1.512,1.512,0,0,0-.625.133,1.545,1.545,0,0,0-.52.379,1.829,1.829,0,0,0-.352.595,2.2,2.2,0,0,0-.13.772,2.443,2.443,0,0,0,.126.82,1.7,1.7,0,0,0,.352.6A1.477,1.477,0,0,0,11.269-5a1.879,1.879,0,0,0,.7.126A1.567,1.567,0,0,0,12.6-5a1.625,1.625,0,0,0,.506-.342,1.568,1.568,0,0,0,.338-.509A1.612,1.612,0,0,0,13.569-6.48Z" transform="translate(62.274 427)" fill="#31313a"/>
            <path id="Path_101978" data-name="Path 101978" d="M4.211-.055V1.429H3.5V0A4.29,4.29,0,0,1,1.135-.588V-1.777a3.2,3.2,0,0,0,1.083.584A3.962,3.962,0,0,0,3.5-.957v-3.5A5.363,5.363,0,0,1,1.552-5.793a2.394,2.394,0,0,1-.444-1.446,2.418,2.418,0,0,1,.677-1.712A2.8,2.8,0,0,1,3.5-9.816v-1.23h.711v1.2a3.784,3.784,0,0,1,1.853.383V-8.3a3.105,3.105,0,0,0-1.853-.588v3.609A5.81,5.81,0,0,1,6.156-3.968a2.2,2.2,0,0,1,.523,1.439A2.227,2.227,0,0,1,6.026-.9,3.171,3.171,0,0,1,4.211-.055ZM3.5-5.66V-8.846a1.558,1.558,0,0,0-.909.509,1.421,1.421,0,0,0-.335.954,1.6,1.6,0,0,0,.273.964A2.946,2.946,0,0,0,3.5-5.66ZM4.211-4.1v3.09Q5.53-1.3,5.53-2.434,5.53-3.377,4.211-4.1Zm9.146-5.7v6.474h1.258V-2.3H13.357V0H12.25V-2.3H7.643v-.971Q8.285-4,8.941-4.823T10.2-6.494q.6-.848,1.107-1.692A15.462,15.462,0,0,0,12.161-9.8ZM8.907-3.329H12.25v-4.8q-.513.9-.971,1.6T10.408-5.25q-.414.574-.79,1.039T8.907-3.329ZM20.9-9.8v6.474h1.258V-2.3H20.9V0H19.8V-2.3H15.189v-.971q.643-.725,1.3-1.548t1.254-1.671q.6-.848,1.107-1.692A15.463,15.463,0,0,0,19.708-9.8Zm-4.45,6.474H19.8v-4.8q-.513.9-.971,1.6T17.955-5.25q-.414.574-.79,1.039T16.454-3.329Zm12.811.335a3.3,3.3,0,0,1-.246,1.3,2.84,2.84,0,0,1-.7,1,3.138,3.138,0,0,1-1.1.643,4.291,4.291,0,0,1-1.429.226,3.947,3.947,0,0,1-2.03-.41V-1.429a3.733,3.733,0,0,0,2.044.643,2.766,2.766,0,0,0,.96-.157,2.134,2.134,0,0,0,.728-.437,1.873,1.873,0,0,0,.461-.677,2.291,2.291,0,0,0,.161-.868,1.86,1.86,0,0,0-.643-1.5,2.818,2.818,0,0,0-1.866-.543q-.2,0-.417.007t-.437.017q-.219.01-.427.024t-.379.034L24.281-9.8h4.532v1.012H25.252l-.2,2.878q.219-.014.465-.024t.438-.01a4.4,4.4,0,0,1,1.395.205,2.955,2.955,0,0,1,1.042.584,2.451,2.451,0,0,1,.649.93A3.27,3.27,0,0,1,29.265-2.994ZM31.712.15a.726.726,0,0,1-.537-.226.742.742,0,0,1-.222-.54.754.754,0,0,1,.222-.543.72.72,0,0,1,.537-.229.739.739,0,0,1,.547.229.748.748,0,0,1,.226.543.737.737,0,0,1-.226.54A.745.745,0,0,1,31.712.15Zm8.415-9.3q-.226.39-.543.971T38.91-6.877q-.355.725-.725,1.559T37.5-3.6q-.321.889-.564,1.8A13.4,13.4,0,0,0,36.579,0h-1.2a13.631,13.631,0,0,1,.379-1.788q.256-.913.581-1.791t.687-1.692q.362-.813.7-1.5t.625-1.207q.284-.523.455-.817H33.893V-9.8h6.234Zm7.615,4.211a9.63,9.63,0,0,1-.222,2.181,5.081,5.081,0,0,1-.643,1.6,2.892,2.892,0,0,1-1.032.991,2.826,2.826,0,0,1-1.391.338,2.639,2.639,0,0,1-1.316-.325,2.758,2.758,0,0,1-.974-.947,4.8,4.8,0,0,1-.6-1.528A9.447,9.447,0,0,1,41.357-4.7a10.694,10.694,0,0,1,.215-2.27,5.191,5.191,0,0,1,.632-1.651,2.814,2.814,0,0,1,1.036-1,2.908,2.908,0,0,1,1.418-.338Q47.742-9.967,47.742-4.942Zm-1.148.109q0-4.184-1.989-4.184-2.1,0-2.1,4.259,0,3.972,2.058,3.972Q46.594-.786,46.594-4.833Z" transform="translate(288.274 67)" fill="#31313a"/>
            <path id="Path_101977" data-name="Path 101977" d="M4.211-.055V1.429H3.5V0A4.29,4.29,0,0,1,1.135-.588V-1.777a3.2,3.2,0,0,0,1.083.584A3.962,3.962,0,0,0,3.5-.957v-3.5A5.363,5.363,0,0,1,1.552-5.793a2.394,2.394,0,0,1-.444-1.446,2.418,2.418,0,0,1,.677-1.712A2.8,2.8,0,0,1,3.5-9.816v-1.23h.711v1.2a3.784,3.784,0,0,1,1.853.383V-8.3a3.105,3.105,0,0,0-1.853-.588v3.609A5.81,5.81,0,0,1,6.156-3.968a2.2,2.2,0,0,1,.523,1.439A2.227,2.227,0,0,1,6.026-.9,3.171,3.171,0,0,1,4.211-.055ZM3.5-5.66V-8.846a1.558,1.558,0,0,0-.909.509,1.421,1.421,0,0,0-.335.954,1.6,1.6,0,0,0,.273.964A2.946,2.946,0,0,0,3.5-5.66ZM4.211-4.1v3.09Q5.53-1.3,5.53-2.434,5.53-3.377,4.211-4.1Zm9.146-5.7v6.474h1.258V-2.3H13.357V0H12.25V-2.3H7.643v-.971Q8.285-4,8.941-4.823T10.2-6.494q.6-.848,1.107-1.692A15.462,15.462,0,0,0,12.161-9.8ZM8.907-3.329H12.25v-4.8q-.513.9-.971,1.6T10.408-5.25q-.414.574-.79,1.039T8.907-3.329Zm12.811.335a3.3,3.3,0,0,1-.246,1.3,2.84,2.84,0,0,1-.7,1,3.138,3.138,0,0,1-1.1.643,4.291,4.291,0,0,1-1.429.226,3.947,3.947,0,0,1-2.03-.41V-1.429a3.733,3.733,0,0,0,2.044.643,2.766,2.766,0,0,0,.96-.157,2.134,2.134,0,0,0,.728-.437,1.873,1.873,0,0,0,.461-.677,2.291,2.291,0,0,0,.161-.868,1.86,1.86,0,0,0-.643-1.5,2.818,2.818,0,0,0-1.866-.543q-.2,0-.417.007t-.437.017q-.219.01-.427.024t-.379.034L16.734-9.8h4.532v1.012H17.705l-.2,2.878q.219-.014.465-.024t.438-.01a4.4,4.4,0,0,1,1.395.205,2.955,2.955,0,0,1,1.042.584,2.451,2.451,0,0,1,.649.93A3.27,3.27,0,0,1,21.718-2.994ZM28.451-9.8v6.474h1.258V-2.3H28.451V0H27.344V-2.3H22.736v-.971q.643-.725,1.3-1.548T25.29-6.494q.6-.848,1.107-1.692A15.463,15.463,0,0,0,27.255-9.8ZM24-3.329h3.343v-4.8q-.513.9-.971,1.6T25.5-5.25q-.414.574-.79,1.039T24-3.329ZM31.712.15a.726.726,0,0,1-.537-.226.742.742,0,0,1-.222-.54.754.754,0,0,1,.222-.543.72.72,0,0,1,.537-.229.739.739,0,0,1,.547.229.748.748,0,0,1,.226.543.737.737,0,0,1-.226.54A.745.745,0,0,1,31.712.15ZM40.2-4.942a9.63,9.63,0,0,1-.222,2.181,5.081,5.081,0,0,1-.643,1.6A2.892,2.892,0,0,1,38.3-.167a2.826,2.826,0,0,1-1.391.338,2.639,2.639,0,0,1-1.316-.325,2.758,2.758,0,0,1-.974-.947,4.8,4.8,0,0,1-.6-1.528A9.447,9.447,0,0,1,33.811-4.7a10.694,10.694,0,0,1,.215-2.27,5.191,5.191,0,0,1,.632-1.651,2.814,2.814,0,0,1,1.036-1,2.908,2.908,0,0,1,1.418-.338Q40.2-9.967,40.2-4.942Zm-1.148.109q0-4.184-1.989-4.184-2.1,0-2.1,4.259,0,3.972,2.058,3.972Q39.047-.786,39.047-4.833Zm8.627-4.32q-.226.39-.543.971t-.673,1.306q-.355.725-.725,1.559T45.042-3.6q-.321.889-.564,1.8A13.4,13.4,0,0,0,44.126,0h-1.2A13.631,13.631,0,0,1,43.3-1.788q.256-.913.581-1.791t.687-1.692q.362-.813.7-1.5T45.9-7.974q.284-.523.455-.817H41.439V-9.8h6.234Z" transform="translate(288.274 107)" fill="#31313a"/>
            <path id="Path_101974" data-name="Path 101974" d="M4.211-.055V1.429H3.5V0A4.29,4.29,0,0,1,1.135-.588V-1.777a3.2,3.2,0,0,0,1.083.584A3.962,3.962,0,0,0,3.5-.957v-3.5A5.363,5.363,0,0,1,1.552-5.793a2.394,2.394,0,0,1-.444-1.446,2.418,2.418,0,0,1,.677-1.712A2.8,2.8,0,0,1,3.5-9.816v-1.23h.711v1.2a3.784,3.784,0,0,1,1.853.383V-8.3a3.105,3.105,0,0,0-1.853-.588v3.609A5.81,5.81,0,0,1,6.156-3.968a2.2,2.2,0,0,1,.523,1.439A2.227,2.227,0,0,1,6.026-.9,3.171,3.171,0,0,1,4.211-.055ZM3.5-5.66V-8.846a1.558,1.558,0,0,0-.909.509,1.421,1.421,0,0,0-.335.954,1.6,1.6,0,0,0,.273.964A2.946,2.946,0,0,0,3.5-5.66ZM4.211-4.1v3.09Q5.53-1.3,5.53-2.434,5.53-3.377,4.211-4.1Zm9.146-5.7v6.474h1.258V-2.3H13.357V0H12.25V-2.3H7.643v-.971Q8.285-4,8.941-4.823T10.2-6.494q.6-.848,1.107-1.692A15.462,15.462,0,0,0,12.161-9.8ZM8.907-3.329H12.25v-4.8q-.513.9-.971,1.6T10.408-5.25q-.414.574-.79,1.039T8.907-3.329ZM22.08-3.11a3.631,3.631,0,0,1-.232,1.319,3.171,3.171,0,0,1-.643,1.039,2.871,2.871,0,0,1-.978.68A3.1,3.1,0,0,1,19,.171a2.8,2.8,0,0,1-1.323-.308,2.8,2.8,0,0,1-.991-.885,4.246,4.246,0,0,1-.619-1.412,7.648,7.648,0,0,1-.212-1.88,8.834,8.834,0,0,1,.284-2.321,5.638,5.638,0,0,1,.807-1.784A3.719,3.719,0,0,1,18.2-9.563a3.379,3.379,0,0,1,1.647-.4,3.968,3.968,0,0,1,1.627.28v1.06a3.455,3.455,0,0,0-1.6-.39,2.384,2.384,0,0,0-1.183.294,2.716,2.716,0,0,0-.9.831,4.051,4.051,0,0,0-.578,1.3,6.572,6.572,0,0,0-.2,1.688h.027a2.354,2.354,0,0,1,2.235-1.224,2.942,2.942,0,0,1,1.159.219,2.5,2.5,0,0,1,.882.619,2.785,2.785,0,0,1,.564.954A3.63,3.63,0,0,1,22.08-3.11Zm-1.148.144a3.051,3.051,0,0,0-.13-.923,2,2,0,0,0-.373-.7,1.606,1.606,0,0,0-.6-.441,2.013,2.013,0,0,0-.807-.154,1.888,1.888,0,0,0-.772.157,1.924,1.924,0,0,0-.615.427,1.98,1.98,0,0,0-.407.629,1.992,1.992,0,0,0-.147.762,3.041,3.041,0,0,0,.144.947,2.446,2.446,0,0,0,.4.769,1.918,1.918,0,0,0,.619.516,1.69,1.69,0,0,0,.8.188,1.824,1.824,0,0,0,.772-.161,1.723,1.723,0,0,0,.595-.448,2.073,2.073,0,0,0,.383-.687A2.723,2.723,0,0,0,20.932-2.967Zm6.986-4.266a2.027,2.027,0,0,0-.14-.786,1.557,1.557,0,0,0-.383-.557,1.568,1.568,0,0,0-.571-.332,2.235,2.235,0,0,0-.711-.109,2.352,2.352,0,0,0-.643.089,3.124,3.124,0,0,0-.612.246,3.764,3.764,0,0,0-.574.376,4.148,4.148,0,0,0-.516.485v-1.2a3.352,3.352,0,0,1,1.056-.7,3.719,3.719,0,0,1,1.425-.243,3.441,3.441,0,0,1,1.114.174,2.555,2.555,0,0,1,.889.509,2.354,2.354,0,0,1,.591.827,2.79,2.79,0,0,1,.215,1.128,3.868,3.868,0,0,1-.133,1.053,3.256,3.256,0,0,1-.4.889,4.288,4.288,0,0,1-.68.8,9.635,9.635,0,0,1-.964.779q-.69.492-1.138.841a5.031,5.031,0,0,0-.711.653,1.894,1.894,0,0,0-.369.608,2.127,2.127,0,0,0-.106.7h4.881V0h-6.05V-.485a4.045,4.045,0,0,1,.137-1.107,2.876,2.876,0,0,1,.451-.909,5.046,5.046,0,0,1,.824-.861q.509-.431,1.248-.971a7.887,7.887,0,0,0,.892-.731,3.8,3.8,0,0,0,.578-.7,2.5,2.5,0,0,0,.311-.708A3.051,3.051,0,0,0,27.918-7.232ZM31.712.15a.726.726,0,0,1-.537-.226.742.742,0,0,1-.222-.54.754.754,0,0,1,.222-.543.72.72,0,0,1,.537-.229.739.739,0,0,1,.547.229.748.748,0,0,1,.226.543.737.737,0,0,1-.226.54A.745.745,0,0,1,31.712.15ZM40.2-4.942a9.63,9.63,0,0,1-.222,2.181,5.081,5.081,0,0,1-.643,1.6A2.892,2.892,0,0,1,38.3-.167a2.826,2.826,0,0,1-1.391.338,2.639,2.639,0,0,1-1.316-.325,2.758,2.758,0,0,1-.974-.947,4.8,4.8,0,0,1-.6-1.528A9.447,9.447,0,0,1,33.811-4.7a10.694,10.694,0,0,1,.215-2.27,5.191,5.191,0,0,1,.632-1.651,2.814,2.814,0,0,1,1.036-1,2.908,2.908,0,0,1,1.418-.338Q40.2-9.967,40.2-4.942Zm-1.148.109q0-4.184-1.989-4.184-2.1,0-2.1,4.259,0,3.972,2.058,3.972Q39.047-.786,39.047-4.833Zm8.586-.656a9.764,9.764,0,0,1-.267,2.4,5.345,5.345,0,0,1-.779,1.777A3.45,3.45,0,0,1,45.336-.208a3.627,3.627,0,0,1-1.682.379,4.028,4.028,0,0,1-1.709-.342V-1.244a3.484,3.484,0,0,0,1.736.458,2.521,2.521,0,0,0,1.186-.273,2.456,2.456,0,0,0,.885-.8,3.91,3.91,0,0,0,.554-1.289A7.276,7.276,0,0,0,46.5-4.9h-.027a2.239,2.239,0,0,1-2.187,1.265,2.941,2.941,0,0,1-1.155-.222,2.647,2.647,0,0,1-.909-.629,2.878,2.878,0,0,1-.595-.967,3.474,3.474,0,0,1-.212-1.237,3.6,3.6,0,0,1,.236-1.326A3.091,3.091,0,0,1,42.3-9.054a2.936,2.936,0,0,1,1-.673,3.264,3.264,0,0,1,1.261-.239,2.792,2.792,0,0,1,1.309.3,2.624,2.624,0,0,1,.96.868,4.29,4.29,0,0,1,.595,1.4A8.021,8.021,0,0,1,47.633-5.489Zm-1.21-1a3.413,3.413,0,0,0-.147-1.032,2.5,2.5,0,0,0-.407-.8,1.825,1.825,0,0,0-.619-.513,1.712,1.712,0,0,0-.783-.181,1.775,1.775,0,0,0-.752.161,1.808,1.808,0,0,0-.6.451,2.154,2.154,0,0,0-.4.69,2.508,2.508,0,0,0-.147.872,2.867,2.867,0,0,0,.14.93,1.942,1.942,0,0,0,.4.694,1.727,1.727,0,0,0,.625.434,2.111,2.111,0,0,0,.81.15,1.856,1.856,0,0,0,.735-.147,1.946,1.946,0,0,0,.6-.4,1.827,1.827,0,0,0,.4-.588A1.807,1.807,0,0,0,46.423-6.494Z" transform="translate(288.274 147)" fill="#31313a"/>
            <path id="Path_101973" data-name="Path 101973" d="M4.211-.055V1.429H3.5V0A4.29,4.29,0,0,1,1.135-.588V-1.777a3.2,3.2,0,0,0,1.083.584A3.962,3.962,0,0,0,3.5-.957v-3.5A5.363,5.363,0,0,1,1.552-5.793a2.394,2.394,0,0,1-.444-1.446,2.418,2.418,0,0,1,.677-1.712A2.8,2.8,0,0,1,3.5-9.816v-1.23h.711v1.2a3.784,3.784,0,0,1,1.853.383V-8.3a3.105,3.105,0,0,0-1.853-.588v3.609A5.81,5.81,0,0,1,6.156-3.968a2.2,2.2,0,0,1,.523,1.439A2.227,2.227,0,0,1,6.026-.9,3.171,3.171,0,0,1,4.211-.055ZM3.5-5.66V-8.846a1.558,1.558,0,0,0-.909.509,1.421,1.421,0,0,0-.335.954,1.6,1.6,0,0,0,.273.964A2.946,2.946,0,0,0,3.5-5.66ZM4.211-4.1v3.09Q5.53-1.3,5.53-2.434,5.53-3.377,4.211-4.1Zm9.146-5.7v6.474h1.258V-2.3H13.357V0H12.25V-2.3H7.643v-.971Q8.285-4,8.941-4.823T10.2-6.494q.6-.848,1.107-1.692A15.462,15.462,0,0,0,12.161-9.8ZM8.907-3.329H12.25v-4.8q-.513.9-.971,1.6T10.408-5.25q-.414.574-.79,1.039T8.907-3.329ZM22-9.153q-.226.39-.543.971t-.673,1.306q-.355.725-.725,1.559T19.366-3.6q-.321.889-.564,1.8A13.4,13.4,0,0,0,18.45,0h-1.2a13.631,13.631,0,0,1,.379-1.788q.256-.913.581-1.791t.687-1.692q.362-.813.7-1.5t.625-1.207q.284-.523.455-.817H15.764V-9.8H22Zm7.157,6.378a2.858,2.858,0,0,1-.25,1.207,2.664,2.664,0,0,1-.7.93,3.25,3.25,0,0,1-1.09.6,4.41,4.41,0,0,1-1.4.212,4.072,4.072,0,0,1-2.229-.533v-1.2a3.571,3.571,0,0,0,2.27.779,3.084,3.084,0,0,0,.926-.13,2.077,2.077,0,0,0,.711-.376,1.67,1.67,0,0,0,.458-.595,1.857,1.857,0,0,0,.161-.786q0-1.921-2.734-1.921h-.813v-.95h.772q2.42,0,2.42-1.8,0-1.668-1.846-1.668a3.143,3.143,0,0,0-1.948.7V-9.406a4.259,4.259,0,0,1,2.229-.561A3.424,3.424,0,0,1,27.2-9.8a2.553,2.553,0,0,1,.854.479,2.121,2.121,0,0,1,.55.738,2.279,2.279,0,0,1,.195.95,2.393,2.393,0,0,1-1.955,2.488v.027a3.093,3.093,0,0,1,.923.243,2.463,2.463,0,0,1,.731.489,2.179,2.179,0,0,1,.482.708A2.259,2.259,0,0,1,29.155-2.775ZM31.712.15a.726.726,0,0,1-.537-.226.742.742,0,0,1-.222-.54.754.754,0,0,1,.222-.543.72.72,0,0,1,.537-.229.739.739,0,0,1,.547.229.748.748,0,0,1,.226.543.737.737,0,0,1-.226.54A.745.745,0,0,1,31.712.15ZM38.5-7.232a2.027,2.027,0,0,0-.14-.786,1.557,1.557,0,0,0-.383-.557,1.568,1.568,0,0,0-.571-.332,2.235,2.235,0,0,0-.711-.109,2.352,2.352,0,0,0-.643.089,3.124,3.124,0,0,0-.612.246,3.764,3.764,0,0,0-.574.376,4.148,4.148,0,0,0-.516.485v-1.2a3.352,3.352,0,0,1,1.056-.7,3.719,3.719,0,0,1,1.425-.243,3.441,3.441,0,0,1,1.114.174,2.555,2.555,0,0,1,.889.509,2.354,2.354,0,0,1,.591.827,2.79,2.79,0,0,1,.215,1.128,3.868,3.868,0,0,1-.133,1.053,3.256,3.256,0,0,1-.4.889,4.288,4.288,0,0,1-.68.8,9.635,9.635,0,0,1-.964.779q-.69.492-1.138.841a5.031,5.031,0,0,0-.711.653,1.894,1.894,0,0,0-.369.608,2.127,2.127,0,0,0-.106.7h4.881V0h-6.05V-.485A4.045,4.045,0,0,1,34.1-1.593a2.876,2.876,0,0,1,.451-.909,5.046,5.046,0,0,1,.824-.861q.509-.431,1.248-.971a7.887,7.887,0,0,0,.892-.731,3.8,3.8,0,0,0,.578-.7,2.5,2.5,0,0,0,.311-.708A3.051,3.051,0,0,0,38.5-7.232Zm8.894,4.238a3.3,3.3,0,0,1-.246,1.3,2.84,2.84,0,0,1-.7,1,3.137,3.137,0,0,1-1.1.643,4.291,4.291,0,0,1-1.429.226,3.947,3.947,0,0,1-2.03-.41V-1.429a3.733,3.733,0,0,0,2.044.643,2.766,2.766,0,0,0,.96-.157,2.134,2.134,0,0,0,.728-.437,1.873,1.873,0,0,0,.461-.677,2.291,2.291,0,0,0,.161-.868,1.86,1.86,0,0,0-.643-1.5,2.818,2.818,0,0,0-1.866-.543q-.2,0-.417.007t-.437.017q-.219.01-.427.024t-.379.034L42.41-9.8h4.532v1.012H43.381l-.2,2.878q.219-.014.465-.024t.438-.01a4.4,4.4,0,0,1,1.395.205,2.955,2.955,0,0,1,1.042.584,2.451,2.451,0,0,1,.649.93A3.27,3.27,0,0,1,47.394-2.994Z" transform="translate(288.274 187)" fill="#31313a"/>
            <path id="Path_101970" data-name="Path 101970" d="M4.211-.055V1.429H3.5V0A4.29,4.29,0,0,1,1.135-.588V-1.777a3.2,3.2,0,0,0,1.083.584A3.962,3.962,0,0,0,3.5-.957v-3.5A5.363,5.363,0,0,1,1.552-5.793a2.394,2.394,0,0,1-.444-1.446,2.418,2.418,0,0,1,.677-1.712A2.8,2.8,0,0,1,3.5-9.816v-1.23h.711v1.2a3.784,3.784,0,0,1,1.853.383V-8.3a3.105,3.105,0,0,0-1.853-.588v3.609A5.81,5.81,0,0,1,6.156-3.968a2.2,2.2,0,0,1,.523,1.439A2.227,2.227,0,0,1,6.026-.9,3.171,3.171,0,0,1,4.211-.055ZM3.5-5.66V-8.846a1.558,1.558,0,0,0-.909.509,1.421,1.421,0,0,0-.335.954,1.6,1.6,0,0,0,.273.964A2.946,2.946,0,0,0,3.5-5.66ZM4.211-4.1v3.09Q5.53-1.3,5.53-2.434,5.53-3.377,4.211-4.1Zm9.146-5.7v6.474h1.258V-2.3H13.357V0H12.25V-2.3H7.643v-.971Q8.285-4,8.941-4.823T10.2-6.494q.6-.848,1.107-1.692A15.462,15.462,0,0,0,12.161-9.8ZM8.907-3.329H12.25v-4.8q-.513.9-.971,1.6T10.408-5.25q-.414.574-.79,1.039T8.907-3.329Zm6.8.595a2.608,2.608,0,0,1,.123-.783,2.835,2.835,0,0,1,.352-.735,2.913,2.913,0,0,1,.567-.622,2.7,2.7,0,0,1,.769-.444,2.906,2.906,0,0,1-1.012-.913,2.158,2.158,0,0,1-.376-1.234,2.38,2.38,0,0,1,.208-1,2.4,2.4,0,0,1,.578-.793,2.67,2.67,0,0,1,.875-.523,3.115,3.115,0,0,1,1.094-.188,3.085,3.085,0,0,1,1.1.191,2.717,2.717,0,0,1,.875.526,2.363,2.363,0,0,1,.574.793,2.4,2.4,0,0,1,.205.991,2.158,2.158,0,0,1-.376,1.234,2.943,2.943,0,0,1-1,.913,2.681,2.681,0,0,1,.759.444,2.956,2.956,0,0,1,.564.622,2.835,2.835,0,0,1,.352.735,2.608,2.608,0,0,1,.123.783,2.911,2.911,0,0,1-.232,1.176,2.627,2.627,0,0,1-.653.913,3.014,3.014,0,0,1-1,.591,3.756,3.756,0,0,1-1.289.212,3.706,3.706,0,0,1-1.278-.212,3.06,3.06,0,0,1-1-.591,2.645,2.645,0,0,1-.66-.913A2.875,2.875,0,0,1,15.709-2.734Zm1.217-.1a2.316,2.316,0,0,0,.14.827,1.783,1.783,0,0,0,.4.629,1.731,1.731,0,0,0,.622.4,2.247,2.247,0,0,0,.81.14,2.134,2.134,0,0,0,.793-.144,1.848,1.848,0,0,0,.625-.4,1.813,1.813,0,0,0,.41-.629,2.2,2.2,0,0,0,.147-.82,2.1,2.1,0,0,0-.14-.769,1.925,1.925,0,0,0-.4-.632,1.879,1.879,0,0,0-.622-.431,2.024,2.024,0,0,0-.813-.157,2.046,2.046,0,0,0-.783.147,1.873,1.873,0,0,0-.622.41,1.9,1.9,0,0,0-.414.629A2.092,2.092,0,0,0,16.926-2.83Zm.349-4.546a1.633,1.633,0,0,0,.126.646,1.628,1.628,0,0,0,.349.52,1.638,1.638,0,0,0,.516.349,1.574,1.574,0,0,0,.629.126,1.562,1.562,0,0,0,.632-.13,1.634,1.634,0,0,0,.516-.352,1.706,1.706,0,0,0,.349-.52,1.579,1.579,0,0,0,.13-.639,1.676,1.676,0,0,0-.126-.656,1.606,1.606,0,0,0-.345-.52,1.616,1.616,0,0,0-.516-.345,1.616,1.616,0,0,0-.639-.126,1.631,1.631,0,0,0-.66.13,1.594,1.594,0,0,0-.513.352,1.539,1.539,0,0,0-.332.523A1.767,1.767,0,0,0,17.274-7.376ZM29.545-9.153q-.226.39-.543.971t-.673,1.306q-.355.725-.725,1.559T26.913-3.6q-.321.889-.564,1.8A13.4,13.4,0,0,0,26,0h-1.2a13.631,13.631,0,0,1,.379-1.788q.256-.913.581-1.791t.687-1.692q.362-.813.7-1.5t.625-1.207q.284-.523.455-.817H23.311V-9.8h6.234ZM31.712.15a.726.726,0,0,1-.537-.226.742.742,0,0,1-.222-.54.754.754,0,0,1,.222-.543.72.72,0,0,1,.537-.229.739.739,0,0,1,.547.229.748.748,0,0,1,.226.543.737.737,0,0,1-.226.54A.745.745,0,0,1,31.712.15ZM38.5-7.232a2.027,2.027,0,0,0-.14-.786,1.557,1.557,0,0,0-.383-.557,1.568,1.568,0,0,0-.571-.332,2.235,2.235,0,0,0-.711-.109,2.352,2.352,0,0,0-.643.089,3.124,3.124,0,0,0-.612.246,3.764,3.764,0,0,0-.574.376,4.148,4.148,0,0,0-.516.485v-1.2a3.352,3.352,0,0,1,1.056-.7,3.719,3.719,0,0,1,1.425-.243,3.441,3.441,0,0,1,1.114.174,2.555,2.555,0,0,1,.889.509,2.354,2.354,0,0,1,.591.827,2.79,2.79,0,0,1,.215,1.128,3.868,3.868,0,0,1-.133,1.053,3.256,3.256,0,0,1-.4.889,4.288,4.288,0,0,1-.68.8,9.635,9.635,0,0,1-.964.779q-.69.492-1.138.841a5.031,5.031,0,0,0-.711.653,1.894,1.894,0,0,0-.369.608,2.127,2.127,0,0,0-.106.7h4.881V0h-6.05V-.485A4.045,4.045,0,0,1,34.1-1.593a2.876,2.876,0,0,1,.451-.909,5.046,5.046,0,0,1,.824-.861q.509-.431,1.248-.971a7.887,7.887,0,0,0,.892-.731,3.8,3.8,0,0,0,.578-.7,2.5,2.5,0,0,0,.311-.708A3.051,3.051,0,0,0,38.5-7.232Zm9.242,2.29a9.63,9.63,0,0,1-.222,2.181,5.081,5.081,0,0,1-.643,1.6,2.892,2.892,0,0,1-1.032.991,2.826,2.826,0,0,1-1.391.338,2.639,2.639,0,0,1-1.316-.325,2.758,2.758,0,0,1-.974-.947,4.8,4.8,0,0,1-.6-1.528A9.447,9.447,0,0,1,41.357-4.7a10.694,10.694,0,0,1,.215-2.27,5.191,5.191,0,0,1,.632-1.651,2.814,2.814,0,0,1,1.036-1,2.908,2.908,0,0,1,1.418-.338Q47.742-9.967,47.742-4.942Zm-1.148.109q0-4.184-1.989-4.184-2.1,0-2.1,4.259,0,3.972,2.058,3.972Q46.594-.786,46.594-4.833Z" transform="translate(288.274 227)" fill="#31313a"/>
            <path id="Path_101969" data-name="Path 101969" d="M4.211-.055V1.429H3.5V0A4.29,4.29,0,0,1,1.135-.588V-1.777a3.2,3.2,0,0,0,1.083.584A3.962,3.962,0,0,0,3.5-.957v-3.5A5.363,5.363,0,0,1,1.552-5.793a2.394,2.394,0,0,1-.444-1.446,2.418,2.418,0,0,1,.677-1.712A2.8,2.8,0,0,1,3.5-9.816v-1.23h.711v1.2a3.784,3.784,0,0,1,1.853.383V-8.3a3.105,3.105,0,0,0-1.853-.588v3.609A5.81,5.81,0,0,1,6.156-3.968a2.2,2.2,0,0,1,.523,1.439A2.227,2.227,0,0,1,6.026-.9,3.171,3.171,0,0,1,4.211-.055ZM3.5-5.66V-8.846a1.558,1.558,0,0,0-.909.509,1.421,1.421,0,0,0-.335.954,1.6,1.6,0,0,0,.273.964A2.946,2.946,0,0,0,3.5-5.66ZM4.211-4.1v3.09Q5.53-1.3,5.53-2.434,5.53-3.377,4.211-4.1Zm9.96,1.107a3.3,3.3,0,0,1-.246,1.3,2.84,2.84,0,0,1-.7,1,3.137,3.137,0,0,1-1.1.643A4.291,4.291,0,0,1,10.7.171a3.947,3.947,0,0,1-2.03-.41V-1.429a3.733,3.733,0,0,0,2.044.643,2.766,2.766,0,0,0,.96-.157,2.134,2.134,0,0,0,.728-.437,1.873,1.873,0,0,0,.461-.677,2.291,2.291,0,0,0,.161-.868,1.86,1.86,0,0,0-.643-1.5,2.818,2.818,0,0,0-1.866-.543q-.2,0-.417.007t-.437.017q-.219.01-.427.024t-.379.034L9.188-9.8H13.72v1.012H10.158l-.2,2.878q.219-.014.465-.024t.438-.01a4.4,4.4,0,0,1,1.395.205,2.955,2.955,0,0,1,1.042.584,2.451,2.451,0,0,1,.649.93A3.27,3.27,0,0,1,14.171-2.994Zm7.9-1.948a9.63,9.63,0,0,1-.222,2.181,5.081,5.081,0,0,1-.643,1.6,2.892,2.892,0,0,1-1.032.991,2.826,2.826,0,0,1-1.391.338,2.639,2.639,0,0,1-1.316-.325,2.758,2.758,0,0,1-.974-.947,4.8,4.8,0,0,1-.6-1.528A9.447,9.447,0,0,1,15.682-4.7a10.694,10.694,0,0,1,.215-2.27,5.191,5.191,0,0,1,.632-1.651,2.814,2.814,0,0,1,1.036-1,2.908,2.908,0,0,1,1.418-.338Q22.066-9.967,22.066-4.942Zm-1.148.109q0-4.184-1.989-4.184-2.1,0-2.1,4.259,0,3.972,2.058,3.972Q20.918-.786,20.918-4.833Zm8.237,2.058a2.858,2.858,0,0,1-.25,1.207,2.664,2.664,0,0,1-.7.93,3.25,3.25,0,0,1-1.09.6,4.41,4.41,0,0,1-1.4.212,4.072,4.072,0,0,1-2.229-.533v-1.2a3.571,3.571,0,0,0,2.27.779,3.084,3.084,0,0,0,.926-.13,2.077,2.077,0,0,0,.711-.376,1.67,1.67,0,0,0,.458-.595,1.857,1.857,0,0,0,.161-.786q0-1.921-2.734-1.921h-.813v-.95h.772q2.42,0,2.42-1.8,0-1.668-1.846-1.668a3.143,3.143,0,0,0-1.948.7V-9.406a4.259,4.259,0,0,1,2.229-.561A3.424,3.424,0,0,1,27.2-9.8a2.553,2.553,0,0,1,.854.479,2.121,2.121,0,0,1,.55.738,2.279,2.279,0,0,1,.195.95,2.393,2.393,0,0,1-1.955,2.488v.027a3.093,3.093,0,0,1,.923.243,2.463,2.463,0,0,1,.731.489,2.179,2.179,0,0,1,.482.708A2.259,2.259,0,0,1,29.155-2.775ZM31.712.15a.726.726,0,0,1-.537-.226.742.742,0,0,1-.222-.54.754.754,0,0,1,.222-.543.72.72,0,0,1,.537-.229.739.739,0,0,1,.547.229.748.748,0,0,1,.226.543.737.737,0,0,1-.226.54A.745.745,0,0,1,31.712.15Zm8.5-3.261a3.631,3.631,0,0,1-.232,1.319,3.171,3.171,0,0,1-.643,1.039,2.871,2.871,0,0,1-.978.68,3.1,3.1,0,0,1-1.23.243A2.8,2.8,0,0,1,35.8-.137a2.8,2.8,0,0,1-.991-.885,4.246,4.246,0,0,1-.619-1.412,7.648,7.648,0,0,1-.212-1.88,8.834,8.834,0,0,1,.284-2.321,5.638,5.638,0,0,1,.807-1.784,3.719,3.719,0,0,1,1.261-1.145,3.379,3.379,0,0,1,1.647-.4,3.968,3.968,0,0,1,1.627.28v1.06a3.455,3.455,0,0,0-1.6-.39,2.384,2.384,0,0,0-1.183.294,2.716,2.716,0,0,0-.9.831,4.051,4.051,0,0,0-.578,1.3,6.572,6.572,0,0,0-.2,1.688h.027a2.354,2.354,0,0,1,2.235-1.224,2.942,2.942,0,0,1,1.159.219,2.5,2.5,0,0,1,.882.619,2.785,2.785,0,0,1,.564.954A3.63,3.63,0,0,1,40.209-3.11Zm-1.148.144a3.051,3.051,0,0,0-.13-.923,2,2,0,0,0-.373-.7,1.606,1.606,0,0,0-.6-.441,2.013,2.013,0,0,0-.807-.154,1.888,1.888,0,0,0-.772.157,1.924,1.924,0,0,0-.615.427,1.98,1.98,0,0,0-.407.629,1.992,1.992,0,0,0-.147.762,3.041,3.041,0,0,0,.144.947,2.446,2.446,0,0,0,.4.769,1.918,1.918,0,0,0,.619.516,1.69,1.69,0,0,0,.8.188,1.824,1.824,0,0,0,.772-.161,1.723,1.723,0,0,0,.595-.448,2.073,2.073,0,0,0,.383-.687A2.723,2.723,0,0,0,39.061-2.967Zm8.682-1.976a9.63,9.63,0,0,1-.222,2.181,5.081,5.081,0,0,1-.643,1.6,2.892,2.892,0,0,1-1.032.991,2.826,2.826,0,0,1-1.391.338,2.639,2.639,0,0,1-1.316-.325,2.758,2.758,0,0,1-.974-.947,4.8,4.8,0,0,1-.6-1.528A9.447,9.447,0,0,1,41.357-4.7a10.694,10.694,0,0,1,.215-2.27,5.191,5.191,0,0,1,.632-1.651,2.814,2.814,0,0,1,1.036-1,2.908,2.908,0,0,1,1.418-.338Q47.742-9.967,47.742-4.942Zm-1.148.109q0-4.184-1.989-4.184-2.1,0-2.1,4.259,0,3.972,2.058,3.972Q46.594-.786,46.594-4.833Z" transform="translate(288.274 267)" fill="#31313a"/>
            <path id="Path_101966" data-name="Path 101966" d="M4.211-.055V1.429H3.5V0A4.29,4.29,0,0,1,1.135-.588V-1.777a3.2,3.2,0,0,0,1.083.584A3.962,3.962,0,0,0,3.5-.957v-3.5A5.363,5.363,0,0,1,1.552-5.793a2.394,2.394,0,0,1-.444-1.446,2.418,2.418,0,0,1,.677-1.712A2.8,2.8,0,0,1,3.5-9.816v-1.23h.711v1.2a3.784,3.784,0,0,1,1.853.383V-8.3a3.105,3.105,0,0,0-1.853-.588v3.609A5.81,5.81,0,0,1,6.156-3.968a2.2,2.2,0,0,1,.523,1.439A2.227,2.227,0,0,1,6.026-.9,3.171,3.171,0,0,1,4.211-.055ZM3.5-5.66V-8.846a1.558,1.558,0,0,0-.909.509,1.421,1.421,0,0,0-.335.954,1.6,1.6,0,0,0,.273.964A2.946,2.946,0,0,0,3.5-5.66ZM4.211-4.1v3.09Q5.53-1.3,5.53-2.434,5.53-3.377,4.211-4.1Zm9.96,1.107a3.3,3.3,0,0,1-.246,1.3,2.84,2.84,0,0,1-.7,1,3.137,3.137,0,0,1-1.1.643A4.291,4.291,0,0,1,10.7.171a3.947,3.947,0,0,1-2.03-.41V-1.429a3.733,3.733,0,0,0,2.044.643,2.766,2.766,0,0,0,.96-.157,2.134,2.134,0,0,0,.728-.437,1.873,1.873,0,0,0,.461-.677,2.291,2.291,0,0,0,.161-.868,1.86,1.86,0,0,0-.643-1.5,2.818,2.818,0,0,0-1.866-.543q-.2,0-.417.007t-.437.017q-.219.01-.427.024t-.379.034L9.188-9.8H13.72v1.012H10.158l-.2,2.878q.219-.014.465-.024t.438-.01a4.4,4.4,0,0,1,1.395.205,2.955,2.955,0,0,1,1.042.584,2.451,2.451,0,0,1,.649.93A3.27,3.27,0,0,1,14.171-2.994Zm6.2-4.238a2.027,2.027,0,0,0-.14-.786,1.557,1.557,0,0,0-.383-.557,1.568,1.568,0,0,0-.571-.332,2.235,2.235,0,0,0-.711-.109,2.352,2.352,0,0,0-.643.089,3.124,3.124,0,0,0-.612.246,3.764,3.764,0,0,0-.574.376,4.148,4.148,0,0,0-.516.485v-1.2a3.352,3.352,0,0,1,1.056-.7A3.719,3.719,0,0,1,18.7-9.967a3.441,3.441,0,0,1,1.114.174,2.555,2.555,0,0,1,.889.509,2.354,2.354,0,0,1,.591.827,2.79,2.79,0,0,1,.215,1.128,3.868,3.868,0,0,1-.133,1.053,3.256,3.256,0,0,1-.4.889,4.288,4.288,0,0,1-.68.8,9.635,9.635,0,0,1-.964.779q-.69.492-1.138.841a5.031,5.031,0,0,0-.711.653,1.894,1.894,0,0,0-.369.608,2.127,2.127,0,0,0-.106.7h4.881V0h-6.05V-.485a4.045,4.045,0,0,1,.137-1.107,2.876,2.876,0,0,1,.451-.909,5.046,5.046,0,0,1,.824-.861q.509-.431,1.248-.971a7.887,7.887,0,0,0,.892-.731,3.8,3.8,0,0,0,.578-.7,2.5,2.5,0,0,0,.311-.708A3.051,3.051,0,0,0,20.371-7.232Zm8.784,4.457a2.858,2.858,0,0,1-.25,1.207,2.664,2.664,0,0,1-.7.93,3.25,3.25,0,0,1-1.09.6,4.41,4.41,0,0,1-1.4.212,4.072,4.072,0,0,1-2.229-.533v-1.2a3.571,3.571,0,0,0,2.27.779,3.084,3.084,0,0,0,.926-.13,2.077,2.077,0,0,0,.711-.376,1.67,1.67,0,0,0,.458-.595,1.857,1.857,0,0,0,.161-.786q0-1.921-2.734-1.921h-.813v-.95h.772q2.42,0,2.42-1.8,0-1.668-1.846-1.668a3.143,3.143,0,0,0-1.948.7V-9.406a4.259,4.259,0,0,1,2.229-.561A3.424,3.424,0,0,1,27.2-9.8a2.553,2.553,0,0,1,.854.479,2.121,2.121,0,0,1,.55.738,2.279,2.279,0,0,1,.195.95,2.393,2.393,0,0,1-1.955,2.488v.027a3.093,3.093,0,0,1,.923.243,2.463,2.463,0,0,1,.731.489,2.179,2.179,0,0,1,.482.708A2.259,2.259,0,0,1,29.155-2.775ZM31.712.15a.726.726,0,0,1-.537-.226.742.742,0,0,1-.222-.54.754.754,0,0,1,.222-.543.72.72,0,0,1,.537-.229.739.739,0,0,1,.547.229.748.748,0,0,1,.226.543.737.737,0,0,1-.226.54A.745.745,0,0,1,31.712.15ZM38.172,0H37.051V-8.47a2.6,2.6,0,0,1-.379.3,6.184,6.184,0,0,1-.561.332q-.311.164-.656.308a4.769,4.769,0,0,1-.673.226V-8.442a6.517,6.517,0,0,0,.783-.277q.414-.174.813-.39t.755-.451a6,6,0,0,0,.615-.461h.424Zm9.112-2.775a2.858,2.858,0,0,1-.25,1.207,2.664,2.664,0,0,1-.7.93,3.25,3.25,0,0,1-1.09.6,4.41,4.41,0,0,1-1.4.212A4.072,4.072,0,0,1,41.61-.362v-1.2a3.571,3.571,0,0,0,2.27.779,3.084,3.084,0,0,0,.926-.13,2.077,2.077,0,0,0,.711-.376,1.67,1.67,0,0,0,.458-.595,1.857,1.857,0,0,0,.161-.786q0-1.921-2.734-1.921h-.813v-.95h.772q2.42,0,2.42-1.8,0-1.668-1.846-1.668a3.143,3.143,0,0,0-1.948.7V-9.406a4.259,4.259,0,0,1,2.229-.561,3.424,3.424,0,0,1,1.114.171,2.553,2.553,0,0,1,.854.479,2.12,2.12,0,0,1,.55.738,2.279,2.279,0,0,1,.195.95,2.393,2.393,0,0,1-1.955,2.488v.027a3.093,3.093,0,0,1,.923.243,2.463,2.463,0,0,1,.731.489,2.179,2.179,0,0,1,.482.708A2.259,2.259,0,0,1,47.284-2.775Z" transform="translate(288.274 307)" fill="#31313a"/>
            <path id="Path_101965" data-name="Path 101965" d="M4.211-.055V1.429H3.5V0A4.29,4.29,0,0,1,1.135-.588V-1.777a3.2,3.2,0,0,0,1.083.584A3.962,3.962,0,0,0,3.5-.957v-3.5A5.363,5.363,0,0,1,1.552-5.793a2.394,2.394,0,0,1-.444-1.446,2.418,2.418,0,0,1,.677-1.712A2.8,2.8,0,0,1,3.5-9.816v-1.23h.711v1.2a3.784,3.784,0,0,1,1.853.383V-8.3a3.105,3.105,0,0,0-1.853-.588v3.609A5.81,5.81,0,0,1,6.156-3.968a2.2,2.2,0,0,1,.523,1.439A2.227,2.227,0,0,1,6.026-.9,3.171,3.171,0,0,1,4.211-.055ZM3.5-5.66V-8.846a1.558,1.558,0,0,0-.909.509,1.421,1.421,0,0,0-.335.954,1.6,1.6,0,0,0,.273.964A2.946,2.946,0,0,0,3.5-5.66ZM4.211-4.1v3.09Q5.53-1.3,5.53-2.434,5.53-3.377,4.211-4.1Zm9.96,1.107a3.3,3.3,0,0,1-.246,1.3,2.84,2.84,0,0,1-.7,1,3.137,3.137,0,0,1-1.1.643A4.291,4.291,0,0,1,10.7.171a3.947,3.947,0,0,1-2.03-.41V-1.429a3.733,3.733,0,0,0,2.044.643,2.766,2.766,0,0,0,.96-.157,2.134,2.134,0,0,0,.728-.437,1.873,1.873,0,0,0,.461-.677,2.291,2.291,0,0,0,.161-.868,1.86,1.86,0,0,0-.643-1.5,2.818,2.818,0,0,0-1.866-.543q-.2,0-.417.007t-.437.017q-.219.01-.427.024t-.379.034L9.188-9.8H13.72v1.012H10.158l-.2,2.878q.219-.014.465-.024t.438-.01a4.4,4.4,0,0,1,1.395.205,2.955,2.955,0,0,1,1.042.584,2.451,2.451,0,0,1,.649.93A3.27,3.27,0,0,1,14.171-2.994ZM20.9-9.8v6.474h1.258V-2.3H20.9V0H19.8V-2.3H15.189v-.971q.643-.725,1.3-1.548t1.254-1.671q.6-.848,1.107-1.692A15.463,15.463,0,0,0,19.708-9.8Zm-4.45,6.474H19.8v-4.8q-.513.9-.971,1.6T17.955-5.25q-.414.574-.79,1.039T16.454-3.329Zm12.811.335a3.3,3.3,0,0,1-.246,1.3,2.84,2.84,0,0,1-.7,1,3.138,3.138,0,0,1-1.1.643,4.291,4.291,0,0,1-1.429.226,3.947,3.947,0,0,1-2.03-.41V-1.429a3.733,3.733,0,0,0,2.044.643,2.766,2.766,0,0,0,.96-.157,2.134,2.134,0,0,0,.728-.437,1.873,1.873,0,0,0,.461-.677,2.291,2.291,0,0,0,.161-.868,1.86,1.86,0,0,0-.643-1.5,2.818,2.818,0,0,0-1.866-.543q-.2,0-.417.007t-.437.017q-.219.01-.427.024t-.379.034L24.281-9.8h4.532v1.012H25.252l-.2,2.878q.219-.014.465-.024t.438-.01a4.4,4.4,0,0,1,1.395.205,2.955,2.955,0,0,1,1.042.584,2.451,2.451,0,0,1,.649.93A3.27,3.27,0,0,1,29.265-2.994ZM31.712.15a.726.726,0,0,1-.537-.226.742.742,0,0,1-.222-.54.754.754,0,0,1,.222-.543.72.72,0,0,1,.537-.229.739.739,0,0,1,.547.229.748.748,0,0,1,.226.543.737.737,0,0,1-.226.54A.745.745,0,0,1,31.712.15ZM38.172,0H37.051V-8.47a2.6,2.6,0,0,1-.379.3,6.184,6.184,0,0,1-.561.332q-.311.164-.656.308a4.769,4.769,0,0,1-.673.226V-8.442a6.517,6.517,0,0,0,.783-.277q.414-.174.813-.39t.755-.451a6,6,0,0,0,.615-.461h.424Zm9.57-4.942a9.63,9.63,0,0,1-.222,2.181,5.081,5.081,0,0,1-.643,1.6,2.892,2.892,0,0,1-1.032.991,2.826,2.826,0,0,1-1.391.338,2.639,2.639,0,0,1-1.316-.325,2.758,2.758,0,0,1-.974-.947,4.8,4.8,0,0,1-.6-1.528A9.447,9.447,0,0,1,41.357-4.7a10.694,10.694,0,0,1,.215-2.27,5.191,5.191,0,0,1,.632-1.651,2.814,2.814,0,0,1,1.036-1,2.908,2.908,0,0,1,1.418-.338Q47.742-9.967,47.742-4.942Zm-1.148.109q0-4.184-1.989-4.184-2.1,0-2.1,4.259,0,3.972,2.058,3.972Q46.594-.786,46.594-4.833Z" transform="translate(288.274 347)" fill="#31313a"/>
            <path id="Path_101962" data-name="Path 101962" d="M4.211-.055V1.429H3.5V0A4.29,4.29,0,0,1,1.135-.588V-1.777a3.2,3.2,0,0,0,1.083.584A3.962,3.962,0,0,0,3.5-.957v-3.5A5.363,5.363,0,0,1,1.552-5.793a2.394,2.394,0,0,1-.444-1.446,2.418,2.418,0,0,1,.677-1.712A2.8,2.8,0,0,1,3.5-9.816v-1.23h.711v1.2a3.784,3.784,0,0,1,1.853.383V-8.3a3.105,3.105,0,0,0-1.853-.588v3.609A5.81,5.81,0,0,1,6.156-3.968a2.2,2.2,0,0,1,.523,1.439A2.227,2.227,0,0,1,6.026-.9,3.171,3.171,0,0,1,4.211-.055ZM3.5-5.66V-8.846a1.558,1.558,0,0,0-.909.509,1.421,1.421,0,0,0-.335.954,1.6,1.6,0,0,0,.273.964A2.946,2.946,0,0,0,3.5-5.66ZM4.211-4.1v3.09Q5.53-1.3,5.53-2.434,5.53-3.377,4.211-4.1Zm9.96,1.107a3.3,3.3,0,0,1-.246,1.3,2.84,2.84,0,0,1-.7,1,3.137,3.137,0,0,1-1.1.643A4.291,4.291,0,0,1,10.7.171a3.947,3.947,0,0,1-2.03-.41V-1.429a3.733,3.733,0,0,0,2.044.643,2.766,2.766,0,0,0,.96-.157,2.134,2.134,0,0,0,.728-.437,1.873,1.873,0,0,0,.461-.677,2.291,2.291,0,0,0,.161-.868,1.86,1.86,0,0,0-.643-1.5,2.818,2.818,0,0,0-1.866-.543q-.2,0-.417.007t-.437.017q-.219.01-.427.024t-.379.034L9.188-9.8H13.72v1.012H10.158l-.2,2.878q.219-.014.465-.024t.438-.01a4.4,4.4,0,0,1,1.395.205,2.955,2.955,0,0,1,1.042.584,2.451,2.451,0,0,1,.649.93A3.27,3.27,0,0,1,14.171-2.994ZM22-9.153q-.226.39-.543.971t-.673,1.306q-.355.725-.725,1.559T19.366-3.6q-.321.889-.564,1.8A13.4,13.4,0,0,0,18.45,0h-1.2a13.631,13.631,0,0,1,.379-1.788q.256-.913.581-1.791t.687-1.692q.362-.813.7-1.5t.625-1.207q.284-.523.455-.817H15.764V-9.8H22Zm7.615,4.211a9.63,9.63,0,0,1-.222,2.181,5.081,5.081,0,0,1-.643,1.6,2.892,2.892,0,0,1-1.032.991,2.826,2.826,0,0,1-1.391.338,2.639,2.639,0,0,1-1.316-.325,2.758,2.758,0,0,1-.974-.947,4.8,4.8,0,0,1-.6-1.528A9.447,9.447,0,0,1,23.229-4.7a10.694,10.694,0,0,1,.215-2.27,5.191,5.191,0,0,1,.632-1.651,2.814,2.814,0,0,1,1.036-1,2.908,2.908,0,0,1,1.418-.338Q29.613-9.967,29.613-4.942Zm-1.148.109q0-4.184-1.989-4.184-2.1,0-2.1,4.259,0,3.972,2.058,3.972Q28.465-.786,28.465-4.833ZM31.712.15a.726.726,0,0,1-.537-.226.742.742,0,0,1-.222-.54.754.754,0,0,1,.222-.543.72.72,0,0,1,.537-.229.739.739,0,0,1,.547.229.748.748,0,0,1,.226.543.737.737,0,0,1-.226.54A.745.745,0,0,1,31.712.15ZM38.5-7.232a2.027,2.027,0,0,0-.14-.786,1.557,1.557,0,0,0-.383-.557,1.568,1.568,0,0,0-.571-.332,2.235,2.235,0,0,0-.711-.109,2.352,2.352,0,0,0-.643.089,3.124,3.124,0,0,0-.612.246,3.764,3.764,0,0,0-.574.376,4.148,4.148,0,0,0-.516.485v-1.2a3.352,3.352,0,0,1,1.056-.7,3.719,3.719,0,0,1,1.425-.243,3.441,3.441,0,0,1,1.114.174,2.555,2.555,0,0,1,.889.509,2.354,2.354,0,0,1,.591.827,2.79,2.79,0,0,1,.215,1.128,3.868,3.868,0,0,1-.133,1.053,3.256,3.256,0,0,1-.4.889,4.288,4.288,0,0,1-.68.8,9.635,9.635,0,0,1-.964.779q-.69.492-1.138.841a5.031,5.031,0,0,0-.711.653,1.894,1.894,0,0,0-.369.608,2.127,2.127,0,0,0-.106.7h4.881V0h-6.05V-.485A4.045,4.045,0,0,1,34.1-1.593a2.876,2.876,0,0,1,.451-.909,5.046,5.046,0,0,1,.824-.861q.509-.431,1.248-.971a7.887,7.887,0,0,0,.892-.731,3.8,3.8,0,0,0,.578-.7,2.5,2.5,0,0,0,.311-.708A3.051,3.051,0,0,0,38.5-7.232ZM45.719,0H44.6V-8.47a2.6,2.6,0,0,1-.379.3,6.184,6.184,0,0,1-.561.332q-.311.164-.656.308a4.769,4.769,0,0,1-.673.226V-8.442a6.517,6.517,0,0,0,.783-.277q.414-.174.813-.39t.755-.451a6,6,0,0,0,.615-.461h.424Z" transform="translate(288.274 387)" fill="#31313a"/>
            <path id="Path_101961" data-name="Path 101961" d="M4.211-.055V1.429H3.5V0A4.29,4.29,0,0,1,1.135-.588V-1.777a3.2,3.2,0,0,0,1.083.584A3.962,3.962,0,0,0,3.5-.957v-3.5A5.363,5.363,0,0,1,1.552-5.793a2.394,2.394,0,0,1-.444-1.446,2.418,2.418,0,0,1,.677-1.712A2.8,2.8,0,0,1,3.5-9.816v-1.23h.711v1.2a3.784,3.784,0,0,1,1.853.383V-8.3a3.105,3.105,0,0,0-1.853-.588v3.609A5.81,5.81,0,0,1,6.156-3.968a2.2,2.2,0,0,1,.523,1.439A2.227,2.227,0,0,1,6.026-.9,3.171,3.171,0,0,1,4.211-.055ZM3.5-5.66V-8.846a1.558,1.558,0,0,0-.909.509,1.421,1.421,0,0,0-.335.954,1.6,1.6,0,0,0,.273.964A2.946,2.946,0,0,0,3.5-5.66ZM4.211-4.1v3.09Q5.53-1.3,5.53-2.434,5.53-3.377,4.211-4.1Zm9.96,1.107a3.3,3.3,0,0,1-.246,1.3,2.84,2.84,0,0,1-.7,1,3.137,3.137,0,0,1-1.1.643A4.291,4.291,0,0,1,10.7.171a3.947,3.947,0,0,1-2.03-.41V-1.429a3.733,3.733,0,0,0,2.044.643,2.766,2.766,0,0,0,.96-.157,2.134,2.134,0,0,0,.728-.437,1.873,1.873,0,0,0,.461-.677,2.291,2.291,0,0,0,.161-.868,1.86,1.86,0,0,0-.643-1.5,2.818,2.818,0,0,0-1.866-.543q-.2,0-.417.007t-.437.017q-.219.01-.427.024t-.379.034L9.188-9.8H13.72v1.012H10.158l-.2,2.878q.219-.014.465-.024t.438-.01a4.4,4.4,0,0,1,1.395.205,2.955,2.955,0,0,1,1.042.584,2.451,2.451,0,0,1,.649.93A3.27,3.27,0,0,1,14.171-2.994Zm7.786-2.5a9.764,9.764,0,0,1-.267,2.4,5.345,5.345,0,0,1-.779,1.777A3.45,3.45,0,0,1,19.66-.208a3.627,3.627,0,0,1-1.682.379A4.028,4.028,0,0,1,16.27-.171V-1.244a3.484,3.484,0,0,0,1.736.458,2.521,2.521,0,0,0,1.186-.273,2.456,2.456,0,0,0,.885-.8,3.91,3.91,0,0,0,.554-1.289A7.276,7.276,0,0,0,20.822-4.9h-.027a2.239,2.239,0,0,1-2.187,1.265,2.941,2.941,0,0,1-1.155-.222,2.647,2.647,0,0,1-.909-.629,2.878,2.878,0,0,1-.595-.967,3.474,3.474,0,0,1-.212-1.237,3.6,3.6,0,0,1,.236-1.326,3.091,3.091,0,0,1,.656-1.036,2.936,2.936,0,0,1,1-.673,3.264,3.264,0,0,1,1.261-.239,2.792,2.792,0,0,1,1.309.3,2.624,2.624,0,0,1,.96.868,4.29,4.29,0,0,1,.595,1.4A8.021,8.021,0,0,1,21.957-5.489Zm-1.21-1A3.413,3.413,0,0,0,20.6-7.526a2.5,2.5,0,0,0-.407-.8,1.825,1.825,0,0,0-.619-.513,1.712,1.712,0,0,0-.783-.181,1.775,1.775,0,0,0-.752.161,1.808,1.808,0,0,0-.6.451,2.154,2.154,0,0,0-.4.69,2.508,2.508,0,0,0-.147.872,2.867,2.867,0,0,0,.14.93,1.942,1.942,0,0,0,.4.694,1.727,1.727,0,0,0,.625.434,2.111,2.111,0,0,0,.81.15,1.856,1.856,0,0,0,.735-.147,1.946,1.946,0,0,0,.6-.4,1.827,1.827,0,0,0,.4-.588A1.807,1.807,0,0,0,20.747-6.494Zm7.7-3.309v6.474h1.258V-2.3H28.451V0H27.344V-2.3H22.736v-.971q.643-.725,1.3-1.548T25.29-6.494q.6-.848,1.107-1.692A15.463,15.463,0,0,0,27.255-9.8ZM24-3.329h3.343v-4.8q-.513.9-.971,1.6T25.5-5.25q-.414.574-.79,1.039T24-3.329ZM31.712.15a.726.726,0,0,1-.537-.226.742.742,0,0,1-.222-.54.754.754,0,0,1,.222-.543.72.72,0,0,1,.537-.229.739.739,0,0,1,.547.229.748.748,0,0,1,.226.543.737.737,0,0,1-.226.54A.745.745,0,0,1,31.712.15Zm8.374-5.64a9.764,9.764,0,0,1-.267,2.4,5.345,5.345,0,0,1-.779,1.777A3.45,3.45,0,0,1,37.789-.208a3.627,3.627,0,0,1-1.682.379A4.028,4.028,0,0,1,34.4-.171V-1.244a3.484,3.484,0,0,0,1.736.458,2.521,2.521,0,0,0,1.186-.273,2.456,2.456,0,0,0,.885-.8,3.91,3.91,0,0,0,.554-1.289A7.276,7.276,0,0,0,38.951-4.9h-.027a2.239,2.239,0,0,1-2.187,1.265,2.941,2.941,0,0,1-1.155-.222,2.647,2.647,0,0,1-.909-.629,2.878,2.878,0,0,1-.595-.967,3.474,3.474,0,0,1-.212-1.237A3.6,3.6,0,0,1,34.1-8.019a3.091,3.091,0,0,1,.656-1.036,2.936,2.936,0,0,1,1-.673,3.264,3.264,0,0,1,1.261-.239,2.792,2.792,0,0,1,1.309.3,2.624,2.624,0,0,1,.96.868,4.29,4.29,0,0,1,.595,1.4A8.021,8.021,0,0,1,40.086-5.489Zm-1.21-1a3.413,3.413,0,0,0-.147-1.032,2.5,2.5,0,0,0-.407-.8,1.825,1.825,0,0,0-.619-.513,1.712,1.712,0,0,0-.783-.181,1.775,1.775,0,0,0-.752.161,1.808,1.808,0,0,0-.6.451,2.154,2.154,0,0,0-.4.69,2.508,2.508,0,0,0-.147.872,2.867,2.867,0,0,0,.14.93,1.942,1.942,0,0,0,.4.694,1.727,1.727,0,0,0,.625.434,2.111,2.111,0,0,0,.81.15,1.856,1.856,0,0,0,.735-.147,1.946,1.946,0,0,0,.6-.4,1.827,1.827,0,0,0,.4-.588A1.807,1.807,0,0,0,38.876-6.494Zm8.8-2.659q-.226.39-.543.971t-.673,1.306q-.355.725-.725,1.559T45.042-3.6q-.321.889-.564,1.8A13.4,13.4,0,0,0,44.126,0h-1.2A13.631,13.631,0,0,1,43.3-1.788q.256-.913.581-1.791t.687-1.692q.362-.813.7-1.5T45.9-7.974q.284-.523.455-.817H41.439V-9.8h6.234Z" transform="translate(288.274 427)" fill="#31313a"/>
          </g>
        </g>
      </g>
      <rect id="Rectangle_3990" data-name="Rectangle 3990" width="64" height="36" rx="18" transform="translate(843 434)" fill="#2777d3"/>
      <path id="Path_101980" data-name="Path 101980" d="M8.046-.41A5.943,5.943,0,0,1,5.291.164,4.5,4.5,0,0,1,1.873-1.183,4.907,4.907,0,0,1,.588-4.717a5.146,5.146,0,0,1,1.446-3.8A4.946,4.946,0,0,1,5.688-9.967a5.988,5.988,0,0,1,2.358.4V-7.95a4.208,4.208,0,0,0-2.187-.588A3.433,3.433,0,0,0,3.278-7.52,3.742,3.742,0,0,0,2.29-4.8a3.568,3.568,0,0,0,.923,2.581,3.212,3.212,0,0,0,2.427.96,4.345,4.345,0,0,0,2.406-.656ZM11.32,0H9.728V-10.363H11.32Zm5.168.164A3.47,3.47,0,0,1,13.9-.817a3.544,3.544,0,0,1-.967-2.6,3.687,3.687,0,0,1,1.008-2.755,3.708,3.708,0,0,1,2.717-.991,3.358,3.358,0,0,1,2.557.964,3.723,3.723,0,0,1,.916,2.673,3.669,3.669,0,0,1-.988,2.683A3.548,3.548,0,0,1,16.488.164ZM16.563-5.9a1.81,1.81,0,0,0-1.47.649,2.719,2.719,0,0,0-.54,1.791A2.561,2.561,0,0,0,15.1-1.726a1.837,1.837,0,0,0,1.463.632A1.743,1.743,0,0,0,18-1.716a2.754,2.754,0,0,0,.5-1.771A2.8,2.8,0,0,0,18-5.271,1.734,1.734,0,0,0,16.563-5.9ZM21.308-.219v-1.47a3.164,3.164,0,0,0,1.962.677q1.436,0,1.436-.848a.668.668,0,0,0-.123-.407,1.175,1.175,0,0,0-.332-.3,2.607,2.607,0,0,0-.492-.232q-.284-.1-.632-.232a6.694,6.694,0,0,1-.776-.362,2.344,2.344,0,0,1-.574-.434,1.639,1.639,0,0,1-.345-.55,2.026,2.026,0,0,1-.116-.718,1.659,1.659,0,0,1,.239-.892,2.079,2.079,0,0,1,.643-.649,3.081,3.081,0,0,1,.916-.4,4.194,4.194,0,0,1,1.06-.133,4.817,4.817,0,0,1,1.736.294v1.388a2.927,2.927,0,0,0-1.7-.506,2.214,2.214,0,0,0-.543.062,1.4,1.4,0,0,0-.414.171.841.841,0,0,0-.267.263.628.628,0,0,0-.1.338.723.723,0,0,0,.1.383.869.869,0,0,0,.284.277,2.45,2.45,0,0,0,.451.219q.263.1.6.215a8.839,8.839,0,0,1,.81.376,2.737,2.737,0,0,1,.612.434,1.7,1.7,0,0,1,.39.561,1.9,1.9,0,0,1,.137.755,1.727,1.727,0,0,1-.246.93,2.051,2.051,0,0,1-.656.656,3.072,3.072,0,0,1-.947.386A4.919,4.919,0,0,1,23.3.164,4.767,4.767,0,0,1,21.308-.219Zm12.4-2.851H28.937a2.017,2.017,0,0,0,.6,1.5,2.225,2.225,0,0,0,1.569.526,3.459,3.459,0,0,0,2.058-.67V-.437a4.7,4.7,0,0,1-2.529.6A3.131,3.131,0,0,1,28.208-.79a3.814,3.814,0,0,1-.878-2.683A3.73,3.73,0,0,1,28.3-6.135a3.164,3.164,0,0,1,2.4-1.029,2.759,2.759,0,0,1,2.222.923,3.832,3.832,0,0,1,.786,2.563ZM32.177-4.19a2.044,2.044,0,0,0-.4-1.33A1.348,1.348,0,0,0,30.68-6a1.539,1.539,0,0,0-1.159.5,2.28,2.28,0,0,0-.584,1.306Z" transform="translate(858 457)" fill="#fff"/>
      <line id="Line_3" data-name="Line 3" x2="875" transform="translate(62.5 413.5)" fill="none" stroke="#cbcbd2" stroke-width="1"/>
      <rect id="Rectangle_10026" data-name="Rectangle 10026" width="5" height="152" rx="2.5" transform="translate(927 187)" fill="#606071"/>
      <line id="Line_4" data-name="Line 4" y2="377" transform="translate(921.5 36.5)" fill="none" stroke="#e6e6ea" stroke-width="1"/>
    </g>
  </g>
</svg>
