<svg xmlns="http://www.w3.org/2000/svg" xmlns:xlink="http://www.w3.org/1999/xlink" width="500" height="147" viewBox="0 0 500 147">
  <defs>
    <clipPath id="clip-Don_t_-_1">
      <rect width="500" height="147"/>
    </clipPath>
  </defs>
  <g id="Don_t_-_1" data-name="Don&apos;t - 1" clip-path="url(#clip-Don_t_-_1)">
    <rect width="500" height="147" fill="#f4f4f6"/>
    <g id="Group_264702" data-name="Group 264702" transform="translate(161.5 32.875)">
      <rect id="Rectangle_3835" data-name="Rectangle 3835" width="177" height="55" rx="2" fill="#494955"/>
      <path id="Path_101500" data-name="Path 101500" d="M6.262-8.764H2.434v3.391H5.975v1.032H2.434V0H1.285V-9.8H6.262ZM10.9.164A3.247,3.247,0,0,1,8.418-.817a3.633,3.633,0,0,1-.926-2.6,3.785,3.785,0,0,1,.964-2.755,3.465,3.465,0,0,1,2.6-.991A3.14,3.14,0,0,1,13.5-6.2a3.822,3.822,0,0,1,.878,2.673,3.761,3.761,0,0,1-.947,2.683A3.317,3.317,0,0,1,10.9.164Zm.082-6.385a2.132,2.132,0,0,0-1.709.735,3.018,3.018,0,0,0-.629,2.027A2.854,2.854,0,0,0,9.276-1.5a2.161,2.161,0,0,0,1.7.718,2.049,2.049,0,0,0,1.671-.7,3.055,3.055,0,0,0,.584-2A3.108,3.108,0,0,0,12.65-5.51,2.04,2.04,0,0,0,10.979-6.221Zm8.846.355a1.371,1.371,0,0,0-.848-.226,1.431,1.431,0,0,0-1.2.677,3.129,3.129,0,0,0-.482,1.846V0H16.174V-7h1.121v1.442h.027a2.444,2.444,0,0,1,.731-1.152,1.668,1.668,0,0,1,1.1-.414,1.83,1.83,0,0,1,.67.1ZM34.815,0H33.694V-4.02A3.032,3.032,0,0,0,33.335-5.7a1.361,1.361,0,0,0-1.207-.52,1.494,1.494,0,0,0-1.22.656,2.511,2.511,0,0,0-.5,1.572V0H29.285V-4.156q0-2.064-1.593-2.064a1.475,1.475,0,0,0-1.217.619A2.557,2.557,0,0,0,26-3.992V0H24.876V-7H26v1.107h.027A2.378,2.378,0,0,1,28.2-7.164a2.027,2.027,0,0,1,1.251.4,2.012,2.012,0,0,1,.731,1.049A2.5,2.5,0,0,1,32.5-7.164q2.311,0,2.311,2.851ZM39.86.164a3.247,3.247,0,0,1-2.478-.981,3.634,3.634,0,0,1-.926-2.6,3.785,3.785,0,0,1,.964-2.755,3.465,3.465,0,0,1,2.6-.991,3.14,3.14,0,0,1,2.444.964,3.822,3.822,0,0,1,.878,2.673A3.761,3.761,0,0,1,42.4-.844,3.317,3.317,0,0,1,39.86.164Zm.082-6.385a2.132,2.132,0,0,0-1.709.735A3.018,3.018,0,0,0,37.6-3.459,2.854,2.854,0,0,0,38.24-1.5a2.161,2.161,0,0,0,1.7.718,2.049,2.049,0,0,0,1.671-.7,3.055,3.055,0,0,0,.584-2,3.108,3.108,0,0,0-.584-2.023A2.04,2.04,0,0,0,39.942-6.221Zm8.846.355a1.371,1.371,0,0,0-.848-.226,1.431,1.431,0,0,0-1.2.677,3.129,3.129,0,0,0-.482,1.846V0H45.138V-7h1.121v1.442h.027a2.444,2.444,0,0,1,.731-1.152,1.668,1.668,0,0,1,1.1-.414,1.83,1.83,0,0,1,.67.1ZM55.631-3.22H50.688a2.618,2.618,0,0,0,.629,1.8,2.168,2.168,0,0,0,1.654.636,3.439,3.439,0,0,0,2.174-.779V-.506a4.063,4.063,0,0,1-2.44.67A2.959,2.959,0,0,1,50.374-.79a3.9,3.9,0,0,1-.848-2.683,3.828,3.828,0,0,1,.926-2.663,2.97,2.97,0,0,1,2.3-1.029,2.632,2.632,0,0,1,2.126.889,3.705,3.705,0,0,1,.752,2.468Zm-1.148-.95a2.281,2.281,0,0,0-.468-1.511,1.6,1.6,0,0,0-1.282-.54,1.811,1.811,0,0,0-1.347.567A2.575,2.575,0,0,0,50.7-4.17Zm7.253-4.607a.71.71,0,0,1-.513-.205.692.692,0,0,1-.212-.52.7.7,0,0,1,.212-.523.7.7,0,0,1,.513-.208.724.724,0,0,1,.523.208.7.7,0,0,1,.215.523.693.693,0,0,1-.215.513A.718.718,0,0,1,61.735-8.777ZM62.282,0H61.161V-7h1.121Zm8.08,0H69.241V-3.992q0-2.229-1.627-2.229a1.765,1.765,0,0,0-1.391.632,2.344,2.344,0,0,0-.55,1.6V0H64.552V-7h1.121v1.162H65.7A2.526,2.526,0,0,1,68-7.164a2.142,2.142,0,0,1,1.757.742,3.3,3.3,0,0,1,.608,2.143Zm5.571-9.379a1.493,1.493,0,0,0-.745-.185q-1.176,0-1.176,1.483V-7h1.641v.957H74.013V0H72.9V-6.043H71.7V-7h1.2V-8.135a2.358,2.358,0,0,1,.636-1.74,2.146,2.146,0,0,1,1.586-.639,2.2,2.2,0,0,1,.813.123ZM79.782.164A3.247,3.247,0,0,1,77.3-.817a3.633,3.633,0,0,1-.926-2.6,3.785,3.785,0,0,1,.964-2.755,3.465,3.465,0,0,1,2.6-.991A3.14,3.14,0,0,1,82.39-6.2a3.822,3.822,0,0,1,.878,2.673,3.761,3.761,0,0,1-.947,2.683A3.317,3.317,0,0,1,79.782.164Zm.082-6.385a2.132,2.132,0,0,0-1.709.735,3.018,3.018,0,0,0-.629,2.027A2.854,2.854,0,0,0,78.162-1.5a2.161,2.161,0,0,0,1.7.718,2.049,2.049,0,0,0,1.671-.7,3.055,3.055,0,0,0,.584-2,3.108,3.108,0,0,0-.584-2.023A2.04,2.04,0,0,0,79.864-6.221Zm8.846.355a1.371,1.371,0,0,0-.848-.226,1.431,1.431,0,0,0-1.2.677,3.129,3.129,0,0,0-.482,1.846V0H85.06V-7h1.121v1.442h.027a2.444,2.444,0,0,1,.731-1.152,1.668,1.668,0,0,1,1.1-.414,1.83,1.83,0,0,1,.67.1ZM99.866,0H98.745V-4.02A3.032,3.032,0,0,0,98.386-5.7a1.361,1.361,0,0,0-1.207-.52,1.494,1.494,0,0,0-1.22.656,2.511,2.511,0,0,0-.5,1.572V0H94.336V-4.156q0-2.064-1.593-2.064a1.475,1.475,0,0,0-1.217.619,2.557,2.557,0,0,0-.479,1.61V0H89.927V-7h1.121v1.107h.027a2.378,2.378,0,0,1,2.174-1.271,2.027,2.027,0,0,1,1.251.4,2.012,2.012,0,0,1,.731,1.049,2.5,2.5,0,0,1,2.324-1.449q2.311,0,2.311,2.851ZM107,0h-1.121V-1.094h-.027A2.347,2.347,0,0,1,103.694.164a2.3,2.3,0,0,1-1.637-.554,1.918,1.918,0,0,1-.591-1.47q0-1.962,2.311-2.283l2.1-.294q0-1.784-1.442-1.784a3.446,3.446,0,0,0-2.283.861V-6.508a4.338,4.338,0,0,1,2.379-.656Q107-7.164,107-4.553Zm-1.121-3.541-1.688.232a2.741,2.741,0,0,0-1.176.386,1.114,1.114,0,0,0-.4.981,1.068,1.068,0,0,0,.366.837,1.413,1.413,0,0,0,.974.325,1.8,1.8,0,0,0,1.377-.584,2.088,2.088,0,0,0,.543-1.48Zm6.48,3.473A2.161,2.161,0,0,1,111.31.15q-1.839,0-1.839-2.051V-6.043h-1.2V-7h1.2V-8.709l1.121-.362V-7h1.764v.957h-1.764V-2.1a1.635,1.635,0,0,0,.239,1,.955.955,0,0,0,.793.3,1.179,1.179,0,0,0,.731-.232Zm2.071-8.709a.71.71,0,0,1-.513-.205.692.692,0,0,1-.212-.52.7.7,0,0,1,.212-.523.7.7,0,0,1,.513-.208.724.724,0,0,1,.523.208.7.7,0,0,1,.215.523.693.693,0,0,1-.215.513A.718.718,0,0,1,114.427-8.777ZM114.974,0h-1.121V-7h1.121Zm5.2.164a3.247,3.247,0,0,1-2.478-.981,3.633,3.633,0,0,1-.926-2.6,3.785,3.785,0,0,1,.964-2.755,3.465,3.465,0,0,1,2.6-.991,3.14,3.14,0,0,1,2.444.964,3.822,3.822,0,0,1,.878,2.673,3.761,3.761,0,0,1-.947,2.683A3.317,3.317,0,0,1,120.169.164Zm.082-6.385a2.132,2.132,0,0,0-1.709.735,3.018,3.018,0,0,0-.629,2.027,2.854,2.854,0,0,0,.636,1.962,2.161,2.161,0,0,0,1.7.718,2.049,2.049,0,0,0,1.671-.7,3.055,3.055,0,0,0,.584-2,3.108,3.108,0,0,0-.584-2.023A2.04,2.04,0,0,0,120.251-6.221ZM131.257,0h-1.121V-3.992q0-2.229-1.627-2.229a1.765,1.765,0,0,0-1.391.632,2.344,2.344,0,0,0-.55,1.6V0h-1.121V-7h1.121v1.162h.027a2.526,2.526,0,0,1,2.3-1.326,2.142,2.142,0,0,1,1.757.742,3.3,3.3,0,0,1,.608,2.143Zm3.138-1.559L133.3,1.8h-.8l.8-3.363ZM2.283,17.988H2.256V22.22H1.135V12H2.256v1.23h.027A2.651,2.651,0,0,1,4.7,11.836a2.563,2.563,0,0,1,2.112.94,3.893,3.893,0,0,1,.759,2.519,4.339,4.339,0,0,1-.854,2.813,2.845,2.845,0,0,1-2.338,1.056A2.342,2.342,0,0,1,2.283,17.988Zm-.027-2.823v.978a2.081,2.081,0,0,0,.564,1.473,1.873,1.873,0,0,0,1.432.6,1.876,1.876,0,0,0,1.6-.779,3.575,3.575,0,0,0,.578-2.167,2.822,2.822,0,0,0-.54-1.832,1.787,1.787,0,0,0-1.463-.663,1.986,1.986,0,0,0-1.572.68A2.5,2.5,0,0,0,2.256,15.165ZM10.486,19H9.365V8.637h1.121Zm7.9-3.22H13.439a2.618,2.618,0,0,0,.629,1.8,2.168,2.168,0,0,0,1.654.636,3.439,3.439,0,0,0,2.174-.779v1.053a4.063,4.063,0,0,1-2.44.67,2.959,2.959,0,0,1-2.331-.954,3.9,3.9,0,0,1-.848-2.683,3.828,3.828,0,0,1,.926-2.663,2.97,2.97,0,0,1,2.3-1.029,2.632,2.632,0,0,1,2.126.889,3.705,3.705,0,0,1,.752,2.468Zm-1.148-.95a2.281,2.281,0,0,0-.468-1.511,1.6,1.6,0,0,0-1.282-.54,1.811,1.811,0,0,0-1.347.567,2.575,2.575,0,0,0-.684,1.483ZM25.088,19H23.967V17.906h-.027a2.347,2.347,0,0,1-2.153,1.258,2.3,2.3,0,0,1-1.637-.554,1.918,1.918,0,0,1-.591-1.47q0-1.962,2.311-2.283l2.1-.294q0-1.784-1.442-1.784a3.446,3.446,0,0,0-2.283.861V12.492a4.338,4.338,0,0,1,2.379-.656q2.468,0,2.468,2.611Zm-1.121-3.541-1.688.232a2.741,2.741,0,0,0-1.176.386,1.114,1.114,0,0,0-.4.981,1.068,1.068,0,0,0,.366.837,1.413,1.413,0,0,0,.974.325,1.8,1.8,0,0,0,1.377-.584,2.088,2.088,0,0,0,.543-1.48Zm2.81,3.288v-1.2a3.318,3.318,0,0,0,2.017.677q1.477,0,1.477-.984a.854.854,0,0,0-.126-.475,1.26,1.26,0,0,0-.342-.345,2.631,2.631,0,0,0-.506-.27q-.291-.12-.625-.25a8.056,8.056,0,0,1-.817-.373,2.468,2.468,0,0,1-.588-.424,1.577,1.577,0,0,1-.355-.537,1.9,1.9,0,0,1-.12-.7,1.673,1.673,0,0,1,.226-.872,2,2,0,0,1,.6-.636,2.805,2.805,0,0,1,.858-.386,3.805,3.805,0,0,1,.995-.13,4.016,4.016,0,0,1,1.627.314v1.135a3.171,3.171,0,0,0-1.777-.506,2.078,2.078,0,0,0-.567.072,1.389,1.389,0,0,0-.434.2.932.932,0,0,0-.28.311.819.819,0,0,0-.1.4.959.959,0,0,0,.1.458,1.008,1.008,0,0,0,.291.328,2.221,2.221,0,0,0,.465.26q.273.116.622.253a8.658,8.658,0,0,1,.834.366,2.86,2.86,0,0,1,.629.424,1.656,1.656,0,0,1,.4.543,1.753,1.753,0,0,1,.14.731,1.725,1.725,0,0,1-.229.9,1.963,1.963,0,0,1-.612.636,2.8,2.8,0,0,1-.882.376,4.354,4.354,0,0,1-1.046.123A3.971,3.971,0,0,1,26.776,18.747Zm11.99-2.967H33.824a2.618,2.618,0,0,0,.629,1.8,2.168,2.168,0,0,0,1.654.636,3.439,3.439,0,0,0,2.174-.779v1.053a4.063,4.063,0,0,1-2.44.67,2.959,2.959,0,0,1-2.331-.954,3.9,3.9,0,0,1-.848-2.683,3.828,3.828,0,0,1,.926-2.663,2.97,2.97,0,0,1,2.3-1.029,2.632,2.632,0,0,1,2.126.889,3.705,3.705,0,0,1,.752,2.468Zm-1.148-.95a2.281,2.281,0,0,0-.468-1.511,1.6,1.6,0,0,0-1.282-.54,1.811,1.811,0,0,0-1.347.567,2.575,2.575,0,0,0-.684,1.483Zm11.45,3.849a3.643,3.643,0,0,1-1.914.485,3.169,3.169,0,0,1-2.417-.974,3.53,3.53,0,0,1-.919-2.526,3.881,3.881,0,0,1,.991-2.779,3.468,3.468,0,0,1,2.646-1.049,3.682,3.682,0,0,1,1.627.342v1.148a2.85,2.85,0,0,0-1.668-.547,2.254,2.254,0,0,0-1.76.769,2.918,2.918,0,0,0-.687,2.02,2.779,2.779,0,0,0,.646,1.941,2.227,2.227,0,0,0,1.733.711,2.81,2.81,0,0,0,1.723-.608Zm4.621.485a3.247,3.247,0,0,1-2.478-.981,3.634,3.634,0,0,1-.926-2.6,3.785,3.785,0,0,1,.964-2.755,3.465,3.465,0,0,1,2.6-.991A3.14,3.14,0,0,1,56.3,12.8a3.822,3.822,0,0,1,.878,2.673,3.761,3.761,0,0,1-.947,2.683A3.317,3.317,0,0,1,53.689,19.164Zm.082-6.385a2.132,2.132,0,0,0-1.709.735,3.018,3.018,0,0,0-.629,2.027,2.854,2.854,0,0,0,.636,1.962,2.161,2.161,0,0,0,1.7.718,2.049,2.049,0,0,0,1.671-.7,3.055,3.055,0,0,0,.584-2,3.108,3.108,0,0,0-.584-2.023A2.04,2.04,0,0,0,53.771,12.779ZM64.777,19H63.656V15.008q0-2.229-1.627-2.229a1.765,1.765,0,0,0-1.391.632,2.344,2.344,0,0,0-.55,1.6V19H58.967V12h1.121v1.162h.027a2.526,2.526,0,0,1,2.3-1.326,2.142,2.142,0,0,1,1.757.742,3.3,3.3,0,0,1,.608,2.143Zm5.359-.068a2.161,2.161,0,0,1-1.046.219q-1.839,0-1.839-2.051V12.957h-1.2V12h1.2V10.291l1.121-.362V12h1.764v.957H68.373V16.9a1.635,1.635,0,0,0,.239,1,.955.955,0,0,0,.793.3,1.179,1.179,0,0,0,.731-.232ZM76.645,19H75.523V17.906H75.5a2.347,2.347,0,0,1-2.153,1.258,2.3,2.3,0,0,1-1.637-.554,1.918,1.918,0,0,1-.591-1.47q0-1.962,2.311-2.283l2.1-.294q0-1.784-1.442-1.784a3.446,3.446,0,0,0-2.283.861V12.492a4.338,4.338,0,0,1,2.379-.656q2.468,0,2.468,2.611Zm-1.121-3.541-1.688.232a2.741,2.741,0,0,0-1.176.386,1.114,1.114,0,0,0-.4.981,1.068,1.068,0,0,0,.366.837,1.413,1.413,0,0,0,.974.325,1.8,1.8,0,0,0,1.377-.584,2.088,2.088,0,0,0,.543-1.48Zm8,3.22a3.643,3.643,0,0,1-1.914.485A3.169,3.169,0,0,1,79.2,18.19a3.53,3.53,0,0,1-.919-2.526,3.881,3.881,0,0,1,.991-2.779,3.467,3.467,0,0,1,2.646-1.049,3.682,3.682,0,0,1,1.627.342v1.148a2.85,2.85,0,0,0-1.668-.547,2.254,2.254,0,0,0-1.76.769,2.918,2.918,0,0,0-.687,2.02,2.779,2.779,0,0,0,.646,1.941,2.227,2.227,0,0,0,1.733.711,2.81,2.81,0,0,0,1.723-.608Zm4.942.253a2.161,2.161,0,0,1-1.046.219q-1.839,0-1.839-2.051V12.957h-1.2V12h1.2V10.291l1.121-.362V12h1.764v.957H86.707V16.9a1.635,1.635,0,0,0,.239,1,.955.955,0,0,0,.793.3,1.179,1.179,0,0,0,.731-.232Z" transform="translate(18 22)" fill="#fff"/>
      <path id="Path_101499" data-name="Path 101499" d="M.595,14.781v-1.47a3.164,3.164,0,0,0,1.962.677q1.436,0,1.436-.848a.668.668,0,0,0-.123-.407,1.175,1.175,0,0,0-.332-.3,2.607,2.607,0,0,0-.492-.232q-.284-.1-.632-.232a6.694,6.694,0,0,1-.776-.362,2.344,2.344,0,0,1-.574-.434,1.639,1.639,0,0,1-.345-.55A2.026,2.026,0,0,1,.6,9.907a1.659,1.659,0,0,1,.239-.892,2.079,2.079,0,0,1,.643-.649,3.081,3.081,0,0,1,.916-.4,4.194,4.194,0,0,1,1.06-.133A4.817,4.817,0,0,1,5.2,8.13V9.518a2.927,2.927,0,0,0-1.7-.506,2.214,2.214,0,0,0-.543.062,1.4,1.4,0,0,0-.414.171.841.841,0,0,0-.267.263.628.628,0,0,0-.1.338.723.723,0,0,0,.1.383.869.869,0,0,0,.284.277,2.45,2.45,0,0,0,.451.219q.263.1.6.215a8.839,8.839,0,0,1,.81.376,2.737,2.737,0,0,1,.612.434,1.7,1.7,0,0,1,.39.561,1.9,1.9,0,0,1,.137.755,1.727,1.727,0,0,1-.246.93,2.051,2.051,0,0,1-.656.656,3.072,3.072,0,0,1-.947.386,4.919,4.919,0,0,1-1.131.126A4.767,4.767,0,0,1,.595,14.781ZM13.173,15H11.587V13.893H11.56a2.282,2.282,0,0,1-2.146,1.271q-2.481,0-2.481-2.98V8H8.518v4.02q0,1.887,1.456,1.887a1.471,1.471,0,0,0,1.159-.52,1.991,1.991,0,0,0,.455-1.36V8h1.586Zm3.678-1.032h-.027V18.22H15.237V8h1.586V9.23h.027a2.6,2.6,0,0,1,2.379-1.395,2.506,2.506,0,0,1,2.078.937,3.928,3.928,0,0,1,.745,2.516,4.361,4.361,0,0,1-.841,2.8,2.781,2.781,0,0,1-2.3,1.053A2.294,2.294,0,0,1,16.851,13.968Zm-.041-2.762v.868a1.852,1.852,0,0,0,.489,1.3,1.725,1.725,0,0,0,2.625-.154,3.2,3.2,0,0,0,.5-1.917,2.52,2.52,0,0,0-.468-1.617A1.539,1.539,0,0,0,18.689,9.1a1.709,1.709,0,0,0-1.364.6A2.228,2.228,0,0,0,16.81,11.206Zm8.477,2.762h-.027V18.22H23.673V8h1.586V9.23h.027a2.6,2.6,0,0,1,2.379-1.395,2.506,2.506,0,0,1,2.078.937,3.928,3.928,0,0,1,.745,2.516,4.361,4.361,0,0,1-.841,2.8,2.781,2.781,0,0,1-2.3,1.053A2.294,2.294,0,0,1,25.286,13.968Zm-.041-2.762v.868a1.852,1.852,0,0,0,.489,1.3,1.725,1.725,0,0,0,2.625-.154,3.2,3.2,0,0,0,.5-1.917,2.52,2.52,0,0,0-.468-1.617A1.539,1.539,0,0,0,27.125,9.1a1.709,1.709,0,0,0-1.364.6A2.228,2.228,0,0,0,25.245,11.206Zm9.967,3.958a3.47,3.47,0,0,1-2.587-.981,3.544,3.544,0,0,1-.967-2.6,3.687,3.687,0,0,1,1.008-2.755,3.708,3.708,0,0,1,2.717-.991,3.358,3.358,0,0,1,2.557.964,3.723,3.723,0,0,1,.916,2.673,3.669,3.669,0,0,1-.988,2.683A3.548,3.548,0,0,1,35.212,15.164ZM35.287,9.1a1.81,1.81,0,0,0-1.47.649,2.719,2.719,0,0,0-.54,1.791,2.561,2.561,0,0,0,.547,1.733,1.837,1.837,0,0,0,1.463.632,1.743,1.743,0,0,0,1.439-.622,2.754,2.754,0,0,0,.5-1.771,2.8,2.8,0,0,0-.5-1.784A1.734,1.734,0,0,0,35.287,9.1Zm9.242.41a1.315,1.315,0,0,0-.827-.226,1.416,1.416,0,0,0-1.176.636,2.843,2.843,0,0,0-.472,1.729V15H40.469V8h1.586V9.442h.027A2.439,2.439,0,0,1,42.8,8.291a1.612,1.612,0,0,1,1.077-.414,1.337,1.337,0,0,1,.656.13Zm5.216,5.414a2.748,2.748,0,0,1-1.224.232q-2.037,0-2.037-1.955V9.244H45.315V8h1.169V6.38l1.586-.451V8h1.675V9.244H48.07v3.5a1.379,1.379,0,0,0,.226.889.936.936,0,0,0,.752.267,1.09,1.09,0,0,0,.7-.232ZM0,16H14.237v1H0Zm17.823,0h4.85v1h-4.85Zm8.436,0H50.08v1H26.259Z" transform="translate(110.5 25)" fill="#2777d3"/>
    </g>
    <rect id="Rectangle_3836" data-name="Rectangle 3836" width="8.033" height="8.033" transform="translate(244.32 87.875) rotate(-45)" fill="#494955"/>
    <g id="Group_268833" data-name="Group 268833" transform="translate(242 99)">
      <g id="Group_11913" data-name="Group 11913">
        <g id="Ellipse_6" data-name="Ellipse 6" fill="none" stroke="#2777d3" stroke-width="1">
          <circle cx="8" cy="8" r="8" stroke="none"/>
          <circle cx="8" cy="8" r="7.5" fill="none"/>
        </g>
      </g>
      <path id="Path_6649" data-name="Path 6649" d="M153,29.862V23.321a.182.182,0,0,1,.182-.182h1.2a.182.182,0,0,1,.182.182v6.541a.182.182,0,0,1-.182.182h-1.2A.182.182,0,0,1,153,29.862Zm.182-8.292h1.2a.182.182,0,0,0,.182-.182v-1.2a.182.182,0,0,0-.182-.182h-1.2a.182.182,0,0,0-.182.182v1.2A.182.182,0,0,0,153.182,21.569Z" transform="translate(-145.667 -17.07)" fill="#2777d3"/>
    </g>
  </g>
</svg>
