<svg xmlns="http://www.w3.org/2000/svg" xmlns:xlink="http://www.w3.org/1999/xlink" width="485" height="311" viewBox="0 0 485 311">
  <defs>
    <filter id="Card" x="25.5" y="26.5" width="434" height="259" filterUnits="userSpaceOnUse">
      <feOffset dy="1" input="SourceAlpha"/>
      <feGaussianBlur stdDeviation="1.5" result="blur"/>
      <feFlood flood-opacity="0.161"/>
      <feComposite operator="in" in2="blur"/>
      <feComposite in="SourceGraphic"/>
    </filter>
    <clipPath id="clip-donut">
      <rect width="485" height="311"/>
    </clipPath>
  </defs>
  <g id="donut" clip-path="url(#clip-donut)">
    <rect width="485" height="311" fill="#f4f4f6"/>
    <g id="Group_270708" data-name="Group 270708" transform="translate(-799 -292)">
      <g transform="matrix(1, 0, 0, 1, 799, 292)" filter="url(#Card)">
        <rect id="Card-2" data-name="Card" width="425" height="250" rx="2" transform="translate(30 30)" fill="#fff"/>
      </g>
    </g>
    <g id="Ring_Chart9" data-name="Ring Chart9" transform="translate(-693.992 -577.497)">
      <g id="Ring_Chart10" data-name="Ring Chart10" transform="translate(841.492 638)">
        <path id="Path_102151" data-name="Path 102151" d="M-17.725-125a94.859,94.859,0,0,1,90.2,65.641A95.082,95.082,0,0,1,38.023,46.851a94.721,94.721,0,0,1-111.5,0L-53.4,19.183a60.622,60.622,0,0,0,71.358,0A60.853,60.853,0,0,0,40-48.791,60.71,60.71,0,0,0-17.725-90.8Z" transform="translate(112.874 125)" fill="#30bbb1"/>
        <path id="Path_102152" data-name="Path 102152" d="M-85.6,52.357A94.631,94.631,0,0,1-125-24.385a94.631,94.631,0,0,1,39.4-76.742L-65.373-73.5A60.564,60.564,0,0,0-90.59-24.385,60.564,60.564,0,0,0-65.373,24.729Z" transform="translate(125 119.382)" fill="#afafbb"/>
        <path id="Path_102153" data-name="Path 102153" d="M-73.473-106.745A95.584,95.584,0,0,1-17.29-125v34.41A61.174,61.174,0,0,0-53.247-78.907Z" transform="translate(112.531 125)" fill="#e6e6ea"/>
      </g>
    </g>
  </g>
</svg>
