<svg xmlns="http://www.w3.org/2000/svg" xmlns:xlink="http://www.w3.org/1999/xlink" width="485" height="412" viewBox="0 0 485 412">
  <defs>
    <filter id="Card" x="15.5" y="26.5" width="454" height="360" filterUnits="userSpaceOnUse">
      <feOffset dy="1" input="SourceAlpha"/>
      <feGaussianBlur stdDeviation="1.5" result="blur"/>
      <feFlood flood-opacity="0.161"/>
      <feComposite operator="in" in2="blur"/>
      <feComposite in="SourceGraphic"/>
    </filter>
    <clipPath id="clip-donut_chart_-_don_t">
      <rect width="485" height="412"/>
    </clipPath>
  </defs>
  <g id="donut_chart_-_don_t" data-name="donut chart - don&apos;t" clip-path="url(#clip-donut_chart_-_don_t)">
    <rect width="485" height="412" fill="#f4f4f6"/>
    <g id="Card-2" data-name="Card" transform="translate(20 30)">
      <g transform="matrix(1, 0, 0, 1, -20, -30)" filter="url(#Card)">
        <rect id="Card-3" data-name="Card" width="445" height="351" rx="2" transform="translate(20 30)" fill="#fff"/>
      </g>
      <rect id="Card-4" data-name="Card" width="445" height="61" rx="2" fill="#fafafa"/>
      <text id="Rates_per_carrier" data-name="Rates per carrier" transform="translate(20 37)" fill="#31313a" font-size="16" font-family="SegoeUI-Semibold, Segoe UI" font-weight="600"><tspan x="0" y="0">Rates per carrier</tspan></text>
      <line id="Line_27" data-name="Line 27" x2="445" transform="translate(0 61)" fill="none" stroke="#e6e6ea" stroke-width="1"/>
      <g id="External" transform="translate(409 23)">
        <g id="Group_270302" data-name="Group 270302">
          <g id="Group_270301" data-name="Group 270301">
            <path id="Path_101932" data-name="Path 101932" d="M8.169,8.655a.212.212,0,0,0,.3,0l2.642-2.639V7.8a.192.192,0,0,0,.2.2h1.376a.2.2,0,0,0,.2-.2V3.312a.2.2,0,0,0-.2-.2l-4.477,0a.21.21,0,0,0-.21.21V4.689a.2.2,0,0,0,.2.2H9.985L7.342,7.528a.214.214,0,0,0,0,.3Z" fill="#2777d3"/>
            <path id="Path_101933" data-name="Path 101933" d="M15.24,0H4.76A.762.762,0,0,0,4,.76V4H.76A.762.762,0,0,0,0,4.76V15.24A.762.762,0,0,0,.76,16H11.24a.762.762,0,0,0,.76-.76V12h3.24a.762.762,0,0,0,.76-.76V.76A.762.762,0,0,0,15.24,0ZM10.667,14.667H1.333V5.333H4V12h6.667Zm4-4H5.333V1.333h9.334Z" fill="#2777d3"/>
          </g>
          <rect id="Rectangle_11495" data-name="Rectangle 11495" width="16" height="16" transform="translate(0 0)" fill="none"/>
        </g>
      </g>
      <g id="Favorite-empty" transform="translate(373 23)">
        <g id="Group_270307" data-name="Group 270307">
          <path id="Path_101936" data-name="Path 101936" d="M8.8,6.412l.225.691a.332.332,0,0,0,.317.23h3.313L10.561,8.854l-.587.427a.334.334,0,0,0-.122.372l.225.691.8,2.46-2.092-1.52L8.2,10.857a.333.333,0,0,0-.392,0l-.588.427L5.124,12.8l.8-2.46.225-.691a.334.334,0,0,0-.122-.372l-.587-.427L3.346,7.333H6.659a.332.332,0,0,0,.317-.23L7.2,6.412,8,3.952ZM8,.453A.359.359,0,0,0,7.653.7L5.933,6H.366a.365.365,0,0,0-.215.66l4.5,3.272-1.72,5.3a.364.364,0,0,0,.561.408L8,12.363l4.5,3.272a.364.364,0,0,0,.561-.408l-1.72-5.3,4.5-3.272A.365.365,0,0,0,15.634,6H10.067L8.347.7A.359.359,0,0,0,8,.453Z" transform="translate(0)" fill="#2777d3"/>
          <rect id="Rectangle_11503" data-name="Rectangle 11503" width="16" height="16" transform="translate(0)" fill="none"/>
        </g>
      </g>
      <g id="Ring_Chart2" data-name="Ring Chart2" transform="translate(-736.504 -28)">
        <path id="Path_103570" data-name="Path 103570" d="M0-125A125,125,0,0,1,118.882-38.627,125,125,0,0,1,73.473,101.127a125,125,0,0,1-146.946,0l23.511-32.361a85,85,0,0,0,99.924,0A85,85,0,0,0,80.84-26.266,85,85,0,0,0,0-85Z" transform="translate(959 234)" fill="#30bbb1"/>
        <path id="Path_103571" data-name="Path 103571" d="M-73.473,101.127A125,125,0,0,1-125,0,125,125,0,0,1-73.473-101.127l23.511,32.361A85,85,0,0,0-85,0,85,85,0,0,0-49.962,68.766Z" transform="translate(959 234)" fill="#7cddd6"/>
        <path id="Path_103572" data-name="Path 103572" d="M-73.473-101.127A125,125,0,0,1,0-125v40A85,85,0,0,0-49.962-68.766Z" transform="translate(959 234)" fill="#c6f0ee"/>
      </g>
    </g>
  </g>
</svg>
