<svg xmlns="http://www.w3.org/2000/svg" xmlns:xlink="http://www.w3.org/1999/xlink" width="1000" height="354" viewBox="0 0 1000 354">
  <defs>
    <clipPath id="clip-file-input_draganddrop">
      <rect width="1000" height="354"/>
    </clipPath>
  </defs>
  <g id="file-input_draganddrop" clip-path="url(#clip-file-input_draganddrop)">
    <rect width="1000" height="354" fill="#f4f4f6"/>
    <text id="Large_logo" data-name="Large logo" transform="translate(377 181)" fill="#31313a" font-size="14" font-family="SegoeUI-Semibold, Segoe UI" font-weight="600"><tspan x="-67.744" y="0">Large logo</tspan></text>
    <g id="Input-_no_label" data-name="Input- no label" transform="translate(417 30)">
      <g id="Rectangle_288" data-name="Rectangle 288" fill="#fff" stroke="#cbcbd2" stroke-width="1">
        <rect width="300" height="42" rx="4" stroke="none"/>
        <rect x="0.5" y="0.5" width="299" height="41" rx="3.5" fill="none"/>
      </g>
    </g>
    <text id="Account_Name" data-name="Account Name" transform="translate(377 57)" fill="#31313a" font-size="14" font-family="SegoeUI-Semibold, Segoe UI" font-weight="600"><tspan x="-94.056" y="0">Account Name</tspan></text>
    <g id="Input-_no_label-2" data-name="Input- no label" transform="translate(417 92)">
      <g id="Rectangle_288-2" data-name="Rectangle 288" fill="#fff" stroke="#cbcbd2" stroke-width="1">
        <rect width="300" height="42" rx="4" stroke="none"/>
        <rect x="0.5" y="0.5" width="299" height="41" rx="3.5" fill="none"/>
      </g>
    </g>
    <text id="Broker_name" data-name="Broker name" transform="translate(377 119)" fill="#31313a" font-size="14" font-family="SegoeUI-Semibold, Segoe UI" font-weight="600"><tspan x="-80.76" y="0">Broker name</tspan></text>
    <g id="Primary_Button_-_Normal" data-name="Primary Button - Normal" transform="translate(417 288)">
      <rect id="Rectangle_3990" data-name="Rectangle 3990" width="73.934" height="36" rx="18" fill="#2777d3"/>
      <text id="Save" transform="translate(37 23)" fill="#fff" font-size="14" font-family="SegoeUI-Semibold, Segoe UI" font-weight="600"><tspan x="-14.68" y="0">Save</tspan></text>
    </g>
    <text id="Small_logo" data-name="Small logo" transform="translate(377 243)" fill="#31313a" font-size="14" font-family="SegoeUI-Semibold, Segoe UI" font-weight="600"><tspan x="-67.307" y="0">Small logo</tspan></text>
    <g id="Group_267483" data-name="Group 267483" transform="translate(148.066 -34)">
      <g id="Input-_no_label-3" data-name="Input- no label" transform="translate(369 250)">
        <path id="Rectangle_288-3" data-name="Rectangle 288" d="M0,0H195a4,4,0,0,1,4,4V38a4,4,0,0,1-4,4H0a0,0,0,0,1,0,0V0A0,0,0,0,1,0,0Z" transform="translate(1)" fill="#fff"/>
        <path id="Rectangle_288_-_Outline" data-name="Rectangle 288 - Outline" d="M1,1V41H195a3,3,0,0,0,3-3V4a3,3,0,0,0-3-3H1M0,0H195a4,4,0,0,1,4,4V38a4,4,0,0,1-4,4H0Z" transform="translate(1)" fill="#cbcbd2"/>
      </g>
      <path id="Path_8229" data-name="Path 8229" d="M-45,0H53.57A3.748,3.748,0,0,1,57,4V38a3.748,3.748,0,0,1-3.43,4H-45Z" transform="translate(325.934 292) rotate(180)" fill="#f4f4f6"/>
      <path id="Path_8229_-_Outline" data-name="Path 8229 - Outline" d="M-44,1V41H53.57A2.764,2.764,0,0,0,56,38V4a2.764,2.764,0,0,0-2.43-3H-44m-1-1H53.57A3.748,3.748,0,0,1,57,4V38a3.748,3.748,0,0,1-3.43,4H-45Z" transform="translate(325.934 292) rotate(180)" fill="#cbcbd2"/>
      <text id="Browse" transform="translate(333 277)" fill="#2777d3" font-size="14" font-family="SegoeUI-Semibold, Segoe UI" font-weight="600"><tspan x="-22.969" y="0">Browse</tspan></text>
      <g id="Group_267410" data-name="Group 267410" transform="translate(284 263)">
        <g id="Group_267409" data-name="Group 267409">
          <path id="Path_101926" data-name="Path 101926" d="M8.2,4.1H7.8L4.3,7.8a.2.2,0,0,0,0,.3l.9,1h.3L7.1,7.5v8.3a.2.2,0,0,0,.2.2H8.7a.2.2,0,0,0,.2-.2V7.5l1.6,1.7h.3l.9-1a.2.2,0,0,0,0-.3Z" fill="#2777d3"/>
          <rect id="Rectangle_10371" data-name="Rectangle 10371" width="16" height="2" rx="0.5" transform="translate(16 2) rotate(180)" fill="#2777d3"/>
        </g>
        <rect id="Rectangle_10372" data-name="Rectangle 10372" width="16" height="16" transform="translate(16 16) rotate(180)" fill="none"/>
      </g>
      <text id="Select_or_drag_files_here" data-name="Select or drag files here" transform="translate(384.934 277)" fill="#cbcbd2" font-size="14" font-family="SegoeUI, Segoe UI"><tspan x="0" y="0">Select or drag files here</tspan></text>
    </g>
    <g id="Group_267467" data-name="Group 267467" transform="translate(211 -133)">
      <g id="Group_267455" data-name="Group 267455" transform="translate(206 287)">
        <path id="Path_8229-2" data-name="Path 8229" d="M0,0H122.729A4.142,4.142,0,0,1,127,4V38a4.142,4.142,0,0,1-4.271,4H0Z" transform="translate(127 42) rotate(180)" fill="#f4f4f6"/>
        <path id="Path_8229_-_Outline-2" data-name="Path 8229 - Outline" d="M1,1V41H122.729A3.148,3.148,0,0,0,126,38V4a3.148,3.148,0,0,0-3.271-3H1M0,0H122.729A4.142,4.142,0,0,1,127,4V38a4.142,4.142,0,0,1-4.271,4H0Z" transform="translate(127 42) rotate(180)" fill="#cbcbd2"/>
        <g id="Input-_no_label-4" data-name="Input- no label" transform="translate(0.066)">
          <path id="Rectangle_288-4" data-name="Rectangle 288" d="M0,0H196a4,4,0,0,1,4,4V38a4,4,0,0,1-4,4H0a0,0,0,0,1,0,0V0A0,0,0,0,1,0,0Z" transform="translate(100)" fill="#fff"/>
          <path id="Rectangle_288_-_Outline-2" data-name="Rectangle 288 - Outline" d="M1,1V41H196a3,3,0,0,0,3-3V4a3,3,0,0,0-3-3H1M0,0H196a4,4,0,0,1,4,4V38a4,4,0,0,1-4,4H0Z" transform="translate(100)" fill="#cbcbd2"/>
          <path id="Rectangle_10373" data-name="Rectangle 10373" d="M4,2A2,2,0,0,0,2,4V38a2,2,0,0,0,2,2H296a2,2,0,0,0,2-2V4a2,2,0,0,0-2-2H4M4,0H296a4,4,0,0,1,4,4V38a4,4,0,0,1-4,4H4a4,4,0,0,1-4-4V4A4,4,0,0,1,4,0Z" transform="translate(0)" fill="#4e92df"/>
        </g>
        <text id="Browse-2" data-name="Browse" transform="translate(68.548 27)" fill="#2777d3" font-size="14" font-family="SegoeUI-Semibold, Segoe UI" font-weight="600"><tspan x="-22.969" y="0">Browse</tspan></text>
        <g id="Group_267410-2" data-name="Group 267410" transform="translate(15.066 13)">
          <g id="Group_267409-2" data-name="Group 267409">
            <path id="Path_101926-2" data-name="Path 101926" d="M8.2,4.1H7.8L4.3,7.8a.2.2,0,0,0,0,.3l.9,1h.3L7.1,7.5v8.3a.2.2,0,0,0,.2.2H8.7a.2.2,0,0,0,.2-.2V7.5l1.6,1.7h.3l.9-1a.2.2,0,0,0,0-.3Z" fill="#2777d3"/>
            <rect id="Rectangle_10371-2" data-name="Rectangle 10371" width="16" height="2" rx="0.5" transform="translate(16 2) rotate(180)" fill="#2777d3"/>
          </g>
          <rect id="Rectangle_10372-2" data-name="Rectangle 10372" width="16" height="16" transform="translate(16 16) rotate(180)" fill="none"/>
        </g>
        <text id="Select_or_drag_files_here-2" data-name="Select or drag files here" transform="translate(116 27)" fill="#cbcbd2" font-size="14" font-family="SegoeUI, Segoe UI"><tspan x="0" y="0">Select or drag files here</tspan></text>
      </g>
      <g id="Group_267464" data-name="Group 267464" transform="translate(480 296)">
        <g id="Group_267456" data-name="Group 267456">
          <g id="noun_Pointer_44803" transform="translate(0)">
            <g id="Group_15298" data-name="Group 15298" transform="translate(0 0)" opacity="0.9">
              <path id="Path_10321" data-name="Path 10321" d="M26.5,27.034a8.04,8.04,0,0,1-7.962-7.224.347.347,0,0,1-.037-.156V14.783a1.94,1.94,0,0,1,1.9-1.97,1.854,1.854,0,0,1,1.143.395V5.385a1.906,1.906,0,1,1,3.81,0v5.468a1.854,1.854,0,0,1,1.143-.395,1.91,1.91,0,0,1,1.775,1.257,1.863,1.863,0,0,1,1.272-.5,1.919,1.919,0,0,1,1.837,1.449,1.86,1.86,0,0,1,1.211-.45,1.94,1.94,0,0,1,1.9,1.97v5.031a.375.375,0,0,1,0,.051A8.045,8.045,0,0,1,26.5,27.034Z" transform="translate(-18.501 -3.415)" fill="#fff"/>
            </g>
          </g>
          <g id="noun_Pointer_44803-2" data-name="noun_Pointer_44803">
            <g id="Group_15298-2" data-name="Group 15298" transform="translate(0 0)" opacity="0.9">
              <path id="Path_10321-2" data-name="Path 10321" d="M26.5,27.034a8.04,8.04,0,0,1-7.962-7.224.347.347,0,0,1-.037-.156V14.783a1.94,1.94,0,0,1,1.9-1.97,1.854,1.854,0,0,1,1.143.395V5.385a1.906,1.906,0,1,1,3.81,0v5.468a1.854,1.854,0,0,1,1.143-.395,1.91,1.91,0,0,1,1.775,1.257,1.863,1.863,0,0,1,1.272-.5,1.919,1.919,0,0,1,1.837,1.449,1.86,1.86,0,0,1,1.211-.45,1.94,1.94,0,0,1,1.9,1.97v5.031a.375.375,0,0,1,0,.051A8.045,8.045,0,0,1,26.5,27.034Zm-7.238-7.51a.339.339,0,0,1,.024.1,7.238,7.238,0,0,0,14.45-.424q0-.016,0-.033V14.178a1.145,1.145,0,1,0-2.286,0,.381.381,0,0,1-.762,0v-1a1.145,1.145,0,1,0-2.286,0,.381.381,0,1,1-.762,0v-.752a1.145,1.145,0,1,0-2.286,0,.381.381,0,1,1-.762,0V5.385a1.145,1.145,0,1,0-2.286,0V18.21a.381.381,0,1,1-.762,0V14.783a1.145,1.145,0,1,0-2.286,0v4.741Z" transform="translate(-18.501 -3.415)"/>
            </g>
          </g>
        </g>
        <path id="Rectangle_10394" data-name="Rectangle 10394" d="M0,0H8a4,4,0,0,1,4,4V14a0,0,0,0,1,0,0H0a0,0,0,0,1,0,0V0A0,0,0,0,1,0,0Z" transform="translate(10 15)" fill="#fff"/>
        <g id="Doc" transform="translate(8 14)">
          <g id="Doc-2" data-name="Doc">
            <g id="Group_267457" data-name="Group 267457" transform="translate(1.6 0.1)">
              <path id="Path_101935" data-name="Path 101935" d="M14.3,2.7,11.6.1H2.3a.7.7,0,0,0-.7.7v15A.4.4,0,0,0,2,16H14a.4.4,0,0,0,.4-.4V2.9ZM11.6,1.6l1.2,1.2H11.6Zm1.6,13.2H2.9V1.2h7.5V4h2.8Z" transform="translate(-1.6 -0.1)" fill="#2f2f2f"/>
              <rect id="Rectangle_10379" data-name="Rectangle 10379" width="7.1" height="1.2" rx="0.2" transform="translate(2.8 5.9)" fill="#2f2f2f"/>
              <rect id="Rectangle_10380" data-name="Rectangle 10380" width="7.1" height="1.2" rx="0.2" transform="translate(2.8 8.3)" fill="#2f2f2f"/>
              <rect id="Rectangle_10381" data-name="Rectangle 10381" width="5.1" height="1.2" rx="0.2" transform="translate(2.8 10.6)" fill="#2f2f2f"/>
            </g>
            <rect id="Rectangle_10382" data-name="Rectangle 10382" width="16" height="16" fill="none"/>
          </g>
        </g>
      </g>
    </g>
    <g id="Link_Button" data-name="Link Button" transform="translate(501 288)">
      <g id="Group_264143" data-name="Group 264143">
        <rect id="Rectangle_6075" data-name="Rectangle 6075" width="72" height="36" rx="18" fill="rgba(255,255,255,0)"/>
        <text id="Cancel" transform="translate(15 23)" fill="#2777d3" font-size="14" font-family="SegoeUI-Semibold, Segoe UI" font-weight="600"><tspan x="0" y="0">Cancel</tspan></text>
      </g>
    </g>
  </g>
</svg>
