<svg xmlns="http://www.w3.org/2000/svg" xmlns:xlink="http://www.w3.org/1999/xlink" width="500" height="540" viewBox="0 0 500 540">
  <defs>
    <clipPath id="clip-file-input_form-DO">
      <rect width="500" height="540"/>
    </clipPath>
  </defs>
  <g id="file-input_form-DO" clip-path="url(#clip-file-input_form-DO)">
    <rect width="500" height="540" fill="#f4f4f6"/>
    <g id="Group_267484" data-name="Group 267484" transform="translate(-10)">
      <text id="Census" transform="translate(137 181)" fill="#31313a" font-size="14" font-family="SegoeUI-Semibold, Segoe UI" font-weight="600"><tspan x="-44.543" y="0">Census</tspan></text>
      <g id="Input-_no_label" data-name="Input- no label" transform="translate(177 30)">
        <g id="Rectangle_288" data-name="Rectangle 288" fill="#fff" stroke="#cbcbd2" stroke-width="1">
          <rect width="300" height="42" rx="4" stroke="none"/>
          <rect x="0.5" y="0.5" width="299" height="41" rx="3.5" fill="none"/>
        </g>
      </g>
      <text id="Account_Name" data-name="Account Name" transform="translate(137 57)" fill="#31313a" font-size="14" font-family="SegoeUI-Semibold, Segoe UI" font-weight="600"><tspan x="-94.056" y="0">Account Name</tspan></text>
      <g id="Input-_no_label-2" data-name="Input- no label" transform="translate(177 92)">
        <g id="Rectangle_288-2" data-name="Rectangle 288" fill="#fff" stroke="#cbcbd2" stroke-width="1">
          <rect width="300" height="42" rx="4" stroke="none"/>
          <rect x="0.5" y="0.5" width="299" height="41" rx="3.5" fill="none"/>
        </g>
      </g>
      <text id="SIC_Code" data-name="SIC Code" transform="translate(137 119)" fill="#31313a" font-size="14" font-family="SegoeUI-Semibold, Segoe UI" font-weight="600"><tspan x="-57.176" y="0">SIC Code</tspan></text>
      <g id="Input-_no_label-3" data-name="Input- no label" transform="translate(177 402)">
        <g id="Rectangle_288-3" data-name="Rectangle 288" fill="#fff" stroke="#cbcbd2" stroke-width="1">
          <rect width="189" height="42" rx="4" stroke="none"/>
          <rect x="0.5" y="0.5" width="188" height="41" rx="3.5" fill="none"/>
        </g>
      </g>
      <text id="Zip" transform="translate(137 429)" fill="#31313a" font-size="14" font-family="SegoeUI-Semibold, Segoe UI" font-weight="600"><tspan x="-20.31" y="0">Zip</tspan></text>
      <text id="State" transform="translate(137 367)" fill="#31313a" font-size="14" font-family="SegoeUI-Semibold, Segoe UI" font-weight="600"><tspan x="-31.999" y="0">State</tspan></text>
      <g id="Dropdown_Input_-_Unselected" data-name="Dropdown Input - Unselected" transform="translate(177 340)">
        <g id="Rectangle_288-4" data-name="Rectangle 288" fill="#fff" stroke="#cbcbd2" stroke-width="1">
          <rect width="213" height="42" rx="4" stroke="none"/>
          <rect x="0.5" y="0.5" width="212" height="41" rx="3.5" fill="none"/>
        </g>
        <g id="Group_7793" data-name="Group 7793" transform="translate(-637 -1698)">
          <rect id="Rectangle_3867" data-name="Rectangle 3867" width="24" height="24" transform="translate(816 1707)" fill="none"/>
          <path id="Path_5558" data-name="Path 5558" d="M56,9.4l-3,3-3-3a.967.967,0,0,0-1.4,0h0a.967.967,0,0,0,0,1.4l3.7,3.7a.967.967,0,0,0,1.4,0l3.7-3.7a.967.967,0,0,0,0-1.4h0A.965.965,0,0,0,56,9.4Z" transform="translate(775 1707)" fill="#9494a4"/>
        </g>
      </g>
      <g id="Input-_no_label-4" data-name="Input- no label" transform="translate(177 216)">
        <g id="Rectangle_288-5" data-name="Rectangle 288" fill="#fff" stroke="#cbcbd2" stroke-width="1">
          <rect width="300" height="42" rx="4" stroke="none"/>
          <rect x="0.5" y="0.5" width="299" height="41" rx="3.5" fill="none"/>
        </g>
      </g>
      <text id="Address" transform="translate(137 243)" fill="#31313a" font-size="14" font-family="SegoeUI-Semibold, Segoe UI" font-weight="600"><tspan x="-50.839" y="0">Address</tspan></text>
      <g id="Input-_no_label-5" data-name="Input- no label" transform="translate(177 278)">
        <g id="Rectangle_288-6" data-name="Rectangle 288" fill="#fff" stroke="#cbcbd2" stroke-width="1">
          <rect width="300" height="42" rx="4" stroke="none"/>
          <rect x="0.5" y="0.5" width="299" height="41" rx="3.5" fill="none"/>
        </g>
      </g>
      <text id="City" transform="translate(137 305)" fill="#31313a" font-size="14" font-family="SegoeUI-Semibold, Segoe UI" font-weight="600"><tspan x="-24.527" y="0">City</tspan></text>
      <g id="Group_267441" data-name="Group 267441" transform="translate(-91.934 -96)">
        <g id="Input-_no_label-6" data-name="Input- no label" transform="translate(369 250)">
          <g id="Rectangle_288-7" data-name="Rectangle 288" transform="translate(1)" fill="#fff" stroke="#cbcbd2" stroke-width="1">
            <path d="M0,0H195a4,4,0,0,1,4,4V38a4,4,0,0,1-4,4H0a0,0,0,0,1,0,0V0A0,0,0,0,1,0,0Z" stroke="none"/>
            <path d="M.5.5H195A3.5,3.5,0,0,1,198.5,4V38a3.5,3.5,0,0,1-3.5,3.5H.5a0,0,0,0,1,0,0V.5A0,0,0,0,1,.5.5Z" fill="none"/>
          </g>
        </g>
        <g id="Path_8229" data-name="Path 8229" transform="translate(325.934 292) rotate(180)" fill="#f4f4f6">
          <path d="M 53.56950759887695 41.5 L -44.5 41.5 L -44.5 0.5 L 53.56950759887695 0.5 C 55.18538665771484 0.5 56.5 2.070093393325806 56.5 4 L 56.5 38 C 56.5 39.92990493774414 55.18538665771484 41.5 53.56950759887695 41.5 Z" stroke="none"/>
          <path d="M -44 1 L -44 41 L 53.56950759887695 41 C 54.9096794128418 41 56 39.65420150756836 56 38 L 56 4 C 56 2.345798492431641 54.9096794128418 1 53.56950759887695 1 L -44 1 M -45 0 L 53.56950759887695 0 C 55.46410751342773 0 57 1.790851593017578 57 4 L 57 38 C 57 40.20913314819336 55.46410751342773 42 53.56950759887695 42 L -45 42 L -45 0 Z" stroke="none" fill="#cbcbd2"/>
        </g>
        <text id="Browse" transform="translate(333 277)" fill="#2777d3" font-size="14" font-family="SegoeUI-Semibold, Segoe UI" font-weight="600"><tspan x="-22.969" y="0">Browse</tspan></text>
        <g id="Group_267410" data-name="Group 267410" transform="translate(284 263)">
          <g id="Group_267409" data-name="Group 267409">
            <path id="Path_101926" data-name="Path 101926" d="M8.2,4.1H7.8L4.3,7.8a.2.2,0,0,0,0,.3l.9,1h.3L7.1,7.5v8.3a.2.2,0,0,0,.2.2H8.7a.2.2,0,0,0,.2-.2V7.5l1.6,1.7h.3l.9-1a.2.2,0,0,0,0-.3Z" fill="#2777d3"/>
            <rect id="Rectangle_10371" data-name="Rectangle 10371" width="16" height="2" rx="0.5" transform="translate(16 2) rotate(180)" fill="#2777d3"/>
          </g>
          <rect id="Rectangle_10372" data-name="Rectangle 10372" width="16" height="16" transform="translate(16 16) rotate(180)" fill="none"/>
        </g>
        <text id="Select_or_drag_files_here" data-name="Select or drag files here" transform="translate(384.934 277)" fill="#cbcbd2" font-size="14" font-family="SegoeUI, Segoe UI"><tspan x="0" y="0">Select or drag files here</tspan></text>
      </g>
      <g id="Primary_Button_-_Normal" data-name="Primary Button - Normal" transform="translate(177 474)">
        <rect id="Rectangle_3990" data-name="Rectangle 3990" width="73.934" height="36" rx="18" fill="#2777d3"/>
        <text id="Save" transform="translate(37 23)" fill="#fff" font-size="14" font-family="SegoeUI-Semibold, Segoe UI" font-weight="600"><tspan x="-14.68" y="0">Save</tspan></text>
      </g>
      <g id="Link_Button" data-name="Link Button" transform="translate(261 474)">
        <g id="Group_264143" data-name="Group 264143">
          <rect id="Rectangle_6075" data-name="Rectangle 6075" width="72" height="36" rx="18" fill="rgba(255,255,255,0)"/>
          <text id="Cancel" transform="translate(15 23)" fill="#2777d3" font-size="14" font-family="SegoeUI-Semibold, Segoe UI" font-weight="600"><tspan x="0" y="0">Cancel</tspan></text>
        </g>
      </g>
    </g>
  </g>
</svg>
