<svg xmlns="http://www.w3.org/2000/svg" xmlns:xlink="http://www.w3.org/1999/xlink" width="1000" height="717" viewBox="0 0 1000 717">
  <defs>
    <filter id="Rectangle_10040" x="311" y="24" width="378" height="674" filterUnits="userSpaceOnUse">
      <feOffset dy="3" input="SourceAlpha"/>
      <feGaussianBlur stdDeviation="3" result="blur"/>
      <feFlood flood-opacity="0.161"/>
      <feComposite operator="in" in2="blur"/>
      <feComposite in="SourceGraphic"/>
    </filter>
    <clipPath id="clip-path">
      <rect width="360" height="65" fill="none"/>
    </clipPath>
    <filter id="Card" x="325.5" y="104.5" width="348.5" height="587" filterUnits="userSpaceOnUse">
      <feOffset dy="1" input="SourceAlpha"/>
      <feGaussianBlur stdDeviation="1.5" result="blur-2"/>
      <feFlood flood-opacity="0.161"/>
      <feComposite operator="in" in2="blur-2"/>
      <feComposite in="SourceGraphic"/>
    </filter>
    <clipPath id="clip-file-input_mobile">
      <rect width="1000" height="717"/>
    </clipPath>
  </defs>
  <g id="file-input_mobile" clip-path="url(#clip-file-input_mobile)">
    <rect width="1000" height="717" fill="#f4f4f6"/>
    <g id="Group_267471" data-name="Group 267471" transform="translate(50)">
      <g transform="matrix(1, 0, 0, 1, -50, 0)" filter="url(#Rectangle_10040)">
        <rect id="Rectangle_10040-2" data-name="Rectangle 10040" width="360" height="656" transform="translate(320 30)" fill="#f4f4f6"/>
      </g>
      <g id="Mobile_Top_Bar" data-name="Mobile Top Bar" transform="translate(270 30)" clip-path="url(#clip-path)">
        <rect id="Rectangle_1" data-name="Rectangle 1" width="360" height="60" fill="#fff"/>
        <g id="Group_72" data-name="Group 72" transform="translate(123.11 20)">
          <g id="Group_6" data-name="Group 6">
            <path id="Path_467" data-name="Path 467" d="M440.678,0l-6.233,13.788L428.193,0H425.7l8.745,19.322L443.19,0Z" transform="translate(-345.294)" fill="#8b8d8e"/>
            <path id="Path_468" data-name="Path 468" d="M343.6,19.322h2.512L337.39,0h-.963L327.7,19.322h2.512l1.908-4.269H341.7ZM333.14,12.787,336.9,4.5l3.759,8.292Z" transform="translate(-265.804)" fill="#8b8d8e"/>
            <path id="Path_469" data-name="Path 469" d="M543.685,10.426h6.951V8.16h-6.951V2.267h7.555L552.45,0H541.4V19.322h9.859L552.468,17h-8.783Z" transform="translate(-439.14)" fill="#8b8d8e"/>
            <path id="Path_470" data-name="Path 470" d="M186.078,0l-6.2,13.788L174.348,1.681l-5.5,12.107L162.864,0h-3.721L155.8,7.385l1.247,2.758,3.834-8.462,7.971,17.641,5.5-12.126,5.534,12.126L188.571,0Z" transform="translate(-126.372)" fill="#8b8d8e"/>
            <path id="Path_471" data-name="Path 471" d="M4.193,17.018,15.262,0H1.851L.812,2.267H11.068L0,19.285H15.243l1.02-2.267Z" fill="#8b8d8e"/>
          </g>
          <path id="Path_472" data-name="Path 472" d="M103.468,0H98.5l5.591,12.409L98.5,24.8h4.968L109.1,12.409Z" transform="translate(-79.895)" fill="#5fb53b"/>
        </g>
        <g id="Group_8092" data-name="Group 8092" transform="translate(314 13)">
          <ellipse id="Ellipse_1" data-name="Ellipse 1" cx="18" cy="17.5" rx="18" ry="17.5" transform="translate(0)" fill="none"/>
          <path id="Path_5694" data-name="Path 5694" d="M302.715,257.318l-4.678-4.678a5.945,5.945,0,0,0,1.029-4.584,6.054,6.054,0,0,0-5.239-4.959,6.109,6.109,0,0,0-1.871,12.069,6.469,6.469,0,0,0,4.585-1.029l4.678,4.678a1.018,1.018,0,0,0,1.4,0A1.143,1.143,0,0,0,302.715,257.318Zm-13.753-8.888a4.171,4.171,0,0,1,3.462-3.462,4.275,4.275,0,0,1,4.865,4.865,4.171,4.171,0,0,1-3.462,3.462A4.313,4.313,0,0,1,288.962,248.43Z" transform="translate(-276.954 -234.052)" fill="#2777d3"/>
        </g>
        <g id="Group_8091" data-name="Group 8091" transform="translate(10 12)">
          <ellipse id="Ellipse_2" data-name="Ellipse 2" cx="18" cy="17.5" rx="18" ry="17.5" fill="none"/>
          <g id="Group_7747" data-name="Group 7747" transform="translate(10 12)">
            <rect id="Rectangle_4038" data-name="Rectangle 4038" width="16" height="2" fill="#1f5ea8"/>
            <rect id="Rectangle_4039" data-name="Rectangle 4039" width="16" height="2" transform="translate(0 5)" fill="#1f5ea8"/>
            <rect id="Rectangle_4040" data-name="Rectangle 4040" width="16" height="2" transform="translate(0 10)" fill="#1f5ea8"/>
          </g>
        </g>
        <path id="Path_5695" data-name="Path 5695" d="M0,0H360V5H0Z" transform="translate(0 60)" fill="#2777d3"/>
      </g>
      <g id="Card-2" data-name="Card" transform="translate(280 108)">
        <g transform="matrix(1, 0, 0, 1, -330, -108)" filter="url(#Card)">
          <rect id="Card-3" data-name="Card" width="339.5" height="578" rx="2" transform="translate(330 108)" fill="#fff"/>
        </g>
      </g>
      <g id="Input-_no_label" data-name="Input- no label" transform="translate(300 151)">
        <g id="Rectangle_288" data-name="Rectangle 288" fill="#fff" stroke="#cbcbd2" stroke-width="1">
          <rect width="300" height="42" rx="4" stroke="none"/>
          <rect x="0.5" y="0.5" width="299" height="41" rx="3.5" fill="none"/>
        </g>
      </g>
      <text id="Account_Name" data-name="Account Name" transform="translate(394 143)" fill="#31313a" font-size="14" font-family="SegoeUI-Semibold, Segoe UI" font-weight="600"><tspan x="-94.056" y="0">Account Name</tspan></text>
      <g id="Input-_no_label-2" data-name="Input- no label" transform="translate(300 236)">
        <g id="Rectangle_288-2" data-name="Rectangle 288" fill="#fff" stroke="#cbcbd2" stroke-width="1">
          <rect width="300" height="42" rx="4" stroke="none"/>
          <rect x="0.5" y="0.5" width="299" height="41" rx="3.5" fill="none"/>
        </g>
      </g>
      <text id="SIC_Code" data-name="SIC Code" transform="translate(357 228)" fill="#31313a" font-size="14" font-family="SegoeUI-Semibold, Segoe UI" font-weight="600"><tspan x="-57.176" y="0">SIC Code</tspan></text>
      <text id="Census" transform="translate(345 313)" fill="#31313a" font-size="14" font-family="SegoeUI-Semibold, Segoe UI" font-weight="600"><tspan x="-44.543" y="0">Census</tspan></text>
      <g id="Group_267434" data-name="Group 267434" transform="translate(216 237)">
        <g id="Input-_no_label-3" data-name="Input- no label" transform="translate(128.843 84)">
          <path id="Rectangle_288-3" data-name="Rectangle 288" d="M0,0H250.224a4,4,0,0,1,4,4V38a4,4,0,0,1-4,4H0a0,0,0,0,1,0,0V0A0,0,0,0,1,0,0Z" transform="translate(1)" fill="#fff"/>
          <path id="Rectangle_288_-_Outline" data-name="Rectangle 288 - Outline" d="M1,1V41H250.224a3,3,0,0,0,3-3V4a3,3,0,0,0-3-3H1M0,0H250.224a4,4,0,0,1,4,4V38a4,4,0,0,1-4,4H0Z" transform="translate(1)" fill="#cbcbd2"/>
        </g>
        <path id="Path_8229" data-name="Path 8229" d="M-45,0H.293c.871,0,1.576,1.791,1.576,4V38c0,2.209-.706,4-1.576,4H-45Z" transform="translate(85.869 126) rotate(180)" fill="#f4f4f6"/>
        <path id="Path_8229_-_Outline" data-name="Path 8229 - Outline" d="M-44,1V41H.18a2.312,2.312,0,0,0,.4-.846A7.644,7.644,0,0,0,.869,38V4A7.644,7.644,0,0,0,.584,1.846,2.312,2.312,0,0,0,.18,1H-44m-1-1H.293c.871,0,1.576,1.791,1.576,4V38c0,2.209-.706,4-1.576,4H-45Z" transform="translate(85.869 126) rotate(180)" fill="#cbcbd2"/>
        <g id="Group_267410" data-name="Group 267410" transform="translate(99.066 97)">
          <g id="Group_267409" data-name="Group 267409">
            <path id="Path_101926" data-name="Path 101926" d="M8.2,4.1H7.8L4.3,7.8a.2.2,0,0,0,0,.3l.9,1h.3L7.1,7.5v8.3a.2.2,0,0,0,.2.2H8.7a.2.2,0,0,0,.2-.2V7.5l1.6,1.7h.3l.9-1a.2.2,0,0,0,0-.3Z" fill="#2777d3"/>
            <rect id="Rectangle_10371" data-name="Rectangle 10371" width="16" height="2" rx="0.5" transform="translate(16 2) rotate(180)" fill="#2777d3"/>
          </g>
          <rect id="Rectangle_10372" data-name="Rectangle 10372" width="16" height="16" transform="translate(16 16) rotate(180)" fill="none"/>
        </g>
      </g>
      <text id="State" transform="translate(332 568)" fill="#31313a" font-size="14" font-family="SegoeUI-Semibold, Segoe UI" font-weight="600"><tspan x="-31.999" y="0">State</tspan></text>
      <g id="Dropdown_Input_-_Unselected" data-name="Dropdown Input - Unselected" transform="translate(300 576)">
        <g id="Rectangle_288-4" data-name="Rectangle 288" fill="#fff" stroke="#cbcbd2" stroke-width="1">
          <rect width="213" height="42" rx="4" stroke="none"/>
          <rect x="0.5" y="0.5" width="212" height="41" rx="3.5" fill="none"/>
        </g>
        <g id="Group_7793" data-name="Group 7793" transform="translate(-637 -1698)">
          <rect id="Rectangle_3867" data-name="Rectangle 3867" width="24" height="24" transform="translate(816 1707)" fill="none"/>
          <path id="Path_5558" data-name="Path 5558" d="M56,9.4l-3,3-3-3a.967.967,0,0,0-1.4,0h0a.967.967,0,0,0,0,1.4l3.7,3.7a.967.967,0,0,0,1.4,0l3.7-3.7a.967.967,0,0,0,0-1.4h0A.965.965,0,0,0,56,9.4Z" transform="translate(775 1707)" fill="#9494a4"/>
        </g>
      </g>
      <text id="Zip" transform="translate(320 653)" fill="#31313a" font-size="14" font-family="SegoeUI-Semibold, Segoe UI" font-weight="600"><tspan x="-20.31" y="0">Zip</tspan></text>
      <g id="Input-_no_label-4" data-name="Input- no label" transform="translate(300 406)">
        <g id="Rectangle_288-5" data-name="Rectangle 288" fill="#fff" stroke="#cbcbd2" stroke-width="1">
          <rect width="300" height="42" rx="4" stroke="none"/>
          <rect x="0.5" y="0.5" width="299" height="41" rx="3.5" fill="none"/>
        </g>
      </g>
      <text id="Address" transform="translate(351 398)" fill="#31313a" font-size="14" font-family="SegoeUI-Semibold, Segoe UI" font-weight="600"><tspan x="-50.839" y="0">Address</tspan></text>
      <g id="Input-_no_label-5" data-name="Input- no label" transform="translate(300 491)">
        <g id="Rectangle_288-6" data-name="Rectangle 288" fill="#fff" stroke="#cbcbd2" stroke-width="1">
          <rect width="300" height="42" rx="4" stroke="none"/>
          <rect x="0.5" y="0.5" width="299" height="41" rx="3.5" fill="none"/>
        </g>
      </g>
      <text id="City" transform="translate(325 483)" fill="#31313a" font-size="14" font-family="SegoeUI-Semibold, Segoe UI" font-weight="600"><tspan x="-24.527" y="0">City</tspan></text>
      <path id="Subtraction_1" data-name="Subtraction 1" d="M-2517,26h-189V4a4,4,0,0,1,4-4h181a4,4,0,0,1,4,4V26Z" transform="translate(3006 661)" fill="#fff"/>
      <path id="Subtraction_1_-_Outline" data-name="Subtraction 1 - Outline" d="M-2518,25V4a3,3,0,0,0-3-3h-181a3,3,0,0,0-3,3V25h187m1,1h-189V4a4,4,0,0,1,4-4h181a4,4,0,0,1,4,4Z" transform="translate(3006 661)" fill="#cbcbd2"/>
      <text id="Select_or_drag_files_here" data-name="Select or drag files here" transform="translate(361 348)" fill="#cbcbd2" font-size="14" font-family="SegoeUI, Segoe UI"><tspan x="0" y="0">Select or drag files here</tspan></text>
    </g>
  </g>
</svg>
