<svg xmlns="http://www.w3.org/2000/svg" xmlns:xlink="http://www.w3.org/1999/xlink" width="1000" height="540" viewBox="0 0 1000 540">
  <defs>
    <clipPath id="clip-file-input_form">
      <rect width="1000" height="540"/>
    </clipPath>
  </defs>
  <g id="file-input_form" clip-path="url(#clip-file-input_form)">
    <rect width="1000" height="540" fill="#f4f4f6"/>
    <text id="Census" transform="translate(377 181)" fill="#31313a" font-size="14" font-family="SegoeUI-Semibold, Segoe UI" font-weight="600"><tspan x="-44.543" y="0">Census</tspan></text>
    <g id="Input-_no_label" data-name="Input- no label" transform="translate(417 30)">
      <g id="Rectangle_288" data-name="Rectangle 288" fill="#fff" stroke="#cbcbd2" stroke-width="1">
        <rect width="300" height="42" rx="4" stroke="none"/>
        <rect x="0.5" y="0.5" width="299" height="41" rx="3.5" fill="none"/>
      </g>
    </g>
    <text id="Account_Name" data-name="Account Name" transform="translate(377 57)" fill="#31313a" font-size="14" font-family="SegoeUI-Semibold, Segoe UI" font-weight="600"><tspan x="-94.056" y="0">Account Name</tspan></text>
    <g id="Input-_no_label-2" data-name="Input- no label" transform="translate(417 92)">
      <g id="Rectangle_288-2" data-name="Rectangle 288" fill="#fff" stroke="#cbcbd2" stroke-width="1">
        <rect width="300" height="42" rx="4" stroke="none"/>
        <rect x="0.5" y="0.5" width="299" height="41" rx="3.5" fill="none"/>
      </g>
    </g>
    <text id="SIC_Code" data-name="SIC Code" transform="translate(377 119)" fill="#31313a" font-size="14" font-family="SegoeUI-Semibold, Segoe UI" font-weight="600"><tspan x="-57.176" y="0">SIC Code</tspan></text>
    <g id="Input-_no_label-3" data-name="Input- no label" transform="translate(417 402)">
      <g id="Rectangle_288-3" data-name="Rectangle 288" fill="#fff" stroke="#cbcbd2" stroke-width="1">
        <rect width="189" height="42" rx="4" stroke="none"/>
        <rect x="0.5" y="0.5" width="188" height="41" rx="3.5" fill="none"/>
      </g>
    </g>
    <text id="Zip" transform="translate(377 429)" fill="#31313a" font-size="14" font-family="SegoeUI-Semibold, Segoe UI" font-weight="600"><tspan x="-20.31" y="0">Zip</tspan></text>
    <text id="State" transform="translate(377 367)" fill="#31313a" font-size="14" font-family="SegoeUI-Semibold, Segoe UI" font-weight="600"><tspan x="-31.999" y="0">State</tspan></text>
    <g id="Dropdown_Input_-_Unselected" data-name="Dropdown Input - Unselected" transform="translate(417 340)">
      <g id="Rectangle_288-4" data-name="Rectangle 288" fill="#fff" stroke="#cbcbd2" stroke-width="1">
        <rect width="213" height="42" rx="4" stroke="none"/>
        <rect x="0.5" y="0.5" width="212" height="41" rx="3.5" fill="none"/>
      </g>
      <g id="Group_7793" data-name="Group 7793" transform="translate(-637 -1698)">
        <rect id="Rectangle_3867" data-name="Rectangle 3867" width="24" height="24" transform="translate(816 1707)" fill="none"/>
        <path id="Path_5558" data-name="Path 5558" d="M56,9.4l-3,3-3-3a.967.967,0,0,0-1.4,0h0a.967.967,0,0,0,0,1.4l3.7,3.7a.967.967,0,0,0,1.4,0l3.7-3.7a.967.967,0,0,0,0-1.4h0A.965.965,0,0,0,56,9.4Z" transform="translate(775 1707)" fill="#9494a4"/>
      </g>
    </g>
    <g id="Input-_no_label-4" data-name="Input- no label" transform="translate(417 216)">
      <g id="Rectangle_288-5" data-name="Rectangle 288" fill="#fff" stroke="#cbcbd2" stroke-width="1">
        <rect width="300" height="42" rx="4" stroke="none"/>
        <rect x="0.5" y="0.5" width="299" height="41" rx="3.5" fill="none"/>
      </g>
    </g>
    <text id="Address" transform="translate(377 243)" fill="#31313a" font-size="14" font-family="SegoeUI-Semibold, Segoe UI" font-weight="600"><tspan x="-50.839" y="0">Address</tspan></text>
    <g id="Input-_no_label-5" data-name="Input- no label" transform="translate(417 278)">
      <g id="Rectangle_288-6" data-name="Rectangle 288" fill="#fff" stroke="#cbcbd2" stroke-width="1">
        <rect width="300" height="42" rx="4" stroke="none"/>
        <rect x="0.5" y="0.5" width="299" height="41" rx="3.5" fill="none"/>
      </g>
    </g>
    <text id="City" transform="translate(377 305)" fill="#31313a" font-size="14" font-family="SegoeUI-Semibold, Segoe UI" font-weight="600"><tspan x="-24.527" y="0">City</tspan></text>
    <g id="Group_267441" data-name="Group 267441" transform="translate(148.066 -96)">
      <g id="Input-_no_label-6" data-name="Input- no label" transform="translate(369 250)">
        <path id="Rectangle_288-7" data-name="Rectangle 288" d="M0,0H195a4,4,0,0,1,4,4V38a4,4,0,0,1-4,4H0a0,0,0,0,1,0,0V0A0,0,0,0,1,0,0Z" transform="translate(1)" fill="#fff"/>
        <path id="Rectangle_288_-_Outline" data-name="Rectangle 288 - Outline" d="M1,1V41H195a3,3,0,0,0,3-3V4a3,3,0,0,0-3-3H1M0,0H195a4,4,0,0,1,4,4V38a4,4,0,0,1-4,4H0Z" transform="translate(1)" fill="#cbcbd2"/>
      </g>
      <path id="Path_8229" data-name="Path 8229" d="M-45,0H53.57A3.748,3.748,0,0,1,57,4V38a3.748,3.748,0,0,1-3.43,4H-45Z" transform="translate(325.934 292) rotate(180)" fill="#f4f4f6"/>
      <path id="Path_8229_-_Outline" data-name="Path 8229 - Outline" d="M-44,1V41H53.57A2.764,2.764,0,0,0,56,38V4a2.764,2.764,0,0,0-2.43-3H-44m-1-1H53.57A3.748,3.748,0,0,1,57,4V38a3.748,3.748,0,0,1-3.43,4H-45Z" transform="translate(325.934 292) rotate(180)" fill="#cbcbd2"/>
      <text id="Browse" transform="translate(333 277)" fill="#2777d3" font-size="14" font-family="SegoeUI-Semibold, Segoe UI" font-weight="600"><tspan x="-22.969" y="0">Browse</tspan></text>
      <g id="Group_267410" data-name="Group 267410" transform="translate(284 263)">
        <g id="Group_267409" data-name="Group 267409">
          <path id="Path_101926" data-name="Path 101926" d="M8.2,4.1H7.8L4.3,7.8a.2.2,0,0,0,0,.3l.9,1h.3L7.1,7.5v8.3a.2.2,0,0,0,.2.2H8.7a.2.2,0,0,0,.2-.2V7.5l1.6,1.7h.3l.9-1a.2.2,0,0,0,0-.3Z" fill="#2777d3"/>
          <rect id="Rectangle_10371" data-name="Rectangle 10371" width="16" height="2" rx="0.5" transform="translate(16 2) rotate(180)" fill="#2777d3"/>
        </g>
        <rect id="Rectangle_10372" data-name="Rectangle 10372" width="16" height="16" transform="translate(16 16) rotate(180)" fill="none"/>
      </g>
      <text id="Select_or_drag_files_here" data-name="Select or drag files here" transform="translate(384.934 277)" fill="#cbcbd2" font-size="14" font-family="SegoeUI, Segoe UI"><tspan x="0" y="0">Select or drag files here</tspan></text>
    </g>
    <g id="Primary_Button_-_Normal" data-name="Primary Button - Normal" transform="translate(417 474)">
      <rect id="Rectangle_3990" data-name="Rectangle 3990" width="73.934" height="36" rx="18" fill="#2777d3"/>
      <text id="Save" transform="translate(37 23)" fill="#fff" font-size="14" font-family="SegoeUI-Semibold, Segoe UI" font-weight="600"><tspan x="-14.68" y="0">Save</tspan></text>
    </g>
    <g id="Link_Button" data-name="Link Button" transform="translate(501 474)">
      <g id="Group_264143" data-name="Group 264143">
        <rect id="Rectangle_6075" data-name="Rectangle 6075" width="72" height="36" rx="18" fill="rgba(255,255,255,0)"/>
        <text id="Cancel" transform="translate(15 23)" fill="#2777d3" font-size="14" font-family="SegoeUI-Semibold, Segoe UI" font-weight="600"><tspan x="0" y="0">Cancel</tspan></text>
      </g>
    </g>
  </g>
</svg>
