<svg xmlns="http://www.w3.org/2000/svg" xmlns:xlink="http://www.w3.org/1999/xlink" width="1000" height="102" viewBox="0 0 1000 102">
  <defs>
    <clipPath id="clip-file-input_icon">
      <rect width="1000" height="102"/>
    </clipPath>
  </defs>
  <g id="file-input_icon" clip-path="url(#clip-file-input_icon)">
    <rect width="1000" height="102" fill="#f4f4f6"/>
    <g id="Group_267474" data-name="Group 267474" transform="translate(70)">
      <g id="Group_267441" data-name="Group 267441" transform="translate(38.117 -220)">
        <g id="Input-_no_label" data-name="Input- no label" transform="translate(369 250)">
          <path id="Rectangle_288" data-name="Rectangle 288" d="M0,0H171a4,4,0,0,1,4,4V38a4,4,0,0,1-4,4H0a0,0,0,0,1,0,0V0A0,0,0,0,1,0,0Z" transform="translate(1)" fill="#fff"/>
          <path id="Rectangle_288_-_Outline" data-name="Rectangle 288 - Outline" d="M1,1V41H171a3,3,0,0,0,3-3V4a3,3,0,0,0-3-3H1M0,0H171a4,4,0,0,1,4,4V38a4,4,0,0,1-4,4H0Z" transform="translate(1)" fill="#cbcbd2"/>
        </g>
        <path id="Path_8229" data-name="Path 8229" d="M-45,0H28.493c1.413,0,2.558,1.791,2.558,4V38c0,2.209-1.145,4-2.558,4H-45Z" transform="translate(325.934 292) rotate(180)" fill="#f4f4f6"/>
        <path id="Path_8229_-_Outline" data-name="Path 8229 - Outline" d="M-44,1V41H28.493c.735,0,1.558-1.283,1.558-3V4c0-1.717-.822-3-1.558-3H-44m-1-1H28.493c1.413,0,2.558,1.791,2.558,4V38c0,2.209-1.145,4-2.558,4H-45Z" transform="translate(325.934 292) rotate(180)" fill="#cbcbd2"/>
        <text id="Browse" transform="translate(333 277)" fill="#2777d3" font-size="14" font-family="SegoeUI-Semibold, Segoe UI" font-weight="600"><tspan x="-22.969" y="0">Browse</tspan></text>
        <text id="Select_or_drag_files_here" data-name="Select or drag files here" transform="translate(384.934 277)" fill="#cbcbd2" font-size="14" font-family="SegoeUI, Segoe UI"><tspan x="0" y="0">Select or drag files here</tspan></text>
      </g>
      <g id="Group_267441-2" data-name="Group 267441" transform="translate(-241.934 -220)">
        <g id="Input-_no_label-2" data-name="Input- no label" transform="translate(369 250)">
          <path id="Rectangle_288-2" data-name="Rectangle 288" d="M0,0H171a4,4,0,0,1,4,4V38a4,4,0,0,1-4,4H0a0,0,0,0,1,0,0V0A0,0,0,0,1,0,0Z" transform="translate(1)" fill="#fff"/>
          <path id="Rectangle_288_-_Outline-2" data-name="Rectangle 288 - Outline" d="M1,1V41H171a3,3,0,0,0,3-3V4a3,3,0,0,0-3-3H1M0,0H171a4,4,0,0,1,4,4V38a4,4,0,0,1-4,4H0Z" transform="translate(1)" fill="#cbcbd2"/>
        </g>
        <path id="Path_8229-2" data-name="Path 8229" d="M-45,0H53.57A3.748,3.748,0,0,1,57,4V38a3.748,3.748,0,0,1-3.43,4H-45Z" transform="translate(325.934 292) rotate(180)" fill="#f4f4f6"/>
        <path id="Path_8229_-_Outline-2" data-name="Path 8229 - Outline" d="M-44,1V41H53.57A2.764,2.764,0,0,0,56,38V4a2.764,2.764,0,0,0-2.43-3H-44m-1-1H53.57A3.748,3.748,0,0,1,57,4V38a3.748,3.748,0,0,1-3.43,4H-45Z" transform="translate(325.934 292) rotate(180)" fill="#cbcbd2"/>
        <text id="Browse-2" data-name="Browse" transform="translate(333 277)" fill="#2777d3" font-size="14" font-family="SegoeUI-Semibold, Segoe UI" font-weight="600"><tspan x="-22.969" y="0">Browse</tspan></text>
        <g id="Group_267410" data-name="Group 267410" transform="translate(284 263)">
          <g id="Group_267409" data-name="Group 267409">
            <path id="Path_101926" data-name="Path 101926" d="M8.2,4.1H7.8L4.3,7.8a.2.2,0,0,0,0,.3l.9,1h.3L7.1,7.5v8.3a.2.2,0,0,0,.2.2H8.7a.2.2,0,0,0,.2-.2V7.5l1.6,1.7h.3l.9-1a.2.2,0,0,0,0-.3Z" fill="#2777d3"/>
            <rect id="Rectangle_10371" data-name="Rectangle 10371" width="16" height="2" rx="0.5" transform="translate(16 2) rotate(180)" fill="#2777d3"/>
          </g>
          <rect id="Rectangle_10372" data-name="Rectangle 10372" width="16" height="16" transform="translate(16 16) rotate(180)" fill="none"/>
        </g>
        <text id="Select_or_drag_files_here-2" data-name="Select or drag files here" transform="translate(384.934 277)" fill="#cbcbd2" font-size="14" font-family="SegoeUI, Segoe UI"><tspan x="0" y="0">Select or drag files here</tspan></text>
      </g>
      <g id="Group_267473" data-name="Group 267473" transform="translate(529 -54)">
        <g id="Input-_no_label-3" data-name="Input- no label" transform="translate(128.843 84)">
          <path id="Rectangle_288-3" data-name="Rectangle 288" d="M0,0H171a4,4,0,0,1,4,4V38a4,4,0,0,1-4,4H0a0,0,0,0,1,0,0V0A0,0,0,0,1,0,0Z" transform="translate(1)" fill="#fff"/>
          <path id="Rectangle_288_-_Outline-3" data-name="Rectangle 288 - Outline" d="M1,1V41H171a3,3,0,0,0,3-3V4a3,3,0,0,0-3-3H1M0,0H171a4,4,0,0,1,4,4V38a4,4,0,0,1-4,4H0Z" transform="translate(1)" fill="#cbcbd2"/>
        </g>
        <path id="Path_8229-3" data-name="Path 8229" d="M-45,0H.293c.871,0,1.576,1.791,1.576,4V38c0,2.209-.706,4-1.576,4H-45Z" transform="translate(85.869 126) rotate(180)" fill="#f4f4f6"/>
        <path id="Path_8229_-_Outline-3" data-name="Path 8229 - Outline" d="M-44,1V41H.18a2.312,2.312,0,0,0,.4-.846A7.644,7.644,0,0,0,.869,38V4A7.644,7.644,0,0,0,.584,1.846,2.312,2.312,0,0,0,.18,1H-44m-1-1H.293c.871,0,1.576,1.791,1.576,4V38c0,2.209-.706,4-1.576,4H-45Z" transform="translate(85.869 126) rotate(180)" fill="#cbcbd2"/>
        <g id="Group_267410-2" data-name="Group 267410" transform="translate(99.066 97)">
          <g id="Group_267409-2" data-name="Group 267409">
            <path id="Path_101926-2" data-name="Path 101926" d="M8.2,4.1H7.8L4.3,7.8a.2.2,0,0,0,0,.3l.9,1h.3L7.1,7.5v8.3a.2.2,0,0,0,.2.2H8.7a.2.2,0,0,0,.2-.2V7.5l1.6,1.7h.3l.9-1a.2.2,0,0,0,0-.3Z" fill="#2777d3"/>
            <rect id="Rectangle_10371-2" data-name="Rectangle 10371" width="16" height="2" rx="0.5" transform="translate(16 2) rotate(180)" fill="#2777d3"/>
          </g>
          <rect id="Rectangle_10372-2" data-name="Rectangle 10372" width="16" height="16" transform="translate(16 16) rotate(180)" fill="none"/>
        </g>
        <text id="Select_or_drag_files_here-3" data-name="Select or drag files here" transform="translate(144 111)" fill="#cbcbd2" font-size="14" font-family="SegoeUI, Segoe UI"><tspan x="0" y="0">Select or drag files here</tspan></text>
      </g>
    </g>
  </g>
</svg>
