<svg xmlns="http://www.w3.org/2000/svg" xmlns:xlink="http://www.w3.org/1999/xlink" width="480" height="1032" viewBox="0 0 480 1032">
  <defs>
    <linearGradient id="linear-gradient" x1="0.5" y1="1.709" x2="0.5" y2="2.709" gradientUnits="objectBoundingBox">
      <stop offset="0" stop-color="#818181" stop-opacity="0.251"/>
      <stop offset="0.54" stop-color="#818181" stop-opacity="0.122"/>
      <stop offset="1" stop-color="#818181" stop-opacity="0.102"/>
    </linearGradient>
    <clipPath id="clip-firstuse_mobile">
      <rect width="480" height="1032"/>
    </clipPath>
  </defs>
  <g id="firstuse_mobile" clip-path="url(#clip-firstuse_mobile)">
    <rect width="480" height="1032" fill="#f4f4f6"/>
    <g id="Component_1" data-name="Component 1">
      <rect id="Rectangle_1" data-name="Rectangle 1" width="480" height="60" fill="#fff"/>
      <g id="Group_72" data-name="Group 72" transform="translate(183 20)">
        <g id="Group_6" data-name="Group 6">
          <path id="Path_467" data-name="Path 467" d="M440.678,0l-6.233,13.788L428.193,0H425.7l8.745,19.322L443.19,0Z" transform="translate(-345.294)" fill="#8b8d8e"/>
          <path id="Path_468" data-name="Path 468" d="M343.6,19.322h2.512L337.39,0h-.963L327.7,19.322h2.512l1.908-4.269H341.7ZM333.14,12.787,336.9,4.5l3.759,8.292Z" transform="translate(-265.804)" fill="#8b8d8e"/>
          <path id="Path_469" data-name="Path 469" d="M543.685,10.426h6.951V8.16h-6.951V2.267h7.555L552.45,0H541.4V19.322h9.859L552.468,17h-8.783Z" transform="translate(-439.14)" fill="#8b8d8e"/>
          <path id="Path_470" data-name="Path 470" d="M186.078,0l-6.2,13.788L174.348,1.681l-5.5,12.107L162.864,0h-3.721L155.8,7.385l1.247,2.758,3.834-8.462,7.971,17.641,5.5-12.126,5.534,12.126L188.571,0Z" transform="translate(-126.372)" fill="#8b8d8e"/>
          <path id="Path_471" data-name="Path 471" d="M4.193,17.018,15.262,0H1.851L.812,2.267H11.068L0,19.285H15.243l1.02-2.267Z" fill="#8b8d8e"/>
        </g>
        <path id="Path_472" data-name="Path 472" d="M103.468,0H98.5l5.591,12.409L98.5,24.8h4.968L109.1,12.409Z" transform="translate(-79.895)" fill="#5fb53b"/>
      </g>
      <g id="Group_8092" data-name="Group 8092">
        <ellipse id="Ellipse_1" data-name="Ellipse 1" cx="18" cy="17.5" rx="18" ry="17.5" transform="translate(434 13)" fill="none"/>
        <path id="Path_5694" data-name="Path 5694" d="M302.715,257.318l-4.678-4.678a5.945,5.945,0,0,0,1.029-4.584,6.054,6.054,0,0,0-5.239-4.959,6.109,6.109,0,0,0-1.871,12.069,6.469,6.469,0,0,0,4.585-1.029l4.678,4.678a1.018,1.018,0,0,0,1.4,0A1.143,1.143,0,0,0,302.715,257.318Zm-13.753-8.888a4.171,4.171,0,0,1,3.462-3.462,4.275,4.275,0,0,1,4.865,4.865,4.171,4.171,0,0,1-3.462,3.462A4.313,4.313,0,0,1,288.962,248.43Z" transform="translate(157.046 -221.052)" fill="#2777d3"/>
      </g>
      <g id="Group_8091" data-name="Group 8091" transform="translate(-12)">
        <ellipse id="Ellipse_2" data-name="Ellipse 2" cx="18" cy="17.5" rx="18" ry="17.5" transform="translate(22 12)" fill="none"/>
        <g id="Group_7747" data-name="Group 7747" transform="translate(16 6)">
          <rect id="Rectangle_4038" data-name="Rectangle 4038" width="16" height="2" transform="translate(16 18)" fill="#1f5ea8"/>
          <rect id="Rectangle_4039" data-name="Rectangle 4039" width="16" height="2" transform="translate(16 23)" fill="#1f5ea8"/>
          <rect id="Rectangle_4040" data-name="Rectangle 4040" width="16" height="2" transform="translate(16 28)" fill="#1f5ea8"/>
        </g>
      </g>
      <path id="Path_5695" data-name="Path 5695" d="M0,0H480V5H0Z" transform="translate(0 60)" fill="#2777d3"/>
    </g>
    <g id="Group_8094" data-name="Group 8094" transform="translate(-0.5)">
      <text id="_2003_-_2018_Zywave_Inc._All_rights_reserved." data-name="© 2003 - 2018 Zywave, Inc. All rights reserved." transform="translate(133 989)" fill="#3d3d3d" font-size="10" font-family="OpenSans-Regular, Open Sans"><tspan x="0" y="11">© 2003 - 2018 Zywave, Inc. All rights reserved.</tspan></text>
      <text id="Terms_and_Conditions_Privacy_Statement_Cookie_Usage_Contact" data-name="Terms and Conditions     Privacy Statement     Cookie Usage     Contact" transform="translate(77 1007)" fill="#5786bd" font-size="10" font-family="OpenSans-Regular, Open Sans"><tspan x="0" y="11" xml:space="preserve">Terms and Conditions     Privacy Statement     Cookie Usage     Contact</tspan></text>
      <path id="Line_19" data-name="Line 19" d="M480,.5H0v-1H480Z" transform="translate(0.5 976.5)" fill="#e6e6e6"/>
    </g>
    <g id="Group_269953" data-name="Group 269953">
      <rect id="Rectangle_10115" data-name="Rectangle 10115" width="325" height="30" rx="15" transform="translate(10 95)" fill="#e6e6ea"/>
      <g id="Primary_Button" data-name="Primary Button" transform="translate(414 155)">
        <rect id="Rectangle_3990" data-name="Rectangle 3990" width="56" height="36" rx="18" fill="#2777d3"/>
        <text id="Add" transform="translate(15 23)" fill="#fff" font-size="14" font-family="SegoeUI-Semibold, Segoe UI" font-weight="600"><tspan x="0" y="0">Add</tspan></text>
      </g>
      <g id="Primary_Button-2" data-name="Primary Button" transform="translate(329 155)">
        <rect id="Rectangle_3990-2" data-name="Rectangle 3990" width="75" height="36" rx="18" fill="#e6e6ea"/>
      </g>
      <g id="Primary_Button-3" data-name="Primary Button" transform="translate(244 155)">
        <rect id="Rectangle_3990-3" data-name="Rectangle 3990" width="75" height="36" rx="18" fill="#e6e6ea"/>
      </g>
      <text id="You_haven_t_uploaded_any_content" data-name="You haven&apos;t uploaded any content" transform="translate(10 458.059)" fill="#31313a" font-size="32" font-family="SegoeUI-Light, Segoe UI" font-weight="300"><tspan x="-228.023" y="35">You haven&apos;t uploaded any content</tspan></text>
      <text id="Click_the_add_button_in_the_top_right_corner_to_add_files_and_folders." data-name="Click the add button in the top right corner to add files and folders." transform="translate(240 536.059)" fill="#31313a" font-size="14" font-family="SegoeUI, Segoe UI"><tspan x="-207.525" y="0">Click the add button in the top right corner to add files and folders.</tspan></text>
      <g id="Layer_2" data-name="Layer 2" transform="translate(90 221.002)">
        <g id="Layer_1" data-name="Layer 1" transform="translate(0 -0.002)">
          <path id="Path_8946" data-name="Path 8946" d="M222.435,1.222a45.17,45.17,0,0,0-31.3,3.881l-.142.073c-7.954,4.124-15.936,8.248-23.263,13.4-8.582,6.03-16.294,13.494-25.8,17.9-15.222,7.079-32.872,5.531-49.578,3.844L61.239,37.159c-12.046-1.242-24.848-2.337-35.68,3.084A41.143,41.143,0,0,0,10.63,53.756C-4.9,75.992-2.245,107.265,11.061,130.9s35.488,40.922,58.316,55.585c11.813,7.579,24.175,14.736,37.8,18.1,14.841,3.666,30.425,2.662,45.591.724,14.062-1.8,28.239-4.445,40.954-10.713,21.045-10.378,35.873-29.412,48.922-49.257,3.849-5.851,7.863-11.593,11.936-17.288,4.7-6.571,12.591-20.037,19.015-43.012,5.553-19.863,2.062-41.33-10.255-57.885C251.829,11.679,236.035,4.489,222.435,1.222Z" transform="translate(0 0.002)" fill="#f2f1f3"/>
          <rect id="Rectangle_10686" data-name="Rectangle 10686" width="198.26" height="112.31" rx="5.69" transform="translate(38.952 46.243)" fill="url(#linear-gradient)"/>
          <rect id="Rectangle_10687" data-name="Rectangle 10687" width="197.656" height="110.354" rx="5.69" transform="translate(39.263 47.824)" fill="#fff"/>
          <path id="Path_101815" data-name="Path 101815" d="M282.337,101.6H86.683a1,1,0,0,0-1,1v4.243H283.313v-4.234a1,1,0,0,0-.994-1.013Z" transform="translate(-46.421 -55.046)" fill="#9494a5"/>
          <circle id="Ellipse_2197" data-name="Ellipse 2197" cx="1.356" cy="1.356" r="1.356" transform="translate(41.857 47.824)" fill="#fff"/>
          <circle id="Ellipse_2198" data-name="Ellipse 2198" cx="1.356" cy="1.356" r="1.356" transform="translate(45.504 47.824)" fill="#fff"/>
          <circle id="Ellipse_2199" data-name="Ellipse 2199" cx="1.356" cy="1.356" r="1.356" transform="translate(49.156 47.824)" fill="#fff"/>
          <rect id="Rectangle_10688" data-name="Rectangle 10688" width="47.406" height="4.976" rx="1.76" transform="translate(45.509 57.373)" fill="#5b5874" opacity="0.2"/>
          <path id="Path_101816" data-name="Path 101816" d="M131.143,155.7h149.54c2.465,0,4.463,1.306,4.463,2.919v70.188c0,1.613-2,2.919-4.463,2.919H131.143c-2.465,0-4.463-1.306-4.463-2.919V158.619C126.68,157.006,128.659,155.7,131.143,155.7Z" transform="translate(-68.635 -84.357)" fill="#f4f4f6"/>
          <path id="Rectangle_10689" data-name="Rectangle 10689" d="M-1-1H138.351V59.224H-1ZM136.351,1H1V57.224H136.351Z" transform="translate(68.213 79.902)" fill="#e6e6ea"/>
          <rect id="Rectangle_10690" data-name="Rectangle 10690" width="137.351" height="8.06" transform="translate(68.213 79.902)" fill="#e6e6ea"/>
          <path id="Line_131" data-name="Line 131" d="M136.6,1H0V-1H136.6Z" transform="translate(68.511 88.1)" fill="#e6e6ea"/>
          <path id="Line_132" data-name="Line 132" d="M136.6,1H0V-1H136.6Z" transform="translate(68.511 98.116)" fill="#e6e6ea"/>
          <path id="Line_133" data-name="Line 133" d="M136.6,1H0V-1H136.6Z" transform="translate(68.511 108.137)" fill="#e6e6ea"/>
          <path id="Line_134" data-name="Line 134" d="M136.6,1H0V-1H136.6Z" transform="translate(68.511 118.158)" fill="#e6e6ea"/>
          <path id="Line_135" data-name="Line 135" d="M136.6,1H0V-1H136.6Z" transform="translate(68.511 128.174)" fill="#e6e6ea"/>
          <path id="Line_136" data-name="Line 136" d="M1,49.3H-1V0H1Z" transform="translate(77.235 88.329)" fill="#e6e6ea"/>
          <path id="Line_137" data-name="Line 137" d="M1,49.3H-1V0H1Z" transform="translate(106.033 88.329)" fill="#e6e6ea"/>
          <path id="Line_138" data-name="Line 138" d="M1,49.3H-1V0H1Z" transform="translate(137.47 88.329)" fill="#e6e6ea"/>
          <path id="Line_139" data-name="Line 139" d="M1,49.3H-1V0H1Z" transform="translate(172.12 88.329)" fill="#e6e6ea"/>
          <rect id="Rectangle_10691" data-name="Rectangle 10691" width="16.495" height="7.331" rx="3.666" transform="translate(199.658 56.195)" fill="#3b75bb"/>
          <path id="Path_101817" data-name="Path 101817" d="M448.983,122.686a4.25,4.25,0,0,1,4.245,4.084q0,.035,0,.07a4.246,4.246,0,0,1-4.241,4.085l-.123,0h-8.649l-.14,0a4.25,4.25,0,0,1-4.245-4.084q0-.036,0-.073a4.243,4.243,0,0,1,4.249-4.082l.124,0h8.65Zm2.425,4.12a2.423,2.423,0,0,0-2.509-2.3H440.19l-.11,0a2.305,2.305,0,1,0,.086,4.6h8.712l.11,0A2.417,2.417,0,0,0,451.408,126.806Z" transform="translate(-236.624 -66.963)" opacity="0.1"/>
          <path id="Path_101818" data-name="Path 101818" d="M77.712,261.271s-5.906-17.59-6.933-25.939-.257-35.822-.257-35.822,1.416,11.171,2.442,15.538,2.566,15.281,3.464,22.727S78.743,263.2,78.743,263.2Z" transform="translate(-38.059 -108.093)" fill="#5fb546"/>
          <path id="Path_101819" data-name="Path 101819" d="M105.535,293.055s4.124-19.643,3.977-22.6-.385-14.122.257-22.6.916-12.2.916-12.2-4.495,15.025-4.495,17.719-2.571,41.857-2.571,41.857Z" transform="translate(-56.141 -127.679)" fill="#5fb546"/>
          <path id="Path_101820" data-name="Path 101820" d="M77.712,261.271s-5.906-17.59-6.933-25.939-.257-35.822-.257-35.822,1.416,11.171,2.442,15.538,2.566,15.281,3.464,22.727S78.743,263.2,78.743,263.2Z" transform="translate(-38.059 -108.093)" fill="#010101" opacity="0.1"/>
          <path id="Path_101821" data-name="Path 101821" d="M92.538,290.279S88.3,259.721,89.2,254.328s.513-5.778.513-5.778,4.752,20.033,3.977,32.1-1.411,13.467-1.411,13.467Z" transform="translate(-48.262 -134.663)" fill="#5fb546"/>
          <path id="Path_101822" data-name="Path 101822" d="M99.616,262.223S96.409,237.7,97.325,223.06s2.571-19.9,2.571-19.9.916,17.206,1.283,22.6-.793,41.477-.793,41.477Z" transform="translate(-52.641 -110.07)" fill="#5fb546"/>
          <path id="Path_101823" data-name="Path 101823" d="M82.695,264.755s-4.124-19.648-3.982-22.6.385-14.122-.257-22.6-.916-12.2-.916-12.2,4.495,15.025,4.495,17.719,2.589,41.857,2.589,41.857Z" transform="translate(-42.011 -112.346)" fill="#396933"/>
          <path id="Path_101824" data-name="Path 101824" d="M105.535,293.055s4.124-19.643,3.977-22.6-.385-14.122.257-22.6.916-12.2.916-12.2-4.495,15.025-4.495,17.719-2.571,41.857-2.571,41.857Z" transform="translate(-56.141 -127.679)" fill="#010101" opacity="0.1"/>
          <path id="Path_101825" data-name="Path 101825" d="M108.808,289.577s5.906-17.59,6.933-25.934S116,227.82,116,227.82s-1.411,11.171-2.438,15.533-2.571,15.281-3.469,22.727S107.8,291.5,107.8,291.5Z" transform="translate(-58.406 -123.431)" fill="#396933"/>
          <path id="Path_101826" data-name="Path 101826" d="M99.616,262.223S96.409,237.7,97.325,223.06s2.571-19.9,2.571-19.9.916,17.206,1.283,22.6-.793,41.477-.793,41.477Z" transform="translate(-52.641 -110.07)" fill="#010101" opacity="0.2"/>
          <path id="Path_101827" data-name="Path 101827" d="M102.24,253.279s.641-22.855.641-29.146,2.291-35.822,2.291-35.822,3.6,26.961,3.084,29.916a130.812,130.812,0,0,0-1.283,17.87c.133,5.288-.518,17.975-1.929,20.413l-1.411,2.442Z" transform="translate(-55.393 -102.025)" fill="#4c8f41"/>
          <path id="Path_101828" data-name="Path 101828" d="M92.538,290.279S88.3,259.721,89.2,254.328s.513-5.778.513-5.778,4.752,20.033,3.977,32.1-1.411,13.467-1.411,13.467Z" transform="translate(-48.262 -134.663)" fill="#010101" opacity="0.4"/>
          <path id="Path_101829" data-name="Path 101829" d="M95.448,276.563s-4.234-40.831-3.207-45.069l1.026-4.234s2.571,12.326,2.571,15.4,1.155,37.88,1.155,37.88Z" transform="translate(-49.889 -123.128)" fill="#5fb546"/>
          <path id="Path_101830" data-name="Path 101830" d="M98.875,357.408v34.283a1.668,1.668,0,1,1-3.336,0V377.17H68.446v14.52a1.668,1.668,0,1,1-3.336,0V357.408a1.668,1.668,0,0,1,3.336,0v17.7H95.539v-17.7a1.668,1.668,0,0,1,3.336,0Z" transform="translate(-35.276 -192.738)" fill="#4a4a56"/>
          <rect id="Rectangle_10692" data-name="Rectangle 10692" width="30.814" height="33.128" rx="4" transform="translate(31.117 150.031)" fill="#cacad1"/>
          <rect id="Rectangle_10693" data-name="Rectangle 10693" width="3.34" height="44.038" rx="1.67" transform="translate(44.469 163.002)" fill="#4a4a56"/>
          <path id="Path_101831" data-name="Path 101831" d="M478.21,330.271l6.282-.353,1.6-5.471,1.3-8.161,8.77-29.912,9.764-26.429,8.385-22.686h-17l-16.019,78.028-2.493,8.426Z" transform="translate(-259.092 -128.546)" fill="#b28b68" fill-rule="evenodd"/>
          <path id="Path_101832" data-name="Path 101832" d="M481.06,416.187l5.379.875,2.5-8.513-6.1-1Z" transform="translate(-260.636 -220.808)" fill="#010101" fill-rule="evenodd" opacity="0.1"/>
          <path id="Leg" d="M517.663,237.26l-18.791,53.175-11.185,33.279-8.2-.742,16.8-85.712Z" transform="translate(-259.786 -128.546)" fill="#a6c6e9" fill-rule="evenodd"/>
          <path id="Path_101833" data-name="Path 101833" d="M478.136,322.1l.408-2.85a.756.756,0,0,1,.852-.674l.211.037,7.625-38.773,8.348-42.581H516.95l-3.927,11.1-7.478,21.16-7.391,20.917-.843,2.483L488.2,320.012a.788.788,0,0,1,.614.916l-.4,2.85a.761.761,0,0,1-.852.669l-8.784-1.43a.793.793,0,0,1-.641-.916Z" transform="translate(-259.046 -128.546)" fill="#010101" fill-rule="evenodd" opacity="0.2"/>
          <path id="Path_101834" data-name="Path 101834" d="M509.77,252.2l12.761,17.705.458.632,7.423,10.3,9.838-8.1V261.43l-10.08-13.073-8.568-11.1h-8.9Z" transform="translate(-276.191 -128.546)" fill="#010101" fill-rule="evenodd" opacity="0.1"/>
          <g id="Group_269938" data-name="Group 269938" transform="translate(219.06 108.714)" opacity="0.1">
            <path id="Path_101835" data-name="Path 101835" d="M515.187,238.47l-3.35,9.485-7.478,21.16-7.4,20.935-.834,2.479-9.109,27.089-.458,1.333.958.17-.293,2.039-7.854-1.251.289-2.03.889.142.229-1.15,7.6-38.773,8.161-41.6h18.654m1.718-1.21H495.535l-8.326,42.558-7.6,38.773-.211-.037h-.115a.765.765,0,0,0-.779.674l-.408,2.85a.793.793,0,0,0,.628.916l8.784,1.43h.115a.765.765,0,0,0,.738-.678l.4-2.85a.788.788,0,0,0-.614-.916l9.141-27.084.834-2.483,7.391-20.917,7.478-21.16,3.927-11.1Z" transform="translate(-478.083 -237.26)" fill="#010101"/>
          </g>
          <path id="Path_101836" data-name="Path 101836" d="M528.92,237.26c1.48,6.823,3.038,15.011,4.481,22.686,2.319,12.317,4.348,23.313,5.324,25.224q1.32,2.589,25.462,19.355,4.522,3.134,9.847,6.772l3.666,2.5,4.866-3.8c-1.1-1.026-2.186-2.03-3.235-3-3.143-2.923-7.249-5.659-9.87-8.11q-19.574-18.282-19.918-19.194c-.422-1.127-2.406-24.381-2.1-42.425Z" transform="translate(-286.567 -128.546)" fill="#b28b68" fill-rule="evenodd"/>
          <path id="Path_101837" data-name="Path 101837" d="M602.24,374.545c3.01,2.089,6.277,4.495,9.828,6.919l4.266-4.614c-3.143-2.923-6.181-5.5-8.807-7.95Z" transform="translate(-326.291 -199.868)" fill="#010101" fill-rule="evenodd" opacity="0.1"/>
          <path id="Path_101838" data-name="Path 101838" d="M544.428,237.255c.032,3.157.05,6.456.06,9.76v14.411c0,5.288,0,9.957.023,13.238a33.83,33.83,0,0,0,.22,4.921c.316.756,6.332,7.524,25.756,24.037l-6.213,7.1c-23.061-15.9-30.214-21.476-31.4-23.6a13.207,13.207,0,0,1-.687-1.581c-1.123-2.9-3.075-8.885-5.274-16.037-3.166-10.273-6.846-22.947-9.315-32.258Z" transform="translate(-280.434 -128.54)" fill="#a6c6e9" fill-rule="evenodd"/>
          <g id="Group_269939" data-name="Group 269939" transform="translate(237.162 108.71)" opacity="0.1">
            <path id="Path_101839" data-name="Path 101839" d="M543.222,238.464c.023,2.461.037,5.219.046,8.555v27.657c.055,4.738.188,5.072.316,5.379.577,1.375,7.927,9,25.151,23.694l-4.678,5.366c-20.248-13.975-29-20.532-30.136-22.58a12.321,12.321,0,0,1-.614-1.43c-1.054-2.708-2.965-8.523-5.247-15.945-3.143-10.2-6.571-22.03-8.894-30.7h24.051m1.2-1.21H517.59c2.47,9.311,6.149,21.994,9.315,32.258,2.2,7.148,4.151,13.137,5.274,16.037a13.208,13.208,0,0,0,.687,1.581c1.182,2.121,8.335,7.7,31.4,23.6l6.209-7.1c-19.423-16.5-25.44-23.281-25.756-24.037a33.825,33.825,0,0,1-.22-4.921c-.046-3.281-.037-7.95-.023-13.238V247.014c0-3.3-.027-6.6-.06-9.76Z" transform="translate(-517.59 -237.25)"/>
          </g>
          <path id="Path_101840" data-name="Path 101840" d="M478.744,419.145l8.784,1.43a.761.761,0,0,0,.852-.669l.4-2.85a.788.788,0,0,0-.623-.916l-8.784-1.43a.756.756,0,0,0-.871.678l-.408,2.85A.793.793,0,0,0,478.744,419.145Z" transform="translate(-259.026 -224.682)" fill="#a6c6e9" fill-rule="evenodd"/>
          <path id="Path_101841" data-name="Path 101841" d="M478.622,419.122l8.784,1.43a.761.761,0,0,0,.852-.674l.4-2.85a.788.788,0,0,0-.623-.916l-8.784-1.43a.756.756,0,0,0-.852.669l-.408,2.85A.793.793,0,0,0,478.622,419.122Z" transform="translate(-258.968 -224.669)" fill="#fff" fill-rule="evenodd" opacity="0.2"/>
          <path id="Path_101842" data-name="Path 101842" d="M615.475,386.263l6.287-7.629a.843.843,0,0,0-.055-1.118l-2.025-1.9a.715.715,0,0,0-1.054.069l-6.286,7.634a.838.838,0,0,0,.069,1.127l2.025,1.906a.715.715,0,0,0,1.04-.087Z" transform="translate(-331.663 -203.397)" fill="#a6c6e9" fill-rule="evenodd"/>
          <path id="Path_101843" data-name="Path 101843" d="M615.475,386.263l6.287-7.629a.843.843,0,0,0-.055-1.118l-2.025-1.9a.715.715,0,0,0-1.054.069l-6.286,7.634a.838.838,0,0,0,.069,1.127l2.025,1.906a.715.715,0,0,0,1.04-.087Z" transform="translate(-331.663 -203.397)" fill="#fff" fill-rule="evenodd" opacity="0.2"/>
          <rect id="Rectangle_10694" data-name="Rectangle 10694" width="2.543" height="14.8" rx="1.272" transform="translate(238.541 56.447) rotate(180)" fill="#1a1a1e"/>
          <path id="Path_101844" data-name="Path 101844" d="M443.851,441.631h23.575c.128-.738.22-1.375.289-1.938a12.573,12.573,0,0,0,.087-1.375,8.987,8.987,0,0,0-.7-2.8l-.023-.055a.834.834,0,0,0-.761-.481.866.866,0,0,0-.348.073,6.745,6.745,0,0,1-2.571.747,7.555,7.555,0,0,1-2.978-.852l-.706-1.709h0a.412.412,0,0,0-.55-.211L448.2,437.91c-.871.128-1.97.275-3.285.435a1.375,1.375,0,0,0-1.338,1.343,5.073,5.073,0,0,0,.27,1.943Z" transform="translate(-240.326 -234.59)" fill="#e7e6e9" fill-rule="evenodd"/>
          <path id="Path_101845" data-name="Path 101845" d="M443.846,449.558h23.575c.128-.738.22-1.375.289-1.938H443.571A5.072,5.072,0,0,0,443.846,449.558Z" transform="translate(-240.321 -242.518)" fill="#010101" fill-rule="evenodd" opacity="0.1"/>
          <path id="Path_101846" data-name="Path 101846" d="M618.161,413.186,633.8,395.545c-.458-.587-.889-1.081-1.26-1.5a12.813,12.813,0,0,0-.958-.967,8.96,8.96,0,0,0-2.566-1.333l-.05-.023a.848.848,0,0,0-.871.247.87.87,0,0,0-.174.312,6.813,6.813,0,0,1-1.146,2.424,7.559,7.559,0,0,1-2.612,1.659l-1.75-.6h0a.408.408,0,0,0-.522.27l-3.615,11.455q-.724,1.109-1.856,2.749a1.375,1.375,0,0,0,.119,1.892A5.142,5.142,0,0,0,618.161,413.186Z" transform="translate(-333.799 -212.212)" fill="#e7e6e9" fill-rule="evenodd"/>
          <path id="Path_101847" data-name="Path 101847" d="M618.65,415.974l15.638-17.641c-.458-.587-.889-1.081-1.26-1.5L617,414.892A5.14,5.14,0,0,0,618.65,415.974Z" transform="translate(-334.288 -215)" fill="#010101" fill-rule="evenodd" opacity="0.1"/>
          <g id="Head" transform="translate(237.267 34.744)">
            <path id="Path_101848" data-name="Path 101848" d="M517.9,91.544c1.439,3.262,4.124,5.576,7.331,5.929a21.5,21.5,0,0,0,2.69-1.375l-.179,1.26-1.682,11.913h11l-3.432-16.01-.353-1.636a14.425,14.425,0,0,0,2.749-4.706q.041-.316.069-.646a13.508,13.508,0,0,0-2.374-9.027c-4.325-3-12.188-.866-14.136,2.749C518.164,82.655,517.591,87.493,517.9,91.544Z" transform="translate(-517.82 -75.825)" fill="#b28b68" fill-rule="evenodd"/>
          </g>
          <path id="Path_101849" data-name="Path 101849" d="M538.054,66.074c0-6.3-9.622-11.414-16.651-11.414S508.72,59.769,508.72,66.074,514.4,77.492,521.4,77.492,538.054,72.379,538.054,66.074Z" transform="translate(-275.622 -29.614)" fill="#1a1a1e" fill-rule="evenodd"/>
          <path id="Path_101850" data-name="Path 101850" d="M516.63,88.732a11.786,11.786,0,0,0,1.7,2.749,8.6,8.6,0,0,0,5.636,3.18,2.356,2.356,0,0,0,.252.027,7.753,7.753,0,0,0,2.259-.151,9.774,9.774,0,0,0,5.883-4.1,13.806,13.806,0,0,0,2.4-6.351q.041-.316.069-.646a13.508,13.508,0,0,0-2.373-9.027,9.284,9.284,0,0,0-3.986-3.207,7.849,7.849,0,0,0-2.332-.55c-5.329-.426-10.081,4.582-10.6,11.235a14.1,14.1,0,0,0,1.1,6.836Z" transform="translate(-279.28 -38.269)" fill="#b28b68" fill-rule="evenodd"/>
          <path id="Path_101851" data-name="Path 101851" d="M516.63,88.732a11.786,11.786,0,0,0,1.7,2.749,8.6,8.6,0,0,0,5.636,3.18,2.356,2.356,0,0,0,.252.027,7.753,7.753,0,0,0,2.259-.151,9.774,9.774,0,0,0,5.883-4.1,13.806,13.806,0,0,0,2.4-6.351q.041-.316.069-.646a13.508,13.508,0,0,0-2.373-9.027,9.284,9.284,0,0,0-3.986-3.207,7.849,7.849,0,0,0-2.332-.55c-5.329-.426-10.081,4.582-10.6,11.235a14.1,14.1,0,0,0,1.1,6.836Z" transform="translate(-279.28 -38.269)" fill="#010101" fill-rule="evenodd" opacity="0.1"/>
          <path id="Path_101852" data-name="Path 101852" d="M516.63,88.742a11.791,11.791,0,0,0,1.7,2.749,7.153,7.153,0,0,0,3.377,1.347,2.155,2.155,0,0,0,.234.027,6.7,6.7,0,0,0,2.1-.151,9.022,9.022,0,0,0,5.466-4.1,14.416,14.416,0,0,0,2.222-6.342c.027-.211.05-.426.064-.646a14.291,14.291,0,0,0-2.2-9.027,9.82,9.82,0,0,0-1.123-1.375,7.849,7.849,0,0,0-2.332-.55c-5.329-.426-10.081,4.582-10.6,11.235a14.1,14.1,0,0,0,1.1,6.827Z" transform="translate(-279.281 -38.28)" fill="#b28b68" fill-rule="evenodd"/>
          <path id="Path_101853" data-name="Path 101853" d="M561.595,52.075a5.585,5.585,0,0,1-2.291-1.833,5.645,5.645,0,0,1,4.17-9C568.834,38,569.2,30.819,579.1,32.651c11.226,2.08,4.225,19.006,13.073,16.848s-2.538,14.424-15.51,9.576c-4.669-1.746-6.983-6.873-9.448-8.445-1.512.751-4.124,2.094-5.6,1.448v.087A.625.625,0,0,0,561.595,52.075Z" transform="translate(-302.425 -17.53)" fill="#1a1a1e"/>
          <path id="Path_101854" data-name="Path 101854" d="M516.26,72.067a7.716,7.716,0,0,1,4.087-2.4c3.015-.623,7.455.646,12.509,9.164a4.362,4.362,0,0,1,.577,2.79,16.224,16.224,0,0,0,2.557.2h.1a7.879,7.879,0,0,0,7.437-10.08c-1.132-3.954-3.281-7.075-6.832-8.028-7.331-1.97-13.288-1.173-16.834,1.5A8.811,8.811,0,0,0,516.26,72.067Z" transform="translate(-279.708 -33.925)" fill="#1a1a1e"/>
          <path id="Path_101855" data-name="Path 101855" d="M524.1,65.162a16.246,16.246,0,0,0,.49,4.5c3.015-.623,7.455.646,12.509,9.164a4.362,4.362,0,0,1,.577,2.79,16.225,16.225,0,0,0,2.557.2h.1a7.879,7.879,0,0,0,7.437-10.08c-1.132-3.954-3.281-7.075-6.832-8.028-7.331-1.97-13.288-1.173-16.834,1.5Z" transform="translate(-283.951 -33.925)" fill="#1a1a1e"/>
          <path id="Path_101856" data-name="Path 101856" d="M509.03,184.748c6.644,3.469,8.454-2.8,16.33-2.8a27.7,27.7,0,0,1,9.141,1.21,51.465,51.465,0,0,0,6.25,1.448.614.614,0,0,1,.513.5.936.936,0,0,0,.037.2c.422,2.222,1.929,3.469,2.062,5.957a15.079,15.079,0,0,1-.422,3.606,2.236,2.236,0,0,0,2.19,2.671h18.305a3,3,0,0,0,2.589-3.776c-3.047-11.139-8.188-21.339-12.6-30.379-5.65-11.625-10.933-23.048-19.575-31.387h-5.26c-.843,1.026-1.278,2.291-3.18,2.7-2.914.674-5.874-3.148-7.372-.784a.623.623,0,0,0-.092.325v1.168h0c.092,8.972,1.045,17.361-.7,24.248a120.014,120.014,0,0,1-5.182,14.365h0a72.908,72.908,0,0,0-3.359,10,.623.623,0,0,0,.325.719Z" transform="translate(-275.603 -71.516)" fill="#3b75bb" fill-rule="evenodd"/>
          <path id="Path_101857" data-name="Path 101857" d="M581.68,209.017q7.959,17.9,12.239,27.579c.069.151.133.3.2.458q2.749,6.186,3.909,8.871.719,1.65.857,1.989c1.063,2.63-1.182,6.63-2.14,8.779,3.125,1.4,2.79-3.78,6.731-1.943,3.6,1.672,6.337,4.706,10.493,2.14.513-.316,1.072-1.5-.279-2.428-3.372-2.291-8.248-6.36-8.889-7.689-.087-.179-.206-.458-.362-.848q-.642-1.6-2.053-5.6c-.389-1.1-.825-2.341-1.3-3.716q-3.3-9.48-9.375-27.616Z" transform="translate(-315.152 -113.229)" fill="#b28b68" fill-rule="evenodd"/>
          <path id="Path_101858" data-name="Path 101858" d="M386.405,164.974a39.512,39.512,0,0,0,10.442,2.749l1.26.7,2.841,1.581,11.845,6.607,2.291-8.426-8.99-2.456-3.391-.916h0l-2.855-.784q-7.024-6.456-7.606-5.15c-.582,1.292,1.127,2.158.871,3.093s-3.02,1.2-5.654,1.333S385.709,164.479,386.405,164.974Z" transform="translate(-208.961 -85.961)" fill="#b28b68" fill-rule="evenodd"/>
          <path id="Path_101859" data-name="Path 101859" d="M418.042,161.087a4.678,4.678,0,0,0,.77,8.413,47.346,47.346,0,0,0,18.36,2.722c.82-.032,1.631-.092,2.433-.16l.541-.05.6-.064q.412-.041.825-.1c.884-.11,1.75-.243,2.6-.389,9.247-1.636,19.016-5.132,25.137-15.542,1.53-2.6.623-6.6,1.97-9.242.055-.1.11-.206.17-.3s.082-.133.124-.192v-.032l.165-.229c.064-.082.128-.16.2-.238a4.714,4.714,0,0,1,.325-.353c.055-.06.11-.11.17-.165a8.517,8.517,0,0,1,.637-.568c.082-.064.16-.133.243-.192l.357-.275.38-.275c1.746-1.251,3.666-2.355,4.234-3.936-1.182-1.581-4.422-.156-6.3-.742s-2.813-4.816-4.275-3.5c-.293.564-.587,1.132-.884,1.691-.715,1.343-1.443,2.667-2.2,3.941h0c-3.693,6.245-8.037,11.432-14.2,12.669-5.773,1.159-13.036-1.888-20.99-6.259a4.5,4.5,0,0,0-6.653,4.124,10.337,10.337,0,0,1-1.008,5.677A9.488,9.488,0,0,1,418.042,161.087Z" transform="translate(-225.252 -73.373)" fill="#3b75bb" fill-rule="evenodd"/>
          <path id="Path_101860" data-name="Path 101860" d="M608.39,269.24c.069.151.133.3.2.458a48.315,48.315,0,0,1,1.911,5.256h6.873c-1.136-3.666-1.475-4.66-1.833-5.714Z" transform="translate(-329.623 -145.872)" fill="#010101" fill-rule="evenodd" opacity="0.1"/>
          <path id="Path_101861" data-name="Path 101861" d="M418.328,161.015a4.8,4.8,0,0,0,.916,8.587,47.318,47.318,0,0,0,18.108,2.63c.82-.032,1.631-.092,2.433-.16l.541-.05.6-.064q.412-.041.825-.1c.884-.11,1.75-.243,2.6-.389,9.247-1.636,19.016-5.132,25.137-15.542,1.53-2.6.623-6.6,1.97-9.242.055-.1.11-.206.169-.3s.082-.133.124-.192v-.032l.165-.229c.064-.082.128-.16.2-.238a4.693,4.693,0,0,1,.325-.353c.055-.06.11-.11.17-.165a8.516,8.516,0,0,1,.637-.568c.082-.064.16-.133.243-.192l.357-.275.38-.275c1.746-1.251,3.666-2.355,4.234-3.936-1.182-1.581-4.422-.156-6.3-.742s-2.813-4.816-4.275-3.5c-.293.564-.587,1.132-.884,1.691-.715,1.343-1.443,2.667-2.2,3.941h0c-3.693,6.245-8.037,11.432-14.2,12.669-5.773,1.159-13.036-1.888-20.99-6.259a4.5,4.5,0,0,0-6.653,4.124,10.336,10.336,0,0,1-1.008,5.677A9.444,9.444,0,0,1,418.328,161.015Z" transform="translate(-225.424 -73.378)" fill="#010101" fill-rule="evenodd" opacity="0.2"/>
          <path id="Path_101862" data-name="Path 101862" d="M462.5,174.521c.82-.032,1.631-.092,2.433-.16l.541-.05.6-.064q.412-.041.825-.1c.884-.11,1.75-.243,2.6-.389,9.247-1.636,19.016-5.132,25.137-15.542,1.53-2.6.623-6.6,1.97-9.242.055-.1.11-.206.17-.3s.083-.133.124-.192v-.032l.165-.229c.064-.082.128-.16.2-.238a4.7,4.7,0,0,1,.325-.353,1.908,1.908,0,0,1,.17-.165,8.5,8.5,0,0,1,.637-.568c.073-.064.16-.128.243-.192l.357-.275.38-.275-.889-3.386-6.337-3.1c-.715,1.343-1.443,2.667-2.2,3.941h0C486.725,150.891,478.445,165.879,462.5,174.521Z" transform="translate(-250.581 -75.672)" fill="#010101" fill-rule="evenodd" opacity="0.05"/>
          <g id="Group_269940" data-name="Group 269940" transform="translate(190.638 62.046)" opacity="0.05">
            <path id="Path_101863" data-name="Path 101863" d="M468.6,137.284l.339.509a5.8,5.8,0,0,0,2.818,2.69,5.411,5.411,0,0,0,1.608.211c.541,0,1.091-.05,1.617-.1s.953-.087,1.375-.087h.055a18.04,18.04,0,0,1-2.112,1.617l-.848.591-.458.316-.33.257c-.1.073-.2.156-.293.238a9.068,9.068,0,0,0-.715.628,2.889,2.889,0,0,0-.206.206,5.588,5.588,0,0,0-.385.417c-.087.1-.169.2-.238.289l-.188.261-.041.055-.165.257c-.087.142-.156.27-.225.4A13.01,13.01,0,0,0,469.159,151a10.3,10.3,0,0,1-.884,4.211c-6.167,10.488-16.165,13.462-24.189,14.882-.916.16-1.732.284-2.548.385l-.806.092-.55.06h-.032l-.509.046c-.852.073-1.627.128-2.369.156s-1.457.046-2.176.046a44.982,44.982,0,0,1-15.4-2.589,3.363,3.363,0,0,1-2.241-2.9,3.3,3.3,0,0,1,1.59-3.207,10.887,10.887,0,0,0,4.087-3.982,11.644,11.644,0,0,0,1.173-6.415,3.111,3.111,0,0,1,.857-2.291,3.171,3.171,0,0,1,2.268-.981,3.061,3.061,0,0,1,1.494.394c6.012,3.3,12.976,6.676,19.057,6.676a14.865,14.865,0,0,0,2.868-.27c7.295-1.462,11.913-7.886,15.121-13.32l.055-.1h0c.678-1.15,1.375-2.424,2.172-3.9l.385-.724m-.151-1.865a.825.825,0,0,0-.559.252c-.293.564-.586,1.132-.884,1.691-.715,1.343-1.443,2.667-2.2,3.941h0c-3.693,6.245-8.037,11.432-14.2,12.669a13.044,13.044,0,0,1-2.6.247c-5.292,0-11.593-2.749-18.392-6.507a4.468,4.468,0,0,0-2.158-.564,4.513,4.513,0,0,0-4.495,4.7,10.337,10.337,0,0,1-1.008,5.677,9.444,9.444,0,0,1-3.6,3.469,4.8,4.8,0,0,0,.9,8.6,46.682,46.682,0,0,0,15.877,2.676c.751,0,1.494,0,2.231-.046.82-.032,1.631-.092,2.433-.16l.541-.05.6-.064q.412-.041.825-.1c.884-.11,1.75-.243,2.6-.389,9.247-1.636,19.015-5.132,25.137-15.542,1.53-2.6.623-6.6,1.97-9.242.055-.1.11-.206.17-.3s.082-.133.124-.192v-.032l.165-.229c.064-.082.128-.16.2-.238a4.718,4.718,0,0,1,.325-.353c.055-.06.11-.11.17-.165a8.513,8.513,0,0,1,.637-.568c.082-.064.16-.133.243-.192l.357-.275.38-.275c1.746-1.251,3.666-2.355,4.234-3.936a2.47,2.47,0,0,0-2.117-.774c-.884,0-2.03.183-2.983.183a3.973,3.973,0,0,1-1.2-.151c-1.631-.5-2.548-3.748-3.716-3.748Z" transform="translate(-416.056 -135.41)" fill="#010101"/>
          </g>
          <path id="Path_101864" data-name="Path 101864" d="M509.03,184.748c6.644,3.469,8.454-2.8,16.33-2.8a27.7,27.7,0,0,1,9.141,1.21,51.465,51.465,0,0,0,6.25,1.448.614.614,0,0,1,.513.5.936.936,0,0,0,.037.2c.422,2.222,1.929,3.469,2.062,5.957a15.079,15.079,0,0,1-.422,3.606,2.236,2.236,0,0,0,2.19,2.671h18.305a3,3,0,0,0,2.589-3.776c-3.047-11.139-8.188-21.339-12.6-30.379-5.65-11.625-10.933-23.048-19.575-31.387h-5.26c-.843,1.026-1.278,2.291-3.18,2.7-2.914.674-5.874-3.148-7.372-.784a.623.623,0,0,0-.092.325v1.168h0c.092,8.972,1.045,17.361-.7,24.248a120.014,120.014,0,0,1-5.182,14.365h0a72.908,72.908,0,0,0-3.359,10,.623.623,0,0,0,.325.719Z" transform="translate(-275.603 -71.516)" fill="#3b75bb" fill-rule="evenodd"/>
          <path id="Path_101865" data-name="Path 101865" d="M565,209.311a51.462,51.462,0,0,0,6.25,1.448.614.614,0,0,1,.513.5.936.936,0,0,0,.037.2,186.8,186.8,0,0,0-5.379-31.19Q567.671,199.249,565,209.311Z" transform="translate(-306.115 -97.669)" fill="rgba(1,1,1,0.1)" fill-rule="evenodd"/>
          <g id="Group_269941" data-name="Group 269941" transform="translate(233.085 60.484)" opacity="0.05">
            <path id="Path_101866" data-name="Path 101866" d="M533.3,133.375c7.716,7.62,12.651,17.76,17.87,28.487q.508,1.054,1.026,2.1l.793,1.627c4.165,8.513,8.885,18.163,11.716,28.514a1.59,1.59,0,0,1-.229,1.343,1.613,1.613,0,0,1-1.081.687H548.655a1.156,1.156,0,0,0-.22,0h-3.3a.843.843,0,0,1-.664-.321.825.825,0,0,1-.179-.7,16.662,16.662,0,0,0,.458-3.959,9.43,9.43,0,0,0-1.228-3.931,8.285,8.285,0,0,1-.857-2.2.313.313,0,0,0,0-.032.638.638,0,0,1,0-.092v-.032a1.97,1.97,0,0,0-1.64-1.645,49.815,49.815,0,0,1-6.039-1.375h-.064a29.039,29.039,0,0,0-9.517-1.26,16.9,16.9,0,0,0-8.362,2.392,9.255,9.255,0,0,1-4.22,1.452,6.3,6.3,0,0,1-2.616-.655,74.591,74.591,0,0,1,3.157-9.233v-.06q.435-1.081.871-2.167a98.216,98.216,0,0,0,4.344-12.307c1.375-5.356,1.146-11.515.916-18.035-.073-2.135-.151-4.344-.174-6.557v-.912h.05a5.9,5.9,0,0,1,1.677.6,8.786,8.786,0,0,0,3.666,1.049,4.422,4.422,0,0,0,1.022-.115,5.463,5.463,0,0,0,3.492-2.571c.027-.032.05-.069.073-.1h4.014M513.47,174.036h0M533.855,132H528.6c-.843,1.026-1.278,2.291-3.18,2.7a2.964,2.964,0,0,1-.719.082c-1.97,0-3.9-1.65-5.334-1.65a1.485,1.485,0,0,0-1.32.784.623.623,0,0,0-.092.325v1.168h0c.092,8.976,1.045,17.366-.7,24.253a120.012,120.012,0,0,1-5.182,14.365h0a72.917,72.917,0,0,0-3.359,10,.614.614,0,0,0,.316.692,7.986,7.986,0,0,0,3.748,1.049c3.968,0,6.415-3.844,12.582-3.844a27.7,27.7,0,0,1,9.141,1.21,52.532,52.532,0,0,0,6.25,1.443.623.623,0,0,1,.513.509.994.994,0,0,0,.037.2c.422,2.222,1.929,3.469,2.062,5.957a15.085,15.085,0,0,1-.422,3.606,2.236,2.236,0,0,0,2.19,2.671h18.305a3,3,0,0,0,2.589-3.776c-3.047-11.139-8.188-21.339-12.6-30.379C547.78,151.762,542.5,140.339,533.855,132Z" transform="translate(-508.692 -132)" fill="#010101"/>
          </g>
          <rect id="Rectangle_10695" data-name="Rectangle 10695" width="2.543" height="14.8" rx="1.272" transform="translate(255.586 56.447) rotate(180)" fill="#1a1a1e"/>
          <path id="Path_101867" data-name="Path 101867" d="M567.45,62s-1.434-7.515-6.14-8.651c0,0-2.451-.334-2.68,3.478,0,0,2.969,1.7,7.024,7.515C565.673,64.343,567.377,63.358,567.45,62Z" transform="translate(-302.663 -28.901)" fill="#3b75bb"/>
        </g>
      </g>
    </g>
  </g>
</svg>
