<svg xmlns="http://www.w3.org/2000/svg" viewBox="0 0 389.069 404.131">
  <path fill="#9ee6e1" d="M387.615 127.548a15.967 15.967 0 1 1-15.967-15.967 15.968 15.968 0 0 1 15.967 15.967"/>
  <path fill="#324958" d="M371.65 144.968a17.419 17.419 0 1 1 17.419-17.419 17.438 17.438 0 0 1-17.419 17.419m0-31.934a14.516 14.516 0 1 0 14.512 14.515 14.532 14.532 0 0 0-14.516-14.516"/>
  <path fill="#2c8e87" d="M353.898 28.013s49.264 62.87 23.136 99.077c-27.383 37.946-111.549 15.411-111.549 15.411s34.069-101.859 88.413-114.488"/>
  <path fill="#324958" d="M343.797 102.939c25.806-33.485 24-72.437-4.034-87s-71.678.771-97.483 34.256-24 72.438 4.033 87 71.678-.771 97.484-34.256"/>
  <path fill="#324958" d="M270.306 143.755a52.814 52.814 0 0 1-24.5-5.594c-11.335-5.89-18.82-15.757-21.643-28.535-4.117-18.627 2.17-40.533 17.249-60.1 26.07-33.825 70.417-49.328 98.851-34.554 11.336 5.89 18.82 15.757 21.644 28.535 4.116 18.627-2.17 40.533-17.25 60.1-19.369 25.132-48.828 40.152-74.351 40.152m45.382-132.234c-24.824 0-53.585 14.728-72.548 39.334-14.468 18.774-20.766 40.569-16.848 58.3 2.68 12.128 9.776 21.49 20.521 27.073 27.542 14.311 70.662-.921 96.12-33.955l.862.664-.862-.664c14.468-18.774 20.767-40.569 16.848-58.3-2.681-12.128-9.776-21.489-20.521-27.073a50.831 50.831 0 0 0-23.572-5.379"/>
  <path fill="#4dd1c8" d="M341.16 99.843a93.5 93.5 0 0 1-33.778 27.594c-14.98 7.156-30.947 9.515-44.577 5.965a43.89 43.89 0 0 1-9.624-3.731c-25.649-13.673-27.849-49.193-4.906-79.341s62.337-43.5 87.986-29.822 27.84 49.186 4.9 79.335"/>
  <path fill="#324958" d="M309.495 132.598a1.082 1.082 0 0 1-.471-.108c-10.257-4.935-10.8-12.005-13.8-22.985a40.4 40.4 0 0 1 4.625-31.559c-5.6-2.489-9.935-4.428-14.269-6.366-4.628-2.07-9.256-4.141-15.428-6.881a1.089 1.089 0 1 1 .883-1.99c6.175 2.741 10.8 4.813 15.433 6.884s9.254 4.14 15.426 6.88a1.088 1.088 0 0 1 .463 1.6 38.157 38.157 0 0 0-5.034 30.859c2.831 10.38 2.944 16.932 12.639 21.6a1.089 1.089 0 0 1-.473 2.07"/>
  <path fill="#fff" d="M124.095 278.392q-.169 0-.339-.012l-66.31-4.711a4.718 4.718 0 0 1 .669-9.411l66.31 4.711a4.718 4.718 0 0 1-.329 9.424m7.336-30.854a4.712 4.712 0 0 1-1.6-.281l-57-20.576a4.717 4.717 0 1 1 3.2-8.874l57 20.575a4.718 4.718 0 0 1-1.6 9.156m12.257-31.268a4.7 4.7 0 0 1-2.226-.561l-54.06-28.99a4.718 4.718 0 1 1 4.459-8.315l54.06 28.99a4.718 4.718 0 0 1-2.233 8.876"/>
  <path fill="#fff" d="M31.623 341.252a4.719 4.719 0 0 1-4.134-6.988c2.582-5.869 39.213-107.767 63.371-175.293a4.718 4.718 0 0 1 8.884 3.178c-.156.436-15.784 44.115-31.366 87.42-9.153 25.437-16.5 45.77-21.835 60.435-10.327 28.381-10.548 28.648-11.282 29.536a4.708 4.708 0 0 1-3.638 1.711m-3.633-7.724v.006-.006m83.294-4.731a4.72 4.72 0 0 1-4.42-6.358c1.816-6.939 23.9-126.167 38.409-205.2a4.718 4.718 0 1 1 9.28 1.7c-.094.511-9.493 51.7-18.9 102.428-5.528 29.794-9.979 53.6-13.229 70.754-6.313 33.321-6.461 33.53-7.286 34.689a4.713 4.713 0 0 1-3.849 1.983m-3.845-7.453"/>
  <path fill="#324958" d="M221.304 305.358s34.548 21.556 36.089 70.881a3.262 3.262 0 0 1-3.19 3.419 3.173 3.173 0 0 1-2.907-1.957c-3.019-7.044-14.119-30.69-27.072-30.69H206.88Z"/>
  <path fill="#f4f4f6" d="M204.966 337.349h-45.34c-23.849-19.966-39.149-47.546-48.961-74.886a293.951 293.951 0 0 1-12.621-48.49c-5.139-29.284-4.935-51.024-4.935-51.024l159.932-7.752c12.44 134.563-48.075 182.152-48.075 182.152"/>
  <path fill="#1b6964" d="M185.423 35.933 161.836 31.4a25.175 25.175 0 0 0-29.237 18.863c-3.9 16.306-8.073 38.266-7.539 55.993.978 32.511 62.589-16.347 62.589-16.347Z"/>
  <path fill="#fff" d="M266.246 103.056a35.521 35.521 0 0 0-1.683-12.174c-1-2.763-2.518-5.279-3.715-7.95a11.723 11.723 0 0 0-2.181-3.212c-4.077-.826-8.556-1.025-12.4.693-3.643 1.633-6.416 4.493-8.92 7.534a32.794 32.794 0 0 0-6.546-2.475c-.145-.036-.283-.073-.421-.1a.759.759 0 0 0-.269-.348 13.392 13.392 0 0 0-4.159-2.105c-2.5-1.262-5-2.526-7.454-3.875-2.954-1.626-5.915-4.391-9.493-4.035-3.273.333-6.772 1.938-9.733 3.316-.116.051-.247.109-.384.174-2.867-5.661-9.4-8.608-14.828-11.184-7.577-3.592-15.387-6.416-23.762-7.367-8.782-1-17.76-1-26.592-1.241a5.085 5.085 0 0 0-2.83.348c-10.553-.464-22.078 4.246-30.635 9.551a75.468 75.468 0 0 0-15.175 12.826c-2.475 2.642-4.892 5.342-7.323 8.02-1.517 1.669-3.375 3.15-3.578 5.523-.5 5.864 1.023 13.013 2.489 18.667a38.959 38.959 0 0 0 7.338 15.14c1.662 2.032 2.721 3.251 3.179 6.017a5.167 5.167 0 0 0 .254 1.786c1.212 2.156 5.726 3.338 7.816 4.405 1.786.9 3.419 2.163 5.48 1.749a24.7 24.7 0 0 0 8.252-3.8c2.49-1.8 9.254-12.839 10.611-15.5l-2.518-1.256c.566-7.729-1.161-15.959-2.315-23.653a74.593 74.593 0 0 1 10.211 3.411 77.333 77.333 0 0 0-.806 4.166c-1.6 9.965.6 19.778 2.911 29.445a.591.591 0 0 0 .232.363c-.326.791.849 1.459 1.278.66 4-7.483 15.212-4.507 22.506-7.911 8.39-3.919 35.614 4.529 41.514-2.678 24.111-29.423 31.18 10.923 69.951-13.144a.759.759 0 0 0 1.3-.225c1.06-3.113 1.328-6.452 2.381-9.551l.019-.008"/>
  <path fill="#4dd1c8" d="M253.043 155.194c0-17.143-35.8-29.3-79.967-27.164s-79.967 17.774-79.967 34.917 35.8 29.3 79.967 27.164 79.967-17.774 79.967-34.917"/>
  <path fill="#324958" d="M183.087 132.14c18.657 0 35.772 2.654 48.192 7.474 11.064 4.294 17.409 9.972 17.409 15.58 0 12.719-31.139 28.4-75.823 30.567-3.275.159-6.573.239-9.8.239-18.657 0-35.772-2.655-48.192-7.474-11.064-4.293-17.41-9.972-17.41-15.579 0-12.719 31.14-28.4 75.823-30.567 3.276-.159 6.572-.239 9.8-.239m0-4.355q-4.92 0-10.01.244c-44.165 2.141-79.967 17.774-79.967 34.917 0 15.827 30.518 27.408 69.956 27.408q4.92 0 10.011-.245c44.164-2.141 79.967-17.774 79.967-34.916 0-15.827-30.518-27.409-69.956-27.409"/>
  <path fill="#fff" d="M131.604 324.884c0-2.218-9.341-4.016-20.864-4.016s-20.864 1.8-20.864 4.016 9.341 4.016 20.864 4.016 20.864-1.8 20.864-4.016"/>
  <path fill="#f36f12" d="M182.285 125.267c4.741-8.211 2.948-18.122-4.006-22.137s-16.433-.612-21.174 7.6-2.948 18.123 4.006 22.137 16.433.612 21.174-7.6"/>
  <path fill="#964308" d="M188.804 125.598a8.7 8.7 0 0 0 .9-.734 5.611 5.611 0 0 0 1.676-2.755q-8.014-2.244-15.931-4.63c-8.3-2.525-16.439-5.291-24.687-7.879-1.336-.419-2.426.54-3.109 1.6a5.06 5.06 0 0 0-.888 2.31c-.213 2.738 2.609 2.882 4.563 3.362q2.623.645 5.25 1.279 5.36 1.295 10.731 2.549 10.735 2.511 21.5 4.9"/>
  <path fill="#1b6964" d="M99.457 141.701a1.075 1.075 0 0 1-.316-.047c-.269-.082-6.674-2.08-13.225-8.919-6-6.263-13.241-17.96-13.674-38.117a1.093 1.093 0 0 1 .137-.552 78.594 78.594 0 0 1 17.444-20.037 70.464 70.464 0 0 1 53.221-16.3 1.087 1.087 0 0 1 .529.2c.168.123 16.737 12.52 7.368 31.629a1.089 1.089 0 0 1-1.955-.959c8.08-16.478-4.517-27.21-6.469-28.739a68.324 68.324 0 0 0-51.24 15.794 79.029 79.029 0 0 0-16.849 19.225c.482 19.2 7.312 30.309 12.973 36.259a33.455 33.455 0 0 0 12.036 8.318l12.225-4.755c7.921-14.979 1.943-35.492 1.881-35.7a1.089 1.089 0 0 1 1.329-1.362l16.019 4.364a1.089 1.089 0 0 1-.572 2.1l-14.2-3.868c1.355 5.6 4.529 22.564-2.734 35.855a1.088 1.088 0 0 1-.561.493l-12.975 5.046a1.079 1.079 0 0 1-.394.074"/>
  <path fill="#fff" d="m97.979 142.024-11.962-5.647a23.358 23.358 0 0 1 33.568-12.938l-7.274 14.062"/>
  <path fill="#1b6964" d="M97.978 143.112a1.087 1.087 0 0 1-.464-.1l-11.962-5.647a1.089 1.089 0 0 1-.567-1.331 24.446 24.446 0 0 1 35.132-13.54 1.088 1.088 0 0 1 .434 1.45l-7.274 14.062a1.089 1.089 0 1 1-1.934-1l6.779-13.1a22.266 22.266 0 0 0-30.744 11.906l11.066 5.224a1.089 1.089 0 0 1-.465 2.073"/>
  <path fill="#fff" d="M208.885 163.087c-1.887 4.435-7.018 3.193-10.734 1.982a.745.745 0 0 1-1.437.116c-2.068-6.031-.414-12.505 2.976-17.76 1.525-2.366 4.9-4.195 6.6-.9.813 1.575.632 3.694.98 5.378.334 1.64.951 3.208 1.393 4.812.552 2.017 1.082 4.348.218 6.372"/>
  <path fill="#1b6964" d="M121.287 140.614c-2.273 1.739-5.2 1.744-5.323 1.457a9.927 9.927 0 0 1 .726 2.315 6.078 6.078 0 0 1 .08 1.023 7.754 7.754 0 0 1-1.052 5.182 19.833 19.833 0 0 0-2.25 6.06c-.2 1.007.033 6.9-1.645 6.713-.761-.086-1.191-1.749-1.395-2.337-.132-.38-1.389-3.527-1.2-3.831-1.64 3.023-.838 6.541-1.124 6.81-1.182 1.112-3.419.369-4.629-1.126-3.245-4.008-3.178-10.414-2.673-12.841-.132.634-3.081-1.687-3.314-1.977a6.653 6.653 0 0 1-1.423-6.277c.953-2.98 4.007-4.972 6.7-6.248a9.87 9.87 0 0 1 9.519.249c2.445 1.447 3.212 1.076 6 1.264 1.081.073 4.23-2.422 5-1.663.6.6-.83 4.335-2 5.227m6.948.011a1.088 1.088 0 0 1-1-.654c-.281-.646-6.838-16.073-3.227-38.6a1.089 1.089 0 1 1 2.15.345c-3.5 21.856 3.008 37.23 3.074 37.383a1.089 1.089 0 0 1-1 1.522m108.139-30.297a1.087 1.087 0 0 1-.89-.461c-6.978-9.882-2.2-18.315-.067-21.233l-14.45-7.8a33.151 33.151 0 0 0-14.816 26.985 1.089 1.089 0 0 1-2.177-.039c.354-19.99 16.27-29.064 16.431-29.153a1.089 1.089 0 0 1 1.046-.006l16.151 8.723a1.089 1.089 0 0 1 .268 1.711c-.336.354-8.182 8.833-.606 19.562a1.089 1.089 0 0 1-.888 1.717"/>
  <path fill="#1b6964" d="M238.29 121.737a50.27 50.27 0 0 1-9.775-.983 56.163 56.163 0 0 1-16.983-6.279 1.089 1.089 0 0 1 1.139-1.855 55.068 55.068 0 0 0 16.341 6.013c12.559 2.481 23.78.152 33.356-6.92.793-2.15 5.676-16.879-3.531-30.532l-14.291 1.488-8.134 8.3a1.089 1.089 0 0 1-1.556-1.524l8.408-8.582a1.088 1.088 0 0 1 .665-.321l15.324-1.6a1.088 1.088 0 0 1 1 .457c11.131 15.842 4.314 32.7 4.018 33.412a1.093 1.093 0 0 1-.352.453 41.959 41.959 0 0 1-25.633 8.467"/>
  <path fill="#3e5463" d="M154.554 123.288s19.424 2.292 30.171-8.308c19.755-19.485 39.132-15.474 39.132-15.474s4.855 16.62-16.656 49.492l-7.418-1.211a144 144 0 0 1 6.127-26.892c4.5-12.863 2.333 6.945 2.333 6.945s-8.3 22.322-37.272 23.641-16.418-28.193-16.418-28.193"/>
  <path fill="#fff" d="M259.732 76.564c5.2 1.92 8.826 30.835 8.8 30.833a38.008 38.008 0 0 1-11.057-2.877c-8.3-3.493-18.743-12.086-21.18-20.206 4.463-2.393 17.537-9.926 23.436-7.749"/>
  <path fill="#1b6964" d="M268.532 108.486h-.075a39.184 39.184 0 0 1-11.403-2.965c-8.737-3.678-19.28-12.5-21.8-20.9a1.089 1.089 0 0 1 .528-1.273c.325-.174.7-.376 1.106-.6 5.612-3.051 17.292-9.4 23.222-7.212 1.638.6 4.151 3.015 7.043 16.907a152.158 152.158 0 0 1 2.444 15.177 1.089 1.089 0 0 1-1.064.86M237.62 84.829c2.757 7.445 12.479 15.4 20.28 18.68a39.025 39.025 0 0 0 9.379 2.644c-.338-2.493-1.161-8.049-2.318-13.553-2.74-13.029-4.983-14.791-5.6-15.021-5-1.848-16.513 4.41-21.428 7.082l-.308.167"/>
  <path fill="#1b6964" d="M265.259 75.758a48.405 48.405 0 0 1-.494 3.441c-1.086 6.182-6.232 6.917-11.6 5.935-3.1-.566-5.054-2.677-6.333-5.479a5.087 5.087 0 0 1 .759-5.863c-2.02.21-4.511.023-3.169-2.547 1.726-3.311 7.193-5.145 10.555-5.8H255c-.238-2.779-.283-6.3 1.205-8.37.787-1.086 2.637-2.145 3.594-.724.21.311.079.691.119 1.024a17.931 17.931 0 0 0 .435 3.453 14.727 14.727 0 0 0 1.443 3.288c.515.832 1.336 1.335 1.885 2.094 1.815 2.507 1.922 6.21 1.58 9.543"/>
  <path fill="#2c8e87" d="M220.925 80.66a1.081 1.081 0 0 1-.511-.128c-34.158-18.219-77.11-20.617-77.54-20.64a1.089 1.089 0 0 1 .112-2.174c.435.022 43.858 2.441 78.453 20.893a1.089 1.089 0 0 1-.513 2.049"/>
  <path fill="#1b6964" d="M186.771 101.026a33.2 33.2 0 0 1-7.3-.823 32.312 32.312 0 0 1-23.9-41.083 1.089 1.089 0 1 1 2.084.63 30.136 30.136 0 0 0 22.3 38.329c8.129 1.835 16.322.351 21.919-3.973 5.617-4.339 8.378-10.51 11.3-17.042l.257-.574a1.089 1.089 0 1 1 1.987.89l-.257.573c-3.039 6.789-5.908 13.2-11.957 17.876a26.857 26.857 0 0 1-16.426 5.2"/>
  <path fill="#f4f4f6" d="M183.975 96.881a1.044 1.044 0 0 1-.136-.008 29.052 29.052 0 0 1-23.637-18.261 1.089 1.089 0 1 1 2.02-.812 26.9 26.9 0 0 0 21.886 16.913 1.089 1.089 0 0 1-.133 2.169"/>
  <path fill="#3e5463" d="M202.896 174.594a6.389 6.389 0 0 1-3.675-1.15c-4.7-3.342-4.061-11.48-3.752-13.895.583-4.557 2.289-8.838 3.939-12.978.31-.778.62-1.554.921-2.33a1.089 1.089 0 0 1 2.03.788c-.3.782-.616 1.565-.928 2.348-1.6 4.014-3.255 8.165-3.8 12.448-.556 4.35-.1 9.746 2.853 11.844a4.206 4.206 0 0 0 3.254.661c3.944-.832 5.135-6.742 4.959-10.272a42.159 42.159 0 0 0-1.384-7.8 44.555 44.555 0 0 1-1.44-8.172 1.089 1.089 0 0 1 2.174-.111 42.293 42.293 0 0 0 1.382 7.772 44.408 44.408 0 0 1 1.442 8.208c.22 4.415-1.378 11.391-6.683 12.511a6.237 6.237 0 0 1-1.29.133"/>
  <path fill="#3e5463" d="M209.568 163.29c-1.1-1.364-4.086-1.575-5.7-1.706a16.057 16.057 0 0 0-6.4.835 143.609 143.609 0 0 1 2.961-16.061c.225-.232.435-.465.624-.675.739-.843-.459-1.311-1.138-.809a24.045 24.045 0 0 0-4.2 3.719 16.283 16.283 0 0 0-1.221 1.6c-1.373 1.934-2.043 4.1-.061 5.551.006 0-1.268 2.827-1.346 3.177-.235 1.065-.223 2.471.783 3.157a.54.54 0 0 1-.12.27c-1.384 1.691-2.377 6.376.51 7.214-.442-.128-.725 2.412-.7 2.69.214 2.423 2.655 3.9 4.873 4.147a11.233 11.233 0 0 0 9.725-4.155c1.43-1.967 3.136-6.844 1.415-8.956"/>
  <path fill="#2c8e87" d="M185.013 92.543s22.484 5.464 30.717-15.61c8.811-22.554.087-38.686.087-38.686s-9.908-18.8-29.853-16.15c-17.908 2.375-29.293 13.677-29.984 31.044s7.6 33.382 29.033 39.4"/>
  <path fill="#9ee6e1" d="M157.989 54.053c-.737 19.707 16.423 41.027 37.51 36.443 27.108-5.894 24.776-45.61 1.933-55.521-13.035-5.655-28.154-7.345-36.2 6.894a26.72 26.72 0 0 0-3.244 12.184"/>
  <path fill="#fff" d="M180.071 41.166c2.6 3.544 5.272 7.019 8.178 10.294 4.916-4.441 9.946-8.735 15.009-13a26.476 26.476 0 0 0-5.826-3.482 54.472 54.472 0 0 0-9.937-3.291c-3.043 2.371-5.964 4.944-8.846 7.513q.707.99 1.422 1.965m-6.989 1.336c-.106.089-.212.184-.318.272q-2.924 2.438-5.778 4.955c.665 1.67 1.343 3.31 2 4.906a115.947 115.947 0 0 0 5.253 11.07q3.06-3.2 6.195-6.328c.183-.181.371-.356.554-.537a153.386 153.386 0 0 1-7.906-14.338"/>
  <path fill="#324958" d="M184.834 79.523c-.13 0-.258 0-.387-.008-5.169-.235-8.783-5.178-9.558-9.711-.8-4.691.557-9.38 1.758-13.516a1.088 1.088 0 0 1 .982-.783c.382-.023 9.4-.661 10.182-8.268a1.089 1.089 0 0 1 2.017-.447c.054.089 5.235 8.523 14.323 8.867a1.011 1.011 0 0 1 .144 0q.679.019 1.386-.024c1.523-.1 4.071-.5 4.02-2.128-.08-2.567-5.3-6.823-10.707-6.823a1.089 1.089 0 0 1 0-2.177c6.493 0 12.761 5.032 12.883 8.933.037 1.2-.479 4.02-6.061 4.369q-.386.025-.763.032a32.745 32.745 0 0 1-12.328 18.471c-2.85 2.157-5.436 3.21-7.892 3.21m-6.3-21.914c-1.076 3.732-2.171 7.884-1.5 11.828.632 3.694 3.479 7.719 7.511 7.9 2.046.092 4.289-.811 6.867-2.762a30.63 30.63 0 0 0 11.42-16.828c-6.692-.709-11.232-5.126-13.4-7.8-1.836 5.223-7.375 7.24-10.9 7.661"/>
  <path fill="#324958" d="M175.736 66.584a1.082 1.082 0 0 1-.337-.054l-13.686-4.459a1.089 1.089 0 0 1 .674-2.07l13.686 4.459a1.089 1.089 0 0 1-.337 2.124m32.073 14.077a1.086 1.086 0 0 1-.5-.124l-12.386-6.483a1.089 1.089 0 1 1 1.01-1.929l12.386 6.483a1.089 1.089 0 0 1-.506 2.054"/>
  <path fill="#324958" d="M187.191 86.761a20.934 20.934 0 0 1-6.831-1.223c-15.3-5.267-13.214-22.454-13.191-22.626a1.089 1.089 0 1 1 2.159.285c-.085.653-1.853 15.6 11.741 20.283 13.515 4.652 19.245-6.83 19.482-7.321a1.088 1.088 0 0 1 1.963.941c-.055.115-4.768 9.661-15.323 9.661m7.677-23.444c-.04-1.45-.358-2.816-.977-3.239-.01-.007-.015-.018-.026-.025-3.53-2.155-2.944 10.025.081 7.282.65-.59.968-2.358.923-4.018m-4.036-8.451c-.7-.5-1.46.082-1.917.622a2.222 2.222 0 0 0-.566 2.1c0 .013.013.02.017.032a.694.694 0 0 0 1.061.564c.8-.512 2.719-2.383 1.406-3.318m7.992 3.7c-.7-.5-1.46.082-1.917.622a2.222 2.222 0 0 0-.566 2.1c0 .013.013.02.017.032a.694.694 0 0 0 1.061.564c.8-.512 2.719-2.383 1.405-3.318"/>
  <path fill="#324958" d="m182.851 65.57 8.635 4.168-.329-1.1a4.385 4.385 0 0 1-2.258 1.568 4.174 4.174 0 0 1-1.303.18 4.508 4.508 0 0 1-.705-.077c-.028-.005.07.03-.054-.017-.07-.027-.14-.047-.21-.08a1.206 1.206 0 0 1-.299-.158 4.632 4.632 0 0 1-.405-.287 4.903 4.903 0 0 1-.712-.685 6.624 6.624 0 0 1-1.207-1.922 3.78 3.78 0 0 1-.287-1.077 1.901 1.901 0 0 1-.017-.442 3.27 3.27 0 0 1 .037-.303s.024-.12.01-.056.04-.128.038-.127c.289-.887-1.066-1.411-1.357-.52-.588 1.806.352 3.785 1.486 5.168a6.364 6.364 0 0 0 2.005 1.68 4.554 4.554 0 0 0 2.997.21 5.92 5.92 0 0 0 3.416-2.208.736.736 0 0 0-.33-1.101l-8.635-4.168a.732.732 0 0 0-.939.418.741.741 0 0 0 .418.939m20.365-18.069s-2.488-8.2-8.649-8.834c-6.776-.7-15.544 3.19-18.16 18.41 0 0 7.549-.254 9.545-3.938 4.34-8.012 8.237-7.546 17.264-5.639"/>
  <path fill="#1b6964" d="m237.353 87.947-4.082 7.844s8.531 11.055 27.214 10.45c0 0-15.04-4.676-23.132-18.294m-121.208 32.946s-17.2-13.112-35.562 2.864l6.786 8.9s2.858-11.678 28.776-11.767m-16.72-19.552a1.089 1.089 0 0 1-.774-1.854c3.71-3.751 11.012-3.753 16.309-1.816a1.089 1.089 0 1 1-.748 2.045c-4.529-1.656-10.98-1.763-14.013 1.3a1.087 1.087 0 0 1-.774.323m36.585-26.43c-5.291 4.711-14.886 4.841-20.489.552a9.123 9.123 0 0 1-1.553-13 .67.67 0 0 1 .2-.334c.145-.138.3-.269.457-.392a10.671 10.671 0 0 1 .9-.813.793.793 0 0 1 .6-.153c2.939-1.488 6.8-1.619 9.892-2.061 3.324-.486 7.722-1.749 10.756.261 5.5 3.651 3.418 12.208-.762 15.938"/>
  <path fill="#324958" d="M197.711 282.239a35.439 35.439 0 0 1-3.623-.186c-18.415-1.894-32.079-18.12-31.783-37.744.31-20.617 15.863-38.486 35.408-40.679a37.17 37.17 0 0 1 4.125-.232 34.257 34.257 0 0 1 25.47 11.122c7.13 7.734 10.549 18.237 9.626 29.573-1.74 21.391-18.969 38.146-39.221 38.146Z"/>
  <path fill="#324958" d="M201.842 204.488a33.178 33.178 0 0 1 24.667 10.773c6.922 7.508 10.24 17.717 9.342 28.747a41.2 41.2 0 0 1-12.685 26.718 37.122 37.122 0 0 1-25.454 10.427 34.433 34.433 0 0 1-3.512-.18 33.317 33.317 0 0 1-22.226-11.953 37.58 37.58 0 0 1-8.579-24.691c.3-20.08 15.43-37.48 34.441-39.613a36.069 36.069 0 0 1 4-.225m0-2.177a38.009 38.009 0 0 0-4.248.239c-20.656 2.318-36.066 21.209-36.376 41.744-.3 19.832 13.608 36.873 32.761 38.843a36.493 36.493 0 0 0 3.735.191c19.973 0 38.453-16.34 40.309-39.146 1.93-23.717-14.929-41.872-36.181-41.872"/>
  <path fill="#9ee6e1" d="M238.09 244.06c1.693-20.8-14.745-36.454-34.6-34.438-17.806 1.808-31.212 17.425-31.531 34.534-.309 16.57 11.773 30.776 28.385 32.327 18.4 1.718 36.12-12.417 37.749-32.423"/>
  <path fill="#fff" d="M195.312 227.699q11.449-6.605 22.891-13.223-1.55-2.027-3.172-3.99a32.649 32.649 0 0 0-11.544-.863 33.993 33.993 0 0 0-14.944 5.243 125.651 125.651 0 0 1 6.041 11.3c.249.508.485 1.024.727 1.535m10.916 32.872c5.678-7.209 11.869-14.054 17.853-20.976q2.982-3.449 6-6.869a94.784 94.784 0 0 0-3.541-6.177 160.728 160.728 0 0 0-2.974-4.568q-12.031 7.88-23.745 16.223a138.116 138.116 0 0 1 4.731 14.847c.64 2.493 1.193 5 1.677 7.519"/>
  <path fill="#2c8e87" d="M183.229 377.727a32.859 32.859 0 0 1-10.779-1.8c-8.6-2.977-11.564-10.192-14.075-17.954a80.182 80.182 0 0 0-6.175-12.41l.085.1-28.07-54.95c8.014 3.389 32.024 12.435 59.915 12.436h.006c18.951 0 36.181-4.106 51.272-12.212l-22.546 55.3-8.815 21.067a1.351 1.351 0 0 0-.033.089 10.952 10.952 0 0 1-4.812 6.159 32.031 32.031 0 0 1-15.974 4.174"/>
  <path fill="#2c8e87" d="M126.532 292.855a161.594 161.594 0 0 0 12.972 4.5 158.415 158.415 0 0 0 44.628 6.886c18.042 0 34.545-3.688 49.154-10.975l-21.423 52.542-8.818 21.077q-.037.088-.066.178a9.85 9.85 0 0 1-4.318 5.546 30.937 30.937 0 0 1-15.431 4.03 31.772 31.772 0 0 1-10.423-1.737c-7.358-2.547-10.483-8.258-13.395-17.26a59.364 59.364 0 0 0-3.6-7.894c-1.415-2.687-2.143-3.961-2.567-4.6Zm111.058-4.38c-17.591 10.192-36.31 13.587-53.458 13.587-34.29 0-62.282-13.587-62.282-13.587l29.466 57.685c.109.08 4.725 8.136 6.024 12.149 2.692 8.323 5.962 15.6 14.754 18.648a34.1 34.1 0 0 0 11.132 1.854 33.181 33.181 0 0 0 16.517-4.32 12.064 12.064 0 0 0 5.306-6.772l8.818-21.076Z"/>
  <path fill="#324958" d="M140.613 308.223c-9.763 7.528-33.833 30.168-35.167 71.195a3.466 3.466 0 0 0 6.627 1.527c3.282-7.36 15.348-32.067 29.428-32.067h13.616a3.68 3.68 0 0 0 3.463-4.928l-12.267-34.052a3.676 3.676 0 0 0-5.7-1.677m56.017 5.714c8.015 7.587 27.836 32.385 9.988 80.2a1.908 1.908 0 0 1-1.786 1.236 1.944 1.944 0 0 1-1.942-1.851l-.87-28.356c0-7.512-7.874-12.033-11.029-13.543a2.037 2.037 0 0 1-1.141-2.037l3.348-34.356a2.043 2.043 0 0 1 3.432-1.3"/>
  <path fill="#fff" d="M112.1 218.82c-.486-.108-.962-.22-1.426-.338-3.43-.87-12.629-4.509-12.629-4.509a315.653 315.653 0 0 0 4.5 21.416c3.008-5.615 6.281-11.093 9.559-16.568m-12.487.482c-.49-1.492 1.936-1.625 2.758-1.019.908.669.478 1.576-.3 2.009a1.612 1.612 0 0 1-2.456-.99m19.154.677a92.99 92.99 0 0 1-4.651-.746c-3.753 6.252-7.517 12.5-10.881 18.957q.736 2.865 1.545 5.766c4.349-8.165 9.155-16.08 13.987-23.978m15.366 19.328c-1.064-6.23-2.264-12.608-3.534-18.222 0 0-4.414-.205-9.7-.833-5.32 8.693-10.629 17.4-15.343 26.427 1.51 5.214 3.2 10.493 5.1 15.783 0 0 3.168 1.187 6.3 2.233 5.583-8.554 11.873-16.65 17.176-25.388m-8.594-14.64a1.937 1.937 0 0 1 3.019.6 2.181 2.181 0 0 1-1.213 3.055 1.823 1.823 0 0 1-1.71-.262 2.308 2.308 0 0 1-.1-3.4m-13.084 36.781c-1.177.128-1.98-1.765-1.642-2.7a1.011 1.011 0 0 1 .942-.72 2.064 2.064 0 0 1 1.79 2.621 1.212 1.212 0 0 1-1.09.8m22.173-19.202c-4.96 7.881-10.636 15.3-15.741 23.081 1.159.363 2.21.662 2.961.819 8.3 1.732 16.69 2.821 16.69 2.821s-1.57-12.589-3.91-26.721m-.355 23.023c-1.1.432-2.509-.817-2.52-1.967-.036-3.535 5.532-1.41 3.086 1.545a1.4 1.4 0 0 1-.565.423"/>
  <path fill="#9ee6e1" d="M198.382 16.044a14.527 14.527 0 0 1 3.374 12.076l7.3 7c2.691-7.626.643-16-3.992-22.416a20.713 20.713 0 0 0-6.68 3.337m-46.886 1.982a29.557 29.557 0 0 1 12.247-8.308 24.945 24.945 0 0 1 .043-7.652 40.05 40.05 0 0 0-2.045.7 39.034 39.034 0 0 0-13.845 8.928 28.467 28.467 0 0 0 3.6 6.332m-4.907 9.047a24.029 24.029 0 0 1 3.682-7.5 29.144 29.144 0 0 1-3.841-6.326 35.219 35.219 0 0 0-5.107 7.454 33.313 33.313 0 0 0-2.394 6.224 29.7 29.7 0 0 0 7.661.148m-.495 2.028a31.405 31.405 0 0 1-7.643-.246 32.1 32.1 0 0 0 1.528 18.78l5.7-11.108a27.122 27.122 0 0 1 .42-7.426M168.85.806a42.256 42.256 0 0 0-3.023.675 22.4 22.4 0 0 0-.2 7.6 36.057 36.057 0 0 1 8.147-1.498 37.452 37.452 0 0 1 10.7.9 19 19 0 0 1 3.826-7.107 44.263 44.263 0 0 0-19.45-.57m32.51 7.701a30.475 30.475 0 0 0-11-6.492 17.1 17.1 0 0 0-4 6.963 26.426 26.426 0 0 1 10.7 5.681 23.4 23.4 0 0 1 6.734-3.585 28.342 28.342 0 0 0-2.433-2.567"/>
  <path fill="#f4f4f6" d="M261.065 145.795c-1.489-2.809-5.216-3.75-8.326-2.1s-4.424 5.261-2.935 8.07 5.217 3.75 8.326 2.1 4.424-5.261 2.935-8.07"/>
  <path fill="#f4f4f6" d="M261.366 146.48s-6.7-16.814-32.113-21.976a5.054 5.054 0 0 0-5.473 3.291c-.817 1.911-.862 5.272 1.491 6.132 6.338 2.314 24.263 9.514 24.156 16.908Z"/>
  <path fill="#324958" d="M244.3 145.986a1.12 1.12 0 0 1-.121-.006 1.089 1.089 0 0 1-.962-1.2c.575-5.181 5.027-9.733 10.587-10.824a1.089 1.089 0 0 1 .419 2.137c-4.651.912-8.37 4.667-8.842 8.927a1.089 1.089 0 0 1-1.081.969m-12.046-6.483a1.089 1.089 0 0 1-1.075-.925 10.7 10.7 0 0 1 3.517-9.639 20.529 20.529 0 0 1 5.3-3.2 1.089 1.089 0 1 1 .885 1.989 18.53 18.53 0 0 0-4.741 2.838 8.529 8.529 0 0 0-2.809 7.682 1.089 1.089 0 0 1-.912 1.24 1.1 1.1 0 0 1-.165.012m24.988 7.442a3.342 3.342 0 0 0-1.263-.262c-2.6-.052-4.547 3.086-2.065 4.895a3.054 3.054 0 0 0 4.48-.946 2.5 2.5 0 0 0-1.152-3.687m49.651-75.278a4.288 4.288 0 0 1-1.781-.385l-36.63-16.685a4.318 4.318 0 0 1-1.7-6.472l.881.64-.881-.64a74.3 74.3 0 0 1 23.477-20.7c15.152-8.461 32.5-11.134 51.569-7.947a4.311 4.311 0 0 1 2.188 1.059c2.693 2.44 11.734 11.367 15 23.817a4.337 4.337 0 0 1-.68 3.652 4.283 4.283 0 0 1-3.212 1.772 71.58 71.58 0 0 0-45.191 20.65 4.313 4.313 0 0 1-3.035 1.241m19.982-51.291a71.849 71.849 0 0 0-58.331 29.029 2.14 2.14 0 0 0 .84 3.211l36.627 16.683a2.137 2.137 0 0 0 2.38-.42 73.8 73.8 0 0 1 46.588-21.277 2.111 2.111 0 0 0 1.584-.874 2.167 2.167 0 0 0 .339-1.825c-3.111-11.869-11.772-20.417-14.352-22.756a2.14 2.14 0 0 0-1.085-.525 88.41 88.41 0 0 0-14.594-1.248"/>
  <path fill="#324958" d="M299.774 49.822a22.322 22.322 0 0 1 7.541 3.561l-.147-1.14-5.055 4.328h1.027l-4.075-5.152a.73.73 0 0 0-1.026 0 .743.743 0 0 0 0 1.026l4.075 5.152a.738.738 0 0 0 1.027 0l5.058-4.327a.735.735 0 0 0-.147-1.14 23.437 23.437 0 0 0-7.888-3.708.726.726 0 0 0-.386 1.4"/>
  <path fill="#324958" d="M304.523 49.257c-.457-.486-.922-1.016-1.415-1.517a1.431 1.431 0 0 0-1.313-.334c-.523.16-1.8 1.785-2.192 2.177q-2.558 2.548-5.124 5.088a.645.645 0 0 1-.472.2.592.592 0 0 1-.588-.08c-.806-.537-1.6-1.074-2.409-1.619a.742.742 0 0 1-.145-1.14 83.811 83.811 0 0 1 8.767-8.223.735.735 0 0 1 .878-.116 41.975 41.975 0 0 1 4.231 3.7c.276.269.544.544.813.842.624.69-.384 1.713-1.031 1.024m-19.607 2.974c-1.6.247-3.528.022-4.566-1.379-2.016-2.722 1.12-6.654 4.088-6.556 4.835.159 5.072 7.229.478 7.935m12.023-11.546a4.006 4.006 0 0 0-4.227-3.752c-1.833-.167-3.105 1.365-3.741 3.216a3.593 3.593 0 0 0 3.672 4.637c1.976-.152 4.481-1.948 4.3-4.1m-3.508 2.385c-1.554.695-3.607-.433-3.139-2.315.239-.963.924-2.229 1.937-2.4a.682.682 0 0 0 .455.048c.054-.013.1-.009.156-.018a1.793 1.793 0 0 1 .243.082.747.747 0 0 0 .642-.023 2.77 2.77 0 0 1 1.709 2.036c.305 1.321-.957 2.12-2 2.587m23.342.505a27.217 27.217 0 0 1-3.542 3.31 1.229 1.229 0 0 1-1.183.269c-.871-.254-1.567-1.6-2.112-2.242-.094-.109-.188-.218-.283-.334a58.178 58.178 0 0 0-3.3-3.346.729.729 0 0 1 0-1.023c.9-.965 3.338-3.985 4.877-3.651.863.189 1.764 1.691 2.351 2.337q1.622 1.807 3.194 3.658a.736.736 0 0 1 0 1.023m10.709-17.931-1.19-2.06a.755.755 0 0 0-.819-.333 70.251 70.251 0 0 0-28.226 10.339.731.731 0 0 0-.261.993q1.121 1.481 2.2 2.987a.788.788 0 0 0 1.274-.017.707.707 0 0 0 .2-.066 114.4 114.4 0 0 1 26.382-10.776.734.734 0 0 0 .433-1.066m-27.5 10.565q-.652-.9-1.317-1.786a68.852 68.852 0 0 1 13.778-6.63 67.212 67.212 0 0 1 7.24-2.056c2.012-.452 4.42-1.459 5.932-.125a115.893 115.893 0 0 0-25.634 10.6"/>
  <path fill="#9ee6e1" d="M346.688 39.496a114.311 114.311 0 0 0-18.718 8.543.734.734 0 0 1-.878-.109 103.709 103.709 0 0 1-7.977-9.413.725.725 0 0 1 .262-.994 93.422 93.422 0 0 1 19.683-7.991.666.666 0 0 1 .377.007 1.851 1.851 0 0 1 1.423.174c1.081.537 1.7 2.228 2.257 3.136a50.411 50.411 0 0 0 3.89 5.436.736.736 0 0 1-.319 1.212"/>
  <path fill="#324958" d="M327.587 49.699a1.088 1.088 0 0 1-.818-.37l-9.521-10.832a1.089 1.089 0 0 1 .419-1.732l22.59-8.889a1.09 1.09 0 0 1 1.286.382l7.258 10.2a1.089 1.089 0 0 1-.426 1.617l-20.326 9.517a1.084 1.084 0 0 1-.461.1m-7.683-11.469 7.959 9.054 18.4-8.617-6.008-8.446Z"/>
  <path fill="#324958" d="m324.764 38.715 3.757 5.717a.75.75 0 0 0 .993.26l10.678-4.864c.849-.386.112-1.638-.733-1.253l-10.677 4.863.993.261-3.757-5.717c-.511-.777-1.769-.051-1.254.733"/>
  <path fill="#324958" d="m330.629 40.321.76-1.67a8.27 8.27 0 0 1 .716-1.523c.217-.291.538-.048.781.121a6.373 6.373 0 0 0 1.342.875 2.078 2.078 0 0 0 2.528-1.238c.608-1.053 1.186-2.126 1.778-3.188.455-.817-.8-1.55-1.253-.733-.592 1.062-1.168 2.136-1.778 3.188-.143.246-.346.68-.687.638-.435-.053-.853-.562-1.2-.8a1.854 1.854 0 0 0-2.767.4 12.8 12.8 0 0 0-.716 1.523l-.76 1.67a.748.748 0 0 0 .26.993.732.732 0 0 0 .993-.261m-21.084 24.892c2.453-2.319 9.8-9.212 13.508-12.074a.661.661 0 0 0 .172-.842c-.617-1.124-1.241-2.245-1.824-3.386a.655.655 0 0 0-.892-.29 75.272 75.272 0 0 0-18.025 13.664.665.665 0 0 0 .2 1.043l5.008 2.2a1.7 1.7 0 0 0 1.857-.32"/>
  <path fill="#fff" d="M52.488 339.807c0-3.6-9.341-6.512-20.864-6.512s-20.864 2.916-20.864 6.512 9.341 6.512 20.864 6.512 20.864-2.915 20.864-6.512"/>
  <path fill="#324958" d="M311.439 119.087a1.089 1.089 0 0 1-1-.659c-4.225-9.828-7.621-24.324.189-37.569 7.586-12.864 21.148-19.284 31.19-22.4a1.089 1.089 0 0 1 .646 2.079c-9.675 3.006-22.727 9.164-29.96 21.431-7.347 12.458-4.09 26.238-.064 35.6a1.089 1.089 0 0 1-1 1.519m-14.491-32.321a1.076 1.076 0 0 1-.269-.034l-22.152-5.647a1.089 1.089 0 0 1 .538-2.11l22.152 5.648a1.089 1.089 0 0 1-.269 2.144"/>
  <path fill="#964308" d="M56.93 97.959a25.121 25.121 0 0 1-6.744 5.4c-8.707 4.825-22.326 4.465-29.344-3.309a20.033 20.033 0 0 1-4.785-14.334 28.158 28.158 0 0 1 6.566-16.345c19.244-22.787 54.468 5.571 34.306 28.583"/>
  <path fill="#f36f12" d="M42.321 77.491c1.892.818 5.378-.577 7.2-1.157a69.967 69.967 0 0 0 7.964-3.167c.719-.33 1.418-.68 2.108-1.038a24.723 24.723 0 0 0-9.5-8.556c-5.21 5.007-11.636 12.248-7.775 13.918m8.179 12.339c-4.916-3.213-14.907 4.483-18.647 7.083-2.6 1.81-5.316 3.743-7.876 5.848 5.49 3.742 13.049 4.555 19.674 3.04 6.343-6.446 11.026-13.24 6.849-15.97M29.683 67.705c3.03-2.152 6.014-4.427 9.014-6.687-5.616.246-11.33 2.739-16.074 8.356a28.115 28.115 0 0 0-3.368 5.022c3.5-2.28 7.166-4.375 10.428-6.691"/>
  <path fill="#f36f12" d="M58.952 88.116a1.163 1.163 0 0 1-1.113-.847c-.489-1.914.512-3.79 2.11-5.292a13.724 13.724 0 0 1 2.666-2.379 20.787 20.787 0 0 0-1.928-5.567 65.162 65.162 0 0 1-6.824 3.185c-3.439 1.358-10.645 4.623-14.1 1.588-4.2-3.69 2.248-11.119 7.849-16.328a23.073 23.073 0 0 0-5.256-1.3c-3.413 2.544-6.782 5.152-10.208 7.6-3.481 2.488-6.964 5.007-10.577 7.3-1.4.886-2.8 1.734-4.159 2.636a26.279 26.279 0 0 0-1.353 7.007c-.006.134 0 .269 0 .4a31.778 31.778 0 0 1 6.378-3.088c2.464-.849 7.031-1.451 6.981 2.487-.042 3.343-4.557 5.941-6.966 7.483-1.466.939-2.983 1.775-4.513 2.584a17.753 17.753 0 0 0 2.906 4.464 17.08 17.08 0 0 0 1.269 1.251c2.891-2.41 5.992-4.608 8.958-6.65 4.768-3.282 11-7.635 17.071-7.646 4.472-.008 6.84 3.508 5.7 7.722a25.326 25.326 0 0 1-5.662 9.6c.691-.3 1.366-.617 2.008-.973a25.12 25.12 0 0 0 6.744-5.4 23.572 23.572 0 0 0 5.655-10.927 11.04 11.04 0 0 1-3.634 1.084"/>
  <path fill="#4dd1c8" d="M11.182 92.204a27.6 27.6 0 0 0-9.178 6.547 8.043 8.043 0 0 0-1.734 2.384 4.056 4.056 0 0 0-.168 2.369 4.27 4.27 0 0 0 3.153 3.183 4.4 4.4 0 0 0 2.746-.336c.969-.416 1.933-.845 2.9-1.271q2.947-1.3 5.879-2.64 5.863-2.673 11.664-5.482 11.6-5.618 22.932-11.768t22.363-12.816q1.4-.848 2.8-1.7a5.717 5.717 0 0 0 2.378-2.07 3.2 3.2 0 0 0-1.767-4.586c-1.672-.585-3.542.032-5.181.418l-6.622 1.558-3.251.765c-1.818.428-1.048 3.228.772 2.8 3.963-.932 7.919-1.994 11.91-2.794a5.22 5.22 0 0 1 .218-.038c-.032 0-.188.021-.015 0 .15-.016.3-.027.45-.032s.3 0 .444 0a2.119 2.119 0 0 1 .217.018c-.155-.023-.072-.009.028.02s.359.146.151.034a.949.949 0 0 1 .165.1c.134.113-.028-.043-.048-.032l.043.046-.036-.039c-.052.055.054-.258-.009-.036 0 .016.049.3.053.166-.02.594-.981.957-1.465 1.253q-1.249.765-2.5 1.522-10.126 6.124-20.507 11.815t-20.99 10.933q-10.664 5.267-21.544 10.077c-.889.393-1.773.835-2.682 1.178a3.708 3.708 0 0 1-.329.106c-.241.066.027.029-.212.03-.086 0-.41-.047-.183 0-.093-.019-.42-.129-.353-.1a1.387 1.387 0 0 1-.374-.276c-.048-.048-.1-.1-.14-.15.019.022.112.16.02.023a2.488 2.488 0 0 1-.234-.416c.089.214-.009-.1-.031-.17s-.029-.272-.011-.022c0-.069-.009-.139-.007-.208s0-.14.008-.21c0 .035-.041.2 0 .035.02-.072.155-.43.081-.279a2.925 2.925 0 0 1 .524-.705q.434-.5.892-.976.881-.917 1.846-1.748a24.546 24.546 0 0 1 4.116-2.854c.741-.411 1.5-.783 2.28-1.121a1.462 1.462 0 0 0 .521-1.986 1.489 1.489 0 0 0-1.986-.521"/>
  <path fill="#324958" d="M238.801 380.278c-1.1-3.5 5.095-6.691 13.829-7.131s16.7 2.041 17.8 5.54-5.095 6.691-13.829 7.13-16.7-2.041-17.8-5.54m-112.149 3.675c.989-4.276-5.916-7.789-15.422-7.849s-18.013 3.359-19 7.635 5.916 7.789 15.422 7.848 18.013-3.359 19-7.634m96.561 11.37c-1.16-4.864-9.8-8.808-19.307-8.808s-16.266 3.944-15.106 8.808 9.8 8.808 19.307 8.808 16.266-3.944 15.106-8.808m-66.006-207.169c6.438 1.735 13.843.76 20.192-.9a87.732 87.732 0 0 0 6.1-25.853s-12.983-35.939-28.457-37.955-30.577 8.438-30.577 8.438c2.292 29.521 36.136 37.572 36.136 37.572a106.862 106.862 0 0 0-3.394 18.7"/>
</svg>