<svg xmlns="http://www.w3.org/2000/svg" xmlns:xlink="http://www.w3.org/1999/xlink" width="1000" height="326" viewBox="0 0 1000 326">
  <defs>
    <clipPath id="clip-Gallery_Radio_Button_states_-_no_illustrations">
      <rect width="1000" height="326"/>
    </clipPath>
  </defs>
  <g id="Gallery_Radio_Button_states_-_no_illustrations" data-name="Gallery Radio Button states - no illustrations" clip-path="url(#clip-Gallery_Radio_Button_states_-_no_illustrations)">
    <rect width="1000" height="326" fill="#f9f9fa"/>
    <g id="Gallery_checkbox-selected" data-name="Gallery checkbox-selected" transform="translate(374 198)">
      <g id="Content">
        <g id="BG">
          <g id="Front" fill="#fff" stroke="#4e92df" stroke-width="2">
            <rect width="150" height="98" rx="6" stroke="none"/>
            <rect x="-1" y="-1" width="152" height="100" rx="7" fill="none"/>
          </g>
        </g>
        <text id="Gallery_Radio_button" data-name="Gallery Radio button" transform="translate(30 30)" fill="#3d3d3d" font-size="14" font-family="OpenSans-Semibold, Open Sans" font-weight="600"><tspan x="0.208" y="15">Gallery Radio </tspan><tspan x="21.973" y="34">button</tspan></text>
      </g>
      <g id="Radio_-_selected" data-name="Radio - selected" transform="translate(7 7)">
        <g id="Ellipse_9" data-name="Ellipse 9" fill="#fff" stroke="#4e92df" stroke-width="2">
          <circle cx="10" cy="10" r="10" stroke="none"/>
          <circle cx="10" cy="10" r="11" fill="none"/>
        </g>
        <circle id="Ellipse_10" data-name="Ellipse 10" cx="8" cy="8" r="8" transform="translate(2 2)" fill="#4e92df"/>
      </g>
    </g>
    <g id="Gallery_checkbox-selected-2" data-name="Gallery checkbox-selected" transform="translate(553 194)">
      <g id="Content-2" data-name="Content" transform="translate(8 4)">
        <g id="BG-2" data-name="BG" transform="translate(-4)">
          <g id="Back" transform="translate(-4 -4)" fill="#fff" stroke="#2777d3" stroke-width="1">
            <rect width="158" height="106" rx="9" stroke="none"/>
            <rect x="0.5" y="0.5" width="157" height="105" rx="8.5" fill="none"/>
          </g>
          <g id="Front-2" data-name="Front" fill="#fff" stroke="#2777d3" stroke-width="2">
            <rect width="150" height="98" rx="6" stroke="none"/>
            <rect x="-1" y="-1" width="152" height="100" rx="7" fill="none"/>
          </g>
        </g>
        <text id="Gallery_Radio_button-2" data-name="Gallery Radio button" transform="translate(30 30)" fill="#3d3d3d" font-size="14" font-family="OpenSans-Semibold, Open Sans" font-weight="600"><tspan x="0.208" y="15">Gallery Radio </tspan><tspan x="21.973" y="34">button</tspan></text>
      </g>
      <g id="Radio_-_selected-2" data-name="Radio - selected" transform="translate(15 11)">
        <g id="Ellipse_9-2" data-name="Ellipse 9" fill="#fff" stroke="#2777d3" stroke-width="2">
          <circle cx="10" cy="10" r="10" stroke="none"/>
          <circle cx="10" cy="10" r="11" fill="none"/>
        </g>
        <circle id="Ellipse_10-2" data-name="Ellipse 10" cx="8" cy="8" r="8" transform="translate(2 2)" fill="#2777d3"/>
      </g>
    </g>
    <g id="Gallery_checkbox-selected-3" data-name="Gallery checkbox-selected" transform="translate(760 198)">
      <g id="Content-3" data-name="Content">
        <g id="BG-3" data-name="BG">
          <g id="Front-3" data-name="Front" fill="#fff" stroke="#a5c7ee" stroke-width="2">
            <rect width="150" height="98" rx="6" stroke="none"/>
            <rect x="-1" y="-1" width="152" height="100" rx="7" fill="none"/>
          </g>
        </g>
        <text id="Gallery_Radio_button-3" data-name="Gallery Radio button" transform="translate(30 30)" fill="#afafbb" font-size="14" font-family="OpenSans-Semibold, Open Sans" font-weight="600"><tspan x="0.208" y="15">Gallery Radio </tspan><tspan x="21.973" y="34">button</tspan></text>
      </g>
      <g id="Radio_-_selected-3" data-name="Radio - selected" transform="translate(7 7)">
        <g id="Ellipse_9-3" data-name="Ellipse 9" fill="#fff" stroke="#d0e2f6" stroke-width="2">
          <circle cx="10" cy="10" r="10" stroke="none"/>
          <circle cx="10" cy="10" r="11" fill="none"/>
        </g>
        <circle id="Ellipse_10-3" data-name="Ellipse 10" cx="8" cy="8" r="8" transform="translate(2 2)" fill="#d0e2f6"/>
      </g>
    </g>
    <g id="Gallery_checkbox-deselected" data-name="Gallery checkbox-deselected" transform="translate(374 70)">
      <g id="Content-4" data-name="Content">
        <g id="BG-4" data-name="BG" transform="translate(6 6)">
          <g id="Front-4" data-name="Front" transform="translate(-6 -6)" fill="#fff" stroke="#606071" stroke-width="1">
            <rect width="150" height="98" rx="6" stroke="none"/>
            <rect x="-0.5" y="-0.5" width="151" height="99" rx="6.5" fill="none"/>
          </g>
        </g>
        <text id="Gallery_Radio_button-4" data-name="Gallery Radio button" transform="translate(30 30)" fill="#3d3d3d" font-size="14" font-family="OpenSans-Semibold, Open Sans" font-weight="600"><tspan x="0.208" y="15">Gallery Radio </tspan><tspan x="21.973" y="34">button</tspan></text>
      </g>
      <g id="Radio_-_deselected" data-name="Radio - deselected" transform="translate(7 7)">
        <g id="Ellipse_8" data-name="Ellipse 8" fill="#fff" stroke="#606071" stroke-width="2">
          <circle cx="10" cy="10" r="10" stroke="none"/>
          <circle cx="10" cy="10" r="11" fill="none"/>
        </g>
      </g>
    </g>
    <g id="Gallery_checkbox-deselected-2" data-name="Gallery checkbox-deselected" transform="translate(554 67)">
      <g id="BG-5" data-name="BG" transform="translate(4 1)">
        <g id="BG-6" data-name="BG" transform="translate(4.938 8.083)">
          <g id="Back-2" data-name="Back" transform="translate(-8.938 -9.083)" fill="#fff" stroke="#2777d3" stroke-width="1">
            <rect width="156" height="104" rx="8" stroke="none"/>
            <rect x="0.5" y="0.5" width="155" height="103" rx="7.5" fill="none"/>
          </g>
          <g id="Front-5" data-name="Front" transform="translate(-5.938 -6.083)" fill="#fff" stroke="#c6c6c6" stroke-width="1">
            <rect width="150" height="98" rx="6" stroke="none"/>
            <rect x="-0.5" y="-0.5" width="151" height="99" rx="6.5" fill="none"/>
          </g>
        </g>
        <text id="Gallery_Radio_button-5" data-name="Gallery Radio button" transform="translate(32 32)" fill="#3d3d3d" font-size="14" font-family="OpenSans-Semibold, Open Sans" font-weight="600"><tspan x="0.208" y="15">Gallery Radio </tspan><tspan x="21.973" y="34">button</tspan></text>
      </g>
    </g>
    <g id="Gallery_checkbox-deselected-3" data-name="Gallery checkbox-deselected" transform="translate(760 70)">
      <g id="Content-5" data-name="Content">
        <g id="BG-7" data-name="BG" transform="translate(6 6)">
          <g id="Front-6" data-name="Front" transform="translate(-6 -6)" fill="#e6e6ea" stroke="#e6e6ea" stroke-width="1">
            <rect width="150" height="98" rx="6" stroke="none"/>
            <rect x="-0.5" y="-0.5" width="151" height="99" rx="6.5" fill="none"/>
          </g>
        </g>
        <text id="Gallery_Radio_button-6" data-name="Gallery Radio button" transform="translate(30 30)" fill="#afafbb" font-size="14" font-family="OpenSans-Semibold, Open Sans" font-weight="600"><tspan x="0.208" y="15">Gallery Radio </tspan><tspan x="21.973" y="34">button</tspan></text>
      </g>
    </g>
    <text id="flat_light" transform="translate(272 45)" fill="#17987c" font-size="14" font-family="SegoeUI, Segoe UI"><tspan x="-23.058" y="0">Normal</tspan></text>
    <text id="flat_light-2" data-name="flat_light" transform="translate(449 45)" fill="#17987c" font-size="14" font-family="SegoeUI, Segoe UI"><tspan x="-18.519" y="0">Hover</tspan></text>
    <text id="flat_light-3" data-name="flat_light" transform="translate(632 45)" fill="#17987c" font-size="14" font-family="SegoeUI, Segoe UI"><tspan x="-25.467" y="0">Focused</tspan></text>
    <text id="flat_light-4" data-name="flat_light" transform="translate(835 45)" fill="#17987c" font-size="14" font-family="SegoeUI, Segoe UI"><tspan x="-26.729" y="0">Disabled</tspan></text>
    <text id="flat_light-5" data-name="flat_light" transform="translate(165 125)" fill="#17987c" font-size="14" font-family="SegoeUI, Segoe UI"><tspan x="-67.888" y="0">Deselected</tspan></text>
    <text id="flat_light-6" data-name="flat_light" transform="translate(165 255)" fill="#17987c" font-size="14" font-family="SegoeUI, Segoe UI"><tspan x="-52.247" y="0">Selected</tspan></text>
    <g id="Group_264523" data-name="Group 264523" transform="translate(-100 -50.31)">
      <g id="noun_Pointer_44803" transform="translate(484 265)">
        <g id="Group_15298" data-name="Group 15298" transform="translate(0 0)" opacity="0.9">
          <path id="Path_10321" data-name="Path 10321" d="M26.5,27.034a8.04,8.04,0,0,1-7.962-7.224.347.347,0,0,1-.037-.156V14.783a1.94,1.94,0,0,1,1.9-1.97,1.854,1.854,0,0,1,1.143.395V5.385a1.906,1.906,0,1,1,3.81,0v5.468a1.854,1.854,0,0,1,1.143-.395,1.91,1.91,0,0,1,1.775,1.257,1.863,1.863,0,0,1,1.272-.5,1.919,1.919,0,0,1,1.837,1.449,1.86,1.86,0,0,1,1.211-.45,1.94,1.94,0,0,1,1.9,1.97v5.031a.375.375,0,0,1,0,.051A8.045,8.045,0,0,1,26.5,27.034Z" transform="translate(-18.501 -3.415)" fill="#fff"/>
        </g>
      </g>
      <g id="noun_Pointer_44803-2" data-name="noun_Pointer_44803" transform="translate(484 265)">
        <g id="Group_15298-2" data-name="Group 15298" transform="translate(0 0)" opacity="0.9">
          <path id="Path_10321-2" data-name="Path 10321" d="M26.5,27.034a8.04,8.04,0,0,1-7.962-7.224.347.347,0,0,1-.037-.156V14.783a1.94,1.94,0,0,1,1.9-1.97,1.854,1.854,0,0,1,1.143.395V5.385a1.906,1.906,0,1,1,3.81,0v5.468a1.854,1.854,0,0,1,1.143-.395,1.91,1.91,0,0,1,1.775,1.257,1.863,1.863,0,0,1,1.272-.5,1.919,1.919,0,0,1,1.837,1.449,1.86,1.86,0,0,1,1.211-.45,1.94,1.94,0,0,1,1.9,1.97v5.031a.375.375,0,0,1,0,.051A8.045,8.045,0,0,1,26.5,27.034Zm-7.238-7.51a.339.339,0,0,1,.024.1,7.238,7.238,0,0,0,14.45-.424q0-.016,0-.033V14.178a1.145,1.145,0,1,0-2.286,0,.381.381,0,0,1-.762,0v-1a1.145,1.145,0,1,0-2.286,0,.381.381,0,1,1-.762,0v-.752a1.145,1.145,0,1,0-2.286,0,.381.381,0,1,1-.762,0V5.385a1.145,1.145,0,1,0-2.286,0V18.21a.381.381,0,1,1-.762,0V14.783a1.145,1.145,0,1,0-2.286,0v4.741Z" transform="translate(-18.501 -3.415)"/>
        </g>
      </g>
    </g>
    <g id="Group_264522" data-name="Group 264522" transform="translate(-100 -50.619)">
      <g id="noun_Pointer_44803-3" data-name="noun_Pointer_44803" transform="translate(484 137)">
        <g id="Group_15298-3" data-name="Group 15298" transform="translate(0 0)" opacity="0.9">
          <path id="Path_10321-3" data-name="Path 10321" d="M26.5,27.034a8.04,8.04,0,0,1-7.962-7.224.347.347,0,0,1-.037-.156V14.783a1.94,1.94,0,0,1,1.9-1.97,1.854,1.854,0,0,1,1.143.395V5.385a1.906,1.906,0,1,1,3.81,0v5.468a1.854,1.854,0,0,1,1.143-.395,1.91,1.91,0,0,1,1.775,1.257,1.863,1.863,0,0,1,1.272-.5,1.919,1.919,0,0,1,1.837,1.449,1.86,1.86,0,0,1,1.211-.45,1.94,1.94,0,0,1,1.9,1.97v5.031a.375.375,0,0,1,0,.051A8.045,8.045,0,0,1,26.5,27.034Z" transform="translate(-18.501 -3.415)" fill="#fff"/>
        </g>
      </g>
      <g id="noun_Pointer_44803-4" data-name="noun_Pointer_44803" transform="translate(484 137)">
        <g id="Group_15298-4" data-name="Group 15298" transform="translate(0 0)" opacity="0.9">
          <path id="Path_10321-4" data-name="Path 10321" d="M26.5,27.034a8.04,8.04,0,0,1-7.962-7.224.347.347,0,0,1-.037-.156V14.783a1.94,1.94,0,0,1,1.9-1.97,1.854,1.854,0,0,1,1.143.395V5.385a1.906,1.906,0,1,1,3.81,0v5.468a1.854,1.854,0,0,1,1.143-.395,1.91,1.91,0,0,1,1.775,1.257,1.863,1.863,0,0,1,1.272-.5,1.919,1.919,0,0,1,1.837,1.449,1.86,1.86,0,0,1,1.211-.45,1.94,1.94,0,0,1,1.9,1.97v5.031a.375.375,0,0,1,0,.051A8.045,8.045,0,0,1,26.5,27.034Zm-7.238-7.51a.339.339,0,0,1,.024.1,7.238,7.238,0,0,0,14.45-.424q0-.016,0-.033V14.178a1.145,1.145,0,1,0-2.286,0,.381.381,0,0,1-.762,0v-1a1.145,1.145,0,1,0-2.286,0,.381.381,0,1,1-.762,0v-.752a1.145,1.145,0,1,0-2.286,0,.381.381,0,1,1-.762,0V5.385a1.145,1.145,0,1,0-2.286,0V18.21a.381.381,0,1,1-.762,0V14.783a1.145,1.145,0,1,0-2.286,0v4.741Z" transform="translate(-18.501 -3.415)"/>
        </g>
      </g>
    </g>
    <g id="Gallery_checkbox-selected-4" data-name="Gallery checkbox-selected" transform="translate(197 198)">
      <g id="Content-6" data-name="Content">
        <g id="BG-8" data-name="BG">
          <g id="Front-7" data-name="Front" fill="#fff" stroke="#2777d3" stroke-width="2">
            <rect width="150" height="98" rx="6" stroke="none"/>
            <rect x="-1" y="-1" width="152" height="100" rx="7" fill="none"/>
          </g>
        </g>
        <text id="Gallery_Radio_button-7" data-name="Gallery Radio button" transform="translate(30 30)" fill="#3d3d3d" font-size="14" font-family="OpenSans-Semibold, Open Sans" font-weight="600"><tspan x="0.208" y="15">Gallery Radio </tspan><tspan x="21.973" y="34">button</tspan></text>
      </g>
      <g id="Radio_-_selected-4" data-name="Radio - selected" transform="translate(7 7)">
        <g id="Ellipse_9-4" data-name="Ellipse 9" fill="#fff" stroke="#2777d3" stroke-width="2">
          <circle cx="10" cy="10" r="10" stroke="none"/>
          <circle cx="10" cy="10" r="11" fill="none"/>
        </g>
        <circle id="Ellipse_10-4" data-name="Ellipse 10" cx="8" cy="8" r="8" transform="translate(2 2)" fill="#2777d3"/>
      </g>
    </g>
    <g id="Gallery_checkbox-deselected-4" data-name="Gallery checkbox-deselected" transform="translate(197 70)">
      <g id="Content-7" data-name="Content">
        <g id="BG-9" data-name="BG" transform="translate(6 6)">
          <g id="Front-8" data-name="Front" transform="translate(-6 -6)" fill="#fff" stroke="#c6c6c6" stroke-width="1">
            <rect width="150" height="98" rx="6" stroke="none"/>
            <rect x="-0.5" y="-0.5" width="151" height="99" rx="6.5" fill="none"/>
          </g>
        </g>
        <text id="Gallery_Radio_button-8" data-name="Gallery Radio button" transform="translate(30 30)" fill="#3d3d3d" font-size="14" font-family="OpenSans-Semibold, Open Sans" font-weight="600"><tspan x="0.208" y="15">Gallery Radio </tspan><tspan x="21.973" y="34">button</tspan></text>
      </g>
    </g>
  </g>
</svg>
