<svg xmlns="http://www.w3.org/2000/svg" xmlns:xlink="http://www.w3.org/1999/xlink" width="1000" height="453" viewBox="0 0 1000 453">
  <defs>
    <clipPath id="clip-Gallery_Checkbox_states_-_no_illustrations">
      <rect width="1000" height="453"/>
    </clipPath>
  </defs>
  <g id="Gallery_Checkbox_states_-_no_illustrations" data-name="Gallery Checkbox states - no illustrations" clip-path="url(#clip-Gallery_Checkbox_states_-_no_illustrations)">
    <rect width="1000" height="453" fill="#f9f9fa"/>
    <g id="Gallery_checkbox-selected" data-name="Gallery checkbox-selected" transform="translate(384 198)">
      <g id="Content">
        <g id="BG">
          <g id="Front" fill="#fff" stroke="#4e92df" stroke-width="2">
            <rect width="130" height="98" rx="6" stroke="none"/>
            <rect x="-1" y="-1" width="132" height="100" rx="7" fill="none"/>
          </g>
        </g>
        <text id="Gallery_Checkbox" data-name="Gallery Checkbox" transform="translate(30 30)" fill="#3d3d3d" font-size="14" font-family="OpenSans-Semibold, Open Sans" font-weight="600"><tspan x="11.149" y="15">Gallery </tspan><tspan x="2.126" y="34">Checkbox</tspan></text>
      </g>
      <g id="Checked" transform="translate(5 5)">
        <path id="Path_5845" data-name="Path 5845" d="M46.2,0h-18a2.971,2.971,0,0,0-3,3V21a2.971,2.971,0,0,0,3,3h18a2.971,2.971,0,0,0,3-3V3A2.971,2.971,0,0,0,46.2,0ZM44.64,8.52l-8.76,8.76a1.16,1.16,0,0,1-1.68,0l-4.32-4.32a1.188,1.188,0,0,1,1.68-1.68l3.48,3.48,7.92-7.92a1.16,1.16,0,0,1,1.68,0A1.442,1.442,0,0,1,44.64,8.52Z" transform="translate(-25.2)" fill="#4e92df"/>
      </g>
    </g>
    <text id="flat_light" transform="translate(262 45)" fill="#17987c" font-size="14" font-family="SegoeUI, Segoe UI"><tspan x="-23.058" y="0">Normal</tspan></text>
    <text id="flat_light-2" data-name="flat_light" transform="translate(448 45)" fill="#17987c" font-size="14" font-family="SegoeUI, Segoe UI"><tspan x="-18.519" y="0">Hover</tspan></text>
    <text id="flat_light-3" data-name="flat_light" transform="translate(635 45)" fill="#17987c" font-size="14" font-family="SegoeUI, Segoe UI"><tspan x="-25.467" y="0">Focused</tspan></text>
    <text id="flat_light-4" data-name="flat_light" transform="translate(831 45)" fill="#17987c" font-size="14" font-family="SegoeUI, Segoe UI"><tspan x="-26.729" y="0">Disabled</tspan></text>
    <text id="flat_light-5" data-name="flat_light" transform="translate(165 125)" fill="#17987c" font-size="14" font-family="SegoeUI, Segoe UI"><tspan x="-67.888" y="0">Deselected</tspan></text>
    <text id="flat_light-6" data-name="flat_light" transform="translate(165 255)" fill="#17987c" font-size="14" font-family="SegoeUI, Segoe UI"><tspan x="-52.247" y="0">Selected</tspan></text>
    <text id="flat_light-7" data-name="flat_light" transform="translate(165 385)" fill="#17987c" font-size="14" font-family="SegoeUI, Segoe UI"><tspan x="-50.894" y="0">Tri-State</tspan></text>
    <g id="Group_264523" data-name="Group 264523" transform="translate(-24 -9)">
      <g id="noun_Pointer_44803" transform="translate(484 265)">
        <g id="Group_15298" data-name="Group 15298" transform="translate(0 0)" opacity="0.9">
          <path id="Path_10321" data-name="Path 10321" d="M26.5,27.034a8.04,8.04,0,0,1-7.962-7.224.347.347,0,0,1-.037-.156V14.783a1.94,1.94,0,0,1,1.9-1.97,1.854,1.854,0,0,1,1.143.395V5.385a1.906,1.906,0,1,1,3.81,0v5.468a1.854,1.854,0,0,1,1.143-.395,1.91,1.91,0,0,1,1.775,1.257,1.863,1.863,0,0,1,1.272-.5,1.919,1.919,0,0,1,1.837,1.449,1.86,1.86,0,0,1,1.211-.45,1.94,1.94,0,0,1,1.9,1.97v5.031a.375.375,0,0,1,0,.051A8.045,8.045,0,0,1,26.5,27.034Z" transform="translate(-18.501 -3.415)" fill="#fff"/>
        </g>
      </g>
      <g id="noun_Pointer_44803-2" data-name="noun_Pointer_44803" transform="translate(484 265)">
        <g id="Group_15298-2" data-name="Group 15298" transform="translate(0 0)" opacity="0.9">
          <path id="Path_10321-2" data-name="Path 10321" d="M26.5,27.034a8.04,8.04,0,0,1-7.962-7.224.347.347,0,0,1-.037-.156V14.783a1.94,1.94,0,0,1,1.9-1.97,1.854,1.854,0,0,1,1.143.395V5.385a1.906,1.906,0,1,1,3.81,0v5.468a1.854,1.854,0,0,1,1.143-.395,1.91,1.91,0,0,1,1.775,1.257,1.863,1.863,0,0,1,1.272-.5,1.919,1.919,0,0,1,1.837,1.449,1.86,1.86,0,0,1,1.211-.45,1.94,1.94,0,0,1,1.9,1.97v5.031a.375.375,0,0,1,0,.051A8.045,8.045,0,0,1,26.5,27.034Zm-7.238-7.51a.339.339,0,0,1,.024.1,7.238,7.238,0,0,0,14.45-.424q0-.016,0-.033V14.178a1.145,1.145,0,1,0-2.286,0,.381.381,0,0,1-.762,0v-1a1.145,1.145,0,1,0-2.286,0,.381.381,0,1,1-.762,0v-.752a1.145,1.145,0,1,0-2.286,0,.381.381,0,1,1-.762,0V5.385a1.145,1.145,0,1,0-2.286,0V18.21a.381.381,0,1,1-.762,0V14.783a1.145,1.145,0,1,0-2.286,0v4.741Z" transform="translate(-18.501 -3.415)"/>
        </g>
      </g>
    </g>
    <g id="Gallery_checkbox-deselected" data-name="Gallery checkbox-deselected" transform="translate(197 70)">
      <g id="Content-2" data-name="Content">
        <g id="BG-2" data-name="BG" transform="translate(6 6)">
          <g id="Front-2" data-name="Front" transform="translate(-6 -6)" fill="#fff" stroke="#c6c6c6" stroke-width="1">
            <rect width="130" height="98" rx="6" stroke="none"/>
            <rect x="-0.5" y="-0.5" width="131" height="99" rx="6.5" fill="none"/>
          </g>
        </g>
        <text id="Gallery_Checkbox-2" data-name="Gallery Checkbox" transform="translate(30 30)" fill="#3d3d3d" font-size="14" font-family="OpenSans-Semibold, Open Sans" font-weight="600"><tspan x="11.149" y="15">Gallery </tspan><tspan x="2.126" y="34">Checkbox</tspan></text>
      </g>
    </g>
    <g id="Gallery_checkbox-selected-2" data-name="Gallery checkbox-selected" transform="translate(197 198)">
      <g id="Content-3" data-name="Content">
        <g id="BG-3" data-name="BG">
          <g id="Front-3" data-name="Front" fill="#fff" stroke="#2777d3" stroke-width="2">
            <rect width="130" height="98" rx="6" stroke="none"/>
            <rect x="-1" y="-1" width="132" height="100" rx="7" fill="none"/>
          </g>
        </g>
        <text id="Gallery_Checkbox-3" data-name="Gallery Checkbox" transform="translate(30 30)" fill="#3d3d3d" font-size="14" font-family="OpenSans-Semibold, Open Sans" font-weight="600"><tspan x="11.149" y="15">Gallery </tspan><tspan x="2.126" y="34">Checkbox</tspan></text>
      </g>
      <g id="Checked-2" data-name="Checked" transform="translate(5 5)">
        <path id="Path_5845-2" data-name="Path 5845" d="M46.2,0h-18a2.971,2.971,0,0,0-3,3V21a2.971,2.971,0,0,0,3,3h18a2.971,2.971,0,0,0,3-3V3A2.971,2.971,0,0,0,46.2,0ZM44.64,8.52l-8.76,8.76a1.16,1.16,0,0,1-1.68,0l-4.32-4.32a1.188,1.188,0,0,1,1.68-1.68l3.48,3.48,7.92-7.92a1.16,1.16,0,0,1,1.68,0A1.442,1.442,0,0,1,44.64,8.52Z" transform="translate(-25.2)" fill="#2777d3"/>
      </g>
    </g>
    <g id="Gallery_checkbox-tri-state" data-name="Gallery checkbox-tri-state" transform="translate(197 330)">
      <g id="Content-4" data-name="Content" transform="translate(-612 -137)">
        <g id="BG-4" data-name="BG">
          <g id="Front-4" data-name="Front" transform="translate(612 137)" fill="#fff" stroke="#2777d3" stroke-width="2">
            <rect width="130" height="98" rx="6" stroke="none"/>
            <rect x="-1" y="-1" width="132" height="100" rx="7" fill="none"/>
          </g>
        </g>
        <text id="Gallery_Checkbox-4" data-name="Gallery Checkbox" transform="translate(642 167)" fill="#3d3d3d" font-size="14" font-family="OpenSans-Semibold, Open Sans" font-weight="600"><tspan x="11.149" y="15">Gallery </tspan><tspan x="2.126" y="34">Checkbox</tspan></text>
      </g>
      <g id="Component_27_8" data-name="Component 27 – 8" transform="translate(5 5)">
        <path id="Subtraction_10" data-name="Subtraction 10" d="M-2398-1078h-18a2.968,2.968,0,0,1-3-3v-18a2.968,2.968,0,0,1,3-3h18a2.968,2.968,0,0,1,3,3v18A2.968,2.968,0,0,1-2398-1078Zm-15.75-13a1.251,1.251,0,0,0-1.25,1.25,1.251,1.251,0,0,0,1.25,1.25h13.5a1.252,1.252,0,0,0,1.25-1.25,1.252,1.252,0,0,0-1.25-1.25Z" transform="translate(2419 1102)" fill="#2777d3"/>
      </g>
    </g>
    <g id="Gallery_checkbox-deselected-2" data-name="Gallery checkbox-deselected" transform="translate(385 70)">
      <g id="Content-5" data-name="Content">
        <g id="BG-5" data-name="BG" transform="translate(6 6)">
          <g id="Front-5" data-name="Front" transform="translate(-6 -6)" fill="#fff" stroke="#c6c6c6" stroke-width="1">
            <rect width="130" height="98" rx="6" stroke="none"/>
            <rect x="-0.5" y="-0.5" width="131" height="99" rx="6.5" fill="none"/>
          </g>
        </g>
        <text id="Gallery_Checkbox-5" data-name="Gallery Checkbox" transform="translate(30 30)" fill="#3d3d3d" font-size="14" font-family="OpenSans-Semibold, Open Sans" font-weight="600"><tspan x="11.149" y="15">Gallery </tspan><tspan x="2.126" y="34">Checkbox</tspan></text>
      </g>
      <g id="Component_26_8" data-name="Component 26 – 8" transform="translate(7 7)">
        <g id="Rectangle_10027" data-name="Rectangle 10027" fill="#fff" stroke="#9494a4" stroke-width="2">
          <rect width="20" height="20" rx="1" stroke="none"/>
          <rect x="-1" y="-1" width="22" height="22" rx="2" fill="none"/>
        </g>
      </g>
    </g>
    <g id="Group_264522" data-name="Group 264522" transform="translate(-24 -9)">
      <g id="noun_Pointer_44803-3" data-name="noun_Pointer_44803" transform="translate(484 137)">
        <g id="Group_15298-3" data-name="Group 15298" transform="translate(0 0)" opacity="0.9">
          <path id="Path_10321-3" data-name="Path 10321" d="M26.5,27.034a8.04,8.04,0,0,1-7.962-7.224.347.347,0,0,1-.037-.156V14.783a1.94,1.94,0,0,1,1.9-1.97,1.854,1.854,0,0,1,1.143.395V5.385a1.906,1.906,0,1,1,3.81,0v5.468a1.854,1.854,0,0,1,1.143-.395,1.91,1.91,0,0,1,1.775,1.257,1.863,1.863,0,0,1,1.272-.5,1.919,1.919,0,0,1,1.837,1.449,1.86,1.86,0,0,1,1.211-.45,1.94,1.94,0,0,1,1.9,1.97v5.031a.375.375,0,0,1,0,.051A8.045,8.045,0,0,1,26.5,27.034Z" transform="translate(-18.501 -3.415)" fill="#fff"/>
        </g>
      </g>
      <g id="noun_Pointer_44803-4" data-name="noun_Pointer_44803" transform="translate(484 137)">
        <g id="Group_15298-4" data-name="Group 15298" transform="translate(0 0)" opacity="0.9">
          <path id="Path_10321-4" data-name="Path 10321" d="M26.5,27.034a8.04,8.04,0,0,1-7.962-7.224.347.347,0,0,1-.037-.156V14.783a1.94,1.94,0,0,1,1.9-1.97,1.854,1.854,0,0,1,1.143.395V5.385a1.906,1.906,0,1,1,3.81,0v5.468a1.854,1.854,0,0,1,1.143-.395,1.91,1.91,0,0,1,1.775,1.257,1.863,1.863,0,0,1,1.272-.5,1.919,1.919,0,0,1,1.837,1.449,1.86,1.86,0,0,1,1.211-.45,1.94,1.94,0,0,1,1.9,1.97v5.031a.375.375,0,0,1,0,.051A8.045,8.045,0,0,1,26.5,27.034Zm-7.238-7.51a.339.339,0,0,1,.024.1,7.238,7.238,0,0,0,14.45-.424q0-.016,0-.033V14.178a1.145,1.145,0,1,0-2.286,0,.381.381,0,0,1-.762,0v-1a1.145,1.145,0,1,0-2.286,0,.381.381,0,1,1-.762,0v-.752a1.145,1.145,0,1,0-2.286,0,.381.381,0,1,1-.762,0V5.385a1.145,1.145,0,1,0-2.286,0V18.21a.381.381,0,1,1-.762,0V14.783a1.145,1.145,0,1,0-2.286,0v4.741Z" transform="translate(-18.501 -3.415)"/>
        </g>
      </g>
    </g>
    <g id="Gallery_checkbox-tri-state-2" data-name="Gallery checkbox-tri-state" transform="translate(384 330)">
      <g id="Content-6" data-name="Content" transform="translate(-612 -137)">
        <g id="BG-6" data-name="BG">
          <g id="Front-6" data-name="Front" transform="translate(612 137)" fill="#fff" stroke="#4e92df" stroke-width="2">
            <rect width="130" height="98" rx="6" stroke="none"/>
            <rect x="-1" y="-1" width="132" height="100" rx="7" fill="none"/>
          </g>
        </g>
        <text id="Gallery_Checkbox-6" data-name="Gallery Checkbox" transform="translate(642 167)" fill="#3d3d3d" font-size="14" font-family="OpenSans-Semibold, Open Sans" font-weight="600"><tspan x="11.149" y="15">Gallery </tspan><tspan x="2.126" y="34">Checkbox</tspan></text>
      </g>
      <g id="Component_27_8-2" data-name="Component 27 – 8" transform="translate(5 5)">
        <path id="Subtraction_10-2" data-name="Subtraction 10" d="M-2398-1078h-18a2.968,2.968,0,0,1-3-3v-18a2.968,2.968,0,0,1,3-3h18a2.968,2.968,0,0,1,3,3v18A2.968,2.968,0,0,1-2398-1078Zm-15.75-13a1.251,1.251,0,0,0-1.25,1.25,1.251,1.251,0,0,0,1.25,1.25h13.5a1.252,1.252,0,0,0,1.25-1.25,1.252,1.252,0,0,0-1.25-1.25Z" transform="translate(2419 1102)" fill="#4e92df"/>
      </g>
    </g>
    <g id="Group_264524" data-name="Group 264524" transform="translate(-24 120)">
      <g id="noun_Pointer_44803-5" data-name="noun_Pointer_44803" transform="translate(484 265)">
        <g id="Group_15298-5" data-name="Group 15298" transform="translate(0 0)" opacity="0.9">
          <path id="Path_10321-5" data-name="Path 10321" d="M26.5,27.034a8.04,8.04,0,0,1-7.962-7.224.347.347,0,0,1-.037-.156V14.783a1.94,1.94,0,0,1,1.9-1.97,1.854,1.854,0,0,1,1.143.395V5.385a1.906,1.906,0,1,1,3.81,0v5.468a1.854,1.854,0,0,1,1.143-.395,1.91,1.91,0,0,1,1.775,1.257,1.863,1.863,0,0,1,1.272-.5,1.919,1.919,0,0,1,1.837,1.449,1.86,1.86,0,0,1,1.211-.45,1.94,1.94,0,0,1,1.9,1.97v5.031a.375.375,0,0,1,0,.051A8.045,8.045,0,0,1,26.5,27.034Z" transform="translate(-18.501 -3.415)" fill="#fff"/>
        </g>
      </g>
      <g id="noun_Pointer_44803-6" data-name="noun_Pointer_44803" transform="translate(484 265)">
        <g id="Group_15298-6" data-name="Group 15298" transform="translate(0 0)" opacity="0.9">
          <path id="Path_10321-6" data-name="Path 10321" d="M26.5,27.034a8.04,8.04,0,0,1-7.962-7.224.347.347,0,0,1-.037-.156V14.783a1.94,1.94,0,0,1,1.9-1.97,1.854,1.854,0,0,1,1.143.395V5.385a1.906,1.906,0,1,1,3.81,0v5.468a1.854,1.854,0,0,1,1.143-.395,1.91,1.91,0,0,1,1.775,1.257,1.863,1.863,0,0,1,1.272-.5,1.919,1.919,0,0,1,1.837,1.449,1.86,1.86,0,0,1,1.211-.45,1.94,1.94,0,0,1,1.9,1.97v5.031a.375.375,0,0,1,0,.051A8.045,8.045,0,0,1,26.5,27.034Zm-7.238-7.51a.339.339,0,0,1,.024.1,7.238,7.238,0,0,0,14.45-.424q0-.016,0-.033V14.178a1.145,1.145,0,1,0-2.286,0,.381.381,0,0,1-.762,0v-1a1.145,1.145,0,1,0-2.286,0,.381.381,0,1,1-.762,0v-.752a1.145,1.145,0,1,0-2.286,0,.381.381,0,1,1-.762,0V5.385a1.145,1.145,0,1,0-2.286,0V18.21a.381.381,0,1,1-.762,0V14.783a1.145,1.145,0,1,0-2.286,0v4.741Z" transform="translate(-18.501 -3.415)"/>
        </g>
      </g>
    </g>
    <g id="Gallery_checkbox-deselected-3" data-name="Gallery checkbox-deselected" transform="translate(572 67)">
      <g id="BG-7" data-name="BG" transform="translate(1 1)">
        <g id="BG-8" data-name="BG" transform="translate(7.938 8.083)">
          <g id="Back" transform="translate(-8.938 -9.083)" fill="#fff" stroke="#2777d3" stroke-width="1">
            <rect width="136" height="104" rx="8" stroke="none"/>
            <rect x="0.5" y="0.5" width="135" height="103" rx="7.5" fill="none"/>
          </g>
          <g id="Front-7" data-name="Front" transform="translate(-5.938 -6.083)" fill="#fff" stroke="#c6c6c6" stroke-width="1">
            <rect width="130" height="98" rx="6" stroke="none"/>
            <rect x="-0.5" y="-0.5" width="131" height="99" rx="6.5" fill="none"/>
          </g>
        </g>
        <text id="Gallery_Checkbox-7" data-name="Gallery Checkbox" transform="translate(32 32)" fill="#3d3d3d" font-size="14" font-family="OpenSans-Semibold, Open Sans" font-weight="600"><tspan x="11.149" y="15">Gallery </tspan><tspan x="2.126" y="34">Checkbox</tspan></text>
      </g>
    </g>
    <g id="Gallery_checkbox-selected-3" data-name="Gallery checkbox-selected" transform="translate(571 194)">
      <g id="Content-7" data-name="Content" transform="translate(4 4)">
        <g id="BG-9" data-name="BG">
          <g id="Back-2" data-name="Back" transform="translate(-4 -4)" fill="#fff" stroke="#2777d3" stroke-width="1">
            <rect width="138" height="106" rx="9" stroke="none"/>
            <rect x="0.5" y="0.5" width="137" height="105" rx="8.5" fill="none"/>
          </g>
          <g id="Front-8" data-name="Front" fill="#fff" stroke="#2777d3" stroke-width="2">
            <rect width="130" height="98" rx="6" stroke="none"/>
            <rect x="-1" y="-1" width="132" height="100" rx="7" fill="none"/>
          </g>
        </g>
        <text id="Gallery_Checkbox-8" data-name="Gallery Checkbox" transform="translate(30 30)" fill="#3d3d3d" font-size="14" font-family="OpenSans-Semibold, Open Sans" font-weight="600"><tspan x="11.149" y="15">Gallery </tspan><tspan x="2.126" y="34">Checkbox</tspan></text>
      </g>
      <g id="Checked-3" data-name="Checked" transform="translate(9 9)">
        <path id="Path_5845-3" data-name="Path 5845" d="M46.2,0h-18a2.971,2.971,0,0,0-3,3V21a2.971,2.971,0,0,0,3,3h18a2.971,2.971,0,0,0,3-3V3A2.971,2.971,0,0,0,46.2,0ZM44.64,8.52l-8.76,8.76a1.16,1.16,0,0,1-1.68,0l-4.32-4.32a1.188,1.188,0,0,1,1.68-1.68l3.48,3.48,7.92-7.92a1.16,1.16,0,0,1,1.68,0A1.442,1.442,0,0,1,44.64,8.52Z" transform="translate(-25.2)" fill="#2777d3"/>
      </g>
    </g>
    <g id="Gallery_checkbox-tri-state-3" data-name="Gallery checkbox-tri-state" transform="translate(571 326)">
      <g id="Content-8" data-name="Content" transform="translate(-608 -133)">
        <g id="BG-10" data-name="BG">
          <g id="Back-3" data-name="Back" transform="translate(608 133)" fill="#fff" stroke="#2777d3" stroke-width="1">
            <rect width="138" height="106" rx="8" stroke="none"/>
            <rect x="0.5" y="0.5" width="137" height="105" rx="7.5" fill="none"/>
          </g>
          <g id="Front-9" data-name="Front" transform="translate(612 137)" fill="#fff" stroke="#2777d3" stroke-width="2">
            <rect width="130" height="98" rx="6" stroke="none"/>
            <rect x="-1" y="-1" width="132" height="100" rx="7" fill="none"/>
          </g>
        </g>
        <text id="Gallery_Checkbox-9" data-name="Gallery Checkbox" transform="translate(642 167)" fill="#3d3d3d" font-size="14" font-family="OpenSans-Semibold, Open Sans" font-weight="600"><tspan x="11.149" y="15">Gallery </tspan><tspan x="2.126" y="34">Checkbox</tspan></text>
      </g>
      <g id="Component_27_8-3" data-name="Component 27 – 8" transform="translate(9 9)">
        <path id="Subtraction_10-3" data-name="Subtraction 10" d="M-2398-1078h-18a2.968,2.968,0,0,1-3-3v-18a2.968,2.968,0,0,1,3-3h18a2.968,2.968,0,0,1,3,3v18A2.968,2.968,0,0,1-2398-1078Zm-15.75-13a1.251,1.251,0,0,0-1.25,1.25,1.251,1.251,0,0,0,1.25,1.25h13.5a1.252,1.252,0,0,0,1.25-1.25,1.252,1.252,0,0,0-1.25-1.25Z" transform="translate(2419 1102)" fill="#2777d3"/>
      </g>
    </g>
    <g id="Gallery_checkbox-deselected-4" data-name="Gallery checkbox-deselected" transform="translate(766 70)">
      <g id="Content-9" data-name="Content">
        <g id="BG-11" data-name="BG" transform="translate(6 6)">
          <g id="Front-10" data-name="Front" transform="translate(-6 -6)" fill="#e6e6ea" stroke="#e6e6ea" stroke-width="1">
            <rect width="130" height="98" rx="6" stroke="none"/>
            <rect x="-0.5" y="-0.5" width="131" height="99" rx="6.5" fill="none"/>
          </g>
        </g>
        <text id="Gallery_Checkbox-10" data-name="Gallery Checkbox" transform="translate(30 30)" fill="#afafbb" font-size="14" font-family="OpenSans-Semibold, Open Sans" font-weight="600"><tspan x="11.149" y="15">Gallery </tspan><tspan x="2.126" y="34">Checkbox</tspan></text>
      </g>
    </g>
    <g id="Gallery_checkbox-selected-4" data-name="Gallery checkbox-selected" transform="translate(766 198)">
      <g id="Content-10" data-name="Content">
        <g id="BG-12" data-name="BG">
          <g id="Front-11" data-name="Front" fill="#fff" stroke="#a5c7ee" stroke-width="2">
            <rect width="130" height="98" rx="6" stroke="none"/>
            <rect x="-1" y="-1" width="132" height="100" rx="7" fill="none"/>
          </g>
        </g>
        <text id="Gallery_Checkbox-11" data-name="Gallery Checkbox" transform="translate(30 30)" fill="#afafbb" font-size="14" font-family="OpenSans-Semibold, Open Sans" font-weight="600"><tspan x="11.149" y="15">Gallery </tspan><tspan x="2.126" y="34">Checkbox</tspan></text>
      </g>
      <g id="Checked-4" data-name="Checked" transform="translate(5 5)">
        <path id="Path_5845-4" data-name="Path 5845" d="M46.2,0h-18a2.971,2.971,0,0,0-3,3V21a2.971,2.971,0,0,0,3,3h18a2.971,2.971,0,0,0,3-3V3A2.971,2.971,0,0,0,46.2,0ZM44.64,8.52l-8.76,8.76a1.16,1.16,0,0,1-1.68,0l-4.32-4.32a1.188,1.188,0,0,1,1.68-1.68l3.48,3.48,7.92-7.92a1.16,1.16,0,0,1,1.68,0A1.442,1.442,0,0,1,44.64,8.52Z" transform="translate(-25.2)" fill="#e6e6ea"/>
      </g>
    </g>
    <g id="Gallery_checkbox-tri-state-4" data-name="Gallery checkbox-tri-state" transform="translate(766 330)">
      <g id="Content-11" data-name="Content" transform="translate(-612 -137)">
        <g id="BG-13" data-name="BG">
          <g id="Front-12" data-name="Front" transform="translate(612 137)" fill="#fff" stroke="#a5c7ee" stroke-width="2">
            <rect width="130" height="98" rx="6" stroke="none"/>
            <rect x="-1" y="-1" width="132" height="100" rx="7" fill="none"/>
          </g>
        </g>
        <text id="Gallery_Checkbox-12" data-name="Gallery Checkbox" transform="translate(642 167)" fill="#afafbb" font-size="14" font-family="OpenSans-Semibold, Open Sans" font-weight="600"><tspan x="11.149" y="15">Gallery </tspan><tspan x="2.126" y="34">Checkbox</tspan></text>
      </g>
      <g id="Component_27_8-4" data-name="Component 27 – 8" transform="translate(5 5)">
        <path id="Subtraction_10-4" data-name="Subtraction 10" d="M-2398-1078h-18a2.968,2.968,0,0,1-3-3v-18a2.968,2.968,0,0,1,3-3h18a2.968,2.968,0,0,1,3,3v18A2.968,2.968,0,0,1-2398-1078Zm-15.75-13a1.251,1.251,0,0,0-1.25,1.25,1.251,1.251,0,0,0,1.25,1.25h13.5a1.252,1.252,0,0,0,1.25-1.25,1.252,1.252,0,0,0-1.25-1.25Z" transform="translate(2419 1102)" fill="#e6e6ea"/>
      </g>
    </g>
  </g>
</svg>
