<svg xmlns="http://www.w3.org/2000/svg" xmlns:xlink="http://www.w3.org/1999/xlink" width="1920" height="1080" viewBox="0 0 1920 1080">
  <defs>
    <filter id="Card" x="279.5" y="166.5" width="799" height="763" filterUnits="userSpaceOnUse">
      <feOffset dy="1" input="SourceAlpha"/>
      <feGaussianBlur stdDeviation="1.5" result="blur"/>
      <feFlood flood-opacity="0.161"/>
      <feComposite operator="in" in2="blur"/>
      <feComposite in="SourceGraphic"/>
    </filter>
    <filter id="Card-2" x="1099.5" y="166.5" width="799" height="763" filterUnits="userSpaceOnUse">
      <feOffset dy="1" input="SourceAlpha"/>
      <feGaussianBlur stdDeviation="1.5" result="blur-2"/>
      <feFlood flood-opacity="0.161"/>
      <feComposite operator="in" in2="blur-2"/>
      <feComposite in="SourceGraphic"/>
    </filter>
    <filter id="Rectangle_10023" x="1659.505" y="116.5" width="249" height="127" filterUnits="userSpaceOnUse">
      <feOffset dy="1" input="SourceAlpha"/>
      <feGaussianBlur stdDeviation="1.5" result="blur-3"/>
      <feFlood flood-opacity="0.161"/>
      <feComposite operator="in" in2="blur-3"/>
      <feComposite in="SourceGraphic"/>
    </filter>
    <clipPath id="clip-Generation_5">
      <rect width="1920" height="1080"/>
    </clipPath>
  </defs>
  <g id="Generation_5" data-name="Generation – 5" clip-path="url(#clip-Generation_5)">
    <rect width="1920" height="1080" fill="#f4f4f6"/>
    <g id="Side_nav" data-name="Side nav" transform="translate(0 65)">
      <path id="Path_5700" data-name="Path 5700" d="M0-1,249.5,0V1014H0V-1Z" transform="translate(0 1)" fill="#fff"/>
      <rect id="Rectangle_5301" data-name="Rectangle 5301" width="60" height="50" transform="translate(0 1)" fill="none" opacity="0.3"/>
      <rect id="Rectangle_4697" data-name="Rectangle 4697" width="249.5" height="50" transform="translate(0.5 1.5)" fill="none"/>
      <g id="Group_264154" data-name="Group 264154">
        <circle id="Ellipse_403" data-name="Ellipse 403" cx="10" cy="10" r="10" transform="translate(20 19)" fill="#cbcbd2"/>
        <rect id="Rectangle_9760" data-name="Rectangle 9760" width="38" height="14" rx="7" transform="translate(60 22)" fill="#cbcbd2"/>
      </g>
      <g id="Group_264153" data-name="Group 264153">
        <circle id="Ellipse_404" data-name="Ellipse 404" cx="10" cy="10" r="10" transform="translate(20 66)" fill="#cbcbd2"/>
        <rect id="Rectangle_9761" data-name="Rectangle 9761" width="137" height="14" rx="7" transform="translate(60 69)" fill="#cbcbd2"/>
      </g>
      <g id="Group_264155" data-name="Group 264155">
        <circle id="Ellipse_405" data-name="Ellipse 405" cx="10" cy="10" r="10" transform="translate(20 116)" fill="#cbcbd2"/>
        <rect id="Rectangle_9762" data-name="Rectangle 9762" width="92" height="14" rx="7" transform="translate(60 119)" fill="#cbcbd2"/>
        <g id="Chevron-down" transform="translate(214.5 116)">
          <g id="Group_8144" data-name="Group 8144">
            <rect id="Rectangle_5318" data-name="Rectangle 5318" width="20" height="20" fill="none"/>
            <path id="Path_5792" data-name="Path 5792" d="M18.75,15.072l1.2,1.2a.25.25,0,0,1,0,.4l-4.75,4.75a.25.25,0,0,1-.4,0l-4.7-4.75a.25.25,0,0,1,0-.4l1.2-1.2a.25.25,0,0,1,.4,0l3.3,3.35,3.35-3.4a.25.25,0,0,1,.4.05Z" transform="translate(-5 -7.472)" fill="#cbcbd2"/>
          </g>
        </g>
      </g>
      <g id="Group_264156" data-name="Group 264156">
        <circle id="Ellipse_406" data-name="Ellipse 406" cx="10" cy="10" r="10" transform="translate(20 166)" fill="#cbcbd2"/>
        <rect id="Rectangle_9763" data-name="Rectangle 9763" width="101" height="14" rx="7" transform="translate(60 169)" fill="#cbcbd2"/>
        <g id="Chevron-down-2" data-name="Chevron-down" transform="translate(214.5 166)">
          <g id="Group_8144-2" data-name="Group 8144">
            <rect id="Rectangle_5318-2" data-name="Rectangle 5318" width="20" height="20" fill="none"/>
            <path id="Path_5792-2" data-name="Path 5792" d="M18.75,15.072l1.2,1.2a.25.25,0,0,1,0,.4l-4.75,4.75a.25.25,0,0,1-.4,0l-4.7-4.75a.25.25,0,0,1,0-.4l1.2-1.2a.25.25,0,0,1,.4,0l3.3,3.35,3.35-3.4a.25.25,0,0,1,.4.05Z" transform="translate(-5 -7.472)" fill="#cbcbd2"/>
          </g>
        </g>
      </g>
      <g id="Group_264157" data-name="Group 264157">
        <circle id="Ellipse_407" data-name="Ellipse 407" cx="10" cy="10" r="10" transform="translate(20 216)" fill="#cbcbd2"/>
        <rect id="Rectangle_9764" data-name="Rectangle 9764" width="74" height="14" rx="7" transform="translate(60 219)" fill="#cbcbd2"/>
        <g id="Chevron-down-3" data-name="Chevron-down" transform="translate(214.5 216)">
          <g id="Group_8144-3" data-name="Group 8144">
            <rect id="Rectangle_5318-3" data-name="Rectangle 5318" width="20" height="20" fill="none"/>
            <path id="Path_5792-3" data-name="Path 5792" d="M18.75,15.072l1.2,1.2a.25.25,0,0,1,0,.4l-4.75,4.75a.25.25,0,0,1-.4,0l-4.7-4.75a.25.25,0,0,1,0-.4l1.2-1.2a.25.25,0,0,1,.4,0l3.3,3.35,3.35-3.4a.25.25,0,0,1,.4.05Z" transform="translate(-5 -7.472)" fill="#cbcbd2"/>
          </g>
        </g>
      </g>
      <g id="Group_264158" data-name="Group 264158">
        <circle id="Ellipse_408" data-name="Ellipse 408" cx="10" cy="10" r="10" transform="translate(20 266)" fill="#cbcbd2"/>
        <rect id="Rectangle_9765" data-name="Rectangle 9765" width="135" height="14" rx="7" transform="translate(60 269)" fill="#cbcbd2"/>
        <g id="Chevron-down-4" data-name="Chevron-down" transform="translate(214.5 266)">
          <g id="Group_8144-4" data-name="Group 8144">
            <rect id="Rectangle_5318-4" data-name="Rectangle 5318" width="20" height="20" fill="none"/>
            <path id="Path_5792-4" data-name="Path 5792" d="M18.75,15.072l1.2,1.2a.25.25,0,0,1,0,.4l-4.75,4.75a.25.25,0,0,1-.4,0l-4.7-4.75a.25.25,0,0,1,0-.4l1.2-1.2a.25.25,0,0,1,.4,0l3.3,3.35,3.35-3.4a.25.25,0,0,1,.4.05Z" transform="translate(-5 -7.472)" fill="#cbcbd2"/>
          </g>
        </g>
      </g>
      <g id="Group_264159" data-name="Group 264159">
        <circle id="Ellipse_409" data-name="Ellipse 409" cx="10" cy="10" r="10" transform="translate(20 316)" fill="#cbcbd2"/>
        <rect id="Rectangle_9766" data-name="Rectangle 9766" width="117" height="14" rx="7" transform="translate(60 319)" fill="#cbcbd2"/>
        <g id="Chevron-down-5" data-name="Chevron-down" transform="translate(214.5 316)">
          <g id="Group_8144-5" data-name="Group 8144">
            <rect id="Rectangle_5318-5" data-name="Rectangle 5318" width="20" height="20" fill="none"/>
            <path id="Path_5792-5" data-name="Path 5792" d="M18.75,15.072l1.2,1.2a.25.25,0,0,1,0,.4l-4.75,4.75a.25.25,0,0,1-.4,0l-4.7-4.75a.25.25,0,0,1,0-.4l1.2-1.2a.25.25,0,0,1,.4,0l3.3,3.35,3.35-3.4a.25.25,0,0,1,.4.05Z" transform="translate(-5 -7.472)" fill="#cbcbd2"/>
          </g>
        </g>
      </g>
      <g id="Group_264160" data-name="Group 264160">
        <circle id="Ellipse_410" data-name="Ellipse 410" cx="10" cy="10" r="10" transform="translate(20 366)" fill="#cbcbd2"/>
        <rect id="Rectangle_9767" data-name="Rectangle 9767" width="59" height="14" rx="7" transform="translate(60 369)" fill="#cbcbd2"/>
        <g id="Chevron-down-6" data-name="Chevron-down" transform="translate(214.5 366)">
          <g id="Group_8144-6" data-name="Group 8144">
            <rect id="Rectangle_5318-6" data-name="Rectangle 5318" width="20" height="20" fill="none"/>
            <path id="Path_5792-6" data-name="Path 5792" d="M18.75,15.072l1.2,1.2a.25.25,0,0,1,0,.4l-4.75,4.75a.25.25,0,0,1-.4,0l-4.7-4.75a.25.25,0,0,1,0-.4l1.2-1.2a.25.25,0,0,1,.4,0l3.3,3.35,3.35-3.4a.25.25,0,0,1,.4.05Z" transform="translate(-5 -7.472)" fill="#cbcbd2"/>
          </g>
        </g>
      </g>
      <g id="Group_264137" data-name="Group 264137" transform="translate(0 43)">
        <g id="Group_264161" data-name="Group 264161">
          <circle id="Ellipse_411" data-name="Ellipse 411" cx="10" cy="10" r="10" transform="translate(20 831)" fill="#cbcbd2"/>
          <rect id="Rectangle_9768" data-name="Rectangle 9768" width="50" height="14" rx="7" transform="translate(60 834)" fill="#cbcbd2"/>
        </g>
        <g id="Group_264163" data-name="Group 264163">
          <circle id="Ellipse_412" data-name="Ellipse 412" cx="10" cy="10" r="10" transform="translate(20 882)" fill="#cbcbd2"/>
          <rect id="Rectangle_9769" data-name="Rectangle 9769" width="109" height="14" rx="7" transform="translate(60 885)" fill="#cbcbd2"/>
        </g>
        <g id="Group_264162" data-name="Group 264162">
          <circle id="Ellipse_413" data-name="Ellipse 413" cx="10" cy="10" r="10" transform="translate(20 932)" fill="#cbcbd2"/>
          <rect id="Rectangle_9770" data-name="Rectangle 9770" width="55" height="14" rx="7" transform="translate(60 935)" fill="#cbcbd2"/>
        </g>
        <rect id="Rectangle_9771" data-name="Rectangle 9771" width="249.5" height="1" transform="translate(0 917)" fill="#e6e6ea"/>
      </g>
    </g>
    <g id="Top_Bar" data-name="Top Bar">
      <rect id="Rectangle_1" data-name="Rectangle 1" width="1920" height="60" fill="#fff"/>
      <path id="Path_5690" data-name="Path 5690" d="M0,0H1920V5H0Z" transform="translate(0 60)" fill="#2777d3"/>
      <g id="Group_12278" data-name="Group 12278" transform="translate(1712)">
        <rect id="Rectangle_5392" data-name="Rectangle 5392" width="208" height="60" fill="none"/>
        <g id="Group_8927" data-name="Group 8927" transform="translate(72 14)">
          <text id="Adam_Gilson" data-name="Adam Gilson" transform="translate(81 15)" fill="#494955" font-size="14" font-family="SegoeUI-Semibold, Segoe UI" font-weight="600"><tspan x="-81.033" y="0">Adam Gilson</tspan></text>
        </g>
        <circle id="Ellipse_402" data-name="Ellipse 402" cx="18" cy="18" r="18" transform="translate(162 13)" fill="#78788c"/>
        <text id="Willis_Insurance_-_Nashville" data-name="Willis Insurance - Nashville" transform="translate(153 45)" fill="#494955" font-size="12" font-family="SegoeUI, Segoe UI"><tspan x="-141.047" y="0">Willis Insurance - Nashville</tspan></text>
        <text id="AG" transform="translate(171 36)" fill="#fff" font-size="14" font-family="SegoeUI-Semibold, Segoe UI" font-weight="600"><tspan x="0" y="0">AG</tspan></text>
      </g>
      <g id="Group_70" data-name="Group 70" transform="translate(-3.8)">
        <rect id="Rectangle_2" data-name="Rectangle 2" width="390" height="42" rx="2" transform="translate(254.8 9)" fill="#fff"/>
        <path id="Rectangle_2_-_Outline" data-name="Rectangle 2 - Outline" d="M2,1A1,1,0,0,0,1,2V40a1,1,0,0,0,1,1H388a1,1,0,0,0,1-1V2a1,1,0,0,0-1-1H2M2,0H388a2,2,0,0,1,2,2V40a2,2,0,0,1-2,2H2a2,2,0,0,1-2-2V2A2,2,0,0,1,2,0Z" transform="translate(254.8 9)" fill="#dbdbdb"/>
        <text id="Search" transform="translate(268.8 36)" fill="#c6c6c6" font-size="14" font-family="OpenSans-Regular, Open Sans"><tspan x="0" y="0">Search</tspan></text>
        <path id="Rectangle_3" data-name="Rectangle 3" d="M0,0H47a1,1,0,0,1,1,1V39a1,1,0,0,1-1,1H0a0,0,0,0,1,0,0V0A0,0,0,0,1,0,0Z" transform="translate(595.8 10)" fill="#fafafa"/>
        <rect id="Rectangle_4" data-name="Rectangle 4" width="1" height="40" transform="translate(595.8 10)" fill="#ebebeb"/>
        <path id="Path_3" data-name="Path 3" d="M303.8,258.3l-5-5a6.354,6.354,0,0,0,1.1-4.9,6.471,6.471,0,0,0-5.6-5.3,6.53,6.53,0,0,0-2,12.9,6.914,6.914,0,0,0,4.9-1.1l5,5a1.088,1.088,0,0,0,1.5,0A1.222,1.222,0,0,0,303.8,258.3Zm-14.7-9.5a4.458,4.458,0,0,1,3.7-3.7,4.57,4.57,0,0,1,5.2,5.2,4.458,4.458,0,0,1-3.7,3.7A4.609,4.609,0,0,1,289.1,248.8Z" transform="translate(324.8 -222.052)" fill="#5786bd"/>
        <path id="Path_4" data-name="Path 4" d="M284.1,240h24v24h-24Z" transform="translate(327.8 -222)" fill="none"/>
        <rect id="Rectangle_6" data-name="Rectangle 6" width="24" height="24" transform="translate(611.8 18)" fill="none"/>
        <rect id="Rectangle_7" data-name="Rectangle 7" width="24" height="24" transform="translate(571.8 18)" fill="none"/>
      </g>
      <g id="Group_264060" data-name="Group 264060" transform="translate(-1 -4)">
        <rect id="Rectangle_6838" data-name="Rectangle 6838" width="5" height="5" rx="1" transform="translate(20 26)" fill="#8b8d8e"/>
        <rect id="Rectangle_6838-2" data-name="Rectangle 6838" width="5" height="5" rx="1" transform="translate(27 26)" fill="#8b8d8e"/>
        <rect id="Rectangle_6838-3" data-name="Rectangle 6838" width="5" height="5" rx="1" transform="translate(34 26)" fill="#8b8d8e"/>
        <rect id="Rectangle_6838-4" data-name="Rectangle 6838" width="5" height="5" rx="1" transform="translate(20 33)" fill="#8b8d8e"/>
        <rect id="Rectangle_6838-5" data-name="Rectangle 6838" width="5" height="5" rx="1" transform="translate(27 33)" fill="#8b8d8e"/>
        <rect id="Rectangle_6838-6" data-name="Rectangle 6838" width="5" height="5" rx="1" transform="translate(34 33)" fill="#8b8d8e"/>
        <rect id="Rectangle_6838-7" data-name="Rectangle 6838" width="5" height="5" rx="1" transform="translate(20 40)" fill="#8b8d8e"/>
        <rect id="Rectangle_6838-8" data-name="Rectangle 6838" width="5" height="5" rx="1" transform="translate(27 40)" fill="#8b8d8e"/>
        <rect id="Rectangle_6838-9" data-name="Rectangle 6838" width="5" height="5" rx="1" transform="translate(34 40)" fill="#8b8d8e"/>
        <g id="Group_8109" data-name="Group 8109" transform="translate(-179.611 -26.669)">
          <g id="Group_8108" data-name="Group 8108" transform="translate(240.611 52.669)">
            <path id="Path_5691" data-name="Path 5691" d="M338.172,52.669l-5.535,12.224L327.1,52.669h-2.214l7.75,17.142,7.756-17.142Z" transform="translate(-253.576 -52.669)" fill="#8b8d8e"/>
            <path id="Path_5692" data-name="Path 5692" d="M319.588,69.811h2.219l-7.739-17.142h-.847l-7.739,17.142h2.225l1.7-3.794h8.485ZM310.31,64l3.332-7.348L316.975,64Z" transform="translate(-250.591 -52.669)" fill="#8b8d8e"/>
            <path id="Path_5693" data-name="Path 5693" d="M349.812,61.923h6.161V59.9h-6.161V54.682h6.7l1.075-2.013h-9.8V69.811h8.739l1.075-2.063h-7.792Z" transform="translate(-257.1 -52.669)" fill="#8b8d8e"/>
            <path id="Path_5694" data-name="Path 5694" d="M298.3,52.669,292.8,64.892,287.9,54.155l-4.864,10.737-5.318-12.223h-3.3l-2.965,6.545,1.111,2.457,3.4-7.509,7.068,15.648L287.9,59.054,292.8,69.811l7.706-17.142Z" transform="translate(-245.356 -52.669)" fill="#8b8d8e"/>
            <path id="Path_5695" data-name="Path 5695" d="M244.327,67.767l9.815-15.09h-11.9l-.918,2.008h9.1l-9.814,15.09h13.52l.908-2.008Z" transform="translate(-240.611 -52.67)" fill="#8b8d8e"/>
          </g>
          <path id="Path_5696" data-name="Path 5696" d="M264.519,52.669h-4.4l4.955,11-4.955,11h4.4l4.987-11Z" transform="translate(-3.001)" fill="#5fb53b"/>
        </g>
      </g>
    </g>
    <g id="Top_Bar-2" data-name="Top Bar">
      <rect id="Rectangle_1-2" data-name="Rectangle 1" width="1920" height="60" fill="#fff"/>
      <path id="Path_5690-2" data-name="Path 5690" d="M0,0H1920V5H0Z" transform="translate(0 60)" fill="#afafbb"/>
      <g id="Group_12278-2" data-name="Group 12278" transform="translate(1712)">
        <rect id="Rectangle_5392-2" data-name="Rectangle 5392" width="208" height="60" fill="none"/>
        <circle id="Ellipse_402-2" data-name="Ellipse 402" cx="18" cy="18" r="18" transform="translate(162 13)" fill="#afafbb"/>
        <rect id="Rectangle_9756" data-name="Rectangle 9756" width="81" height="12" rx="6" transform="translate(72 18)" fill="#afafbb"/>
        <rect id="Rectangle_9757" data-name="Rectangle 9757" width="140" height="12" rx="6" transform="translate(13 34)" fill="#afafbb"/>
      </g>
      <g id="Group_12989" data-name="Group 12989">
        <rect id="Rectangle_6530" data-name="Rectangle 6530" width="198" height="60" fill="none"/>
        <g id="Group_72" data-name="Group 72" transform="translate(57 20)">
          <g id="Group_6" data-name="Group 6">
            <path id="Path_467" data-name="Path 467" d="M440.678,0l-6.233,13.788L428.193,0H425.7l8.745,19.322L443.19,0Z" transform="translate(-345.294)" fill="#afafbb"/>
            <path id="Path_468" data-name="Path 468" d="M343.6,19.322h2.512L337.39,0h-.963L327.7,19.322h2.512l1.908-4.269H341.7ZM333.14,12.787,336.9,4.5l3.759,8.292Z" transform="translate(-265.804)" fill="#afafbb"/>
            <path id="Path_469" data-name="Path 469" d="M543.685,10.426h6.951V8.16h-6.951V2.267h7.555L552.45,0H541.4V19.322h9.859L552.468,17h-8.783Z" transform="translate(-439.14)" fill="#afafbb"/>
            <path id="Path_470" data-name="Path 470" d="M186.078,0l-6.2,13.788L174.348,1.681l-5.5,12.107L162.864,0h-3.721L155.8,7.385l1.247,2.758,3.834-8.462,7.971,17.641,5.5-12.126,5.534,12.126L188.571,0Z" transform="translate(-126.372)" fill="#afafbb"/>
            <path id="Path_471" data-name="Path 471" d="M4.193,17.018,15.262,0H1.851L.812,2.267H11.068L0,19.285H15.243l1.02-2.267Z" fill="#afafbb"/>
          </g>
          <path id="Path_472" data-name="Path 472" d="M103.468,0H98.5l5.591,12.409L98.5,24.8h4.968L109.1,12.409Z" transform="translate(-79.895)" fill="#78788c"/>
        </g>
        <g id="Group_12812" data-name="Group 12812" transform="translate(10 12)">
          <g id="Icon_Link_-_Hover" data-name="Icon Link - Hover">
            <rect id="Rectangle_5756" data-name="Rectangle 5756" width="36" height="36" rx="18" fill="none"/>
          </g>
          <path id="Path_8220" data-name="Path 8220" d="M172,94.5v3a.472.472,0,0,1-.5.5h-3a.472.472,0,0,1-.5-.5v-3a.472.472,0,0,1,.5-.5h3A.472.472,0,0,1,172,94.5Zm5.5-.5h-3a.472.472,0,0,0-.5.5v3a.472.472,0,0,0,.5.5h3a.472.472,0,0,0,.5-.5v-3A.472.472,0,0,0,177.5,94Zm-6,12h-3a.472.472,0,0,0-.5.5v3a.472.472,0,0,0,.5.5h3a.472.472,0,0,0,.5-.5v-3A.472.472,0,0,0,171.5,106Zm12-12h-3a.472.472,0,0,0-.5.5v3a.472.472,0,0,0,.5.5h3a.472.472,0,0,0,.5-.5v-3A.472.472,0,0,0,183.5,94Zm-12,6h-3a.472.472,0,0,0-.5.5v3a.472.472,0,0,0,.5.5h3a.472.472,0,0,0,.5-.5v-3A.472.472,0,0,0,171.5,100Zm6,0h-3a.472.472,0,0,0-.5.5v3a.472.472,0,0,0,.5.5h3a.472.472,0,0,0,.5-.5v-3A.472.472,0,0,0,177.5,100Zm0,6h-3a.472.472,0,0,0-.5.5v3a.472.472,0,0,0,.5.5h3a.472.472,0,0,0,.5-.5v-3A.472.472,0,0,0,177.5,106Zm6-6h-3a.472.472,0,0,0-.5.5v3a.472.472,0,0,0,.5.5h3a.472.472,0,0,0,.5-.5v-3A.472.472,0,0,0,183.5,100Zm0,6h-3a.472.472,0,0,0-.5.5v3a.472.472,0,0,0,.5.5h3a.472.472,0,0,0,.5-.5v-3A.472.472,0,0,0,183.5,106Z" transform="translate(-158 -84)" fill="#78788c"/>
        </g>
      </g>
    </g>
    <rect id="Rectangle_9858" data-name="Rectangle 9858" width="171" height="14" rx="7" transform="translate(579 170)" fill="#afafbb"/>
    <g id="Group_267029" data-name="Group 267029" transform="translate(-532 -6)">
      <g transform="matrix(1, 0, 0, 1, 532, 6)" filter="url(#Card)">
        <rect id="Card-3" data-name="Card" width="790" height="754" rx="2" transform="translate(284 170)" fill="#fff"/>
      </g>
      <g id="Input-Top" transform="translate(836 329)">
        <rect id="Rectangle_288" data-name="Rectangle 288" width="600" height="42" rx="4" transform="translate(0 21)" fill="#fff"/>
        <path id="Rectangle_288_-_Outline" data-name="Rectangle 288 - Outline" d="M4,4V38H596V4H4M4,0H596a4,4,0,0,1,4,4V38a4,4,0,0,1-4,4H4a4,4,0,0,1-4-4V4A4,4,0,0,1,4,0Z" transform="translate(0 21)" fill="#cbcbd2"/>
        <rect id="Rectangle_9786" data-name="Rectangle 9786" width="290" height="13" rx="6.5" transform="translate(15 36)" fill="#cbcbd2"/>
        <rect id="Rectangle_9818" data-name="Rectangle 9818" width="92" height="16" rx="8" fill="#afafbb"/>
      </g>
      <g id="Dropdown_Multi-Select_-_Top_-_Filled" data-name="Dropdown Multi-Select - Top - Filled" transform="translate(836 246)">
        <rect id="Rectangle_9785" data-name="Rectangle 9785" width="118" height="16" rx="8" fill="#afafbb"/>
        <g id="Rectangle_288-2" data-name="Rectangle 288" transform="translate(0 21)" fill="#fff" stroke="#cbcbd2" stroke-width="4">
          <rect width="700" height="42" rx="4" stroke="none"/>
          <rect x="2" y="2" width="696" height="38" rx="2" fill="none"/>
        </g>
        <rect id="Rectangle_9786-2" data-name="Rectangle 9786" width="217" height="13" rx="6.5" transform="translate(15 36)" fill="#cbcbd2"/>
        <circle id="Ellipse_414" data-name="Ellipse 414" cx="8" cy="8" r="8" transform="translate(670 35)" fill="#cbcbd2"/>
      </g>
      <rect id="Card-4" data-name="Card" width="790" height="50" rx="2" transform="translate(816 176)" fill="#fafafa"/>
      <rect id="Rectangle_9828" data-name="Rectangle 9828" width="77" height="13" rx="6.5" transform="translate(836 195)" fill="#afafbb"/>
      <path id="Line_56" data-name="Line 56" d="M790,.5H0v-1H790Z" transform="translate(816 226)" fill="#e6e6ea"/>
      <g id="Input-Top-2" data-name="Input-Top" transform="translate(836 412)">
        <rect id="Rectangle_288-3" data-name="Rectangle 288" width="600" height="42" rx="4" transform="translate(0 21)" fill="#fff"/>
        <path id="Rectangle_288_-_Outline-2" data-name="Rectangle 288 - Outline" d="M4,4V38H596V4H4M4,0H596a4,4,0,0,1,4,4V38a4,4,0,0,1-4,4H4a4,4,0,0,1-4-4V4A4,4,0,0,1,4,0Z" transform="translate(0 21)" fill="#cbcbd2"/>
        <rect id="Rectangle_9786-3" data-name="Rectangle 9786" width="187" height="13" rx="6.5" transform="translate(15 36)" fill="#cbcbd2"/>
        <rect id="Rectangle_9818-2" data-name="Rectangle 9818" width="92" height="16" rx="8" fill="#afafbb"/>
      </g>
      <g id="Input-Top-3" data-name="Input-Top" transform="translate(834 495)">
        <rect id="Rectangle_288-4" data-name="Rectangle 288" width="702" height="207" rx="4" transform="translate(0 21)" fill="#fff"/>
        <path id="Rectangle_288_-_Outline-3" data-name="Rectangle 288 - Outline" d="M4,4V203s0,0,0,0H698V4H4M4,0H698a4,4,0,0,1,4,4V203a4,4,0,0,1-4,4H4a4,4,0,0,1-4-4V4A4,4,0,0,1,4,0Z" transform="translate(0 21)" fill="#cbcbd2"/>
        <rect id="Rectangle_9786-4" data-name="Rectangle 9786" width="660" height="13" rx="6.5" transform="translate(15 94)" fill="#cbcbd2"/>
        <path id="Line_129" data-name="Line 129" d="M694,.5H0v-1H694Z" transform="translate(4 74)" fill="#e6e6ea"/>
        <rect id="Rectangle_9818-3" data-name="Rectangle 9818" width="92" height="16" rx="8" fill="#afafbb"/>
        <rect id="Rectangle_10637" data-name="Rectangle 10637" width="218" height="13" rx="6.5" transform="translate(15 117)" fill="#cbcbd2"/>
        <rect id="Rectangle_10638" data-name="Rectangle 10638" width="89" height="13" rx="6.5" transform="translate(15 160)" fill="#cbcbd2"/>
        <rect id="Rectangle_10639" data-name="Rectangle 10639" width="138" height="13" rx="6.5" transform="translate(15 183)" fill="#cbcbd2"/>
        <circle id="Ellipse_414-2" data-name="Ellipse 414" cx="8" cy="8" r="8" transform="translate(15 42)" fill="#cbcbd2"/>
        <circle id="Ellipse_2190" data-name="Ellipse 2190" cx="8" cy="8" r="8" transform="translate(41 42)" fill="#cbcbd2"/>
        <circle id="Ellipse_2191" data-name="Ellipse 2191" cx="8" cy="8" r="8" transform="translate(87 42)" fill="#cbcbd2"/>
        <circle id="Ellipse_2192" data-name="Ellipse 2192" cx="8" cy="8" r="8" transform="translate(113 42)" fill="#cbcbd2"/>
        <circle id="Ellipse_2193" data-name="Ellipse 2193" cx="8" cy="8" r="8" transform="translate(139 42)" fill="#cbcbd2"/>
        <rect id="Rectangle_10640" data-name="Rectangle 10640" width="242" height="13" rx="6.5" transform="translate(0 248)" fill="#cbcbd2"/>
      </g>
      <g id="Input-Top-4" data-name="Input-Top" transform="translate(836 776)">
        <rect id="Rectangle_288-5" data-name="Rectangle 288" width="600" height="42" rx="4" transform="translate(0 21)" fill="#fff"/>
        <path id="Rectangle_288_-_Outline-4" data-name="Rectangle 288 - Outline" d="M4,4V38H596V4H4M4,0H596a4,4,0,0,1,4,4V38a4,4,0,0,1-4,4H4a4,4,0,0,1-4-4V4A4,4,0,0,1,4,0Z" transform="translate(0 21)" fill="#cbcbd2"/>
        <rect id="Rectangle_9786-5" data-name="Rectangle 9786" width="113" height="13" rx="6.5" transform="translate(15 36)" fill="#cbcbd2"/>
        <rect id="Rectangle_9818-4" data-name="Rectangle 9818" width="92" height="16" rx="8" fill="#afafbb"/>
      </g>
      <rect id="Rectangle_10641" data-name="Rectangle 10641" width="174" height="13" rx="6.5" transform="translate(834 876)" fill="#cbcbd2"/>
    </g>
    <g id="Group_267044" data-name="Group 267044" transform="translate(288 -6)">
      <g transform="matrix(1, 0, 0, 1, -288, 6)" filter="url(#Card-2)">
        <rect id="Card-5" data-name="Card" width="790" height="754" rx="2" transform="translate(1104 170)" fill="#fff"/>
      </g>
      <rect id="Rectangle_9854" data-name="Rectangle 9854" width="266" height="30" rx="15" transform="translate(846 338)" fill="#afafbb"/>
      <rect id="Card-6" data-name="Card" width="790" height="50" rx="2" transform="translate(816 176)" fill="#fafafa"/>
      <rect id="Rectangle_10636" data-name="Rectangle 10636" width="95" height="13" rx="6.5" transform="translate(836 195)" fill="#afafbb"/>
      <path id="Line_56-2" data-name="Line 56" d="M790,.5H0v-1H790Z" transform="translate(816 226)" fill="#e6e6ea"/>
      <rect id="Rectangle_10629" data-name="Rectangle 10629" width="603" height="2" transform="translate(846 306)" fill="#afafbb"/>
      <rect id="Rectangle_10642" data-name="Rectangle 10642" width="96" height="27" rx="13.5" transform="translate(846 256)" fill="#afafbb"/>
      <rect id="Rectangle_10643" data-name="Rectangle 10643" width="406" height="13" rx="6.5" transform="translate(846 399)" fill="#cbcbd2"/>
      <rect id="Rectangle_10644" data-name="Rectangle 10644" width="306" height="13" rx="6.5" transform="translate(846 422)" fill="#cbcbd2"/>
      <rect id="Rectangle_10645" data-name="Rectangle 10645" width="89" height="13" rx="6.5" transform="translate(846 465)" fill="#cbcbd2"/>
      <rect id="Rectangle_10646" data-name="Rectangle 10646" width="138" height="13" rx="6.5" transform="translate(846 488)" fill="#cbcbd2"/>
      <g id="Primary_Button" data-name="Primary Button" transform="translate(846 543)">
        <rect id="Rectangle_3990" data-name="Rectangle 3990" width="100" height="30" rx="15" fill="#78788c"/>
      </g>
    </g>
    <g id="Focus_form" data-name="Focus form">
      <rect id="Rectangle_9769-2" data-name="Rectangle 9769" width="1670" height="76" transform="translate(250 64)" fill="#2777d3"/>
      <text id="Download_document" data-name="Download document" transform="translate(280 109)" fill="#fff" font-size="16" font-family="SegoeUI-Semibold, Segoe UI" font-weight="600"><tspan x="0" y="0">Download document</tspan></text>
      <g id="Link_Button" data-name="Link Button" transform="translate(1686 86)">
        <g id="Group_264143" data-name="Group 264143">
          <rect id="Rectangle_6075" data-name="Rectangle 6075" width="69" height="34" rx="17" fill="rgba(255,255,255,0)"/>
          <text id="Cancel" transform="translate(15 22)" fill="#fff" font-size="13" font-family="SegoeUI-Semibold, Segoe UI" font-weight="600"><tspan x="0" y="0">Cancel</tspan></text>
        </g>
      </g>
      <g id="Dropdown_Button" data-name="Dropdown Button" transform="translate(1664.005 84)">
        <g id="Dropdown_options" data-name="Dropdown options" transform="translate(-16)">
          <g transform="matrix(1, 0, 0, 1, -1648, -84)" filter="url(#Rectangle_10023)">
            <rect id="Rectangle_10023-2" data-name="Rectangle 10023" width="240" height="118" transform="translate(1664 120)" fill="#fff"/>
          </g>
          <g id="dropdown_item" data-name="dropdown item" transform="translate(16 42)">
            <rect id="Rectangle_4665" data-name="Rectangle 4665" width="240" height="36" fill="#fff"/>
            <text id="PDF" transform="translate(15 22)" fill="#494955" font-size="14" font-family="SegoeUI, Segoe UI"><tspan x="0" y="0">PDF</tspan></text>
          </g>
          <g id="dropdown_item-2" data-name="dropdown item" transform="translate(16 78)">
            <rect id="Rectangle_4665-2" data-name="Rectangle 4665" width="240" height="36" fill="#fff"/>
            <text id="Word" transform="translate(15 22)" fill="#494955" font-size="14" font-family="SegoeUI, Segoe UI"><tspan x="0" y="0">Word</tspan></text>
          </g>
          <g id="dropdown_item-3" data-name="dropdown item" transform="translate(16 114)">
            <rect id="Rectangle_4665-3" data-name="Rectangle 4665" width="240" height="36" fill="#fff"/>
            <text id="Shareable_link" data-name="Shareable link" transform="translate(15 22)" fill="#494955" font-size="14" font-family="SegoeUI, Segoe UI"><tspan x="0" y="0">Shareable link</tspan></text>
          </g>
        </g>
        <g id="Group_264634" data-name="Group 264634" transform="translate(100.51 8)">
          <path id="Path_7189" data-name="Path 7189" d="M15.036,9.421,12,12.457,8.964,9.421a1,1,0,0,0-1.414,0h0a1,1,0,0,0,0,1.414l3.743,3.743a1,1,0,0,0,1.414,0l3.743-3.743a1,1,0,0,0,0-1.414h0A1,1,0,0,0,15.036,9.421Z" transform="translate(61.743 -1)" fill="#fff"/>
          <text id="Action" transform="translate(16 15)" fill="#fff" font-size="14" font-family="SegoeUI-Semibold, Segoe UI" font-weight="600"><tspan x="0" y="0">Action</tspan></text>
        </g>
        <g id="Group_264632" data-name="Group 264632" transform="translate(100.51)">
          <rect id="Rectangle_3990-2" data-name="Rectangle 3990" width="139.49" height="36" rx="18" fill="#17477d"/>
          <g id="Group_264633" data-name="Group 264633">
            <path id="Path_7189-2" data-name="Path 7189" d="M15.036,9.421,12,12.457,8.964,9.421a1,1,0,0,0-1.414,0h0a1,1,0,0,0,0,1.414l3.743,3.743a1,1,0,0,0,1.414,0l3.743-3.743a1,1,0,0,0,0-1.414h0A1,1,0,0,0,15.036,9.421Z" transform="translate(126.743 29.999) rotate(180)" fill="#fff"/>
            <text id="Download_as" data-name="Download as" transform="translate(16 23)" fill="#fff" font-size="14" font-family="SegoeUI-Semibold, Segoe UI" font-weight="600"><tspan x="0" y="0">Download as</tspan></text>
          </g>
        </g>
      </g>
    </g>
  </g>
</svg>
