<svg xmlns="http://www.w3.org/2000/svg" xmlns:xlink="http://www.w3.org/1999/xlink" width="500" height="204" viewBox="0 0 500 204">
  <defs>
    <filter id="Rectangle_53" x="25.5" y="26.5" width="449" height="153" filterUnits="userSpaceOnUse">
      <feOffset dy="1" input="SourceAlpha"/>
      <feGaussianBlur stdDeviation="1.5" result="blur"/>
      <feFlood flood-opacity="0.161"/>
      <feComposite operator="in" in2="blur"/>
      <feComposite in="SourceGraphic"/>
    </filter>
    <clipPath id="clip-Header_Title_DO">
      <rect width="500" height="204"/>
    </clipPath>
  </defs>
  <g id="Header_Title_DO" clip-path="url(#clip-Header_Title_DO)">
    <rect width="500" height="204" fill="#f4f4f6"/>
    <g id="Group_264678" data-name="Group 264678" transform="translate(0 -378)">
      <g transform="matrix(1, 0, 0, 1, 0, 378)" filter="url(#Rectangle_53)">
        <rect id="Rectangle_53-2" data-name="Rectangle 53" width="440" height="144" rx="2" transform="translate(30 30)" fill="#fff"/>
      </g>
      <path id="Seventies" d="M10.883,0H8.852L3.5-8.234a3.651,3.651,0,0,1-.336-.648H3.117A11.534,11.534,0,0,1,3.18-7.344V0h-1.8V-11.2H3.547L8.719-3.164q.328.5.422.688h.031a9.954,9.954,0,0,1-.078-1.508V-11.2h1.789Zm8.711,0H17.836V-1.25H17.8A2.647,2.647,0,0,1,15.375.188a2.559,2.559,0,0,1-1.848-.641,2.241,2.241,0,0,1-.668-1.7q0-2.266,2.609-2.641l2.375-.336q0-1.711-1.625-1.711a3.86,3.86,0,0,0-2.578.984V-7.437a5.622,5.622,0,0,1,2.922-.75q3.031,0,3.031,2.984Zm-1.75-3.93-1.68.234a2.662,2.662,0,0,0-1.176.379,1.107,1.107,0,0,0-.395.973,1.065,1.065,0,0,0,.363.832,1.407,1.407,0,0,0,.973.324A1.8,1.8,0,0,0,17.3-1.77a2.064,2.064,0,0,0,.543-1.465ZM33.766,0H31.953V-4.359A3.533,3.533,0,0,0,31.6-6.18a1.308,1.308,0,0,0-1.2-.562,1.445,1.445,0,0,0-1.207.711,2.9,2.9,0,0,0-.5,1.7V0h-1.82V-4.508q0-2.234-1.578-2.234a1.424,1.424,0,0,0-1.207.672,2.963,2.963,0,0,0-.473,1.742V0H21.8V-8h1.813v1.266h.031a2.771,2.771,0,0,1,2.523-1.453,2.379,2.379,0,0,1,1.449.457,2.276,2.276,0,0,1,.848,1.2,2.855,2.855,0,0,1,2.656-1.656q2.641,0,2.641,3.258ZM42.75-3.508H37.3A2.305,2.305,0,0,0,37.98-1.8a2.543,2.543,0,0,0,1.793.6,3.954,3.954,0,0,0,2.352-.766V-.5a5.373,5.373,0,0,1-2.891.688A3.578,3.578,0,0,1,36.465-.9a4.359,4.359,0,0,1-1-3.066,4.263,4.263,0,0,1,1.105-3.043,3.616,3.616,0,0,1,2.746-1.176,3.153,3.153,0,0,1,2.539,1.055,4.379,4.379,0,0,1,.9,2.93ZM41-4.789a2.336,2.336,0,0,0-.461-1.52,1.54,1.54,0,0,0-1.25-.543,1.759,1.759,0,0,0-1.324.57A2.605,2.605,0,0,0,37.3-4.789Z" transform="translate(40 439)" fill="#31313a"/>
      <path id="Seventies-2" data-name="Seventies" d="M10-4.531Q10,.188,5.531.188,1.25.188,1.25-4.352V-11.2H3.109v6.469q0,3.3,2.563,3.3,2.469,0,2.469-3.18V-11.2H10ZM11.93-.25V-1.93a3.616,3.616,0,0,0,2.242.773q1.641,0,1.641-.969a.763.763,0,0,0-.141-.465,1.342,1.342,0,0,0-.379-.34A2.979,2.979,0,0,0,14.73-3.2q-.324-.117-.723-.266a7.65,7.65,0,0,1-.887-.414,2.679,2.679,0,0,1-.656-.5A1.873,1.873,0,0,1,12.07-5a2.316,2.316,0,0,1-.133-.82,1.9,1.9,0,0,1,.273-1.02,2.376,2.376,0,0,1,.734-.742,3.522,3.522,0,0,1,1.047-.453A4.793,4.793,0,0,1,15.2-8.187a5.5,5.5,0,0,1,1.984.336v1.586a3.345,3.345,0,0,0-1.937-.578,2.53,2.53,0,0,0-.621.07,1.6,1.6,0,0,0-.473.2.961.961,0,0,0-.3.3.718.718,0,0,0-.109.387.826.826,0,0,0,.109.438.993.993,0,0,0,.324.316,2.8,2.8,0,0,0,.516.25q.3.113.691.246a10.1,10.1,0,0,1,.926.43,3.129,3.129,0,0,1,.7.5,1.945,1.945,0,0,1,.445.641,2.175,2.175,0,0,1,.156.863,1.973,1.973,0,0,1-.281,1.063,2.344,2.344,0,0,1-.75.75A3.511,3.511,0,0,1,15.5.043,5.621,5.621,0,0,1,14.2.188,5.448,5.448,0,0,1,11.93-.25ZM26.1-3.508H20.648A2.305,2.305,0,0,0,21.332-1.8a2.543,2.543,0,0,0,1.793.6,3.954,3.954,0,0,0,2.352-.766V-.5a5.373,5.373,0,0,1-2.891.688A3.578,3.578,0,0,1,19.816-.9a4.359,4.359,0,0,1-1-3.066,4.263,4.263,0,0,1,1.105-3.043,3.616,3.616,0,0,1,2.746-1.176A3.153,3.153,0,0,1,25.2-7.133a4.379,4.379,0,0,1,.9,2.93Zm-1.75-1.281a2.336,2.336,0,0,0-.461-1.52,1.54,1.54,0,0,0-1.25-.543,1.759,1.759,0,0,0-1.324.57,2.605,2.605,0,0,0-.668,1.492Zm8.117-1.484a1.5,1.5,0,0,0-.945-.258A1.618,1.618,0,0,0,30.18-5.8a3.249,3.249,0,0,0-.539,1.977V0H27.828V-8h1.813v1.648h.031a2.787,2.787,0,0,1,.816-1.316,1.843,1.843,0,0,1,1.23-.473,1.528,1.528,0,0,1,.75.148ZM40.875,0H39.063V-4.508q0-2.242-1.586-2.242a1.731,1.731,0,0,0-1.367.621,2.3,2.3,0,0,0-.539,1.566V0H33.75V-8h1.82v1.328H35.6A2.851,2.851,0,0,1,38.2-8.187a2.416,2.416,0,0,1,1.992.848,3.806,3.806,0,0,1,.688,2.449Zm8.352,0H47.469V-1.25h-.031A2.647,2.647,0,0,1,45.008.188,2.559,2.559,0,0,1,43.16-.453a2.241,2.241,0,0,1-.668-1.7q0-2.266,2.609-2.641l2.375-.336q0-1.711-1.625-1.711a3.86,3.86,0,0,0-2.578.984V-7.437a5.622,5.622,0,0,1,2.922-.75q3.031,0,3.031,2.984Zm-1.75-3.93L45.8-3.7a2.662,2.662,0,0,0-1.176.379,1.107,1.107,0,0,0-.395.973,1.065,1.065,0,0,0,.363.832,1.407,1.407,0,0,0,.973.324,1.8,1.8,0,0,0,1.371-.582,2.064,2.064,0,0,0,.543-1.465ZM63.4,0H61.586V-4.359a3.533,3.533,0,0,0-.355-1.82,1.308,1.308,0,0,0-1.2-.562,1.445,1.445,0,0,0-1.207.711,2.9,2.9,0,0,0-.5,1.7V0h-1.82V-4.508q0-2.234-1.578-2.234a1.424,1.424,0,0,0-1.207.672,2.963,2.963,0,0,0-.473,1.742V0H51.438V-8H53.25v1.266h.031A2.771,2.771,0,0,1,55.8-8.187a2.379,2.379,0,0,1,1.449.457,2.276,2.276,0,0,1,.848,1.2,2.855,2.855,0,0,1,2.656-1.656q2.641,0,2.641,3.258Zm8.984-3.508H66.93A2.305,2.305,0,0,0,67.613-1.8a2.543,2.543,0,0,0,1.793.6,3.954,3.954,0,0,0,2.352-.766V-.5a5.373,5.373,0,0,1-2.891.688A3.578,3.578,0,0,1,66.1-.9a4.359,4.359,0,0,1-1-3.066A4.263,4.263,0,0,1,66.2-7.012a3.616,3.616,0,0,1,2.746-1.176,3.153,3.153,0,0,1,2.539,1.055,4.379,4.379,0,0,1,.9,2.93Zm-1.75-1.281a2.336,2.336,0,0,0-.461-1.52,1.54,1.54,0,0,0-1.25-.543,1.759,1.759,0,0,0-1.324.57,2.605,2.605,0,0,0-.668,1.492Z" transform="translate(40 489)" fill="#31313a"/>
      <path id="Seventies-3" data-name="Seventies" d="M3.234-4.062V0H1.383V-11.2h3.4a4.5,4.5,0,0,1,2.992.9A3.133,3.133,0,0,1,8.836-7.773,3.5,3.5,0,0,1,7.727-5.1a4.212,4.212,0,0,1-3,1.039Zm0-5.609v4.094h1.2a2.661,2.661,0,0,0,1.82-.555A1.98,1.98,0,0,0,6.883-7.7q0-1.977-2.3-1.977ZM16.211,0H14.453V-1.25h-.031A2.647,2.647,0,0,1,11.992.188a2.559,2.559,0,0,1-1.848-.641,2.241,2.241,0,0,1-.668-1.7q0-2.266,2.609-2.641l2.375-.336q0-1.711-1.625-1.711a3.86,3.86,0,0,0-2.578.984V-7.437a5.622,5.622,0,0,1,2.922-.75q3.031,0,3.031,2.984Zm-1.75-3.93-1.68.234a2.662,2.662,0,0,0-1.176.379,1.107,1.107,0,0,0-.395.973,1.065,1.065,0,0,0,.363.832,1.407,1.407,0,0,0,.973.324,1.8,1.8,0,0,0,1.371-.582,2.064,2.064,0,0,0,.543-1.465ZM17.922-.25V-1.93a3.616,3.616,0,0,0,2.242.773q1.641,0,1.641-.969a.763.763,0,0,0-.141-.465,1.342,1.342,0,0,0-.379-.34,2.979,2.979,0,0,0-.562-.266Q20.4-3.312,20-3.461a7.65,7.65,0,0,1-.887-.414,2.679,2.679,0,0,1-.656-.5A1.873,1.873,0,0,1,18.063-5a2.316,2.316,0,0,1-.133-.82A1.9,1.9,0,0,1,18.2-6.84a2.376,2.376,0,0,1,.734-.742,3.522,3.522,0,0,1,1.047-.453A4.793,4.793,0,0,1,21.2-8.187a5.5,5.5,0,0,1,1.984.336v1.586a3.345,3.345,0,0,0-1.937-.578,2.53,2.53,0,0,0-.621.07,1.6,1.6,0,0,0-.473.2.961.961,0,0,0-.3.3.718.718,0,0,0-.109.387.826.826,0,0,0,.109.438.993.993,0,0,0,.324.316,2.8,2.8,0,0,0,.516.25q.3.113.691.246a10.1,10.1,0,0,1,.926.43,3.129,3.129,0,0,1,.7.5,1.945,1.945,0,0,1,.445.641,2.175,2.175,0,0,1,.156.863,1.973,1.973,0,0,1-.281,1.063,2.344,2.344,0,0,1-.75.75,3.511,3.511,0,0,1-1.082.441A5.621,5.621,0,0,1,20.2.188,5.448,5.448,0,0,1,17.922-.25Zm6.9,0V-1.93a3.616,3.616,0,0,0,2.242.773q1.641,0,1.641-.969a.763.763,0,0,0-.141-.465,1.342,1.342,0,0,0-.379-.34,2.979,2.979,0,0,0-.562-.266q-.324-.117-.723-.266a7.65,7.65,0,0,1-.887-.414,2.679,2.679,0,0,1-.656-.5A1.873,1.873,0,0,1,24.961-5a2.316,2.316,0,0,1-.133-.82A1.9,1.9,0,0,1,25.1-6.84a2.376,2.376,0,0,1,.734-.742,3.522,3.522,0,0,1,1.047-.453,4.793,4.793,0,0,1,1.211-.152,5.5,5.5,0,0,1,1.984.336v1.586a3.345,3.345,0,0,0-1.937-.578,2.53,2.53,0,0,0-.621.07,1.6,1.6,0,0,0-.473.2.961.961,0,0,0-.3.3.718.718,0,0,0-.109.387.826.826,0,0,0,.109.438.993.993,0,0,0,.324.316,2.8,2.8,0,0,0,.516.25q.3.113.691.246a10.1,10.1,0,0,1,.926.43,3.129,3.129,0,0,1,.7.5,1.945,1.945,0,0,1,.445.641,2.175,2.175,0,0,1,.156.863,1.973,1.973,0,0,1-.281,1.063,2.344,2.344,0,0,1-.75.75,3.511,3.511,0,0,1-1.082.441,5.621,5.621,0,0,1-1.293.145A5.448,5.448,0,0,1,24.82-.25ZM42.977-8,40.617,0h-1.9L37.266-5.422a3.434,3.434,0,0,1-.109-.7h-.031a3.206,3.206,0,0,1-.141.688L35.406,0H33.547L31.2-8H33.07l1.453,5.766a3.416,3.416,0,0,1,.094.688h.055a3.713,3.713,0,0,1,.125-.7L36.414-8h1.7l1.438,5.789a4.049,4.049,0,0,1,.1.688h.055a3.646,3.646,0,0,1,.117-.687L41.25-8ZM47.8.188A3.965,3.965,0,0,1,44.848-.934a4.05,4.05,0,0,1-1.105-2.973,4.214,4.214,0,0,1,1.152-3.148A4.237,4.237,0,0,1,48-8.187a3.838,3.838,0,0,1,2.922,1.1,4.255,4.255,0,0,1,1.047,3.055A4.193,4.193,0,0,1,50.84-.965,4.055,4.055,0,0,1,47.8.188Zm.086-6.93A2.069,2.069,0,0,0,46.211-6a3.108,3.108,0,0,0-.617,2.047,2.927,2.927,0,0,0,.625,1.98,2.1,2.1,0,0,0,1.672.723,1.992,1.992,0,0,0,1.645-.711,3.147,3.147,0,0,0,.574-2.023,3.2,3.2,0,0,0-.574-2.039A1.982,1.982,0,0,0,47.891-6.742Zm10.563.469a1.5,1.5,0,0,0-.945-.258,1.618,1.618,0,0,0-1.344.727,3.249,3.249,0,0,0-.539,1.977V0H53.813V-8h1.813v1.648h.031a2.787,2.787,0,0,1,.816-1.316,1.843,1.843,0,0,1,1.23-.473,1.528,1.528,0,0,1,.75.148ZM66.867,0H65.055V-1.359h-.031a2.891,2.891,0,0,1-2.7,1.547A2.909,2.909,0,0,1,59.965-.887a4.459,4.459,0,0,1-.887-2.926,4.858,4.858,0,0,1,.98-3.18,3.209,3.209,0,0,1,2.613-1.2,2.5,2.5,0,0,1,2.352,1.3h.031v-4.953h1.813ZM65.078-3.656V-4.7a2.04,2.04,0,0,0-.555-1.445,1.85,1.85,0,0,0-1.414-.594,1.9,1.9,0,0,0-1.6.758,3.377,3.377,0,0,0-.582,2.1,3.026,3.026,0,0,0,.559,1.926,1.817,1.817,0,0,0,1.5.707A1.881,1.881,0,0,0,64.5-1.934,2.575,2.575,0,0,0,65.078-3.656Z" transform="translate(40 537)" fill="#31313a"/>
      <path id="Path_101544" data-name="Path 101544" d="M3.794-3.514A4.381,4.381,0,0,1,3.056-.8,2.359,2.359,0,0,1,1.08.164,2.335,2.335,0,0,1,.137,0V-1.135a1.6,1.6,0,0,0,.957.267q1.552,0,1.552-2.632V-9.8H3.794ZM9.058.164A3.247,3.247,0,0,1,6.58-.817a3.633,3.633,0,0,1-.926-2.6,3.785,3.785,0,0,1,.964-2.755,3.465,3.465,0,0,1,2.6-.991,3.14,3.14,0,0,1,2.444.964,3.822,3.822,0,0,1,.878,2.673A3.761,3.761,0,0,1,11.6-.844,3.317,3.317,0,0,1,9.058.164ZM9.14-6.221a2.132,2.132,0,0,0-1.709.735A3.018,3.018,0,0,0,6.8-3.459,2.854,2.854,0,0,0,7.438-1.5a2.161,2.161,0,0,0,1.7.718,2.049,2.049,0,0,0,1.671-.7,3.055,3.055,0,0,0,.584-2,3.108,3.108,0,0,0-.584-2.023A2.04,2.04,0,0,0,9.14-6.221ZM20.146,0H19.024V-4.033q0-2.188-1.627-2.187a1.774,1.774,0,0,0-1.381.632,2.356,2.356,0,0,0-.561,1.624V0H14.335V-10.363h1.121v4.525h.027a2.546,2.546,0,0,1,2.3-1.326q2.365,0,2.365,2.851Zm7.923,0H26.947V-3.992q0-2.229-1.627-2.229a1.765,1.765,0,0,0-1.391.632,2.344,2.344,0,0,0-.55,1.6V0H22.258V-7h1.121v1.162h.027a2.526,2.526,0,0,1,2.3-1.326,2.142,2.142,0,0,1,1.757.742,3.3,3.3,0,0,1,.608,2.143Zm6.1,0V-9.8h2.707q5.182,0,5.182,4.778a4.815,4.815,0,0,1-1.439,3.647A5.338,5.338,0,0,1,36.764,0Zm1.148-8.764v7.725h1.463a4.152,4.152,0,0,0,3-1.032A3.869,3.869,0,0,0,40.852-5q0-3.767-4.006-3.767ZM46.758.164A3.247,3.247,0,0,1,44.28-.817a3.634,3.634,0,0,1-.926-2.6,3.785,3.785,0,0,1,.964-2.755,3.465,3.465,0,0,1,2.6-.991,3.14,3.14,0,0,1,2.444.964,3.822,3.822,0,0,1,.878,2.673A3.761,3.761,0,0,1,49.3-.844,3.317,3.317,0,0,1,46.758.164Zm.082-6.385a2.132,2.132,0,0,0-1.709.735A3.018,3.018,0,0,0,44.5-3.459,2.854,2.854,0,0,0,45.138-1.5a2.161,2.161,0,0,0,1.7.718,2.049,2.049,0,0,0,1.671-.7,3.055,3.055,0,0,0,.584-2,3.108,3.108,0,0,0-.584-2.023A2.04,2.04,0,0,0,46.84-6.221Zm10.821,3H52.719a2.618,2.618,0,0,0,.629,1.8A2.168,2.168,0,0,0,55-.779a3.439,3.439,0,0,0,2.174-.779V-.506a4.063,4.063,0,0,1-2.44.67A2.959,2.959,0,0,1,52.4-.79a3.9,3.9,0,0,1-.848-2.683,3.828,3.828,0,0,1,.926-2.663,2.97,2.97,0,0,1,2.3-1.029,2.632,2.632,0,0,1,2.126.889,3.705,3.705,0,0,1,.752,2.468Zm-1.148-.95a2.281,2.281,0,0,0-.468-1.511,1.6,1.6,0,0,0-1.282-.54,1.811,1.811,0,0,0-1.347.567,2.575,2.575,0,0,0-.684,1.483Z" transform="translate(261 438)" fill="#31313a"/>
      <path id="Path_101545" data-name="Path 101545" d="M2.256-.294a4.387,4.387,0,0,1-.694,2.656,2.326,2.326,0,0,1-1.986.933,2.108,2.108,0,0,1-.93-.219V2.03A1.855,1.855,0,0,0-.4,2.338q1.531,0,1.531-2.447V-7H2.256ZM1.709-8.777A.71.71,0,0,1,1.2-8.982.692.692,0,0,1,.984-9.5a.7.7,0,0,1,.212-.523.7.7,0,0,1,.513-.208.724.724,0,0,1,.523.208.7.7,0,0,1,.215.523.693.693,0,0,1-.215.513A.718.718,0,0,1,1.709-8.777ZM7.451.164A3.247,3.247,0,0,1,4.973-.817a3.633,3.633,0,0,1-.926-2.6,3.785,3.785,0,0,1,.964-2.755,3.465,3.465,0,0,1,2.6-.991,3.14,3.14,0,0,1,2.444.964,3.822,3.822,0,0,1,.878,2.673A3.761,3.761,0,0,1,9.991-.844,3.317,3.317,0,0,1,7.451.164Zm.082-6.385a2.132,2.132,0,0,0-1.709.735A3.018,3.018,0,0,0,5.2-3.459,2.854,2.854,0,0,0,5.831-1.5a2.161,2.161,0,0,0,1.7.718,2.049,2.049,0,0,0,1.671-.7,3.055,3.055,0,0,0,.584-2A3.108,3.108,0,0,0,9.2-5.51,2.04,2.04,0,0,0,7.533-6.221ZM18.539,0H17.418V-4.033q0-2.188-1.627-2.187a1.774,1.774,0,0,0-1.381.632,2.356,2.356,0,0,0-.561,1.624V0H12.729V-10.363H13.85v4.525h.027a2.546,2.546,0,0,1,2.3-1.326q2.365,0,2.365,2.851Zm7.923,0H25.341V-3.992q0-2.229-1.627-2.229a1.765,1.765,0,0,0-1.391.632,2.344,2.344,0,0,0-.55,1.6V0H20.651V-7h1.121v1.162H21.8a2.526,2.526,0,0,1,2.3-1.326,2.142,2.142,0,0,1,1.757.742,3.3,3.3,0,0,1,.608,2.143Zm2.5.15a.726.726,0,0,1-.537-.226.742.742,0,0,1-.222-.54.754.754,0,0,1,.222-.543.72.72,0,0,1,.537-.229.739.739,0,0,1,.547.229.748.748,0,0,1,.226.543.737.737,0,0,1-.226.54A.745.745,0,0,1,28.964.15ZM37.584,0H36.463V-1.189h-.027A2.588,2.588,0,0,1,34.029.164a2.615,2.615,0,0,1-2.109-.94,3.856,3.856,0,0,1-.79-2.56,4.2,4.2,0,0,1,.875-2.782,2.886,2.886,0,0,1,2.331-1.046,2.244,2.244,0,0,1,2.1,1.135h.027v-4.334h1.121ZM36.463-3.165V-4.2A2,2,0,0,0,35.9-5.633a1.88,1.88,0,0,0-1.422-.588,1.936,1.936,0,0,0-1.613.752,3.3,3.3,0,0,0-.588,2.078,2.964,2.964,0,0,0,.564,1.911,1.843,1.843,0,0,0,1.514.7,1.915,1.915,0,0,0,1.521-.677A2.521,2.521,0,0,0,36.463-3.165ZM42.779.164A3.247,3.247,0,0,1,40.3-.817a3.634,3.634,0,0,1-.926-2.6,3.785,3.785,0,0,1,.964-2.755,3.465,3.465,0,0,1,2.6-.991,3.14,3.14,0,0,1,2.444.964,3.822,3.822,0,0,1,.878,2.673,3.761,3.761,0,0,1-.947,2.683A3.317,3.317,0,0,1,42.779.164Zm.082-6.385a2.132,2.132,0,0,0-1.709.735,3.018,3.018,0,0,0-.629,2.027A2.854,2.854,0,0,0,41.159-1.5a2.161,2.161,0,0,0,1.7.718,2.049,2.049,0,0,0,1.671-.7,3.055,3.055,0,0,0,.584-2,3.108,3.108,0,0,0-.584-2.023A2.04,2.04,0,0,0,42.861-6.221Zm10.821,3H48.74a2.618,2.618,0,0,0,.629,1.8,2.168,2.168,0,0,0,1.654.636A3.439,3.439,0,0,0,53.2-1.559V-.506a4.063,4.063,0,0,1-2.44.67A2.959,2.959,0,0,1,48.426-.79a3.9,3.9,0,0,1-.848-2.683A3.828,3.828,0,0,1,48.5-6.135a2.97,2.97,0,0,1,2.3-1.029,2.632,2.632,0,0,1,2.126.889,3.705,3.705,0,0,1,.752,2.468Zm-1.148-.95a2.281,2.281,0,0,0-.468-1.511,1.6,1.6,0,0,0-1.282-.54,1.811,1.811,0,0,0-1.347.567,2.575,2.575,0,0,0-.684,1.483Zm9.666,1.3h-.034A1.968,1.968,0,0,1,60.2-1.244a1.859,1.859,0,0,1-1.507-.69,2.828,2.828,0,0,1-.571-1.859,4.074,4.074,0,0,1,.79-2.567A2.5,2.5,0,0,1,60.99-7.383a1.568,1.568,0,0,1,.878.253,1.125,1.125,0,0,1,.5.636h.027q.014-.191.068-.786h.854q-.321,3.767-.321,3.835,0,1.415.813,1.415a1.424,1.424,0,0,0,1.227-.8A3.926,3.926,0,0,0,65.522-4.9a4.154,4.154,0,0,0-1.189-3.069A4.453,4.453,0,0,0,61.038-9.16a4.392,4.392,0,0,0-3.356,1.422,5.01,5.01,0,0,0-1.326,3.555A4.635,4.635,0,0,0,57.617-.8a4.541,4.541,0,0,0,3.4,1.289A6.757,6.757,0,0,0,63.9-.068V.779a7.532,7.532,0,0,1-2.953.506,5.461,5.461,0,0,1-4.009-1.5,5.272,5.272,0,0,1-1.521-3.927,5.722,5.722,0,0,1,1.6-4.149,5.432,5.432,0,0,1,4.078-1.647,5.515,5.515,0,0,1,3.849,1.381,4.633,4.633,0,0,1,1.524,3.6,4.248,4.248,0,0,1-.8,2.669A2.4,2.4,0,0,1,63.7-1.244Q62.207-1.244,62.2-2.871ZM60.977-6.59a1.576,1.576,0,0,0-1.371.807,3.609,3.609,0,0,0-.523,2,2.06,2.06,0,0,0,.352,1.271,1.12,1.12,0,0,0,.94.465,1.505,1.505,0,0,0,1.343-.844,4.4,4.4,0,0,0,.5-2.239Q62.214-6.59,60.977-6.59ZM73.63-6.679,69.487-.957h4.1V0H67.84V-.349l4.143-5.694H68.229V-7h5.4ZM80.65-7l-3.22,8.121q-.861,2.174-2.42,2.174a2.565,2.565,0,0,1-.731-.089v-1a2.078,2.078,0,0,0,.663.123,1.374,1.374,0,0,0,1.271-1.012l.561-1.326L74.04-7h1.244l1.894,5.387q.034.1.144.533h.041q.034-.164.137-.52L79.488-7ZM90.672-7l-2.1,7H87.411L85.969-5.011a3.265,3.265,0,0,1-.109-.649h-.027a3.066,3.066,0,0,1-.144.636L84.123,0H83L80.883-7h1.176l1.449,5.264a3.171,3.171,0,0,1,.1.629h.055a2.942,2.942,0,0,1,.123-.643L85.395-7H86.42l1.449,5.277a3.768,3.768,0,0,1,.1.629h.055a2.909,2.909,0,0,1,.116-.629L89.564-7Zm6.31,7H95.86V-1.094h-.027A2.347,2.347,0,0,1,93.68.164,2.3,2.3,0,0,1,92.042-.39a1.918,1.918,0,0,1-.591-1.47q0-1.962,2.311-2.283l2.1-.294q0-1.784-1.442-1.784a3.446,3.446,0,0,0-2.283.861V-6.508a4.338,4.338,0,0,1,2.379-.656q2.468,0,2.468,2.611ZM95.86-3.541l-1.688.232A2.741,2.741,0,0,0,93-2.922a1.114,1.114,0,0,0-.4.981,1.068,1.068,0,0,0,.366.837,1.413,1.413,0,0,0,.974.325,1.8,1.8,0,0,0,1.377-.584,2.088,2.088,0,0,0,.543-1.48ZM104.6-7l-2.789,7h-1.1L98.055-7h1.23l1.777,5.086a4.565,4.565,0,0,1,.246.978h.027a4.622,4.622,0,0,1,.219-.95L103.414-7Zm6.829,3.78h-4.942a2.618,2.618,0,0,0,.629,1.8,2.168,2.168,0,0,0,1.654.636,3.439,3.439,0,0,0,2.174-.779V-.506a4.063,4.063,0,0,1-2.44.67,2.959,2.959,0,0,1-2.331-.954,3.9,3.9,0,0,1-.848-2.683,3.828,3.828,0,0,1,.926-2.663,2.97,2.97,0,0,1,2.3-1.029,2.632,2.632,0,0,1,2.126.889,3.705,3.705,0,0,1,.752,2.468Zm-1.148-.95a2.281,2.281,0,0,0-.468-1.511,1.6,1.6,0,0,0-1.282-.54,1.811,1.811,0,0,0-1.347.567A2.575,2.575,0,0,0,106.5-4.17ZM113.511.15a.726.726,0,0,1-.537-.226.742.742,0,0,1-.222-.54.754.754,0,0,1,.222-.543.72.72,0,0,1,.537-.229.739.739,0,0,1,.547.229.748.748,0,0,1,.226.543.737.737,0,0,1-.226.54A.745.745,0,0,1,113.511.15Zm7.417-.472a3.643,3.643,0,0,1-1.914.485A3.169,3.169,0,0,1,116.6-.81a3.53,3.53,0,0,1-.919-2.526,3.881,3.881,0,0,1,.991-2.779,3.467,3.467,0,0,1,2.646-1.049,3.682,3.682,0,0,1,1.627.342v1.148a2.85,2.85,0,0,0-1.668-.547,2.254,2.254,0,0,0-1.76.769,2.918,2.918,0,0,0-.687,2.02,2.779,2.779,0,0,0,.646,1.941,2.227,2.227,0,0,0,1.733.711,2.81,2.81,0,0,0,1.723-.608Zm4.621.485a3.247,3.247,0,0,1-2.478-.981,3.633,3.633,0,0,1-.926-2.6,3.785,3.785,0,0,1,.964-2.755,3.465,3.465,0,0,1,2.6-.991,3.14,3.14,0,0,1,2.444.964,3.822,3.822,0,0,1,.878,2.673,3.761,3.761,0,0,1-.947,2.683A3.317,3.317,0,0,1,125.549.164Zm.082-6.385a2.132,2.132,0,0,0-1.709.735,3.018,3.018,0,0,0-.629,2.027,2.854,2.854,0,0,0,.636,1.962,2.161,2.161,0,0,0,1.7.718,2.049,2.049,0,0,0,1.671-.7,3.055,3.055,0,0,0,.584-2A3.108,3.108,0,0,0,127.3-5.51,2.04,2.04,0,0,0,125.631-6.221ZM140.766,0h-1.121V-4.02a3.032,3.032,0,0,0-.359-1.682,1.361,1.361,0,0,0-1.207-.52,1.494,1.494,0,0,0-1.22.656,2.511,2.511,0,0,0-.5,1.572V0h-1.121V-4.156q0-2.064-1.593-2.064a1.475,1.475,0,0,0-1.217.619,2.557,2.557,0,0,0-.479,1.61V0h-1.121V-7h1.121v1.107h.027a2.378,2.378,0,0,1,2.174-1.271,2.027,2.027,0,0,1,1.251.4,2.012,2.012,0,0,1,.731,1.049,2.5,2.5,0,0,1,2.324-1.449q2.311,0,2.311,2.851Z" transform="translate(262 488)" fill="#31313a"/>
      <path id="Path_101546" data-name="Path 101546" d="M5.332-7.547l-1.873.383L4.758-5.5l-.752.52L2.939-6.795,1.859-4.983,1.107-5.5l1.3-1.661L.52-7.547.827-8.4l1.791.677L2.461-9.8H3.4L3.247-7.725l1.8-.677Zm5.838,0L9.3-7.164,10.6-5.5l-.752.52L8.777-6.795,7.7-4.983,6.945-5.5l1.3-1.661L6.357-7.547,6.665-8.4l1.791.677L8.3-9.8h.943L9.085-7.725l1.8-.677Zm5.838,0-1.873.383,1.3,1.661-.752.52L14.615-6.795l-1.08,1.812-.752-.52,1.3-1.661L12.2-7.547,12.5-8.4l1.791.677L14.137-9.8h.943l-.157,2.078,1.8-.677Zm5.838,0-1.873.383,1.3,1.661-.752.52L20.453-6.795l-1.08,1.812-.752-.52,1.3-1.661-1.887-.383.308-.854,1.791.677L19.975-9.8h.943l-.157,2.078,1.8-.677Zm5.838,0-1.873.383,1.3,1.661-.752.52L26.291-6.795l-1.08,1.812-.752-.52,1.3-1.661-1.887-.383.308-.854,1.791.677L25.813-9.8h.943L26.6-7.725,28.4-8.4Zm5.838,0-1.873.383,1.3,1.661-.752.52L32.129-6.795l-1.08,1.812L30.3-5.5l1.3-1.661-1.887-.383.308-.854,1.791.677L31.65-9.8h.943l-.157,2.078,1.8-.677Zm5.838,0-1.873.383,1.3,1.661-.752.52L37.967-6.795l-1.08,1.812-.752-.52,1.3-1.661-1.887-.383.308-.854,1.791.677L37.488-9.8h.943l-.157,2.078,1.8-.677Zm5.838,0-1.873.383,1.3,1.661-.752.52L43.8-6.795l-1.08,1.812-.752-.52,1.3-1.661-1.887-.383.308-.854,1.791.677L43.326-9.8h.943l-.157,2.078,1.8-.677Zm5.838,0-1.873.383,1.3,1.661-.752.52L49.643-6.795l-1.08,1.812-.752-.52,1.3-1.661-1.887-.383L47.53-8.4l1.791.677L49.164-9.8h.943L49.95-7.725l1.8-.677Z" transform="translate(261 536)" fill="#31313a"/>
      <g id="Icon_link" data-name="Icon link" transform="translate(424 414)">
        <g id="Group_264647" data-name="Group 264647">
          <rect id="Rectangle_5240" data-name="Rectangle 5240" width="36" height="36" rx="18" fill="none"/>
          <g id="Chevron_down" data-name="Chevron down" transform="translate(10 10)">
            <g id="Group_264648" data-name="Group 264648">
              <path id="Path_101496" data-name="Path 101496" d="M11.974,5.284l1.275,1.275a.289.289,0,0,1,0,.407l-5.06,5.083a.289.289,0,0,1-.407,0L2.751,6.966a.289.289,0,0,1,0-.407L4.026,5.284a.289.289,0,0,1,.407,0l3.553,3.6,3.581-3.6A.289.289,0,0,1,11.974,5.284Z" fill="#78788c"/>
              <rect id="Rectangle_10025" data-name="Rectangle 10025" width="16" height="16" fill="none"/>
            </g>
          </g>
        </g>
      </g>
      <line id="Line_3" data-name="Line 3" x2="440" transform="translate(30 456)" fill="none" stroke="#e6e6ea" stroke-width="1"/>
      <line id="Line_5" data-name="Line 5" x2="440" transform="translate(30 504)" fill="none" stroke="#e6e6ea" stroke-width="1"/>
      <g id="Icon_link-2" data-name="Icon link" transform="translate(424 462)">
        <g id="Group_264647-2" data-name="Group 264647">
          <rect id="Rectangle_5240-2" data-name="Rectangle 5240" width="36" height="36" rx="18" fill="none"/>
          <g id="Chevron_down-2" data-name="Chevron down" transform="translate(10 10)">
            <g id="Group_264648-2" data-name="Group 264648">
              <path id="Path_101496-2" data-name="Path 101496" d="M11.974,5.284l1.275,1.275a.289.289,0,0,1,0,.407l-5.06,5.083a.289.289,0,0,1-.407,0L2.751,6.966a.289.289,0,0,1,0-.407L4.026,5.284a.289.289,0,0,1,.407,0l3.553,3.6,3.581-3.6A.289.289,0,0,1,11.974,5.284Z" fill="#78788c"/>
              <rect id="Rectangle_10025-2" data-name="Rectangle 10025" width="16" height="16" fill="none"/>
            </g>
          </g>
        </g>
      </g>
      <g id="Icon_link-3" data-name="Icon link" transform="translate(424 510)">
        <g id="Group_264647-3" data-name="Group 264647">
          <rect id="Rectangle_5240-3" data-name="Rectangle 5240" width="36" height="36" rx="18" fill="none"/>
          <g id="Chevron_down-3" data-name="Chevron down" transform="translate(10 10)">
            <g id="Group_264648-3" data-name="Group 264648">
              <path id="Path_101496-3" data-name="Path 101496" d="M11.974,5.284l1.275,1.275a.289.289,0,0,1,0,.407l-5.06,5.083a.289.289,0,0,1-.407,0L2.751,6.966a.289.289,0,0,1,0-.407L4.026,5.284a.289.289,0,0,1,.407,0l3.553,3.6,3.581-3.6A.289.289,0,0,1,11.974,5.284Z" fill="#78788c"/>
              <rect id="Rectangle_10025-3" data-name="Rectangle 10025" width="16" height="16" fill="none"/>
            </g>
          </g>
        </g>
      </g>
    </g>
  </g>
</svg>
