<svg xmlns="http://www.w3.org/2000/svg" xmlns:xlink="http://www.w3.org/1999/xlink" width="485" height="215" viewBox="0 0 485 215">
  <defs>
    <filter id="Rectangle_10023" x="163.5" y="63.5" width="159" height="127" filterUnits="userSpaceOnUse">
      <feOffset dy="1" input="SourceAlpha"/>
      <feGaussianBlur stdDeviation="1.5" result="blur"/>
      <feFlood flood-opacity="0.161"/>
      <feComposite operator="in" in2="blur"/>
      <feComposite in="SourceGraphic"/>
    </filter>
    <clipPath id="clip-Icon_Donot">
      <rect width="485" height="215"/>
    </clipPath>
  </defs>
  <g id="Icon_Donot" clip-path="url(#clip-Icon_Donot)">
    <rect width="485" height="215" fill="#f4f4f6"/>
    <g id="Dropdown_Button" data-name="Dropdown Button" transform="translate(168 31)">
      <g id="Group_264632" data-name="Group 264632">
        <rect id="Rectangle_3990" data-name="Rectangle 3990" width="36" height="36" rx="18" fill="#1f5ea8"/>
        <g id="rocket" transform="translate(18 18)">
          <g id="Group_264655" data-name="Group 264655" transform="translate(-8 -8)">
            <g id="Group_264654" data-name="Group 264654">
              <path id="Path_7210" data-name="Path 7210" d="M14.5,1.4a.3.3,0,0,1,.3.3V3.5c0,1.2-1.3,3.3-3.1,5.1a1.2,1.2,0,0,0-.2,1.3l.3,1a.3.3,0,0,1-.1.3h-.1l-.5.5-.5-.8a1.2,1.2,0,0,0-1-.5l-.6.2-1.4.6H7.3L5,8.9V8.7a6,6,0,0,1,.6-1.5,1.2,1.2,0,0,0-.4-1.6l-.8-.5.5-.5h.4l1,.4h.4a1.2,1.2,0,0,0,.9-.4c1.8-1.9,3.9-3.1,5.1-3.1h1.8m0-1.2H12.7c-1.7,0-4,1.6-5.9,3.5l-1-.4H5.2A1.5,1.5,0,0,0,4,4L2.4,5.3l2,1.4a7.1,7.1,0,0,0-.8,1.8A1.4,1.4,0,0,0,4,9.8l2.3,2.3a1.5,1.5,0,0,0,1.1.4h.3a6.2,6.2,0,0,0,1.8-.7l1.4,2,1.5-1.6a1.5,1.5,0,0,0,.5-1.6l-.4-1.1h0c1.9-1.9,3.5-4.3,3.5-6V1.7A1.5,1.5,0,0,0,14.5.2Z" fill="#fff"/>
              <g id="Group_264653" data-name="Group 264653">
                <path id="Path_7212" data-name="Path 7212" d="M11.9,3.4a.9.9,0,0,1,.8.8.8.8,0,0,1-.2.6l-.6.3h-.1a.9.9,0,0,1-.8-.8.8.8,0,0,1,.2-.6l.6-.3h.1m0-.7h-.1a1.6,1.6,0,1,0,.1,3.2H12a1.6,1.6,0,1,0-.1-3.2Z" fill="#fff"/>
              </g>
              <path id="Path_7213" data-name="Path 7213" d="M2.7,12.2l.6.3a.9.9,0,0,1,0,1.2,6,6,0,0,1-1.9.6A6.1,6.1,0,0,1,2,12.4l.6-.3m0-1.2a2.1,2.1,0,0,0-1.5.6C.4,12.5,0,15.8,0,15.8s3.4-.4,4.2-1.2A2.1,2.1,0,0,0,2.7,11Z" fill="#fff"/>
            </g>
            <rect id="Rectangle_10030" data-name="Rectangle 10030" width="16" height="16" fill="none"/>
          </g>
        </g>
      </g>
    </g>
    <g transform="matrix(1, 0, 0, 1, 0, 0)" filter="url(#Rectangle_10023)">
      <rect id="Rectangle_10023-2" data-name="Rectangle 10023" width="150" height="118" transform="translate(168 67)" fill="#fff"/>
    </g>
    <g id="dropdown_item" data-name="dropdown item" transform="translate(168 73)">
      <rect id="Rectangle_4665" data-name="Rectangle 4665" width="150" height="36" fill="#fff"/>
      <path id="Path_101529" data-name="Path 101529" d="M7.957-.41A5.749,5.749,0,0,1,5.25.164,4.366,4.366,0,0,1,1.9-1.183,4.969,4.969,0,0,1,.643-4.717a5.208,5.208,0,0,1,1.415-3.8A4.8,4.8,0,0,1,5.646-9.967a5.754,5.754,0,0,1,2.311.4V-8.34a4.686,4.686,0,0,0-2.324-.588A3.566,3.566,0,0,0,2.9-7.8,4.249,4.249,0,0,0,1.846-4.785a4.043,4.043,0,0,0,.981,2.854A3.338,3.338,0,0,0,5.4-.868a4.828,4.828,0,0,0,2.557-.656Zm4.771.574A3.247,3.247,0,0,1,10.25-.817a3.634,3.634,0,0,1-.926-2.6,3.785,3.785,0,0,1,.964-2.755,3.465,3.465,0,0,1,2.6-.991,3.14,3.14,0,0,1,2.444.964,3.822,3.822,0,0,1,.878,2.673,3.761,3.761,0,0,1-.947,2.683A3.317,3.317,0,0,1,12.729.164Zm.082-6.385a2.132,2.132,0,0,0-1.709.735,3.018,3.018,0,0,0-.629,2.027A2.854,2.854,0,0,0,11.108-1.5a2.161,2.161,0,0,0,1.7.718,2.049,2.049,0,0,0,1.671-.7,3.055,3.055,0,0,0,.584-2,3.108,3.108,0,0,0-.584-2.023A2.04,2.04,0,0,0,12.811-6.221Zm6.344,5.209h-.027V3.22H18.006V-7h1.121v1.23h.027a2.651,2.651,0,0,1,2.42-1.395,2.563,2.563,0,0,1,2.112.94,3.893,3.893,0,0,1,.759,2.519,4.339,4.339,0,0,1-.854,2.813A2.845,2.845,0,0,1,21.253.164,2.342,2.342,0,0,1,19.154-1.012Zm-.027-2.823v.978a2.081,2.081,0,0,0,.564,1.473,1.873,1.873,0,0,0,1.432.6,1.876,1.876,0,0,0,1.6-.779A3.575,3.575,0,0,0,23.3-3.726a2.822,2.822,0,0,0-.54-1.832,1.787,1.787,0,0,0-1.463-.663,1.986,1.986,0,0,0-1.572.68A2.5,2.5,0,0,0,19.127-3.835ZM31.808-7l-3.22,8.121q-.861,2.174-2.42,2.174a2.565,2.565,0,0,1-.731-.089v-1a2.078,2.078,0,0,0,.663.123,1.374,1.374,0,0,0,1.271-1.012l.561-1.326L25.2-7h1.244l1.894,5.387q.034.1.144.533h.041q.034-.164.137-.52L30.646-7Zm6.159,7H36.846V-10.363h1.121Zm2.844-8.777a.71.71,0,0,1-.513-.205.692.692,0,0,1-.212-.52.7.7,0,0,1,.212-.523.7.7,0,0,1,.513-.208.724.724,0,0,1,.523.208.7.7,0,0,1,.215.523.693.693,0,0,1-.215.513A.718.718,0,0,1,40.811-8.777ZM41.357,0H40.236V-7h1.121Zm8.08,0H48.316V-3.992q0-2.229-1.627-2.229a1.765,1.765,0,0,0-1.391.632,2.344,2.344,0,0,0-.55,1.6V0H43.627V-7h1.121v1.162h.027a2.526,2.526,0,0,1,2.3-1.326,2.142,2.142,0,0,1,1.757.742,3.3,3.3,0,0,1,.608,2.143ZM57.36,0H55.788L52.7-3.363h-.027V0H51.55V-10.363h1.121v6.569H52.7L55.638-7h1.47L53.86-3.623Z" transform="translate(15 22)" fill="#494955"/>
    </g>
    <g id="dropdown_item-2" data-name="dropdown item" transform="translate(168 109)">
      <rect id="Rectangle_4665-2" data-name="Rectangle 4665" width="150" height="36" fill="#fff"/>
      <path id="Path_101528" data-name="Path 101528" d="M1.285,0V-9.8H3.992q5.182,0,5.182,4.778A4.815,4.815,0,0,1,7.735-1.377,5.338,5.338,0,0,1,3.883,0ZM2.434-8.764v7.725H3.9a4.152,4.152,0,0,0,3-1.032A3.869,3.869,0,0,0,7.971-5q0-3.767-4.006-3.767ZM13.877.164A3.247,3.247,0,0,1,11.4-.817a3.634,3.634,0,0,1-.926-2.6,3.785,3.785,0,0,1,.964-2.755,3.465,3.465,0,0,1,2.6-.991,3.14,3.14,0,0,1,2.444.964,3.822,3.822,0,0,1,.878,2.673,3.761,3.761,0,0,1-.947,2.683A3.317,3.317,0,0,1,13.877.164Zm.082-6.385a2.132,2.132,0,0,0-1.709.735,3.018,3.018,0,0,0-.629,2.027A2.854,2.854,0,0,0,12.257-1.5a2.161,2.161,0,0,0,1.7.718,2.049,2.049,0,0,0,1.671-.7,3.055,3.055,0,0,0,.584-2A3.108,3.108,0,0,0,15.63-5.51,2.04,2.04,0,0,0,13.959-6.221ZM27.973-7l-2.1,7H24.712L23.27-5.011a3.265,3.265,0,0,1-.109-.649h-.027a3.066,3.066,0,0,1-.144.636L21.424,0H20.3L18.184-7h1.176l1.449,5.264a3.171,3.171,0,0,1,.1.629h.055a2.942,2.942,0,0,1,.123-.643L22.7-7h1.025L25.17-1.723a3.768,3.768,0,0,1,.1.629h.055a2.909,2.909,0,0,1,.116-.629L26.865-7Zm7.109,7H33.961V-3.992q0-2.229-1.627-2.229a1.765,1.765,0,0,0-1.391.632,2.344,2.344,0,0,0-.55,1.6V0H29.271V-7h1.121v1.162h.027a2.526,2.526,0,0,1,2.3-1.326,2.142,2.142,0,0,1,1.757.742,3.3,3.3,0,0,1,.608,2.143Zm3.233,0H37.194V-10.363h1.121Zm5.2.164a3.247,3.247,0,0,1-2.478-.981,3.634,3.634,0,0,1-.926-2.6,3.785,3.785,0,0,1,.964-2.755,3.465,3.465,0,0,1,2.6-.991,3.14,3.14,0,0,1,2.444.964A3.822,3.822,0,0,1,47-3.527,3.761,3.761,0,0,1,46.05-.844,3.317,3.317,0,0,1,43.511.164Zm.082-6.385a2.132,2.132,0,0,0-1.709.735,3.018,3.018,0,0,0-.629,2.027A2.854,2.854,0,0,0,41.891-1.5a2.161,2.161,0,0,0,1.7.718,2.049,2.049,0,0,0,1.671-.7,3.055,3.055,0,0,0,.584-2,3.108,3.108,0,0,0-.584-2.023A2.04,2.04,0,0,0,43.593-6.221ZM53.8,0H52.678V-1.094H52.65A2.347,2.347,0,0,1,50.5.164,2.3,2.3,0,0,1,48.86-.39a1.918,1.918,0,0,1-.591-1.47q0-1.962,2.311-2.283l2.1-.294q0-1.784-1.442-1.784a3.446,3.446,0,0,0-2.283.861V-6.508a4.338,4.338,0,0,1,2.379-.656q2.468,0,2.468,2.611ZM52.678-3.541l-1.688.232a2.741,2.741,0,0,0-1.176.386,1.114,1.114,0,0,0-.4.981,1.068,1.068,0,0,0,.366.837,1.413,1.413,0,0,0,.974.325,1.8,1.8,0,0,0,1.377-.584,2.088,2.088,0,0,0,.543-1.48ZM61.886,0H60.765V-1.189h-.027A2.588,2.588,0,0,1,58.331.164a2.615,2.615,0,0,1-2.109-.94,3.856,3.856,0,0,1-.79-2.56,4.2,4.2,0,0,1,.875-2.782,2.886,2.886,0,0,1,2.331-1.046,2.244,2.244,0,0,1,2.1,1.135h.027v-4.334h1.121ZM60.765-3.165V-4.2A2,2,0,0,0,60.2-5.633a1.88,1.88,0,0,0-1.422-.588,1.936,1.936,0,0,0-1.613.752,3.3,3.3,0,0,0-.588,2.078,2.964,2.964,0,0,0,.564,1.911,1.843,1.843,0,0,0,1.514.7,1.915,1.915,0,0,0,1.521-.677A2.521,2.521,0,0,0,60.765-3.165Z" transform="translate(15 22)" fill="#494955"/>
    </g>
    <g id="dropdown_item-3" data-name="dropdown item" transform="translate(168 145)">
      <rect id="Rectangle_4665-3" data-name="Rectangle 4665" width="150" height="36" fill="#fff"/>
      <path id="Path_101527" data-name="Path 101527" d="M.827-.4V-1.75a2.629,2.629,0,0,0,.557.369,4.514,4.514,0,0,0,.684.277,5.442,5.442,0,0,0,.721.174,4.021,4.021,0,0,0,.67.062,2.624,2.624,0,0,0,1.583-.393,1.33,1.33,0,0,0,.523-1.131,1.328,1.328,0,0,0-.174-.69,1.964,1.964,0,0,0-.482-.537,4.782,4.782,0,0,0-.728-.465q-.42-.222-.906-.468-.513-.26-.957-.526a4.147,4.147,0,0,1-.772-.588A2.452,2.452,0,0,1,1.029-6.4a2.253,2.253,0,0,1-.188-.954,2.242,2.242,0,0,1,.294-1.166,2.521,2.521,0,0,1,.772-.817A3.5,3.5,0,0,1,3-9.81a4.992,4.992,0,0,1,1.248-.157,4.781,4.781,0,0,1,2.112.349v1.292a3.829,3.829,0,0,0-2.229-.6,3.665,3.665,0,0,0-.752.079,2.124,2.124,0,0,0-.67.256,1.484,1.484,0,0,0-.479.458,1.216,1.216,0,0,0-.185.684,1.407,1.407,0,0,0,.14.649,1.592,1.592,0,0,0,.414.5,4.119,4.119,0,0,0,.667.438q.393.212.906.465t1,.547A4.562,4.562,0,0,1,6-4.218a2.825,2.825,0,0,1,.564.772,2.171,2.171,0,0,1,.208.971,2.462,2.462,0,0,1-.284,1.227,2.328,2.328,0,0,1-.766.817A3.344,3.344,0,0,1,4.607.024a6.084,6.084,0,0,1-1.326.14A5.4,5.4,0,0,1,2.707.126Q2.365.089,2.01.017a5.689,5.689,0,0,1-.673-.178A2.1,2.1,0,0,1,.827-.4ZM14.2-3.22H9.256a2.618,2.618,0,0,0,.629,1.8,2.168,2.168,0,0,0,1.654.636,3.439,3.439,0,0,0,2.174-.779V-.506a4.063,4.063,0,0,1-2.44.67A2.959,2.959,0,0,1,8.941-.79a3.9,3.9,0,0,1-.848-2.683A3.828,3.828,0,0,1,9.02-6.135a2.97,2.97,0,0,1,2.3-1.029,2.632,2.632,0,0,1,2.126.889A3.705,3.705,0,0,1,14.2-3.808ZM13.05-4.17a2.281,2.281,0,0,0-.468-1.511,1.6,1.6,0,0,0-1.282-.54,1.811,1.811,0,0,0-1.347.567A2.575,2.575,0,0,0,9.27-4.17ZM21.7,0H20.583V-3.992q0-2.229-1.627-2.229a1.765,1.765,0,0,0-1.391.632,2.344,2.344,0,0,0-.55,1.6V0H15.894V-7h1.121v1.162h.027a2.526,2.526,0,0,1,2.3-1.326,2.142,2.142,0,0,1,1.757.742A3.3,3.3,0,0,1,21.7-4.279Zm8.087,0H28.67V-1.189h-.027A2.588,2.588,0,0,1,26.236.164a2.615,2.615,0,0,1-2.109-.94,3.856,3.856,0,0,1-.79-2.56,4.2,4.2,0,0,1,.875-2.782,2.886,2.886,0,0,1,2.331-1.046,2.244,2.244,0,0,1,2.1,1.135h.027v-4.334h1.121ZM28.67-3.165V-4.2a2,2,0,0,0-.561-1.436,1.88,1.88,0,0,0-1.422-.588,1.936,1.936,0,0,0-1.613.752,3.3,3.3,0,0,0-.588,2.078A2.964,2.964,0,0,0,25.05-1.48a1.843,1.843,0,0,0,1.514.7,1.915,1.915,0,0,0,1.521-.677A2.521,2.521,0,0,0,28.67-3.165ZM41.521-3.22H36.579a2.618,2.618,0,0,0,.629,1.8,2.168,2.168,0,0,0,1.654.636,3.439,3.439,0,0,0,2.174-.779V-.506a4.063,4.063,0,0,1-2.44.67A2.959,2.959,0,0,1,36.265-.79a3.9,3.9,0,0,1-.848-2.683,3.828,3.828,0,0,1,.926-2.663,2.97,2.97,0,0,1,2.3-1.029,2.632,2.632,0,0,1,2.126.889,3.705,3.705,0,0,1,.752,2.468Zm-1.148-.95A2.281,2.281,0,0,0,39.9-5.681a1.6,1.6,0,0,0-1.282-.54,1.811,1.811,0,0,0-1.347.567,2.575,2.575,0,0,0-.684,1.483ZM53.156,0H52.035V-4.02A3.032,3.032,0,0,0,51.676-5.7a1.361,1.361,0,0,0-1.207-.52,1.494,1.494,0,0,0-1.22.656,2.511,2.511,0,0,0-.5,1.572V0H47.626V-4.156q0-2.064-1.593-2.064a1.475,1.475,0,0,0-1.217.619,2.557,2.557,0,0,0-.479,1.61V0H43.217V-7h1.121v1.107h.027a2.378,2.378,0,0,1,2.174-1.271,2.027,2.027,0,0,1,1.251.4,2.012,2.012,0,0,1,.731,1.049,2.5,2.5,0,0,1,2.324-1.449q2.311,0,2.311,2.851Zm7.13,0H59.165V-1.094h-.027A2.347,2.347,0,0,1,56.984.164,2.3,2.3,0,0,1,55.347-.39a1.918,1.918,0,0,1-.591-1.47q0-1.962,2.311-2.283l2.1-.294q0-1.784-1.442-1.784a3.446,3.446,0,0,0-2.283.861V-6.508a4.338,4.338,0,0,1,2.379-.656q2.468,0,2.468,2.611ZM59.165-3.541l-1.688.232a2.741,2.741,0,0,0-1.176.386,1.114,1.114,0,0,0-.4.981,1.068,1.068,0,0,0,.366.837,1.413,1.413,0,0,0,.974.325,1.8,1.8,0,0,0,1.377-.584,2.088,2.088,0,0,0,.543-1.48Zm3.808-5.236a.71.71,0,0,1-.513-.205.692.692,0,0,1-.212-.52.7.7,0,0,1,.212-.523.7.7,0,0,1,.513-.208.724.724,0,0,1,.523.208.7.7,0,0,1,.215.523.693.693,0,0,1-.215.513A.718.718,0,0,1,62.973-8.777ZM63.52,0H62.4V-7H63.52ZM66.91,0H65.789V-10.363H66.91Z" transform="translate(15 22)" fill="#494955"/>
    </g>
  </g>
</svg>
