<svg xmlns="http://www.w3.org/2000/svg" xmlns:xlink="http://www.w3.org/1999/xlink" width="485" height="215" viewBox="0 0 485 215">
  <defs>
    <filter id="Rectangle_10023" x="163.5" y="63.5" width="159" height="127" filterUnits="userSpaceOnUse">
      <feOffset dy="1" input="SourceAlpha"/>
      <feGaussianBlur stdDeviation="1.5" result="blur"/>
      <feFlood flood-opacity="0.161"/>
      <feComposite operator="in" in2="blur"/>
      <feComposite in="SourceGraphic"/>
    </filter>
    <clipPath id="clip-Icon_Do">
      <rect width="485" height="215"/>
    </clipPath>
  </defs>
  <g id="Icon_Do" clip-path="url(#clip-Icon_Do)">
    <rect width="485" height="215" fill="#f4f4f6"/>
    <g id="Dropdown_options" data-name="Dropdown options" transform="translate(152 31)">
      <g transform="matrix(1, 0, 0, 1, -152, -31)" filter="url(#Rectangle_10023)">
        <rect id="Rectangle_10023-2" data-name="Rectangle 10023" width="150" height="118" transform="translate(168 67)" fill="#fff"/>
      </g>
      <g id="dropdown_item" data-name="dropdown item" transform="translate(16 42)">
        <rect id="Rectangle_4665" data-name="Rectangle 4665" width="150" height="36" fill="#fff"/>
        <path id="Path_101524" data-name="Path 101524" d="M6.48,0h-5.2V-9.8H6.262v1.039H2.434V-5.5H5.975v1.032H2.434v3.432H6.48Zm7.711,0H13.07V-1.189h-.027A2.588,2.588,0,0,1,10.637.164a2.615,2.615,0,0,1-2.109-.94,3.856,3.856,0,0,1-.79-2.56,4.2,4.2,0,0,1,.875-2.782,2.886,2.886,0,0,1,2.331-1.046,2.244,2.244,0,0,1,2.1,1.135h.027v-4.334h1.121ZM13.07-3.165V-4.2a2,2,0,0,0-.561-1.436,1.88,1.88,0,0,0-1.422-.588,1.936,1.936,0,0,0-1.613.752,3.3,3.3,0,0,0-.588,2.078A2.964,2.964,0,0,0,9.451-1.48a1.843,1.843,0,0,0,1.514.7,1.915,1.915,0,0,0,1.521-.677A2.521,2.521,0,0,0,13.07-3.165Zm3.965-5.612a.71.71,0,0,1-.513-.205.692.692,0,0,1-.212-.52.7.7,0,0,1,.212-.523.7.7,0,0,1,.513-.208.724.724,0,0,1,.523.208.7.7,0,0,1,.215.523.693.693,0,0,1-.215.513A.718.718,0,0,1,17.035-8.777ZM17.582,0H16.461V-7h1.121ZM23.1-.068A2.161,2.161,0,0,1,22.053.15Q20.214.15,20.214-1.9V-6.043h-1.2V-7h1.2V-8.709l1.121-.362V-7H23.1v.957H21.335V-2.1a1.635,1.635,0,0,0,.239,1,.955.955,0,0,0,.793.3,1.179,1.179,0,0,0,.731-.232Z" transform="translate(15 22)" fill="#494955"/>
      </g>
      <g id="dropdown_item-2" data-name="dropdown item" transform="translate(16 78)">
        <rect id="Rectangle_4665-2" data-name="Rectangle 4665" width="150" height="36" fill="#fff"/>
        <path id="Path_101525" data-name="Path 101525" d="M1.285,0V-9.8H3.992q5.182,0,5.182,4.778A4.815,4.815,0,0,1,7.735-1.377,5.338,5.338,0,0,1,3.883,0ZM2.434-8.764v7.725H3.9a4.152,4.152,0,0,0,3-1.032A3.869,3.869,0,0,0,7.971-5q0-3.767-4.006-3.767ZM16.611,0H15.49V-1.107h-.027A2.3,2.3,0,0,1,13.3.164q-2.5,0-2.5-2.98V-7h1.114v4.006q0,2.215,1.7,2.215a1.715,1.715,0,0,0,1.35-.6,2.315,2.315,0,0,0,.53-1.583V-7h1.121Zm3.411-1.012H20V3.22H18.874V-7H20v1.23h.027a2.651,2.651,0,0,1,2.42-1.395,2.563,2.563,0,0,1,2.112.94,3.893,3.893,0,0,1,.759,2.519,4.339,4.339,0,0,1-.854,2.813A2.845,2.845,0,0,1,22.121.164,2.342,2.342,0,0,1,20.022-1.012ZM20-3.835v.978a2.081,2.081,0,0,0,.564,1.473,1.873,1.873,0,0,0,1.432.6,1.876,1.876,0,0,0,1.6-.779,3.575,3.575,0,0,0,.578-2.167,2.822,2.822,0,0,0-.54-1.832,1.787,1.787,0,0,0-1.463-.663,1.986,1.986,0,0,0-1.572.68A2.5,2.5,0,0,0,20-3.835ZM28.226,0H27.1V-10.363h1.121Zm2.844-8.777a.71.71,0,0,1-.513-.205.692.692,0,0,1-.212-.52.7.7,0,0,1,.212-.523.7.7,0,0,1,.513-.208.724.724,0,0,1,.523.208.7.7,0,0,1,.215.523.693.693,0,0,1-.215.513A.718.718,0,0,1,31.069-8.777ZM31.616,0H30.5V-7h1.121Zm7.041-.321a3.643,3.643,0,0,1-1.914.485A3.169,3.169,0,0,1,34.327-.81a3.53,3.53,0,0,1-.919-2.526A3.881,3.881,0,0,1,34.4-6.115a3.468,3.468,0,0,1,2.646-1.049,3.682,3.682,0,0,1,1.627.342v1.148A2.85,2.85,0,0,0,37-6.221a2.254,2.254,0,0,0-1.76.769,2.918,2.918,0,0,0-.687,2.02A2.779,2.779,0,0,0,35.2-1.49a2.227,2.227,0,0,0,1.733.711,2.81,2.81,0,0,0,1.723-.608ZM45.363,0H44.242V-1.094h-.027A2.347,2.347,0,0,1,42.062.164,2.3,2.3,0,0,1,40.424-.39a1.918,1.918,0,0,1-.591-1.47q0-1.962,2.311-2.283l2.1-.294q0-1.784-1.442-1.784a3.446,3.446,0,0,0-2.283.861V-6.508A4.338,4.338,0,0,1,42.9-7.164q2.468,0,2.468,2.611ZM44.242-3.541l-1.688.232a2.741,2.741,0,0,0-1.176.386,1.114,1.114,0,0,0-.4.981,1.068,1.068,0,0,0,.366.837,1.413,1.413,0,0,0,.974.325A1.8,1.8,0,0,0,43.7-1.364a2.088,2.088,0,0,0,.543-1.48Zm6.48,3.473A2.161,2.161,0,0,1,49.677.15Q47.838.15,47.838-1.9V-6.043h-1.2V-7h1.2V-8.709l1.121-.362V-7h1.764v.957H48.959V-2.1a1.635,1.635,0,0,0,.239,1,.955.955,0,0,0,.793.3,1.179,1.179,0,0,0,.731-.232ZM57.846-3.22H52.9a2.618,2.618,0,0,0,.629,1.8,2.168,2.168,0,0,0,1.654.636,3.439,3.439,0,0,0,2.174-.779V-.506a4.063,4.063,0,0,1-2.44.67A2.959,2.959,0,0,1,52.589-.79a3.9,3.9,0,0,1-.848-2.683,3.828,3.828,0,0,1,.926-2.663,2.97,2.97,0,0,1,2.3-1.029,2.632,2.632,0,0,1,2.126.889,3.705,3.705,0,0,1,.752,2.468ZM56.7-4.17a2.281,2.281,0,0,0-.468-1.511,1.6,1.6,0,0,0-1.282-.54,1.811,1.811,0,0,0-1.347.567,2.575,2.575,0,0,0-.684,1.483Z" transform="translate(15 22)" fill="#494955"/>
      </g>
      <g id="dropdown_item-3" data-name="dropdown item" transform="translate(16 114)">
        <rect id="Rectangle_4665-3" data-name="Rectangle 4665" width="150" height="36" fill="#fff"/>
        <path id="Path_101526" data-name="Path 101526" d="M8.873,0H7.6L6.563-2.748H2.406L1.429,0H.15L3.91-9.8H5.1ZM6.187-3.78,4.648-7.957a4,4,0,0,1-.15-.656H4.471a3.661,3.661,0,0,1-.157.656L2.789-3.78Zm7.629-2.085a1.371,1.371,0,0,0-.848-.226,1.431,1.431,0,0,0-1.2.677,3.129,3.129,0,0,0-.482,1.846V0H10.165V-7h1.121v1.442h.027a2.444,2.444,0,0,1,.731-1.152,1.668,1.668,0,0,1,1.1-.414,1.83,1.83,0,0,1,.67.1ZM19.8-.321A3.643,3.643,0,0,1,17.89.164,3.169,3.169,0,0,1,15.473-.81a3.53,3.53,0,0,1-.919-2.526,3.881,3.881,0,0,1,.991-2.779A3.467,3.467,0,0,1,18.19-7.164a3.682,3.682,0,0,1,1.627.342v1.148a2.85,2.85,0,0,0-1.668-.547,2.254,2.254,0,0,0-1.76.769,2.918,2.918,0,0,0-.687,2.02,2.779,2.779,0,0,0,.646,1.941,2.227,2.227,0,0,0,1.733.711A2.81,2.81,0,0,0,19.8-1.388ZM27.31,0H26.188V-4.033q0-2.188-1.627-2.187a1.774,1.774,0,0,0-1.381.632,2.356,2.356,0,0,0-.561,1.624V0H21.5V-10.363H22.62v4.525h.027a2.546,2.546,0,0,1,2.3-1.326q2.365,0,2.365,2.851ZM30-8.777a.71.71,0,0,1-.513-.205.692.692,0,0,1-.212-.52.7.7,0,0,1,.212-.523A.7.7,0,0,1,30-10.233a.724.724,0,0,1,.523.208.7.7,0,0,1,.215.523.693.693,0,0,1-.215.513A.718.718,0,0,1,30-8.777ZM30.543,0H29.422V-7h1.121Zm7.772-7L35.526,0h-1.1L31.773-7H33l1.777,5.086a4.565,4.565,0,0,1,.246.978h.027a4.622,4.622,0,0,1,.219-.95L37.133-7Zm6.829,3.78H40.2a2.618,2.618,0,0,0,.629,1.8,2.168,2.168,0,0,0,1.654.636,3.439,3.439,0,0,0,2.174-.779V-.506a4.063,4.063,0,0,1-2.44.67A2.959,2.959,0,0,1,39.888-.79a3.9,3.9,0,0,1-.848-2.683,3.828,3.828,0,0,1,.926-2.663,2.97,2.97,0,0,1,2.3-1.029,2.632,2.632,0,0,1,2.126.889,3.705,3.705,0,0,1,.752,2.468ZM44-4.17a2.281,2.281,0,0,0-.468-1.511,1.6,1.6,0,0,0-1.282-.54,1.811,1.811,0,0,0-1.347.567,2.575,2.575,0,0,0-.684,1.483Z" transform="translate(15 22)" fill="#494955"/>
      </g>
    </g>
    <g id="Group_264632" data-name="Group 264632" transform="translate(168 31)">
      <rect id="Rectangle_3990" data-name="Rectangle 3990" width="36" height="36" rx="18" fill="#1f5ea8"/>
      <g id="More" transform="translate(18 18)">
        <g id="Group_264638" data-name="Group 264638" transform="translate(-8 -8)">
          <g id="Group_264637" data-name="Group 264637">
            <circle id="Ellipse_1" data-name="Ellipse 1" cx="2" cy="2" r="2" transform="translate(0 6)" fill="#fff"/>
            <circle id="Ellipse_2" data-name="Ellipse 2" cx="2" cy="2" r="2" transform="translate(6 6)" fill="#fff"/>
            <circle id="Ellipse_3" data-name="Ellipse 3" cx="2" cy="2" r="2" transform="translate(12 6)" fill="#fff"/>
          </g>
          <rect id="Rectangle_10024" data-name="Rectangle 10024" width="16" height="16" fill="none"/>
        </g>
      </g>
    </g>
  </g>
</svg>
