<svg xmlns="http://www.w3.org/2000/svg" xmlns:xlink="http://www.w3.org/1999/xlink" width="1920" height="1080" viewBox="0 0 1920 1080">
  <defs>
    <filter id="Card" x="275.5" y="174.5" width="799" height="358" filterUnits="userSpaceOnUse">
      <feOffset dy="1" input="SourceAlpha"/>
      <feGaussianBlur stdDeviation="1.5" result="blur"/>
      <feFlood flood-opacity="0.161"/>
      <feComposite operator="in" in2="blur"/>
      <feComposite in="SourceGraphic"/>
    </filter>
    <clipPath id="clip-path">
      <path id="Path_101348" data-name="Path 101348" d="M-637.651,1951.458v77.749h-108v-77.749h108" transform="translate(745.651 -1951.458)" fill="none"/>
    </clipPath>
    <clipPath id="clip-ImagePlaceholder">
      <rect width="1920" height="1080"/>
    </clipPath>
  </defs>
  <g id="ImagePlaceholder" clip-path="url(#clip-ImagePlaceholder)">
    <rect width="1920" height="1080" fill="#f4f4f6"/>
    <rect id="Rectangle_9854" data-name="Rectangle 9854" width="348" height="30" rx="15" transform="translate(280 128)" fill="#e6e6ea"/>
    <g id="tabs" transform="translate(1120 178)">
      <rect id="Rectangle_3712" data-name="Rectangle 3712" width="336" height="2" transform="translate(0 36)" fill="#e6e6ea"/>
      <rect id="Rectangle_3713" data-name="Rectangle 3713" width="102" height="8" transform="translate(0 28)" fill="#e6e6ea"/>
      <rect id="Rectangle_9788" data-name="Rectangle 9788" width="48" height="13" rx="6.5" transform="translate(210)" fill="#e6e6ea"/>
      <rect id="Rectangle_9790" data-name="Rectangle 9790" width="48" height="13" rx="6.5" transform="translate(122)" fill="#e6e6ea"/>
      <rect id="Rectangle_9791" data-name="Rectangle 9791" width="62" height="13" rx="6.5" transform="translate(20)" fill="#e6e6ea"/>
    </g>
    <g id="Primary_Button" data-name="Primary Button" transform="translate(1120 113)">
      <rect id="Rectangle_3990" data-name="Rectangle 3990" width="255" height="36" rx="18" fill="#e6e6ea"/>
    </g>
    <g transform="matrix(1, 0, 0, 1, 0, 0)" filter="url(#Card)">
      <rect id="Card-2" data-name="Card" width="790" height="349" rx="2" transform="translate(280 178)" fill="#fff"/>
    </g>
    <rect id="Card-3" data-name="Card" width="790" height="50" rx="2" transform="translate(280 178)" fill="#fafafa"/>
    <line id="Line_56" data-name="Line 56" x2="790" transform="translate(280 228)" fill="none" stroke="#e6e6ea" stroke-width="1"/>
    <rect id="Rectangle_10636" data-name="Rectangle 10636" width="95" height="13" rx="6.5" transform="translate(280 95)" fill="#e6e6ea"/>
    <rect id="Rectangle_10645" data-name="Rectangle 10645" width="89" height="13" rx="6.5" transform="translate(1120 236)" fill="#e6e6ea"/>
    <path id="Path_101740" data-name="Path 101740" d="M6.5,0h175a6.5,6.5,0,0,1,0,13H6.5a6.5,6.5,0,0,1,0-13Z" transform="translate(1120 259)" fill="#e6e6ea"/>
    <rect id="Rectangle_10647" data-name="Rectangle 10647" width="89" height="13" rx="6.5" transform="translate(1120 302)" fill="#e6e6ea"/>
    <rect id="Rectangle_10648" data-name="Rectangle 10648" width="138" height="13" rx="6.5" transform="translate(1120 325)" fill="#e6e6ea"/>
    <g id="Group_266793" data-name="Group 266793" transform="translate(560 432)">
      <text id="File_preview_unavailable" data-name="File preview unavailable" transform="translate(29 15)" fill="#31313a" font-size="16" font-family="SegoeUI-Semibold, Segoe UI" font-weight="600"><tspan x="0" y="0">File preview unavailable</tspan></text>
    </g>
    <text id="To_view_this_file_please_download_and_open_in_your_preferred_viewer" data-name="To view this file, please download and open in your preferred viewer" transform="translate(510 473)" fill="#31313a" font-size="11" font-family="SegoeUI, Segoe UI"><tspan x="0" y="0">To view this file, please download and open in your preferred viewer</tspan></text>
    <g id="Group_266826" data-name="Group 266826" transform="translate(1371.835 -1649.201)">
      <g id="Group_13695" data-name="Group 13695" transform="translate(-776.835 1927.201)">
        <path id="Path_8993" data-name="Path 8993" d="M-626.078,1941.584a41.771,41.771,0,0,0-58.638-4.4,41.456,41.456,0,0,0-5.84,6.122,7.69,7.69,0,0,1-9.3,2.185,48.728,48.728,0,0,0-64.5,23.553,48.144,48.144,0,0,0,23.708,64.08,48.78,48.78,0,0,0,5.808,2.232,37.973,37.973,0,0,1,16.983,10.962l.257.283a39.661,39.661,0,0,0,55.769,2.628,39.077,39.077,0,0,0,12.519-34.574,6.046,6.046,0,0,1,4.156-6.644,41.327,41.327,0,0,0,27.206-51.9,41.288,41.288,0,0,0-8.126-14.52Z" transform="translate(776.835 -1927.201)" fill="#eeedf0"/>
        <path id="Path_8994" data-name="Path 8994" d="M-697.034,1940.717a4.4,4.4,0,0,0,4.4-4.394,4.4,4.4,0,0,0-4.4-4.4,4.394,4.394,0,0,0-4.394,4.394h0A4.394,4.394,0,0,0-697.034,1940.717Zm0-8.124a3.733,3.733,0,0,1,3.733,3.733,3.732,3.732,0,0,1-3.733,3.732,3.733,3.733,0,0,1-3.733-3.732h0a3.733,3.733,0,0,1,3.733-3.733Z" transform="translate(777.334 -1927.201)" fill="#eeedf0"/>
        <path id="Path_8995" data-name="Path 8995" d="M-703.159,1932.26a2.365,2.365,0,0,0,2.365-2.365,2.365,2.365,0,0,0-2.365-2.365,2.365,2.365,0,0,0-2.365,2.365,2.365,2.365,0,0,0,2.365,2.365Zm0-4.062a1.7,1.7,0,0,1,1.7,1.7,1.7,1.7,0,0,1-1.7,1.694,1.7,1.7,0,0,1-1.694-1.7,1.7,1.7,0,0,1,1.7-1.7Z" transform="translate(777.295 -1927.201)" fill="#eeedf0"/>
        <path id="Path_8996" data-name="Path 8996" d="M-640.474,2013.623a4.394,4.394,0,0,0-4.394,4.394,4.394,4.394,0,0,0,4.394,4.394,4.395,4.395,0,0,0,4.4-4.394A4.4,4.4,0,0,0-640.474,2013.623Zm0,8.124a3.733,3.733,0,0,1-3.732-3.733,3.732,3.732,0,0,1,3.732-3.733,3.733,3.733,0,0,1,3.733,3.733h0a3.733,3.733,0,0,1-3.733,3.733Z" transform="translate(777.835 -1927.201)" fill="#eeedf0"/>
        <path id="Path_8997" data-name="Path 8997" d="M-772.442,2009.656a4.4,4.4,0,0,0-4.393,4.4,4.394,4.394,0,0,0,4.4,4.393,4.395,4.395,0,0,0,4.394-4.394,4.4,4.4,0,0,0-4.395-4.4Zm0,8.124a3.732,3.732,0,0,1-3.732-3.732,3.732,3.732,0,0,1,3.732-3.733,3.733,3.733,0,0,1,3.733,3.733h0A3.732,3.732,0,0,1-772.442,2017.78Z" transform="translate(776.835 -1927.201)" fill="#eeedf0"/>
        <path id="Path_8998" data-name="Path 8998" d="M-635.984,2008.736a2.365,2.365,0,0,0-2.365,2.365,2.365,2.365,0,0,0,2.365,2.365,2.365,2.365,0,0,0,2.365-2.365,2.365,2.365,0,0,0-2.365-2.365Zm0,4.063a1.7,1.7,0,0,1-1.7-1.7,1.7,1.7,0,0,1,1.7-1.7,1.7,1.7,0,0,1,1.7,1.7h0a1.7,1.7,0,0,1-1.7,1.695Z" transform="translate(777.835 -1927.201)" fill="#eeedf0"/>
        <path id="Path_8999" data-name="Path 8999" d="M-622.655,1938.686a2.366,2.366,0,0,0,2.366-2.366,2.365,2.365,0,0,0-2.366-2.365,2.365,2.365,0,0,0-2.365,2.365,2.365,2.365,0,0,0,2.365,2.366Zm0-4.062a1.7,1.7,0,0,1,1.7,1.694,1.7,1.7,0,0,1-1.694,1.7,1.7,1.7,0,0,1-1.7-1.694v0h0a1.7,1.7,0,0,1,1.7-1.7Z" transform="translate(777.835 -1927.201)" fill="#eeedf0"/>
        <path id="Path_9000" data-name="Path 9000" d="M-730.47,2038.8a2.366,2.366,0,0,0-2.366,2.366,2.365,2.365,0,0,0,2.366,2.365,2.365,2.365,0,0,0,2.365-2.365,2.365,2.365,0,0,0-2.365-2.366Zm0,4.064a1.7,1.7,0,0,1-1.7-1.7,1.7,1.7,0,0,1,1.7-1.7,1.7,1.7,0,0,1,1.7,1.7h0a1.7,1.7,0,0,1-1.7,1.7Z" transform="translate(777.119 -1927.201)" fill="#eeedf0"/>
      </g>
      <g id="Group_266824" data-name="Group 266824" transform="translate(-751.647 1947.448)">
        <g id="Group_266820" data-name="Group 266820">
          <g id="Group_266819" data-name="Group 266819">
            <rect id="Rectangle_10086" data-name="Rectangle 10086" width="79.622" height="109.481" transform="translate(109.481) rotate(90)" fill="#fff"/>
            <g id="Rectangle_10087" data-name="Rectangle 10087" transform="translate(109.481) rotate(90)" fill="none" stroke="#808193" stroke-linecap="round" stroke-linejoin="round" stroke-width="1.991">
              <rect width="79.622" height="109.481" stroke="none"/>
              <rect x="-0.995" y="-0.995" width="81.613" height="111.471" fill="none"/>
            </g>
            <path id="Path_101346" data-name="Path 101346" d="M-749.661,2024.084h106.495v2.986H-752.647v-79.622h2.986Z" transform="translate(752.647 -1947.448)" fill="#bebfc7"/>
          </g>
          <circle id="Ellipse_2094" data-name="Ellipse 2094" cx="7.44" cy="7.44" r="7.44" transform="translate(71.838 8.693)" fill="#d8d9df" stroke="#808193" stroke-linecap="round" stroke-miterlimit="10" stroke-width="0.93"/>
        </g>
        <g id="Group_266823" data-name="Group 266823" transform="translate(4.82 4.01)">
          <rect id="Rectangle_10088" data-name="Rectangle 10088" width="79.622" height="109.481" transform="translate(109.481 0.749) rotate(90)" fill="#fff"/>
          <g id="Group_266822" data-name="Group 266822" transform="translate(2.176)">
            <g id="Group_266821" data-name="Group 266821" clip-path="url(#clip-path)">
              <path id="Path_101347" data-name="Path 101347" d="M-629.579,2023.316l-35.682-34.3a4.077,4.077,0,0,0-5.607,0l-16.174,15.549-24.75-23.794a4.081,4.081,0,0,0-5.608,0l-37.391,35.946a3.71,3.71,0,0,0,0,5.391l35.683,34.3a4.077,4.077,0,0,0,5.607,0l17.882-17.191,24.751,23.794a4.077,4.077,0,0,0,5.607,0l35.682-34.3A3.707,3.707,0,0,0-629.579,2023.316Z" transform="translate(745.651 -1951.458)" fill="#d8d9df" stroke="#808193" stroke-linecap="round" stroke-miterlimit="10" stroke-width="2.034"/>
            </g>
          </g>
          <circle id="Ellipse_2095" data-name="Ellipse 2095" cx="7.44" cy="7.44" r="7.44" transform="translate(71.838 9.442)" fill="#d8d9df" stroke="#808193" stroke-linecap="round" stroke-miterlimit="10" stroke-width="2"/>
          <path id="Path_101349" data-name="Path 101349" d="M-744.842,2028.843h106.495v2.986H-747.827v-79.622h2.986Z" transform="translate(747.827 -1951.458)" fill="#bebfc7"/>
          <g id="Rectangle_10089" data-name="Rectangle 10089" transform="translate(109.481 0.749) rotate(90)" fill="none" stroke="#808193" stroke-linecap="round" stroke-linejoin="round" stroke-width="1.991">
            <rect width="79.622" height="109.481" stroke="none"/>
            <rect x="-0.995" y="-0.995" width="81.613" height="111.471" fill="none"/>
          </g>
        </g>
      </g>
      <g id="Group_266825" data-name="Group 266825" transform="translate(-673.987 1995.543)">
        <circle id="Ellipse_2096" data-name="Ellipse 2096" cx="26.5" cy="26.5" r="26.5" fill="#1663ae"/>
        <path id="Path_101350" data-name="Path 101350" d="M-648.487,1997.043a25,25,0,0,0-25,25,25,25,0,0,0,25,25,25,25,0,0,0,25-25A25,25,0,0,0-648.487,1997.043Zm22,25a21.9,21.9,0,0,1-5.431,14.448l-31.017-31.018a21.9,21.9,0,0,1,14.448-5.43A22.025,22.025,0,0,1-626.487,2022.043Zm-44,0a21.9,21.9,0,0,1,5.43-14.448l31.018,31.018a21.9,21.9,0,0,1-14.448,5.43A22.025,22.025,0,0,1-670.487,2022.043Z" transform="translate(674.987 -1995.543)" fill="#fff" opacity="0.6"/>
        <path id="Path_101351" data-name="Path 101351" d="M-648.487,1997.043a25.028,25.028,0,0,1,25,25,25.028,25.028,0,0,1-25,25,25.028,25.028,0,0,1-25-25,25.028,25.028,0,0,1,25-25m0-1.5a26.5,26.5,0,0,0-26.5,26.5,26.5,26.5,0,0,0,26.5,26.5,26.5,26.5,0,0,0,26.5-26.5,26.5,26.5,0,0,0-26.5-26.5Z" transform="translate(674.987 -1995.543)" fill="#030504" opacity="0.3"/>
        <path id="Path_101352" data-name="Path 101352" d="M-666.01,2008.77a21.986,21.986,0,0,0,1.96,28.83,21.987,21.987,0,0,0,28.83,1.96l1.168-.953-1.061-1.061L-664,2008.662l-1.061-1.06m2.068,28.937a20.513,20.513,0,0,1-1.948-26.7l28.645,28.645A20.514,20.514,0,0,1-662.99,2036.539Z" transform="translate(674.987 -1995.543)" fill="#030504" opacity="0.3"/>
        <path id="Path_101353" data-name="Path 101353" d="M-662.91,2005.471l1.06,1.061,28.884,28.884,1.061,1.061.953-1.169a21.987,21.987,0,0,0-1.96-28.83,21.987,21.987,0,0,0-28.83-1.96m27.769,3.021a20.514,20.514,0,0,1,1.949,26.7l-28.645-28.645A20.514,20.514,0,0,1-633.973,2007.539Z" transform="translate(674.987 -1995.543)" fill="#030504" opacity="0.3"/>
      </g>
    </g>
    <g id="Group_267165" data-name="Group 267165" transform="translate(-1565 -211)">
      <rect id="Rectangle_10649" data-name="Rectangle 10649" width="77" height="13" rx="6.5" transform="translate(1891 408)" fill="#e6e6ea"/>
    </g>
    <circle id="Ellipse_427" data-name="Ellipse 427" cx="8" cy="8" r="8" transform="translate(300 195)" fill="#e6e6ea"/>
    <g id="Group_269945" data-name="Group 269945" transform="translate(-305 -402)">
      <path id="Rectangle_3990-2" data-name="Rectangle 3990" d="M18,0H121a0,0,0,0,1,0,0V36a0,0,0,0,1,0,0H18A18,18,0,0,1,0,18v0A18,18,0,0,1,18,0Z" transform="translate(1425 515)" fill="#2777d3"/>
      <text id="Download" transform="translate(1466 538)" fill="#fff" font-size="14" font-family="SegoeUI-Semibold, Segoe UI" font-weight="600"><tspan x="0" y="0">Download</tspan></text>
      <g id="Download-2" data-name="Download" transform="translate(1448 533)">
        <g id="Group_269944" data-name="Group 269944" transform="translate(-8 -8)">
          <g id="Group_269943" data-name="Group 269943">
            <path id="Path_101885" data-name="Path 101885" d="M7.843,11.923a.223.223,0,0,0,.323,0l3.556-3.748a.234.234,0,0,0,0-.318l-.947-1a.213.213,0,0,0-.315,0L8.889,8.513V.234A.234.234,0,0,0,8.655,0H7.345a.234.234,0,0,0-.234.234V8.513L5.54,6.859a.208.208,0,0,0-.311,0l-.942.992a.235.235,0,0,0,0,.328Z" fill="#fff"/>
            <rect id="Rectangle_10711" data-name="Rectangle 10711" width="16" height="2" rx="0.5" transform="translate(0 14)" fill="#fff"/>
          </g>
          <rect id="Rectangle_10712" data-name="Rectangle 10712" width="16" height="16" fill="none"/>
        </g>
      </g>
    </g>
    <g id="Side_nav" data-name="Side nav" transform="translate(0 65)">
      <path id="Path_5700" data-name="Path 5700" d="M0-1,249.5,0V1014H0V-1Z" transform="translate(0 1)" fill="#fff"/>
      <rect id="Rectangle_5301" data-name="Rectangle 5301" width="60" height="50" transform="translate(0 1)" fill="none" opacity="0.3"/>
      <rect id="Rectangle_4697" data-name="Rectangle 4697" width="249.5" height="50" transform="translate(0.5 1.5)" fill="none"/>
      <g id="Group_264154" data-name="Group 264154">
        <circle id="Ellipse_403" data-name="Ellipse 403" cx="10" cy="10" r="10" transform="translate(20 19)" fill="#f4f4f6"/>
        <rect id="Rectangle_9760" data-name="Rectangle 9760" width="38" height="14" rx="7" transform="translate(60 22)" fill="#f4f4f6"/>
      </g>
      <g id="Group_264153" data-name="Group 264153">
        <circle id="Ellipse_404" data-name="Ellipse 404" cx="10" cy="10" r="10" transform="translate(20 66)" fill="#f4f4f6"/>
        <rect id="Rectangle_9761" data-name="Rectangle 9761" width="137" height="14" rx="7" transform="translate(60 69)" fill="#f4f4f6"/>
      </g>
      <g id="Group_264155" data-name="Group 264155">
        <circle id="Ellipse_405" data-name="Ellipse 405" cx="10" cy="10" r="10" transform="translate(20 116)" fill="#f4f4f6"/>
        <rect id="Rectangle_9762" data-name="Rectangle 9762" width="92" height="14" rx="7" transform="translate(60 119)" fill="#f4f4f6"/>
        <g id="Chevron-down" transform="translate(214.5 116)">
          <g id="Group_8144" data-name="Group 8144">
            <rect id="Rectangle_5318" data-name="Rectangle 5318" width="20" height="20" fill="none"/>
            <path id="Path_5792" data-name="Path 5792" d="M18.75,15.072l1.2,1.2a.25.25,0,0,1,0,.4l-4.75,4.75a.25.25,0,0,1-.4,0l-4.7-4.75a.25.25,0,0,1,0-.4l1.2-1.2a.25.25,0,0,1,.4,0l3.3,3.35,3.35-3.4a.25.25,0,0,1,.4.05Z" transform="translate(-5 -7.472)" fill="#f4f4f6"/>
          </g>
        </g>
      </g>
      <g id="Group_264156" data-name="Group 264156">
        <circle id="Ellipse_406" data-name="Ellipse 406" cx="10" cy="10" r="10" transform="translate(20 166)" fill="#f4f4f6"/>
        <rect id="Rectangle_9763" data-name="Rectangle 9763" width="101" height="14" rx="7" transform="translate(60 169)" fill="#f4f4f6"/>
        <g id="Chevron-down-2" data-name="Chevron-down" transform="translate(214.5 166)">
          <g id="Group_8144-2" data-name="Group 8144">
            <rect id="Rectangle_5318-2" data-name="Rectangle 5318" width="20" height="20" fill="none"/>
            <path id="Path_5792-2" data-name="Path 5792" d="M18.75,15.072l1.2,1.2a.25.25,0,0,1,0,.4l-4.75,4.75a.25.25,0,0,1-.4,0l-4.7-4.75a.25.25,0,0,1,0-.4l1.2-1.2a.25.25,0,0,1,.4,0l3.3,3.35,3.35-3.4a.25.25,0,0,1,.4.05Z" transform="translate(-5 -7.472)" fill="#f4f4f6"/>
          </g>
        </g>
      </g>
      <g id="Group_264157" data-name="Group 264157">
        <circle id="Ellipse_407" data-name="Ellipse 407" cx="10" cy="10" r="10" transform="translate(20 216)" fill="#f4f4f6"/>
        <rect id="Rectangle_9764" data-name="Rectangle 9764" width="74" height="14" rx="7" transform="translate(60 219)" fill="#f4f4f6"/>
        <g id="Chevron-down-3" data-name="Chevron-down" transform="translate(214.5 216)">
          <g id="Group_8144-3" data-name="Group 8144">
            <rect id="Rectangle_5318-3" data-name="Rectangle 5318" width="20" height="20" fill="none"/>
            <path id="Path_5792-3" data-name="Path 5792" d="M18.75,15.072l1.2,1.2a.25.25,0,0,1,0,.4l-4.75,4.75a.25.25,0,0,1-.4,0l-4.7-4.75a.25.25,0,0,1,0-.4l1.2-1.2a.25.25,0,0,1,.4,0l3.3,3.35,3.35-3.4a.25.25,0,0,1,.4.05Z" transform="translate(-5 -7.472)" fill="#f4f4f6"/>
          </g>
        </g>
      </g>
      <g id="Group_264158" data-name="Group 264158">
        <circle id="Ellipse_408" data-name="Ellipse 408" cx="10" cy="10" r="10" transform="translate(20 266)" fill="#f4f4f6"/>
        <rect id="Rectangle_9765" data-name="Rectangle 9765" width="135" height="14" rx="7" transform="translate(60 269)" fill="#f4f4f6"/>
        <g id="Chevron-down-4" data-name="Chevron-down" transform="translate(214.5 266)">
          <g id="Group_8144-4" data-name="Group 8144">
            <rect id="Rectangle_5318-4" data-name="Rectangle 5318" width="20" height="20" fill="none"/>
            <path id="Path_5792-4" data-name="Path 5792" d="M18.75,15.072l1.2,1.2a.25.25,0,0,1,0,.4l-4.75,4.75a.25.25,0,0,1-.4,0l-4.7-4.75a.25.25,0,0,1,0-.4l1.2-1.2a.25.25,0,0,1,.4,0l3.3,3.35,3.35-3.4a.25.25,0,0,1,.4.05Z" transform="translate(-5 -7.472)" fill="#f4f4f6"/>
          </g>
        </g>
      </g>
      <g id="Group_264159" data-name="Group 264159">
        <circle id="Ellipse_409" data-name="Ellipse 409" cx="10" cy="10" r="10" transform="translate(20 316)" fill="#f4f4f6"/>
        <rect id="Rectangle_9766" data-name="Rectangle 9766" width="117" height="14" rx="7" transform="translate(60 319)" fill="#f4f4f6"/>
        <g id="Chevron-down-5" data-name="Chevron-down" transform="translate(214.5 316)">
          <g id="Group_8144-5" data-name="Group 8144">
            <rect id="Rectangle_5318-5" data-name="Rectangle 5318" width="20" height="20" fill="none"/>
            <path id="Path_5792-5" data-name="Path 5792" d="M18.75,15.072l1.2,1.2a.25.25,0,0,1,0,.4l-4.75,4.75a.25.25,0,0,1-.4,0l-4.7-4.75a.25.25,0,0,1,0-.4l1.2-1.2a.25.25,0,0,1,.4,0l3.3,3.35,3.35-3.4a.25.25,0,0,1,.4.05Z" transform="translate(-5 -7.472)" fill="#f4f4f6"/>
          </g>
        </g>
      </g>
      <g id="Group_264160" data-name="Group 264160">
        <circle id="Ellipse_410" data-name="Ellipse 410" cx="10" cy="10" r="10" transform="translate(20 366)" fill="#f4f4f6"/>
        <rect id="Rectangle_9767" data-name="Rectangle 9767" width="59" height="14" rx="7" transform="translate(60 369)" fill="#f4f4f6"/>
        <g id="Chevron-down-6" data-name="Chevron-down" transform="translate(214.5 366)">
          <g id="Group_8144-6" data-name="Group 8144">
            <rect id="Rectangle_5318-6" data-name="Rectangle 5318" width="20" height="20" fill="none"/>
            <path id="Path_5792-6" data-name="Path 5792" d="M18.75,15.072l1.2,1.2a.25.25,0,0,1,0,.4l-4.75,4.75a.25.25,0,0,1-.4,0l-4.7-4.75a.25.25,0,0,1,0-.4l1.2-1.2a.25.25,0,0,1,.4,0l3.3,3.35,3.35-3.4a.25.25,0,0,1,.4.05Z" transform="translate(-5 -7.472)" fill="#f4f4f6"/>
          </g>
        </g>
      </g>
      <g id="Group_264137" data-name="Group 264137" transform="translate(0 43)">
        <g id="Group_264161" data-name="Group 264161">
          <circle id="Ellipse_411" data-name="Ellipse 411" cx="10" cy="10" r="10" transform="translate(20 831)" fill="#f4f4f6"/>
          <rect id="Rectangle_9768" data-name="Rectangle 9768" width="50" height="14" rx="7" transform="translate(60 834)" fill="#f4f4f6"/>
        </g>
        <g id="Group_264163" data-name="Group 264163">
          <circle id="Ellipse_412" data-name="Ellipse 412" cx="10" cy="10" r="10" transform="translate(20 882)" fill="#f4f4f6"/>
          <rect id="Rectangle_9769" data-name="Rectangle 9769" width="109" height="14" rx="7" transform="translate(60 885)" fill="#f4f4f6"/>
        </g>
        <g id="Group_264162" data-name="Group 264162">
          <circle id="Ellipse_413" data-name="Ellipse 413" cx="10" cy="10" r="10" transform="translate(20 932)" fill="#f4f4f6"/>
          <rect id="Rectangle_9770" data-name="Rectangle 9770" width="55" height="14" rx="7" transform="translate(60 935)" fill="#f4f4f6"/>
        </g>
        <rect id="Rectangle_9771" data-name="Rectangle 9771" width="249.5" height="1" transform="translate(0 917)" fill="#f9f9fa"/>
      </g>
    </g>
    <g id="Top_Bar" data-name="Top Bar">
      <rect id="Rectangle_1" data-name="Rectangle 1" width="1920" height="60" fill="#fff"/>
      <path id="Path_5690" data-name="Path 5690" d="M0,0H1920V5H0Z" transform="translate(0 60)" fill="#2777d3"/>
      <g id="Group_12278" data-name="Group 12278" transform="translate(1712)">
        <rect id="Rectangle_5392" data-name="Rectangle 5392" width="208" height="60" fill="none"/>
        <g id="Group_8927" data-name="Group 8927" transform="translate(72 14)">
          <text id="Adam_Gilson" data-name="Adam Gilson" transform="translate(81 15)" fill="#494955" font-size="14" font-family="SegoeUI-Semibold, Segoe UI" font-weight="600"><tspan x="-81.033" y="0">Adam Gilson</tspan></text>
        </g>
        <circle id="Ellipse_402" data-name="Ellipse 402" cx="18" cy="18" r="18" transform="translate(162 13)" fill="#78788c"/>
        <text id="Willis_Insurance_-_Nashville" data-name="Willis Insurance - Nashville" transform="translate(153 45)" fill="#494955" font-size="12" font-family="SegoeUI, Segoe UI"><tspan x="-141.047" y="0">Willis Insurance - Nashville</tspan></text>
        <text id="AG" transform="translate(171 36)" fill="#fff" font-size="14" font-family="SegoeUI-Semibold, Segoe UI" font-weight="600"><tspan x="0" y="0">AG</tspan></text>
      </g>
      <g id="Group_70" data-name="Group 70" transform="translate(-3.8)">
        <g id="Rectangle_2" data-name="Rectangle 2" transform="translate(254.8 9)" fill="#fff" stroke="#dbdbdb" stroke-width="1">
          <rect width="390" height="42" rx="2" stroke="none"/>
          <rect x="0.5" y="0.5" width="389" height="41" rx="1.5" fill="none"/>
        </g>
        <text id="Search" transform="translate(268.8 36)" fill="#c6c6c6" font-size="14" font-family="OpenSans-Regular, Open Sans"><tspan x="0" y="0">Search</tspan></text>
        <path id="Rectangle_3" data-name="Rectangle 3" d="M0,0H47a1,1,0,0,1,1,1V39a1,1,0,0,1-1,1H0a0,0,0,0,1,0,0V0A0,0,0,0,1,0,0Z" transform="translate(595.8 10)" fill="#fafafa"/>
        <rect id="Rectangle_4" data-name="Rectangle 4" width="1" height="40" transform="translate(595.8 10)" fill="#ebebeb"/>
        <path id="Path_3" data-name="Path 3" d="M303.8,258.3l-5-5a6.354,6.354,0,0,0,1.1-4.9,6.471,6.471,0,0,0-5.6-5.3,6.53,6.53,0,0,0-2,12.9,6.914,6.914,0,0,0,4.9-1.1l5,5a1.088,1.088,0,0,0,1.5,0A1.222,1.222,0,0,0,303.8,258.3Zm-14.7-9.5a4.458,4.458,0,0,1,3.7-3.7,4.57,4.57,0,0,1,5.2,5.2,4.458,4.458,0,0,1-3.7,3.7A4.609,4.609,0,0,1,289.1,248.8Z" transform="translate(324.8 -222.052)" fill="#5786bd"/>
        <path id="Path_4" data-name="Path 4" d="M284.1,240h24v24h-24Z" transform="translate(327.8 -222)" fill="none"/>
        <rect id="Rectangle_6" data-name="Rectangle 6" width="24" height="24" transform="translate(611.8 18)" fill="none"/>
        <rect id="Rectangle_7" data-name="Rectangle 7" width="24" height="24" transform="translate(571.8 18)" fill="none"/>
      </g>
      <g id="Group_264060" data-name="Group 264060" transform="translate(-1 -4)">
        <rect id="Rectangle_6838" data-name="Rectangle 6838" width="5" height="5" rx="1" transform="translate(20 26)" fill="#8b8d8e"/>
        <rect id="Rectangle_6838-2" data-name="Rectangle 6838" width="5" height="5" rx="1" transform="translate(27 26)" fill="#8b8d8e"/>
        <rect id="Rectangle_6838-3" data-name="Rectangle 6838" width="5" height="5" rx="1" transform="translate(34 26)" fill="#8b8d8e"/>
        <rect id="Rectangle_6838-4" data-name="Rectangle 6838" width="5" height="5" rx="1" transform="translate(20 33)" fill="#8b8d8e"/>
        <rect id="Rectangle_6838-5" data-name="Rectangle 6838" width="5" height="5" rx="1" transform="translate(27 33)" fill="#8b8d8e"/>
        <rect id="Rectangle_6838-6" data-name="Rectangle 6838" width="5" height="5" rx="1" transform="translate(34 33)" fill="#8b8d8e"/>
        <rect id="Rectangle_6838-7" data-name="Rectangle 6838" width="5" height="5" rx="1" transform="translate(20 40)" fill="#8b8d8e"/>
        <rect id="Rectangle_6838-8" data-name="Rectangle 6838" width="5" height="5" rx="1" transform="translate(27 40)" fill="#8b8d8e"/>
        <rect id="Rectangle_6838-9" data-name="Rectangle 6838" width="5" height="5" rx="1" transform="translate(34 40)" fill="#8b8d8e"/>
        <g id="Group_8109" data-name="Group 8109" transform="translate(-179.611 -26.669)">
          <g id="Group_8108" data-name="Group 8108" transform="translate(240.611 52.669)">
            <path id="Path_5691" data-name="Path 5691" d="M338.172,52.669l-5.535,12.224L327.1,52.669h-2.214l7.75,17.142,7.756-17.142Z" transform="translate(-253.576 -52.669)" fill="#8b8d8e"/>
            <path id="Path_5692" data-name="Path 5692" d="M319.588,69.811h2.219l-7.739-17.142h-.847l-7.739,17.142h2.225l1.7-3.794h8.485ZM310.31,64l3.332-7.348L316.975,64Z" transform="translate(-250.591 -52.669)" fill="#8b8d8e"/>
            <path id="Path_5693" data-name="Path 5693" d="M349.812,61.923h6.161V59.9h-6.161V54.682h6.7l1.075-2.013h-9.8V69.811h8.739l1.075-2.063h-7.792Z" transform="translate(-257.1 -52.669)" fill="#8b8d8e"/>
            <path id="Path_5694" data-name="Path 5694" d="M298.3,52.669,292.8,64.892,287.9,54.155l-4.864,10.737-5.318-12.223h-3.3l-2.965,6.545,1.111,2.457,3.4-7.509,7.068,15.648L287.9,59.054,292.8,69.811l7.706-17.142Z" transform="translate(-245.356 -52.669)" fill="#8b8d8e"/>
            <path id="Path_5695" data-name="Path 5695" d="M244.327,67.767l9.815-15.09h-11.9l-.918,2.008h9.1l-9.814,15.09h13.52l.908-2.008Z" transform="translate(-240.611 -52.67)" fill="#8b8d8e"/>
          </g>
          <path id="Path_5696" data-name="Path 5696" d="M264.519,52.669h-4.4l4.955,11-4.955,11h4.4l4.987-11Z" transform="translate(-3.001)" fill="#5fb53b"/>
        </g>
      </g>
    </g>
    <g id="Top_Bar-2" data-name="Top Bar">
      <rect id="Rectangle_1-2" data-name="Rectangle 1" width="1920" height="60" fill="#fff"/>
      <rect id="Rectangle_10685" data-name="Rectangle 10685" width="100" height="36" rx="18" transform="translate(10 13)" fill="#f4f4f6"/>
      <path id="Path_5690-2" data-name="Path 5690" d="M0,0H1920V5H0Z" transform="translate(0 60)" fill="#cbcbd2"/>
      <g id="Group_12278-2" data-name="Group 12278" transform="translate(1712)">
        <rect id="Rectangle_5392-2" data-name="Rectangle 5392" width="208" height="60" fill="none"/>
        <circle id="Ellipse_402-2" data-name="Ellipse 402" cx="18" cy="18" r="18" transform="translate(162 13)" fill="#f4f4f6"/>
        <rect id="Rectangle_9756" data-name="Rectangle 9756" width="81" height="12" rx="6" transform="translate(72 18)" fill="#f4f4f6"/>
        <rect id="Rectangle_9757" data-name="Rectangle 9757" width="140" height="12" rx="6" transform="translate(13 34)" fill="#f4f4f6"/>
      </g>
    </g>
  </g>
</svg>
