<svg xmlns="http://www.w3.org/2000/svg" xmlns:xlink="http://www.w3.org/1999/xlink" width="1000" height="532" viewBox="0 0 1000 532">
  <defs>
    <filter id="Card" x="100.5" y="95.5" width="799" height="345" filterUnits="userSpaceOnUse">
      <feOffset dy="1" input="SourceAlpha"/>
      <feGaussianBlur stdDeviation="1.5" result="blur"/>
      <feFlood flood-opacity="0.161"/>
      <feComposite operator="in" in2="blur"/>
      <feComposite in="SourceGraphic"/>
    </filter>
    <clipPath id="clip-layout_and_structure">
      <rect width="1000" height="532"/>
    </clipPath>
  </defs>
  <g id="layout_and_structure" data-name="layout and structure" clip-path="url(#clip-layout_and_structure)">
    <rect width="1000" height="532" fill="#f4f4f6"/>
    <g id="Card-2" data-name="Card" transform="translate(105 99)">
      <g transform="matrix(1, 0, 0, 1, -105, -99)" filter="url(#Card)">
        <rect id="Card-3" data-name="Card" width="790" height="336" rx="2" transform="translate(105 99)" fill="#fff"/>
      </g>
      <rect id="Card-4" data-name="Card" width="790" height="61" rx="2" fill="#fafafa"/>
      <text id="Top_underwriters_by_total_quote_volume" data-name="Top underwriters by total quote volume" transform="translate(20 37)" fill="#31313a" font-size="16" font-family="SegoeUI-Semibold, Segoe UI" font-weight="600"><tspan x="0" y="0">Top underwriters by total quote volume</tspan></text>
      <line id="Line_27" data-name="Line 27" x2="790" transform="translate(0 61)" fill="none" stroke="#e6e6ea" stroke-width="1"/>
      <g id="External" transform="translate(754 23)">
        <g id="Group_270302" data-name="Group 270302" transform="translate(0 0)">
          <g id="Group_270301" data-name="Group 270301">
            <path id="Path_101932" data-name="Path 101932" d="M8.169,8.655a.212.212,0,0,0,.3,0l2.642-2.639V7.8a.192.192,0,0,0,.2.2h1.376a.2.2,0,0,0,.2-.2V3.312a.2.2,0,0,0-.2-.2l-4.477,0a.21.21,0,0,0-.21.21V4.689a.2.2,0,0,0,.2.2H9.985L7.342,7.528a.214.214,0,0,0,0,.3Z" fill="#2777d3"/>
            <path id="Path_101933" data-name="Path 101933" d="M15.24,0H4.76A.762.762,0,0,0,4,.76V4H.76A.762.762,0,0,0,0,4.76V15.24A.762.762,0,0,0,.76,16H11.24a.762.762,0,0,0,.76-.76V12h3.24a.762.762,0,0,0,.76-.76V.76A.762.762,0,0,0,15.24,0ZM10.667,14.667H1.333V5.333H4V12h6.667Zm4-4H5.333V1.333h9.334Z" fill="#2777d3"/>
          </g>
          <rect id="Rectangle_11495" data-name="Rectangle 11495" width="16" height="16" transform="translate(0.001 0)" fill="none"/>
        </g>
      </g>
      <g id="Favorite-empty" transform="translate(718 23)">
        <g id="Group_270307" data-name="Group 270307">
          <path id="Path_101936" data-name="Path 101936" d="M8.8,6.412l.225.691a.332.332,0,0,0,.317.23h3.313L10.561,8.854l-.587.427a.334.334,0,0,0-.122.372l.225.691.8,2.46-2.092-1.52L8.2,10.857a.333.333,0,0,0-.392,0l-.588.427L5.124,12.8l.8-2.46.225-.691a.334.334,0,0,0-.122-.372l-.587-.427L3.346,7.333H6.659a.332.332,0,0,0,.317-.23L7.2,6.412,8,3.952ZM8,.453A.359.359,0,0,0,7.653.7L5.933,6H.366a.365.365,0,0,0-.215.66l4.5,3.272-1.72,5.3a.364.364,0,0,0,.561.408L8,12.363l4.5,3.272a.364.364,0,0,0,.561-.408l-1.72-5.3,4.5-3.272A.365.365,0,0,0,15.634,6H10.067L8.347.7A.359.359,0,0,0,8,.453Z" transform="translate(0)" fill="#2777d3"/>
          <rect id="Rectangle_11503" data-name="Rectangle 11503" width="16" height="16" transform="translate(0)" fill="none"/>
        </g>
      </g>
      <rect id="Rectangle_11676" data-name="Rectangle 11676" width="209" height="1" transform="translate(313.001 81) rotate(90)" fill="#e6e6ea"/>
      <rect id="Rectangle_11677" data-name="Rectangle 11677" width="209" height="1" transform="translate(763.999 81) rotate(90)" fill="#e6e6ea"/>
      <rect id="Rectangle_11678" data-name="Rectangle 11678" width="209" height="1" transform="translate(119 81) rotate(90)" fill="#e6e6ea"/>
      <text id="Greg_McGreg" data-name="Greg McGreg" transform="translate(111 236)" fill="#31313a" font-size="12" font-family="SegoeUI, Segoe UI"><tspan x="-71.098" y="0">Greg McGreg</tspan></text>
      <text id="Shania_Twine" data-name="Shania Twine" transform="translate(111 280)" fill="#31313a" font-size="12" font-family="SegoeUI, Segoe UI"><tspan x="-68.631" y="0">Shania Twine</tspan></text>
      <text id="_0" data-name="0" transform="translate(121 313)" fill="#31313a" font-size="12" font-family="SegoeUI, Segoe UI"><tspan x="-3.234" y="0">0</tspan></text>
      <text id="_300" data-name="300" transform="translate(313 313)" fill="#31313a" font-size="12" font-family="SegoeUI, Segoe UI"><tspan x="-9.703" y="0">300</tspan></text>
      <text id="_1000" data-name="1000" transform="translate(762 313)" fill="#31313a" font-size="12" font-family="SegoeUI, Segoe UI"><tspan x="-12.938" y="0">1000</tspan></text>
      <text id="Sally_Ride" data-name="Sally Ride" transform="translate(111 192)" fill="#31313a" font-size="12" font-family="SegoeUI, Segoe UI"><tspan x="-50.813" y="0">Sally Ride</tspan></text>
      <text id="Bobby_Shmurd" data-name="Bobby Shmurd" transform="translate(111 146)" fill="#31313a" font-size="12" font-family="SegoeUI, Segoe UI"><tspan x="-78.645" y="0">Bobby Shmurd</tspan></text>
      <rect id="Rectangle_11679" data-name="Rectangle 11679" width="209" height="1" transform="translate(184 81) rotate(90)" fill="#e6e6ea"/>
      <rect id="Rectangle_11680" data-name="Rectangle 11680" width="209" height="1" transform="translate(248.001 81) rotate(90)" fill="#e6e6ea"/>
      <text id="_100" data-name="100" transform="translate(183 313)" fill="#31313a" font-size="12" font-family="SegoeUI, Segoe UI"><tspan x="-9.703" y="0">100</tspan></text>
      <text id="_700" data-name="700" transform="translate(571 313)" fill="#31313a" font-size="12" font-family="SegoeUI, Segoe UI"><tspan x="-9.703" y="0">700</tspan></text>
      <rect id="Rectangle_11695" data-name="Rectangle 11695" width="209" height="1" transform="translate(377 81) rotate(90)" fill="#e6e6ea"/>
      <rect id="Rectangle_11696" data-name="Rectangle 11696" width="209" height="1" transform="translate(442 81) rotate(90)" fill="#e6e6ea"/>
      <rect id="Rectangle_11697" data-name="Rectangle 11697" width="209" height="1" transform="translate(506 81) rotate(90)" fill="#e6e6ea"/>
      <rect id="Rectangle_11698" data-name="Rectangle 11698" width="209" height="1" transform="translate(570.999 81) rotate(90)" fill="#e6e6ea"/>
      <text id="_200" data-name="200" transform="translate(248 313)" fill="#31313a" font-size="12" font-family="SegoeUI, Segoe UI"><tspan x="-9.703" y="0">200</tspan></text>
      <rect id="Rectangle_11699" data-name="Rectangle 11699" width="209" height="1" transform="translate(635.001 81) rotate(90)" fill="#e6e6ea"/>
      <rect id="Rectangle_11700" data-name="Rectangle 11700" width="209" height="1" transform="translate(700 81) rotate(90)" fill="#e6e6ea"/>
      <text id="_400" data-name="400" transform="translate(376 313)" fill="#31313a" font-size="12" font-family="SegoeUI, Segoe UI"><tspan x="-9.703" y="0">400</tspan></text>
      <text id="_500" data-name="500" transform="translate(441 313)" fill="#31313a" font-size="12" font-family="SegoeUI, Segoe UI"><tspan x="-9.703" y="0">500</tspan></text>
      <text id="_600" data-name="600" transform="translate(506 313)" fill="#31313a" font-size="12" font-family="SegoeUI, Segoe UI"><tspan x="-9.703" y="0">600</tspan></text>
      <text id="_800" data-name="800" transform="translate(634 313)" fill="#31313a" font-size="12" font-family="SegoeUI, Segoe UI"><tspan x="-9.703" y="0">800</tspan></text>
      <text id="_900" data-name="900" transform="translate(699 313)" fill="#31313a" font-size="12" font-family="SegoeUI, Segoe UI"><tspan x="-9.703" y="0">900</tspan></text>
      <rect id="Rectangle_11682" data-name="Rectangle 11682" width="99" height="30" transform="translate(119 260)" fill="#30bbb1"/>
      <rect id="Rectangle_11683" data-name="Rectangle 11683" width="112" height="30" transform="translate(119 216)" fill="#30bbb1"/>
      <rect id="Rectangle_11684" data-name="Rectangle 11684" width="276" height="30" transform="translate(119 171)" fill="#30bbb1"/>
      <rect id="Rectangle_11685" data-name="Rectangle 11685" width="357" height="30" transform="translate(119 126)" fill="#30bbb1"/>
      <g id="Component_60_1" data-name="Component 60 – 1" transform="translate(65 19.41)">
        <text id="Billy_Bob" data-name="Billy Bob" transform="translate(46 81.59)" fill="#31313a" font-size="12" font-family="SegoeUI, Segoe UI"><tspan x="-45.656" y="0">Billy Bob</tspan></text>
        <rect id="Rectangle_11686" data-name="Rectangle 11686" width="387" height="30" transform="translate(54 61.59)" fill="#4dd1c8"/>
        <g id="Tooltip-_Top" data-name="Tooltip- Top" transform="translate(196 30)">
          <g id="Group_264703" data-name="Group 264703" transform="translate(0 -29.999)">
            <path id="Union_1" data-name="Union 1" d="M45.96,53.416H-6a2,2,0,0,1-2-2V2A2,2,0,0,1-6,0H109a2,2,0,0,1,2,2V51.416a2,2,0,0,1-2,2H56.679l-5.36,4.172Z" fill="#494955"/>
            <g id="Group_264702" data-name="Group 264702" transform="translate(13.5 0.228)">
              <text id="_600-2" data-name="600" transform="translate(27 24)" fill="#fff" font-size="14" font-family="SegoeUI, Segoe UI"><tspan x="0" y="0">600</tspan></text>
              <text id="Total_quote_volume" data-name="Total quote volume" transform="translate(38 41.722)" fill="#fff" font-size="11" font-family="SegoeUI, Segoe UI"><tspan x="-46.804" y="0">Total quote volume</tspan></text>
            </g>
          </g>
        </g>
      </g>
      <g id="Dropdown_Select-Side-NEW" data-name="Dropdown Select-Side-NEW" transform="translate(441 10)">
        <text id="Sort" transform="translate(27 27)" fill="#31313a" font-size="14" font-family="SegoeUI-Semibold, Segoe UI" font-weight="600"><tspan x="-26.626" y="0">Sort</tspan></text>
        <g id="Group_15151" data-name="Group 15151" transform="translate(-5034 -7967)">
          <g id="Group_14579" data-name="Group 14579" transform="translate(5091 7967)">
            <g id="Rectangle_288" data-name="Rectangle 288" fill="#fff" stroke="#cbcbd2" stroke-width="1">
              <rect width="200" height="42" rx="4" stroke="none"/>
              <rect x="0.5" y="0.5" width="199" height="41" rx="3.5" fill="none"/>
            </g>
            <text id="Hint_text" data-name="Hint text" transform="translate(15 27)" fill="#cbcbd2" font-size="14" font-family="SegoeUI, Segoe UI"><tspan x="0" y="0">Hint text</tspan></text>
            <g id="Group_7793" data-name="Group 7793" transform="translate(166 9)">
              <rect id="Rectangle_3867" data-name="Rectangle 3867" width="24" height="24" fill="none"/>
              <path id="Path_5558" data-name="Path 5558" d="M56,9.4l-3,3-3-3a.967.967,0,0,0-1.4,0h0a.967.967,0,0,0,0,1.4l3.7,3.7a.967.967,0,0,0,1.4,0l3.7-3.7a.967.967,0,0,0,0-1.4h0A.965.965,0,0,0,56,9.4Z" transform="translate(-41)" fill="#9494a4"/>
            </g>
          </g>
          <g id="Rectangle_8096" data-name="Rectangle 8096" transform="translate(5091 7967)" fill="#fff" stroke="#cbcbd2" stroke-width="1">
            <rect width="200" height="42" rx="4" stroke="none"/>
            <rect x="0.5" y="0.5" width="199" height="41" rx="3.5" fill="none"/>
          </g>
          <text id="Highest_performing" data-name="Highest performing" transform="translate(5106 7994)" fill="#494955" font-size="14" font-family="SegoeUI, Segoe UI"><tspan x="0" y="0">Highest performing</tspan></text>
          <g id="Group_14548" data-name="Group 14548" transform="translate(5257 7976)">
            <rect id="Rectangle_3867-2" data-name="Rectangle 3867" width="24" height="24" fill="none"/>
            <path id="Path_5558-2" data-name="Path 5558" d="M56,9.4l-3,3-3-3a.967.967,0,0,0-1.4,0h0a.967.967,0,0,0,0,1.4l3.7,3.7a.967.967,0,0,0,1.4,0l3.7-3.7a.967.967,0,0,0,0-1.4h0A.965.965,0,0,0,56,9.4Z" transform="translate(-41)" fill="#9494a4"/>
          </g>
        </g>
      </g>
    </g>
    <g id="Group_270716" data-name="Group 270716" transform="translate(-32 -249.079)">
      <path id="Path_1" data-name="Path 1" d="M12,0A12,12,0,1,1,0,12,12,12,0,0,1,12,0Z" transform="translate(68 366.91)" fill="#17987c"/>
      <path id="Path_3" data-name="Path 3" d="M0,0H1V39H0Z" transform="translate(91 378.91) rotate(-90)" fill="#17987c"/>
      <g id="Group_5" data-name="Group 5" transform="translate(0 -2.921)">
        <g id="Group_6" data-name="Group 6" transform="translate(0 351)">
          <path id="Path_8" data-name="Path 8" d="M0,0H1V5H0Z" transform="translate(128 1) rotate(-90)" fill="#17987c"/>
          <path id="Path_9" data-name="Path 9" d="M0,0H1V5H0Z" transform="translate(128 61.663) rotate(-90)" fill="#17987c"/>
          <path id="Path_7" data-name="Path 7" d="M0,0H1V60.163H0Z" transform="translate(130 0.75)" fill="#17987c"/>
        </g>
      </g>
      <text id="_1" data-name="1" transform="translate(77 383.91)" fill="#fff" font-size="14" font-family="SegoeUI-Semibold, Segoe UI" font-weight="600"><tspan x="0" y="0">1</tspan></text>
    </g>
    <g id="Group_270718" data-name="Group 270718" transform="translate(-32 -169.079)">
      <path id="Path_1-2" data-name="Path 1" d="M12,0A12,12,0,1,1,0,12,12,12,0,0,1,12,0Z" transform="translate(68 441.629)" fill="#17987c"/>
      <path id="Path_3-2" data-name="Path 3" d="M0,0H1V39H0Z" transform="translate(91 453.629) rotate(-90)" fill="#17987c"/>
      <g id="Group_5-2" data-name="Group 5" transform="translate(0 -2.921)">
        <g id="Group_6-2" data-name="Group 6" transform="translate(0 351)">
          <path id="Path_8-2" data-name="Path 8" d="M0,0H1V5H0Z" transform="translate(128 1) rotate(-90)" fill="#17987c"/>
          <path id="Path_9-2" data-name="Path 9" d="M0,0H1V5H0Z" transform="translate(128 211.099) rotate(-90)" fill="#17987c"/>
          <path id="Path_7-2" data-name="Path 7" d="M0,0H1V209.6H0Z" transform="translate(130 0.75)" fill="#17987c"/>
        </g>
      </g>
      <text id="_2" data-name="2" transform="translate(76 458.629)" fill="#fff" font-size="14" font-family="SegoeUI-Semibold, Segoe UI" font-weight="600"><tspan x="0" y="0">2</tspan></text>
    </g>
    <g id="Group_267164" data-name="Group 267164" transform="translate(-31 -35.182)">
      <g id="Group_267158" data-name="Group 267158" transform="translate(0 -65.954)">
        <path id="Path_1-3" data-name="Path 1" d="M12,0A12,12,0,1,1,0,12,12,12,0,0,1,12,0Z" transform="translate(67 445.077)" fill="#17987c"/>
        <path id="Path_3-3" data-name="Path 3" d="M0,0H1V158H0Z" transform="translate(91 457.436) rotate(-90)" fill="#17987c"/>
        <text id="_3" data-name="3" transform="translate(75 462.077)" fill="#fff" font-size="14" font-family="SegoeUI-Semibold, Segoe UI" font-weight="600"><tspan x="0" y="0">3</tspan></text>
      </g>
    </g>
    <g id="Group_270720" data-name="Group 270720" transform="translate(-102.124 569) rotate(-90)">
      <g id="Group_267158-2" data-name="Group 267158" transform="translate(0 -65.954)">
        <path id="Path_1-4" data-name="Path 1" d="M12,0A12,12,0,1,1,0,12,12,12,0,0,1,12,0Z" transform="translate(67 445.077)" fill="#17987c"/>
        <path id="Path_3-4" data-name="Path 3" d="M0,0H1V64.25H0Z" transform="translate(91 457.436) rotate(-90)" fill="#17987c"/>
        <text id="_4" data-name="4" transform="translate(73.5 452.577) rotate(90)" fill="#fff" font-size="14" font-family="SegoeUI-Semibold, Segoe UI" font-weight="600"><tspan x="0" y="0">4</tspan></text>
      </g>
    </g>
    <g id="Group_270721" data-name="Group 270721" transform="translate(899 99)">
      <path id="Path_1-5" data-name="Path 1" d="M12,0A12,12,0,1,0,24,12,12,12,0,0,0,12,0Z" transform="translate(41 18.831)" fill="#17987c"/>
      <path id="Path_3-5" data-name="Path 3" d="M0,39H1V0H0Z" transform="translate(3 30.831) rotate(-90)" fill="#17987c"/>
      <g id="Group_5-3" data-name="Group 5" transform="translate(133)">
        <g id="Group_6-3" data-name="Group 6">
          <path id="Path_8-3" data-name="Path 8" d="M0,5H1V0H0Z" transform="translate(-133 1) rotate(-90)" fill="#17987c"/>
          <path id="Path_9-3" data-name="Path 9" d="M0,5H1V0H0Z" transform="translate(-133 61.663) rotate(-90)" fill="#17987c"/>
          <path id="Path_7-3" data-name="Path 7" d="M1,0H0V60.163H1Z" transform="translate(-131 0.75)" fill="#17987c"/>
        </g>
      </g>
      <text id="_5" data-name="5" transform="translate(49 35.831)" fill="#fff" font-size="14" font-family="SegoeUI-Semibold, Segoe UI" font-weight="600"><tspan x="0" y="0">5</tspan></text>
    </g>
    <g id="Group_270723" data-name="Group 270723" transform="translate(810.455 -37) rotate(90)">
      <g id="Group_267158-3" data-name="Group 267158" transform="translate(0 -65.954)">
        <path id="Path_1-6" data-name="Path 1" d="M12,0A12,12,0,1,1,0,12,12,12,0,0,1,12,0Z" transform="translate(67 445.077)" fill="#17987c"/>
        <path id="Path_3-6" data-name="Path 3" d="M0,0H1V60H0Z" transform="translate(91 457.436) rotate(-90)" fill="#17987c"/>
        <text id="_6" data-name="6" transform="translate(83.5 461.577) rotate(-90)" fill="#fff" font-size="14" font-family="SegoeUI-Semibold, Segoe UI" font-weight="600"><tspan x="0" y="0">6</tspan></text>
      </g>
    </g>
  </g>
</svg>
