<svg xmlns="http://www.w3.org/2000/svg" xmlns:xlink="http://www.w3.org/1999/xlink" width="1000" height="477" viewBox="0 0 1000 477">
  <defs>
    <filter id="Card" x="100.5" y="26.5" width="799" height="426" filterUnits="userSpaceOnUse">
      <feOffset dy="1" input="SourceAlpha"/>
      <feGaussianBlur stdDeviation="1.5" result="blur"/>
      <feFlood flood-opacity="0.161"/>
      <feComposite operator="in" in2="blur"/>
      <feComposite in="SourceGraphic"/>
    </filter>
    <clipPath id="clip-line_chart_color_palette">
      <rect width="1000" height="477"/>
    </clipPath>
  </defs>
  <g id="line_chart_color_palette" data-name="line chart color palette" clip-path="url(#clip-line_chart_color_palette)">
    <rect width="1000" height="477" fill="#f4f4f6"/>
    <g id="Group_270752" data-name="Group 270752" transform="translate(1979 -8958)">
      <g transform="matrix(1, 0, 0, 1, -1979, 8958)" filter="url(#Card)">
        <rect id="Card-2" data-name="Card" width="790" height="417" rx="2" transform="translate(105 30)" fill="#fff"/>
      </g>
      <rect id="Card-3" data-name="Card" width="790" height="61" rx="2" transform="translate(-1874 8988)" fill="#fafafa"/>
      <rect id="Rectangle_11854" data-name="Rectangle 11854" width="721" height="1" transform="translate(-1104 9160) rotate(180)" fill="#e6e6ea"/>
      <path id="Line_2632" data-name="Line 2632" d="M790,.5H0v-1H790Z" transform="translate(-1874 9049)" fill="#e6e6ea"/>
      <text id="Total_quote_volume_-_Liability" data-name="Total quote volume - Liability" transform="translate(-1854 9025)" fill="#31313a" font-size="16" font-family="SegoeUI-Semibold, Segoe UI" font-weight="600"><tspan x="0" y="0">Total quote volume - Liability</tspan></text>
      <g id="Favorite-empty" transform="translate(-1112 9019)">
        <g id="Group_270307" data-name="Group 270307" transform="translate(-8 -8)">
          <path id="Path_101936" data-name="Path 101936" d="M8.8,6.412l.225.691a.332.332,0,0,0,.317.23h3.313L10.561,8.854l-.587.427a.334.334,0,0,0-.122.372l.225.691.8,2.46-2.092-1.52L8.2,10.857a.333.333,0,0,0-.392,0l-.588.427L5.124,12.8l.8-2.46.225-.691a.334.334,0,0,0-.122-.372l-.587-.427L3.346,7.333H6.659a.332.332,0,0,0,.317-.23L7.2,6.412,8,3.952ZM8,.453A.359.359,0,0,0,7.653.7L5.933,6H.366a.365.365,0,0,0-.215.66l4.5,3.272-1.72,5.3a.364.364,0,0,0,.561.408L8,12.363l4.5,3.272a.364.364,0,0,0,.561-.408l-1.72-5.3,4.5-3.272A.365.365,0,0,0,15.634,6H10.067L8.347.7A.359.359,0,0,0,8,.453Z" transform="translate(0)" fill="#2777d3"/>
          <rect id="Rectangle_11503" data-name="Rectangle 11503" width="16" height="16" transform="translate(0)" fill="none"/>
        </g>
      </g>
      <rect id="Rectangle_11855" data-name="Rectangle 11855" width="721" height="1" transform="translate(-1104 9324) rotate(180)" fill="#e6e6ea"/>
      <rect id="Rectangle_11856" data-name="Rectangle 11856" width="721" height="1" transform="translate(-1104 9277) rotate(180)" fill="#e6e6ea"/>
      <rect id="Rectangle_11857" data-name="Rectangle 11857" width="721" height="1" transform="translate(-1104 9238) rotate(180)" fill="#e6e6ea"/>
      <rect id="Rectangle_11858" data-name="Rectangle 11858" width="721" height="1" transform="translate(-1104 9199) rotate(180)" fill="#e6e6ea"/>
      <rect id="Rectangle_11859" data-name="Rectangle 11859" width="721" height="1" transform="translate(-1104 9119) rotate(180)" fill="#e6e6ea"/>
      <rect id="Rectangle_11860" data-name="Rectangle 11860" width="721" height="1" transform="translate(-1104 9078) rotate(180)" fill="#e6e6ea"/>
      <rect id="Rectangle_11861" data-name="Rectangle 11861" width="6" height="1" transform="translate(-1806 9324) rotate(90)" fill="#e6e6ea"/>
      <rect id="Rectangle_11862" data-name="Rectangle 11862" width="6" height="1" transform="translate(-1655 9324) rotate(90)" fill="#e6e6ea"/>
      <rect id="Rectangle_11863" data-name="Rectangle 11863" width="6" height="1" transform="translate(-1204 9324) rotate(90)" fill="#e6e6ea"/>
      <text id="_3k" data-name="3k" transform="translate(-1834 9082)" fill="#31313a" font-size="12" font-family="SegoeUI, Segoe UI"><tspan x="-12.434" y="0">3k</tspan></text>
      <text id="_2.5k" data-name="2.5k" transform="translate(-1834 9124)" fill="#31313a" font-size="12" font-family="SegoeUI, Segoe UI"><tspan x="-21.504" y="0">2.5k</tspan></text>
      <text id="_0" data-name="0" transform="translate(-1834 9322)" fill="#31313a" font-size="12" font-family="SegoeUI, Segoe UI"><tspan x="-6.469" y="0">0</tspan></text>
      <text id="_500" data-name="500" transform="translate(-1834 9281)" fill="#31313a" font-size="12" font-family="SegoeUI, Segoe UI"><tspan x="-19.406" y="0">500</tspan></text>
      <text id="_1k" data-name="1k" transform="translate(-1834 9242)" fill="#31313a" font-size="12" font-family="SegoeUI, Segoe UI"><tspan x="-12.434" y="0">1k</tspan></text>
      <text id="_1.5k" data-name="1.5k" transform="translate(-1834 9203)" fill="#31313a" font-size="12" font-family="SegoeUI, Segoe UI"><tspan x="-21.504" y="0">1.5k</tspan></text>
      <text id="_2k" data-name="2k" transform="translate(-1834 9164)" fill="#31313a" font-size="12" font-family="SegoeUI, Segoe UI"><tspan x="-12.434" y="0">2k</tspan></text>
      <text id="Nov_15" data-name="Nov 15" transform="translate(-1806 9346)" fill="#31313a" font-size="12" font-family="SegoeUI, Segoe UI"><tspan x="-18.99" y="0">Nov 15</tspan></text>
      <text id="Dec_15" data-name="Dec 15" transform="translate(-1204 9346)" fill="#31313a" font-size="12" font-family="SegoeUI, Segoe UI"><tspan x="-18.229" y="0">Dec 15</tspan></text>
      <text id="Nov_24" data-name="Nov 24" transform="translate(-1656 9346)" fill="#31313a" font-size="12" font-family="SegoeUI, Segoe UI"><tspan x="-18.99" y="0">Nov 24</tspan></text>
      <rect id="Rectangle_11870" data-name="Rectangle 11870" width="6" height="1" transform="translate(-1354 9324) rotate(90)" fill="#e6e6ea"/>
      <text id="Dec_9" data-name="Dec 9" transform="translate(-1354 9346)" fill="#31313a" font-size="12" font-family="SegoeUI, Segoe UI"><tspan x="-14.994" y="0">Dec 9</tspan></text>
      <rect id="Rectangle_11871" data-name="Rectangle 11871" width="6" height="1" transform="translate(-1505 9324) rotate(90)" fill="#e6e6ea"/>
      <text id="Dec_1" data-name="Dec 1" transform="translate(-1505 9346)" fill="#31313a" font-size="12" font-family="SegoeUI, Segoe UI"><tspan x="-14.994" y="0">Dec 1</tspan></text>
      <text id="Selected_but_not_bridged" data-name="Selected but not bridged" transform="translate(-1671 9382)" fill="#31313a" font-size="12" font-family="SegoeUI, Segoe UI"><tspan x="0" y="0">Selected but not bridged</tspan></text>
      <text id="Rated_but_not_selected" data-name="Rated but not selected" transform="translate(-1485 9382)" fill="#31313a" font-size="12" font-family="SegoeUI, Segoe UI"><tspan x="0" y="0">Rated but not selected</tspan></text>
      <text id="Bridged_to_carrier" data-name="Bridged to carrier" transform="translate(-1817 9382)" fill="#31313a" font-size="12" font-family="SegoeUI, Segoe UI"><tspan x="0" y="0">Bridged to carrier</tspan></text>
      <g id="Group_270744" data-name="Group 270744" transform="translate(2354 5484)">
        <path id="Path_103556" data-name="Path 103556" d="M890.518,645.391a1.5,1.5,0,0,1-.32-2.965l.977-.214a1.5,1.5,0,0,1,.643,2.93l-.977.214A1.506,1.506,0,0,1,890.518,645.391Zm4.884-1.072a1.5,1.5,0,0,1-.32-2.965l.977-.214a1.5,1.5,0,0,1,.643,2.93l-.977.215A1.508,1.508,0,0,1,895.4,644.318Zm4.884-1.072a1.5,1.5,0,0,1-.32-2.965l.977-.215a1.5,1.5,0,0,1,.643,2.93l-.977.214A1.506,1.506,0,0,1,900.285,643.246Zm4.884-1.072a1.5,1.5,0,0,1-.32-2.966l.977-.214a1.5,1.5,0,0,1,.643,2.93l-.977.215A1.509,1.509,0,0,1,905.169,642.174Zm4.884-1.072a1.5,1.5,0,0,1-.32-2.965l.977-.215a1.5,1.5,0,0,1,.643,2.93l-.977.214A1.509,1.509,0,0,1,910.052,641.1Zm4.884-1.072a1.5,1.5,0,0,1-.32-2.965l.977-.214a1.5,1.5,0,0,1,.643,2.93l-.977.214A1.506,1.506,0,0,1,914.936,640.029Zm4.884-1.072a1.5,1.5,0,0,1-.32-2.965l.977-.214a1.5,1.5,0,0,1,.643,2.93l-.977.214A1.505,1.505,0,0,1,919.82,638.957Zm4.884-1.072a1.5,1.5,0,0,1-.32-2.965l.977-.214a1.5,1.5,0,0,1,.643,2.93l-.977.214A1.506,1.506,0,0,1,924.7,637.885Zm4.884-1.072a1.5,1.5,0,0,1-.32-2.965l.977-.214a1.5,1.5,0,0,1,.643,2.93l-.977.214A1.506,1.506,0,0,1,929.587,636.812Zm4.884-1.072a1.5,1.5,0,0,1-.32-2.965l.977-.214a1.5,1.5,0,0,1,.643,2.93l-.977.214A1.506,1.506,0,0,1,934.471,635.74Zm4.884-1.072a1.5,1.5,0,0,1-.32-2.965l.977-.215a1.5,1.5,0,0,1,.643,2.93l-.977.214A1.506,1.506,0,0,1,939.354,634.668Zm4.884-1.072a1.5,1.5,0,0,1-.32-2.966l.977-.214a1.5,1.5,0,0,1,.643,2.93l-.977.215A1.509,1.509,0,0,1,944.238,633.6Zm4.884-1.072a1.5,1.5,0,0,1-.32-2.965l.977-.215a1.5,1.5,0,0,1,.643,2.93l-.977.214A1.509,1.509,0,0,1,949.122,632.523Zm4.884-1.072a1.5,1.5,0,0,1-.32-2.965l.977-.214a1.5,1.5,0,1,1,.643,2.93l-.977.215A1.506,1.506,0,0,1,954.005,631.451Zm4.884-1.072a1.5,1.5,0,0,1-.32-2.965l.977-.214a1.5,1.5,0,0,1,.643,2.93l-.977.214A1.509,1.509,0,0,1,958.889,630.379Zm4.884-1.072a1.5,1.5,0,0,1-.32-2.965l.977-.214a1.5,1.5,0,0,1,.643,2.93l-.977.214A1.506,1.506,0,0,1,963.773,629.306Zm4.884-1.072a1.5,1.5,0,0,1-.32-2.965l.977-.214a1.5,1.5,0,0,1,.643,2.93l-.977.214A1.505,1.505,0,0,1,968.656,628.234Zm4.884-1.072a1.5,1.5,0,0,1-.32-2.965l.977-.214a1.5,1.5,0,0,1,.643,2.93l-.977.214A1.506,1.506,0,0,1,973.54,627.162Zm4.884-1.072a1.5,1.5,0,0,1-.32-2.965l.977-.214a1.5,1.5,0,0,1,.643,2.93l-.977.214A1.506,1.506,0,0,1,978.424,626.09Zm4.884-1.072a1.5,1.5,0,0,1-.32-2.965l.977-.214a1.5,1.5,0,0,1,.643,2.93l-.977.214A1.506,1.506,0,0,1,983.307,625.017Zm4.884-1.072a1.5,1.5,0,0,1-.32-2.965l.977-.215a1.5,1.5,0,0,1,.643,2.93l-.977.214A1.506,1.506,0,0,1,988.191,623.945Zm4.884-1.072a1.5,1.5,0,0,1-.32-2.965l.977-.214a1.5,1.5,0,0,1,.643,2.93l-.977.215A1.506,1.506,0,0,1,993.075,622.873Zm4.884-1.072a1.5,1.5,0,0,1-.32-2.965l.977-.215a1.5,1.5,0,0,1,.643,2.93l-.977.214A1.509,1.509,0,0,1,997.958,621.8Zm4.884-1.072a1.5,1.5,0,0,1-.32-2.965l.977-.214a1.5,1.5,0,0,1,.643,2.93l-.977.214A1.506,1.506,0,0,1,1002.842,620.728Zm4.884-1.072a1.5,1.5,0,0,1-.32-2.965l.977-.214a1.5,1.5,0,0,1,.643,2.93l-.977.214A1.5,1.5,0,0,1,1007.726,619.656Zm4.884-1.072a1.5,1.5,0,0,1-.32-2.965l.977-.214a1.5,1.5,0,0,1,.643,2.93l-.977.214A1.5,1.5,0,0,1,1012.609,618.584Zm4.884-1.072a1.5,1.5,0,0,1-.32-2.965l.977-.214a1.5,1.5,0,0,1,.643,2.93l-.977.214A1.5,1.5,0,0,1,1017.493,617.511Zm4.884-1.072a1.5,1.5,0,0,1-.32-2.965l.977-.214a1.5,1.5,0,0,1,.643,2.93l-.977.214A1.5,1.5,0,0,1,1022.377,616.439Zm4.884-1.072a1.5,1.5,0,0,1-.32-2.965l.977-.215a1.5,1.5,0,1,1,.643,2.93l-.977.214A1.5,1.5,0,0,1,1027.26,615.367Zm4.884-1.072a1.5,1.5,0,0,1-.32-2.965l.977-.214a1.5,1.5,0,1,1,.643,2.93l-.977.215A1.507,1.507,0,0,1,1032.144,614.294Zm4.884-1.072a1.5,1.5,0,0,1-.32-2.965l.977-.215a1.5,1.5,0,0,1,.643,2.93l-.977.214A1.508,1.508,0,0,1,1037.028,613.222Zm4.884-1.072a1.5,1.5,0,0,1-.32-2.965l.977-.214a1.5,1.5,0,1,1,.643,2.93l-.977.215A1.5,1.5,0,0,1,1041.911,612.15Zm4.884-1.072a1.5,1.5,0,0,1-.32-2.965l.977-.214a1.5,1.5,0,0,1,.643,2.93l-.977.214A1.5,1.5,0,0,1,1046.795,611.078Zm4.884-1.072a1.5,1.5,0,0,1-.32-2.965l.977-.214a1.5,1.5,0,1,1,.643,2.93l-.977.214A1.5,1.5,0,0,1,1051.679,610.005Zm4.884-1.072a1.5,1.5,0,0,1-.32-2.965l.977-.214a1.5,1.5,0,1,1,.643,2.93l-.977.214A1.5,1.5,0,0,1,1056.562,608.933Zm4.884-1.072a1.5,1.5,0,0,1-.32-2.965l.977-.214a1.5,1.5,0,0,1,.643,2.93l-.977.214A1.5,1.5,0,0,1,1061.446,607.861Zm4.884-1.072a1.5,1.5,0,0,1-.32-2.965l.977-.214a1.5,1.5,0,1,1,.643,2.93l-.977.214A1.5,1.5,0,0,1,1066.33,606.788Zm4.884-1.072a1.5,1.5,0,0,1-.32-2.965l.977-.214a1.5,1.5,0,0,1,.643,2.93l-.977.214A1.5,1.5,0,0,1,1071.213,605.716Zm4.884-1.072a1.5,1.5,0,0,1-.32-2.965l.977-.215a1.5,1.5,0,1,1,.643,2.93l-.977.215A1.508,1.508,0,0,1,1076.1,604.644Zm4.884-1.072a1.5,1.5,0,0,1-.32-2.965l.977-.214a1.5,1.5,0,1,1,.643,2.93l-.977.215A1.508,1.508,0,0,1,1080.981,603.572Zm4.884-1.072a1.5,1.5,0,0,1-.32-2.965l.977-.215a1.5,1.5,0,0,1,.643,2.93l-.977.214A1.508,1.508,0,0,1,1085.864,602.5Zm4.884-1.072a1.5,1.5,0,0,1-.32-2.965l.977-.214a1.5,1.5,0,1,1,.643,2.93l-.977.214A1.5,1.5,0,0,1,1090.748,601.427Zm4.884-1.072a1.5,1.5,0,0,1-.32-2.965l.977-.214a1.5,1.5,0,1,1,.643,2.93l-.977.214A1.5,1.5,0,0,1,1095.632,600.355Zm4.884-1.072a1.5,1.5,0,0,1-.32-2.965l.977-.214a1.5,1.5,0,0,1,.643,2.93l-.977.214A1.5,1.5,0,0,1,1100.515,599.282Zm4.884-1.072a1.5,1.5,0,0,1-.32-2.965l.977-.214a1.5,1.5,0,1,1,.643,2.93l-.977.214A1.5,1.5,0,0,1,1105.4,598.21Zm4.884-1.072a1.5,1.5,0,0,1-.32-2.965l.977-.214a1.5,1.5,0,0,1,.643,2.93l-.977.214A1.5,1.5,0,0,1,1110.283,597.138Zm4.884-1.072a1.5,1.5,0,0,1-.32-2.966l.977-.214a1.5,1.5,0,1,1,.643,2.93l-.977.214A1.5,1.5,0,0,1,1115.166,596.066Zm4.884-1.072a1.5,1.5,0,0,1-.32-2.965l.977-.214a1.5,1.5,0,1,1,.643,2.93l-.977.214A1.505,1.505,0,0,1,1120.05,594.993Zm4.884-1.072a1.5,1.5,0,0,1-.32-2.965l.977-.215a1.5,1.5,0,0,1,.643,2.93l-.977.214A1.509,1.509,0,0,1,1124.934,593.921Zm4.884-1.072a1.5,1.5,0,0,1-.32-2.965l.977-.214a1.5,1.5,0,1,1,.643,2.93l-.977.214A1.5,1.5,0,0,1,1129.817,592.849Zm4.884-1.072a1.5,1.5,0,0,1-.32-2.965l.977-.214a1.5,1.5,0,0,1,.643,2.93l-.977.214A1.505,1.505,0,0,1,1134.7,591.776Zm4.884-1.072a1.5,1.5,0,0,1-.32-2.965l.977-.214a1.5,1.5,0,1,1,.643,2.93l-.977.214A1.505,1.505,0,0,1,1139.585,590.7Zm4.884-1.072a1.5,1.5,0,0,1-.32-2.965l.977-.214a1.5,1.5,0,1,1,.643,2.93l-.977.214A1.505,1.505,0,0,1,1144.468,589.632Zm4.884-1.072a1.5,1.5,0,0,1-.32-2.965l.977-.214a1.5,1.5,0,0,1,.643,2.93l-.977.214A1.505,1.505,0,0,1,1149.352,588.56Zm4.884-1.072a1.5,1.5,0,0,1-.32-2.965l.977-.214a1.5,1.5,0,1,1,.643,2.93l-.977.214A1.505,1.505,0,0,1,1154.236,587.487Zm4.884-1.072a1.5,1.5,0,0,1-.32-2.965l.977-.214a1.5,1.5,0,0,1,.643,2.93l-.977.214A1.505,1.505,0,0,1,1159.119,586.415Zm4.884-1.072a1.5,1.5,0,0,1-.32-2.966l.977-.214a1.5,1.5,0,1,1,.643,2.93l-.977.215A1.509,1.509,0,0,1,1164,585.343Zm4.884-1.072a1.5,1.5,0,0,1-.32-2.965l.977-.214a1.5,1.5,0,1,1,.643,2.93l-.977.214A1.505,1.505,0,0,1,1168.887,584.271Zm4.884-1.072a1.5,1.5,0,0,1-.32-2.965l.977-.214a1.5,1.5,0,0,1,.643,2.93l-.977.214A1.505,1.505,0,0,1,1173.77,583.2Zm4.884-1.072a1.5,1.5,0,0,1-.32-2.965l.977-.214a1.5,1.5,0,1,1,.643,2.93l-.977.214A1.505,1.505,0,0,1,1178.654,582.126Zm4.884-1.072a1.5,1.5,0,0,1-.32-2.965l.977-.214a1.5,1.5,0,0,1,.643,2.93l-.977.214A1.505,1.505,0,0,1,1183.538,581.054Zm4.884-1.072a1.5,1.5,0,0,1-.32-2.965l.977-.214a1.5,1.5,0,1,1,.643,2.93l-.977.214A1.505,1.505,0,0,1,1188.421,579.981Zm4.884-1.072a1.5,1.5,0,0,1-.32-2.965l.977-.214a1.5,1.5,0,1,1,.643,2.93l-.977.214A1.5,1.5,0,0,1,1193.305,578.909Zm4.884-1.072a1.5,1.5,0,0,1-.32-2.965l.977-.214a1.5,1.5,0,1,1,.643,2.93l-.977.214A1.505,1.505,0,0,1,1198.189,577.837Zm4.884-1.072a1.5,1.5,0,0,1-.32-2.966l.977-.214a1.5,1.5,0,1,1,.643,2.93l-.977.215A1.509,1.509,0,0,1,1203.072,576.765Zm4.884-1.072a1.5,1.5,0,0,1-.32-2.965l.977-.215a1.5,1.5,0,1,1,.643,2.93l-.977.214A1.505,1.505,0,0,1,1207.956,575.692Zm4.884-1.072a1.5,1.5,0,0,1-.32-2.965l.977-.215a1.5,1.5,0,1,1,.643,2.93l-.977.215A1.509,1.509,0,0,1,1212.84,574.62Zm4.884-1.072a1.5,1.5,0,0,1-.32-2.965l.977-.214a1.5,1.5,0,1,1,.643,2.93l-.977.214A1.508,1.508,0,0,1,1217.724,573.548Zm4.884-1.072a1.5,1.5,0,0,1-.32-2.965l.977-.214a1.5,1.5,0,1,1,.643,2.93l-.977.214A1.505,1.505,0,0,1,1222.607,572.475Zm4.884-1.072a1.5,1.5,0,0,1-.32-2.965l.977-.214a1.5,1.5,0,1,1,.643,2.93l-.977.214A1.505,1.505,0,0,1,1227.491,571.4Zm4.884-1.072a1.5,1.5,0,0,1-.32-2.965l.977-.214a1.5,1.5,0,1,1,.643,2.93l-.977.214A1.505,1.505,0,0,1,1232.374,570.331Zm4.884-1.072a1.5,1.5,0,0,1-.32-2.965l.977-.214a1.5,1.5,0,1,1,.643,2.93l-.977.214A1.505,1.505,0,0,1,1237.258,569.259Zm4.884-1.072a1.5,1.5,0,0,1-.32-2.965l.977-.214a1.5,1.5,0,1,1,.643,2.93l-.977.214A1.505,1.505,0,0,1,1242.142,568.186Zm4.884-1.072a1.5,1.5,0,0,1-.32-2.965l.977-.215a1.5,1.5,0,1,1,.643,2.93l-.977.214A1.505,1.505,0,0,1,1247.025,567.114Zm4.884-1.072a1.5,1.5,0,0,1-.32-2.966l.977-.214a1.5,1.5,0,1,1,.643,2.93l-.977.215A1.509,1.509,0,0,1,1251.909,566.042Zm4.965-.484a1.5,1.5,0,0,1-.085-3l1-.057a1.5,1.5,0,1,1,.172,3l-1,.057Zm4.992-.287a1.5,1.5,0,0,1-.085-3l1-.057a1.5,1.5,0,0,1,.172,3l-1,.057Zm4.992-.287a1.5,1.5,0,0,1-.085-3l1-.057a1.5,1.5,0,0,1,.172,3l-1,.057Zm4.992-.287a1.5,1.5,0,0,1-.085-3l1-.057a1.5,1.5,0,0,1,.172,3l-1,.057Zm4.992-.287a1.5,1.5,0,0,1-.085-3l1-.057a1.5,1.5,0,1,1,.172,3l-1,.057Zm4.992-.287a1.5,1.5,0,0,1-.085-3l1-.057.087,0a1.5,1.5,0,0,1,.085,3l-1,.057Zm4.992-.287a1.5,1.5,0,0,1-.085-3l1-.057a1.5,1.5,0,0,1,.172,3l-1,.057Zm4.992-.287a1.5,1.5,0,0,1-.084-3l1-.057a1.5,1.5,0,0,1,.172,3l-1,.057Zm4.992-.287a1.5,1.5,0,0,1-.085-3l1-.057a1.5,1.5,0,0,1,.172,3l-1,.057Zm4.992-.287a1.5,1.5,0,0,1-.085-3l1-.057.088,0a1.5,1.5,0,0,1,.085,3l-1,.057Zm4.992-.287a1.5,1.5,0,0,1-.085-3l1-.057a1.5,1.5,0,0,1,.172,2.995l-1,.057Zm4.992-.287a1.5,1.5,0,0,1-.085-3l1-.057a1.5,1.5,0,0,1,.172,2.995l-1,.057Zm4.992-.287a1.5,1.5,0,0,1-.085-3l1-.057a1.5,1.5,0,1,1,.172,2.995l-1,.057Zm4.992-.287a1.5,1.5,0,0,1-.085-3l1-.057a1.5,1.5,0,0,1,.172,2.995l-1,.057Zm4.992-.287a1.5,1.5,0,0,1-.085-3l1-.057.087,0a1.5,1.5,0,0,1,.085,3l-1,.057Zm4.992-.287a1.5,1.5,0,0,1-.085-3l1-.057a1.5,1.5,0,1,1,.172,2.995l-1,.057Zm4.992-.287a1.5,1.5,0,0,1-.085-3l1-.057a1.5,1.5,0,0,1,.172,3l-1,.057Zm4.992-.287a1.5,1.5,0,0,1-.085-3l1-.057a1.5,1.5,0,1,1,.172,3l-1,.057Zm4.992-.287a1.5,1.5,0,0,1-.085-3l1-.057a1.5,1.5,0,0,1,.172,3l-1,.057Zm4.992-.287a1.5,1.5,0,0,1-.085-3l1-.057a1.5,1.5,0,0,1,.172,3l-1,.057Zm4.992-.287a1.5,1.5,0,0,1-.085-3l1-.057a1.5,1.5,0,1,1,.172,3l-1,.057Zm4.992-.287a1.5,1.5,0,0,1-.085-3l1-.057a1.5,1.5,0,1,1,.172,3l-1,.057Zm4.992-.287a1.5,1.5,0,0,1-.085-3l1-.057a1.5,1.5,0,0,1,.172,3l-1,.057Zm4.992-.287a1.5,1.5,0,0,1-.085-3l1-.057a1.5,1.5,0,0,1,.172,3l-1,.057Zm4.992-.287a1.5,1.5,0,0,1-.085-3l1-.057a1.5,1.5,0,1,1,.172,3l-1,.057Zm4.992-.287a1.5,1.5,0,0,1-.085-3l1-.057a1.5,1.5,0,0,1,.172,3l-1,.057Zm4.992-.287a1.5,1.5,0,0,1-.085-3l1-.057a1.5,1.5,0,0,1,.172,3l-1,.057Zm4.992-.287a1.5,1.5,0,0,1-.085-3l1-.057a1.5,1.5,0,0,1,.172,3l-1,.057Zm4.992-.287a1.5,1.5,0,0,1-.085-3l1-.057a1.5,1.5,0,0,1,.172,3l-1,.057Zm4.992-.287a1.5,1.5,0,0,1-.085-3l1-.057.087,0a1.5,1.5,0,0,1,.085,3l-1,.057Zm4.992-.287a1.5,1.5,0,0,1-.085-3l1-.057a1.5,1.5,0,0,1,.172,3l-1,.057Zm4.992-.287a1.5,1.5,0,0,1-.085-3l1-.057a1.5,1.5,0,0,1,.172,3l-1,.057Zm4.992-.287a1.5,1.5,0,0,1-.085-3l1-.057.087,0a1.5,1.5,0,0,1,.085,3l-1,.057Zm4.992-.287a1.5,1.5,0,0,1-.085-3l1-.057a1.5,1.5,0,0,1,.172,3l-1,.057Zm4.992-.287a1.5,1.5,0,0,1-.085-3l1-.057a1.5,1.5,0,0,1,.172,3l-1,.057Zm4.992-.287a1.5,1.5,0,0,1-.085-3l1-.057a1.5,1.5,0,0,1,.172,3l-1,.057Zm4.992-.287a1.5,1.5,0,0,1-.084-3l1-.057a1.5,1.5,0,1,1,.172,2.995l-1,.057Zm4.992-.287a1.5,1.5,0,0,1-.085-3l1-.057a1.5,1.5,0,1,1,.172,2.995l-1,.057Zm4.992-.287a1.5,1.5,0,0,1-.085-3l1-.057a1.5,1.5,0,1,1,.172,2.995l-1,.057Zm4.992-.287a1.5,1.5,0,0,1-.085-3l1-.057a1.5,1.5,0,1,1,.172,2.995l-1,.057Zm4.992-.287a1.5,1.5,0,0,1-.085-3l1-.057a1.5,1.5,0,1,1,.172,2.995l-1,.057Zm4.992-.287a1.5,1.5,0,0,1-.085-3l1-.057.087,0a1.5,1.5,0,0,1,.085,3l-1,.057Zm4.992-.287a1.5,1.5,0,0,1-.085-3l1-.057.087,0a1.5,1.5,0,0,1,.085,3l-1,.057Zm4.992-.287a1.5,1.5,0,0,1-.085-3l1-.057a1.5,1.5,0,1,1,.172,3l-1,.057Zm4.992-.287a1.5,1.5,0,0,1-.085-3l1-.057a1.5,1.5,0,1,1,.172,3l-1,.057Zm4.992-.287a1.5,1.5,0,0,1-.085-3l1-.057a1.5,1.5,0,1,1,.172,3l-1,.057Zm4.992-.287a1.5,1.5,0,0,1-.085-3l1-.057a1.5,1.5,0,0,1,.172,3l-1,.057Zm4.992-.287a1.5,1.5,0,0,1-.085-3l1-.057a1.5,1.5,0,0,1,.172,3l-1,.057Zm4.992-.287a1.5,1.5,0,0,1-.085-3l1-.057a1.5,1.5,0,1,1,.172,3l-1,.057Zm4.992-.287a1.5,1.5,0,0,1-.085-3l1-.057a1.5,1.5,0,0,1,.172,3l-1,.057Zm4.992-.287a1.5,1.5,0,0,1-.085-3l1-.057a1.5,1.5,0,0,1,.172,3l-1,.057Zm4.992-.287a1.5,1.5,0,0,1-.085-3l1-.057a1.5,1.5,0,0,1,.172,3l-1,.057Zm4.992-.287a1.5,1.5,0,0,1-.085-3l1-.057a1.5,1.5,0,0,1,.172,3l-1,.057Zm4.992-.287a1.5,1.5,0,0,1-.085-3l1-.057a1.5,1.5,0,1,1,.172,3l-1,.057Zm4.992-.287a1.5,1.5,0,0,1-.085-3l1-.057a1.5,1.5,0,0,1,.172,3l-1,.057Zm4.992-.287a1.5,1.5,0,0,1-.085-3l1-.057a1.5,1.5,0,0,1,.172,3l-1,.057Zm4.992-.287a1.5,1.5,0,0,1-.085-3l1-.057a1.5,1.5,0,0,1,.172,3l-1,.057Zm4.992-.287a1.5,1.5,0,0,1-.085-3l.972-.056a1.5,1.5,0,1,1,.172,2.995l-.972.056Z" transform="translate(-5066.904 3148.187)" fill="#6ea239"/>
        <path id="Line_2622" data-name="Line 2622" d="M26,1.5H25A1.5,1.5,0,0,1,23.5,0,1.5,1.5,0,0,1,25-1.5h1A1.5,1.5,0,0,1,27.5,0,1.5,1.5,0,0,1,26,1.5Zm-5,0H20A1.5,1.5,0,0,1,18.5,0,1.5,1.5,0,0,1,20-1.5h1A1.5,1.5,0,0,1,22.5,0,1.5,1.5,0,0,1,21,1.5Zm-5,0H15A1.5,1.5,0,0,1,13.5,0,1.5,1.5,0,0,1,15-1.5h1A1.5,1.5,0,0,1,17.5,0,1.5,1.5,0,0,1,16,1.5Zm-5,0H10A1.5,1.5,0,0,1,8.5,0,1.5,1.5,0,0,1,10-1.5h1A1.5,1.5,0,0,1,12.5,0,1.5,1.5,0,0,1,11,1.5Zm-5,0H5A1.5,1.5,0,0,1,3.5,0,1.5,1.5,0,0,1,5-1.5H6A1.5,1.5,0,0,1,7.5,0,1.5,1.5,0,0,1,6,1.5Zm-5,0H0A1.5,1.5,0,0,1-1.5,0,1.5,1.5,0,0,1,0-1.5H1A1.5,1.5,0,0,1,2.5,0,1.5,1.5,0,0,1,1,1.5Z" transform="translate(-4060.999 3894)" fill="#6ea239"/>
      </g>
      <g id="Group_270745" data-name="Group 270745" transform="translate(2354 5484)">
        <path id="Path_103557" data-name="Path 103557" d="M1237.485,645.371c-.038,0-.077,0-.116,0l-3.988-.306a1.5,1.5,0,1,1,.229-2.991l3.988.306a1.5,1.5,0,0,1-.113,3Zm4.947-.663a1.5,1.5,0,0,1-.214-2.985l3.958-.575a1.5,1.5,0,0,1,.432,2.969l-3.958.575A1.514,1.514,0,0,1,1242.431,644.708Zm-13.92-.025c-.039,0-.077,0-.116,0l-3.988-.306a1.5,1.5,0,1,1,.229-2.991l3.988.306a1.5,1.5,0,0,1-.113,3Zm-8.974-.688q-.058,0-.116,0l-3.988-.306a1.5,1.5,0,0,1,.229-2.991l3.988.306a1.5,1.5,0,0,1-.113,3Zm31.8-.581a1.5,1.5,0,0,1-.214-2.985l3.958-.575a1.5,1.5,0,0,1,.432,2.969l-3.958.575A1.506,1.506,0,0,1,1251.338,643.413Zm-40.774-.107c-.038,0-.077,0-.116,0l-3.988-.306a1.5,1.5,0,1,1,.229-2.991l3.988.306a1.5,1.5,0,0,1-.113,3Zm-8.974-.688q-.058,0-.116,0l-3.988-.306a1.5,1.5,0,1,1,.229-2.991l3.988.306a1.5,1.5,0,0,1-.113,3Zm58.654-.5a1.5,1.5,0,0,1-.214-2.985l3.958-.575a1.5,1.5,0,1,1,.432,2.969l-3.958.575A1.516,1.516,0,0,1,1260.244,642.119Zm-67.628-.189c-.038,0-.077,0-.116,0l-3.988-.306a1.5,1.5,0,0,1,.229-2.991l3.988.306a1.5,1.5,0,0,1-.113,3Zm-8.974-.688q-.058,0-.116,0l-3.988-.306a1.5,1.5,0,0,1,.229-2.991l3.988.306a1.5,1.5,0,0,1-.113,3Zm85.507-.417a1.5,1.5,0,0,1-.214-2.985l3.958-.575a1.5,1.5,0,0,1,.432,2.969l-3.958.575A1.514,1.514,0,0,1,1269.15,640.824Zm-94.481-.271q-.058,0-.116,0l-3.988-.306a1.5,1.5,0,0,1,.229-2.991l3.988.306a1.5,1.5,0,0,1-.113,3Zm-8.974-.688c-.038,0-.077,0-.116,0l-3.988-.306a1.5,1.5,0,0,1,.229-2.991l3.988.306a1.5,1.5,0,0,1-.113,3Zm112.361-.335a1.5,1.5,0,0,1-.214-2.985l3.958-.575a1.5,1.5,0,1,1,.432,2.969l-3.958.575A1.506,1.506,0,0,1,1278.057,639.53Zm-121.335-.353c-.039,0-.077,0-.116,0l-3.988-.306a1.5,1.5,0,0,1,.229-2.991l3.988.306a1.5,1.5,0,0,1-.113,3Zm-8.974-.688c-.039,0-.077,0-.116,0l-3.988-.306a1.5,1.5,0,0,1,.229-2.991l3.988.306a1.5,1.5,0,0,1-.113,3Zm139.215-.253a1.5,1.5,0,0,1-.214-2.985l3.958-.575a1.5,1.5,0,0,1,.432,2.969l-3.958.575A1.514,1.514,0,0,1,1286.963,638.235Zm-148.188-.435q-.058,0-.116,0l-3.988-.306a1.5,1.5,0,1,1,.229-2.991l3.988.306a1.5,1.5,0,0,1-.113,3Zm-8.974-.688c-.039,0-.077,0-.116,0l-3.988-.306a1.5,1.5,0,1,1,.229-2.991l3.988.306a1.5,1.5,0,0,1-.113,3Zm166.068-.171a1.5,1.5,0,0,1-.214-2.984l3.958-.575a1.5,1.5,0,1,1,.432,2.969l-3.958.575A1.514,1.514,0,0,1,1295.87,636.94Zm-175.042-.517c-.038,0-.077,0-.116,0l-3.988-.306a1.5,1.5,0,0,1,.229-2.991l3.988.306a1.5,1.5,0,0,1-.113,3Zm-8.974-.688q-.058,0-.116,0l-3.988-.306a1.5,1.5,0,1,1,.229-2.991l3.988.306a1.5,1.5,0,0,1-.113,3Zm192.922-.089a1.5,1.5,0,0,1-.214-2.985l3.958-.575a1.5,1.5,0,1,1,.432,2.969l-3.958.575A1.506,1.506,0,0,1,1304.776,635.646Zm-201.9-.6q-.058,0-.116,0l-3.988-.306a1.5,1.5,0,0,1,.229-2.991l3.988.306a1.5,1.5,0,0,1-.113,3Zm-8.974-.688q-.058,0-.116,0l-3.988-.306a1.5,1.5,0,0,1,.229-2.991l3.988.306a1.5,1.5,0,0,1-.113,3Zm219.776-.007a1.5,1.5,0,0,1-.214-2.985l3.958-.575a1.5,1.5,0,0,1,.431,2.969l-3.958.575A1.514,1.514,0,0,1,1313.682,634.351Zm-228.75-.681q-.058,0-.116,0l-3.988-.306a1.5,1.5,0,1,1,.229-2.991l3.988.306a1.5,1.5,0,0,1-.113,3Zm237.656-.614a1.5,1.5,0,0,1-.214-2.984l3.958-.575a1.5,1.5,0,0,1,.432,2.969l-3.958.575A1.513,1.513,0,0,1,1322.589,633.057Zm-246.63-.075c-.039,0-.077,0-.116,0l-3.988-.306a1.5,1.5,0,1,1,.229-2.991l3.988.306a1.5,1.5,0,0,1-.113,3Zm-8.974-.688c-.038,0-.077,0-.116,0l-3.988-.306a1.5,1.5,0,0,1,.229-2.991l3.988.306a1.5,1.5,0,0,1-.113,3Zm264.51-.532a1.5,1.5,0,0,1-.214-2.985l3.958-.575a1.5,1.5,0,0,1,.432,2.969l-3.958.575A1.514,1.514,0,0,1,1331.5,631.762Zm-273.483-.157q-.058,0-.116,0l-3.988-.306a1.5,1.5,0,0,1,.229-2.991l3.988.306a1.5,1.5,0,0,1-.113,3Zm-8.974-.688c-.039,0-.077,0-.116,0l-3.988-.306a1.5,1.5,0,0,1,.229-2.991l3.988.306a1.5,1.5,0,0,1-.113,3Zm291.363-.45a1.5,1.5,0,0,1-.214-2.985l3.958-.575a1.5,1.5,0,1,1,.432,2.969l-3.958.575A1.514,1.514,0,0,1,1340.4,630.468Zm-300.337-.239c-.038,0-.077,0-.116,0l-3.988-.306a1.5,1.5,0,1,1,.229-2.991l3.988.306a1.5,1.5,0,0,1-.113,3Zm-8.974-.688c-.039,0-.077,0-.116,0l-3.988-.306a1.5,1.5,0,1,1,.229-2.991l3.988.306a1.5,1.5,0,0,1-.113,3Zm318.217-.368a1.5,1.5,0,0,1-.214-2.985l3.958-.575a1.5,1.5,0,1,1,.432,2.969l-3.958.575A1.516,1.516,0,0,1,1349.308,629.173Zm-327.191-.321q-.058,0-.116,0l-3.988-.306a1.5,1.5,0,0,1,.229-2.991l3.988.306a1.5,1.5,0,0,1-.113,3Zm-8.974-.688q-.058,0-.116,0l-3.988-.306a1.5,1.5,0,0,1,.229-2.991l3.988.306a1.5,1.5,0,0,1-.113,3Zm345.071-.286a1.5,1.5,0,0,1-.214-2.985l3.958-.575a1.5,1.5,0,0,1,.432,2.969l-3.958.575A1.514,1.514,0,0,1,1358.214,627.878Zm-354.044-.4q-.058,0-.116,0l-3.988-.306a1.5,1.5,0,1,1,.229-2.991l3.988.306a1.5,1.5,0,0,1-.113,3Zm-8.974-.688q-.058,0-.116,0l-3.988-.306a1.5,1.5,0,1,1,.229-2.991l3.988.306a1.5,1.5,0,0,1-.113,3Zm371.924-.2a1.5,1.5,0,0,1-.214-2.984l3.958-.575a1.5,1.5,0,1,1,.432,2.969l-3.958.575A1.514,1.514,0,0,1,1367.121,626.584Zm-380.9-.484q-.058,0-.116,0l-3.988-.306a1.5,1.5,0,0,1,.229-2.991l3.988.306a1.5,1.5,0,0,1-.113,3Zm-8.974-.688q-.058,0-.116,0l-3.988-.306a1.5,1.5,0,0,1,.229-2.991l3.988.306a1.5,1.5,0,0,1-.113,3Zm398.778-.122a1.5,1.5,0,0,1-.214-2.985l3.958-.575a1.5,1.5,0,1,1,.432,2.969l-3.958.575A1.513,1.513,0,0,1,1376.027,625.289Zm-407.752-.567q-.058,0-.116,0l-3.988-.306a1.5,1.5,0,1,1,.229-2.991l3.988.306a1.5,1.5,0,0,1-.113,3Zm-8.974-.688q-.058,0-.116,0l-3.988-.306a1.5,1.5,0,0,1,.229-2.991l3.988.306a1.5,1.5,0,0,1-.113,3Zm425.632-.04a1.5,1.5,0,0,1-.214-2.985l3.958-.575a1.5,1.5,0,1,1,.432,2.969l-3.958.575A1.514,1.514,0,0,1,1384.934,623.995Zm-434.606-.648q-.058,0-.116,0l-3.988-.306a1.5,1.5,0,1,1,.229-2.991l3.988.306a1.5,1.5,0,0,1-.113,3Zm443.512-.646a1.5,1.5,0,0,1-.214-2.985l3.958-.575a1.5,1.5,0,1,1,.432,2.969l-3.958.575A1.514,1.514,0,0,1,1393.84,622.7Zm-452.486-.042q-.058,0-.116,0l-3.988-.306a1.5,1.5,0,1,1,.229-2.991l3.988.306a1.5,1.5,0,0,1-.113,3Zm-8.974-.688q-.058,0-.116,0l-3.988-.306a1.5,1.5,0,1,1,.229-2.991l3.988.306a1.5,1.5,0,0,1-.113,3Zm470.365-.564a1.5,1.5,0,0,1-.214-2.985l3.958-.575a1.5,1.5,0,0,1,.431,2.969l-3.958.575A1.514,1.514,0,0,1,1402.746,621.406Zm-479.339-.124q-.058,0-.116,0l-3.988-.306a1.5,1.5,0,0,1,.229-2.991l3.988.306a1.5,1.5,0,0,1-.113,3Zm-8.974-.688q-.058,0-.116,0l-3.988-.306a1.5,1.5,0,0,1,.229-2.991l3.988.306a1.5,1.5,0,0,1-.113,3Zm497.219-.482a1.5,1.5,0,0,1-.214-2.985l3.958-.575a1.5,1.5,0,0,1,.432,2.969l-3.958.575A1.514,1.514,0,0,1,1411.653,620.111ZM905.46,619.9q-.058,0-.116,0l-3.988-.306a1.5,1.5,0,1,1,.229-2.991l3.988.306a1.5,1.5,0,0,1-.113,3Zm-8.973-.688q-.058,0-.116,0l-3.988-.306a1.5,1.5,0,1,1,.229-2.991l3.988.306a1.5,1.5,0,0,1-.113,3Zm524.073-.4a1.5,1.5,0,0,1-.214-2.985l3.958-.575a1.5,1.5,0,0,1,.432,2.969l-3.958.575A1.514,1.514,0,0,1,1420.559,618.817Zm8.906-1.295a1.5,1.5,0,0,1-.214-2.985l3.958-.575a1.5,1.5,0,1,1,.432,2.969l-3.958.575A1.514,1.514,0,0,1,1429.466,617.522Zm8.906-1.295a1.5,1.5,0,0,1-.214-2.985l3.958-.575a1.5,1.5,0,0,1,.432,2.969l-3.958.575A1.513,1.513,0,0,1,1438.372,616.227Zm8.906-1.295a1.5,1.5,0,0,1-.214-2.985l3.958-.575a1.5,1.5,0,0,1,.432,2.969l-3.958.575A1.514,1.514,0,0,1,1447.278,614.933Zm8.906-1.294a1.5,1.5,0,0,1-.214-2.985l3.958-.575a1.5,1.5,0,1,1,.432,2.969l-3.958.575A1.514,1.514,0,0,1,1456.185,613.638Zm8.906-1.295a1.5,1.5,0,0,1-.214-2.985l3.958-.575a1.5,1.5,0,1,1,.432,2.969l-3.958.575A1.514,1.514,0,0,1,1465.091,612.344Zm8.906-1.295a1.5,1.5,0,0,1-.214-2.985l3.958-.575a1.5,1.5,0,1,1,.432,2.969l-3.958.575A1.514,1.514,0,0,1,1474,611.049Zm8.906-1.295a1.5,1.5,0,0,1-.214-2.985l3.958-.575a1.5,1.5,0,0,1,.432,2.969l-3.958.575A1.514,1.514,0,0,1,1482.9,609.755Zm8.906-1.295a1.5,1.5,0,0,1-.214-2.985l3.958-.575a1.5,1.5,0,1,1,.432,2.969l-3.958.575A1.506,1.506,0,0,1,1491.811,608.46Zm8.906-1.294a1.5,1.5,0,0,1-.214-2.985l3.958-.575a1.5,1.5,0,1,1,.432,2.969l-3.958.575A1.514,1.514,0,0,1,1500.717,607.165Zm8.906-1.295a1.5,1.5,0,0,1-.214-2.985l3.958-.575a1.5,1.5,0,0,1,.432,2.969l-3.958.575A1.514,1.514,0,0,1,1509.623,605.871Zm8.906-1.295a1.5,1.5,0,0,1-.214-2.985l3.958-.575a1.5,1.5,0,1,1,.432,2.969l-3.958.575A1.506,1.506,0,0,1,1518.53,604.576Zm8.906-1.295a1.5,1.5,0,0,1-.214-2.985l3.958-.575a1.5,1.5,0,0,1,.432,2.969l-3.958.575A1.514,1.514,0,0,1,1527.436,603.282Zm8.906-1.294a1.5,1.5,0,0,1-.214-2.985l3.958-.575a1.5,1.5,0,1,1,.431,2.969l-3.958.575A1.514,1.514,0,0,1,1536.343,601.987Zm8.906-1.295a1.5,1.5,0,0,1-.214-2.985l3.958-.575a1.5,1.5,0,1,1,.432,2.969l-3.958.575A1.506,1.506,0,0,1,1545.249,600.693Zm8.906-1.295a1.5,1.5,0,0,1-.214-2.985l3.351-.487a1.5,1.5,0,1,1,.432,2.969l-3.351.487A1.514,1.514,0,0,1,1554.155,599.4Z" transform="translate(-5066.904 3148.187)" fill="#c48402"/>
        <path id="Line_2623" data-name="Line 2623" d="M30,1.5H27A1.5,1.5,0,0,1,25.5,0,1.5,1.5,0,0,1,27-1.5h3A1.5,1.5,0,0,1,31.5,0,1.5,1.5,0,0,1,30,1.5Zm-8,0H18A1.5,1.5,0,0,1,16.5,0,1.5,1.5,0,0,1,18-1.5h4A1.5,1.5,0,0,1,23.5,0,1.5,1.5,0,0,1,22,1.5Zm-9,0H9A1.5,1.5,0,0,1,7.5,0,1.5,1.5,0,0,1,9-1.5h4A1.5,1.5,0,0,1,14.5,0,1.5,1.5,0,0,1,13,1.5Zm-9,0H0A1.5,1.5,0,0,1-1.5,0,1.5,1.5,0,0,1,0-1.5H4A1.5,1.5,0,0,1,5.5,0,1.5,1.5,0,0,1,4,1.5Z" transform="translate(-3875 3894)" fill="#c48402"/>
      </g>
      <g id="Group_270746" data-name="Group 270746" transform="translate(2354 5484)">
        <path id="Path_103565" data-name="Path 103565" d="M1557.258,512.591a1.5,1.5,0,0,1-.218-.016L1237.555,466.12,892.611,492.586a1.5,1.5,0,0,1-.23-2.991l345.109-26.479a1.5,1.5,0,0,1,.331.011l319.651,46.479a1.5,1.5,0,0,1-.214,2.985Z" transform="translate(-5066.904 3148.187)" fill="#2aa29a"/>
        <path id="Line_2624" data-name="Line 2624" d="M30,1.5H0A1.5,1.5,0,0,1-1.5,0,1.5,1.5,0,0,1,0-1.5H30A1.5,1.5,0,0,1,31.5,0,1.5,1.5,0,0,1,30,1.5Z" transform="translate(-4207 3894)" fill="#2aa29a"/>
      </g>
      <text id="Abandoned_quotes" data-name="Abandoned quotes" transform="translate(-1311 9382)" fill="#31313a" font-size="12" font-family="SegoeUI, Segoe UI"><tspan x="0" y="0">Abandoned quotes</tspan></text>
      <g id="Group_270747" data-name="Group 270747" transform="translate(2354 5484)">
        <circle id="Ellipse_2102" data-name="Ellipse 2102" cx="5" cy="5" r="5" transform="translate(-4053 3889)" fill="#6ea239"/>
        <circle id="Ellipse_2105" data-name="Ellipse 2105" cx="5" cy="5" r="5" transform="translate(-4165 3784)" fill="#6ea239"/>
        <circle id="Ellipse_2106" data-name="Ellipse 2106" cx="5" cy="5" r="5" transform="translate(-4009 3749)" fill="#6ea239"/>
        <circle id="Ellipse_2107" data-name="Ellipse 2107" cx="5" cy="5" r="5" transform="translate(-3863 3718)" fill="#6ea239"/>
        <circle id="Ellipse_2108" data-name="Ellipse 2108" cx="5" cy="5" r="5" transform="translate(-3708 3701)" fill="#6ea239"/>
        <circle id="Ellipse_2109" data-name="Ellipse 2109" cx="5" cy="5" r="5" transform="translate(-3556 3693)" fill="#6ea239"/>
      </g>
      <g id="Group_270748" data-name="Group 270748" transform="translate(2354 5484)">
        <path id="Polygon_1" data-name="Polygon 1" d="M6,0l6,10H0Z" transform="translate(-3866.499 3889)" fill="#c48402"/>
        <path id="Polygon_2" data-name="Polygon 2" d="M6,0l6,10H0Z" transform="translate(-4164.801 3761)" fill="#c48402"/>
        <path id="Polygon_3" data-name="Polygon 3" d="M6,0l6,10H0Z" transform="translate(-4013.801 3773)" fill="#c48402"/>
        <path id="Polygon_4" data-name="Polygon 4" d="M6,0l6,10H0Z" transform="translate(-3863 3784)" fill="#c48402"/>
        <path id="Polygon_5" data-name="Polygon 5" d="M6,0l6,10H0Z" transform="translate(-3710 3768)" fill="#c48402"/>
        <path id="Polygon_6" data-name="Polygon 6" d="M6,0l6,10H0Z" transform="translate(-3557.6 3747)" fill="#c48402"/>
      </g>
      <g id="Group_270749" data-name="Group 270749" transform="translate(2354 5484)">
        <rect id="Rectangle_11765" data-name="Rectangle 11765" width="10" height="10" transform="translate(-4197.402 3889)" fill="#2aa29a"/>
        <rect id="Rectangle_11766" data-name="Rectangle 11766" width="10" height="10" transform="translate(-4165 3633.5)" fill="#2aa29a"/>
        <rect id="Rectangle_11767" data-name="Rectangle 11767" width="10" height="10" transform="translate(-4009.5 3622.328)" fill="#2aa29a"/>
        <rect id="Rectangle_11768" data-name="Rectangle 11768" width="10" height="10" transform="translate(-3858.199 3610.798)" fill="#2aa29a"/>
        <rect id="Rectangle_11769" data-name="Rectangle 11769" width="10" height="10" transform="translate(-3708 3627)" fill="#2aa29a"/>
        <rect id="Rectangle_11770" data-name="Rectangle 11770" width="10" height="10" transform="translate(-3556 3649)" fill="#2aa29a"/>
      </g>
      <g id="Group_270750" data-name="Group 270750" transform="translate(2354 5484)">
        <path id="Line_2626" data-name="Line 2626" d="M26,1.5H25A1.5,1.5,0,0,1,23.5,0,1.5,1.5,0,0,1,25-1.5h1A1.5,1.5,0,0,1,27.5,0,1.5,1.5,0,0,1,26,1.5Zm-5,0H20A1.5,1.5,0,0,1,18.5,0,1.5,1.5,0,0,1,20-1.5h1A1.5,1.5,0,0,1,22.5,0,1.5,1.5,0,0,1,21,1.5Zm-5,0H15A1.5,1.5,0,0,1,13.5,0,1.5,1.5,0,0,1,15-1.5h1A1.5,1.5,0,0,1,17.5,0,1.5,1.5,0,0,1,16,1.5Zm-5,0H10A1.5,1.5,0,0,1,8.5,0,1.5,1.5,0,0,1,10-1.5h1A1.5,1.5,0,0,1,12.5,0,1.5,1.5,0,0,1,11,1.5Zm-5,0H5A1.5,1.5,0,0,1,3.5,0,1.5,1.5,0,0,1,5-1.5H6A1.5,1.5,0,0,1,7.5,0,1.5,1.5,0,0,1,6,1.5Zm-5,0H0A1.5,1.5,0,0,1-1.5,0,1.5,1.5,0,0,1,0-1.5H1A1.5,1.5,0,0,1,2.5,0,1.5,1.5,0,0,1,1,1.5Z" transform="translate(-3701 3894)" fill="#cf5c0a"/>
        <path id="Path_103567" data-name="Path 103567" d="M1237.15,493.172h-1a1.5,1.5,0,0,1,0-3h1a1.5,1.5,0,0,1,0,3Zm-5,0h-1a1.5,1.5,0,0,1,0-3h1a1.5,1.5,0,0,1,0,3Zm-5,0h-1a1.5,1.5,0,0,1,0-3h1a1.5,1.5,0,0,1,0,3Zm-5,0h-1a1.5,1.5,0,0,1,0-3h1a1.5,1.5,0,0,1,0,3Zm-5,0h-1a1.5,1.5,0,0,1,0-3h1a1.5,1.5,0,0,1,0,3Zm-5,0h-1a1.5,1.5,0,0,1,0-3h1a1.5,1.5,0,0,1,0,3Zm-5,0h-1a1.5,1.5,0,0,1,0-3h1a1.5,1.5,0,0,1,0,3Zm-5,0h-1a1.5,1.5,0,0,1,0-3h1a1.5,1.5,0,0,1,0,3Zm-5,0h-1a1.5,1.5,0,0,1,0-3h1a1.5,1.5,0,0,1,0,3Zm-5,0h-1a1.5,1.5,0,0,1,0-3h1a1.5,1.5,0,0,1,0,3Zm-5,0h-1a1.5,1.5,0,0,1,0-3h1a1.5,1.5,0,0,1,0,3Zm-5,0h-1a1.5,1.5,0,0,1,0-3h1a1.5,1.5,0,0,1,0,3Zm-5,0h-1a1.5,1.5,0,0,1,0-3h1a1.5,1.5,0,0,1,0,3Zm-5,0h-1a1.5,1.5,0,0,1,0-3h1a1.5,1.5,0,0,1,0,3Zm-5,0h-1a1.5,1.5,0,0,1,0-3h1a1.5,1.5,0,0,1,0,3Zm-5,0h-1a1.5,1.5,0,0,1,0-3h1a1.5,1.5,0,0,1,0,3Zm-5,0h-1a1.5,1.5,0,0,1,0-3h1a1.5,1.5,0,0,1,0,3Zm-5,0h-1a1.5,1.5,0,0,1,0-3h1a1.5,1.5,0,0,1,0,3Zm-5,0h-1a1.5,1.5,0,0,1,0-3h1a1.5,1.5,0,0,1,0,3Zm-5,0h-1a1.5,1.5,0,0,1,0-3h1a1.5,1.5,0,0,1,0,3Zm-5,0h-1a1.5,1.5,0,0,1,0-3h1a1.5,1.5,0,0,1,0,3Zm-5,0h-1a1.5,1.5,0,0,1,0-3h1a1.5,1.5,0,0,1,0,3Zm-5,0h-1a1.5,1.5,0,0,1,0-3h1a1.5,1.5,0,0,1,0,3Zm-5,0h-1a1.5,1.5,0,0,1,0-3h1a1.5,1.5,0,0,1,0,3Zm-5,0h-1a1.5,1.5,0,0,1,0-3h1a1.5,1.5,0,0,1,0,3Zm-5,0h-1a1.5,1.5,0,0,1,0-3h1a1.5,1.5,0,0,1,0,3Zm-5,0h-1a1.5,1.5,0,0,1,0-3h1a1.5,1.5,0,0,1,0,3Zm-5,0h-1a1.5,1.5,0,0,1,0-3h1a1.5,1.5,0,0,1,0,3Zm-5,0h-1a1.5,1.5,0,0,1,0-3h1a1.5,1.5,0,0,1,0,3Zm-5,0h-1a1.5,1.5,0,0,1,0-3h1a1.5,1.5,0,0,1,0,3Zm-5,0h-1a1.5,1.5,0,0,1,0-3h1a1.5,1.5,0,0,1,0,3Zm-5,0h-1a1.5,1.5,0,0,1,0-3h1a1.5,1.5,0,0,1,0,3Zm-5,0h-1a1.5,1.5,0,0,1,0-3h1a1.5,1.5,0,0,1,0,3Zm-5,0h-1a1.5,1.5,0,0,1,0-3h1a1.5,1.5,0,0,1,0,3Zm-5,0h-1a1.5,1.5,0,0,1,0-3h1a1.5,1.5,0,0,1,0,3Zm-5,0h-1a1.5,1.5,0,0,1,0-3h1a1.5,1.5,0,0,1,0,3Zm-5,0h-1a1.5,1.5,0,0,1,0-3h1a1.5,1.5,0,0,1,0,3Zm-5,0h-1a1.5,1.5,0,0,1,0-3h1a1.5,1.5,0,0,1,0,3Zm-5,0h-1a1.5,1.5,0,0,1,0-3h1a1.5,1.5,0,0,1,0,3Zm-5,0h-1a1.5,1.5,0,0,1,0-3h1a1.5,1.5,0,0,1,0,3Zm-5,0h-1a1.5,1.5,0,0,1,0-3h1a1.5,1.5,0,0,1,0,3Zm-5,0h-1a1.5,1.5,0,0,1,0-3h1a1.5,1.5,0,0,1,0,3Zm-5,0h-1a1.5,1.5,0,0,1,0-3h1a1.5,1.5,0,0,1,0,3Zm-5,0h-1a1.5,1.5,0,0,1,0-3h1a1.5,1.5,0,0,1,0,3Zm-5,0h-1a1.5,1.5,0,0,1,0-3h1a1.5,1.5,0,0,1,0,3Zm-5,0h-1a1.5,1.5,0,0,1,0-3h1a1.5,1.5,0,0,1,0,3Zm-5,0h-1a1.5,1.5,0,0,1,0-3h1a1.5,1.5,0,0,1,0,3Zm-5,0h-1a1.5,1.5,0,0,1,0-3h1a1.5,1.5,0,0,1,0,3Zm-5,0h-1a1.5,1.5,0,0,1,0-3h1a1.5,1.5,0,0,1,0,3Zm-5,0h-1a1.5,1.5,0,0,1,0-3h1a1.5,1.5,0,0,1,0,3Zm-5,0h-1a1.5,1.5,0,0,1,0-3h1a1.5,1.5,0,0,1,0,3Zm-5,0h-1a1.5,1.5,0,0,1,0-3h1a1.5,1.5,0,0,1,0,3Zm-5,0h-1a1.5,1.5,0,0,1,0-3h1a1.5,1.5,0,0,1,0,3Zm-5,0h-1a1.5,1.5,0,0,1,0-3h1a1.5,1.5,0,0,1,0,3Zm-5,0h-1a1.5,1.5,0,0,1,0-3h1a1.5,1.5,0,0,1,0,3Zm-5,0h-1a1.5,1.5,0,0,1,0-3h1a1.5,1.5,0,0,1,0,3Zm-5,0h-1a1.5,1.5,0,0,1,0-3h1a1.5,1.5,0,0,1,0,3Zm-5,0h-1a1.5,1.5,0,0,1,0-3h1a1.5,1.5,0,0,1,0,3Zm-5,0h-1a1.5,1.5,0,0,1,0-3h1a1.5,1.5,0,0,1,0,3Zm-5,0h-1a1.5,1.5,0,0,1,0-3h1a1.5,1.5,0,0,1,0,3Zm-5,0h-1a1.5,1.5,0,0,1,0-3h1a1.5,1.5,0,0,1,0,3Zm-5,0h-1a1.5,1.5,0,0,1,0-3h1a1.5,1.5,0,0,1,0,3Zm-5,0h-1a1.5,1.5,0,0,1,0-3h1a1.5,1.5,0,0,1,0,3Zm-5,0h-1a1.5,1.5,0,0,1,0-3h1a1.5,1.5,0,0,1,0,3Zm-5,0h-1a1.5,1.5,0,0,1,0-3h1a1.5,1.5,0,0,1,0,3Zm-5,0h-1a1.5,1.5,0,0,1,0-3h1a1.5,1.5,0,0,1,0,3Zm-5,0h-1a1.5,1.5,0,0,1,0-3h1a1.5,1.5,0,0,1,0,3Zm-5,0h-1a1.5,1.5,0,0,1,0-3h1a1.5,1.5,0,0,1,0,3Zm-5,0h-1a1.5,1.5,0,0,1,0-3h1a1.5,1.5,0,0,1,0,3Zm-5,0h-1a1.5,1.5,0,0,1,0-3h1a1.5,1.5,0,0,1,0,3Zm348.961-.51a1.5,1.5,0,0,1-.214-2.985l.99-.144a1.5,1.5,0,0,1,.432,2.969l-.99.144A1.51,1.51,0,0,1,1241.112,492.662Zm4.948-.719a1.5,1.5,0,0,1-.214-2.985l.99-.144a1.5,1.5,0,0,1,.432,2.969l-.99.144A1.514,1.514,0,0,1,1246.06,491.943Zm4.948-.719a1.5,1.5,0,0,1-.214-2.985l.99-.144a1.5,1.5,0,1,1,.432,2.969l-.99.144A1.513,1.513,0,0,1,1251.008,491.223Zm4.948-.719a1.5,1.5,0,0,1-.214-2.985l.99-.144a1.5,1.5,0,1,1,.432,2.969l-.99.144A1.512,1.512,0,0,1,1255.955,490.5Zm4.948-.719a1.5,1.5,0,0,1-.214-2.985l.99-.144a1.5,1.5,0,1,1,.432,2.969l-.99.144A1.517,1.517,0,0,1,1260.9,489.784Zm4.948-.719a1.5,1.5,0,0,1-.214-2.985l.99-.144a1.5,1.5,0,0,1,.432,2.969l-.99.144A1.514,1.514,0,0,1,1265.852,489.065Zm4.948-.719a1.5,1.5,0,0,1-.214-2.985l.99-.144a1.5,1.5,0,0,1,.432,2.969l-.99.144A1.51,1.51,0,0,1,1270.8,488.345Zm4.948-.719a1.5,1.5,0,0,1-.214-2.985l.99-.144a1.5,1.5,0,0,1,.432,2.969l-.99.144A1.51,1.51,0,0,1,1275.747,487.626Zm4.948-.72a1.5,1.5,0,0,1-.214-2.985l.99-.144a1.5,1.5,0,1,1,.432,2.969l-.99.144A1.516,1.516,0,0,1,1280.7,486.906Zm4.948-.719a1.5,1.5,0,0,1-.214-2.985l.99-.144a1.5,1.5,0,0,1,.432,2.969l-.99.144A1.513,1.513,0,0,1,1285.643,486.187Zm4.948-.719a1.5,1.5,0,0,1-.214-2.985l.99-.144a1.5,1.5,0,1,1,.432,2.969l-.99.144A1.512,1.512,0,0,1,1290.591,485.467Zm4.948-.719a1.5,1.5,0,0,1-.214-2.985l.99-.144a1.5,1.5,0,1,1,.432,2.969l-.99.144A1.516,1.516,0,0,1,1295.539,484.748Zm4.948-.72a1.5,1.5,0,0,1-.214-2.985l.99-.144a1.5,1.5,0,0,1,.432,2.969l-.99.144A1.513,1.513,0,0,1,1300.487,484.028Zm4.948-.719a1.5,1.5,0,0,1-.214-2.985l.99-.144a1.5,1.5,0,1,1,.432,2.969l-.99.144A1.51,1.51,0,0,1,1305.435,483.309Zm4.948-.719a1.5,1.5,0,0,1-.214-2.985l.99-.144a1.5,1.5,0,0,1,.432,2.969l-.99.144A1.516,1.516,0,0,1,1310.383,482.589Zm4.948-.719a1.5,1.5,0,0,1-.214-2.985l.99-.144a1.5,1.5,0,1,1,.432,2.969l-.99.144A1.516,1.516,0,0,1,1315.331,481.87Zm4.948-.719a1.5,1.5,0,0,1-.214-2.985l.99-.144a1.5,1.5,0,1,1,.432,2.969l-.99.144A1.512,1.512,0,0,1,1320.279,481.151Zm4.948-.719a1.5,1.5,0,0,1-.214-2.985l.99-.144a1.5,1.5,0,0,1,.432,2.969l-.99.144A1.517,1.517,0,0,1,1325.227,480.431Zm4.948-.719a1.5,1.5,0,0,1-.214-2.985l.99-.144a1.5,1.5,0,1,1,.432,2.969l-.99.144A1.514,1.514,0,0,1,1330.175,479.712Zm4.948-.719a1.5,1.5,0,0,1-.214-2.985l.99-.144a1.5,1.5,0,1,1,.432,2.969l-.99.144A1.512,1.512,0,0,1,1335.123,478.992Zm4.948-.719a1.5,1.5,0,0,1-.214-2.985l.99-.144a1.5,1.5,0,0,1,.432,2.969l-.99.144A1.51,1.51,0,0,1,1340.071,478.273Zm4.948-.719a1.5,1.5,0,0,1-.214-2.985l.99-.144a1.5,1.5,0,1,1,.432,2.969l-.99.144A1.514,1.514,0,0,1,1345.019,477.553Zm4.948-.719a1.5,1.5,0,0,1-.214-2.985l.99-.144a1.5,1.5,0,0,1,.432,2.969l-.99.144A1.511,1.511,0,0,1,1349.967,476.834Zm4.948-.719a1.5,1.5,0,0,1-.214-2.985l.99-.144a1.5,1.5,0,1,1,.432,2.969l-.99.144A1.511,1.511,0,0,1,1354.915,476.114Zm4.948-.72a1.5,1.5,0,0,1-.214-2.985l.99-.144a1.5,1.5,0,1,1,.432,2.969l-.99.144A1.516,1.516,0,0,1,1359.863,475.395Zm4.948-.719a1.5,1.5,0,0,1-.214-2.985l.99-.144a1.5,1.5,0,1,1,.432,2.969l-.99.144A1.512,1.512,0,0,1,1364.811,474.675Zm4.948-.719a1.5,1.5,0,0,1-.214-2.985l.99-.144a1.5,1.5,0,1,1,.432,2.969l-.99.144A1.51,1.51,0,0,1,1369.759,473.956Zm4.948-.719a1.5,1.5,0,0,1-.214-2.985l.99-.144a1.5,1.5,0,0,1,.432,2.969l-.99.144A1.512,1.512,0,0,1,1374.707,473.236Zm4.948-.719a1.5,1.5,0,0,1-.214-2.985l.99-.144a1.5,1.5,0,0,1,.432,2.969l-.99.144A1.511,1.511,0,0,1,1379.655,472.517Zm4.948-.719a1.5,1.5,0,0,1-.214-2.985l.99-.144a1.5,1.5,0,1,1,.432,2.969l-.99.144A1.51,1.51,0,0,1,1384.6,471.8Zm4.948-.719a1.5,1.5,0,0,1-.214-2.985l.99-.144a1.5,1.5,0,1,1,.432,2.969l-.99.144A1.512,1.512,0,0,1,1389.551,471.078Zm4.948-.719a1.5,1.5,0,0,1-.214-2.985l.99-.144a1.5,1.5,0,1,1,.432,2.969l-.99.144A1.516,1.516,0,0,1,1394.5,470.359Zm4.948-.72a1.5,1.5,0,0,1-.214-2.985l.99-.144a1.5,1.5,0,1,1,.432,2.969l-.99.144A1.511,1.511,0,0,1,1399.447,469.639Zm4.948-.719a1.5,1.5,0,0,1-.214-2.985l.99-.144a1.5,1.5,0,0,1,.432,2.969l-.99.144A1.512,1.512,0,0,1,1404.394,468.92Zm4.948-.719a1.5,1.5,0,0,1-.214-2.985l.99-.144a1.5,1.5,0,0,1,.432,2.969l-.99.144A1.514,1.514,0,0,1,1409.343,468.2Zm4.948-.719a1.5,1.5,0,0,1-.214-2.985l.99-.144a1.5,1.5,0,1,1,.432,2.969l-.99.144A1.51,1.51,0,0,1,1414.29,467.481Zm4.948-.72a1.5,1.5,0,0,1-.214-2.985l.99-.144a1.5,1.5,0,0,1,.432,2.969l-.99.144A1.51,1.51,0,0,1,1419.238,466.761Zm4.948-.719a1.5,1.5,0,0,1-.214-2.985l.99-.144a1.5,1.5,0,1,1,.432,2.969l-.99.144A1.514,1.514,0,0,1,1424.186,466.042Zm4.948-.719a1.5,1.5,0,0,1-.214-2.985l.99-.144a1.5,1.5,0,1,1,.432,2.969l-.99.144A1.512,1.512,0,0,1,1429.134,465.322Zm4.948-.719a1.5,1.5,0,0,1-.214-2.985l.99-.144a1.5,1.5,0,0,1,.432,2.969l-.99.144A1.514,1.514,0,0,1,1434.082,464.6Zm4.948-.719a1.5,1.5,0,0,1-.214-2.985l.99-.144a1.5,1.5,0,1,1,.432,2.969l-.99.144A1.514,1.514,0,0,1,1439.03,463.883Zm4.948-.719a1.5,1.5,0,0,1-.214-2.985l.99-.144a1.5,1.5,0,0,1,.432,2.969l-.99.144A1.512,1.512,0,0,1,1443.978,463.164Zm4.948-.719a1.5,1.5,0,0,1-.214-2.985l.99-.144a1.5,1.5,0,0,1,.432,2.969l-.99.144A1.516,1.516,0,0,1,1448.926,462.444Zm4.948-.719a1.5,1.5,0,0,1-.214-2.985l.99-.144a1.5,1.5,0,0,1,.432,2.969l-.99.144A1.513,1.513,0,0,1,1453.874,461.725Zm4.948-.719a1.5,1.5,0,0,1-.214-2.985l.99-.144a1.5,1.5,0,0,1,.432,2.969l-.99.144A1.513,1.513,0,0,1,1458.822,461.005Zm4.948-.719a1.5,1.5,0,0,1-.214-2.985l.99-.144a1.5,1.5,0,1,1,.432,2.969l-.99.144A1.514,1.514,0,0,1,1463.77,460.286Zm4.948-.719a1.5,1.5,0,0,1-.214-2.985l.99-.144a1.5,1.5,0,0,1,.432,2.969l-.99.144A1.512,1.512,0,0,1,1468.718,459.566Zm4.948-.719a1.5,1.5,0,0,1-.214-2.985l.99-.144a1.5,1.5,0,0,1,.432,2.969l-.99.144A1.51,1.51,0,0,1,1473.666,458.847Zm4.948-.72a1.5,1.5,0,0,1-.214-2.985l.99-.144a1.5,1.5,0,1,1,.432,2.969l-.99.144A1.514,1.514,0,0,1,1478.614,458.128Zm4.948-.719a1.5,1.5,0,0,1-.214-2.985l.99-.144a1.5,1.5,0,0,1,.432,2.969l-.99.144A1.512,1.512,0,0,1,1483.562,457.408Zm4.948-.719a1.5,1.5,0,0,1-.214-2.985l.99-.144a1.5,1.5,0,1,1,.432,2.969l-.99.144A1.512,1.512,0,0,1,1488.51,456.689Zm4.948-.719a1.5,1.5,0,0,1-.214-2.985l.99-.144a1.5,1.5,0,0,1,.432,2.969l-.99.144A1.517,1.517,0,0,1,1493.458,455.969Zm4.948-.72a1.5,1.5,0,0,1-.214-2.985l.99-.144a1.5,1.5,0,1,1,.432,2.969l-.99.144A1.512,1.512,0,0,1,1498.406,455.25Zm4.948-.719a1.5,1.5,0,0,1-.214-2.985l.99-.144a1.5,1.5,0,1,1,.432,2.969l-.99.144A1.51,1.51,0,0,1,1503.354,454.53Zm4.948-.719a1.5,1.5,0,0,1-.214-2.985l.99-.144a1.5,1.5,0,0,1,.432,2.969l-.99.144A1.515,1.515,0,0,1,1508.3,453.811Zm4.948-.719a1.5,1.5,0,0,1-.214-2.985l.99-.144a1.5,1.5,0,0,1,.432,2.969l-.99.144A1.514,1.514,0,0,1,1513.25,453.091Zm4.948-.719a1.5,1.5,0,0,1-.214-2.985l.99-.144a1.5,1.5,0,1,1,.432,2.969l-.99.144A1.51,1.51,0,0,1,1518.2,452.372Zm4.948-.719a1.5,1.5,0,0,1-.214-2.985l.99-.144a1.5,1.5,0,1,1,.432,2.969l-.99.144A1.517,1.517,0,0,1,1523.146,451.652Zm4.948-.719a1.5,1.5,0,0,1-.214-2.985l.99-.144a1.5,1.5,0,1,1,.432,2.969l-.99.144A1.516,1.516,0,0,1,1528.094,450.933Zm4.948-.719a1.5,1.5,0,0,1-.214-2.985l.99-.144a1.5,1.5,0,1,1,.432,2.969l-.99.144A1.512,1.512,0,0,1,1533.042,450.213Zm4.948-.719a1.5,1.5,0,0,1-.214-2.985l.99-.144a1.5,1.5,0,1,1,.432,2.969l-.99.144A1.516,1.516,0,0,1,1537.99,449.494Zm4.948-.719a1.5,1.5,0,0,1-.214-2.985l.99-.144a1.5,1.5,0,0,1,.432,2.969l-.99.144A1.514,1.514,0,0,1,1542.938,448.774Zm4.948-.719a1.5,1.5,0,0,1-.214-2.985l.99-.144a1.5,1.5,0,0,1,.432,2.969l-.99.144A1.51,1.51,0,0,1,1547.885,448.055Zm4.948-.719a1.5,1.5,0,0,1-.214-2.985l.99-.144a1.5,1.5,0,0,1,.432,2.969l-.99.144A1.51,1.51,0,0,1,1552.833,447.336Z" transform="translate(-5066.904 3324.909)" fill="#cf5c0a"/>
      </g>
      <g id="Group_270751" data-name="Group 270751" transform="translate(2354 5484)">
        <rect id="Rectangle_11777" data-name="Rectangle 11777" width="5" height="10" rx="2" transform="translate(-3688 3889)" fill="#cf5c0a"/>
        <rect id="Rectangle_11778" data-name="Rectangle 11778" width="5" height="10" rx="2" transform="translate(-4162 3812)" fill="#cf5c0a"/>
        <rect id="Rectangle_11779" data-name="Rectangle 11779" width="5" height="10" rx="2" transform="translate(-4012 3812)" fill="#cf5c0a"/>
        <rect id="Rectangle_11780" data-name="Rectangle 11780" width="5" height="10" rx="2" transform="translate(-3861 3812)" fill="#cf5c0a"/>
        <rect id="Rectangle_11781" data-name="Rectangle 11781" width="5" height="10" rx="2" transform="translate(-3708 3793)" fill="#cf5c0a"/>
        <rect id="Rectangle_11782" data-name="Rectangle 11782" width="5" height="10" rx="2" transform="translate(-3553 3771)" fill="#cf5c0a"/>
      </g>
    </g>
  </g>
</svg>
