<svg xmlns="http://www.w3.org/2000/svg" xmlns:xlink="http://www.w3.org/1999/xlink" width="1000" height="102" viewBox="0 0 1000 102">
  <defs>
    <clipPath id="clip-multipicker_search">
      <rect width="1000" height="102"/>
    </clipPath>
  </defs>
  <g id="multipicker_search" clip-path="url(#clip-multipicker_search)">
    <rect width="1000" height="102" fill="#f4f4f6"/>
    <g id="Group_264400" data-name="Group 264400" transform="translate(236 30)">
      <rect id="Rectangle_3779" data-name="Rectangle 3779" width="529" height="42" rx="2" fill="#fff"/>
      <path id="Rectangle_3779_-_Outline" data-name="Rectangle 3779 - Outline" d="M2,1A1,1,0,0,0,1,2V40a1,1,0,0,0,1,1H527a1,1,0,0,0,1-1V2a1,1,0,0,0-1-1H2M2,0H527a2,2,0,0,1,2,2V40a2,2,0,0,1-2,2H2a2,2,0,0,1-2-2V2A2,2,0,0,1,2,0Z" fill="#dbdbdb"/>
      <text id="Search" transform="translate(14 27)" fill="#c6c6c6" font-size="14" font-family="OpenSans-Regular, Open Sans"><tspan x="0" y="0">Search</tspan></text>
      <path id="Rectangle_3780" data-name="Rectangle 3780" d="M0,0H41a1,1,0,0,1,1,1V39a1,1,0,0,1-1,1H0a0,0,0,0,1,0,0V0A0,0,0,0,1,0,0Z" transform="translate(486 1)" fill="#fafafa"/>
      <rect id="Rectangle_3781" data-name="Rectangle 3781" width="1" height="40" transform="translate(486 1)" fill="#ebebeb"/>
      <g id="Group_7480" data-name="Group 7480" transform="translate(496 9)">
        <path id="Path_520" data-name="Path 520" d="M303.8,258.3l-5-5a6.354,6.354,0,0,0,1.1-4.9,6.471,6.471,0,0,0-5.6-5.3,6.53,6.53,0,0,0-2,12.9,6.914,6.914,0,0,0,4.9-1.1l5,5a1.088,1.088,0,0,0,1.5,0A1.222,1.222,0,0,0,303.8,258.3Zm-14.7-9.5a4.458,4.458,0,0,1,3.7-3.7,4.57,4.57,0,0,1,5.2,5.2,4.458,4.458,0,0,1-3.7,3.7A4.609,4.609,0,0,1,289.1,248.8Z" transform="translate(-284 -240)" fill="#5786bd"/>
        <path id="Path_519" data-name="Path 519" d="M284.1,240h24v24h-24Z" transform="translate(-284 -240)" fill="none"/>
        <rect id="Rectangle_304" data-name="Rectangle 304" width="24" height="24" fill="none"/>
      </g>
    </g>
  </g>
</svg>
