<svg xmlns="http://www.w3.org/2000/svg" xmlns:xlink="http://www.w3.org/1999/xlink" width="485" height="121" viewBox="0 0 485 121">
  <defs>
    <clipPath id="clip-multipicker_checkboxes">
      <rect width="485" height="121"/>
    </clipPath>
  </defs>
  <g id="multipicker_checkboxes" clip-path="url(#clip-multipicker_checkboxes)">
    <rect width="485" height="121" fill="#f4f4f6"/>
    <g id="Group_267221" data-name="Group 267221" transform="translate(158 29)">
      <g id="Checkbox" transform="translate(43 1)">
        <text id="Porshce" transform="translate(30 17)" fill="#1a1a1e" stroke="rgba(0,0,0,0)" stroke-width="1" font-size="14" font-family="SegoeUI, Segoe UI"><tspan x="0" y="0">Porshce</tspan></text>
        <g id="Unchecked">
          <path id="Unchecked-2" data-name="Unchecked" d="M21,2.4a.567.567,0,0,1,.6.6V21a.567.567,0,0,1-.6.6H3a.567.567,0,0,1-.6-.6V3A.567.567,0,0,1,3,2.4H21M21,0H3A2.971,2.971,0,0,0,0,3V21a2.971,2.971,0,0,0,3,3H21a2.971,2.971,0,0,0,3-3V3a2.971,2.971,0,0,0-3-3Z" fill="#9494a4"/>
        </g>
      </g>
      <g id="Checkbox-2" data-name="Checkbox" transform="translate(43 39)">
        <g id="Checked" transform="translate(0 -1)">
          <path id="Path_5845" data-name="Path 5845" d="M46.2,0h-18a2.971,2.971,0,0,0-3,3V21a2.971,2.971,0,0,0,3,3h18a2.971,2.971,0,0,0,3-3V3A2.971,2.971,0,0,0,46.2,0ZM44.64,8.52l-8.76,8.76a1.16,1.16,0,0,1-1.68,0l-4.32-4.32a1.188,1.188,0,0,1,1.68-1.68l3.48,3.48,7.92-7.92a1.16,1.16,0,0,1,1.68,0A1.442,1.442,0,0,1,44.64,8.52Z" transform="translate(-25.2)" fill="#2777d3"/>
        </g>
        <text id="Corvette" transform="translate(30 17)" fill="#1a1a1e" stroke="rgba(0,0,0,0)" stroke-width="1" font-size="14" font-family="SegoeUI, Segoe UI"><tspan x="0" y="0">Corvette</tspan></text>
      </g>
    </g>
  </g>
</svg>
