<svg xmlns="http://www.w3.org/2000/svg" xmlns:xlink="http://www.w3.org/1999/xlink" width="485" height="154" viewBox="0 0 485 154">
  <defs>
    <clipPath id="clip-multiselect_selectionwrapping">
      <rect width="485" height="154"/>
    </clipPath>
  </defs>
  <g id="multiselect_selectionwrapping" clip-path="url(#clip-multiselect_selectionwrapping)">
    <rect width="485" height="154" fill="#f4f4f6"/>
    <g id="Group_15388" data-name="Group 15388" transform="translate(-39 -56)">
      <rect id="Rectangle_4840" data-name="Rectangle 4840" width="300" height="71" rx="4" transform="translate(132 109)" fill="#fff"/>
      <path id="Rectangle_4840_-_Outline" data-name="Rectangle 4840 - Outline" d="M4,1A3,3,0,0,0,1,4V67a3,3,0,0,0,3,3H296a3,3,0,0,0,3-3V4a3,3,0,0,0-3-3H4M4,0H296a4,4,0,0,1,4,4V67a4,4,0,0,1-4,4H4a4,4,0,0,1-4-4V4A4,4,0,0,1,4,0Z" transform="translate(132 109)" fill="#cbcbd2"/>
      <text id="State" transform="translate(132 101)" fill="#31313a" font-size="14" font-family="SegoeUI-Semibold, Segoe UI" font-weight="600"><tspan x="0" y="0">State</tspan></text>
      <g id="Group_7815" data-name="Group 7815" transform="translate(-418 -1589)">
        <rect id="Rectangle_3867" data-name="Rectangle 3867" width="24" height="24" transform="translate(816 1707)" fill="none"/>
        <path id="Path_5558" data-name="Path 5558" d="M56,9.4l-3,3-3-3a.967.967,0,0,0-1.4,0h0a.967.967,0,0,0,0,1.4l3.7,3.7a.967.967,0,0,0,1.4,0l3.7-3.7a.967.967,0,0,0,0-1.4h0A.965.965,0,0,0,56,9.4Z" transform="translate(775 1707)" fill="#9494a4"/>
      </g>
      <g id="Group_7811" data-name="Group 7811" transform="translate(-344 -365)">
        <rect id="Rectangle_4061" data-name="Rectangle 4061" width="92" height="24" rx="2" transform="translate(491 483)" fill="#eaeaea"/>
        <g id="Remove" transform="translate(574 498)">
          <g id="Remove-2" data-name="Remove" transform="translate(-8 -8)">
            <path id="Path_10244" data-name="Path 10244" d="M9.933,8.934a.25.25,0,0,1,0,.312l-.624.624a.25.25,0,0,1-.312,0L5,6,1.066,9.933a.25.25,0,0,1-.312,0L.129,9.309A.25.25,0,0,1,.129,9L4,5,.067,1.066a.25.25,0,0,1,0-.312L.691.129A.25.25,0,0,1,1,.129L5,4,8.934.067a.25.25,0,0,1,.312,0l.624.624a.25.25,0,0,1,0,.312L6,5Z" transform="translate(-2 0)" fill="#b2b2b2"/>
            <rect id="Rectangle_8133" data-name="Rectangle 8133" width="10" height="10" transform="translate(-2)" fill="none"/>
          </g>
        </g>
        <text id="Alabama" transform="translate(498 500)" fill="#31313a" font-size="14" font-family="SegoeUI, Segoe UI"><tspan x="0" y="0">Alabama</tspan></text>
      </g>
      <g id="Group_7813" data-name="Group 7813" transform="translate(-247 -365)">
        <rect id="Rectangle_4061-2" data-name="Rectangle 4061" width="84" height="24" rx="2" transform="translate(491 483)" fill="#eaeaea"/>
        <g id="Remove-3" data-name="Remove" transform="translate(566 498)">
          <g id="Remove-4" data-name="Remove" transform="translate(-8 -8)">
            <path id="Path_10244-2" data-name="Path 10244" d="M9.933,8.934a.25.25,0,0,1,0,.312l-.624.624a.25.25,0,0,1-.312,0L5,6,1.066,9.933a.25.25,0,0,1-.312,0L.129,9.309A.25.25,0,0,1,.129,9L4,5,.067,1.066a.25.25,0,0,1,0-.312L.691.129A.25.25,0,0,1,1,.129L5,4,8.934.067a.25.25,0,0,1,.312,0l.624.624a.25.25,0,0,1,0,.312L6,5Z" transform="translate(-2 0)" fill="#b2b2b2"/>
            <rect id="Rectangle_8133-2" data-name="Rectangle 8133" width="10" height="10" transform="translate(-2)" fill="none"/>
          </g>
        </g>
        <text id="Arizona" transform="translate(498 500)" fill="#31313a" font-size="14" font-family="SegoeUI, Segoe UI"><tspan x="0" y="0">Arizona</tspan></text>
      </g>
      <g id="Group_7812" data-name="Group 7812" transform="translate(-344 -336)">
        <rect id="Rectangle_4061-3" data-name="Rectangle 4061" width="98" height="24" rx="2" transform="translate(491 483)" fill="#eaeaea"/>
        <g id="Remove-5" data-name="Remove" transform="translate(580 498)">
          <g id="Remove-6" data-name="Remove" transform="translate(-8 -8)">
            <path id="Path_10244-3" data-name="Path 10244" d="M9.933,8.934a.25.25,0,0,1,0,.312l-.624.624a.25.25,0,0,1-.312,0L5,6,1.066,9.933a.25.25,0,0,1-.312,0L.129,9.309A.25.25,0,0,1,.129,9L4,5,.067,1.066a.25.25,0,0,1,0-.312L.691.129A.25.25,0,0,1,1,.129L5,4,8.934.067a.25.25,0,0,1,.312,0l.624.624a.25.25,0,0,1,0,.312L6,5Z" transform="translate(-2 0)" fill="#b2b2b2"/>
            <rect id="Rectangle_8133-3" data-name="Rectangle 8133" width="10" height="10" transform="translate(-2)" fill="none"/>
          </g>
        </g>
        <text id="California" transform="translate(498 500)" fill="#31313a" font-size="14" font-family="SegoeUI, Segoe UI"><tspan x="0" y="0">California</tspan></text>
      </g>
      <g id="Group_7814" data-name="Group 7814" transform="translate(-241 -336)">
        <rect id="Rectangle_4061-4" data-name="Rectangle 4061" width="113" height="24" rx="2" transform="translate(491 483)" fill="#eaeaea"/>
        <g id="Remove-7" data-name="Remove" transform="translate(595 498)">
          <g id="Remove-8" data-name="Remove" transform="translate(-8 -8)">
            <path id="Path_10244-4" data-name="Path 10244" d="M9.933,8.934a.25.25,0,0,1,0,.312l-.624.624a.25.25,0,0,1-.312,0L5,6,1.066,9.933a.25.25,0,0,1-.312,0L.129,9.309A.25.25,0,0,1,.129,9L4,5,.067,1.066a.25.25,0,0,1,0-.312L.691.129A.25.25,0,0,1,1,.129L5,4,8.934.067a.25.25,0,0,1,.312,0l.624.624a.25.25,0,0,1,0,.312L6,5Z" transform="translate(-2 0)" fill="#b2b2b2"/>
            <rect id="Rectangle_8133-4" data-name="Rectangle 8133" width="10" height="10" transform="translate(-2)" fill="none"/>
          </g>
        </g>
        <text id="Connecticut" transform="translate(498 500)" fill="#31313a" font-size="14" font-family="SegoeUI, Segoe UI"><tspan x="0" y="0">Connecticut</tspan></text>
      </g>
    </g>
  </g>
</svg>
