<svg xmlns="http://www.w3.org/2000/svg" xmlns:xlink="http://www.w3.org/1999/xlink" width="485" height="96" viewBox="0 0 485 96">
  <defs>
    <filter id="Rectangle_9995" x="-503" y="-716" width="858" height="834" filterUnits="userSpaceOnUse">
      <feOffset dy="16" input="SourceAlpha"/>
      <feGaussianBlur stdDeviation="2" result="blur"/>
      <feFlood flood-opacity="0.141"/>
      <feComposite operator="in" in2="blur"/>
      <feComposite in="SourceGraphic"/>
    </filter>
    <clipPath id="clip-multipicker_actions">
      <rect width="485" height="96"/>
    </clipPath>
  </defs>
  <g id="multipicker_actions" clip-path="url(#clip-multipicker_actions)">
    <rect width="485" height="96" fill="#f4f4f6"/>
    <g id="Small_Dialog" data-name="Small Dialog" transform="translate(-1039 -808)">
      <rect id="Rectangle_3864" data-name="Rectangle 3864" width="1920" height="1080" fill="rgba(0,0,0,0.85)"/>
      <g id="Small_Dialog-2" data-name="Small Dialog" transform="translate(542 92)">
        <g transform="matrix(1, 0, 0, 1, 497, 716)" filter="url(#Rectangle_9995)">
          <rect id="Rectangle_9995-2" data-name="Rectangle 9995" width="846" height="812" transform="translate(-497 -716)" fill="#fff"/>
        </g>
        <g id="Dialog_content" data-name="Dialog content" transform="translate(30 -39)">
          <g id="Actions" transform="translate(285.69 490)">
            <g id="Primary_Button" data-name="Primary Button" transform="translate(419.31 295)">
              <rect id="Rectangle_3990" data-name="Rectangle 3990" width="81" height="36" rx="18" fill="#2777d3"/>
              <text id="Confirm" transform="translate(15 23)" fill="#fff" font-size="14" font-family="SegoeUI-Semibold, Segoe UI" font-weight="600"><tspan x="0" y="0">Confirm</tspan></text>
            </g>
            <g id="Link_Button_-_Normal" data-name="Link Button - Normal" transform="translate(337.31 295)">
              <g id="Group_264143" data-name="Group 264143">
                <rect id="Rectangle_6075" data-name="Rectangle 6075" width="72" height="36" rx="18" fill="rgba(255,255,255,0)"/>
                <text id="Cancel" transform="translate(15 22)" fill="#2777d3" font-size="14" font-family="SegoeUI-Semibold, Segoe UI" font-weight="600"><tspan x="0" y="0">Cancel</tspan></text>
              </g>
            </g>
          </g>
          <g id="Group_264401" data-name="Group 264401" transform="translate(170 713)">
            <g id="Group_7421" data-name="Group 7421" transform="translate(0 6)">
              <rect id="Rectangle_3731" data-name="Rectangle 3731" width="168" height="1" transform="translate(76 28)" fill="#999"/>
              <rect id="Rectangle_3749" data-name="Rectangle 3749" width="42" height="1" transform="translate(286 28)" fill="#999"/>
              <text id="_1" data-name="1" transform="translate(51 15)" fill="#2777d3" font-size="14" font-family="OpenSans-Bold, Open Sans" font-weight="700"><tspan x="0" y="0">1</tspan></text>
              <text id="_2" data-name="2" transform="translate(93 15)" fill="#5b5b5b" font-size="14" font-family="OpenSans-Regular, Open Sans"><tspan x="0" y="0">2</tspan></text>
              <text id="_3" data-name="3" transform="translate(135 15)" fill="#5b5b5b" font-size="14" font-family="OpenSans-Regular, Open Sans"><tspan x="0" y="0">3</tspan></text>
              <text id="_4" data-name="4" transform="translate(177 15)" fill="#5b5b5b" font-size="14" font-family="OpenSans-Regular, Open Sans"><tspan x="0" y="0">4</tspan></text>
              <text id="_5" data-name="5" transform="translate(219 15)" fill="#5b5b5b" font-size="14" font-family="OpenSans-Regular, Open Sans"><tspan x="0" y="0">5</tspan></text>
              <text id="_33" data-name="33" transform="translate(299 15)" fill="#5b5b5b" font-size="14" font-family="OpenSans-Regular, Open Sans"><tspan x="0" y="0">33</tspan></text>
              <text id="_..." data-name="..." transform="translate(261 15)" fill="#5b5b5b" font-size="14" font-family="OpenSans-Regular, Open Sans"><tspan x="0" y="0">...</tspan></text>
              <rect id="Rectangle_3732" data-name="Rectangle 3732" width="42" height="3" transform="translate(34 26)" fill="#2777d3"/>
              <g id="Group_7415" data-name="Group 7415">
                <path id="Path_381" data-name="Path 381" d="M269.2,16.2,265,12l4.2-4.2a.967.967,0,0,0,0-1.4h0a.967.967,0,0,0-1.4,0l-4.2,4.2-.7.7a.967.967,0,0,0,0,1.4l.7.7,4.2,4.2a.967.967,0,0,0,1.4,0h0A.965.965,0,0,0,269.2,16.2Z" transform="translate(-254)" fill="#999"/>
                <rect id="Rectangle_173" data-name="Rectangle 173" width="24" height="24" fill="none"/>
              </g>
              <g id="Group_7416" data-name="Group 7416" transform="translate(362 24) rotate(180)">
                <path id="Path_381-2" data-name="Path 381" d="M6.6,10.1,2.4,5.9,6.6,1.7A.967.967,0,0,0,6.6.3h0A.967.967,0,0,0,5.2.3L1,4.5l-.7.7a.967.967,0,0,0,0,1.4l.7.7,4.2,4.2a.967.967,0,0,0,1.4,0h0A.965.965,0,0,0,6.6,10.1Z" transform="translate(8.6 6.1)" fill="#999"/>
                <rect id="Rectangle_173-2" data-name="Rectangle 173" width="24" height="24" fill="none"/>
              </g>
            </g>
            <g id="Rectangle_3752" data-name="Rectangle 3752" transform="translate(380)" fill="#fff" stroke="#dbdbdb" stroke-width="1">
              <rect width="65" height="42" rx="2" stroke="none"/>
              <rect x="0.5" y="0.5" width="64" height="41" rx="1.5" fill="none"/>
            </g>
            <text id="_1-2" data-name="1" transform="translate(394 27)" fill="#3d3d3d" font-size="14" font-family="OpenSans-Regular, Open Sans"><tspan x="0" y="0">1</tspan></text>
          </g>
          <g id="Group_264414" data-name="Group 264414" transform="translate(0 -277)">
            <path id="Path_101171" data-name="Path 101171" d="M224,210h24v24H224Z" transform="translate(268 317)" fill="none"/>
            <rect id="Rectangle_10008" data-name="Rectangle 10008" width="24" height="24" transform="translate(492 527)" fill="none"/>
            <path id="Path_101173" data-name="Path 101173" d="M224,210h24v24H224Z" transform="translate(268 421)" fill="none"/>
            <rect id="Rectangle_10010" data-name="Rectangle 10010" width="24" height="24" transform="translate(492 631)" fill="none"/>
            <path id="Path_101175" data-name="Path 101175" d="M224,210h24v24H224Z" transform="translate(268 525)" fill="none"/>
            <rect id="Rectangle_10012" data-name="Rectangle 10012" width="24" height="24" transform="translate(492 735)" fill="none"/>
            <path id="Path_101177" data-name="Path 101177" d="M224,210h24v24H224Z" transform="translate(268 577)" fill="none"/>
            <rect id="Rectangle_10014" data-name="Rectangle 10014" width="24" height="24" transform="translate(492 787)" fill="none"/>
            <path id="Path_101179" data-name="Path 101179" d="M224,210h24v24H224Z" transform="translate(268 629)" fill="none"/>
            <rect id="Rectangle_10016" data-name="Rectangle 10016" width="24" height="24" transform="translate(492 839)" fill="none"/>
            <g id="Group_267184" data-name="Group 267184" transform="translate(-1 85)">
              <g id="Group_264400" data-name="Group 264400" transform="translate(1 397)">
                <g id="Rectangle_3779" data-name="Rectangle 3779" fill="#fff" stroke="#dbdbdb" stroke-width="1">
                  <rect width="529" height="42" rx="2" stroke="none"/>
                  <rect x="0.5" y="0.5" width="528" height="41" rx="1.5" fill="none"/>
                </g>
                <text id="Search" transform="translate(14 27)" fill="#c6c6c6" font-size="14" font-family="OpenSans-Regular, Open Sans"><tspan x="0" y="0">Search</tspan></text>
                <path id="Rectangle_3780" data-name="Rectangle 3780" d="M0,0H41a1,1,0,0,1,1,1V39a1,1,0,0,1-1,1H0a0,0,0,0,1,0,0V0A0,0,0,0,1,0,0Z" transform="translate(486 1)" fill="#fafafa"/>
                <rect id="Rectangle_3781" data-name="Rectangle 3781" width="1" height="40" transform="translate(486 1)" fill="#ebebeb"/>
                <g id="Group_7480" data-name="Group 7480" transform="translate(496 9)">
                  <path id="Path_520" data-name="Path 520" d="M303.8,258.3l-5-5a6.354,6.354,0,0,0,1.1-4.9,6.471,6.471,0,0,0-5.6-5.3,6.53,6.53,0,0,0-2,12.9,6.914,6.914,0,0,0,4.9-1.1l5,5a1.088,1.088,0,0,0,1.5,0A1.222,1.222,0,0,0,303.8,258.3Zm-14.7-9.5a4.458,4.458,0,0,1,3.7-3.7,4.57,4.57,0,0,1,5.2,5.2,4.458,4.458,0,0,1-3.7,3.7A4.609,4.609,0,0,1,289.1,248.8Z" transform="translate(-284 -240)" fill="#5786bd"/>
                  <path id="Path_519" data-name="Path 519" d="M284.1,240h24v24h-24Z" transform="translate(-284 -240)" fill="none"/>
                  <rect id="Rectangle_304" data-name="Rectangle 304" width="24" height="24" fill="none"/>
                </g>
              </g>
              <line id="Line_18" data-name="Line 18" x2="785" transform="translate(1 488)" fill="none" stroke="#dbdbdb" stroke-miterlimit="10" stroke-width="1"/>
              <g id="Group_264402" data-name="Group 264402" transform="translate(11 459)">
                <text id="Select_all" data-name="Select all" transform="translate(20 15)" fill="#5786bd" font-size="14" font-family="OpenSans-Semibold, Open Sans" font-weight="600"><tspan x="-29.866" y="0">Select all</tspan></text>
              </g>
              <line id="Line_22" data-name="Line 22" x2="785" transform="translate(1 875)" fill="none" stroke="#dbdbdb" stroke-miterlimit="10" stroke-width="1"/>
              <g id="Checkbox" transform="translate(1 507)">
                <g id="Checked" transform="translate(0)">
                  <path id="Path_5845" data-name="Path 5845" d="M46.2,0h-18a2.971,2.971,0,0,0-3,3V21a2.971,2.971,0,0,0,3,3h18a2.971,2.971,0,0,0,3-3V3A2.971,2.971,0,0,0,46.2,0ZM44.64,8.52l-8.76,8.76a1.16,1.16,0,0,1-1.68,0l-4.32-4.32a1.188,1.188,0,0,1,1.68-1.68l3.48,3.48,7.92-7.92a1.16,1.16,0,0,1,1.68,0A1.442,1.442,0,0,1,44.64,8.52Z" transform="translate(-25.2)" fill="#2777d3"/>
                </g>
                <text id="ACA_Reporting" data-name="ACA Reporting" transform="translate(30 18)" fill="#1a1a1e" stroke="rgba(0,0,0,0)" stroke-width="1" font-size="14" font-family="SegoeUI, Segoe UI"><tspan x="0" y="0">ACA Reporting</tspan></text>
              </g>
              <g id="Checkbox-2" data-name="Checkbox" transform="translate(1 543)">
                <g id="Checked-2" data-name="Checked" transform="translate(0)">
                  <path id="Path_5845-2" data-name="Path 5845" d="M46.2,0h-18a2.971,2.971,0,0,0-3,3V21a2.971,2.971,0,0,0,3,3h18a2.971,2.971,0,0,0,3-3V3A2.971,2.971,0,0,0,46.2,0ZM44.64,8.52l-8.76,8.76a1.16,1.16,0,0,1-1.68,0l-4.32-4.32a1.188,1.188,0,0,1,1.68-1.68l3.48,3.48,7.92-7.92a1.16,1.16,0,0,1,1.68,0A1.442,1.442,0,0,1,44.64,8.52Z" transform="translate(-25.2)" fill="#2777d3"/>
                </g>
                <text id="Client_Portal" data-name="Client Portal" transform="translate(30 18)" fill="#1a1a1e" stroke="rgba(0,0,0,0)" stroke-width="1" font-size="14" font-family="SegoeUI, Segoe UI"><tspan x="0" y="0">Client Portal</tspan></text>
              </g>
              <g id="Checkbox-3" data-name="Checkbox" transform="translate(1 579)">
                <g id="Checked-3" data-name="Checked" transform="translate(0)">
                  <path id="Path_5845-3" data-name="Path 5845" d="M46.2,0h-18a2.971,2.971,0,0,0-3,3V21a2.971,2.971,0,0,0,3,3h18a2.971,2.971,0,0,0,3-3V3A2.971,2.971,0,0,0,46.2,0ZM44.64,8.52l-8.76,8.76a1.16,1.16,0,0,1-1.68,0l-4.32-4.32a1.188,1.188,0,0,1,1.68-1.68l3.48,3.48,7.92-7.92a1.16,1.16,0,0,1,1.68,0A1.442,1.442,0,0,1,44.64,8.52Z" transform="translate(-25.2)" fill="#2777d3"/>
                </g>
                <text id="Cobra_Notices_Generator" data-name="Cobra Notices Generator" transform="translate(30 18)" fill="#1a1a1e" stroke="rgba(0,0,0,0)" stroke-width="1" font-size="14" font-family="SegoeUI, Segoe UI"><tspan x="0" y="0">Cobra Notices Generator</tspan></text>
              </g>
              <g id="Checkbox-4" data-name="Checkbox" transform="translate(1 616)">
                <text id="Compliance_Notice_Builder" data-name="Compliance Notice Builder" transform="translate(30 17)" fill="#1a1a1e" stroke="rgba(0,0,0,0)" stroke-width="1" font-size="14" font-family="SegoeUI, Segoe UI"><tspan x="0" y="0">Compliance Notice Builder</tspan></text>
                <g id="Unchecked">
                  <path id="Unchecked-2" data-name="Unchecked" d="M21,2.4a.567.567,0,0,1,.6.6V21a.567.567,0,0,1-.6.6H3a.567.567,0,0,1-.6-.6V3A.567.567,0,0,1,3,2.4H21M21,0H3A2.971,2.971,0,0,0,0,3V21a2.971,2.971,0,0,0,3,3H21a2.971,2.971,0,0,0,3-3V3a2.971,2.971,0,0,0-3-3Z" fill="#9494a4"/>
                </g>
              </g>
              <g id="Checkbox-5" data-name="Checkbox" transform="translate(1 652)">
                <text id="Custom_Job_Description_Builder" data-name="Custom Job Description Builder" transform="translate(30 17)" fill="#1a1a1e" stroke="rgba(0,0,0,0)" stroke-width="1" font-size="14" font-family="SegoeUI, Segoe UI"><tspan x="0" y="0">Custom Job Description Builder</tspan></text>
                <g id="Unchecked-3" data-name="Unchecked">
                  <path id="Unchecked-4" data-name="Unchecked" d="M21,2.4a.567.567,0,0,1,.6.6V21a.567.567,0,0,1-.6.6H3a.567.567,0,0,1-.6-.6V3A.567.567,0,0,1,3,2.4H21M21,0H3A2.971,2.971,0,0,0,0,3V21a2.971,2.971,0,0,0,3,3H21a2.971,2.971,0,0,0,3-3V3a2.971,2.971,0,0,0-3-3Z" fill="#9494a4"/>
                </g>
              </g>
              <g id="Checkbox-6" data-name="Checkbox" transform="translate(1 688)">
                <text id="Employee_Cost_Calculator" data-name="Employee Cost Calculator" transform="translate(30 17)" fill="#1a1a1e" stroke="rgba(0,0,0,0)" stroke-width="1" font-size="14" font-family="SegoeUI, Segoe UI"><tspan x="0" y="0">Employee Cost Calculator</tspan></text>
                <g id="Unchecked-5" data-name="Unchecked">
                  <path id="Unchecked-6" data-name="Unchecked" d="M21,2.4a.567.567,0,0,1,.6.6V21a.567.567,0,0,1-.6.6H3a.567.567,0,0,1-.6-.6V3A.567.567,0,0,1,3,2.4H21M21,0H3A2.971,2.971,0,0,0,0,3V21a2.971,2.971,0,0,0,3,3H21a2.971,2.971,0,0,0,3-3V3a2.971,2.971,0,0,0-3-3Z" fill="#9494a4"/>
                </g>
              </g>
              <g id="Checkbox-7" data-name="Checkbox" transform="translate(1 724)">
                <text id="Employee_Handbook_Builder" data-name="Employee Handbook Builder" transform="translate(30 17)" fill="#1a1a1e" stroke="rgba(0,0,0,0)" stroke-width="1" font-size="14" font-family="SegoeUI, Segoe UI"><tspan x="0" y="0">Employee Handbook Builder</tspan></text>
                <g id="Unchecked-7" data-name="Unchecked">
                  <path id="Unchecked-8" data-name="Unchecked" d="M21,2.4a.567.567,0,0,1,.6.6V21a.567.567,0,0,1-.6.6H3a.567.567,0,0,1-.6-.6V3A.567.567,0,0,1,3,2.4H21M21,0H3A2.971,2.971,0,0,0,0,3V21a2.971,2.971,0,0,0,3,3H21a2.971,2.971,0,0,0,3-3V3a2.971,2.971,0,0,0-3-3Z" fill="#9494a4"/>
                </g>
              </g>
              <g id="Checkbox-8" data-name="Checkbox" transform="translate(1 760)">
                <text id="Federal_Poster_Advisor" data-name="Federal Poster Advisor" transform="translate(30 17)" fill="#1a1a1e" stroke="rgba(0,0,0,0)" stroke-width="1" font-size="14" font-family="SegoeUI, Segoe UI"><tspan x="0" y="0">Federal Poster Advisor</tspan></text>
                <g id="Unchecked-9" data-name="Unchecked">
                  <path id="Unchecked-10" data-name="Unchecked" d="M21,2.4a.567.567,0,0,1,.6.6V21a.567.567,0,0,1-.6.6H3a.567.567,0,0,1-.6-.6V3A.567.567,0,0,1,3,2.4H21M21,0H3A2.971,2.971,0,0,0,0,3V21a2.971,2.971,0,0,0,3,3H21a2.971,2.971,0,0,0,3-3V3a2.971,2.971,0,0,0-3-3Z" fill="#9494a4"/>
                </g>
              </g>
              <g id="Checkbox-9" data-name="Checkbox" transform="translate(1 795)">
                <text id="FMLA_Advisor" data-name="FMLA Advisor" transform="translate(30 17)" fill="#1a1a1e" stroke="rgba(0,0,0,0)" stroke-width="1" font-size="14" font-family="SegoeUI, Segoe UI"><tspan x="0" y="0">FMLA Advisor</tspan></text>
                <g id="Unchecked-11" data-name="Unchecked">
                  <path id="Unchecked-12" data-name="Unchecked" d="M21,2.4a.567.567,0,0,1,.6.6V21a.567.567,0,0,1-.6.6H3a.567.567,0,0,1-.6-.6V3A.567.567,0,0,1,3,2.4H21M21,0H3A2.971,2.971,0,0,0,0,3V21a2.971,2.971,0,0,0,3,3H21a2.971,2.971,0,0,0,3-3V3a2.971,2.971,0,0,0-3-3Z" fill="#9494a4"/>
                </g>
              </g>
              <g id="Checkbox-10" data-name="Checkbox" transform="translate(1 831)">
                <text id="Health_Plan_Compliance_Calendar" data-name="Health Plan Compliance Calendar" transform="translate(30 17)" fill="#1a1a1e" stroke="rgba(0,0,0,0)" stroke-width="1" font-size="14" font-family="SegoeUI, Segoe UI"><tspan x="0" y="0">Health Plan Compliance Calendar</tspan></text>
                <g id="Unchecked-13" data-name="Unchecked">
                  <path id="Unchecked-14" data-name="Unchecked" d="M21,2.4a.567.567,0,0,1,.6.6V21a.567.567,0,0,1-.6.6H3a.567.567,0,0,1-.6-.6V3A.567.567,0,0,1,3,2.4H21M21,0H3A2.971,2.971,0,0,0,0,3V21a2.971,2.971,0,0,0,3,3H21a2.971,2.971,0,0,0,3-3V3a2.971,2.971,0,0,0-3-3Z" fill="#9494a4"/>
                </g>
              </g>
              <g id="Checkbox-11" data-name="Checkbox" transform="translate(394 507)">
                <text id="HR_Hotline" data-name="HR Hotline" transform="translate(30 17)" fill="#1a1a1e" stroke="rgba(0,0,0,0)" stroke-width="1" font-size="14" font-family="SegoeUI, Segoe UI"><tspan x="0" y="0">HR Hotline</tspan></text>
                <g id="Unchecked-15" data-name="Unchecked">
                  <path id="Unchecked-16" data-name="Unchecked" d="M21,2.4a.567.567,0,0,1,.6.6V21a.567.567,0,0,1-.6.6H3a.567.567,0,0,1-.6-.6V3A.567.567,0,0,1,3,2.4H21M21,0H3A2.971,2.971,0,0,0,0,3V21a2.971,2.971,0,0,0,3,3H21a2.971,2.971,0,0,0,3-3V3a2.971,2.971,0,0,0-3-3Z" fill="#9494a4"/>
                </g>
              </g>
              <g id="Checkbox-12" data-name="Checkbox" transform="translate(394 543)">
                <text id="HR_Self-Assessment_Tool" data-name="HR Self-Assessment Tool" transform="translate(30 17)" fill="#1a1a1e" stroke="rgba(0,0,0,0)" stroke-width="1" font-size="14" font-family="SegoeUI, Segoe UI"><tspan x="0" y="0">HR Self-Assessment Tool</tspan></text>
                <g id="Unchecked-17" data-name="Unchecked">
                  <path id="Unchecked-18" data-name="Unchecked" d="M21,2.4a.567.567,0,0,1,.6.6V21a.567.567,0,0,1-.6.6H3a.567.567,0,0,1-.6-.6V3A.567.567,0,0,1,3,2.4H21M21,0H3A2.971,2.971,0,0,0,0,3V21a2.971,2.971,0,0,0,3,3H21a2.971,2.971,0,0,0,3-3V3a2.971,2.971,0,0,0-3-3Z" fill="#9494a4"/>
                </g>
              </g>
              <g id="Checkbox-13" data-name="Checkbox" transform="translate(394 579)">
                <text id="In-person_Interview_Question_Builder" data-name="In-person Interview Question Builder" transform="translate(30 17)" fill="#1a1a1e" stroke="rgba(0,0,0,0)" stroke-width="1" font-size="14" font-family="SegoeUI, Segoe UI"><tspan x="0" y="0">In-person Interview Question Builder</tspan></text>
                <g id="Unchecked-19" data-name="Unchecked">
                  <path id="Unchecked-20" data-name="Unchecked" d="M21,2.4a.567.567,0,0,1,.6.6V21a.567.567,0,0,1-.6.6H3a.567.567,0,0,1-.6-.6V3A.567.567,0,0,1,3,2.4H21M21,0H3A2.971,2.971,0,0,0,0,3V21a2.971,2.971,0,0,0,3,3H21a2.971,2.971,0,0,0,3-3V3a2.971,2.971,0,0,0-3-3Z" fill="#9494a4"/>
                </g>
              </g>
              <g id="Checkbox-14" data-name="Checkbox" transform="translate(394 615)">
                <text id="Multi-State_Laws_Comparison_Tool" data-name="Multi-State Laws Comparison Tool" transform="translate(30 17)" fill="#1a1a1e" stroke="rgba(0,0,0,0)" stroke-width="1" font-size="14" font-family="SegoeUI, Segoe UI"><tspan x="0" y="0">Multi-State Laws Comparison Tool</tspan></text>
                <g id="Unchecked-21" data-name="Unchecked">
                  <path id="Unchecked-22" data-name="Unchecked" d="M21,2.4a.567.567,0,0,1,.6.6V21a.567.567,0,0,1-.6.6H3a.567.567,0,0,1-.6-.6V3A.567.567,0,0,1,3,2.4H21M21,0H3A2.971,2.971,0,0,0,0,3V21a2.971,2.971,0,0,0,3,3H21a2.971,2.971,0,0,0,3-3V3a2.971,2.971,0,0,0-3-3Z" fill="#9494a4"/>
                </g>
              </g>
              <g id="Checkbox-15" data-name="Checkbox" transform="translate(394 651)">
                <text id="OSHA_Reporting" data-name="OSHA Reporting" transform="translate(30 17)" fill="#1a1a1e" stroke="rgba(0,0,0,0)" stroke-width="1" font-size="14" font-family="SegoeUI, Segoe UI"><tspan x="0" y="0">OSHA Reporting</tspan></text>
                <g id="Unchecked-23" data-name="Unchecked">
                  <path id="Unchecked-24" data-name="Unchecked" d="M21,2.4a.567.567,0,0,1,.6.6V21a.567.567,0,0,1-.6.6H3a.567.567,0,0,1-.6-.6V3A.567.567,0,0,1,3,2.4H21M21,0H3A2.971,2.971,0,0,0,0,3V21a2.971,2.971,0,0,0,3,3H21a2.971,2.971,0,0,0,3-3V3a2.971,2.971,0,0,0-3-3Z" fill="#9494a4"/>
                </g>
              </g>
              <g id="Checkbox-16" data-name="Checkbox" transform="translate(394 687)">
                <text id="Performance_Review_Builder" data-name="Performance Review Builder" transform="translate(30 17)" fill="#1a1a1e" stroke="rgba(0,0,0,0)" stroke-width="1" font-size="14" font-family="SegoeUI, Segoe UI"><tspan x="0" y="0">Performance Review Builder</tspan></text>
                <g id="Unchecked-25" data-name="Unchecked">
                  <path id="Unchecked-26" data-name="Unchecked" d="M21,2.4a.567.567,0,0,1,.6.6V21a.567.567,0,0,1-.6.6H3a.567.567,0,0,1-.6-.6V3A.567.567,0,0,1,3,2.4H21M21,0H3A2.971,2.971,0,0,0,0,3V21a2.971,2.971,0,0,0,3,3H21a2.971,2.971,0,0,0,3-3V3a2.971,2.971,0,0,0-3-3Z" fill="#9494a4"/>
                </g>
              </g>
              <g id="Checkbox-17" data-name="Checkbox" transform="translate(394 723)">
                <text id="Phone_Interview_Question_Builder" data-name="Phone Interview Question Builder" transform="translate(30 17)" fill="#1a1a1e" stroke="rgba(0,0,0,0)" stroke-width="1" font-size="14" font-family="SegoeUI, Segoe UI"><tspan x="0" y="0">Phone Interview Question Builder</tspan></text>
                <g id="Unchecked-27" data-name="Unchecked">
                  <path id="Unchecked-28" data-name="Unchecked" d="M21,2.4a.567.567,0,0,1,.6.6V21a.567.567,0,0,1-.6.6H3a.567.567,0,0,1-.6-.6V3A.567.567,0,0,1,3,2.4H21M21,0H3A2.971,2.971,0,0,0,0,3V21a2.971,2.971,0,0,0,3,3H21a2.971,2.971,0,0,0,3-3V3a2.971,2.971,0,0,0-3-3Z" fill="#9494a4"/>
                </g>
              </g>
              <g id="Checkbox-18" data-name="Checkbox" transform="translate(394 759)">
                <text id="Salary_Benchmarking" data-name="Salary Benchmarking" transform="translate(30 17)" fill="#1a1a1e" stroke="rgba(0,0,0,0)" stroke-width="1" font-size="14" font-family="SegoeUI, Segoe UI"><tspan x="0" y="0">Salary Benchmarking</tspan></text>
                <g id="Unchecked-29" data-name="Unchecked">
                  <path id="Unchecked-30" data-name="Unchecked" d="M21,2.4a.567.567,0,0,1,.6.6V21a.567.567,0,0,1-.6.6H3a.567.567,0,0,1-.6-.6V3A.567.567,0,0,1,3,2.4H21M21,0H3A2.971,2.971,0,0,0,0,3V21a2.971,2.971,0,0,0,3,3H21a2.971,2.971,0,0,0,3-3V3a2.971,2.971,0,0,0-3-3Z" fill="#9494a4"/>
                </g>
              </g>
              <g id="Checkbox-19" data-name="Checkbox" transform="translate(394 795)">
                <text id="Sample_Job_Descriptions" data-name="Sample Job Descriptions" transform="translate(30 17)" fill="#1a1a1e" stroke="rgba(0,0,0,0)" stroke-width="1" font-size="14" font-family="SegoeUI, Segoe UI"><tspan x="0" y="0">Sample Job Descriptions</tspan></text>
                <g id="Unchecked-31" data-name="Unchecked">
                  <path id="Unchecked-32" data-name="Unchecked" d="M21,2.4a.567.567,0,0,1,.6.6V21a.567.567,0,0,1-.6.6H3a.567.567,0,0,1-.6-.6V3A.567.567,0,0,1,3,2.4H21M21,0H3A2.971,2.971,0,0,0,0,3V21a2.971,2.971,0,0,0,3,3H21a2.971,2.971,0,0,0,3-3V3a2.971,2.971,0,0,0-3-3Z" fill="#9494a4"/>
                </g>
              </g>
              <g id="Checkbox-20" data-name="Checkbox" transform="translate(394 831)">
                <text id="Total_Compensation_Statement_Builder" data-name="Total Compensation Statement Builder" transform="translate(30 17)" fill="#1a1a1e" stroke="rgba(0,0,0,0)" stroke-width="1" font-size="14" font-family="SegoeUI, Segoe UI"><tspan x="0" y="0">Total Compensation Statement Builder</tspan></text>
                <g id="Unchecked-33" data-name="Unchecked">
                  <path id="Unchecked-34" data-name="Unchecked" d="M21,2.4a.567.567,0,0,1,.6.6V21a.567.567,0,0,1-.6.6H3a.567.567,0,0,1-.6-.6V3A.567.567,0,0,1,3,2.4H21M21,0H3A2.971,2.971,0,0,0,0,3V21a2.971,2.971,0,0,0,3,3H21a2.971,2.971,0,0,0,3-3V3a2.971,2.971,0,0,0-3-3Z" fill="#9494a4"/>
                </g>
              </g>
            </g>
            <g id="Text_Area" data-name="Text Area" transform="translate(0 399)">
              <text id="Selections:_3" data-name="Selections: 3" transform="translate(0 15)" fill="#31313a" font-size="16" font-family="SegoeUI-Semibold, Segoe UI" font-weight="600"><tspan x="0" y="0">Selections: 3</tspan></text>
              <g id="Group_267183" data-name="Group 267183" transform="translate(117.757 -1)">
                <text id="Remove_all" data-name="Remove all" transform="translate(27.243 15)" fill="#5786bd" font-size="14" font-family="OpenSans-Semibold, Open Sans" font-weight="600"><tspan x="-37.037" y="0">Remove all</tspan></text>
              </g>
              <g id="Group_14913" data-name="Group 14913" transform="translate(0 29)">
                <rect id="Rectangle_8132" data-name="Rectangle 8132" width="128" height="24" rx="2" fill="#eaeaea"/>
                <g id="Remove" transform="translate(108.408 7)">
                  <g id="Remove-2" data-name="Remove">
                    <path id="Path_10244" data-name="Path 10244" d="M9.933,8.934a.25.25,0,0,1,0,.312l-.624.624a.25.25,0,0,1-.312,0L5,6,1.066,9.933a.25.25,0,0,1-.312,0L.129,9.309A.25.25,0,0,1,.129,9L4,5,.067,1.066a.25.25,0,0,1,0-.312L.691.129A.25.25,0,0,1,1,.129L5,4,8.934.067a.25.25,0,0,1,.312,0l.624.624a.25.25,0,0,1,0,.312L6,5Z" transform="translate(-0.012 0)" fill="#b2b2b2"/>
                    <rect id="Rectangle_8133" data-name="Rectangle 8133" width="10" height="10" transform="translate(0.241)" fill="none"/>
                  </g>
                </g>
                <text id="ACA_Reporting-2" data-name="ACA Reporting" transform="translate(7 17)" fill="#31313a" font-size="14" font-family="SegoeUI, Segoe UI"><tspan x="0" y="0">ACA Reporting</tspan></text>
              </g>
              <g id="Group_267208" data-name="Group 267208" transform="translate(133 29)">
                <rect id="Rectangle_8132-2" data-name="Rectangle 8132" width="113" height="24" rx="2" fill="#eaeaea"/>
                <g id="Remove-3" data-name="Remove" transform="translate(92.149 7)">
                  <g id="Remove-4" data-name="Remove">
                    <path id="Path_10244-2" data-name="Path 10244" d="M9.933,8.934a.25.25,0,0,1,0,.312l-.624.624a.25.25,0,0,1-.312,0L5,6,1.066,9.933a.25.25,0,0,1-.312,0L.129,9.309A.25.25,0,0,1,.129,9L4,5,.067,1.066a.25.25,0,0,1,0-.312L.691.129A.25.25,0,0,1,1,.129L5,4,8.934.067a.25.25,0,0,1,.312,0l.624.624a.25.25,0,0,1,0,.312L6,5Z" transform="translate(-0.012 0)" fill="#b2b2b2"/>
                    <rect id="Rectangle_8133-2" data-name="Rectangle 8133" width="10" height="10" transform="translate(0.241)" fill="none"/>
                  </g>
                </g>
                <text id="Client_Portal-2" data-name="Client Portal" transform="translate(7 17)" fill="#31313a" font-size="14" font-family="SegoeUI, Segoe UI"><tspan x="0" y="0">Client Portal</tspan></text>
              </g>
              <g id="Group_267212" data-name="Group 267212" transform="translate(251 29)">
                <rect id="Rectangle_8132-3" data-name="Rectangle 8132" width="191" height="24" rx="2" fill="#eaeaea"/>
                <g id="Remove-5" data-name="Remove" transform="translate(170.571 7)">
                  <g id="Remove-6" data-name="Remove">
                    <path id="Path_10244-3" data-name="Path 10244" d="M9.933,8.934a.25.25,0,0,1,0,.312l-.624.624a.25.25,0,0,1-.312,0L5,6,1.066,9.933a.25.25,0,0,1-.312,0L.129,9.309A.25.25,0,0,1,.129,9L4,5,.067,1.066a.25.25,0,0,1,0-.312L.691.129A.25.25,0,0,1,1,.129L5,4,8.934.067a.25.25,0,0,1,.312,0l.624.624a.25.25,0,0,1,0,.312L6,5Z" transform="translate(-0.012 0)" fill="#b2b2b2"/>
                    <rect id="Rectangle_8133-3" data-name="Rectangle 8133" width="10" height="10" transform="translate(0.241)" fill="none"/>
                  </g>
                </g>
                <text id="Cobra_Notices_Generator-2" data-name="Cobra Notices Generator" transform="translate(7 17)" fill="#31313a" font-size="14" font-family="SegoeUI, Segoe UI"><tspan x="0" y="0">Cobra Notices Generator</tspan></text>
              </g>
            </g>
          </g>
          <text id="Filter_by_applications" data-name="Filter by applications" transform="translate(0 97)" fill="#3d3d3d" font-size="26" font-family="SegoeUI-Semibold, Segoe UI" font-weight="600"><tspan x="0" y="0">Filter by applications</tspan></text>
        </g>
      </g>
    </g>
  </g>
</svg>
