<svg xmlns="http://www.w3.org/2000/svg" xmlns:xlink="http://www.w3.org/1999/xlink" width="485" height="145" viewBox="0 0 485 145">
  <defs>
    <clipPath id="clip-multiselect_bestpractices_do_3">
      <rect width="485" height="145"/>
    </clipPath>
  </defs>
  <g id="multiselect_bestpractices_do_3" data-name="multiselect_bestpractices – do – 3" clip-path="url(#clip-multiselect_bestpractices_do_3)">
    <rect width="485" height="145" fill="#f4f4f6"/>
    <text id="This_field_is_required." data-name="This field is required." transform="translate(93 112)" fill="#d93911" font-size="12" font-family="SegoeUI, Segoe UI"><tspan x="0" y="0">This field is required.</tspan></text>
    <g id="Dropdown_input_-_top_label" data-name="Dropdown input - top label" transform="translate(93 30)">
      <g id="Group_14579" data-name="Group 14579">
        <g id="Rectangle_288" data-name="Rectangle 288" transform="translate(0 23)" fill="#fff" stroke="#cbcbd2" stroke-width="1">
          <rect width="300" height="42" rx="4" stroke="none"/>
          <rect x="0.5" y="0.5" width="299" height="41" rx="3.5" fill="none"/>
        </g>
        <text id="Select" transform="translate(15 50)" fill="#cbcbd2" font-size="14" font-family="SegoeUI, Segoe UI"><tspan x="0" y="0">Select</tspan></text>
        <g id="Group_7793" data-name="Group 7793" transform="translate(-550 -1675)">
          <rect id="Rectangle_3867" data-name="Rectangle 3867" width="24" height="24" transform="translate(816 1707)" fill="none"/>
          <path id="Path_5558" data-name="Path 5558" d="M56,9.4l-3,3-3-3a.967.967,0,0,0-1.4,0h0a.967.967,0,0,0,0,1.4l3.7,3.7a.967.967,0,0,0,1.4,0l3.7-3.7a.967.967,0,0,0,0-1.4h0A.965.965,0,0,0,56,9.4Z" transform="translate(775 1707)" fill="#9494a4"/>
        </g>
      </g>
      <text id="State_s_" data-name="State(s) *" transform="translate(0 15)" fill="#31313a" font-size="14" font-family="SegoeUI-Semibold, Segoe UI" font-weight="600"><tspan x="0" y="0">State(s) </tspan><tspan y="0" fill="#d93911">*</tspan></text>
    </g>
  </g>
</svg>
