<svg xmlns="http://www.w3.org/2000/svg" xmlns:xlink="http://www.w3.org/1999/xlink" width="1000" height="457" viewBox="0 0 1000 457">
  <defs>
    <filter id="Rectangle_4576" x="298" y="123" width="418" height="316" filterUnits="userSpaceOnUse">
      <feOffset dy="3" input="SourceAlpha"/>
      <feGaussianBlur stdDeviation="3" result="blur"/>
      <feFlood flood-opacity="0.161"/>
      <feComposite operator="in" in2="blur"/>
      <feComposite in="SourceGraphic"/>
    </filter>
    <clipPath id="clip-path">
      <rect width="24" height="24" fill="none"/>
    </clipPath>
    <clipPath id="clip-multi_select_anatomy">
      <rect width="1000" height="457"/>
    </clipPath>
  </defs>
  <g id="multi_select_anatomy" clip-path="url(#clip-multi_select_anatomy)">
    <rect width="1000" height="457" fill="#f4f4f6"/>
    <g id="Group_15383" data-name="Group 15383" transform="translate(132 -4)">
      <g transform="matrix(1, 0, 0, 1, -132, 4)" filter="url(#Rectangle_4576)">
        <rect id="Rectangle_4576-2" data-name="Rectangle 4576" width="400" height="298" rx="4" transform="translate(307 129)" fill="#fff"/>
      </g>
      <text id="Florida" transform="translate(220 414)" fill="#494955" font-size="14" font-family="SegoeUI, Segoe UI"><tspan x="0" y="0">Florida</tspan></text>
      <rect id="Rectangle_4574" data-name="Rectangle 4574" width="400" height="42" rx="4" transform="translate(175 91)" fill="#fff"/>
      <path id="Rectangle_4574_-_Outline" data-name="Rectangle 4574 - Outline" d="M4,2A2,2,0,0,0,2,4V38a2,2,0,0,0,2,2H396a2,2,0,0,0,2-2V4a2,2,0,0,0-2-2H4M4,0H396a4,4,0,0,1,4,4V38a4,4,0,0,1-4,4H4a4,4,0,0,1-4-4V4A4,4,0,0,1,4,0Z" transform="translate(175 91)" fill="#4e92df"/>
      <path id="Path_10246" data-name="Path 10246" d="M42.7,0h-15a2.476,2.476,0,0,0-2.5,2.5v15A2.476,2.476,0,0,0,27.7,20h15a2.476,2.476,0,0,0,2.5-2.5V2.5A2.476,2.476,0,0,0,42.7,0ZM41.4,7.1l-7.3,7.3a.967.967,0,0,1-1.4,0l-3.6-3.6a.99.99,0,0,1,1.4-1.4l2.9,2.9L40,5.7a.967.967,0,0,1,1.4,0A1.2,1.2,0,0,1,41.4,7.1Z" transform="translate(161.8 182)" fill="#2777d3"/>
      <path id="Line_15" data-name="Line 15" d="M.5,19h-1V0h1Z" transform="translate(286.3 103)" fill="#494955"/>
      <g id="Group_14781" data-name="Group 14781" transform="translate(-3076 -248)">
        <rect id="Rectangle_8132" data-name="Rectangle 8132" width="91" height="24" rx="2" transform="translate(3266 348)" fill="#eaeaea"/>
        <g id="Remove" transform="translate(3347 363)">
          <g id="Remove-2" data-name="Remove" transform="translate(-8 -8)">
            <path id="Path_10244" data-name="Path 10244" d="M9.933,8.934a.25.25,0,0,1,0,.312l-.624.624a.25.25,0,0,1-.312,0L5,6,1.066,9.933a.25.25,0,0,1-.312,0L.129,9.309A.25.25,0,0,1,.129,9L4,5,.067,1.066a.25.25,0,0,1,0-.312L.691.129A.25.25,0,0,1,1,.129L5,4,8.934.067a.25.25,0,0,1,.312,0l.624.624a.25.25,0,0,1,0,.312L6,5Z" transform="translate(-2 0)" fill="#b2b2b2"/>
            <rect id="Rectangle_8133" data-name="Rectangle 8133" width="10" height="10" transform="translate(-2)" fill="none"/>
          </g>
        </g>
        <text id="Alabama" transform="translate(3273 365)" fill="#31313a" font-size="14" font-family="SegoeUI, Segoe UI"><tspan x="0" y="0">Alabama</tspan></text>
      </g>
      <text id="State" transform="translate(175 82)" fill="#31313a" font-size="14" font-family="SegoeUI-Semibold, Segoe UI" font-weight="600"><tspan x="0" y="0">State</tspan></text>
      <g id="Group_3" data-name="Group 3" transform="translate(-275 -1607)">
        <path id="Rectangle_3867" data-name="Rectangle 3867" d="M-.5-.5h25v25H-.5Zm24,1H.5v23h23Z" transform="translate(816 1707)" fill="#17987c"/>
        <path id="Path_5558" data-name="Path 5558" d="M56,9.4l-3,3-3-3a.967.967,0,0,0-1.4,0h0a.967.967,0,0,0,0,1.4l3.7,3.7a.967.967,0,0,0,1.4,0l3.7-3.7a.967.967,0,0,0,0-1.4h0A.965.965,0,0,0,56,9.4Z" transform="translate(881 1730.9) rotate(180)" fill="#9494a4"/>
      </g>
      <rect id="Rectangle_4580" data-name="Rectangle 4580" width="400" height="36" transform="translate(175 174)" fill="none"/>
      <rect id="Rectangle_4582" data-name="Rectangle 4582" width="400" height="36" transform="translate(175 246)" fill="none"/>
      <path id="Path_6475" data-name="Path 6475" d="M0,0H400V36H0Z" transform="translate(175 318)" fill="none"/>
      <rect id="Rectangle_4586" data-name="Rectangle 4586" width="400" height="36" transform="translate(175 390)" fill="none"/>
      <rect id="Rectangle_4579" data-name="Rectangle 4579" width="400" height="36" transform="translate(175 138)" fill="none"/>
      <rect id="Rectangle_4581" data-name="Rectangle 4581" width="400" height="36" transform="translate(175 210)" fill="none"/>
      <path id="Path_6474" data-name="Path 6474" d="M0,0H400V36H0Z" transform="translate(175 282)" fill="none"/>
      <rect id="Rectangle_4585" data-name="Rectangle 4585" width="400" height="36" transform="translate(175 354)" fill="none"/>
      <text id="Alaska" transform="translate(220 162)" fill="#494955" font-size="14" font-family="SegoeUI, Segoe UI"><tspan x="0" y="0">Alaska</tspan></text>
      <text id="California" transform="translate(220 270)" fill="#494955" font-size="14" font-family="SegoeUI, Segoe UI"><tspan x="0" y="0">California</tspan></text>
      <text id="Alabama-2" data-name="Alabama" transform="translate(220 198)" fill="#494955" font-size="14" font-family="SegoeUI-Semibold, Segoe UI" font-weight="600"><tspan x="0" y="0">Alabama</tspan></text>
      <text id="Colorado" transform="translate(220 306)" fill="#494955" font-size="14" font-family="SegoeUI, Segoe UI"><tspan x="0" y="0">Colorado</tspan></text>
      <text id="Arizona" transform="translate(220 234)" fill="#494955" font-size="14" font-family="SegoeUI, Segoe UI"><tspan x="0" y="0">Arizona</tspan></text>
      <text id="Connecticut" transform="translate(220 342)" fill="#494955" font-size="14" font-family="SegoeUI, Segoe UI"><tspan x="0" y="0">Connecticut</tspan></text>
      <text id="Delaware" transform="translate(220 378)" fill="#494955" font-size="14" font-family="SegoeUI, Segoe UI"><tspan x="0" y="0">Delaware</tspan></text>
      <rect id="Rectangle_4588" data-name="Rectangle 4588" width="5" height="100" rx="2.5" transform="translate(565 138)" fill="#78788c"/>
      <g id="Component_2_25" data-name="Component 2 – 25" transform="translate(185 144)" clip-path="url(#clip-path)">
        <rect id="Rectangle_4469" data-name="Rectangle 4469" width="24" height="24" fill="none"/>
        <path id="Path_5842" data-name="Path 5842" d="M17.5,2a.472.472,0,0,1,.5.5v15a.472.472,0,0,1-.5.5H2.5a.472.472,0,0,1-.5-.5V2.5A.472.472,0,0,1,2.5,2h15m0-2H2.5A2.476,2.476,0,0,0,0,2.5v15A2.476,2.476,0,0,0,2.5,20h15A2.476,2.476,0,0,0,20,17.5V2.5A2.476,2.476,0,0,0,17.5,0Z" transform="translate(2 2)" fill="#9494a4"/>
      </g>
      <g id="Component_2_27" data-name="Component 2 – 27" transform="translate(185 216)" clip-path="url(#clip-path)">
        <rect id="Rectangle_4469-2" data-name="Rectangle 4469" width="24" height="24" fill="none"/>
        <path id="Path_5842-2" data-name="Path 5842" d="M17.5,2a.472.472,0,0,1,.5.5v15a.472.472,0,0,1-.5.5H2.5a.472.472,0,0,1-.5-.5V2.5A.472.472,0,0,1,2.5,2h15m0-2H2.5A2.476,2.476,0,0,0,0,2.5v15A2.476,2.476,0,0,0,2.5,20h15A2.476,2.476,0,0,0,20,17.5V2.5A2.476,2.476,0,0,0,17.5,0Z" transform="translate(2 2)" fill="#9494a4"/>
      </g>
      <g id="Component_2_28" data-name="Component 2 – 28" transform="translate(185 252)" clip-path="url(#clip-path)">
        <rect id="Rectangle_4469-3" data-name="Rectangle 4469" width="24" height="24" fill="none"/>
        <path id="Path_5842-3" data-name="Path 5842" d="M17.5,2a.472.472,0,0,1,.5.5v15a.472.472,0,0,1-.5.5H2.5a.472.472,0,0,1-.5-.5V2.5A.472.472,0,0,1,2.5,2h15m0-2H2.5A2.476,2.476,0,0,0,0,2.5v15A2.476,2.476,0,0,0,2.5,20h15A2.476,2.476,0,0,0,20,17.5V2.5A2.476,2.476,0,0,0,17.5,0Z" transform="translate(2 2)" fill="#9494a4"/>
      </g>
      <g id="Component_2_29" data-name="Component 2 – 29" transform="translate(185 288)" clip-path="url(#clip-path)">
        <rect id="Rectangle_4469-4" data-name="Rectangle 4469" width="24" height="24" fill="none"/>
        <path id="Path_5842-4" data-name="Path 5842" d="M17.5,2a.472.472,0,0,1,.5.5v15a.472.472,0,0,1-.5.5H2.5a.472.472,0,0,1-.5-.5V2.5A.472.472,0,0,1,2.5,2h15m0-2H2.5A2.476,2.476,0,0,0,0,2.5v15A2.476,2.476,0,0,0,2.5,20h15A2.476,2.476,0,0,0,20,17.5V2.5A2.476,2.476,0,0,0,17.5,0Z" transform="translate(2 2)" fill="#9494a4"/>
      </g>
      <g id="Component_2_30" data-name="Component 2 – 30" transform="translate(185 324)" clip-path="url(#clip-path)">
        <rect id="Rectangle_4469-5" data-name="Rectangle 4469" width="24" height="24" fill="none"/>
        <path id="Path_5842-5" data-name="Path 5842" d="M17.5,2a.472.472,0,0,1,.5.5v15a.472.472,0,0,1-.5.5H2.5a.472.472,0,0,1-.5-.5V2.5A.472.472,0,0,1,2.5,2h15m0-2H2.5A2.476,2.476,0,0,0,0,2.5v15A2.476,2.476,0,0,0,2.5,20h15A2.476,2.476,0,0,0,20,17.5V2.5A2.476,2.476,0,0,0,17.5,0Z" transform="translate(2 2)" fill="#9494a4"/>
      </g>
      <g id="Component_2_31" data-name="Component 2 – 31" transform="translate(185 360)" clip-path="url(#clip-path)">
        <rect id="Rectangle_4469-6" data-name="Rectangle 4469" width="24" height="24" fill="none"/>
        <path id="Path_5842-6" data-name="Path 5842" d="M17.5,2a.472.472,0,0,1,.5.5v15a.472.472,0,0,1-.5.5H2.5a.472.472,0,0,1-.5-.5V2.5A.472.472,0,0,1,2.5,2h15m0-2H2.5A2.476,2.476,0,0,0,0,2.5v15A2.476,2.476,0,0,0,2.5,20h15A2.476,2.476,0,0,0,20,17.5V2.5A2.476,2.476,0,0,0,17.5,0Z" transform="translate(2 2)" fill="#9494a4"/>
      </g>
      <path id="Path_5842-7" data-name="Path 5842" d="M17.5,2a.472.472,0,0,1,.5.5v15a.472.472,0,0,1-.5.5H2.5a.472.472,0,0,1-.5-.5V2.5A.472.472,0,0,1,2.5,2h15m0-2H2.5A2.476,2.476,0,0,0,0,2.5v15A2.476,2.476,0,0,0,2.5,20h15A2.476,2.476,0,0,0,20,17.5V2.5A2.476,2.476,0,0,0,17.5,0Z" transform="translate(187 398)" fill="#9494a4"/>
      <g id="Group_4" data-name="Group 4" transform="translate(38 -257.079)">
        <path id="Path_1" data-name="Path 1" d="M12,0A12,12,0,1,1,0,12,12,12,0,0,1,12,0Z" transform="translate(68 357.346)" fill="#17987c"/>
        <path id="Path_3" data-name="Path 3" d="M0,0H1V39H0Z" transform="translate(91 369.346) rotate(-90)" fill="#17987c"/>
        <g id="Group_5" data-name="Group 5" transform="translate(0 -2.921)">
          <g id="Group_6" data-name="Group 6" transform="translate(0 351)">
            <path id="Path_8" data-name="Path 8" d="M0,0H1V5H0Z" transform="translate(128 1) rotate(-90)" fill="#17987c"/>
            <path id="Path_9" data-name="Path 9" d="M0,0H1V5H0Z" transform="translate(128 42.534) rotate(-90)" fill="#17987c"/>
            <path id="Path_7" data-name="Path 7" d="M0,0H1V41.034H0Z" transform="translate(130 0.75)" fill="#17987c"/>
          </g>
        </g>
        <text id="_1" data-name="1" transform="translate(77 374.346)" fill="#fff" font-size="14" font-family="SegoeUI-Semibold, Segoe UI" font-weight="600"><tspan x="0" y="0">1</tspan></text>
      </g>
      <g id="Group_15374" data-name="Group 15374" transform="translate(38 -212.203)">
        <path id="Path_1-2" data-name="Path 1" d="M12,0A12,12,0,1,1,0,12,12,12,0,0,1,12,0Z" transform="translate(68 483.626)" fill="#17987c"/>
        <path id="Path_3-2" data-name="Path 3" d="M0,0H1V39H0Z" transform="translate(91 495.626) rotate(-90)" fill="#17987c"/>
        <g id="Group_5-2" data-name="Group 5" transform="translate(0 -2.885)">
          <g id="Group_6-2" data-name="Group 6" transform="translate(0 351)">
            <path id="Path_8-2" data-name="Path 8" d="M0,0H1V5H0Z" transform="translate(128 1) rotate(-90)" fill="#17987c"/>
            <path id="Path_9-2" data-name="Path 9" d="M0,0H1V5H0Z" transform="translate(128 295.022) rotate(-90)" fill="#17987c"/>
            <path id="Path_7-2" data-name="Path 7" d="M0,0H1V293.522H0Z" transform="translate(130 0.75)" fill="#17987c"/>
          </g>
        </g>
        <text id="_4" data-name="4" transform="translate(76 501.626)" fill="#fff" font-size="14" font-family="SegoeUI-Semibold, Segoe UI" font-weight="600"><tspan x="0" y="0">4</tspan></text>
      </g>
      <g id="Group_15375" data-name="Group 15375" transform="translate(126 324.5)">
        <path id="Path_4" data-name="Path 4" d="M12,0A12,12,0,1,1,0,12,12,12,0,0,1,12,0Z" fill="#17987c"/>
        <path id="Path_6" data-name="Path 6" d="M0,0H1V39H0Z" transform="translate(23 12) rotate(-90)" fill="#17987c"/>
        <text id="_5" data-name="5" transform="translate(8 17)" fill="#fff" font-size="14" font-family="SegoeUI-Semibold, Segoe UI" font-weight="600"><tspan x="0" y="0">5</tspan></text>
      </g>
      <g id="Group_15373" data-name="Group 15373" transform="translate(565 100)">
        <path id="Path_4-2" data-name="Path 4" d="M12,0A12,12,0,1,0,24,12,12,12,0,0,0,12,0Z" transform="translate(38)" fill="#17987c"/>
        <path id="Path_6-2" data-name="Path 6" d="M0,39H1V0H0Z" transform="translate(0 12) rotate(-90)" fill="#17987c"/>
        <text id="_3" data-name="3" transform="translate(46 17)" fill="#fff" font-size="14" font-family="SegoeUI-Semibold, Segoe UI" font-weight="600"><tspan x="0" y="0">3</tspan></text>
      </g>
      <g id="Group_15376" data-name="Group 15376" transform="translate(569 179)">
        <path id="Path_4-3" data-name="Path 4" d="M12,0A12,12,0,1,0,24,12,12,12,0,0,0,12,0Z" transform="translate(38)" fill="#17987c"/>
        <path id="Path_6-3" data-name="Path 6" d="M0,39H1V0H0Z" transform="translate(0 12) rotate(-90)" fill="#17987c"/>
        <text id="_7" data-name="7" transform="translate(46 17)" fill="#fff" font-size="14" font-family="SegoeUI-Semibold, Segoe UI" font-weight="600"><tspan x="0" y="0">7</tspan></text>
      </g>
      <g id="Group_15382" data-name="Group 15382" transform="translate(126 360.5)">
        <path id="Path_4-4" data-name="Path 4" d="M12,0A12,12,0,1,1,0,12,12,12,0,0,1,12,0Z" fill="#17987c"/>
        <path id="Path_6-4" data-name="Path 6" d="M0,0H1V33.39H0Z" transform="translate(23 12) rotate(-90)" fill="#17987c"/>
        <text id="_6" data-name="6" transform="translate(8 17)" fill="#fff" font-size="14" font-family="SegoeUI-Semibold, Segoe UI" font-weight="600"><tspan x="0" y="0">6</tspan></text>
      </g>
      <g id="Group_15389" data-name="Group 15389" transform="translate(248 34) rotate(90)">
        <path id="Path_4-5" data-name="Path 4" d="M12,0A12,12,0,1,1,0,12,12,12,0,0,1,12,0Z" fill="#17987c"/>
        <path id="Path_6-5" data-name="Path 6" d="M0,0H1V39H0Z" transform="translate(23 12) rotate(-90)" fill="#17987c"/>
        <text id="_2" data-name="2" transform="translate(17.5 16) rotate(-90)" fill="#fff" font-size="14" font-family="SegoeUI-Semibold, Segoe UI" font-weight="600"><tspan x="0" y="0">2</tspan></text>
      </g>
    </g>
  </g>
</svg>
