<svg xmlns="http://www.w3.org/2000/svg" xmlns:xlink="http://www.w3.org/1999/xlink" width="1000" height="182" viewBox="0 0 1000 182">
  <defs>
    <clipPath id="clip-multiselect_selectiontruncation">
      <rect width="1000" height="182"/>
    </clipPath>
  </defs>
  <g id="multiselect_selectiontruncation" clip-path="url(#clip-multiselect_selectiontruncation)">
    <rect width="1000" height="182" fill="#f4f4f6"/>
    <g id="Group_15388" data-name="Group 15388" transform="translate(218 -56)">
      <rect id="Rectangle_4840" data-name="Rectangle 4840" width="300" height="100" rx="4" transform="translate(132 109)" fill="#fff"/>
      <path id="Rectangle_4840_-_Outline" data-name="Rectangle 4840 - Outline" d="M4,1A3,3,0,0,0,1,4V96a3,3,0,0,0,3,3H296a3,3,0,0,0,3-3V4a3,3,0,0,0-3-3H4M4,0H296a4,4,0,0,1,4,4V96a4,4,0,0,1-4,4H4a4,4,0,0,1-4-4V4A4,4,0,0,1,4,0Z" transform="translate(132 109)" fill="#cbcbd2"/>
      <text id="Recipients" transform="translate(132 101)" fill="#31313a" font-size="14" font-family="SegoeUI-Semibold, Segoe UI" font-weight="600"><tspan x="0" y="0">Recipients</tspan></text>
      <g id="Group_7815" data-name="Group 7815" transform="translate(-418 -1589)">
        <rect id="Rectangle_3867" data-name="Rectangle 3867" width="24" height="24" transform="translate(816 1707)" fill="none"/>
        <path id="Path_5558" data-name="Path 5558" d="M56,9.4l-3,3-3-3a.967.967,0,0,0-1.4,0h0a.967.967,0,0,0,0,1.4l3.7,3.7a.967.967,0,0,0,1.4,0l3.7-3.7a.967.967,0,0,0,0-1.4h0A.965.965,0,0,0,56,9.4Z" transform="translate(775 1707)" fill="#9494a4"/>
      </g>
      <g id="Group_7811" data-name="Group 7811" transform="translate(-344 -365)">
        <rect id="Rectangle_4061" data-name="Rectangle 4061" width="125" height="24" rx="2" transform="translate(491 483)" fill="#eaeaea"/>
        <g id="Remove" transform="translate(597 490)">
          <g id="Remove-2" data-name="Remove">
            <path id="Path_10244" data-name="Path 10244" d="M9.933,8.934a.25.25,0,0,1,0,.312l-.624.624a.25.25,0,0,1-.312,0L5,6,1.066,9.933a.25.25,0,0,1-.312,0L.129,9.309A.25.25,0,0,1,.129,9L4,5,.067,1.066a.25.25,0,0,1,0-.312L.691.129A.25.25,0,0,1,1,.129L5,4,8.934.067a.25.25,0,0,1,.312,0l.624.624a.25.25,0,0,1,0,.312L6,5Z" transform="translate(0.119 0)" fill="#b2b2b2"/>
            <rect id="Rectangle_8133" data-name="Rectangle 8133" width="10" height="10" fill="none"/>
          </g>
        </g>
        <text id="ABC_Company" data-name="ABC Company" transform="translate(498 500)" fill="#31313a" font-size="14" font-family="SegoeUI, Segoe UI"><tspan x="0" y="0">ABC Company</tspan></text>
      </g>
      <g id="Group_7814" data-name="Group 7814" transform="translate(-214 -365)">
        <rect id="Rectangle_4061-2" data-name="Rectangle 4061" width="117" height="24" rx="2" transform="translate(491 483)" fill="#eaeaea"/>
        <g id="Remove-3" data-name="Remove" transform="translate(589 490)">
          <g id="Remove-4" data-name="Remove">
            <path id="Path_10244-2" data-name="Path 10244" d="M9.933,8.934a.25.25,0,0,1,0,.312l-.624.624a.25.25,0,0,1-.312,0L5,6,1.066,9.933a.25.25,0,0,1-.312,0L.129,9.309A.25.25,0,0,1,.129,9L4,5,.067,1.066a.25.25,0,0,1,0-.312L.691.129A.25.25,0,0,1,1,.129L5,4,8.934.067a.25.25,0,0,1,.312,0l.624.624a.25.25,0,0,1,0,.312L6,5Z" transform="translate(0.037 0)" fill="#b2b2b2"/>
            <rect id="Rectangle_8133-2" data-name="Rectangle 8133" width="10" height="10" fill="none"/>
          </g>
        </g>
        <text id="Bryan_Adams" data-name="Bryan Adams" transform="translate(498 500)" fill="#31313a" font-size="14" font-family="SegoeUI, Segoe UI"><tspan x="0" y="0">Bryan Adams</tspan></text>
      </g>
      <g id="Group_264377" data-name="Group 264377" transform="translate(-344 -336)">
        <rect id="Rectangle_4061-3" data-name="Rectangle 4061" width="112" height="24" rx="2" transform="translate(491 483)" fill="#eaeaea"/>
        <g id="Remove-5" data-name="Remove" transform="translate(584 490)">
          <g id="Remove-6" data-name="Remove">
            <path id="Path_10244-3" data-name="Path 10244" d="M9.933,8.934a.25.25,0,0,1,0,.312l-.624.624a.25.25,0,0,1-.312,0L5,6,1.066,9.933a.25.25,0,0,1-.312,0L.129,9.309A.25.25,0,0,1,.129,9L4,5,.067,1.066a.25.25,0,0,1,0-.312L.691.129A.25.25,0,0,1,1,.129L5,4,8.934.067a.25.25,0,0,1,.312,0l.624.624a.25.25,0,0,1,0,.312L6,5Z" transform="translate(0.324 0)" fill="#b2b2b2"/>
            <rect id="Rectangle_8133-3" data-name="Rectangle 8133" width="10" height="10" fill="none"/>
          </g>
        </g>
        <text id="Juan_Amado" data-name="Juan Amado" transform="translate(498 500)" fill="#31313a" font-size="14" font-family="SegoeUI, Segoe UI"><tspan x="0" y="0">Juan Amado</tspan></text>
      </g>
      <g id="Group_264378" data-name="Group 264378" transform="translate(-227 -336)">
        <rect id="Rectangle_4061-4" data-name="Rectangle 4061" width="131" height="24" rx="2" transform="translate(491 483)" fill="#eaeaea"/>
        <g id="Remove-7" data-name="Remove" transform="translate(603 490)">
          <g id="Remove-8" data-name="Remove">
            <path id="Path_10244-4" data-name="Path 10244" d="M9.933,8.934a.25.25,0,0,1,0,.312l-.624.624a.25.25,0,0,1-.312,0L5,6,1.066,9.933a.25.25,0,0,1-.312,0L.129,9.309A.25.25,0,0,1,.129,9L4,5,.067,1.066a.25.25,0,0,1,0-.312L.691.129A.25.25,0,0,1,1,.129L5,4,8.934.067a.25.25,0,0,1,.312,0l.624.624a.25.25,0,0,1,0,.312L6,5Z" transform="translate(0.537 0)" fill="#b2b2b2"/>
            <rect id="Rectangle_8133-4" data-name="Rectangle 8133" width="10" height="10" fill="none"/>
          </g>
        </g>
        <text id="Chad_Anderson" data-name="Chad Anderson" transform="translate(498 500)" fill="#31313a" font-size="14" font-family="SegoeUI, Segoe UI"><tspan x="0" y="0">Chad Anderson</tspan></text>
      </g>
      <g id="Group_264379" data-name="Group 264379" transform="translate(-344 -307)">
        <rect id="Rectangle_4061-5" data-name="Rectangle 4061" width="160" height="24" rx="2" transform="translate(491 483)" fill="#eaeaea"/>
        <g id="Remove-9" data-name="Remove" transform="translate(625 490)">
          <g id="Remove-10" data-name="Remove">
            <path id="Path_10244-5" data-name="Path 10244" d="M9.933,8.934a.25.25,0,0,1,0,.312l-.624.624a.25.25,0,0,1-.312,0L5,6,1.066,9.933a.25.25,0,0,1-.312,0L.129,9.309A.25.25,0,0,1,.129,9L4,5,.067,1.066a.25.25,0,0,1,0-.312L.691.129A.25.25,0,0,1,1,.129L5,4,8.934.067a.25.25,0,0,1,.312,0l.624.624a.25.25,0,0,1,0,.312L6,5Z" transform="translate(0.656 0)" fill="#b2b2b2"/>
            <rect id="Rectangle_8133-5" data-name="Rectangle 8133" width="10" height="10" fill="none"/>
          </g>
        </g>
        <text id="Reannen_Anderson" data-name="Reannen Anderson" transform="translate(498 500)" fill="#31313a" font-size="14" font-family="SegoeUI, Segoe UI"><tspan x="0" y="0">Reannen Anderson</tspan></text>
      </g>
      <g id="Group_264380" data-name="Group 264380" transform="translate(-179 -307)">
        <rect id="Rectangle_4061-6" data-name="Rectangle 4061" width="58" height="24" rx="2" transform="translate(491 483)" fill="#eaeaea"/>
        <text id="_7_more" data-name="7 more" transform="translate(498 500)" fill="#31313a" font-size="14" font-family="SegoeUI, Segoe UI"><tspan x="0" y="0">7 more</tspan></text>
      </g>
    </g>
  </g>
</svg>
