<svg xmlns="http://www.w3.org/2000/svg" xmlns:xlink="http://www.w3.org/1999/xlink" width="485" height="891" viewBox="0 0 485 891">
  <defs>
    <filter id="Rectangle_9995" x="17" y="30" width="452" height="853" filterUnits="userSpaceOnUse">
      <feOffset dy="16" input="SourceAlpha"/>
      <feGaussianBlur stdDeviation="2" result="blur"/>
      <feFlood flood-opacity="0.141"/>
      <feComposite operator="in" in2="blur"/>
      <feComposite in="SourceGraphic"/>
    </filter>
    <clipPath id="clip-path">
      <rect width="231" height="42" fill="none"/>
    </clipPath>
    <clipPath id="clip-multipicker_mobile_selected">
      <rect width="485" height="891"/>
    </clipPath>
  </defs>
  <g id="multipicker_mobile_selected" clip-path="url(#clip-multipicker_mobile_selected)">
    <rect width="485" height="891" fill="#f4f4f6"/>
    <g id="Group_267227" data-name="Group 267227" transform="translate(3)">
      <rect id="Rectangle_10402" data-name="Rectangle 10402" width="485" height="891" transform="translate(-3)" fill="rgba(0,0,0,0.85)"/>
    </g>
    <g id="Group_267215" data-name="Group 267215" transform="translate(3 -102)">
      <g transform="matrix(1, 0, 0, 1, -3, 102)" filter="url(#Rectangle_9995)">
        <rect id="Rectangle_9995-2" data-name="Rectangle 9995" width="440" height="831" transform="translate(23 30)" fill="#fff"/>
      </g>
      <path id="Line_18" data-name="Line 18" d="M380,.5H0v-1H380Z" transform="translate(50 417)" fill="#dbdbdb"/>
      <g id="Group_264400" data-name="Group 264400" transform="translate(50 326)">
        <rect id="Rectangle_3779" data-name="Rectangle 3779" width="380" height="42" rx="2" fill="#fff"/>
        <path id="Rectangle_3779_-_Outline" data-name="Rectangle 3779 - Outline" d="M2,1A1,1,0,0,0,1,2V40a1,1,0,0,0,1,1H378a1,1,0,0,0,1-1V2a1,1,0,0,0-1-1H2M2,0H378a2,2,0,0,1,2,2V40a2,2,0,0,1-2,2H2a2,2,0,0,1-2-2V2A2,2,0,0,1,2,0Z" fill="#dbdbdb"/>
        <text id="Search" transform="translate(14 27)" fill="#c6c6c6" font-size="14" font-family="OpenSans-Regular, Open Sans"><tspan x="0" y="0">Search</tspan></text>
        <path id="Rectangle_3780" data-name="Rectangle 3780" d="M0,0H41a1,1,0,0,1,1,1V39a1,1,0,0,1-1,1H0a0,0,0,0,1,0,0V0A0,0,0,0,1,0,0Z" transform="translate(337 1)" fill="#fafafa"/>
        <rect id="Rectangle_3781" data-name="Rectangle 3781" width="1" height="40" transform="translate(337 1)" fill="#ebebeb"/>
        <g id="Group_7480" data-name="Group 7480" transform="translate(347 9)">
          <path id="Path_520" data-name="Path 520" d="M303.8,258.3l-5-5a6.354,6.354,0,0,0,1.1-4.9,6.471,6.471,0,0,0-5.6-5.3,6.53,6.53,0,0,0-2,12.9,6.914,6.914,0,0,0,4.9-1.1l5,5a1.088,1.088,0,0,0,1.5,0A1.222,1.222,0,0,0,303.8,258.3Zm-14.7-9.5a4.458,4.458,0,0,1,3.7-3.7,4.57,4.57,0,0,1,5.2,5.2,4.458,4.458,0,0,1-3.7,3.7A4.609,4.609,0,0,1,289.1,248.8Z" transform="translate(-284 -240)" fill="#5786bd"/>
          <path id="Path_519" data-name="Path 519" d="M284.1,240h24v24h-24Z" transform="translate(-284 -240)" fill="none"/>
          <rect id="Rectangle_304" data-name="Rectangle 304" width="24" height="24" fill="none"/>
        </g>
      </g>
      <g id="Group_264402" data-name="Group 264402" transform="translate(50 388)">
        <text id="Select_all" data-name="Select all" transform="translate(30 15)" fill="#5786bd" font-size="14" font-family="OpenSans-Semibold, Open Sans" font-weight="600"><tspan x="-29.866" y="0">Select all</tspan></text>
      </g>
      <path id="Path_101235" data-name="Path 101235" d="M380,.5H0v-1H380Z" transform="translate(50 805)" fill="#dbdbdb"/>
      <g id="Checkbox" transform="translate(50 436)">
        <g id="Checked" transform="translate(0)">
          <path id="Path_5845" data-name="Path 5845" d="M46.2,0h-18a2.971,2.971,0,0,0-3,3V21a2.971,2.971,0,0,0,3,3h18a2.971,2.971,0,0,0,3-3V3A2.971,2.971,0,0,0,46.2,0ZM44.64,8.52l-8.76,8.76a1.16,1.16,0,0,1-1.68,0l-4.32-4.32a1.188,1.188,0,0,1,1.68-1.68l3.48,3.48,7.92-7.92a1.16,1.16,0,0,1,1.68,0A1.442,1.442,0,0,1,44.64,8.52Z" transform="translate(-25.2)" fill="#2777d3"/>
        </g>
        <text id="ACA_Reporting" data-name="ACA Reporting" transform="translate(30 18)" fill="#1a1a1e" stroke="rgba(0,0,0,0)" stroke-width="1" font-size="14" font-family="SegoeUI, Segoe UI"><tspan x="0" y="0">ACA Reporting</tspan></text>
      </g>
      <g id="Checkbox-2" data-name="Checkbox" transform="translate(50 472)">
        <g id="Checked-2" data-name="Checked" transform="translate(0)">
          <path id="Path_5845-2" data-name="Path 5845" d="M46.2,0h-18a2.971,2.971,0,0,0-3,3V21a2.971,2.971,0,0,0,3,3h18a2.971,2.971,0,0,0,3-3V3A2.971,2.971,0,0,0,46.2,0ZM44.64,8.52l-8.76,8.76a1.16,1.16,0,0,1-1.68,0l-4.32-4.32a1.188,1.188,0,0,1,1.68-1.68l3.48,3.48,7.92-7.92a1.16,1.16,0,0,1,1.68,0A1.442,1.442,0,0,1,44.64,8.52Z" transform="translate(-25.2)" fill="#2777d3"/>
        </g>
        <text id="Client_Portal" data-name="Client Portal" transform="translate(30 18)" fill="#1a1a1e" stroke="rgba(0,0,0,0)" stroke-width="1" font-size="14" font-family="SegoeUI, Segoe UI"><tspan x="0" y="0">Client Portal</tspan></text>
      </g>
      <g id="Checkbox-3" data-name="Checkbox" transform="translate(50 508)">
        <g id="Checked-3" data-name="Checked" transform="translate(0)">
          <path id="Path_5845-3" data-name="Path 5845" d="M46.2,0h-18a2.971,2.971,0,0,0-3,3V21a2.971,2.971,0,0,0,3,3h18a2.971,2.971,0,0,0,3-3V3A2.971,2.971,0,0,0,46.2,0ZM44.64,8.52l-8.76,8.76a1.16,1.16,0,0,1-1.68,0l-4.32-4.32a1.188,1.188,0,0,1,1.68-1.68l3.48,3.48,7.92-7.92a1.16,1.16,0,0,1,1.68,0A1.442,1.442,0,0,1,44.64,8.52Z" transform="translate(-25.2)" fill="#2777d3"/>
        </g>
        <text id="Cobra_Notices_Generator" data-name="Cobra Notices Generator" transform="translate(30 18)" fill="#1a1a1e" stroke="rgba(0,0,0,0)" stroke-width="1" font-size="14" font-family="SegoeUI, Segoe UI"><tspan x="0" y="0">Cobra Notices Generator</tspan></text>
      </g>
      <g id="Checkbox-4" data-name="Checkbox" transform="translate(50 545)">
        <text id="Compliance_Notice_Builder" data-name="Compliance Notice Builder" transform="translate(30 17)" fill="#1a1a1e" stroke="rgba(0,0,0,0)" stroke-width="1" font-size="14" font-family="SegoeUI, Segoe UI"><tspan x="0" y="0">Compliance Notice Builder</tspan></text>
        <g id="Unchecked">
          <path id="Unchecked-2" data-name="Unchecked" d="M21,2.4a.567.567,0,0,1,.6.6V21a.567.567,0,0,1-.6.6H3a.567.567,0,0,1-.6-.6V3A.567.567,0,0,1,3,2.4H21M21,0H3A2.971,2.971,0,0,0,0,3V21a2.971,2.971,0,0,0,3,3H21a2.971,2.971,0,0,0,3-3V3a2.971,2.971,0,0,0-3-3Z" fill="#9494a4"/>
        </g>
      </g>
      <g id="Checkbox-5" data-name="Checkbox" transform="translate(50 581)">
        <text id="Custom_Job_Description_Builder" data-name="Custom Job Description Builder" transform="translate(30 17)" fill="#1a1a1e" stroke="rgba(0,0,0,0)" stroke-width="1" font-size="14" font-family="SegoeUI, Segoe UI"><tspan x="0" y="0">Custom Job Description Builder</tspan></text>
        <g id="Unchecked-3" data-name="Unchecked">
          <path id="Unchecked-4" data-name="Unchecked" d="M21,2.4a.567.567,0,0,1,.6.6V21a.567.567,0,0,1-.6.6H3a.567.567,0,0,1-.6-.6V3A.567.567,0,0,1,3,2.4H21M21,0H3A2.971,2.971,0,0,0,0,3V21a2.971,2.971,0,0,0,3,3H21a2.971,2.971,0,0,0,3-3V3a2.971,2.971,0,0,0-3-3Z" fill="#9494a4"/>
        </g>
      </g>
      <g id="Checkbox-6" data-name="Checkbox" transform="translate(50 617)">
        <text id="Employee_Cost_Calculator" data-name="Employee Cost Calculator" transform="translate(30 17)" fill="#1a1a1e" stroke="rgba(0,0,0,0)" stroke-width="1" font-size="14" font-family="SegoeUI, Segoe UI"><tspan x="0" y="0">Employee Cost Calculator</tspan></text>
        <g id="Unchecked-5" data-name="Unchecked">
          <path id="Unchecked-6" data-name="Unchecked" d="M21,2.4a.567.567,0,0,1,.6.6V21a.567.567,0,0,1-.6.6H3a.567.567,0,0,1-.6-.6V3A.567.567,0,0,1,3,2.4H21M21,0H3A2.971,2.971,0,0,0,0,3V21a2.971,2.971,0,0,0,3,3H21a2.971,2.971,0,0,0,3-3V3a2.971,2.971,0,0,0-3-3Z" fill="#9494a4"/>
        </g>
      </g>
      <g id="Checkbox-7" data-name="Checkbox" transform="translate(50 653)">
        <text id="Employee_Handbook_Builder" data-name="Employee Handbook Builder" transform="translate(30 17)" fill="#1a1a1e" stroke="rgba(0,0,0,0)" stroke-width="1" font-size="14" font-family="SegoeUI, Segoe UI"><tspan x="0" y="0">Employee Handbook Builder</tspan></text>
        <g id="Unchecked-7" data-name="Unchecked">
          <path id="Unchecked-8" data-name="Unchecked" d="M21,2.4a.567.567,0,0,1,.6.6V21a.567.567,0,0,1-.6.6H3a.567.567,0,0,1-.6-.6V3A.567.567,0,0,1,3,2.4H21M21,0H3A2.971,2.971,0,0,0,0,3V21a2.971,2.971,0,0,0,3,3H21a2.971,2.971,0,0,0,3-3V3a2.971,2.971,0,0,0-3-3Z" fill="#9494a4"/>
        </g>
      </g>
      <g id="Checkbox-8" data-name="Checkbox" transform="translate(50 689)">
        <text id="Federal_Poster_Advisor" data-name="Federal Poster Advisor" transform="translate(30 17)" fill="#1a1a1e" stroke="rgba(0,0,0,0)" stroke-width="1" font-size="14" font-family="SegoeUI, Segoe UI"><tspan x="0" y="0">Federal Poster Advisor</tspan></text>
        <g id="Unchecked-9" data-name="Unchecked">
          <path id="Unchecked-10" data-name="Unchecked" d="M21,2.4a.567.567,0,0,1,.6.6V21a.567.567,0,0,1-.6.6H3a.567.567,0,0,1-.6-.6V3A.567.567,0,0,1,3,2.4H21M21,0H3A2.971,2.971,0,0,0,0,3V21a2.971,2.971,0,0,0,3,3H21a2.971,2.971,0,0,0,3-3V3a2.971,2.971,0,0,0-3-3Z" fill="#9494a4"/>
        </g>
      </g>
      <g id="Pager_-_light" data-name="Pager - light" transform="translate(125 835)" clip-path="url(#clip-path)">
        <g id="Group_7420" data-name="Group 7420" transform="translate(-86 -123)">
          <text id="_1_of_33" data-name="1 of 33" transform="translate(129 146)" fill="#2777d3" font-size="14" font-family="SegoeUI-Bold, Segoe UI" font-weight="700"><tspan x="0" y="0">1</tspan><tspan y="0" fill="#4aae59" font-family="SegoeUI, Segoe UI" font-weight="400"> </tspan><tspan y="0" fill="#9494a4" font-family="SegoeUI, Segoe UI" font-weight="400">of 33</tspan></text>
          <rect id="Rectangle_3750" data-name="Rectangle 3750" width="80" height="3" transform="translate(120 156)" fill="#2777d3"/>
          <g id="Group_7417" data-name="Group 7417" transform="translate(58 11)">
            <path id="Path_381" data-name="Path 381" d="M269.2,16.2,265,12l4.2-4.2a.967.967,0,0,0,0-1.4h0a.967.967,0,0,0-1.4,0l-4.2,4.2-.7.7a.967.967,0,0,0,0,1.4l.7.7,4.2,4.2a.967.967,0,0,0,1.4,0h0A.965.965,0,0,0,269.2,16.2Z" transform="translate(-226 118)" fill="#9494a4"/>
            <rect id="Rectangle_173" data-name="Rectangle 173" width="24" height="24" transform="translate(28 118)" fill="none"/>
          </g>
          <g id="Group_7419" data-name="Group 7419" transform="translate(262 271) rotate(180)">
            <path id="Path_381-2" data-name="Path 381" d="M269.2,16.2,265,12l4.2-4.2a.967.967,0,0,0,0-1.4h0a.967.967,0,0,0-1.4,0l-4.2,4.2-.7.7a.967.967,0,0,0,0,1.4l.7.7,4.2,4.2a.967.967,0,0,0,1.4,0h0A.965.965,0,0,0,269.2,16.2Z" transform="translate(-226 118)" fill="#9494a4"/>
            <rect id="Rectangle_173-2" data-name="Rectangle 173" width="24" height="24" transform="translate(28 118)" fill="none"/>
          </g>
          <g id="Group_7842" data-name="Group 7842" transform="translate(-638 -1578)">
            <rect id="Rectangle_3867" data-name="Rectangle 3867" width="24" height="24" transform="translate(816 1707)" fill="none"/>
            <path id="Path_5558" data-name="Path 5558" d="M56,9.4l-3,3-3-3a.967.967,0,0,0-1.4,0h0a.967.967,0,0,0,0,1.4l3.7,3.7a.967.967,0,0,0,1.4,0l3.7-3.7a.967.967,0,0,0,0-1.4h0A.965.965,0,0,0,56,9.4Z" transform="translate(775 1707)" fill="#9494a4"/>
          </g>
        </g>
        <g id="Rectangle_3751" data-name="Rectangle 3751" transform="translate(166)" fill="#fff" stroke="#cbcbd2" stroke-width="1">
          <rect width="65" height="42" rx="4" stroke="none"/>
          <rect x="0.5" y="0.5" width="64" height="41" rx="3.5" fill="none"/>
        </g>
        <text id="_1" data-name="1" transform="translate(180 27)" fill="#31313a" font-size="14" font-family="SegoeUI, Segoe UI"><tspan x="0" y="0">1</tspan></text>
      </g>
      <text id="Filter_by_applications" data-name="Filter by applications" transform="translate(50 190)" fill="#3d3d3d" font-size="26" font-family="SegoeUI-Semibold, Segoe UI" font-weight="600"><tspan x="0" y="0">Filter by applications</tspan></text>
      <g id="Actions" transform="translate(-70.31 612)">
        <g id="Primary_Button" data-name="Primary Button" transform="translate(419.31 295)">
          <rect id="Rectangle_3990" data-name="Rectangle 3990" width="81" height="36" rx="18" fill="#2777d3"/>
          <text id="Confirm" transform="translate(15 23)" fill="#fff" font-size="14" font-family="SegoeUI-Semibold, Segoe UI" font-weight="600"><tspan x="0" y="0">Confirm</tspan></text>
        </g>
        <g id="Link_Button_-_Normal" data-name="Link Button - Normal" transform="translate(337.31 295)">
          <g id="Group_264143" data-name="Group 264143">
            <rect id="Rectangle_6075" data-name="Rectangle 6075" width="72" height="36" rx="18" fill="rgba(255,255,255,0)"/>
            <text id="Cancel" transform="translate(15 22)" fill="#2777d3" font-size="14" font-family="SegoeUI-Semibold, Segoe UI" font-weight="600"><tspan x="0" y="0">Cancel</tspan></text>
          </g>
        </g>
      </g>
      <g id="Text_Area" data-name="Text Area" transform="translate(50 214)">
        <text id="Selections:_3" data-name="Selections: 3" transform="translate(0 15)" fill="#31313a" font-size="16" font-family="SegoeUI-Semibold, Segoe UI" font-weight="600"><tspan x="0" y="0">Selections: 3</tspan></text>
        <g id="Group_267183" data-name="Group 267183" transform="translate(117.757 -1)">
          <text id="Remove_all" data-name="Remove all" transform="translate(27.243 15)" fill="#5786bd" font-size="14" font-family="OpenSans-Semibold, Open Sans" font-weight="600"><tspan x="-37.037" y="0">Remove all</tspan></text>
        </g>
        <g id="Group_14913" data-name="Group 14913" transform="translate(0 29)">
          <rect id="Rectangle_8132" data-name="Rectangle 8132" width="128" height="24" rx="2" fill="#eaeaea"/>
          <g id="Remove" transform="translate(108.408 7)">
            <g id="Remove-2" data-name="Remove">
              <path id="Path_10244" data-name="Path 10244" d="M9.933,8.934a.25.25,0,0,1,0,.312l-.624.624a.25.25,0,0,1-.312,0L5,6,1.066,9.933a.25.25,0,0,1-.312,0L.129,9.309A.25.25,0,0,1,.129,9L4,5,.067,1.066a.25.25,0,0,1,0-.312L.691.129A.25.25,0,0,1,1,.129L5,4,8.934.067a.25.25,0,0,1,.312,0l.624.624a.25.25,0,0,1,0,.312L6,5Z" transform="translate(-0.012 0)" fill="#b2b2b2"/>
              <rect id="Rectangle_8133" data-name="Rectangle 8133" width="10" height="10" transform="translate(0.241)" fill="none"/>
            </g>
          </g>
          <text id="ACA_Reporting-2" data-name="ACA Reporting" transform="translate(7 17)" fill="#31313a" font-size="14" font-family="SegoeUI, Segoe UI"><tspan x="0" y="0">ACA Reporting</tspan></text>
        </g>
        <g id="Group_267208" data-name="Group 267208" transform="translate(133 29)">
          <rect id="Rectangle_8132-2" data-name="Rectangle 8132" width="113" height="24" rx="2" fill="#eaeaea"/>
          <g id="Remove-3" data-name="Remove" transform="translate(92.149 7)">
            <g id="Remove-4" data-name="Remove">
              <path id="Path_10244-2" data-name="Path 10244" d="M9.933,8.934a.25.25,0,0,1,0,.312l-.624.624a.25.25,0,0,1-.312,0L5,6,1.066,9.933a.25.25,0,0,1-.312,0L.129,9.309A.25.25,0,0,1,.129,9L4,5,.067,1.066a.25.25,0,0,1,0-.312L.691.129A.25.25,0,0,1,1,.129L5,4,8.934.067a.25.25,0,0,1,.312,0l.624.624a.25.25,0,0,1,0,.312L6,5Z" transform="translate(-0.012 0)" fill="#b2b2b2"/>
              <rect id="Rectangle_8133-2" data-name="Rectangle 8133" width="10" height="10" transform="translate(0.241)" fill="none"/>
            </g>
          </g>
          <text id="Client_Portal-2" data-name="Client Portal" transform="translate(7 17)" fill="#31313a" font-size="14" font-family="SegoeUI, Segoe UI"><tspan x="0" y="0">Client Portal</tspan></text>
        </g>
        <g id="Group_267212" data-name="Group 267212" transform="translate(0 58)">
          <rect id="Rectangle_8132-3" data-name="Rectangle 8132" width="191" height="24" rx="2" fill="#eaeaea"/>
          <g id="Remove-5" data-name="Remove" transform="translate(170.571 7)">
            <g id="Remove-6" data-name="Remove">
              <path id="Path_10244-3" data-name="Path 10244" d="M9.933,8.934a.25.25,0,0,1,0,.312l-.624.624a.25.25,0,0,1-.312,0L5,6,1.066,9.933a.25.25,0,0,1-.312,0L.129,9.309A.25.25,0,0,1,.129,9L4,5,.067,1.066a.25.25,0,0,1,0-.312L.691.129A.25.25,0,0,1,1,.129L5,4,8.934.067a.25.25,0,0,1,.312,0l.624.624a.25.25,0,0,1,0,.312L6,5Z" transform="translate(-0.012 0)" fill="#b2b2b2"/>
              <rect id="Rectangle_8133-3" data-name="Rectangle 8133" width="10" height="10" transform="translate(0.241)" fill="none"/>
            </g>
          </g>
          <text id="Cobra_Notices_Generator-2" data-name="Cobra Notices Generator" transform="translate(7 17)" fill="#31313a" font-size="14" font-family="SegoeUI, Segoe UI"><tspan x="0" y="0">Cobra Notices Generator</tspan></text>
        </g>
      </g>
      <g id="Checkbox-9" data-name="Checkbox" transform="translate(50 725)">
        <text id="FMLA_Advisor" data-name="FMLA Advisor" transform="translate(30 17)" fill="#1a1a1e" stroke="rgba(0,0,0,0)" stroke-width="1" font-size="14" font-family="SegoeUI, Segoe UI"><tspan x="0" y="0">FMLA Advisor</tspan></text>
        <g id="Unchecked-11" data-name="Unchecked">
          <path id="Unchecked-12" data-name="Unchecked" d="M21,2.4a.567.567,0,0,1,.6.6V21a.567.567,0,0,1-.6.6H3a.567.567,0,0,1-.6-.6V3A.567.567,0,0,1,3,2.4H21M21,0H3A2.971,2.971,0,0,0,0,3V21a2.971,2.971,0,0,0,3,3H21a2.971,2.971,0,0,0,3-3V3a2.971,2.971,0,0,0-3-3Z" fill="#9494a4"/>
        </g>
      </g>
      <g id="Checkbox-10" data-name="Checkbox" transform="translate(50 761)">
        <text id="Health_Plan_Compliance_Calendar" data-name="Health Plan Compliance Calendar" transform="translate(30 17)" fill="#1a1a1e" stroke="rgba(0,0,0,0)" stroke-width="1" font-size="14" font-family="SegoeUI, Segoe UI"><tspan x="0" y="0">Health Plan Compliance Calendar</tspan></text>
        <g id="Unchecked-13" data-name="Unchecked">
          <path id="Unchecked-14" data-name="Unchecked" d="M21,2.4a.567.567,0,0,1,.6.6V21a.567.567,0,0,1-.6.6H3a.567.567,0,0,1-.6-.6V3A.567.567,0,0,1,3,2.4H21M21,0H3A2.971,2.971,0,0,0,0,3V21a2.971,2.971,0,0,0,3,3H21a2.971,2.971,0,0,0,3-3V3a2.971,2.971,0,0,0-3-3Z" fill="#9494a4"/>
        </g>
      </g>
    </g>
  </g>
</svg>
