<svg xmlns="http://www.w3.org/2000/svg" xmlns:xlink="http://www.w3.org/1999/xlink" width="1920" height="1080" viewBox="0 0 1920 1080">
  <defs>
    <clipPath id="clip-NoResults">
      <rect width="1920" height="1080"/>
    </clipPath>
  </defs>
  <g id="NoResults" clip-path="url(#clip-NoResults)">
    <rect width="1920" height="1080" fill="#f4f4f6"/>
    <rect id="Rectangle_3801" data-name="Rectangle 3801" width="1000" height="455" rx="2" transform="translate(579 248)" fill="#fff"/>
    <path id="Rectangle_3802" data-name="Rectangle 3802" d="M2,0H998a2,2,0,0,1,2,2V56a0,0,0,0,1,0,0H0a0,0,0,0,1,0,0V2A2,2,0,0,1,2,0Z" transform="translate(579 248)" fill="rgba(120,120,140,0.1)"/>
    <rect id="Rectangle_9786" data-name="Rectangle 9786" width="68" height="22" rx="11" transform="translate(599 265)" fill="#e6e6ea"/>
    <rect id="Rectangle_10701" data-name="Rectangle 10701" width="68" height="22" rx="11" transform="translate(677 265)" fill="#e6e6ea"/>
    <rect id="Rectangle_10702" data-name="Rectangle 10702" width="68" height="22" rx="11" transform="translate(755 265)" fill="#e6e6ea"/>
    <rect id="Rectangle_9854" data-name="Rectangle 9854" width="187" height="30" rx="15" transform="translate(280 95)" fill="#e6e6ea"/>
    <rect id="Rectangle_10698" data-name="Rectangle 10698" width="82" height="30" rx="15" transform="translate(1798 95)" fill="#e6e6ea"/>
    <rect id="Rectangle_10699" data-name="Rectangle 10699" width="82" height="30" rx="15" transform="translate(1696 95)" fill="#e6e6ea"/>
    <rect id="Rectangle_10632" data-name="Rectangle 10632" width="110" height="13" rx="6.5" transform="translate(579 180)" fill="#e6e6ea"/>
    <rect id="Rectangle_10703" data-name="Rectangle 10703" width="110" height="13" rx="6.5" transform="translate(599 372)" fill="#e6e6ea"/>
    <rect id="Rectangle_10704" data-name="Rectangle 10704" width="310" height="13" rx="6.5" transform="translate(622 405)" fill="#e6e6ea"/>
    <rect id="Rectangle_10706" data-name="Rectangle 10706" width="264" height="13" rx="6.5" transform="translate(622 438)" fill="#e6e6ea"/>
    <rect id="Rectangle_10705" data-name="Rectangle 10705" width="13" height="13" rx="6.5" transform="translate(599 405)" fill="#e6e6ea"/>
    <rect id="Rectangle_10707" data-name="Rectangle 10707" width="13" height="13" rx="6.5" transform="translate(599 438)" fill="#e6e6ea"/>
    <rect id="Rectangle_10700" data-name="Rectangle 10700" width="257" height="13" rx="6.5" transform="translate(579 205)" fill="#e6e6ea"/>
    <text id="No_plans_available" data-name="No plans available" transform="translate(1199 532)" fill="#31313a" font-size="32" font-family="SegoeUI-Light, Segoe UI" font-weight="300"><tspan x="0" y="0">No plans available</tspan></text>
    <g id="Layer_2" data-name="Layer 2" transform="translate(1240.99 333.969)">
      <g id="Finals">
        <g id="Group_13695" data-name="Group 13695">
          <path id="Path_8993" data-name="Path 8993" d="M149.82,14.38a41.31,41.31,0,0,0-64,1.72,7.62,7.62,0,0,1-9.25,2.19A48.283,48.283,0,1,0,36,105.92a45.838,45.838,0,0,0,5.77,2.23,37.72,37.72,0,0,1,16.87,11l.25.28a39.22,39.22,0,0,0,67.84-31.95,6.06,6.06,0,0,1,4.13-6.64,41.38,41.38,0,0,0,19-66.42Z" fill="#f0f0f2"/>
          <path id="Path_8994" data-name="Path 8994" d="M79.8,13.52a4.4,4.4,0,1,0-4.39-4.4h0a4.39,4.39,0,0,0,4.39,4.4Zm0-8.13a3.74,3.74,0,1,1-3.73,3.73h0A3.73,3.73,0,0,1,79.8,5.39Z" fill="#f0f0f2"/>
          <path id="Path_8995" data-name="Path 8995" d="M73.68,5.06a2.37,2.37,0,1,0-2.37-2.37,2.37,2.37,0,0,0,2.37,2.37Zm0-4.06A1.7,1.7,0,1,1,72,2.69,1.7,1.7,0,0,1,73.68,1Z" fill="#f0f0f2"/>
          <path id="Path_8996" data-name="Path 8996" d="M136.36,86.42a4.39,4.39,0,1,0,3.114,1.286A4.4,4.4,0,0,0,136.36,86.42Zm0,8.13a3.74,3.74,0,1,1,3.73-3.74h0a3.74,3.74,0,0,1-3.73,3.74Z" fill="#f0f0f2"/>
          <path id="Path_8997" data-name="Path 8997" d="M4.39,82.46A4.39,4.39,0,1,0,7.5,83.742,4.39,4.39,0,0,0,4.39,82.46Zm0,8.12a3.74,3.74,0,1,1,3.74-3.73h0a3.74,3.74,0,0,1-3.74,3.73Z" fill="#f0f0f2"/>
          <path id="Path_8998" data-name="Path 8998" d="M140.85,81.53a2.36,2.36,0,1,0,1.679.691,2.37,2.37,0,0,0-1.679-.691Zm0,4.07a1.7,1.7,0,1,1,1.7-1.7h0a1.7,1.7,0,0,1-1.7,1.7Z" fill="#f0f0f2"/>
          <path id="Path_8999" data-name="Path 8999" d="M154.18,11.48a2.37,2.37,0,1,0-2.36-2.36,2.37,2.37,0,0,0,2.36,2.36Zm0-4.06a1.7,1.7,0,1,1-1.69,1.7h0a1.7,1.7,0,0,1,1.69-1.7Z" fill="#f0f0f2"/>
          <path id="Path_9000" data-name="Path 9000" d="M46.36,111.6a2.385,2.385,0,1,1,0,.03Zm0,4.06a1.7,1.7,0,1,1,1.7-1.7h0A1.71,1.71,0,0,1,46.36,115.66Z" fill="#f0f0f2"/>
        </g>
        <g id="Group_13695-2" data-name="Group 13695">
          <path id="Path_8993-2" data-name="Path 8993" d="M149.82,14.38a41.31,41.31,0,0,0-64,1.72,7.62,7.62,0,0,1-9.25,2.19A48.283,48.283,0,1,0,36,105.92a45.838,45.838,0,0,0,5.77,2.23,37.72,37.72,0,0,1,16.87,11l.25.28a39.22,39.22,0,0,0,67.84-31.95,6.06,6.06,0,0,1,4.13-6.64,41.38,41.38,0,0,0,19-66.42Z" fill="#f0f0f2"/>
          <path id="Path_8994-2" data-name="Path 8994" d="M79.8,13.52a4.4,4.4,0,1,0-4.39-4.4h0a4.39,4.39,0,0,0,4.39,4.4Zm0-8.13a3.74,3.74,0,1,1-3.73,3.73h0A3.73,3.73,0,0,1,79.8,5.39Z" fill="#f0f0f2"/>
          <path id="Path_8995-2" data-name="Path 8995" d="M73.68,5.06a2.37,2.37,0,1,0-2.37-2.37,2.37,2.37,0,0,0,2.37,2.37Zm0-4.06A1.7,1.7,0,1,1,72,2.69,1.7,1.7,0,0,1,73.68,1Z" fill="#f0f0f2"/>
          <path id="Path_8996-2" data-name="Path 8996" d="M136.36,86.42a4.39,4.39,0,1,0,3.114,1.286A4.4,4.4,0,0,0,136.36,86.42Zm0,8.13a3.74,3.74,0,1,1,3.73-3.74h0a3.74,3.74,0,0,1-3.73,3.74Z" fill="#f0f0f2"/>
          <path id="Path_8997-2" data-name="Path 8997" d="M4.39,82.46A4.39,4.39,0,1,0,7.5,83.742,4.39,4.39,0,0,0,4.39,82.46Zm0,8.12a3.74,3.74,0,1,1,3.74-3.73h0a3.74,3.74,0,0,1-3.74,3.73Z" fill="#f0f0f2"/>
          <path id="Path_8998-2" data-name="Path 8998" d="M140.85,81.53a2.36,2.36,0,1,0,1.679.691,2.37,2.37,0,0,0-1.679-.691Zm0,4.07a1.7,1.7,0,1,1,1.7-1.7h0a1.7,1.7,0,0,1-1.7,1.7Z" fill="#f0f0f2"/>
          <path id="Path_8999-2" data-name="Path 8999" d="M154.18,11.48a2.37,2.37,0,1,0-2.36-2.36,2.37,2.37,0,0,0,2.36,2.36Zm0-4.06a1.7,1.7,0,1,1-1.69,1.7h0a1.7,1.7,0,0,1,1.69-1.7Z" fill="#f0f0f2"/>
          <path id="Path_9000-2" data-name="Path 9000" d="M46.36,111.6a2.385,2.385,0,1,1,0,.03Zm0,4.06a1.7,1.7,0,1,1,1.7-1.7h0A1.71,1.71,0,0,1,46.36,115.66Z" fill="#f0f0f2"/>
        </g>
        <path id="Path_101868" data-name="Path 101868" d="M51.84,122.13a1.006,1.006,0,0,1-1-.94L45.09,11.34A1,1,0,0,1,46,10.29l81.91-5.23a.989.989,0,0,1,1,.96L132.77,116a1,1,0,0,1-.93,1Z" fill="#fff"/>
        <path id="Path_101869" data-name="Path 101869" d="M127.93,6.06,131.77,116l-79.93,5.14L46.08,11.29l81.85-5.23m0-2h-.12L46,9.29a2,2,0,0,0-1.87,2.1l5.75,109.85a1.993,1.993,0,0,0,2,1.89H52L131.9,118a2,2,0,0,0,1.87-2.07L129.93,6a2,2,0,0,0-2-1.93Z" fill="#9191a1"/>
        <path id="Path_101870" data-name="Path 101870" d="M45.87,121.81a1,1,0,0,1-.69-.28,1.05,1.05,0,0,1-.31-.71L43,10.84a1,1,0,0,1,1-1l80-1.39a1,1,0,0,1,1,1l1.92,110a1,1,0,0,1-1,1Z" fill="#fff"/>
        <path id="Path_101871" data-name="Path 101871" d="M123.94,9.43l1.92,110-80,1.4L44,10.82l80-1.39m0-2h0L44,8.82a2,2,0,0,0-2,2l1.92,110a2,2,0,0,0,2,2h0l80-1.4a2,2,0,0,0,1.96-2.03l-1.92-110a2,2,0,0,0-2-2Z" fill="#9191a1"/>
        <rect id="Rectangle_10696" data-name="Rectangle 10696" width="80" height="110" transform="translate(39.91 11.12)" fill="#fff"/>
        <rect id="Rectangle_10697" data-name="Rectangle 10697" width="82" height="112" rx="1" transform="translate(38.91 10.12)" fill="#fff"/>
        <path id="Path_101872" data-name="Path 101872" d="M119.91,11.12v110h-80v-110h80m0-2h-80a2,2,0,0,0-2,2v110a2,2,0,0,0,2,2h80a2,2,0,0,0,2-2v-110A2,2,0,0,0,119.91,9.12Z" fill="#9191a1"/>
        <path id="Path_101873" data-name="Path 101873" d="M42.91,118.12v-107h-3v110h80v-3Z" fill="#dedfe4"/>
        <line id="Line_140" data-name="Line 140" x2="61" transform="translate(49.82 79.15)" fill="none" stroke="#9191a1" stroke-linecap="round" stroke-linejoin="round" stroke-width="2"/>
        <line id="Line_141" data-name="Line 141" x2="61" transform="translate(49.82 89.58)" fill="none" stroke="#9191a1" stroke-linecap="round" stroke-linejoin="round" stroke-width="2"/>
        <line id="Line_142" data-name="Line 142" x2="61" transform="translate(49.82 100)" fill="none" stroke="#9191a1" stroke-linecap="round" stroke-linejoin="round" stroke-width="2"/>
        <line id="Line_143" data-name="Line 143" x2="49" transform="translate(49.82 111)" fill="none" stroke="#9191a1" stroke-linecap="round" stroke-linejoin="round" stroke-width="2" stroke-dasharray="4"/>
        <path id="Path_101874" data-name="Path 101874" d="M54.56,38.54V30.13h3.06a3.83,3.83,0,0,1,2.16.52,1.67,1.67,0,0,1,.76,1.45,1.74,1.74,0,0,1-.46,1.19A2.41,2.41,0,0,1,58.9,34h0a2.26,2.26,0,0,1,1.43.66A1.82,1.82,0,0,1,60.87,36,2.24,2.24,0,0,1,60,37.86a3.45,3.45,0,0,1-2.25.68Zm1.89-7v2h.83a1.41,1.41,0,0,0,.93-.28,1,1,0,0,0,.33-.78q0-.93-1.38-.93Zm0,3.4v2.21h1a1.62,1.62,0,0,0,1-.3,1,1,0,0,0,.37-.83.93.93,0,0,0-.37-.79,1.55,1.55,0,0,0-1-.29Z" fill="#9191a1"/>
        <path id="Path_101875" data-name="Path 101875" d="M67.29,38.54h-5V30.13H67.1v1.55H64.15v1.87h2.74v1.53H64.15V37h3.14Z" fill="#9191a1"/>
        <path id="Path_101876" data-name="Path 101876" d="M76.2,38.54H74.29l-3.46-5.28a6.759,6.759,0,0,1-.43-.7h0c0,.3.05.75.05,1.36v4.62H68.64V30.13h2L74,35.25c.15.23.3.46.42.69h0a9.13,9.13,0,0,1,0-1.16V30.13H76.2Z" fill="#9191a1"/>
        <path id="Path_101877" data-name="Path 101877" d="M83.16,38.54h-5V30.13H83v1.55H80v1.87h2.75v1.53H80V37h3.15Z" fill="#9191a1"/>
        <path id="Path_101878" data-name="Path 101878" d="M89.36,31.68h-3v2.06h2.72v1.53H86.4v3.27H84.51V30.13h4.85Z" fill="#9191a1"/>
        <path id="Path_101879" data-name="Path 101879" d="M92.64,38.54H90.75V30.13h1.89Z" fill="#9191a1"/>
        <path id="Path_101880" data-name="Path 101880" d="M100.45,31.68h-2.4v6.86H96.16V31.68H93.77V30.13h6.68Z" fill="#9191a1"/>
        <path id="Path_101881" data-name="Path 101881" d="M101.19,38.22V36.34a3.45,3.45,0,0,0,1.11.64,3.64,3.64,0,0,0,1.21.22,2.72,2.72,0,0,0,.62-.07,1.32,1.32,0,0,0,.45-.18.61.61,0,0,0,.26-.27.63.63,0,0,0,.09-.33.68.68,0,0,0-.14-.44,1.47,1.47,0,0,0-.38-.36,3.87,3.87,0,0,0-.58-.32l-.72-.31a3.65,3.65,0,0,1-1.47-1,2.19,2.19,0,0,1-.48-1.43,2.36,2.36,0,0,1,.26-1.13,2.31,2.31,0,0,1,.72-.77,2.93,2.93,0,0,1,1-.45,5.2,5.2,0,0,1,1.27-.15,7.92,7.92,0,0,1,1.16.08,5.16,5.16,0,0,1,.94.25v1.75a3,3,0,0,0-.46-.26,4.561,4.561,0,0,0-.52-.18,3.21,3.21,0,0,0-.52-.11,3,3,0,0,0-.5,0,2.58,2.58,0,0,0-.58.06,1.56,1.56,0,0,0-.45.18.88.88,0,0,0-.28.26.62.62,0,0,0-.1.35.7.7,0,0,0,.11.38,1.38,1.38,0,0,0,.32.32,3.69,3.69,0,0,0,.5.29c.19.1.41.19.66.3a7.569,7.569,0,0,1,.9.44,3.18,3.18,0,0,1,.69.54,2.15,2.15,0,0,1,.44.68,2.5,2.5,0,0,1,.15.9,2.39,2.39,0,0,1-.26,1.18,2.15,2.15,0,0,1-.73.77,2.87,2.87,0,0,1-1.06.42,5.85,5.85,0,0,1-1.28.13,7.8,7.8,0,0,1-1.31-.11,4.36,4.36,0,0,1-1.04-.39Z" fill="#9191a1"/>
        <line id="Line_144" data-name="Line 144" x2="61" transform="translate(49.82 58.3)" fill="none" stroke="#9191a1" stroke-linecap="round" stroke-linejoin="round" stroke-width="2"/>
        <line id="Line_145" data-name="Line 145" x2="61" transform="translate(49.82 68.73)" fill="none" stroke="#9191a1" stroke-linecap="round" stroke-linejoin="round" stroke-width="2"/>
        <circle id="Ellipse_2201" data-name="Ellipse 2201" cx="22.61" cy="22.61" r="22.61" transform="translate(103.98 74.21)" fill="#3c75b9"/>
        <path id="Path_101882" data-name="Path 101882" d="M148.72,101.52,104.09,95a22.6,22.6,0,1,1,44.63,6.48Z" fill="#fff" opacity="0.2"/>
        <path id="Path_101883" data-name="Path 101883" d="M144.89,86.13a21.2,21.2,0,1,1-29-7.61,21.2,21.2,0,0,1,29,7.61m1.21-.71a16.522,16.522,0,1,0,.01,0Z" opacity="0.2"/>
        <path id="Path_101884" data-name="Path 101884" d="M141.29,88.23a17,17,0,1,1-10.377-7.889A17,17,0,0,1,141.29,88.23m1.21-.71a18.43,18.43,0,1,0-6.61,25.22A18.43,18.43,0,0,0,142.5,87.52Z" opacity="0.2"/>
        <path id="Path_101637" data-name="Path 101637" d="M123.91,103.69h-.34L118,98.06a.2.2,0,0,1,0-.31h0L119.41,96h.34l3.93,3.94,10-10H134l1.57,1.57a.22.22,0,0,1,0,.32h0Z" fill="#fff"/>
      </g>
    </g>
    <g id="Side_nav" data-name="Side nav" transform="translate(0 65)">
      <path id="Path_5700" data-name="Path 5700" d="M0-1,249.5,0V1014H0V-1Z" transform="translate(0 1)" fill="#fff"/>
      <rect id="Rectangle_5301" data-name="Rectangle 5301" width="60" height="50" transform="translate(0 1)" fill="none" opacity="0.3"/>
      <rect id="Rectangle_4697" data-name="Rectangle 4697" width="249.5" height="50" transform="translate(0.5 1.5)" fill="none"/>
      <g id="Group_264154" data-name="Group 264154">
        <circle id="Ellipse_403" data-name="Ellipse 403" cx="10" cy="10" r="10" transform="translate(20 19)" fill="#f4f4f6"/>
        <rect id="Rectangle_9760" data-name="Rectangle 9760" width="38" height="14" rx="7" transform="translate(60 22)" fill="#f4f4f6"/>
      </g>
      <g id="Group_264153" data-name="Group 264153">
        <circle id="Ellipse_404" data-name="Ellipse 404" cx="10" cy="10" r="10" transform="translate(20 66)" fill="#f4f4f6"/>
        <rect id="Rectangle_9761" data-name="Rectangle 9761" width="137" height="14" rx="7" transform="translate(60 69)" fill="#f4f4f6"/>
      </g>
      <g id="Group_264155" data-name="Group 264155">
        <circle id="Ellipse_405" data-name="Ellipse 405" cx="10" cy="10" r="10" transform="translate(20 116)" fill="#f4f4f6"/>
        <rect id="Rectangle_9762" data-name="Rectangle 9762" width="92" height="14" rx="7" transform="translate(60 119)" fill="#f4f4f6"/>
        <g id="Chevron-down" transform="translate(214.5 116)">
          <g id="Group_8144" data-name="Group 8144">
            <rect id="Rectangle_5318" data-name="Rectangle 5318" width="20" height="20" fill="none"/>
            <path id="Path_5792" data-name="Path 5792" d="M18.75,15.072l1.2,1.2a.25.25,0,0,1,0,.4l-4.75,4.75a.25.25,0,0,1-.4,0l-4.7-4.75a.25.25,0,0,1,0-.4l1.2-1.2a.25.25,0,0,1,.4,0l3.3,3.35,3.35-3.4a.25.25,0,0,1,.4.05Z" transform="translate(-5 -7.472)" fill="#f4f4f6"/>
          </g>
        </g>
      </g>
      <g id="Group_264156" data-name="Group 264156">
        <circle id="Ellipse_406" data-name="Ellipse 406" cx="10" cy="10" r="10" transform="translate(20 166)" fill="#f4f4f6"/>
        <rect id="Rectangle_9763" data-name="Rectangle 9763" width="101" height="14" rx="7" transform="translate(60 169)" fill="#f4f4f6"/>
        <g id="Chevron-down-2" data-name="Chevron-down" transform="translate(214.5 166)">
          <g id="Group_8144-2" data-name="Group 8144">
            <rect id="Rectangle_5318-2" data-name="Rectangle 5318" width="20" height="20" fill="none"/>
            <path id="Path_5792-2" data-name="Path 5792" d="M18.75,15.072l1.2,1.2a.25.25,0,0,1,0,.4l-4.75,4.75a.25.25,0,0,1-.4,0l-4.7-4.75a.25.25,0,0,1,0-.4l1.2-1.2a.25.25,0,0,1,.4,0l3.3,3.35,3.35-3.4a.25.25,0,0,1,.4.05Z" transform="translate(-5 -7.472)" fill="#f4f4f6"/>
          </g>
        </g>
      </g>
      <g id="Group_264157" data-name="Group 264157">
        <circle id="Ellipse_407" data-name="Ellipse 407" cx="10" cy="10" r="10" transform="translate(20 216)" fill="#f4f4f6"/>
        <rect id="Rectangle_9764" data-name="Rectangle 9764" width="74" height="14" rx="7" transform="translate(60 219)" fill="#f4f4f6"/>
        <g id="Chevron-down-3" data-name="Chevron-down" transform="translate(214.5 216)">
          <g id="Group_8144-3" data-name="Group 8144">
            <rect id="Rectangle_5318-3" data-name="Rectangle 5318" width="20" height="20" fill="none"/>
            <path id="Path_5792-3" data-name="Path 5792" d="M18.75,15.072l1.2,1.2a.25.25,0,0,1,0,.4l-4.75,4.75a.25.25,0,0,1-.4,0l-4.7-4.75a.25.25,0,0,1,0-.4l1.2-1.2a.25.25,0,0,1,.4,0l3.3,3.35,3.35-3.4a.25.25,0,0,1,.4.05Z" transform="translate(-5 -7.472)" fill="#f4f4f6"/>
          </g>
        </g>
      </g>
      <g id="Group_264158" data-name="Group 264158">
        <circle id="Ellipse_408" data-name="Ellipse 408" cx="10" cy="10" r="10" transform="translate(20 266)" fill="#f4f4f6"/>
        <rect id="Rectangle_9765" data-name="Rectangle 9765" width="135" height="14" rx="7" transform="translate(60 269)" fill="#f4f4f6"/>
        <g id="Chevron-down-4" data-name="Chevron-down" transform="translate(214.5 266)">
          <g id="Group_8144-4" data-name="Group 8144">
            <rect id="Rectangle_5318-4" data-name="Rectangle 5318" width="20" height="20" fill="none"/>
            <path id="Path_5792-4" data-name="Path 5792" d="M18.75,15.072l1.2,1.2a.25.25,0,0,1,0,.4l-4.75,4.75a.25.25,0,0,1-.4,0l-4.7-4.75a.25.25,0,0,1,0-.4l1.2-1.2a.25.25,0,0,1,.4,0l3.3,3.35,3.35-3.4a.25.25,0,0,1,.4.05Z" transform="translate(-5 -7.472)" fill="#f4f4f6"/>
          </g>
        </g>
      </g>
      <g id="Group_264159" data-name="Group 264159">
        <circle id="Ellipse_409" data-name="Ellipse 409" cx="10" cy="10" r="10" transform="translate(20 316)" fill="#f4f4f6"/>
        <rect id="Rectangle_9766" data-name="Rectangle 9766" width="117" height="14" rx="7" transform="translate(60 319)" fill="#f4f4f6"/>
        <g id="Chevron-down-5" data-name="Chevron-down" transform="translate(214.5 316)">
          <g id="Group_8144-5" data-name="Group 8144">
            <rect id="Rectangle_5318-5" data-name="Rectangle 5318" width="20" height="20" fill="none"/>
            <path id="Path_5792-5" data-name="Path 5792" d="M18.75,15.072l1.2,1.2a.25.25,0,0,1,0,.4l-4.75,4.75a.25.25,0,0,1-.4,0l-4.7-4.75a.25.25,0,0,1,0-.4l1.2-1.2a.25.25,0,0,1,.4,0l3.3,3.35,3.35-3.4a.25.25,0,0,1,.4.05Z" transform="translate(-5 -7.472)" fill="#f4f4f6"/>
          </g>
        </g>
      </g>
      <g id="Group_264160" data-name="Group 264160">
        <circle id="Ellipse_410" data-name="Ellipse 410" cx="10" cy="10" r="10" transform="translate(20 366)" fill="#f4f4f6"/>
        <rect id="Rectangle_9767" data-name="Rectangle 9767" width="59" height="14" rx="7" transform="translate(60 369)" fill="#f4f4f6"/>
        <g id="Chevron-down-6" data-name="Chevron-down" transform="translate(214.5 366)">
          <g id="Group_8144-6" data-name="Group 8144">
            <rect id="Rectangle_5318-6" data-name="Rectangle 5318" width="20" height="20" fill="none"/>
            <path id="Path_5792-6" data-name="Path 5792" d="M18.75,15.072l1.2,1.2a.25.25,0,0,1,0,.4l-4.75,4.75a.25.25,0,0,1-.4,0l-4.7-4.75a.25.25,0,0,1,0-.4l1.2-1.2a.25.25,0,0,1,.4,0l3.3,3.35,3.35-3.4a.25.25,0,0,1,.4.05Z" transform="translate(-5 -7.472)" fill="#f4f4f6"/>
          </g>
        </g>
      </g>
      <g id="Group_264137" data-name="Group 264137" transform="translate(0 43)">
        <g id="Group_264161" data-name="Group 264161">
          <circle id="Ellipse_411" data-name="Ellipse 411" cx="10" cy="10" r="10" transform="translate(20 831)" fill="#f4f4f6"/>
          <rect id="Rectangle_9768" data-name="Rectangle 9768" width="50" height="14" rx="7" transform="translate(60 834)" fill="#f4f4f6"/>
        </g>
        <g id="Group_264163" data-name="Group 264163">
          <circle id="Ellipse_412" data-name="Ellipse 412" cx="10" cy="10" r="10" transform="translate(20 882)" fill="#f4f4f6"/>
          <rect id="Rectangle_9769" data-name="Rectangle 9769" width="109" height="14" rx="7" transform="translate(60 885)" fill="#f4f4f6"/>
        </g>
        <g id="Group_264162" data-name="Group 264162">
          <circle id="Ellipse_413" data-name="Ellipse 413" cx="10" cy="10" r="10" transform="translate(20 932)" fill="#f4f4f6"/>
          <rect id="Rectangle_9770" data-name="Rectangle 9770" width="55" height="14" rx="7" transform="translate(60 935)" fill="#f4f4f6"/>
        </g>
        <rect id="Rectangle_9771" data-name="Rectangle 9771" width="249.5" height="1" transform="translate(0 917)" fill="#f9f9fa"/>
      </g>
    </g>
    <g id="Top_Bar" data-name="Top Bar">
      <rect id="Rectangle_1" data-name="Rectangle 1" width="1920" height="60" fill="#fff"/>
      <path id="Path_5690" data-name="Path 5690" d="M0,0H1920V5H0Z" transform="translate(0 60)" fill="#2777d3"/>
      <g id="Group_12278" data-name="Group 12278" transform="translate(1712)">
        <rect id="Rectangle_5392" data-name="Rectangle 5392" width="208" height="60" fill="none"/>
        <g id="Group_8927" data-name="Group 8927" transform="translate(72 14)">
          <text id="Adam_Gilson" data-name="Adam Gilson" transform="translate(81 15)" fill="#494955" font-size="14" font-family="SegoeUI-Semibold, Segoe UI" font-weight="600"><tspan x="-81.033" y="0">Adam Gilson</tspan></text>
        </g>
        <circle id="Ellipse_402" data-name="Ellipse 402" cx="18" cy="18" r="18" transform="translate(162 13)" fill="#78788c"/>
        <text id="Willis_Insurance_-_Nashville" data-name="Willis Insurance - Nashville" transform="translate(153 45)" fill="#494955" font-size="12" font-family="SegoeUI, Segoe UI"><tspan x="-141.047" y="0">Willis Insurance - Nashville</tspan></text>
        <text id="AG" transform="translate(171 36)" fill="#fff" font-size="14" font-family="SegoeUI-Semibold, Segoe UI" font-weight="600"><tspan x="0" y="0">AG</tspan></text>
      </g>
      <g id="Group_70" data-name="Group 70" transform="translate(-3.8)">
        <g id="Rectangle_2" data-name="Rectangle 2" transform="translate(254.8 9)" fill="#fff" stroke="#dbdbdb" stroke-width="1">
          <rect width="390" height="42" rx="2" stroke="none"/>
          <rect x="0.5" y="0.5" width="389" height="41" rx="1.5" fill="none"/>
        </g>
        <text id="Search" transform="translate(268.8 36)" fill="#c6c6c6" font-size="14" font-family="OpenSans-Regular, Open Sans"><tspan x="0" y="0">Search</tspan></text>
        <path id="Rectangle_3" data-name="Rectangle 3" d="M0,0H47a1,1,0,0,1,1,1V39a1,1,0,0,1-1,1H0a0,0,0,0,1,0,0V0A0,0,0,0,1,0,0Z" transform="translate(595.8 10)" fill="#fafafa"/>
        <rect id="Rectangle_4" data-name="Rectangle 4" width="1" height="40" transform="translate(595.8 10)" fill="#ebebeb"/>
        <path id="Path_3" data-name="Path 3" d="M303.8,258.3l-5-5a6.354,6.354,0,0,0,1.1-4.9,6.471,6.471,0,0,0-5.6-5.3,6.53,6.53,0,0,0-2,12.9,6.914,6.914,0,0,0,4.9-1.1l5,5a1.088,1.088,0,0,0,1.5,0A1.222,1.222,0,0,0,303.8,258.3Zm-14.7-9.5a4.458,4.458,0,0,1,3.7-3.7,4.57,4.57,0,0,1,5.2,5.2,4.458,4.458,0,0,1-3.7,3.7A4.609,4.609,0,0,1,289.1,248.8Z" transform="translate(324.8 -222.052)" fill="#5786bd"/>
        <path id="Path_4" data-name="Path 4" d="M284.1,240h24v24h-24Z" transform="translate(327.8 -222)" fill="none"/>
        <rect id="Rectangle_6" data-name="Rectangle 6" width="24" height="24" transform="translate(611.8 18)" fill="none"/>
        <rect id="Rectangle_7" data-name="Rectangle 7" width="24" height="24" transform="translate(571.8 18)" fill="none"/>
      </g>
      <g id="Group_264060" data-name="Group 264060" transform="translate(-1 -4)">
        <rect id="Rectangle_6838" data-name="Rectangle 6838" width="5" height="5" rx="1" transform="translate(20 26)" fill="#8b8d8e"/>
        <rect id="Rectangle_6838-2" data-name="Rectangle 6838" width="5" height="5" rx="1" transform="translate(27 26)" fill="#8b8d8e"/>
        <rect id="Rectangle_6838-3" data-name="Rectangle 6838" width="5" height="5" rx="1" transform="translate(34 26)" fill="#8b8d8e"/>
        <rect id="Rectangle_6838-4" data-name="Rectangle 6838" width="5" height="5" rx="1" transform="translate(20 33)" fill="#8b8d8e"/>
        <rect id="Rectangle_6838-5" data-name="Rectangle 6838" width="5" height="5" rx="1" transform="translate(27 33)" fill="#8b8d8e"/>
        <rect id="Rectangle_6838-6" data-name="Rectangle 6838" width="5" height="5" rx="1" transform="translate(34 33)" fill="#8b8d8e"/>
        <rect id="Rectangle_6838-7" data-name="Rectangle 6838" width="5" height="5" rx="1" transform="translate(20 40)" fill="#8b8d8e"/>
        <rect id="Rectangle_6838-8" data-name="Rectangle 6838" width="5" height="5" rx="1" transform="translate(27 40)" fill="#8b8d8e"/>
        <rect id="Rectangle_6838-9" data-name="Rectangle 6838" width="5" height="5" rx="1" transform="translate(34 40)" fill="#8b8d8e"/>
        <g id="Group_8109" data-name="Group 8109" transform="translate(-179.611 -26.669)">
          <g id="Group_8108" data-name="Group 8108" transform="translate(240.611 52.669)">
            <path id="Path_5691" data-name="Path 5691" d="M338.172,52.669l-5.535,12.224L327.1,52.669h-2.214l7.75,17.142,7.756-17.142Z" transform="translate(-253.576 -52.669)" fill="#8b8d8e"/>
            <path id="Path_5692" data-name="Path 5692" d="M319.588,69.811h2.219l-7.739-17.142h-.847l-7.739,17.142h2.225l1.7-3.794h8.485ZM310.31,64l3.332-7.348L316.975,64Z" transform="translate(-250.591 -52.669)" fill="#8b8d8e"/>
            <path id="Path_5693" data-name="Path 5693" d="M349.812,61.923h6.161V59.9h-6.161V54.682h6.7l1.075-2.013h-9.8V69.811h8.739l1.075-2.063h-7.792Z" transform="translate(-257.1 -52.669)" fill="#8b8d8e"/>
            <path id="Path_5694" data-name="Path 5694" d="M298.3,52.669,292.8,64.892,287.9,54.155l-4.864,10.737-5.318-12.223h-3.3l-2.965,6.545,1.111,2.457,3.4-7.509,7.068,15.648L287.9,59.054,292.8,69.811l7.706-17.142Z" transform="translate(-245.356 -52.669)" fill="#8b8d8e"/>
            <path id="Path_5695" data-name="Path 5695" d="M244.327,67.767l9.815-15.09h-11.9l-.918,2.008h9.1l-9.814,15.09h13.52l.908-2.008Z" transform="translate(-240.611 -52.67)" fill="#8b8d8e"/>
          </g>
          <path id="Path_5696" data-name="Path 5696" d="M264.519,52.669h-4.4l4.955,11-4.955,11h4.4l4.987-11Z" transform="translate(-3.001)" fill="#5fb53b"/>
        </g>
      </g>
    </g>
    <g id="Top_Bar-2" data-name="Top Bar">
      <rect id="Rectangle_1-2" data-name="Rectangle 1" width="1920" height="60" fill="#fff"/>
      <rect id="Rectangle_10685" data-name="Rectangle 10685" width="100" height="36" rx="18" transform="translate(10 13)" fill="#f4f4f6"/>
      <path id="Path_5690-2" data-name="Path 5690" d="M0,0H1920V5H0Z" transform="translate(0 60)" fill="#cbcbd2"/>
      <g id="Group_12278-2" data-name="Group 12278" transform="translate(1712)">
        <rect id="Rectangle_5392-2" data-name="Rectangle 5392" width="208" height="60" fill="none"/>
        <circle id="Ellipse_402-2" data-name="Ellipse 402" cx="18" cy="18" r="18" transform="translate(162 13)" fill="#f4f4f6"/>
        <rect id="Rectangle_9756" data-name="Rectangle 9756" width="81" height="12" rx="6" transform="translate(72 18)" fill="#f4f4f6"/>
        <rect id="Rectangle_9757" data-name="Rectangle 9757" width="140" height="12" rx="6" transform="translate(13 34)" fill="#f4f4f6"/>
      </g>
    </g>
    <line id="Line_146" data-name="Line 146" y2="336" transform="translate(1079.5 334.5)" fill="none" stroke="#e6e6ea" stroke-width="1"/>
    <rect id="Rectangle_10708" data-name="Rectangle 10708" width="110" height="13" rx="6.5" transform="translate(599 511)" fill="#e6e6ea"/>
    <rect id="Rectangle_10709" data-name="Rectangle 10709" width="310" height="13" rx="6.5" transform="translate(622 544)" fill="#e6e6ea"/>
    <rect id="Rectangle_10710" data-name="Rectangle 10710" width="264" height="13" rx="6.5" transform="translate(622 577)" fill="#e6e6ea"/>
    <rect id="Rectangle_10711" data-name="Rectangle 10711" width="13" height="13" rx="6.5" transform="translate(599 544)" fill="#e6e6ea"/>
    <rect id="Rectangle_10712" data-name="Rectangle 10712" width="13" height="13" rx="6.5" transform="translate(599 577)" fill="#e6e6ea"/>
    <text id="There_are_no_alternative_plans_available_to_apply_contribution_strategy._Please_select_alternative_plan_options_to_see_cost_breakdown." data-name="There are no alternative plans available to apply 
contribution strategy. Please select alternative plan 
options to see cost breakdown." transform="translate(1321 575)" fill="#31313a" font-size="14" font-family="SegoeUI, Segoe UI"><tspan x="-149.321" y="0">There are no alternative plans available to apply </tspan><tspan x="-158.628" y="19">contribution strategy. Please select alternative plan </tspan><tspan x="-96.441" y="38">options to see cost breakdown.</tspan></text>
    <g id="Secondary_Button" data-name="Secondary Button" transform="translate(1233 637)">
      <g id="Rectangle_3991" data-name="Rectangle 3991" fill="none" stroke="#cbcbd2" stroke-width="1">
        <rect width="176" height="36" rx="18" stroke="none"/>
        <rect x="0.5" y="0.5" width="175" height="35" rx="17.5" fill="none"/>
      </g>
      <text id="Select_alternative_plans" data-name="Select alternative plans" transform="translate(15 23)" fill="#2777d3" font-size="14" font-family="SegoeUI-Semibold, Segoe UI" font-weight="600"><tspan x="0" y="0">Select alternative plans</tspan></text>
    </g>
  </g>
</svg>
