<svg xmlns="http://www.w3.org/2000/svg" xmlns:xlink="http://www.w3.org/1999/xlink" width="485" height="215" viewBox="0 0 485 215">
  <defs>
    <filter id="Rectangle_10023" x="163.5" y="63.5" width="159" height="127" filterUnits="userSpaceOnUse">
      <feOffset dy="1" input="SourceAlpha"/>
      <feGaussianBlur stdDeviation="1.5" result="blur"/>
      <feFlood flood-opacity="0.161"/>
      <feComposite operator="in" in2="blur"/>
      <feComposite in="SourceGraphic"/>
    </filter>
    <clipPath id="clip-Options_Do">
      <rect width="485" height="215"/>
    </clipPath>
  </defs>
  <g id="Options_Do" clip-path="url(#clip-Options_Do)">
    <rect width="485" height="215" fill="#f4f4f6"/>
    <g id="Dropdown_options" data-name="Dropdown options" transform="translate(152 31)">
      <g transform="matrix(1, 0, 0, 1, -152, -31)" filter="url(#Rectangle_10023)">
        <rect id="Rectangle_10023-2" data-name="Rectangle 10023" width="150" height="118" transform="translate(168 67)" fill="#fff"/>
      </g>
      <g id="dropdown_item" data-name="dropdown item" transform="translate(16 42)">
        <rect id="Rectangle_4665" data-name="Rectangle 4665" width="150" height="36" fill="#fff"/>
        <path id="Path_101530" data-name="Path 101530" d="M6.48,0h-5.2V-9.8H6.262v1.039H2.434V-5.5H5.975v1.032H2.434v3.432H6.48Zm7.711,0H13.07V-1.189h-.027A2.588,2.588,0,0,1,10.637.164a2.615,2.615,0,0,1-2.109-.94,3.856,3.856,0,0,1-.79-2.56,4.2,4.2,0,0,1,.875-2.782,2.886,2.886,0,0,1,2.331-1.046,2.244,2.244,0,0,1,2.1,1.135h.027v-4.334h1.121ZM13.07-3.165V-4.2a2,2,0,0,0-.561-1.436,1.88,1.88,0,0,0-1.422-.588,1.936,1.936,0,0,0-1.613.752,3.3,3.3,0,0,0-.588,2.078A2.964,2.964,0,0,0,9.451-1.48a1.843,1.843,0,0,0,1.514.7,1.915,1.915,0,0,0,1.521-.677A2.521,2.521,0,0,0,13.07-3.165Zm3.965-5.612a.71.71,0,0,1-.513-.205.692.692,0,0,1-.212-.52.7.7,0,0,1,.212-.523.7.7,0,0,1,.513-.208.724.724,0,0,1,.523.208.7.7,0,0,1,.215.523.693.693,0,0,1-.215.513A.718.718,0,0,1,17.035-8.777ZM17.582,0H16.461V-7h1.121ZM23.1-.068A2.161,2.161,0,0,1,22.053.15Q20.214.15,20.214-1.9V-6.043h-1.2V-7h1.2V-8.709l1.121-.362V-7H23.1v.957H21.335V-2.1a1.635,1.635,0,0,0,.239,1,.955.955,0,0,0,.793.3,1.179,1.179,0,0,0,.731-.232Z" transform="translate(41 22)" fill="#494955"/>
        <g id="Edit" transform="translate(15 9)">
          <g id="Group_264662" data-name="Group 264662">
            <path id="Path_101496" data-name="Path 101496" d="M14.4,5.8c.7-.8,1.7-1.9.3-3.3s-2.6-2.7-4.5-.9L2.3,9.5a3.1,3.1,0,0,0-.8,1.7L.6,14.8a.5.5,0,0,0,.6.6l4.1-1a2.7,2.7,0,0,0,1.3-.7ZM12.8,2c1.1,1.2,2.4,1.7.9,3.1L10.9,2.3C11.4,1.9,11.9,1.1,12.8,2ZM1.9,13.5,2.3,12,4,13.7C3.4,13.8,1.8,14.6,1.9,13.5Zm3-.3L2.8,11.1a.5.5,0,0,1,0-.7L10.2,3h.1L13,5.7v.1L5.6,13.2A.5.5,0,0,1,4.9,13.2Zm-.4-1.8a.5.5,0,0,0,.7,0l5.6-5.6a.5.5,0,0,0-.7-.7L4.6,10.7a.5.5,0,0,0,0,.7Z" fill="#494955"/>
            <rect id="Rectangle_10033" data-name="Rectangle 10033" width="16" height="16" fill="none"/>
          </g>
        </g>
      </g>
      <g id="dropdown_item-2" data-name="dropdown item" transform="translate(16 78)">
        <rect id="Rectangle_4665-2" data-name="Rectangle 4665" width="150" height="36" fill="#fff"/>
        <path id="Path_101531" data-name="Path 101531" d="M1.285,0V-9.8H3.992q5.182,0,5.182,4.778A4.815,4.815,0,0,1,7.735-1.377,5.338,5.338,0,0,1,3.883,0ZM2.434-8.764v7.725H3.9a4.152,4.152,0,0,0,3-1.032A3.869,3.869,0,0,0,7.971-5q0-3.767-4.006-3.767ZM16.611,0H15.49V-1.107h-.027A2.3,2.3,0,0,1,13.3.164q-2.5,0-2.5-2.98V-7h1.114v4.006q0,2.215,1.7,2.215a1.715,1.715,0,0,0,1.35-.6,2.315,2.315,0,0,0,.53-1.583V-7h1.121Zm3.411-1.012H20V3.22H18.874V-7H20v1.23h.027a2.651,2.651,0,0,1,2.42-1.395,2.563,2.563,0,0,1,2.112.94,3.893,3.893,0,0,1,.759,2.519,4.339,4.339,0,0,1-.854,2.813A2.845,2.845,0,0,1,22.121.164,2.342,2.342,0,0,1,20.022-1.012ZM20-3.835v.978a2.081,2.081,0,0,0,.564,1.473,1.873,1.873,0,0,0,1.432.6,1.876,1.876,0,0,0,1.6-.779,3.575,3.575,0,0,0,.578-2.167,2.822,2.822,0,0,0-.54-1.832,1.787,1.787,0,0,0-1.463-.663,1.986,1.986,0,0,0-1.572.68A2.5,2.5,0,0,0,20-3.835ZM28.226,0H27.1V-10.363h1.121Zm2.844-8.777a.71.71,0,0,1-.513-.205.692.692,0,0,1-.212-.52.7.7,0,0,1,.212-.523.7.7,0,0,1,.513-.208.724.724,0,0,1,.523.208.7.7,0,0,1,.215.523.693.693,0,0,1-.215.513A.718.718,0,0,1,31.069-8.777ZM31.616,0H30.5V-7h1.121Zm7.041-.321a3.643,3.643,0,0,1-1.914.485A3.169,3.169,0,0,1,34.327-.81a3.53,3.53,0,0,1-.919-2.526A3.881,3.881,0,0,1,34.4-6.115a3.468,3.468,0,0,1,2.646-1.049,3.682,3.682,0,0,1,1.627.342v1.148A2.85,2.85,0,0,0,37-6.221a2.254,2.254,0,0,0-1.76.769,2.918,2.918,0,0,0-.687,2.02A2.779,2.779,0,0,0,35.2-1.49a2.227,2.227,0,0,0,1.733.711,2.81,2.81,0,0,0,1.723-.608ZM45.363,0H44.242V-1.094h-.027A2.347,2.347,0,0,1,42.062.164,2.3,2.3,0,0,1,40.424-.39a1.918,1.918,0,0,1-.591-1.47q0-1.962,2.311-2.283l2.1-.294q0-1.784-1.442-1.784a3.446,3.446,0,0,0-2.283.861V-6.508A4.338,4.338,0,0,1,42.9-7.164q2.468,0,2.468,2.611ZM44.242-3.541l-1.688.232a2.741,2.741,0,0,0-1.176.386,1.114,1.114,0,0,0-.4.981,1.068,1.068,0,0,0,.366.837,1.413,1.413,0,0,0,.974.325A1.8,1.8,0,0,0,43.7-1.364a2.088,2.088,0,0,0,.543-1.48Zm6.48,3.473A2.161,2.161,0,0,1,49.677.15Q47.838.15,47.838-1.9V-6.043h-1.2V-7h1.2V-8.709l1.121-.362V-7h1.764v.957H48.959V-2.1a1.635,1.635,0,0,0,.239,1,.955.955,0,0,0,.793.3,1.179,1.179,0,0,0,.731-.232ZM57.846-3.22H52.9a2.618,2.618,0,0,0,.629,1.8,2.168,2.168,0,0,0,1.654.636,3.439,3.439,0,0,0,2.174-.779V-.506a4.063,4.063,0,0,1-2.44.67A2.959,2.959,0,0,1,52.589-.79a3.9,3.9,0,0,1-.848-2.683,3.828,3.828,0,0,1,.926-2.663,2.97,2.97,0,0,1,2.3-1.029,2.632,2.632,0,0,1,2.126.889,3.705,3.705,0,0,1,.752,2.468ZM56.7-4.17a2.281,2.281,0,0,0-.468-1.511,1.6,1.6,0,0,0-1.282-.54,1.811,1.811,0,0,0-1.347.567,2.575,2.575,0,0,0-.684,1.483Z" transform="translate(41 22)" fill="#494955"/>
        <g id="copy" transform="translate(15 9)">
          <g id="Group_264663" data-name="Group 264663" transform="translate(0)">
            <path id="Path_101497" data-name="Path 101497" d="M16,15.2V4.8a.8.8,0,0,0-.8-.8H12V.8a.8.8,0,0,0-.8-.8H.8A.8.8,0,0,0,0,.8V11.2a.8.8,0,0,0,.8.8H4v3.2a.8.8,0,0,0,.8.8H15.2A.8.8,0,0,0,16,15.2ZM1.3,10.7V1.3h9.3V4H4v6.7Zm4,4V5.3h9.3v9.3Z" transform="translate(0)" fill="#494955"/>
            <rect id="Rectangle_10034" data-name="Rectangle 10034" width="16" height="16" transform="translate(16) rotate(90)" fill="none"/>
          </g>
        </g>
      </g>
      <g id="dropdown_item-3" data-name="dropdown item" transform="translate(16 114)">
        <rect id="Rectangle_4665-3" data-name="Rectangle 4665" width="150" height="36" fill="#fff"/>
        <path id="Path_101532" data-name="Path 101532" d="M1.285,0V-9.8H3.992q5.182,0,5.182,4.778A4.815,4.815,0,0,1,7.735-1.377,5.338,5.338,0,0,1,3.883,0ZM2.434-8.764v7.725H3.9a4.152,4.152,0,0,0,3-1.032A3.869,3.869,0,0,0,7.971-5q0-3.767-4.006-3.767ZM16.577-3.22H11.635a2.618,2.618,0,0,0,.629,1.8,2.168,2.168,0,0,0,1.654.636,3.439,3.439,0,0,0,2.174-.779V-.506a4.063,4.063,0,0,1-2.44.67A2.959,2.959,0,0,1,11.32-.79a3.9,3.9,0,0,1-.848-2.683A3.828,3.828,0,0,1,11.4-6.135a2.97,2.97,0,0,1,2.3-1.029,2.632,2.632,0,0,1,2.126.889,3.705,3.705,0,0,1,.752,2.468Zm-1.148-.95a2.281,2.281,0,0,0-.468-1.511,1.6,1.6,0,0,0-1.282-.54,1.811,1.811,0,0,0-1.347.567,2.575,2.575,0,0,0-.684,1.483ZM19.394,0H18.272V-10.363h1.121Zm7.9-3.22H22.347a2.618,2.618,0,0,0,.629,1.8,2.168,2.168,0,0,0,1.654.636A3.439,3.439,0,0,0,26.8-1.559V-.506a4.063,4.063,0,0,1-2.44.67A2.959,2.959,0,0,1,22.032-.79a3.9,3.9,0,0,1-.848-2.683,3.828,3.828,0,0,1,.926-2.663,2.97,2.97,0,0,1,2.3-1.029,2.632,2.632,0,0,1,2.126.889,3.705,3.705,0,0,1,.752,2.468Zm-1.148-.95a2.281,2.281,0,0,0-.468-1.511,1.6,1.6,0,0,0-1.282-.54,1.811,1.811,0,0,0-1.347.567A2.575,2.575,0,0,0,22.36-4.17Zm6.091,4.1A2.161,2.161,0,0,1,31.186.15Q29.347.15,29.347-1.9V-6.043h-1.2V-7h1.2V-8.709l1.121-.362V-7h1.764v.957H30.468V-2.1a1.635,1.635,0,0,0,.239,1,.955.955,0,0,0,.793.3,1.179,1.179,0,0,0,.731-.232ZM39.354-3.22H34.412a2.618,2.618,0,0,0,.629,1.8A2.168,2.168,0,0,0,36.7-.779a3.439,3.439,0,0,0,2.174-.779V-.506a4.063,4.063,0,0,1-2.44.67A2.959,2.959,0,0,1,34.1-.79a3.9,3.9,0,0,1-.848-2.683,3.828,3.828,0,0,1,.926-2.663,2.97,2.97,0,0,1,2.3-1.029,2.632,2.632,0,0,1,2.126.889,3.705,3.705,0,0,1,.752,2.468Zm-1.148-.95a2.281,2.281,0,0,0-.468-1.511,1.6,1.6,0,0,0-1.282-.54,1.811,1.811,0,0,0-1.347.567,2.575,2.575,0,0,0-.684,1.483Z" transform="translate(41 22)" fill="#494955"/>
        <g id="Delete" transform="translate(15 8.993)">
          <g id="Group_264665" data-name="Group 264665">
            <g id="Group_264664" data-name="Group 264664" transform="translate(1.4)">
              <path id="Path_101498" data-name="Path 101498" d="M13.9,2.1h-3V.7a.7.7,0,0,0-.7-.7H5.8a.7.7,0,0,0-.7.7V2.1h-3a.7.7,0,0,0-.7.7v.9h.8V15.3A.7.7,0,0,0,3,16H13a.7.7,0,0,0,.7-.7V3.7h.8V2.8a.7.7,0,0,0-.6-.7ZM6.4.8H9.6V2.1H6.4Zm6.2,13.7a.2.2,0,0,1-.2.2H3.7a.2.2,0,0,1-.2-.2V3.7h9Z" transform="translate(-1.4)" fill="#494955"/>
              <rect id="Rectangle_10035" data-name="Rectangle 10035" width="1.2" height="8.21" rx="0.2" transform="translate(4.1 5.3)" fill="#494955"/>
              <rect id="Rectangle_10036" data-name="Rectangle 10036" width="1.2" height="8.21" rx="0.2" transform="translate(7.8 5.3)" fill="#494955"/>
            </g>
            <rect id="Rectangle_10037" data-name="Rectangle 10037" width="16" height="16" transform="translate(0 0.007)" fill="none"/>
          </g>
        </g>
      </g>
    </g>
    <g id="Group_264632" data-name="Group 264632" transform="translate(168 31)">
      <path id="Rectangle_3990" data-name="Rectangle 3990" d="M18,1A17,17,0,0,0,5.979,30.021,17,17,0,0,0,30.021,5.979,16.889,16.889,0,0,0,18,1m0-1A18,18,0,1,1,0,18,18,18,0,0,1,18,0Z" fill="#1f5ea8"/>
      <g id="More" transform="translate(18 18)">
        <g id="Group_264638" data-name="Group 264638" transform="translate(-8 -8)">
          <g id="Group_264637" data-name="Group 264637">
            <circle id="Ellipse_1" data-name="Ellipse 1" cx="2" cy="2" r="2" transform="translate(0 6)" fill="#2777d3"/>
            <circle id="Ellipse_2" data-name="Ellipse 2" cx="2" cy="2" r="2" transform="translate(6 6)" fill="#2777d3"/>
            <circle id="Ellipse_3" data-name="Ellipse 3" cx="2" cy="2" r="2" transform="translate(12 6)" fill="#2777d3"/>
          </g>
          <rect id="Rectangle_10024" data-name="Rectangle 10024" width="16" height="16" fill="none"/>
        </g>
      </g>
    </g>
  </g>
</svg>
