<svg xmlns="http://www.w3.org/2000/svg" xmlns:xlink="http://www.w3.org/1999/xlink" width="1000" height="215" viewBox="0 0 1000 215">
  <defs>
    <filter id="Rectangle_10023" x="314.5" y="63.5" width="159" height="127" filterUnits="userSpaceOnUse">
      <feOffset dy="1" input="SourceAlpha"/>
      <feGaussianBlur stdDeviation="1.5" result="blur"/>
      <feFlood flood-opacity="0.161"/>
      <feComposite operator="in" in2="blur"/>
      <feComposite in="SourceGraphic"/>
    </filter>
    <filter id="Rectangle_10023-2" x="576.5" y="63.5" width="159" height="127" filterUnits="userSpaceOnUse">
      <feOffset dy="1" input="SourceAlpha"/>
      <feGaussianBlur stdDeviation="1.5" result="blur-2"/>
      <feFlood flood-opacity="0.161"/>
      <feComposite operator="in" in2="blur-2"/>
      <feComposite in="SourceGraphic"/>
    </filter>
    <clipPath id="clip-option_states">
      <rect width="1000" height="215"/>
    </clipPath>
  </defs>
  <g id="option_states" clip-path="url(#clip-option_states)">
    <rect width="1000" height="215" fill="#f4f4f6"/>
    <g id="Dropdown_options" data-name="Dropdown options" transform="translate(303 31)">
      <g transform="matrix(1, 0, 0, 1, -303, -31)" filter="url(#Rectangle_10023)">
        <rect id="Rectangle_10023-3" data-name="Rectangle 10023" width="150" height="118" transform="translate(319 67)" fill="#fff"/>
      </g>
      <g id="dropdown_item" data-name="dropdown item" transform="translate(16 42)">
        <rect id="Rectangle_4665" data-name="Rectangle 4665" width="150" height="36" fill="#fff"/>
        <path id="Path_101536" data-name="Path 101536" d="M2.434-3.705V0H1.285V-9.8H3.979a3.555,3.555,0,0,1,2.437.766,2.734,2.734,0,0,1,.865,2.16,2.971,2.971,0,0,1-.96,2.283,3.67,3.67,0,0,1-2.594.889Zm0-5.059v4.02h1.2a2.69,2.69,0,0,0,1.815-.543,1.924,1.924,0,0,0,.625-1.535q0-1.941-2.3-1.941ZM9.126,0V-9.8h2.707q5.182,0,5.182,4.778a4.815,4.815,0,0,1-1.439,3.647A5.338,5.338,0,0,1,11.724,0Zm1.148-8.764v7.725h1.463a4.152,4.152,0,0,0,3-1.032A3.869,3.869,0,0,0,15.812-5q0-3.767-4.006-3.767Zm13.645,0H20.091v3.391h3.541v1.032H20.091V0H18.942V-9.8h4.977Z" transform="translate(15 22)" fill="#494955"/>
      </g>
      <g id="dropdown_item-2" data-name="dropdown item" transform="translate(16 78)">
        <rect id="Rectangle_4665-2" data-name="Rectangle 4665" width="150" height="36" fill="#f4f4f6"/>
        <path id="Path_101537" data-name="Path 101537" d="M6.48,0h-5.2V-9.8H6.262v1.039H2.434V-5.5H5.975v1.032H2.434v3.432H6.48Zm6.85-7L10.979-3.459,13.289,0H11.983L10.609-2.27q-.13-.212-.308-.533h-.027q-.034.062-.321.533L8.552,0H7.26L9.646-3.432,7.362-7H8.668l1.354,2.393q.15.267.294.547h.027L12.093-7ZM19.414-.321A3.643,3.643,0,0,1,17.5.164,3.169,3.169,0,0,1,15.083-.81a3.53,3.53,0,0,1-.919-2.526,3.881,3.881,0,0,1,.991-2.779A3.467,3.467,0,0,1,17.8-7.164a3.682,3.682,0,0,1,1.627.342v1.148a2.85,2.85,0,0,0-1.668-.547A2.254,2.254,0,0,0,16-5.452a2.918,2.918,0,0,0-.687,2.02,2.779,2.779,0,0,0,.646,1.941,2.227,2.227,0,0,0,1.733.711,2.81,2.81,0,0,0,1.723-.608Zm7.321-2.9H21.793a2.618,2.618,0,0,0,.629,1.8,2.168,2.168,0,0,0,1.654.636,3.439,3.439,0,0,0,2.174-.779V-.506a4.063,4.063,0,0,1-2.44.67A2.959,2.959,0,0,1,21.479-.79a3.9,3.9,0,0,1-.848-2.683,3.828,3.828,0,0,1,.926-2.663,2.97,2.97,0,0,1,2.3-1.029,2.632,2.632,0,0,1,2.126.889,3.705,3.705,0,0,1,.752,2.468Zm-1.148-.95a2.281,2.281,0,0,0-.468-1.511,1.6,1.6,0,0,0-1.282-.54,1.811,1.811,0,0,0-1.347.567,2.575,2.575,0,0,0-.684,1.483ZM29.552,0H28.431V-10.363h1.121Z" transform="translate(15 22)" fill="#494955"/>
      </g>
      <g id="dropdown_item-3" data-name="dropdown item" transform="translate(16 114)">
        <rect id="Rectangle_4665-3" data-name="Rectangle 4665" width="150" height="36" fill="#fff"/>
        <path id="Path_101538" data-name="Path 101538" d="M2.434-3.705V0H1.285V-9.8H3.979a3.555,3.555,0,0,1,2.437.766,2.734,2.734,0,0,1,.865,2.16,2.971,2.971,0,0,1-.96,2.283,3.67,3.67,0,0,1-2.594.889Zm0-5.059v4.02h1.2a2.69,2.69,0,0,0,1.815-.543,1.924,1.924,0,0,0,.625-1.535q0-1.941-2.3-1.941ZM11.382.164A3.247,3.247,0,0,1,8.9-.817a3.634,3.634,0,0,1-.926-2.6,3.785,3.785,0,0,1,.964-2.755,3.465,3.465,0,0,1,2.6-.991A3.14,3.14,0,0,1,13.99-6.2a3.822,3.822,0,0,1,.878,2.673,3.761,3.761,0,0,1-.947,2.683A3.317,3.317,0,0,1,11.382.164Zm.082-6.385a2.132,2.132,0,0,0-1.709.735,3.018,3.018,0,0,0-.629,2.027A2.854,2.854,0,0,0,9.762-1.5a2.161,2.161,0,0,0,1.7.718,2.049,2.049,0,0,0,1.671-.7,3.055,3.055,0,0,0,.584-2,3.108,3.108,0,0,0-.584-2.023A2.04,2.04,0,0,0,11.464-6.221ZM25.478-7l-2.1,7H22.217L20.774-5.011a3.265,3.265,0,0,1-.109-.649h-.027a3.066,3.066,0,0,1-.144.636L18.929,0H17.808L15.688-7h1.176l1.449,5.264a3.171,3.171,0,0,1,.1.629h.055a2.942,2.942,0,0,1,.123-.643L20.2-7h1.025l1.449,5.277a3.768,3.768,0,0,1,.1.629h.055a2.909,2.909,0,0,1,.116-.629L24.37-7ZM32.4-3.22H27.46a2.618,2.618,0,0,0,.629,1.8,2.168,2.168,0,0,0,1.654.636,3.439,3.439,0,0,0,2.174-.779V-.506a4.063,4.063,0,0,1-2.44.67A2.959,2.959,0,0,1,27.146-.79,3.9,3.9,0,0,1,26.3-3.473a3.828,3.828,0,0,1,.926-2.663,2.97,2.97,0,0,1,2.3-1.029,2.632,2.632,0,0,1,2.126.889A3.705,3.705,0,0,1,32.4-3.808Zm-1.148-.95a2.281,2.281,0,0,0-.468-1.511,1.6,1.6,0,0,0-1.282-.54,1.811,1.811,0,0,0-1.347.567,2.575,2.575,0,0,0-.684,1.483Zm6.494-1.7a1.371,1.371,0,0,0-.848-.226,1.431,1.431,0,0,0-1.2.677,3.129,3.129,0,0,0-.482,1.846V0H34.1V-7h1.121v1.442h.027a2.444,2.444,0,0,1,.731-1.152,1.668,1.668,0,0,1,1.1-.414,1.83,1.83,0,0,1,.67.1Zm2.516,2.16V0H39.115V-9.8h2.693a3.555,3.555,0,0,1,2.437.766,2.734,2.734,0,0,1,.865,2.16,2.971,2.971,0,0,1-.96,2.283,3.67,3.67,0,0,1-2.594.889Zm0-5.059v4.02h1.2a2.69,2.69,0,0,0,1.815-.543,1.924,1.924,0,0,0,.625-1.535q0-1.941-2.3-1.941ZM49.212.164a3.247,3.247,0,0,1-2.478-.981,3.634,3.634,0,0,1-.926-2.6,3.785,3.785,0,0,1,.964-2.755,3.465,3.465,0,0,1,2.6-.991A3.14,3.14,0,0,1,51.82-6.2,3.822,3.822,0,0,1,52.7-3.527a3.761,3.761,0,0,1-.947,2.683A3.317,3.317,0,0,1,49.212.164Zm.082-6.385a2.132,2.132,0,0,0-1.709.735,3.018,3.018,0,0,0-.629,2.027A2.854,2.854,0,0,0,47.592-1.5a2.161,2.161,0,0,0,1.7.718,2.049,2.049,0,0,0,1.671-.7,3.055,3.055,0,0,0,.584-2,3.108,3.108,0,0,0-.584-2.023A2.04,2.04,0,0,0,49.294-6.221Zm5.77-2.557a.71.71,0,0,1-.513-.205.692.692,0,0,1-.212-.52.7.7,0,0,1,.212-.523.7.7,0,0,1,.513-.208.724.724,0,0,1,.523.208A.7.7,0,0,1,55.8-9.5a.693.693,0,0,1-.215.513A.718.718,0,0,1,55.063-8.777ZM55.61,0H54.489V-7H55.61Zm8.08,0H62.569V-3.992q0-2.229-1.627-2.229a1.765,1.765,0,0,0-1.391.632,2.344,2.344,0,0,0-.55,1.6V0H57.88V-7H59v1.162h.027a2.526,2.526,0,0,1,2.3-1.326,2.142,2.142,0,0,1,1.757.742,3.3,3.3,0,0,1,.608,2.143ZM69.05-.068A2.161,2.161,0,0,1,68,.15Q66.165.15,66.165-1.9V-6.043h-1.2V-7h1.2V-8.709l1.121-.362V-7H69.05v.957H67.286V-2.1a1.635,1.635,0,0,0,.239,1,.955.955,0,0,0,.793.3,1.179,1.179,0,0,0,.731-.232Z" transform="translate(15 22)" fill="#494955"/>
      </g>
    </g>
    <g id="Group_264634" data-name="Group 264634" transform="translate(319 39)">
      <path id="Path_7189" data-name="Path 7189" d="M15.036,9.421,12,12.457,8.964,9.421a1,1,0,0,0-1.414,0h0a1,1,0,0,0,0,1.414l3.743,3.743a1,1,0,0,0,1.414,0l3.743-3.743a1,1,0,0,0,0-1.414h0A1,1,0,0,0,15.036,9.421Z" transform="translate(61.743 -1)" fill="#fff"/>
      <text id="Action" transform="translate(16 15)" fill="#fff" font-size="14" font-family="SegoeUI-Semibold, Segoe UI" font-weight="600"><tspan x="0" y="0">Action</tspan></text>
    </g>
    <g id="Group_264632" data-name="Group 264632" transform="translate(319 31)">
      <rect id="Rectangle_3990" data-name="Rectangle 3990" width="103" height="36" rx="18" fill="#1f5ea8"/>
      <g id="Group_264633" data-name="Group 264633" transform="translate(-1)">
        <g id="Chevron_up" data-name="Chevron up" transform="translate(81 18)">
          <g id="Group_264667" data-name="Group 264667" transform="translate(-8 -8)">
            <path id="Path_101500" data-name="Path 101500" d="M4,10.7,2.8,9.4a.3.3,0,0,1,0-.4l5-5a.3.3,0,0,1,.4,0l5,5.1a.3.3,0,0,1,0,.4L12,10.7a.3.3,0,0,1-.4,0L8,7.1,4.4,10.7a.3.3,0,0,1-.4,0Z" fill="#fff"/>
            <rect id="Rectangle_10039" data-name="Rectangle 10039" width="16" height="16" fill="none"/>
          </g>
        </g>
        <text id="Save_as" data-name="Save as" transform="translate(16 23)" fill="#fff" font-size="14" font-family="SegoeUI-Semibold, Segoe UI" font-weight="600"><tspan x="0" y="0">Save as</tspan></text>
      </g>
    </g>
    <g id="Dropdown_options-2" data-name="Dropdown options" transform="translate(565 31)">
      <g transform="matrix(1, 0, 0, 1, -565, -31)" filter="url(#Rectangle_10023-2)">
        <rect id="Rectangle_10023-4" data-name="Rectangle 10023" width="150" height="118" transform="translate(581 67)" fill="#fff"/>
      </g>
      <g id="dropdown_item-4" data-name="dropdown item" transform="translate(16 42)">
        <rect id="Rectangle_4665-4" data-name="Rectangle 4665" width="150" height="36" fill="#fff"/>
        <path id="Path_101541" data-name="Path 101541" d="M2.434-3.705V0H1.285V-9.8H3.979a3.555,3.555,0,0,1,2.437.766,2.734,2.734,0,0,1,.865,2.16,2.971,2.971,0,0,1-.96,2.283,3.67,3.67,0,0,1-2.594.889Zm0-5.059v4.02h1.2a2.69,2.69,0,0,0,1.815-.543,1.924,1.924,0,0,0,.625-1.535q0-1.941-2.3-1.941ZM9.126,0V-9.8h2.707q5.182,0,5.182,4.778a4.815,4.815,0,0,1-1.439,3.647A5.338,5.338,0,0,1,11.724,0Zm1.148-8.764v7.725h1.463a4.152,4.152,0,0,0,3-1.032A3.869,3.869,0,0,0,15.812-5q0-3.767-4.006-3.767Zm13.645,0H20.091v3.391h3.541v1.032H20.091V0H18.942V-9.8h4.977Z" transform="translate(15 22)" fill="#494955"/>
      </g>
      <g id="dropdown_item-5" data-name="dropdown item" transform="translate(16 78)">
        <rect id="Rectangle_4665-5" data-name="Rectangle 4665" width="150" height="36" fill="#fff"/>
        <path id="Path_101542" data-name="Path 101542" d="M6.48,0h-5.2V-9.8H6.262v1.039H2.434V-5.5H5.975v1.032H2.434v3.432H6.48Zm6.85-7L10.979-3.459,13.289,0H11.983L10.609-2.27q-.13-.212-.308-.533h-.027q-.034.062-.321.533L8.552,0H7.26L9.646-3.432,7.362-7H8.668l1.354,2.393q.15.267.294.547h.027L12.093-7ZM19.414-.321A3.643,3.643,0,0,1,17.5.164,3.169,3.169,0,0,1,15.083-.81a3.53,3.53,0,0,1-.919-2.526,3.881,3.881,0,0,1,.991-2.779A3.467,3.467,0,0,1,17.8-7.164a3.682,3.682,0,0,1,1.627.342v1.148a2.85,2.85,0,0,0-1.668-.547A2.254,2.254,0,0,0,16-5.452a2.918,2.918,0,0,0-.687,2.02,2.779,2.779,0,0,0,.646,1.941,2.227,2.227,0,0,0,1.733.711,2.81,2.81,0,0,0,1.723-.608Zm7.321-2.9H21.793a2.618,2.618,0,0,0,.629,1.8,2.168,2.168,0,0,0,1.654.636,3.439,3.439,0,0,0,2.174-.779V-.506a4.063,4.063,0,0,1-2.44.67A2.959,2.959,0,0,1,21.479-.79a3.9,3.9,0,0,1-.848-2.683,3.828,3.828,0,0,1,.926-2.663,2.97,2.97,0,0,1,2.3-1.029,2.632,2.632,0,0,1,2.126.889,3.705,3.705,0,0,1,.752,2.468Zm-1.148-.95a2.281,2.281,0,0,0-.468-1.511,1.6,1.6,0,0,0-1.282-.54,1.811,1.811,0,0,0-1.347.567,2.575,2.575,0,0,0-.684,1.483ZM29.552,0H28.431V-10.363h1.121Z" transform="translate(15 22)" fill="#afafbb"/>
      </g>
      <g id="dropdown_item-6" data-name="dropdown item" transform="translate(16 114)">
        <rect id="Rectangle_4665-6" data-name="Rectangle 4665" width="150" height="36" fill="#fff"/>
        <path id="Path_101543" data-name="Path 101543" d="M2.434-3.705V0H1.285V-9.8H3.979a3.555,3.555,0,0,1,2.437.766,2.734,2.734,0,0,1,.865,2.16,2.971,2.971,0,0,1-.96,2.283,3.67,3.67,0,0,1-2.594.889Zm0-5.059v4.02h1.2a2.69,2.69,0,0,0,1.815-.543,1.924,1.924,0,0,0,.625-1.535q0-1.941-2.3-1.941ZM11.382.164A3.247,3.247,0,0,1,8.9-.817a3.634,3.634,0,0,1-.926-2.6,3.785,3.785,0,0,1,.964-2.755,3.465,3.465,0,0,1,2.6-.991A3.14,3.14,0,0,1,13.99-6.2a3.822,3.822,0,0,1,.878,2.673,3.761,3.761,0,0,1-.947,2.683A3.317,3.317,0,0,1,11.382.164Zm.082-6.385a2.132,2.132,0,0,0-1.709.735,3.018,3.018,0,0,0-.629,2.027A2.854,2.854,0,0,0,9.762-1.5a2.161,2.161,0,0,0,1.7.718,2.049,2.049,0,0,0,1.671-.7,3.055,3.055,0,0,0,.584-2,3.108,3.108,0,0,0-.584-2.023A2.04,2.04,0,0,0,11.464-6.221ZM25.478-7l-2.1,7H22.217L20.774-5.011a3.265,3.265,0,0,1-.109-.649h-.027a3.066,3.066,0,0,1-.144.636L18.929,0H17.808L15.688-7h1.176l1.449,5.264a3.171,3.171,0,0,1,.1.629h.055a2.942,2.942,0,0,1,.123-.643L20.2-7h1.025l1.449,5.277a3.768,3.768,0,0,1,.1.629h.055a2.909,2.909,0,0,1,.116-.629L24.37-7ZM32.4-3.22H27.46a2.618,2.618,0,0,0,.629,1.8,2.168,2.168,0,0,0,1.654.636,3.439,3.439,0,0,0,2.174-.779V-.506a4.063,4.063,0,0,1-2.44.67A2.959,2.959,0,0,1,27.146-.79,3.9,3.9,0,0,1,26.3-3.473a3.828,3.828,0,0,1,.926-2.663,2.97,2.97,0,0,1,2.3-1.029,2.632,2.632,0,0,1,2.126.889A3.705,3.705,0,0,1,32.4-3.808Zm-1.148-.95a2.281,2.281,0,0,0-.468-1.511,1.6,1.6,0,0,0-1.282-.54,1.811,1.811,0,0,0-1.347.567,2.575,2.575,0,0,0-.684,1.483Zm6.494-1.7a1.371,1.371,0,0,0-.848-.226,1.431,1.431,0,0,0-1.2.677,3.129,3.129,0,0,0-.482,1.846V0H34.1V-7h1.121v1.442h.027a2.444,2.444,0,0,1,.731-1.152,1.668,1.668,0,0,1,1.1-.414,1.83,1.83,0,0,1,.67.1Zm2.516,2.16V0H39.115V-9.8h2.693a3.555,3.555,0,0,1,2.437.766,2.734,2.734,0,0,1,.865,2.16,2.971,2.971,0,0,1-.96,2.283,3.67,3.67,0,0,1-2.594.889Zm0-5.059v4.02h1.2a2.69,2.69,0,0,0,1.815-.543,1.924,1.924,0,0,0,.625-1.535q0-1.941-2.3-1.941ZM49.212.164a3.247,3.247,0,0,1-2.478-.981,3.634,3.634,0,0,1-.926-2.6,3.785,3.785,0,0,1,.964-2.755,3.465,3.465,0,0,1,2.6-.991A3.14,3.14,0,0,1,51.82-6.2,3.822,3.822,0,0,1,52.7-3.527a3.761,3.761,0,0,1-.947,2.683A3.317,3.317,0,0,1,49.212.164Zm.082-6.385a2.132,2.132,0,0,0-1.709.735,3.018,3.018,0,0,0-.629,2.027A2.854,2.854,0,0,0,47.592-1.5a2.161,2.161,0,0,0,1.7.718,2.049,2.049,0,0,0,1.671-.7,3.055,3.055,0,0,0,.584-2,3.108,3.108,0,0,0-.584-2.023A2.04,2.04,0,0,0,49.294-6.221Zm5.77-2.557a.71.71,0,0,1-.513-.205.692.692,0,0,1-.212-.52.7.7,0,0,1,.212-.523.7.7,0,0,1,.513-.208.724.724,0,0,1,.523.208A.7.7,0,0,1,55.8-9.5a.693.693,0,0,1-.215.513A.718.718,0,0,1,55.063-8.777ZM55.61,0H54.489V-7H55.61Zm8.08,0H62.569V-3.992q0-2.229-1.627-2.229a1.765,1.765,0,0,0-1.391.632,2.344,2.344,0,0,0-.55,1.6V0H57.88V-7H59v1.162h.027a2.526,2.526,0,0,1,2.3-1.326,2.142,2.142,0,0,1,1.757.742,3.3,3.3,0,0,1,.608,2.143ZM69.05-.068A2.161,2.161,0,0,1,68,.15Q66.165.15,66.165-1.9V-6.043h-1.2V-7h1.2V-8.709l1.121-.362V-7H69.05v.957H67.286V-2.1a1.635,1.635,0,0,0,.239,1,.955.955,0,0,0,.793.3,1.179,1.179,0,0,0,.731-.232Z" transform="translate(15 22)" fill="#494955"/>
      </g>
    </g>
    <g id="Group_264634-2" data-name="Group 264634" transform="translate(581 39)">
      <path id="Path_7189-2" data-name="Path 7189" d="M15.036,9.421,12,12.457,8.964,9.421a1,1,0,0,0-1.414,0h0a1,1,0,0,0,0,1.414l3.743,3.743a1,1,0,0,0,1.414,0l3.743-3.743a1,1,0,0,0,0-1.414h0A1,1,0,0,0,15.036,9.421Z" transform="translate(61.743 -1)" fill="#fff"/>
      <text id="Action-2" data-name="Action" transform="translate(16 15)" fill="#fff" font-size="14" font-family="SegoeUI-Semibold, Segoe UI" font-weight="600"><tspan x="0" y="0">Action</tspan></text>
    </g>
    <g id="Group_264632-2" data-name="Group 264632" transform="translate(581 31)">
      <rect id="Rectangle_3990-2" data-name="Rectangle 3990" width="103" height="36" rx="18" fill="#1f5ea8"/>
      <g id="Group_264633-2" data-name="Group 264633" transform="translate(-1)">
        <g id="Chevron_up-2" data-name="Chevron up" transform="translate(81 18)">
          <g id="Group_264667-2" data-name="Group 264667" transform="translate(-8 -8)">
            <path id="Path_101500-2" data-name="Path 101500" d="M4,10.7,2.8,9.4a.3.3,0,0,1,0-.4l5-5a.3.3,0,0,1,.4,0l5,5.1a.3.3,0,0,1,0,.4L12,10.7a.3.3,0,0,1-.4,0L8,7.1,4.4,10.7a.3.3,0,0,1-.4,0Z" fill="#fff"/>
            <rect id="Rectangle_10039-2" data-name="Rectangle 10039" width="16" height="16" fill="none"/>
          </g>
        </g>
        <text id="Save_as-2" data-name="Save as" transform="translate(16 23)" fill="#fff" font-size="14" font-family="SegoeUI-Semibold, Segoe UI" font-weight="600"><tspan x="0" y="0">Save as</tspan></text>
      </g>
    </g>
    <path id="Path_101539" data-name="Path 101539" d="M8.654,0H7.506V-4.471H2.434V0H1.285V-9.8H2.434v4.3H7.506V-9.8H8.654ZM14,.164a3.247,3.247,0,0,1-2.478-.981,3.634,3.634,0,0,1-.926-2.6,3.785,3.785,0,0,1,.964-2.755,3.465,3.465,0,0,1,2.6-.991,3.14,3.14,0,0,1,2.444.964,3.822,3.822,0,0,1,.878,2.673A3.761,3.761,0,0,1,16.54-.844,3.317,3.317,0,0,1,14,.164Zm.082-6.385a2.132,2.132,0,0,0-1.709.735,3.018,3.018,0,0,0-.629,2.027A2.854,2.854,0,0,0,12.38-1.5a2.161,2.161,0,0,0,1.7.718,2.049,2.049,0,0,0,1.671-.7,3.055,3.055,0,0,0,.584-2,3.108,3.108,0,0,0-.584-2.023A2.04,2.04,0,0,0,14.082-6.221ZM24.78-7,21.991,0h-1.1L18.238-7h1.23l1.777,5.086a4.565,4.565,0,0,1,.246.978h.027a4.622,4.622,0,0,1,.219-.95L23.6-7Zm6.829,3.78H26.667a2.618,2.618,0,0,0,.629,1.8,2.168,2.168,0,0,0,1.654.636,3.439,3.439,0,0,0,2.174-.779V-.506a4.063,4.063,0,0,1-2.44.67A2.959,2.959,0,0,1,26.353-.79,3.9,3.9,0,0,1,25.5-3.473a3.828,3.828,0,0,1,.926-2.663,2.97,2.97,0,0,1,2.3-1.029,2.632,2.632,0,0,1,2.126.889,3.705,3.705,0,0,1,.752,2.468Zm-1.148-.95a2.281,2.281,0,0,0-.468-1.511,1.6,1.6,0,0,0-1.282-.54,1.811,1.811,0,0,0-1.347.567,2.575,2.575,0,0,0-.684,1.483Zm6.494-1.7a1.371,1.371,0,0,0-.848-.226,1.431,1.431,0,0,0-1.2.677,3.129,3.129,0,0,0-.482,1.846V0H33.3V-7h1.121v1.442h.027a2.444,2.444,0,0,1,.731-1.152,1.668,1.668,0,0,1,1.1-.414,1.83,1.83,0,0,1,.67.1Z" transform="translate(268 130)" fill="#17987c"/>
    <path id="Path_101540" data-name="Path 101540" d="M1.285,0V-9.8H3.992q5.182,0,5.182,4.778A4.815,4.815,0,0,1,7.735-1.377,5.338,5.338,0,0,1,3.883,0ZM2.434-8.764v7.725H3.9a4.152,4.152,0,0,0,3-1.032A3.869,3.869,0,0,0,7.971-5q0-3.767-4.006-3.767Zm9.092-.014a.71.71,0,0,1-.513-.205A.692.692,0,0,1,10.8-9.5a.7.7,0,0,1,.212-.523.7.7,0,0,1,.513-.208.724.724,0,0,1,.523.208.7.7,0,0,1,.215.523.693.693,0,0,1-.215.513A.718.718,0,0,1,11.525-8.777ZM12.072,0H10.951V-7h1.121Zm1.846-.253v-1.2a3.318,3.318,0,0,0,2.017.677q1.477,0,1.477-.984a.854.854,0,0,0-.126-.475,1.26,1.26,0,0,0-.342-.345,2.631,2.631,0,0,0-.506-.27q-.291-.12-.625-.25a8.056,8.056,0,0,1-.817-.373,2.468,2.468,0,0,1-.588-.424,1.577,1.577,0,0,1-.355-.537,1.9,1.9,0,0,1-.12-.7,1.673,1.673,0,0,1,.226-.872,2,2,0,0,1,.6-.636,2.805,2.805,0,0,1,.858-.386,3.805,3.805,0,0,1,.995-.13,4.016,4.016,0,0,1,1.627.314v1.135a3.171,3.171,0,0,0-1.777-.506,2.078,2.078,0,0,0-.567.072,1.389,1.389,0,0,0-.434.2.932.932,0,0,0-.28.311.819.819,0,0,0-.1.4.959.959,0,0,0,.1.458,1.008,1.008,0,0,0,.291.328,2.221,2.221,0,0,0,.465.26q.273.116.622.253a8.658,8.658,0,0,1,.834.366,2.86,2.86,0,0,1,.629.424,1.656,1.656,0,0,1,.4.543,1.753,1.753,0,0,1,.14.731,1.725,1.725,0,0,1-.229.9,1.963,1.963,0,0,1-.612.636,2.8,2.8,0,0,1-.882.376,4.354,4.354,0,0,1-1.046.123A3.971,3.971,0,0,1,13.918-.253ZM25.293,0H24.172V-1.094h-.027A2.347,2.347,0,0,1,21.991.164,2.3,2.3,0,0,1,20.354-.39a1.918,1.918,0,0,1-.591-1.47q0-1.962,2.311-2.283l2.1-.294q0-1.784-1.442-1.784a3.446,3.446,0,0,0-2.283.861V-6.508a4.338,4.338,0,0,1,2.379-.656q2.468,0,2.468,2.611ZM24.172-3.541l-1.688.232a2.741,2.741,0,0,0-1.176.386,1.114,1.114,0,0,0-.4.981,1.068,1.068,0,0,0,.366.837,1.413,1.413,0,0,0,.974.325,1.8,1.8,0,0,0,1.377-.584,2.088,2.088,0,0,0,.543-1.48Zm4.382,2.529h-.027V0H27.405V-10.363h1.121V-5.77h.027a2.651,2.651,0,0,1,2.42-1.395,2.566,2.566,0,0,1,2.109.94,3.881,3.881,0,0,1,.762,2.519A4.339,4.339,0,0,1,32.99-.892,2.845,2.845,0,0,1,30.652.164,2.3,2.3,0,0,1,28.554-1.012Zm-.027-2.823v.978a2.081,2.081,0,0,0,.564,1.473,1.873,1.873,0,0,0,1.432.6,1.876,1.876,0,0,0,1.6-.779A3.575,3.575,0,0,0,32.7-3.726a2.822,2.822,0,0,0-.54-1.832,1.787,1.787,0,0,0-1.463-.663,1.986,1.986,0,0,0-1.572.68A2.5,2.5,0,0,0,28.526-3.835ZM36.757,0H35.636V-10.363h1.121Zm7.9-3.22H39.71a2.618,2.618,0,0,0,.629,1.8,2.168,2.168,0,0,0,1.654.636,3.439,3.439,0,0,0,2.174-.779V-.506a4.063,4.063,0,0,1-2.44.67A2.959,2.959,0,0,1,39.4-.79a3.9,3.9,0,0,1-.848-2.683,3.828,3.828,0,0,1,.926-2.663,2.97,2.97,0,0,1,2.3-1.029,2.632,2.632,0,0,1,2.126.889,3.705,3.705,0,0,1,.752,2.468ZM43.5-4.17a2.281,2.281,0,0,0-.468-1.511,1.6,1.6,0,0,0-1.282-.54,1.811,1.811,0,0,0-1.347.567,2.575,2.575,0,0,0-.684,1.483ZM52.322,0H51.2V-1.189h-.027A2.588,2.588,0,0,1,48.768.164a2.615,2.615,0,0,1-2.109-.94,3.856,3.856,0,0,1-.79-2.56,4.2,4.2,0,0,1,.875-2.782,2.886,2.886,0,0,1,2.331-1.046,2.244,2.244,0,0,1,2.1,1.135H51.2v-4.334h1.121ZM51.2-3.165V-4.2a2,2,0,0,0-.561-1.436,1.88,1.88,0,0,0-1.422-.588,1.936,1.936,0,0,0-1.613.752,3.3,3.3,0,0,0-.588,2.078,2.964,2.964,0,0,0,.564,1.911,1.843,1.843,0,0,0,1.514.7,1.915,1.915,0,0,0,1.521-.677A2.521,2.521,0,0,0,51.2-3.165Z" transform="translate(517 130)" fill="#17987c"/>
  </g>
</svg>
