<svg width="485" height="220" viewBox="0 0 485 220" fill="none" xmlns="http://www.w3.org/2000/svg">
<g clip-path="url(#clip0_1_975)">
<rect width="485" height="220" fill="#F4F4F6"/>
<g filter="url(#filter0_d_1_975)">
<path d="M176 115L191 106.34V123.66L176 115Z" fill="white"/>
<mask id="path-2-inside-1_1_975" fill="white">
<path d="M191 39C191 36.7909 192.791 35 195 35H587C589.209 35 591 36.7909 591 39V191C591 193.209 589.209 195 587 195H195C192.791 195 191 193.209 191 191V39Z"/>
</mask>
<path d="M191 39C191 36.7909 192.791 35 195 35H587C589.209 35 591 36.7909 591 39V191C591 193.209 589.209 195 587 195H195C192.791 195 191 193.209 191 191V39Z" fill="white"/>
<path d="M191 39C191 31.268 197.268 25 205 25H577C584.732 25 591 31.268 591 39V45C591 45 589.209 45 587 45H195C192.791 45 191 45 191 45V39ZM591 195H191H591ZM191 195V35V195ZM591 35V195V35Z" fill="#2777D3" mask="url(#path-2-inside-1_1_975)"/>
<path d="M214.234 67.9375V72H212.383V60.7969H215.781C217.068 60.7969 218.065 61.0964 218.773 61.6953C219.482 62.2943 219.836 63.138 219.836 64.2266C219.836 65.3151 219.466 66.2057 218.727 66.8984C217.987 67.5911 216.987 67.9375 215.727 67.9375H214.234ZM214.234 62.3281V66.4219H215.438C216.234 66.4219 216.841 66.237 217.258 65.8672C217.674 65.4974 217.883 64.9766 217.883 64.3047C217.883 62.987 217.117 62.3281 215.586 62.3281H214.234ZM226.18 65.7266C225.961 65.5547 225.646 65.4688 225.234 65.4688C224.698 65.4688 224.25 65.7109 223.891 66.1953C223.531 66.6797 223.352 67.3385 223.352 68.1719V72H221.539V64H223.352V65.6484H223.383C223.56 65.0859 223.831 64.6484 224.195 64.3359C224.565 64.0182 224.977 63.8594 225.43 63.8594C225.758 63.8594 226.008 63.9089 226.18 64.0078V65.7266ZM230.867 72.1875C229.633 72.1875 228.646 71.8151 227.906 71.0703C227.172 70.3203 226.805 69.3281 226.805 68.0938C226.805 66.75 227.188 65.7005 227.953 64.9453C228.724 64.1901 229.76 63.8125 231.062 63.8125C232.312 63.8125 233.286 64.1797 233.984 64.9141C234.682 65.6484 235.031 66.6667 235.031 67.9688C235.031 69.2448 234.654 70.2682 233.898 71.0391C233.148 71.8047 232.138 72.1875 230.867 72.1875ZM230.953 65.2578C230.245 65.2578 229.685 65.5052 229.273 66C228.862 66.4948 228.656 67.1771 228.656 68.0469C228.656 68.8854 228.865 69.5469 229.281 70.0312C229.698 70.5104 230.255 70.75 230.953 70.75C231.667 70.75 232.214 70.513 232.594 70.0391C232.979 69.5651 233.172 68.8906 233.172 68.0156C233.172 67.1354 232.979 66.4557 232.594 65.9766C232.214 65.4974 231.667 65.2578 230.953 65.2578ZM244.156 72H242.344V70.6406H242.312C241.729 71.6719 240.831 72.1875 239.617 72.1875C238.633 72.1875 237.844 71.8307 237.25 71.1172C236.661 70.3984 236.367 69.4219 236.367 68.1875C236.367 66.8646 236.693 65.8047 237.344 65.0078C238 64.2109 238.872 63.8125 239.961 63.8125C241.039 63.8125 241.823 64.2448 242.312 65.1094H242.344V60.1562H244.156V72ZM242.367 68.3438V67.2969C242.367 66.7292 242.182 66.2474 241.812 65.8516C241.443 65.4557 240.971 65.2578 240.398 65.2578C239.721 65.2578 239.188 65.5104 238.797 66.0156C238.411 66.5208 238.219 67.2214 238.219 68.1172C238.219 68.9297 238.404 69.5729 238.773 70.0469C239.148 70.5156 239.651 70.75 240.281 70.75C240.901 70.75 241.404 70.5234 241.789 70.0703C242.174 69.612 242.367 69.0365 242.367 68.3438ZM253.5 72H251.688V70.7344H251.656C251.13 71.7031 250.312 72.1875 249.203 72.1875C247.312 72.1875 246.367 71.0521 246.367 68.7812V64H248.18V68.5938C248.18 70.0312 248.734 70.75 249.844 70.75C250.38 70.75 250.82 70.5521 251.164 70.1562C251.513 69.7604 251.688 69.2422 251.688 68.6016V64H253.5V72ZM261.594 71.6328C260.953 72.0026 260.195 72.1875 259.32 72.1875C258.133 72.1875 257.174 71.8177 256.445 71.0781C255.716 70.3333 255.352 69.3698 255.352 68.1875C255.352 66.8698 255.742 65.8125 256.523 65.0156C257.31 64.2135 258.359 63.8125 259.672 63.8125C260.401 63.8125 261.044 63.9401 261.602 64.1953V65.8828C261.044 65.4661 260.451 65.2578 259.82 65.2578C259.055 65.2578 258.427 65.5182 257.938 66.0391C257.448 66.5547 257.203 67.2318 257.203 68.0703C257.203 68.8984 257.432 69.5521 257.891 70.0312C258.354 70.5104 258.974 70.75 259.75 70.75C260.401 70.75 261.016 70.5182 261.594 70.0547V71.6328ZM267.617 71.9141C267.263 72.0911 266.797 72.1797 266.219 72.1797C264.667 72.1797 263.891 71.4349 263.891 69.9453V65.4219H262.555V64H263.891V62.1484L265.703 61.6328V64H267.617V65.4219H265.703V69.4219C265.703 69.8958 265.789 70.2344 265.961 70.4375C266.133 70.6406 266.419 70.7422 266.82 70.7422C267.128 70.7422 267.393 70.6536 267.617 70.4766V71.9141ZM284.344 64L281.984 72H280.086L278.633 66.5781C278.576 66.3698 278.539 66.1354 278.523 65.875H278.492C278.482 66.0521 278.435 66.2812 278.352 66.5625L276.773 72H274.914L272.562 64H274.438L275.891 69.7656C275.938 69.9375 275.969 70.1667 275.984 70.4531H276.039C276.055 70.2344 276.096 70 276.164 69.75L277.781 64H279.484L280.922 69.7891C280.969 69.9714 281.003 70.2005 281.023 70.4766H281.078C281.089 70.2839 281.128 70.0547 281.195 69.7891L282.617 64H284.344ZM291.836 72H290.078V70.75H290.047C289.495 71.7083 288.685 72.1875 287.617 72.1875C286.831 72.1875 286.214 71.974 285.766 71.5469C285.323 71.1198 285.102 70.5547 285.102 69.8516C285.102 68.3411 285.971 67.4609 287.711 67.2109L290.086 66.875C290.086 65.7344 289.544 65.1641 288.461 65.1641C287.508 65.1641 286.648 65.4922 285.883 66.1484V64.5625C286.727 64.0625 287.701 63.8125 288.805 63.8125C290.826 63.8125 291.836 64.8073 291.836 66.7969V72ZM290.086 68.0703L288.406 68.3047C287.885 68.3724 287.492 68.5 287.227 68.6875C286.966 68.8698 286.836 69.1927 286.836 69.6562C286.836 69.9948 286.956 70.2734 287.195 70.4922C287.44 70.7057 287.766 70.8125 288.172 70.8125C288.724 70.8125 289.18 70.6198 289.539 70.2344C289.904 69.8438 290.086 69.3542 290.086 68.7656V68.0703ZM295.875 72H294.055V60.1562H295.875V72ZM305.5 72H303.203L300.094 68.1562H300.062V72H298.242V60.1562H300.062V67.6641H300.094L303.031 64H305.211L301.906 67.8594L305.5 72ZM310.758 71.9141C310.404 72.0911 309.938 72.1797 309.359 72.1797C307.807 72.1797 307.031 71.4349 307.031 69.9453V65.4219H305.695V64H307.031V62.1484L308.844 61.6328V64H310.758V65.4219H308.844V69.4219C308.844 69.8958 308.93 70.2344 309.102 70.4375C309.273 70.6406 309.56 70.7422 309.961 70.7422C310.268 70.7422 310.534 70.6536 310.758 70.4766V71.9141ZM319.43 72H317.617V67.625C317.617 66.0417 317.089 65.25 316.031 65.25C315.5 65.25 315.052 65.4792 314.688 65.9375C314.323 66.3958 314.141 66.9818 314.141 67.6953V72H312.32V60.1562H314.141V65.3281H314.172C314.776 64.3177 315.641 63.8125 316.766 63.8125C318.542 63.8125 319.43 64.8984 319.43 67.0703V72ZM326.273 65.7266C326.055 65.5547 325.74 65.4688 325.328 65.4688C324.792 65.4688 324.344 65.7109 323.984 66.1953C323.625 66.6797 323.445 67.3385 323.445 68.1719V72H321.633V64H323.445V65.6484H323.477C323.654 65.0859 323.924 64.6484 324.289 64.3359C324.659 64.0182 325.07 63.8594 325.523 63.8594C325.852 63.8594 326.102 63.9089 326.273 64.0078V65.7266ZM330.961 72.1875C329.727 72.1875 328.74 71.8151 328 71.0703C327.266 70.3203 326.898 69.3281 326.898 68.0938C326.898 66.75 327.281 65.7005 328.047 64.9453C328.818 64.1901 329.854 63.8125 331.156 63.8125C332.406 63.8125 333.38 64.1797 334.078 64.9141C334.776 65.6484 335.125 66.6667 335.125 67.9688C335.125 69.2448 334.747 70.2682 333.992 71.0391C333.242 71.8047 332.232 72.1875 330.961 72.1875ZM331.047 65.2578C330.339 65.2578 329.779 65.5052 329.367 66C328.956 66.4948 328.75 67.1771 328.75 68.0469C328.75 68.8854 328.958 69.5469 329.375 70.0312C329.792 70.5104 330.349 70.75 331.047 70.75C331.76 70.75 332.307 70.513 332.688 70.0391C333.073 69.5651 333.266 68.8906 333.266 68.0156C333.266 67.1354 333.073 66.4557 332.688 65.9766C332.307 65.4974 331.76 65.2578 331.047 65.2578ZM343.953 72H342.141V70.7344H342.109C341.583 71.7031 340.766 72.1875 339.656 72.1875C337.766 72.1875 336.82 71.0521 336.82 68.7812V64H338.633V68.5938C338.633 70.0312 339.188 70.75 340.297 70.75C340.833 70.75 341.273 70.5521 341.617 70.1562C341.966 69.7604 342.141 69.2422 342.141 68.6016V64H343.953V72ZM353.602 71.3594C353.602 74.2969 352.125 75.7656 349.172 75.7656C348.13 75.7656 347.221 75.5911 346.445 75.2422V73.5859C347.32 74.0859 348.151 74.3359 348.938 74.3359C350.839 74.3359 351.789 73.401 351.789 71.5312V70.6562H351.758C351.159 71.6771 350.258 72.1875 349.055 72.1875C348.081 72.1875 347.294 71.8333 346.695 71.125C346.102 70.4115 345.805 69.4557 345.805 68.2578C345.805 66.8984 346.125 65.8177 346.766 65.0156C347.406 64.2135 348.286 63.8125 349.406 63.8125C350.464 63.8125 351.247 64.2448 351.758 65.1094H351.789V64H353.602V71.3594ZM351.805 68.3359V67.2969C351.805 66.7344 351.617 66.2552 351.242 65.8594C350.872 65.4583 350.409 65.2578 349.852 65.2578C349.164 65.2578 348.625 65.513 348.234 66.0234C347.849 66.5286 347.656 67.237 347.656 68.1484C347.656 68.9349 347.841 69.5651 348.211 70.0391C348.586 70.5078 349.081 70.7422 349.695 70.7422C350.32 70.7422 350.828 70.5182 351.219 70.0703C351.609 69.6172 351.805 69.0391 351.805 68.3359ZM363.07 72H361.258V67.625C361.258 66.0417 360.729 65.25 359.672 65.25C359.141 65.25 358.693 65.4792 358.328 65.9375C357.964 66.3958 357.781 66.9818 357.781 67.6953V72H355.961V60.1562H357.781V65.3281H357.812C358.417 64.3177 359.281 63.8125 360.406 63.8125C362.182 63.8125 363.07 64.8984 363.07 67.0703V72Z" fill="#31313A"/>
<path d="M218.957 95.5898C218.232 95.9727 217.33 96.1641 216.25 96.1641C214.855 96.1641 213.739 95.7152 212.9 94.8174C212.062 93.9196 211.643 92.7415 211.643 91.2832C211.643 89.7155 212.114 88.4486 213.058 87.4824C214.001 86.5163 215.197 86.0332 216.646 86.0332C217.576 86.0332 218.346 86.1676 218.957 86.4365V87.6602C218.255 87.2682 217.48 87.0723 216.633 87.0723C215.507 87.0723 214.593 87.4482 213.892 88.2002C213.194 88.9521 212.846 89.957 212.846 91.2148C212.846 92.4089 213.172 93.3613 213.823 94.0723C214.479 94.7786 215.339 95.1318 216.4 95.1318C217.385 95.1318 218.237 94.9131 218.957 94.4756V95.5898ZM221.924 96H220.803V85.6367H221.924V96ZM224.768 87.2227C224.567 87.2227 224.396 87.1543 224.255 87.0176C224.114 86.8809 224.043 86.7077 224.043 86.498C224.043 86.2884 224.114 86.1152 224.255 85.9785C224.396 85.8372 224.567 85.7666 224.768 85.7666C224.973 85.7666 225.146 85.8372 225.287 85.9785C225.433 86.1152 225.506 86.2884 225.506 86.498C225.506 86.6986 225.433 86.8695 225.287 87.0107C225.146 87.152 224.973 87.2227 224.768 87.2227ZM225.314 96H224.193V89H225.314V96ZM232.355 95.6787C231.818 96.0023 231.18 96.1641 230.441 96.1641C229.443 96.1641 228.637 95.8405 228.021 95.1934C227.411 94.5417 227.105 93.6986 227.105 92.6641C227.105 91.5111 227.436 90.5859 228.097 89.8887C228.757 89.1868 229.639 88.8359 230.742 88.8359C231.357 88.8359 231.9 88.9499 232.369 89.1777V90.3262C231.85 89.9616 231.294 89.7793 230.701 89.7793C229.986 89.7793 229.398 90.0368 228.938 90.5518C228.482 91.0622 228.254 91.7344 228.254 92.5684C228.254 93.3887 228.468 94.0358 228.896 94.5098C229.329 94.9837 229.908 95.2207 230.633 95.2207C231.243 95.2207 231.818 95.0179 232.355 94.6123V95.6787ZM239.861 96H238.289L235.199 92.6367H235.172V96H234.051V85.6367H235.172V92.2061H235.199L238.139 89H239.608L236.361 92.377L239.861 96ZM250.662 96H249.541V92.0078C249.541 90.5221 248.999 89.7793 247.914 89.7793C247.354 89.7793 246.889 89.9912 246.52 90.415C246.155 90.8343 245.973 91.3652 245.973 92.0078V96H244.852V89H245.973V90.1621H246C246.529 89.278 247.294 88.8359 248.297 88.8359C249.062 88.8359 249.648 89.0843 250.054 89.5811C250.459 90.0732 250.662 90.7865 250.662 91.7207V96ZM258.407 92.7803H253.465C253.483 93.5596 253.693 94.1611 254.094 94.585C254.495 95.0088 255.046 95.2207 255.748 95.2207C256.536 95.2207 257.261 94.9609 257.922 94.4414V95.4941C257.307 95.9408 256.493 96.1641 255.481 96.1641C254.493 96.1641 253.715 95.8473 253.15 95.2139C252.585 94.5758 252.303 93.6803 252.303 92.5273C252.303 91.4382 252.61 90.5518 253.226 89.8682C253.845 89.18 254.613 88.8359 255.529 88.8359C256.445 88.8359 257.154 89.1322 257.655 89.7246C258.157 90.3171 258.407 91.1396 258.407 92.1924V92.7803ZM257.259 91.8301C257.254 91.1829 257.097 90.6794 256.787 90.3193C256.482 89.9593 256.056 89.7793 255.509 89.7793C254.98 89.7793 254.531 89.9684 254.162 90.3467C253.793 90.7249 253.565 91.2194 253.479 91.8301H257.259ZM265.223 89L262.871 92.541L265.182 96H263.876L262.502 93.7305C262.415 93.5892 262.313 93.4115 262.194 93.1973H262.167C262.144 93.2383 262.037 93.416 261.846 93.7305L260.444 96H259.152L261.538 92.5684L259.255 89H260.561L261.914 91.3926C262.014 91.5703 262.112 91.7526 262.208 91.9395H262.235L263.985 89H265.223ZM269.782 95.9316C269.518 96.0775 269.169 96.1504 268.736 96.1504C267.51 96.1504 266.897 95.4668 266.897 94.0996V89.957H265.694V89H266.897V87.291L268.019 86.9287V89H269.782V89.957H268.019V93.9014C268.019 94.3708 268.098 94.7057 268.258 94.9062C268.417 95.1068 268.682 95.207 269.051 95.207C269.333 95.207 269.577 95.1296 269.782 94.9746V95.9316ZM278.368 95.9316C278.104 96.0775 277.755 96.1504 277.322 96.1504C276.096 96.1504 275.483 95.4668 275.483 94.0996V89.957H274.28V89H275.483V87.291L276.604 86.9287V89H278.368V89.957H276.604V93.9014C276.604 94.3708 276.684 94.7057 276.844 94.9062C277.003 95.1068 277.268 95.207 277.637 95.207C277.919 95.207 278.163 95.1296 278.368 94.9746V95.9316ZM282.791 96.1641C281.757 96.1641 280.929 95.8382 280.31 95.1865C279.694 94.5303 279.387 93.6621 279.387 92.582C279.387 91.4062 279.708 90.488 280.351 89.8271C280.993 89.1663 281.861 88.8359 282.955 88.8359C283.999 88.8359 284.812 89.1572 285.396 89.7998C285.983 90.4424 286.277 91.3333 286.277 92.4727C286.277 93.5892 285.961 94.4847 285.327 95.1592C284.698 95.8291 283.853 96.1641 282.791 96.1641ZM282.873 89.7793C282.153 89.7793 281.583 90.0254 281.164 90.5176C280.745 91.0052 280.535 91.6797 280.535 92.541C280.535 93.3704 280.747 94.0244 281.171 94.5029C281.595 94.9814 282.162 95.2207 282.873 95.2207C283.598 95.2207 284.154 94.986 284.541 94.5166C284.933 94.0472 285.129 93.3796 285.129 92.5137C285.129 91.6387 284.933 90.9642 284.541 90.4902C284.154 90.0163 283.598 89.7793 282.873 89.7793ZM293.059 94.9883H293.031V99.2197H291.91V89H293.031V90.2305H293.059C293.61 89.3008 294.417 88.8359 295.479 88.8359C296.381 88.8359 297.085 89.1504 297.591 89.7793C298.097 90.4036 298.35 91.2422 298.35 92.2949C298.35 93.4661 298.065 94.4049 297.495 95.1113C296.925 95.8132 296.146 96.1641 295.157 96.1641C294.25 96.1641 293.551 95.7721 293.059 94.9883ZM293.031 92.165V93.1426C293.031 93.7214 293.218 94.2135 293.592 94.6191C293.97 95.0202 294.449 95.2207 295.027 95.2207C295.706 95.2207 296.237 94.9609 296.62 94.4414C297.007 93.9219 297.201 93.1995 297.201 92.2744C297.201 91.4951 297.021 90.8844 296.661 90.4424C296.301 90.0003 295.813 89.7793 295.198 89.7793C294.547 89.7793 294.022 90.0072 293.626 90.4629C293.229 90.9141 293.031 91.4814 293.031 92.165ZM303.791 90.1348C303.595 89.9844 303.312 89.9092 302.943 89.9092C302.465 89.9092 302.064 90.1348 301.74 90.5859C301.421 91.0371 301.262 91.6523 301.262 92.4316V96H300.141V89H301.262V90.4424H301.289C301.449 89.9502 301.692 89.5674 302.021 89.2939C302.349 89.016 302.715 88.877 303.121 88.877C303.413 88.877 303.636 88.9089 303.791 88.9727V90.1348ZM307.934 96.1641C306.899 96.1641 306.072 95.8382 305.452 95.1865C304.837 94.5303 304.529 93.6621 304.529 92.582C304.529 91.4062 304.851 90.488 305.493 89.8271C306.136 89.1663 307.004 88.8359 308.098 88.8359C309.141 88.8359 309.955 89.1572 310.538 89.7998C311.126 90.4424 311.42 91.3333 311.42 92.4727C311.42 93.5892 311.103 94.4847 310.47 95.1592C309.841 95.8291 308.995 96.1641 307.934 96.1641ZM308.016 89.7793C307.296 89.7793 306.726 90.0254 306.307 90.5176C305.887 91.0052 305.678 91.6797 305.678 92.541C305.678 93.3704 305.89 94.0244 306.313 94.5029C306.737 94.9814 307.305 95.2207 308.016 95.2207C308.74 95.2207 309.296 94.986 309.684 94.5166C310.076 94.0472 310.271 93.3796 310.271 92.5137C310.271 91.6387 310.076 90.9642 309.684 90.4902C309.296 90.0163 308.74 89.7793 308.016 89.7793ZM317.982 95.6787C317.445 96.0023 316.807 96.1641 316.068 96.1641C315.07 96.1641 314.264 95.8405 313.648 95.1934C313.038 94.5417 312.732 93.6986 312.732 92.6641C312.732 91.5111 313.063 90.5859 313.724 89.8887C314.384 89.1868 315.266 88.8359 316.369 88.8359C316.984 88.8359 317.527 88.9499 317.996 89.1777V90.3262C317.477 89.9616 316.921 89.7793 316.328 89.7793C315.613 89.7793 315.025 90.0368 314.564 90.5518C314.109 91.0622 313.881 91.7344 313.881 92.5684C313.881 93.3887 314.095 94.0358 314.523 94.5098C314.956 94.9837 315.535 95.2207 316.26 95.2207C316.87 95.2207 317.445 95.0179 317.982 94.6123V95.6787ZM325.304 92.7803H320.361C320.38 93.5596 320.589 94.1611 320.99 94.585C321.391 95.0088 321.943 95.2207 322.645 95.2207C323.433 95.2207 324.158 94.9609 324.818 94.4414V95.4941C324.203 95.9408 323.39 96.1641 322.378 96.1641C321.389 96.1641 320.612 95.8473 320.047 95.2139C319.482 94.5758 319.199 93.6803 319.199 92.5273C319.199 91.4382 319.507 90.5518 320.122 89.8682C320.742 89.18 321.51 88.8359 322.426 88.8359C323.342 88.8359 324.05 89.1322 324.552 89.7246C325.053 90.3171 325.304 91.1396 325.304 92.1924V92.7803ZM324.155 91.8301C324.151 91.1829 323.993 90.6794 323.684 90.3193C323.378 89.9593 322.952 89.7793 322.405 89.7793C321.877 89.7793 321.428 89.9684 321.059 90.3467C320.689 90.7249 320.462 91.2194 320.375 91.8301H324.155ZM332.632 92.7803H327.689C327.708 93.5596 327.917 94.1611 328.318 94.585C328.719 95.0088 329.271 95.2207 329.973 95.2207C330.761 95.2207 331.486 94.9609 332.146 94.4414V95.4941C331.531 95.9408 330.718 96.1641 329.706 96.1641C328.717 96.1641 327.94 95.8473 327.375 95.2139C326.81 94.5758 326.527 93.6803 326.527 92.5273C326.527 91.4382 326.835 90.5518 327.45 89.8682C328.07 89.18 328.838 88.8359 329.754 88.8359C330.67 88.8359 331.379 89.1322 331.88 89.7246C332.381 90.3171 332.632 91.1396 332.632 92.1924V92.7803ZM331.483 91.8301C331.479 91.1829 331.322 90.6794 331.012 90.3193C330.706 89.9593 330.28 89.7793 329.733 89.7793C329.205 89.7793 328.756 89.9684 328.387 90.3467C328.018 90.7249 327.79 91.2194 327.703 91.8301H331.483ZM340.309 96H339.188V94.8105H339.16C338.641 95.7129 337.839 96.1641 336.754 96.1641C335.874 96.1641 335.17 95.8519 334.642 95.2275C334.118 94.5986 333.855 93.7441 333.855 92.6641C333.855 91.5065 334.147 90.5791 334.73 89.8818C335.314 89.1846 336.091 88.8359 337.062 88.8359C338.023 88.8359 338.723 89.2142 339.16 89.9707H339.188V85.6367H340.309V96ZM339.188 92.835V91.8027C339.188 91.2376 339.001 90.7591 338.627 90.3672C338.253 89.9753 337.779 89.7793 337.205 89.7793C336.521 89.7793 335.984 90.0299 335.592 90.5312C335.2 91.0326 335.004 91.7253 335.004 92.6094C335.004 93.416 335.191 94.054 335.564 94.5234C335.943 94.9883 336.449 95.2207 337.082 95.2207C337.706 95.2207 338.212 94.9951 338.6 94.5439C338.992 94.0928 339.188 93.5231 339.188 92.835ZM349.667 95.9316C349.403 96.0775 349.054 96.1504 348.621 96.1504C347.395 96.1504 346.782 95.4668 346.782 94.0996V89.957H345.579V89H346.782V87.291L347.903 86.9287V89H349.667V89.957H347.903V93.9014C347.903 94.3708 347.983 94.7057 348.143 94.9062C348.302 95.1068 348.566 95.207 348.936 95.207C349.218 95.207 349.462 95.1296 349.667 94.9746V95.9316ZM354.09 96.1641C353.055 96.1641 352.228 95.8382 351.608 95.1865C350.993 94.5303 350.686 93.6621 350.686 92.582C350.686 91.4062 351.007 90.488 351.649 89.8271C352.292 89.1663 353.16 88.8359 354.254 88.8359C355.298 88.8359 356.111 89.1572 356.694 89.7998C357.282 90.4424 357.576 91.3333 357.576 92.4727C357.576 93.5892 357.259 94.4847 356.626 95.1592C355.997 95.8291 355.152 96.1641 354.09 96.1641ZM354.172 89.7793C353.452 89.7793 352.882 90.0254 352.463 90.5176C352.044 91.0052 351.834 91.6797 351.834 92.541C351.834 93.3704 352.046 94.0244 352.47 94.5029C352.894 94.9814 353.461 95.2207 354.172 95.2207C354.896 95.2207 355.452 94.986 355.84 94.5166C356.232 94.0472 356.428 93.3796 356.428 92.5137C356.428 91.6387 356.232 90.9642 355.84 90.4902C355.452 90.0163 354.896 89.7793 354.172 89.7793ZM366.456 95.9316C366.192 96.0775 365.843 96.1504 365.41 96.1504C364.184 96.1504 363.571 95.4668 363.571 94.0996V89.957H362.368V89H363.571V87.291L364.692 86.9287V89H366.456V89.957H364.692V93.9014C364.692 94.3708 364.772 94.7057 364.932 94.9062C365.091 95.1068 365.355 95.207 365.725 95.207C366.007 95.207 366.251 95.1296 366.456 94.9746V95.9316ZM373.764 96H372.643V91.9668C372.643 90.5085 372.1 89.7793 371.016 89.7793C370.469 89.7793 370.008 89.9912 369.635 90.415C369.261 90.8343 369.074 91.3743 369.074 92.0352V96H367.953V85.6367H369.074V90.1621H369.102C369.639 89.278 370.405 88.8359 371.398 88.8359C372.975 88.8359 373.764 89.7861 373.764 91.6865V96ZM381.509 92.7803H376.566C376.585 93.5596 376.794 94.1611 377.195 94.585C377.596 95.0088 378.148 95.2207 378.85 95.2207C379.638 95.2207 380.363 94.9609 381.023 94.4414V95.4941C380.408 95.9408 379.595 96.1641 378.583 96.1641C377.594 96.1641 376.817 95.8473 376.252 95.2139C375.687 94.5758 375.404 93.6803 375.404 92.5273C375.404 91.4382 375.712 90.5518 376.327 89.8682C376.947 89.18 377.715 88.8359 378.631 88.8359C379.547 88.8359 380.256 89.1322 380.757 89.7246C381.258 90.3171 381.509 91.1396 381.509 92.1924V92.7803ZM380.36 91.8301C380.356 91.1829 380.199 90.6794 379.889 90.3193C379.583 89.9593 379.157 89.7793 378.61 89.7793C378.082 89.7793 377.633 89.9684 377.264 90.3467C376.895 90.7249 376.667 91.2194 376.58 91.8301H380.36ZM392.863 96H391.742V92.0078C391.742 90.5221 391.2 89.7793 390.115 89.7793C389.555 89.7793 389.09 89.9912 388.721 90.415C388.356 90.8343 388.174 91.3652 388.174 92.0078V96H387.053V89H388.174V90.1621H388.201C388.73 89.278 389.495 88.8359 390.498 88.8359C391.264 88.8359 391.849 89.0843 392.255 89.5811C392.66 90.0732 392.863 90.7865 392.863 91.7207V96ZM400.608 92.7803H395.666C395.684 93.5596 395.894 94.1611 396.295 94.585C396.696 95.0088 397.247 95.2207 397.949 95.2207C398.738 95.2207 399.462 94.9609 400.123 94.4414V95.4941C399.508 95.9408 398.694 96.1641 397.683 96.1641C396.694 96.1641 395.917 95.8473 395.352 95.2139C394.786 94.5758 394.504 93.6803 394.504 92.5273C394.504 91.4382 394.812 90.5518 395.427 89.8682C396.047 89.18 396.814 88.8359 397.73 88.8359C398.646 88.8359 399.355 89.1322 399.856 89.7246C400.358 90.3171 400.608 91.1396 400.608 92.1924V92.7803ZM399.46 91.8301C399.455 91.1829 399.298 90.6794 398.988 90.3193C398.683 89.9593 398.257 89.7793 397.71 89.7793C397.181 89.7793 396.732 89.9684 396.363 90.3467C395.994 90.7249 395.766 91.2194 395.68 91.8301H399.46ZM407.424 89L405.072 92.541L407.383 96H406.077L404.703 93.7305C404.617 93.5892 404.514 93.4115 404.396 93.1973H404.368C404.345 93.2383 404.238 93.416 404.047 93.7305L402.646 96H401.354L403.739 92.5684L401.456 89H402.762L404.115 91.3926C404.215 91.5703 404.313 91.7526 404.409 91.9395H404.437L406.187 89H407.424ZM411.983 95.9316C411.719 96.0775 411.37 96.1504 410.938 96.1504C409.712 96.1504 409.099 95.4668 409.099 94.0996V89.957H407.896V89H409.099V87.291L410.22 86.9287V89H411.983V89.957H410.22V93.9014C410.22 94.3708 410.299 94.7057 410.459 94.9062C410.618 95.1068 410.883 95.207 411.252 95.207C411.535 95.207 411.778 95.1296 411.983 94.9746V95.9316ZM416.898 95.7471V94.5439C417.509 94.9951 418.181 95.2207 418.915 95.2207C419.899 95.2207 420.392 94.8926 420.392 94.2363C420.392 94.0495 420.348 93.8923 420.262 93.7646C420.18 93.6325 420.066 93.5163 419.92 93.416C419.779 93.3158 419.61 93.2269 419.414 93.1494C419.223 93.0674 419.015 92.9831 418.792 92.8965C418.482 92.7734 418.209 92.6504 417.972 92.5273C417.739 92.3997 417.543 92.2585 417.384 92.1035C417.229 91.944 417.11 91.764 417.028 91.5635C416.951 91.363 416.912 91.1283 416.912 90.8594C416.912 90.5312 416.987 90.2419 417.138 89.9912C417.288 89.736 417.489 89.5241 417.739 89.3555C417.99 89.1823 418.275 89.0524 418.594 88.9658C418.917 88.8792 419.25 88.8359 419.592 88.8359C420.198 88.8359 420.74 88.9408 421.219 89.1504V90.2852C420.704 89.9479 420.111 89.7793 419.441 89.7793C419.232 89.7793 419.043 89.8044 418.874 89.8545C418.705 89.9001 418.56 89.9661 418.437 90.0527C418.318 90.1393 418.225 90.2441 418.156 90.3672C418.092 90.4857 418.061 90.6178 418.061 90.7637C418.061 90.946 418.092 91.0986 418.156 91.2217C418.225 91.3447 418.323 91.4541 418.45 91.5498C418.578 91.6455 418.733 91.7321 418.915 91.8096C419.097 91.887 419.305 91.9714 419.537 92.0625C419.847 92.181 420.125 92.304 420.371 92.4316C420.617 92.5547 420.827 92.696 421 92.8555C421.173 93.0104 421.305 93.1904 421.396 93.3955C421.492 93.6006 421.54 93.8444 421.54 94.127C421.54 94.4733 421.463 94.7741 421.308 95.0293C421.157 95.2845 420.954 95.4964 420.699 95.665C420.444 95.8337 420.15 95.959 419.817 96.041C419.485 96.123 419.136 96.1641 418.771 96.1641C418.051 96.1641 417.427 96.0251 416.898 95.7471ZM426.517 95.9316C426.252 96.0775 425.904 96.1504 425.471 96.1504C424.245 96.1504 423.632 95.4668 423.632 94.0996V89.957H422.429V89H423.632V87.291L424.753 86.9287V89H426.517V89.957H424.753V93.9014C424.753 94.3708 424.833 94.7057 424.992 94.9062C425.152 95.1068 425.416 95.207 425.785 95.207C426.068 95.207 426.312 95.1296 426.517 94.9746V95.9316ZM433.64 92.7803H428.697C428.715 93.5596 428.925 94.1611 429.326 94.585C429.727 95.0088 430.279 95.2207 430.98 95.2207C431.769 95.2207 432.493 94.9609 433.154 94.4414V95.4941C432.539 95.9408 431.726 96.1641 430.714 96.1641C429.725 96.1641 428.948 95.8473 428.383 95.2139C427.818 94.5758 427.535 93.6803 427.535 92.5273C427.535 91.4382 427.843 90.5518 428.458 89.8682C429.078 89.18 429.846 88.8359 430.762 88.8359C431.678 88.8359 432.386 89.1322 432.888 89.7246C433.389 90.3171 433.64 91.1396 433.64 92.1924V92.7803ZM432.491 91.8301C432.487 91.1829 432.329 90.6794 432.02 90.3193C431.714 89.9593 431.288 89.7793 430.741 89.7793C430.213 89.7793 429.764 89.9684 429.395 90.3467C429.025 90.7249 428.798 91.2194 428.711 91.8301H432.491ZM436.49 94.9883H436.463V99.2197H435.342V89H436.463V90.2305H436.49C437.042 89.3008 437.848 88.8359 438.91 88.8359C439.812 88.8359 440.517 89.1504 441.022 89.7793C441.528 90.4036 441.781 91.2422 441.781 92.2949C441.781 93.4661 441.496 94.4049 440.927 95.1113C440.357 95.8132 439.578 96.1641 438.589 96.1641C437.682 96.1641 436.982 95.7721 436.49 94.9883ZM436.463 92.165V93.1426C436.463 93.7214 436.65 94.2135 437.023 94.6191C437.402 95.0202 437.88 95.2207 438.459 95.2207C439.138 95.2207 439.669 94.9609 440.052 94.4414C440.439 93.9219 440.633 93.1995 440.633 92.2744C440.633 91.4951 440.453 90.8844 440.093 90.4424C439.733 90.0003 439.245 89.7793 438.63 89.7793C437.978 89.7793 437.454 90.0072 437.058 90.4629C436.661 90.9141 436.463 91.4814 436.463 92.165ZM450.34 96.1641C449.305 96.1641 448.478 95.8382 447.858 95.1865C447.243 94.5303 446.936 93.6621 446.936 92.582C446.936 91.4062 447.257 90.488 447.899 89.8271C448.542 89.1663 449.41 88.8359 450.504 88.8359C451.548 88.8359 452.361 89.1572 452.944 89.7998C453.532 90.4424 453.826 91.3333 453.826 92.4727C453.826 93.5892 453.509 94.4847 452.876 95.1592C452.247 95.8291 451.402 96.1641 450.34 96.1641ZM450.422 89.7793C449.702 89.7793 449.132 90.0254 448.713 90.5176C448.294 91.0052 448.084 91.6797 448.084 92.541C448.084 93.3704 448.296 94.0244 448.72 94.5029C449.144 94.9814 449.711 95.2207 450.422 95.2207C451.146 95.2207 451.702 94.986 452.09 94.5166C452.482 94.0472 452.678 93.3796 452.678 92.5137C452.678 91.6387 452.482 90.9642 452.09 90.4902C451.702 90.0163 451.146 89.7793 450.422 89.7793ZM459.268 90.1348C459.072 89.9844 458.789 89.9092 458.42 89.9092C457.941 89.9092 457.54 90.1348 457.217 90.5859C456.898 91.0371 456.738 91.6523 456.738 92.4316V96H455.617V89H456.738V90.4424H456.766C456.925 89.9502 457.169 89.5674 457.497 89.2939C457.825 89.016 458.192 88.877 458.598 88.877C458.889 88.877 459.113 88.9089 459.268 88.9727V90.1348ZM469.098 95.6787C468.56 96.0023 467.922 96.1641 467.184 96.1641C466.186 96.1641 465.379 95.8405 464.764 95.1934C464.153 94.5417 463.848 93.6986 463.848 92.6641C463.848 91.5111 464.178 90.5859 464.839 89.8887C465.5 89.1868 466.382 88.8359 467.484 88.8359C468.1 88.8359 468.642 88.9499 469.111 89.1777V90.3262C468.592 89.9616 468.036 89.7793 467.443 89.7793C466.728 89.7793 466.14 90.0368 465.68 90.5518C465.224 91.0622 464.996 91.7344 464.996 92.5684C464.996 93.3887 465.21 94.0358 465.639 94.5098C466.072 94.9837 466.65 95.2207 467.375 95.2207C467.986 95.2207 468.56 95.0179 469.098 94.6123V95.6787ZM471.914 96H470.793V85.6367H471.914V96ZM474.758 87.2227C474.557 87.2227 474.386 87.1543 474.245 87.0176C474.104 86.8809 474.033 86.7077 474.033 86.498C474.033 86.2884 474.104 86.1152 474.245 85.9785C474.386 85.8372 474.557 85.7666 474.758 85.7666C474.963 85.7666 475.136 85.8372 475.277 85.9785C475.423 86.1152 475.496 86.2884 475.496 86.498C475.496 86.6986 475.423 86.8695 475.277 87.0107C475.136 87.152 474.963 87.2227 474.758 87.2227ZM475.305 96H474.184V89H475.305V96ZM482.346 95.6787C481.808 96.0023 481.17 96.1641 480.432 96.1641C479.434 96.1641 478.627 95.8405 478.012 95.1934C477.401 94.5417 477.096 93.6986 477.096 92.6641C477.096 91.5111 477.426 90.5859 478.087 89.8887C478.748 89.1868 479.63 88.8359 480.732 88.8359C481.348 88.8359 481.89 88.9499 482.359 89.1777V90.3262C481.84 89.9616 481.284 89.7793 480.691 89.7793C479.976 89.7793 479.388 90.0368 478.928 90.5518C478.472 91.0622 478.244 91.7344 478.244 92.5684C478.244 93.3887 478.458 94.0358 478.887 94.5098C479.32 94.9837 479.898 95.2207 480.623 95.2207C481.234 95.2207 481.808 95.0179 482.346 94.6123V95.6787ZM489.852 96H488.279L485.189 92.6367H485.162V96H484.041V85.6367H485.162V92.2061H485.189L488.129 89H489.599L486.352 92.377L489.852 96ZM498.089 95.9316C497.825 96.0775 497.476 96.1504 497.043 96.1504C495.817 96.1504 495.204 95.4668 495.204 94.0996V89.957H494.001V89H495.204V87.291L496.325 86.9287V89H498.089V89.957H496.325V93.9014C496.325 94.3708 496.405 94.7057 496.564 94.9062C496.724 95.1068 496.988 95.207 497.357 95.207C497.64 95.207 497.884 95.1296 498.089 94.9746V95.9316ZM505.396 96H504.275V91.9668C504.275 90.5085 503.733 89.7793 502.648 89.7793C502.102 89.7793 501.641 89.9912 501.268 90.415C500.894 90.8343 500.707 91.3743 500.707 92.0352V96H499.586V85.6367H500.707V90.1621H500.734C501.272 89.278 502.038 88.8359 503.031 88.8359C504.608 88.8359 505.396 89.7861 505.396 91.6865V96ZM508.09 87.2227C507.889 87.2227 507.718 87.1543 507.577 87.0176C507.436 86.8809 507.365 86.7077 507.365 86.498C507.365 86.2884 507.436 86.1152 507.577 85.9785C507.718 85.8372 507.889 85.7666 508.09 85.7666C508.295 85.7666 508.468 85.8372 508.609 85.9785C508.755 86.1152 508.828 86.2884 508.828 86.498C508.828 86.6986 508.755 86.8695 508.609 87.0107C508.468 87.152 508.295 87.2227 508.09 87.2227ZM508.637 96H507.516V89H508.637V96ZM510.482 95.7471V94.5439C511.093 94.9951 511.765 95.2207 512.499 95.2207C513.483 95.2207 513.976 94.8926 513.976 94.2363C513.976 94.0495 513.932 93.8923 513.846 93.7646C513.764 93.6325 513.65 93.5163 513.504 93.416C513.363 93.3158 513.194 93.2269 512.998 93.1494C512.807 93.0674 512.599 92.9831 512.376 92.8965C512.066 92.7734 511.793 92.6504 511.556 92.5273C511.323 92.3997 511.127 92.2585 510.968 92.1035C510.813 91.944 510.694 91.764 510.612 91.5635C510.535 91.363 510.496 91.1283 510.496 90.8594C510.496 90.5312 510.571 90.2419 510.722 89.9912C510.872 89.736 511.073 89.5241 511.323 89.3555C511.574 89.1823 511.859 89.0524 512.178 88.9658C512.501 88.8792 512.834 88.8359 513.176 88.8359C513.782 88.8359 514.324 88.9408 514.803 89.1504V90.2852C514.288 89.9479 513.695 89.7793 513.025 89.7793C512.816 89.7793 512.627 89.8044 512.458 89.8545C512.289 89.9001 512.144 89.9661 512.021 90.0527C511.902 90.1393 511.809 90.2441 511.74 90.3672C511.676 90.4857 511.645 90.6178 511.645 90.7637C511.645 90.946 511.676 91.0986 511.74 91.2217C511.809 91.3447 511.907 91.4541 512.034 91.5498C512.162 91.6455 512.317 91.7321 512.499 91.8096C512.681 91.887 512.889 91.9714 513.121 92.0625C513.431 92.181 513.709 92.304 513.955 92.4316C514.201 92.5547 514.411 92.696 514.584 92.8555C514.757 93.0104 514.889 93.1904 514.98 93.3955C515.076 93.6006 515.124 93.8444 515.124 94.127C515.124 94.4733 515.047 94.7741 514.892 95.0293C514.741 95.2845 514.538 95.4964 514.283 95.665C514.028 95.8337 513.734 95.959 513.401 96.041C513.069 96.123 512.72 96.1641 512.355 96.1641C511.635 96.1641 511.011 96.0251 510.482 95.7471ZM521.816 96H520.695V85.6367H521.816V96ZM524.66 87.2227C524.46 87.2227 524.289 87.1543 524.147 87.0176C524.006 86.8809 523.936 86.7077 523.936 86.498C523.936 86.2884 524.006 86.1152 524.147 85.9785C524.289 85.8372 524.46 85.7666 524.66 85.7666C524.865 85.7666 525.038 85.8372 525.18 85.9785C525.326 86.1152 525.398 86.2884 525.398 86.498C525.398 86.6986 525.326 86.8695 525.18 87.0107C525.038 87.152 524.865 87.2227 524.66 87.2227ZM525.207 96H524.086V89H525.207V96ZM533.287 96H532.166V92.0078C532.166 90.5221 531.624 89.7793 530.539 89.7793C529.979 89.7793 529.514 89.9912 529.145 90.415C528.78 90.8343 528.598 91.3652 528.598 92.0078V96H527.477V89H528.598V90.1621H528.625C529.154 89.278 529.919 88.8359 530.922 88.8359C531.688 88.8359 532.273 89.0843 532.679 89.5811C533.084 90.0732 533.287 90.7865 533.287 91.7207V96ZM541.217 96H539.645L536.555 92.6367H536.527V96H535.406V85.6367H536.527V92.2061H536.555L539.494 89H540.964L537.717 92.377L541.217 96ZM549.454 95.9316C549.19 96.0775 548.841 96.1504 548.408 96.1504C547.182 96.1504 546.569 95.4668 546.569 94.0996V89.957H545.366V89H546.569V87.291L547.69 86.9287V89H549.454V89.957H547.69V93.9014C547.69 94.3708 547.77 94.7057 547.93 94.9062C548.089 95.1068 548.354 95.207 548.723 95.207C549.005 95.207 549.249 95.1296 549.454 94.9746V95.9316ZM553.877 96.1641C552.842 96.1641 552.015 95.8382 551.396 95.1865C550.78 94.5303 550.473 93.6621 550.473 92.582C550.473 91.4062 550.794 90.488 551.437 89.8271C552.079 89.1663 552.947 88.8359 554.041 88.8359C555.085 88.8359 555.898 89.1572 556.481 89.7998C557.069 90.4424 557.363 91.3333 557.363 92.4727C557.363 93.5892 557.047 94.4847 556.413 95.1592C555.784 95.8291 554.939 96.1641 553.877 96.1641ZM553.959 89.7793C553.239 89.7793 552.669 90.0254 552.25 90.5176C551.831 91.0052 551.621 91.6797 551.621 92.541C551.621 93.3704 551.833 94.0244 552.257 94.5029C552.681 94.9814 553.248 95.2207 553.959 95.2207C554.684 95.2207 555.24 94.986 555.627 94.5166C556.019 94.0472 556.215 93.3796 556.215 92.5137C556.215 91.6387 556.019 90.9642 555.627 90.4902C555.24 90.0163 554.684 89.7793 553.959 89.7793ZM218.109 114.439C218.109 117.01 216.879 118.295 214.418 118.295C213.552 118.295 212.796 118.131 212.148 117.803V116.682C212.937 117.119 213.689 117.338 214.404 117.338C216.127 117.338 216.988 116.422 216.988 114.59V113.824H216.961C216.428 114.717 215.626 115.164 214.555 115.164C213.684 115.164 212.982 114.854 212.449 114.234C211.921 113.61 211.656 112.774 211.656 111.726C211.656 110.536 211.941 109.59 212.511 108.889C213.085 108.187 213.869 107.836 214.862 107.836C215.806 107.836 216.505 108.214 216.961 108.971H216.988V108H218.109V114.439ZM216.988 111.835V110.803C216.988 110.247 216.799 109.771 216.421 109.374C216.047 108.978 215.58 108.779 215.02 108.779C214.327 108.779 213.785 109.032 213.393 109.538C213.001 110.039 212.805 110.743 212.805 111.65C212.805 112.43 212.992 113.054 213.365 113.523C213.743 113.988 214.243 114.221 214.862 114.221C215.491 114.221 216.002 113.997 216.394 113.551C216.79 113.104 216.988 112.532 216.988 111.835ZM223.305 115.164C222.27 115.164 221.443 114.838 220.823 114.187C220.208 113.53 219.9 112.662 219.9 111.582C219.9 110.406 220.222 109.488 220.864 108.827C221.507 108.166 222.375 107.836 223.469 107.836C224.512 107.836 225.326 108.157 225.909 108.8C226.497 109.442 226.791 110.333 226.791 111.473C226.791 112.589 226.474 113.485 225.841 114.159C225.212 114.829 224.367 115.164 223.305 115.164ZM223.387 108.779C222.667 108.779 222.097 109.025 221.678 109.518C221.258 110.005 221.049 110.68 221.049 111.541C221.049 112.37 221.261 113.024 221.685 113.503C222.108 113.981 222.676 114.221 223.387 114.221C224.111 114.221 224.667 113.986 225.055 113.517C225.447 113.047 225.643 112.38 225.643 111.514C225.643 110.639 225.447 109.964 225.055 109.49C224.667 109.016 224.111 108.779 223.387 108.779ZM235.671 114.932C235.407 115.077 235.058 115.15 234.625 115.15C233.399 115.15 232.786 114.467 232.786 113.1V108.957H231.583V108H232.786V106.291L233.907 105.929V108H235.671V108.957H233.907V112.901C233.907 113.371 233.987 113.706 234.146 113.906C234.306 114.107 234.57 114.207 234.939 114.207C235.222 114.207 235.466 114.13 235.671 113.975V114.932ZM240.094 115.164C239.059 115.164 238.232 114.838 237.612 114.187C236.997 113.53 236.689 112.662 236.689 111.582C236.689 110.406 237.011 109.488 237.653 108.827C238.296 108.166 239.164 107.836 240.258 107.836C241.301 107.836 242.115 108.157 242.698 108.8C243.286 109.442 243.58 110.333 243.58 111.473C243.58 112.589 243.263 113.485 242.63 114.159C242.001 114.829 241.156 115.164 240.094 115.164ZM240.176 108.779C239.456 108.779 238.886 109.025 238.467 109.518C238.048 110.005 237.838 110.68 237.838 111.541C237.838 112.37 238.05 113.024 238.474 113.503C238.897 113.981 239.465 114.221 240.176 114.221C240.9 114.221 241.456 113.986 241.844 113.517C242.236 113.047 242.432 112.38 242.432 111.514C242.432 110.639 242.236 109.964 241.844 109.49C241.456 109.016 240.9 108.779 240.176 108.779ZM254.224 115H253.103V113.906H253.075C252.588 114.745 251.87 115.164 250.922 115.164C250.225 115.164 249.678 114.979 249.281 114.61C248.889 114.241 248.693 113.751 248.693 113.141C248.693 111.833 249.464 111.072 251.004 110.857L253.103 110.563C253.103 109.374 252.622 108.779 251.66 108.779C250.817 108.779 250.056 109.066 249.377 109.641V108.492C250.065 108.055 250.858 107.836 251.756 107.836C253.401 107.836 254.224 108.706 254.224 110.447V115ZM253.103 111.459L251.414 111.691C250.895 111.764 250.503 111.894 250.238 112.081C249.974 112.263 249.842 112.589 249.842 113.059C249.842 113.4 249.963 113.681 250.204 113.899C250.45 114.114 250.776 114.221 251.182 114.221C251.738 114.221 252.196 114.027 252.556 113.64C252.92 113.248 253.103 112.753 253.103 112.156V111.459ZM340.206 115.15C339.996 115.15 339.816 115.075 339.666 114.925C339.52 114.774 339.447 114.594 339.447 114.385C339.447 114.175 339.52 113.995 339.666 113.845C339.816 113.69 339.996 113.612 340.206 113.612C340.42 113.612 340.603 113.69 340.753 113.845C340.903 113.995 340.979 114.175 340.979 114.385C340.979 114.594 340.903 114.774 340.753 114.925C340.603 115.075 340.42 115.15 340.206 115.15Z" fill="#31313A"/>
<path d="M264.136 109.511C263.944 109.36 263.669 109.285 263.309 109.285C262.839 109.285 262.447 109.497 262.133 109.921C261.818 110.345 261.661 110.921 261.661 111.65V115H260.075V108H261.661V109.442H261.688C261.843 108.95 262.08 108.567 262.399 108.294C262.723 108.016 263.083 107.877 263.479 107.877C263.767 107.877 263.985 107.92 264.136 108.007V109.511ZM271.061 111.931H266.289C266.307 112.578 266.506 113.077 266.884 113.428C267.267 113.779 267.791 113.954 268.456 113.954C269.203 113.954 269.889 113.731 270.514 113.284V114.562C269.876 114.964 269.033 115.164 267.984 115.164C266.954 115.164 266.146 114.847 265.558 114.214C264.974 113.576 264.683 112.68 264.683 111.527C264.683 110.438 265.004 109.552 265.646 108.868C266.294 108.18 267.096 107.836 268.053 107.836C269.01 107.836 269.75 108.144 270.274 108.759C270.799 109.374 271.061 110.229 271.061 111.322V111.931ZM269.529 110.81C269.525 110.24 269.39 109.798 269.126 109.483C268.862 109.164 268.497 109.005 268.032 109.005C267.576 109.005 267.189 109.171 266.87 109.504C266.556 109.837 266.362 110.272 266.289 110.81H269.529ZM274.164 115H272.571V104.637H274.164V115ZM281.608 115H280.07V113.906H280.043C279.56 114.745 278.851 115.164 277.917 115.164C277.229 115.164 276.689 114.977 276.297 114.604C275.91 114.23 275.716 113.735 275.716 113.12C275.716 111.799 276.477 111.028 277.999 110.81L280.077 110.516C280.077 109.518 279.603 109.019 278.655 109.019C277.821 109.019 277.069 109.306 276.399 109.88V108.492C277.138 108.055 277.99 107.836 278.956 107.836C280.724 107.836 281.608 108.706 281.608 110.447V115ZM280.077 111.562L278.607 111.767C278.152 111.826 277.808 111.938 277.575 112.102C277.347 112.261 277.233 112.544 277.233 112.949C277.233 113.245 277.338 113.489 277.548 113.681C277.762 113.868 278.047 113.961 278.402 113.961C278.885 113.961 279.284 113.792 279.599 113.455C279.918 113.113 280.077 112.685 280.077 112.17V111.562ZM287.241 114.925C286.931 115.08 286.523 115.157 286.018 115.157C284.66 115.157 283.98 114.506 283.98 113.202V109.244H282.812V108H283.98V106.38L285.566 105.929V108H287.241V109.244H285.566V112.744C285.566 113.159 285.642 113.455 285.792 113.633C285.942 113.811 286.193 113.899 286.544 113.899C286.813 113.899 287.045 113.822 287.241 113.667V114.925ZM294.453 111.931H289.682C289.7 112.578 289.898 113.077 290.276 113.428C290.659 113.779 291.183 113.954 291.849 113.954C292.596 113.954 293.282 113.731 293.906 113.284V114.562C293.268 114.964 292.425 115.164 291.377 115.164C290.347 115.164 289.538 114.847 288.95 114.214C288.367 113.576 288.075 112.68 288.075 111.527C288.075 110.438 288.396 109.552 289.039 108.868C289.686 108.18 290.488 107.836 291.445 107.836C292.402 107.836 293.143 108.144 293.667 108.759C294.191 109.374 294.453 110.229 294.453 111.322V111.931ZM292.922 110.81C292.917 110.24 292.783 109.798 292.519 109.483C292.254 109.164 291.89 109.005 291.425 109.005C290.969 109.005 290.582 109.171 290.263 109.504C289.948 109.837 289.755 110.272 289.682 110.81H292.922ZM302.328 115H300.742V113.811H300.715C300.204 114.713 299.418 115.164 298.356 115.164C297.495 115.164 296.805 114.852 296.285 114.228C295.77 113.599 295.513 112.744 295.513 111.664C295.513 110.507 295.798 109.579 296.367 108.882C296.941 108.185 297.705 107.836 298.657 107.836C299.601 107.836 300.286 108.214 300.715 108.971H300.742V104.637H302.328V115ZM300.763 111.801V110.885C300.763 110.388 300.601 109.966 300.277 109.62C299.954 109.274 299.541 109.101 299.04 109.101C298.448 109.101 297.98 109.322 297.639 109.764C297.301 110.206 297.133 110.819 297.133 111.603C297.133 112.313 297.295 112.876 297.618 113.291C297.946 113.701 298.386 113.906 298.938 113.906C299.48 113.906 299.92 113.708 300.257 113.312C300.594 112.91 300.763 112.407 300.763 111.801ZM309.868 113.968H309.841V118.22H308.255V108H309.841V109.23H309.868C310.41 108.301 311.203 107.836 312.247 107.836C313.136 107.836 313.828 108.148 314.325 108.772C314.822 109.397 315.07 110.235 315.07 111.288C315.07 112.455 314.79 113.389 314.229 114.091C313.669 114.793 312.903 115.144 311.933 115.144C311.039 115.144 310.351 114.752 309.868 113.968ZM309.827 111.206V112.074C309.827 112.585 309.989 113.018 310.312 113.373C310.641 113.729 311.055 113.906 311.557 113.906C312.145 113.906 312.605 113.678 312.938 113.223C313.275 112.762 313.443 112.122 313.443 111.302C313.443 110.614 313.286 110.076 312.972 109.688C312.662 109.297 312.24 109.101 311.707 109.101C311.142 109.101 310.686 109.301 310.34 109.702C309.998 110.103 309.827 110.604 309.827 111.206ZM321.899 115H320.361V113.906H320.334C319.851 114.745 319.142 115.164 318.208 115.164C317.52 115.164 316.98 114.977 316.588 114.604C316.201 114.23 316.007 113.735 316.007 113.12C316.007 111.799 316.768 111.028 318.29 110.81L320.368 110.516C320.368 109.518 319.894 109.019 318.946 109.019C318.112 109.019 317.36 109.306 316.69 109.88V108.492C317.429 108.055 318.281 107.836 319.247 107.836C321.015 107.836 321.899 108.706 321.899 110.447V115ZM320.368 111.562L318.898 111.767C318.443 111.826 318.099 111.938 317.866 112.102C317.638 112.261 317.524 112.544 317.524 112.949C317.524 113.245 317.629 113.489 317.839 113.681C318.053 113.868 318.338 113.961 318.693 113.961C319.176 113.961 319.575 113.792 319.89 113.455C320.209 113.113 320.368 112.685 320.368 112.17V111.562ZM330.212 114.439C330.212 117.01 328.92 118.295 326.336 118.295C325.424 118.295 324.629 118.142 323.95 117.837V116.388C324.716 116.825 325.443 117.044 326.131 117.044C327.794 117.044 328.626 116.226 328.626 114.59V113.824H328.599C328.075 114.717 327.286 115.164 326.233 115.164C325.381 115.164 324.693 114.854 324.169 114.234C323.649 113.61 323.39 112.774 323.39 111.726C323.39 110.536 323.67 109.59 324.23 108.889C324.791 108.187 325.561 107.836 326.541 107.836C327.466 107.836 328.152 108.214 328.599 108.971H328.626V108H330.212V114.439ZM328.64 111.794V110.885C328.64 110.393 328.476 109.973 328.147 109.627C327.824 109.276 327.418 109.101 326.931 109.101C326.329 109.101 325.857 109.324 325.516 109.771C325.178 110.213 325.01 110.832 325.01 111.63C325.01 112.318 325.172 112.869 325.495 113.284C325.823 113.694 326.256 113.899 326.794 113.899C327.341 113.899 327.785 113.703 328.127 113.312C328.469 112.915 328.64 112.409 328.64 111.794ZM338.203 111.931H333.432C333.45 112.578 333.648 113.077 334.026 113.428C334.409 113.779 334.933 113.954 335.599 113.954C336.346 113.954 337.032 113.731 337.656 113.284V114.562C337.018 114.964 336.175 115.164 335.127 115.164C334.097 115.164 333.288 114.847 332.7 114.214C332.117 113.576 331.825 112.68 331.825 111.527C331.825 110.438 332.146 109.552 332.789 108.868C333.436 108.18 334.238 107.836 335.195 107.836C336.152 107.836 336.893 108.144 337.417 108.759C337.941 109.374 338.203 110.229 338.203 111.322V111.931ZM336.672 110.81C336.667 110.24 336.533 109.798 336.269 109.483C336.004 109.164 335.64 109.005 335.175 109.005C334.719 109.005 334.332 109.171 334.013 109.504C333.698 109.837 333.505 110.272 333.432 110.81H336.672Z" fill="#2777D3"/>
<path d="M259.043 116.62H338.682V117.434H259.043V116.62Z" fill="#2777D3"/>
</g>
<g clip-path="url(#clip1_1_975)">
<path d="M30 94H140V136H30V94Z" fill="white"/>
</g>
<path d="M34 94.5H136C137.933 94.5 139.5 96.067 139.5 98V132C139.5 133.933 137.933 135.5 136 135.5H34C32.067 135.5 30.5 133.933 30.5 132V98C30.5 96.067 32.067 94.5 34 94.5Z" stroke="#E6E6EA"/>
<path d="M38.0459 85.5898C37.3076 85.9727 36.3893 86.1641 35.291 86.1641C33.8691 86.1641 32.7298 85.7152 31.873 84.8174C31.0163 83.9196 30.5879 82.7415 30.5879 81.2832C30.5879 79.7155 31.0687 78.4486 32.0303 77.4824C32.9964 76.5163 34.2155 76.0332 35.6875 76.0332C36.6354 76.0332 37.4215 76.1676 38.0459 76.4365V78.0498C37.3851 77.6579 36.6559 77.4619 35.8584 77.4619C34.7965 77.4619 33.9352 77.8014 33.2744 78.4805C32.6182 79.1595 32.29 80.0664 32.29 81.2012C32.29 82.2812 32.5977 83.1426 33.2129 83.7852C33.8281 84.4232 34.637 84.7422 35.6396 84.7422C36.5648 84.7422 37.3669 84.5234 38.0459 84.0859V85.5898ZM42.8311 86.1641C41.751 86.1641 40.8874 85.8382 40.2402 85.1865C39.5977 84.5303 39.2764 83.6621 39.2764 82.582C39.2764 81.4062 39.6113 80.488 40.2812 79.8271C40.9557 79.1663 41.8626 78.8359 43.002 78.8359C44.0957 78.8359 44.9479 79.1572 45.5586 79.7998C46.1693 80.4424 46.4746 81.3333 46.4746 82.4727C46.4746 83.5892 46.1442 84.4847 45.4834 85.1592C44.8271 85.8291 43.943 86.1641 42.8311 86.1641ZM42.9062 80.1006C42.2865 80.1006 41.7965 80.3171 41.4365 80.75C41.0765 81.1829 40.8965 81.7799 40.8965 82.541C40.8965 83.2747 41.0788 83.8535 41.4434 84.2773C41.8079 84.6966 42.2956 84.9062 42.9062 84.9062C43.5306 84.9062 44.0091 84.6989 44.3418 84.2842C44.679 83.8695 44.8477 83.2793 44.8477 82.5137C44.8477 81.7435 44.679 81.1488 44.3418 80.7295C44.0091 80.3102 43.5306 80.1006 42.9062 80.1006ZM54.459 86H52.873V84.8105H52.8457C52.3353 85.7129 51.5492 86.1641 50.4873 86.1641C49.626 86.1641 48.9355 85.8519 48.416 85.2275C47.901 84.5986 47.6436 83.7441 47.6436 82.6641C47.6436 81.5065 47.9284 80.5791 48.498 79.8818C49.0723 79.1846 49.8356 78.8359 50.7881 78.8359C51.7314 78.8359 52.4173 79.2142 52.8457 79.9707H52.873V75.6367H54.459V86ZM52.8936 82.8008V81.8848C52.8936 81.388 52.7318 80.9665 52.4082 80.6201C52.0846 80.2738 51.6722 80.1006 51.1709 80.1006C50.5785 80.1006 50.1113 80.3216 49.7695 80.7637C49.4323 81.2057 49.2637 81.8187 49.2637 82.6025C49.2637 83.3135 49.4255 83.8763 49.749 84.291C50.0771 84.7012 50.5169 84.9062 51.0684 84.9062C51.6107 84.9062 52.0505 84.708 52.3877 84.3115C52.7249 83.9105 52.8936 83.4069 52.8936 82.8008ZM62.457 82.9307H57.6855C57.7038 83.5778 57.902 84.0768 58.2803 84.4277C58.6631 84.7786 59.1872 84.9541 59.8525 84.9541C60.5999 84.9541 61.2858 84.7308 61.9102 84.2842V85.5625C61.2721 85.9635 60.429 86.1641 59.3809 86.1641C58.3509 86.1641 57.542 85.8473 56.9541 85.2139C56.3708 84.5758 56.0791 83.6803 56.0791 82.5273C56.0791 81.4382 56.4004 80.5518 57.043 79.8682C57.6901 79.18 58.4922 78.8359 59.4492 78.8359C60.4062 78.8359 61.1468 79.1436 61.6709 79.7588C62.195 80.374 62.457 81.2285 62.457 82.3223V82.9307ZM60.9258 81.8096C60.9212 81.2399 60.7868 80.7979 60.5225 80.4834C60.2581 80.1644 59.8936 80.0049 59.4287 80.0049C58.973 80.0049 58.5856 80.1712 58.2666 80.5039C57.9521 80.8366 57.7585 81.2718 57.6855 81.8096H60.9258Z" fill="#31313A"/>
<g clip-path="url(#clip2_1_975)">
<path d="M158.6 113.4H157.4C157.29 113.4 157.2 113.49 157.2 113.6V118.8C157.2 118.91 157.29 119 157.4 119H158.6C158.71 119 158.8 118.91 158.8 118.8V113.6C158.8 113.49 158.71 113.4 158.6 113.4Z" fill="#2777D3"/>
<path d="M158.6 110.6H157.4C157.29 110.6 157.2 110.69 157.2 110.8V112C157.2 112.11 157.29 112.2 157.4 112.2H158.6C158.71 112.2 158.8 112.11 158.8 112V110.8C158.8 110.69 158.71 110.6 158.6 110.6Z" fill="#2777D3"/>
<path d="M158 107C156.418 107 154.871 107.469 153.555 108.348C152.24 109.227 151.214 110.477 150.609 111.939C150.003 113.4 149.845 115.009 150.154 116.561C150.462 118.113 151.224 119.538 152.343 120.657C153.462 121.776 154.887 122.538 156.439 122.846C157.991 123.155 159.6 122.997 161.061 122.391C162.523 121.786 163.773 120.76 164.652 119.445C165.531 118.129 166 116.582 166 115C166 112.878 165.157 110.843 163.657 109.343C162.157 107.843 160.122 107 158 107ZM158 121.6C156.695 121.6 155.419 121.213 154.333 120.488C153.248 119.762 152.402 118.732 151.902 117.526C151.403 116.32 151.272 114.993 151.527 113.712C151.781 112.432 152.41 111.256 153.333 110.333C154.256 109.41 155.432 108.781 156.712 108.527C157.993 108.272 159.32 108.403 160.526 108.902C161.732 109.402 162.762 110.248 163.488 111.333C164.213 112.419 164.6 113.695 164.6 115C164.597 116.75 163.901 118.427 162.664 119.664C161.427 120.901 159.75 121.597 158 121.6Z" fill="#2777D3"/>
</g>
</g>
<defs>
<filter id="filter0_d_1_975" x="166" y="31" width="435" height="180" filterUnits="userSpaceOnUse" color-interpolation-filters="sRGB">
<feFlood flood-opacity="0" result="BackgroundImageFix"/>
<feColorMatrix in="SourceAlpha" type="matrix" values="0 0 0 0 0 0 0 0 0 0 0 0 0 0 0 0 0 0 127 0" result="hardAlpha"/>
<feOffset dy="6"/>
<feGaussianBlur stdDeviation="5"/>
<feComposite in2="hardAlpha" operator="out"/>
<feColorMatrix type="matrix" values="0 0 0 0 0 0 0 0 0 0 0 0 0 0 0 0 0 0 0.25 0"/>
<feBlend mode="normal" in2="BackgroundImageFix" result="effect1_dropShadow_1_975"/>
<feBlend mode="normal" in="SourceGraphic" in2="effect1_dropShadow_1_975" result="shape"/>
</filter>
<clipPath id="clip0_1_975">
<rect width="485" height="220" fill="white"/>
</clipPath>
<clipPath id="clip1_1_975">
<path d="M30 98C30 95.7909 31.7909 94 34 94H136C138.209 94 140 95.7909 140 98V132C140 134.209 138.209 136 136 136H34C31.7909 136 30 134.209 30 132V98Z" fill="white"/>
</clipPath>
<clipPath id="clip2_1_975">
<rect width="16" height="16" fill="white" transform="translate(150 107)"/>
</clipPath>
</defs>
</svg>
