<svg width="485" height="177" viewBox="0 0 485 177" fill="none" xmlns="http://www.w3.org/2000/svg">
<rect width="485" height="177" fill="#F4F4F6"/>
<g filter="url(#filter0_d_1_871)">
<path d="M35 88.5001L50 79.8398V97.1604L35 88.5001Z" fill="white"/>
<mask id="path-2-inside-1_1_871" fill="white">
<path d="M50 34C50 31.7909 51.7909 30 54 30H446C448.209 30 450 31.7909 450 34V143C450 145.209 448.209 147 446 147H54C51.7909 147 50 145.209 50 143V34Z"/>
</mask>
<path d="M50 34C50 31.7909 51.7909 30 54 30H446C448.209 30 450 31.7909 450 34V143C450 145.209 448.209 147 446 147H54C51.7909 147 50 145.209 50 143V34Z" fill="white"/>
<path d="M50 34C50 26.268 56.268 20 64 20H436C443.732 20 450 26.268 450 34V40C450 40 448.209 40 446 40H54C51.7909 40 50 40 50 40V34ZM450 147H50H450ZM50 147V30V147ZM450 30V147V30Z" fill="#2777D3" mask="url(#path-2-inside-1_1_871)"/>
<path d="M73.2344 62.9375V67H71.3828V55.7969H74.7812C76.0677 55.7969 77.0651 56.0964 77.7734 56.6953C78.4818 57.2943 78.8359 58.138 78.8359 59.2266C78.8359 60.3151 78.4661 61.2057 77.7266 61.8984C76.987 62.5911 75.987 62.9375 74.7266 62.9375H73.2344ZM73.2344 57.3281V61.4219H74.4375C75.2344 61.4219 75.8411 61.237 76.2578 60.8672C76.6745 60.4974 76.8828 59.9766 76.8828 59.3047C76.8828 57.987 76.1172 57.3281 74.5859 57.3281H73.2344ZM85.1797 60.7266C84.9609 60.5547 84.6458 60.4688 84.2344 60.4688C83.6979 60.4688 83.25 60.7109 82.8906 61.1953C82.5312 61.6797 82.3516 62.3385 82.3516 63.1719V67H80.5391V59H82.3516V60.6484H82.3828C82.5599 60.0859 82.8307 59.6484 83.1953 59.3359C83.5651 59.0182 83.9766 58.8594 84.4297 58.8594C84.7578 58.8594 85.0078 58.9089 85.1797 59.0078V60.7266ZM89.8672 67.1875C88.6328 67.1875 87.6458 66.8151 86.9062 66.0703C86.1719 65.3203 85.8047 64.3281 85.8047 63.0938C85.8047 61.75 86.1875 60.7005 86.9531 59.9453C87.724 59.1901 88.7604 58.8125 90.0625 58.8125C91.3125 58.8125 92.2865 59.1797 92.9844 59.9141C93.6823 60.6484 94.0312 61.6667 94.0312 62.9688C94.0312 64.2448 93.6536 65.2682 92.8984 66.0391C92.1484 66.8047 91.138 67.1875 89.8672 67.1875ZM89.9531 60.2578C89.2448 60.2578 88.6849 60.5052 88.2734 61C87.862 61.4948 87.6562 62.1771 87.6562 63.0469C87.6562 63.8854 87.8646 64.5469 88.2812 65.0312C88.6979 65.5104 89.2552 65.75 89.9531 65.75C90.6667 65.75 91.2135 65.513 91.5938 65.0391C91.9792 64.5651 92.1719 63.8906 92.1719 63.0156C92.1719 62.1354 91.9792 61.4557 91.5938 60.9766C91.2135 60.4974 90.6667 60.2578 89.9531 60.2578ZM103.156 67H101.344V65.6406H101.312C100.729 66.6719 99.8307 67.1875 98.6172 67.1875C97.6328 67.1875 96.8438 66.8307 96.25 66.1172C95.6615 65.3984 95.3672 64.4219 95.3672 63.1875C95.3672 61.8646 95.6927 60.8047 96.3438 60.0078C97 59.2109 97.8724 58.8125 98.9609 58.8125C100.039 58.8125 100.823 59.2448 101.312 60.1094H101.344V55.1562H103.156V67ZM101.367 63.3438V62.2969C101.367 61.7292 101.182 61.2474 100.812 60.8516C100.443 60.4557 99.9714 60.2578 99.3984 60.2578C98.7214 60.2578 98.1875 60.5104 97.7969 61.0156C97.4115 61.5208 97.2188 62.2214 97.2188 63.1172C97.2188 63.9297 97.4036 64.5729 97.7734 65.0469C98.1484 65.5156 98.651 65.75 99.2812 65.75C99.901 65.75 100.404 65.5234 100.789 65.0703C101.174 64.612 101.367 64.0365 101.367 63.3438ZM112.5 67H110.688V65.7344H110.656C110.13 66.7031 109.312 67.1875 108.203 67.1875C106.312 67.1875 105.367 66.0521 105.367 63.7812V59H107.18V63.5938C107.18 65.0312 107.734 65.75 108.844 65.75C109.38 65.75 109.82 65.5521 110.164 65.1562C110.513 64.7604 110.688 64.2422 110.688 63.6016V59H112.5V67ZM120.594 66.6328C119.953 67.0026 119.195 67.1875 118.32 67.1875C117.133 67.1875 116.174 66.8177 115.445 66.0781C114.716 65.3333 114.352 64.3698 114.352 63.1875C114.352 61.8698 114.742 60.8125 115.523 60.0156C116.31 59.2135 117.359 58.8125 118.672 58.8125C119.401 58.8125 120.044 58.9401 120.602 59.1953V60.8828C120.044 60.4661 119.451 60.2578 118.82 60.2578C118.055 60.2578 117.427 60.5182 116.938 61.0391C116.448 61.5547 116.203 62.2318 116.203 63.0703C116.203 63.8984 116.432 64.5521 116.891 65.0312C117.354 65.5104 117.974 65.75 118.75 65.75C119.401 65.75 120.016 65.5182 120.594 65.0547V66.6328ZM126.617 66.9141C126.263 67.0911 125.797 67.1797 125.219 67.1797C123.667 67.1797 122.891 66.4349 122.891 64.9453V60.4219H121.555V59H122.891V57.1484L124.703 56.6328V59H126.617V60.4219H124.703V64.4219C124.703 64.8958 124.789 65.2344 124.961 65.4375C125.133 65.6406 125.419 65.7422 125.82 65.7422C126.128 65.7422 126.393 65.6536 126.617 65.4766V66.9141ZM143.344 59L140.984 67H139.086L137.633 61.5781C137.576 61.3698 137.539 61.1354 137.523 60.875H137.492C137.482 61.0521 137.435 61.2812 137.352 61.5625L135.773 67H133.914L131.562 59H133.438L134.891 64.7656C134.938 64.9375 134.969 65.1667 134.984 65.4531H135.039C135.055 65.2344 135.096 65 135.164 64.75L136.781 59H138.484L139.922 64.7891C139.969 64.9714 140.003 65.2005 140.023 65.4766H140.078C140.089 65.2839 140.128 65.0547 140.195 64.7891L141.617 59H143.344ZM150.836 67H149.078V65.75H149.047C148.495 66.7083 147.685 67.1875 146.617 67.1875C145.831 67.1875 145.214 66.974 144.766 66.5469C144.323 66.1198 144.102 65.5547 144.102 64.8516C144.102 63.3411 144.971 62.4609 146.711 62.2109L149.086 61.875C149.086 60.7344 148.544 60.1641 147.461 60.1641C146.508 60.1641 145.648 60.4922 144.883 61.1484V59.5625C145.727 59.0625 146.701 58.8125 147.805 58.8125C149.826 58.8125 150.836 59.8073 150.836 61.7969V67ZM149.086 63.0703L147.406 63.3047C146.885 63.3724 146.492 63.5 146.227 63.6875C145.966 63.8698 145.836 64.1927 145.836 64.6562C145.836 64.9948 145.956 65.2734 146.195 65.4922C146.44 65.7057 146.766 65.8125 147.172 65.8125C147.724 65.8125 148.18 65.6198 148.539 65.2344C148.904 64.8438 149.086 64.3542 149.086 63.7656V63.0703ZM154.875 67H153.055V55.1562H154.875V67ZM164.5 67H162.203L159.094 63.1562H159.062V67H157.242V55.1562H159.062V62.6641H159.094L162.031 59H164.211L160.906 62.8594L164.5 67ZM169.758 66.9141C169.404 67.0911 168.938 67.1797 168.359 67.1797C166.807 67.1797 166.031 66.4349 166.031 64.9453V60.4219H164.695V59H166.031V57.1484L167.844 56.6328V59H169.758V60.4219H167.844V64.4219C167.844 64.8958 167.93 65.2344 168.102 65.4375C168.273 65.6406 168.56 65.7422 168.961 65.7422C169.268 65.7422 169.534 65.6536 169.758 65.4766V66.9141ZM178.43 67H176.617V62.625C176.617 61.0417 176.089 60.25 175.031 60.25C174.5 60.25 174.052 60.4792 173.688 60.9375C173.323 61.3958 173.141 61.9818 173.141 62.6953V67H171.32V55.1562H173.141V60.3281H173.172C173.776 59.3177 174.641 58.8125 175.766 58.8125C177.542 58.8125 178.43 59.8984 178.43 62.0703V67ZM185.273 60.7266C185.055 60.5547 184.74 60.4688 184.328 60.4688C183.792 60.4688 183.344 60.7109 182.984 61.1953C182.625 61.6797 182.445 62.3385 182.445 63.1719V67H180.633V59H182.445V60.6484H182.477C182.654 60.0859 182.924 59.6484 183.289 59.3359C183.659 59.0182 184.07 58.8594 184.523 58.8594C184.852 58.8594 185.102 58.9089 185.273 59.0078V60.7266ZM189.961 67.1875C188.727 67.1875 187.74 66.8151 187 66.0703C186.266 65.3203 185.898 64.3281 185.898 63.0938C185.898 61.75 186.281 60.7005 187.047 59.9453C187.818 59.1901 188.854 58.8125 190.156 58.8125C191.406 58.8125 192.38 59.1797 193.078 59.9141C193.776 60.6484 194.125 61.6667 194.125 62.9688C194.125 64.2448 193.747 65.2682 192.992 66.0391C192.242 66.8047 191.232 67.1875 189.961 67.1875ZM190.047 60.2578C189.339 60.2578 188.779 60.5052 188.367 61C187.956 61.4948 187.75 62.1771 187.75 63.0469C187.75 63.8854 187.958 64.5469 188.375 65.0312C188.792 65.5104 189.349 65.75 190.047 65.75C190.76 65.75 191.307 65.513 191.688 65.0391C192.073 64.5651 192.266 63.8906 192.266 63.0156C192.266 62.1354 192.073 61.4557 191.688 60.9766C191.307 60.4974 190.76 60.2578 190.047 60.2578ZM202.953 67H201.141V65.7344H201.109C200.583 66.7031 199.766 67.1875 198.656 67.1875C196.766 67.1875 195.82 66.0521 195.82 63.7812V59H197.633V63.5938C197.633 65.0312 198.188 65.75 199.297 65.75C199.833 65.75 200.273 65.5521 200.617 65.1562C200.966 64.7604 201.141 64.2422 201.141 63.6016V59H202.953V67ZM212.602 66.3594C212.602 69.2969 211.125 70.7656 208.172 70.7656C207.13 70.7656 206.221 70.5911 205.445 70.2422V68.5859C206.32 69.0859 207.151 69.3359 207.938 69.3359C209.839 69.3359 210.789 68.401 210.789 66.5312V65.6562H210.758C210.159 66.6771 209.258 67.1875 208.055 67.1875C207.081 67.1875 206.294 66.8333 205.695 66.125C205.102 65.4115 204.805 64.4557 204.805 63.2578C204.805 61.8984 205.125 60.8177 205.766 60.0156C206.406 59.2135 207.286 58.8125 208.406 58.8125C209.464 58.8125 210.247 59.2448 210.758 60.1094H210.789V59H212.602V66.3594ZM210.805 63.3359V62.2969C210.805 61.7344 210.617 61.2552 210.242 60.8594C209.872 60.4583 209.409 60.2578 208.852 60.2578C208.164 60.2578 207.625 60.513 207.234 61.0234C206.849 61.5286 206.656 62.237 206.656 63.1484C206.656 63.9349 206.841 64.5651 207.211 65.0391C207.586 65.5078 208.081 65.7422 208.695 65.7422C209.32 65.7422 209.828 65.5182 210.219 65.0703C210.609 64.6172 210.805 64.0391 210.805 63.3359ZM222.07 67H220.258V62.625C220.258 61.0417 219.729 60.25 218.672 60.25C218.141 60.25 217.693 60.4792 217.328 60.9375C216.964 61.3958 216.781 61.9818 216.781 62.6953V67H214.961V55.1562H216.781V60.3281H216.812C217.417 59.3177 218.281 58.8125 219.406 58.8125C221.182 58.8125 222.07 59.8984 222.07 62.0703V67Z" fill="#31313A"/>
<path d="M418.267 65.1666L417.333 64.2333L421.067 60.4999L417.333 56.7666L418.267 55.8333L422 59.5666L425.733 55.8333L426.667 56.7666L422.933 60.4999L426.667 64.2333L425.733 65.1666L422 61.4333L418.267 65.1666Z" fill="#1D1B20"/>
<path d="M369 109C369 99.0589 377.059 91 387 91H412C421.941 91 430 99.0589 430 109V109C430 118.941 421.941 127 412 127H387C377.059 127 369 118.941 369 109V109Z" fill="#2777D3"/>
<path d="M393.522 114H391.745L387.062 106.795C386.944 106.613 386.846 106.424 386.769 106.228H386.728C386.764 106.437 386.782 106.886 386.782 107.574V114H385.21V104.197H387.104L391.629 111.231C391.82 111.523 391.943 111.724 391.998 111.833H392.025C391.98 111.573 391.957 111.133 391.957 110.514V104.197H393.522V114ZM401.705 110.931H396.934C396.952 111.578 397.15 112.077 397.528 112.428C397.911 112.779 398.435 112.954 399.101 112.954C399.848 112.954 400.534 112.731 401.158 112.284V113.562C400.52 113.964 399.677 114.164 398.629 114.164C397.599 114.164 396.79 113.847 396.202 113.214C395.619 112.576 395.327 111.68 395.327 110.527C395.327 109.438 395.648 108.552 396.291 107.868C396.938 107.18 397.74 106.836 398.697 106.836C399.654 106.836 400.395 107.144 400.919 107.759C401.443 108.374 401.705 109.229 401.705 110.322V110.931ZM400.174 109.81C400.169 109.24 400.035 108.798 399.771 108.483C399.506 108.164 399.142 108.005 398.677 108.005C398.221 108.005 397.834 108.171 397.515 108.504C397.2 108.837 397.007 109.272 396.934 109.81H400.174ZM409.067 107L406.736 110.541L409.04 114H407.201L405.971 111.833C405.893 111.701 405.802 111.532 405.697 111.327H405.67C405.652 111.368 405.556 111.537 405.383 111.833L404.132 114H402.3L404.679 110.568L402.423 107H404.269L405.479 109.276C405.57 109.445 405.659 109.618 405.745 109.796H405.766L407.331 107H409.067ZM413.921 113.925C413.611 114.08 413.203 114.157 412.697 114.157C411.339 114.157 410.66 113.506 410.66 112.202V108.244H409.491V107H410.66V105.38L412.246 104.929V107H413.921V108.244H412.246V111.744C412.246 112.159 412.321 112.455 412.472 112.633C412.622 112.811 412.873 112.899 413.224 112.899C413.493 112.899 413.725 112.822 413.921 112.667V113.925Z" fill="white"/>
</g>
<defs>
<filter id="filter0_d_1_871" x="25" y="26" width="435" height="137" filterUnits="userSpaceOnUse" color-interpolation-filters="sRGB">
<feFlood flood-opacity="0" result="BackgroundImageFix"/>
<feColorMatrix in="SourceAlpha" type="matrix" values="0 0 0 0 0 0 0 0 0 0 0 0 0 0 0 0 0 0 127 0" result="hardAlpha"/>
<feOffset dy="6"/>
<feGaussianBlur stdDeviation="5"/>
<feComposite in2="hardAlpha" operator="out"/>
<feColorMatrix type="matrix" values="0 0 0 0 0 0 0 0 0 0 0 0 0 0 0 0 0 0 0.25 0"/>
<feBlend mode="normal" in2="BackgroundImageFix" result="effect1_dropShadow_1_871"/>
<feBlend mode="normal" in="SourceGraphic" in2="effect1_dropShadow_1_871" result="shape"/>
</filter>
</defs>
</svg>
