<svg width="485" height="220" viewBox="0 0 485 220" fill="none" xmlns="http://www.w3.org/2000/svg">
<rect width="485" height="220" fill="#F4F4F6"/>
<g filter="url(#filter0_d_1_944)">
<path d="M35 110L50 101.34V118.66L35 110Z" fill="white"/>
<mask id="path-2-inside-1_1_944" fill="white">
<path d="M50 34C50 31.7909 51.7909 30 54 30H446C448.209 30 450 31.7909 450 34V186C450 188.209 448.209 190 446 190H54C51.7909 190 50 188.209 50 186V34Z"/>
</mask>
<path d="M50 34C50 31.7909 51.7909 30 54 30H446C448.209 30 450 31.7909 450 34V186C450 188.209 448.209 190 446 190H54C51.7909 190 50 188.209 50 186V34Z" fill="white"/>
<path d="M50 34C50 26.268 56.268 20 64 20H436C443.732 20 450 26.268 450 34V40C450 40 448.209 40 446 40H54C51.7909 40 50 40 50 40V34ZM450 190H50H450ZM50 190V30V190ZM450 30V190V30Z" fill="#2777D3" mask="url(#path-2-inside-1_1_944)"/>
<path d="M73.2344 62.9375V67H71.3828V55.7969H74.7812C76.0677 55.7969 77.0651 56.0964 77.7734 56.6953C78.4818 57.2943 78.8359 58.138 78.8359 59.2266C78.8359 60.3151 78.4661 61.2057 77.7266 61.8984C76.987 62.5911 75.987 62.9375 74.7266 62.9375H73.2344ZM73.2344 57.3281V61.4219H74.4375C75.2344 61.4219 75.8411 61.237 76.2578 60.8672C76.6745 60.4974 76.8828 59.9766 76.8828 59.3047C76.8828 57.987 76.1172 57.3281 74.5859 57.3281H73.2344ZM85.1797 60.7266C84.9609 60.5547 84.6458 60.4688 84.2344 60.4688C83.6979 60.4688 83.25 60.7109 82.8906 61.1953C82.5312 61.6797 82.3516 62.3385 82.3516 63.1719V67H80.5391V59H82.3516V60.6484H82.3828C82.5599 60.0859 82.8307 59.6484 83.1953 59.3359C83.5651 59.0182 83.9766 58.8594 84.4297 58.8594C84.7578 58.8594 85.0078 58.9089 85.1797 59.0078V60.7266ZM89.8672 67.1875C88.6328 67.1875 87.6458 66.8151 86.9062 66.0703C86.1719 65.3203 85.8047 64.3281 85.8047 63.0938C85.8047 61.75 86.1875 60.7005 86.9531 59.9453C87.724 59.1901 88.7604 58.8125 90.0625 58.8125C91.3125 58.8125 92.2865 59.1797 92.9844 59.9141C93.6823 60.6484 94.0312 61.6667 94.0312 62.9688C94.0312 64.2448 93.6536 65.2682 92.8984 66.0391C92.1484 66.8047 91.138 67.1875 89.8672 67.1875ZM89.9531 60.2578C89.2448 60.2578 88.6849 60.5052 88.2734 61C87.862 61.4948 87.6562 62.1771 87.6562 63.0469C87.6562 63.8854 87.8646 64.5469 88.2812 65.0312C88.6979 65.5104 89.2552 65.75 89.9531 65.75C90.6667 65.75 91.2135 65.513 91.5938 65.0391C91.9792 64.5651 92.1719 63.8906 92.1719 63.0156C92.1719 62.1354 91.9792 61.4557 91.5938 60.9766C91.2135 60.4974 90.6667 60.2578 89.9531 60.2578ZM103.156 67H101.344V65.6406H101.312C100.729 66.6719 99.8307 67.1875 98.6172 67.1875C97.6328 67.1875 96.8438 66.8307 96.25 66.1172C95.6615 65.3984 95.3672 64.4219 95.3672 63.1875C95.3672 61.8646 95.6927 60.8047 96.3438 60.0078C97 59.2109 97.8724 58.8125 98.9609 58.8125C100.039 58.8125 100.823 59.2448 101.312 60.1094H101.344V55.1562H103.156V67ZM101.367 63.3438V62.2969C101.367 61.7292 101.182 61.2474 100.812 60.8516C100.443 60.4557 99.9714 60.2578 99.3984 60.2578C98.7214 60.2578 98.1875 60.5104 97.7969 61.0156C97.4115 61.5208 97.2188 62.2214 97.2188 63.1172C97.2188 63.9297 97.4036 64.5729 97.7734 65.0469C98.1484 65.5156 98.651 65.75 99.2812 65.75C99.901 65.75 100.404 65.5234 100.789 65.0703C101.174 64.612 101.367 64.0365 101.367 63.3438ZM112.5 67H110.688V65.7344H110.656C110.13 66.7031 109.312 67.1875 108.203 67.1875C106.312 67.1875 105.367 66.0521 105.367 63.7812V59H107.18V63.5938C107.18 65.0312 107.734 65.75 108.844 65.75C109.38 65.75 109.82 65.5521 110.164 65.1562C110.513 64.7604 110.688 64.2422 110.688 63.6016V59H112.5V67ZM120.594 66.6328C119.953 67.0026 119.195 67.1875 118.32 67.1875C117.133 67.1875 116.174 66.8177 115.445 66.0781C114.716 65.3333 114.352 64.3698 114.352 63.1875C114.352 61.8698 114.742 60.8125 115.523 60.0156C116.31 59.2135 117.359 58.8125 118.672 58.8125C119.401 58.8125 120.044 58.9401 120.602 59.1953V60.8828C120.044 60.4661 119.451 60.2578 118.82 60.2578C118.055 60.2578 117.427 60.5182 116.938 61.0391C116.448 61.5547 116.203 62.2318 116.203 63.0703C116.203 63.8984 116.432 64.5521 116.891 65.0312C117.354 65.5104 117.974 65.75 118.75 65.75C119.401 65.75 120.016 65.5182 120.594 65.0547V66.6328ZM126.617 66.9141C126.263 67.0911 125.797 67.1797 125.219 67.1797C123.667 67.1797 122.891 66.4349 122.891 64.9453V60.4219H121.555V59H122.891V57.1484L124.703 56.6328V59H126.617V60.4219H124.703V64.4219C124.703 64.8958 124.789 65.2344 124.961 65.4375C125.133 65.6406 125.419 65.7422 125.82 65.7422C126.128 65.7422 126.393 65.6536 126.617 65.4766V66.9141ZM143.344 59L140.984 67H139.086L137.633 61.5781C137.576 61.3698 137.539 61.1354 137.523 60.875H137.492C137.482 61.0521 137.435 61.2812 137.352 61.5625L135.773 67H133.914L131.562 59H133.438L134.891 64.7656C134.938 64.9375 134.969 65.1667 134.984 65.4531H135.039C135.055 65.2344 135.096 65 135.164 64.75L136.781 59H138.484L139.922 64.7891C139.969 64.9714 140.003 65.2005 140.023 65.4766H140.078C140.089 65.2839 140.128 65.0547 140.195 64.7891L141.617 59H143.344ZM150.836 67H149.078V65.75H149.047C148.495 66.7083 147.685 67.1875 146.617 67.1875C145.831 67.1875 145.214 66.974 144.766 66.5469C144.323 66.1198 144.102 65.5547 144.102 64.8516C144.102 63.3411 144.971 62.4609 146.711 62.2109L149.086 61.875C149.086 60.7344 148.544 60.1641 147.461 60.1641C146.508 60.1641 145.648 60.4922 144.883 61.1484V59.5625C145.727 59.0625 146.701 58.8125 147.805 58.8125C149.826 58.8125 150.836 59.8073 150.836 61.7969V67ZM149.086 63.0703L147.406 63.3047C146.885 63.3724 146.492 63.5 146.227 63.6875C145.966 63.8698 145.836 64.1927 145.836 64.6562C145.836 64.9948 145.956 65.2734 146.195 65.4922C146.44 65.7057 146.766 65.8125 147.172 65.8125C147.724 65.8125 148.18 65.6198 148.539 65.2344C148.904 64.8438 149.086 64.3542 149.086 63.7656V63.0703ZM154.875 67H153.055V55.1562H154.875V67ZM164.5 67H162.203L159.094 63.1562H159.062V67H157.242V55.1562H159.062V62.6641H159.094L162.031 59H164.211L160.906 62.8594L164.5 67ZM169.758 66.9141C169.404 67.0911 168.938 67.1797 168.359 67.1797C166.807 67.1797 166.031 66.4349 166.031 64.9453V60.4219H164.695V59H166.031V57.1484L167.844 56.6328V59H169.758V60.4219H167.844V64.4219C167.844 64.8958 167.93 65.2344 168.102 65.4375C168.273 65.6406 168.56 65.7422 168.961 65.7422C169.268 65.7422 169.534 65.6536 169.758 65.4766V66.9141ZM178.43 67H176.617V62.625C176.617 61.0417 176.089 60.25 175.031 60.25C174.5 60.25 174.052 60.4792 173.688 60.9375C173.323 61.3958 173.141 61.9818 173.141 62.6953V67H171.32V55.1562H173.141V60.3281H173.172C173.776 59.3177 174.641 58.8125 175.766 58.8125C177.542 58.8125 178.43 59.8984 178.43 62.0703V67ZM185.273 60.7266C185.055 60.5547 184.74 60.4688 184.328 60.4688C183.792 60.4688 183.344 60.7109 182.984 61.1953C182.625 61.6797 182.445 62.3385 182.445 63.1719V67H180.633V59H182.445V60.6484H182.477C182.654 60.0859 182.924 59.6484 183.289 59.3359C183.659 59.0182 184.07 58.8594 184.523 58.8594C184.852 58.8594 185.102 58.9089 185.273 59.0078V60.7266ZM189.961 67.1875C188.727 67.1875 187.74 66.8151 187 66.0703C186.266 65.3203 185.898 64.3281 185.898 63.0938C185.898 61.75 186.281 60.7005 187.047 59.9453C187.818 59.1901 188.854 58.8125 190.156 58.8125C191.406 58.8125 192.38 59.1797 193.078 59.9141C193.776 60.6484 194.125 61.6667 194.125 62.9688C194.125 64.2448 193.747 65.2682 192.992 66.0391C192.242 66.8047 191.232 67.1875 189.961 67.1875ZM190.047 60.2578C189.339 60.2578 188.779 60.5052 188.367 61C187.956 61.4948 187.75 62.1771 187.75 63.0469C187.75 63.8854 187.958 64.5469 188.375 65.0312C188.792 65.5104 189.349 65.75 190.047 65.75C190.76 65.75 191.307 65.513 191.688 65.0391C192.073 64.5651 192.266 63.8906 192.266 63.0156C192.266 62.1354 192.073 61.4557 191.688 60.9766C191.307 60.4974 190.76 60.2578 190.047 60.2578ZM202.953 67H201.141V65.7344H201.109C200.583 66.7031 199.766 67.1875 198.656 67.1875C196.766 67.1875 195.82 66.0521 195.82 63.7812V59H197.633V63.5938C197.633 65.0312 198.188 65.75 199.297 65.75C199.833 65.75 200.273 65.5521 200.617 65.1562C200.966 64.7604 201.141 64.2422 201.141 63.6016V59H202.953V67ZM212.602 66.3594C212.602 69.2969 211.125 70.7656 208.172 70.7656C207.13 70.7656 206.221 70.5911 205.445 70.2422V68.5859C206.32 69.0859 207.151 69.3359 207.938 69.3359C209.839 69.3359 210.789 68.401 210.789 66.5312V65.6562H210.758C210.159 66.6771 209.258 67.1875 208.055 67.1875C207.081 67.1875 206.294 66.8333 205.695 66.125C205.102 65.4115 204.805 64.4557 204.805 63.2578C204.805 61.8984 205.125 60.8177 205.766 60.0156C206.406 59.2135 207.286 58.8125 208.406 58.8125C209.464 58.8125 210.247 59.2448 210.758 60.1094H210.789V59H212.602V66.3594ZM210.805 63.3359V62.2969C210.805 61.7344 210.617 61.2552 210.242 60.8594C209.872 60.4583 209.409 60.2578 208.852 60.2578C208.164 60.2578 207.625 60.513 207.234 61.0234C206.849 61.5286 206.656 62.237 206.656 63.1484C206.656 63.9349 206.841 64.5651 207.211 65.0391C207.586 65.5078 208.081 65.7422 208.695 65.7422C209.32 65.7422 209.828 65.5182 210.219 65.0703C210.609 64.6172 210.805 64.0391 210.805 63.3359ZM222.07 67H220.258V62.625C220.258 61.0417 219.729 60.25 218.672 60.25C218.141 60.25 217.693 60.4792 217.328 60.9375C216.964 61.3958 216.781 61.9818 216.781 62.6953V67H214.961V55.1562H216.781V60.3281H216.812C217.417 59.3177 218.281 58.8125 219.406 58.8125C221.182 58.8125 222.07 59.8984 222.07 62.0703V67Z" fill="#31313A"/>
<path d="M418.267 65.1666L417.333 64.2333L421.067 60.4999L417.333 56.7666L418.267 55.8333L422 59.5666L425.733 55.8333L426.667 56.7666L422.933 60.4999L426.667 64.2333L425.733 65.1666L422 61.4333L418.267 65.1666Z" fill="#1D1B20"/>
<path d="M77.957 90.5898C77.2324 90.9727 76.3301 91.1641 75.25 91.1641C73.8555 91.1641 72.7389 90.7152 71.9004 89.8174C71.0618 88.9196 70.6426 87.7415 70.6426 86.2832C70.6426 84.7155 71.1143 83.4486 72.0576 82.4824C73.001 81.5163 74.1973 81.0332 75.6465 81.0332C76.5762 81.0332 77.3464 81.1676 77.957 81.4365V82.6602C77.2552 82.2682 76.4805 82.0723 75.6328 82.0723C74.5072 82.0723 73.5934 82.4482 72.8916 83.2002C72.1943 83.9521 71.8457 84.957 71.8457 86.2148C71.8457 87.4089 72.1715 88.3613 72.8232 89.0723C73.4795 89.7786 74.3385 90.1318 75.4004 90.1318C76.3848 90.1318 77.237 89.9131 77.957 89.4756V90.5898ZM80.9238 91H79.8027V80.6367H80.9238V91ZM83.7676 82.2227C83.5671 82.2227 83.3962 82.1543 83.2549 82.0176C83.1136 81.8809 83.043 81.7077 83.043 81.498C83.043 81.2884 83.1136 81.1152 83.2549 80.9785C83.3962 80.8372 83.5671 80.7666 83.7676 80.7666C83.9727 80.7666 84.1458 80.8372 84.2871 80.9785C84.4329 81.1152 84.5059 81.2884 84.5059 81.498C84.5059 81.6986 84.4329 81.8695 84.2871 82.0107C84.1458 82.152 83.9727 82.2227 83.7676 82.2227ZM84.3145 91H83.1934V84H84.3145V91ZM91.3555 90.6787C90.8177 91.0023 90.1797 91.1641 89.4414 91.1641C88.4434 91.1641 87.6367 90.8405 87.0215 90.1934C86.4108 89.5417 86.1055 88.6986 86.1055 87.6641C86.1055 86.5111 86.4359 85.5859 87.0967 84.8887C87.7575 84.1868 88.6393 83.8359 89.7422 83.8359C90.3574 83.8359 90.8997 83.9499 91.3691 84.1777V85.3262C90.8496 84.9616 90.2936 84.7793 89.7012 84.7793C88.9857 84.7793 88.3978 85.0368 87.9375 85.5518C87.4818 86.0622 87.2539 86.7344 87.2539 87.5684C87.2539 88.3887 87.4681 89.0358 87.8965 89.5098C88.3294 89.9837 88.9082 90.2207 89.6328 90.2207C90.2435 90.2207 90.8177 90.0179 91.3555 89.6123V90.6787ZM98.8613 91H97.2891L94.1992 87.6367H94.1719V91H93.0508V80.6367H94.1719V87.2061H94.1992L97.1387 84H98.6084L95.3613 87.377L98.8613 91ZM109.662 91H108.541V87.0078C108.541 85.5221 107.999 84.7793 106.914 84.7793C106.354 84.7793 105.889 84.9912 105.52 85.415C105.155 85.8343 104.973 86.3652 104.973 87.0078V91H103.852V84H104.973V85.1621H105C105.529 84.278 106.294 83.8359 107.297 83.8359C108.062 83.8359 108.648 84.0843 109.054 84.5811C109.459 85.0732 109.662 85.7865 109.662 86.7207V91ZM117.407 87.7803H112.465C112.483 88.5596 112.693 89.1611 113.094 89.585C113.495 90.0088 114.046 90.2207 114.748 90.2207C115.536 90.2207 116.261 89.9609 116.922 89.4414V90.4941C116.307 90.9408 115.493 91.1641 114.481 91.1641C113.493 91.1641 112.715 90.8473 112.15 90.2139C111.585 89.5758 111.303 88.6803 111.303 87.5273C111.303 86.4382 111.61 85.5518 112.226 84.8682C112.845 84.18 113.613 83.8359 114.529 83.8359C115.445 83.8359 116.154 84.1322 116.655 84.7246C117.157 85.3171 117.407 86.1396 117.407 87.1924V87.7803ZM116.259 86.8301C116.254 86.1829 116.097 85.6794 115.787 85.3193C115.482 84.9593 115.056 84.7793 114.509 84.7793C113.98 84.7793 113.531 84.9684 113.162 85.3467C112.793 85.7249 112.565 86.2194 112.479 86.8301H116.259ZM124.223 84L121.871 87.541L124.182 91H122.876L121.502 88.7305C121.415 88.5892 121.313 88.4115 121.194 88.1973H121.167C121.144 88.2383 121.037 88.416 120.846 88.7305L119.444 91H118.152L120.538 87.5684L118.255 84H119.561L120.914 86.3926C121.014 86.5703 121.112 86.7526 121.208 86.9395H121.235L122.985 84H124.223ZM128.782 90.9316C128.518 91.0775 128.169 91.1504 127.736 91.1504C126.51 91.1504 125.897 90.4668 125.897 89.0996V84.957H124.694V84H125.897V82.291L127.019 81.9287V84H128.782V84.957H127.019V88.9014C127.019 89.3708 127.098 89.7057 127.258 89.9062C127.417 90.1068 127.682 90.207 128.051 90.207C128.333 90.207 128.577 90.1296 128.782 89.9746V90.9316ZM137.368 90.9316C137.104 91.0775 136.755 91.1504 136.322 91.1504C135.096 91.1504 134.483 90.4668 134.483 89.0996V84.957H133.28V84H134.483V82.291L135.604 81.9287V84H137.368V84.957H135.604V88.9014C135.604 89.3708 135.684 89.7057 135.844 89.9062C136.003 90.1068 136.268 90.207 136.637 90.207C136.919 90.207 137.163 90.1296 137.368 89.9746V90.9316ZM141.791 91.1641C140.757 91.1641 139.929 90.8382 139.31 90.1865C138.694 89.5303 138.387 88.6621 138.387 87.582C138.387 86.4062 138.708 85.488 139.351 84.8271C139.993 84.1663 140.861 83.8359 141.955 83.8359C142.999 83.8359 143.812 84.1572 144.396 84.7998C144.983 85.4424 145.277 86.3333 145.277 87.4727C145.277 88.5892 144.961 89.4847 144.327 90.1592C143.698 90.8291 142.853 91.1641 141.791 91.1641ZM141.873 84.7793C141.153 84.7793 140.583 85.0254 140.164 85.5176C139.745 86.0052 139.535 86.6797 139.535 87.541C139.535 88.3704 139.747 89.0244 140.171 89.5029C140.595 89.9814 141.162 90.2207 141.873 90.2207C142.598 90.2207 143.154 89.986 143.541 89.5166C143.933 89.0472 144.129 88.3796 144.129 87.5137C144.129 86.6387 143.933 85.9642 143.541 85.4902C143.154 85.0163 142.598 84.7793 141.873 84.7793ZM152.059 89.9883H152.031V94.2197H150.91V84H152.031V85.2305H152.059C152.61 84.3008 153.417 83.8359 154.479 83.8359C155.381 83.8359 156.085 84.1504 156.591 84.7793C157.097 85.4036 157.35 86.2422 157.35 87.2949C157.35 88.4661 157.065 89.4049 156.495 90.1113C155.925 90.8132 155.146 91.1641 154.157 91.1641C153.25 91.1641 152.551 90.7721 152.059 89.9883ZM152.031 87.165V88.1426C152.031 88.7214 152.218 89.2135 152.592 89.6191C152.97 90.0202 153.449 90.2207 154.027 90.2207C154.706 90.2207 155.237 89.9609 155.62 89.4414C156.007 88.9219 156.201 88.1995 156.201 87.2744C156.201 86.4951 156.021 85.8844 155.661 85.4424C155.301 85.0003 154.813 84.7793 154.198 84.7793C153.547 84.7793 153.022 85.0072 152.626 85.4629C152.229 85.9141 152.031 86.4814 152.031 87.165ZM162.791 85.1348C162.595 84.9844 162.312 84.9092 161.943 84.9092C161.465 84.9092 161.064 85.1348 160.74 85.5859C160.421 86.0371 160.262 86.6523 160.262 87.4316V91H159.141V84H160.262V85.4424H160.289C160.449 84.9502 160.692 84.5674 161.021 84.2939C161.349 84.016 161.715 83.877 162.121 83.877C162.413 83.877 162.636 83.9089 162.791 83.9727V85.1348ZM166.934 91.1641C165.899 91.1641 165.072 90.8382 164.452 90.1865C163.837 89.5303 163.529 88.6621 163.529 87.582C163.529 86.4062 163.851 85.488 164.493 84.8271C165.136 84.1663 166.004 83.8359 167.098 83.8359C168.141 83.8359 168.955 84.1572 169.538 84.7998C170.126 85.4424 170.42 86.3333 170.42 87.4727C170.42 88.5892 170.103 89.4847 169.47 90.1592C168.841 90.8291 167.995 91.1641 166.934 91.1641ZM167.016 84.7793C166.296 84.7793 165.726 85.0254 165.307 85.5176C164.887 86.0052 164.678 86.6797 164.678 87.541C164.678 88.3704 164.89 89.0244 165.313 89.5029C165.737 89.9814 166.305 90.2207 167.016 90.2207C167.74 90.2207 168.296 89.986 168.684 89.5166C169.076 89.0472 169.271 88.3796 169.271 87.5137C169.271 86.6387 169.076 85.9642 168.684 85.4902C168.296 85.0163 167.74 84.7793 167.016 84.7793ZM176.982 90.6787C176.445 91.0023 175.807 91.1641 175.068 91.1641C174.07 91.1641 173.264 90.8405 172.648 90.1934C172.038 89.5417 171.732 88.6986 171.732 87.6641C171.732 86.5111 172.063 85.5859 172.724 84.8887C173.384 84.1868 174.266 83.8359 175.369 83.8359C175.984 83.8359 176.527 83.9499 176.996 84.1777V85.3262C176.477 84.9616 175.921 84.7793 175.328 84.7793C174.613 84.7793 174.025 85.0368 173.564 85.5518C173.109 86.0622 172.881 86.7344 172.881 87.5684C172.881 88.3887 173.095 89.0358 173.523 89.5098C173.956 89.9837 174.535 90.2207 175.26 90.2207C175.87 90.2207 176.445 90.0179 176.982 89.6123V90.6787ZM184.304 87.7803H179.361C179.38 88.5596 179.589 89.1611 179.99 89.585C180.391 90.0088 180.943 90.2207 181.645 90.2207C182.433 90.2207 183.158 89.9609 183.818 89.4414V90.4941C183.203 90.9408 182.39 91.1641 181.378 91.1641C180.389 91.1641 179.612 90.8473 179.047 90.2139C178.482 89.5758 178.199 88.6803 178.199 87.5273C178.199 86.4382 178.507 85.5518 179.122 84.8682C179.742 84.18 180.51 83.8359 181.426 83.8359C182.342 83.8359 183.05 84.1322 183.552 84.7246C184.053 85.3171 184.304 86.1396 184.304 87.1924V87.7803ZM183.155 86.8301C183.151 86.1829 182.993 85.6794 182.684 85.3193C182.378 84.9593 181.952 84.7793 181.405 84.7793C180.877 84.7793 180.428 84.9684 180.059 85.3467C179.689 85.7249 179.462 86.2194 179.375 86.8301H183.155ZM191.632 87.7803H186.689C186.708 88.5596 186.917 89.1611 187.318 89.585C187.719 90.0088 188.271 90.2207 188.973 90.2207C189.761 90.2207 190.486 89.9609 191.146 89.4414V90.4941C190.531 90.9408 189.718 91.1641 188.706 91.1641C187.717 91.1641 186.94 90.8473 186.375 90.2139C185.81 89.5758 185.527 88.6803 185.527 87.5273C185.527 86.4382 185.835 85.5518 186.45 84.8682C187.07 84.18 187.838 83.8359 188.754 83.8359C189.67 83.8359 190.379 84.1322 190.88 84.7246C191.381 85.3171 191.632 86.1396 191.632 87.1924V87.7803ZM190.483 86.8301C190.479 86.1829 190.322 85.6794 190.012 85.3193C189.706 84.9593 189.28 84.7793 188.733 84.7793C188.205 84.7793 187.756 84.9684 187.387 85.3467C187.018 85.7249 186.79 86.2194 186.703 86.8301H190.483ZM199.309 91H198.188V89.8105H198.16C197.641 90.7129 196.839 91.1641 195.754 91.1641C194.874 91.1641 194.17 90.8519 193.642 90.2275C193.118 89.5986 192.855 88.7441 192.855 87.6641C192.855 86.5065 193.147 85.5791 193.73 84.8818C194.314 84.1846 195.091 83.8359 196.062 83.8359C197.023 83.8359 197.723 84.2142 198.16 84.9707H198.188V80.6367H199.309V91ZM198.188 87.835V86.8027C198.188 86.2376 198.001 85.7591 197.627 85.3672C197.253 84.9753 196.779 84.7793 196.205 84.7793C195.521 84.7793 194.984 85.0299 194.592 85.5312C194.2 86.0326 194.004 86.7253 194.004 87.6094C194.004 88.416 194.191 89.054 194.564 89.5234C194.943 89.9883 195.449 90.2207 196.082 90.2207C196.706 90.2207 197.212 89.9951 197.6 89.5439C197.992 89.0928 198.188 88.5231 198.188 87.835ZM208.667 90.9316C208.403 91.0775 208.054 91.1504 207.621 91.1504C206.395 91.1504 205.782 90.4668 205.782 89.0996V84.957H204.579V84H205.782V82.291L206.903 81.9287V84H208.667V84.957H206.903V88.9014C206.903 89.3708 206.983 89.7057 207.143 89.9062C207.302 90.1068 207.566 90.207 207.936 90.207C208.218 90.207 208.462 90.1296 208.667 89.9746V90.9316ZM213.09 91.1641C212.055 91.1641 211.228 90.8382 210.608 90.1865C209.993 89.5303 209.686 88.6621 209.686 87.582C209.686 86.4062 210.007 85.488 210.649 84.8271C211.292 84.1663 212.16 83.8359 213.254 83.8359C214.298 83.8359 215.111 84.1572 215.694 84.7998C216.282 85.4424 216.576 86.3333 216.576 87.4727C216.576 88.5892 216.259 89.4847 215.626 90.1592C214.997 90.8291 214.152 91.1641 213.09 91.1641ZM213.172 84.7793C212.452 84.7793 211.882 85.0254 211.463 85.5176C211.044 86.0052 210.834 86.6797 210.834 87.541C210.834 88.3704 211.046 89.0244 211.47 89.5029C211.894 89.9814 212.461 90.2207 213.172 90.2207C213.896 90.2207 214.452 89.986 214.84 89.5166C215.232 89.0472 215.428 88.3796 215.428 87.5137C215.428 86.6387 215.232 85.9642 214.84 85.4902C214.452 85.0163 213.896 84.7793 213.172 84.7793ZM225.456 90.9316C225.192 91.0775 224.843 91.1504 224.41 91.1504C223.184 91.1504 222.571 90.4668 222.571 89.0996V84.957H221.368V84H222.571V82.291L223.692 81.9287V84H225.456V84.957H223.692V88.9014C223.692 89.3708 223.772 89.7057 223.932 89.9062C224.091 90.1068 224.355 90.207 224.725 90.207C225.007 90.207 225.251 90.1296 225.456 89.9746V90.9316ZM232.764 91H231.643V86.9668C231.643 85.5085 231.1 84.7793 230.016 84.7793C229.469 84.7793 229.008 84.9912 228.635 85.415C228.261 85.8343 228.074 86.3743 228.074 87.0352V91H226.953V80.6367H228.074V85.1621H228.102C228.639 84.278 229.405 83.8359 230.398 83.8359C231.975 83.8359 232.764 84.7861 232.764 86.6865V91ZM240.509 87.7803H235.566C235.585 88.5596 235.794 89.1611 236.195 89.585C236.596 90.0088 237.148 90.2207 237.85 90.2207C238.638 90.2207 239.363 89.9609 240.023 89.4414V90.4941C239.408 90.9408 238.595 91.1641 237.583 91.1641C236.594 91.1641 235.817 90.8473 235.252 90.2139C234.687 89.5758 234.404 88.6803 234.404 87.5273C234.404 86.4382 234.712 85.5518 235.327 84.8682C235.947 84.18 236.715 83.8359 237.631 83.8359C238.547 83.8359 239.256 84.1322 239.757 84.7246C240.258 85.3171 240.509 86.1396 240.509 87.1924V87.7803ZM239.36 86.8301C239.356 86.1829 239.199 85.6794 238.889 85.3193C238.583 84.9593 238.157 84.7793 237.61 84.7793C237.082 84.7793 236.633 84.9684 236.264 85.3467C235.895 85.7249 235.667 86.2194 235.58 86.8301H239.36ZM251.863 91H250.742V87.0078C250.742 85.5221 250.2 84.7793 249.115 84.7793C248.555 84.7793 248.09 84.9912 247.721 85.415C247.356 85.8343 247.174 86.3652 247.174 87.0078V91H246.053V84H247.174V85.1621H247.201C247.73 84.278 248.495 83.8359 249.498 83.8359C250.264 83.8359 250.849 84.0843 251.255 84.5811C251.66 85.0732 251.863 85.7865 251.863 86.7207V91ZM259.608 87.7803H254.666C254.684 88.5596 254.894 89.1611 255.295 89.585C255.696 90.0088 256.247 90.2207 256.949 90.2207C257.738 90.2207 258.462 89.9609 259.123 89.4414V90.4941C258.508 90.9408 257.694 91.1641 256.683 91.1641C255.694 91.1641 254.917 90.8473 254.352 90.2139C253.786 89.5758 253.504 88.6803 253.504 87.5273C253.504 86.4382 253.812 85.5518 254.427 84.8682C255.047 84.18 255.814 83.8359 256.73 83.8359C257.646 83.8359 258.355 84.1322 258.856 84.7246C259.358 85.3171 259.608 86.1396 259.608 87.1924V87.7803ZM258.46 86.8301C258.455 86.1829 258.298 85.6794 257.988 85.3193C257.683 84.9593 257.257 84.7793 256.71 84.7793C256.181 84.7793 255.732 84.9684 255.363 85.3467C254.994 85.7249 254.766 86.2194 254.68 86.8301H258.46ZM266.424 84L264.072 87.541L266.383 91H265.077L263.703 88.7305C263.617 88.5892 263.514 88.4115 263.396 88.1973H263.368C263.345 88.2383 263.238 88.416 263.047 88.7305L261.646 91H260.354L262.739 87.5684L260.456 84H261.762L263.115 86.3926C263.215 86.5703 263.313 86.7526 263.409 86.9395H263.437L265.187 84H266.424ZM270.983 90.9316C270.719 91.0775 270.37 91.1504 269.938 91.1504C268.712 91.1504 268.099 90.4668 268.099 89.0996V84.957H266.896V84H268.099V82.291L269.22 81.9287V84H270.983V84.957H269.22V88.9014C269.22 89.3708 269.299 89.7057 269.459 89.9062C269.618 90.1068 269.883 90.207 270.252 90.207C270.535 90.207 270.778 90.1296 270.983 89.9746V90.9316ZM275.898 90.7471V89.5439C276.509 89.9951 277.181 90.2207 277.915 90.2207C278.899 90.2207 279.392 89.8926 279.392 89.2363C279.392 89.0495 279.348 88.8923 279.262 88.7646C279.18 88.6325 279.066 88.5163 278.92 88.416C278.779 88.3158 278.61 88.2269 278.414 88.1494C278.223 88.0674 278.015 87.9831 277.792 87.8965C277.482 87.7734 277.209 87.6504 276.972 87.5273C276.739 87.3997 276.543 87.2585 276.384 87.1035C276.229 86.944 276.11 86.764 276.028 86.5635C275.951 86.363 275.912 86.1283 275.912 85.8594C275.912 85.5312 275.987 85.2419 276.138 84.9912C276.288 84.736 276.489 84.5241 276.739 84.3555C276.99 84.1823 277.275 84.0524 277.594 83.9658C277.917 83.8792 278.25 83.8359 278.592 83.8359C279.198 83.8359 279.74 83.9408 280.219 84.1504V85.2852C279.704 84.9479 279.111 84.7793 278.441 84.7793C278.232 84.7793 278.043 84.8044 277.874 84.8545C277.705 84.9001 277.56 84.9661 277.437 85.0527C277.318 85.1393 277.225 85.2441 277.156 85.3672C277.092 85.4857 277.061 85.6178 277.061 85.7637C277.061 85.946 277.092 86.0986 277.156 86.2217C277.225 86.3447 277.323 86.4541 277.45 86.5498C277.578 86.6455 277.733 86.7321 277.915 86.8096C278.097 86.887 278.305 86.9714 278.537 87.0625C278.847 87.181 279.125 87.304 279.371 87.4316C279.617 87.5547 279.827 87.696 280 87.8555C280.173 88.0104 280.305 88.1904 280.396 88.3955C280.492 88.6006 280.54 88.8444 280.54 89.127C280.54 89.4733 280.463 89.7741 280.308 90.0293C280.157 90.2845 279.954 90.4964 279.699 90.665C279.444 90.8337 279.15 90.959 278.817 91.041C278.485 91.123 278.136 91.1641 277.771 91.1641C277.051 91.1641 276.427 91.0251 275.898 90.7471ZM285.517 90.9316C285.252 91.0775 284.904 91.1504 284.471 91.1504C283.245 91.1504 282.632 90.4668 282.632 89.0996V84.957H281.429V84H282.632V82.291L283.753 81.9287V84H285.517V84.957H283.753V88.9014C283.753 89.3708 283.833 89.7057 283.992 89.9062C284.152 90.1068 284.416 90.207 284.785 90.207C285.068 90.207 285.312 90.1296 285.517 89.9746V90.9316ZM292.64 87.7803H287.697C287.715 88.5596 287.925 89.1611 288.326 89.585C288.727 90.0088 289.279 90.2207 289.98 90.2207C290.769 90.2207 291.493 89.9609 292.154 89.4414V90.4941C291.539 90.9408 290.726 91.1641 289.714 91.1641C288.725 91.1641 287.948 90.8473 287.383 90.2139C286.818 89.5758 286.535 88.6803 286.535 87.5273C286.535 86.4382 286.843 85.5518 287.458 84.8682C288.078 84.18 288.846 83.8359 289.762 83.8359C290.678 83.8359 291.386 84.1322 291.888 84.7246C292.389 85.3171 292.64 86.1396 292.64 87.1924V87.7803ZM291.491 86.8301C291.487 86.1829 291.329 85.6794 291.02 85.3193C290.714 84.9593 290.288 84.7793 289.741 84.7793C289.213 84.7793 288.764 84.9684 288.395 85.3467C288.025 85.7249 287.798 86.2194 287.711 86.8301H291.491ZM295.49 89.9883H295.463V94.2197H294.342V84H295.463V85.2305H295.49C296.042 84.3008 296.848 83.8359 297.91 83.8359C298.812 83.8359 299.517 84.1504 300.022 84.7793C300.528 85.4036 300.781 86.2422 300.781 87.2949C300.781 88.4661 300.496 89.4049 299.927 90.1113C299.357 90.8132 298.578 91.1641 297.589 91.1641C296.682 91.1641 295.982 90.7721 295.49 89.9883ZM295.463 87.165V88.1426C295.463 88.7214 295.65 89.2135 296.023 89.6191C296.402 90.0202 296.88 90.2207 297.459 90.2207C298.138 90.2207 298.669 89.9609 299.052 89.4414C299.439 88.9219 299.633 88.1995 299.633 87.2744C299.633 86.4951 299.453 85.8844 299.093 85.4424C298.733 85.0003 298.245 84.7793 297.63 84.7793C296.978 84.7793 296.454 85.0072 296.058 85.4629C295.661 85.9141 295.463 86.4814 295.463 87.165ZM309.34 91.1641C308.305 91.1641 307.478 90.8382 306.858 90.1865C306.243 89.5303 305.936 88.6621 305.936 87.582C305.936 86.4062 306.257 85.488 306.899 84.8271C307.542 84.1663 308.41 83.8359 309.504 83.8359C310.548 83.8359 311.361 84.1572 311.944 84.7998C312.532 85.4424 312.826 86.3333 312.826 87.4727C312.826 88.5892 312.509 89.4847 311.876 90.1592C311.247 90.8291 310.402 91.1641 309.34 91.1641ZM309.422 84.7793C308.702 84.7793 308.132 85.0254 307.713 85.5176C307.294 86.0052 307.084 86.6797 307.084 87.541C307.084 88.3704 307.296 89.0244 307.72 89.5029C308.144 89.9814 308.711 90.2207 309.422 90.2207C310.146 90.2207 310.702 89.986 311.09 89.5166C311.482 89.0472 311.678 88.3796 311.678 87.5137C311.678 86.6387 311.482 85.9642 311.09 85.4902C310.702 85.0163 310.146 84.7793 309.422 84.7793ZM318.268 85.1348C318.072 84.9844 317.789 84.9092 317.42 84.9092C316.941 84.9092 316.54 85.1348 316.217 85.5859C315.898 86.0371 315.738 86.6523 315.738 87.4316V91H314.617V84H315.738V85.4424H315.766C315.925 84.9502 316.169 84.5674 316.497 84.2939C316.825 84.016 317.192 83.877 317.598 83.877C317.889 83.877 318.113 83.9089 318.268 83.9727V85.1348ZM328.098 90.6787C327.56 91.0023 326.922 91.1641 326.184 91.1641C325.186 91.1641 324.379 90.8405 323.764 90.1934C323.153 89.5417 322.848 88.6986 322.848 87.6641C322.848 86.5111 323.178 85.5859 323.839 84.8887C324.5 84.1868 325.382 83.8359 326.484 83.8359C327.1 83.8359 327.642 83.9499 328.111 84.1777V85.3262C327.592 84.9616 327.036 84.7793 326.443 84.7793C325.728 84.7793 325.14 85.0368 324.68 85.5518C324.224 86.0622 323.996 86.7344 323.996 87.5684C323.996 88.3887 324.21 89.0358 324.639 89.5098C325.072 89.9837 325.65 90.2207 326.375 90.2207C326.986 90.2207 327.56 90.0179 328.098 89.6123V90.6787ZM330.914 91H329.793V80.6367H330.914V91ZM333.758 82.2227C333.557 82.2227 333.386 82.1543 333.245 82.0176C333.104 81.8809 333.033 81.7077 333.033 81.498C333.033 81.2884 333.104 81.1152 333.245 80.9785C333.386 80.8372 333.557 80.7666 333.758 80.7666C333.963 80.7666 334.136 80.8372 334.277 80.9785C334.423 81.1152 334.496 81.2884 334.496 81.498C334.496 81.6986 334.423 81.8695 334.277 82.0107C334.136 82.152 333.963 82.2227 333.758 82.2227ZM334.305 91H333.184V84H334.305V91ZM341.346 90.6787C340.808 91.0023 340.17 91.1641 339.432 91.1641C338.434 91.1641 337.627 90.8405 337.012 90.1934C336.401 89.5417 336.096 88.6986 336.096 87.6641C336.096 86.5111 336.426 85.5859 337.087 84.8887C337.748 84.1868 338.63 83.8359 339.732 83.8359C340.348 83.8359 340.89 83.9499 341.359 84.1777V85.3262C340.84 84.9616 340.284 84.7793 339.691 84.7793C338.976 84.7793 338.388 85.0368 337.928 85.5518C337.472 86.0622 337.244 86.7344 337.244 87.5684C337.244 88.3887 337.458 89.0358 337.887 89.5098C338.32 89.9837 338.898 90.2207 339.623 90.2207C340.234 90.2207 340.808 90.0179 341.346 89.6123V90.6787ZM348.852 91H347.279L344.189 87.6367H344.162V91H343.041V80.6367H344.162V87.2061H344.189L347.129 84H348.599L345.352 87.377L348.852 91ZM357.089 90.9316C356.825 91.0775 356.476 91.1504 356.043 91.1504C354.817 91.1504 354.204 90.4668 354.204 89.0996V84.957H353.001V84H354.204V82.291L355.325 81.9287V84H357.089V84.957H355.325V88.9014C355.325 89.3708 355.405 89.7057 355.564 89.9062C355.724 90.1068 355.988 90.207 356.357 90.207C356.64 90.207 356.884 90.1296 357.089 89.9746V90.9316ZM364.396 91H363.275V86.9668C363.275 85.5085 362.733 84.7793 361.648 84.7793C361.102 84.7793 360.641 84.9912 360.268 85.415C359.894 85.8343 359.707 86.3743 359.707 87.0352V91H358.586V80.6367H359.707V85.1621H359.734C360.272 84.278 361.038 83.8359 362.031 83.8359C363.608 83.8359 364.396 84.7861 364.396 86.6865V91ZM367.09 82.2227C366.889 82.2227 366.718 82.1543 366.577 82.0176C366.436 81.8809 366.365 81.7077 366.365 81.498C366.365 81.2884 366.436 81.1152 366.577 80.9785C366.718 80.8372 366.889 80.7666 367.09 80.7666C367.295 80.7666 367.468 80.8372 367.609 80.9785C367.755 81.1152 367.828 81.2884 367.828 81.498C367.828 81.6986 367.755 81.8695 367.609 82.0107C367.468 82.152 367.295 82.2227 367.09 82.2227ZM367.637 91H366.516V84H367.637V91ZM369.482 90.7471V89.5439C370.093 89.9951 370.765 90.2207 371.499 90.2207C372.483 90.2207 372.976 89.8926 372.976 89.2363C372.976 89.0495 372.932 88.8923 372.846 88.7646C372.764 88.6325 372.65 88.5163 372.504 88.416C372.363 88.3158 372.194 88.2269 371.998 88.1494C371.807 88.0674 371.599 87.9831 371.376 87.8965C371.066 87.7734 370.793 87.6504 370.556 87.5273C370.323 87.3997 370.127 87.2585 369.968 87.1035C369.813 86.944 369.694 86.764 369.612 86.5635C369.535 86.363 369.496 86.1283 369.496 85.8594C369.496 85.5312 369.571 85.2419 369.722 84.9912C369.872 84.736 370.073 84.5241 370.323 84.3555C370.574 84.1823 370.859 84.0524 371.178 83.9658C371.501 83.8792 371.834 83.8359 372.176 83.8359C372.782 83.8359 373.324 83.9408 373.803 84.1504V85.2852C373.288 84.9479 372.695 84.7793 372.025 84.7793C371.816 84.7793 371.627 84.8044 371.458 84.8545C371.289 84.9001 371.144 84.9661 371.021 85.0527C370.902 85.1393 370.809 85.2441 370.74 85.3672C370.676 85.4857 370.645 85.6178 370.645 85.7637C370.645 85.946 370.676 86.0986 370.74 86.2217C370.809 86.3447 370.907 86.4541 371.034 86.5498C371.162 86.6455 371.317 86.7321 371.499 86.8096C371.681 86.887 371.889 86.9714 372.121 87.0625C372.431 87.181 372.709 87.304 372.955 87.4316C373.201 87.5547 373.411 87.696 373.584 87.8555C373.757 88.0104 373.889 88.1904 373.98 88.3955C374.076 88.6006 374.124 88.8444 374.124 89.127C374.124 89.4733 374.047 89.7741 373.892 90.0293C373.741 90.2845 373.538 90.4964 373.283 90.665C373.028 90.8337 372.734 90.959 372.401 91.041C372.069 91.123 371.72 91.1641 371.355 91.1641C370.635 91.1641 370.011 91.0251 369.482 90.7471ZM380.816 91H379.695V80.6367H380.816V91ZM383.66 82.2227C383.46 82.2227 383.289 82.1543 383.147 82.0176C383.006 81.8809 382.936 81.7077 382.936 81.498C382.936 81.2884 383.006 81.1152 383.147 80.9785C383.289 80.8372 383.46 80.7666 383.66 80.7666C383.865 80.7666 384.038 80.8372 384.18 80.9785C384.326 81.1152 384.398 81.2884 384.398 81.498C384.398 81.6986 384.326 81.8695 384.18 82.0107C384.038 82.152 383.865 82.2227 383.66 82.2227ZM384.207 91H383.086V84H384.207V91ZM392.287 91H391.166V87.0078C391.166 85.5221 390.624 84.7793 389.539 84.7793C388.979 84.7793 388.514 84.9912 388.145 85.415C387.78 85.8343 387.598 86.3652 387.598 87.0078V91H386.477V84H387.598V85.1621H387.625C388.154 84.278 388.919 83.8359 389.922 83.8359C390.688 83.8359 391.273 84.0843 391.679 84.5811C392.084 85.0732 392.287 85.7865 392.287 86.7207V91ZM400.217 91H398.645L395.555 87.6367H395.527V91H394.406V80.6367H395.527V87.2061H395.555L398.494 84H399.964L396.717 87.377L400.217 91ZM408.454 90.9316C408.19 91.0775 407.841 91.1504 407.408 91.1504C406.182 91.1504 405.569 90.4668 405.569 89.0996V84.957H404.366V84H405.569V82.291L406.69 81.9287V84H408.454V84.957H406.69V88.9014C406.69 89.3708 406.77 89.7057 406.93 89.9062C407.089 90.1068 407.354 90.207 407.723 90.207C408.005 90.207 408.249 90.1296 408.454 89.9746V90.9316ZM412.877 91.1641C411.842 91.1641 411.015 90.8382 410.396 90.1865C409.78 89.5303 409.473 88.6621 409.473 87.582C409.473 86.4062 409.794 85.488 410.437 84.8271C411.079 84.1663 411.947 83.8359 413.041 83.8359C414.085 83.8359 414.898 84.1572 415.481 84.7998C416.069 85.4424 416.363 86.3333 416.363 87.4727C416.363 88.5892 416.047 89.4847 415.413 90.1592C414.784 90.8291 413.939 91.1641 412.877 91.1641ZM412.959 84.7793C412.239 84.7793 411.669 85.0254 411.25 85.5176C410.831 86.0052 410.621 86.6797 410.621 87.541C410.621 88.3704 410.833 89.0244 411.257 89.5029C411.681 89.9814 412.248 90.2207 412.959 90.2207C413.684 90.2207 414.24 89.986 414.627 89.5166C415.019 89.0472 415.215 88.3796 415.215 87.5137C415.215 86.6387 415.019 85.9642 414.627 85.4902C414.24 85.0163 413.684 84.7793 412.959 84.7793ZM77.1094 109.439C77.1094 112.01 75.8789 113.295 73.418 113.295C72.5521 113.295 71.7956 113.131 71.1484 112.803V111.682C71.9368 112.119 72.6888 112.338 73.4043 112.338C75.127 112.338 75.9883 111.422 75.9883 109.59V108.824H75.9609C75.4277 109.717 74.6257 110.164 73.5547 110.164C72.6842 110.164 71.9824 109.854 71.4492 109.234C70.9206 108.61 70.6562 107.774 70.6562 106.726C70.6562 105.536 70.9411 104.59 71.5107 103.889C72.085 103.187 72.8688 102.836 73.8623 102.836C74.8057 102.836 75.5052 103.214 75.9609 103.971H75.9883V103H77.1094V109.439ZM75.9883 106.835V105.803C75.9883 105.247 75.7992 104.771 75.4209 104.374C75.0472 103.978 74.5801 103.779 74.0195 103.779C73.3268 103.779 72.7845 104.032 72.3926 104.538C72.0007 105.039 71.8047 105.743 71.8047 106.65C71.8047 107.43 71.9915 108.054 72.3652 108.523C72.7435 108.988 73.2425 109.221 73.8623 109.221C74.4912 109.221 75.0016 108.997 75.3936 108.551C75.79 108.104 75.9883 107.532 75.9883 106.835ZM82.3047 110.164C81.2702 110.164 80.443 109.838 79.8232 109.187C79.208 108.53 78.9004 107.662 78.9004 106.582C78.9004 105.406 79.2217 104.488 79.8643 103.827C80.5068 103.166 81.375 102.836 82.4688 102.836C83.5124 102.836 84.3258 103.157 84.9092 103.8C85.4971 104.442 85.791 105.333 85.791 106.473C85.791 107.589 85.4743 108.485 84.8408 109.159C84.2119 109.829 83.3665 110.164 82.3047 110.164ZM82.3867 103.779C81.6667 103.779 81.097 104.025 80.6777 104.518C80.2585 105.005 80.0488 105.68 80.0488 106.541C80.0488 107.37 80.2607 108.024 80.6846 108.503C81.1084 108.981 81.6758 109.221 82.3867 109.221C83.1113 109.221 83.6673 108.986 84.0547 108.517C84.4466 108.047 84.6426 107.38 84.6426 106.514C84.6426 105.639 84.4466 104.964 84.0547 104.49C83.6673 104.016 83.1113 103.779 82.3867 103.779ZM94.6709 109.932C94.4066 110.077 94.0579 110.15 93.625 110.15C92.3991 110.15 91.7861 109.467 91.7861 108.1V103.957H90.583V103H91.7861V101.291L92.9072 100.929V103H94.6709V103.957H92.9072V107.901C92.9072 108.371 92.987 108.706 93.1465 108.906C93.306 109.107 93.5703 109.207 93.9395 109.207C94.222 109.207 94.4658 109.13 94.6709 108.975V109.932ZM99.0938 110.164C98.0592 110.164 97.2321 109.838 96.6123 109.187C95.9971 108.53 95.6895 107.662 95.6895 106.582C95.6895 105.406 96.0107 104.488 96.6533 103.827C97.2959 103.166 98.1641 102.836 99.2578 102.836C100.301 102.836 101.115 103.157 101.698 103.8C102.286 104.442 102.58 105.333 102.58 106.473C102.58 107.589 102.263 108.485 101.63 109.159C101.001 109.829 100.156 110.164 99.0938 110.164ZM99.1758 103.779C98.4557 103.779 97.8861 104.025 97.4668 104.518C97.0475 105.005 96.8379 105.68 96.8379 106.541C96.8379 107.37 97.0498 108.024 97.4736 108.503C97.8975 108.981 98.4648 109.221 99.1758 109.221C99.9004 109.221 100.456 108.986 100.844 108.517C101.236 108.047 101.432 107.38 101.432 106.514C101.432 105.639 101.236 104.964 100.844 104.49C100.456 104.016 99.9004 103.779 99.1758 103.779ZM113.224 110H112.103V108.906H112.075C111.588 109.745 110.87 110.164 109.922 110.164C109.225 110.164 108.678 109.979 108.281 109.61C107.889 109.241 107.693 108.751 107.693 108.141C107.693 106.833 108.464 106.072 110.004 105.857L112.103 105.563C112.103 104.374 111.622 103.779 110.66 103.779C109.817 103.779 109.056 104.066 108.377 104.641V103.492C109.065 103.055 109.858 102.836 110.756 102.836C112.401 102.836 113.224 103.706 113.224 105.447V110ZM112.103 106.459L110.414 106.691C109.895 106.764 109.503 106.894 109.238 107.081C108.974 107.263 108.842 107.589 108.842 108.059C108.842 108.4 108.963 108.681 109.204 108.899C109.45 109.114 109.776 109.221 110.182 109.221C110.738 109.221 111.196 109.027 111.556 108.64C111.92 108.248 112.103 107.753 112.103 107.156V106.459ZM199.206 110.15C198.996 110.15 198.816 110.075 198.666 109.925C198.52 109.774 198.447 109.594 198.447 109.385C198.447 109.175 198.52 108.995 198.666 108.845C198.816 108.69 198.996 108.612 199.206 108.612C199.42 108.612 199.603 108.69 199.753 108.845C199.903 108.995 199.979 109.175 199.979 109.385C199.979 109.594 199.903 109.774 199.753 109.925C199.603 110.075 199.42 110.15 199.206 110.15Z" fill="#31313A"/>
<path d="M123.136 104.511C122.944 104.36 122.669 104.285 122.309 104.285C121.839 104.285 121.447 104.497 121.133 104.921C120.818 105.345 120.661 105.921 120.661 106.65V110H119.075V103H120.661V104.442H120.688C120.843 103.95 121.08 103.567 121.399 103.294C121.723 103.016 122.083 102.877 122.479 102.877C122.767 102.877 122.985 102.92 123.136 103.007V104.511ZM130.061 106.931H125.289C125.307 107.578 125.506 108.077 125.884 108.428C126.267 108.779 126.791 108.954 127.456 108.954C128.203 108.954 128.889 108.731 129.514 108.284V109.562C128.876 109.964 128.033 110.164 126.984 110.164C125.954 110.164 125.146 109.847 124.558 109.214C123.974 108.576 123.683 107.68 123.683 106.527C123.683 105.438 124.004 104.552 124.646 103.868C125.294 103.18 126.096 102.836 127.053 102.836C128.01 102.836 128.75 103.144 129.274 103.759C129.799 104.374 130.061 105.229 130.061 106.322V106.931ZM128.529 105.81C128.525 105.24 128.39 104.798 128.126 104.483C127.862 104.164 127.497 104.005 127.032 104.005C126.576 104.005 126.189 104.171 125.87 104.504C125.556 104.837 125.362 105.272 125.289 105.81H128.529ZM133.164 110H131.571V99.6367H133.164V110ZM140.608 110H139.07V108.906H139.043C138.56 109.745 137.851 110.164 136.917 110.164C136.229 110.164 135.689 109.977 135.297 109.604C134.91 109.23 134.716 108.735 134.716 108.12C134.716 106.799 135.477 106.028 136.999 105.81L139.077 105.516C139.077 104.518 138.603 104.019 137.655 104.019C136.821 104.019 136.069 104.306 135.399 104.88V103.492C136.138 103.055 136.99 102.836 137.956 102.836C139.724 102.836 140.608 103.706 140.608 105.447V110ZM139.077 106.562L137.607 106.767C137.152 106.826 136.808 106.938 136.575 107.102C136.347 107.261 136.233 107.544 136.233 107.949C136.233 108.245 136.338 108.489 136.548 108.681C136.762 108.868 137.047 108.961 137.402 108.961C137.885 108.961 138.284 108.792 138.599 108.455C138.918 108.113 139.077 107.685 139.077 107.17V106.562ZM146.241 109.925C145.931 110.08 145.523 110.157 145.018 110.157C143.66 110.157 142.98 109.506 142.98 108.202V104.244H141.812V103H142.98V101.38L144.566 100.929V103H146.241V104.244H144.566V107.744C144.566 108.159 144.642 108.455 144.792 108.633C144.942 108.811 145.193 108.899 145.544 108.899C145.813 108.899 146.045 108.822 146.241 108.667V109.925ZM153.453 106.931H148.682C148.7 107.578 148.898 108.077 149.276 108.428C149.659 108.779 150.183 108.954 150.849 108.954C151.596 108.954 152.282 108.731 152.906 108.284V109.562C152.268 109.964 151.425 110.164 150.377 110.164C149.347 110.164 148.538 109.847 147.95 109.214C147.367 108.576 147.075 107.68 147.075 106.527C147.075 105.438 147.396 104.552 148.039 103.868C148.686 103.18 149.488 102.836 150.445 102.836C151.402 102.836 152.143 103.144 152.667 103.759C153.191 104.374 153.453 105.229 153.453 106.322V106.931ZM151.922 105.81C151.917 105.24 151.783 104.798 151.519 104.483C151.254 104.164 150.89 104.005 150.425 104.005C149.969 104.005 149.582 104.171 149.263 104.504C148.948 104.837 148.755 105.272 148.682 105.81H151.922ZM161.328 110H159.742V108.811H159.715C159.204 109.713 158.418 110.164 157.356 110.164C156.495 110.164 155.805 109.852 155.285 109.228C154.77 108.599 154.513 107.744 154.513 106.664C154.513 105.507 154.798 104.579 155.367 103.882C155.941 103.185 156.705 102.836 157.657 102.836C158.601 102.836 159.286 103.214 159.715 103.971H159.742V99.6367H161.328V110ZM159.763 106.801V105.885C159.763 105.388 159.601 104.966 159.277 104.62C158.954 104.274 158.541 104.101 158.04 104.101C157.448 104.101 156.98 104.322 156.639 104.764C156.301 105.206 156.133 105.819 156.133 106.603C156.133 107.313 156.295 107.876 156.618 108.291C156.946 108.701 157.386 108.906 157.938 108.906C158.48 108.906 158.92 108.708 159.257 108.312C159.594 107.91 159.763 107.407 159.763 106.801ZM168.868 108.968H168.841V113.22H167.255V103H168.841V104.23H168.868C169.41 103.301 170.203 102.836 171.247 102.836C172.136 102.836 172.828 103.148 173.325 103.772C173.822 104.397 174.07 105.235 174.07 106.288C174.07 107.455 173.79 108.389 173.229 109.091C172.669 109.793 171.903 110.144 170.933 110.144C170.039 110.144 169.351 109.752 168.868 108.968ZM168.827 106.206V107.074C168.827 107.585 168.989 108.018 169.312 108.373C169.641 108.729 170.055 108.906 170.557 108.906C171.145 108.906 171.605 108.678 171.938 108.223C172.275 107.762 172.443 107.122 172.443 106.302C172.443 105.614 172.286 105.076 171.972 104.688C171.662 104.297 171.24 104.101 170.707 104.101C170.142 104.101 169.686 104.301 169.34 104.702C168.998 105.103 168.827 105.604 168.827 106.206ZM180.899 110H179.361V108.906H179.334C178.851 109.745 178.142 110.164 177.208 110.164C176.52 110.164 175.98 109.977 175.588 109.604C175.201 109.23 175.007 108.735 175.007 108.12C175.007 106.799 175.768 106.028 177.29 105.81L179.368 105.516C179.368 104.518 178.894 104.019 177.946 104.019C177.112 104.019 176.36 104.306 175.69 104.88V103.492C176.429 103.055 177.281 102.836 178.247 102.836C180.015 102.836 180.899 103.706 180.899 105.447V110ZM179.368 106.562L177.898 106.767C177.443 106.826 177.099 106.938 176.866 107.102C176.638 107.261 176.524 107.544 176.524 107.949C176.524 108.245 176.629 108.489 176.839 108.681C177.053 108.868 177.338 108.961 177.693 108.961C178.176 108.961 178.575 108.792 178.89 108.455C179.209 108.113 179.368 107.685 179.368 107.17V106.562ZM189.212 109.439C189.212 112.01 187.92 113.295 185.336 113.295C184.424 113.295 183.629 113.142 182.95 112.837V111.388C183.716 111.825 184.443 112.044 185.131 112.044C186.794 112.044 187.626 111.226 187.626 109.59V108.824H187.599C187.075 109.717 186.286 110.164 185.233 110.164C184.381 110.164 183.693 109.854 183.169 109.234C182.649 108.61 182.39 107.774 182.39 106.726C182.39 105.536 182.67 104.59 183.23 103.889C183.791 103.187 184.561 102.836 185.541 102.836C186.466 102.836 187.152 103.214 187.599 103.971H187.626V103H189.212V109.439ZM187.64 106.794V105.885C187.64 105.393 187.476 104.973 187.147 104.627C186.824 104.276 186.418 104.101 185.931 104.101C185.329 104.101 184.857 104.324 184.516 104.771C184.178 105.213 184.01 105.832 184.01 106.63C184.01 107.318 184.172 107.869 184.495 108.284C184.823 108.694 185.256 108.899 185.794 108.899C186.341 108.899 186.785 108.703 187.127 108.312C187.469 107.915 187.64 107.409 187.64 106.794ZM197.203 106.931H192.432C192.45 107.578 192.648 108.077 193.026 108.428C193.409 108.779 193.933 108.954 194.599 108.954C195.346 108.954 196.032 108.731 196.656 108.284V109.562C196.018 109.964 195.175 110.164 194.127 110.164C193.097 110.164 192.288 109.847 191.7 109.214C191.117 108.576 190.825 107.68 190.825 106.527C190.825 105.438 191.146 104.552 191.789 103.868C192.436 103.18 193.238 102.836 194.195 102.836C195.152 102.836 195.893 103.144 196.417 103.759C196.941 104.374 197.203 105.229 197.203 106.322V106.931ZM195.672 105.81C195.667 105.24 195.533 104.798 195.269 104.483C195.004 104.164 194.64 104.005 194.175 104.005C193.719 104.005 193.332 104.171 193.013 104.504C192.698 104.837 192.505 105.272 192.432 105.81H195.672Z" fill="#2777D3"/>
<path d="M118.043 111.62H197.682V112.434H118.043V111.62Z" fill="#2777D3"/>
<path d="M369 152C369 142.059 377.059 134 387 134H412C421.941 134 430 142.059 430 152V152C430 161.941 421.941 170 412 170H387C377.059 170 369 161.941 369 152V152Z" fill="#2777D3"/>
<path d="M393.522 157H391.745L387.062 149.795C386.944 149.613 386.846 149.424 386.769 149.228H386.728C386.764 149.437 386.782 149.886 386.782 150.574V157H385.21V147.197H387.104L391.629 154.231C391.82 154.523 391.943 154.724 391.998 154.833H392.025C391.98 154.573 391.957 154.133 391.957 153.514V147.197H393.522V157ZM401.705 153.931H396.934C396.952 154.578 397.15 155.077 397.528 155.428C397.911 155.779 398.435 155.954 399.101 155.954C399.848 155.954 400.534 155.731 401.158 155.284V156.562C400.52 156.964 399.677 157.164 398.629 157.164C397.599 157.164 396.79 156.847 396.202 156.214C395.619 155.576 395.327 154.68 395.327 153.527C395.327 152.438 395.648 151.552 396.291 150.868C396.938 150.18 397.74 149.836 398.697 149.836C399.654 149.836 400.395 150.144 400.919 150.759C401.443 151.374 401.705 152.229 401.705 153.322V153.931ZM400.174 152.81C400.169 152.24 400.035 151.798 399.771 151.483C399.506 151.164 399.142 151.005 398.677 151.005C398.221 151.005 397.834 151.171 397.515 151.504C397.2 151.837 397.007 152.272 396.934 152.81H400.174ZM409.067 150L406.736 153.541L409.04 157H407.201L405.971 154.833C405.893 154.701 405.802 154.532 405.697 154.327H405.67C405.652 154.368 405.556 154.537 405.383 154.833L404.132 157H402.3L404.679 153.568L402.423 150H404.269L405.479 152.276C405.57 152.445 405.659 152.618 405.745 152.796H405.766L407.331 150H409.067ZM413.921 156.925C413.611 157.08 413.203 157.157 412.697 157.157C411.339 157.157 410.66 156.506 410.66 155.202V151.244H409.491V150H410.66V148.38L412.246 147.929V150H413.921V151.244H412.246V154.744C412.246 155.159 412.321 155.455 412.472 155.633C412.622 155.811 412.873 155.899 413.224 155.899C413.493 155.899 413.725 155.822 413.921 155.667V156.925Z" fill="white"/>
</g>
<defs>
<filter id="filter0_d_1_944" x="25" y="26" width="435" height="180" filterUnits="userSpaceOnUse" color-interpolation-filters="sRGB">
<feFlood flood-opacity="0" result="BackgroundImageFix"/>
<feColorMatrix in="SourceAlpha" type="matrix" values="0 0 0 0 0 0 0 0 0 0 0 0 0 0 0 0 0 0 127 0" result="hardAlpha"/>
<feOffset dy="6"/>
<feGaussianBlur stdDeviation="5"/>
<feComposite in2="hardAlpha" operator="out"/>
<feColorMatrix type="matrix" values="0 0 0 0 0 0 0 0 0 0 0 0 0 0 0 0 0 0 0.25 0"/>
<feBlend mode="normal" in2="BackgroundImageFix" result="effect1_dropShadow_1_944"/>
<feBlend mode="normal" in="SourceGraphic" in2="effect1_dropShadow_1_944" result="shape"/>
</filter>
</defs>
</svg>
