<svg xmlns="http://www.w3.org/2000/svg" xmlns:xlink="http://www.w3.org/1999/xlink" width="390" height="844" viewBox="0 0 390 844">
  <defs>
    <clipPath id="clip-path">
      <rect width="350" height="3.5" fill="none"/>
    </clipPath>
    <linearGradient id="linear-gradient" x1="1" y1="0.5" x2="0.005" y2="0.5" gradientUnits="objectBoundingBox">
      <stop offset="0" stop-color="#1f5ea8"/>
      <stop offset="1" stop-color="#cbcbd2"/>
    </linearGradient>
    <clipPath id="clip-progress-bar_responsiveness">
      <rect width="390" height="844"/>
    </clipPath>
  </defs>
  <g id="progress-bar_responsiveness" clip-path="url(#clip-progress-bar_responsiveness)">
    <rect width="390" height="844" fill="#f4f4f6"/>
    <g id="Mobile_Top_Bar_1" data-name="Mobile Top Bar – 1">
      <rect id="Rectangle_1" data-name="Rectangle 1" width="391" height="55" fill="#f9f9fa"/>
      <g id="Group_8092" data-name="Group 8092" transform="translate(345 10)">
        <path id="Path_101755" data-name="Path 101755" d="M303.8,258.3l-5-5a6.354,6.354,0,0,0,1.1-4.9,6.471,6.471,0,0,0-5.6-5.3,6.53,6.53,0,0,0-2,12.9,6.914,6.914,0,0,0,4.9-1.1l5,5a1.088,1.088,0,0,0,1.5,0A1.222,1.222,0,0,0,303.8,258.3Zm-14.7-9.5a4.458,4.458,0,0,1,3.7-3.7,4.57,4.57,0,0,1,5.2,5.2,4.458,4.458,0,0,1-3.7,3.7A4.609,4.609,0,0,1,289.1,248.8Z" transform="translate(-277.224 -234.053)" fill="#4e92df"/>
        <ellipse id="Ellipse_1" data-name="Ellipse 1" cx="18" cy="17.5" rx="18" ry="17.5" transform="translate(0)" fill="none"/>
      </g>
      <g id="Group_8091" data-name="Group 8091" transform="translate(10 10)">
        <ellipse id="Ellipse_2" data-name="Ellipse 2" cx="18" cy="17.5" rx="18" ry="17.5" fill="none"/>
        <g id="Group_7747" data-name="Group 7747" transform="translate(10 12)">
          <rect id="Rectangle_4038" data-name="Rectangle 4038" width="16" height="2" fill="#4e92df"/>
          <rect id="Rectangle_4039" data-name="Rectangle 4039" width="16" height="2" transform="translate(0 5)" fill="#4e92df"/>
          <rect id="Rectangle_4040" data-name="Rectangle 4040" width="16" height="2" transform="translate(0 10)" fill="#4e92df"/>
        </g>
      </g>
      <g id="Zywave_logo" data-name="Zywave logo" transform="translate(147.5 17.105)">
        <g id="Group_6" data-name="Group 6">
          <path id="Path_467" data-name="Path 467" d="M438.256,0l-5.225,11.558L427.79,0H425.7l7.331,16.2L440.362,0Z" transform="translate(-358.297)" fill="#0f2d52"/>
          <path id="Path_468" data-name="Path 468" d="M341.032,16.2h2.106L335.822,0h-.807L327.7,16.2h2.106l1.6-3.578h8.027Zm-8.772-5.478,3.151-6.951,3.151,6.951Z" transform="translate(-275.814)" fill="#0f2d52"/>
          <path id="Path_469" data-name="Path 469" d="M543.316,8.74h5.827V6.84h-5.827V1.9h6.333L550.662,0H541.4V16.2h8.265l1.013-1.948h-7.362Z" transform="translate(-455.678)" fill="#0f2d52"/>
          <path id="Path_470" data-name="Path 470" d="M181.181,0l-5.193,11.558L171.348,1.409l-4.608,10.149L161.722,0H158.6l-2.8,6.191L156.845,8.5l3.214-7.093L166.741,16.2l4.608-10.165L175.987,16.2,183.271,0Z" transform="translate(-131.132)" fill="#0f2d52"/>
          <path id="Path_471" data-name="Path 471" d="M3.515,14.266,12.793,0H1.552L.681,1.9h8.6L0,16.166H12.778l.855-1.9Z" fill="#0f2d52"/>
        </g>
        <path id="Path_472" data-name="Path 472" d="M102.664,0H98.5l4.687,10.4L98.5,20.789h4.164L107.382,10.4Z" transform="translate(-82.904)" fill="#5fb53b"/>
      </g>
      <line id="Line_2" data-name="Line 2" x2="390" transform="translate(0 55)" fill="none" stroke="#e6e6ea" stroke-width="1"/>
    </g>
    <g id="Group_270722" data-name="Group 270722" transform="translate(-765.5 -45)">
      <g id="quote-loading" transform="translate(785.92 341.003)">
        <path id="Path_101231" data-name="Path 101231" d="M304.68,26.668C275.652-5.388,224.7-9.061,190.9,18.456a78.2,78.2,0,0,0-11.343,11.326,15.385,15.385,0,0,1-18.019,4.033C114.239,13.076,58.192,32.605,36.313,77.369s-1.3,97.927,45.956,118.666a95.682,95.682,0,0,0,11.24,4.127,74.151,74.151,0,0,1,32.948,20.353l.5.532c28.444,29.688,76.9,31.893,108.215,4.934,18.817-16.191,27.929-40.165,24.342-64.009a11.154,11.154,0,0,1,8.066-12.3c42.584-12.7,66.249-55.7,52.855-96.1a75.644,75.644,0,0,0-15.753-26.9Z" transform="translate(-3.913)" fill="#f9f9fa"/>
        <path id="Path_101232" data-name="Path 101232" d="M189.71,26.354a8.366,8.366,0,0,0,8.58-8.134,8.58,8.58,0,0,0-17.161,0,8.374,8.374,0,0,0,8.58,8.134Zm0-15.041A7.1,7.1,0,0,1,197,18.22a7.293,7.293,0,1,1-14.587,0,7.1,7.1,0,0,1,7.285-6.864Z" transform="translate(-25.714 -1.369)" fill="#f4f4f6"/>
        <path id="Path_101233" data-name="Path 101233" d="M176.426,9.4a4.513,4.513,0,0,0,4.625-4.376,4.625,4.625,0,0,0-9.241,0A4.5,4.5,0,0,0,176.426,9.4Zm0-7.516a3.226,3.226,0,0,1,3.312,3.14,3.321,3.321,0,0,1-6.633,0A3.235,3.235,0,0,1,176.426,1.887Z" transform="translate(-24.391 -0.085)" fill="#f4f4f6"/>
        <path id="Path_101234" data-name="Path 101234" d="M318.522,186.51a8.151,8.151,0,1,0,8.58,8.143h0A8.374,8.374,0,0,0,318.522,186.51Zm0,15.041a6.916,6.916,0,1,1,7.285-6.864h0a7.1,7.1,0,0,1-7.285,6.864Z" transform="translate(-44.123 -26.478)" fill="#f4f4f6"/>
        <path id="Path_101235" data-name="Path 101235" d="M18.021,177.78a8.151,8.151,0,1,0,8.151,8.151,8.151,8.151,0,0,0-8.151-8.151Zm0,15.041a6.916,6.916,0,1,1,0-13.806,7.1,7.1,0,0,1,7.285,6.907h0a7.1,7.1,0,0,1-7.285,6.864Z" transform="translate(-1.401 -25.239)" fill="#f4f4f6"/>
        <path id="Path_101236" data-name="Path 101236" d="M329.313,176a4.385,4.385,0,1,0,4.616,4.385A4.5,4.5,0,0,0,329.313,176Zm0,7.525a3.149,3.149,0,1,1,3.321-3.14h0a3.235,3.235,0,0,1-3.321,3.132Z" transform="translate(-46.162 -24.986)" fill="#f4f4f6"/>
        <path id="Path_101237" data-name="Path 101237" d="M359.695,23.386a4.513,4.513,0,0,0,4.625-4.376,4.633,4.633,0,0,0-9.25,0,4.5,4.5,0,0,0,4.625,4.376Zm0-7.525a3.235,3.235,0,0,1,3.321,3.149,3.321,3.321,0,0,1-6.633,0h0a3.243,3.243,0,0,1,3.312-3.149Z" transform="translate(-50.408 -2.081)" fill="#f4f4f6"/>
        <path id="Path_101238" data-name="Path 101238" d="M114.2,240.73a4.385,4.385,0,1,0,4.616,4.385,4.5,4.5,0,0,0-4.616-4.385Zm0,7.525a3.149,3.149,0,1,1,3.321-3.149h0a3.243,3.243,0,0,1-3.329,3.149Z" transform="translate(-15.623 -34.175)" fill="#f4f4f6"/>
        <path id="Path_101239" data-name="Path 101239" d="M362.71,299Z" transform="translate(-51.493 -42.448)" fill="#f1f1f3"/>
        <path id="Path_101240" data-name="Path 101240" d="M362.879,298.87v.077h-.129Z" transform="translate(-51.498 -42.43)" fill="#f1f1f3"/>
        <path id="Path_101241" data-name="Path 101241" d="M362.71,299Z" transform="translate(-51.493 -42.448)" fill="#f1f1f3"/>
        <path id="Path_101242" data-name="Path 101242" d="M362.879,298.87v.077h-.129Z" transform="translate(-51.498 -42.43)" fill="#f1f1f3"/>
        <path id="Path_101243" data-name="Path 101243" d="M362.879,298.87v.077h-.129Z" transform="translate(-51.498 -42.43)" fill="#f1f1f3"/>
        <path id="Path_101244" data-name="Path 101244" d="M362.853,298.87v.077h-.215l-.069-.06h.086Z" transform="translate(-51.473 -42.43)" fill="#f1f1f3"/>
        <path id="Path_101245" data-name="Path 101245" d="M362.639,298.99h0l-.069-.06h.086Z" transform="translate(-51.473 -42.438)" fill="#f1f1f3"/>
        <path id="Path_101246" data-name="Path 101246" d="M362.813,298.977H362.6l-.069-.06h.086l.163-.077Z" transform="translate(-51.467 -42.425)" fill="#f1f1f3"/>
        <path id="Path_101247" data-name="Path 101247" d="M378.214,276.386s-1.073,8.143-3.887,10.957c-2.574,2.574-6.993,1.055-7.679.789h0v-.051l-.112.051h-.017c-.729.275-5.08,1.785-7.654-.8-2.823-2.814-3.9-10.957-3.9-10.957a41.188,41.188,0,0,1,5.148,1.107,36.9,36.9,0,0,1,1.064-3.835s1.21.712,2.7,1.8a40.324,40.324,0,0,1,2.574-3.861,41.643,41.643,0,0,1,2.574,3.878c1.51-1.1,2.729-1.819,2.729-1.819a36.576,36.576,0,0,1,1.09,3.887A41.54,41.54,0,0,1,378.214,276.386Z" transform="translate(-50.394 -38.557)" fill="#f1f1f3"/>
        <ellipse id="Ellipse_3466" data-name="Ellipse 3466" cx="11.91" cy="1.888" rx="11.91" ry="1.888" transform="translate(304.139 247.646)" fill="#cbcbd2"/>
        <rect id="Rectangle_9934" data-name="Rectangle 9934" width="129.692" height="206.366" transform="translate(14.904 24.917)" fill="#e6e6ea"/>
        <rect id="Rectangle_9935" data-name="Rectangle 9935" width="26.728" height="15.771" transform="translate(26.711 38.5)" fill="#cbcbd2"/>
        <rect id="Rectangle_9936" data-name="Rectangle 9936" width="26.728" height="15.771" transform="translate(65.708 38.5)" fill="#cbcbd2"/>
        <rect id="Rectangle_9937" data-name="Rectangle 9937" width="26.728" height="15.771" transform="translate(104.697 38.5)" fill="#cbcbd2"/>
        <rect id="Rectangle_9938" data-name="Rectangle 9938" width="26.728" height="15.771" transform="translate(26.711 64.241)" fill="#cbcbd2"/>
        <rect id="Rectangle_9939" data-name="Rectangle 9939" width="26.728" height="15.771" transform="translate(65.708 64.241)" fill="#cbcbd2"/>
        <rect id="Rectangle_9940" data-name="Rectangle 9940" width="26.728" height="15.771" transform="translate(104.697 64.241)" fill="#cbcbd2"/>
        <rect id="Rectangle_9941" data-name="Rectangle 9941" width="26.728" height="15.771" transform="translate(26.711 89.982)" fill="#cbcbd2"/>
        <rect id="Rectangle_9942" data-name="Rectangle 9942" width="26.728" height="15.771" transform="translate(65.708 89.982)" fill="#cbcbd2"/>
        <rect id="Rectangle_9943" data-name="Rectangle 9943" width="26.728" height="15.771" transform="translate(104.697 89.982)" fill="#cbcbd2"/>
        <rect id="Rectangle_9944" data-name="Rectangle 9944" width="26.728" height="15.771" transform="translate(26.711 115.723)" fill="#cbcbd2"/>
        <rect id="Rectangle_9945" data-name="Rectangle 9945" width="26.728" height="15.771" transform="translate(65.708 115.723)" fill="#cbcbd2"/>
        <rect id="Rectangle_9946" data-name="Rectangle 9946" width="26.728" height="15.771" transform="translate(104.697 115.723)" fill="#cbcbd2"/>
        <rect id="Rectangle_9947" data-name="Rectangle 9947" width="26.728" height="15.771" transform="translate(26.711 141.464)" fill="#cbcbd2"/>
        <rect id="Rectangle_9948" data-name="Rectangle 9948" width="26.728" height="15.771" transform="translate(65.708 141.464)" fill="#cbcbd2"/>
        <rect id="Rectangle_9949" data-name="Rectangle 9949" width="26.728" height="15.771" transform="translate(104.697 141.464)" fill="#cbcbd2"/>
        <rect id="Rectangle_9950" data-name="Rectangle 9950" width="26.728" height="15.771" transform="translate(26.711 167.205)" fill="#cbcbd2"/>
        <rect id="Rectangle_9951" data-name="Rectangle 9951" width="26.728" height="15.771" transform="translate(65.708 167.205)" fill="#cbcbd2"/>
        <rect id="Rectangle_9952" data-name="Rectangle 9952" width="26.728" height="15.771" transform="translate(104.697 167.205)" fill="#cbcbd2"/>
        <path id="Path_101248" data-name="Path 101248" d="M354.494,154.877c0,33.24-19.735,44.841-44.137,44.841h-1.716l-.463,30.349h-4.47l1.6-30.5c-22-1.553-39.092-13.729-39.092-44.669,0-31.979,40.834-72.315,43.948-75.352h0l.18-.172S354.494,121.628,354.494,154.877Z" transform="translate(-37.794 -11.268)" fill="#e6e6ea"/>
        <path id="Path_101249" data-name="Path 101249" d="M398.357,194.387c0,20.593-12.261,27.835-27.388,27.835h-1.047l-.309,18.834H366.85l.987-18.928c-13.651-.97-24.257-8.537-24.257-27.723,0-19.846,25.338-44.875,27.277-46.763h0l.112-.112S398.357,173.76,398.357,194.387Z" transform="translate(-48.777 -20.944)" fill="#e6e6ea"/>
        <path id="Path_101250" data-name="Path 101250" d="M42.017,246.33c0,13.145-8.649,17.736-19.323,17.736h-.764l-.215,12.012H19.786l.7-12.064c-9.636-.618-17.109-5.44-17.109-17.667,0-12.647,17.873-28.607,19.237-29.808h0l.077-.069S42.017,233.176,42.017,246.33Z" transform="translate(-0.48 -30.731)" fill="#cbcbd2"/>
        <ellipse id="Ellipse_3467" data-name="Ellipse 3467" cx="20.498" cy="2.943" rx="20.498" ry="2.943" transform="translate(0 240.55)" fill="#e6e6ea"/>
        <path id="Path_101251" data-name="Path 101251" d="M121.268,100.7l-1.158,7.92-14.466,38.869s0-.378,1.261-1,41.126,6.289,41.126,6.289l-7.422,53.069-45.021-12.7s-5.037-.858-5.037-5.783S101.5,146.982,101.5,146.982Z" transform="translate(-12.855 -14.296)" fill="#1a1a1e"/>
        <g id="Group_264308" data-name="Group 264308" transform="translate(77.721 132.623)" opacity="0.2">
          <path id="Path_101252" data-name="Path 101252" d="M110.1,154.63h.609A.764.764,0,0,0,110.1,154.63Z" transform="translate(-93.351 -154.566)"/>
          <path id="Path_101253" data-name="Path 101253" d="M141.873,204.718c-8.16-1.9-43.76-10.254-45.759-12.7-2.257-2.771,3.527-23.167,6.8-30.821,2.145-5.037,3.647-6.272,4.419-6.538-.446,0-6.1,1-7.027,4.007-2.883,9.438-9.722,32.485-9.722,36.372,0,4.9,5.037,5.783,5.037,5.783l45.021,12.7Z" transform="translate(-90.58 -154.579)"/>
        </g>
        <path id="Path_101254" data-name="Path 101254" d="M175.039,180.94h0Z" transform="translate(-24.84 -25.687)"/>
        <path id="Path_101255" data-name="Path 101255" d="M108.22,155.11a.576.576,0,0,0,0,.1Z" transform="translate(-15.363 -22.02)" fill="#31313a"/>
        <path id="Path_101256" data-name="Path 101256" d="M125.48,198Z" transform="translate(-17.814 -28.109)" fill="#31313a"/>
        <path id="Path_101257" data-name="Path 101257" d="M131.68,211.807c0,.086.086.154.137.24a1.8,1.8,0,0,1-.129-.257Z" transform="translate(-18.694 -30.067)" fill="#31313a"/>
        <path id="Path_101258" data-name="Path 101258" d="M125.409,198.227h0v-.2h-.129a.563.563,0,0,0,.086.215Z" transform="translate(-17.786 -28.114)" fill="#31313a"/>
        <path id="Path_101259" data-name="Path 101259" d="M150.675,160.511S130.4,156.993,118.31,155.2c-2.823,12.21-9.31,26.659-9.31,26.659a35.977,35.977,0,0,0,10.1,4.5l.858.257c-.249,3.072-.412,5-.412,5l3.432.317h.129v.2h0l-.043.206a2.067,2.067,0,0,1-.06.317.937.937,0,0,1-.051.378,16.3,16.3,0,0,0,.1,6.864c.6,2.094,2.943,3.621,5.294,4.4l-1.021,4.788,15.925,4.488Z" transform="translate(-15.474 -22.033)" opacity="0.1"/>
        <path id="Path_101260" data-name="Path 101260" d="M140.9,196v.858C140.881,196.583,140.89,196.3,140.9,196Z" transform="translate(-20.001 -27.825)" fill="#31313a"/>
        <path id="Path_101261" data-name="Path 101261" d="M122.09,187.995h0V187.6h-.12A2.443,2.443,0,0,0,122.09,187.995Z" transform="translate(-17.316 -26.633)" fill="#31313a"/>
        <path id="Path_101262" data-name="Path 101262" d="M183.707,186.715a10.966,10.966,0,0,1-1.994-.18,8.875,8.875,0,0,1-2.878-1.01l.529-.849a8.094,8.094,0,0,0,2.577.884,10.866,10.866,0,0,0,6.51-.915l.414.91A12.408,12.408,0,0,1,183.707,186.715Z" transform="translate(-25.426 -26.278)" fill="#3f3d56"/>
        <path id="Path_101263" data-name="Path 101263" d="M292.68,224.656s.669-1.716,1.9-1.716,4.8.412,5.26.36.721,2.2.721,2.2Z" transform="translate(-41.551 -31.65)" fill="#74441e"/>
        <path id="Path_101264" data-name="Path 101264" d="M277.126,292.1s1.167,5.955.9,7.37-3.75,5.817-3.75,5.817-1.647,2.574.42,3.518,3.029,1.828,4.762-.223a70.312,70.312,0,0,0,4.959-7.559c.369-.669,1.587-6.487,1.587-6.487l.223-2.342-8.683-.129Z" transform="translate(-38.85 -41.464)" fill="#74441e"/>
        <path id="Path_101265" data-name="Path 101265" d="M277.126,292.1s1.167,5.955.9,7.37-3.75,5.817-3.75,5.817-1.647,2.574.42,3.518,3.029,1.828,4.762-.223a70.312,70.312,0,0,0,4.959-7.559c.369-.669,1.587-6.487,1.587-6.487l.223-2.342-8.683-.129Z" transform="translate(-38.85 -41.464)" opacity="0.1"/>
        <path id="Path_101266" data-name="Path 101266" d="M225.6,279.439c.429.12,4.093,2.574,3.9,5.843s-1.45,10.948.378,13.085,4.651,5.534,5.277,6.1.944,1.381-.566,2.454-5.088,2.385-7.6-2.523-3.587-6.281-6.289-11.944A38.045,38.045,0,0,0,213,282.27S215.48,276.607,225.6,279.439Z" transform="translate(-30.239 -39.558)" fill="#74441e"/>
        <path id="Path_101267" data-name="Path 101267" d="M225.6,279.439c.429.12,4.093,2.574,3.9,5.843s-1.45,10.948.378,13.085,4.651,5.534,5.277,6.1.944,1.381-.566,2.454-5.088,2.385-7.6-2.523-3.587-6.281-6.289-11.944A38.045,38.045,0,0,0,213,282.27S215.48,276.607,225.6,279.439Z" transform="translate(-30.239 -39.558)" opacity="0.1"/>
        <path id="Path_101268" data-name="Path 101268" d="M292.68,224.656s.669-1.716,1.9-1.716,4.8.412,5.26.36.721,2.2.721,2.2Z" transform="translate(-41.551 -31.65)" opacity="0.1"/>
        <path id="Path_101269" data-name="Path 101269" d="M303.314,244.476c-2.076.566-11.06,5.783-12.922,6.418a21.855,21.855,0,0,1-5.431,1.184c2.626,4.754,3.226,13.308,2.574,17.675a39.469,39.469,0,0,1-2.265,8.872,4.911,4.911,0,0,1-.223.6c.086,2.119.18,3.878.292,4.556.352,2.248,2.7,13.6,5.406,15.136s4.762,6.375,3.981,8.5-6.7,1.313-7.431-2.411-11.086-11.481-12.39-15.968c-.249-.858-.566-1.716-.918-2.651-16.08,1.871-34.639-8.761-40.13-8.2a32.6,32.6,0,0,0-5.689,1.158c-3.6,5.054-13.162,11.154-16.071,13.548-3.2,2.651-3.775,10-3.578,11.892s3.578,1.888,3.012,3.587-5.663,3.956-8.3,0-.944-6.8-.944-6.8,2.257-14.527,3.02-15.848c.489-.858,3.432-1.879,2.317-9.7a13.24,13.24,0,0,1-1.381-8.04,88.959,88.959,0,0,1,1.321-10.46c-.129-.515-.3-1.133-.523-1.862-1.716-5.783-9.559-10.065-7.92-19.735,1.416-8.392,1.5-9.893,1.5-10.151,0,.858.309,14.115,1.493,16.62s4.376,8.263,8.383,10.734c1.81-.858,4.608-.858,9.121-.738,12.073.378,21.511.575,31.885-.558s13.205-1.321,17.161-11.317c0-4.908,1.133-11.892,6.984-14.724a18.173,18.173,0,0,1,9.241-1.51c2.643.378,7.173,2.651,10.193,5.86a11.944,11.944,0,0,0,7.448,3.432s1.716-1.133,2.832-.189,1.133,5.285,1.321,6.221S305.382,243.91,303.314,244.476Z" transform="translate(-28.237 -31.83)" fill="#74441e"/>
        <path id="Path_101270" data-name="Path 101270" d="M284.272,233.083c1.982,1.888,6.229,3.587,6.006,4.719s4.522-3.587,1.321-11.515L290.192,225a14.886,14.886,0,0,0-2.617.935,10.828,10.828,0,0,0-4.865,4.771A7.5,7.5,0,0,0,284.272,233.083Z" transform="translate(-40.135 -31.942)" opacity="0.1"/>
        <path id="Path_101271" data-name="Path 101271" d="M291.69,224.846l-2.265-2.076-7.645,3.012s.566,3.964,2.574,5.852,6.229,3.587,6.006,4.719S294.891,232.766,291.69,224.846Z" transform="translate(-40.003 -31.626)" fill="#74441e"/>
        <g id="Group_264309" data-name="Group 264309" transform="translate(265.261 196.764)" opacity="0.2">
          <path id="Path_101272" data-name="Path 101272" d="M323.58,235.75Z" transform="translate(-311.199 -230.233)" fill="#fff"/>
          <path id="Path_101273" data-name="Path 101273" d="M323.34,235.259a.3.3,0,0,0,0-.069A.3.3,0,0,1,323.34,235.259Z" transform="translate(-311.165 -230.153)" fill="#fff"/>
          <path id="Path_101274" data-name="Path 101274" d="M321.94,234.439a2.571,2.571,0,0,0-.36,0,2.573,2.573,0,0,1,.36,0Z" transform="translate(-310.915 -230.046)" fill="#fff"/>
          <path id="Path_101275" data-name="Path 101275" d="M321,234.51l-.309.086Z" transform="translate(-310.788 -230.057)" fill="#fff"/>
          <path id="Path_101276" data-name="Path 101276" d="M321.462,234.44a2.319,2.319,0,0,0-.352.052A2.315,2.315,0,0,1,321.462,234.44Z" transform="translate(-310.848 -230.047)" fill="#fff"/>
          <path id="Path_101277" data-name="Path 101277" d="M322.59,234.6a1.785,1.785,0,0,1,.36.223A1.785,1.785,0,0,0,322.59,234.6Z" transform="translate(-311.058 -230.07)" fill="#fff"/>
          <path id="Path_101278" data-name="Path 101278" d="M317.868,235.206a1.433,1.433,0,0,1,.4-.987l.146-.077-.206.12a11.944,11.944,0,0,1-7.448-3.432,17.956,17.956,0,0,0-1.613-1.51,34.629,34.629,0,0,0,3.029,4.239,11.155,11.155,0,0,0,6.144,2.952C317.748,236.313,317.876,235.7,317.868,235.206Z" transform="translate(-309.15 -229.32)" fill="#fff"/>
          <path id="Path_101279" data-name="Path 101279" d="M320,234.893l.215-.1Z" transform="translate(-310.69 -230.097)" fill="#fff"/>
          <path id="Path_101280" data-name="Path 101280" d="M320.31,234.742l.283-.112Z" transform="translate(-310.734 -230.074)" fill="#fff"/>
          <path id="Path_101281" data-name="Path 101281" d="M322.1,234.46a1.8,1.8,0,0,1,.369.094A1.8,1.8,0,0,0,322.1,234.46Z" transform="translate(-310.988 -230.05)" fill="#fff"/>
        </g>
        <path id="Path_101282" data-name="Path 101282" d="M323.143,237.5a.18.18,0,0,0,.283-.051,4.685,4.685,0,0,0-.944-2.574c-1-.858-2.463-.043-2.771.146a1.433,1.433,0,0,0-.4.987c0,.583-.189,1.347.858,1.441S322.731,237.15,323.143,237.5Z" transform="translate(-45.329 -33.29)" opacity="0.6"/>
        <path id="Path_101283" data-name="Path 101283" d="M308.957,248.423c-4.436,1.133-12.364,2.36-13.119,4.436s-1.5,11.6.858,17.547a32.777,32.777,0,0,1,2.042,12.2,4.923,4.923,0,0,0,.223-.6,39.467,39.467,0,0,0,2.265-8.872c.626-4.367,0-12.922-2.574-17.675a21.854,21.854,0,0,0,5.431-1.184c1.6-.549,8.383-4.427,11.618-5.895A15.058,15.058,0,0,0,308.957,248.423Z" transform="translate(-41.894 -35.21)" fill="#fff" opacity="0.3"/>
        <path id="Path_101284" data-name="Path 101284" d="M181.007,172.42a9.747,9.747,0,0,0,2.643,3.106c1.416.858,4.625,3.3,4.908,4.29s-.094,5-1.133,6.229-6.229,2.265-7.928,1.6-.858-4.719,0-5.852-3.587-3.3-3.587-3.3Z" transform="translate(-24.973 -24.478)" fill="#fbc8a4"/>
        <path id="Path_101285" data-name="Path 101285" d="M181.007,172.42l-5.1,6.006a20.435,20.435,0,0,1,2.128,1.236l5.251-4.41a10.828,10.828,0,0,1-2.282-2.832Z" transform="translate(-24.973 -24.478)" opacity="0.1"/>
        <path id="Path_101286" data-name="Path 101286" d="M154.451,101.629l15.616,41.795,9.112,16.689-12.3,10.3s-31.25-67.4-31.473-72.178-2.437-8.692,4.222-11.532,9.567-.206,11.6,5.483S154.451,101.629,154.451,101.629Z" transform="translate(-19.147 -12.145)" fill="#0f2e52"/>
        <path id="Path_101287" data-name="Path 101287" d="M154.451,101.629l15.616,41.795,9.112,16.689-12.3,10.3s-31.25-67.4-31.473-72.178-2.437-8.692,4.222-11.532,9.567-.206,11.6,5.483S154.451,101.629,154.451,101.629Z" transform="translate(-19.147 -12.145)" opacity="0.1"/>
        <path id="Path_101288" data-name="Path 101288" d="M172.049,166.1c-.7-7.336-1.939-16.714-3-25.381L154.46,101.63s-1.193-3.715-3.226-9.438-4.934-8.323-11.6-5.483-4.453,6.761-4.222,11.532,31.473,72.178,31.473,72.178Z" transform="translate(-19.148 -12.145)" opacity="0.1"/>
        <ellipse id="Ellipse_3468" data-name="Ellipse 3468" cx="15.668" cy="19.392" rx="15.668" ry="19.392" transform="translate(117.139 22.559) rotate(-6.91)" fill="#fbc8a4"/>
        <path id="Path_101289" data-name="Path 101289" d="M157.2,60.109c-2.36,5.037-4.831,23.218-4.831,23.218s-21.923-6.358-17.6-8.8,6.006-18.877,6.006-18.877S159.529,55.089,157.2,60.109Z" transform="translate(-19.052 -7.897)" fill="#fbc8a4"/>
        <path id="Path_101290" data-name="Path 101290" d="M92.392,319.376c-.6,2.411,0,14.466,5.423,16.3s8.434,6.006,8.434,7.834-4.822,1.81-15.668,0-23.493-21.09-24.7-22.309S79.7,307.93,79.7,307.93,92.992,316.965,92.392,319.376Z" transform="translate(-9.343 -43.716)" fill="#1a1a1e"/>
        <path id="Path_101291" data-name="Path 101291" d="M153.243,220.2l-15.067,39.169s-41.572,46.96-43.983,46.96-14.458-12.055-15.668-12.656,38.612-45.193,38.612-45.193l9.636-45.184Z" transform="translate(-11.144 -28.862)" fill="#31313a"/>
        <path id="Path_101292" data-name="Path 101292" d="M201.6,329.7s10.245,9.035,19.889,9.035,8.434,4.222,8.434,4.222c-2.411,8.434-45.193,6.006-47.6,4.822s1.21-12.673,1.21-12.673Z" transform="translate(-25.766 -46.806)" fill="#1a1a1e"/>
        <path id="Path_101293" data-name="Path 101293" d="M153.243,220.2l-15.067,39.169s-41.572,46.96-43.983,46.96-14.458-12.055-15.668-12.656,38.612-45.193,38.612-45.193l9.636-45.184Z" transform="translate(-11.144 -28.862)" opacity="0.1"/>
        <path id="Path_101294" data-name="Path 101294" d="M138.365,57.433c-2.36.5-5.62-5.148-6.641-6.77a18.679,18.679,0,0,1-2.806-10.468,26.925,26.925,0,0,1,4.29-12.7,14.037,14.037,0,0,1,3.432-4.239,11.909,11.909,0,0,1,6.272-2.068,21.451,21.451,0,0,1,9.8,1.544c1.793.746,3.7,1.759,5.569,1.227a5.389,5.389,0,0,1,2.128,0c.815.412-.378,2.231.472,1.9.592-.987,3.432-1.888,4.556-1.9.146.97,0,2.4.626,3.149L168.2,25.6c.729,2.034-1.579,4.239-2.2,6.307a6.229,6.229,0,0,1-4.376,4.367c-1.364.309-5.5.137-6.375,1.4s-1.27,2.094-1.184,2.72c.232,4.779-5.809,3.261-8.349,10.082S141.326,56.8,138.365,57.433Z" transform="translate(-18.301 -2.999)" fill="#57392e"/>
        <path id="Path_101295" data-name="Path 101295" d="M139.937,184.3c-8.683.592-16.457,1.836-16.457,1.836a78.7,78.7,0,0,0,2.849,8.924l13.274,1.253S139.731,191.284,139.937,184.3Z" transform="translate(-17.53 -26.164)" fill="#31313a"/>
        <path id="Path_101296" data-name="Path 101296" d="M196.951,310.209,184.295,260.2s-14.458-69.295-22.309-74.117c-3.484-2.145-11.386-2.377-19.074-1.982-.232,7.911-.386,13.806-.386,13.806l-15.076-1.424c2.806,7.079,7.5,16.474,14.647,23.948,13.282,13.857,19.289,42.181,19.289,42.181l13.257,56.63S198.152,316.241,196.951,310.209Z" transform="translate(-18.094 -26.114)" fill="#31313a"/>
        <path id="Path_101297" data-name="Path 101297" d="M142.837,184.13l-2.428.146c-.206,6.984-.335,12.012-.335,12.012L126.8,195.036c.18.48.369.97.575,1.476l15.041,1.424S142.6,192.041,142.837,184.13Z" transform="translate(-18.001 -26.14)" fill="#31313a"/>
        <path id="Path_101298" data-name="Path 101298" d="M163.329,131.515c-2.016-17.736-11.446-44.523-11.154-47.544a7.542,7.542,0,0,1,1.716-4.53L134.4,67.24l-2.265,6.8s-.686-.129-2.763,1.63c-4.436,2.016-8.8,43.76-8.306,55.849S110.5,168.368,110.5,168.368a36.037,36.037,0,0,0,10.108,4.5c.918-11.326,2.96-37.4,2.574-41.76-.455-5.6,2.523-40.739,6.864-46.557a7.834,7.834,0,0,1,6.349-2.694,7.808,7.808,0,0,0-5.474,2.694c-4.359,5.817-7.336,40.954-6.864,46.557.352,4.385-1.716,30.821-2.626,42.044,17.521,5.028,44.026,5.208,45.63,3.3C169.112,174.022,165.337,149.242,163.329,131.515Z" transform="translate(-15.687 -9.546)" fill="#0f2e52"/>
        <path id="Path_101299" data-name="Path 101299" d="M125.769,133.519c-.455-5.6,2.523-40.739,6.864-46.557a7.808,7.808,0,0,1,5.474-2.694,7.834,7.834,0,0,0-6.349,2.694c-4.367,5.817-7.345,40.954-6.864,46.557.36,4.359-1.716,30.434-2.574,41.76l.858.249C124.053,164.34,126.121,137.9,125.769,133.519Z" transform="translate(-17.365 -11.962)" fill="#0f2e52"/>
        <path id="Path_101300" data-name="Path 101300" d="M125.769,133.519c-.455-5.6,2.523-40.739,6.864-46.557a7.808,7.808,0,0,1,5.474-2.694,7.834,7.834,0,0,0-6.349,2.694c-4.367,5.817-7.345,40.954-6.864,46.557.36,4.359-1.716,30.434-2.574,41.76l.858.249C124.053,164.34,126.121,137.9,125.769,133.519Z" transform="translate(-17.365 -11.962)" opacity="0.1"/>
        <path id="Path_101301" data-name="Path 101301" d="M163.329,131.515c-2.016-17.736-11.446-44.523-11.154-47.544a7.542,7.542,0,0,1,1.716-4.53L134.4,67.24l-2.265,6.8s-.686-.129-2.763,1.63c-4.436,2.016-8.8,43.76-8.306,55.849S110.5,168.368,110.5,168.368a36.037,36.037,0,0,0,10.108,4.5c.918-11.326,2.96-37.4,2.574-41.76-.455-5.6,2.523-40.739,6.864-46.557a7.834,7.834,0,0,1,6.349-2.694,7.808,7.808,0,0,0-5.474,2.694c-4.359,5.817-7.336,40.954-6.864,46.557.352,4.385-1.716,30.821-2.626,42.044,17.521,5.028,44.026,5.208,45.63,3.3C169.112,174.022,165.337,149.242,163.329,131.515Z" transform="translate(-15.687 -9.546)" fill="#0f2e52"/>
        <path id="Path_101302" data-name="Path 101302" d="M125.769,133.519c-.455-5.6,2.523-40.739,6.864-46.557a7.808,7.808,0,0,1,5.474-2.694,7.834,7.834,0,0,0-6.349,2.694c-4.367,5.817-7.345,40.954-6.864,46.557.36,4.359-1.716,30.434-2.574,41.76l.858.249C124.053,164.34,126.121,137.9,125.769,133.519Z" transform="translate(-17.365 -11.962)" fill="#0f2e52"/>
        <path id="Path_101303" data-name="Path 101303" d="M125.769,133.519c-.455-5.6,2.523-40.739,6.864-46.557a7.808,7.808,0,0,1,5.474-2.694,7.834,7.834,0,0,0-6.349,2.694c-4.367,5.817-7.345,40.954-6.864,46.557.36,4.359-1.716,30.434-2.574,41.76l.858.249C124.053,164.34,126.121,137.9,125.769,133.519Z" transform="translate(-17.365 -11.962)" opacity="0.1"/>
        <path id="Path_101304" data-name="Path 101304" d="M144.505,130.188c-.489,2.789-1.218,25.072-1.665,40.1-.232,7.911-.395,13.806-.395,13.806l-2.926-.275c.309,5.285-.807,8.34-.807,10.3,0,1.424-2.763,1.527-5.517.592a89.662,89.662,0,0,1-5.363-10.974c.06-.343.112-.686.172-1l-.6-.06c-.206-.506-.395-1-.575-1.476l13.274,1.253s.137-5.028.335-12.012c.438-14.973,1.21-38.98,1.716-41.889.746-4.29,5.569-34.09,2.789-40.1a7.723,7.723,0,0,0-1.184-1.845,6.367,6.367,0,0,1,3.561,3.492C150.066,96.1,145.243,125.915,144.505,130.188Z" transform="translate(-18.006 -12.294)" opacity="0.1"/>
        <path id="Path_101305" data-name="Path 101305" d="M127.705,192.054s-2.265,6.8-.944,11.326,10.751,6.41,10.751,3.767,2.076-7.353-.189-16.972S127.705,192.054,127.705,192.054Z" transform="translate(-17.937 -26.454)" fill="#fbc8a4"/>
        <path id="Path_101306" data-name="Path 101306" d="M137.375,190.145c-2.265-9.627-9.619,1.879-9.619,1.879a32.055,32.055,0,0,0-1.047,4.445l11.7,1.107a37.315,37.315,0,0,0-1.038-7.431Z" transform="translate(-17.989 -26.449)" opacity="0.1"/>
        <path id="Path_101307" data-name="Path 101307" d="M132.719,86.961c2.051-2.729,8.846-4.856,11.626,1.15s-2.042,35.823-2.789,40.087-2.051,53.91-2.051,53.91L122.8,180.53s3.492-41.417,3.037-47.012S128.36,92.779,132.719,86.961Z" transform="translate(-17.433 -11.961)" fill="#0f2e52"/>
        <path id="Path_101308" data-name="Path 101308" d="M127.488,133.519c-.455-5.6,2.523-40.739,6.864-46.557a7.774,7.774,0,0,1,5.474-2.694,7.851,7.851,0,0,0-6.358,2.694c-4.359,5.817-7.345,40.954-6.864,46.557.36,4.359-1.716,30.434-2.574,41.76l.858.249C125.772,164.34,127.848,137.9,127.488,133.519Z" transform="translate(-17.608 -11.962)" fill="#0f2e52"/>
        <path id="Path_101309" data-name="Path 101309" d="M211.39,193.91Z" transform="translate(-30.01 -27.529)" fill="#0f2e52"/>
        <path id="Path_101310" data-name="Path 101310" d="M241.664,241a14.508,14.508,0,0,1-1.519-.077c-3.827-.429-8.52-5.028-13.96-10.339-6.006-5.895-12.87-12.57-19.04-13.686-11.815-2.145-18.954-14.295-17.452-23.742.815-5.105-.086-6.693-.515-7.139a1.167,1.167,0,0,0-.412-.275,10.03,10.03,0,0,1-10.056,1.175.738.738,0,1,1,.541-1.373,8.457,8.457,0,0,0,8.786-1.115.729.729,0,0,1,.412-.189,2.274,2.274,0,0,1,1.8.755c1.27,1.33,1.579,4.161.858,8.392-1.4,8.769,5.26,20.061,16.3,22.051,6.658,1.2,13.626,8.066,19.8,14.072,5.028,4.917,9.773,9.558,13.094,9.936,3.69.42,8.872-1.055,13.437-2.36,5.3-1.51,9.49-2.7,11.446-1.278a.738.738,0,1,1-.858,1.193c-1.373-1-5.843.275-10.168,1.51C250.021,239.686,245.414,241,241.664,241Z" transform="translate(-25.302 -26.155)" fill="#1f5ea8"/>
        <g id="Group_264310" data-name="Group 264310" transform="translate(152.925 158.082)" opacity="0.1">
          <path id="Path_101311" data-name="Path 101311" d="M241.664,241a14.508,14.508,0,0,1-1.519-.077c-3.827-.429-8.52-5.028-13.96-10.339-6.006-5.895-12.87-12.57-19.04-13.686-11.815-2.145-18.954-14.295-17.452-23.742.815-5.105-.086-6.693-.515-7.139a1.167,1.167,0,0,0-.412-.275,10.03,10.03,0,0,1-10.056,1.175.738.738,0,1,1,.541-1.373,8.457,8.457,0,0,0,8.786-1.115.729.729,0,0,1,.412-.189,2.274,2.274,0,0,1,1.8.755c1.27,1.33,1.579,4.161.858,8.392-1.4,8.769,5.26,20.061,16.3,22.051,6.658,1.2,13.626,8.066,19.8,14.072,5.028,4.917,9.773,9.558,13.094,9.936,3.69.42,8.872-1.055,13.437-2.36,5.3-1.51,9.49-2.7,11.446-1.278a.738.738,0,1,1-.858,1.193c-1.373-1-5.843.275-10.168,1.51C250.021,239.686,245.414,241,241.664,241Z" transform="translate(-178.227 -184.237)"/>
        </g>
        <path id="Path_101312" data-name="Path 101312" d="M280.036,242.45s2.205,9.842,16.98,11.884c.575.077.858,2.265.223,2.574s-15.633-.549-18.988-11.575C277.591,243.205,280.036,242.45,280.036,242.45Z" transform="translate(-39.486 -34.42)" fill="#1f5ea8"/>
      </g>
      <text id="Please_wait_while_we_fetch_the_plans_and_rates_for_your_quote." data-name="Please wait while we fetch 
the plans and rates for your 
quote." transform="translate(960.5 188)" fill="#31313a" font-size="26" font-family="SegoeUI-Semibold, Segoe UI" font-weight="600"><tspan x="-157.2" y="0">Please wait while we fetch </tspan><tspan x="-166.48" y="35">the plans and rates for your </tspan><tspan x="-37.845" y="70">quote.</tspan></text>
      <g id="Indeterminate_Progress_Bar_1" data-name="Indeterminate Progress Bar – 1" transform="translate(786 679.23)" clip-path="url(#clip-path)">
        <g id="Group_7631" data-name="Group 7631" transform="translate(-157.5 -319.2)">
          <g id="Group_7630" data-name="Group 7630" transform="translate(-103 3)">
            <rect id="Rectangle_3754" data-name="Rectangle 3754" width="350" height="3.5" rx="1.75" transform="translate(260.5 316.2)" fill="#cbcbd2"/>
            <rect id="Rectangle_3818" data-name="Rectangle 3818" width="232" height="3.5" rx="1.75" transform="translate(260.5 316.2)" fill="url(#linear-gradient)"/>
          </g>
        </g>
      </g>
    </g>
  </g>
</svg>
