<svg xmlns="http://www.w3.org/2000/svg" xmlns:xlink="http://www.w3.org/1999/xlink" width="1920" height="1080" viewBox="0 0 1920 1080">
  <defs>
    <clipPath id="clip-path">
      <rect id="Rectangle_11804" data-name="Rectangle 11804" width="20" height="20" fill="none"/>
    </clipPath>
    <clipPath id="clip-path-2">
      <rect id="Rectangle_11784" data-name="Rectangle 11784" width="18" height="18" fill="none"/>
    </clipPath>
    <clipPath id="clip-path-3">
      <rect id="Rectangle_11803" data-name="Rectangle 11803" width="16" height="20" fill="none"/>
    </clipPath>
    <clipPath id="clip-path-4">
      <rect id="Rectangle_11788" data-name="Rectangle 11788" width="16.011" height="20" fill="none"/>
    </clipPath>
    <clipPath id="clip-path-6">
      <rect id="Rectangle_11775" data-name="Rectangle 11775" width="17.125" height="17.13" transform="translate(0 0)" fill="none"/>
    </clipPath>
    <clipPath id="clip-path-7">
      <rect id="Rectangle_11777" data-name="Rectangle 11777" width="17.996" height="14.92" transform="translate(0 0)" fill="none"/>
    </clipPath>
    <clipPath id="clip-path-8">
      <rect id="Rectangle_11771" data-name="Rectangle 11771" width="20.541" height="17" transform="translate(0 0)" fill="none"/>
    </clipPath>
    <clipPath id="clip-path-9">
      <rect id="Rectangle_11801" data-name="Rectangle 11801" width="19.96" height="14.46" transform="translate(0 0)" fill="none"/>
    </clipPath>
    <clipPath id="clip-path-11">
      <rect id="Rectangle_11769" data-name="Rectangle 11769" width="16" height="19.97" transform="translate(0 0)" fill="none"/>
    </clipPath>
    <clipPath id="clip-path-12">
      <rect id="Rectangle_11779" data-name="Rectangle 11779" width="20" height="16" fill="none"/>
    </clipPath>
    <clipPath id="clip-path-13">
      <rect id="Rectangle_11768" data-name="Rectangle 11768" width="19.96" height="14.96" transform="translate(0 0)" fill="none"/>
    </clipPath>
    <clipPath id="clip-progress-bar_inform_users">
      <rect width="1920" height="1080"/>
    </clipPath>
  </defs>
  <g id="progress-bar_inform_users" clip-path="url(#clip-progress-bar_inform_users)">
    <rect width="1920" height="1080" fill="#f4f4f6"/>
    <path id="Line_1" data-name="Line 1" d="M.5,42h-1V0h1Z" transform="translate(1740.5 6)" fill="#e6e6ea"/>
    <g id="Group_264414" data-name="Group 264414" transform="translate(639 -2.5)">
      <g id="Group_8927" data-name="Group 8927" transform="translate(1148 14)">
        <text id="Adam_Gilson" data-name="Adam Gilson" transform="translate(81 15)" fill="#494955" font-size="14" font-family="SegoeUI-Semibold, Segoe UI" font-weight="600"><tspan x="-81.033" y="0">Adam Gilson</tspan></text>
      </g>
      <text id="Willis_Insurance_-_Nashville" data-name="Willis Insurance - Nashville" transform="translate(1229 42)" fill="#494955" font-size="10" font-family="SegoeUI, Segoe UI"><tspan x="-117.539" y="0">Willis Insurance - Nashville</tspan></text>
      <g id="Group_264401" data-name="Group 264401" transform="translate(1.396 2.396)">
        <circle id="Ellipse_402" data-name="Ellipse 402" cx="15" cy="15" r="15" transform="translate(1233.604 12.604)" fill="#78788c"/>
        <text id="AG" transform="translate(1240.604 31.604)" fill="#fff" font-size="11" font-family="SegoeUI-Semibold, Segoe UI" font-weight="600"><tspan x="0" y="0">AG</tspan></text>
      </g>
    </g>
    <g id="Secondary_Button" data-name="Secondary Button" transform="translate(1628 9)">
      <g id="Rectangle_3991" data-name="Rectangle 3991" fill="none" stroke="#cbcbd2" stroke-width="1">
        <rect width="102" height="36" rx="18" stroke="none"/>
        <rect x="0.5" y="0.5" width="101" height="35" rx="17.5" fill="none"/>
      </g>
      <text id="Need_help_" data-name="Need help?" transform="translate(15 23)" fill="#2777d3" font-size="14" font-family="SegoeUI-Semibold, Segoe UI" font-weight="600"><tspan x="0" y="0">Need help?</tspan></text>
    </g>
    <g id="Component_41_1" data-name="Component 41 – 1" transform="translate(-238)">
      <g id="Rectangle_298" data-name="Rectangle 298" transform="translate(280 7)" fill="#fff" stroke="#cbcbd2" stroke-width="1">
        <rect width="550" height="42" rx="4" stroke="none"/>
        <rect x="0.5" y="0.5" width="549" height="41" rx="3.5" fill="none"/>
      </g>
      <text id="What_are_you_looking_for_" data-name="What are you looking for?" transform="translate(324 34)" fill="#cbcbd2" font-size="14" font-family="SegoeUI, Segoe UI"><tspan x="0" y="0">What are you looking for?</tspan></text>
      <path id="Path_101755" data-name="Path 101755" d="M303.8,258.3l-5-5a6.354,6.354,0,0,0,1.1-4.9,6.471,6.471,0,0,0-5.6-5.3,6.53,6.53,0,0,0-2,12.9,6.914,6.914,0,0,0,4.9-1.1l5,5a1.088,1.088,0,0,0,1.5,0A1.222,1.222,0,0,0,303.8,258.3Zm-14.7-9.5a4.458,4.458,0,0,1,3.7-3.7,4.57,4.57,0,0,1,5.2,5.2,4.458,4.458,0,0,1-3.7,3.7A4.609,4.609,0,0,1,289.1,248.8Z" transform="translate(7.776 -223.052)" fill="#4e92df"/>
      <g id="Global_Side-Nav" data-name="Global Side-Nav">
        <path id="Path_103525" data-name="Path 103525" d="M0,0H250V1552H0Z" fill="#f9f9fa"/>
        <g id="Settings" transform="translate(0 606.5)">
          <g id="Side_Nav_hover" data-name="Side Nav hover" transform="translate(5 8)">
            <rect id="Rectangle_4697" data-name="Rectangle 4697" width="240" height="36" rx="10" fill="none"/>
          </g>
          <text id="Settings-2" data-name="Settings" transform="translate(54 31)" fill="#606071" font-size="14" font-family="SegoeUI, Segoe UI"><tspan x="0" y="0">Settings</tspan></text>
          <rect id="Rectangle_3681" data-name="Rectangle 3681" width="249.5" height="46" transform="translate(0 3)" fill="none"/>
          <g id="Group_270683" data-name="Group 270683" transform="translate(18 16.5)">
            <g id="Group_270682" data-name="Group 270682" clip-path="url(#clip-path)">
              <path id="Path_103660" data-name="Path 103660" d="M19.6,7.51l-2.15-.42c-.04-.1-.08-.19-.12-.29l1.13-1.68a.711.711,0,0,0-.09-.89l-2.6-2.59a.684.684,0,0,0-.88-.09L13.21,2.68a2.239,2.239,0,0,0-.29-.12L12.53.57A.714.714,0,0,0,11.84,0H8.17a.7.7,0,0,0-.69.57L7.09,2.56a1.476,1.476,0,0,0-.29.12L4.98,1.46a.487.487,0,0,0-.63.06L1.52,4.35a.487.487,0,0,0-.06.63L2.68,6.8c-.05.1-.09.19-.13.29L.41,7.51A.51.51,0,0,0,0,8v4a.494.494,0,0,0,.41.49l2.14.43c.04.1.08.19.13.29L1.46,15.03a.488.488,0,0,0,.06.63l2.83,2.83a.5.5,0,0,0,.63.06L6.8,17.33c.09.04.19.08.29.12l.42,2.15A.5.5,0,0,0,8,20h4a.5.5,0,0,0,.49-.4l.43-2.15c.09-.04.19-.08.29-.12l1.81,1.22a.513.513,0,0,0,.64-.06l2.83-2.83a.5.5,0,0,0,.06-.63l-1.22-1.82c.04-.1.08-.19.12-.29l2.15-.43A.5.5,0,0,0,20,12V8a.511.511,0,0,0-.4-.49M19,11.59l-2.02.4a.531.531,0,0,0-.39.35,3.44,3.44,0,0,1-.28.66.488.488,0,0,0,.03.52l1.15,1.72-2.25,2.25-1.72-1.15a.534.534,0,0,0-.52-.03,3.487,3.487,0,0,1-.66.29.5.5,0,0,0-.35.38L11.59,19H8.41l-.4-2.02a.474.474,0,0,0-.34-.38A3.311,3.311,0,0,1,7,16.31a.49.49,0,0,0-.52.03L4.77,17.49,2.52,15.24l1.15-1.72A.509.509,0,0,0,3.69,13a4.214,4.214,0,0,1-.28-.66.5.5,0,0,0-.38-.35L1,11.59V8.41l2.03-.4a.474.474,0,0,0,.38-.34A4.768,4.768,0,0,1,3.69,7a.511.511,0,0,0-.02-.52L2.52,4.77,4.77,2.52,6.48,3.67A.511.511,0,0,0,7,3.69a4.319,4.319,0,0,1,.67-.28.474.474,0,0,0,.34-.38L8.41,1h3.18l.4,2.03a.5.5,0,0,0,.35.38,4.214,4.214,0,0,1,.66.28.509.509,0,0,0,.52-.02l1.72-1.15,2.25,2.25L16.34,6.48a.49.49,0,0,0-.03.52,2.8,2.8,0,0,1,.28.67.5.5,0,0,0,.39.34l2.02.4Z" fill="#616073"/>
              <path id="Path_103661" data-name="Path 103661" d="M16.59,12.34a.531.531,0,0,1,.39-.35l2.02-.4V8.41l-2.02-.4a.5.5,0,0,1-.39-.34A2.8,2.8,0,0,0,16.31,7a.49.49,0,0,1,.03-.52l1.15-1.71L15.24,2.52,13.52,3.67a.509.509,0,0,1-.52.02,4.214,4.214,0,0,0-.66-.28.5.5,0,0,1-.35-.38L11.59,1H8.41l-.4,2.03a.474.474,0,0,1-.34.38A4.319,4.319,0,0,0,7,3.69a.511.511,0,0,1-.52-.02L4.77,2.52,2.52,4.77,3.67,6.48A.511.511,0,0,1,3.69,7a4.768,4.768,0,0,0-.28.67.474.474,0,0,1-.38.34L1,8.41v3.18l2.03.4a.5.5,0,0,1,.38.35,4.214,4.214,0,0,0,.28.66.509.509,0,0,1-.02.52L2.52,15.24l2.25,2.25,1.71-1.15A.49.49,0,0,1,7,16.31a3.311,3.311,0,0,0,.67.29.474.474,0,0,1,.34.38L8.41,19h3.18l.4-2.02a.5.5,0,0,1,.35-.38,3.487,3.487,0,0,0,.66-.29.534.534,0,0,1,.52.03l1.72,1.15,2.25-2.25-1.15-1.72a.488.488,0,0,1-.03-.52,3.44,3.44,0,0,0,.28-.66m-4.47-.22A2.973,2.973,0,0,1,10,13a3.039,3.039,0,0,1-.73-.09A2.94,2.94,0,0,1,7.1,10.74,2.988,2.988,0,0,1,10.74,7.1a2.94,2.94,0,0,1,2.17,2.17,2.989,2.989,0,0,1-.79,2.85" fill="#e1e1e5"/>
              <path id="Path_103662" data-name="Path 103662" d="M12.91,9.27A2.94,2.94,0,0,0,10.74,7.1,2.988,2.988,0,0,0,7.1,10.74a2.94,2.94,0,0,0,2.17,2.17A3.039,3.039,0,0,0,10,13a3,3,0,0,0,2.91-3.73M9.5,11.94a1.959,1.959,0,0,1-1.43-1.43,2.011,2.011,0,0,1,.52-1.92A1.973,1.973,0,0,1,10,8.01a2.22,2.22,0,0,1,.51.06A1.959,1.959,0,0,1,11.94,9.5,1.991,1.991,0,0,1,10,12a2.136,2.136,0,0,1-.5-.06" fill="#616073"/>
            </g>
          </g>
        </g>
        <g id="All_tools" data-name="All tools" transform="translate(0 560.5)">
          <rect id="Rectangle_3681-2" data-name="Rectangle 3681" width="250" height="46" transform="translate(0 3)" fill="none"/>
          <g id="Side_Nav_hover-2" data-name="Side Nav hover" transform="translate(5 8)">
            <rect id="Rectangle_4697-2" data-name="Rectangle 4697" width="240" height="36" rx="10" fill="none"/>
          </g>
          <text id="All_tools-2" data-name="All tools" transform="translate(54 31)" fill="#606071" font-size="14" font-family="SegoeUI, Segoe UI"><tspan x="0" y="0">All tools</tspan></text>
          <g id="Group_270668" data-name="Group 270668" transform="translate(20 16.5)">
            <g id="Group_270667" data-name="Group 270667" clip-path="url(#clip-path-2)">
              <path id="Rectangle_11780" data-name="Rectangle 11780" d="M.5,0h5.73a.5.5,0,0,1,.5.5V6.231a.5.5,0,0,1-.5.5H.5a.5.5,0,0,1-.5-.5V.5A.5.5,0,0,1,.5,0Z" transform="translate(0.5 10.771)" fill="#e1e1e5"/>
              <path id="Path_103634" data-name="Path 103634" d="M6.727,11.272l0,5.728L1,17l0-5.73Zm0-1H1a1,1,0,0,0-1,1V17a1,1,0,0,0,1,1H6.729a1,1,0,0,0,1-1V11.27a1,1,0,0,0-1-1" fill="#616073"/>
              <path id="Rectangle_11781" data-name="Rectangle 11781" d="M.5,0H6.228a.5.5,0,0,1,.5.5V6.231a.5.5,0,0,1-.5.5H.5a.5.5,0,0,1-.5-.5V.5A.5.5,0,0,1,.5,0Z" transform="translate(10.772 10.771)" fill="#e1e1e5"/>
              <path id="Path_103635" data-name="Path 103635" d="M17,11.272,17,17l-5.73,0,0-5.73Zm0-1H11.27a1,1,0,0,0-1,1V17a1,1,0,0,0,1,1H17a1,1,0,0,0,1-1V11.27a1,1,0,0,0-1-1" fill="#616073"/>
              <path id="Rectangle_11782" data-name="Rectangle 11782" d="M.5,0H6.229a.5.5,0,0,1,.5.5V6.23a.5.5,0,0,1-.5.5H.5a.5.5,0,0,1-.5-.5V.5A.5.5,0,0,1,.5,0Z" transform="translate(10.772 0.5)" fill="#e1e1e5"/>
              <path id="Path_103636" data-name="Path 103636" d="M17,1l0,5.728-5.73,0,0-5.73Zm0-1H11.27a1,1,0,0,0-1,1V6.73a1,1,0,0,0,1,1H17a1,1,0,0,0,1-1V1a1,1,0,0,0-1-1" fill="#616073"/>
              <path id="Rectangle_11783" data-name="Rectangle 11783" d="M.5,0H6.229a.5.5,0,0,1,.5.5V6.23a.5.5,0,0,1-.5.5H.5a.5.5,0,0,1-.5-.5V.5A.5.5,0,0,1,.5,0Z" transform="translate(0.5 0.5)" fill="#e1e1e5"/>
              <path id="Path_103637" data-name="Path 103637" d="M6.727,1l0,5.728L1,6.73,1,1Zm0-1H1A1,1,0,0,0,0,1V6.73a1,1,0,0,0,1,1H6.729a1,1,0,0,0,1-1V1a1,1,0,0,0-1-1" fill="#616073"/>
            </g>
          </g>
        </g>
        <line id="Line_2621" data-name="Line 2621" x2="250" transform="translate(0 553.5)" fill="none" stroke="#e6e6ea" stroke-width="1"/>
        <g id="Reporting" transform="translate(1 485)">
          <g id="Side_Nav_hover-3" data-name="Side Nav hover" transform="translate(5 7)">
            <rect id="Rectangle_4697-3" data-name="Rectangle 4697" width="240" height="36" rx="10" fill="none"/>
          </g>
          <text id="Reporting_analytics" data-name="Reporting &amp; analytics" transform="translate(53 31)" fill="#606071" font-size="14" font-family="SegoeUI, Segoe UI"><tspan x="0" y="0">Reporting &amp; analytics</tspan></text>
          <rect id="Rectangle_3681-3" data-name="Rectangle 3681" width="249.5" height="46" transform="translate(0 2)" fill="none"/>
          <g id="Group_270681" data-name="Group 270681" transform="translate(21 15)">
            <g id="Group_270680" data-name="Group 270680" clip-path="url(#clip-path-3)">
              <path id="Path_103655" data-name="Path 103655" d="M15.3,19.5H.7a.2.2,0,0,1-.2-.2V.7A.2.2,0,0,1,.7.5H15.3a.2.2,0,0,1,.2.2V19.3a.2.2,0,0,1-.2.2" fill="#e1e1e5"/>
              <rect id="Rectangle_11802" data-name="Rectangle 11802" width="15" height="19" rx="0.2" transform="translate(0.5 0.5)" fill="none" stroke="#606072" stroke-linecap="round" stroke-linejoin="round" stroke-width="1"/>
              <path id="Path_103656" data-name="Path 103656" d="M11.72,6.28A3.72,3.72,0,1,1,8,2.56a3.72,3.72,0,0,1,3.72,3.72" fill="#fff"/>
              <circle id="Ellipse_2078" data-name="Ellipse 2078" cx="3.72" cy="3.72" r="3.72" transform="translate(4.28 2.56)" fill="none" stroke="#616073" stroke-miterlimit="10" stroke-width="1"/>
              <path id="Path_103657" data-name="Path 103657" d="M8,2.56V6.28l2.629,2.632" fill="#fff"/>
              <path id="Path_103658" data-name="Path 103658" d="M8,2.56V6.28l2.629,2.632" fill="none" stroke="#616073" stroke-miterlimit="10" stroke-width="1"/>
              <line id="Line_2651" data-name="Line 2651" x1="2.629" y2="2.632" transform="translate(8 3.648)" fill="#fff"/>
              <line id="Line_2652" data-name="Line 2652" x1="2.629" y2="2.632" transform="translate(8 3.648)" fill="none" stroke="#616073" stroke-miterlimit="10" stroke-width="1"/>
              <path id="Path_103659" data-name="Path 103659" d="M3.094,16.849l2.817-2.506,2.1,1.558,4.9-3.662" fill="none" stroke="#616073" stroke-linecap="round" stroke-linejoin="round" stroke-width="1"/>
            </g>
          </g>
        </g>
        <g id="Insights" transform="translate(1 438)">
          <g id="Side_Nav_hover-4" data-name="Side Nav hover" transform="translate(5 8)">
            <rect id="Rectangle_4697-4" data-name="Rectangle 4697" width="240" height="36" rx="10" fill="none"/>
          </g>
          <text id="Insights-2" data-name="Insights" transform="translate(53 31)" fill="#606071" font-size="14" font-family="SegoeUI, Segoe UI"><tspan x="0" y="0">Insights</tspan></text>
          <rect id="Rectangle_3681-4" data-name="Rectangle 3681" width="249.5" height="46" transform="translate(0 3)" fill="none"/>
          <g id="Group_270673" data-name="Group 270673" transform="translate(21 16)">
            <rect id="Rectangle_11785" data-name="Rectangle 11785" width="3.001" height="6.038" transform="translate(0.5 13.462)" fill="#e1e1e5"/>
            <g id="Group_270670" data-name="Group 270670">
              <g id="Group_270669" data-name="Group 270669" clip-path="url(#clip-path-4)">
                <rect id="Rectangle_11786" data-name="Rectangle 11786" width="3.002" height="6.039" transform="translate(0.5 13.461)" fill="none" stroke="#606072" stroke-linecap="round" stroke-linejoin="round" stroke-width="1"/>
                <rect id="Rectangle_11787" data-name="Rectangle 11787" width="3.002" height="12.078" transform="translate(6.505 7.422)" fill="none" stroke="#616073" stroke-linecap="round" stroke-linejoin="round" stroke-width="1"/>
              </g>
            </g>
            <rect id="Rectangle_11789" data-name="Rectangle 11789" width="3.002" height="19" transform="translate(12.509 0.5)" fill="#e1e1e5"/>
            <g id="Group_270672" data-name="Group 270672">
              <g id="Group_270671" data-name="Group 270671" clip-path="url(#clip-path-4)">
                <rect id="Rectangle_11790" data-name="Rectangle 11790" width="3.002" height="19" transform="translate(12.509 0.5)" fill="none" stroke="#606072" stroke-linecap="round" stroke-linejoin="round" stroke-width="1"/>
              </g>
            </g>
          </g>
        </g>
        <g id="Portal_management" data-name="Portal management" transform="translate(0 392)">
          <g id="Side_Nav_hover-5" data-name="Side Nav hover" transform="translate(5 8)">
            <rect id="Rectangle_4697-5" data-name="Rectangle 4697" width="240" height="36" rx="10" fill="none"/>
          </g>
          <text id="Portal_management-2" data-name="Portal management" transform="translate(54 31)" fill="#606071" font-size="14" font-family="SegoeUI, Segoe UI"><tspan x="0" y="0">Portal management</tspan></text>
          <rect id="Rectangle_3681-5" data-name="Rectangle 3681" width="249.5" height="46" transform="translate(0 3)" fill="none"/>
          <g id="Group_270662" data-name="Group 270662" transform="translate(21 16)">
            <g id="Group_270661" data-name="Group 270661" clip-path="url(#clip-path-6)">
              <path id="Path_103626" data-name="Path 103626" d="M15.255,8.475A4.68,4.68,0,0,1,10.194,9.5L3.6,16.1a1.814,1.814,0,0,1-2.566-2.566l6.6-6.6A4.671,4.671,0,0,1,13.39.727a.181.181,0,0,1,.067.3L11.387,3.1a.216.216,0,0,0-.06.19L11.7,5.3a.211.211,0,0,0,.175.172l1.969.324a.214.214,0,0,0,.186-.06L16.1,3.668a.181.181,0,0,1,.3.067,4.667,4.667,0,0,1-1.143,4.74" fill="#e1e1e5"/>
              <path id="Path_103627" data-name="Path 103627" d="M15.255,8.475A4.68,4.68,0,0,1,10.194,9.5L3.6,16.1a1.814,1.814,0,0,1-2.566-2.566l6.6-6.6A4.671,4.671,0,0,1,13.39.727a.181.181,0,0,1,.067.3L11.387,3.1a.216.216,0,0,0-.06.19L11.7,5.3a.211.211,0,0,0,.175.172l1.969.324a.214.214,0,0,0,.186-.06L16.1,3.668a.181.181,0,0,1,.3.067A4.667,4.667,0,0,1,15.255,8.475Z" fill="none" stroke="#606072" stroke-linecap="round" stroke-linejoin="round" stroke-width="1"/>
              <path id="Path_103628" data-name="Path 103628" d="M2.7,15.231a.573.573,0,1,1,0-.81.572.572,0,0,1,0,.81" fill="#616073"/>
            </g>
          </g>
        </g>
        <g id="Activities" transform="translate(0 346)">
          <g id="Side_Nav_hover-6" data-name="Side Nav hover" transform="translate(5 8)">
            <rect id="Rectangle_4697-6" data-name="Rectangle 4697" width="240" height="36" rx="10" fill="none"/>
          </g>
          <text id="Activities-2" data-name="Activities" transform="translate(54 31)" fill="#606071" font-size="14" font-family="SegoeUI, Segoe UI"><tspan x="0" y="0">Activities</tspan></text>
          <rect id="Rectangle_3681-6" data-name="Rectangle 3681" width="249.5" height="46" transform="translate(0 3)" fill="none"/>
          <g id="Group_270664" data-name="Group 270664" transform="translate(20 18)">
            <g id="Group_270663" data-name="Group 270663" clip-path="url(#clip-path-7)">
              <path id="Rectangle_11776" data-name="Rectangle 11776" d="M1.179,0H11.488a1.179,1.179,0,0,1,1.179,1.179v10.31a1.179,1.179,0,0,1-1.179,1.179H1.18A1.18,1.18,0,0,1,0,11.488V1.179A1.179,1.179,0,0,1,1.179,0Z" transform="translate(0.518 1.734)" fill="#e1e1e5"/>
              <path id="Path_103629" data-name="Path 103629" d="M12.006,2.252a.662.662,0,0,1,.661.662V13.222a.662.662,0,0,1-.661.662H1.7a.663.663,0,0,1-.661-.662V2.914A.663.663,0,0,1,1.7,2.252Zm0-1.036H1.7A1.7,1.7,0,0,0,0,2.914V13.222a1.7,1.7,0,0,0,1.7,1.7H12.006a1.7,1.7,0,0,0,1.7-1.7V2.914a1.7,1.7,0,0,0-1.7-1.7" fill="#616073"/>
              <path id="Path_103630" data-name="Path 103630" d="M3.263,7.476,6.892,11.1,17.463.534" fill="none" stroke="#616073" stroke-linecap="round" stroke-linejoin="round" stroke-width="1.067"/>
            </g>
          </g>
        </g>
        <g id="Marketing" transform="translate(0 301)">
          <g id="Side_Nav_hover-7" data-name="Side Nav hover" transform="translate(5 7)">
            <rect id="Rectangle_4697-7" data-name="Rectangle 4697" width="240" height="36" rx="10" fill="none"/>
          </g>
          <text id="Email_marketing_" data-name="Email marketing " transform="translate(54 31)" fill="#606071" font-size="14" font-family="SegoeUI, Segoe UI"><tspan x="0" y="0">Email marketing </tspan></text>
          <rect id="Rectangle_3681-7" data-name="Rectangle 3681" width="249.5" height="46" transform="translate(0 2)" fill="none"/>
          <g id="Group_270653" data-name="Group 270653" transform="translate(19 17)">
            <g id="Group_270652" data-name="Group 270652" clip-path="url(#clip-path-8)">
              <path id="Path_103619" data-name="Path 103619" d="M19.01.85V14.78a.338.338,0,0,1-.51.3l-1.73-1.51a8.784,8.784,0,0,0-3.67-1.93,22.053,22.053,0,0,0-4.98-.4H1.57A1.233,1.233,0,0,1,.5,9.89V5.74A1.233,1.233,0,0,1,1.57,4.39H8.12a23.252,23.252,0,0,0,4.6-.32,8.9,8.9,0,0,0,4.06-2.02L18.5.55a.338.338,0,0,1,.51.3" fill="#e1e1e5"/>
              <path id="Path_103620" data-name="Path 103620" d="M19.01.85V14.78a.338.338,0,0,1-.51.3l-1.73-1.51a8.784,8.784,0,0,0-3.67-1.93,22.053,22.053,0,0,0-4.98-.4H1.57A1.233,1.233,0,0,1,.5,9.89V5.74A1.233,1.233,0,0,1,1.57,4.39H8.12a23.252,23.252,0,0,0,4.6-.32,8.9,8.9,0,0,0,4.06-2.02L18.5.55A.338.338,0,0,1,19.01.85Z" fill="none" stroke="#606072" stroke-linecap="round" stroke-linejoin="round" stroke-width="1"/>
              <line id="Line_2647" data-name="Line 2647" y2="6.514" transform="translate(9.728 4.558)" fill="none" stroke="#606072" stroke-linecap="round" stroke-linejoin="round" stroke-width="1"/>
              <path id="Path_103621" data-name="Path 103621" d="M19.013,8.9a1.087,1.087,0,0,0,0-2.171" fill="#606072"/>
              <path id="Path_103622" data-name="Path 103622" d="M19.013,8.9a1.087,1.087,0,0,0,0-2.171" fill="none" stroke="#606072" stroke-linecap="round" stroke-linejoin="round" stroke-width="1"/>
              <path id="Path_103623" data-name="Path 103623" d="M7.556,11.24v.891a8.765,8.765,0,0,0,.635,3.253l.153.376a.539.539,0,0,1-.5.74H4.12a.541.541,0,0,1-.5-.337l-.314-.779a8.765,8.765,0,0,1-.635-3.253V11.24" fill="none" stroke="#606072" stroke-linecap="round" stroke-linejoin="round" stroke-width="1"/>
            </g>
          </g>
        </g>
        <g id="Benefits_quoting" data-name="Benefits quoting" transform="translate(0 254)">
          <g id="Side_Nav_hover-8" data-name="Side Nav hover" transform="translate(5 8)">
            <rect id="Rectangle_4697-8" data-name="Rectangle 4697" width="240" height="36" rx="10" fill="none"/>
          </g>
          <text id="Quoting" transform="translate(54 31)" fill="#606071" font-size="14" font-family="SegoeUI, Segoe UI"><tspan x="0" y="0">Quoting</tspan></text>
          <rect id="Rectangle_3681-8" data-name="Rectangle 3681" width="249.5" height="46" transform="translate(0 3)" fill="none"/>
          <g id="Group_270679" data-name="Group 270679" transform="translate(19.52 18.77)">
            <g id="Group_270678" data-name="Group 270678" clip-path="url(#clip-path-9)">
              <path id="Path_103648" data-name="Path 103648" d="M18.96,0H1A1,1,0,0,0,0,1V13.46a.99.99,0,0,0,1,1H18.96a1,1,0,0,0,1-1V1a1,1,0,0,0-1-1M1,1H3.46A2.481,2.481,0,0,1,1,3.41ZM1,13.46V11.03a2.485,2.485,0,0,1,2.46,2.43Zm17.96,0H16.51a2.483,2.483,0,0,1,2.45-2.43Zm0-3.43a3.486,3.486,0,0,0-3.45,3.43H4.46A3.488,3.488,0,0,0,1,10.03V4.41A3.49,3.49,0,0,0,4.46,1H15.51a3.488,3.488,0,0,0,3.45,3.41Zm0-6.62A2.486,2.486,0,0,1,16.51,1h2.45Z" fill="#616073"/>
              <path id="Path_103649" data-name="Path 103649" d="M15.51,1H4.46A3.49,3.49,0,0,1,1,4.41v5.62a3.488,3.488,0,0,1,3.46,3.43H15.51a3.486,3.486,0,0,1,3.45-3.43V4.41A3.488,3.488,0,0,1,15.51,1M11.4,9.98a1.92,1.92,0,0,1-.74.44l-.16.05v.82a.516.516,0,0,1-.52.52.525.525,0,0,1-.53-.52v-.82l-.15-.05a2.132,2.132,0,0,1-.58-.3,1.93,1.93,0,0,1-.73-1.08.536.536,0,0,1,.06-.39.544.544,0,0,1,.33-.24A.487.487,0,0,1,8.5,8.4a.492.492,0,0,1,.5.4.888.888,0,0,0,.34.48,1.237,1.237,0,0,0,.64.2,1.023,1.023,0,0,0,.71-.26.779.779,0,0,0,.28-.6.8.8,0,0,0-.27-.6,1.084,1.084,0,0,0-.7-.26H9.97a2.14,2.14,0,0,1-1.42-.55,1.8,1.8,0,0,1-.61-1.36,1.842,1.842,0,0,1,.61-1.37,2.159,2.159,0,0,1,.75-.43L9.45,4V3.18a.525.525,0,0,1,.53-.52.516.516,0,0,1,.52.52V4l.16.05a2.132,2.132,0,0,1,.58.3,1.907,1.907,0,0,1,.73,1.07.554.554,0,0,1-.06.4.53.53,0,0,1-.96-.16.892.892,0,0,0-.33-.48,1.048,1.048,0,0,0-.64-.19,1.018,1.018,0,0,0-.72.26.788.788,0,0,0-.27.6.767.767,0,0,0,.27.59,1.081,1.081,0,0,0,.71.27h.02a2.15,2.15,0,0,1,1.42.54,1.842,1.842,0,0,1,.61,1.37,1.8,1.8,0,0,1-.62,1.36" fill="#e1e1e5"/>
              <path id="Path_103650" data-name="Path 103650" d="M18.96,11.03v2.43H16.51a2.483,2.483,0,0,1,2.45-2.43" fill="#fff"/>
              <path id="Path_103651" data-name="Path 103651" d="M18.96,1V3.41A2.486,2.486,0,0,1,16.51,1Z" fill="#fff"/>
              <path id="Path_103652" data-name="Path 103652" d="M3.46,1A2.481,2.481,0,0,1,1,3.41V1Z" fill="#fff"/>
              <path id="Path_103653" data-name="Path 103653" d="M3.46,13.46H1V11.03a2.485,2.485,0,0,1,2.46,2.43" fill="#fff"/>
              <path id="Path_103654" data-name="Path 103654" d="M12.02,8.62a1.8,1.8,0,0,1-.62,1.36,1.92,1.92,0,0,1-.74.44l-.16.05v.82a.516.516,0,0,1-.52.52.525.525,0,0,1-.53-.52v-.82l-.15-.05a2.132,2.132,0,0,1-.58-.3,1.93,1.93,0,0,1-.73-1.08.536.536,0,0,1,.06-.39.544.544,0,0,1,.33-.24A.487.487,0,0,1,8.5,8.4a.492.492,0,0,1,.5.4.888.888,0,0,0,.34.48,1.237,1.237,0,0,0,.64.2,1.023,1.023,0,0,0,.71-.26.779.779,0,0,0,.28-.6.8.8,0,0,0-.27-.6,1.084,1.084,0,0,0-.7-.26H9.97a2.14,2.14,0,0,1-1.42-.55,1.8,1.8,0,0,1-.61-1.36,1.842,1.842,0,0,1,.61-1.37,2.159,2.159,0,0,1,.75-.43L9.45,4V3.18a.525.525,0,0,1,.53-.52.516.516,0,0,1,.52.52V4l.16.05a2.132,2.132,0,0,1,.58.3,1.907,1.907,0,0,1,.73,1.07.554.554,0,0,1-.06.4.53.53,0,0,1-.96-.16.892.892,0,0,0-.33-.48,1.048,1.048,0,0,0-.64-.19,1.018,1.018,0,0,0-.72.26.788.788,0,0,0-.27.6.767.767,0,0,0,.27.59,1.081,1.081,0,0,0,.71.27h.02a2.15,2.15,0,0,1,1.42.54,1.842,1.842,0,0,1,.61,1.37" fill="#616073" fill-rule="evenodd"/>
            </g>
          </g>
        </g>
        <g id="Leads" transform="translate(0 209)">
          <g id="Side_Nav_hover-9" data-name="Side Nav hover" transform="translate(5 7)">
            <rect id="Rectangle_4697-9" data-name="Rectangle 4697" width="240" height="36" rx="10" fill="none"/>
          </g>
          <text id="Leads-2" data-name="Leads" transform="translate(54 31)" fill="#606071" font-size="14" font-family="SegoeUI, Segoe UI"><tspan x="0" y="0">Leads</tspan></text>
          <rect id="Rectangle_3681-9" data-name="Rectangle 3681" width="249.5" height="46" transform="translate(0 2)" fill="none"/>
          <g id="Group_270651" data-name="Group 270651" transform="translate(19 15.5)">
            <g id="Group_270650" data-name="Group 270650" clip-path="url(#clip-path)">
              <path id="Path_103616" data-name="Path 103616" d="M19.524,10.012A9.512,9.512,0,1,1,10.012.5a9.512,9.512,0,0,1,9.512,9.512" transform="translate(-0.012 -0.012)" fill="#e1e1e5"/>
              <circle id="Ellipse_2073" data-name="Ellipse 2073" cx="9.512" cy="9.512" r="9.512" transform="translate(0.488 0.488)" fill="none" stroke="#606072" stroke-linecap="round" stroke-linejoin="round" stroke-width="1"/>
              <path id="Path_103617" data-name="Path 103617" d="M15.957,10.1A5.854,5.854,0,1,1,10.1,4.25,5.853,5.853,0,0,1,15.957,10.1" transform="translate(-0.104 -0.104)" fill="#fff"/>
              <circle id="Ellipse_2074" data-name="Ellipse 2074" cx="5.854" cy="5.854" r="5.854" transform="translate(4.146 4.146)" fill="none" stroke="#606072" stroke-linecap="round" stroke-linejoin="round" stroke-width="1"/>
              <path id="Path_103618" data-name="Path 103618" d="M12.152,10.2A1.951,1.951,0,1,1,10.2,8.25,1.951,1.951,0,0,1,12.152,10.2" transform="translate(-0.201 -0.201)" fill="#e1e1e5"/>
              <circle id="Ellipse_2075" data-name="Ellipse 2075" cx="1.951" cy="1.951" r="1.951" transform="translate(8.049 8.049)" fill="none" stroke="#606072" stroke-miterlimit="10" stroke-width="1"/>
            </g>
          </g>
        </g>
        <g id="Content_resources" data-name="Content &amp; resources" transform="translate(0 162)">
          <g id="Side_Nav_hover-10" data-name="Side Nav hover" transform="translate(5 8)">
            <rect id="Rectangle_4697-10" data-name="Rectangle 4697" width="240" height="36" rx="10" fill="none"/>
          </g>
          <text id="Content_resources-2" data-name="Content &amp; resources" transform="translate(54 31)" fill="#606071" font-size="14" font-family="SegoeUI, Segoe UI"><tspan x="0" y="0">Content &amp; resources</tspan></text>
          <rect id="Rectangle_3681-10" data-name="Rectangle 3681" width="249.5" height="46" transform="translate(0 3)" fill="none"/>
          <g id="Group_270649" data-name="Group 270649" transform="translate(21 15.03)">
            <g id="Group_270648" data-name="Group 270648" clip-path="url(#clip-path-11)">
              <path id="Path_103614" data-name="Path 103614" d="M15.5,4.93V19.27a.2.2,0,0,1-.2.2H.7a.2.2,0,0,1-.2-.2V.7A.194.194,0,0,1,.7.5H10.88m0,0V4.73a.194.194,0,0,0,.2.2H15.5M10.88.5,15.5,4.93" fill="#e1e1e5"/>
              <path id="Path_103615" data-name="Path 103615" d="M15.5,4.93V19.27a.2.2,0,0,1-.2.2H.7a.2.2,0,0,1-.2-.2V.7A.194.194,0,0,1,.7.5H10.88m0,0V4.73a.194.194,0,0,0,.2.2H15.5M10.88.5,15.5,4.93" fill="none" stroke="#606072" stroke-linecap="round" stroke-linejoin="round" stroke-width="1"/>
              <line id="Line_2643" data-name="Line 2643" x2="9.855" transform="translate(3.068 9.468)" fill="none" stroke="#616073" stroke-linecap="round" stroke-miterlimit="10" stroke-width="1"/>
              <line id="Line_2644" data-name="Line 2644" x2="9.855" transform="translate(3.068 11.787)" fill="none" stroke="#616073" stroke-linecap="round" stroke-miterlimit="10" stroke-width="1"/>
              <line id="Line_2645" data-name="Line 2645" x2="9.855" transform="translate(3.068 14.106)" fill="none" stroke="#616073" stroke-linecap="round" stroke-miterlimit="10" stroke-width="1"/>
              <line id="Line_2646" data-name="Line 2646" x2="9.855" transform="translate(3.068 16.425)" fill="none" stroke="#616073" stroke-linecap="round" stroke-miterlimit="10" stroke-width="1"/>
            </g>
          </g>
        </g>
        <g id="Account_management" data-name="Account management" transform="translate(0 121)">
          <g id="Side_Nav_hover-11" data-name="Side Nav hover" transform="translate(5 3)">
            <rect id="Rectangle_4697-11" data-name="Rectangle 4697" width="239.5" height="36" rx="10" fill="none"/>
          </g>
          <text id="Account_management-2" data-name="Account management" transform="translate(53.767 26.871)" fill="#606071" font-size="14" font-family="SegoeUI, Segoe UI"><tspan x="0" y="0">Account management</tspan></text>
          <rect id="Rectangle_3681-11" data-name="Rectangle 3681" width="249" height="46" transform="translate(0 -2)" fill="none"/>
          <g id="Group_270666" data-name="Group 270666" transform="translate(19 13)">
            <g id="Group_270665" data-name="Group 270665" clip-path="url(#clip-path-12)">
              <rect id="Rectangle_11778" data-name="Rectangle 11778" width="19" height="15" rx="1.21" transform="translate(0.5 0.5)" fill="#e1e1e5"/>
              <path id="Path_103631" data-name="Path 103631" d="M18.29,1a.711.711,0,0,1,.71.71V14.29a.711.711,0,0,1-.71.71H1.71A.711.711,0,0,1,1,14.29V1.71A.71.71,0,0,1,1.71,1Zm0-1H1.71A1.711,1.711,0,0,0,0,1.71V14.29A1.711,1.711,0,0,0,1.71,16H18.29A1.711,1.711,0,0,0,20,14.29V1.71A1.711,1.711,0,0,0,18.29,0" fill="#606072"/>
              <line id="Line_2648" data-name="Line 2648" x2="5" transform="translate(11.795 4.604)" fill="none" stroke="#606072" stroke-linecap="round" stroke-miterlimit="10" stroke-width="1"/>
              <line id="Line_2649" data-name="Line 2649" x2="5" transform="translate(11.795 8)" fill="none" stroke="#606072" stroke-linecap="round" stroke-miterlimit="10" stroke-width="1"/>
              <line id="Line_2650" data-name="Line 2650" x2="5" transform="translate(11.795 11.604)" fill="none" stroke="#606072" stroke-linecap="round" stroke-miterlimit="10" stroke-width="1"/>
              <path id="Path_103632" data-name="Path 103632" d="M6.025,4.856a.967.967,0,1,1-.967.967.968.968,0,0,1,.967-.967m0-1A1.967,1.967,0,1,0,7.992,5.823,1.967,1.967,0,0,0,6.025,3.856" fill="#606072"/>
              <path id="Path_103633" data-name="Path 103633" d="M3.2,11.6v-.992a2.822,2.822,0,1,1,5.644,0V11.6" fill="none" stroke="#606072" stroke-linecap="round" stroke-miterlimit="10" stroke-width="1"/>
            </g>
          </g>
        </g>
        <g id="Home_Dashboard" data-name="Home Dashboard" transform="translate(0 75)">
          <g id="Side_Nav_hover-12" data-name="Side Nav hover" transform="translate(5 3)">
            <rect id="Rectangle_4697-12" data-name="Rectangle 4697" width="240" height="36" rx="10" fill="none"/>
          </g>
          <text id="Dashboard" transform="translate(54 27)" fill="#2777d3" font-size="14" font-family="SegoeUI-Semibold, Segoe UI" font-weight="600"><tspan x="0" y="0">Dashboard</tspan></text>
          <rect id="Rectangle_3681-12" data-name="Rectangle 3681" width="249.5" height="46" transform="translate(0 -2)" fill="none"/>
          <g id="Group_270647" data-name="Group 270647" transform="translate(19 14)">
            <g id="Group_270646" data-name="Group 270646" clip-path="url(#clip-path-13)">
              <path id="Path_103611" data-name="Path 103611" d="M16.16,9.97a.5.5,0,0,1,.5-.5h2.29A8.97,8.97,0,0,0,16.68,4L15.02,5.66a.46.46,0,0,1-.35.14.475.475,0,0,1-.35-.14.5.5,0,0,1,0-.71l1.66-1.66a9.092,9.092,0,0,0-5.51-2.28V3.25a.5.5,0,0,1-.5.5.508.508,0,0,1-.5-.5V1.01A9.016,9.016,0,0,0,4.01,3.27L5.56,4.83a.5.5,0,0,1-.7.71L3.3,3.98A8.988,8.988,0,0,0,1.01,9.47H3.36a.5.5,0,0,1,.5.5.5.5,0,0,1-.5.5H1.01a9,9,0,0,0,.92,3.49h16.1a9,9,0,0,0,.92-3.49H16.66a.5.5,0,0,1-.5-.5M12.79,7.9,11.11,9.58a1,1,0,0,1,.07.39,1.205,1.205,0,1,1-1.2-1.21,1.33,1.33,0,0,1,.45.08l1.65-1.65a.5.5,0,1,1,.71.71" fill="#ccdef0"/>
              <path id="Path_103612" data-name="Path 103612" d="M9.98,0A9.982,9.982,0,0,0,1.33,14.96h17.3A9.982,9.982,0,0,0,9.98,0m8.05,13.96H1.93a9,9,0,0,1-.92-3.49H3.36a.5.5,0,0,0,.5-.5.5.5,0,0,0-.5-.5H1.01A8.988,8.988,0,0,1,3.3,3.98L4.86,5.54a.5.5,0,0,0,.7-.71L4.01,3.27A9.016,9.016,0,0,1,9.47,1.01V3.25a.508.508,0,0,0,.5.5.5.5,0,0,0,.5-.5V1.01a9.092,9.092,0,0,1,5.51,2.28L14.32,4.95a.5.5,0,0,0,0,.71.475.475,0,0,0,.35.14.46.46,0,0,0,.35-.14L16.68,4a8.97,8.97,0,0,1,2.27,5.47H16.66a.5.5,0,0,0-.5.5.5.5,0,0,0,.5.5h2.29a9,9,0,0,1-.92,3.49" fill="#3b75b7"/>
              <path id="Path_103613" data-name="Path 103613" d="M12.79,7.9,11.11,9.58a1,1,0,0,1,.07.39,1.205,1.205,0,1,1-1.2-1.21,1.33,1.33,0,0,1,.45.08l1.65-1.65a.5.5,0,1,1,.71.71" fill="#3b75b7"/>
            </g>
          </g>
        </g>
        <g id="Zywave_logo" data-name="Zywave logo" transform="translate(73 21)">
          <g id="Group_6" data-name="Group 6">
            <path id="Path_467" data-name="Path 467" d="M439.578,0,433.8,12.775,428.01,0H425.7l8.1,17.9L441.9,0Z" transform="translate(-351.203)" fill="#0f2d52"/>
            <path id="Path_468" data-name="Path 468" d="M342.435,17.9h2.327L336.678,0h-.893L327.7,17.9h2.328l1.768-3.955h8.872Zm-9.7-6.055,3.483-7.683,3.482,7.683Z" transform="translate(-270.352)" fill="#0f2d52"/>
            <path id="Path_469" data-name="Path 469" d="M543.518,9.66h6.44V7.56h-6.44V2.1h7l1.12-2.1H541.4V17.9h9.135l1.12-2.153h-8.137Z" transform="translate(-446.655)" fill="#0f2d52"/>
            <path id="Path_470" data-name="Path 470" d="M183.852,0l-5.74,12.775L172.985,1.558l-5.093,11.218L162.345,0H158.9l-3.1,6.843L156.955,9.4l3.553-7.84L167.892,17.9l5.093-11.235L178.112,17.9,186.163,0Z" transform="translate(-128.535)" fill="#0f2d52"/>
            <path id="Path_471" data-name="Path 471" d="M3.885,15.768,14.14,0H1.715L.753,2.1h9.5L0,17.868H14.123l.945-2.1Z" fill="#0f2d52"/>
          </g>
          <path id="Path_472" data-name="Path 472" d="M103.1,0H98.5l5.18,11.5L98.5,22.978h4.6l5.215-11.48Z" transform="translate(-81.262)" fill="#5fb53b"/>
        </g>
      </g>
      <rect id="Rectangle_11805" data-name="Rectangle 11805" width="40" height="1080" transform="translate(208)" fill="none"/>
      <line id="Line_2673" data-name="Line 2673" x2="1920" transform="translate(238 55)" fill="none" stroke="#e6e6ea" stroke-width="1"/>
      <g id="Expand_collapse" data-name="Expand/collapse" transform="translate(242 47)">
        <g id="Ellipse_403" data-name="Ellipse 403" fill="#f9f9fa" stroke="#cbcbd2" stroke-width="1">
          <circle cx="8" cy="8" r="8" stroke="none"/>
          <circle cx="8" cy="8" r="7.5" fill="none"/>
        </g>
        <g id="Chevron_left" data-name="Chevron left" transform="translate(0.813 1.188)">
          <g id="Group_264142" data-name="Group 264142">
            <path id="Path_101149" data-name="Path 101149" d="M3.94,10.811l1.116,1.116a.252.252,0,0,0,.356,0L9.86,7.5a.252.252,0,0,0,0-.356L5.412,2.74a.252.252,0,0,0-.356,0L3.94,3.856a.252.252,0,0,0,0,.356L7.094,7.321,3.94,10.454A.252.252,0,0,0,3.94,10.811Z" transform="translate(0.683 -0.333)" fill="#606071"/>
            <rect id="Rectangle_9755" data-name="Rectangle 9755" width="14" height="14" fill="none"/>
          </g>
        </g>
      </g>
    </g>
    <g id="Group_270722" data-name="Group 270722" transform="translate(6)">
      <g id="Indeterminate_Progress_Bar_3" data-name="Indeterminate Progress Bar – 3" transform="translate(786 705)">
        <g id="Group_7631" data-name="Group 7631" transform="translate(-157.5 -319.2)">
          <g id="Group_7630" data-name="Group 7630" transform="translate(-103 3)">
            <rect id="Rectangle_3754" data-name="Rectangle 3754" width="350" height="3.5" rx="1.75" transform="translate(260.5 316.2)" fill="#cbcbd2"/>
            <rect id="Rectangle_11853" data-name="Rectangle 11853" width="111" height="3.5" rx="1.75" transform="translate(320.5 316.2)" fill="#2777d3"/>
          </g>
        </g>
      </g>
      <g id="quote-loading" transform="translate(757 316)">
        <path id="Path_101231" data-name="Path 101231" d="M350.53,31.08C316.7-6.28,257.32-10.56,217.92,21.51a91.14,91.14,0,0,0-13.22,13.2,17.93,17.93,0,0,1-21,4.7C128.58,15.24,63.26,38,37.76,90.17S36.24,204.3,91.32,228.47a111.513,111.513,0,0,0,13.1,4.81A86.42,86.42,0,0,1,142.82,257l.58.62c33.15,34.6,89.62,37.17,126.12,5.75,21.93-18.87,32.55-46.81,28.37-74.6a13,13,0,0,1,9.4-14.33c49.63-14.8,77.21-64.92,61.6-112a88.159,88.159,0,0,0-18.36-31.35Z" fill="#f9f9fa"/>
        <path id="Path_101232" data-name="Path 101232" d="M191.13,29.12a9.75,9.75,0,0,0,10-9.48,10,10,0,0,0-20,0,9.76,9.76,0,0,0,10,9.48Zm0-17.53a8.28,8.28,0,0,1,8.49,8.05,8.5,8.5,0,1,1-17,0,8.27,8.27,0,0,1,8.49-8Z" fill="#f4f4f6"/>
        <path id="Path_101233" data-name="Path 101233" d="M177.19,10.86a5.26,5.26,0,0,0,5.39-5.1,5.39,5.39,0,0,0-10.77,0,5.24,5.24,0,0,0,5.38,5.1Zm0-8.76a3.76,3.76,0,0,1,3.86,3.66,3.87,3.87,0,0,1-7.73,0A3.77,3.77,0,0,1,177.19,2.1Z" fill="#f4f4f6"/>
        <path id="Path_101234" data-name="Path 101234" d="M319.8,186.51a9.5,9.5,0,1,0,10,9.49h0a9.76,9.76,0,0,0-10-9.49Zm0,17.53a8.06,8.06,0,1,1,8.49-8h0a8.27,8.27,0,0,1-8.49,8Z" fill="#f4f4f6"/>
        <path id="Path_101235" data-name="Path 101235" d="M19.37,177.78a9.5,9.5,0,1,0,9.5,9.5,9.5,9.5,0,0,0-9.5-9.5Zm0,17.53a8.06,8.06,0,1,1,0-16.09,8.28,8.28,0,0,1,8.49,8.05h0a8.28,8.28,0,0,1-8.49,8Z" fill="#f4f4f6"/>
        <path id="Path_101236" data-name="Path 101236" d="M330,176a5.11,5.11,0,1,0,5.38,5.11A5.25,5.25,0,0,0,330,176Zm0,8.77a3.67,3.67,0,1,1,3.87-3.66h0a3.77,3.77,0,0,1-3.87,3.65Z" fill="#f4f4f6"/>
        <path id="Path_101237" data-name="Path 101237" d="M360.46,24.83a5.26,5.26,0,0,0,5.39-5.1,5.4,5.4,0,0,0-10.78,0,5.25,5.25,0,0,0,5.39,5.1Zm0-8.77a3.77,3.77,0,0,1,3.87,3.67,3.87,3.87,0,0,1-7.73,0h0a3.78,3.78,0,0,1,3.86-3.67Z" fill="#f4f4f6"/>
        <path id="Path_101238" data-name="Path 101238" d="M114.89,240.73a5.11,5.11,0,1,0,5.38,5.11,5.25,5.25,0,0,0-5.38-5.11Zm0,8.77a3.67,3.67,0,1,1,3.87-3.67h0a3.78,3.78,0,0,1-3.88,3.67Z" fill="#f4f4f6"/>
        <path id="Path_101239" data-name="Path 101239" d="M362.71,299Z" fill="#f1f1f3"/>
        <path id="Path_101240" data-name="Path 101240" d="M362.9,298.87v.09h-.15Z" fill="#f1f1f3"/>
        <path id="Path_101241" data-name="Path 101241" d="M362.71,299Z" fill="#f1f1f3"/>
        <path id="Path_101242" data-name="Path 101242" d="M362.9,298.87v.09h-.15Z" fill="#f1f1f3"/>
        <path id="Path_101243" data-name="Path 101243" d="M362.9,298.87v.09h-.15Z" fill="#f1f1f3"/>
        <path id="Path_101244" data-name="Path 101244" d="M362.9,298.87v.09h-.25l-.08-.07h.1Z" fill="#f1f1f3"/>
        <path id="Path_101245" data-name="Path 101245" d="M362.65,299h0l-.08-.07h.1Z" fill="#f1f1f3"/>
        <path id="Path_101246" data-name="Path 101246" d="M362.86,299h-.25l-.08-.07h.1l.19-.09Z" fill="#f1f1f3"/>
        <path id="Path_101247" data-name="Path 101247" d="M382.06,277.18s-1.25,9.49-4.53,12.77c-3,3-8.15,1.23-8.95.92h0v-.06l-.13.06h-.02c-.85.32-5.92,2.08-8.92-.93-3.29-3.28-4.54-12.77-4.54-12.77a48,48,0,0,1,6,1.29,43,43,0,0,1,1.24-4.47s1.41.83,3.15,2.1a46.993,46.993,0,0,1,3-4.5,48.532,48.532,0,0,1,3,4.52c1.76-1.28,3.18-2.12,3.18-2.12a42.626,42.626,0,0,1,1.27,4.53A48.414,48.414,0,0,1,382.06,277.18Z" fill="#f1f1f3"/>
        <ellipse id="Ellipse_3466" data-name="Ellipse 3466" cx="13.88" cy="2.2" rx="13.88" ry="2.2" transform="translate(354.46 288.62)" fill="#cbcbd2"/>
        <rect id="Rectangle_9934" data-name="Rectangle 9934" width="151.15" height="240.51" transform="translate(17.37 29.04)" fill="#e6e6ea"/>
        <rect id="Rectangle_9935" data-name="Rectangle 9935" width="31.15" height="18.38" transform="translate(31.13 44.87)" fill="#cbcbd2"/>
        <rect id="Rectangle_9936" data-name="Rectangle 9936" width="31.15" height="18.38" transform="translate(76.58 44.87)" fill="#cbcbd2"/>
        <rect id="Rectangle_9937" data-name="Rectangle 9937" width="31.15" height="18.38" transform="translate(122.02 44.87)" fill="#cbcbd2"/>
        <rect id="Rectangle_9938" data-name="Rectangle 9938" width="31.15" height="18.38" transform="translate(31.13 74.87)" fill="#cbcbd2"/>
        <rect id="Rectangle_9939" data-name="Rectangle 9939" width="31.15" height="18.38" transform="translate(76.58 74.87)" fill="#cbcbd2"/>
        <rect id="Rectangle_9940" data-name="Rectangle 9940" width="31.15" height="18.38" transform="translate(122.02 74.87)" fill="#cbcbd2"/>
        <rect id="Rectangle_9941" data-name="Rectangle 9941" width="31.15" height="18.38" transform="translate(31.13 104.87)" fill="#cbcbd2"/>
        <rect id="Rectangle_9942" data-name="Rectangle 9942" width="31.15" height="18.38" transform="translate(76.58 104.87)" fill="#cbcbd2"/>
        <rect id="Rectangle_9943" data-name="Rectangle 9943" width="31.15" height="18.38" transform="translate(122.02 104.87)" fill="#cbcbd2"/>
        <rect id="Rectangle_9944" data-name="Rectangle 9944" width="31.15" height="18.38" transform="translate(31.13 134.87)" fill="#cbcbd2"/>
        <rect id="Rectangle_9945" data-name="Rectangle 9945" width="31.15" height="18.38" transform="translate(76.58 134.87)" fill="#cbcbd2"/>
        <rect id="Rectangle_9946" data-name="Rectangle 9946" width="31.15" height="18.38" transform="translate(122.02 134.87)" fill="#cbcbd2"/>
        <rect id="Rectangle_9947" data-name="Rectangle 9947" width="31.15" height="18.38" transform="translate(31.13 164.87)" fill="#cbcbd2"/>
        <rect id="Rectangle_9948" data-name="Rectangle 9948" width="31.15" height="18.38" transform="translate(76.58 164.87)" fill="#cbcbd2"/>
        <rect id="Rectangle_9949" data-name="Rectangle 9949" width="31.15" height="18.38" transform="translate(122.02 164.87)" fill="#cbcbd2"/>
        <rect id="Rectangle_9950" data-name="Rectangle 9950" width="31.15" height="18.38" transform="translate(31.13 194.87)" fill="#cbcbd2"/>
        <rect id="Rectangle_9951" data-name="Rectangle 9951" width="31.15" height="18.38" transform="translate(76.58 194.87)" fill="#cbcbd2"/>
        <rect id="Rectangle_9952" data-name="Rectangle 9952" width="31.15" height="18.38" transform="translate(122.02 194.87)" fill="#cbcbd2"/>
        <path id="Path_101248" data-name="Path 101248" d="M369.1,167.37c0,38.74-23,52.26-51.44,52.26h-2L315.12,255h-5.21l1.87-35.55c-25.64-1.81-45.56-16-45.56-52.06,0-37.27,47.59-84.28,51.22-87.82h0l.21-.2S369.1,128.62,369.1,167.37Z" fill="#e6e6ea"/>
        <path id="Path_101249" data-name="Path 101249" d="M407.42,202.14c0,24-14.29,32.44-31.92,32.44h-1.22l-.36,21.95H370.7l1.15-22.06c-15.91-1.13-28.27-9.95-28.27-32.31,0-23.13,29.53-52.3,31.79-54.5h0l.13-.13S407.42,178.1,407.42,202.14Z" fill="#e6e6ea"/>
        <path id="Path_101250" data-name="Path 101250" d="M48.41,251.27c0,15.32-10.08,20.67-22.52,20.67H25l-.25,14H22.5l.82-14.06c-11.23-.72-19.94-6.34-19.94-20.59,0-14.74,20.83-33.34,22.42-34.74h0l.09-.08S48.41,235.94,48.41,251.27Z" fill="#cbcbd2"/>
        <ellipse id="Ellipse_3467" data-name="Ellipse 3467" cx="23.89" cy="3.43" rx="23.89" ry="3.43" transform="translate(0 280.35)" fill="#e6e6ea"/>
        <path id="Path_101251" data-name="Path 101251" d="M126.35,100.7,125,109.93l-16.86,45.3s0-.44,1.47-1.17,47.93,7.33,47.93,7.33l-8.65,61.85-52.47-14.8s-5.87-1-5.87-6.74,12.76-47.06,12.76-47.06Z" fill="#1a1a1e"/>
        <g id="Group_264308" data-name="Group 264308" opacity="0.2">
          <path id="Path_101252" data-name="Path 101252" d="M110.1,154.64h.71A.89.89,0,0,0,110.1,154.64Z"/>
          <path id="Path_101253" data-name="Path 101253" d="M150.36,213c-9.51-2.21-51-11.95-53.33-14.8-2.63-3.23,4.11-27,7.92-35.92,2.5-5.87,4.25-7.31,5.15-7.62-.52,0-7.11,1.16-8.19,4.67-3.36,11-11.33,37.86-11.33,42.39,0,5.71,5.87,6.74,5.87,6.74l52.47,14.8Z"/>
        </g>
        <path id="Path_101254" data-name="Path 101254" d="M175.05,180.94h0Z"/>
        <path id="Path_101255" data-name="Path 101255" d="M108.22,155.11a.671.671,0,0,0,0,.12Z" fill="#31313a"/>
        <path id="Path_101256" data-name="Path 101256" d="M125.48,198Z" fill="#31313a"/>
        <path id="Path_101257" data-name="Path 101257" d="M131.68,211.81c0,.1.1.18.16.28a2.1,2.1,0,0,1-.15-.3Z" fill="#31313a"/>
        <path id="Path_101258" data-name="Path 101258" d="M125.43,198.26h0v-.23h-.15a.657.657,0,0,0,.1.25Z" fill="#31313a"/>
        <path id="Path_101259" data-name="Path 101259" d="M157.57,161.39s-23.63-4.1-37.72-6.19C116.56,169.43,109,186.27,109,186.27a41.93,41.93,0,0,0,11.77,5.24l1,.3c-.29,3.58-.48,5.83-.48,5.83l4,.37h.15v.23h0l-.05.24a2.409,2.409,0,0,1-.07.37,1.093,1.093,0,0,1-.06.44,19,19,0,0,0,.12,8c.7,2.44,3.43,4.22,6.17,5.13L130.36,218l18.56,5.23Z" opacity="0.1"/>
        <path id="Path_101260" data-name="Path 101260" d="M140.9,196v1C140.88,196.68,140.89,196.35,140.9,196Z" fill="#31313a"/>
        <path id="Path_101261" data-name="Path 101261" d="M122.11,188.06h0v-.46h-.14A2.848,2.848,0,0,0,122.11,188.06Z" fill="#31313a"/>
        <path id="Path_101262" data-name="Path 101262" d="M184.469,186.9a12.7,12.7,0,0,1-2.309-.209,10.253,10.253,0,0,1-3.325-1.166l.529-.849a9.5,9.5,0,0,0,3.025,1.04,12.837,12.837,0,0,0,7.644-1.071l.414.91A14.379,14.379,0,0,1,184.469,186.9Z" fill="#3f3d56"/>
        <path id="Path_101263" data-name="Path 101263" d="M292.68,224.94s.78-2,2.21-2,5.59.48,6.13.42.84,2.56.84,2.56Z" fill="#74441e"/>
        <path id="Path_101264" data-name="Path 101264" d="M277.7,292.11s1.36,6.94,1.05,8.59-4.37,6.78-4.37,6.78-1.92,3,.49,4.1,3.53,2.13,5.55-.26a81.943,81.943,0,0,0,5.78-8.81c.43-.78,1.85-7.56,1.85-7.56l.26-2.73-10.12-.15Z" fill="#74441e"/>
        <path id="Path_101265" data-name="Path 101265" d="M277.7,292.11s1.36,6.94,1.05,8.59-4.37,6.78-4.37,6.78-1.92,3,.49,4.1,3.53,2.13,5.55-.26a81.943,81.943,0,0,0,5.78-8.81c.43-.78,1.85-7.56,1.85-7.56l.26-2.73-10.12-.15Z" opacity="0.1"/>
        <path id="Path_101266" data-name="Path 101266" d="M227.69,279.57c.5.14,4.77,3,4.55,6.81s-1.69,12.76.44,15.25,5.42,6.45,6.15,7.11,1.1,1.61-.66,2.86-5.93,2.78-8.86-2.94-4.18-7.32-7.33-13.92A44.34,44.34,0,0,0,213,282.87S215.89,276.27,227.69,279.57Z" fill="#74441e"/>
        <path id="Path_101267" data-name="Path 101267" d="M227.69,279.57c.5.14,4.77,3,4.55,6.81s-1.69,12.76.44,15.25,5.42,6.45,6.15,7.11,1.1,1.61-.66,2.86-5.93,2.78-8.86-2.94-4.18-7.32-7.33-13.92A44.34,44.34,0,0,0,213,282.87S215.89,276.27,227.69,279.57Z" opacity="0.1"/>
        <path id="Path_101268" data-name="Path 101268" d="M292.68,224.94s.78-2,2.21-2,5.59.48,6.13.42.84,2.56.84,2.56Z" opacity="0.1"/>
        <path id="Path_101269" data-name="Path 101269" d="M320.59,247.83c-2.42.66-12.89,6.74-15.06,7.48a25.471,25.471,0,0,1-6.33,1.38c3.06,5.54,3.76,15.51,3,20.6a46,46,0,0,1-2.64,10.34,5.734,5.734,0,0,1-.26.7c.1,2.47.21,4.52.34,5.31.41,2.62,3.15,15.85,6.3,17.64s5.55,7.43,4.64,9.91-7.81,1.53-8.66-2.81S289,305,287.48,299.77c-.29-1-.66-2-1.07-3.09-18.74,2.18-40.37-10.21-46.77-9.56a38,38,0,0,0-6.63,1.35c-4.2,5.89-15.34,13-18.73,15.79-3.73,3.09-4.4,11.66-4.17,13.86s4.17,2.2,3.51,4.18-6.6,4.61-9.67,0-1.1-7.92-1.1-7.92,2.63-16.93,3.52-18.47c.57-1,4-2.19,2.7-11.3a15.43,15.43,0,0,1-1.61-9.37A103.676,103.676,0,0,1,209,263.05c-.15-.6-.35-1.32-.61-2.17-2-6.74-11.14-11.73-9.23-23,1.65-9.78,1.75-11.53,1.75-11.83,0,1,.36,16.45,1.74,19.37s5.1,9.63,9.77,12.51c2.11-1,5.37-1,10.63-.86,14.07.44,25.07.67,37.16-.65s15.39-1.54,20-13.19c0-5.72,1.32-13.86,8.14-17.16a21.18,21.18,0,0,1,10.77-1.76c3.08.44,8.36,3.09,11.88,6.83a13.92,13.92,0,0,0,8.68,4s2-1.32,3.3-.22,1.32,6.16,1.54,7.25S323,247.17,320.59,247.83Z" fill="#74441e"/>
        <path id="Path_101270" data-name="Path 101270" d="M284.53,234.42c2.31,2.2,7.26,4.18,7,5.5s5.27-4.18,1.54-13.42l-1.64-1.5a17.352,17.352,0,0,0-3.05,1.09,12.62,12.62,0,0,0-5.67,5.56A8.74,8.74,0,0,0,284.53,234.42Z" opacity="0.1"/>
        <path id="Path_101271" data-name="Path 101271" d="M293.33,225.19l-2.64-2.42-8.91,3.51s.66,4.62,3,6.82,7.26,4.18,7,5.5S297.06,234.42,293.33,225.19Z" fill="#74441e"/>
        <g id="Group_264309" data-name="Group 264309" opacity="0.2">
          <path id="Path_101272" data-name="Path 101272" d="M323.58,235.75Z" fill="#fff"/>
          <path id="Path_101273" data-name="Path 101273" d="M323.34,235.27a.349.349,0,0,0,0-.08A.349.349,0,0,1,323.34,235.27Z" fill="#fff"/>
          <path id="Path_101274" data-name="Path 101274" d="M322,234.44a3,3,0,0,0-.42,0,3,3,0,0,1,.42,0Z" fill="#fff"/>
          <path id="Path_101275" data-name="Path 101275" d="M321.05,234.51l-.36.1Z" fill="#fff"/>
          <path id="Path_101276" data-name="Path 101276" d="M321.52,234.44a2.7,2.7,0,0,0-.41.06,2.7,2.7,0,0,1,.41-.06Z" fill="#fff"/>
          <path id="Path_101277" data-name="Path 101277" d="M322.59,234.6a2.08,2.08,0,0,1,.42.26A2.08,2.08,0,0,0,322.59,234.6Z" fill="#fff"/>
          <path id="Path_101278" data-name="Path 101278" d="M319.31,236.18a1.67,1.67,0,0,1,.47-1.15l.17-.09-.24.14a13.92,13.92,0,0,1-8.68-4,20.924,20.924,0,0,0-1.88-1.76,40.358,40.358,0,0,0,3.53,4.94,13,13,0,0,0,7.16,3.44C319.17,237.47,319.32,236.75,319.31,236.18Z" fill="#fff"/>
          <path id="Path_101279" data-name="Path 101279" d="M320,234.91l.25-.12Z" fill="#fff"/>
          <path id="Path_101280" data-name="Path 101280" d="M320.31,234.76l.33-.13Z" fill="#fff"/>
          <path id="Path_101281" data-name="Path 101281" d="M322.1,234.46a2.092,2.092,0,0,1,.43.11,2.091,2.091,0,0,0-.43-.11Z" fill="#fff"/>
        </g>
        <path id="Path_101282" data-name="Path 101282" d="M323.78,238a.21.21,0,0,0,.33-.06,5.46,5.46,0,0,0-1.1-3c-1.17-1-2.87-.05-3.23.17a1.67,1.67,0,0,0-.47,1.15c0,.68-.22,1.57,1,1.68S323.3,237.59,323.78,238Z" opacity="0.6"/>
        <path id="Path_101283" data-name="Path 101283" d="M311.25,248.49c-5.17,1.32-14.41,2.75-15.29,5.17s-1.75,13.52,1,20.45a38.2,38.2,0,0,1,2.38,14.22,5.744,5.744,0,0,0,.26-.7,46,46,0,0,0,2.64-10.34c.73-5.09,0-15.06-3-20.6a25.47,25.47,0,0,0,6.33-1.38c1.86-.64,9.77-5.16,13.54-6.87a17.55,17.55,0,0,0-7.86.05Z" fill="#fff" opacity="0.3"/>
        <path id="Path_101284" data-name="Path 101284" d="M181.85,172.42a11.36,11.36,0,0,0,3.08,3.62c1.65,1,5.39,3.85,5.72,5s-.11,5.83-1.32,7.26-7.26,2.64-9.24,1.87-1-5.5,0-6.82-4.18-3.85-4.18-3.85Z" fill="#fbc8a4"/>
        <path id="Path_101285" data-name="Path 101285" d="M181.85,172.42l-5.94,7a23.816,23.816,0,0,1,2.48,1.44l6.12-5.14a12.62,12.62,0,0,1-2.66-3.3Z" opacity="0.1"/>
        <path id="Path_101286" data-name="Path 101286" d="M157.69,104.29,175.89,153l10.62,19.45-14.34,12s-36.42-78.55-36.68-84.12-2.84-10.13,4.92-13.44,11.15-.24,13.52,6.39S157.69,104.29,157.69,104.29Z" fill="#0f2e52"/>
        <path id="Path_101287" data-name="Path 101287" d="M157.69,104.29,175.89,153l10.62,19.45-14.34,12s-36.42-78.55-36.68-84.12-2.84-10.13,4.92-13.44,11.15-.24,13.52,6.39S157.69,104.29,157.69,104.29Z" opacity="0.1"/>
        <path id="Path_101288" data-name="Path 101288" d="M178.2,179.43c-.82-8.55-2.26-19.48-3.5-29.58l-17-45.56s-1.39-4.33-3.76-11-5.75-9.7-13.52-6.39-5.19,7.88-4.92,13.44,36.68,84.12,36.68,84.12Z" opacity="0.1"/>
        <ellipse id="Ellipse_3468" data-name="Ellipse 3468" cx="18.26" cy="22.6" rx="18.26" ry="22.6" transform="translate(136.52 26.291) rotate(-6.91)" fill="#fbc8a4"/>
        <path id="Path_101289" data-name="Path 101289" d="M161,60.85c-2.75,5.87-5.63,27.06-5.63,27.06s-25.55-7.41-20.51-10.26,7-22,7-22S163.72,55,161,60.85Z" fill="#fbc8a4"/>
        <path id="Path_101290" data-name="Path 101290" d="M96.79,321.27c-.7,2.81,0,16.86,6.32,19s9.83,7,9.83,9.13-5.62,2.11-18.26,0-27.38-24.58-28.79-26S82,307.93,82,307.93,97.49,318.46,96.79,321.27Z" fill="#1a1a1e"/>
        <path id="Path_101291" data-name="Path 101291" d="M165.61,223l-17.56,45.65S99.6,323.38,96.79,323.38s-16.85-14.05-18.26-14.75,45-52.67,45-52.67l11.23-52.66Z" fill="#31313a"/>
        <path id="Path_101292" data-name="Path 101292" d="M204.93,329.7s11.94,10.53,23.18,10.53,9.83,4.92,9.83,4.92c-2.81,9.83-52.67,7-55.48,5.62S183.87,336,183.87,336Z" fill="#1a1a1e"/>
        <path id="Path_101293" data-name="Path 101293" d="M165.61,223l-17.56,45.65S99.6,323.38,96.79,323.38s-16.85-14.05-18.26-14.75,45-52.67,45-52.67l11.23-52.66Z" opacity="0.1"/>
        <path id="Path_101294" data-name="Path 101294" d="M139.93,63.44c-2.75.58-6.55-6-7.74-7.89a21.77,21.77,0,0,1-3.27-12.2c.19-5.26,2.28-10.28,5-14.8a16.36,16.36,0,0,1,4-4.94,13.88,13.88,0,0,1,7.31-2.41A25,25,0,0,1,156.65,23c2.09.87,4.31,2.05,6.49,1.43a6.28,6.28,0,0,1,2.48,0c.95.48-.44,2.6.55,2.21.69-1.15,4-2.2,5.31-2.21.17,1.13,0,2.8.73,3.67l2.49-1.76c.85,2.37-1.84,4.94-2.56,7.35a7.26,7.26,0,0,1-5.1,5.09c-1.59.36-6.41.16-7.43,1.63s-1.48,2.44-1.38,3.17c.27,5.57-6.77,3.8-9.73,11.75S143.38,62.7,139.93,63.44Z" fill="#57392e"/>
        <path id="Path_101295" data-name="Path 101295" d="M142.66,184.3c-10.12.69-19.18,2.14-19.18,2.14a91.724,91.724,0,0,0,3.32,10.4l15.47,1.46S142.42,192.44,142.66,184.3Z" fill="#31313a"/>
        <path id="Path_101296" data-name="Path 101296" d="M208.45,331.1,193.7,272.82s-16.85-80.76-26-86.38c-4.06-2.5-13.27-2.77-22.23-2.31-.27,9.22-.45,16.09-.45,16.09l-17.57-1.66c3.27,8.25,8.74,19.2,17.07,27.91C160,242.62,167,275.63,167,275.63l15.45,66S209.85,338.13,208.45,331.1Z" fill="#31313a"/>
        <path id="Path_101297" data-name="Path 101297" d="M145.49,184.13l-2.83.17c-.24,8.14-.39,14-.39,14l-15.47-1.46c.21.56.43,1.13.67,1.72L145,200.22S145.22,193.35,145.49,184.13Z" fill="#31313a"/>
        <path id="Path_101298" data-name="Path 101298" d="M172.07,142.15c-2.35-20.67-13.34-51.89-13-55.41a8.79,8.79,0,0,1,2-5.28L138.35,67.24l-2.64,7.92s-.8-.15-3.22,1.9c-5.17,2.35-10.26,51-9.68,65.09S110.5,185.1,110.5,185.1a42,42,0,0,0,11.78,5.24c1.07-13.2,3.45-43.59,3-48.67-.53-6.53,2.94-47.48,8-54.26a9.13,9.13,0,0,1,7.4-3.14,9.1,9.1,0,0,0-6.38,3.14c-5.08,6.78-8.55,47.73-8,54.26.41,5.11-2,35.92-3.06,49,20.42,5.86,51.31,6.07,53.18,3.85C178.81,191.69,174.41,162.81,172.07,142.15Z" fill="#0f2e52"/>
        <path id="Path_101299" data-name="Path 101299" d="M126.34,141.67c-.53-6.53,2.94-47.48,8-54.26a9.1,9.1,0,0,1,6.38-3.14,9.13,9.13,0,0,0-7.4,3.14c-5.09,6.78-8.56,47.73-8,54.26.42,5.08-2,35.47-3,48.67l1,.29C124.34,177.59,126.75,146.78,126.34,141.67Z" fill="#0f2e52"/>
        <path id="Path_101300" data-name="Path 101300" d="M126.34,141.67c-.53-6.53,2.94-47.48,8-54.26a9.1,9.1,0,0,1,6.38-3.14,9.13,9.13,0,0,0-7.4,3.14c-5.09,6.78-8.56,47.73-8,54.26.42,5.08-2,35.47-3,48.67l1,.29C124.34,177.59,126.75,146.78,126.34,141.67Z" opacity="0.1"/>
        <path id="Path_101301" data-name="Path 101301" d="M172.07,142.15c-2.35-20.67-13.34-51.89-13-55.41a8.79,8.79,0,0,1,2-5.28L138.35,67.24l-2.64,7.92s-.8-.15-3.22,1.9c-5.17,2.35-10.26,51-9.68,65.09S110.5,185.1,110.5,185.1a42,42,0,0,0,11.78,5.24c1.07-13.2,3.45-43.59,3-48.67-.53-6.53,2.94-47.48,8-54.26a9.13,9.13,0,0,1,7.4-3.14,9.1,9.1,0,0,0-6.38,3.14c-5.08,6.78-8.55,47.73-8,54.26.41,5.11-2,35.92-3.06,49,20.42,5.86,51.31,6.07,53.18,3.85C178.81,191.69,174.41,162.81,172.07,142.15Z" fill="#0f2e52"/>
        <path id="Path_101302" data-name="Path 101302" d="M126.34,141.67c-.53-6.53,2.94-47.48,8-54.26a9.1,9.1,0,0,1,6.38-3.14,9.13,9.13,0,0,0-7.4,3.14c-5.09,6.78-8.56,47.73-8,54.26.42,5.08-2,35.47-3,48.67l1,.29C124.34,177.59,126.75,146.78,126.34,141.67Z" fill="#0f2e52"/>
        <path id="Path_101303" data-name="Path 101303" d="M126.34,141.67c-.53-6.53,2.94-47.48,8-54.26a9.1,9.1,0,0,1,6.38-3.14,9.13,9.13,0,0,0-7.4,3.14c-5.09,6.78-8.56,47.73-8,54.26.42,5.08-2,35.47-3,48.67l1,.29C124.34,177.59,126.75,146.78,126.34,141.67Z" opacity="0.1"/>
        <path id="Path_101304" data-name="Path 101304" d="M147.43,137.4c-.57,3.25-1.42,29.22-1.94,46.73-.27,9.22-.46,16.09-.46,16.09l-3.41-.32c.36,6.16-.94,9.72-.94,12,0,1.66-3.22,1.78-6.43.69A104.5,104.5,0,0,1,128,199.8c.07-.4.13-.8.2-1.17l-.7-.07c-.24-.59-.46-1.16-.67-1.72l15.47,1.46s.16-5.86.39-14c.51-17.45,1.41-45.43,2-48.82.87-5,6.49-39.73,3.25-46.73a9,9,0,0,0-1.38-2.15,7.42,7.42,0,0,1,4.15,4.07C153.91,97.67,148.29,132.42,147.43,137.4Z" opacity="0.1"/>
        <path id="Path_101305" data-name="Path 101305" d="M127.93,193s-2.64,7.92-1.1,13.2,12.53,7.47,12.53,4.39,2.42-8.57-.22-19.78S127.93,193,127.93,193Z" fill="#fbc8a4"/>
        <path id="Path_101306" data-name="Path 101306" d="M139.14,190.78c-2.64-11.22-11.21,2.19-11.21,2.19a37.359,37.359,0,0,0-1.22,5.18l13.64,1.29a43.49,43.49,0,0,0-1.21-8.66Z" opacity="0.1"/>
        <path id="Path_101307" data-name="Path 101307" d="M134.36,87.41c2.39-3.18,10.31-5.66,13.55,1.34s-2.38,41.75-3.25,46.72-2.39,62.83-2.39,62.83l-19.47-1.84s4.07-48.27,3.54-54.79S129.28,94.19,134.36,87.41Z" fill="#0f2e52"/>
        <path id="Path_101308" data-name="Path 101308" d="M128.06,141.67c-.53-6.53,2.94-47.48,8-54.26a9.06,9.06,0,0,1,6.38-3.14,9.15,9.15,0,0,0-7.41,3.14c-5.08,6.78-8.56,47.73-8,54.26.42,5.08-2,35.47-3,48.67l1,.29C126.06,177.59,128.48,146.78,128.06,141.67Z" fill="#0f2e52"/>
        <path id="Path_101309" data-name="Path 101309" d="M211.39,193.91Z" fill="#0f2e52"/>
        <path id="Path_101310" data-name="Path 101310" d="M252.16,250.39a16.911,16.911,0,0,1-1.77-.09c-4.46-.5-9.93-5.86-16.27-12.05-7-6.87-15-14.65-22.19-15.95-13.77-2.5-22.09-16.66-20.34-27.67.95-5.95-.1-7.8-.6-8.32a1.36,1.36,0,0,0-.48-.32,11.69,11.69,0,0,1-11.72,1.37.86.86,0,1,1,.63-1.6c6.13,2.4,10.07-1.14,10.24-1.3a.85.85,0,0,1,.48-.22,2.65,2.65,0,0,1,2.1.88c1.48,1.55,1.84,4.85,1,9.78-1.63,10.22,6.13,23.38,19,25.7C220,222,228.12,230,235.32,237c5.86,5.73,11.39,11.14,15.26,11.58,4.3.49,10.34-1.23,15.66-2.75,6.18-1.76,11.06-3.15,13.34-1.49a.86.86,0,1,1-1,1.39c-1.6-1.17-6.81.32-11.85,1.76C261.9,248.86,256.53,250.39,252.16,250.39Z" fill="#1f5ea8"/>
        <g id="Group_264310" data-name="Group 264310" opacity="0.1">
          <path id="Path_101311" data-name="Path 101311" d="M252.16,250.39a16.911,16.911,0,0,1-1.77-.09c-4.46-.5-9.93-5.86-16.27-12.05-7-6.87-15-14.65-22.19-15.95-13.77-2.5-22.09-16.66-20.34-27.67.95-5.95-.1-7.8-.6-8.32a1.36,1.36,0,0,0-.48-.32,11.69,11.69,0,0,1-11.72,1.37.86.86,0,1,1,.63-1.6c6.13,2.4,10.07-1.14,10.24-1.3a.85.85,0,0,1,.48-.22,2.65,2.65,0,0,1,2.1.88c1.48,1.55,1.84,4.85,1,9.78-1.63,10.22,6.13,23.38,19,25.7C220,222,228.12,230,235.32,237c5.86,5.73,11.39,11.14,15.26,11.58,4.3.49,10.34-1.23,15.66-2.75,6.18-1.76,11.06-3.15,13.34-1.49a.86.86,0,1,1-1,1.39c-1.6-1.17-6.81.32-11.85,1.76C261.9,248.86,256.53,250.39,252.16,250.39Z"/>
        </g>
        <path id="Path_101312" data-name="Path 101312" d="M280.35,242.45s2.57,11.47,19.79,13.85c.67.09,1,2.64.26,3s-18.22-.64-22.13-13.49C277.5,243.33,280.35,242.45,280.35,242.45Z" fill="#1f5ea8"/>
      </g>
      <g id="Group_264123" data-name="Group 264123" transform="translate(317 38)">
        <text id="Please_wait_while_we_fetch_the_plans_and_rates_for_your_quote." data-name="Please wait while we fetch the plans and rates for your quote." transform="translate(282 220)" fill="#31313a" font-size="26" font-family="SegoeUI-Semibold, Segoe UI" font-weight="600"><tspan x="0" y="0">Please wait while we fetch the plans and rates for your quote.</tspan></text>
      </g>
    </g>
  </g>
</svg>
