<svg xmlns="http://www.w3.org/2000/svg" xmlns:xlink="http://www.w3.org/1999/xlink" width="390" height="939" viewBox="0 0 390 939">
  <defs>
    <filter id="Rectangle_11509" x="-9" y="49" width="408" height="179" filterUnits="userSpaceOnUse">
      <feOffset dy="3" input="SourceAlpha"/>
      <feGaussianBlur stdDeviation="3" result="blur"/>
      <feFlood flood-opacity="0.161"/>
      <feComposite operator="in" in2="blur"/>
      <feComposite in="SourceGraphic"/>
    </filter>
    <filter id="Card" x="-4.5" y="402.5" width="399" height="255" filterUnits="userSpaceOnUse">
      <feOffset dy="1" input="SourceAlpha"/>
      <feGaussianBlur stdDeviation="1.5" result="blur-2"/>
      <feFlood flood-opacity="0.161"/>
      <feComposite operator="in" in2="blur-2"/>
      <feComposite in="SourceGraphic"/>
    </filter>
    <filter id="Card-2" x="-4.5" y="658.5" width="399" height="255" filterUnits="userSpaceOnUse">
      <feOffset dy="1" input="SourceAlpha"/>
      <feGaussianBlur stdDeviation="1.5" result="blur-3"/>
      <feFlood flood-opacity="0.161"/>
      <feComposite operator="in" in2="blur-3"/>
      <feComposite in="SourceGraphic"/>
    </filter>
    <clipPath id="clip-responsiveness">
      <rect width="390" height="939"/>
    </clipPath>
  </defs>
  <g id="responsiveness" clip-path="url(#clip-responsiveness)">
    <rect width="390" height="939" fill="#f4f4f6"/>
    <g id="Mobile_Top_Bar_4" data-name="Mobile Top Bar – 4">
      <rect id="Rectangle_1" data-name="Rectangle 1" width="391" height="55" fill="#f9f9fa"/>
      <g id="Group_8092" data-name="Group 8092" transform="translate(345 10)">
        <path id="Path_101755" data-name="Path 101755" d="M303.8,258.3l-5-5a6.354,6.354,0,0,0,1.1-4.9,6.471,6.471,0,0,0-5.6-5.3,6.53,6.53,0,0,0-2,12.9,6.914,6.914,0,0,0,4.9-1.1l5,5a1.088,1.088,0,0,0,1.5,0A1.222,1.222,0,0,0,303.8,258.3Zm-14.7-9.5a4.458,4.458,0,0,1,3.7-3.7,4.57,4.57,0,0,1,5.2,5.2,4.458,4.458,0,0,1-3.7,3.7A4.609,4.609,0,0,1,289.1,248.8Z" transform="translate(-277.224 -234.053)" fill="#4e92df"/>
        <ellipse id="Ellipse_1" data-name="Ellipse 1" cx="18" cy="17.5" rx="18" ry="17.5" transform="translate(0)" fill="none"/>
      </g>
      <g id="Group_8091" data-name="Group 8091" transform="translate(10 10)">
        <ellipse id="Ellipse_2" data-name="Ellipse 2" cx="18" cy="17.5" rx="18" ry="17.5" fill="none"/>
        <g id="Group_7747" data-name="Group 7747" transform="translate(10 12)">
          <rect id="Rectangle_4038" data-name="Rectangle 4038" width="16" height="2" fill="#4e92df"/>
          <rect id="Rectangle_4039" data-name="Rectangle 4039" width="16" height="2" transform="translate(0 5)" fill="#4e92df"/>
          <rect id="Rectangle_4040" data-name="Rectangle 4040" width="16" height="2" transform="translate(0 10)" fill="#4e92df"/>
        </g>
      </g>
      <g id="Zywave_logo" data-name="Zywave logo" transform="translate(147.5 17.105)">
        <g id="Group_6" data-name="Group 6">
          <path id="Path_467" data-name="Path 467" d="M438.256,0l-5.225,11.558L427.79,0H425.7l7.331,16.2L440.362,0Z" transform="translate(-358.297)" fill="#0f2d52"/>
          <path id="Path_468" data-name="Path 468" d="M341.032,16.2h2.106L335.822,0h-.807L327.7,16.2h2.106l1.6-3.578h8.027Zm-8.772-5.478,3.151-6.951,3.151,6.951Z" transform="translate(-275.814)" fill="#0f2d52"/>
          <path id="Path_469" data-name="Path 469" d="M543.316,8.74h5.827V6.84h-5.827V1.9h6.333L550.662,0H541.4V16.2h8.265l1.013-1.948h-7.362Z" transform="translate(-455.678)" fill="#0f2d52"/>
          <path id="Path_470" data-name="Path 470" d="M181.181,0l-5.193,11.558L171.348,1.409l-4.608,10.149L161.722,0H158.6l-2.8,6.191L156.845,8.5l3.214-7.093L166.741,16.2l4.608-10.165L175.987,16.2,183.271,0Z" transform="translate(-131.132)" fill="#0f2d52"/>
          <path id="Path_471" data-name="Path 471" d="M3.515,14.266,12.793,0H1.552L.681,1.9h8.6L0,16.166H12.778l.855-1.9Z" fill="#0f2d52"/>
        </g>
        <path id="Path_472" data-name="Path 472" d="M102.664,0H98.5l4.687,10.4L98.5,20.789h4.164L107.382,10.4Z" transform="translate(-82.904)" fill="#5fb53b"/>
      </g>
      <line id="Line_2" data-name="Line 2" x2="390" transform="translate(0 55)" fill="none" stroke="#e6e6ea" stroke-width="1"/>
    </g>
    <g id="Group_270609" data-name="Group 270609" transform="translate(-250 -15)">
      <g transform="matrix(1, 0, 0, 1, 250, 15)" filter="url(#Rectangle_11509)">
        <rect id="Rectangle_11509-2" data-name="Rectangle 11509" width="390" height="161" transform="translate(0 55)" fill="#fff"/>
      </g>
      <text id="Commercial_lines_analytics" data-name="Commercial lines analytics" transform="translate(260 128)" fill="#31313a" font-size="26" font-family="SegoeUI-Semibold, Segoe UI" font-weight="600"><tspan x="0" y="0">Commercial lines analytics</tspan></text>
      <text id="last_updated_10_04_22" data-name="last updated 10/04/22" transform="translate(260 158)" fill="#9494a4" font-size="12" font-family="SegoeUI, Segoe UI"><tspan x="0" y="0">last updated 10/04/22</tspan></text>
      <g id="Tabs" transform="translate(250 191)">
        <rect id="Rectangle_3712" data-name="Rectangle 3712" width="390" height="1" transform="translate(0 39)" fill="#cbcbd2"/>
        <g id="Group_264673" data-name="Group 264673" transform="translate(-21)">
          <text id="Drill_down" data-name="Drill down" transform="translate(223 15)" fill="#5b5b5b" font-size="14" font-family="SegoeUI, Segoe UI"><tspan x="0" y="0">Drill down</tspan></text>
          <text id="Market_look" data-name="Market look" transform="translate(109 15)" fill="#5b5b5b" font-size="14" font-family="SegoeUI, Segoe UI"><tspan x="0" y="0">Market look</tspan></text>
          <g id="Group_264674" data-name="Group 264674" transform="translate(-156)">
            <text id="KPIs" transform="translate(197 15)" fill="#2777d3" font-size="14" font-family="SegoeUI-Bold, Segoe UI" font-weight="700"><tspan x="0" y="0">KPIs</tspan></text>
            <rect id="Rectangle_3713" data-name="Rectangle 3713" width="68" height="4" transform="translate(177 35)" fill="#2777d3"/>
          </g>
        </g>
      </g>
    </g>
    <g id="Date_Picker_-_Input" data-name="Date Picker - Input" transform="translate(10 226)">
      <g id="Rectangle_296" data-name="Rectangle 296" transform="translate(0 23)" fill="#fff" stroke="#cbcbd2" stroke-width="1">
        <rect width="200" height="42" rx="2" stroke="none"/>
        <rect x="0.5" y="0.5" width="199" height="41" rx="1.5" fill="none"/>
      </g>
      <text id="Previous_90_days" data-name="Previous 90 days" transform="translate(52 50)" fill="#494955" font-size="14" font-family="SegoeUI, Segoe UI"><tspan x="0" y="0">Previous 90 days</tspan></text>
      <path id="Path_402" data-name="Path 402" d="M213,94h-1V93a1,1,0,0,0-2,0v1h-8V93a1,1,0,0,0-2,0v1h-1a2.006,2.006,0,0,0-2,2v13a2.006,2.006,0,0,0,2,2h14a2.006,2.006,0,0,0,2-2V96A2.006,2.006,0,0,0,213,94Zm0,14a.945.945,0,0,1-1,1H200a.945.945,0,0,1-1-1V99h14Zm-10-5h-2v-2h2Zm4,0h-2v-2h2Zm4,0h-2v-2h2Zm-8,4h-2v-2h2Zm4,0h-2v-2h2Zm4,0h-2v-2h2Z" transform="translate(-180 -57)" fill="#2777d3"/>
      <text id="Date_period" data-name="Date period" transform="translate(0 15)" fill="#31313a" font-size="14" font-family="SegoeUI-Semibold, Segoe UI" font-weight="600"><tspan x="0" y="0">Date period</tspan></text>
    </g>
    <g id="Link_Icon" data-name="Link + Icon" transform="translate(217 250)">
      <rect id="BG" width="88" height="36" rx="18" fill="none"/>
      <g id="Content" transform="translate(0)">
        <text id="Filter" transform="translate(41 23)" fill="#2777d3" font-size="14" font-family="SegoeUI-Semibold, Segoe UI" font-weight="600"><tspan x="0" y="0">Filter</tspan></text>
        <g id="Filter-2" data-name="Filter" transform="translate(23 18)">
          <g id="filter-3" data-name="filter" transform="translate(-8 -8)">
            <rect id="Rectangle_6829" data-name="Rectangle 6829" width="16" height="16" fill="none"/>
            <path id="Path_8843" data-name="Path 8843" d="M13,4.333,10.006,8.181l-.281.361v4.163l-1.333.445V8.543l-.281-.361L5.118,4.333H13M14.363,3H3.754A.667.667,0,0,0,3.23,4.076L7.058,9v5.537a.333.333,0,0,0,.439.316L10.6,13.818a.667.667,0,0,0,.456-.633V9l3.83-4.924A.667.667,0,0,0,14.363,3Z" transform="translate(-1.03 -1)" fill="#2777d3"/>
          </g>
        </g>
      </g>
    </g>
    <g id="Group_270613" data-name="Group 270613" transform="translate(-910 37)">
      <g id="Radio_Button_-_Inline" data-name="Radio Button - Inline" transform="translate(1037 297)">
        <g id="BG-2" data-name="BG" fill="#fff" stroke="#c6c6c6" stroke-width="1">
          <rect width="106" height="42" stroke="none"/>
          <rect x="0.5" y="0.5" width="105" height="41" fill="none"/>
        </g>
        <g id="Content-2" data-name="Content">
          <text id="Label" transform="translate(28 27)" fill="#5b5b5b" font-size="14" font-family="OpenSans-Semibold, Open Sans" font-weight="600"><tspan x="0" y="0">Liability</tspan></text>
          <g id="Icon" transform="translate(-133 -252)">
            <rect id="Rectangle_3945" data-name="Rectangle 3945" width="24" height="24" transform="translate(158 261)" fill="none"/>
          </g>
        </g>
      </g>
      <text id="Display" transform="translate(920 289)" fill="#31313a" font-size="14" font-family="SegoeUI-Semibold, Segoe UI" font-weight="600"><tspan x="0" y="0">Display</tspan></text>
      <g id="Radio_Button_-_Inline-2" data-name="Radio Button - Inline" transform="translate(1142 297)">
        <g id="BG-3" data-name="BG" fill="#fff" stroke="#c6c6c6" stroke-width="1">
          <path d="M0,0H108a4,4,0,0,1,4,4V38a4,4,0,0,1-4,4H0a0,0,0,0,1,0,0V0A0,0,0,0,1,0,0Z" stroke="none"/>
          <path d="M.5.5H108A3.5,3.5,0,0,1,111.5,4V38a3.5,3.5,0,0,1-3.5,3.5H.5a0,0,0,0,1,0,0V.5A0,0,0,0,1,.5.5Z" fill="none"/>
        </g>
        <g id="Content-3" data-name="Content">
          <text id="Label-2" data-name="Label" transform="translate(28 27)" fill="#5b5b5b" font-size="14" font-family="OpenSans-Semibold, Open Sans" font-weight="600"><tspan x="0" y="0">Property</tspan></text>
          <g id="Icon-2" data-name="Icon" transform="translate(-133 -252)">
            <rect id="Rectangle_3945-2" data-name="Rectangle 3945" width="24" height="24" transform="translate(158 261)" fill="none"/>
          </g>
        </g>
      </g>
      <g id="Radio_Button_-_Inline-3" data-name="Radio Button - Inline" transform="translate(920 297)">
        <g id="BG-4" data-name="BG" fill="#d0e2f6" stroke="#2777d3" stroke-width="2">
          <path d="M4,0H118a0,0,0,0,1,0,0V42a0,0,0,0,1,0,0H4a4,4,0,0,1-4-4V4A4,4,0,0,1,4,0Z" stroke="none"/>
          <path d="M4,1H117a0,0,0,0,1,0,0V41a0,0,0,0,1,0,0H4a3,3,0,0,1-3-3V4A3,3,0,0,1,4,1Z" fill="none"/>
        </g>
        <g id="Content-4" data-name="Content">
          <text id="Label-3" data-name="Label" transform="translate(28 27)" fill="#3d3d3d" font-size="14" font-family="OpenSans-Semibold, Open Sans" font-weight="600"><tspan x="0" y="0">Summary</tspan></text>
          <g id="Icon-3" data-name="Icon" transform="translate(-133 -252)">
            <rect id="Rectangle_3945-3" data-name="Rectangle 3945" width="24" height="24" transform="translate(158 261)" fill="none"/>
          </g>
        </g>
      </g>
    </g>
    <g id="Group_270654" data-name="Group 270654" transform="translate(-827 84)">
      <g transform="matrix(1, 0, 0, 1, 827, -84)" filter="url(#Card)">
        <rect id="Card-3" data-name="Card" width="390" height="246" rx="2" transform="translate(0 406)" fill="#fff"/>
      </g>
      <g id="Group_270686" data-name="Group 270686" transform="translate(624 111)">
        <text id="Property" transform="translate(538 412)" fill="#31313a" font-size="12" font-family="SegoeUI, Segoe UI"><tspan x="0" y="0">Property</tspan></text>
        <path id="Line_2625" data-name="Line 2625" d="M11,1.5H0A1.5,1.5,0,0,1-1.5,0,1.5,1.5,0,0,1,0-1.5H11A1.5,1.5,0,0,1,12.5,0,1.5,1.5,0,0,1,11,1.5Z" transform="translate(519 408)" fill="#fbac0e"/>
      </g>
      <g id="Group_270687" data-name="Group 270687" transform="translate(547 111)">
        <text id="Liability" transform="translate(538 412)" fill="#31313a" font-size="12" font-family="SegoeUI, Segoe UI"><tspan x="0" y="0">Liability</tspan></text>
        <path id="Line_2625-2" data-name="Line 2625" d="M11,1.5H0A1.5,1.5,0,0,1-1.5,0,1.5,1.5,0,0,1,0-1.5H11A1.5,1.5,0,0,1,12.5,0,1.5,1.5,0,0,1,11,1.5Z" transform="translate(519 408)" fill="#2777d3"/>
      </g>
      <rect id="Card-4" data-name="Card" width="390" height="61" rx="2" transform="translate(827 322)" fill="#f9f9fa"/>
      <text id="Total_quoted_premium" data-name="Total quoted premium" transform="translate(837 359)" fill="#31313a" font-size="16" font-family="SegoeUI-Semibold, Segoe UI" font-weight="600"><tspan x="0" y="0">Total quoted premium</tspan></text>
      <path id="Line_27" data-name="Line 27" d="M390,.5H0v-1H390Z" transform="translate(827 383)" fill="#e6e6ea"/>
      <text id="_1.25M" data-name="$1.25M" transform="translate(837 467)" fill="#31313a" font-size="32" font-family="SegoeUI-Semibold, Segoe UI" font-weight="600"><tspan x="0" y="0">$1.25M</tspan></text>
      <g id="External" transform="translate(1199 353)">
        <g id="Group_270302" data-name="Group 270302" transform="translate(-8 -8)">
          <g id="Group_270301" data-name="Group 270301">
            <path id="Path_101932" data-name="Path 101932" d="M8.169,8.655a.212.212,0,0,0,.3,0l2.642-2.639V7.8a.192.192,0,0,0,.2.2h1.376a.2.2,0,0,0,.2-.2V3.312a.2.2,0,0,0-.2-.2l-4.477,0a.21.21,0,0,0-.21.21V4.689a.2.2,0,0,0,.2.2H9.985L7.342,7.528a.214.214,0,0,0,0,.3Z" fill="#2777d3"/>
            <path id="Path_101933" data-name="Path 101933" d="M15.24,0H4.76A.762.762,0,0,0,4,.76V4H.76A.762.762,0,0,0,0,4.76V15.24A.762.762,0,0,0,.76,16H11.24a.762.762,0,0,0,.76-.76V12h3.24a.762.762,0,0,0,.76-.76V.76A.762.762,0,0,0,15.24,0ZM10.667,14.667H1.333V5.333H4V12h6.667Zm4-4H5.333V1.333h9.334Z" fill="#2777d3"/>
          </g>
          <rect id="Rectangle_11495" data-name="Rectangle 11495" width="16" height="16" fill="none"/>
        </g>
      </g>
      <g id="Favorite-empty" transform="translate(1163 353)">
        <g id="Group_270307" data-name="Group 270307" transform="translate(-8 -8)">
          <path id="Path_101936" data-name="Path 101936" d="M8.8,6.412l.225.691a.332.332,0,0,0,.317.23h3.313L10.561,8.854l-.587.427a.334.334,0,0,0-.122.372l.225.691.8,2.46-2.092-1.52L8.2,10.857a.333.333,0,0,0-.392,0l-.588.427L5.124,12.8l.8-2.46.225-.691a.334.334,0,0,0-.122-.372l-.587-.427L3.346,7.333H6.659a.332.332,0,0,0,.317-.23L7.2,6.412,8,3.952ZM8,.453A.359.359,0,0,0,7.653.7L5.933,6H.366a.365.365,0,0,0-.215.66l4.5,3.272-1.72,5.3a.364.364,0,0,0,.561.408L8,12.363l4.5,3.272a.364.364,0,0,0,.561-.408l-1.72-5.3,4.5-3.272A.365.365,0,0,0,15.634,6H10.067L8.347.7A.359.359,0,0,0,8,.453Z" transform="translate(0)" fill="#2777d3"/>
          <rect id="Rectangle_11503" data-name="Rectangle 11503" width="16" height="16" transform="translate(0)" fill="none"/>
        </g>
      </g>
      <g id="Tags" transform="translate(857 490)">
        <rect id="Rectangle_9728" data-name="Rectangle 9728" width="72" height="38" rx="4" transform="translate(-20 -9)" fill="#d7efcd" opacity="0.25"/>
        <text id="_10_" data-name="10%" transform="translate(8 18)" fill="#376822" font-size="20" font-family="SegoeUI-Semibold, Segoe UI" font-weight="600"><tspan x="0" y="0">10%</tspan></text>
        <g id="Caret_down" data-name="Caret down" transform="translate(-19 -2.5)">
          <g id="Group_270231" data-name="Group 270231">
            <g id="Group_270230" data-name="Group 270230" transform="translate(7 8.75)">
              <path id="Path_101161" data-name="Path 101161" d="M12.384,11.067H3.054a.335.335,0,0,1-.261-.544l4.665-5.83a.334.334,0,0,1,.523,0l4.665,5.83A.335.335,0,0,1,12.384,11.067Z" transform="translate(-2.719 -4.567)" fill="#376822"/>
            </g>
          </g>
        </g>
      </g>
      <text id="Includes_indications" data-name="Includes indications" transform="translate(837 393)" fill="#31313a" font-size="14" font-family="SegoeUI, Segoe UI"><tspan x="0" y="15">Includes indications</tspan></text>
      <g id="Group_270643" data-name="Group 270643" transform="translate(624 133)">
        <text id="Package" transform="translate(538 412)" fill="#31313a" font-size="12" font-family="SegoeUI, Segoe UI"><tspan x="0" y="0">Package</tspan></text>
        <path id="Line_2625-3" data-name="Line 2625" d="M11,1.5H0A1.5,1.5,0,0,1-1.5,0,1.5,1.5,0,0,1,0-1.5H11A1.5,1.5,0,0,1,12.5,0,1.5,1.5,0,0,1,11,1.5Z" transform="translate(519 408)" fill="#30bbb1"/>
      </g>
      <text id="Last_year:_1.12M" data-name="Last year: $1.12M" transform="translate(837 544)" fill="#31313a" font-size="14" font-family="SegoeUI, Segoe UI"><tspan x="0" y="0">Last year: </tspan><tspan y="0" font-family="SegoeUI-Semibold, Segoe UI" font-weight="600">$1.12M</tspan></text>
      <g id="Group_270644" data-name="Group 270644" transform="translate(-112.158 39)">
        <path id="Path_103560" data-name="Path 103560" d="M890.519,560.053a1.5,1.5,0,0,1-.447-2.932l42.3-13.226,31.281-12.5a1.5,1.5,0,0,1,1.131.007l29.773,12.349,36.226-7a1.5,1.5,0,0,1,.6.007l32.453,7.085a1.5,1.5,0,0,1-.64,2.931l-32.152-7.019-36.366,7.026a1.5,1.5,0,0,1-.859-.087L964.2,534.407,933.43,546.7q-.054.022-.109.039l-42.354,13.243A1.5,1.5,0,0,1,890.519,560.053Z" transform="translate(255.639 -107.552)" fill="#2777d3"/>
        <path id="Path_103561" data-name="Path 103561" d="M931.345,514.111a1.5,1.5,0,0,1-.269-.024L892.227,507a1.5,1.5,0,1,1,.539-2.951l38.461,7.019,35.61-12.316.028-.009,35.027-11.352,31.716-10.17.051-.016,30.064-8.466a1.5,1.5,0,0,1,.813,2.888l-30.039,8.459-31.685,10.16L967.8,501.589l-35.969,12.44A1.5,1.5,0,0,1,931.345,514.111Z" transform="translate(254.191 -61.611)" fill="#fbac0e"/>
        <path id="Path_103563" data-name="Path 103563" d="M890.942,539.791a1.5,1.5,0,0,1-.61-2.871l39.99-17.774a1.5,1.5,0,0,1,.609-.129h27.61l32.069-11.625a1.5,1.5,0,0,1,.628-.085l42.787,3.336,27.79-7.729a1.5,1.5,0,1,1,.8,2.89l-28.045,7.8a1.506,1.506,0,0,1-.519.05l-42.728-3.331-32.012,11.6a1.5,1.5,0,0,1-.511.09H931.25l-39.7,17.645A1.5,1.5,0,0,1,890.942,539.791Z" transform="translate(255.639 -107.552)" fill="#30bbb1"/>
      </g>
    </g>
    <g id="Group_270753" data-name="Group 270753" transform="translate(-827 340)">
      <g transform="matrix(1, 0, 0, 1, 827, -340)" filter="url(#Card-2)">
        <rect id="Card-5" data-name="Card" width="390" height="246" rx="2" transform="translate(0 662)" fill="#fff"/>
      </g>
      <g id="Group_270686-2" data-name="Group 270686" transform="translate(504 47.99)">
        <text id="Property-2" data-name="Property" transform="translate(538 412)" fill="#31313a" font-size="12" font-family="SegoeUI, Segoe UI"><tspan x="0" y="0">Property</tspan></text>
        <path id="Line_2625-4" data-name="Line 2625" d="M11,1.5H0A1.5,1.5,0,0,1-1.5,0,1.5,1.5,0,0,1,0-1.5H11A1.5,1.5,0,0,1,12.5,0,1.5,1.5,0,0,1,11,1.5Z" transform="translate(519 408)" fill="#fbac0e"/>
      </g>
      <g id="Group_270687-2" data-name="Group 270687" transform="translate(504 25.99)">
        <text id="Liability-2" data-name="Liability" transform="translate(538 412)" fill="#31313a" font-size="12" font-family="SegoeUI, Segoe UI"><tspan x="0" y="0">Liability</tspan></text>
        <path id="Line_2625-5" data-name="Line 2625" d="M11,1.5H0A1.5,1.5,0,0,1-1.5,0,1.5,1.5,0,0,1,0-1.5H11A1.5,1.5,0,0,1,12.5,0,1.5,1.5,0,0,1,11,1.5Z" transform="translate(519 408)" fill="#2777d3"/>
      </g>
      <rect id="Card-6" data-name="Card" width="390" height="61" rx="2" transform="translate(827 322)" fill="#f9f9fa"/>
      <text id="Total_quoted_premium_bridged" data-name="Total quoted premium bridged" transform="translate(837 359)" fill="#31313a" font-size="16" font-family="SegoeUI-Semibold, Segoe UI" font-weight="600"><tspan x="0" y="0">Total quoted premium bridged</tspan></text>
      <path id="Line_27-2" data-name="Line 27" d="M390,.5H0v-1H390Z" transform="translate(827 383)" fill="#e6e6ea"/>
      <text id="_700K" data-name="$700K" transform="translate(837 467)" fill="#31313a" font-size="32" font-family="SegoeUI-Semibold, Segoe UI" font-weight="600"><tspan x="0" y="0">$700K</tspan></text>
      <g id="External-2" data-name="External" transform="translate(1199 353)">
        <g id="Group_270302-2" data-name="Group 270302" transform="translate(-8 -8)">
          <g id="Group_270301-2" data-name="Group 270301">
            <path id="Path_101932-2" data-name="Path 101932" d="M8.169,8.655a.212.212,0,0,0,.3,0l2.642-2.639V7.8a.192.192,0,0,0,.2.2h1.376a.2.2,0,0,0,.2-.2V3.312a.2.2,0,0,0-.2-.2l-4.477,0a.21.21,0,0,0-.21.21V4.689a.2.2,0,0,0,.2.2H9.985L7.342,7.528a.214.214,0,0,0,0,.3Z" fill="#2777d3"/>
            <path id="Path_101933-2" data-name="Path 101933" d="M15.24,0H4.76A.762.762,0,0,0,4,.76V4H.76A.762.762,0,0,0,0,4.76V15.24A.762.762,0,0,0,.76,16H11.24a.762.762,0,0,0,.76-.76V12h3.24a.762.762,0,0,0,.76-.76V.76A.762.762,0,0,0,15.24,0ZM10.667,14.667H1.333V5.333H4V12h6.667Zm4-4H5.333V1.333h9.334Z" fill="#2777d3"/>
          </g>
          <rect id="Rectangle_11495-2" data-name="Rectangle 11495" width="16" height="16" fill="none"/>
        </g>
      </g>
      <g id="Favorite-empty-2" data-name="Favorite-empty" transform="translate(1163 353)">
        <g id="Group_270307-2" data-name="Group 270307" transform="translate(-8 -8)">
          <path id="Path_101936-2" data-name="Path 101936" d="M8.8,6.412l.225.691a.332.332,0,0,0,.317.23h3.313L10.561,8.854l-.587.427a.334.334,0,0,0-.122.372l.225.691.8,2.46-2.092-1.52L8.2,10.857a.333.333,0,0,0-.392,0l-.588.427L5.124,12.8l.8-2.46.225-.691a.334.334,0,0,0-.122-.372l-.587-.427L3.346,7.333H6.659a.332.332,0,0,0,.317-.23L7.2,6.412,8,3.952ZM8,.453A.359.359,0,0,0,7.653.7L5.933,6H.366a.365.365,0,0,0-.215.66l4.5,3.272-1.72,5.3a.364.364,0,0,0,.561.408L8,12.363l4.5,3.272a.364.364,0,0,0,.561-.408l-1.72-5.3,4.5-3.272A.365.365,0,0,0,15.634,6H10.067L8.347.7A.359.359,0,0,0,8,.453Z" transform="translate(0)" fill="#2777d3"/>
          <rect id="Rectangle_11503-2" data-name="Rectangle 11503" width="16" height="16" transform="translate(0)" fill="none"/>
        </g>
      </g>
      <g id="Tags-2" data-name="Tags" transform="translate(857 490)">
        <rect id="Rectangle_9728-2" data-name="Rectangle 9728" width="72" height="38" rx="4" transform="translate(-20 -9)" fill="#d7efcd" opacity="0.25"/>
        <text id="_10_2" data-name="10%" transform="translate(8 18)" fill="#376822" font-size="20" font-family="SegoeUI-Semibold, Segoe UI" font-weight="600"><tspan x="0" y="0">10%</tspan></text>
        <g id="Caret_down-2" data-name="Caret down" transform="translate(-19 -2.5)">
          <g id="Group_270231-2" data-name="Group 270231">
            <g id="Group_270230-2" data-name="Group 270230" transform="translate(7 8.75)">
              <path id="Path_101161-2" data-name="Path 101161" d="M12.384,11.067H3.054a.335.335,0,0,1-.261-.544l4.665-5.83a.334.334,0,0,1,.523,0l4.665,5.83A.335.335,0,0,1,12.384,11.067Z" transform="translate(-2.719 -4.567)" fill="#376822"/>
            </g>
          </g>
        </g>
      </g>
      <text id="Includes_indications-2" data-name="Includes indications" transform="translate(837 393)" fill="#31313a" font-size="14" font-family="SegoeUI, Segoe UI"><tspan x="0" y="15">Includes indications</tspan></text>
      <g id="Group_270643-2" data-name="Group 270643" transform="translate(504 69.99)">
        <text id="Package-2" data-name="Package" transform="translate(538 412)" fill="#31313a" font-size="12" font-family="SegoeUI, Segoe UI"><tspan x="0" y="0">Package</tspan></text>
        <path id="Line_2625-6" data-name="Line 2625" d="M11,1.5H0A1.5,1.5,0,0,1-1.5,0,1.5,1.5,0,0,1,0-1.5H11A1.5,1.5,0,0,1,12.5,0,1.5,1.5,0,0,1,11,1.5Z" transform="translate(519 408)" fill="#30bbb1"/>
      </g>
      <text id="Last_year:_620K" data-name="Last year: $620K" transform="translate(837 544)" fill="#31313a" font-size="14" font-family="SegoeUI, Segoe UI"><tspan x="0" y="0">Last year: </tspan><tspan y="0" font-family="SegoeUI-Semibold, Segoe UI" font-weight="600">$620K</tspan></text>
      <g id="Ring_Chart12" data-name="Ring Chart12" transform="translate(406 -149.01)">
        <path id="Path_103571" data-name="Path 103571" d="M1.016-49.99A50,50,0,0,1,49.994-.794,50,50,0,0,1,2.6,49.932l-.317-10A40,40,0,0,0,40-.635,40,40,0,0,0,1.016-39.987Z" transform="translate(751 621)" fill="#30bbb1"/>
        <path id="Path_103572" data-name="Path 103572" d="M.571,50A50,50,0,0,1-39.4,30.784a50,50,0,0,1-8.974-43.432l9.624,2.726a40,40,0,0,0,7.23,34.548A40,40,0,0,0,.253,40Z" transform="translate(751 621)" fill="#fbac0e"/>
        <path id="Path_103573" data-name="Path 103573" d="M-47.82-14.6A50,50,0,0,1-30.959-39.263l6.032,7.979A40,40,0,0,0-38.2-11.877Z" transform="translate(751 621)" fill="#2777d3"/>
        <path id="Path_103574" data-name="Path 103574" d="M-29.337-40.488a50,50,0,0,1,28.321-9.5v10A40,40,0,0,0-23.305-32.51Z" transform="translate(751 621)" fill="#f9f9fa"/>
        <text id="_6_10" data-name="6/10" transform="translate(751 623.758)" fill="#31313a" font-size="26" font-family="SegoeUI-Semibold, Segoe UI" font-weight="600"><tspan x="-25.08" y="0">6/10</tspan></text>
        <text id="Bridge_ratio" data-name="Bridge ratio" transform="translate(751 643.184)" fill="#31313a" font-size="11" font-family="SegoeUI, Segoe UI"><tspan x="-28.386" y="0">Bridge ratio</tspan></text>
      </g>
    </g>
  </g>
</svg>
