<svg xmlns="http://www.w3.org/2000/svg" xmlns:xlink="http://www.w3.org/1999/xlink" width="485" height="417" viewBox="0 0 485 417">
  <defs>
    <filter id="Rectangle_4683" x="84" y="89" width="318" height="310" filterUnits="userSpaceOnUse">
      <feOffset dy="3" input="SourceAlpha"/>
      <feGaussianBlur stdDeviation="3" result="blur"/>
      <feFlood flood-opacity="0.161"/>
      <feComposite operator="in" in2="blur"/>
      <feComposite in="SourceGraphic"/>
    </filter>
    <clipPath id="clip-select_grouping_specs">
      <rect width="485" height="417"/>
    </clipPath>
  </defs>
  <g id="select_grouping_specs" clip-path="url(#clip-select_grouping_specs)">
    <rect width="485" height="417" fill="#f4f4f6"/>
    <g id="Group_15377" data-name="Group 15377" transform="translate(-39 -37)">
      <text id="State" transform="translate(132 82)" fill="#31313a" font-size="14" font-family="SegoeUI-Semibold, Segoe UI" font-weight="600"><tspan x="0" y="0">State</tspan></text>
      <g id="Group_14579" data-name="Group 14579" transform="translate(132 90)">
        <rect id="Rectangle_288" data-name="Rectangle 288" width="300" height="42" rx="4" fill="#fff"/>
        <path id="Rectangle_288_-_Outline" data-name="Rectangle 288 - Outline" d="M4,2A2,2,0,0,0,2,4V38a2,2,0,0,0,2,2H296a2,2,0,0,0,2-2V4a2,2,0,0,0-2-2H4M4,0H296a4,4,0,0,1,4,4V38a4,4,0,0,1-4,4H4a4,4,0,0,1-4-4V4A4,4,0,0,1,4,0Z" fill="#4e92df"/>
        <g id="Group_7793" data-name="Group 7793" transform="translate(266 9)">
          <rect id="Rectangle_3867" data-name="Rectangle 3867" width="24" height="24" fill="none"/>
          <path id="Path_5558" data-name="Path 5558" d="M56,9.4l-3,3-3-3a.967.967,0,0,0-1.4,0h0a.967.967,0,0,0,0,1.4l3.7,3.7a.967.967,0,0,0,1.4,0l3.7-3.7a.967.967,0,0,0,0-1.4h0A.965.965,0,0,0,56,9.4Z" transform="translate(65 23.9) rotate(180)" fill="#9494a4"/>
        </g>
      </g>
      <text id="Select_a_state" data-name="Select a state" transform="translate(147 117)" fill="#cbcbd2" font-size="14" font-family="SegoeUI, Segoe UI"><tspan x="0" y="0">Select a state</tspan></text>
      <path id="Line_16" data-name="Line 16" d="M.5,19h-1V0h1Z" transform="translate(146.3 104)" fill="#5b5b5b"/>
      <g transform="matrix(1, 0, 0, 1, 39, 37)" filter="url(#Rectangle_4683)">
        <rect id="Rectangle_4683-2" data-name="Rectangle 4683" width="300" height="292" rx="4" transform="translate(93 95)" fill="#fff"/>
      </g>
      <rect id="Rectangle_4684" data-name="Rectangle 4684" width="300" height="36" transform="translate(132 168)" fill="none"/>
      <rect id="Rectangle_4685" data-name="Rectangle 4685" width="300" height="36" transform="translate(132 240)" fill="none"/>
      <rect id="Rectangle_4686" data-name="Rectangle 4686" width="300" height="36" transform="translate(132 312)" fill="none"/>
      <rect id="Rectangle_4687" data-name="Rectangle 4687" width="300" height="36" transform="translate(132 384)" fill="none"/>
      <rect id="Rectangle_4689" data-name="Rectangle 4689" width="300" height="36" transform="translate(132 204)" fill="none"/>
      <rect id="Rectangle_4690" data-name="Rectangle 4690" width="300" height="36" transform="translate(132 276)" fill="none"/>
      <text id="Nevada" transform="translate(147 262)" fill="#494955" font-size="14" font-family="SegoeUI, Segoe UI"><tspan x="0" y="0">Nevada</tspan></text>
      <text id="Oregon" transform="translate(147 298)" fill="#494955" font-size="14" font-family="SegoeUI, Segoe UI"><tspan x="0" y="0">Oregon</tspan></text>
      <text id="Idaho" transform="translate(147 226)" fill="#494955" font-size="14" font-family="SegoeUI, Segoe UI"><tspan x="0" y="0">Idaho</tspan></text>
      <text id="California" transform="translate(147 190)" fill="#494955" font-size="14" font-family="SegoeUI, Segoe UI"><tspan x="0" y="0">California</tspan></text>
      <text id="Washington" transform="translate(147 334)" fill="#494955" font-size="14" font-family="SegoeUI, Segoe UI"><tspan x="0" y="0">Washington</tspan></text>
      <text id="MOUNTAIN" transform="translate(140 375)" fill="#cbcbd2" font-size="12" font-family="SegoeUI-Bold, Segoe UI" font-weight="700"><tspan x="0" y="0">MOUNTAIN</tspan></text>
      <text id="Arizona" transform="translate(147 406)" fill="#494955" font-size="14" font-family="SegoeUI, Segoe UI"><tspan x="0" y="0">Arizona</tspan></text>
      <rect id="Rectangle_4691" data-name="Rectangle 4691" width="5" height="100" rx="2.5" transform="translate(422 137)" fill="#78788c"/>
      <text id="PACIFIC" transform="translate(140 159)" fill="#cbcbd2" font-size="12" font-family="SegoeUI-Bold, Segoe UI" font-weight="700"><tspan x="0" y="0">PACIFIC</tspan></text>
    </g>
  </g>
</svg>
