<svg xmlns="http://www.w3.org/2000/svg" xmlns:xlink="http://www.w3.org/1999/xlink" width="1000" height="684" viewBox="0 0 1000 684">
  <defs>
    <filter id="White_background" x="275" y="21" width="440" height="148" filterUnits="userSpaceOnUse">
      <feOffset dy="6" input="SourceAlpha"/>
      <feGaussianBlur stdDeviation="5" result="blur"/>
      <feFlood flood-opacity="0.302"/>
      <feComposite operator="in" in2="blur"/>
      <feComposite in="SourceGraphic"/>
    </filter>
    <clipPath id="clip-path">
      <rect id="Rectangle_8206" data-name="Rectangle 8206" width="16" height="16" fill="none"/>
    </clipPath>
    <filter id="White_background-2" x="285" y="169" width="430" height="158" filterUnits="userSpaceOnUse">
      <feOffset dy="6" input="SourceAlpha"/>
      <feGaussianBlur stdDeviation="5" result="blur-2"/>
      <feFlood flood-opacity="0.302"/>
      <feComposite operator="in" in2="blur-2"/>
      <feComposite in="SourceGraphic"/>
    </filter>
    <filter id="White_background-3" x="285" y="348" width="440" height="148" filterUnits="userSpaceOnUse">
      <feOffset dy="6" input="SourceAlpha"/>
      <feGaussianBlur stdDeviation="5" result="blur-3"/>
      <feFlood flood-opacity="0.302"/>
      <feComposite operator="in" in2="blur-3"/>
      <feComposite in="SourceGraphic"/>
    </filter>
    <filter id="White_background-4" x="285" y="527" width="430" height="148" filterUnits="userSpaceOnUse">
      <feOffset dy="6" input="SourceAlpha"/>
      <feGaussianBlur stdDeviation="5" result="blur-4"/>
      <feFlood flood-opacity="0.302"/>
      <feComposite operator="in" in2="blur-4"/>
      <feComposite in="SourceGraphic"/>
    </filter>
    <clipPath id="clip-select_positioning">
      <rect width="1000" height="684"/>
    </clipPath>
  </defs>
  <g id="select_positioning" clip-path="url(#clip-select_positioning)">
    <rect width="1000" height="684" fill="#f4f4f6"/>
    <g id="Group_15324" data-name="Group 15324" transform="translate(80 -20)">
      <g id="Group_15303" data-name="Group 15303" transform="translate(-10255 -4370)">
        <g transform="matrix(1, 0, 0, 1, 10175, 4390)" filter="url(#White_background)">
          <path id="White_background-5" data-name="White background" d="M4,0H396a4,4,0,0,1,4,4V114a4,4,0,0,1-4,4H4a4,4,0,0,1-4-4V73.378L-10,62.205,0,52.074V4A4,4,0,0,1,4,0Z" transform="translate(300 30)" fill="#fff"/>
        </g>
        <path id="Path_10341" data-name="Path 10341" d="M3.8-3.859V0H1.281V-11.2H5.234q4.234,0,4.234,3.57A3.426,3.426,0,0,1,8.254-4.9,4.813,4.813,0,0,1,5.008-3.859Zm0-5.406v3.492H4.8q2.016,0,2.016-1.766,0-1.727-2.016-1.727ZM14.2.2A4.3,4.3,0,0,1,11.059-.926,4.064,4.064,0,0,1,9.914-3.969,4.065,4.065,0,0,1,11.1-7.074,4.487,4.487,0,0,1,14.313-8.2a4.249,4.249,0,0,1,3.125,1.121A3.985,3.985,0,0,1,18.57-4.109,4.23,4.23,0,0,1,17.4-.961,4.348,4.348,0,0,1,14.2.2Zm.063-6.5a1.647,1.647,0,0,0-1.359.6A2.653,2.653,0,0,0,12.422-4q0,2.3,1.859,2.3,1.773,0,1.773-2.367Q16.055-6.3,14.266-6.3ZM22.672-.93h-.031V3.68H20.172V-8h2.469v1.2h.031a2.9,2.9,0,0,1,2.57-1.4,2.892,2.892,0,0,1,2.4,1.066,4.54,4.54,0,0,1,.848,2.9A4.922,4.922,0,0,1,27.5-1.016,3.222,3.222,0,0,1,24.875.2,2.491,2.491,0,0,1,22.672-.93ZM22.6-4.211v.641a2.037,2.037,0,0,0,.438,1.352,1.424,1.424,0,0,0,1.148.523A1.514,1.514,0,0,0,25.5-2.348,3.15,3.15,0,0,0,25.961-4.2q0-2.109-1.641-2.109a1.541,1.541,0,0,0-1.238.574A2.29,2.29,0,0,0,22.6-4.211ZM33.906.2A4.3,4.3,0,0,1,30.762-.926a4.064,4.064,0,0,1-1.145-3.043A4.065,4.065,0,0,1,30.8-7.074,4.487,4.487,0,0,1,34.016-8.2a4.249,4.249,0,0,1,3.125,1.121,3.985,3.985,0,0,1,1.133,2.965A4.23,4.23,0,0,1,37.105-.961,4.348,4.348,0,0,1,33.906.2Zm.063-6.5a1.647,1.647,0,0,0-1.359.6A2.653,2.653,0,0,0,32.125-4q0,2.3,1.859,2.3,1.773,0,1.773-2.367Q35.758-6.3,33.969-6.3ZM47.492-8,44.516,0H41.7L38.867-8h2.641L42.9-3.07a7.2,7.2,0,0,1,.273,1.422H43.2a8.069,8.069,0,0,1,.289-1.375L44.914-8Zm8.086,4.7H50.359q.125,1.742,2.2,1.742a4.286,4.286,0,0,0,2.32-.625V-.4A6.1,6.1,0,0,1,51.992.2,4.058,4.058,0,0,1,48.984-.879a4.058,4.058,0,0,1-1.07-3A4.281,4.281,0,0,1,49.07-7.031,3.852,3.852,0,0,1,51.914-8.2a3.5,3.5,0,0,1,2.707,1.039,4,4,0,0,1,.957,2.82ZM53.289-4.812q0-1.719-1.391-1.719a1.328,1.328,0,0,0-1.027.492,2.234,2.234,0,0,0-.527,1.227Zm8.977-.961a2.142,2.142,0,0,0-1.039-.242,1.5,1.5,0,0,0-1.258.59,2.573,2.573,0,0,0-.453,1.605V0H57.047V-8h2.469v1.484h.031a2.136,2.136,0,0,1,2.109-1.625,1.59,1.59,0,0,1,.609.094ZM79.414-8l-2.3,8H74.516l-1.18-4.687A4.772,4.772,0,0,1,73.2-5.711h-.047A6.124,6.124,0,0,1,73-4.719L71.734,0H69.172L66.914-8H69.43l1.1,5.219a6.785,6.785,0,0,1,.117.891H70.7a4.932,4.932,0,0,1,.141-.922L72.211-8h2.352L75.8-2.781a8.3,8.3,0,0,1,.109.906h.055a9.017,9.017,0,0,1,.125-.906L77.125-8Zm7.828,8H84.906V-1.148h-.031A2.607,2.607,0,0,1,82.492.2a2.492,2.492,0,0,1-1.832-.66,2.366,2.366,0,0,1-.668-1.762q0-2.328,2.758-2.687L84.922-5.2q0-1.312-1.422-1.312a4.853,4.853,0,0,0-2.719.852V-7.523a6.116,6.116,0,0,1,1.41-.469,7.413,7.413,0,0,1,1.629-.2q3.422,0,3.422,3.414Zm-2.32-3.25v-.539L83.469-3.6q-1.2.156-1.2,1.086a.9.9,0,0,0,.293.691,1.126,1.126,0,0,0,.793.27,1.462,1.462,0,0,0,1.133-.48A1.735,1.735,0,0,0,84.922-3.25ZM91.664,0H89.2V-11.844h2.469Zm10.094,0H98.8L96.242-3.969h-.031V0H93.742V-11.844h2.469V-4.3h.031L98.625-8h2.93L98.688-4.242Zm5.672-.094A3.649,3.649,0,0,1,105.781.2q-2.609,0-2.609-2.711V-6.18h-1.3V-8h1.3V-9.727l2.461-.7V-8h1.8v1.82h-1.8v3.234q0,1.25.992,1.25a1.673,1.673,0,0,0,.8-.227ZM116.5,0h-2.461V-4.547q0-1.758-1.281-1.758a1.312,1.312,0,0,0-1.062.492,1.9,1.9,0,0,0-.406,1.25V0H108.82V-11.844h2.469v5.031h.031A2.805,2.805,0,0,1,113.781-8.2q2.719,0,2.719,3.281Zm7.172-5.773a2.142,2.142,0,0,0-1.039-.242,1.5,1.5,0,0,0-1.258.59,2.573,2.573,0,0,0-.453,1.605V0h-2.469V-8h2.469v1.484h.031a2.136,2.136,0,0,1,2.109-1.625,1.59,1.59,0,0,1,.609.094ZM128.57.2a4.3,4.3,0,0,1-3.145-1.121,4.064,4.064,0,0,1-1.145-3.043,4.065,4.065,0,0,1,1.188-3.105A4.487,4.487,0,0,1,128.68-8.2,4.249,4.249,0,0,1,131.8-7.074a3.985,3.985,0,0,1,1.133,2.965A4.23,4.23,0,0,1,131.77-.961,4.348,4.348,0,0,1,128.57.2Zm.063-6.5a1.647,1.647,0,0,0-1.359.6,2.653,2.653,0,0,0-.484,1.7q0,2.3,1.859,2.3,1.773,0,1.773-2.367Q130.422-6.3,128.633-6.3ZM142.141,0H139.68V-1.219h-.039A2.792,2.792,0,0,1,137.2.2q-2.781,0-2.781-3.367V-8h2.461v4.609q0,1.7,1.344,1.7a1.329,1.329,0,0,0,1.063-.465,1.874,1.874,0,0,0,.4-1.262V-8h2.461Zm9.922-.914a4.526,4.526,0,0,1-1.289,3.449,5.224,5.224,0,0,1-3.734,1.223,5.919,5.919,0,0,1-2.562-.461V1.219a4.907,4.907,0,0,0,2.492.719,2.684,2.684,0,0,0,1.938-.66,2.369,2.369,0,0,0,.688-1.793v-.633h-.031A2.757,2.757,0,0,1,147.07.2a3,3,0,0,1-2.43-1.078,4.372,4.372,0,0,1-.9-2.891,4.87,4.87,0,0,1,1-3.227,3.265,3.265,0,0,1,2.633-1.2,2.429,2.429,0,0,1,2.188,1.125h.031V-8h2.469Zm-2.437-2.93v-.633a1.945,1.945,0,0,0-.449-1.293,1.453,1.453,0,0,0-1.168-.535,1.51,1.51,0,0,0-1.289.641,3.012,3.012,0,0,0-.469,1.8,2.543,2.543,0,0,0,.445,1.582,1.451,1.451,0,0,0,1.219.582,1.511,1.511,0,0,0,1.238-.59A2.418,2.418,0,0,0,149.625-3.844ZM161.8,0h-2.461V-4.547q0-1.758-1.281-1.758A1.312,1.312,0,0,0,157-5.812a1.9,1.9,0,0,0-.406,1.25V0h-2.469V-11.844h2.469v5.031h.031A2.805,2.805,0,0,1,159.086-8.2q2.719,0,2.719,3.281Z" transform="translate(10495 4457)" fill="#3d3d3d"/>
        <path id="Path_10318" data-name="Path 10318" d="M4,0H396a4,4,0,0,1,4,4v6H0V4A4,4,0,0,1,4,0Z" transform="translate(10475 4420)" fill="#2372c0"/>
        <g id="Link_Button" data-name="Link Button" transform="translate(10723 4482)">
          <g id="Group_264143" data-name="Group 264143">
            <rect id="Rectangle_6075" data-name="Rectangle 6075" width="60" height="36" rx="18" fill="rgba(255,255,255,0)"/>
            <text id="Back" transform="translate(15 23)" fill="#2777d3" font-size="14" font-family="SegoeUI-Semibold, Segoe UI" font-weight="600"><tspan x="0" y="0">Back</tspan></text>
          </g>
        </g>
        <g id="Primary_Button" data-name="Primary Button" transform="translate(10793 4482)">
          <rect id="Rectangle_3990" data-name="Rectangle 3990" width="60" height="36" rx="18" fill="#2777d3"/>
          <text id="Next" transform="translate(15 23)" fill="#fff" font-size="14" font-family="SegoeUI-Semibold, Segoe UI" font-weight="600"><tspan x="0" y="0">Next</tspan></text>
        </g>
        <g id="Remove" transform="translate(10857 4448)">
          <g id="Group_264409" data-name="Group 264409" transform="translate(-8 -8)">
            <path id="Path_10419" data-name="Path 10419" d="M12.85,11.44a.5.5,0,0,1,0,.71l-.7.7a.5.5,0,0,1-.71,0L8,9.41,4.56,12.85a.5.5,0,0,1-.71,0l-.7-.7a.5.5,0,0,1,0-.71L6.59,8,3.15,4.56a.5.5,0,0,1,0-.71l.7-.7a.5.5,0,0,1,.71,0L8,6.59l3.44-3.44a.5.5,0,0,1,.71,0l.7.7a.5.5,0,0,1,0,.71L9.41,8Z" fill="#303030"/>
            <rect id="Rectangle_8234" data-name="Rectangle 8234" width="16" height="16" fill="none"/>
          </g>
        </g>
      </g>
      <g id="help" transform="translate(197 112)">
        <g id="Group_15319" data-name="Group 15319" transform="translate(-8 -8)" clip-path="url(#clip-path)">
          <path id="Path_10365" data-name="Path 10365" d="M15.7,14.5h0a11.3,11.3,0,0,1-1-3.7,7.6,7.6,0,0,0,.7-3.2,7.7,7.7,0,1,0-5.1,7.2A19,19,0,0,0,14.7,16h.2a1,1,0,0,0,.9-1.5m-5-.9h-.5a6.4,6.4,0,1,1,4-5.9,6.3,6.3,0,0,1-.7,2.8v.3a13.6,13.6,0,0,0,.9,3.8,15.5,15.5,0,0,1-3.7-1" fill="#2777d3"/>
          <path id="Path_10366" data-name="Path 10366" d="M8,9.9a.8.8,0,1,0,.8.8h0A.8.8,0,0,0,8,9.9" fill="#2777d3"/>
          <path id="Path_10367" data-name="Path 10367" d="M8.1,3.5A2.5,2.5,0,0,0,5.6,6H6.9c0-.1.1-1.3,1.2-1.3a1,1,0,0,1,1,.6A1.3,1.3,0,0,1,9,6.7l-.6.5A1.8,1.8,0,0,0,7.5,9H8.7c0-.5,0-.5.4-.8l.7-.6a2.5,2.5,0,0,0,.4-2.7A2.2,2.2,0,0,0,8.1,3.5" fill="#2777d3"/>
        </g>
      </g>
    </g>
    <g id="Group_15328" data-name="Group 15328" transform="translate(80 -20)">
      <g id="Group_15306" data-name="Group 15306" transform="translate(-10255 -4222)">
        <g transform="matrix(1, 0, 0, 1, 10175, 4242)" filter="url(#White_background-2)">
          <path id="White_background-6" data-name="White background" d="M4,0H396a4,4,0,0,1,4,4V114a4,4,0,0,1-4,4H212.115l-11.564,10-11.115-10H4a4,4,0,0,1-4-4V4A4,4,0,0,1,4,0Z" transform="translate(300 178)" fill="#fff"/>
        </g>
        <path id="Path_10342" data-name="Path 10342" d="M3.8-3.859V0H1.281V-11.2H5.234q4.234,0,4.234,3.57A3.426,3.426,0,0,1,8.254-4.9,4.813,4.813,0,0,1,5.008-3.859Zm0-5.406v3.492H4.8q2.016,0,2.016-1.766,0-1.727-2.016-1.727ZM14.2.2A4.3,4.3,0,0,1,11.059-.926,4.064,4.064,0,0,1,9.914-3.969,4.065,4.065,0,0,1,11.1-7.074,4.487,4.487,0,0,1,14.313-8.2a4.249,4.249,0,0,1,3.125,1.121A3.985,3.985,0,0,1,18.57-4.109,4.23,4.23,0,0,1,17.4-.961,4.348,4.348,0,0,1,14.2.2Zm.063-6.5a1.647,1.647,0,0,0-1.359.6A2.653,2.653,0,0,0,12.422-4q0,2.3,1.859,2.3,1.773,0,1.773-2.367Q16.055-6.3,14.266-6.3ZM22.672-.93h-.031V3.68H20.172V-8h2.469v1.2h.031a2.9,2.9,0,0,1,2.57-1.4,2.892,2.892,0,0,1,2.4,1.066,4.54,4.54,0,0,1,.848,2.9A4.922,4.922,0,0,1,27.5-1.016,3.222,3.222,0,0,1,24.875.2,2.491,2.491,0,0,1,22.672-.93ZM22.6-4.211v.641a2.037,2.037,0,0,0,.438,1.352,1.424,1.424,0,0,0,1.148.523A1.514,1.514,0,0,0,25.5-2.348,3.15,3.15,0,0,0,25.961-4.2q0-2.109-1.641-2.109a1.541,1.541,0,0,0-1.238.574A2.29,2.29,0,0,0,22.6-4.211ZM33.906.2A4.3,4.3,0,0,1,30.762-.926a4.064,4.064,0,0,1-1.145-3.043A4.065,4.065,0,0,1,30.8-7.074,4.487,4.487,0,0,1,34.016-8.2a4.249,4.249,0,0,1,3.125,1.121,3.985,3.985,0,0,1,1.133,2.965A4.23,4.23,0,0,1,37.105-.961,4.348,4.348,0,0,1,33.906.2Zm.063-6.5a1.647,1.647,0,0,0-1.359.6A2.653,2.653,0,0,0,32.125-4q0,2.3,1.859,2.3,1.773,0,1.773-2.367Q35.758-6.3,33.969-6.3ZM47.492-8,44.516,0H41.7L38.867-8h2.641L42.9-3.07a7.2,7.2,0,0,1,.273,1.422H43.2a8.069,8.069,0,0,1,.289-1.375L44.914-8Zm8.086,4.7H50.359q.125,1.742,2.2,1.742a4.286,4.286,0,0,0,2.32-.625V-.4A6.1,6.1,0,0,1,51.992.2,4.058,4.058,0,0,1,48.984-.879a4.058,4.058,0,0,1-1.07-3A4.281,4.281,0,0,1,49.07-7.031,3.852,3.852,0,0,1,51.914-8.2a3.5,3.5,0,0,1,2.707,1.039,4,4,0,0,1,.957,2.82ZM53.289-4.812q0-1.719-1.391-1.719a1.328,1.328,0,0,0-1.027.492,2.234,2.234,0,0,0-.527,1.227Zm8.977-.961a2.142,2.142,0,0,0-1.039-.242,1.5,1.5,0,0,0-1.258.59,2.573,2.573,0,0,0-.453,1.605V0H57.047V-8h2.469v1.484h.031a2.136,2.136,0,0,1,2.109-1.625,1.59,1.59,0,0,1,.609.094ZM79.414-8l-2.3,8H74.516l-1.18-4.687A4.772,4.772,0,0,1,73.2-5.711h-.047A6.124,6.124,0,0,1,73-4.719L71.734,0H69.172L66.914-8H69.43l1.1,5.219a6.785,6.785,0,0,1,.117.891H70.7a4.932,4.932,0,0,1,.141-.922L72.211-8h2.352L75.8-2.781a8.3,8.3,0,0,1,.109.906h.055a9.017,9.017,0,0,1,.125-.906L77.125-8Zm7.828,8H84.906V-1.148h-.031A2.607,2.607,0,0,1,82.492.2a2.492,2.492,0,0,1-1.832-.66,2.366,2.366,0,0,1-.668-1.762q0-2.328,2.758-2.687L84.922-5.2q0-1.312-1.422-1.312a4.853,4.853,0,0,0-2.719.852V-7.523a6.116,6.116,0,0,1,1.41-.469,7.413,7.413,0,0,1,1.629-.2q3.422,0,3.422,3.414Zm-2.32-3.25v-.539L83.469-3.6q-1.2.156-1.2,1.086a.9.9,0,0,0,.293.691,1.126,1.126,0,0,0,.793.27,1.462,1.462,0,0,0,1.133-.48A1.735,1.735,0,0,0,84.922-3.25ZM91.664,0H89.2V-11.844h2.469Zm10.094,0H98.8L96.242-3.969h-.031V0H93.742V-11.844h2.469V-4.3h.031L98.625-8h2.93L98.688-4.242Zm5.672-.094A3.649,3.649,0,0,1,105.781.2q-2.609,0-2.609-2.711V-6.18h-1.3V-8h1.3V-9.727l2.461-.7V-8h1.8v1.82h-1.8v3.234q0,1.25.992,1.25a1.673,1.673,0,0,0,.8-.227ZM116.5,0h-2.461V-4.547q0-1.758-1.281-1.758a1.312,1.312,0,0,0-1.062.492,1.9,1.9,0,0,0-.406,1.25V0H108.82V-11.844h2.469v5.031h.031A2.805,2.805,0,0,1,113.781-8.2q2.719,0,2.719,3.281Zm7.172-5.773a2.142,2.142,0,0,0-1.039-.242,1.5,1.5,0,0,0-1.258.59,2.573,2.573,0,0,0-.453,1.605V0h-2.469V-8h2.469v1.484h.031a2.136,2.136,0,0,1,2.109-1.625,1.59,1.59,0,0,1,.609.094ZM128.57.2a4.3,4.3,0,0,1-3.145-1.121,4.064,4.064,0,0,1-1.145-3.043,4.065,4.065,0,0,1,1.188-3.105A4.487,4.487,0,0,1,128.68-8.2,4.249,4.249,0,0,1,131.8-7.074a3.985,3.985,0,0,1,1.133,2.965A4.23,4.23,0,0,1,131.77-.961,4.348,4.348,0,0,1,128.57.2Zm.063-6.5a1.647,1.647,0,0,0-1.359.6,2.653,2.653,0,0,0-.484,1.7q0,2.3,1.859,2.3,1.773,0,1.773-2.367Q130.422-6.3,128.633-6.3ZM142.141,0H139.68V-1.219h-.039A2.792,2.792,0,0,1,137.2.2q-2.781,0-2.781-3.367V-8h2.461v4.609q0,1.7,1.344,1.7a1.329,1.329,0,0,0,1.063-.465,1.874,1.874,0,0,0,.4-1.262V-8h2.461Zm9.922-.914a4.526,4.526,0,0,1-1.289,3.449,5.224,5.224,0,0,1-3.734,1.223,5.919,5.919,0,0,1-2.562-.461V1.219a4.907,4.907,0,0,0,2.492.719,2.684,2.684,0,0,0,1.938-.66,2.369,2.369,0,0,0,.688-1.793v-.633h-.031A2.757,2.757,0,0,1,147.07.2a3,3,0,0,1-2.43-1.078,4.372,4.372,0,0,1-.9-2.891,4.87,4.87,0,0,1,1-3.227,3.265,3.265,0,0,1,2.633-1.2,2.429,2.429,0,0,1,2.188,1.125h.031V-8h2.469Zm-2.437-2.93v-.633a1.945,1.945,0,0,0-.449-1.293,1.453,1.453,0,0,0-1.168-.535,1.51,1.51,0,0,0-1.289.641,3.012,3.012,0,0,0-.469,1.8,2.543,2.543,0,0,0,.445,1.582,1.451,1.451,0,0,0,1.219.582,1.511,1.511,0,0,0,1.238-.59A2.418,2.418,0,0,0,149.625-3.844ZM161.8,0h-2.461V-4.547q0-1.758-1.281-1.758A1.312,1.312,0,0,0,157-5.812a1.9,1.9,0,0,0-.406,1.25V0h-2.469V-11.844h2.469v5.031h.031A2.805,2.805,0,0,1,159.086-8.2q2.719,0,2.719,3.281Z" transform="translate(10495 4457)" fill="#3d3d3d"/>
        <path id="Path_10320" data-name="Path 10320" d="M4,0H396a4,4,0,0,1,4,4v6H0V4A4,4,0,0,1,4,0Z" transform="translate(10475 4420)" fill="#2372c0"/>
        <g id="Link_Button-2" data-name="Link Button" transform="translate(10723 4482)">
          <g id="Group_264143-2" data-name="Group 264143">
            <rect id="Rectangle_6075-2" data-name="Rectangle 6075" width="60" height="36" rx="18" fill="rgba(255,255,255,0)"/>
            <text id="Back-2" data-name="Back" transform="translate(15 23)" fill="#2777d3" font-size="14" font-family="SegoeUI-Semibold, Segoe UI" font-weight="600"><tspan x="0" y="0">Back</tspan></text>
          </g>
        </g>
        <g id="Primary_Button-2" data-name="Primary Button" transform="translate(10793 4482)">
          <rect id="Rectangle_3990-2" data-name="Rectangle 3990" width="60" height="36" rx="18" fill="#2777d3"/>
          <text id="Next-2" data-name="Next" transform="translate(15 23)" fill="#fff" font-size="14" font-family="SegoeUI-Semibold, Segoe UI" font-weight="600"><tspan x="0" y="0">Next</tspan></text>
        </g>
        <g id="Remove-2" data-name="Remove" transform="translate(10857 4448)">
          <g id="Group_264409-2" data-name="Group 264409" transform="translate(-8 -8)">
            <path id="Path_10419-2" data-name="Path 10419" d="M12.85,11.44a.5.5,0,0,1,0,.71l-.7.7a.5.5,0,0,1-.71,0L8,9.41,4.56,12.85a.5.5,0,0,1-.71,0l-.7-.7a.5.5,0,0,1,0-.71L6.59,8,3.15,4.56a.5.5,0,0,1,0-.71l.7-.7a.5.5,0,0,1,.71,0L8,6.59l3.44-3.44a.5.5,0,0,1,.71,0l.7.7a.5.5,0,0,1,0,.71L9.41,8Z" fill="#303030"/>
            <rect id="Rectangle_8234-2" data-name="Rectangle 8234" width="16" height="16" fill="none"/>
          </g>
        </g>
      </g>
      <g id="help-2" data-name="help" transform="translate(421 339)">
        <g id="Group_15326" data-name="Group 15326" transform="translate(-8 -8)" clip-path="url(#clip-path)">
          <path id="Path_10380" data-name="Path 10380" d="M15.7,14.5h0a11.3,11.3,0,0,1-1-3.7,7.6,7.6,0,0,0,.7-3.2,7.7,7.7,0,1,0-5.1,7.2A19,19,0,0,0,14.7,16h.2a1,1,0,0,0,.9-1.5m-5-.9h-.5a6.4,6.4,0,1,1,4-5.9,6.3,6.3,0,0,1-.7,2.8v.3a13.6,13.6,0,0,0,.9,3.8,15.5,15.5,0,0,1-3.7-1" fill="#2777d3"/>
          <path id="Path_10381" data-name="Path 10381" d="M8,9.9a.8.8,0,1,0,.8.8h0A.8.8,0,0,0,8,9.9" fill="#2777d3"/>
          <path id="Path_10382" data-name="Path 10382" d="M8.1,3.5A2.5,2.5,0,0,0,5.6,6H6.9c0-.1.1-1.3,1.2-1.3a1,1,0,0,1,1,.6A1.3,1.3,0,0,1,9,6.7l-.6.5A1.8,1.8,0,0,0,7.5,9H8.7c0-.5,0-.5.4-.8l.7-.6a2.5,2.5,0,0,0,.4-2.7A2.2,2.2,0,0,0,8.1,3.5" fill="#2777d3"/>
        </g>
      </g>
    </g>
    <g id="Group_15332" data-name="Group 15332" transform="translate(80 -20)">
      <g id="Group_15305" data-name="Group 15305" transform="translate(160 1)">
        <g transform="matrix(1, 0, 0, 1, -240, 19)" filter="url(#White_background-3)">
          <path id="White_background-7" data-name="White background" d="M4,0H396a4,4,0,0,1,4,4V114a4,4,0,0,1-4,4H4a4,4,0,0,1-4-4V67.378L-10,56.205,0,46.074V4A4,4,0,0,1,4,0Z" transform="translate(700 475) rotate(180)" fill="#fff"/>
        </g>
        <path id="Path_10343" data-name="Path 10343" d="M3.8-3.859V0H1.281V-11.2H5.234q4.234,0,4.234,3.57A3.426,3.426,0,0,1,8.254-4.9,4.813,4.813,0,0,1,5.008-3.859Zm0-5.406v3.492H4.8q2.016,0,2.016-1.766,0-1.727-2.016-1.727ZM14.2.2A4.3,4.3,0,0,1,11.059-.926,4.064,4.064,0,0,1,9.914-3.969,4.065,4.065,0,0,1,11.1-7.074,4.487,4.487,0,0,1,14.313-8.2a4.249,4.249,0,0,1,3.125,1.121A3.985,3.985,0,0,1,18.57-4.109,4.23,4.23,0,0,1,17.4-.961,4.348,4.348,0,0,1,14.2.2Zm.063-6.5a1.647,1.647,0,0,0-1.359.6A2.653,2.653,0,0,0,12.422-4q0,2.3,1.859,2.3,1.773,0,1.773-2.367Q16.055-6.3,14.266-6.3ZM22.672-.93h-.031V3.68H20.172V-8h2.469v1.2h.031a2.9,2.9,0,0,1,2.57-1.4,2.892,2.892,0,0,1,2.4,1.066,4.54,4.54,0,0,1,.848,2.9A4.922,4.922,0,0,1,27.5-1.016,3.222,3.222,0,0,1,24.875.2,2.491,2.491,0,0,1,22.672-.93ZM22.6-4.211v.641a2.037,2.037,0,0,0,.438,1.352,1.424,1.424,0,0,0,1.148.523A1.514,1.514,0,0,0,25.5-2.348,3.15,3.15,0,0,0,25.961-4.2q0-2.109-1.641-2.109a1.541,1.541,0,0,0-1.238.574A2.29,2.29,0,0,0,22.6-4.211ZM33.906.2A4.3,4.3,0,0,1,30.762-.926a4.064,4.064,0,0,1-1.145-3.043A4.065,4.065,0,0,1,30.8-7.074,4.487,4.487,0,0,1,34.016-8.2a4.249,4.249,0,0,1,3.125,1.121,3.985,3.985,0,0,1,1.133,2.965A4.23,4.23,0,0,1,37.105-.961,4.348,4.348,0,0,1,33.906.2Zm.063-6.5a1.647,1.647,0,0,0-1.359.6A2.653,2.653,0,0,0,32.125-4q0,2.3,1.859,2.3,1.773,0,1.773-2.367Q35.758-6.3,33.969-6.3ZM47.492-8,44.516,0H41.7L38.867-8h2.641L42.9-3.07a7.2,7.2,0,0,1,.273,1.422H43.2a8.069,8.069,0,0,1,.289-1.375L44.914-8Zm8.086,4.7H50.359q.125,1.742,2.2,1.742a4.286,4.286,0,0,0,2.32-.625V-.4A6.1,6.1,0,0,1,51.992.2,4.058,4.058,0,0,1,48.984-.879a4.058,4.058,0,0,1-1.07-3A4.281,4.281,0,0,1,49.07-7.031,3.852,3.852,0,0,1,51.914-8.2a3.5,3.5,0,0,1,2.707,1.039,4,4,0,0,1,.957,2.82ZM53.289-4.812q0-1.719-1.391-1.719a1.328,1.328,0,0,0-1.027.492,2.234,2.234,0,0,0-.527,1.227Zm8.977-.961a2.142,2.142,0,0,0-1.039-.242,1.5,1.5,0,0,0-1.258.59,2.573,2.573,0,0,0-.453,1.605V0H57.047V-8h2.469v1.484h.031a2.136,2.136,0,0,1,2.109-1.625,1.59,1.59,0,0,1,.609.094ZM79.414-8l-2.3,8H74.516l-1.18-4.687A4.772,4.772,0,0,1,73.2-5.711h-.047A6.124,6.124,0,0,1,73-4.719L71.734,0H69.172L66.914-8H69.43l1.1,5.219a6.785,6.785,0,0,1,.117.891H70.7a4.932,4.932,0,0,1,.141-.922L72.211-8h2.352L75.8-2.781a8.3,8.3,0,0,1,.109.906h.055a9.017,9.017,0,0,1,.125-.906L77.125-8Zm7.828,8H84.906V-1.148h-.031A2.607,2.607,0,0,1,82.492.2a2.492,2.492,0,0,1-1.832-.66,2.366,2.366,0,0,1-.668-1.762q0-2.328,2.758-2.687L84.922-5.2q0-1.312-1.422-1.312a4.853,4.853,0,0,0-2.719.852V-7.523a6.116,6.116,0,0,1,1.41-.469,7.413,7.413,0,0,1,1.629-.2q3.422,0,3.422,3.414Zm-2.32-3.25v-.539L83.469-3.6q-1.2.156-1.2,1.086a.9.9,0,0,0,.293.691,1.126,1.126,0,0,0,.793.27,1.462,1.462,0,0,0,1.133-.48A1.735,1.735,0,0,0,84.922-3.25ZM91.664,0H89.2V-11.844h2.469Zm10.094,0H98.8L96.242-3.969h-.031V0H93.742V-11.844h2.469V-4.3h.031L98.625-8h2.93L98.688-4.242Zm5.672-.094A3.649,3.649,0,0,1,105.781.2q-2.609,0-2.609-2.711V-6.18h-1.3V-8h1.3V-9.727l2.461-.7V-8h1.8v1.82h-1.8v3.234q0,1.25.992,1.25a1.673,1.673,0,0,0,.8-.227ZM116.5,0h-2.461V-4.547q0-1.758-1.281-1.758a1.312,1.312,0,0,0-1.062.492,1.9,1.9,0,0,0-.406,1.25V0H108.82V-11.844h2.469v5.031h.031A2.805,2.805,0,0,1,113.781-8.2q2.719,0,2.719,3.281Zm7.172-5.773a2.142,2.142,0,0,0-1.039-.242,1.5,1.5,0,0,0-1.258.59,2.573,2.573,0,0,0-.453,1.605V0h-2.469V-8h2.469v1.484h.031a2.136,2.136,0,0,1,2.109-1.625,1.59,1.59,0,0,1,.609.094ZM128.57.2a4.3,4.3,0,0,1-3.145-1.121,4.064,4.064,0,0,1-1.145-3.043,4.065,4.065,0,0,1,1.188-3.105A4.487,4.487,0,0,1,128.68-8.2,4.249,4.249,0,0,1,131.8-7.074a3.985,3.985,0,0,1,1.133,2.965A4.23,4.23,0,0,1,131.77-.961,4.348,4.348,0,0,1,128.57.2Zm.063-6.5a1.647,1.647,0,0,0-1.359.6,2.653,2.653,0,0,0-.484,1.7q0,2.3,1.859,2.3,1.773,0,1.773-2.367Q130.422-6.3,128.633-6.3ZM142.141,0H139.68V-1.219h-.039A2.792,2.792,0,0,1,137.2.2q-2.781,0-2.781-3.367V-8h2.461v4.609q0,1.7,1.344,1.7a1.329,1.329,0,0,0,1.063-.465,1.874,1.874,0,0,0,.4-1.262V-8h2.461Zm9.922-.914a4.526,4.526,0,0,1-1.289,3.449,5.224,5.224,0,0,1-3.734,1.223,5.919,5.919,0,0,1-2.562-.461V1.219a4.907,4.907,0,0,0,2.492.719,2.684,2.684,0,0,0,1.938-.66,2.369,2.369,0,0,0,.688-1.793v-.633h-.031A2.757,2.757,0,0,1,147.07.2a3,3,0,0,1-2.43-1.078,4.372,4.372,0,0,1-.9-2.891,4.87,4.87,0,0,1,1-3.227,3.265,3.265,0,0,1,2.633-1.2,2.429,2.429,0,0,1,2.188,1.125h.031V-8h2.469Zm-2.437-2.93v-.633a1.945,1.945,0,0,0-.449-1.293,1.453,1.453,0,0,0-1.168-.535,1.51,1.51,0,0,0-1.289.641,3.012,3.012,0,0,0-.469,1.8,2.543,2.543,0,0,0,.445,1.582,1.451,1.451,0,0,0,1.219.582,1.511,1.511,0,0,0,1.238-.59A2.418,2.418,0,0,0,149.625-3.844ZM161.8,0h-2.461V-4.547q0-1.758-1.281-1.758A1.312,1.312,0,0,0,157-5.812a1.9,1.9,0,0,0-.406,1.25V0h-2.469V-11.844h2.469v5.031h.031A2.805,2.805,0,0,1,159.086-8.2q2.719,0,2.719,3.281Z" transform="translate(80 413)" fill="#3d3d3d"/>
        <path id="Path_10318-2" data-name="Path 10318" d="M4,0H396a4,4,0,0,1,4,4v6H0V4A4,4,0,0,1,4,0Z" transform="translate(60 376)" fill="#2372c0"/>
        <g id="Link_Button-3" data-name="Link Button" transform="translate(308 438)">
          <g id="Group_264143-3" data-name="Group 264143">
            <rect id="Rectangle_6075-3" data-name="Rectangle 6075" width="60" height="36" rx="18" fill="rgba(255,255,255,0)"/>
            <text id="Back-3" data-name="Back" transform="translate(15 23)" fill="#2777d3" font-size="14" font-family="SegoeUI-Semibold, Segoe UI" font-weight="600"><tspan x="0" y="0">Back</tspan></text>
          </g>
        </g>
        <g id="Primary_Button-3" data-name="Primary Button" transform="translate(378 438)">
          <rect id="Rectangle_3990-3" data-name="Rectangle 3990" width="60" height="36" rx="18" fill="#2777d3"/>
          <text id="Next-3" data-name="Next" transform="translate(15 23)" fill="#fff" font-size="14" font-family="SegoeUI-Semibold, Segoe UI" font-weight="600"><tspan x="0" y="0">Next</tspan></text>
        </g>
        <g id="Remove-3" data-name="Remove" transform="translate(442 404)">
          <g id="Group_264415" data-name="Group 264415" transform="translate(-8 -8)">
            <path id="Path_10425" data-name="Path 10425" d="M12.85,11.44a.5.5,0,0,1,0,.71l-.7.7a.5.5,0,0,1-.71,0L8,9.41,4.56,12.85a.5.5,0,0,1-.71,0l-.7-.7a.5.5,0,0,1,0-.71L6.59,8,3.15,4.56a.5.5,0,0,1,0-.71l.7-.7a.5.5,0,0,1,.71,0L8,6.59l3.44-3.44a.5.5,0,0,1,.71,0l.7.7a.5.5,0,0,1,0,.71L9.41,8Z" fill="#303030"/>
            <rect id="Rectangle_8240" data-name="Rectangle 8240" width="16" height="16" fill="none"/>
          </g>
        </g>
      </g>
      <g id="help-3" data-name="help" transform="translate(643 438)">
        <g id="Group_15330" data-name="Group 15330" transform="translate(-8 -8)" clip-path="url(#clip-path)">
          <path id="Path_10389" data-name="Path 10389" d="M15.7,14.5h0a11.3,11.3,0,0,1-1-3.7,7.6,7.6,0,0,0,.7-3.2,7.7,7.7,0,1,0-5.1,7.2A19,19,0,0,0,14.7,16h.2a1,1,0,0,0,.9-1.5m-5-.9h-.5a6.4,6.4,0,1,1,4-5.9,6.3,6.3,0,0,1-.7,2.8v.3a13.6,13.6,0,0,0,.9,3.8,15.5,15.5,0,0,1-3.7-1" fill="#2777d3"/>
          <path id="Path_10390" data-name="Path 10390" d="M8,9.9a.8.8,0,1,0,.8.8h0A.8.8,0,0,0,8,9.9" fill="#2777d3"/>
          <path id="Path_10391" data-name="Path 10391" d="M8.1,3.5A2.5,2.5,0,0,0,5.6,6H6.9c0-.1.1-1.3,1.2-1.3a1,1,0,0,1,1,.6A1.3,1.3,0,0,1,9,6.7l-.6.5A1.8,1.8,0,0,0,7.5,9H8.7c0-.5,0-.5.4-.8l.7-.6a2.5,2.5,0,0,0,.4-2.7A2.2,2.2,0,0,0,8.1,3.5" fill="#2777d3"/>
        </g>
      </g>
    </g>
    <g id="Group_15337" data-name="Group 15337" transform="translate(80 -20)">
      <g id="Group_15304" data-name="Group 15304" transform="translate(-10255 -3864)">
        <g transform="matrix(1, 0, 0, 1, 10175, 3884)" filter="url(#White_background-4)">
          <path id="White_background-8" data-name="White background" d="M4,0H396a4,4,0,0,1,4,4V114a4,4,0,0,1-4,4H4a4,4,0,0,1-4-4V4A4,4,0,0,1,4,0Z" transform="translate(300 536)" fill="#fff"/>
        </g>
        <path id="Path_10344" data-name="Path 10344" d="M3.8-3.859V0H1.281V-11.2H5.234q4.234,0,4.234,3.57A3.426,3.426,0,0,1,8.254-4.9,4.813,4.813,0,0,1,5.008-3.859Zm0-5.406v3.492H4.8q2.016,0,2.016-1.766,0-1.727-2.016-1.727ZM14.2.2A4.3,4.3,0,0,1,11.059-.926,4.064,4.064,0,0,1,9.914-3.969,4.065,4.065,0,0,1,11.1-7.074,4.487,4.487,0,0,1,14.313-8.2a4.249,4.249,0,0,1,3.125,1.121A3.985,3.985,0,0,1,18.57-4.109,4.23,4.23,0,0,1,17.4-.961,4.348,4.348,0,0,1,14.2.2Zm.063-6.5a1.647,1.647,0,0,0-1.359.6A2.653,2.653,0,0,0,12.422-4q0,2.3,1.859,2.3,1.773,0,1.773-2.367Q16.055-6.3,14.266-6.3ZM22.672-.93h-.031V3.68H20.172V-8h2.469v1.2h.031a2.9,2.9,0,0,1,2.57-1.4,2.892,2.892,0,0,1,2.4,1.066,4.54,4.54,0,0,1,.848,2.9A4.922,4.922,0,0,1,27.5-1.016,3.222,3.222,0,0,1,24.875.2,2.491,2.491,0,0,1,22.672-.93ZM22.6-4.211v.641a2.037,2.037,0,0,0,.438,1.352,1.424,1.424,0,0,0,1.148.523A1.514,1.514,0,0,0,25.5-2.348,3.15,3.15,0,0,0,25.961-4.2q0-2.109-1.641-2.109a1.541,1.541,0,0,0-1.238.574A2.29,2.29,0,0,0,22.6-4.211ZM33.906.2A4.3,4.3,0,0,1,30.762-.926a4.064,4.064,0,0,1-1.145-3.043A4.065,4.065,0,0,1,30.8-7.074,4.487,4.487,0,0,1,34.016-8.2a4.249,4.249,0,0,1,3.125,1.121,3.985,3.985,0,0,1,1.133,2.965A4.23,4.23,0,0,1,37.105-.961,4.348,4.348,0,0,1,33.906.2Zm.063-6.5a1.647,1.647,0,0,0-1.359.6A2.653,2.653,0,0,0,32.125-4q0,2.3,1.859,2.3,1.773,0,1.773-2.367Q35.758-6.3,33.969-6.3ZM47.492-8,44.516,0H41.7L38.867-8h2.641L42.9-3.07a7.2,7.2,0,0,1,.273,1.422H43.2a8.069,8.069,0,0,1,.289-1.375L44.914-8Zm8.086,4.7H50.359q.125,1.742,2.2,1.742a4.286,4.286,0,0,0,2.32-.625V-.4A6.1,6.1,0,0,1,51.992.2,4.058,4.058,0,0,1,48.984-.879a4.058,4.058,0,0,1-1.07-3A4.281,4.281,0,0,1,49.07-7.031,3.852,3.852,0,0,1,51.914-8.2a3.5,3.5,0,0,1,2.707,1.039,4,4,0,0,1,.957,2.82ZM53.289-4.812q0-1.719-1.391-1.719a1.328,1.328,0,0,0-1.027.492,2.234,2.234,0,0,0-.527,1.227Zm8.977-.961a2.142,2.142,0,0,0-1.039-.242,1.5,1.5,0,0,0-1.258.59,2.573,2.573,0,0,0-.453,1.605V0H57.047V-8h2.469v1.484h.031a2.136,2.136,0,0,1,2.109-1.625,1.59,1.59,0,0,1,.609.094ZM79.414-8l-2.3,8H74.516l-1.18-4.687A4.772,4.772,0,0,1,73.2-5.711h-.047A6.124,6.124,0,0,1,73-4.719L71.734,0H69.172L66.914-8H69.43l1.1,5.219a6.785,6.785,0,0,1,.117.891H70.7a4.932,4.932,0,0,1,.141-.922L72.211-8h2.352L75.8-2.781a8.3,8.3,0,0,1,.109.906h.055a9.017,9.017,0,0,1,.125-.906L77.125-8Zm7.828,8H84.906V-1.148h-.031A2.607,2.607,0,0,1,82.492.2a2.492,2.492,0,0,1-1.832-.66,2.366,2.366,0,0,1-.668-1.762q0-2.328,2.758-2.687L84.922-5.2q0-1.312-1.422-1.312a4.853,4.853,0,0,0-2.719.852V-7.523a6.116,6.116,0,0,1,1.41-.469,7.413,7.413,0,0,1,1.629-.2q3.422,0,3.422,3.414Zm-2.32-3.25v-.539L83.469-3.6q-1.2.156-1.2,1.086a.9.9,0,0,0,.293.691,1.126,1.126,0,0,0,.793.27,1.462,1.462,0,0,0,1.133-.48A1.735,1.735,0,0,0,84.922-3.25ZM91.664,0H89.2V-11.844h2.469Zm10.094,0H98.8L96.242-3.969h-.031V0H93.742V-11.844h2.469V-4.3h.031L98.625-8h2.93L98.688-4.242Zm5.672-.094A3.649,3.649,0,0,1,105.781.2q-2.609,0-2.609-2.711V-6.18h-1.3V-8h1.3V-9.727l2.461-.7V-8h1.8v1.82h-1.8v3.234q0,1.25.992,1.25a1.673,1.673,0,0,0,.8-.227ZM116.5,0h-2.461V-4.547q0-1.758-1.281-1.758a1.312,1.312,0,0,0-1.062.492,1.9,1.9,0,0,0-.406,1.25V0H108.82V-11.844h2.469v5.031h.031A2.805,2.805,0,0,1,113.781-8.2q2.719,0,2.719,3.281Zm7.172-5.773a2.142,2.142,0,0,0-1.039-.242,1.5,1.5,0,0,0-1.258.59,2.573,2.573,0,0,0-.453,1.605V0h-2.469V-8h2.469v1.484h.031a2.136,2.136,0,0,1,2.109-1.625,1.59,1.59,0,0,1,.609.094ZM128.57.2a4.3,4.3,0,0,1-3.145-1.121,4.064,4.064,0,0,1-1.145-3.043,4.065,4.065,0,0,1,1.188-3.105A4.487,4.487,0,0,1,128.68-8.2,4.249,4.249,0,0,1,131.8-7.074a3.985,3.985,0,0,1,1.133,2.965A4.23,4.23,0,0,1,131.77-.961,4.348,4.348,0,0,1,128.57.2Zm.063-6.5a1.647,1.647,0,0,0-1.359.6,2.653,2.653,0,0,0-.484,1.7q0,2.3,1.859,2.3,1.773,0,1.773-2.367Q130.422-6.3,128.633-6.3ZM142.141,0H139.68V-1.219h-.039A2.792,2.792,0,0,1,137.2.2q-2.781,0-2.781-3.367V-8h2.461v4.609q0,1.7,1.344,1.7a1.329,1.329,0,0,0,1.063-.465,1.874,1.874,0,0,0,.4-1.262V-8h2.461Zm9.922-.914a4.526,4.526,0,0,1-1.289,3.449,5.224,5.224,0,0,1-3.734,1.223,5.919,5.919,0,0,1-2.562-.461V1.219a4.907,4.907,0,0,0,2.492.719,2.684,2.684,0,0,0,1.938-.66,2.369,2.369,0,0,0,.688-1.793v-.633h-.031A2.757,2.757,0,0,1,147.07.2a3,3,0,0,1-2.43-1.078,4.372,4.372,0,0,1-.9-2.891,4.87,4.87,0,0,1,1-3.227,3.265,3.265,0,0,1,2.633-1.2,2.429,2.429,0,0,1,2.188,1.125h.031V-8h2.469Zm-2.437-2.93v-.633a1.945,1.945,0,0,0-.449-1.293,1.453,1.453,0,0,0-1.168-.535,1.51,1.51,0,0,0-1.289.641,3.012,3.012,0,0,0-.469,1.8,2.543,2.543,0,0,0,.445,1.582,1.451,1.451,0,0,0,1.219.582,1.511,1.511,0,0,0,1.238-.59A2.418,2.418,0,0,0,149.625-3.844ZM161.8,0h-2.461V-4.547q0-1.758-1.281-1.758A1.312,1.312,0,0,0,157-5.812a1.9,1.9,0,0,0-.406,1.25V0h-2.469V-11.844h2.469v5.031h.031A2.805,2.805,0,0,1,159.086-8.2q2.719,0,2.719,3.281Z" transform="translate(10495 4457)" fill="#3d3d3d"/>
        <path id="Path_10320-2" data-name="Path 10320" d="M4,0H190.348l10.54-10L212.163,0H396a4,4,0,0,1,4,4v6H0V4A4,4,0,0,1,4,0Z" transform="translate(10475 4420)" fill="#2372c0"/>
        <g id="Link_Button-4" data-name="Link Button" transform="translate(10723 4482)">
          <g id="Group_264143-4" data-name="Group 264143">
            <rect id="Rectangle_6075-4" data-name="Rectangle 6075" width="60" height="36" rx="18" fill="rgba(255,255,255,0)"/>
            <text id="Back-4" data-name="Back" transform="translate(15 23)" fill="#2777d3" font-size="14" font-family="SegoeUI-Semibold, Segoe UI" font-weight="600"><tspan x="0" y="0">Back</tspan></text>
          </g>
        </g>
        <g id="Primary_Button-4" data-name="Primary Button" transform="translate(10793 4482)">
          <rect id="Rectangle_3990-4" data-name="Rectangle 3990" width="60" height="36" rx="18" fill="#2777d3"/>
          <text id="Next-4" data-name="Next" transform="translate(15 23)" fill="#fff" font-size="14" font-family="SegoeUI-Semibold, Segoe UI" font-weight="600"><tspan x="0" y="0">Next</tspan></text>
        </g>
        <g id="Remove-4" data-name="Remove" transform="translate(10857 4448)">
          <g id="Group_264417" data-name="Group 264417" transform="translate(-8 -8)">
            <path id="Path_10427" data-name="Path 10427" d="M12.85,11.44a.5.5,0,0,1,0,.71l-.7.7a.5.5,0,0,1-.71,0L8,9.41,4.56,12.85a.5.5,0,0,1-.71,0l-.7-.7a.5.5,0,0,1,0-.71L6.59,8,3.15,4.56a.5.5,0,0,1,0-.71l.7-.7a.5.5,0,0,1,.71,0L8,6.59l3.44-3.44a.5.5,0,0,1,.71,0l.7.7a.5.5,0,0,1,0,.71L9.41,8Z" fill="#303030"/>
            <rect id="Rectangle_8242" data-name="Rectangle 8242" width="16" height="16" fill="none"/>
          </g>
        </g>
      </g>
      <g id="help-4" data-name="help" transform="translate(421 533)">
        <g id="Group_15335" data-name="Group 15335" transform="translate(-8 -8)" clip-path="url(#clip-path)">
          <path id="Path_10407" data-name="Path 10407" d="M15.7,14.5h0a11.3,11.3,0,0,1-1-3.7,7.6,7.6,0,0,0,.7-3.2,7.7,7.7,0,1,0-5.1,7.2A19,19,0,0,0,14.7,16h.2a1,1,0,0,0,.9-1.5m-5-.9h-.5a6.4,6.4,0,1,1,4-5.9,6.3,6.3,0,0,1-.7,2.8v.3a13.6,13.6,0,0,0,.9,3.8,15.5,15.5,0,0,1-3.7-1" fill="#2777d3"/>
          <path id="Path_10408" data-name="Path 10408" d="M8,9.9a.8.8,0,1,0,.8.8h0A.8.8,0,0,0,8,9.9" fill="#2777d3"/>
          <path id="Path_10409" data-name="Path 10409" d="M8.1,3.5A2.5,2.5,0,0,0,5.6,6H6.9c0-.1.1-1.3,1.2-1.3a1,1,0,0,1,1,.6A1.3,1.3,0,0,1,9,6.7l-.6.5A1.8,1.8,0,0,0,7.5,9H8.7c0-.5,0-.5.4-.8l.7-.6a2.5,2.5,0,0,0,.4-2.7A2.2,2.2,0,0,0,8.1,3.5" fill="#2777d3"/>
        </g>
      </g>
    </g>
  </g>
</svg>
