<svg xmlns="http://www.w3.org/2000/svg" xmlns:xlink="http://www.w3.org/1999/xlink" width="1000" height="440" viewBox="0 0 1000 440">
  <defs>
    <filter id="Rectangle_4576" x="283" y="106" width="418" height="316" filterUnits="userSpaceOnUse">
      <feOffset dy="3" input="SourceAlpha"/>
      <feGaussianBlur stdDeviation="3" result="blur"/>
      <feFlood flood-opacity="0.161"/>
      <feComposite operator="in" in2="blur"/>
      <feComposite in="SourceGraphic"/>
    </filter>
    <clipPath id="clip-select_anatomy">
      <rect width="1000" height="440"/>
    </clipPath>
  </defs>
  <g id="select_anatomy" clip-path="url(#clip-select_anatomy)">
    <rect width="1000" height="440" fill="#f4f4f6"/>
    <g id="Group_15370" data-name="Group 15370" transform="translate(117 -23)">
      <rect id="Rectangle_4574" data-name="Rectangle 4574" width="400" height="42" rx="2" transform="translate(175 91)" fill="#fff"/>
      <path id="Rectangle_4574_-_Outline" data-name="Rectangle 4574 - Outline" d="M2,0A2,2,0,0,0,0,2V40a2,2,0,0,0,2,2H398a2,2,0,0,0,2-2V2a2,2,0,0,0-2-2H2M2-2H398a4,4,0,0,1,4,4V40a4,4,0,0,1-4,4H2a4,4,0,0,1-4-4V2A4,4,0,0,1,2-2Z" transform="translate(175 91)" fill="#4e92df"/>
      <text id="State" transform="translate(175 82)" fill="#31313a" font-size="14" font-family="SegoeUI-Semibold, Segoe UI" font-weight="600"><tspan x="0" y="0">State</tspan></text>
      <g id="Group_3" data-name="Group 3" transform="translate(-275 -1607)">
        <path id="Rectangle_3867" data-name="Rectangle 3867" d="M-.5-.5h25v25H-.5Zm24,1H.5v23h23Z" transform="translate(816 1707)" fill="#17987c"/>
        <path id="Path_5558" data-name="Path 5558" d="M56,9.4l-3,3-3-3a.967.967,0,0,0-1.4,0h0a.967.967,0,0,0,0,1.4l3.7,3.7a.967.967,0,0,0,1.4,0l3.7-3.7a.967.967,0,0,0,0-1.4h0A.965.965,0,0,0,56,9.4Z" transform="translate(881 1730.9) rotate(180)" fill="#7a7a7a"/>
      </g>
      <rect id="Rectangle_4575" data-name="Rectangle 4575" width="1" height="18" transform="translate(249 103)" fill="#3d3d3d"/>
      <g transform="matrix(1, 0, 0, 1, -117, 23)" filter="url(#Rectangle_4576)">
        <rect id="Rectangle_4576-2" data-name="Rectangle 4576" width="400" height="298" rx="4" transform="translate(292 112)" fill="#fff"/>
      </g>
      <rect id="Rectangle_4580" data-name="Rectangle 4580" width="400" height="36" transform="translate(175 176)" fill="none"/>
      <rect id="Rectangle_4582" data-name="Rectangle 4582" width="400" height="36" transform="translate(175 248)" fill="none"/>
      <rect id="Rectangle_4584" data-name="Rectangle 4584" width="400" height="36" transform="translate(175 320)" fill="none"/>
      <rect id="Rectangle_4586" data-name="Rectangle 4586" width="400" height="36" transform="translate(175 392)" fill="none"/>
      <rect id="Rectangle_4579" data-name="Rectangle 4579" width="400" height="36" transform="translate(175 140)" fill="none"/>
      <rect id="Rectangle_4581" data-name="Rectangle 4581" width="400" height="36" transform="translate(175 212)" fill="none"/>
      <rect id="Rectangle_4583" data-name="Rectangle 4583" width="400" height="36" transform="translate(175 284)" fill="none"/>
      <rect id="Rectangle_4585" data-name="Rectangle 4585" width="400" height="36" transform="translate(175 356)" fill="none"/>
      <text id="Alaska" transform="translate(190 164)" fill="#494955" font-size="14" font-family="SegoeUI, Segoe UI"><tspan x="0" y="0">Alaska</tspan></text>
      <text id="California" transform="translate(190 272)" fill="#494955" font-size="14" font-family="SegoeUI, Segoe UI"><tspan x="0" y="0">California</tspan></text>
      <text id="Alabama" transform="translate(190 200)" fill="#494955" font-size="14" font-family="SegoeUI, Segoe UI"><tspan x="0" y="0">Alabama</tspan></text>
      <text id="Colorado" transform="translate(190 308)" fill="#494955" font-size="14" font-family="SegoeUI, Segoe UI"><tspan x="0" y="0">Colorado</tspan></text>
      <text id="Arizona" transform="translate(190 236)" fill="#494955" font-size="14" font-family="SegoeUI, Segoe UI"><tspan x="0" y="0">Arizona</tspan></text>
      <text id="Connecticut" transform="translate(190 344)" fill="#494955" font-size="14" font-family="SegoeUI, Segoe UI"><tspan x="0" y="0">Connecticut</tspan></text>
      <text id="Delaware" transform="translate(190 380)" fill="#494955" font-size="14" font-family="SegoeUI, Segoe UI"><tspan x="0" y="0">Delaware</tspan></text>
      <text id="Florida" transform="translate(190 416)" fill="#afafbb" font-size="14" font-family="SegoeUI, Segoe UI"><tspan x="0" y="0">Florida</tspan></text>
      <rect id="Rectangle_4588" data-name="Rectangle 4588" width="5" height="100" rx="2.5" transform="translate(565 140)" fill="#78788c"/>
      <text id="Alabama-2" data-name="Alabama" transform="translate(191 118)" fill="#494955" font-size="14" font-family="SegoeUI, Segoe UI"><tspan x="0" y="0">Alabama</tspan></text>
    </g>
    <g id="Group_4" data-name="Group 4" transform="translate(153 -282)">
      <path id="Path_1" data-name="Path 1" d="M12,0A12,12,0,1,1,0,12,12,12,0,0,1,12,0Z" transform="translate(68 359)" fill="#17987c"/>
      <path id="Path_3" data-name="Path 3" d="M0,0H1V39H0Z" transform="translate(91 371) rotate(-90)" fill="#17987c"/>
      <g id="Group_5" data-name="Group 5" transform="translate(0 -2.921)">
        <g id="Group_6" data-name="Group 6" transform="translate(0 351)">
          <path id="Path_8" data-name="Path 8" d="M0,0H1V5H0Z" transform="translate(128 1) rotate(-90)" fill="#17987c"/>
          <path id="Path_9" data-name="Path 9" d="M0,0H1V5H0Z" transform="translate(128 45.427) rotate(-90)" fill="#17987c"/>
          <path id="Path_7" data-name="Path 7" d="M0,0H1V43.927H0Z" transform="translate(130 0.75)" fill="#17987c"/>
        </g>
      </g>
      <text id="_1" data-name="1" transform="translate(77 376)" fill="#fff" font-size="14" font-family="SegoeUI-Semibold, Segoe UI" font-weight="600"><tspan x="0" y="0">1</tspan></text>
    </g>
    <g id="Group_15373" data-name="Group 15373" transform="translate(682 77)">
      <path id="Path_4" data-name="Path 4" d="M12,0A12,12,0,1,0,24,12,12,12,0,0,0,12,0Z" transform="translate(38)" fill="#17987c"/>
      <path id="Path_6" data-name="Path 6" d="M0,39H1V0H0Z" transform="translate(0 12) rotate(-90)" fill="#17987c"/>
      <text id="_2" data-name="2" transform="translate(46 17)" fill="#fff" font-size="14" font-family="SegoeUI-Semibold, Segoe UI" font-weight="600"><tspan x="0" y="0">2</tspan></text>
    </g>
    <g id="Group_15374" data-name="Group 15374" transform="translate(153 -237.124)">
      <path id="Path_1-2" data-name="Path 1" d="M12,0A12,12,0,1,1,0,12,12,12,0,0,1,12,0Z" transform="translate(68 486.124)" fill="#17987c"/>
      <path id="Path_3-2" data-name="Path 3" d="M0,0H1V39H0Z" transform="translate(91 498.124) rotate(-90)" fill="#17987c"/>
      <g id="Group_5-2" data-name="Group 5" transform="translate(0 -0.905)">
        <g id="Group_6-2" data-name="Group 6" transform="translate(0 351)">
          <path id="Path_8-2" data-name="Path 8" d="M0,0H1V5H0Z" transform="translate(128 1) rotate(-90)" fill="#17987c"/>
          <path id="Path_9-2" data-name="Path 9" d="M0,0H1V5H0Z" transform="translate(128 296.997) rotate(-90)" fill="#17987c"/>
          <path id="Path_7-2" data-name="Path 7" d="M0,0H1V295.5H0Z" transform="translate(130 0.75)" fill="#17987c"/>
        </g>
      </g>
      <text id="_3" data-name="3" transform="translate(77 504.124)" fill="#fff" font-size="14" font-family="SegoeUI-Semibold, Segoe UI" font-weight="600"><tspan x="0" y="0">3</tspan></text>
    </g>
    <g id="Group_15375" data-name="Group 15375" transform="translate(241 305)">
      <path id="Path_4-2" data-name="Path 4" d="M12,0A12,12,0,1,1,0,12,12,12,0,0,1,12,0Z" fill="#17987c"/>
      <path id="Path_6-2" data-name="Path 6" d="M0,0H1V39H0Z" transform="translate(23 12) rotate(-90)" fill="#17987c"/>
      <text id="_4" data-name="4" transform="translate(8 17)" fill="#fff" font-size="14" font-family="SegoeUI-Semibold, Segoe UI" font-weight="600"><tspan x="0" y="0">4</tspan></text>
    </g>
    <g id="Group_15376" data-name="Group 15376" transform="translate(686 156)">
      <path id="Path_4-3" data-name="Path 4" d="M12,0A12,12,0,1,0,24,12,12,12,0,0,0,12,0Z" transform="translate(38)" fill="#17987c"/>
      <path id="Path_6-3" data-name="Path 6" d="M0,39H1V0H0Z" transform="translate(0 12) rotate(-90)" fill="#17987c"/>
      <text id="_5" data-name="5" transform="translate(46 17)" fill="#fff" font-size="14" font-family="SegoeUI-Semibold, Segoe UI" font-weight="600"><tspan x="0" y="0">5</tspan></text>
    </g>
  </g>
</svg>
