<svg xmlns="http://www.w3.org/2000/svg" xmlns:xlink="http://www.w3.org/1999/xlink" width="1000" height="423" viewBox="0 0 1000 423">
  <defs>
    <filter id="Rectangle_4660" x="372" y="89" width="318" height="316" filterUnits="userSpaceOnUse">
      <feOffset dy="3" input="SourceAlpha"/>
      <feGaussianBlur stdDeviation="3" result="blur"/>
      <feFlood flood-opacity="0.161"/>
      <feComposite operator="in" in2="blur"/>
      <feComposite in="SourceGraphic"/>
    </filter>
    <clipPath id="clip-select_list_states">
      <rect width="1000" height="423"/>
    </clipPath>
  </defs>
  <g id="select_list_states" clip-path="url(#clip-select_list_states)">
    <rect width="1000" height="423" fill="#f4f4f6"/>
    <g id="Group_15380" data-name="Group 15380" transform="translate(249 -37)">
      <text id="State" transform="translate(132 82)" fill="#31313a" font-size="14" font-family="SegoeUI-Semibold, Segoe UI" font-weight="600"><tspan x="0" y="0">State</tspan></text>
      <g id="Group_14579" data-name="Group 14579" transform="translate(132 90)">
        <rect id="Rectangle_288" data-name="Rectangle 288" width="300" height="42" rx="4" fill="#fff"/>
        <path id="Rectangle_288_-_Outline" data-name="Rectangle 288 - Outline" d="M4,2A2,2,0,0,0,2,4V38a2,2,0,0,0,2,2H296a2,2,0,0,0,2-2V4a2,2,0,0,0-2-2H4M4,0H296a4,4,0,0,1,4,4V38a4,4,0,0,1-4,4H4a4,4,0,0,1-4-4V4A4,4,0,0,1,4,0Z" fill="#4e92df"/>
        <g id="Group_7793" data-name="Group 7793" transform="translate(266 9)">
          <rect id="Rectangle_3867" data-name="Rectangle 3867" width="24" height="24" fill="none"/>
          <path id="Path_5558" data-name="Path 5558" d="M56,9.4l-3,3-3-3a.967.967,0,0,0-1.4,0h0a.967.967,0,0,0,0,1.4l3.7,3.7a.967.967,0,0,0,1.4,0l3.7-3.7a.967.967,0,0,0,0-1.4h0A.965.965,0,0,0,56,9.4Z" transform="translate(65 23.9) rotate(180)" fill="#9494a4"/>
        </g>
      </g>
      <text id="California" transform="translate(147 117)" fill="#31313a" font-size="14" font-family="SegoeUI, Segoe UI"><tspan x="0" y="0">California</tspan></text>
      <g transform="matrix(1, 0, 0, 1, -249, 37)" filter="url(#Rectangle_4660)">
        <rect id="Rectangle_4660-2" data-name="Rectangle 4660" width="300" height="298" rx="4" transform="translate(381 95)" fill="#fff"/>
      </g>
      <g id="Group_7762" data-name="Group 7762" transform="translate(-94 -80)">
        <rect id="Rectangle_4665" data-name="Rectangle 4665" width="300" height="36" transform="translate(226 217)" fill="#fff"/>
        <text id="Arkansas" transform="translate(241 239)" fill="#494955" font-size="14" font-family="SegoeUI, Segoe UI"><tspan x="0" y="0">Arkansas</tspan></text>
      </g>
      <g id="Group_7762-2" data-name="Group 7762" transform="translate(-94 -44)">
        <rect id="Rectangle_4665-2" data-name="Rectangle 4665" width="300" height="36" transform="translate(226 217)" fill="#fff"/>
        <text id="Alabama" transform="translate(241 239)" fill="#494955" font-size="14" font-family="SegoeUI, Segoe UI"><tspan x="0" y="0">Alabama</tspan></text>
      </g>
      <g id="Group_7762-3" data-name="Group 7762" transform="translate(-94 -8)">
        <rect id="Rectangle_4665-3" data-name="Rectangle 4665" width="300" height="36" transform="translate(226 217)" fill="#fff"/>
        <text id="Arizona" transform="translate(241 239)" fill="#494955" font-size="14" font-family="SegoeUI, Segoe UI"><tspan x="0" y="0">Arizona</tspan></text>
      </g>
      <g id="Group_7762-4" data-name="Group 7762" transform="translate(-94 28)">
        <rect id="Rectangle_4665-4" data-name="Rectangle 4665" width="300" height="36" transform="translate(226 217)" fill="#fff"/>
        <text id="California-2" data-name="California" transform="translate(241 239)" fill="#494955" font-size="14" font-family="SegoeUI-Semibold, Segoe UI" font-weight="600"><tspan x="0" y="0">California</tspan></text>
      </g>
      <g id="Group_7762-5" data-name="Group 7762" transform="translate(-94 64)">
        <rect id="Rectangle_4665-5" data-name="Rectangle 4665" width="300" height="36" transform="translate(226 217)" fill="#fff"/>
        <text id="Colorado" transform="translate(241 239)" fill="#494955" font-size="14" font-family="SegoeUI, Segoe UI"><tspan x="0" y="0">Colorado</tspan></text>
      </g>
      <g id="Group_7762-6" data-name="Group 7762" transform="translate(-94 100)">
        <rect id="Rectangle_4665-6" data-name="Rectangle 4665" width="300" height="36" transform="translate(226 217)" fill="#f4f4f6"/>
        <text id="Connecticut" transform="translate(241 239)" fill="#494955" font-size="14" font-family="SegoeUI, Segoe UI"><tspan x="0" y="0">Connecticut</tspan></text>
      </g>
      <g id="Group_7762-7" data-name="Group 7762" transform="translate(-94 136)">
        <rect id="Rectangle_4665-7" data-name="Rectangle 4665" width="300" height="36" transform="translate(226 217)" fill="#fff"/>
        <text id="Delaware" transform="translate(241 239)" fill="#494955" font-size="14" font-family="SegoeUI, Segoe UI"><tspan x="0" y="0">Delaware</tspan></text>
      </g>
      <g id="Group_7762-8" data-name="Group 7762" transform="translate(-94 172)">
        <rect id="Rectangle_4665-8" data-name="Rectangle 4665" width="300" height="36" transform="translate(226 217)" fill="#fff"/>
        <text id="Florida" transform="translate(241 239)" fill="#afafbb" font-size="14" font-family="SegoeUI, Segoe UI"><tspan x="0" y="0">Florida</tspan></text>
      </g>
      <rect id="Rectangle_4677" data-name="Rectangle 4677" width="5" height="100" rx="2.5" transform="translate(422 137)" fill="#78788c"/>
      <text id="flat_light" transform="translate(112 268)" fill="#17987c" font-size="11" font-family="SegoeUI, Segoe UI"><tspan x="-41.051" y="0">Selected</tspan></text>
      <text id="flat_light-2" data-name="flat_light" transform="translate(112 340)" fill="#17987c" font-size="11" font-family="SegoeUI, Segoe UI"><tspan x="-29.101" y="0">Hover</tspan></text>
      <g id="Group_15345" data-name="Group 15345" transform="translate(-11510 -682)">
        <g id="noun_Pointer_44803" transform="translate(11911 1005)">
          <g id="Group_15298" data-name="Group 15298" transform="translate(0 0)" opacity="0.9">
            <path id="Path_10321" data-name="Path 10321" d="M26.5,27.034a8.04,8.04,0,0,1-7.962-7.224.347.347,0,0,1-.037-.156V14.783a1.94,1.94,0,0,1,1.9-1.97,1.854,1.854,0,0,1,1.143.395V5.385a1.906,1.906,0,1,1,3.81,0v5.468a1.854,1.854,0,0,1,1.143-.395,1.91,1.91,0,0,1,1.775,1.257,1.863,1.863,0,0,1,1.272-.5,1.919,1.919,0,0,1,1.837,1.449,1.86,1.86,0,0,1,1.211-.45,1.94,1.94,0,0,1,1.9,1.97v5.031a.375.375,0,0,1,0,.051A8.045,8.045,0,0,1,26.5,27.034Z" transform="translate(-18.501 -3.415)" fill="#fff"/>
          </g>
        </g>
        <g id="noun_Pointer_44803-2" data-name="noun_Pointer_44803" transform="translate(11911 1005)">
          <g id="Group_15298-2" data-name="Group 15298" transform="translate(0 0)" opacity="0.9">
            <path id="Path_10321-2" data-name="Path 10321" d="M26.5,27.034a8.04,8.04,0,0,1-7.962-7.224.347.347,0,0,1-.037-.156V14.783a1.94,1.94,0,0,1,1.9-1.97,1.854,1.854,0,0,1,1.143.395V5.385a1.906,1.906,0,1,1,3.81,0v5.468a1.854,1.854,0,0,1,1.143-.395,1.91,1.91,0,0,1,1.775,1.257,1.863,1.863,0,0,1,1.272-.5,1.919,1.919,0,0,1,1.837,1.449,1.86,1.86,0,0,1,1.211-.45,1.94,1.94,0,0,1,1.9,1.97v5.031a.375.375,0,0,1,0,.051A8.045,8.045,0,0,1,26.5,27.034Zm-7.238-7.51a.339.339,0,0,1,.024.1,7.238,7.238,0,0,0,14.45-.424q0-.016,0-.033V14.178a1.145,1.145,0,1,0-2.286,0,.381.381,0,0,1-.762,0v-1a1.145,1.145,0,1,0-2.286,0,.381.381,0,1,1-.762,0v-.752a1.145,1.145,0,1,0-2.286,0,.381.381,0,1,1-.762,0V5.385a1.145,1.145,0,1,0-2.286,0V18.21a.381.381,0,1,1-.762,0V14.783a1.145,1.145,0,1,0-2.286,0v4.741Z" transform="translate(-18.501 -3.415)"/>
          </g>
        </g>
      </g>
      <text id="flat_light-3" data-name="flat_light" transform="translate(112 412)" fill="#17987c" font-size="11" font-family="SegoeUI, Segoe UI"><tspan x="-42.002" y="0">Disabled</tspan></text>
    </g>
  </g>
</svg>
