<svg xmlns="http://www.w3.org/2000/svg" xmlns:xlink="http://www.w3.org/1999/xlink" width="1000" height="143" viewBox="0 0 1000 143">
  <defs>
    <clipPath id="clip-path">
      <rect width="50" height="50" fill="none"/>
    </clipPath>
    <clipPath id="clip-Default_2">
      <rect width="1000" height="143"/>
    </clipPath>
  </defs>
  <g id="Default_2" data-name="Default – 2" clip-path="url(#clip-Default_2)">
    <rect width="1000" height="143" fill="#f4f4f6"/>
    <g id="Component_3" data-name="Component 3" transform="translate(222 30)" clip-path="url(#clip-path)">
      <g id="Group_7426" data-name="Group 7426" transform="translate(-146.5 -105.1)">
        <path id="Path_5481" data-name="Path 5481" d="M171.5,155.1a25,25,0,1,1,25-25A25.009,25.009,0,0,1,171.5,155.1Zm0-42.8a17.8,17.8,0,1,0,17.8,17.8A17.839,17.839,0,0,0,171.5,112.3Z" fill="#cbcbd2"/>
        <path id="Path_5482" data-name="Path 5482" d="M154.5,124.7l-6.9-2.2A25.037,25.037,0,0,1,179,106.3l-2.2,6.9A17.7,17.7,0,0,0,154.5,124.7Z" fill="#1f5ea8"/>
      </g>
    </g>
    <g id="Component_4" data-name="Component 4" transform="translate(625 30)" clip-path="url(#clip-path)">
      <g id="Group_7426-2" data-name="Group 7426" transform="translate(-146.5 -105.1)">
        <path id="Path_5481-2" data-name="Path 5481" d="M171.5,155.1a25,25,0,1,1,25-25A25.009,25.009,0,0,1,171.5,155.1Zm0-42.8a17.8,17.8,0,1,0,17.8,17.8A17.839,17.839,0,0,0,171.5,112.3Z" fill="#cbcbd2"/>
        <path id="Path_5482-2" data-name="Path 5482" d="M154.5,124.7l-6.9-2.2A25.037,25.037,0,0,1,179,106.3l-2.2,6.9A17.7,17.7,0,0,0,154.5,124.7Z" fill="#1f5ea8"/>
      </g>
    </g>
    <path id="Path_101147" data-name="Path 101147" d="M6.371,0H1.285V-9.8H2.434v8.764H6.371ZM10.65.164A3.247,3.247,0,0,1,8.172-.817a3.633,3.633,0,0,1-.926-2.6A3.785,3.785,0,0,1,8.21-6.173a3.465,3.465,0,0,1,2.6-.991,3.14,3.14,0,0,1,2.444.964,3.822,3.822,0,0,1,.878,2.673A3.761,3.761,0,0,1,13.19-.844,3.317,3.317,0,0,1,10.65.164Zm.082-6.385a2.132,2.132,0,0,0-1.709.735,3.018,3.018,0,0,0-.629,2.027A2.854,2.854,0,0,0,9.03-1.5a2.161,2.161,0,0,0,1.7.718,2.049,2.049,0,0,0,1.671-.7,3.055,3.055,0,0,0,.584-2A3.108,3.108,0,0,0,12.4-5.51,2.04,2.04,0,0,0,10.732-6.221ZM20.938,0H19.817V-1.094H19.79A2.347,2.347,0,0,1,17.637.164,2.3,2.3,0,0,1,16-.39a1.918,1.918,0,0,1-.591-1.47q0-1.962,2.311-2.283l2.1-.294q0-1.784-1.442-1.784a3.446,3.446,0,0,0-2.283.861V-6.508a4.338,4.338,0,0,1,2.379-.656q2.468,0,2.468,2.611ZM19.817-3.541l-1.688.232a2.741,2.741,0,0,0-1.176.386,1.114,1.114,0,0,0-.4.981,1.068,1.068,0,0,0,.366.837,1.413,1.413,0,0,0,.974.325,1.8,1.8,0,0,0,1.377-.584,2.088,2.088,0,0,0,.543-1.48ZM29.025,0H27.9V-1.189h-.027A2.588,2.588,0,0,1,25.471.164a2.615,2.615,0,0,1-2.109-.94,3.856,3.856,0,0,1-.79-2.56,4.2,4.2,0,0,1,.875-2.782,2.886,2.886,0,0,1,2.331-1.046,2.244,2.244,0,0,1,2.1,1.135H27.9v-4.334h1.121ZM27.9-3.165V-4.2a2,2,0,0,0-.561-1.436,1.88,1.88,0,0,0-1.422-.588,1.936,1.936,0,0,0-1.613.752,3.3,3.3,0,0,0-.588,2.078,2.964,2.964,0,0,0,.564,1.911,1.843,1.843,0,0,0,1.514.7,1.915,1.915,0,0,0,1.521-.677A2.521,2.521,0,0,0,27.9-3.165Zm3.965-5.612a.71.71,0,0,1-.513-.205.692.692,0,0,1-.212-.52.7.7,0,0,1,.212-.523.7.7,0,0,1,.513-.208.724.724,0,0,1,.523.208.7.7,0,0,1,.215.523.693.693,0,0,1-.215.513A.718.718,0,0,1,31.869-8.777ZM32.416,0H31.295V-7h1.121ZM40.5,0H39.375V-3.992q0-2.229-1.627-2.229a1.765,1.765,0,0,0-1.391.632,2.344,2.344,0,0,0-.55,1.6V0H34.686V-7h1.121v1.162h.027a2.526,2.526,0,0,1,2.3-1.326,2.142,2.142,0,0,1,1.757.742A3.3,3.3,0,0,1,40.5-4.279Zm8.087-.561q0,3.855-3.691,3.855a4.956,4.956,0,0,1-2.27-.492V1.682a4.661,4.661,0,0,0,2.256.656q2.584,0,2.584-2.748v-.766h-.027A2.622,2.622,0,0,1,45.028.164a2.628,2.628,0,0,1-2.1-.933,3.73,3.73,0,0,1-.8-2.505,4.358,4.358,0,0,1,.858-2.837,2.866,2.866,0,0,1,2.348-1.053,2.282,2.282,0,0,1,2.1,1.135h.027V-7h1.121Zm-1.121-2.6V-4.2A2,2,0,0,0,46.9-5.626a1.857,1.857,0,0,0-1.4-.595,1.947,1.947,0,0,0-1.627.755,3.372,3.372,0,0,0-.588,2.116,2.894,2.894,0,0,0,.564,1.87,1.822,1.822,0,0,0,1.494.7,1.951,1.951,0,0,0,1.535-.67A2.5,2.5,0,0,0,47.462-3.165ZM51.242.15a.726.726,0,0,1-.537-.226.742.742,0,0,1-.222-.54.754.754,0,0,1,.222-.543.72.72,0,0,1,.537-.229.739.739,0,0,1,.547.229.748.748,0,0,1,.226.543.737.737,0,0,1-.226.54A.745.745,0,0,1,51.242.15Zm3.035,0a.726.726,0,0,1-.537-.226.742.742,0,0,1-.222-.54.754.754,0,0,1,.222-.543.72.72,0,0,1,.537-.229.739.739,0,0,1,.547.229.748.748,0,0,1,.226.543.737.737,0,0,1-.226.54A.745.745,0,0,1,54.277.15Zm3.035,0a.726.726,0,0,1-.537-.226.742.742,0,0,1-.222-.54.754.754,0,0,1,.222-.543.72.72,0,0,1,.537-.229.739.739,0,0,1,.547.229.748.748,0,0,1,.226.543.737.737,0,0,1-.226.54A.745.745,0,0,1,57.313.15Z" transform="translate(621 105)" fill="#31313a"/>
  </g>
</svg>
