<svg xmlns="http://www.w3.org/2000/svg" xmlns:xlink="http://www.w3.org/1999/xlink" width="444" height="227.66" viewBox="0 0 444 227.66">
  <defs>
    <filter id="Card" x="0" y="0" width="444" height="227.66" filterUnits="userSpaceOnUse">
      <feOffset dy="1" input="SourceAlpha"/>
      <feGaussianBlur stdDeviation="1.5" result="blur"/>
      <feFlood flood-opacity="0.161"/>
      <feComposite operator="in" in2="blur"/>
      <feComposite in="SourceGraphic"/>
    </filter>
    <clipPath id="clip-path">
      <rect width="50" height="50" fill="none"/>
    </clipPath>
  </defs>
  <g id="Group_8414" data-name="Group 8414" transform="translate(-56.5 -28.5)">
    <g id="Card-2" data-name="Card" transform="translate(61 32)">
      <g transform="matrix(1, 0, 0, 1, -4.5, -3.5)" filter="url(#Card)">
        <rect id="Card-3" data-name="Card" width="435" height="218.66" rx="2" transform="translate(4.5 3.5)" fill="#fff"/>
      </g>
    </g>
    <g id="Progress_Wheel_7" data-name="Progress Wheel – 7" transform="translate(253.5 116.33)" clip-path="url(#clip-path)">
      <g id="Group_7426" data-name="Group 7426">
        <path id="Path_5481" data-name="Path 5481" d="M171.5,155.1a25,25,0,1,1,25-25A25.009,25.009,0,0,1,171.5,155.1Zm0-42.8a17.8,17.8,0,1,0,17.8,17.8A17.839,17.839,0,0,0,171.5,112.3Z" transform="translate(-146.5 -105.1)" fill="#cbcbd2"/>
        <path id="Path_5482" data-name="Path 5482" d="M154.5,124.7l-6.9-2.2A25.037,25.037,0,0,1,179,106.3l-2.2,6.9A17.7,17.7,0,0,0,154.5,124.7Z" transform="translate(-146.5 -105.1)" fill="#1f5ea8"/>
      </g>
    </g>
  </g>
</svg>
