<svg xmlns="http://www.w3.org/2000/svg" xmlns:xlink="http://www.w3.org/1999/xlink" width="485" height="311" viewBox="0 0 485 311">
  <defs>
    <filter id="Card" x="25.5" y="26.5" width="434" height="259" filterUnits="userSpaceOnUse">
      <feOffset dy="1" input="SourceAlpha"/>
      <feGaussianBlur stdDeviation="1.5" result="blur"/>
      <feFlood flood-opacity="0.161"/>
      <feComposite operator="in" in2="blur"/>
      <feComposite in="SourceGraphic"/>
    </filter>
    <clipPath id="clip-stacked_bar_chart">
      <rect width="485" height="311"/>
    </clipPath>
  </defs>
  <g id="stacked_bar_chart" data-name="stacked bar chart" clip-path="url(#clip-stacked_bar_chart)">
    <rect width="485" height="311" fill="#f4f4f6"/>
    <g id="Group_270708" data-name="Group 270708" transform="translate(-799 -292)">
      <g transform="matrix(1, 0, 0, 1, 799, 292)" filter="url(#Card)">
        <rect id="Card-2" data-name="Card" width="425" height="250" rx="2" transform="translate(30 30)" fill="#fff"/>
      </g>
      <g id="Group_270713" data-name="Group 270713" transform="translate(937 536) rotate(-90)">
        <rect id="Rectangle_11682" data-name="Rectangle 11682" width="66" height="30" fill="#30bbb1"/>
        <rect id="Rectangle_11683" data-name="Rectangle 11683" width="80" height="30" transform="translate(0 45)" fill="#30bbb1"/>
        <rect id="Rectangle_11684" data-name="Rectangle 11684" width="103" height="30" transform="translate(0 90)" fill="#30bbb1"/>
        <rect id="Rectangle_11685" data-name="Rectangle 11685" width="80" height="30" transform="translate(0 135)" fill="#30bbb1"/>
        <rect id="Rectangle_11688" data-name="Rectangle 11688" width="40" height="30" transform="translate(0 180)" fill="#30bbb1"/>
        <rect id="Rectangle_11693" data-name="Rectangle 11693" width="51" height="30" transform="translate(66)" fill="#e6e6ea"/>
        <rect id="Rectangle_11694" data-name="Rectangle 11694" width="73" height="30" transform="translate(80 45)" fill="#e6e6ea"/>
        <rect id="Rectangle_11695" data-name="Rectangle 11695" width="58" height="30" transform="translate(103 90)" fill="#e6e6ea"/>
        <rect id="Rectangle_11696" data-name="Rectangle 11696" width="33" height="30" transform="translate(80 135)" fill="#e6e6ea"/>
        <rect id="Rectangle_11697" data-name="Rectangle 11697" width="88" height="30" transform="translate(40 180)" fill="#e6e6ea"/>
      </g>
    </g>
  </g>
</svg>
