<svg xmlns="http://www.w3.org/2000/svg" xmlns:xlink="http://www.w3.org/1999/xlink" width="485" height="215" viewBox="0 0 485 215">
  <defs>
    <filter id="Rectangle_10023" x="163.5" y="63.5" width="159" height="127" filterUnits="userSpaceOnUse">
      <feOffset dy="1" input="SourceAlpha"/>
      <feGaussianBlur stdDeviation="1.5" result="blur"/>
      <feFlood flood-opacity="0.161"/>
      <feComposite operator="in" in2="blur"/>
      <feComposite in="SourceGraphic"/>
    </filter>
    <clipPath id="clip-Standard_Donot">
      <rect width="485" height="215"/>
    </clipPath>
  </defs>
  <g id="Standard_Donot" clip-path="url(#clip-Standard_Donot)">
    <rect width="485" height="215" fill="#f4f4f6"/>
    <g id="Dropdown_options" data-name="Dropdown options" transform="translate(152 31)">
      <g transform="matrix(1, 0, 0, 1, -152, -31)" filter="url(#Rectangle_10023)">
        <rect id="Rectangle_10023-2" data-name="Rectangle 10023" width="150" height="118" transform="translate(168 67)" fill="#fff"/>
      </g>
      <g id="dropdown_item" data-name="dropdown item" transform="translate(16 42)">
        <rect id="Rectangle_4665" data-name="Rectangle 4665" width="150" height="36" fill="#fff"/>
        <path id="Path_101518" data-name="Path 101518" d="M6.48,0h-5.2V-9.8H6.262v1.039H2.434V-5.5H5.975v1.032H2.434v3.432H6.48Zm7.711,0H13.07V-1.189h-.027A2.588,2.588,0,0,1,10.637.164a2.615,2.615,0,0,1-2.109-.94,3.856,3.856,0,0,1-.79-2.56,4.2,4.2,0,0,1,.875-2.782,2.886,2.886,0,0,1,2.331-1.046,2.244,2.244,0,0,1,2.1,1.135h.027v-4.334h1.121ZM13.07-3.165V-4.2a2,2,0,0,0-.561-1.436,1.88,1.88,0,0,0-1.422-.588,1.936,1.936,0,0,0-1.613.752,3.3,3.3,0,0,0-.588,2.078A2.964,2.964,0,0,0,9.451-1.48a1.843,1.843,0,0,0,1.514.7,1.915,1.915,0,0,0,1.521-.677A2.521,2.521,0,0,0,13.07-3.165Zm3.965-5.612a.71.71,0,0,1-.513-.205.692.692,0,0,1-.212-.52.7.7,0,0,1,.212-.523.7.7,0,0,1,.513-.208.724.724,0,0,1,.523.208.7.7,0,0,1,.215.523.693.693,0,0,1-.215.513A.718.718,0,0,1,17.035-8.777ZM17.582,0H16.461V-7h1.121ZM23.1-.068A2.161,2.161,0,0,1,22.053.15Q20.214.15,20.214-1.9V-6.043h-1.2V-7h1.2V-8.709l1.121-.362V-7H23.1v.957H21.335V-2.1a1.635,1.635,0,0,0,.239,1,.955.955,0,0,0,.793.3,1.179,1.179,0,0,0,.731-.232Z" transform="translate(15 22)" fill="#494955"/>
      </g>
      <g id="dropdown_item-2" data-name="dropdown item" transform="translate(16 78)">
        <rect id="Rectangle_4665-2" data-name="Rectangle 4665" width="150" height="36" fill="#fff"/>
        <path id="Path_101519" data-name="Path 101519" d="M11.279,0H10.138V-6.576q0-.779.1-1.907h-.027a6.1,6.1,0,0,1-.294.95L6.563,0H6L2.659-7.479a5.859,5.859,0,0,1-.294-1H2.338q.055.588.055,1.921V0H1.285V-9.8H2.8L5.811-2.967a8.753,8.753,0,0,1,.451,1.176H6.3q.294-.807.472-1.2L9.844-9.8h1.436Zm5.353.164a3.247,3.247,0,0,1-2.478-.981,3.634,3.634,0,0,1-.926-2.6,3.785,3.785,0,0,1,.964-2.755,3.465,3.465,0,0,1,2.6-.991A3.14,3.14,0,0,1,19.24-6.2a3.822,3.822,0,0,1,.878,2.673,3.761,3.761,0,0,1-.947,2.683A3.317,3.317,0,0,1,16.632.164Zm.082-6.385A2.132,2.132,0,0,0,15-5.486a3.018,3.018,0,0,0-.629,2.027A2.854,2.854,0,0,0,15.012-1.5a2.161,2.161,0,0,0,1.7.718,2.049,2.049,0,0,0,1.671-.7,3.055,3.055,0,0,0,.584-2,3.108,3.108,0,0,0-.584-2.023A2.04,2.04,0,0,0,16.714-6.221ZM27.412-7,24.623,0h-1.1L20.87-7H22.1l1.777,5.086a4.565,4.565,0,0,1,.246.978h.027a4.622,4.622,0,0,1,.219-.95L26.229-7Zm6.829,3.78H29.3a2.618,2.618,0,0,0,.629,1.8,2.168,2.168,0,0,0,1.654.636,3.439,3.439,0,0,0,2.174-.779V-.506a4.063,4.063,0,0,1-2.44.67A2.959,2.959,0,0,1,28.984-.79a3.9,3.9,0,0,1-.848-2.683,3.828,3.828,0,0,1,.926-2.663,2.97,2.97,0,0,1,2.3-1.029,2.632,2.632,0,0,1,2.126.889,3.705,3.705,0,0,1,.752,2.468Zm-1.148-.95a2.281,2.281,0,0,0-.468-1.511,1.6,1.6,0,0,0-1.282-.54A1.811,1.811,0,0,0,30-5.653a2.575,2.575,0,0,0-.684,1.483Z" transform="translate(15 22)" fill="#494955"/>
      </g>
      <g id="dropdown_item-3" data-name="dropdown item" transform="translate(16 114)">
        <rect id="Rectangle_4665-3" data-name="Rectangle 4665" width="150" height="36" fill="#fff"/>
        <path id="Path_101520" data-name="Path 101520" d="M1.285,0V-9.8H3.992q5.182,0,5.182,4.778A4.815,4.815,0,0,1,7.735-1.377,5.338,5.338,0,0,1,3.883,0ZM2.434-8.764v7.725H3.9a4.152,4.152,0,0,0,3-1.032A3.869,3.869,0,0,0,7.971-5q0-3.767-4.006-3.767ZM16.577-3.22H11.635a2.618,2.618,0,0,0,.629,1.8,2.168,2.168,0,0,0,1.654.636,3.439,3.439,0,0,0,2.174-.779V-.506a4.063,4.063,0,0,1-2.44.67A2.959,2.959,0,0,1,11.32-.79a3.9,3.9,0,0,1-.848-2.683A3.828,3.828,0,0,1,11.4-6.135a2.97,2.97,0,0,1,2.3-1.029,2.632,2.632,0,0,1,2.126.889,3.705,3.705,0,0,1,.752,2.468Zm-1.148-.95a2.281,2.281,0,0,0-.468-1.511,1.6,1.6,0,0,0-1.282-.54,1.811,1.811,0,0,0-1.347.567,2.575,2.575,0,0,0-.684,1.483ZM19.394,0H18.272V-10.363h1.121Zm7.9-3.22H22.347a2.618,2.618,0,0,0,.629,1.8,2.168,2.168,0,0,0,1.654.636A3.439,3.439,0,0,0,26.8-1.559V-.506a4.063,4.063,0,0,1-2.44.67A2.959,2.959,0,0,1,22.032-.79a3.9,3.9,0,0,1-.848-2.683,3.828,3.828,0,0,1,.926-2.663,2.97,2.97,0,0,1,2.3-1.029,2.632,2.632,0,0,1,2.126.889,3.705,3.705,0,0,1,.752,2.468Zm-1.148-.95a2.281,2.281,0,0,0-.468-1.511,1.6,1.6,0,0,0-1.282-.54,1.811,1.811,0,0,0-1.347.567A2.575,2.575,0,0,0,22.36-4.17Zm6.091,4.1A2.161,2.161,0,0,1,31.186.15Q29.347.15,29.347-1.9V-6.043h-1.2V-7h1.2V-8.709l1.121-.362V-7h1.764v.957H30.468V-2.1a1.635,1.635,0,0,0,.239,1,.955.955,0,0,0,.793.3,1.179,1.179,0,0,0,.731-.232ZM39.354-3.22H34.412a2.618,2.618,0,0,0,.629,1.8A2.168,2.168,0,0,0,36.7-.779a3.439,3.439,0,0,0,2.174-.779V-.506a4.063,4.063,0,0,1-2.44.67A2.959,2.959,0,0,1,34.1-.79a3.9,3.9,0,0,1-.848-2.683,3.828,3.828,0,0,1,.926-2.663,2.97,2.97,0,0,1,2.3-1.029,2.632,2.632,0,0,1,2.126.889,3.705,3.705,0,0,1,.752,2.468Zm-1.148-.95a2.281,2.281,0,0,0-.468-1.511,1.6,1.6,0,0,0-1.282-.54,1.811,1.811,0,0,0-1.347.567,2.575,2.575,0,0,0-.684,1.483Z" transform="translate(15 22)" fill="#494955"/>
      </g>
    </g>
    <g id="Group_264634" data-name="Group 264634" transform="translate(168 39)">
      <path id="Path_7189" data-name="Path 7189" d="M15.036,9.421,12,12.457,8.964,9.421a1,1,0,0,0-1.414,0h0a1,1,0,0,0,0,1.414l3.743,3.743a1,1,0,0,0,1.414,0l3.743-3.743a1,1,0,0,0,0-1.414h0A1,1,0,0,0,15.036,9.421Z" transform="translate(61.743 -1)" fill="#fff"/>
      <text id="Action" transform="translate(16 15)" fill="#fff" font-size="14" font-family="SegoeUI-Semibold, Segoe UI" font-weight="600"><tspan x="0" y="0">Action</tspan></text>
    </g>
    <g id="Group_264632" data-name="Group 264632" transform="translate(168 31)">
      <rect id="Rectangle_3990" data-name="Rectangle 3990" width="90" height="36" rx="18" fill="#1f5ea8"/>
      <g id="Group_264633" data-name="Group 264633" transform="translate(-1)">
        <g id="Chevron_up" data-name="Chevron up" transform="translate(68 18)">
          <g id="Group_264667" data-name="Group 264667" transform="translate(-8 -8)">
            <path id="Path_101500" data-name="Path 101500" d="M4,10.7,2.8,9.4a.3.3,0,0,1,0-.4l5-5a.3.3,0,0,1,.4,0l5,5.1a.3.3,0,0,1,0,.4L12,10.7a.3.3,0,0,1-.4,0L8,7.1,4.4,10.7a.3.3,0,0,1-.4,0Z" fill="#fff"/>
            <rect id="Rectangle_10039" data-name="Rectangle 10039" width="16" height="16" fill="none"/>
          </g>
        </g>
        <text id="More" transform="translate(16 23)" fill="#fff" font-size="14" font-family="SegoeUI-Semibold, Segoe UI" font-weight="600"><tspan x="0" y="0">More</tspan></text>
      </g>
    </g>
  </g>
</svg>
