<svg xmlns="http://www.w3.org/2000/svg" xmlns:xlink="http://www.w3.org/1999/xlink" width="1000" height="425" viewBox="0 0 1000 425">
  <defs>
    <filter id="Rectangle_53" x="115.5" y="26.5" width="779" height="57" filterUnits="userSpaceOnUse">
      <feOffset dy="1" input="SourceAlpha"/>
      <feGaussianBlur stdDeviation="1.5" result="blur"/>
      <feFlood flood-opacity="0.161"/>
      <feComposite operator="in" in2="blur"/>
      <feComposite in="SourceGraphic"/>
    </filter>
    <filter id="Rectangle_53-2" x="115.5" y="84.5" width="779" height="210" filterUnits="userSpaceOnUse">
      <feOffset dy="1" input="SourceAlpha"/>
      <feGaussianBlur stdDeviation="1.5" result="blur-2"/>
      <feFlood flood-opacity="0.161"/>
      <feComposite operator="in" in2="blur-2"/>
      <feComposite in="SourceGraphic"/>
    </filter>
    <filter id="Rectangle_53-3" x="115.5" y="295.5" width="779" height="105" filterUnits="userSpaceOnUse">
      <feOffset dy="1" input="SourceAlpha"/>
      <feGaussianBlur stdDeviation="1.5" result="blur-3"/>
      <feFlood flood-opacity="0.161"/>
      <feComposite operator="in" in2="blur-3"/>
      <feComposite in="SourceGraphic"/>
    </filter>
    <clipPath id="clip-Standard_Expander_Anatomy">
      <rect width="1000" height="425"/>
    </clipPath>
  </defs>
  <g id="Standard_Expander_Anatomy" clip-path="url(#clip-Standard_Expander_Anatomy)">
    <rect width="1000" height="425" fill="#f4f4f6"/>
    <g id="Group_264657" data-name="Group 264657" transform="translate(-42)">
      <g id="Group_264654" data-name="Group 264654" transform="translate(162 30)">
        <g transform="matrix(1, 0, 0, 1, -120, -30)" filter="url(#Rectangle_53)">
          <rect id="Rectangle_53-4" data-name="Rectangle 53" width="770" height="48" rx="2" transform="translate(120 30)" fill="#fff"/>
        </g>
        <path id="Seventies" d="M10.883,0H8.852L3.5-8.234a3.651,3.651,0,0,1-.336-.648H3.117A11.534,11.534,0,0,1,3.18-7.344V0h-1.8V-11.2H3.547L8.719-3.164q.328.5.422.688h.031a9.954,9.954,0,0,1-.078-1.508V-11.2h1.789Zm8.711,0H17.836V-1.25H17.8A2.647,2.647,0,0,1,15.375.188a2.559,2.559,0,0,1-1.848-.641,2.241,2.241,0,0,1-.668-1.7q0-2.266,2.609-2.641l2.375-.336q0-1.711-1.625-1.711a3.86,3.86,0,0,0-2.578.984V-7.437a5.622,5.622,0,0,1,2.922-.75q3.031,0,3.031,2.984Zm-1.75-3.93-1.68.234a2.662,2.662,0,0,0-1.176.379,1.107,1.107,0,0,0-.395.973,1.065,1.065,0,0,0,.363.832,1.407,1.407,0,0,0,.973.324A1.8,1.8,0,0,0,17.3-1.77a2.064,2.064,0,0,0,.543-1.465ZM33.766,0H31.953V-4.359A3.533,3.533,0,0,0,31.6-6.18a1.308,1.308,0,0,0-1.2-.562,1.445,1.445,0,0,0-1.207.711,2.9,2.9,0,0,0-.5,1.7V0h-1.82V-4.508q0-2.234-1.578-2.234a1.424,1.424,0,0,0-1.207.672,2.963,2.963,0,0,0-.473,1.742V0H21.8V-8h1.813v1.266h.031a2.771,2.771,0,0,1,2.523-1.453,2.379,2.379,0,0,1,1.449.457,2.276,2.276,0,0,1,.848,1.2,2.855,2.855,0,0,1,2.656-1.656q2.641,0,2.641,3.258ZM42.75-3.508H37.3A2.305,2.305,0,0,0,37.98-1.8a2.543,2.543,0,0,0,1.793.6,3.954,3.954,0,0,0,2.352-.766V-.5a5.373,5.373,0,0,1-2.891.688A3.578,3.578,0,0,1,36.465-.9a4.359,4.359,0,0,1-1-3.066,4.263,4.263,0,0,1,1.105-3.043,3.616,3.616,0,0,1,2.746-1.176,3.153,3.153,0,0,1,2.539,1.055,4.379,4.379,0,0,1,.9,2.93ZM41-4.789a2.336,2.336,0,0,0-.461-1.52,1.54,1.54,0,0,0-1.25-.543,1.759,1.759,0,0,0-1.324.57A2.605,2.605,0,0,0,37.3-4.789Z" transform="translate(10 31)" fill="#31313a"/>
        <path id="Path_101508" data-name="Path 101508" d="M3.794-3.514A4.381,4.381,0,0,1,3.056-.8,2.359,2.359,0,0,1,1.08.164,2.335,2.335,0,0,1,.137,0V-1.135a1.6,1.6,0,0,0,.957.267q1.552,0,1.552-2.632V-9.8H3.794ZM9.058.164A3.247,3.247,0,0,1,6.58-.817a3.633,3.633,0,0,1-.926-2.6,3.785,3.785,0,0,1,.964-2.755,3.465,3.465,0,0,1,2.6-.991,3.14,3.14,0,0,1,2.444.964,3.822,3.822,0,0,1,.878,2.673A3.761,3.761,0,0,1,11.6-.844,3.317,3.317,0,0,1,9.058.164ZM9.14-6.221a2.132,2.132,0,0,0-1.709.735A3.018,3.018,0,0,0,6.8-3.459,2.854,2.854,0,0,0,7.438-1.5a2.161,2.161,0,0,0,1.7.718,2.049,2.049,0,0,0,1.671-.7,3.055,3.055,0,0,0,.584-2,3.108,3.108,0,0,0-.584-2.023A2.04,2.04,0,0,0,9.14-6.221ZM20.146,0H19.024V-4.033q0-2.188-1.627-2.187a1.774,1.774,0,0,0-1.381.632,2.356,2.356,0,0,0-.561,1.624V0H14.335V-10.363h1.121v4.525h.027a2.546,2.546,0,0,1,2.3-1.326q2.365,0,2.365,2.851Zm7.923,0H26.947V-3.992q0-2.229-1.627-2.229a1.765,1.765,0,0,0-1.391.632,2.344,2.344,0,0,0-.55,1.6V0H22.258V-7h1.121v1.162h.027a2.526,2.526,0,0,1,2.3-1.326,2.142,2.142,0,0,1,1.757.742,3.3,3.3,0,0,1,.608,2.143Zm6.1,0V-9.8h2.707q5.182,0,5.182,4.778a4.815,4.815,0,0,1-1.439,3.647A5.338,5.338,0,0,1,36.764,0Zm1.148-8.764v7.725h1.463a4.152,4.152,0,0,0,3-1.032A3.869,3.869,0,0,0,40.852-5q0-3.767-4.006-3.767ZM46.758.164A3.247,3.247,0,0,1,44.28-.817a3.634,3.634,0,0,1-.926-2.6,3.785,3.785,0,0,1,.964-2.755,3.465,3.465,0,0,1,2.6-.991,3.14,3.14,0,0,1,2.444.964,3.822,3.822,0,0,1,.878,2.673A3.761,3.761,0,0,1,49.3-.844,3.317,3.317,0,0,1,46.758.164Zm.082-6.385a2.132,2.132,0,0,0-1.709.735A3.018,3.018,0,0,0,44.5-3.459,2.854,2.854,0,0,0,45.138-1.5a2.161,2.161,0,0,0,1.7.718,2.049,2.049,0,0,0,1.671-.7,3.055,3.055,0,0,0,.584-2,3.108,3.108,0,0,0-.584-2.023A2.04,2.04,0,0,0,46.84-6.221Zm10.821,3H52.719a2.618,2.618,0,0,0,.629,1.8A2.168,2.168,0,0,0,55-.779a3.439,3.439,0,0,0,2.174-.779V-.506a4.063,4.063,0,0,1-2.44.67A2.959,2.959,0,0,1,52.4-.79a3.9,3.9,0,0,1-.848-2.683,3.828,3.828,0,0,1,.926-2.663,2.97,2.97,0,0,1,2.3-1.029,2.632,2.632,0,0,1,2.126.889,3.705,3.705,0,0,1,.752,2.468Zm-1.148-.95a2.281,2.281,0,0,0-.468-1.511,1.6,1.6,0,0,0-1.282-.54,1.811,1.811,0,0,0-1.347.567,2.575,2.575,0,0,0-.684,1.483Z" transform="translate(370 30)" fill="#31313a"/>
        <g id="Icon_link" data-name="Icon link" transform="translate(724 6)">
          <g id="Group_264647" data-name="Group 264647">
            <rect id="Rectangle_5240" data-name="Rectangle 5240" width="36" height="36" rx="18" fill="none"/>
            <g id="Chevron_down" data-name="Chevron down" transform="translate(10 10)">
              <g id="Group_264648" data-name="Group 264648">
                <path id="Path_101496" data-name="Path 101496" d="M11.974,5.284l1.275,1.275a.289.289,0,0,1,0,.407l-5.06,5.083a.289.289,0,0,1-.407,0L2.751,6.966a.289.289,0,0,1,0-.407L4.026,5.284a.289.289,0,0,1,.407,0l3.553,3.6,3.581-3.6A.289.289,0,0,1,11.974,5.284Z" fill="#78788c"/>
                <rect id="Rectangle_10025" data-name="Rectangle 10025" width="16" height="16" fill="none"/>
              </g>
            </g>
          </g>
        </g>
      </g>
      <g id="Group_264655" data-name="Group 264655" transform="translate(162 88)">
        <g transform="matrix(1, 0, 0, 1, -120, -88)" filter="url(#Rectangle_53-2)">
          <rect id="Rectangle_53-5" data-name="Rectangle 53" width="770" height="201" rx="2" transform="translate(120 88)" fill="#fff"/>
        </g>
        <path id="Seventies-2" data-name="Seventies" d="M10-4.531Q10,.188,5.531.188,1.25.188,1.25-4.352V-11.2H3.109v6.469q0,3.3,2.563,3.3,2.469,0,2.469-3.18V-11.2H10ZM11.93-.25V-1.93a3.616,3.616,0,0,0,2.242.773q1.641,0,1.641-.969a.763.763,0,0,0-.141-.465,1.342,1.342,0,0,0-.379-.34A2.979,2.979,0,0,0,14.73-3.2q-.324-.117-.723-.266a7.65,7.65,0,0,1-.887-.414,2.679,2.679,0,0,1-.656-.5A1.873,1.873,0,0,1,12.07-5a2.316,2.316,0,0,1-.133-.82,1.9,1.9,0,0,1,.273-1.02,2.376,2.376,0,0,1,.734-.742,3.522,3.522,0,0,1,1.047-.453A4.793,4.793,0,0,1,15.2-8.187a5.5,5.5,0,0,1,1.984.336v1.586a3.345,3.345,0,0,0-1.937-.578,2.53,2.53,0,0,0-.621.07,1.6,1.6,0,0,0-.473.2.961.961,0,0,0-.3.3.718.718,0,0,0-.109.387.826.826,0,0,0,.109.438.993.993,0,0,0,.324.316,2.8,2.8,0,0,0,.516.25q.3.113.691.246a10.1,10.1,0,0,1,.926.43,3.129,3.129,0,0,1,.7.5,1.945,1.945,0,0,1,.445.641,2.175,2.175,0,0,1,.156.863,1.973,1.973,0,0,1-.281,1.063,2.344,2.344,0,0,1-.75.75A3.511,3.511,0,0,1,15.5.043,5.621,5.621,0,0,1,14.2.188,5.448,5.448,0,0,1,11.93-.25ZM26.1-3.508H20.648A2.305,2.305,0,0,0,21.332-1.8a2.543,2.543,0,0,0,1.793.6,3.954,3.954,0,0,0,2.352-.766V-.5a5.373,5.373,0,0,1-2.891.688A3.578,3.578,0,0,1,19.816-.9a4.359,4.359,0,0,1-1-3.066,4.263,4.263,0,0,1,1.105-3.043,3.616,3.616,0,0,1,2.746-1.176A3.153,3.153,0,0,1,25.2-7.133a4.379,4.379,0,0,1,.9,2.93Zm-1.75-1.281a2.336,2.336,0,0,0-.461-1.52,1.54,1.54,0,0,0-1.25-.543,1.759,1.759,0,0,0-1.324.57,2.605,2.605,0,0,0-.668,1.492Zm8.117-1.484a1.5,1.5,0,0,0-.945-.258A1.618,1.618,0,0,0,30.18-5.8a3.249,3.249,0,0,0-.539,1.977V0H27.828V-8h1.813v1.648h.031a2.787,2.787,0,0,1,.816-1.316,1.843,1.843,0,0,1,1.23-.473,1.528,1.528,0,0,1,.75.148ZM40.875,0H39.063V-4.508q0-2.242-1.586-2.242a1.731,1.731,0,0,0-1.367.621,2.3,2.3,0,0,0-.539,1.566V0H33.75V-8h1.82v1.328H35.6A2.851,2.851,0,0,1,38.2-8.187a2.416,2.416,0,0,1,1.992.848,3.806,3.806,0,0,1,.688,2.449Zm8.352,0H47.469V-1.25h-.031A2.647,2.647,0,0,1,45.008.188,2.559,2.559,0,0,1,43.16-.453a2.241,2.241,0,0,1-.668-1.7q0-2.266,2.609-2.641l2.375-.336q0-1.711-1.625-1.711a3.86,3.86,0,0,0-2.578.984V-7.437a5.622,5.622,0,0,1,2.922-.75q3.031,0,3.031,2.984Zm-1.75-3.93L45.8-3.7a2.662,2.662,0,0,0-1.176.379,1.107,1.107,0,0,0-.395.973,1.065,1.065,0,0,0,.363.832,1.407,1.407,0,0,0,.973.324,1.8,1.8,0,0,0,1.371-.582,2.064,2.064,0,0,0,.543-1.465ZM63.4,0H61.586V-4.359a3.533,3.533,0,0,0-.355-1.82,1.308,1.308,0,0,0-1.2-.562,1.445,1.445,0,0,0-1.207.711,2.9,2.9,0,0,0-.5,1.7V0h-1.82V-4.508q0-2.234-1.578-2.234a1.424,1.424,0,0,0-1.207.672,2.963,2.963,0,0,0-.473,1.742V0H51.438V-8H53.25v1.266h.031A2.771,2.771,0,0,1,55.8-8.187a2.379,2.379,0,0,1,1.449.457,2.276,2.276,0,0,1,.848,1.2,2.855,2.855,0,0,1,2.656-1.656q2.641,0,2.641,3.258Zm8.984-3.508H66.93A2.305,2.305,0,0,0,67.613-1.8a2.543,2.543,0,0,0,1.793.6,3.954,3.954,0,0,0,2.352-.766V-.5a5.373,5.373,0,0,1-2.891.688A3.578,3.578,0,0,1,66.1-.9a4.359,4.359,0,0,1-1-3.066A4.263,4.263,0,0,1,66.2-7.012a3.616,3.616,0,0,1,2.746-1.176,3.153,3.153,0,0,1,2.539,1.055,4.379,4.379,0,0,1,.9,2.93Zm-1.75-1.281a2.336,2.336,0,0,0-.461-1.52,1.54,1.54,0,0,0-1.25-.543,1.759,1.759,0,0,0-1.324.57,2.605,2.605,0,0,0-.668,1.492Z" transform="translate(10 31)" fill="#31313a"/>
        <g id="Icon_link-2" data-name="Icon link" transform="translate(724 6)">
          <g id="Group_264647-2" data-name="Group 264647" transform="translate(0 0)">
            <rect id="Rectangle_5240-2" data-name="Rectangle 5240" width="36" height="36" rx="18" transform="translate(0 0)" fill="none"/>
            <g id="Chevron_down-2" data-name="Chevron down" transform="translate(26 26) rotate(180)">
              <g id="Group_264648-2" data-name="Group 264648">
                <path id="Path_101496-2" data-name="Path 101496" d="M9.307.084l1.275,1.275a.289.289,0,0,1,0,.407L5.522,6.849a.289.289,0,0,1-.407,0L.084,1.766a.289.289,0,0,1,0-.407L1.359.084a.289.289,0,0,1,.407,0l3.553,3.6L8.9.084A.289.289,0,0,1,9.307.084Z" transform="translate(2.667 5.2)" fill="#78788c"/>
                <rect id="Rectangle_10025-2" data-name="Rectangle 10025" width="16" height="16" fill="none"/>
              </g>
            </g>
          </g>
        </g>
        <g id="Input_-_Side" data-name="Input - Side" transform="translate(24.28 68)">
          <g id="Rectangle_288" data-name="Rectangle 288" transform="translate(92.72)" fill="#fff" stroke="#cbcbd2" stroke-width="1">
            <rect width="350" height="42" rx="4" stroke="none"/>
            <rect x="0.5" y="0.5" width="349" height="41" rx="3.5" fill="none"/>
          </g>
          <path id="Path_101512" data-name="Path 101512" d="M2.256-.294a4.387,4.387,0,0,1-.694,2.656,2.326,2.326,0,0,1-1.986.933,2.108,2.108,0,0,1-.93-.219V2.03A1.855,1.855,0,0,0-.4,2.338q1.531,0,1.531-2.447V-7H2.256ZM1.709-8.777A.71.71,0,0,1,1.2-8.982.692.692,0,0,1,.984-9.5a.7.7,0,0,1,.212-.523.7.7,0,0,1,.513-.208.724.724,0,0,1,.523.208.7.7,0,0,1,.215.523.693.693,0,0,1-.215.513A.718.718,0,0,1,1.709-8.777ZM7.451.164A3.247,3.247,0,0,1,4.973-.817a3.633,3.633,0,0,1-.926-2.6,3.785,3.785,0,0,1,.964-2.755,3.465,3.465,0,0,1,2.6-.991,3.14,3.14,0,0,1,2.444.964,3.822,3.822,0,0,1,.878,2.673A3.761,3.761,0,0,1,9.991-.844,3.317,3.317,0,0,1,7.451.164Zm.082-6.385a2.132,2.132,0,0,0-1.709.735A3.018,3.018,0,0,0,5.2-3.459,2.854,2.854,0,0,0,5.831-1.5a2.161,2.161,0,0,0,1.7.718,2.049,2.049,0,0,0,1.671-.7,3.055,3.055,0,0,0,.584-2A3.108,3.108,0,0,0,9.2-5.51,2.04,2.04,0,0,0,7.533-6.221ZM18.539,0H17.418V-4.033q0-2.188-1.627-2.187a1.774,1.774,0,0,0-1.381.632,2.356,2.356,0,0,0-.561,1.624V0H12.729V-10.363H13.85v4.525h.027a2.546,2.546,0,0,1,2.3-1.326q2.365,0,2.365,2.851Zm7.923,0H25.341V-3.992q0-2.229-1.627-2.229a1.765,1.765,0,0,0-1.391.632,2.344,2.344,0,0,0-.55,1.6V0H20.651V-7h1.121v1.162H21.8a2.526,2.526,0,0,1,2.3-1.326,2.142,2.142,0,0,1,1.757.742,3.3,3.3,0,0,1,.608,2.143Zm2.5.15a.726.726,0,0,1-.537-.226.742.742,0,0,1-.222-.54.754.754,0,0,1,.222-.543.72.72,0,0,1,.537-.229.739.739,0,0,1,.547.229.748.748,0,0,1,.226.543.737.737,0,0,1-.226.54A.745.745,0,0,1,28.964.15ZM37.584,0H36.463V-1.189h-.027A2.588,2.588,0,0,1,34.029.164a2.615,2.615,0,0,1-2.109-.94,3.856,3.856,0,0,1-.79-2.56,4.2,4.2,0,0,1,.875-2.782,2.886,2.886,0,0,1,2.331-1.046,2.244,2.244,0,0,1,2.1,1.135h.027v-4.334h1.121ZM36.463-3.165V-4.2A2,2,0,0,0,35.9-5.633a1.88,1.88,0,0,0-1.422-.588,1.936,1.936,0,0,0-1.613.752,3.3,3.3,0,0,0-.588,2.078,2.964,2.964,0,0,0,.564,1.911,1.843,1.843,0,0,0,1.514.7,1.915,1.915,0,0,0,1.521-.677A2.521,2.521,0,0,0,36.463-3.165ZM42.779.164A3.247,3.247,0,0,1,40.3-.817a3.634,3.634,0,0,1-.926-2.6,3.785,3.785,0,0,1,.964-2.755,3.465,3.465,0,0,1,2.6-.991,3.14,3.14,0,0,1,2.444.964,3.822,3.822,0,0,1,.878,2.673,3.761,3.761,0,0,1-.947,2.683A3.317,3.317,0,0,1,42.779.164Zm.082-6.385a2.132,2.132,0,0,0-1.709.735,3.018,3.018,0,0,0-.629,2.027A2.854,2.854,0,0,0,41.159-1.5a2.161,2.161,0,0,0,1.7.718,2.049,2.049,0,0,0,1.671-.7,3.055,3.055,0,0,0,.584-2,3.108,3.108,0,0,0-.584-2.023A2.04,2.04,0,0,0,42.861-6.221Zm10.821,3H48.74a2.618,2.618,0,0,0,.629,1.8,2.168,2.168,0,0,0,1.654.636A3.439,3.439,0,0,0,53.2-1.559V-.506a4.063,4.063,0,0,1-2.44.67A2.959,2.959,0,0,1,48.426-.79a3.9,3.9,0,0,1-.848-2.683A3.828,3.828,0,0,1,48.5-6.135a2.97,2.97,0,0,1,2.3-1.029,2.632,2.632,0,0,1,2.126.889,3.705,3.705,0,0,1,.752,2.468Zm-1.148-.95a2.281,2.281,0,0,0-.468-1.511,1.6,1.6,0,0,0-1.282-.54,1.811,1.811,0,0,0-1.347.567,2.575,2.575,0,0,0-.684,1.483Zm9.666,1.3h-.034A1.968,1.968,0,0,1,60.2-1.244a1.859,1.859,0,0,1-1.507-.69,2.828,2.828,0,0,1-.571-1.859,4.074,4.074,0,0,1,.79-2.567A2.5,2.5,0,0,1,60.99-7.383a1.568,1.568,0,0,1,.878.253,1.125,1.125,0,0,1,.5.636h.027q.014-.191.068-.786h.854q-.321,3.767-.321,3.835,0,1.415.813,1.415a1.424,1.424,0,0,0,1.227-.8A3.926,3.926,0,0,0,65.522-4.9a4.154,4.154,0,0,0-1.189-3.069A4.453,4.453,0,0,0,61.038-9.16a4.392,4.392,0,0,0-3.356,1.422,5.01,5.01,0,0,0-1.326,3.555A4.635,4.635,0,0,0,57.617-.8a4.541,4.541,0,0,0,3.4,1.289A6.757,6.757,0,0,0,63.9-.068V.779a7.532,7.532,0,0,1-2.953.506,5.461,5.461,0,0,1-4.009-1.5,5.272,5.272,0,0,1-1.521-3.927,5.722,5.722,0,0,1,1.6-4.149,5.432,5.432,0,0,1,4.078-1.647,5.515,5.515,0,0,1,3.849,1.381,4.633,4.633,0,0,1,1.524,3.6,4.248,4.248,0,0,1-.8,2.669A2.4,2.4,0,0,1,63.7-1.244Q62.207-1.244,62.2-2.871ZM60.977-6.59a1.576,1.576,0,0,0-1.371.807,3.609,3.609,0,0,0-.523,2,2.06,2.06,0,0,0,.352,1.271,1.12,1.12,0,0,0,.94.465,1.505,1.505,0,0,0,1.343-.844,4.4,4.4,0,0,0,.5-2.239Q62.214-6.59,60.977-6.59ZM73.63-6.679,69.487-.957h4.1V0H67.84V-.349l4.143-5.694H68.229V-7h5.4ZM80.65-7l-3.22,8.121q-.861,2.174-2.42,2.174a2.565,2.565,0,0,1-.731-.089v-1a2.078,2.078,0,0,0,.663.123,1.374,1.374,0,0,0,1.271-1.012l.561-1.326L74.04-7h1.244l1.894,5.387q.034.1.144.533h.041q.034-.164.137-.52L79.488-7ZM90.672-7l-2.1,7H87.411L85.969-5.011a3.265,3.265,0,0,1-.109-.649h-.027a3.066,3.066,0,0,1-.144.636L84.123,0H83L80.883-7h1.176l1.449,5.264a3.171,3.171,0,0,1,.1.629h.055a2.942,2.942,0,0,1,.123-.643L85.395-7H86.42l1.449,5.277a3.768,3.768,0,0,1,.1.629h.055a2.909,2.909,0,0,1,.116-.629L89.564-7Zm6.31,7H95.86V-1.094h-.027A2.347,2.347,0,0,1,93.68.164,2.3,2.3,0,0,1,92.042-.39a1.918,1.918,0,0,1-.591-1.47q0-1.962,2.311-2.283l2.1-.294q0-1.784-1.442-1.784a3.446,3.446,0,0,0-2.283.861V-6.508a4.338,4.338,0,0,1,2.379-.656q2.468,0,2.468,2.611ZM95.86-3.541l-1.688.232A2.741,2.741,0,0,0,93-2.922a1.114,1.114,0,0,0-.4.981,1.068,1.068,0,0,0,.366.837,1.413,1.413,0,0,0,.974.325,1.8,1.8,0,0,0,1.377-.584,2.088,2.088,0,0,0,.543-1.48ZM104.6-7l-2.789,7h-1.1L98.055-7h1.23l1.777,5.086a4.565,4.565,0,0,1,.246.978h.027a4.622,4.622,0,0,1,.219-.95L103.414-7Zm6.829,3.78h-4.942a2.618,2.618,0,0,0,.629,1.8,2.168,2.168,0,0,0,1.654.636,3.439,3.439,0,0,0,2.174-.779V-.506a4.063,4.063,0,0,1-2.44.67,2.959,2.959,0,0,1-2.331-.954,3.9,3.9,0,0,1-.848-2.683,3.828,3.828,0,0,1,.926-2.663,2.97,2.97,0,0,1,2.3-1.029,2.632,2.632,0,0,1,2.126.889,3.705,3.705,0,0,1,.752,2.468Zm-1.148-.95a2.281,2.281,0,0,0-.468-1.511,1.6,1.6,0,0,0-1.282-.54,1.811,1.811,0,0,0-1.347.567A2.575,2.575,0,0,0,106.5-4.17ZM113.511.15a.726.726,0,0,1-.537-.226.742.742,0,0,1-.222-.54.754.754,0,0,1,.222-.543.72.72,0,0,1,.537-.229.739.739,0,0,1,.547.229.748.748,0,0,1,.226.543.737.737,0,0,1-.226.54A.745.745,0,0,1,113.511.15Zm7.417-.472a3.643,3.643,0,0,1-1.914.485A3.169,3.169,0,0,1,116.6-.81a3.53,3.53,0,0,1-.919-2.526,3.881,3.881,0,0,1,.991-2.779,3.467,3.467,0,0,1,2.646-1.049,3.682,3.682,0,0,1,1.627.342v1.148a2.85,2.85,0,0,0-1.668-.547,2.254,2.254,0,0,0-1.76.769,2.918,2.918,0,0,0-.687,2.02,2.779,2.779,0,0,0,.646,1.941,2.227,2.227,0,0,0,1.733.711,2.81,2.81,0,0,0,1.723-.608Zm4.621.485a3.247,3.247,0,0,1-2.478-.981,3.633,3.633,0,0,1-.926-2.6,3.785,3.785,0,0,1,.964-2.755,3.465,3.465,0,0,1,2.6-.991,3.14,3.14,0,0,1,2.444.964,3.822,3.822,0,0,1,.878,2.673,3.761,3.761,0,0,1-.947,2.683A3.317,3.317,0,0,1,125.549.164Zm.082-6.385a2.132,2.132,0,0,0-1.709.735,3.018,3.018,0,0,0-.629,2.027,2.854,2.854,0,0,0,.636,1.962,2.161,2.161,0,0,0,1.7.718,2.049,2.049,0,0,0,1.671-.7,3.055,3.055,0,0,0,.584-2A3.108,3.108,0,0,0,127.3-5.51,2.04,2.04,0,0,0,125.631-6.221ZM140.766,0h-1.121V-4.02a3.032,3.032,0,0,0-.359-1.682,1.361,1.361,0,0,0-1.207-.52,1.494,1.494,0,0,0-1.22.656,2.511,2.511,0,0,0-.5,1.572V0h-1.121V-4.156q0-2.064-1.593-2.064a1.475,1.475,0,0,0-1.217.619,2.557,2.557,0,0,0-.479,1.61V0h-1.121V-7h1.121v1.107h.027a2.378,2.378,0,0,1,2.174-1.271,2.027,2.027,0,0,1,1.251.4,2.012,2.012,0,0,1,.731,1.049,2.5,2.5,0,0,1,2.324-1.449q2.311,0,2.311,2.851Z" transform="translate(107.72 27)" fill="#31313a"/>
          <path id="Path_101513" data-name="Path 101513" d="M-55.063-3.965q0,4.129-3.91,4.129-3.746,0-3.746-3.972v-6h1.627v5.66q0,2.885,2.242,2.885,2.16,0,2.16-2.782V-9.8h1.627Zm1.688,3.746v-1.47a3.164,3.164,0,0,0,1.962.677q1.436,0,1.436-.848a.668.668,0,0,0-.123-.407,1.175,1.175,0,0,0-.332-.3,2.607,2.607,0,0,0-.492-.232q-.284-.1-.632-.232a6.694,6.694,0,0,1-.776-.362,2.344,2.344,0,0,1-.574-.434,1.639,1.639,0,0,1-.345-.55,2.026,2.026,0,0,1-.116-.718,1.659,1.659,0,0,1,.239-.892,2.079,2.079,0,0,1,.643-.649,3.081,3.081,0,0,1,.916-.4,4.194,4.194,0,0,1,1.06-.133,4.817,4.817,0,0,1,1.736.294v1.388a2.927,2.927,0,0,0-1.7-.506,2.214,2.214,0,0,0-.543.062,1.4,1.4,0,0,0-.414.171.841.841,0,0,0-.267.263.628.628,0,0,0-.1.338.723.723,0,0,0,.1.383.869.869,0,0,0,.284.277,2.45,2.45,0,0,0,.451.219q.263.1.6.215a8.839,8.839,0,0,1,.81.376,2.737,2.737,0,0,1,.612.434,1.7,1.7,0,0,1,.39.561,1.9,1.9,0,0,1,.137.755,1.727,1.727,0,0,1-.246.93,2.051,2.051,0,0,1-.656.656,3.072,3.072,0,0,1-.947.386,4.918,4.918,0,0,1-1.131.126A4.767,4.767,0,0,1-53.375-.219Zm12.4-2.851h-4.771a2.017,2.017,0,0,0,.6,1.5,2.225,2.225,0,0,0,1.569.526,3.459,3.459,0,0,0,2.058-.67V-.437a4.7,4.7,0,0,1-2.529.6A3.131,3.131,0,0,1-46.474-.79a3.814,3.814,0,0,1-.878-2.683,3.73,3.73,0,0,1,.967-2.663,3.164,3.164,0,0,1,2.4-1.029,2.759,2.759,0,0,1,2.222.923,3.832,3.832,0,0,1,.786,2.563ZM-42.506-4.19a2.044,2.044,0,0,0-.4-1.33A1.348,1.348,0,0,0-44-6a1.539,1.539,0,0,0-1.159.5,2.28,2.28,0,0,0-.584,1.306Zm7.1-1.3a1.315,1.315,0,0,0-.827-.226,1.416,1.416,0,0,0-1.176.636,2.843,2.843,0,0,0-.472,1.729V0h-1.586V-7h1.586v1.442h.027a2.439,2.439,0,0,1,.714-1.152,1.612,1.612,0,0,1,1.077-.414,1.337,1.337,0,0,1,.656.13ZM-28.048,0h-1.586V-3.944q0-1.962-1.388-1.962a1.515,1.515,0,0,0-1.2.543,2.016,2.016,0,0,0-.472,1.371V0h-1.593V-7h1.593v1.162h.027a2.5,2.5,0,0,1,2.27-1.326,2.114,2.114,0,0,1,1.743.742,3.33,3.33,0,0,1,.6,2.143Zm7.308,0h-1.538V-1.094h-.027A2.316,2.316,0,0,1-24.432.164,2.239,2.239,0,0,1-26.048-.4a1.961,1.961,0,0,1-.584-1.483q0-1.982,2.283-2.311l2.078-.294q0-1.5-1.422-1.5a3.378,3.378,0,0,0-2.256.861V-6.508a4.919,4.919,0,0,1,2.557-.656A2.326,2.326,0,0,1-20.74-4.553Zm-1.531-3.438-1.47.205A2.33,2.33,0,0,0-24.77-2.9a.969.969,0,0,0-.345.851.932.932,0,0,0,.318.728,1.231,1.231,0,0,0,.851.284,1.57,1.57,0,0,0,1.2-.509,1.806,1.806,0,0,0,.475-1.282ZM-8.34,0H-9.926V-3.814a3.091,3.091,0,0,0-.311-1.593A1.144,1.144,0,0,0-11.286-5.9a1.265,1.265,0,0,0-1.056.622,2.538,2.538,0,0,0-.434,1.49V0h-1.593V-3.944q0-1.955-1.381-1.955a1.246,1.246,0,0,0-1.056.588,2.592,2.592,0,0,0-.414,1.524V0h-1.586V-7h1.586v1.107h.027a2.425,2.425,0,0,1,2.208-1.271,2.082,2.082,0,0,1,1.268.4,1.992,1.992,0,0,1,.742,1.049A2.5,2.5,0,0,1-10.65-7.164q2.311,0,2.311,2.851ZM-.479-3.069H-5.25a2.017,2.017,0,0,0,.6,1.5,2.225,2.225,0,0,0,1.569.526,3.459,3.459,0,0,0,2.058-.67V-.437a4.7,4.7,0,0,1-2.529.6A3.131,3.131,0,0,1-5.978-.79a3.814,3.814,0,0,1-.878-2.683,3.73,3.73,0,0,1,.967-2.663,3.164,3.164,0,0,1,2.4-1.029,2.759,2.759,0,0,1,2.222.923A3.832,3.832,0,0,1-.479-3.678ZM-2.01-4.19a2.044,2.044,0,0,0-.4-1.33A1.348,1.348,0,0,0-3.507-6a1.539,1.539,0,0,0-1.159.5A2.28,2.28,0,0,0-5.25-4.19Z" transform="translate(62.72 27)" fill="#31313a"/>
        </g>
        <path id="Path_101509" data-name="Path 101509" d="M9.188,15H7.779L2.734,7.187a3.265,3.265,0,0,1-.314-.615H2.379a10.092,10.092,0,0,1,.055,1.347V15H1.285V5.2h1.49l4.908,7.69q.308.479.4.656h.027A10.371,10.371,0,0,1,8.039,12.1V5.2H9.188Zm5.346.164a3.247,3.247,0,0,1-2.478-.981,3.634,3.634,0,0,1-.926-2.6,3.785,3.785,0,0,1,.964-2.755,3.465,3.465,0,0,1,2.6-.991,3.14,3.14,0,0,1,2.444.964,3.822,3.822,0,0,1,.878,2.673,3.761,3.761,0,0,1-.947,2.683A3.317,3.317,0,0,1,14.533,15.164Zm.082-6.385a2.132,2.132,0,0,0-1.709.735,3.018,3.018,0,0,0-.629,2.027,2.854,2.854,0,0,0,.636,1.962,2.161,2.161,0,0,0,1.7.718,2.049,2.049,0,0,0,1.671-.7,3.055,3.055,0,0,0,.584-2,3.108,3.108,0,0,0-.584-2.023A2.04,2.04,0,0,0,14.615,8.779Zm8.442,6.152a2.161,2.161,0,0,1-1.046.219q-1.839,0-1.839-2.051V8.957h-1.2V8h1.2V6.291l1.121-.362V8h1.764v.957H21.294V12.9a1.635,1.635,0,0,0,.239,1,.955.955,0,0,0,.793.3,1.179,1.179,0,0,0,.731-.232Zm7.123-3.151H25.238a2.618,2.618,0,0,0,.629,1.8,2.168,2.168,0,0,0,1.654.636,3.439,3.439,0,0,0,2.174-.779v1.053a4.063,4.063,0,0,1-2.44.67,2.959,2.959,0,0,1-2.331-.954,3.9,3.9,0,0,1-.848-2.683A3.828,3.828,0,0,1,25,8.865a2.97,2.97,0,0,1,2.3-1.029,2.632,2.632,0,0,1,2.126.889,3.705,3.705,0,0,1,.752,2.468Zm-1.148-.95a2.281,2.281,0,0,0-.468-1.511,1.6,1.6,0,0,0-1.282-.54,1.811,1.811,0,0,0-1.347.567,2.575,2.575,0,0,0-.684,1.483Zm3.233-1.463a.726.726,0,0,1-.537-.226.742.742,0,0,1-.222-.54.72.72,0,0,1,.222-.533.737.737,0,0,1,.537-.219.757.757,0,0,1,.547.219.715.715,0,0,1,.226.533.737.737,0,0,1-.226.54A.745.745,0,0,1,32.266,9.367Zm0,5.783a.726.726,0,0,1-.537-.226.742.742,0,0,1-.222-.54.754.754,0,0,1,.222-.543.72.72,0,0,1,.537-.229.739.739,0,0,1,.547.229.748.748,0,0,1,.226.543.737.737,0,0,1-.226.54A.745.745,0,0,1,32.266,15.15Zm13-9.953-3.233,6.18V15H40.886V11.4L37.734,5.2H39.04l2.194,4.43q.041.082.239.6h.021a3.6,3.6,0,0,1,.26-.6l2.3-4.43Zm2.912,9.967a3.247,3.247,0,0,1-2.478-.981,3.634,3.634,0,0,1-.926-2.6,3.785,3.785,0,0,1,.964-2.755,3.465,3.465,0,0,1,2.6-.991,3.14,3.14,0,0,1,2.444.964,3.822,3.822,0,0,1,.878,2.673,3.761,3.761,0,0,1-.947,2.683A3.317,3.317,0,0,1,48.18,15.164Zm.082-6.385a2.132,2.132,0,0,0-1.709.735,3.018,3.018,0,0,0-.629,2.027A2.854,2.854,0,0,0,46.56,13.5a2.161,2.161,0,0,0,1.7.718,2.049,2.049,0,0,0,1.671-.7,3.055,3.055,0,0,0,.584-2,3.108,3.108,0,0,0-.584-2.023A2.04,2.04,0,0,0,48.262,8.779ZM59.117,15H58V13.893h-.027a2.3,2.3,0,0,1-2.16,1.271q-2.5,0-2.5-2.98V8h1.114v4.006q0,2.215,1.7,2.215a1.715,1.715,0,0,0,1.35-.6A2.315,2.315,0,0,0,58,12.033V8h1.121ZM65.03,9.135a1.371,1.371,0,0,0-.848-.226,1.431,1.431,0,0,0-1.2.677,3.129,3.129,0,0,0-.482,1.846V15H61.38V8H62.5V9.442h.027a2.444,2.444,0,0,1,.731-1.152,1.668,1.668,0,0,1,1.1-.414,1.83,1.83,0,0,1,.67.1ZM75.742,15H74.621V13.893h-.027a2.3,2.3,0,0,1-2.16,1.271q-2.5,0-2.5-2.98V8h1.114v4.006q0,2.215,1.7,2.215a1.715,1.715,0,0,0,1.35-.6,2.315,2.315,0,0,0,.53-1.583V8h1.121Zm1.839-.253v-1.2a3.318,3.318,0,0,0,2.017.677q1.477,0,1.477-.984a.854.854,0,0,0-.126-.475,1.26,1.26,0,0,0-.342-.345,2.631,2.631,0,0,0-.506-.27q-.291-.12-.625-.25a8.056,8.056,0,0,1-.817-.373,2.468,2.468,0,0,1-.588-.424,1.577,1.577,0,0,1-.355-.537,1.9,1.9,0,0,1-.12-.7,1.673,1.673,0,0,1,.226-.872,2,2,0,0,1,.6-.636,2.805,2.805,0,0,1,.858-.386,3.805,3.805,0,0,1,.995-.13A4.016,4.016,0,0,1,81.9,8.15V9.285a3.171,3.171,0,0,0-1.777-.506,2.078,2.078,0,0,0-.567.072,1.389,1.389,0,0,0-.434.2.932.932,0,0,0-.28.311.819.819,0,0,0-.1.4.959.959,0,0,0,.1.458,1.008,1.008,0,0,0,.291.328,2.221,2.221,0,0,0,.465.26q.273.116.622.253a8.657,8.657,0,0,1,.834.366,2.86,2.86,0,0,1,.629.424,1.656,1.656,0,0,1,.4.543,1.753,1.753,0,0,1,.14.731,1.725,1.725,0,0,1-.229.9,1.963,1.963,0,0,1-.612.636,2.8,2.8,0,0,1-.882.376,4.354,4.354,0,0,1-1.046.123A3.971,3.971,0,0,1,77.581,14.747Zm11.99-2.967H84.629a2.618,2.618,0,0,0,.629,1.8,2.168,2.168,0,0,0,1.654.636,3.439,3.439,0,0,0,2.174-.779v1.053a4.063,4.063,0,0,1-2.44.67,2.959,2.959,0,0,1-2.331-.954,3.9,3.9,0,0,1-.848-2.683,3.828,3.828,0,0,1,.926-2.663,2.97,2.97,0,0,1,2.3-1.029,2.632,2.632,0,0,1,2.126.889,3.705,3.705,0,0,1,.752,2.468Zm-1.148-.95a2.281,2.281,0,0,0-.468-1.511,1.6,1.6,0,0,0-1.282-.54,1.811,1.811,0,0,0-1.347.567,2.575,2.575,0,0,0-.684,1.483Zm6.494-1.7a1.371,1.371,0,0,0-.848-.226,1.431,1.431,0,0,0-1.2.677,3.129,3.129,0,0,0-.482,1.846V15H91.267V8h1.121V9.442h.027a2.444,2.444,0,0,1,.731-1.152,1.668,1.668,0,0,1,1.1-.414,1.83,1.83,0,0,1,.67.1ZM101.944,15h-1.121V11.008q0-2.229-1.627-2.229a1.765,1.765,0,0,0-1.391.632,2.344,2.344,0,0,0-.55,1.6V15H96.134V8h1.121V9.162h.027a2.526,2.526,0,0,1,2.3-1.326,2.142,2.142,0,0,1,1.757.742,3.3,3.3,0,0,1,.608,2.143Zm7.123,0h-1.121V13.906h-.027a2.347,2.347,0,0,1-2.153,1.258,2.3,2.3,0,0,1-1.637-.554,1.918,1.918,0,0,1-.591-1.47q0-1.962,2.311-2.283l2.1-.294q0-1.784-1.442-1.784a3.446,3.446,0,0,0-2.283.861V8.492a4.338,4.338,0,0,1,2.379-.656q2.468,0,2.468,2.611Zm-1.121-3.541-1.688.232a2.741,2.741,0,0,0-1.176.386,1.114,1.114,0,0,0-.4.981,1.068,1.068,0,0,0,.366.837,1.413,1.413,0,0,0,.974.325,1.8,1.8,0,0,0,1.377-.584,2.088,2.088,0,0,0,.543-1.48ZM121.119,15H120V10.98a3.032,3.032,0,0,0-.359-1.682,1.361,1.361,0,0,0-1.207-.52,1.494,1.494,0,0,0-1.22.656,2.511,2.511,0,0,0-.5,1.572V15h-1.121V10.844q0-2.064-1.593-2.064a1.475,1.475,0,0,0-1.217.619,2.557,2.557,0,0,0-.479,1.61V15H111.18V8H112.3V9.107h.027A2.378,2.378,0,0,1,114.5,7.836a2.022,2.022,0,0,1,1.982,1.449,2.5,2.5,0,0,1,2.324-1.449q2.311,0,2.311,2.851Zm7.745-3.22h-4.942a2.618,2.618,0,0,0,.629,1.8,2.168,2.168,0,0,0,1.654.636,3.439,3.439,0,0,0,2.174-.779v1.053a4.063,4.063,0,0,1-2.44.67,2.959,2.959,0,0,1-2.331-.954,3.9,3.9,0,0,1-.848-2.683,3.828,3.828,0,0,1,.926-2.663,2.97,2.97,0,0,1,2.3-1.029,2.632,2.632,0,0,1,2.126.889,3.705,3.705,0,0,1,.752,2.468Zm-1.148-.95a2.281,2.281,0,0,0-.468-1.511,1.6,1.6,0,0,0-1.282-.54,1.811,1.811,0,0,0-1.347.567,2.575,2.575,0,0,0-.684,1.483Zm6.255,3.917v-1.2a3.318,3.318,0,0,0,2.017.677q1.477,0,1.477-.984a.854.854,0,0,0-.126-.475,1.26,1.26,0,0,0-.342-.345,2.631,2.631,0,0,0-.506-.27q-.291-.12-.625-.25a8.056,8.056,0,0,1-.817-.373,2.468,2.468,0,0,1-.588-.424,1.577,1.577,0,0,1-.355-.537,1.9,1.9,0,0,1-.12-.7,1.673,1.673,0,0,1,.226-.872,2,2,0,0,1,.6-.636,2.805,2.805,0,0,1,.858-.386,3.805,3.805,0,0,1,.995-.13,4.016,4.016,0,0,1,1.627.314V9.285a3.171,3.171,0,0,0-1.777-.506,2.078,2.078,0,0,0-.567.072,1.389,1.389,0,0,0-.434.2.932.932,0,0,0-.28.311.819.819,0,0,0-.1.4.959.959,0,0,0,.1.458,1.008,1.008,0,0,0,.291.328,2.221,2.221,0,0,0,.465.26q.273.116.622.253a8.658,8.658,0,0,1,.834.366,2.86,2.86,0,0,1,.629.424,1.656,1.656,0,0,1,.4.543,1.753,1.753,0,0,1,.14.731,1.725,1.725,0,0,1-.229.9,1.963,1.963,0,0,1-.612.636,2.8,2.8,0,0,1-.882.376,4.354,4.354,0,0,1-1.046.123A3.971,3.971,0,0,1,133.971,14.747ZM146.146,15h-1.121V10.967q0-2.187-1.627-2.187a1.774,1.774,0,0,0-1.381.632,2.356,2.356,0,0,0-.561,1.624V15h-1.121V4.637h1.121V9.162h.027a2.546,2.546,0,0,1,2.3-1.326q2.365,0,2.365,2.851Zm5.038.164a3.247,3.247,0,0,1-2.478-.981,3.634,3.634,0,0,1-.926-2.6,3.785,3.785,0,0,1,.964-2.755,3.465,3.465,0,0,1,2.6-.991,3.14,3.14,0,0,1,2.444.964,3.822,3.822,0,0,1,.878,2.673,3.761,3.761,0,0,1-.947,2.683A3.317,3.317,0,0,1,151.184,15.164Zm.082-6.385a2.132,2.132,0,0,0-1.709.735,3.018,3.018,0,0,0-.629,2.027,2.854,2.854,0,0,0,.636,1.962,2.161,2.161,0,0,0,1.7.718,2.049,2.049,0,0,0,1.671-.7,3.055,3.055,0,0,0,.584-2,3.108,3.108,0,0,0-.584-2.023A2.04,2.04,0,0,0,151.266,8.779ZM162.121,15H161V13.893h-.027a2.3,2.3,0,0,1-2.16,1.271q-2.5,0-2.5-2.98V8h1.114v4.006q0,2.215,1.7,2.215a1.715,1.715,0,0,0,1.35-.6,2.315,2.315,0,0,0,.53-1.583V8h1.121Zm3.384,0h-1.121V4.637H165.5Zm8.244,0h-1.121V13.811H172.6a2.588,2.588,0,0,1-2.406,1.354,2.615,2.615,0,0,1-2.109-.94,3.856,3.856,0,0,1-.79-2.56,4.2,4.2,0,0,1,.875-2.782A2.886,2.886,0,0,1,170.5,7.836a2.244,2.244,0,0,1,2.1,1.135h.027V4.637h1.121Zm-1.121-3.165V10.8a2,2,0,0,0-.561-1.436,1.88,1.88,0,0,0-1.422-.588,1.936,1.936,0,0,0-1.613.752,3.3,3.3,0,0,0-.588,2.078,2.964,2.964,0,0,0,.564,1.911,1.843,1.843,0,0,0,1.514.7,1.915,1.915,0,0,0,1.521-.677A2.521,2.521,0,0,0,172.628,11.835ZM181,13.988h-.027V15h-1.121V4.637h1.121V9.23H181a2.651,2.651,0,0,1,2.42-1.395,2.566,2.566,0,0,1,2.109.94,3.881,3.881,0,0,1,.762,2.519,4.339,4.339,0,0,1-.854,2.813,2.845,2.845,0,0,1-2.338,1.056A2.3,2.3,0,0,1,181,13.988Zm-.027-2.823v.978a2.081,2.081,0,0,0,.564,1.473,2.012,2.012,0,0,0,3.028-.174,3.575,3.575,0,0,0,.578-2.167,2.822,2.822,0,0,0-.54-1.832,1.787,1.787,0,0,0-1.463-.663,1.986,1.986,0,0,0-1.572.68A2.5,2.5,0,0,0,180.975,11.165Zm12.735.615h-4.942a2.618,2.618,0,0,0,.629,1.8,2.168,2.168,0,0,0,1.654.636,3.439,3.439,0,0,0,2.174-.779v1.053a4.063,4.063,0,0,1-2.44.67,2.959,2.959,0,0,1-2.331-.954,3.9,3.9,0,0,1-.848-2.683,3.828,3.828,0,0,1,.926-2.663,2.97,2.97,0,0,1,2.3-1.029,2.632,2.632,0,0,1,2.126.889,3.705,3.705,0,0,1,.752,2.468Zm-1.148-.95a2.281,2.281,0,0,0-.468-1.511,1.6,1.6,0,0,0-1.282-.54,1.811,1.811,0,0,0-1.347.567,2.575,2.575,0,0,0-.684,1.483ZM6.706,27l-3.22,8.121q-.861,2.174-2.42,2.174a2.565,2.565,0,0,1-.731-.089v-1A2.078,2.078,0,0,0,1,36.324,1.374,1.374,0,0,0,2.27,35.313l.561-1.326L.1,27H1.34l1.894,5.387q.034.1.144.533h.041q.034-.164.137-.52L5.544,27Zm4.129,7.164a3.247,3.247,0,0,1-2.478-.981,3.634,3.634,0,0,1-.926-2.6,3.785,3.785,0,0,1,.964-2.755,3.465,3.465,0,0,1,2.6-.991,3.14,3.14,0,0,1,2.444.964,3.822,3.822,0,0,1,.878,2.673,3.761,3.761,0,0,1-.947,2.683A3.318,3.318,0,0,1,10.835,34.164Zm.082-6.385a2.132,2.132,0,0,0-1.709.735,3.018,3.018,0,0,0-.629,2.027A2.854,2.854,0,0,0,9.215,32.5a2.161,2.161,0,0,0,1.7.718,2.049,2.049,0,0,0,1.671-.7,3.055,3.055,0,0,0,.584-2,3.108,3.108,0,0,0-.584-2.023A2.04,2.04,0,0,0,10.917,27.779ZM21.772,34H20.651V32.893h-.027a2.3,2.3,0,0,1-2.16,1.271q-2.5,0-2.5-2.98V27h1.114v4.006q0,2.215,1.7,2.215a1.715,1.715,0,0,0,1.35-.6,2.315,2.315,0,0,0,.53-1.583V27h1.121Zm5.913-5.865a1.371,1.371,0,0,0-.848-.226,1.431,1.431,0,0,0-1.2.677,3.129,3.129,0,0,0-.482,1.846V34H24.035V27h1.121v1.442h.027a2.444,2.444,0,0,1,.731-1.152,1.668,1.668,0,0,1,1.1-.414,1.83,1.83,0,0,1,.67.1Zm6.2,4.854h-.027V37.22H32.737V27h1.121v1.23h.027a2.651,2.651,0,0,1,2.42-1.395,2.563,2.563,0,0,1,2.112.94,3.893,3.893,0,0,1,.759,2.519,4.339,4.339,0,0,1-.854,2.813,2.845,2.845,0,0,1-2.338,1.056A2.342,2.342,0,0,1,33.886,32.988Zm-.027-2.823v.978a2.081,2.081,0,0,0,.564,1.473,2.012,2.012,0,0,0,3.028-.174,3.575,3.575,0,0,0,.578-2.167,2.822,2.822,0,0,0-.54-1.832,1.787,1.787,0,0,0-1.463-.663,1.986,1.986,0,0,0-1.572.68A2.5,2.5,0,0,0,33.858,30.165Zm10.76-2.03a1.371,1.371,0,0,0-.848-.226,1.431,1.431,0,0,0-1.2.677,3.129,3.129,0,0,0-.482,1.846V34H40.968V27h1.121v1.442h.027a2.444,2.444,0,0,1,.731-1.152,1.668,1.668,0,0,1,1.1-.414,1.83,1.83,0,0,1,.67.1Zm1.791-2.912a.71.71,0,0,1-.513-.205.692.692,0,0,1-.212-.52.718.718,0,0,1,.725-.731.724.724,0,0,1,.523.208.73.73,0,0,1,0,1.036A.718.718,0,0,1,46.409,25.223ZM46.956,34H45.835V27h1.121Zm12.209,0H58.044V29.98a3.032,3.032,0,0,0-.359-1.682,1.361,1.361,0,0,0-1.207-.52,1.494,1.494,0,0,0-1.22.656,2.511,2.511,0,0,0-.5,1.572V34H53.635V29.844q0-2.064-1.593-2.064a1.475,1.475,0,0,0-1.217.619,2.557,2.557,0,0,0-.479,1.61V34H49.226V27h1.121v1.107h.027a2.378,2.378,0,0,1,2.174-1.271,2.022,2.022,0,0,1,1.982,1.449,2.5,2.5,0,0,1,2.324-1.449q2.311,0,2.311,2.851Zm7.13,0H65.174V32.906h-.027a2.347,2.347,0,0,1-2.153,1.258,2.3,2.3,0,0,1-1.637-.554,1.918,1.918,0,0,1-.591-1.47q0-1.962,2.311-2.283l2.1-.294q0-1.784-1.442-1.784a3.446,3.446,0,0,0-2.283.861V27.492a4.338,4.338,0,0,1,2.379-.656q2.468,0,2.468,2.611Zm-1.121-3.541-1.688.232a2.741,2.741,0,0,0-1.176.386,1.114,1.114,0,0,0-.4.981,1.068,1.068,0,0,0,.366.837,1.413,1.413,0,0,0,.974.325,1.8,1.8,0,0,0,1.377-.584,2.088,2.088,0,0,0,.543-1.48Zm6.884-2.324a1.371,1.371,0,0,0-.848-.226,1.431,1.431,0,0,0-1.2.677,3.129,3.129,0,0,0-.482,1.846V34H68.407V27h1.121v1.442h.027a2.444,2.444,0,0,1,.731-1.152,1.668,1.668,0,0,1,1.1-.414,1.83,1.83,0,0,1,.67.1ZM78.846,27l-3.22,8.121q-.861,2.174-2.42,2.174a2.565,2.565,0,0,1-.731-.089v-1a2.078,2.078,0,0,0,.663.123,1.374,1.374,0,0,0,1.271-1.012l.561-1.326L72.235,27h1.244l1.894,5.387q.034.1.144.533h.041q.034-.164.137-.52L77.684,27ZM89.51,30.78H84.567a2.618,2.618,0,0,0,.629,1.8,2.168,2.168,0,0,0,1.654.636,3.439,3.439,0,0,0,2.174-.779v1.053a4.063,4.063,0,0,1-2.44.67,2.959,2.959,0,0,1-2.331-.954,3.9,3.9,0,0,1-.848-2.683,3.828,3.828,0,0,1,.926-2.663,2.97,2.97,0,0,1,2.3-1.029,2.632,2.632,0,0,1,2.126.889,3.705,3.705,0,0,1,.752,2.468Zm-1.148-.95a2.281,2.281,0,0,0-.468-1.511,1.6,1.6,0,0,0-1.282-.54,1.811,1.811,0,0,0-1.347.567,2.575,2.575,0,0,0-.684,1.483ZM101.145,34h-1.121V29.98a3.032,3.032,0,0,0-.359-1.682,1.361,1.361,0,0,0-1.207-.52,1.494,1.494,0,0,0-1.22.656,2.511,2.511,0,0,0-.5,1.572V34H95.614V29.844q0-2.064-1.593-2.064A1.475,1.475,0,0,0,92.8,28.4a2.557,2.557,0,0,0-.479,1.61V34H91.205V27h1.121v1.107h.027a2.378,2.378,0,0,1,2.174-1.271,2.022,2.022,0,0,1,1.982,1.449,2.5,2.5,0,0,1,2.324-1.449q2.311,0,2.311,2.851Zm7.13,0h-1.121V32.906h-.027a2.347,2.347,0,0,1-2.153,1.258,2.3,2.3,0,0,1-1.637-.554,1.918,1.918,0,0,1-.591-1.47q0-1.962,2.311-2.283l2.1-.294q0-1.784-1.442-1.784a3.446,3.446,0,0,0-2.283.861V27.492a4.338,4.338,0,0,1,2.379-.656q2.468,0,2.468,2.611Zm-1.121-3.541-1.688.232a2.741,2.741,0,0,0-1.176.386,1.114,1.114,0,0,0-.4.981,1.068,1.068,0,0,0,.366.837,1.413,1.413,0,0,0,.974.325,1.8,1.8,0,0,0,1.377-.584,2.088,2.088,0,0,0,.543-1.48Zm3.808-5.236a.71.71,0,0,1-.513-.205.692.692,0,0,1-.212-.52.718.718,0,0,1,.725-.731.724.724,0,0,1,.523.208.73.73,0,0,1,0,1.036A.718.718,0,0,1,110.961,25.223ZM111.508,34h-1.121V27h1.121Zm3.391,0h-1.121V23.637H114.9Zm11.115,0h-1.121V32.906h-.027a2.347,2.347,0,0,1-2.153,1.258,2.3,2.3,0,0,1-1.637-.554,1.918,1.918,0,0,1-.591-1.47q0-1.962,2.311-2.283l2.1-.294q0-1.784-1.442-1.784a3.446,3.446,0,0,0-2.283.861V27.492a4.338,4.338,0,0,1,2.379-.656q2.468,0,2.468,2.611Zm-1.121-3.541-1.688.232a2.741,2.741,0,0,0-1.176.386,1.114,1.114,0,0,0-.4.981A1.068,1.068,0,0,0,122,32.9a1.413,1.413,0,0,0,.974.325,1.8,1.8,0,0,0,1.377-.584,2.088,2.088,0,0,0,.543-1.48ZM133.937,34h-1.121V30.008q0-2.229-1.627-2.229a1.765,1.765,0,0,0-1.391.632,2.344,2.344,0,0,0-.55,1.6V34h-1.121V27h1.121v1.162h.027a2.526,2.526,0,0,1,2.3-1.326,2.142,2.142,0,0,1,1.757.742,3.3,3.3,0,0,1,.608,2.143Zm8.087,0H140.9V32.811h-.027a2.588,2.588,0,0,1-2.406,1.354,2.615,2.615,0,0,1-2.109-.94,3.856,3.856,0,0,1-.79-2.56,4.2,4.2,0,0,1,.875-2.782,2.886,2.886,0,0,1,2.331-1.046,2.244,2.244,0,0,1,2.1,1.135h.027V23.637h1.121ZM140.9,30.835V29.8a2,2,0,0,0-.561-1.436,1.88,1.88,0,0,0-1.422-.588,1.936,1.936,0,0,0-1.613.752,3.3,3.3,0,0,0-.588,2.078,2.964,2.964,0,0,0,.564,1.911,1.843,1.843,0,0,0,1.514.7,1.915,1.915,0,0,0,1.521-.677A2.521,2.521,0,0,0,140.9,30.835Zm7.8-5.612a.71.71,0,0,1-.513-.205.692.692,0,0,1-.212-.52.718.718,0,0,1,.725-.731.724.724,0,0,1,.523.208.73.73,0,0,1,0,1.036A.718.718,0,0,1,148.7,25.223ZM149.249,34h-1.121V27h1.121Zm1.846-.253v-1.2a3.318,3.318,0,0,0,2.017.677q1.477,0,1.477-.984a.854.854,0,0,0-.126-.475,1.26,1.26,0,0,0-.342-.345,2.631,2.631,0,0,0-.506-.27q-.291-.12-.625-.25a8.056,8.056,0,0,1-.817-.373,2.468,2.468,0,0,1-.588-.424,1.577,1.577,0,0,1-.355-.537,1.9,1.9,0,0,1-.12-.7,1.673,1.673,0,0,1,.226-.872,2,2,0,0,1,.6-.636,2.805,2.805,0,0,1,.858-.386,3.805,3.805,0,0,1,.995-.13,4.016,4.016,0,0,1,1.627.314v1.135a3.171,3.171,0,0,0-1.777-.506,2.078,2.078,0,0,0-.567.072,1.389,1.389,0,0,0-.434.2.932.932,0,0,0-.28.311.819.819,0,0,0-.1.4.959.959,0,0,0,.1.458,1.008,1.008,0,0,0,.291.328,2.221,2.221,0,0,0,.465.26q.273.116.622.253a8.658,8.658,0,0,1,.834.366,2.86,2.86,0,0,1,.629.424,1.656,1.656,0,0,1,.4.543,1.753,1.753,0,0,1,.14.731,1.725,1.725,0,0,1-.229.9,1.963,1.963,0,0,1-.612.636,2.8,2.8,0,0,1-.882.376,4.354,4.354,0,0,1-1.046.123A3.971,3.971,0,0,1,151.095,33.747ZM166.954,34h-1.121V32.893h-.027a2.3,2.3,0,0,1-2.16,1.271q-2.5,0-2.5-2.98V27h1.114v4.006q0,2.215,1.7,2.215a1.715,1.715,0,0,0,1.35-.6,2.315,2.315,0,0,0,.53-1.583V27h1.121Zm1.839-.253v-1.2a3.318,3.318,0,0,0,2.017.677q1.477,0,1.477-.984a.854.854,0,0,0-.126-.475,1.26,1.26,0,0,0-.342-.345,2.631,2.631,0,0,0-.506-.27q-.291-.12-.625-.25a8.056,8.056,0,0,1-.817-.373,2.468,2.468,0,0,1-.588-.424,1.577,1.577,0,0,1-.355-.537,1.9,1.9,0,0,1-.12-.7,1.673,1.673,0,0,1,.226-.872,2,2,0,0,1,.6-.636,2.805,2.805,0,0,1,.858-.386,3.805,3.805,0,0,1,.995-.13,4.016,4.016,0,0,1,1.627.314v1.135a3.171,3.171,0,0,0-1.777-.506,2.078,2.078,0,0,0-.567.072,1.389,1.389,0,0,0-.434.2.932.932,0,0,0-.28.311.819.819,0,0,0-.1.4.959.959,0,0,0,.1.458,1.008,1.008,0,0,0,.291.328,2.221,2.221,0,0,0,.465.26q.273.116.622.253a8.658,8.658,0,0,1,.834.366,2.86,2.86,0,0,1,.629.424,1.656,1.656,0,0,1,.4.543,1.753,1.753,0,0,1,.14.731,1.725,1.725,0,0,1-.229.9,1.963,1.963,0,0,1-.612.636,2.8,2.8,0,0,1-.882.376,4.354,4.354,0,0,1-1.046.123A3.971,3.971,0,0,1,168.793,33.747Zm11.99-2.967h-4.942a2.618,2.618,0,0,0,.629,1.8,2.168,2.168,0,0,0,1.654.636,3.439,3.439,0,0,0,2.174-.779v1.053a4.063,4.063,0,0,1-2.44.67,2.959,2.959,0,0,1-2.331-.954,3.9,3.9,0,0,1-.848-2.683,3.828,3.828,0,0,1,.926-2.663,2.97,2.97,0,0,1,2.3-1.029,2.632,2.632,0,0,1,2.126.889,3.705,3.705,0,0,1,.752,2.468Zm-1.148-.95a2.281,2.281,0,0,0-.468-1.511,1.6,1.6,0,0,0-1.282-.54,1.811,1.811,0,0,0-1.347.567,2.575,2.575,0,0,0-.684,1.483ZM188.453,34h-1.121V32.811H187.3a2.588,2.588,0,0,1-2.406,1.354,2.615,2.615,0,0,1-2.109-.94,3.856,3.856,0,0,1-.79-2.56,4.2,4.2,0,0,1,.875-2.782,2.886,2.886,0,0,1,2.331-1.046,2.244,2.244,0,0,1,2.1,1.135h.027V23.637h1.121Zm-1.121-3.165V29.8a2,2,0,0,0-.561-1.436,1.88,1.88,0,0,0-1.422-.588,1.936,1.936,0,0,0-1.613.752,3.3,3.3,0,0,0-.588,2.078,2.964,2.964,0,0,0,.564,1.911,1.843,1.843,0,0,0,1.514.7,1.915,1.915,0,0,0,1.521-.677A2.521,2.521,0,0,0,187.332,30.835Zm10.473,3.1a2.162,2.162,0,0,1-1.046.219q-1.839,0-1.839-2.051V27.957h-1.2V27h1.2V25.291l1.121-.362V27H197.8v.957h-1.764V31.9a1.635,1.635,0,0,0,.239,1,.955.955,0,0,0,.793.3,1.179,1.179,0,0,0,.731-.232Zm4.423.232a3.247,3.247,0,0,1-2.478-.981,3.634,3.634,0,0,1-.926-2.6,3.785,3.785,0,0,1,.964-2.755,3.465,3.465,0,0,1,2.6-.991,3.14,3.14,0,0,1,2.444.964,3.822,3.822,0,0,1,.878,2.673,3.761,3.761,0,0,1-.947,2.683A3.318,3.318,0,0,1,202.228,34.164Zm.082-6.385a2.132,2.132,0,0,0-1.709.735,3.018,3.018,0,0,0-.629,2.027,2.854,2.854,0,0,0,.636,1.962,2.161,2.161,0,0,0,1.7.718,2.049,2.049,0,0,0,1.671-.7,3.055,3.055,0,0,0,.584-2,3.108,3.108,0,0,0-.584-2.023A2.04,2.04,0,0,0,202.31,27.779ZM2.256,53H1.135V42.637H2.256Zm5.2.164a3.247,3.247,0,0,1-2.478-.981,3.634,3.634,0,0,1-.926-2.6,3.785,3.785,0,0,1,.964-2.755,3.465,3.465,0,0,1,2.6-.991,3.14,3.14,0,0,1,2.444.964,3.822,3.822,0,0,1,.878,2.673,3.761,3.761,0,0,1-.947,2.683A3.318,3.318,0,0,1,7.451,53.164Zm.082-6.385a2.132,2.132,0,0,0-1.709.735A3.018,3.018,0,0,0,5.2,49.541,2.854,2.854,0,0,0,5.831,51.5a2.161,2.161,0,0,0,1.7.718,2.049,2.049,0,0,0,1.671-.7,3.055,3.055,0,0,0,.584-2A3.108,3.108,0,0,0,9.2,47.49,2.04,2.04,0,0,0,7.533,46.779Zm11.17,5.66q0,3.855-3.691,3.855a4.956,4.956,0,0,1-2.27-.492V54.682A4.661,4.661,0,0,0,15,55.338q2.584,0,2.584-2.748v-.766h-.027a2.622,2.622,0,0,1-2.406,1.34,2.628,2.628,0,0,1-2.1-.933,3.73,3.73,0,0,1-.8-2.505,4.358,4.358,0,0,1,.858-2.837,2.866,2.866,0,0,1,2.348-1.053,2.282,2.282,0,0,1,2.1,1.135h.027V46H18.7Zm-1.121-2.6V48.8a2,2,0,0,0-.564-1.429,1.857,1.857,0,0,0-1.4-.595,1.947,1.947,0,0,0-1.627.755A3.372,3.372,0,0,0,13.4,49.65a2.894,2.894,0,0,0,.564,1.87,1.822,1.822,0,0,0,1.494.7,1.951,1.951,0,0,0,1.535-.67A2.5,2.5,0,0,0,17.582,49.835Zm7.8-5.612a.71.71,0,0,1-.513-.205.692.692,0,0,1-.212-.52.718.718,0,0,1,.725-.731.724.724,0,0,1,.523.208.73.73,0,0,1,0,1.036A.718.718,0,0,1,25.382,44.223ZM25.929,53H24.808V46h1.121Zm8.08,0H32.888V49.008q0-2.229-1.627-2.229a1.765,1.765,0,0,0-1.391.632,2.344,2.344,0,0,0-.55,1.6V53H28.2V46h1.121v1.162h.027a2.526,2.526,0,0,1,2.3-1.326,2.142,2.142,0,0,1,1.757.742,3.3,3.3,0,0,1,.608,2.143Zm9.194-.068a2.162,2.162,0,0,1-1.046.219q-1.839,0-1.839-2.051V46.957h-1.2V46h1.2V44.291l1.121-.362V46H43.2v.957H41.439V50.9a1.635,1.635,0,0,0,.239,1,.955.955,0,0,0,.793.3,1.179,1.179,0,0,0,.731-.232Zm4.423.232a3.247,3.247,0,0,1-2.478-.981,3.634,3.634,0,0,1-.926-2.6,3.785,3.785,0,0,1,.964-2.755,3.465,3.465,0,0,1,2.6-.991,3.14,3.14,0,0,1,2.444.964,3.822,3.822,0,0,1,.878,2.673,3.761,3.761,0,0,1-.947,2.683A3.318,3.318,0,0,1,47.626,53.164Zm.082-6.385A2.132,2.132,0,0,0,46,47.514a3.018,3.018,0,0,0-.629,2.027,2.854,2.854,0,0,0,.636,1.962,2.161,2.161,0,0,0,1.7.718,2.049,2.049,0,0,0,1.671-.7,3.055,3.055,0,0,0,.584-2,3.108,3.108,0,0,0-.584-2.023A2.04,2.04,0,0,0,47.708,46.779ZM61.749,53H60.628V51.906H60.6a2.347,2.347,0,0,1-2.153,1.258,2.3,2.3,0,0,1-1.637-.554,1.918,1.918,0,0,1-.591-1.47q0-1.962,2.311-2.283l2.1-.294q0-1.784-1.442-1.784a3.446,3.446,0,0,0-2.283.861V46.492a4.338,4.338,0,0,1,2.379-.656q2.468,0,2.468,2.611Zm-1.121-3.541-1.688.232a2.741,2.741,0,0,0-1.176.386,1.114,1.114,0,0,0-.4.981,1.068,1.068,0,0,0,.366.837,1.413,1.413,0,0,0,.974.325,1.8,1.8,0,0,0,1.377-.584,2.088,2.088,0,0,0,.543-1.48ZM64.982,53H63.861V42.637h1.121Zm3.391,0H67.252V42.637h1.121Zm12.653-9.529-5.742,8.49H80.89V53H73.568v-.321l5.694-8.442H74.026V43.2h7ZM87.671,46l-3.22,8.121q-.861,2.174-2.42,2.174a2.565,2.565,0,0,1-.731-.089v-1a2.078,2.078,0,0,0,.663.123,1.374,1.374,0,0,0,1.271-1.012l.561-1.326L81.061,46H82.3L84.2,51.387q.034.1.144.533h.041q.034-.164.137-.52L86.509,46Zm10.021,0-2.1,7H94.432l-1.442-5.011a3.265,3.265,0,0,1-.109-.649h-.027a3.066,3.066,0,0,1-.144.636L91.144,53H90.022L87.9,46h1.176l1.449,5.264a3.171,3.171,0,0,1,.1.629h.055a2.942,2.942,0,0,1,.123-.643L92.415,46H93.44l1.449,5.277a3.768,3.768,0,0,1,.1.629h.055a2.909,2.909,0,0,1,.116-.629L96.585,46ZM104,53h-1.121V51.906h-.027a2.347,2.347,0,0,1-2.153,1.258,2.3,2.3,0,0,1-1.637-.554,1.918,1.918,0,0,1-.591-1.47q0-1.962,2.311-2.283l2.1-.294q0-1.784-1.442-1.784a3.446,3.446,0,0,0-2.283.861V46.492a4.338,4.338,0,0,1,2.379-.656q2.468,0,2.468,2.611Zm-1.121-3.541-1.688.232a2.741,2.741,0,0,0-1.176.386,1.114,1.114,0,0,0-.4.981,1.068,1.068,0,0,0,.366.837,1.413,1.413,0,0,0,.974.325,1.8,1.8,0,0,0,1.377-.584,2.088,2.088,0,0,0,.543-1.48ZM111.617,46l-2.789,7h-1.1l-2.652-7h1.23l1.777,5.086a4.565,4.565,0,0,1,.246.978h.027a4.622,4.622,0,0,1,.219-.95L110.435,46Zm6.829,3.78H113.5a2.618,2.618,0,0,0,.629,1.8,2.168,2.168,0,0,0,1.654.636,3.439,3.439,0,0,0,2.174-.779v1.053a4.063,4.063,0,0,1-2.44.67,2.959,2.959,0,0,1-2.331-.954,3.9,3.9,0,0,1-.848-2.683,3.828,3.828,0,0,1,.926-2.663,2.97,2.97,0,0,1,2.3-1.029,2.632,2.632,0,0,1,2.126.889,3.705,3.705,0,0,1,.752,2.468Zm-1.148-.95a2.281,2.281,0,0,0-.468-1.511,1.6,1.6,0,0,0-1.282-.54,1.811,1.811,0,0,0-1.347.567,2.575,2.575,0,0,0-.684,1.483ZM128.987,53h-1.121V51.906h-.027a2.347,2.347,0,0,1-2.153,1.258,2.3,2.3,0,0,1-1.637-.554,1.918,1.918,0,0,1-.591-1.47q0-1.962,2.311-2.283l2.1-.294q0-1.784-1.442-1.784a3.446,3.446,0,0,0-2.283.861V46.492a4.338,4.338,0,0,1,2.379-.656q2.468,0,2.468,2.611Zm-1.121-3.541-1.688.232a2.741,2.741,0,0,0-1.176.386,1.114,1.114,0,0,0-.4.981,1.068,1.068,0,0,0,.366.837,1.413,1.413,0,0,0,.974.325,1.8,1.8,0,0,0,1.377-.584,2.088,2.088,0,0,0,.543-1.48Zm4.382,2.529h-.027V56.22H131.1V46h1.121v1.23h.027a2.651,2.651,0,0,1,2.42-1.395,2.563,2.563,0,0,1,2.112.94,3.893,3.893,0,0,1,.759,2.519,4.339,4.339,0,0,1-.854,2.813,2.845,2.845,0,0,1-2.338,1.056A2.342,2.342,0,0,1,132.248,51.988Zm-.027-2.823v.978a2.081,2.081,0,0,0,.564,1.473,2.012,2.012,0,0,0,3.028-.174,3.575,3.575,0,0,0,.578-2.167,2.822,2.822,0,0,0-.54-1.832,1.787,1.787,0,0,0-1.463-.663,1.986,1.986,0,0,0-1.572.68A2.5,2.5,0,0,0,132.221,49.165Zm8.258,2.823h-.027V56.22H139.33V46h1.121v1.23h.027a2.651,2.651,0,0,1,2.42-1.395,2.563,2.563,0,0,1,2.112.94,3.893,3.893,0,0,1,.759,2.519,4.339,4.339,0,0,1-.854,2.813,2.845,2.845,0,0,1-2.338,1.056A2.342,2.342,0,0,1,140.479,51.988Zm-.027-2.823v.978a2.081,2.081,0,0,0,.564,1.473,2.012,2.012,0,0,0,3.028-.174,3.575,3.575,0,0,0,.578-2.167,2.822,2.822,0,0,0-.54-1.832,1.787,1.787,0,0,0-1.463-.663,1.986,1.986,0,0,0-1.572.68A2.5,2.5,0,0,0,140.451,49.165ZM148.682,53h-1.121V42.637h1.121Zm2.844-8.777a.71.71,0,0,1-.513-.205.692.692,0,0,1-.212-.52.718.718,0,0,1,.725-.731.724.724,0,0,1,.523.208.73.73,0,0,1,0,1.036A.718.718,0,0,1,151.525,44.223ZM152.072,53h-1.121V46h1.121Zm7.041-.321a3.643,3.643,0,0,1-1.914.485,3.169,3.169,0,0,1-2.417-.974,3.53,3.53,0,0,1-.919-2.526,3.881,3.881,0,0,1,.991-2.779,3.468,3.468,0,0,1,2.646-1.049,3.682,3.682,0,0,1,1.627.342v1.148a2.85,2.85,0,0,0-1.668-.547,2.254,2.254,0,0,0-1.76.769,2.918,2.918,0,0,0-.687,2.02,2.779,2.779,0,0,0,.646,1.941,2.227,2.227,0,0,0,1.733.711,2.81,2.81,0,0,0,1.723-.608Zm6.706.321H164.7V51.906h-.027a2.347,2.347,0,0,1-2.153,1.258,2.3,2.3,0,0,1-1.637-.554,1.918,1.918,0,0,1-.591-1.47q0-1.962,2.311-2.283l2.1-.294q0-1.784-1.442-1.784a3.446,3.446,0,0,0-2.283.861V46.492a4.338,4.338,0,0,1,2.379-.656q2.468,0,2.468,2.611ZM164.7,49.459l-1.688.232a2.741,2.741,0,0,0-1.176.386,1.114,1.114,0,0,0-.4.981,1.068,1.068,0,0,0,.366.837,1.413,1.413,0,0,0,.974.325,1.8,1.8,0,0,0,1.377-.584,2.088,2.088,0,0,0,.543-1.48Zm6.48,3.473a2.162,2.162,0,0,1-1.046.219q-1.839,0-1.839-2.051V46.957h-1.2V46h1.2V44.291l1.121-.362V46h1.764v.957h-1.764V50.9a1.635,1.635,0,0,0,.239,1,.955.955,0,0,0,.793.3,1.179,1.179,0,0,0,.731-.232Zm2.071-8.709a.71.71,0,0,1-.513-.205.692.692,0,0,1-.212-.52.718.718,0,0,1,.725-.731.724.724,0,0,1,.523.208.73.73,0,0,1,0,1.036A.718.718,0,0,1,173.25,44.223ZM173.8,53h-1.121V46H173.8Zm5.2.164a3.247,3.247,0,0,1-2.478-.981,3.634,3.634,0,0,1-.926-2.6,3.785,3.785,0,0,1,.964-2.755,3.465,3.465,0,0,1,2.6-.991,3.14,3.14,0,0,1,2.444.964,3.822,3.822,0,0,1,.878,2.673,3.761,3.761,0,0,1-.947,2.683A3.318,3.318,0,0,1,178.992,53.164Zm.082-6.385a2.132,2.132,0,0,0-1.709.735,3.018,3.018,0,0,0-.629,2.027,2.854,2.854,0,0,0,.636,1.962,2.161,2.161,0,0,0,1.7.718,2.049,2.049,0,0,0,1.671-.7,3.055,3.055,0,0,0,.584-2,3.108,3.108,0,0,0-.584-2.023A2.04,2.04,0,0,0,179.074,46.779ZM190.08,53h-1.121V49.008q0-2.229-1.627-2.229a1.765,1.765,0,0,0-1.391.632,2.344,2.344,0,0,0-.55,1.6V53H184.27V46h1.121v1.162h.027a2.526,2.526,0,0,1,2.3-1.326,2.142,2.142,0,0,1,1.757.742,3.3,3.3,0,0,1,.608,2.143Zm1.688-.253v-1.2a3.318,3.318,0,0,0,2.017.677q1.477,0,1.477-.984a.854.854,0,0,0-.126-.475,1.26,1.26,0,0,0-.342-.345,2.631,2.631,0,0,0-.506-.27q-.291-.12-.625-.25a8.056,8.056,0,0,1-.817-.373,2.468,2.468,0,0,1-.588-.424,1.577,1.577,0,0,1-.355-.537,1.9,1.9,0,0,1-.12-.7,1.673,1.673,0,0,1,.226-.872,2,2,0,0,1,.6-.636,2.805,2.805,0,0,1,.858-.386,3.805,3.805,0,0,1,.995-.13,4.016,4.016,0,0,1,1.627.314v1.135a3.171,3.171,0,0,0-1.777-.506,2.078,2.078,0,0,0-.567.072,1.389,1.389,0,0,0-.434.2.932.932,0,0,0-.28.311.819.819,0,0,0-.1.4.959.959,0,0,0,.1.458,1.008,1.008,0,0,0,.291.328,2.221,2.221,0,0,0,.465.26q.273.116.622.253a8.658,8.658,0,0,1,.834.366,2.86,2.86,0,0,1,.629.424,1.656,1.656,0,0,1,.4.543,1.753,1.753,0,0,1,.14.731,1.725,1.725,0,0,1-.229.9,1.963,1.963,0,0,1-.612.636,2.8,2.8,0,0,1-.882.376,4.354,4.354,0,0,1-1.046.123A3.971,3.971,0,0,1,191.769,52.747Zm6.754.4a.726.726,0,0,1-.537-.226.742.742,0,0,1-.222-.54.754.754,0,0,1,.222-.543.72.72,0,0,1,.537-.229.739.739,0,0,1,.547.229.748.748,0,0,1,.226.543.737.737,0,0,1-.226.54A.745.745,0,0,1,198.522,53.15Z" transform="translate(487 68)" fill="#31313a"/>
        <line id="Line_4" data-name="Line 4" x2="770" transform="translate(0 145)" fill="none" stroke="#e6e6ea" stroke-width="1"/>
        <rect id="Rectangle_3990" data-name="Rectangle 3990" width="59" height="36" rx="18" transform="translate(701 155)" fill="#2777d3"/>
        <path id="Path_101514" data-name="Path 101514" d="M.759-.39V-2.064A2.587,2.587,0,0,0,1.3-1.7a4.146,4.146,0,0,0,.66.277,5.2,5.2,0,0,0,.7.174,3.717,3.717,0,0,0,.643.062,2.742,2.742,0,0,0,1.528-.342,1.124,1.124,0,0,0,.5-.991,1.081,1.081,0,0,0-.167-.6,1.757,1.757,0,0,0-.468-.468A4.92,4.92,0,0,0,3.982-4Q3.575-4.19,3.11-4.4q-.5-.267-.93-.54a4,4,0,0,1-.749-.6,2.531,2.531,0,0,1-.5-.749,2.438,2.438,0,0,1-.181-.978,2.256,2.256,0,0,1,.311-1.2,2.627,2.627,0,0,1,.82-.841,3.761,3.761,0,0,1,1.159-.492,5.5,5.5,0,0,1,1.326-.161,5.353,5.353,0,0,1,2.242.349v1.606a3.581,3.581,0,0,0-2.146-.6,3.846,3.846,0,0,0-.721.068,2.144,2.144,0,0,0-.643.226,1.391,1.391,0,0,0-.461.4.989.989,0,0,0-.178.595,1.125,1.125,0,0,0,.137.567,1.464,1.464,0,0,0,.4.438,4.086,4.086,0,0,0,.643.386q.379.188.878.407.513.267.967.561a4.56,4.56,0,0,1,.8.649,2.854,2.854,0,0,1,.547.79,2.319,2.319,0,0,1,.2.988,2.448,2.448,0,0,1-.3,1.258,2.424,2.424,0,0,1-.81.834A3.608,3.608,0,0,1,4.751.021a6.61,6.61,0,0,1-1.4.144,5.967,5.967,0,0,1-.6-.038Q2.386.089,2.01.017A6.759,6.759,0,0,1,1.3-.157,2.251,2.251,0,0,1,.759-.39ZM14.027,0H12.489V-1.094h-.027A2.316,2.316,0,0,1,10.336.164,2.239,2.239,0,0,1,8.719-.4,1.961,1.961,0,0,1,8.135-1.88q0-1.982,2.283-2.311L12.5-4.484q0-1.5-1.422-1.5a3.378,3.378,0,0,0-2.256.861V-6.508a4.919,4.919,0,0,1,2.557-.656,2.326,2.326,0,0,1,2.652,2.611ZM12.5-3.438l-1.47.205A2.33,2.33,0,0,0,10-2.9a.969.969,0,0,0-.345.851.932.932,0,0,0,.318.728,1.231,1.231,0,0,0,.851.284,1.57,1.57,0,0,0,1.2-.509A1.806,1.806,0,0,0,12.5-2.83ZM21.991-7,19.284,0H17.568L14.991-7h1.723l1.552,4.895a4.563,4.563,0,0,1,.219.943H18.5a5.064,5.064,0,0,1,.191-.916L20.323-7Zm6.891,3.931H24.11a2.017,2.017,0,0,0,.6,1.5,2.225,2.225,0,0,0,1.569.526,3.459,3.459,0,0,0,2.058-.67V-.437a4.7,4.7,0,0,1-2.529.6A3.131,3.131,0,0,1,23.382-.79,3.814,3.814,0,0,1,22.5-3.473a3.73,3.73,0,0,1,.967-2.663,3.164,3.164,0,0,1,2.4-1.029,2.759,2.759,0,0,1,2.222.923,3.832,3.832,0,0,1,.786,2.563ZM27.351-4.19a2.044,2.044,0,0,0-.4-1.33A1.348,1.348,0,0,0,25.854-6a1.539,1.539,0,0,0-1.159.5A2.28,2.28,0,0,0,24.11-4.19Z" transform="translate(716 178)" fill="#fff"/>
        <g id="Group_264143" data-name="Group 264143" transform="translate(619 155)">
          <rect id="Rectangle_6075" data-name="Rectangle 6075" width="70.229" height="27.527" rx="13.764" transform="translate(0.588 4.637)" fill="rgba(255,255,255,0)"/>
          <path id="Path_101515" data-name="Path 101515" d="M8.046-.41A5.943,5.943,0,0,1,5.291.164,4.5,4.5,0,0,1,1.873-1.183,4.907,4.907,0,0,1,.588-4.717a5.146,5.146,0,0,1,1.446-3.8A4.946,4.946,0,0,1,5.688-9.967a5.988,5.988,0,0,1,2.358.4V-7.95a4.208,4.208,0,0,0-2.187-.588A3.433,3.433,0,0,0,3.278-7.52,3.742,3.742,0,0,0,2.29-4.8a3.568,3.568,0,0,0,.923,2.581,3.212,3.212,0,0,0,2.427.96,4.345,4.345,0,0,0,2.406-.656ZM15.1,0H13.563V-1.094h-.027A2.316,2.316,0,0,1,11.409.164,2.239,2.239,0,0,1,9.792-.4,1.961,1.961,0,0,1,9.208-1.88q0-1.982,2.283-2.311l2.078-.294q0-1.5-1.422-1.5a3.378,3.378,0,0,0-2.256.861V-6.508a4.919,4.919,0,0,1,2.557-.656A2.326,2.326,0,0,1,15.1-4.553ZM13.569-3.438l-1.47.205a2.33,2.33,0,0,0-1.029.332.969.969,0,0,0-.345.851.932.932,0,0,0,.318.728,1.231,1.231,0,0,0,.851.284,1.57,1.57,0,0,0,1.2-.509,1.806,1.806,0,0,0,.475-1.282ZM23.27,0H21.684V-3.944q0-1.962-1.388-1.962a1.515,1.515,0,0,0-1.2.543,2.016,2.016,0,0,0-.472,1.371V0H17.035V-7h1.593v1.162h.027a2.5,2.5,0,0,1,2.27-1.326,2.114,2.114,0,0,1,1.743.742,3.33,3.33,0,0,1,.6,2.143Zm6.945-.321a3.911,3.911,0,0,1-1.989.485A3.369,3.369,0,0,1,25.71-.81a3.451,3.451,0,0,1-.957-2.526,3.8,3.8,0,0,1,1.029-2.779,3.678,3.678,0,0,1,2.751-1.049,4.016,4.016,0,0,1,1.688.335v1.477A2.557,2.557,0,0,0,28.663-5.9a2.166,2.166,0,0,0-1.647.68,2.487,2.487,0,0,0-.643,1.781,2.371,2.371,0,0,0,.6,1.716,2.148,2.148,0,0,0,1.624.629A2.537,2.537,0,0,0,30.215-1.7Zm7.5-2.748H32.942a2.017,2.017,0,0,0,.6,1.5,2.225,2.225,0,0,0,1.569.526,3.459,3.459,0,0,0,2.058-.67V-.437a4.7,4.7,0,0,1-2.529.6A3.131,3.131,0,0,1,32.214-.79a3.814,3.814,0,0,1-.878-2.683A3.73,3.73,0,0,1,32.3-6.135a3.164,3.164,0,0,1,2.4-1.029,2.759,2.759,0,0,1,2.222.923,3.832,3.832,0,0,1,.786,2.563ZM36.183-4.19a2.044,2.044,0,0,0-.4-1.33A1.348,1.348,0,0,0,34.686-6a1.539,1.539,0,0,0-1.159.5,2.28,2.28,0,0,0-.584,1.306ZM40.817,0H39.225V-10.363h1.593Z" transform="translate(15 23)" fill="#2777d3"/>
        </g>
      </g>
      <g id="Group_264656" data-name="Group 264656" transform="translate(162 299)">
        <g transform="matrix(1, 0, 0, 1, -120, -299)" filter="url(#Rectangle_53-3)">
          <rect id="Rectangle_53-6" data-name="Rectangle 53" width="770" height="96" rx="2" transform="translate(120 299)" fill="#fff"/>
        </g>
        <path id="Seventies-3" data-name="Seventies" d="M3.234-4.062V0H1.383V-11.2h3.4a4.5,4.5,0,0,1,2.992.9A3.133,3.133,0,0,1,8.836-7.773,3.5,3.5,0,0,1,7.727-5.1a4.212,4.212,0,0,1-3,1.039Zm0-5.609v4.094h1.2a2.661,2.661,0,0,0,1.82-.555A1.98,1.98,0,0,0,6.883-7.7q0-1.977-2.3-1.977ZM16.211,0H14.453V-1.25h-.031A2.647,2.647,0,0,1,11.992.188a2.559,2.559,0,0,1-1.848-.641,2.241,2.241,0,0,1-.668-1.7q0-2.266,2.609-2.641l2.375-.336q0-1.711-1.625-1.711a3.86,3.86,0,0,0-2.578.984V-7.437a5.622,5.622,0,0,1,2.922-.75q3.031,0,3.031,2.984Zm-1.75-3.93-1.68.234a2.662,2.662,0,0,0-1.176.379,1.107,1.107,0,0,0-.395.973,1.065,1.065,0,0,0,.363.832,1.407,1.407,0,0,0,.973.324,1.8,1.8,0,0,0,1.371-.582,2.064,2.064,0,0,0,.543-1.465ZM17.922-.25V-1.93a3.616,3.616,0,0,0,2.242.773q1.641,0,1.641-.969a.763.763,0,0,0-.141-.465,1.342,1.342,0,0,0-.379-.34,2.979,2.979,0,0,0-.562-.266Q20.4-3.312,20-3.461a7.65,7.65,0,0,1-.887-.414,2.679,2.679,0,0,1-.656-.5A1.873,1.873,0,0,1,18.063-5a2.316,2.316,0,0,1-.133-.82A1.9,1.9,0,0,1,18.2-6.84a2.376,2.376,0,0,1,.734-.742,3.522,3.522,0,0,1,1.047-.453A4.793,4.793,0,0,1,21.2-8.187a5.5,5.5,0,0,1,1.984.336v1.586a3.345,3.345,0,0,0-1.937-.578,2.53,2.53,0,0,0-.621.07,1.6,1.6,0,0,0-.473.2.961.961,0,0,0-.3.3.718.718,0,0,0-.109.387.826.826,0,0,0,.109.438.993.993,0,0,0,.324.316,2.8,2.8,0,0,0,.516.25q.3.113.691.246a10.1,10.1,0,0,1,.926.43,3.129,3.129,0,0,1,.7.5,1.945,1.945,0,0,1,.445.641,2.175,2.175,0,0,1,.156.863,1.973,1.973,0,0,1-.281,1.063,2.344,2.344,0,0,1-.75.75,3.511,3.511,0,0,1-1.082.441A5.621,5.621,0,0,1,20.2.188,5.448,5.448,0,0,1,17.922-.25Zm6.9,0V-1.93a3.616,3.616,0,0,0,2.242.773q1.641,0,1.641-.969a.763.763,0,0,0-.141-.465,1.342,1.342,0,0,0-.379-.34,2.979,2.979,0,0,0-.562-.266q-.324-.117-.723-.266a7.65,7.65,0,0,1-.887-.414,2.679,2.679,0,0,1-.656-.5A1.873,1.873,0,0,1,24.961-5a2.316,2.316,0,0,1-.133-.82A1.9,1.9,0,0,1,25.1-6.84a2.376,2.376,0,0,1,.734-.742,3.522,3.522,0,0,1,1.047-.453,4.793,4.793,0,0,1,1.211-.152,5.5,5.5,0,0,1,1.984.336v1.586a3.345,3.345,0,0,0-1.937-.578,2.53,2.53,0,0,0-.621.07,1.6,1.6,0,0,0-.473.2.961.961,0,0,0-.3.3.718.718,0,0,0-.109.387.826.826,0,0,0,.109.438.993.993,0,0,0,.324.316,2.8,2.8,0,0,0,.516.25q.3.113.691.246a10.1,10.1,0,0,1,.926.43,3.129,3.129,0,0,1,.7.5,1.945,1.945,0,0,1,.445.641,2.175,2.175,0,0,1,.156.863,1.973,1.973,0,0,1-.281,1.063,2.344,2.344,0,0,1-.75.75,3.511,3.511,0,0,1-1.082.441,5.621,5.621,0,0,1-1.293.145A5.448,5.448,0,0,1,24.82-.25ZM42.977-8,40.617,0h-1.9L37.266-5.422a3.434,3.434,0,0,1-.109-.7h-.031a3.206,3.206,0,0,1-.141.688L35.406,0H33.547L31.2-8H33.07l1.453,5.766a3.416,3.416,0,0,1,.094.688h.055a3.713,3.713,0,0,1,.125-.7L36.414-8h1.7l1.438,5.789a4.049,4.049,0,0,1,.1.688h.055a3.646,3.646,0,0,1,.117-.687L41.25-8ZM47.8.188A3.965,3.965,0,0,1,44.848-.934a4.05,4.05,0,0,1-1.105-2.973,4.214,4.214,0,0,1,1.152-3.148A4.237,4.237,0,0,1,48-8.187a3.838,3.838,0,0,1,2.922,1.1,4.255,4.255,0,0,1,1.047,3.055A4.193,4.193,0,0,1,50.84-.965,4.055,4.055,0,0,1,47.8.188Zm.086-6.93A2.069,2.069,0,0,0,46.211-6a3.108,3.108,0,0,0-.617,2.047,2.927,2.927,0,0,0,.625,1.98,2.1,2.1,0,0,0,1.672.723,1.992,1.992,0,0,0,1.645-.711,3.147,3.147,0,0,0,.574-2.023,3.2,3.2,0,0,0-.574-2.039A1.982,1.982,0,0,0,47.891-6.742Zm10.563.469a1.5,1.5,0,0,0-.945-.258,1.618,1.618,0,0,0-1.344.727,3.249,3.249,0,0,0-.539,1.977V0H53.813V-8h1.813v1.648h.031a2.787,2.787,0,0,1,.816-1.316,1.843,1.843,0,0,1,1.23-.473,1.528,1.528,0,0,1,.75.148ZM66.867,0H65.055V-1.359h-.031a2.891,2.891,0,0,1-2.7,1.547A2.909,2.909,0,0,1,59.965-.887a4.459,4.459,0,0,1-.887-2.926,4.858,4.858,0,0,1,.98-3.18,3.209,3.209,0,0,1,2.613-1.2,2.5,2.5,0,0,1,2.352,1.3h.031v-4.953h1.813ZM65.078-3.656V-4.7a2.04,2.04,0,0,0-.555-1.445,1.85,1.85,0,0,0-1.414-.594,1.9,1.9,0,0,0-1.6.758,3.377,3.377,0,0,0-.582,2.1,3.026,3.026,0,0,0,.559,1.926,1.817,1.817,0,0,0,1.5.707A1.881,1.881,0,0,0,64.5-1.934,2.575,2.575,0,0,0,65.078-3.656Z" transform="translate(10 31)" fill="#31313a"/>
        <path id="Seventies-4" data-name="Seventies" d="M13.414,0H11.57V-7.25q0-.891.109-2.18h-.031a7.527,7.527,0,0,1-.3,1.055L8,0H6.719L3.367-8.312a7.83,7.83,0,0,1-.3-1.117H3.039q.062.672.063,2.2V0H1.383V-11.2H4L6.945-3.742a11.034,11.034,0,0,1,.438,1.281h.039q.289-.883.469-1.312l3-7.43h2.523Zm9.531,0H21.133V-1.266H21.1A2.608,2.608,0,0,1,18.648.188q-2.836,0-2.836-3.406V-8h1.813v4.594q0,2.156,1.664,2.156a1.682,1.682,0,0,0,1.324-.594,2.275,2.275,0,0,0,.52-1.555V-8h1.813Zm4.18,0H25.3V-11.844h1.82ZM33.7-.086A3.141,3.141,0,0,1,32.3.18q-2.328,0-2.328-2.234V-6.578H28.641V-8h1.336V-9.852l1.813-.516V-8H33.7v1.422H31.789v4a1.576,1.576,0,0,0,.258,1.016,1.07,1.07,0,0,0,.859.3,1.246,1.246,0,0,0,.8-.266ZM36.18-9.68a1.09,1.09,0,0,1-.762-.289A.951.951,0,0,1,35.1-10.7a.975.975,0,0,1,.316-.742,1.074,1.074,0,0,1,.762-.3,1.107,1.107,0,0,1,.781.3.97.97,0,0,1,.32.742.956.956,0,0,1-.32.723A1.1,1.1,0,0,1,36.18-9.68Zm.9,9.68H35.266V-8h1.813Zm6.578-3.7H39.391V-5.039h4.266ZM50.4-10.367a1.648,1.648,0,0,0-.836-.211q-1.32,0-1.32,1.492V-8H50.1v1.422H48.25V0H46.438V-6.578H45.07V-8h1.367V-9.3a2.525,2.525,0,0,1,.828-2,3.016,3.016,0,0,1,2.07-.73,3.074,3.074,0,0,1,1.063.148ZM57.531,0H55.773V-1.25h-.031A2.647,2.647,0,0,1,53.313.188a2.559,2.559,0,0,1-1.848-.641,2.241,2.241,0,0,1-.668-1.7q0-2.266,2.609-2.641l2.375-.336q0-1.711-1.625-1.711a3.86,3.86,0,0,0-2.578.984V-7.437a5.622,5.622,0,0,1,2.922-.75q3.031,0,3.031,2.984Zm-1.75-3.93L54.1-3.7a2.662,2.662,0,0,0-1.176.379,1.107,1.107,0,0,0-.395.973,1.065,1.065,0,0,0,.363.832,1.407,1.407,0,0,0,.973.324,1.8,1.8,0,0,0,1.371-.582,2.064,2.064,0,0,0,.543-1.465ZM65.469-.367A4.47,4.47,0,0,1,63.2.188,3.85,3.85,0,0,1,60.32-.926a3.944,3.944,0,0,1-1.094-2.887A4.341,4.341,0,0,1,60.4-6.988a4.2,4.2,0,0,1,3.145-1.2,4.59,4.59,0,0,1,1.93.383v1.688A2.923,2.923,0,0,0,63.7-6.742a2.475,2.475,0,0,0-1.883.777,2.842,2.842,0,0,0-.734,2.035,2.71,2.71,0,0,0,.691,1.961,2.455,2.455,0,0,0,1.855.719,2.9,2.9,0,0,0,1.844-.7Zm6.016.281a3.141,3.141,0,0,1-1.4.266q-2.328,0-2.328-2.234V-6.578H66.422V-8h1.336V-9.852l1.813-.516V-8h1.914v1.422H69.57v4a1.576,1.576,0,0,0,.258,1.016,1.07,1.07,0,0,0,.859.3,1.246,1.246,0,0,0,.8-.266ZM76.5.188A3.965,3.965,0,0,1,73.543-.934a4.05,4.05,0,0,1-1.105-2.973A4.214,4.214,0,0,1,73.59-7.055,4.237,4.237,0,0,1,76.7-8.187a3.838,3.838,0,0,1,2.922,1.1,4.255,4.255,0,0,1,1.047,3.055A4.193,4.193,0,0,1,79.535-.965,4.055,4.055,0,0,1,76.5.188Zm.086-6.93A2.069,2.069,0,0,0,74.906-6a3.108,3.108,0,0,0-.617,2.047,2.927,2.927,0,0,0,.625,1.98,2.1,2.1,0,0,0,1.672.723,1.992,1.992,0,0,0,1.645-.711A3.147,3.147,0,0,0,78.8-3.984a3.2,3.2,0,0,0-.574-2.039A1.982,1.982,0,0,0,76.586-6.742Zm10.563.469a1.5,1.5,0,0,0-.945-.258,1.618,1.618,0,0,0-1.344.727,3.249,3.249,0,0,0-.539,1.977V0H82.508V-8H84.32v1.648h.031a2.787,2.787,0,0,1,.816-1.316,1.843,1.843,0,0,1,1.23-.473,1.528,1.528,0,0,1,.75.148ZM98.969,0H97.211V-1.25H97.18A2.647,2.647,0,0,1,94.75.188,2.559,2.559,0,0,1,92.9-.453a2.241,2.241,0,0,1-.668-1.7q0-2.266,2.609-2.641l2.375-.336q0-1.711-1.625-1.711a3.86,3.86,0,0,0-2.578.984V-7.437a5.622,5.622,0,0,1,2.922-.75q3.031,0,3.031,2.984Zm-1.75-3.93-1.68.234a2.662,2.662,0,0,0-1.176.379,1.107,1.107,0,0,0-.395.973,1.065,1.065,0,0,0,.363.832,1.407,1.407,0,0,0,.973.324,1.8,1.8,0,0,0,1.371-.582,2.064,2.064,0,0,0,.543-1.465ZM108.156,0h-1.812V-1.266h-.031A2.608,2.608,0,0,1,103.859.188q-2.836,0-2.836-3.406V-8h1.813v4.594q0,2.156,1.664,2.156a1.682,1.682,0,0,0,1.324-.594,2.275,2.275,0,0,0,.52-1.555V-8h1.813Zm6.578-.086a3.141,3.141,0,0,1-1.4.266q-2.328,0-2.328-2.234V-6.578h-1.336V-8h1.336V-9.852l1.813-.516V-8h1.914v1.422H112.82v4a1.576,1.576,0,0,0,.258,1.016,1.07,1.07,0,0,0,.859.3,1.246,1.246,0,0,0,.8-.266ZM123.406,0h-1.812V-4.375q0-2.375-1.586-2.375a1.659,1.659,0,0,0-1.344.688,2.737,2.737,0,0,0-.547,1.758V0H116.3V-11.844h1.82v5.172h.031a2.862,2.862,0,0,1,2.594-1.516q2.664,0,2.664,3.258Zm8.977-3.508H126.93a2.305,2.305,0,0,0,.684,1.711,2.543,2.543,0,0,0,1.793.6,3.954,3.954,0,0,0,2.352-.766V-.5a5.373,5.373,0,0,1-2.891.688A3.578,3.578,0,0,1,126.1-.9a4.359,4.359,0,0,1-1-3.066A4.263,4.263,0,0,1,126.2-7.012a3.616,3.616,0,0,1,2.746-1.176,3.153,3.153,0,0,1,2.539,1.055,4.379,4.379,0,0,1,.9,2.93Zm-1.75-1.281a2.336,2.336,0,0,0-.461-1.52,1.54,1.54,0,0,0-1.25-.543,1.759,1.759,0,0,0-1.324.57,2.605,2.605,0,0,0-.668,1.492ZM141.234,0h-1.812V-4.508q0-2.242-1.586-2.242a1.732,1.732,0,0,0-1.367.621,2.3,2.3,0,0,0-.539,1.566V0h-1.82V-8h1.82v1.328h.031a2.851,2.851,0,0,1,2.594-1.516,2.416,2.416,0,0,1,1.992.848,3.806,3.806,0,0,1,.688,2.449Zm6.43-.086a3.141,3.141,0,0,1-1.4.266q-2.328,0-2.328-2.234V-6.578H142.6V-8h1.336V-9.852l1.813-.516V-8h1.914v1.422H145.75v4a1.576,1.576,0,0,0,.258,1.016,1.07,1.07,0,0,0,.859.3,1.246,1.246,0,0,0,.8-.266Zm2.477-9.594a1.09,1.09,0,0,1-.762-.289.951.951,0,0,1-.316-.734.975.975,0,0,1,.316-.742,1.074,1.074,0,0,1,.762-.3,1.107,1.107,0,0,1,.781.3.97.97,0,0,1,.32.742.956.956,0,0,1-.32.723A1.1,1.1,0,0,1,150.141-9.68Zm.9,9.68h-1.812V-8h1.813Zm8.094-.367a4.47,4.47,0,0,1-2.273.555,3.85,3.85,0,0,1-2.875-1.113,3.944,3.944,0,0,1-1.094-2.887,4.341,4.341,0,0,1,1.176-3.176,4.2,4.2,0,0,1,3.145-1.2,4.59,4.59,0,0,1,1.93.383v1.688a2.923,2.923,0,0,0-1.781-.625,2.475,2.475,0,0,0-1.883.777,2.842,2.842,0,0,0-.734,2.035,2.71,2.71,0,0,0,.691,1.961,2.455,2.455,0,0,0,1.855.719,2.9,2.9,0,0,0,1.844-.7ZM167.07,0h-1.758V-1.25h-.031a2.647,2.647,0,0,1-2.43,1.438A2.559,2.559,0,0,1,161-.453a2.241,2.241,0,0,1-.668-1.7q0-2.266,2.609-2.641l2.375-.336q0-1.711-1.625-1.711a3.86,3.86,0,0,0-2.578.984V-7.437a5.622,5.622,0,0,1,2.922-.75q3.031,0,3.031,2.984Zm-1.75-3.93-1.68.234a2.662,2.662,0,0,0-1.176.379,1.107,1.107,0,0,0-.395.973,1.065,1.065,0,0,0,.363.832,1.407,1.407,0,0,0,.973.324,1.8,1.8,0,0,0,1.371-.582,2.064,2.064,0,0,0,.543-1.465ZM173.5-.086a3.141,3.141,0,0,1-1.4.266q-2.328,0-2.328-2.234V-6.578h-1.336V-8h1.336V-9.852l1.813-.516V-8H173.5v1.422h-1.914v4a1.576,1.576,0,0,0,.258,1.016,1.07,1.07,0,0,0,.859.3,1.246,1.246,0,0,0,.8-.266Zm2.477-9.594a1.09,1.09,0,0,1-.762-.289.951.951,0,0,1-.316-.734.975.975,0,0,1,.316-.742,1.074,1.074,0,0,1,.762-.3,1.107,1.107,0,0,1,.781.3.97.97,0,0,1,.32.742.956.956,0,0,1-.32.723A1.1,1.1,0,0,1,175.977-9.68Zm.9,9.68h-1.812V-8h1.813Zm5.914.188a3.965,3.965,0,0,1-2.957-1.121,4.05,4.05,0,0,1-1.105-2.973,4.214,4.214,0,0,1,1.152-3.148,4.237,4.237,0,0,1,3.105-1.133,3.838,3.838,0,0,1,2.922,1.1,4.255,4.255,0,0,1,1.047,3.055,4.193,4.193,0,0,1-1.129,3.066A4.055,4.055,0,0,1,182.789.188Zm.086-6.93A2.069,2.069,0,0,0,181.2-6a3.108,3.108,0,0,0-.617,2.047,2.927,2.927,0,0,0,.625,1.98,2.1,2.1,0,0,0,1.672.723,1.992,1.992,0,0,0,1.645-.711,3.147,3.147,0,0,0,.574-2.023,3.2,3.2,0,0,0-.574-2.039A1.982,1.982,0,0,0,182.875-6.742ZM195.922,0h-1.812V-4.508q0-2.242-1.586-2.242a1.732,1.732,0,0,0-1.367.621,2.3,2.3,0,0,0-.539,1.566V0H188.8V-8h1.82v1.328h.031a2.851,2.851,0,0,1,2.594-1.516,2.416,2.416,0,0,1,1.992.848,3.806,3.806,0,0,1,.688,2.449Z" transform="translate(10 81)" fill="#31313a"/>
        <path id="Path_101510" data-name="Path 101510" d="M5.332-7.547l-1.873.383L4.758-5.5l-.752.52L2.939-6.795,1.859-4.983,1.107-5.5l1.3-1.661L.52-7.547.827-8.4l1.791.677L2.461-9.8H3.4L3.247-7.725l1.8-.677Zm5.838,0L9.3-7.164,10.6-5.5l-.752.52L8.777-6.795,7.7-4.983,6.945-5.5l1.3-1.661L6.357-7.547,6.665-8.4l1.791.677L8.3-9.8h.943L9.085-7.725l1.8-.677Zm5.838,0-1.873.383,1.3,1.661-.752.52L14.615-6.795l-1.08,1.812-.752-.52,1.3-1.661L12.2-7.547,12.5-8.4l1.791.677L14.137-9.8h.943l-.157,2.078,1.8-.677Zm5.838,0-1.873.383,1.3,1.661-.752.52L20.453-6.795l-1.08,1.812-.752-.52,1.3-1.661-1.887-.383.308-.854,1.791.677L19.975-9.8h.943l-.157,2.078,1.8-.677Zm5.838,0-1.873.383,1.3,1.661-.752.52L26.291-6.795l-1.08,1.812-.752-.52,1.3-1.661-1.887-.383.308-.854,1.791.677L25.813-9.8h.943L26.6-7.725,28.4-8.4Zm5.838,0-1.873.383,1.3,1.661-.752.52L32.129-6.795l-1.08,1.812L30.3-5.5l1.3-1.661-1.887-.383.308-.854,1.791.677L31.65-9.8h.943l-.157,2.078,1.8-.677Zm5.838,0-1.873.383,1.3,1.661-.752.52L37.967-6.795l-1.08,1.812-.752-.52,1.3-1.661-1.887-.383.308-.854,1.791.677L37.488-9.8h.943l-.157,2.078,1.8-.677Zm5.838,0-1.873.383,1.3,1.661-.752.52L43.8-6.795l-1.08,1.812-.752-.52,1.3-1.661-1.887-.383.308-.854,1.791.677L43.326-9.8h.943l-.157,2.078,1.8-.677Zm5.838,0-1.873.383,1.3,1.661-.752.52L49.643-6.795l-1.08,1.812-.752-.52,1.3-1.661-1.887-.383L47.53-8.4l1.791.677L49.164-9.8h.943L49.95-7.725l1.8-.677Zm5.838,0L56-7.164,57.3-5.5l-.752.52L55.48-6.795,54.4-4.983l-.752-.52,1.3-1.661-1.887-.383.308-.854,1.791.677L55-9.8h.943l-.157,2.078,1.8-.677Zm5.838,0-1.873.383,1.3,1.661-.752.52L61.318-6.795l-1.08,1.812-.752-.52,1.3-1.661L58.9-7.547l.308-.854L61-7.725,60.84-9.8h.943l-.157,2.078,1.8-.677Zm5.838,0-1.873.383,1.3,1.661-.752.52L67.156-6.795l-1.08,1.812-.752-.52,1.3-1.661-1.887-.383.308-.854,1.791.677L66.678-9.8h.943l-.157,2.078,1.8-.677Z" transform="translate(370 30)" fill="#31313a"/>
        <path id="Path_101511" data-name="Path 101511" d="M5.236.164A4.3,4.3,0,0,1,1.9-1.21,5.1,5.1,0,0,1,.643-4.785,5.4,5.4,0,0,1,1.921-8.559,4.465,4.465,0,0,1,5.4-9.967,4.206,4.206,0,0,1,8.671-8.6,5.115,5.115,0,0,1,9.912-5.024,5.417,5.417,0,0,1,8.641-1.23,4.382,4.382,0,0,1,5.236.164Zm.082-9.092A3.16,3.16,0,0,0,2.81-7.813a4.314,4.314,0,0,0-.964,2.926,4.344,4.344,0,0,0,.94,2.916,3.065,3.065,0,0,0,2.451,1.1A3.218,3.218,0,0,0,7.779-1.921a4.3,4.3,0,0,0,.93-2.946,4.5,4.5,0,0,0-.9-3A3.094,3.094,0,0,0,5.318-8.928Zm9.83-.451a1.493,1.493,0,0,0-.745-.185q-1.176,0-1.176,1.483V-7h1.641v.957H13.228V0H12.113V-6.043h-1.2V-7h1.2V-8.135a2.358,2.358,0,0,1,.636-1.74,2.146,2.146,0,0,1,1.586-.639,2.2,2.2,0,0,1,.813.123Zm4.382,0a1.493,1.493,0,0,0-.745-.185q-1.176,0-1.176,1.483V-7H19.25v.957H17.609V0H16.5V-6.043H15.3V-7h1.2V-8.135a2.358,2.358,0,0,1,.636-1.74,2.146,2.146,0,0,1,1.586-.639,2.2,2.2,0,0,1,.813.123Z" transform="translate(370 80)" fill="#31313a"/>
        <g id="Icon_link-3" data-name="Icon link" transform="translate(724 6)">
          <g id="Group_264647-3" data-name="Group 264647">
            <rect id="Rectangle_5240-3" data-name="Rectangle 5240" width="36" height="36" rx="18" fill="none"/>
            <g id="Chevron_down-3" data-name="Chevron down" transform="translate(10 10)">
              <g id="Group_264648-3" data-name="Group 264648">
                <path id="Path_101496-3" data-name="Path 101496" d="M11.974,5.284l1.275,1.275a.289.289,0,0,1,0,.407l-5.06,5.083a.289.289,0,0,1-.407,0L2.751,6.966a.289.289,0,0,1,0-.407L4.026,5.284a.289.289,0,0,1,.407,0l3.553,3.6,3.581-3.6A.289.289,0,0,1,11.974,5.284Z" fill="#78788c"/>
                <rect id="Rectangle_10025-3" data-name="Rectangle 10025" width="16" height="16" fill="none"/>
              </g>
            </g>
          </g>
        </g>
        <line id="Line_3" data-name="Line 3" x2="770" transform="translate(0 48)" fill="none" stroke="#e6e6ea" stroke-width="1"/>
        <g id="Icon_link-4" data-name="Icon link" transform="translate(724 54)">
          <g id="Group_264647-4" data-name="Group 264647">
            <rect id="Rectangle_5240-4" data-name="Rectangle 5240" width="36" height="36" rx="18" fill="none"/>
            <g id="Chevron_down-4" data-name="Chevron down" transform="translate(10 10)">
              <g id="Group_264648-4" data-name="Group 264648">
                <path id="Path_101496-4" data-name="Path 101496" d="M11.974,5.284l1.275,1.275a.289.289,0,0,1,0,.407l-5.06,5.083a.289.289,0,0,1-.407,0L2.751,6.966a.289.289,0,0,1,0-.407L4.026,5.284a.289.289,0,0,1,.407,0l3.553,3.6,3.581-3.6A.289.289,0,0,1,11.974,5.284Z" fill="#78788c"/>
                <rect id="Rectangle_10025-4" data-name="Rectangle 10025" width="16" height="16" fill="none"/>
              </g>
            </g>
          </g>
        </g>
      </g>
    </g>
    <g id="Group_264658" data-name="Group 264658" transform="translate(-21 -261)">
      <path id="Path_1" data-name="Path 1" d="M12,0A12,12,0,1,1,0,12,12,12,0,0,1,12,0Z" transform="translate(68 443)" fill="#17987c"/>
      <path id="Path_3" data-name="Path 3" d="M0,0H1V39H0Z" transform="translate(91 455.667) rotate(-90)" fill="#17987c"/>
      <g id="Group_5" data-name="Group 5" transform="translate(0 351)">
        <g id="Group_6" data-name="Group 6">
          <path id="Path_8" data-name="Path 8" d="M0,0H1V5H0Z" transform="translate(128 1) rotate(-90)" fill="#17987c"/>
          <path id="Path_9" data-name="Path 9" d="M0,0H1V5H0Z" transform="translate(128 208.333) rotate(-90)" fill="#17987c"/>
          <path id="Path_7" data-name="Path 7" d="M0,0H1V206.833H0Z" transform="translate(130 0.75)" fill="#17987c"/>
        </g>
      </g>
      <path id="Path_101507" data-name="Path 101507" d="M4.2-10.021V0H2.618V-8.08a5.052,5.052,0,0,1-.926.523,7.635,7.635,0,0,1-1.131.379V-8.531q.4-.13.766-.273t.728-.321q.359-.178.725-.4t.755-.5Z" transform="translate(77 460)" fill="#fff"/>
    </g>
    <g id="Group_264659" data-name="Group 264659" transform="translate(767 -262)">
      <path id="Path_1-2" data-name="Path 1" d="M12,0A12,12,0,1,1,0,12,12,12,0,0,1,12,0Z" transform="translate(163 363)" fill="#17987c"/>
      <path id="Path_3-2" data-name="Path 3" d="M0,0H1V39H0Z" transform="translate(130.5 376.333) rotate(-90)" fill="#17987c"/>
      <g id="Group_5-2" data-name="Group 5" transform="translate(0 351)">
        <g id="Group_6-2" data-name="Group 6">
          <path id="Path_8-2" data-name="Path 8" d="M0,0H1V5H0Z" transform="translate(128 1) rotate(-90)" fill="#17987c"/>
          <path id="Path_9-2" data-name="Path 9" d="M0,0H1V5H0Z" transform="translate(128 48) rotate(-90)" fill="#17987c"/>
          <path id="Path_7-2" data-name="Path 7" d="M0,0H1V46.5H0Z" transform="translate(130 0.75)" fill="#17987c"/>
        </g>
      </g>
      <path id="Path_101504" data-name="Path 101504" d="M6.822,0H.67V-.759A2.849,2.849,0,0,1,.8-1.63,3.526,3.526,0,0,1,1.148-2.4a4.265,4.265,0,0,1,.513-.677q.294-.318.629-.615t.684-.574q.349-.277.684-.557.314-.267.574-.523a3.491,3.491,0,0,0,.444-.53,2.4,2.4,0,0,0,.287-.578,2.053,2.053,0,0,0,.1-.66,1.778,1.778,0,0,0-.12-.68,1.322,1.322,0,0,0-.335-.485A1.43,1.43,0,0,0,4.1-8.569a2,2,0,0,0-.643-.1,2.964,2.964,0,0,0-1.224.28,4.188,4.188,0,0,0-1.2.841V-9.071a5,5,0,0,1,.608-.393,4.146,4.146,0,0,1,.636-.28,3.919,3.919,0,0,1,.69-.167,5.179,5.179,0,0,1,.772-.055,3.9,3.9,0,0,1,1.2.174,2.561,2.561,0,0,1,.923.513,2.253,2.253,0,0,1,.591.844,3.03,3.03,0,0,1,.208,1.162A3.614,3.614,0,0,1,6.525-6.2a3.462,3.462,0,0,1-.417.885,4.593,4.593,0,0,1-.653.779q-.383.369-.854.759-.4.321-.79.625T3.1-2.56a3.321,3.321,0,0,0-.509.581,1.042,1.042,0,0,0-.195.584v.034H6.822Z" transform="translate(172 380)" fill="#fff"/>
    </g>
    <g id="Group_264663" data-name="Group 264663" transform="translate(767 -214)">
      <path id="Path_1-3" data-name="Path 1" d="M12,0A12,12,0,1,1,0,12,12,12,0,0,1,12,0Z" transform="translate(163 387)" fill="#17987c"/>
      <path id="Path_3-3" data-name="Path 3" d="M0,0H1V39H0Z" transform="translate(130.5 400.333) rotate(-90)" fill="#17987c"/>
      <g id="Group_5-3" data-name="Group 5" transform="translate(0 351)">
        <g id="Group_6-3" data-name="Group 6">
          <path id="Path_8-3" data-name="Path 8" d="M0,0H1V5H0Z" transform="translate(128 1) rotate(-90)" fill="#17987c"/>
          <path id="Path_9-3" data-name="Path 9" d="M0,0H1V5H0Z" transform="translate(128 96) rotate(-90)" fill="#17987c"/>
          <path id="Path_7-3" data-name="Path 7" d="M0,0H1V94.5H0Z" transform="translate(130 0.75)" fill="#17987c"/>
        </g>
      </g>
      <path id="Path_101505" data-name="Path 101505" d="M7.28-3.151A3.6,3.6,0,0,1,7.038-1.8,3.156,3.156,0,0,1,6.364-.755a3.006,3.006,0,0,1-1.022.684A3.343,3.343,0,0,1,4.061.171,3.184,3.184,0,0,1,2.7-.116,2.908,2.908,0,0,1,1.637-.971,4.109,4.109,0,0,1,.943-2.382,7.021,7.021,0,0,1,.7-4.341a8.192,8.192,0,0,1,.325-2.413,5.3,5.3,0,0,1,.892-1.764A3.818,3.818,0,0,1,3.247-9.6,3.759,3.759,0,0,1,4.9-9.967a6.2,6.2,0,0,1,1.008.075,2.793,2.793,0,0,1,.728.205v1.429a4.712,4.712,0,0,0-.745-.3,3.069,3.069,0,0,0-.909-.123,2.421,2.421,0,0,0-1.06.232,2.348,2.348,0,0,0-.837.68,3.364,3.364,0,0,0-.554,1.107,5.357,5.357,0,0,0-.208,1.521h.041a2.214,2.214,0,0,1,.851-.766,2.688,2.688,0,0,1,1.261-.28,3.069,3.069,0,0,1,1.159.208,2.431,2.431,0,0,1,.882.6,2.7,2.7,0,0,1,.564.957A3.807,3.807,0,0,1,7.28-3.151Zm-1.6.13a2.82,2.82,0,0,0-.1-.772,1.662,1.662,0,0,0-.3-.6,1.352,1.352,0,0,0-.506-.386,1.73,1.73,0,0,0-.714-.137,1.671,1.671,0,0,0-.721.147,1.6,1.6,0,0,0-.523.386,1.6,1.6,0,0,0-.318.547,1.918,1.918,0,0,0-.106.629,2.725,2.725,0,0,0,.1.714,2.191,2.191,0,0,0,.3.667,1.7,1.7,0,0,0,.523.5,1.417,1.417,0,0,0,.755.195,1.585,1.585,0,0,0,.69-.144,1.409,1.409,0,0,0,.5-.4,1.791,1.791,0,0,0,.308-.6A2.54,2.54,0,0,0,5.681-3.021Z" transform="translate(171 404)" fill="#fff"/>
    </g>
    <g id="Group_264664" data-name="Group 264664" transform="translate(767 -118)">
      <path id="Path_1-4" data-name="Path 1" d="M12,0A12,12,0,1,1,0,12,12,12,0,0,1,12,0Z" transform="translate(163 367)" fill="#17987c"/>
      <path id="Path_3-4" data-name="Path 3" d="M0,0H1V39H0Z" transform="translate(130.5 380.333) rotate(-90)" fill="#17987c"/>
      <g id="Group_5-4" data-name="Group 5" transform="translate(0 351)">
        <g id="Group_6-4" data-name="Group 6">
          <path id="Path_8-4" data-name="Path 8" d="M0,0H1V5H0Z" transform="translate(128 1) rotate(-90)" fill="#17987c"/>
          <path id="Path_9-4" data-name="Path 9" d="M0,0H1V5H0Z" transform="translate(128 56) rotate(-90)" fill="#17987c"/>
          <path id="Path_7-4" data-name="Path 7" d="M0,0H1V54.5H0Z" transform="translate(130 0.75)" fill="#17987c"/>
        </g>
      </g>
      <path id="Path_101506" data-name="Path 101506" d="M7.027-9.01Q6.412-7.882,5.865-6.778T4.874-4.56Q4.43-3.445,4.1-2.314A17.788,17.788,0,0,0,3.6,0H1.935A16.878,16.878,0,0,1,2.4-2.1q.3-1.049.714-2.1T4.037-6.31q.509-1.06,1.083-2.14H.479V-9.8H7.027Z" transform="translate(172 384)" fill="#fff"/>
    </g>
    <g id="Group_264660" data-name="Group 264660" transform="translate(162 -361)">
      <path id="Path_4" data-name="Path 4" d="M12,0A12,12,0,1,1,0,12,12,12,0,0,1,12,0Z" transform="translate(68 403)" fill="#17987c"/>
      <path id="Path_6" data-name="Path 6" d="M0,0H1V39H0Z" transform="translate(34 415) rotate(-90)" fill="#17987c"/>
      <path id="Path_101501" data-name="Path 101501" d="M.841-.362v-1.49A3.386,3.386,0,0,0,3-1.094a2.517,2.517,0,0,0,1.562-.444,1.432,1.432,0,0,0,.584-1.2q0-1.668-2.55-1.668H1.839V-5.681h.725q2.263,0,2.263-1.572Q4.826-8.7,3.063-8.7A2.892,2.892,0,0,0,1.21-8V-9.406a4.739,4.739,0,0,1,2.358-.561,3.159,3.159,0,0,1,2.092.656,2.092,2.092,0,0,1,.786,1.682A2.4,2.4,0,0,1,4.478-5.141v.027a2.579,2.579,0,0,1,1.675.742,2.211,2.211,0,0,1,.615,1.6A2.616,2.616,0,0,1,5.776-.646a4,4,0,0,1-2.611.81A4.456,4.456,0,0,1,.841-.362Z" transform="translate(76 420)" fill="#fff"/>
    </g>
    <g id="Group_264661" data-name="Group 264661" transform="translate(543 -361)">
      <path id="Path_4-2" data-name="Path 4" d="M12,0A12,12,0,1,1,0,12,12,12,0,0,1,12,0Z" transform="translate(68 403)" fill="#17987c"/>
      <path id="Path_6-2" data-name="Path 6" d="M0,0H1V39H0Z" transform="translate(34 415) rotate(-90)" fill="#17987c"/>
      <path id="Path_101502" data-name="Path 101502" d="M6.33-9.8v6.33H7.786v1.319H6.33V0H4.792V-2.153H.355V-3.486q.6-.677,1.234-1.466T2.806-6.566Q3.391-7.39,3.89-8.217A15.065,15.065,0,0,0,4.73-9.8ZM4.792-3.473V-7.588A22.714,22.714,0,0,1,3.319-5.25q-.728,1-1.364,1.777Z" transform="translate(76 420)" fill="#fff"/>
    </g>
    <g id="Group_264662" data-name="Group 264662" transform="translate(845 -361)">
      <path id="Path_4-3" data-name="Path 4" d="M12,0A12,12,0,1,1,0,12,12,12,0,0,1,12,0Z" transform="translate(68 403)" fill="#17987c"/>
      <path id="Path_6-3" data-name="Path 6" d="M0,0H1V39H0Z" transform="translate(34 415) rotate(-90)" fill="#17987c"/>
      <path id="Path_101503" data-name="Path 101503" d="M1.06-.226V-1.75A3.468,3.468,0,0,0,3.015-1.1,2.42,2.42,0,0,0,4.621-1.61a1.68,1.68,0,0,0,.608-1.357,1.532,1.532,0,0,0-.619-1.3A2.911,2.911,0,0,0,2.837-4.73q-.4,0-1.606.082L1.579-9.8H6.405v1.354H2.9L2.734-6q.472-.027.854-.027a3.384,3.384,0,0,1,2.41.8A2.857,2.857,0,0,1,6.85-3.035,2.991,2.991,0,0,1,5.875-.7,3.85,3.85,0,0,1,3.2.178,4.429,4.429,0,0,1,1.06-.226Z" transform="translate(76 420)" fill="#fff"/>
    </g>
  </g>
</svg>
