<svg xmlns="http://www.w3.org/2000/svg" xmlns:xlink="http://www.w3.org/1999/xlink" width="500" height="460" viewBox="0 0 500 460">
  <defs>
    <filter id="BG_-_main" x="106.5" y="26.5" width="348" height="408" filterUnits="userSpaceOnUse">
      <feOffset dy="1" input="SourceAlpha"/>
      <feGaussianBlur stdDeviation="1.5" result="blur"/>
      <feFlood flood-opacity="0.161"/>
      <feComposite operator="in" in2="blur"/>
      <feComposite in="SourceGraphic"/>
    </filter>
    <clipPath id="clip-path">
      <rect width="148" height="279" fill="none"/>
    </clipPath>
    <linearGradient id="linear-gradient" x1="0.447" y1="0.695" x2="0.447" gradientUnits="objectBoundingBox">
      <stop offset="0" stop-color="#fafafa"/>
      <stop offset="1" stop-color="#f4f4f6" stop-opacity="0"/>
    </linearGradient>
    <clipPath id="clip-table-do-buttonsalignment">
      <rect width="500" height="460"/>
    </clipPath>
  </defs>
  <g id="table-do-buttonsalignment" clip-path="url(#clip-table-do-buttonsalignment)">
    <rect width="500" height="460" fill="#fafafa"/>
    <g id="Group_267070" data-name="Group 267070" transform="translate(-520 -80)">
      <g transform="matrix(1, 0, 0, 1, 520, 80)" filter="url(#BG_-_main)">
        <rect id="BG_-_main-2" data-name="BG - main" width="339" height="399" rx="2" transform="translate(111 30)" fill="#fff"/>
      </g>
      <rect id="Row_banding" data-name="Row banding" width="348" height="48" transform="translate(622 216)" fill="#fafafa"/>
      <rect id="Row_banding-2" data-name="Row banding" width="348" height="48" transform="translate(622 314)" fill="#fafafa"/>
      <rect id="Row_banding-3" data-name="Row banding" width="348" height="48" transform="translate(622 412)" fill="#fafafa"/>
      <g id="Actions" transform="translate(19 117)">
        <g id="Link_Button" data-name="Link Button" transform="translate(852.752 109.637)">
          <g id="Group_264143" data-name="Group 264143" transform="translate(-0.752 -3.637)">
            <rect id="Rectangle_6075" data-name="Rectangle 6075" width="66.709" height="27.527" rx="13.764" transform="translate(0.752 3.637)" fill="rgba(255,255,255,0)"/>
            <path id="Path_102278" data-name="Path 102278" d="M.759-.39V-2.064A2.587,2.587,0,0,0,1.3-1.7a4.146,4.146,0,0,0,.66.277,5.2,5.2,0,0,0,.7.174,3.717,3.717,0,0,0,.643.062,2.742,2.742,0,0,0,1.528-.342,1.124,1.124,0,0,0,.5-.991,1.081,1.081,0,0,0-.167-.6,1.757,1.757,0,0,0-.468-.468A4.92,4.92,0,0,0,3.982-4Q3.575-4.19,3.11-4.4q-.5-.267-.93-.54a4,4,0,0,1-.749-.6,2.531,2.531,0,0,1-.5-.749,2.438,2.438,0,0,1-.181-.978,2.256,2.256,0,0,1,.311-1.2,2.627,2.627,0,0,1,.82-.841,3.761,3.761,0,0,1,1.159-.492,5.5,5.5,0,0,1,1.326-.161,5.353,5.353,0,0,1,2.242.349v1.606a3.581,3.581,0,0,0-2.146-.6,3.846,3.846,0,0,0-.721.068,2.144,2.144,0,0,0-.643.226,1.391,1.391,0,0,0-.461.4.989.989,0,0,0-.178.595,1.125,1.125,0,0,0,.137.567,1.464,1.464,0,0,0,.4.438,4.086,4.086,0,0,0,.643.386q.379.188.878.407.513.267.967.561a4.56,4.56,0,0,1,.8.649,2.854,2.854,0,0,1,.547.79,2.319,2.319,0,0,1,.2.988,2.448,2.448,0,0,1-.3,1.258,2.424,2.424,0,0,1-.81.834A3.608,3.608,0,0,1,4.751.021a6.61,6.61,0,0,1-1.4.144,5.967,5.967,0,0,1-.6-.038Q2.386.089,2.01.017A6.759,6.759,0,0,1,1.3-.157,2.251,2.251,0,0,1,.759-.39Zm13.822-2.68H9.81a2.017,2.017,0,0,0,.6,1.5,2.225,2.225,0,0,0,1.569.526,3.459,3.459,0,0,0,2.058-.67V-.437a4.7,4.7,0,0,1-2.529.6A3.131,3.131,0,0,1,9.082-.79,3.814,3.814,0,0,1,8.2-3.473,3.73,3.73,0,0,1,9.17-6.135a3.164,3.164,0,0,1,2.4-1.029,2.759,2.759,0,0,1,2.222.923,3.832,3.832,0,0,1,.786,2.563ZM13.05-4.19a2.044,2.044,0,0,0-.4-1.33A1.348,1.348,0,0,0,11.553-6a1.539,1.539,0,0,0-1.159.5A2.28,2.28,0,0,0,9.81-4.19ZM17.685,0H16.092V-10.363h1.593Zm7.991-3.069H20.9a2.017,2.017,0,0,0,.6,1.5,2.225,2.225,0,0,0,1.569.526,3.459,3.459,0,0,0,2.058-.67V-.437a4.7,4.7,0,0,1-2.529.6A3.131,3.131,0,0,1,20.176-.79,3.814,3.814,0,0,1,19.3-3.473a3.73,3.73,0,0,1,.967-2.663,3.164,3.164,0,0,1,2.4-1.029,2.759,2.759,0,0,1,2.222.923,3.832,3.832,0,0,1,.786,2.563ZM24.145-4.19a2.044,2.044,0,0,0-.4-1.33A1.348,1.348,0,0,0,22.647-6a1.539,1.539,0,0,0-1.159.5A2.28,2.28,0,0,0,20.9-4.19ZM32.2-.321a3.911,3.911,0,0,1-1.989.485A3.369,3.369,0,0,1,27.692-.81a3.451,3.451,0,0,1-.957-2.526,3.8,3.8,0,0,1,1.029-2.779,3.678,3.678,0,0,1,2.751-1.049,4.016,4.016,0,0,1,1.688.335v1.477A2.557,2.557,0,0,0,30.646-5.9,2.166,2.166,0,0,0,29-5.219a2.487,2.487,0,0,0-.643,1.781,2.371,2.371,0,0,0,.6,1.716,2.148,2.148,0,0,0,1.624.629A2.537,2.537,0,0,0,32.2-1.7Zm5.264.246a2.748,2.748,0,0,1-1.224.232Q34.2.157,34.2-1.8V-5.756H33.031V-7H34.2V-8.62l1.586-.451V-7h1.675v1.244H35.786v3.5a1.379,1.379,0,0,0,.226.889.936.936,0,0,0,.752.267,1.09,1.09,0,0,0,.7-.232Z" transform="translate(15 22)" fill="#2777d3"/>
          </g>
        </g>
        <g id="Link_Button-2" data-name="Link Button" transform="translate(852.752 158.637)">
          <g id="Group_264143-2" data-name="Group 264143" transform="translate(-0.752 -3.637)">
            <rect id="Rectangle_6075-2" data-name="Rectangle 6075" width="66.709" height="27.527" rx="13.764" transform="translate(0.752 3.637)" fill="rgba(255,255,255,0)"/>
            <path id="Path_102279" data-name="Path 102279" d="M.759-.39V-2.064A2.587,2.587,0,0,0,1.3-1.7a4.146,4.146,0,0,0,.66.277,5.2,5.2,0,0,0,.7.174,3.717,3.717,0,0,0,.643.062,2.742,2.742,0,0,0,1.528-.342,1.124,1.124,0,0,0,.5-.991,1.081,1.081,0,0,0-.167-.6,1.757,1.757,0,0,0-.468-.468A4.92,4.92,0,0,0,3.982-4Q3.575-4.19,3.11-4.4q-.5-.267-.93-.54a4,4,0,0,1-.749-.6,2.531,2.531,0,0,1-.5-.749,2.438,2.438,0,0,1-.181-.978,2.256,2.256,0,0,1,.311-1.2,2.627,2.627,0,0,1,.82-.841,3.761,3.761,0,0,1,1.159-.492,5.5,5.5,0,0,1,1.326-.161,5.353,5.353,0,0,1,2.242.349v1.606a3.581,3.581,0,0,0-2.146-.6,3.846,3.846,0,0,0-.721.068,2.144,2.144,0,0,0-.643.226,1.391,1.391,0,0,0-.461.4.989.989,0,0,0-.178.595,1.125,1.125,0,0,0,.137.567,1.464,1.464,0,0,0,.4.438,4.086,4.086,0,0,0,.643.386q.379.188.878.407.513.267.967.561a4.56,4.56,0,0,1,.8.649,2.854,2.854,0,0,1,.547.79,2.319,2.319,0,0,1,.2.988,2.448,2.448,0,0,1-.3,1.258,2.424,2.424,0,0,1-.81.834A3.608,3.608,0,0,1,4.751.021a6.61,6.61,0,0,1-1.4.144,5.967,5.967,0,0,1-.6-.038Q2.386.089,2.01.017A6.759,6.759,0,0,1,1.3-.157,2.251,2.251,0,0,1,.759-.39Zm13.822-2.68H9.81a2.017,2.017,0,0,0,.6,1.5,2.225,2.225,0,0,0,1.569.526,3.459,3.459,0,0,0,2.058-.67V-.437a4.7,4.7,0,0,1-2.529.6A3.131,3.131,0,0,1,9.082-.79,3.814,3.814,0,0,1,8.2-3.473,3.73,3.73,0,0,1,9.17-6.135a3.164,3.164,0,0,1,2.4-1.029,2.759,2.759,0,0,1,2.222.923,3.832,3.832,0,0,1,.786,2.563ZM13.05-4.19a2.044,2.044,0,0,0-.4-1.33A1.348,1.348,0,0,0,11.553-6a1.539,1.539,0,0,0-1.159.5A2.28,2.28,0,0,0,9.81-4.19ZM17.685,0H16.092V-10.363h1.593Zm7.991-3.069H20.9a2.017,2.017,0,0,0,.6,1.5,2.225,2.225,0,0,0,1.569.526,3.459,3.459,0,0,0,2.058-.67V-.437a4.7,4.7,0,0,1-2.529.6A3.131,3.131,0,0,1,20.176-.79,3.814,3.814,0,0,1,19.3-3.473a3.73,3.73,0,0,1,.967-2.663,3.164,3.164,0,0,1,2.4-1.029,2.759,2.759,0,0,1,2.222.923,3.832,3.832,0,0,1,.786,2.563ZM24.145-4.19a2.044,2.044,0,0,0-.4-1.33A1.348,1.348,0,0,0,22.647-6a1.539,1.539,0,0,0-1.159.5A2.28,2.28,0,0,0,20.9-4.19ZM32.2-.321a3.911,3.911,0,0,1-1.989.485A3.369,3.369,0,0,1,27.692-.81a3.451,3.451,0,0,1-.957-2.526,3.8,3.8,0,0,1,1.029-2.779,3.678,3.678,0,0,1,2.751-1.049,4.016,4.016,0,0,1,1.688.335v1.477A2.557,2.557,0,0,0,30.646-5.9,2.166,2.166,0,0,0,29-5.219a2.487,2.487,0,0,0-.643,1.781,2.371,2.371,0,0,0,.6,1.716,2.148,2.148,0,0,0,1.624.629A2.537,2.537,0,0,0,32.2-1.7Zm5.264.246a2.748,2.748,0,0,1-1.224.232Q34.2.157,34.2-1.8V-5.756H33.031V-7H34.2V-8.62l1.586-.451V-7h1.675v1.244H35.786v3.5a1.379,1.379,0,0,0,.226.889.936.936,0,0,0,.752.267,1.09,1.09,0,0,0,.7-.232Z" transform="translate(15 22)" fill="#2777d3"/>
          </g>
        </g>
        <g id="Link_Button-3" data-name="Link Button" transform="translate(852.752 207.637)">
          <g id="Group_264143-3" data-name="Group 264143" transform="translate(-0.752 -3.637)">
            <rect id="Rectangle_6075-3" data-name="Rectangle 6075" width="66.709" height="27.527" rx="13.764" transform="translate(0.752 3.637)" fill="rgba(255,255,255,0)"/>
            <path id="Path_102280" data-name="Path 102280" d="M.759-.39V-2.064A2.587,2.587,0,0,0,1.3-1.7a4.146,4.146,0,0,0,.66.277,5.2,5.2,0,0,0,.7.174,3.717,3.717,0,0,0,.643.062,2.742,2.742,0,0,0,1.528-.342,1.124,1.124,0,0,0,.5-.991,1.081,1.081,0,0,0-.167-.6,1.757,1.757,0,0,0-.468-.468A4.92,4.92,0,0,0,3.982-4Q3.575-4.19,3.11-4.4q-.5-.267-.93-.54a4,4,0,0,1-.749-.6,2.531,2.531,0,0,1-.5-.749,2.438,2.438,0,0,1-.181-.978,2.256,2.256,0,0,1,.311-1.2,2.627,2.627,0,0,1,.82-.841,3.761,3.761,0,0,1,1.159-.492,5.5,5.5,0,0,1,1.326-.161,5.353,5.353,0,0,1,2.242.349v1.606a3.581,3.581,0,0,0-2.146-.6,3.846,3.846,0,0,0-.721.068,2.144,2.144,0,0,0-.643.226,1.391,1.391,0,0,0-.461.4.989.989,0,0,0-.178.595,1.125,1.125,0,0,0,.137.567,1.464,1.464,0,0,0,.4.438,4.086,4.086,0,0,0,.643.386q.379.188.878.407.513.267.967.561a4.56,4.56,0,0,1,.8.649,2.854,2.854,0,0,1,.547.79,2.319,2.319,0,0,1,.2.988,2.448,2.448,0,0,1-.3,1.258,2.424,2.424,0,0,1-.81.834A3.608,3.608,0,0,1,4.751.021a6.61,6.61,0,0,1-1.4.144,5.967,5.967,0,0,1-.6-.038Q2.386.089,2.01.017A6.759,6.759,0,0,1,1.3-.157,2.251,2.251,0,0,1,.759-.39Zm13.822-2.68H9.81a2.017,2.017,0,0,0,.6,1.5,2.225,2.225,0,0,0,1.569.526,3.459,3.459,0,0,0,2.058-.67V-.437a4.7,4.7,0,0,1-2.529.6A3.131,3.131,0,0,1,9.082-.79,3.814,3.814,0,0,1,8.2-3.473,3.73,3.73,0,0,1,9.17-6.135a3.164,3.164,0,0,1,2.4-1.029,2.759,2.759,0,0,1,2.222.923,3.832,3.832,0,0,1,.786,2.563ZM13.05-4.19a2.044,2.044,0,0,0-.4-1.33A1.348,1.348,0,0,0,11.553-6a1.539,1.539,0,0,0-1.159.5A2.28,2.28,0,0,0,9.81-4.19ZM17.685,0H16.092V-10.363h1.593Zm7.991-3.069H20.9a2.017,2.017,0,0,0,.6,1.5,2.225,2.225,0,0,0,1.569.526,3.459,3.459,0,0,0,2.058-.67V-.437a4.7,4.7,0,0,1-2.529.6A3.131,3.131,0,0,1,20.176-.79,3.814,3.814,0,0,1,19.3-3.473a3.73,3.73,0,0,1,.967-2.663,3.164,3.164,0,0,1,2.4-1.029,2.759,2.759,0,0,1,2.222.923,3.832,3.832,0,0,1,.786,2.563ZM24.145-4.19a2.044,2.044,0,0,0-.4-1.33A1.348,1.348,0,0,0,22.647-6a1.539,1.539,0,0,0-1.159.5A2.28,2.28,0,0,0,20.9-4.19ZM32.2-.321a3.911,3.911,0,0,1-1.989.485A3.369,3.369,0,0,1,27.692-.81a3.451,3.451,0,0,1-.957-2.526,3.8,3.8,0,0,1,1.029-2.779,3.678,3.678,0,0,1,2.751-1.049,4.016,4.016,0,0,1,1.688.335v1.477A2.557,2.557,0,0,0,30.646-5.9,2.166,2.166,0,0,0,29-5.219a2.487,2.487,0,0,0-.643,1.781,2.371,2.371,0,0,0,.6,1.716,2.148,2.148,0,0,0,1.624.629A2.537,2.537,0,0,0,32.2-1.7Zm5.264.246a2.748,2.748,0,0,1-1.224.232Q34.2.157,34.2-1.8V-5.756H33.031V-7H34.2V-8.62l1.586-.451V-7h1.675v1.244H35.786v3.5a1.379,1.379,0,0,0,.226.889.936.936,0,0,0,.752.267,1.09,1.09,0,0,0,.7-.232Z" transform="translate(15 22)" fill="#2777d3"/>
          </g>
        </g>
        <g id="Link_Button-4" data-name="Link Button" transform="translate(852.752 256.637)">
          <g id="Group_264143-4" data-name="Group 264143" transform="translate(-0.752 -3.637)">
            <rect id="Rectangle_6075-4" data-name="Rectangle 6075" width="66.709" height="27.527" rx="13.764" transform="translate(0.752 3.637)" fill="rgba(255,255,255,0)"/>
            <path id="Path_102281" data-name="Path 102281" d="M.759-.39V-2.064A2.587,2.587,0,0,0,1.3-1.7a4.146,4.146,0,0,0,.66.277,5.2,5.2,0,0,0,.7.174,3.717,3.717,0,0,0,.643.062,2.742,2.742,0,0,0,1.528-.342,1.124,1.124,0,0,0,.5-.991,1.081,1.081,0,0,0-.167-.6,1.757,1.757,0,0,0-.468-.468A4.92,4.92,0,0,0,3.982-4Q3.575-4.19,3.11-4.4q-.5-.267-.93-.54a4,4,0,0,1-.749-.6,2.531,2.531,0,0,1-.5-.749,2.438,2.438,0,0,1-.181-.978,2.256,2.256,0,0,1,.311-1.2,2.627,2.627,0,0,1,.82-.841,3.761,3.761,0,0,1,1.159-.492,5.5,5.5,0,0,1,1.326-.161,5.353,5.353,0,0,1,2.242.349v1.606a3.581,3.581,0,0,0-2.146-.6,3.846,3.846,0,0,0-.721.068,2.144,2.144,0,0,0-.643.226,1.391,1.391,0,0,0-.461.4.989.989,0,0,0-.178.595,1.125,1.125,0,0,0,.137.567,1.464,1.464,0,0,0,.4.438,4.086,4.086,0,0,0,.643.386q.379.188.878.407.513.267.967.561a4.56,4.56,0,0,1,.8.649,2.854,2.854,0,0,1,.547.79,2.319,2.319,0,0,1,.2.988,2.448,2.448,0,0,1-.3,1.258,2.424,2.424,0,0,1-.81.834A3.608,3.608,0,0,1,4.751.021a6.61,6.61,0,0,1-1.4.144,5.967,5.967,0,0,1-.6-.038Q2.386.089,2.01.017A6.759,6.759,0,0,1,1.3-.157,2.251,2.251,0,0,1,.759-.39Zm13.822-2.68H9.81a2.017,2.017,0,0,0,.6,1.5,2.225,2.225,0,0,0,1.569.526,3.459,3.459,0,0,0,2.058-.67V-.437a4.7,4.7,0,0,1-2.529.6A3.131,3.131,0,0,1,9.082-.79,3.814,3.814,0,0,1,8.2-3.473,3.73,3.73,0,0,1,9.17-6.135a3.164,3.164,0,0,1,2.4-1.029,2.759,2.759,0,0,1,2.222.923,3.832,3.832,0,0,1,.786,2.563ZM13.05-4.19a2.044,2.044,0,0,0-.4-1.33A1.348,1.348,0,0,0,11.553-6a1.539,1.539,0,0,0-1.159.5A2.28,2.28,0,0,0,9.81-4.19ZM17.685,0H16.092V-10.363h1.593Zm7.991-3.069H20.9a2.017,2.017,0,0,0,.6,1.5,2.225,2.225,0,0,0,1.569.526,3.459,3.459,0,0,0,2.058-.67V-.437a4.7,4.7,0,0,1-2.529.6A3.131,3.131,0,0,1,20.176-.79,3.814,3.814,0,0,1,19.3-3.473a3.73,3.73,0,0,1,.967-2.663,3.164,3.164,0,0,1,2.4-1.029,2.759,2.759,0,0,1,2.222.923,3.832,3.832,0,0,1,.786,2.563ZM24.145-4.19a2.044,2.044,0,0,0-.4-1.33A1.348,1.348,0,0,0,22.647-6a1.539,1.539,0,0,0-1.159.5A2.28,2.28,0,0,0,20.9-4.19ZM32.2-.321a3.911,3.911,0,0,1-1.989.485A3.369,3.369,0,0,1,27.692-.81a3.451,3.451,0,0,1-.957-2.526,3.8,3.8,0,0,1,1.029-2.779,3.678,3.678,0,0,1,2.751-1.049,4.016,4.016,0,0,1,1.688.335v1.477A2.557,2.557,0,0,0,30.646-5.9,2.166,2.166,0,0,0,29-5.219a2.487,2.487,0,0,0-.643,1.781,2.371,2.371,0,0,0,.6,1.716,2.148,2.148,0,0,0,1.624.629A2.537,2.537,0,0,0,32.2-1.7Zm5.264.246a2.748,2.748,0,0,1-1.224.232Q34.2.157,34.2-1.8V-5.756H33.031V-7H34.2V-8.62l1.586-.451V-7h1.675v1.244H35.786v3.5a1.379,1.379,0,0,0,.226.889.936.936,0,0,0,.752.267,1.09,1.09,0,0,0,.7-.232Z" transform="translate(15 22)" fill="#2777d3"/>
          </g>
        </g>
        <g id="Link_Button-5" data-name="Link Button" transform="translate(852.752 305.637)">
          <g id="Group_264143-5" data-name="Group 264143" transform="translate(-0.752 -3.637)">
            <rect id="Rectangle_6075-5" data-name="Rectangle 6075" width="66.709" height="27.527" rx="13.764" transform="translate(0.752 3.637)" fill="rgba(255,255,255,0)"/>
            <path id="Path_102282" data-name="Path 102282" d="M.759-.39V-2.064A2.587,2.587,0,0,0,1.3-1.7a4.146,4.146,0,0,0,.66.277,5.2,5.2,0,0,0,.7.174,3.717,3.717,0,0,0,.643.062,2.742,2.742,0,0,0,1.528-.342,1.124,1.124,0,0,0,.5-.991,1.081,1.081,0,0,0-.167-.6,1.757,1.757,0,0,0-.468-.468A4.92,4.92,0,0,0,3.982-4Q3.575-4.19,3.11-4.4q-.5-.267-.93-.54a4,4,0,0,1-.749-.6,2.531,2.531,0,0,1-.5-.749,2.438,2.438,0,0,1-.181-.978,2.256,2.256,0,0,1,.311-1.2,2.627,2.627,0,0,1,.82-.841,3.761,3.761,0,0,1,1.159-.492,5.5,5.5,0,0,1,1.326-.161,5.353,5.353,0,0,1,2.242.349v1.606a3.581,3.581,0,0,0-2.146-.6,3.846,3.846,0,0,0-.721.068,2.144,2.144,0,0,0-.643.226,1.391,1.391,0,0,0-.461.4.989.989,0,0,0-.178.595,1.125,1.125,0,0,0,.137.567,1.464,1.464,0,0,0,.4.438,4.086,4.086,0,0,0,.643.386q.379.188.878.407.513.267.967.561a4.56,4.56,0,0,1,.8.649,2.854,2.854,0,0,1,.547.79,2.319,2.319,0,0,1,.2.988,2.448,2.448,0,0,1-.3,1.258,2.424,2.424,0,0,1-.81.834A3.608,3.608,0,0,1,4.751.021a6.61,6.61,0,0,1-1.4.144,5.967,5.967,0,0,1-.6-.038Q2.386.089,2.01.017A6.759,6.759,0,0,1,1.3-.157,2.251,2.251,0,0,1,.759-.39Zm13.822-2.68H9.81a2.017,2.017,0,0,0,.6,1.5,2.225,2.225,0,0,0,1.569.526,3.459,3.459,0,0,0,2.058-.67V-.437a4.7,4.7,0,0,1-2.529.6A3.131,3.131,0,0,1,9.082-.79,3.814,3.814,0,0,1,8.2-3.473,3.73,3.73,0,0,1,9.17-6.135a3.164,3.164,0,0,1,2.4-1.029,2.759,2.759,0,0,1,2.222.923,3.832,3.832,0,0,1,.786,2.563ZM13.05-4.19a2.044,2.044,0,0,0-.4-1.33A1.348,1.348,0,0,0,11.553-6a1.539,1.539,0,0,0-1.159.5A2.28,2.28,0,0,0,9.81-4.19ZM17.685,0H16.092V-10.363h1.593Zm7.991-3.069H20.9a2.017,2.017,0,0,0,.6,1.5,2.225,2.225,0,0,0,1.569.526,3.459,3.459,0,0,0,2.058-.67V-.437a4.7,4.7,0,0,1-2.529.6A3.131,3.131,0,0,1,20.176-.79,3.814,3.814,0,0,1,19.3-3.473a3.73,3.73,0,0,1,.967-2.663,3.164,3.164,0,0,1,2.4-1.029,2.759,2.759,0,0,1,2.222.923,3.832,3.832,0,0,1,.786,2.563ZM24.145-4.19a2.044,2.044,0,0,0-.4-1.33A1.348,1.348,0,0,0,22.647-6a1.539,1.539,0,0,0-1.159.5A2.28,2.28,0,0,0,20.9-4.19ZM32.2-.321a3.911,3.911,0,0,1-1.989.485A3.369,3.369,0,0,1,27.692-.81a3.451,3.451,0,0,1-.957-2.526,3.8,3.8,0,0,1,1.029-2.779,3.678,3.678,0,0,1,2.751-1.049,4.016,4.016,0,0,1,1.688.335v1.477A2.557,2.557,0,0,0,30.646-5.9,2.166,2.166,0,0,0,29-5.219a2.487,2.487,0,0,0-.643,1.781,2.371,2.371,0,0,0,.6,1.716,2.148,2.148,0,0,0,1.624.629A2.537,2.537,0,0,0,32.2-1.7Zm5.264.246a2.748,2.748,0,0,1-1.224.232Q34.2.157,34.2-1.8V-5.756H33.031V-7H34.2V-8.62l1.586-.451V-7h1.675v1.244H35.786v3.5a1.379,1.379,0,0,0,.226.889.936.936,0,0,0,.752.267,1.09,1.09,0,0,0,.7-.232Z" transform="translate(15 22)" fill="#2777d3"/>
          </g>
        </g>
        <g id="Link_Button-6" data-name="Link Button" transform="translate(852.752 354.637)">
          <g id="Group_264143-6" data-name="Group 264143" transform="translate(-0.752 -3.637)">
            <rect id="Rectangle_6075-6" data-name="Rectangle 6075" width="66.709" height="27.527" rx="13.764" transform="translate(0.752 3.637)" fill="rgba(255,255,255,0)"/>
            <path id="Path_102283" data-name="Path 102283" d="M.759-.39V-2.064A2.587,2.587,0,0,0,1.3-1.7a4.146,4.146,0,0,0,.66.277,5.2,5.2,0,0,0,.7.174,3.717,3.717,0,0,0,.643.062,2.742,2.742,0,0,0,1.528-.342,1.124,1.124,0,0,0,.5-.991,1.081,1.081,0,0,0-.167-.6,1.757,1.757,0,0,0-.468-.468A4.92,4.92,0,0,0,3.982-4Q3.575-4.19,3.11-4.4q-.5-.267-.93-.54a4,4,0,0,1-.749-.6,2.531,2.531,0,0,1-.5-.749,2.438,2.438,0,0,1-.181-.978,2.256,2.256,0,0,1,.311-1.2,2.627,2.627,0,0,1,.82-.841,3.761,3.761,0,0,1,1.159-.492,5.5,5.5,0,0,1,1.326-.161,5.353,5.353,0,0,1,2.242.349v1.606a3.581,3.581,0,0,0-2.146-.6,3.846,3.846,0,0,0-.721.068,2.144,2.144,0,0,0-.643.226,1.391,1.391,0,0,0-.461.4.989.989,0,0,0-.178.595,1.125,1.125,0,0,0,.137.567,1.464,1.464,0,0,0,.4.438,4.086,4.086,0,0,0,.643.386q.379.188.878.407.513.267.967.561a4.56,4.56,0,0,1,.8.649,2.854,2.854,0,0,1,.547.79,2.319,2.319,0,0,1,.2.988,2.448,2.448,0,0,1-.3,1.258,2.424,2.424,0,0,1-.81.834A3.608,3.608,0,0,1,4.751.021a6.61,6.61,0,0,1-1.4.144,5.967,5.967,0,0,1-.6-.038Q2.386.089,2.01.017A6.759,6.759,0,0,1,1.3-.157,2.251,2.251,0,0,1,.759-.39Zm13.822-2.68H9.81a2.017,2.017,0,0,0,.6,1.5,2.225,2.225,0,0,0,1.569.526,3.459,3.459,0,0,0,2.058-.67V-.437a4.7,4.7,0,0,1-2.529.6A3.131,3.131,0,0,1,9.082-.79,3.814,3.814,0,0,1,8.2-3.473,3.73,3.73,0,0,1,9.17-6.135a3.164,3.164,0,0,1,2.4-1.029,2.759,2.759,0,0,1,2.222.923,3.832,3.832,0,0,1,.786,2.563ZM13.05-4.19a2.044,2.044,0,0,0-.4-1.33A1.348,1.348,0,0,0,11.553-6a1.539,1.539,0,0,0-1.159.5A2.28,2.28,0,0,0,9.81-4.19ZM17.685,0H16.092V-10.363h1.593Zm7.991-3.069H20.9a2.017,2.017,0,0,0,.6,1.5,2.225,2.225,0,0,0,1.569.526,3.459,3.459,0,0,0,2.058-.67V-.437a4.7,4.7,0,0,1-2.529.6A3.131,3.131,0,0,1,20.176-.79,3.814,3.814,0,0,1,19.3-3.473a3.73,3.73,0,0,1,.967-2.663,3.164,3.164,0,0,1,2.4-1.029,2.759,2.759,0,0,1,2.222.923,3.832,3.832,0,0,1,.786,2.563ZM24.145-4.19a2.044,2.044,0,0,0-.4-1.33A1.348,1.348,0,0,0,22.647-6a1.539,1.539,0,0,0-1.159.5A2.28,2.28,0,0,0,20.9-4.19ZM32.2-.321a3.911,3.911,0,0,1-1.989.485A3.369,3.369,0,0,1,27.692-.81a3.451,3.451,0,0,1-.957-2.526,3.8,3.8,0,0,1,1.029-2.779,3.678,3.678,0,0,1,2.751-1.049,4.016,4.016,0,0,1,1.688.335v1.477A2.557,2.557,0,0,0,30.646-5.9,2.166,2.166,0,0,0,29-5.219a2.487,2.487,0,0,0-.643,1.781,2.371,2.371,0,0,0,.6,1.716,2.148,2.148,0,0,0,1.624.629A2.537,2.537,0,0,0,32.2-1.7Zm5.264.246a2.748,2.748,0,0,1-1.224.232Q34.2.157,34.2-1.8V-5.756H33.031V-7H34.2V-8.62l1.586-.451V-7h1.675v1.244H35.786v3.5a1.379,1.379,0,0,0,.226.889.936.936,0,0,0,.752.267,1.09,1.09,0,0,0,.7-.232Z" transform="translate(15 22)" fill="#2777d3"/>
          </g>
        </g>
        <rect id="Rectangle_10761" data-name="Rectangle 10761" width="68" height="36" transform="translate(852 105)" fill="#75dbd5" opacity="0.27"/>
      </g>
      <g id="Content_-_phone" data-name="Content - phone" transform="translate(708 231)" clip-path="url(#clip-path)">
        <g transform="translate(-101 -177)">
          <path id="Path_102277" data-name="Path 102277" d="M8.012,11.377H5.25v2.755H4.341V11.377H1.586v-.916H4.341V7.706H5.25v2.755H8.012ZM14.526,15H13.405V6.53a2.6,2.6,0,0,1-.379.3,6.184,6.184,0,0,1-.561.332q-.311.164-.656.308a4.769,4.769,0,0,1-.673.226V6.558a6.517,6.517,0,0,0,.783-.277q.414-.174.813-.39t.755-.451a6,6,0,0,0,.615-.461h.424Zm13.057-2.994a3.3,3.3,0,0,1-.246,1.3,2.84,2.84,0,0,1-.7,1,3.137,3.137,0,0,1-1.1.643,4.291,4.291,0,0,1-1.429.226,3.947,3.947,0,0,1-2.03-.41V13.571a3.733,3.733,0,0,0,2.044.643,2.766,2.766,0,0,0,.96-.157,2.134,2.134,0,0,0,.728-.437,1.873,1.873,0,0,0,.461-.677,2.291,2.291,0,0,0,.161-.868,1.86,1.86,0,0,0-.643-1.5,2.818,2.818,0,0,0-1.866-.543q-.2,0-.417.007t-.437.017q-.219.01-.427.024t-.379.034L22.6,5.2h4.532V6.209H23.57l-.2,2.878q.219-.014.465-.024t.438-.01a4.4,4.4,0,0,1,1.395.205,2.955,2.955,0,0,1,1.042.584,2.451,2.451,0,0,1,.649.93A3.27,3.27,0,0,1,27.583,12.006Zm1.538.26a2.608,2.608,0,0,1,.123-.783,2.835,2.835,0,0,1,.352-.735,2.913,2.913,0,0,1,.567-.622,2.7,2.7,0,0,1,.769-.444,2.906,2.906,0,0,1-1.012-.913,2.158,2.158,0,0,1-.376-1.234,2.379,2.379,0,0,1,.786-1.791,2.67,2.67,0,0,1,.875-.523,3.268,3.268,0,0,1,2.194,0,2.717,2.717,0,0,1,.875.526,2.363,2.363,0,0,1,.574.793,2.4,2.4,0,0,1,.205.991,2.158,2.158,0,0,1-.376,1.234,2.943,2.943,0,0,1-1,.913,2.681,2.681,0,0,1,.759.444,2.956,2.956,0,0,1,.564.622,2.835,2.835,0,0,1,.352.735,2.608,2.608,0,0,1,.123.783,2.911,2.911,0,0,1-.232,1.176,2.627,2.627,0,0,1-.653.913,3.014,3.014,0,0,1-1,.591,3.756,3.756,0,0,1-1.289.212,3.706,3.706,0,0,1-1.278-.212,3.06,3.06,0,0,1-1-.591,2.645,2.645,0,0,1-.66-.913A2.875,2.875,0,0,1,29.121,12.266Zm1.217-.1a2.316,2.316,0,0,0,.14.827,1.783,1.783,0,0,0,.4.629,1.731,1.731,0,0,0,.622.4,2.247,2.247,0,0,0,.81.14,2.134,2.134,0,0,0,.793-.144,1.848,1.848,0,0,0,.625-.4,1.813,1.813,0,0,0,.41-.629,2.2,2.2,0,0,0,.147-.82,2.1,2.1,0,0,0-.14-.769,1.925,1.925,0,0,0-.4-.632,1.879,1.879,0,0,0-.622-.431,2.024,2.024,0,0,0-.813-.157,2.046,2.046,0,0,0-.783.147,1.873,1.873,0,0,0-.622.41,1.9,1.9,0,0,0-.414.629A2.092,2.092,0,0,0,30.338,12.17Zm.349-4.546a1.627,1.627,0,0,0,.991,1.514,1.615,1.615,0,0,0,1.261,0,1.634,1.634,0,0,0,.516-.352,1.706,1.706,0,0,0,.349-.52,1.579,1.579,0,0,0,.13-.639,1.676,1.676,0,0,0-.126-.656,1.611,1.611,0,0,0-1.5-.991,1.631,1.631,0,0,0-.66.13,1.594,1.594,0,0,0-.513.352,1.539,1.539,0,0,0-.332.523A1.767,1.767,0,0,0,30.687,7.624Zm10.644.144a2.027,2.027,0,0,0-.14-.786,1.522,1.522,0,0,0-.954-.889,2.235,2.235,0,0,0-.711-.109,2.352,2.352,0,0,0-.643.089,3.124,3.124,0,0,0-.612.246,3.764,3.764,0,0,0-.574.376,4.148,4.148,0,0,0-.516.485v-1.2a3.352,3.352,0,0,1,1.056-.7,3.719,3.719,0,0,1,1.425-.243,3.441,3.441,0,0,1,1.114.174,2.555,2.555,0,0,1,.889.509,2.354,2.354,0,0,1,.591.827,2.79,2.79,0,0,1,.215,1.128,3.868,3.868,0,0,1-.133,1.053,3.256,3.256,0,0,1-.4.889,4.288,4.288,0,0,1-.68.8,9.635,9.635,0,0,1-.964.779q-.69.492-1.138.841a5.031,5.031,0,0,0-.711.653,1.894,1.894,0,0,0-.369.608,2.127,2.127,0,0,0-.106.7h4.881v1H36.8v-.485a4.045,4.045,0,0,1,.137-1.107,2.876,2.876,0,0,1,.451-.909,5.046,5.046,0,0,1,.824-.861q.509-.431,1.248-.971a7.887,7.887,0,0,0,.892-.731,3.8,3.8,0,0,0,.578-.7,2.5,2.5,0,0,0,.311-.708A3.051,3.051,0,0,0,41.33,7.768Zm6.986,3.773H44.584v-.882h3.732Zm7.506.465a3.3,3.3,0,0,1-.246,1.3,2.84,2.84,0,0,1-.7,1,3.137,3.137,0,0,1-1.1.643,4.291,4.291,0,0,1-1.429.226,3.947,3.947,0,0,1-2.03-.41V13.571a3.733,3.733,0,0,0,2.044.643,2.766,2.766,0,0,0,.96-.157,2.134,2.134,0,0,0,.728-.437,1.873,1.873,0,0,0,.461-.677,2.291,2.291,0,0,0,.161-.868,1.86,1.86,0,0,0-.643-1.5,2.818,2.818,0,0,0-1.866-.543q-.2,0-.417.007t-.437.017q-.219.01-.427.024t-.379.034L50.839,5.2h4.532V6.209H51.81l-.2,2.878q.219-.014.465-.024t.438-.01a4.4,4.4,0,0,1,1.395.205,2.955,2.955,0,0,1,1.042.584,2.451,2.451,0,0,1,.649.93A3.27,3.27,0,0,1,55.822,12.006Zm1.538.26a2.608,2.608,0,0,1,.123-.783,2.835,2.835,0,0,1,.352-.735,2.913,2.913,0,0,1,.567-.622,2.7,2.7,0,0,1,.769-.444,2.906,2.906,0,0,1-1.012-.913,2.158,2.158,0,0,1-.376-1.234,2.379,2.379,0,0,1,.786-1.791,2.67,2.67,0,0,1,.875-.523,3.268,3.268,0,0,1,2.194,0,2.717,2.717,0,0,1,.875.526,2.363,2.363,0,0,1,.574.793,2.4,2.4,0,0,1,.205.991,2.158,2.158,0,0,1-.376,1.234,2.943,2.943,0,0,1-1,.913,2.681,2.681,0,0,1,.759.444,2.956,2.956,0,0,1,.564.622,2.835,2.835,0,0,1,.352.735,2.608,2.608,0,0,1,.123.783,2.911,2.911,0,0,1-.232,1.176,2.627,2.627,0,0,1-.653.913,3.014,3.014,0,0,1-1,.591,3.756,3.756,0,0,1-1.289.212,3.706,3.706,0,0,1-1.278-.212,3.06,3.06,0,0,1-1-.591,2.645,2.645,0,0,1-.66-.913A2.875,2.875,0,0,1,57.36,12.266Zm1.217-.1a2.316,2.316,0,0,0,.14.827,1.783,1.783,0,0,0,.4.629,1.731,1.731,0,0,0,.622.4,2.247,2.247,0,0,0,.81.14,2.134,2.134,0,0,0,.793-.144,1.848,1.848,0,0,0,.625-.4,1.813,1.813,0,0,0,.41-.629,2.2,2.2,0,0,0,.147-.82,2.1,2.1,0,0,0-.14-.769,1.925,1.925,0,0,0-.4-.632,1.879,1.879,0,0,0-.622-.431,2.024,2.024,0,0,0-.813-.157,2.046,2.046,0,0,0-.783.147,1.873,1.873,0,0,0-.622.41,1.9,1.9,0,0,0-.414.629A2.092,2.092,0,0,0,58.577,12.17Zm.349-4.546a1.627,1.627,0,0,0,.991,1.514,1.615,1.615,0,0,0,1.261,0,1.634,1.634,0,0,0,.516-.352,1.706,1.706,0,0,0,.349-.52,1.579,1.579,0,0,0,.13-.639,1.676,1.676,0,0,0-.126-.656,1.611,1.611,0,0,0-1.5-.991,1.631,1.631,0,0,0-.66.13,1.594,1.594,0,0,0-.513.352,1.539,1.539,0,0,0-.332.523A1.767,1.767,0,0,0,58.926,7.624Zm11.881,4.6a2.858,2.858,0,0,1-.25,1.207,2.664,2.664,0,0,1-.7.93,3.25,3.25,0,0,1-1.09.6,4.41,4.41,0,0,1-1.4.212,4.072,4.072,0,0,1-2.229-.533v-1.2a3.571,3.571,0,0,0,2.27.779,3.084,3.084,0,0,0,.926-.13,2.077,2.077,0,0,0,.711-.376,1.67,1.67,0,0,0,.458-.595,1.857,1.857,0,0,0,.161-.786q0-1.921-2.734-1.921H66.11v-.95h.772q2.42,0,2.42-1.8,0-1.668-1.846-1.668a3.143,3.143,0,0,0-1.948.7V5.594a4.259,4.259,0,0,1,2.229-.561,3.424,3.424,0,0,1,1.114.171,2.553,2.553,0,0,1,.854.479,2.121,2.121,0,0,1,.55.738,2.279,2.279,0,0,1,.195.95A2.393,2.393,0,0,1,68.5,9.859v.027a3.093,3.093,0,0,1,.923.243,2.463,2.463,0,0,1,.731.489,2.179,2.179,0,0,1,.482.708A2.259,2.259,0,0,1,70.807,12.225Zm5.749-.684H72.823v-.882h3.732Zm1.5.725a2.608,2.608,0,0,1,.123-.783,2.835,2.835,0,0,1,.352-.735,2.913,2.913,0,0,1,.567-.622,2.7,2.7,0,0,1,.769-.444,2.906,2.906,0,0,1-1.012-.913,2.158,2.158,0,0,1-.376-1.234,2.38,2.38,0,0,1,.208-1,2.4,2.4,0,0,1,.578-.793,2.67,2.67,0,0,1,.875-.523,3.268,3.268,0,0,1,2.194,0,2.717,2.717,0,0,1,.875.526,2.363,2.363,0,0,1,.574.793,2.4,2.4,0,0,1,.205.991,2.158,2.158,0,0,1-.376,1.234,2.943,2.943,0,0,1-1,.913,2.681,2.681,0,0,1,.759.444,2.956,2.956,0,0,1,.564.622,2.835,2.835,0,0,1,.352.735,2.608,2.608,0,0,1,.123.783,2.911,2.911,0,0,1-.232,1.176,2.627,2.627,0,0,1-.653.913,3.014,3.014,0,0,1-1,.591,3.756,3.756,0,0,1-1.289.212,3.706,3.706,0,0,1-1.278-.212,3.06,3.06,0,0,1-1-.591,2.645,2.645,0,0,1-.66-.913A2.875,2.875,0,0,1,78.053,12.266Zm1.217-.1a2.316,2.316,0,0,0,.14.827,1.783,1.783,0,0,0,.4.629,1.731,1.731,0,0,0,.622.4,2.247,2.247,0,0,0,.81.14,2.134,2.134,0,0,0,.793-.144,1.848,1.848,0,0,0,.625-.4,1.813,1.813,0,0,0,.41-.629,2.2,2.2,0,0,0,.147-.82,2.1,2.1,0,0,0-.14-.769,1.925,1.925,0,0,0-.4-.632,1.879,1.879,0,0,0-.622-.431,2.024,2.024,0,0,0-.813-.157,2.046,2.046,0,0,0-.783.147,1.873,1.873,0,0,0-.622.41,1.9,1.9,0,0,0-.414.629A2.092,2.092,0,0,0,79.27,12.17Zm.349-4.546a1.627,1.627,0,0,0,.991,1.514,1.615,1.615,0,0,0,1.261,0,1.634,1.634,0,0,0,.516-.352,1.706,1.706,0,0,0,.349-.52,1.579,1.579,0,0,0,.13-.639,1.676,1.676,0,0,0-.126-.656,1.611,1.611,0,0,0-1.5-.991,1.631,1.631,0,0,0-.66.13,1.594,1.594,0,0,0-.513.352,1.539,1.539,0,0,0-.332.523A1.767,1.767,0,0,0,79.618,7.624ZM85.6,12.266a2.608,2.608,0,0,1,.123-.783,2.835,2.835,0,0,1,.352-.735,2.913,2.913,0,0,1,.567-.622,2.7,2.7,0,0,1,.769-.444A2.906,2.906,0,0,1,86.4,8.769a2.158,2.158,0,0,1-.376-1.234,2.38,2.38,0,0,1,.208-1,2.4,2.4,0,0,1,.578-.793,2.67,2.67,0,0,1,.875-.523,3.268,3.268,0,0,1,2.194,0,2.717,2.717,0,0,1,.875.526,2.363,2.363,0,0,1,.574.793,2.4,2.4,0,0,1,.205.991,2.158,2.158,0,0,1-.376,1.234,2.943,2.943,0,0,1-1,.913,2.681,2.681,0,0,1,.759.444,2.956,2.956,0,0,1,.564.622,2.835,2.835,0,0,1,.352.735,2.608,2.608,0,0,1,.123.783,2.911,2.911,0,0,1-.232,1.176,2.627,2.627,0,0,1-.653.913,3.014,3.014,0,0,1-1,.591,3.756,3.756,0,0,1-1.289.212,3.706,3.706,0,0,1-1.278-.212,3.06,3.06,0,0,1-1-.591,2.645,2.645,0,0,1-.66-.913A2.875,2.875,0,0,1,85.6,12.266Zm1.217-.1a2.316,2.316,0,0,0,.14.827,1.783,1.783,0,0,0,.4.629,1.731,1.731,0,0,0,.622.4,2.247,2.247,0,0,0,.81.14,2.134,2.134,0,0,0,.793-.144,1.848,1.848,0,0,0,.625-.4,1.813,1.813,0,0,0,.41-.629,2.2,2.2,0,0,0,.147-.82,2.1,2.1,0,0,0-.14-.769,1.925,1.925,0,0,0-.4-.632,1.879,1.879,0,0,0-.622-.431,2.024,2.024,0,0,0-.813-.157,2.046,2.046,0,0,0-.783.147,1.873,1.873,0,0,0-.622.41,1.9,1.9,0,0,0-.414.629A2.092,2.092,0,0,0,86.816,12.17Zm.349-4.546a1.627,1.627,0,0,0,.991,1.514,1.615,1.615,0,0,0,1.261,0,1.634,1.634,0,0,0,.516-.352,1.706,1.706,0,0,0,.349-.52,1.579,1.579,0,0,0,.13-.639,1.676,1.676,0,0,0-.126-.656,1.611,1.611,0,0,0-1.5-.991,1.631,1.631,0,0,0-.66.13,1.594,1.594,0,0,0-.513.352,1.539,1.539,0,0,0-.332.523A1.767,1.767,0,0,0,87.165,7.624ZM99.5,10.058a9.63,9.63,0,0,1-.222,2.181,5.081,5.081,0,0,1-.643,1.6,2.892,2.892,0,0,1-1.032.991,2.826,2.826,0,0,1-1.391.338,2.639,2.639,0,0,1-1.316-.325,2.758,2.758,0,0,1-.974-.947,4.8,4.8,0,0,1-.6-1.528,9.447,9.447,0,0,1-.205-2.075,10.694,10.694,0,0,1,.215-2.27,5.191,5.191,0,0,1,.632-1.651,2.814,2.814,0,0,1,1.036-1,2.908,2.908,0,0,1,1.418-.338Q99.5,5.033,99.5,10.058Zm-1.148.109q0-4.184-1.989-4.184-2.1,0-2.1,4.259,0,3.972,2.058,3.972Q98.355,14.214,98.355,10.167Zm8.627-4.32q-.226.39-.543.971t-.673,1.306q-.355.725-.725,1.559t-.69,1.723q-.321.889-.564,1.8A13.4,13.4,0,0,0,103.435,15h-1.2a13.631,13.631,0,0,1,.379-1.788q.256-.913.581-1.791t.687-1.692q.362-.813.7-1.5t.625-1.207q.284-.523.455-.817h-4.915V5.2h6.234Z" transform="translate(101 177)" fill="#3d3d3d"/>
        </g>
        <g transform="translate(-101 -128)">
          <path id="Path_102277-2" data-name="Path 102277" d="M8.012,11.377H5.25v2.755H4.341V11.377H1.586v-.916H4.341V7.706H5.25v2.755H8.012ZM14.526,15H13.405V6.53a2.6,2.6,0,0,1-.379.3,6.184,6.184,0,0,1-.561.332q-.311.164-.656.308a4.769,4.769,0,0,1-.673.226V6.558a6.517,6.517,0,0,0,.783-.277q.414-.174.813-.39t.755-.451a6,6,0,0,0,.615-.461h.424Zm13.057-2.994a3.3,3.3,0,0,1-.246,1.3,2.84,2.84,0,0,1-.7,1,3.137,3.137,0,0,1-1.1.643,4.291,4.291,0,0,1-1.429.226,3.947,3.947,0,0,1-2.03-.41V13.571a3.733,3.733,0,0,0,2.044.643,2.766,2.766,0,0,0,.96-.157,2.134,2.134,0,0,0,.728-.437,1.873,1.873,0,0,0,.461-.677,2.291,2.291,0,0,0,.161-.868,1.86,1.86,0,0,0-.643-1.5,2.818,2.818,0,0,0-1.866-.543q-.2,0-.417.007t-.437.017q-.219.01-.427.024t-.379.034L22.6,5.2h4.532V6.209H23.57l-.2,2.878q.219-.014.465-.024t.438-.01a4.4,4.4,0,0,1,1.395.205,2.955,2.955,0,0,1,1.042.584,2.451,2.451,0,0,1,.649.93A3.27,3.27,0,0,1,27.583,12.006Zm1.538.26a2.608,2.608,0,0,1,.123-.783,2.835,2.835,0,0,1,.352-.735,2.913,2.913,0,0,1,.567-.622,2.7,2.7,0,0,1,.769-.444,2.906,2.906,0,0,1-1.012-.913,2.158,2.158,0,0,1-.376-1.234,2.379,2.379,0,0,1,.786-1.791,2.67,2.67,0,0,1,.875-.523,3.268,3.268,0,0,1,2.194,0,2.717,2.717,0,0,1,.875.526,2.363,2.363,0,0,1,.574.793,2.4,2.4,0,0,1,.205.991,2.158,2.158,0,0,1-.376,1.234,2.943,2.943,0,0,1-1,.913,2.681,2.681,0,0,1,.759.444,2.956,2.956,0,0,1,.564.622,2.835,2.835,0,0,1,.352.735,2.608,2.608,0,0,1,.123.783,2.911,2.911,0,0,1-.232,1.176,2.627,2.627,0,0,1-.653.913,3.014,3.014,0,0,1-1,.591,3.756,3.756,0,0,1-1.289.212,3.706,3.706,0,0,1-1.278-.212,3.06,3.06,0,0,1-1-.591,2.645,2.645,0,0,1-.66-.913A2.875,2.875,0,0,1,29.121,12.266Zm1.217-.1a2.316,2.316,0,0,0,.14.827,1.783,1.783,0,0,0,.4.629,1.731,1.731,0,0,0,.622.4,2.247,2.247,0,0,0,.81.14,2.134,2.134,0,0,0,.793-.144,1.848,1.848,0,0,0,.625-.4,1.813,1.813,0,0,0,.41-.629,2.2,2.2,0,0,0,.147-.82,2.1,2.1,0,0,0-.14-.769,1.925,1.925,0,0,0-.4-.632,1.879,1.879,0,0,0-.622-.431,2.024,2.024,0,0,0-.813-.157,2.046,2.046,0,0,0-.783.147,1.873,1.873,0,0,0-.622.41,1.9,1.9,0,0,0-.414.629A2.092,2.092,0,0,0,30.338,12.17Zm.349-4.546a1.627,1.627,0,0,0,.991,1.514,1.615,1.615,0,0,0,1.261,0,1.634,1.634,0,0,0,.516-.352,1.706,1.706,0,0,0,.349-.52,1.579,1.579,0,0,0,.13-.639,1.676,1.676,0,0,0-.126-.656,1.611,1.611,0,0,0-1.5-.991,1.631,1.631,0,0,0-.66.13,1.594,1.594,0,0,0-.513.352,1.539,1.539,0,0,0-.332.523A1.767,1.767,0,0,0,30.687,7.624Zm10.644.144a2.027,2.027,0,0,0-.14-.786,1.522,1.522,0,0,0-.954-.889,2.235,2.235,0,0,0-.711-.109,2.352,2.352,0,0,0-.643.089,3.124,3.124,0,0,0-.612.246,3.764,3.764,0,0,0-.574.376,4.148,4.148,0,0,0-.516.485v-1.2a3.352,3.352,0,0,1,1.056-.7,3.719,3.719,0,0,1,1.425-.243,3.441,3.441,0,0,1,1.114.174,2.555,2.555,0,0,1,.889.509,2.354,2.354,0,0,1,.591.827,2.79,2.79,0,0,1,.215,1.128,3.868,3.868,0,0,1-.133,1.053,3.256,3.256,0,0,1-.4.889,4.288,4.288,0,0,1-.68.8,9.635,9.635,0,0,1-.964.779q-.69.492-1.138.841a5.031,5.031,0,0,0-.711.653,1.894,1.894,0,0,0-.369.608,2.127,2.127,0,0,0-.106.7h4.881v1H36.8v-.485a4.045,4.045,0,0,1,.137-1.107,2.876,2.876,0,0,1,.451-.909,5.046,5.046,0,0,1,.824-.861q.509-.431,1.248-.971a7.887,7.887,0,0,0,.892-.731,3.8,3.8,0,0,0,.578-.7,2.5,2.5,0,0,0,.311-.708A3.051,3.051,0,0,0,41.33,7.768Zm6.986,3.773H44.584v-.882h3.732Zm7.506.465a3.3,3.3,0,0,1-.246,1.3,2.84,2.84,0,0,1-.7,1,3.137,3.137,0,0,1-1.1.643,4.291,4.291,0,0,1-1.429.226,3.947,3.947,0,0,1-2.03-.41V13.571a3.733,3.733,0,0,0,2.044.643,2.766,2.766,0,0,0,.96-.157,2.134,2.134,0,0,0,.728-.437,1.873,1.873,0,0,0,.461-.677,2.291,2.291,0,0,0,.161-.868,1.86,1.86,0,0,0-.643-1.5,2.818,2.818,0,0,0-1.866-.543q-.2,0-.417.007t-.437.017q-.219.01-.427.024t-.379.034L50.839,5.2h4.532V6.209H51.81l-.2,2.878q.219-.014.465-.024t.438-.01a4.4,4.4,0,0,1,1.395.205,2.955,2.955,0,0,1,1.042.584,2.451,2.451,0,0,1,.649.93A3.27,3.27,0,0,1,55.822,12.006Zm1.538.26a2.608,2.608,0,0,1,.123-.783,2.835,2.835,0,0,1,.352-.735,2.913,2.913,0,0,1,.567-.622,2.7,2.7,0,0,1,.769-.444,2.906,2.906,0,0,1-1.012-.913,2.158,2.158,0,0,1-.376-1.234,2.379,2.379,0,0,1,.786-1.791,2.67,2.67,0,0,1,.875-.523,3.268,3.268,0,0,1,2.194,0,2.717,2.717,0,0,1,.875.526,2.363,2.363,0,0,1,.574.793,2.4,2.4,0,0,1,.205.991,2.158,2.158,0,0,1-.376,1.234,2.943,2.943,0,0,1-1,.913,2.681,2.681,0,0,1,.759.444,2.956,2.956,0,0,1,.564.622,2.835,2.835,0,0,1,.352.735,2.608,2.608,0,0,1,.123.783,2.911,2.911,0,0,1-.232,1.176,2.627,2.627,0,0,1-.653.913,3.014,3.014,0,0,1-1,.591,3.756,3.756,0,0,1-1.289.212,3.706,3.706,0,0,1-1.278-.212,3.06,3.06,0,0,1-1-.591,2.645,2.645,0,0,1-.66-.913A2.875,2.875,0,0,1,57.36,12.266Zm1.217-.1a2.316,2.316,0,0,0,.14.827,1.783,1.783,0,0,0,.4.629,1.731,1.731,0,0,0,.622.4,2.247,2.247,0,0,0,.81.14,2.134,2.134,0,0,0,.793-.144,1.848,1.848,0,0,0,.625-.4,1.813,1.813,0,0,0,.41-.629,2.2,2.2,0,0,0,.147-.82,2.1,2.1,0,0,0-.14-.769,1.925,1.925,0,0,0-.4-.632,1.879,1.879,0,0,0-.622-.431,2.024,2.024,0,0,0-.813-.157,2.046,2.046,0,0,0-.783.147,1.873,1.873,0,0,0-.622.41,1.9,1.9,0,0,0-.414.629A2.092,2.092,0,0,0,58.577,12.17Zm.349-4.546a1.627,1.627,0,0,0,.991,1.514,1.615,1.615,0,0,0,1.261,0,1.634,1.634,0,0,0,.516-.352,1.706,1.706,0,0,0,.349-.52,1.579,1.579,0,0,0,.13-.639,1.676,1.676,0,0,0-.126-.656,1.611,1.611,0,0,0-1.5-.991,1.631,1.631,0,0,0-.66.13,1.594,1.594,0,0,0-.513.352,1.539,1.539,0,0,0-.332.523A1.767,1.767,0,0,0,58.926,7.624Zm11.881,4.6a2.858,2.858,0,0,1-.25,1.207,2.664,2.664,0,0,1-.7.93,3.25,3.25,0,0,1-1.09.6,4.41,4.41,0,0,1-1.4.212,4.072,4.072,0,0,1-2.229-.533v-1.2a3.571,3.571,0,0,0,2.27.779,3.084,3.084,0,0,0,.926-.13,2.077,2.077,0,0,0,.711-.376,1.67,1.67,0,0,0,.458-.595,1.857,1.857,0,0,0,.161-.786q0-1.921-2.734-1.921H66.11v-.95h.772q2.42,0,2.42-1.8,0-1.668-1.846-1.668a3.143,3.143,0,0,0-1.948.7V5.594a4.259,4.259,0,0,1,2.229-.561,3.424,3.424,0,0,1,1.114.171,2.553,2.553,0,0,1,.854.479,2.121,2.121,0,0,1,.55.738,2.279,2.279,0,0,1,.195.95A2.393,2.393,0,0,1,68.5,9.859v.027a3.093,3.093,0,0,1,.923.243,2.463,2.463,0,0,1,.731.489,2.179,2.179,0,0,1,.482.708A2.259,2.259,0,0,1,70.807,12.225Zm5.749-.684H72.823v-.882h3.732Zm1.5.725a2.608,2.608,0,0,1,.123-.783,2.835,2.835,0,0,1,.352-.735,2.913,2.913,0,0,1,.567-.622,2.7,2.7,0,0,1,.769-.444,2.906,2.906,0,0,1-1.012-.913,2.158,2.158,0,0,1-.376-1.234,2.38,2.38,0,0,1,.208-1,2.4,2.4,0,0,1,.578-.793,2.67,2.67,0,0,1,.875-.523,3.268,3.268,0,0,1,2.194,0,2.717,2.717,0,0,1,.875.526,2.363,2.363,0,0,1,.574.793,2.4,2.4,0,0,1,.205.991,2.158,2.158,0,0,1-.376,1.234,2.943,2.943,0,0,1-1,.913,2.681,2.681,0,0,1,.759.444,2.956,2.956,0,0,1,.564.622,2.835,2.835,0,0,1,.352.735,2.608,2.608,0,0,1,.123.783,2.911,2.911,0,0,1-.232,1.176,2.627,2.627,0,0,1-.653.913,3.014,3.014,0,0,1-1,.591,3.756,3.756,0,0,1-1.289.212,3.706,3.706,0,0,1-1.278-.212,3.06,3.06,0,0,1-1-.591,2.645,2.645,0,0,1-.66-.913A2.875,2.875,0,0,1,78.053,12.266Zm1.217-.1a2.316,2.316,0,0,0,.14.827,1.783,1.783,0,0,0,.4.629,1.731,1.731,0,0,0,.622.4,2.247,2.247,0,0,0,.81.14,2.134,2.134,0,0,0,.793-.144,1.848,1.848,0,0,0,.625-.4,1.813,1.813,0,0,0,.41-.629,2.2,2.2,0,0,0,.147-.82,2.1,2.1,0,0,0-.14-.769,1.925,1.925,0,0,0-.4-.632,1.879,1.879,0,0,0-.622-.431,2.024,2.024,0,0,0-.813-.157,2.046,2.046,0,0,0-.783.147,1.873,1.873,0,0,0-.622.41,1.9,1.9,0,0,0-.414.629A2.092,2.092,0,0,0,79.27,12.17Zm.349-4.546a1.627,1.627,0,0,0,.991,1.514,1.615,1.615,0,0,0,1.261,0,1.634,1.634,0,0,0,.516-.352,1.706,1.706,0,0,0,.349-.52,1.579,1.579,0,0,0,.13-.639,1.676,1.676,0,0,0-.126-.656,1.611,1.611,0,0,0-1.5-.991,1.631,1.631,0,0,0-.66.13,1.594,1.594,0,0,0-.513.352,1.539,1.539,0,0,0-.332.523A1.767,1.767,0,0,0,79.618,7.624ZM85.6,12.266a2.608,2.608,0,0,1,.123-.783,2.835,2.835,0,0,1,.352-.735,2.913,2.913,0,0,1,.567-.622,2.7,2.7,0,0,1,.769-.444A2.906,2.906,0,0,1,86.4,8.769a2.158,2.158,0,0,1-.376-1.234,2.38,2.38,0,0,1,.208-1,2.4,2.4,0,0,1,.578-.793,2.67,2.67,0,0,1,.875-.523,3.268,3.268,0,0,1,2.194,0,2.717,2.717,0,0,1,.875.526,2.363,2.363,0,0,1,.574.793,2.4,2.4,0,0,1,.205.991,2.158,2.158,0,0,1-.376,1.234,2.943,2.943,0,0,1-1,.913,2.681,2.681,0,0,1,.759.444,2.956,2.956,0,0,1,.564.622,2.835,2.835,0,0,1,.352.735,2.608,2.608,0,0,1,.123.783,2.911,2.911,0,0,1-.232,1.176,2.627,2.627,0,0,1-.653.913,3.014,3.014,0,0,1-1,.591,3.756,3.756,0,0,1-1.289.212,3.706,3.706,0,0,1-1.278-.212,3.06,3.06,0,0,1-1-.591,2.645,2.645,0,0,1-.66-.913A2.875,2.875,0,0,1,85.6,12.266Zm1.217-.1a2.316,2.316,0,0,0,.14.827,1.783,1.783,0,0,0,.4.629,1.731,1.731,0,0,0,.622.4,2.247,2.247,0,0,0,.81.14,2.134,2.134,0,0,0,.793-.144,1.848,1.848,0,0,0,.625-.4,1.813,1.813,0,0,0,.41-.629,2.2,2.2,0,0,0,.147-.82,2.1,2.1,0,0,0-.14-.769,1.925,1.925,0,0,0-.4-.632,1.879,1.879,0,0,0-.622-.431,2.024,2.024,0,0,0-.813-.157,2.046,2.046,0,0,0-.783.147,1.873,1.873,0,0,0-.622.41,1.9,1.9,0,0,0-.414.629A2.092,2.092,0,0,0,86.816,12.17Zm.349-4.546a1.627,1.627,0,0,0,.991,1.514,1.615,1.615,0,0,0,1.261,0,1.634,1.634,0,0,0,.516-.352,1.706,1.706,0,0,0,.349-.52,1.579,1.579,0,0,0,.13-.639,1.676,1.676,0,0,0-.126-.656,1.611,1.611,0,0,0-1.5-.991,1.631,1.631,0,0,0-.66.13,1.594,1.594,0,0,0-.513.352,1.539,1.539,0,0,0-.332.523A1.767,1.767,0,0,0,87.165,7.624ZM99.5,10.058a9.63,9.63,0,0,1-.222,2.181,5.081,5.081,0,0,1-.643,1.6,2.892,2.892,0,0,1-1.032.991,2.826,2.826,0,0,1-1.391.338,2.639,2.639,0,0,1-1.316-.325,2.758,2.758,0,0,1-.974-.947,4.8,4.8,0,0,1-.6-1.528,9.447,9.447,0,0,1-.205-2.075,10.694,10.694,0,0,1,.215-2.27,5.191,5.191,0,0,1,.632-1.651,2.814,2.814,0,0,1,1.036-1,2.908,2.908,0,0,1,1.418-.338Q99.5,5.033,99.5,10.058Zm-1.148.109q0-4.184-1.989-4.184-2.1,0-2.1,4.259,0,3.972,2.058,3.972Q98.355,14.214,98.355,10.167Zm8.627-4.32q-.226.39-.543.971t-.673,1.306q-.355.725-.725,1.559t-.69,1.723q-.321.889-.564,1.8A13.4,13.4,0,0,0,103.435,15h-1.2a13.631,13.631,0,0,1,.379-1.788q.256-.913.581-1.791t.687-1.692q.362-.813.7-1.5t.625-1.207q.284-.523.455-.817h-4.915V5.2h6.234Z" transform="translate(101 177)" fill="#3d3d3d"/>
        </g>
        <g transform="translate(-101 -79)">
          <path id="Path_102277-3" data-name="Path 102277" d="M8.012,11.377H5.25v2.755H4.341V11.377H1.586v-.916H4.341V7.706H5.25v2.755H8.012ZM14.526,15H13.405V6.53a2.6,2.6,0,0,1-.379.3,6.184,6.184,0,0,1-.561.332q-.311.164-.656.308a4.769,4.769,0,0,1-.673.226V6.558a6.517,6.517,0,0,0,.783-.277q.414-.174.813-.39t.755-.451a6,6,0,0,0,.615-.461h.424Zm13.057-2.994a3.3,3.3,0,0,1-.246,1.3,2.84,2.84,0,0,1-.7,1,3.137,3.137,0,0,1-1.1.643,4.291,4.291,0,0,1-1.429.226,3.947,3.947,0,0,1-2.03-.41V13.571a3.733,3.733,0,0,0,2.044.643,2.766,2.766,0,0,0,.96-.157,2.134,2.134,0,0,0,.728-.437,1.873,1.873,0,0,0,.461-.677,2.291,2.291,0,0,0,.161-.868,1.86,1.86,0,0,0-.643-1.5,2.818,2.818,0,0,0-1.866-.543q-.2,0-.417.007t-.437.017q-.219.01-.427.024t-.379.034L22.6,5.2h4.532V6.209H23.57l-.2,2.878q.219-.014.465-.024t.438-.01a4.4,4.4,0,0,1,1.395.205,2.955,2.955,0,0,1,1.042.584,2.451,2.451,0,0,1,.649.93A3.27,3.27,0,0,1,27.583,12.006Zm1.538.26a2.608,2.608,0,0,1,.123-.783,2.835,2.835,0,0,1,.352-.735,2.913,2.913,0,0,1,.567-.622,2.7,2.7,0,0,1,.769-.444,2.906,2.906,0,0,1-1.012-.913,2.158,2.158,0,0,1-.376-1.234,2.379,2.379,0,0,1,.786-1.791,2.67,2.67,0,0,1,.875-.523,3.268,3.268,0,0,1,2.194,0,2.717,2.717,0,0,1,.875.526,2.363,2.363,0,0,1,.574.793,2.4,2.4,0,0,1,.205.991,2.158,2.158,0,0,1-.376,1.234,2.943,2.943,0,0,1-1,.913,2.681,2.681,0,0,1,.759.444,2.956,2.956,0,0,1,.564.622,2.835,2.835,0,0,1,.352.735,2.608,2.608,0,0,1,.123.783,2.911,2.911,0,0,1-.232,1.176,2.627,2.627,0,0,1-.653.913,3.014,3.014,0,0,1-1,.591,3.756,3.756,0,0,1-1.289.212,3.706,3.706,0,0,1-1.278-.212,3.06,3.06,0,0,1-1-.591,2.645,2.645,0,0,1-.66-.913A2.875,2.875,0,0,1,29.121,12.266Zm1.217-.1a2.316,2.316,0,0,0,.14.827,1.783,1.783,0,0,0,.4.629,1.731,1.731,0,0,0,.622.4,2.247,2.247,0,0,0,.81.14,2.134,2.134,0,0,0,.793-.144,1.848,1.848,0,0,0,.625-.4,1.813,1.813,0,0,0,.41-.629,2.2,2.2,0,0,0,.147-.82,2.1,2.1,0,0,0-.14-.769,1.925,1.925,0,0,0-.4-.632,1.879,1.879,0,0,0-.622-.431,2.024,2.024,0,0,0-.813-.157,2.046,2.046,0,0,0-.783.147,1.873,1.873,0,0,0-.622.41,1.9,1.9,0,0,0-.414.629A2.092,2.092,0,0,0,30.338,12.17Zm.349-4.546a1.627,1.627,0,0,0,.991,1.514,1.615,1.615,0,0,0,1.261,0,1.634,1.634,0,0,0,.516-.352,1.706,1.706,0,0,0,.349-.52,1.579,1.579,0,0,0,.13-.639,1.676,1.676,0,0,0-.126-.656,1.611,1.611,0,0,0-1.5-.991,1.631,1.631,0,0,0-.66.13,1.594,1.594,0,0,0-.513.352,1.539,1.539,0,0,0-.332.523A1.767,1.767,0,0,0,30.687,7.624Zm10.644.144a2.027,2.027,0,0,0-.14-.786,1.522,1.522,0,0,0-.954-.889,2.235,2.235,0,0,0-.711-.109,2.352,2.352,0,0,0-.643.089,3.124,3.124,0,0,0-.612.246,3.764,3.764,0,0,0-.574.376,4.148,4.148,0,0,0-.516.485v-1.2a3.352,3.352,0,0,1,1.056-.7,3.719,3.719,0,0,1,1.425-.243,3.441,3.441,0,0,1,1.114.174,2.555,2.555,0,0,1,.889.509,2.354,2.354,0,0,1,.591.827,2.79,2.79,0,0,1,.215,1.128,3.868,3.868,0,0,1-.133,1.053,3.256,3.256,0,0,1-.4.889,4.288,4.288,0,0,1-.68.8,9.635,9.635,0,0,1-.964.779q-.69.492-1.138.841a5.031,5.031,0,0,0-.711.653,1.894,1.894,0,0,0-.369.608,2.127,2.127,0,0,0-.106.7h4.881v1H36.8v-.485a4.045,4.045,0,0,1,.137-1.107,2.876,2.876,0,0,1,.451-.909,5.046,5.046,0,0,1,.824-.861q.509-.431,1.248-.971a7.887,7.887,0,0,0,.892-.731,3.8,3.8,0,0,0,.578-.7,2.5,2.5,0,0,0,.311-.708A3.051,3.051,0,0,0,41.33,7.768Zm6.986,3.773H44.584v-.882h3.732Zm7.506.465a3.3,3.3,0,0,1-.246,1.3,2.84,2.84,0,0,1-.7,1,3.137,3.137,0,0,1-1.1.643,4.291,4.291,0,0,1-1.429.226,3.947,3.947,0,0,1-2.03-.41V13.571a3.733,3.733,0,0,0,2.044.643,2.766,2.766,0,0,0,.96-.157,2.134,2.134,0,0,0,.728-.437,1.873,1.873,0,0,0,.461-.677,2.291,2.291,0,0,0,.161-.868,1.86,1.86,0,0,0-.643-1.5,2.818,2.818,0,0,0-1.866-.543q-.2,0-.417.007t-.437.017q-.219.01-.427.024t-.379.034L50.839,5.2h4.532V6.209H51.81l-.2,2.878q.219-.014.465-.024t.438-.01a4.4,4.4,0,0,1,1.395.205,2.955,2.955,0,0,1,1.042.584,2.451,2.451,0,0,1,.649.93A3.27,3.27,0,0,1,55.822,12.006Zm1.538.26a2.608,2.608,0,0,1,.123-.783,2.835,2.835,0,0,1,.352-.735,2.913,2.913,0,0,1,.567-.622,2.7,2.7,0,0,1,.769-.444,2.906,2.906,0,0,1-1.012-.913,2.158,2.158,0,0,1-.376-1.234,2.379,2.379,0,0,1,.786-1.791,2.67,2.67,0,0,1,.875-.523,3.268,3.268,0,0,1,2.194,0,2.717,2.717,0,0,1,.875.526,2.363,2.363,0,0,1,.574.793,2.4,2.4,0,0,1,.205.991,2.158,2.158,0,0,1-.376,1.234,2.943,2.943,0,0,1-1,.913,2.681,2.681,0,0,1,.759.444,2.956,2.956,0,0,1,.564.622,2.835,2.835,0,0,1,.352.735,2.608,2.608,0,0,1,.123.783,2.911,2.911,0,0,1-.232,1.176,2.627,2.627,0,0,1-.653.913,3.014,3.014,0,0,1-1,.591,3.756,3.756,0,0,1-1.289.212,3.706,3.706,0,0,1-1.278-.212,3.06,3.06,0,0,1-1-.591,2.645,2.645,0,0,1-.66-.913A2.875,2.875,0,0,1,57.36,12.266Zm1.217-.1a2.316,2.316,0,0,0,.14.827,1.783,1.783,0,0,0,.4.629,1.731,1.731,0,0,0,.622.4,2.247,2.247,0,0,0,.81.14,2.134,2.134,0,0,0,.793-.144,1.848,1.848,0,0,0,.625-.4,1.813,1.813,0,0,0,.41-.629,2.2,2.2,0,0,0,.147-.82,2.1,2.1,0,0,0-.14-.769,1.925,1.925,0,0,0-.4-.632,1.879,1.879,0,0,0-.622-.431,2.024,2.024,0,0,0-.813-.157,2.046,2.046,0,0,0-.783.147,1.873,1.873,0,0,0-.622.41,1.9,1.9,0,0,0-.414.629A2.092,2.092,0,0,0,58.577,12.17Zm.349-4.546a1.627,1.627,0,0,0,.991,1.514,1.615,1.615,0,0,0,1.261,0,1.634,1.634,0,0,0,.516-.352,1.706,1.706,0,0,0,.349-.52,1.579,1.579,0,0,0,.13-.639,1.676,1.676,0,0,0-.126-.656,1.611,1.611,0,0,0-1.5-.991,1.631,1.631,0,0,0-.66.13,1.594,1.594,0,0,0-.513.352,1.539,1.539,0,0,0-.332.523A1.767,1.767,0,0,0,58.926,7.624Zm11.881,4.6a2.858,2.858,0,0,1-.25,1.207,2.664,2.664,0,0,1-.7.93,3.25,3.25,0,0,1-1.09.6,4.41,4.41,0,0,1-1.4.212,4.072,4.072,0,0,1-2.229-.533v-1.2a3.571,3.571,0,0,0,2.27.779,3.084,3.084,0,0,0,.926-.13,2.077,2.077,0,0,0,.711-.376,1.67,1.67,0,0,0,.458-.595,1.857,1.857,0,0,0,.161-.786q0-1.921-2.734-1.921H66.11v-.95h.772q2.42,0,2.42-1.8,0-1.668-1.846-1.668a3.143,3.143,0,0,0-1.948.7V5.594a4.259,4.259,0,0,1,2.229-.561,3.424,3.424,0,0,1,1.114.171,2.553,2.553,0,0,1,.854.479,2.121,2.121,0,0,1,.55.738,2.279,2.279,0,0,1,.195.95A2.393,2.393,0,0,1,68.5,9.859v.027a3.093,3.093,0,0,1,.923.243,2.463,2.463,0,0,1,.731.489,2.179,2.179,0,0,1,.482.708A2.259,2.259,0,0,1,70.807,12.225Zm5.749-.684H72.823v-.882h3.732Zm1.5.725a2.608,2.608,0,0,1,.123-.783,2.835,2.835,0,0,1,.352-.735,2.913,2.913,0,0,1,.567-.622,2.7,2.7,0,0,1,.769-.444,2.906,2.906,0,0,1-1.012-.913,2.158,2.158,0,0,1-.376-1.234,2.38,2.38,0,0,1,.208-1,2.4,2.4,0,0,1,.578-.793,2.67,2.67,0,0,1,.875-.523,3.268,3.268,0,0,1,2.194,0,2.717,2.717,0,0,1,.875.526,2.363,2.363,0,0,1,.574.793,2.4,2.4,0,0,1,.205.991,2.158,2.158,0,0,1-.376,1.234,2.943,2.943,0,0,1-1,.913,2.681,2.681,0,0,1,.759.444,2.956,2.956,0,0,1,.564.622,2.835,2.835,0,0,1,.352.735,2.608,2.608,0,0,1,.123.783,2.911,2.911,0,0,1-.232,1.176,2.627,2.627,0,0,1-.653.913,3.014,3.014,0,0,1-1,.591,3.756,3.756,0,0,1-1.289.212,3.706,3.706,0,0,1-1.278-.212,3.06,3.06,0,0,1-1-.591,2.645,2.645,0,0,1-.66-.913A2.875,2.875,0,0,1,78.053,12.266Zm1.217-.1a2.316,2.316,0,0,0,.14.827,1.783,1.783,0,0,0,.4.629,1.731,1.731,0,0,0,.622.4,2.247,2.247,0,0,0,.81.14,2.134,2.134,0,0,0,.793-.144,1.848,1.848,0,0,0,.625-.4,1.813,1.813,0,0,0,.41-.629,2.2,2.2,0,0,0,.147-.82,2.1,2.1,0,0,0-.14-.769,1.925,1.925,0,0,0-.4-.632,1.879,1.879,0,0,0-.622-.431,2.024,2.024,0,0,0-.813-.157,2.046,2.046,0,0,0-.783.147,1.873,1.873,0,0,0-.622.41,1.9,1.9,0,0,0-.414.629A2.092,2.092,0,0,0,79.27,12.17Zm.349-4.546a1.627,1.627,0,0,0,.991,1.514,1.615,1.615,0,0,0,1.261,0,1.634,1.634,0,0,0,.516-.352,1.706,1.706,0,0,0,.349-.52,1.579,1.579,0,0,0,.13-.639,1.676,1.676,0,0,0-.126-.656,1.611,1.611,0,0,0-1.5-.991,1.631,1.631,0,0,0-.66.13,1.594,1.594,0,0,0-.513.352,1.539,1.539,0,0,0-.332.523A1.767,1.767,0,0,0,79.618,7.624ZM85.6,12.266a2.608,2.608,0,0,1,.123-.783,2.835,2.835,0,0,1,.352-.735,2.913,2.913,0,0,1,.567-.622,2.7,2.7,0,0,1,.769-.444A2.906,2.906,0,0,1,86.4,8.769a2.158,2.158,0,0,1-.376-1.234,2.38,2.38,0,0,1,.208-1,2.4,2.4,0,0,1,.578-.793,2.67,2.67,0,0,1,.875-.523,3.268,3.268,0,0,1,2.194,0,2.717,2.717,0,0,1,.875.526,2.363,2.363,0,0,1,.574.793,2.4,2.4,0,0,1,.205.991,2.158,2.158,0,0,1-.376,1.234,2.943,2.943,0,0,1-1,.913,2.681,2.681,0,0,1,.759.444,2.956,2.956,0,0,1,.564.622,2.835,2.835,0,0,1,.352.735,2.608,2.608,0,0,1,.123.783,2.911,2.911,0,0,1-.232,1.176,2.627,2.627,0,0,1-.653.913,3.014,3.014,0,0,1-1,.591,3.756,3.756,0,0,1-1.289.212,3.706,3.706,0,0,1-1.278-.212,3.06,3.06,0,0,1-1-.591,2.645,2.645,0,0,1-.66-.913A2.875,2.875,0,0,1,85.6,12.266Zm1.217-.1a2.316,2.316,0,0,0,.14.827,1.783,1.783,0,0,0,.4.629,1.731,1.731,0,0,0,.622.4,2.247,2.247,0,0,0,.81.14,2.134,2.134,0,0,0,.793-.144,1.848,1.848,0,0,0,.625-.4,1.813,1.813,0,0,0,.41-.629,2.2,2.2,0,0,0,.147-.82,2.1,2.1,0,0,0-.14-.769,1.925,1.925,0,0,0-.4-.632,1.879,1.879,0,0,0-.622-.431,2.024,2.024,0,0,0-.813-.157,2.046,2.046,0,0,0-.783.147,1.873,1.873,0,0,0-.622.41,1.9,1.9,0,0,0-.414.629A2.092,2.092,0,0,0,86.816,12.17Zm.349-4.546a1.627,1.627,0,0,0,.991,1.514,1.615,1.615,0,0,0,1.261,0,1.634,1.634,0,0,0,.516-.352,1.706,1.706,0,0,0,.349-.52,1.579,1.579,0,0,0,.13-.639,1.676,1.676,0,0,0-.126-.656,1.611,1.611,0,0,0-1.5-.991,1.631,1.631,0,0,0-.66.13,1.594,1.594,0,0,0-.513.352,1.539,1.539,0,0,0-.332.523A1.767,1.767,0,0,0,87.165,7.624ZM99.5,10.058a9.63,9.63,0,0,1-.222,2.181,5.081,5.081,0,0,1-.643,1.6,2.892,2.892,0,0,1-1.032.991,2.826,2.826,0,0,1-1.391.338,2.639,2.639,0,0,1-1.316-.325,2.758,2.758,0,0,1-.974-.947,4.8,4.8,0,0,1-.6-1.528,9.447,9.447,0,0,1-.205-2.075,10.694,10.694,0,0,1,.215-2.27,5.191,5.191,0,0,1,.632-1.651,2.814,2.814,0,0,1,1.036-1,2.908,2.908,0,0,1,1.418-.338Q99.5,5.033,99.5,10.058Zm-1.148.109q0-4.184-1.989-4.184-2.1,0-2.1,4.259,0,3.972,2.058,3.972Q98.355,14.214,98.355,10.167Zm8.627-4.32q-.226.39-.543.971t-.673,1.306q-.355.725-.725,1.559t-.69,1.723q-.321.889-.564,1.8A13.4,13.4,0,0,0,103.435,15h-1.2a13.631,13.631,0,0,1,.379-1.788q.256-.913.581-1.791t.687-1.692q.362-.813.7-1.5t.625-1.207q.284-.523.455-.817h-4.915V5.2h6.234Z" transform="translate(101 177)" fill="#3d3d3d"/>
        </g>
        <g transform="translate(-101 -30)">
          <path id="Path_102277-4" data-name="Path 102277" d="M8.012,11.377H5.25v2.755H4.341V11.377H1.586v-.916H4.341V7.706H5.25v2.755H8.012ZM14.526,15H13.405V6.53a2.6,2.6,0,0,1-.379.3,6.184,6.184,0,0,1-.561.332q-.311.164-.656.308a4.769,4.769,0,0,1-.673.226V6.558a6.517,6.517,0,0,0,.783-.277q.414-.174.813-.39t.755-.451a6,6,0,0,0,.615-.461h.424Zm13.057-2.994a3.3,3.3,0,0,1-.246,1.3,2.84,2.84,0,0,1-.7,1,3.137,3.137,0,0,1-1.1.643,4.291,4.291,0,0,1-1.429.226,3.947,3.947,0,0,1-2.03-.41V13.571a3.733,3.733,0,0,0,2.044.643,2.766,2.766,0,0,0,.96-.157,2.134,2.134,0,0,0,.728-.437,1.873,1.873,0,0,0,.461-.677,2.291,2.291,0,0,0,.161-.868,1.86,1.86,0,0,0-.643-1.5,2.818,2.818,0,0,0-1.866-.543q-.2,0-.417.007t-.437.017q-.219.01-.427.024t-.379.034L22.6,5.2h4.532V6.209H23.57l-.2,2.878q.219-.014.465-.024t.438-.01a4.4,4.4,0,0,1,1.395.205,2.955,2.955,0,0,1,1.042.584,2.451,2.451,0,0,1,.649.93A3.27,3.27,0,0,1,27.583,12.006Zm1.538.26a2.608,2.608,0,0,1,.123-.783,2.835,2.835,0,0,1,.352-.735,2.913,2.913,0,0,1,.567-.622,2.7,2.7,0,0,1,.769-.444,2.906,2.906,0,0,1-1.012-.913,2.158,2.158,0,0,1-.376-1.234,2.379,2.379,0,0,1,.786-1.791,2.67,2.67,0,0,1,.875-.523,3.268,3.268,0,0,1,2.194,0,2.717,2.717,0,0,1,.875.526,2.363,2.363,0,0,1,.574.793,2.4,2.4,0,0,1,.205.991,2.158,2.158,0,0,1-.376,1.234,2.943,2.943,0,0,1-1,.913,2.681,2.681,0,0,1,.759.444,2.956,2.956,0,0,1,.564.622,2.835,2.835,0,0,1,.352.735,2.608,2.608,0,0,1,.123.783,2.911,2.911,0,0,1-.232,1.176,2.627,2.627,0,0,1-.653.913,3.014,3.014,0,0,1-1,.591,3.756,3.756,0,0,1-1.289.212,3.706,3.706,0,0,1-1.278-.212,3.06,3.06,0,0,1-1-.591,2.645,2.645,0,0,1-.66-.913A2.875,2.875,0,0,1,29.121,12.266Zm1.217-.1a2.316,2.316,0,0,0,.14.827,1.783,1.783,0,0,0,.4.629,1.731,1.731,0,0,0,.622.4,2.247,2.247,0,0,0,.81.14,2.134,2.134,0,0,0,.793-.144,1.848,1.848,0,0,0,.625-.4,1.813,1.813,0,0,0,.41-.629,2.2,2.2,0,0,0,.147-.82,2.1,2.1,0,0,0-.14-.769,1.925,1.925,0,0,0-.4-.632,1.879,1.879,0,0,0-.622-.431,2.024,2.024,0,0,0-.813-.157,2.046,2.046,0,0,0-.783.147,1.873,1.873,0,0,0-.622.41,1.9,1.9,0,0,0-.414.629A2.092,2.092,0,0,0,30.338,12.17Zm.349-4.546a1.627,1.627,0,0,0,.991,1.514,1.615,1.615,0,0,0,1.261,0,1.634,1.634,0,0,0,.516-.352,1.706,1.706,0,0,0,.349-.52,1.579,1.579,0,0,0,.13-.639,1.676,1.676,0,0,0-.126-.656,1.611,1.611,0,0,0-1.5-.991,1.631,1.631,0,0,0-.66.13,1.594,1.594,0,0,0-.513.352,1.539,1.539,0,0,0-.332.523A1.767,1.767,0,0,0,30.687,7.624Zm10.644.144a2.027,2.027,0,0,0-.14-.786,1.522,1.522,0,0,0-.954-.889,2.235,2.235,0,0,0-.711-.109,2.352,2.352,0,0,0-.643.089,3.124,3.124,0,0,0-.612.246,3.764,3.764,0,0,0-.574.376,4.148,4.148,0,0,0-.516.485v-1.2a3.352,3.352,0,0,1,1.056-.7,3.719,3.719,0,0,1,1.425-.243,3.441,3.441,0,0,1,1.114.174,2.555,2.555,0,0,1,.889.509,2.354,2.354,0,0,1,.591.827,2.79,2.79,0,0,1,.215,1.128,3.868,3.868,0,0,1-.133,1.053,3.256,3.256,0,0,1-.4.889,4.288,4.288,0,0,1-.68.8,9.635,9.635,0,0,1-.964.779q-.69.492-1.138.841a5.031,5.031,0,0,0-.711.653,1.894,1.894,0,0,0-.369.608,2.127,2.127,0,0,0-.106.7h4.881v1H36.8v-.485a4.045,4.045,0,0,1,.137-1.107,2.876,2.876,0,0,1,.451-.909,5.046,5.046,0,0,1,.824-.861q.509-.431,1.248-.971a7.887,7.887,0,0,0,.892-.731,3.8,3.8,0,0,0,.578-.7,2.5,2.5,0,0,0,.311-.708A3.051,3.051,0,0,0,41.33,7.768Zm6.986,3.773H44.584v-.882h3.732Zm7.506.465a3.3,3.3,0,0,1-.246,1.3,2.84,2.84,0,0,1-.7,1,3.137,3.137,0,0,1-1.1.643,4.291,4.291,0,0,1-1.429.226,3.947,3.947,0,0,1-2.03-.41V13.571a3.733,3.733,0,0,0,2.044.643,2.766,2.766,0,0,0,.96-.157,2.134,2.134,0,0,0,.728-.437,1.873,1.873,0,0,0,.461-.677,2.291,2.291,0,0,0,.161-.868,1.86,1.86,0,0,0-.643-1.5,2.818,2.818,0,0,0-1.866-.543q-.2,0-.417.007t-.437.017q-.219.01-.427.024t-.379.034L50.839,5.2h4.532V6.209H51.81l-.2,2.878q.219-.014.465-.024t.438-.01a4.4,4.4,0,0,1,1.395.205,2.955,2.955,0,0,1,1.042.584,2.451,2.451,0,0,1,.649.93A3.27,3.27,0,0,1,55.822,12.006Zm1.538.26a2.608,2.608,0,0,1,.123-.783,2.835,2.835,0,0,1,.352-.735,2.913,2.913,0,0,1,.567-.622,2.7,2.7,0,0,1,.769-.444,2.906,2.906,0,0,1-1.012-.913,2.158,2.158,0,0,1-.376-1.234,2.379,2.379,0,0,1,.786-1.791,2.67,2.67,0,0,1,.875-.523,3.268,3.268,0,0,1,2.194,0,2.717,2.717,0,0,1,.875.526,2.363,2.363,0,0,1,.574.793,2.4,2.4,0,0,1,.205.991,2.158,2.158,0,0,1-.376,1.234,2.943,2.943,0,0,1-1,.913,2.681,2.681,0,0,1,.759.444,2.956,2.956,0,0,1,.564.622,2.835,2.835,0,0,1,.352.735,2.608,2.608,0,0,1,.123.783,2.911,2.911,0,0,1-.232,1.176,2.627,2.627,0,0,1-.653.913,3.014,3.014,0,0,1-1,.591,3.756,3.756,0,0,1-1.289.212,3.706,3.706,0,0,1-1.278-.212,3.06,3.06,0,0,1-1-.591,2.645,2.645,0,0,1-.66-.913A2.875,2.875,0,0,1,57.36,12.266Zm1.217-.1a2.316,2.316,0,0,0,.14.827,1.783,1.783,0,0,0,.4.629,1.731,1.731,0,0,0,.622.4,2.247,2.247,0,0,0,.81.14,2.134,2.134,0,0,0,.793-.144,1.848,1.848,0,0,0,.625-.4,1.813,1.813,0,0,0,.41-.629,2.2,2.2,0,0,0,.147-.82,2.1,2.1,0,0,0-.14-.769,1.925,1.925,0,0,0-.4-.632,1.879,1.879,0,0,0-.622-.431,2.024,2.024,0,0,0-.813-.157,2.046,2.046,0,0,0-.783.147,1.873,1.873,0,0,0-.622.41,1.9,1.9,0,0,0-.414.629A2.092,2.092,0,0,0,58.577,12.17Zm.349-4.546a1.627,1.627,0,0,0,.991,1.514,1.615,1.615,0,0,0,1.261,0,1.634,1.634,0,0,0,.516-.352,1.706,1.706,0,0,0,.349-.52,1.579,1.579,0,0,0,.13-.639,1.676,1.676,0,0,0-.126-.656,1.611,1.611,0,0,0-1.5-.991,1.631,1.631,0,0,0-.66.13,1.594,1.594,0,0,0-.513.352,1.539,1.539,0,0,0-.332.523A1.767,1.767,0,0,0,58.926,7.624Zm11.881,4.6a2.858,2.858,0,0,1-.25,1.207,2.664,2.664,0,0,1-.7.93,3.25,3.25,0,0,1-1.09.6,4.41,4.41,0,0,1-1.4.212,4.072,4.072,0,0,1-2.229-.533v-1.2a3.571,3.571,0,0,0,2.27.779,3.084,3.084,0,0,0,.926-.13,2.077,2.077,0,0,0,.711-.376,1.67,1.67,0,0,0,.458-.595,1.857,1.857,0,0,0,.161-.786q0-1.921-2.734-1.921H66.11v-.95h.772q2.42,0,2.42-1.8,0-1.668-1.846-1.668a3.143,3.143,0,0,0-1.948.7V5.594a4.259,4.259,0,0,1,2.229-.561,3.424,3.424,0,0,1,1.114.171,2.553,2.553,0,0,1,.854.479,2.121,2.121,0,0,1,.55.738,2.279,2.279,0,0,1,.195.95A2.393,2.393,0,0,1,68.5,9.859v.027a3.093,3.093,0,0,1,.923.243,2.463,2.463,0,0,1,.731.489,2.179,2.179,0,0,1,.482.708A2.259,2.259,0,0,1,70.807,12.225Zm5.749-.684H72.823v-.882h3.732Zm1.5.725a2.608,2.608,0,0,1,.123-.783,2.835,2.835,0,0,1,.352-.735,2.913,2.913,0,0,1,.567-.622,2.7,2.7,0,0,1,.769-.444,2.906,2.906,0,0,1-1.012-.913,2.158,2.158,0,0,1-.376-1.234,2.38,2.38,0,0,1,.208-1,2.4,2.4,0,0,1,.578-.793,2.67,2.67,0,0,1,.875-.523,3.268,3.268,0,0,1,2.194,0,2.717,2.717,0,0,1,.875.526,2.363,2.363,0,0,1,.574.793,2.4,2.4,0,0,1,.205.991,2.158,2.158,0,0,1-.376,1.234,2.943,2.943,0,0,1-1,.913,2.681,2.681,0,0,1,.759.444,2.956,2.956,0,0,1,.564.622,2.835,2.835,0,0,1,.352.735,2.608,2.608,0,0,1,.123.783,2.911,2.911,0,0,1-.232,1.176,2.627,2.627,0,0,1-.653.913,3.014,3.014,0,0,1-1,.591,3.756,3.756,0,0,1-1.289.212,3.706,3.706,0,0,1-1.278-.212,3.06,3.06,0,0,1-1-.591,2.645,2.645,0,0,1-.66-.913A2.875,2.875,0,0,1,78.053,12.266Zm1.217-.1a2.316,2.316,0,0,0,.14.827,1.783,1.783,0,0,0,.4.629,1.731,1.731,0,0,0,.622.4,2.247,2.247,0,0,0,.81.14,2.134,2.134,0,0,0,.793-.144,1.848,1.848,0,0,0,.625-.4,1.813,1.813,0,0,0,.41-.629,2.2,2.2,0,0,0,.147-.82,2.1,2.1,0,0,0-.14-.769,1.925,1.925,0,0,0-.4-.632,1.879,1.879,0,0,0-.622-.431,2.024,2.024,0,0,0-.813-.157,2.046,2.046,0,0,0-.783.147,1.873,1.873,0,0,0-.622.41,1.9,1.9,0,0,0-.414.629A2.092,2.092,0,0,0,79.27,12.17Zm.349-4.546a1.627,1.627,0,0,0,.991,1.514,1.615,1.615,0,0,0,1.261,0,1.634,1.634,0,0,0,.516-.352,1.706,1.706,0,0,0,.349-.52,1.579,1.579,0,0,0,.13-.639,1.676,1.676,0,0,0-.126-.656,1.611,1.611,0,0,0-1.5-.991,1.631,1.631,0,0,0-.66.13,1.594,1.594,0,0,0-.513.352,1.539,1.539,0,0,0-.332.523A1.767,1.767,0,0,0,79.618,7.624ZM85.6,12.266a2.608,2.608,0,0,1,.123-.783,2.835,2.835,0,0,1,.352-.735,2.913,2.913,0,0,1,.567-.622,2.7,2.7,0,0,1,.769-.444A2.906,2.906,0,0,1,86.4,8.769a2.158,2.158,0,0,1-.376-1.234,2.38,2.38,0,0,1,.208-1,2.4,2.4,0,0,1,.578-.793,2.67,2.67,0,0,1,.875-.523,3.268,3.268,0,0,1,2.194,0,2.717,2.717,0,0,1,.875.526,2.363,2.363,0,0,1,.574.793,2.4,2.4,0,0,1,.205.991,2.158,2.158,0,0,1-.376,1.234,2.943,2.943,0,0,1-1,.913,2.681,2.681,0,0,1,.759.444,2.956,2.956,0,0,1,.564.622,2.835,2.835,0,0,1,.352.735,2.608,2.608,0,0,1,.123.783,2.911,2.911,0,0,1-.232,1.176,2.627,2.627,0,0,1-.653.913,3.014,3.014,0,0,1-1,.591,3.756,3.756,0,0,1-1.289.212,3.706,3.706,0,0,1-1.278-.212,3.06,3.06,0,0,1-1-.591,2.645,2.645,0,0,1-.66-.913A2.875,2.875,0,0,1,85.6,12.266Zm1.217-.1a2.316,2.316,0,0,0,.14.827,1.783,1.783,0,0,0,.4.629,1.731,1.731,0,0,0,.622.4,2.247,2.247,0,0,0,.81.14,2.134,2.134,0,0,0,.793-.144,1.848,1.848,0,0,0,.625-.4,1.813,1.813,0,0,0,.41-.629,2.2,2.2,0,0,0,.147-.82,2.1,2.1,0,0,0-.14-.769,1.925,1.925,0,0,0-.4-.632,1.879,1.879,0,0,0-.622-.431,2.024,2.024,0,0,0-.813-.157,2.046,2.046,0,0,0-.783.147,1.873,1.873,0,0,0-.622.41,1.9,1.9,0,0,0-.414.629A2.092,2.092,0,0,0,86.816,12.17Zm.349-4.546a1.627,1.627,0,0,0,.991,1.514,1.615,1.615,0,0,0,1.261,0,1.634,1.634,0,0,0,.516-.352,1.706,1.706,0,0,0,.349-.52,1.579,1.579,0,0,0,.13-.639,1.676,1.676,0,0,0-.126-.656,1.611,1.611,0,0,0-1.5-.991,1.631,1.631,0,0,0-.66.13,1.594,1.594,0,0,0-.513.352,1.539,1.539,0,0,0-.332.523A1.767,1.767,0,0,0,87.165,7.624ZM99.5,10.058a9.63,9.63,0,0,1-.222,2.181,5.081,5.081,0,0,1-.643,1.6,2.892,2.892,0,0,1-1.032.991,2.826,2.826,0,0,1-1.391.338,2.639,2.639,0,0,1-1.316-.325,2.758,2.758,0,0,1-.974-.947,4.8,4.8,0,0,1-.6-1.528,9.447,9.447,0,0,1-.205-2.075,10.694,10.694,0,0,1,.215-2.27,5.191,5.191,0,0,1,.632-1.651,2.814,2.814,0,0,1,1.036-1,2.908,2.908,0,0,1,1.418-.338Q99.5,5.033,99.5,10.058Zm-1.148.109q0-4.184-1.989-4.184-2.1,0-2.1,4.259,0,3.972,2.058,3.972Q98.355,14.214,98.355,10.167Zm8.627-4.32q-.226.39-.543.971t-.673,1.306q-.355.725-.725,1.559t-.69,1.723q-.321.889-.564,1.8A13.4,13.4,0,0,0,103.435,15h-1.2a13.631,13.631,0,0,1,.379-1.788q.256-.913.581-1.791t.687-1.692q.362-.813.7-1.5t.625-1.207q.284-.523.455-.817h-4.915V5.2h6.234Z" transform="translate(101 177)" fill="#3d3d3d"/>
        </g>
        <g transform="translate(-101 19)">
          <path id="Path_102277-5" data-name="Path 102277" d="M8.012,11.377H5.25v2.755H4.341V11.377H1.586v-.916H4.341V7.706H5.25v2.755H8.012ZM14.526,15H13.405V6.53a2.6,2.6,0,0,1-.379.3,6.184,6.184,0,0,1-.561.332q-.311.164-.656.308a4.769,4.769,0,0,1-.673.226V6.558a6.517,6.517,0,0,0,.783-.277q.414-.174.813-.39t.755-.451a6,6,0,0,0,.615-.461h.424Zm13.057-2.994a3.3,3.3,0,0,1-.246,1.3,2.84,2.84,0,0,1-.7,1,3.137,3.137,0,0,1-1.1.643,4.291,4.291,0,0,1-1.429.226,3.947,3.947,0,0,1-2.03-.41V13.571a3.733,3.733,0,0,0,2.044.643,2.766,2.766,0,0,0,.96-.157,2.134,2.134,0,0,0,.728-.437,1.873,1.873,0,0,0,.461-.677,2.291,2.291,0,0,0,.161-.868,1.86,1.86,0,0,0-.643-1.5,2.818,2.818,0,0,0-1.866-.543q-.2,0-.417.007t-.437.017q-.219.01-.427.024t-.379.034L22.6,5.2h4.532V6.209H23.57l-.2,2.878q.219-.014.465-.024t.438-.01a4.4,4.4,0,0,1,1.395.205,2.955,2.955,0,0,1,1.042.584,2.451,2.451,0,0,1,.649.93A3.27,3.27,0,0,1,27.583,12.006Zm1.538.26a2.608,2.608,0,0,1,.123-.783,2.835,2.835,0,0,1,.352-.735,2.913,2.913,0,0,1,.567-.622,2.7,2.7,0,0,1,.769-.444,2.906,2.906,0,0,1-1.012-.913,2.158,2.158,0,0,1-.376-1.234,2.379,2.379,0,0,1,.786-1.791,2.67,2.67,0,0,1,.875-.523,3.268,3.268,0,0,1,2.194,0,2.717,2.717,0,0,1,.875.526,2.363,2.363,0,0,1,.574.793,2.4,2.4,0,0,1,.205.991,2.158,2.158,0,0,1-.376,1.234,2.943,2.943,0,0,1-1,.913,2.681,2.681,0,0,1,.759.444,2.956,2.956,0,0,1,.564.622,2.835,2.835,0,0,1,.352.735,2.608,2.608,0,0,1,.123.783,2.911,2.911,0,0,1-.232,1.176,2.627,2.627,0,0,1-.653.913,3.014,3.014,0,0,1-1,.591,3.756,3.756,0,0,1-1.289.212,3.706,3.706,0,0,1-1.278-.212,3.06,3.06,0,0,1-1-.591,2.645,2.645,0,0,1-.66-.913A2.875,2.875,0,0,1,29.121,12.266Zm1.217-.1a2.316,2.316,0,0,0,.14.827,1.783,1.783,0,0,0,.4.629,1.731,1.731,0,0,0,.622.4,2.247,2.247,0,0,0,.81.14,2.134,2.134,0,0,0,.793-.144,1.848,1.848,0,0,0,.625-.4,1.813,1.813,0,0,0,.41-.629,2.2,2.2,0,0,0,.147-.82,2.1,2.1,0,0,0-.14-.769,1.925,1.925,0,0,0-.4-.632,1.879,1.879,0,0,0-.622-.431,2.024,2.024,0,0,0-.813-.157,2.046,2.046,0,0,0-.783.147,1.873,1.873,0,0,0-.622.41,1.9,1.9,0,0,0-.414.629A2.092,2.092,0,0,0,30.338,12.17Zm.349-4.546a1.627,1.627,0,0,0,.991,1.514,1.615,1.615,0,0,0,1.261,0,1.634,1.634,0,0,0,.516-.352,1.706,1.706,0,0,0,.349-.52,1.579,1.579,0,0,0,.13-.639,1.676,1.676,0,0,0-.126-.656,1.611,1.611,0,0,0-1.5-.991,1.631,1.631,0,0,0-.66.13,1.594,1.594,0,0,0-.513.352,1.539,1.539,0,0,0-.332.523A1.767,1.767,0,0,0,30.687,7.624Zm10.644.144a2.027,2.027,0,0,0-.14-.786,1.522,1.522,0,0,0-.954-.889,2.235,2.235,0,0,0-.711-.109,2.352,2.352,0,0,0-.643.089,3.124,3.124,0,0,0-.612.246,3.764,3.764,0,0,0-.574.376,4.148,4.148,0,0,0-.516.485v-1.2a3.352,3.352,0,0,1,1.056-.7,3.719,3.719,0,0,1,1.425-.243,3.441,3.441,0,0,1,1.114.174,2.555,2.555,0,0,1,.889.509,2.354,2.354,0,0,1,.591.827,2.79,2.79,0,0,1,.215,1.128,3.868,3.868,0,0,1-.133,1.053,3.256,3.256,0,0,1-.4.889,4.288,4.288,0,0,1-.68.8,9.635,9.635,0,0,1-.964.779q-.69.492-1.138.841a5.031,5.031,0,0,0-.711.653,1.894,1.894,0,0,0-.369.608,2.127,2.127,0,0,0-.106.7h4.881v1H36.8v-.485a4.045,4.045,0,0,1,.137-1.107,2.876,2.876,0,0,1,.451-.909,5.046,5.046,0,0,1,.824-.861q.509-.431,1.248-.971a7.887,7.887,0,0,0,.892-.731,3.8,3.8,0,0,0,.578-.7,2.5,2.5,0,0,0,.311-.708A3.051,3.051,0,0,0,41.33,7.768Zm6.986,3.773H44.584v-.882h3.732Zm7.506.465a3.3,3.3,0,0,1-.246,1.3,2.84,2.84,0,0,1-.7,1,3.137,3.137,0,0,1-1.1.643,4.291,4.291,0,0,1-1.429.226,3.947,3.947,0,0,1-2.03-.41V13.571a3.733,3.733,0,0,0,2.044.643,2.766,2.766,0,0,0,.96-.157,2.134,2.134,0,0,0,.728-.437,1.873,1.873,0,0,0,.461-.677,2.291,2.291,0,0,0,.161-.868,1.86,1.86,0,0,0-.643-1.5,2.818,2.818,0,0,0-1.866-.543q-.2,0-.417.007t-.437.017q-.219.01-.427.024t-.379.034L50.839,5.2h4.532V6.209H51.81l-.2,2.878q.219-.014.465-.024t.438-.01a4.4,4.4,0,0,1,1.395.205,2.955,2.955,0,0,1,1.042.584,2.451,2.451,0,0,1,.649.93A3.27,3.27,0,0,1,55.822,12.006Zm1.538.26a2.608,2.608,0,0,1,.123-.783,2.835,2.835,0,0,1,.352-.735,2.913,2.913,0,0,1,.567-.622,2.7,2.7,0,0,1,.769-.444,2.906,2.906,0,0,1-1.012-.913,2.158,2.158,0,0,1-.376-1.234,2.379,2.379,0,0,1,.786-1.791,2.67,2.67,0,0,1,.875-.523,3.268,3.268,0,0,1,2.194,0,2.717,2.717,0,0,1,.875.526,2.363,2.363,0,0,1,.574.793,2.4,2.4,0,0,1,.205.991,2.158,2.158,0,0,1-.376,1.234,2.943,2.943,0,0,1-1,.913,2.681,2.681,0,0,1,.759.444,2.956,2.956,0,0,1,.564.622,2.835,2.835,0,0,1,.352.735,2.608,2.608,0,0,1,.123.783,2.911,2.911,0,0,1-.232,1.176,2.627,2.627,0,0,1-.653.913,3.014,3.014,0,0,1-1,.591,3.756,3.756,0,0,1-1.289.212,3.706,3.706,0,0,1-1.278-.212,3.06,3.06,0,0,1-1-.591,2.645,2.645,0,0,1-.66-.913A2.875,2.875,0,0,1,57.36,12.266Zm1.217-.1a2.316,2.316,0,0,0,.14.827,1.783,1.783,0,0,0,.4.629,1.731,1.731,0,0,0,.622.4,2.247,2.247,0,0,0,.81.14,2.134,2.134,0,0,0,.793-.144,1.848,1.848,0,0,0,.625-.4,1.813,1.813,0,0,0,.41-.629,2.2,2.2,0,0,0,.147-.82,2.1,2.1,0,0,0-.14-.769,1.925,1.925,0,0,0-.4-.632,1.879,1.879,0,0,0-.622-.431,2.024,2.024,0,0,0-.813-.157,2.046,2.046,0,0,0-.783.147,1.873,1.873,0,0,0-.622.41,1.9,1.9,0,0,0-.414.629A2.092,2.092,0,0,0,58.577,12.17Zm.349-4.546a1.627,1.627,0,0,0,.991,1.514,1.615,1.615,0,0,0,1.261,0,1.634,1.634,0,0,0,.516-.352,1.706,1.706,0,0,0,.349-.52,1.579,1.579,0,0,0,.13-.639,1.676,1.676,0,0,0-.126-.656,1.611,1.611,0,0,0-1.5-.991,1.631,1.631,0,0,0-.66.13,1.594,1.594,0,0,0-.513.352,1.539,1.539,0,0,0-.332.523A1.767,1.767,0,0,0,58.926,7.624Zm11.881,4.6a2.858,2.858,0,0,1-.25,1.207,2.664,2.664,0,0,1-.7.93,3.25,3.25,0,0,1-1.09.6,4.41,4.41,0,0,1-1.4.212,4.072,4.072,0,0,1-2.229-.533v-1.2a3.571,3.571,0,0,0,2.27.779,3.084,3.084,0,0,0,.926-.13,2.077,2.077,0,0,0,.711-.376,1.67,1.67,0,0,0,.458-.595,1.857,1.857,0,0,0,.161-.786q0-1.921-2.734-1.921H66.11v-.95h.772q2.42,0,2.42-1.8,0-1.668-1.846-1.668a3.143,3.143,0,0,0-1.948.7V5.594a4.259,4.259,0,0,1,2.229-.561,3.424,3.424,0,0,1,1.114.171,2.553,2.553,0,0,1,.854.479,2.121,2.121,0,0,1,.55.738,2.279,2.279,0,0,1,.195.95A2.393,2.393,0,0,1,68.5,9.859v.027a3.093,3.093,0,0,1,.923.243,2.463,2.463,0,0,1,.731.489,2.179,2.179,0,0,1,.482.708A2.259,2.259,0,0,1,70.807,12.225Zm5.749-.684H72.823v-.882h3.732Zm1.5.725a2.608,2.608,0,0,1,.123-.783,2.835,2.835,0,0,1,.352-.735,2.913,2.913,0,0,1,.567-.622,2.7,2.7,0,0,1,.769-.444,2.906,2.906,0,0,1-1.012-.913,2.158,2.158,0,0,1-.376-1.234,2.38,2.38,0,0,1,.208-1,2.4,2.4,0,0,1,.578-.793,2.67,2.67,0,0,1,.875-.523,3.268,3.268,0,0,1,2.194,0,2.717,2.717,0,0,1,.875.526,2.363,2.363,0,0,1,.574.793,2.4,2.4,0,0,1,.205.991,2.158,2.158,0,0,1-.376,1.234,2.943,2.943,0,0,1-1,.913,2.681,2.681,0,0,1,.759.444,2.956,2.956,0,0,1,.564.622,2.835,2.835,0,0,1,.352.735,2.608,2.608,0,0,1,.123.783,2.911,2.911,0,0,1-.232,1.176,2.627,2.627,0,0,1-.653.913,3.014,3.014,0,0,1-1,.591,3.756,3.756,0,0,1-1.289.212,3.706,3.706,0,0,1-1.278-.212,3.06,3.06,0,0,1-1-.591,2.645,2.645,0,0,1-.66-.913A2.875,2.875,0,0,1,78.053,12.266Zm1.217-.1a2.316,2.316,0,0,0,.14.827,1.783,1.783,0,0,0,.4.629,1.731,1.731,0,0,0,.622.4,2.247,2.247,0,0,0,.81.14,2.134,2.134,0,0,0,.793-.144,1.848,1.848,0,0,0,.625-.4,1.813,1.813,0,0,0,.41-.629,2.2,2.2,0,0,0,.147-.82,2.1,2.1,0,0,0-.14-.769,1.925,1.925,0,0,0-.4-.632,1.879,1.879,0,0,0-.622-.431,2.024,2.024,0,0,0-.813-.157,2.046,2.046,0,0,0-.783.147,1.873,1.873,0,0,0-.622.41,1.9,1.9,0,0,0-.414.629A2.092,2.092,0,0,0,79.27,12.17Zm.349-4.546a1.627,1.627,0,0,0,.991,1.514,1.615,1.615,0,0,0,1.261,0,1.634,1.634,0,0,0,.516-.352,1.706,1.706,0,0,0,.349-.52,1.579,1.579,0,0,0,.13-.639,1.676,1.676,0,0,0-.126-.656,1.611,1.611,0,0,0-1.5-.991,1.631,1.631,0,0,0-.66.13,1.594,1.594,0,0,0-.513.352,1.539,1.539,0,0,0-.332.523A1.767,1.767,0,0,0,79.618,7.624ZM85.6,12.266a2.608,2.608,0,0,1,.123-.783,2.835,2.835,0,0,1,.352-.735,2.913,2.913,0,0,1,.567-.622,2.7,2.7,0,0,1,.769-.444A2.906,2.906,0,0,1,86.4,8.769a2.158,2.158,0,0,1-.376-1.234,2.38,2.38,0,0,1,.208-1,2.4,2.4,0,0,1,.578-.793,2.67,2.67,0,0,1,.875-.523,3.268,3.268,0,0,1,2.194,0,2.717,2.717,0,0,1,.875.526,2.363,2.363,0,0,1,.574.793,2.4,2.4,0,0,1,.205.991,2.158,2.158,0,0,1-.376,1.234,2.943,2.943,0,0,1-1,.913,2.681,2.681,0,0,1,.759.444,2.956,2.956,0,0,1,.564.622,2.835,2.835,0,0,1,.352.735,2.608,2.608,0,0,1,.123.783,2.911,2.911,0,0,1-.232,1.176,2.627,2.627,0,0,1-.653.913,3.014,3.014,0,0,1-1,.591,3.756,3.756,0,0,1-1.289.212,3.706,3.706,0,0,1-1.278-.212,3.06,3.06,0,0,1-1-.591,2.645,2.645,0,0,1-.66-.913A2.875,2.875,0,0,1,85.6,12.266Zm1.217-.1a2.316,2.316,0,0,0,.14.827,1.783,1.783,0,0,0,.4.629,1.731,1.731,0,0,0,.622.4,2.247,2.247,0,0,0,.81.14,2.134,2.134,0,0,0,.793-.144,1.848,1.848,0,0,0,.625-.4,1.813,1.813,0,0,0,.41-.629,2.2,2.2,0,0,0,.147-.82,2.1,2.1,0,0,0-.14-.769,1.925,1.925,0,0,0-.4-.632,1.879,1.879,0,0,0-.622-.431,2.024,2.024,0,0,0-.813-.157,2.046,2.046,0,0,0-.783.147,1.873,1.873,0,0,0-.622.41,1.9,1.9,0,0,0-.414.629A2.092,2.092,0,0,0,86.816,12.17Zm.349-4.546a1.627,1.627,0,0,0,.991,1.514,1.615,1.615,0,0,0,1.261,0,1.634,1.634,0,0,0,.516-.352,1.706,1.706,0,0,0,.349-.52,1.579,1.579,0,0,0,.13-.639,1.676,1.676,0,0,0-.126-.656,1.611,1.611,0,0,0-1.5-.991,1.631,1.631,0,0,0-.66.13,1.594,1.594,0,0,0-.513.352,1.539,1.539,0,0,0-.332.523A1.767,1.767,0,0,0,87.165,7.624ZM99.5,10.058a9.63,9.63,0,0,1-.222,2.181,5.081,5.081,0,0,1-.643,1.6,2.892,2.892,0,0,1-1.032.991,2.826,2.826,0,0,1-1.391.338,2.639,2.639,0,0,1-1.316-.325,2.758,2.758,0,0,1-.974-.947,4.8,4.8,0,0,1-.6-1.528,9.447,9.447,0,0,1-.205-2.075,10.694,10.694,0,0,1,.215-2.27,5.191,5.191,0,0,1,.632-1.651,2.814,2.814,0,0,1,1.036-1,2.908,2.908,0,0,1,1.418-.338Q99.5,5.033,99.5,10.058Zm-1.148.109q0-4.184-1.989-4.184-2.1,0-2.1,4.259,0,3.972,2.058,3.972Q98.355,14.214,98.355,10.167Zm8.627-4.32q-.226.39-.543.971t-.673,1.306q-.355.725-.725,1.559t-.69,1.723q-.321.889-.564,1.8A13.4,13.4,0,0,0,103.435,15h-1.2a13.631,13.631,0,0,1,.379-1.788q.256-.913.581-1.791t.687-1.692q.362-.813.7-1.5t.625-1.207q.284-.523.455-.817h-4.915V5.2h6.234Z" transform="translate(101 177)" fill="#3d3d3d"/>
        </g>
        <g transform="translate(-101 68)">
          <path id="Path_102277-6" data-name="Path 102277" d="M8.012,11.377H5.25v2.755H4.341V11.377H1.586v-.916H4.341V7.706H5.25v2.755H8.012ZM14.526,15H13.405V6.53a2.6,2.6,0,0,1-.379.3,6.184,6.184,0,0,1-.561.332q-.311.164-.656.308a4.769,4.769,0,0,1-.673.226V6.558a6.517,6.517,0,0,0,.783-.277q.414-.174.813-.39t.755-.451a6,6,0,0,0,.615-.461h.424Zm13.057-2.994a3.3,3.3,0,0,1-.246,1.3,2.84,2.84,0,0,1-.7,1,3.137,3.137,0,0,1-1.1.643,4.291,4.291,0,0,1-1.429.226,3.947,3.947,0,0,1-2.03-.41V13.571a3.733,3.733,0,0,0,2.044.643,2.766,2.766,0,0,0,.96-.157,2.134,2.134,0,0,0,.728-.437,1.873,1.873,0,0,0,.461-.677,2.291,2.291,0,0,0,.161-.868,1.86,1.86,0,0,0-.643-1.5,2.818,2.818,0,0,0-1.866-.543q-.2,0-.417.007t-.437.017q-.219.01-.427.024t-.379.034L22.6,5.2h4.532V6.209H23.57l-.2,2.878q.219-.014.465-.024t.438-.01a4.4,4.4,0,0,1,1.395.205,2.955,2.955,0,0,1,1.042.584,2.451,2.451,0,0,1,.649.93A3.27,3.27,0,0,1,27.583,12.006Zm1.538.26a2.608,2.608,0,0,1,.123-.783,2.835,2.835,0,0,1,.352-.735,2.913,2.913,0,0,1,.567-.622,2.7,2.7,0,0,1,.769-.444,2.906,2.906,0,0,1-1.012-.913,2.158,2.158,0,0,1-.376-1.234,2.379,2.379,0,0,1,.786-1.791,2.67,2.67,0,0,1,.875-.523,3.268,3.268,0,0,1,2.194,0,2.717,2.717,0,0,1,.875.526,2.363,2.363,0,0,1,.574.793,2.4,2.4,0,0,1,.205.991,2.158,2.158,0,0,1-.376,1.234,2.943,2.943,0,0,1-1,.913,2.681,2.681,0,0,1,.759.444,2.956,2.956,0,0,1,.564.622,2.835,2.835,0,0,1,.352.735,2.608,2.608,0,0,1,.123.783,2.911,2.911,0,0,1-.232,1.176,2.627,2.627,0,0,1-.653.913,3.014,3.014,0,0,1-1,.591,3.756,3.756,0,0,1-1.289.212,3.706,3.706,0,0,1-1.278-.212,3.06,3.06,0,0,1-1-.591,2.645,2.645,0,0,1-.66-.913A2.875,2.875,0,0,1,29.121,12.266Zm1.217-.1a2.316,2.316,0,0,0,.14.827,1.783,1.783,0,0,0,.4.629,1.731,1.731,0,0,0,.622.4,2.247,2.247,0,0,0,.81.14,2.134,2.134,0,0,0,.793-.144,1.848,1.848,0,0,0,.625-.4,1.813,1.813,0,0,0,.41-.629,2.2,2.2,0,0,0,.147-.82,2.1,2.1,0,0,0-.14-.769,1.925,1.925,0,0,0-.4-.632,1.879,1.879,0,0,0-.622-.431,2.024,2.024,0,0,0-.813-.157,2.046,2.046,0,0,0-.783.147,1.873,1.873,0,0,0-.622.41,1.9,1.9,0,0,0-.414.629A2.092,2.092,0,0,0,30.338,12.17Zm.349-4.546a1.627,1.627,0,0,0,.991,1.514,1.615,1.615,0,0,0,1.261,0,1.634,1.634,0,0,0,.516-.352,1.706,1.706,0,0,0,.349-.52,1.579,1.579,0,0,0,.13-.639,1.676,1.676,0,0,0-.126-.656,1.611,1.611,0,0,0-1.5-.991,1.631,1.631,0,0,0-.66.13,1.594,1.594,0,0,0-.513.352,1.539,1.539,0,0,0-.332.523A1.767,1.767,0,0,0,30.687,7.624Zm10.644.144a2.027,2.027,0,0,0-.14-.786,1.522,1.522,0,0,0-.954-.889,2.235,2.235,0,0,0-.711-.109,2.352,2.352,0,0,0-.643.089,3.124,3.124,0,0,0-.612.246,3.764,3.764,0,0,0-.574.376,4.148,4.148,0,0,0-.516.485v-1.2a3.352,3.352,0,0,1,1.056-.7,3.719,3.719,0,0,1,1.425-.243,3.441,3.441,0,0,1,1.114.174,2.555,2.555,0,0,1,.889.509,2.354,2.354,0,0,1,.591.827,2.79,2.79,0,0,1,.215,1.128,3.868,3.868,0,0,1-.133,1.053,3.256,3.256,0,0,1-.4.889,4.288,4.288,0,0,1-.68.8,9.635,9.635,0,0,1-.964.779q-.69.492-1.138.841a5.031,5.031,0,0,0-.711.653,1.894,1.894,0,0,0-.369.608,2.127,2.127,0,0,0-.106.7h4.881v1H36.8v-.485a4.045,4.045,0,0,1,.137-1.107,2.876,2.876,0,0,1,.451-.909,5.046,5.046,0,0,1,.824-.861q.509-.431,1.248-.971a7.887,7.887,0,0,0,.892-.731,3.8,3.8,0,0,0,.578-.7,2.5,2.5,0,0,0,.311-.708A3.051,3.051,0,0,0,41.33,7.768Zm6.986,3.773H44.584v-.882h3.732Zm7.506.465a3.3,3.3,0,0,1-.246,1.3,2.84,2.84,0,0,1-.7,1,3.137,3.137,0,0,1-1.1.643,4.291,4.291,0,0,1-1.429.226,3.947,3.947,0,0,1-2.03-.41V13.571a3.733,3.733,0,0,0,2.044.643,2.766,2.766,0,0,0,.96-.157,2.134,2.134,0,0,0,.728-.437,1.873,1.873,0,0,0,.461-.677,2.291,2.291,0,0,0,.161-.868,1.86,1.86,0,0,0-.643-1.5,2.818,2.818,0,0,0-1.866-.543q-.2,0-.417.007t-.437.017q-.219.01-.427.024t-.379.034L50.839,5.2h4.532V6.209H51.81l-.2,2.878q.219-.014.465-.024t.438-.01a4.4,4.4,0,0,1,1.395.205,2.955,2.955,0,0,1,1.042.584,2.451,2.451,0,0,1,.649.93A3.27,3.27,0,0,1,55.822,12.006Zm1.538.26a2.608,2.608,0,0,1,.123-.783,2.835,2.835,0,0,1,.352-.735,2.913,2.913,0,0,1,.567-.622,2.7,2.7,0,0,1,.769-.444,2.906,2.906,0,0,1-1.012-.913,2.158,2.158,0,0,1-.376-1.234,2.379,2.379,0,0,1,.786-1.791,2.67,2.67,0,0,1,.875-.523,3.268,3.268,0,0,1,2.194,0,2.717,2.717,0,0,1,.875.526,2.363,2.363,0,0,1,.574.793,2.4,2.4,0,0,1,.205.991,2.158,2.158,0,0,1-.376,1.234,2.943,2.943,0,0,1-1,.913,2.681,2.681,0,0,1,.759.444,2.956,2.956,0,0,1,.564.622,2.835,2.835,0,0,1,.352.735,2.608,2.608,0,0,1,.123.783,2.911,2.911,0,0,1-.232,1.176,2.627,2.627,0,0,1-.653.913,3.014,3.014,0,0,1-1,.591,3.756,3.756,0,0,1-1.289.212,3.706,3.706,0,0,1-1.278-.212,3.06,3.06,0,0,1-1-.591,2.645,2.645,0,0,1-.66-.913A2.875,2.875,0,0,1,57.36,12.266Zm1.217-.1a2.316,2.316,0,0,0,.14.827,1.783,1.783,0,0,0,.4.629,1.731,1.731,0,0,0,.622.4,2.247,2.247,0,0,0,.81.14,2.134,2.134,0,0,0,.793-.144,1.848,1.848,0,0,0,.625-.4,1.813,1.813,0,0,0,.41-.629,2.2,2.2,0,0,0,.147-.82,2.1,2.1,0,0,0-.14-.769,1.925,1.925,0,0,0-.4-.632,1.879,1.879,0,0,0-.622-.431,2.024,2.024,0,0,0-.813-.157,2.046,2.046,0,0,0-.783.147,1.873,1.873,0,0,0-.622.41,1.9,1.9,0,0,0-.414.629A2.092,2.092,0,0,0,58.577,12.17Zm.349-4.546a1.627,1.627,0,0,0,.991,1.514,1.615,1.615,0,0,0,1.261,0,1.634,1.634,0,0,0,.516-.352,1.706,1.706,0,0,0,.349-.52,1.579,1.579,0,0,0,.13-.639,1.676,1.676,0,0,0-.126-.656,1.611,1.611,0,0,0-1.5-.991,1.631,1.631,0,0,0-.66.13,1.594,1.594,0,0,0-.513.352,1.539,1.539,0,0,0-.332.523A1.767,1.767,0,0,0,58.926,7.624Zm11.881,4.6a2.858,2.858,0,0,1-.25,1.207,2.664,2.664,0,0,1-.7.93,3.25,3.25,0,0,1-1.09.6,4.41,4.41,0,0,1-1.4.212,4.072,4.072,0,0,1-2.229-.533v-1.2a3.571,3.571,0,0,0,2.27.779,3.084,3.084,0,0,0,.926-.13,2.077,2.077,0,0,0,.711-.376,1.67,1.67,0,0,0,.458-.595,1.857,1.857,0,0,0,.161-.786q0-1.921-2.734-1.921H66.11v-.95h.772q2.42,0,2.42-1.8,0-1.668-1.846-1.668a3.143,3.143,0,0,0-1.948.7V5.594a4.259,4.259,0,0,1,2.229-.561,3.424,3.424,0,0,1,1.114.171,2.553,2.553,0,0,1,.854.479,2.121,2.121,0,0,1,.55.738,2.279,2.279,0,0,1,.195.95A2.393,2.393,0,0,1,68.5,9.859v.027a3.093,3.093,0,0,1,.923.243,2.463,2.463,0,0,1,.731.489,2.179,2.179,0,0,1,.482.708A2.259,2.259,0,0,1,70.807,12.225Zm5.749-.684H72.823v-.882h3.732Zm1.5.725a2.608,2.608,0,0,1,.123-.783,2.835,2.835,0,0,1,.352-.735,2.913,2.913,0,0,1,.567-.622,2.7,2.7,0,0,1,.769-.444,2.906,2.906,0,0,1-1.012-.913,2.158,2.158,0,0,1-.376-1.234,2.38,2.38,0,0,1,.208-1,2.4,2.4,0,0,1,.578-.793,2.67,2.67,0,0,1,.875-.523,3.268,3.268,0,0,1,2.194,0,2.717,2.717,0,0,1,.875.526,2.363,2.363,0,0,1,.574.793,2.4,2.4,0,0,1,.205.991,2.158,2.158,0,0,1-.376,1.234,2.943,2.943,0,0,1-1,.913,2.681,2.681,0,0,1,.759.444,2.956,2.956,0,0,1,.564.622,2.835,2.835,0,0,1,.352.735,2.608,2.608,0,0,1,.123.783,2.911,2.911,0,0,1-.232,1.176,2.627,2.627,0,0,1-.653.913,3.014,3.014,0,0,1-1,.591,3.756,3.756,0,0,1-1.289.212,3.706,3.706,0,0,1-1.278-.212,3.06,3.06,0,0,1-1-.591,2.645,2.645,0,0,1-.66-.913A2.875,2.875,0,0,1,78.053,12.266Zm1.217-.1a2.316,2.316,0,0,0,.14.827,1.783,1.783,0,0,0,.4.629,1.731,1.731,0,0,0,.622.4,2.247,2.247,0,0,0,.81.14,2.134,2.134,0,0,0,.793-.144,1.848,1.848,0,0,0,.625-.4,1.813,1.813,0,0,0,.41-.629,2.2,2.2,0,0,0,.147-.82,2.1,2.1,0,0,0-.14-.769,1.925,1.925,0,0,0-.4-.632,1.879,1.879,0,0,0-.622-.431,2.024,2.024,0,0,0-.813-.157,2.046,2.046,0,0,0-.783.147,1.873,1.873,0,0,0-.622.41,1.9,1.9,0,0,0-.414.629A2.092,2.092,0,0,0,79.27,12.17Zm.349-4.546a1.627,1.627,0,0,0,.991,1.514,1.615,1.615,0,0,0,1.261,0,1.634,1.634,0,0,0,.516-.352,1.706,1.706,0,0,0,.349-.52,1.579,1.579,0,0,0,.13-.639,1.676,1.676,0,0,0-.126-.656,1.611,1.611,0,0,0-1.5-.991,1.631,1.631,0,0,0-.66.13,1.594,1.594,0,0,0-.513.352,1.539,1.539,0,0,0-.332.523A1.767,1.767,0,0,0,79.618,7.624ZM85.6,12.266a2.608,2.608,0,0,1,.123-.783,2.835,2.835,0,0,1,.352-.735,2.913,2.913,0,0,1,.567-.622,2.7,2.7,0,0,1,.769-.444A2.906,2.906,0,0,1,86.4,8.769a2.158,2.158,0,0,1-.376-1.234,2.38,2.38,0,0,1,.208-1,2.4,2.4,0,0,1,.578-.793,2.67,2.67,0,0,1,.875-.523,3.268,3.268,0,0,1,2.194,0,2.717,2.717,0,0,1,.875.526,2.363,2.363,0,0,1,.574.793,2.4,2.4,0,0,1,.205.991,2.158,2.158,0,0,1-.376,1.234,2.943,2.943,0,0,1-1,.913,2.681,2.681,0,0,1,.759.444,2.956,2.956,0,0,1,.564.622,2.835,2.835,0,0,1,.352.735,2.608,2.608,0,0,1,.123.783,2.911,2.911,0,0,1-.232,1.176,2.627,2.627,0,0,1-.653.913,3.014,3.014,0,0,1-1,.591,3.756,3.756,0,0,1-1.289.212,3.706,3.706,0,0,1-1.278-.212,3.06,3.06,0,0,1-1-.591,2.645,2.645,0,0,1-.66-.913A2.875,2.875,0,0,1,85.6,12.266Zm1.217-.1a2.316,2.316,0,0,0,.14.827,1.783,1.783,0,0,0,.4.629,1.731,1.731,0,0,0,.622.4,2.247,2.247,0,0,0,.81.14,2.134,2.134,0,0,0,.793-.144,1.848,1.848,0,0,0,.625-.4,1.813,1.813,0,0,0,.41-.629,2.2,2.2,0,0,0,.147-.82,2.1,2.1,0,0,0-.14-.769,1.925,1.925,0,0,0-.4-.632,1.879,1.879,0,0,0-.622-.431,2.024,2.024,0,0,0-.813-.157,2.046,2.046,0,0,0-.783.147,1.873,1.873,0,0,0-.622.41,1.9,1.9,0,0,0-.414.629A2.092,2.092,0,0,0,86.816,12.17Zm.349-4.546a1.627,1.627,0,0,0,.991,1.514,1.615,1.615,0,0,0,1.261,0,1.634,1.634,0,0,0,.516-.352,1.706,1.706,0,0,0,.349-.52,1.579,1.579,0,0,0,.13-.639,1.676,1.676,0,0,0-.126-.656,1.611,1.611,0,0,0-1.5-.991,1.631,1.631,0,0,0-.66.13,1.594,1.594,0,0,0-.513.352,1.539,1.539,0,0,0-.332.523A1.767,1.767,0,0,0,87.165,7.624ZM99.5,10.058a9.63,9.63,0,0,1-.222,2.181,5.081,5.081,0,0,1-.643,1.6,2.892,2.892,0,0,1-1.032.991,2.826,2.826,0,0,1-1.391.338,2.639,2.639,0,0,1-1.316-.325,2.758,2.758,0,0,1-.974-.947,4.8,4.8,0,0,1-.6-1.528,9.447,9.447,0,0,1-.205-2.075,10.694,10.694,0,0,1,.215-2.27,5.191,5.191,0,0,1,.632-1.651,2.814,2.814,0,0,1,1.036-1,2.908,2.908,0,0,1,1.418-.338Q99.5,5.033,99.5,10.058Zm-1.148.109q0-4.184-1.989-4.184-2.1,0-2.1,4.259,0,3.972,2.058,3.972Q98.355,14.214,98.355,10.167Zm8.627-4.32q-.226.39-.543.971t-.673,1.306q-.355.725-.725,1.559t-.69,1.723q-.321.889-.564,1.8A13.4,13.4,0,0,0,103.435,15h-1.2a13.631,13.631,0,0,1,.379-1.788q.256-.913.581-1.791t.687-1.692q.362-.813.7-1.5t.625-1.207q.284-.523.455-.817h-4.915V5.2h6.234Z" transform="translate(101 177)" fill="#3d3d3d"/>
        </g>
      </g>
      <rect id="Divider_-_column_header" data-name="Divider - column header" width="350" height="1" transform="translate(620 216)" fill="#cbcbd2"/>
      <g id="Column_header" data-name="Column header" transform="translate(30 106.5)">
        <g id="phone" transform="translate(662 63.5)">
          <rect id="Clickable_area" data-name="Clickable area" width="179" height="46" fill="#fff"/>
          <g id="Sort" transform="translate(57 4)">
            <ellipse id="Ellipse_2069" data-name="Ellipse 2069" cx="16" cy="19.5" rx="16" ry="19.5" fill="none"/>
            <g id="Sort-2" data-name="Sort" transform="translate(8 9.738)">
              <g id="Group_13118" data-name="Group 13118">
                <rect id="Rectangle_6828" data-name="Rectangle 6828" width="15.953" height="15.953" transform="translate(0 0.024)" fill="none"/>
                <g id="Group_13117" data-name="Group 13117" transform="translate(2.968)">
                  <path id="Path_8841" data-name="Path 8841" d="M5.751,6.369a.266.266,0,0,0,.4,0L9.473,3.046,12.8,6.369a.266.266,0,0,0,.4,0l1.2-1.2a.266.266,0,0,0,0-.4L9.673.055a.266.266,0,0,0-.4,0L4.555,4.84a.266.266,0,0,0,0,.4Z" transform="translate(-4.465 0.035)" fill="#afafbb"/>
                  <path id="Path_8842" data-name="Path 8842" d="M13.2,14.355a.266.266,0,0,0-.4,0L9.473,17.678,6.15,14.355a.266.266,0,0,0-.4,0l-1.2,1.2a.266.266,0,0,0,0,.4l4.719,4.719a.266.266,0,0,0,.4,0l4.719-4.719a.266.266,0,0,0,0-.4Z" transform="translate(-4.465 -4.759)" fill="#afafbb"/>
                </g>
              </g>
            </g>
          </g>
          <path id="Path_102276" data-name="Path 102276" d="M2.83-3.555V0H1.21V-9.8H4.184A3.939,3.939,0,0,1,6.8-9.017,2.741,2.741,0,0,1,7.731-6.8a3.06,3.06,0,0,1-.971,2.338,3.686,3.686,0,0,1-2.625.909Zm0-4.908v3.582H3.883a2.328,2.328,0,0,0,1.593-.485,1.732,1.732,0,0,0,.547-1.367q0-1.729-2.01-1.729ZM15.436,0H13.85V-3.828q0-2.078-1.388-2.078a1.451,1.451,0,0,0-1.176.6,2.394,2.394,0,0,0-.479,1.538V0H9.215V-10.363h1.593v4.525h.027A2.5,2.5,0,0,1,13.1-7.164q2.331,0,2.331,2.851Zm5.031.164a3.47,3.47,0,0,1-2.587-.981,3.544,3.544,0,0,1-.967-2.6A3.687,3.687,0,0,1,17.92-6.173a3.708,3.708,0,0,1,2.717-.991,3.358,3.358,0,0,1,2.557.964,3.723,3.723,0,0,1,.916,2.673,3.669,3.669,0,0,1-.988,2.683A3.548,3.548,0,0,1,20.467.164ZM20.542-5.9a1.81,1.81,0,0,0-1.47.649,2.719,2.719,0,0,0-.54,1.791,2.561,2.561,0,0,0,.547,1.733,1.837,1.837,0,0,0,1.463.632,1.743,1.743,0,0,0,1.439-.622,2.754,2.754,0,0,0,.5-1.771,2.8,2.8,0,0,0-.5-1.784A1.734,1.734,0,0,0,20.542-5.9ZM31.958,0H30.372V-3.944q0-1.962-1.388-1.962a1.515,1.515,0,0,0-1.2.543,2.016,2.016,0,0,0-.472,1.371V0H25.724V-7h1.593v1.162h.027a2.5,2.5,0,0,1,2.27-1.326,2.114,2.114,0,0,1,1.743.742,3.33,3.33,0,0,1,.6,2.143Zm7.861-3.069H35.048a2.017,2.017,0,0,0,.6,1.5,2.225,2.225,0,0,0,1.569.526,3.459,3.459,0,0,0,2.058-.67V-.437a4.7,4.7,0,0,1-2.529.6A3.131,3.131,0,0,1,34.32-.79a3.814,3.814,0,0,1-.878-2.683,3.73,3.73,0,0,1,.967-2.663,3.164,3.164,0,0,1,2.4-1.029,2.759,2.759,0,0,1,2.222.923,3.832,3.832,0,0,1,.786,2.563ZM38.288-4.19a2.044,2.044,0,0,0-.4-1.33A1.348,1.348,0,0,0,36.791-6a1.539,1.539,0,0,0-1.159.5,2.28,2.28,0,0,0-.584,1.306Z" transform="translate(15 26)" fill="#3d3d3d"/>
        </g>
        <g id="email_address" data-name="email address" transform="translate(590.023 63.5)">
          <rect id="Clickable_area-2" data-name="Clickable area" width="72" height="46" transform="translate(-0.023)" fill="#fff"/>
        </g>
        <g id="phone-2" data-name="phone" transform="translate(841 63.5)">
          <rect id="Clickable_area-3" data-name="Clickable area" width="99" height="46" fill="#fff"/>
          <path id="Path_102275" data-name="Path 102275" d="M9.263,0H7.479L6.6-2.5H2.741L1.894,0H.116L3.787-9.8H5.619Zm-3.1-3.821-1.36-3.91a4.631,4.631,0,0,1-.13-.615H4.648a4,4,0,0,1-.137.615L3.165-3.821Zm9.276,3.5a3.911,3.911,0,0,1-1.989.485A3.369,3.369,0,0,1,10.938-.81,3.451,3.451,0,0,1,9.98-3.336a3.8,3.8,0,0,1,1.029-2.779,3.678,3.678,0,0,1,2.751-1.049,4.016,4.016,0,0,1,1.688.335v1.477A2.557,2.557,0,0,0,13.891-5.9a2.166,2.166,0,0,0-1.647.68A2.487,2.487,0,0,0,11.6-3.438a2.371,2.371,0,0,0,.6,1.716,2.148,2.148,0,0,0,1.624.629A2.537,2.537,0,0,0,15.442-1.7Zm5.264.246a2.748,2.748,0,0,1-1.224.232q-2.037,0-2.037-1.955V-5.756H16.276V-7h1.169V-8.62l1.586-.451V-7h1.675v1.244H19.031v3.5a1.379,1.379,0,0,0,.226.889.936.936,0,0,0,.752.267,1.09,1.09,0,0,0,.7-.232ZM22.873-8.47a.953.953,0,0,1-.667-.253.832.832,0,0,1-.277-.643.854.854,0,0,1,.277-.649.939.939,0,0,1,.667-.26.969.969,0,0,1,.684.26.849.849,0,0,1,.28.649.837.837,0,0,1-.28.632A.962.962,0,0,1,22.873-8.47ZM23.659,0H22.073V-7h1.586Zm5.175.164a3.47,3.47,0,0,1-2.587-.981,3.544,3.544,0,0,1-.967-2.6,3.687,3.687,0,0,1,1.008-2.755A3.708,3.708,0,0,1,29-7.164a3.358,3.358,0,0,1,2.557.964,3.723,3.723,0,0,1,.916,2.673A3.669,3.669,0,0,1,31.49-.844,3.548,3.548,0,0,1,28.834.164ZM28.909-5.9a1.81,1.81,0,0,0-1.47.649,2.719,2.719,0,0,0-.54,1.791,2.561,2.561,0,0,0,.547,1.733,1.837,1.837,0,0,0,1.463.632,1.743,1.743,0,0,0,1.439-.622,2.754,2.754,0,0,0,.5-1.771,2.8,2.8,0,0,0-.5-1.784A1.734,1.734,0,0,0,28.909-5.9ZM40.325,0H38.739V-3.944q0-1.962-1.388-1.962a1.515,1.515,0,0,0-1.2.543,2.016,2.016,0,0,0-.472,1.371V0H34.091V-7h1.593v1.162h.027a2.5,2.5,0,0,1,2.27-1.326,2.114,2.114,0,0,1,1.743.742,3.33,3.33,0,0,1,.6,2.143Z" transform="translate(15 26)" fill="#3d3d3d"/>
        </g>
      </g>
      <g id="Table_header" data-name="Table header" transform="translate(-51 47)">
        <path id="BG_-_table_header" data-name="BG - table header" d="M2,0H348a2,2,0,0,1,2,2V60a0,0,0,0,1,0,0H0a0,0,0,0,1,0,0V2A2,2,0,0,1,2,0Z" transform="translate(671 63)" fill="#fafafa"/>
        <path id="_of_items" data-name="# of items" d="M5.678-2.566a2.828,2.828,0,0,1-.211,1.113,2.434,2.434,0,0,1-.6.855,2.689,2.689,0,0,1-.94.551A3.678,3.678,0,0,1,2.7.146,3.383,3.383,0,0,1,.961-.205v-1.02a3.2,3.2,0,0,0,1.752.551,2.371,2.371,0,0,0,.823-.135,1.829,1.829,0,0,0,.624-.375,1.606,1.606,0,0,0,.4-.58,1.964,1.964,0,0,0,.138-.744,1.594,1.594,0,0,0-.551-1.286,2.415,2.415,0,0,0-1.6-.466q-.17,0-.357.006l-.375.015q-.187.009-.366.021t-.325.029L1.406-8.4H5.291v.867H2.238l-.17,2.467q.187-.012.4-.021T2.842-5.1a3.771,3.771,0,0,1,1.2.176,2.533,2.533,0,0,1,.894.5,2.1,2.1,0,0,1,.557.8A2.8,2.8,0,0,1,5.678-2.566Zm6.768-1.67a8.254,8.254,0,0,1-.19,1.869A4.355,4.355,0,0,1,11.7-.993a2.479,2.479,0,0,1-.885.85,2.422,2.422,0,0,1-1.192.29A2.262,2.262,0,0,1,8.5-.132a2.364,2.364,0,0,1-.835-.812,4.113,4.113,0,0,1-.516-1.31,8.1,8.1,0,0,1-.176-1.778,9.166,9.166,0,0,1,.185-1.945A4.45,4.45,0,0,1,7.7-7.392a2.412,2.412,0,0,1,.888-.861A2.492,2.492,0,0,1,9.8-8.543Q12.445-8.543,12.445-4.236Zm-.984.094q0-3.586-1.705-3.586-1.8,0-1.8,3.65,0,3.4,1.764,3.4Q11.461-.674,11.461-4.143ZM22.049,0h-.961V-.949h-.023A1.973,1.973,0,0,1,19.213.141q-2.145,0-2.145-2.555V-6h.955v3.434q0,1.9,1.453,1.9a1.47,1.47,0,0,0,1.157-.519,1.984,1.984,0,0,0,.454-1.356V-6h.961Zm1.576-.217V-1.248a2.844,2.844,0,0,0,1.729.58q1.266,0,1.266-.844a.732.732,0,0,0-.108-.407,1.08,1.08,0,0,0-.293-.3,2.255,2.255,0,0,0-.434-.231q-.249-.1-.536-.214a6.9,6.9,0,0,1-.7-.319,2.115,2.115,0,0,1-.5-.363,1.352,1.352,0,0,1-.3-.46,1.627,1.627,0,0,1-.1-.6,1.434,1.434,0,0,1,.193-.747,1.715,1.715,0,0,1,.516-.545,2.4,2.4,0,0,1,.735-.331,3.262,3.262,0,0,1,.853-.111,3.442,3.442,0,0,1,1.395.27V-4.9A2.718,2.718,0,0,0,25.8-5.332a1.781,1.781,0,0,0-.486.062,1.191,1.191,0,0,0-.372.173.8.8,0,0,0-.24.267.7.7,0,0,0-.085.343.822.822,0,0,0,.085.393.864.864,0,0,0,.249.281,1.9,1.9,0,0,0,.4.223q.234.1.533.217a7.421,7.421,0,0,1,.715.313,2.452,2.452,0,0,1,.539.363,1.42,1.42,0,0,1,.343.466,1.5,1.5,0,0,1,.12.627,1.478,1.478,0,0,1-.2.773,1.682,1.682,0,0,1-.524.545,2.4,2.4,0,0,1-.756.322,3.732,3.732,0,0,1-.9.105A3.4,3.4,0,0,1,23.625-.217ZM33.9-2.76H29.666a2.244,2.244,0,0,0,.539,1.547,1.858,1.858,0,0,0,1.418.545,2.948,2.948,0,0,0,1.863-.668v.9a3.482,3.482,0,0,1-2.092.574,2.536,2.536,0,0,1-2-.817,3.346,3.346,0,0,1-.727-2.3,3.281,3.281,0,0,1,.794-2.282,2.546,2.546,0,0,1,1.972-.882,2.256,2.256,0,0,1,1.822.762A3.176,3.176,0,0,1,33.9-3.264Zm-.984-.814a1.955,1.955,0,0,0-.4-1.295,1.368,1.368,0,0,0-1.1-.463,1.552,1.552,0,0,0-1.154.486,2.207,2.207,0,0,0-.586,1.271Zm5.566-1.453a1.175,1.175,0,0,0-.727-.193,1.226,1.226,0,0,0-1.028.58,2.682,2.682,0,0,0-.413,1.582V0h-.961V-6h.961v1.236h.023a2.1,2.1,0,0,1,.627-.987,1.43,1.43,0,0,1,.943-.354,1.569,1.569,0,0,1,.574.082Zm.68,4.811V-1.248a2.844,2.844,0,0,0,1.729.58q1.266,0,1.266-.844a.732.732,0,0,0-.108-.407,1.08,1.08,0,0,0-.293-.3,2.255,2.255,0,0,0-.434-.231q-.249-.1-.536-.214a6.9,6.9,0,0,1-.7-.319,2.115,2.115,0,0,1-.5-.363,1.352,1.352,0,0,1-.3-.46,1.627,1.627,0,0,1-.1-.6,1.434,1.434,0,0,1,.193-.747,1.715,1.715,0,0,1,.516-.545,2.4,2.4,0,0,1,.735-.331,3.262,3.262,0,0,1,.853-.111,3.442,3.442,0,0,1,1.395.27V-4.9a2.718,2.718,0,0,0-1.523-.434,1.781,1.781,0,0,0-.486.062,1.191,1.191,0,0,0-.372.173.8.8,0,0,0-.24.267.7.7,0,0,0-.085.343.822.822,0,0,0,.085.393.864.864,0,0,0,.249.281,1.9,1.9,0,0,0,.4.223q.234.1.533.217a7.421,7.421,0,0,1,.715.313,2.452,2.452,0,0,1,.539.363,1.42,1.42,0,0,1,.343.466,1.5,1.5,0,0,1,.12.627,1.478,1.478,0,0,1-.2.773,1.682,1.682,0,0,1-.524.545,2.4,2.4,0,0,1-.756.322,3.732,3.732,0,0,1-.9.105A3.4,3.4,0,0,1,39.164-.217Z" transform="translate(954 98)" fill="#9494a4"/>
      </g>
      <rect id="Rectangle_10511" data-name="Rectangle 10511" width="400" height="76" transform="translate(696 110) rotate(90)" fill="url(#linear-gradient)"/>
    </g>
    <path id="Path_102490" data-name="Path 102490" d="M0,0H1V400H0Z" transform="translate(365 30)" fill="#17987c"/>
  </g>
</svg>
