<svg xmlns="http://www.w3.org/2000/svg" xmlns:xlink="http://www.w3.org/1999/xlink" width="1101" height="225" viewBox="0 0 1101 225">
  <defs>
    <filter id="Rectangle_10084" x="76.5" y="26.5" width="949" height="174" filterUnits="userSpaceOnUse">
      <feOffset dy="1" input="SourceAlpha"/>
      <feGaussianBlur stdDeviation="1.5" result="blur"/>
      <feFlood flood-opacity="0.161"/>
      <feComposite operator="in" in2="blur"/>
      <feComposite in="SourceGraphic"/>
    </filter>
    <clipPath id="clip-table-searching-noresults">
      <rect width="1101" height="225"/>
    </clipPath>
  </defs>
  <g id="table-searching-noresults" clip-path="url(#clip-table-searching-noresults)">
    <rect width="1101" height="225" fill="#fafafa"/>
    <g id="Group_267080" data-name="Group 267080" transform="translate(0 -48)">
      <g transform="matrix(1, 0, 0, 1, 0, 48)" filter="url(#Rectangle_10084)">
        <rect id="Rectangle_10084-2" data-name="Rectangle 10084" width="940" height="165" rx="2" transform="translate(81 30)" fill="#fff"/>
      </g>
      <path id="Path_101605" data-name="Path 101605" d="M9.522,0H7.745L3.063-7.205a3.2,3.2,0,0,1-.294-.567H2.728a10.092,10.092,0,0,1,.055,1.347V0H1.21V-9.8H3.1L7.629-2.769q.287.438.369.6h.027a8.71,8.71,0,0,1-.068-1.319V-9.8H9.522Zm7.622,0H15.606V-1.094h-.027A2.316,2.316,0,0,1,13.453.164,2.239,2.239,0,0,1,11.836-.4a1.961,1.961,0,0,1-.584-1.483q0-1.982,2.283-2.311l2.078-.294q0-1.5-1.422-1.5a3.378,3.378,0,0,0-2.256.861V-6.508a4.919,4.919,0,0,1,2.557-.656,2.326,2.326,0,0,1,2.652,2.611ZM15.613-3.438l-1.47.205a2.33,2.33,0,0,0-1.029.332.969.969,0,0,0-.345.851.932.932,0,0,0,.318.728,1.231,1.231,0,0,0,.851.284,1.57,1.57,0,0,0,1.2-.509,1.806,1.806,0,0,0,.475-1.282ZM29.545,0H27.959V-3.814a3.091,3.091,0,0,0-.311-1.593A1.144,1.144,0,0,0,26.6-5.9a1.265,1.265,0,0,0-1.056.622,2.538,2.538,0,0,0-.434,1.49V0H23.516V-3.944q0-1.955-1.381-1.955a1.246,1.246,0,0,0-1.056.588,2.592,2.592,0,0,0-.414,1.524V0H19.079V-7h1.586v1.107h.027A2.425,2.425,0,0,1,22.9-7.164a2.082,2.082,0,0,1,1.268.4,1.992,1.992,0,0,1,.742,1.049,2.5,2.5,0,0,1,2.324-1.449q2.311,0,2.311,2.851Zm7.861-3.069H32.635a2.017,2.017,0,0,0,.6,1.5,2.225,2.225,0,0,0,1.569.526,3.459,3.459,0,0,0,2.058-.67V-.437a4.7,4.7,0,0,1-2.529.6A3.131,3.131,0,0,1,31.907-.79a3.814,3.814,0,0,1-.878-2.683A3.73,3.73,0,0,1,32-6.135a3.164,3.164,0,0,1,2.4-1.029,2.759,2.759,0,0,1,2.222.923,3.832,3.832,0,0,1,.786,2.563ZM35.875-4.19a2.044,2.044,0,0,0-.4-1.33A1.348,1.348,0,0,0,34.378-6a1.539,1.539,0,0,0-1.159.5,2.28,2.28,0,0,0-.584,1.306Z" transform="translate(99.79 160.803)" fill="#3d3d3d"/>
      <path id="Path_101609" data-name="Path 101609" d="M8.046-.41A5.943,5.943,0,0,1,5.291.164,4.5,4.5,0,0,1,1.873-1.183,4.907,4.907,0,0,1,.588-4.717a5.146,5.146,0,0,1,1.446-3.8A4.946,4.946,0,0,1,5.688-9.967a5.988,5.988,0,0,1,2.358.4V-7.95a4.208,4.208,0,0,0-2.187-.588A3.433,3.433,0,0,0,3.278-7.52,3.742,3.742,0,0,0,2.29-4.8a3.568,3.568,0,0,0,.923,2.581,3.212,3.212,0,0,0,2.427.96,4.345,4.345,0,0,0,2.406-.656Zm2.481-8.06a.953.953,0,0,1-.667-.253.832.832,0,0,1-.277-.643.854.854,0,0,1,.277-.649.939.939,0,0,1,.667-.26.969.969,0,0,1,.684.26.849.849,0,0,1,.28.649.837.837,0,0,1-.28.632A.962.962,0,0,1,10.527-8.47ZM11.313,0H9.728V-7h1.586Zm5.763-.075a2.748,2.748,0,0,1-1.224.232q-2.037,0-2.037-1.955V-5.756H12.646V-7h1.169V-8.62L15.4-9.071V-7h1.675v1.244H15.4v3.5a1.379,1.379,0,0,0,.226.889.936.936,0,0,0,.752.267,1.09,1.09,0,0,0,.7-.232ZM24.507-7,21.349,1.121q-.984,2.174-2.762,2.174a3.311,3.311,0,0,1-.834-.089V1.887a2.218,2.218,0,0,0,.684.123,1.411,1.411,0,0,0,1.326-.875l.472-1.148L17.452-7h1.757l1.668,5.086q.027.1.123.506h.034q.034-.157.123-.492L22.907-7Z" transform="translate(314 161.274)" fill="#3d3d3d"/>
      <rect id="Rectangle_10086" data-name="Rectangle 10086" width="940" height="1" transform="translate(81 177)" fill="#cbcbd2"/>
      <path id="Path_101621" data-name="Path 101621" d="M6.713,0H1.21V-9.8H6.494v1.381H2.837v2.775h3.37v1.374H2.837v2.9H6.713ZM18.744,0H17.158V-3.814a3.091,3.091,0,0,0-.311-1.593A1.144,1.144,0,0,0,15.8-5.9a1.265,1.265,0,0,0-1.056.622,2.538,2.538,0,0,0-.434,1.49V0H12.715V-3.944q0-1.955-1.381-1.955a1.246,1.246,0,0,0-1.056.588,2.592,2.592,0,0,0-.414,1.524V0H8.278V-7H9.864v1.107h.027A2.425,2.425,0,0,1,12.1-7.164a2.082,2.082,0,0,1,1.268.4,1.992,1.992,0,0,1,.742,1.049,2.5,2.5,0,0,1,2.324-1.449q2.311,0,2.311,2.851Zm7.308,0H24.514V-1.094h-.027A2.316,2.316,0,0,1,22.36.164,2.239,2.239,0,0,1,20.744-.4a1.961,1.961,0,0,1-.584-1.483q0-1.982,2.283-2.311l2.078-.294q0-1.5-1.422-1.5a3.378,3.378,0,0,0-2.256.861V-6.508A4.919,4.919,0,0,1,23.4-7.164a2.326,2.326,0,0,1,2.652,2.611ZM24.521-3.438l-1.47.205a2.33,2.33,0,0,0-1.029.332.969.969,0,0,0-.345.851.932.932,0,0,0,.318.728,1.231,1.231,0,0,0,.851.284,1.57,1.57,0,0,0,1.2-.509,1.806,1.806,0,0,0,.475-1.282ZM28.786-8.47a.953.953,0,0,1-.667-.253.832.832,0,0,1-.277-.643.854.854,0,0,1,.277-.649.939.939,0,0,1,.667-.26.969.969,0,0,1,.684.26.849.849,0,0,1,.28.649.837.837,0,0,1-.28.632A.962.962,0,0,1,28.786-8.47ZM29.572,0H27.986V-7h1.586Zm3.664,0H31.644V-10.363h1.593ZM44.522,0H42.984V-1.094h-.027A2.316,2.316,0,0,1,40.831.164,2.239,2.239,0,0,1,39.214-.4,1.961,1.961,0,0,1,38.63-1.88q0-1.982,2.283-2.311l2.078-.294q0-1.5-1.422-1.5a3.378,3.378,0,0,0-2.256.861V-6.508a4.919,4.919,0,0,1,2.557-.656,2.326,2.326,0,0,1,2.652,2.611ZM42.991-3.438l-1.47.205a2.33,2.33,0,0,0-1.029.332.969.969,0,0,0-.345.851.932.932,0,0,0,.318.728,1.231,1.231,0,0,0,.851.284,1.57,1.57,0,0,0,1.2-.509,1.806,1.806,0,0,0,.475-1.282ZM52.821,0H51.235V-1.189h-.027A2.53,2.53,0,0,1,48.85.164a2.546,2.546,0,0,1-2.068-.94,3.9,3.9,0,0,1-.776-2.56,4.251,4.251,0,0,1,.858-2.782A2.808,2.808,0,0,1,49.15-7.164a2.19,2.19,0,0,1,2.058,1.135h.027v-4.334h1.586ZM51.256-3.2v-.916a1.785,1.785,0,0,0-.485-1.265,1.619,1.619,0,0,0-1.237-.52,1.666,1.666,0,0,0-1.4.663A2.955,2.955,0,0,0,47.626-3.4a2.648,2.648,0,0,0,.489,1.685,1.59,1.59,0,0,0,1.316.619,1.646,1.646,0,0,0,1.319-.6A2.253,2.253,0,0,0,51.256-3.2Zm10,3.2H59.671V-1.189h-.027A2.53,2.53,0,0,1,57.285.164a2.546,2.546,0,0,1-2.068-.94,3.9,3.9,0,0,1-.776-2.56A4.251,4.251,0,0,1,55.3-6.118a2.808,2.808,0,0,1,2.287-1.046,2.19,2.19,0,0,1,2.058,1.135h.027v-4.334h1.586ZM59.691-3.2v-.916a1.785,1.785,0,0,0-.485-1.265,1.619,1.619,0,0,0-1.237-.52,1.666,1.666,0,0,0-1.4.663A2.955,2.955,0,0,0,56.062-3.4a2.648,2.648,0,0,0,.489,1.685,1.59,1.59,0,0,0,1.316.619,1.646,1.646,0,0,0,1.319-.6A2.253,2.253,0,0,0,59.691-3.2Zm7.7-2.29a1.315,1.315,0,0,0-.827-.226,1.416,1.416,0,0,0-1.176.636,2.843,2.843,0,0,0-.472,1.729V0H63.328V-7h1.586v1.442h.027a2.438,2.438,0,0,1,.714-1.152,1.612,1.612,0,0,1,1.077-.414,1.337,1.337,0,0,1,.656.13Zm6.925,2.42H69.542a2.017,2.017,0,0,0,.6,1.5,2.225,2.225,0,0,0,1.569.526,3.459,3.459,0,0,0,2.058-.67V-.437a4.7,4.7,0,0,1-2.529.6A3.131,3.131,0,0,1,68.814-.79a3.814,3.814,0,0,1-.878-2.683A3.73,3.73,0,0,1,68.9-6.135a3.164,3.164,0,0,1,2.4-1.029,2.759,2.759,0,0,1,2.222.923,3.832,3.832,0,0,1,.786,2.563ZM72.782-4.19a2.044,2.044,0,0,0-.4-1.33A1.348,1.348,0,0,0,71.285-6a1.539,1.539,0,0,0-1.159.5,2.28,2.28,0,0,0-.584,1.306Zm2.6,3.972v-1.47a3.164,3.164,0,0,0,1.962.677q1.436,0,1.436-.848a.668.668,0,0,0-.123-.407,1.175,1.175,0,0,0-.332-.3,2.607,2.607,0,0,0-.492-.232q-.284-.1-.632-.232a6.694,6.694,0,0,1-.776-.362,2.344,2.344,0,0,1-.574-.434,1.639,1.639,0,0,1-.345-.55,2.026,2.026,0,0,1-.116-.718,1.659,1.659,0,0,1,.239-.892,2.079,2.079,0,0,1,.643-.649,3.081,3.081,0,0,1,.916-.4,4.194,4.194,0,0,1,1.06-.133,4.817,4.817,0,0,1,1.736.294v1.388a2.927,2.927,0,0,0-1.7-.506,2.214,2.214,0,0,0-.543.062,1.4,1.4,0,0,0-.414.171.841.841,0,0,0-.267.263.628.628,0,0,0-.1.338.723.723,0,0,0,.1.383.869.869,0,0,0,.284.277,2.451,2.451,0,0,0,.451.219q.263.1.6.215a8.839,8.839,0,0,1,.81.376,2.737,2.737,0,0,1,.612.434,1.7,1.7,0,0,1,.39.561,1.9,1.9,0,0,1,.137.755A1.727,1.727,0,0,1,80.11-1a2.051,2.051,0,0,1-.656.656,3.072,3.072,0,0,1-.947.386,4.919,4.919,0,0,1-1.131.126A4.767,4.767,0,0,1,75.387-.219Zm6.036,0v-1.47a3.164,3.164,0,0,0,1.962.677q1.436,0,1.436-.848a.668.668,0,0,0-.123-.407,1.175,1.175,0,0,0-.332-.3,2.607,2.607,0,0,0-.492-.232q-.284-.1-.632-.232a6.694,6.694,0,0,1-.776-.362,2.344,2.344,0,0,1-.574-.434,1.639,1.639,0,0,1-.345-.55,2.026,2.026,0,0,1-.116-.718,1.659,1.659,0,0,1,.239-.892,2.079,2.079,0,0,1,.643-.649,3.081,3.081,0,0,1,.916-.4,4.194,4.194,0,0,1,1.06-.133,4.817,4.817,0,0,1,1.736.294v1.388a2.927,2.927,0,0,0-1.7-.506,2.214,2.214,0,0,0-.543.062,1.4,1.4,0,0,0-.414.171.841.841,0,0,0-.267.263.628.628,0,0,0-.1.338.723.723,0,0,0,.1.383.869.869,0,0,0,.284.277,2.451,2.451,0,0,0,.451.219q.263.1.6.215a8.839,8.839,0,0,1,.81.376,2.737,2.737,0,0,1,.612.434,1.7,1.7,0,0,1,.39.561,1.9,1.9,0,0,1,.137.755,1.727,1.727,0,0,1-.246.93,2.051,2.051,0,0,1-.656.656,3.072,3.072,0,0,1-.947.386,4.919,4.919,0,0,1-1.131.126A4.767,4.767,0,0,1,81.423-.219Z" transform="translate(577.5 161.363)" fill="#31313a"/>
      <path id="Path_101626" data-name="Path 101626" d="M2.83-3.555V0H1.21V-9.8H4.184A3.939,3.939,0,0,1,6.8-9.017,2.741,2.741,0,0,1,7.731-6.8a3.06,3.06,0,0,1-.971,2.338,3.686,3.686,0,0,1-2.625.909Zm0-4.908v3.582H3.883a2.328,2.328,0,0,0,1.593-.485,1.732,1.732,0,0,0,.547-1.367q0-1.729-2.01-1.729ZM15.436,0H13.85V-3.828q0-2.078-1.388-2.078a1.451,1.451,0,0,0-1.176.6,2.394,2.394,0,0,0-.479,1.538V0H9.215V-10.363h1.593v4.525h.027A2.5,2.5,0,0,1,13.1-7.164q2.331,0,2.331,2.851Zm5.031.164a3.47,3.47,0,0,1-2.587-.981,3.544,3.544,0,0,1-.967-2.6A3.687,3.687,0,0,1,17.92-6.173a3.708,3.708,0,0,1,2.717-.991,3.358,3.358,0,0,1,2.557.964,3.723,3.723,0,0,1,.916,2.673,3.669,3.669,0,0,1-.988,2.683A3.548,3.548,0,0,1,20.467.164ZM20.542-5.9a1.81,1.81,0,0,0-1.47.649,2.719,2.719,0,0,0-.54,1.791,2.561,2.561,0,0,0,.547,1.733,1.837,1.837,0,0,0,1.463.632,1.743,1.743,0,0,0,1.439-.622,2.754,2.754,0,0,0,.5-1.771,2.8,2.8,0,0,0-.5-1.784A1.734,1.734,0,0,0,20.542-5.9ZM31.958,0H30.372V-3.944q0-1.962-1.388-1.962a1.515,1.515,0,0,0-1.2.543,2.016,2.016,0,0,0-.472,1.371V0H25.724V-7h1.593v1.162h.027a2.5,2.5,0,0,1,2.27-1.326,2.114,2.114,0,0,1,1.743.742,3.33,3.33,0,0,1,.6,2.143Zm7.861-3.069H35.048a2.017,2.017,0,0,0,.6,1.5,2.225,2.225,0,0,0,1.569.526,3.459,3.459,0,0,0,2.058-.67V-.437a4.7,4.7,0,0,1-2.529.6A3.131,3.131,0,0,1,34.32-.79a3.814,3.814,0,0,1-.878-2.683,3.73,3.73,0,0,1,.967-2.663,3.164,3.164,0,0,1,2.4-1.029,2.759,2.759,0,0,1,2.222.923,3.832,3.832,0,0,1,.786,2.563ZM38.288-4.19a2.044,2.044,0,0,0-.4-1.33A1.348,1.348,0,0,0,36.791-6a1.539,1.539,0,0,0-1.159.5,2.28,2.28,0,0,0-.584,1.306Z" transform="translate(919.086 161.363)" fill="#31313a"/>
      <path id="Rectangle_10085" data-name="Rectangle 10085" d="M2,0H938a2,2,0,0,1,2,2V60a0,0,0,0,1,0,0H0a0,0,0,0,1,0,0V2A2,2,0,0,1,2,0Z" transform="translate(81 78)" fill="#fafafa"/>
      <g id="Search_Input" data-name="Search Input" transform="translate(101 87)">
        <g id="Rectangle_298" data-name="Rectangle 298" fill="#fff" stroke="#f4f4f6" stroke-width="1">
          <rect width="300" height="42" rx="4" stroke="none"/>
          <rect x="0.5" y="0.5" width="299" height="41" rx="3.5" fill="none"/>
        </g>
        <path id="Path_102349" data-name="Path 102349" d="M6.248-7,3.9-3.459,6.207,0H4.9L3.527-2.27Q3.4-2.481,3.22-2.8H3.192q-.034.062-.321.533L1.47,0H.178L2.563-3.432.28-7H1.586L2.939-4.607q.15.267.294.547h.027L5.011-7Zm6.884,0L9.912,1.121q-.861,2.174-2.42,2.174a2.565,2.565,0,0,1-.731-.089v-1a2.078,2.078,0,0,0,.663.123A1.374,1.374,0,0,0,8.7,1.313L9.256-.014,6.521-7H7.766L9.659-1.613q.034.1.144.533h.041q.034-.164.137-.52L11.97-7Zm6.084.321L15.073-.957h4.1V0H13.426V-.349l4.143-5.694H13.815V-7h5.4Z" transform="translate(45 27)" fill="#242424"/>
        <path id="Path_458" data-name="Path 458" d="M303.8,258.3l-5-5a6.354,6.354,0,0,0,1.1-4.9,6.471,6.471,0,0,0-5.6-5.3,6.53,6.53,0,0,0-2,12.9,6.914,6.914,0,0,0,4.9-1.1l5,5a1.088,1.088,0,0,0,1.5,0A1.222,1.222,0,0,0,303.8,258.3Zm-14.7-9.5a4.458,4.458,0,0,1,3.7-3.7,4.57,4.57,0,0,1,5.2,5.2,4.458,4.458,0,0,1-3.7,3.7A4.609,4.609,0,0,1,289.1,248.8Z" transform="translate(-271.953 -231.052)" fill="#4e92df"/>
        <path id="Path_459" data-name="Path 459" d="M284.1,240h24v24h-24Z" transform="translate(-17 -231)" fill="none"/>
        <rect id="Rectangle_243" data-name="Rectangle 243" width="24" height="24" transform="translate(267 9)" fill="none"/>
      </g>
      <path id="Path_102350" data-name="Path 102350" d="M5.977-4.236a8.254,8.254,0,0,1-.19,1.869A4.355,4.355,0,0,1,5.235-.993a2.479,2.479,0,0,1-.885.85,2.422,2.422,0,0,1-1.192.29A2.262,2.262,0,0,1,2.03-.132,2.364,2.364,0,0,1,1.2-.943,4.113,4.113,0,0,1,.68-2.253,8.1,8.1,0,0,1,.5-4.031,9.166,9.166,0,0,1,.688-5.977,4.45,4.45,0,0,1,1.23-7.392a2.412,2.412,0,0,1,.888-.861,2.492,2.492,0,0,1,1.216-.29Q5.977-8.543,5.977-4.236Zm-.984.094q0-3.586-1.705-3.586-1.8,0-1.8,3.65,0,3.4,1.764,3.4Q4.992-.674,4.992-4.143ZM15.58,0h-.961V-.949H14.6A1.973,1.973,0,0,1,12.744.141Q10.6.141,10.6-2.414V-6h.955v3.434q0,1.9,1.453,1.9a1.47,1.47,0,0,0,1.157-.519,1.984,1.984,0,0,0,.454-1.356V-6h.961Zm1.576-.217V-1.248a2.844,2.844,0,0,0,1.729.58q1.266,0,1.266-.844a.732.732,0,0,0-.108-.407,1.08,1.08,0,0,0-.293-.3,2.255,2.255,0,0,0-.434-.231q-.249-.1-.536-.214a6.9,6.9,0,0,1-.7-.319,2.115,2.115,0,0,1-.5-.363,1.352,1.352,0,0,1-.3-.46,1.627,1.627,0,0,1-.1-.6,1.434,1.434,0,0,1,.193-.747,1.715,1.715,0,0,1,.516-.545,2.4,2.4,0,0,1,.735-.331,3.262,3.262,0,0,1,.853-.111,3.442,3.442,0,0,1,1.395.27V-4.9a2.718,2.718,0,0,0-1.523-.434,1.781,1.781,0,0,0-.486.062,1.191,1.191,0,0,0-.372.173.8.8,0,0,0-.24.267.7.7,0,0,0-.085.343.822.822,0,0,0,.085.393.864.864,0,0,0,.249.281,1.9,1.9,0,0,0,.4.223q.234.1.533.217a7.421,7.421,0,0,1,.715.313,2.452,2.452,0,0,1,.539.363,1.42,1.42,0,0,1,.343.466,1.5,1.5,0,0,1,.12.627,1.478,1.478,0,0,1-.2.773,1.682,1.682,0,0,1-.524.545,2.4,2.4,0,0,1-.756.322,3.732,3.732,0,0,1-.9.105A3.4,3.4,0,0,1,17.156-.217ZM27.434-2.76H23.2a2.244,2.244,0,0,0,.539,1.547,1.858,1.858,0,0,0,1.418.545,2.948,2.948,0,0,0,1.863-.668v.9a3.482,3.482,0,0,1-2.092.574,2.536,2.536,0,0,1-2-.817,3.346,3.346,0,0,1-.727-2.3A3.281,3.281,0,0,1,23-5.259a2.546,2.546,0,0,1,1.972-.882,2.256,2.256,0,0,1,1.822.762,3.176,3.176,0,0,1,.645,2.115Zm-.984-.814a1.955,1.955,0,0,0-.4-1.295,1.368,1.368,0,0,0-1.1-.463,1.552,1.552,0,0,0-1.154.486,2.207,2.207,0,0,0-.586,1.271Zm5.566-1.453a1.175,1.175,0,0,0-.727-.193,1.226,1.226,0,0,0-1.028.58,2.682,2.682,0,0,0-.413,1.582V0h-.961V-6h.961v1.236h.023a2.1,2.1,0,0,1,.627-.987,1.43,1.43,0,0,1,.943-.354,1.569,1.569,0,0,1,.574.082ZM32.7-.217V-1.248a2.844,2.844,0,0,0,1.729.58q1.266,0,1.266-.844a.732.732,0,0,0-.108-.407,1.08,1.08,0,0,0-.293-.3,2.255,2.255,0,0,0-.434-.231q-.249-.1-.536-.214a6.9,6.9,0,0,1-.7-.319,2.115,2.115,0,0,1-.5-.363,1.352,1.352,0,0,1-.3-.46,1.627,1.627,0,0,1-.1-.6,1.434,1.434,0,0,1,.193-.747,1.715,1.715,0,0,1,.516-.545,2.4,2.4,0,0,1,.735-.331A3.262,3.262,0,0,1,35-6.141a3.442,3.442,0,0,1,1.395.27V-4.9a2.718,2.718,0,0,0-1.523-.434,1.781,1.781,0,0,0-.486.062,1.191,1.191,0,0,0-.372.173.8.8,0,0,0-.24.267.7.7,0,0,0-.085.343.822.822,0,0,0,.085.393.864.864,0,0,0,.249.281,1.9,1.9,0,0,0,.4.223q.234.1.533.217a7.421,7.421,0,0,1,.715.313,2.452,2.452,0,0,1,.539.363,1.42,1.42,0,0,1,.343.466,1.5,1.5,0,0,1,.12.627,1.478,1.478,0,0,1-.2.773,1.682,1.682,0,0,1-.524.545A2.4,2.4,0,0,1,35.2.035a3.732,3.732,0,0,1-.9.105A3.4,3.4,0,0,1,32.7-.217Z" transform="translate(961 113)" fill="#9494a4"/>
      <path id="Path_102352" data-name="Path 102352" d="M9.311,0H7.294L4.225-6.228q-.041-.082-.089-.191t-.1-.222q-.048-.113-.089-.215a1.454,1.454,0,0,1-.062-.185H3.849q-.034.253-.075.567a5.749,5.749,0,0,1-.116.622L2.406,0H.335L2.406-9.8H4.594l2.939,6q.034.075.085.181t.1.219q.051.113.1.222a1.464,1.464,0,0,1,.065.191h.027q.007-.1.021-.229t.034-.256q.021-.13.044-.253t.044-.219L9.3-9.8h2.085Zm9.5-4.225a5.434,5.434,0,0,1-.1,1,4.911,4.911,0,0,1-.3,1,4.419,4.419,0,0,1-.53.926,3.425,3.425,0,0,1-.786.762,3.864,3.864,0,0,1-1.066.516,4.563,4.563,0,0,1-1.377.191A3.721,3.721,0,0,1,13.3-.055a2.588,2.588,0,0,1-.954-.622,2.528,2.528,0,0,1-.561-.94A3.623,3.623,0,0,1,11.6-2.789a5.338,5.338,0,0,1,.1-1.029,4.716,4.716,0,0,1,.318-1.008,4.3,4.3,0,0,1,.55-.913,3.565,3.565,0,0,1,.8-.745,3.914,3.914,0,0,1,1.063-.5,4.548,4.548,0,0,1,1.343-.185,3.723,3.723,0,0,1,1.3.208,2.594,2.594,0,0,1,.95.595,2.55,2.55,0,0,1,.588.93A3.467,3.467,0,0,1,18.813-4.225ZM16.632-4.2a1.949,1.949,0,0,0-.068-.53,1.225,1.225,0,0,0-.2-.417.961.961,0,0,0-.325-.273.953.953,0,0,0-.444-.1,1.275,1.275,0,0,0-.769.246,2.11,2.11,0,0,0-.571.636,3.262,3.262,0,0,0-.355.875,3.937,3.937,0,0,0-.123.971,1.445,1.445,0,0,0,.291.964.945.945,0,0,0,.755.342,1.321,1.321,0,0,0,.783-.239,2.005,2.005,0,0,0,.567-.625,3.124,3.124,0,0,0,.345-.872A4.184,4.184,0,0,0,16.632-4.2Zm12.134-.813h-.014a1.88,1.88,0,0,0-.366-.137,1.556,1.556,0,0,0-.414-.062,1.449,1.449,0,0,0-.725.181,1.953,1.953,0,0,0-.567.489,2.871,2.871,0,0,0-.414.721,5.482,5.482,0,0,0-.27.878L25.382,0H23.194l.957-4.464q.068-.321.133-.663t.123-.673q.058-.332.1-.639T24.582-7h2.14q-.021.2-.044.41t-.048.407q-.024.195-.048.352l-.038.246h.027a4.111,4.111,0,0,1,.892-1.186,1.619,1.619,0,0,1,1.083-.4,1.773,1.773,0,0,1,.349.034q.171.034.308.055Zm7.1-.185a2.158,2.158,0,0,1-.229.991,1.984,1.984,0,0,1-.766.779,4.558,4.558,0,0,1-1.425.516,11.832,11.832,0,0,1-2.215.208.232.232,0,0,0-.014.072v.065a1.374,1.374,0,0,0,.068.424.967.967,0,0,0,.236.383,1.228,1.228,0,0,0,.441.277,1.906,1.906,0,0,0,.684.106,3.567,3.567,0,0,0,.537-.044,4.844,4.844,0,0,0,.591-.13,5.982,5.982,0,0,0,.6-.205,4.567,4.567,0,0,0,.55-.263L34.59-.4a4.533,4.533,0,0,1-.485.212,5.846,5.846,0,0,1-.591.185,5.751,5.751,0,0,1-.677.13A5.555,5.555,0,0,1,32.1.171a3.583,3.583,0,0,1-1.36-.232,2.6,2.6,0,0,1-.933-.625,2.436,2.436,0,0,1-.537-.919A3.609,3.609,0,0,1,29.1-2.728a4.882,4.882,0,0,1,.3-1.7,4.306,4.306,0,0,1,.848-1.415,4.069,4.069,0,0,1,1.326-.967A4.079,4.079,0,0,1,33.3-7.171a3.7,3.7,0,0,1,1.176.164,2.242,2.242,0,0,1,.793.441,1.705,1.705,0,0,1,.451.632A1.954,1.954,0,0,1,35.868-5.2Zm-2.058.027a.539.539,0,0,0-.188-.42.77.77,0,0,0-.53-.167,1.345,1.345,0,0,0-.578.13,1.785,1.785,0,0,0-.506.359,2.18,2.18,0,0,0-.393.547,2.829,2.829,0,0,0-.246.687,4.275,4.275,0,0,0,1.835-.28A.924.924,0,0,0,33.811-5.168Zm7.738-.082a3.429,3.429,0,0,0-.335-.15q-.191-.075-.407-.137t-.441-.1a2.444,2.444,0,0,0-.437-.041,1.068,1.068,0,0,0-.714.191A.6.6,0,0,0,39-5.024a.57.57,0,0,0,.212.458,3,3,0,0,0,.561.355,6.767,6.767,0,0,1,.718.4A2.332,2.332,0,0,1,41-3.377a1.638,1.638,0,0,1,.308.537,2.105,2.105,0,0,1,.1.687,2.184,2.184,0,0,1-.171.834,1.986,1.986,0,0,1-.554.749,2.906,2.906,0,0,1-1.008.537,4.974,4.974,0,0,1-1.535.205q-.26,0-.554-.027T37.01.068q-.287-.048-.55-.116a3.922,3.922,0,0,1-.468-.15l.321-1.647a4.418,4.418,0,0,0,.41.191,5.242,5.242,0,0,0,.5.174,5.111,5.111,0,0,0,.543.13,3.072,3.072,0,0,0,.554.051,1.32,1.32,0,0,0,.762-.178.565.565,0,0,0,.25-.485.628.628,0,0,0-.191-.455,2.341,2.341,0,0,0-.663-.414,5.434,5.434,0,0,1-.687-.383,2.433,2.433,0,0,1-.5-.437,1.646,1.646,0,0,1-.308-.533,2.005,2.005,0,0,1-.1-.663,2.3,2.3,0,0,1,.154-.8,2,2,0,0,1,.509-.752,2.7,2.7,0,0,1,.94-.554,4.19,4.19,0,0,1,1.439-.215q.26,0,.533.024t.533.065q.26.041.492.1t.41.109Zm7.745,2.926q-.062.308-.116.639t-.1.639q-.041.308-.068.578T48.973,0H46.785q.021-.2.044-.4t.051-.386q.027-.181.048-.325t.027-.205h-.027a5.014,5.014,0,0,1-.571.608,3.929,3.929,0,0,1-.636.468,3.25,3.25,0,0,1-.684.3,2.4,2.4,0,0,1-.714.109,1.709,1.709,0,0,1-1.316-.482,1.919,1.919,0,0,1-.448-1.357,2.413,2.413,0,0,1,.021-.273q.021-.171.051-.355t.062-.359q.031-.174.058-.3L43.606-7H45.78l-.841,3.951q-.027.109-.051.232t-.041.239q-.017.116-.027.212a1.5,1.5,0,0,0-.01.15.691.691,0,0,0,.164.482.613.613,0,0,0,.479.181,1.279,1.279,0,0,0,.663-.191,2.3,2.3,0,0,0,.581-.5,3.36,3.36,0,0,0,.448-.69,3.309,3.309,0,0,0,.27-.766l.7-3.3H50.3ZM54.141-.062q-.123.034-.284.068t-.342.065Q53.334.1,53.139.12t-.386.017a2.271,2.271,0,0,1-.783-.12,1.436,1.436,0,0,1-.537-.335,1.311,1.311,0,0,1-.311-.513,2.054,2.054,0,0,1-.1-.653q0-.15.017-.335t.044-.386q.027-.2.065-.41t.079-.4q.021-.089.092-.434T51.5-4.3q.109-.506.239-1.125t.27-1.265q.14-.646.27-1.265t.239-1.125q.109-.506.181-.851t.092-.434h2.188l-1.552,7.3q-.055.239-.116.537a2.6,2.6,0,0,0-.062.516.393.393,0,0,0,.164.362.694.694,0,0,0,.376.1,1.762,1.762,0,0,0,.359-.038,1.889,1.889,0,0,0,.332-.1q-.089.41-.171.81T54.141-.062Zm6.091-5.346H58.6l-.561,2.618Q58.023-2.7,58-2.6t-.038.205q-.017.1-.031.195a1.084,1.084,0,0,0-.014.154.533.533,0,0,0,.137.4.643.643,0,0,0,.451.13,1.352,1.352,0,0,0,.208-.021q.126-.021.26-.055t.256-.072q.123-.038.2-.065L59.1-.123a2.986,2.986,0,0,1-.3.1q-.178.048-.39.089T57.965.13a3.776,3.776,0,0,1-.448.027,2.449,2.449,0,0,1-.868-.133,1.389,1.389,0,0,1-.557-.369A1.355,1.355,0,0,1,55.8-.9a2.6,2.6,0,0,1-.085-.684q0-.109.014-.253t.038-.294q.024-.15.055-.3t.058-.284l.561-2.693h-1.08L55.74-7h1.032l.355-1.641L59.4-9.2,58.946-7h1.661Zm5.53.157a3.43,3.43,0,0,0-.335-.15q-.191-.075-.407-.137t-.441-.1a2.445,2.445,0,0,0-.437-.041,1.068,1.068,0,0,0-.714.191.6.6,0,0,0-.215.465.57.57,0,0,0,.212.458,3,3,0,0,0,.561.355,6.767,6.767,0,0,1,.718.4,2.332,2.332,0,0,1,.513.438,1.638,1.638,0,0,1,.308.537,2.105,2.105,0,0,1,.1.687,2.185,2.185,0,0,1-.171.834,1.985,1.985,0,0,1-.554.749,2.906,2.906,0,0,1-1.008.537,4.974,4.974,0,0,1-1.535.205q-.26,0-.554-.027T61.223.068q-.287-.048-.55-.116A3.922,3.922,0,0,1,60.2-.2l.321-1.647a4.418,4.418,0,0,0,.41.191,5.242,5.242,0,0,0,.5.174,5.111,5.111,0,0,0,.543.13,3.072,3.072,0,0,0,.554.051,1.32,1.32,0,0,0,.762-.178.565.565,0,0,0,.25-.485.628.628,0,0,0-.191-.455,2.341,2.341,0,0,0-.663-.414A5.434,5.434,0,0,1,62-3.213a2.433,2.433,0,0,1-.5-.437,1.646,1.646,0,0,1-.308-.533,2.005,2.005,0,0,1-.1-.663,2.3,2.3,0,0,1,.154-.8,2,2,0,0,1,.509-.752,2.7,2.7,0,0,1,.94-.554,4.19,4.19,0,0,1,1.439-.215q.26,0,.533.024t.533.065q.26.041.492.1t.41.109ZM76.6-8.682a3.516,3.516,0,0,0-.42-.133,1.817,1.817,0,0,0-.448-.058.993.993,0,0,0-.745.267,1.737,1.737,0,0,0-.39.834L74.43-7h1.593l-.335,1.593H74.061L72.4,2.324h-2.16l1.654-7.731H70.7L71.053-7h1.176l.226-1a3.232,3.232,0,0,1,1.07-1.9,3.32,3.32,0,0,1,2.123-.622,4.559,4.559,0,0,1,.7.055,3.87,3.87,0,0,1,.584.13ZM83.05-4.225a5.434,5.434,0,0,1-.1,1,4.911,4.911,0,0,1-.3,1,4.419,4.419,0,0,1-.53.926,3.425,3.425,0,0,1-.786.762,3.864,3.864,0,0,1-1.066.516,4.563,4.563,0,0,1-1.377.191,3.721,3.721,0,0,1-1.357-.226,2.588,2.588,0,0,1-.954-.622,2.528,2.528,0,0,1-.561-.94,3.623,3.623,0,0,1-.185-1.172,5.338,5.338,0,0,1,.1-1.029,4.716,4.716,0,0,1,.318-1.008,4.3,4.3,0,0,1,.55-.913,3.565,3.565,0,0,1,.8-.745,3.914,3.914,0,0,1,1.063-.5,4.548,4.548,0,0,1,1.343-.185,3.723,3.723,0,0,1,1.3.208,2.594,2.594,0,0,1,.95.595,2.55,2.55,0,0,1,.588.93A3.467,3.467,0,0,1,83.05-4.225ZM80.869-4.2a1.949,1.949,0,0,0-.068-.53,1.225,1.225,0,0,0-.2-.417.961.961,0,0,0-.325-.273.953.953,0,0,0-.444-.1,1.275,1.275,0,0,0-.769.246,2.11,2.11,0,0,0-.571.636,3.262,3.262,0,0,0-.355.875,3.937,3.937,0,0,0-.123.971,1.445,1.445,0,0,0,.291.964.945.945,0,0,0,.755.342,1.321,1.321,0,0,0,.783-.239,2.005,2.005,0,0,0,.567-.625,3.124,3.124,0,0,0,.345-.872A4.184,4.184,0,0,0,80.869-4.2Zm9.789,1.873q-.062.308-.116.639t-.1.639q-.041.308-.068.578T90.337,0H88.149q.021-.2.044-.4t.051-.386q.027-.181.048-.325t.027-.205h-.027a5.014,5.014,0,0,1-.571.608,3.929,3.929,0,0,1-.636.468,3.25,3.25,0,0,1-.684.3,2.4,2.4,0,0,1-.714.109,1.709,1.709,0,0,1-1.316-.482,1.919,1.919,0,0,1-.448-1.357,2.413,2.413,0,0,1,.021-.273q.021-.171.051-.355t.062-.359q.031-.174.058-.3L84.971-7h2.174L86.3-3.049q-.027.109-.051.232t-.041.239q-.017.116-.027.212a1.5,1.5,0,0,0-.01.15.691.691,0,0,0,.164.482.613.613,0,0,0,.479.181,1.279,1.279,0,0,0,.663-.191,2.3,2.3,0,0,0,.581-.5,3.36,3.36,0,0,0,.448-.69,3.309,3.309,0,0,0,.27-.766l.7-3.3h2.181Zm9.058-3.008a2.413,2.413,0,0,1-.021.273q-.021.171-.051.355t-.065.359q-.034.174-.062.3L98.663,0H96.5l.841-3.992q.041-.219.082-.451A2.216,2.216,0,0,0,97.46-4.8a.775.775,0,0,0-.167-.523.626.626,0,0,0-.5-.195,1.177,1.177,0,0,0-.584.174,2.431,2.431,0,0,0-.571.461,3.206,3.206,0,0,0-.468.66,2.815,2.815,0,0,0-.284.762L94.158,0h-2.2L93-4.8q.062-.314.123-.632t.109-.608q.048-.291.085-.54T93.372-7H95.5q-.021.191-.044.4t-.048.4q-.024.191-.044.338t-.034.208h.027a4.539,4.539,0,0,1,.54-.591,4.017,4.017,0,0,1,.639-.482,3.415,3.415,0,0,1,.7-.325,2.3,2.3,0,0,1,.725-.12,1.687,1.687,0,0,1,1.309.482A1.938,1.938,0,0,1,99.716-5.332Zm7.643,3.021q-.048.212-.092.513t-.082.625q-.038.325-.062.636T107.1,0h-2.187q0-.1.01-.256t.027-.332q.017-.171.034-.332t.024-.256h-.027a5.183,5.183,0,0,1-.441.547,2.855,2.855,0,0,1-.492.424,2.244,2.244,0,0,1-.571.277,2.2,2.2,0,0,1-.677.1,2.208,2.208,0,0,1-.906-.178,1.845,1.845,0,0,1-.68-.516,2.322,2.322,0,0,1-.427-.841,4.082,4.082,0,0,1-.147-1.145,5.121,5.121,0,0,1,.308-1.767,4.449,4.449,0,0,1,.892-1.487,4.319,4.319,0,0,1,1.425-1.025,4.571,4.571,0,0,1,1.914-.383q.273,0,.557.027t.461.062l.7-3.281h2.153Zm-1.47-3.261a2.4,2.4,0,0,0-.345-.062,3.373,3.373,0,0,0-.366-.021,2.029,2.029,0,0,0-.827.157,2.087,2.087,0,0,0-.619.414,2.446,2.446,0,0,0-.441.581,3.733,3.733,0,0,0-.284.656,3.947,3.947,0,0,0-.15.643,3.907,3.907,0,0,0-.044.543,1.9,1.9,0,0,0,.055.468,1.181,1.181,0,0,0,.161.373.747.747,0,0,0,.273.246.827.827,0,0,0,.393.089,1.1,1.1,0,0,0,.673-.222,2.173,2.173,0,0,0,.526-.581,3.888,3.888,0,0,0,.386-.807,8.19,8.19,0,0,0,.26-.9Zm5.25,4.58a1.091,1.091,0,0,1-.1.475,1.14,1.14,0,0,1-.277.369,1.216,1.216,0,0,1-.41.236,1.54,1.54,0,0,1-.509.082,1.456,1.456,0,0,1-.489-.079,1.174,1.174,0,0,1-.386-.222,1.033,1.033,0,0,1-.256-.338.985.985,0,0,1-.092-.427,1.113,1.113,0,0,1,.1-.479,1.109,1.109,0,0,1,.28-.373,1.3,1.3,0,0,1,.417-.239,1.534,1.534,0,0,1,.52-.085,1.381,1.381,0,0,1,.482.082,1.182,1.182,0,0,1,.383.226,1,1,0,0,1,.25.342A1.041,1.041,0,0,1,111.139-.991Z" transform="translate(101 205)" fill="#242424"/>
      <path id="Path_102351" data-name="Path 102351" d="M2.434,0H1.285V-9.8H2.434ZM8.107-.068A2.161,2.161,0,0,1,7.062.15Q5.223.15,5.223-1.9V-6.043H4.02V-7h1.2V-8.709l1.121-.362V-7H8.107v.957H6.344V-2.1a1.635,1.635,0,0,0,.239,1,.955.955,0,0,0,.793.3,1.179,1.179,0,0,0,.731-.232ZM18.45,0H17.329V-1.094H17.3A2.347,2.347,0,0,1,15.148.164,2.3,2.3,0,0,1,13.511-.39a1.918,1.918,0,0,1-.591-1.47q0-1.962,2.311-2.283l2.1-.294q0-1.784-1.442-1.784a3.446,3.446,0,0,0-2.283.861V-6.508a4.338,4.338,0,0,1,2.379-.656q2.468,0,2.468,2.611ZM17.329-3.541l-1.688.232a2.741,2.741,0,0,0-1.176.386,1.114,1.114,0,0,0-.4.981,1.068,1.068,0,0,0,.366.837,1.413,1.413,0,0,0,.974.325,1.8,1.8,0,0,0,1.377-.584,2.088,2.088,0,0,0,.543-1.48Zm4.382,2.529h-.027V3.22H20.563V-7h1.121v1.23h.027a2.651,2.651,0,0,1,2.42-1.395,2.563,2.563,0,0,1,2.112.94A3.893,3.893,0,0,1,27-3.705a4.339,4.339,0,0,1-.854,2.813A2.845,2.845,0,0,1,23.81.164,2.342,2.342,0,0,1,21.711-1.012Zm-.027-2.823v.978a2.081,2.081,0,0,0,.564,1.473,1.873,1.873,0,0,0,1.432.6,1.876,1.876,0,0,0,1.6-.779,3.575,3.575,0,0,0,.578-2.167,2.822,2.822,0,0,0-.54-1.832,1.787,1.787,0,0,0-1.463-.663,1.986,1.986,0,0,0-1.572.68A2.5,2.5,0,0,0,21.684-3.835Zm8.258,2.823h-.027V3.22H28.793V-7h1.121v1.23h.027a2.651,2.651,0,0,1,2.42-1.395,2.563,2.563,0,0,1,2.112.94,3.893,3.893,0,0,1,.759,2.519,4.339,4.339,0,0,1-.854,2.813A2.845,2.845,0,0,1,32.04.164,2.342,2.342,0,0,1,29.941-1.012Zm-.027-2.823v.978a2.081,2.081,0,0,0,.564,1.473,1.873,1.873,0,0,0,1.432.6,1.876,1.876,0,0,0,1.6-.779,3.575,3.575,0,0,0,.578-2.167,2.822,2.822,0,0,0-.54-1.832,1.787,1.787,0,0,0-1.463-.663,1.986,1.986,0,0,0-1.572.68A2.5,2.5,0,0,0,29.914-3.835Zm12.735.615H37.707a2.618,2.618,0,0,0,.629,1.8,2.168,2.168,0,0,0,1.654.636,3.439,3.439,0,0,0,2.174-.779V-.506a4.063,4.063,0,0,1-2.44.67A2.959,2.959,0,0,1,37.393-.79a3.9,3.9,0,0,1-.848-2.683,3.828,3.828,0,0,1,.926-2.663,2.97,2.97,0,0,1,2.3-1.029,2.632,2.632,0,0,1,2.126.889,3.705,3.705,0,0,1,.752,2.468ZM41.5-4.17a2.281,2.281,0,0,0-.468-1.511,1.6,1.6,0,0,0-1.282-.54,1.811,1.811,0,0,0-1.347.567,2.575,2.575,0,0,0-.684,1.483ZM49.355,0H48.234V-1.094h-.027A2.347,2.347,0,0,1,46.054.164,2.3,2.3,0,0,1,44.417-.39a1.918,1.918,0,0,1-.591-1.47q0-1.962,2.311-2.283l2.1-.294q0-1.784-1.442-1.784a3.446,3.446,0,0,0-2.283.861V-6.508a4.338,4.338,0,0,1,2.379-.656q2.468,0,2.468,2.611ZM48.234-3.541l-1.688.232a2.741,2.741,0,0,0-1.176.386,1.114,1.114,0,0,0-.4.981,1.068,1.068,0,0,0,.366.837,1.413,1.413,0,0,0,.974.325,1.8,1.8,0,0,0,1.377-.584,2.088,2.088,0,0,0,.543-1.48Zm6.884-2.324a1.371,1.371,0,0,0-.848-.226,1.431,1.431,0,0,0-1.2.677,3.129,3.129,0,0,0-.482,1.846V0H51.468V-7h1.121v1.442h.027a2.444,2.444,0,0,1,.731-1.152,1.668,1.668,0,0,1,1.1-.414,1.83,1.83,0,0,1,.67.1Zm.793,5.612v-1.2a3.318,3.318,0,0,0,2.017.677q1.477,0,1.477-.984a.854.854,0,0,0-.126-.475,1.26,1.26,0,0,0-.342-.345,2.631,2.631,0,0,0-.506-.27q-.291-.12-.625-.25a8.056,8.056,0,0,1-.817-.373A2.468,2.468,0,0,1,56.4-3.9a1.577,1.577,0,0,1-.355-.537,1.9,1.9,0,0,1-.12-.7,1.673,1.673,0,0,1,.226-.872,2,2,0,0,1,.6-.636,2.805,2.805,0,0,1,.858-.386,3.805,3.805,0,0,1,.995-.13,4.016,4.016,0,0,1,1.627.314v1.135a3.171,3.171,0,0,0-1.777-.506,2.078,2.078,0,0,0-.567.072,1.389,1.389,0,0,0-.434.2.932.932,0,0,0-.28.311.819.819,0,0,0-.1.4.959.959,0,0,0,.1.458,1.008,1.008,0,0,0,.291.328,2.221,2.221,0,0,0,.465.26q.273.116.622.253a8.658,8.658,0,0,1,.834.366,2.86,2.86,0,0,1,.629.424,1.656,1.656,0,0,1,.4.543,1.753,1.753,0,0,1,.14.731,1.725,1.725,0,0,1-.229.9,1.963,1.963,0,0,1-.612.636,2.8,2.8,0,0,1-.882.376,4.354,4.354,0,0,1-1.046.123A3.971,3.971,0,0,1,55.911-.253Zm13.446.185A2.161,2.161,0,0,1,68.312.15Q66.473.15,66.473-1.9V-6.043h-1.2V-7h1.2V-8.709l1.121-.362V-7h1.764v.957H67.594V-2.1a1.635,1.635,0,0,0,.239,1,.955.955,0,0,0,.793.3,1.179,1.179,0,0,0,.731-.232ZM76.665,0H75.544V-4.033q0-2.188-1.627-2.187a1.774,1.774,0,0,0-1.381.632,2.356,2.356,0,0,0-.561,1.624V0H70.854V-10.363h1.121v4.525H72a2.546,2.546,0,0,1,2.3-1.326q2.365,0,2.365,2.851ZM84.4-3.22H79.461a2.618,2.618,0,0,0,.629,1.8,2.168,2.168,0,0,0,1.654.636,3.439,3.439,0,0,0,2.174-.779V-.506a4.063,4.063,0,0,1-2.44.67A2.959,2.959,0,0,1,79.146-.79,3.9,3.9,0,0,1,78.3-3.473a3.828,3.828,0,0,1,.926-2.663,2.97,2.97,0,0,1,2.3-1.029,2.632,2.632,0,0,1,2.126.889A3.705,3.705,0,0,1,84.4-3.808Zm-1.148-.95a2.281,2.281,0,0,0-.468-1.511,1.6,1.6,0,0,0-1.282-.54,1.811,1.811,0,0,0-1.347.567,2.575,2.575,0,0,0-.684,1.483Zm6.494-1.7a1.371,1.371,0,0,0-.848-.226,1.431,1.431,0,0,0-1.2.677,3.129,3.129,0,0,0-.482,1.846V0H86.1V-7H87.22v1.442h.027a2.444,2.444,0,0,1,.731-1.152,1.668,1.668,0,0,1,1.1-.414,1.83,1.83,0,0,1,.67.1ZM96.592-3.22H91.649a2.618,2.618,0,0,0,.629,1.8,2.168,2.168,0,0,0,1.654.636,3.439,3.439,0,0,0,2.174-.779V-.506a4.063,4.063,0,0,1-2.44.67A2.959,2.959,0,0,1,91.335-.79a3.9,3.9,0,0,1-.848-2.683,3.828,3.828,0,0,1,.926-2.663,2.97,2.97,0,0,1,2.3-1.029,2.632,2.632,0,0,1,2.126.889,3.705,3.705,0,0,1,.752,2.468Zm-1.148-.95a2.281,2.281,0,0,0-.468-1.511,1.6,1.6,0,0,0-1.282-.54,1.811,1.811,0,0,0-1.347.567,2.575,2.575,0,0,0-.684,1.483ZM107.133,0h-1.121V-1.094h-.027A2.347,2.347,0,0,1,103.831.164a2.3,2.3,0,0,1-1.637-.554,1.918,1.918,0,0,1-.591-1.47q0-1.962,2.311-2.283l2.1-.294q0-1.784-1.442-1.784a3.446,3.446,0,0,0-2.283.861V-6.508a4.338,4.338,0,0,1,2.379-.656q2.468,0,2.468,2.611Zm-1.121-3.541-1.688.232a2.741,2.741,0,0,0-1.176.386,1.114,1.114,0,0,0-.4.981,1.068,1.068,0,0,0,.366.837,1.413,1.413,0,0,0,.974.325,1.8,1.8,0,0,0,1.377-.584,2.088,2.088,0,0,0,.543-1.48ZM112.9-5.865a1.371,1.371,0,0,0-.848-.226,1.431,1.431,0,0,0-1.2.677,3.129,3.129,0,0,0-.482,1.846V0h-1.121V-7h1.121v1.442h.027a2.444,2.444,0,0,1,.731-1.152,1.668,1.668,0,0,1,1.1-.414,1.83,1.83,0,0,1,.67.1Zm6.843,2.646H114.8a2.618,2.618,0,0,0,.629,1.8,2.168,2.168,0,0,0,1.654.636,3.439,3.439,0,0,0,2.174-.779V-.506a4.063,4.063,0,0,1-2.44.67,2.959,2.959,0,0,1-2.331-.954,3.9,3.9,0,0,1-.848-2.683,3.828,3.828,0,0,1,.926-2.663,2.97,2.97,0,0,1,2.3-1.029,2.632,2.632,0,0,1,2.126.889,3.705,3.705,0,0,1,.752,2.468Zm-1.148-.95a2.281,2.281,0,0,0-.468-1.511,1.6,1.6,0,0,0-1.282-.54,1.811,1.811,0,0,0-1.347.567,2.575,2.575,0,0,0-.684,1.483ZM131.079,0h-1.121V-3.992q0-2.229-1.627-2.229a1.765,1.765,0,0,0-1.391.632,2.344,2.344,0,0,0-.55,1.6V0h-1.121V-7h1.121v1.162h.027a2.526,2.526,0,0,1,2.3-1.326,2.142,2.142,0,0,1,1.757.742,3.3,3.3,0,0,1,.608,2.143Zm5.038.164a3.247,3.247,0,0,1-2.478-.981,3.634,3.634,0,0,1-.926-2.6,3.785,3.785,0,0,1,.964-2.755,3.465,3.465,0,0,1,2.6-.991,3.14,3.14,0,0,1,2.444.964,3.822,3.822,0,0,1,.878,2.673,3.761,3.761,0,0,1-.947,2.683A3.317,3.317,0,0,1,136.117.164Zm.082-6.385a2.132,2.132,0,0,0-1.709.735,3.018,3.018,0,0,0-.629,2.027A2.854,2.854,0,0,0,134.5-1.5a2.161,2.161,0,0,0,1.7.718,2.049,2.049,0,0,0,1.671-.7,3.055,3.055,0,0,0,.584-2,3.108,3.108,0,0,0-.584-2.023A2.04,2.04,0,0,0,136.2-6.221ZM150.89,0h-1.121V-1.107h-.027a2.3,2.3,0,0,1-2.16,1.271q-2.5,0-2.5-2.98V-7h1.114v4.006q0,2.215,1.7,2.215a1.715,1.715,0,0,0,1.35-.6,2.315,2.315,0,0,0,.53-1.583V-7h1.121Zm1.839-.253v-1.2a3.318,3.318,0,0,0,2.017.677q1.477,0,1.477-.984a.854.854,0,0,0-.126-.475,1.26,1.26,0,0,0-.342-.345,2.631,2.631,0,0,0-.506-.27q-.291-.12-.625-.25a8.056,8.056,0,0,1-.817-.373,2.468,2.468,0,0,1-.588-.424,1.577,1.577,0,0,1-.355-.537,1.9,1.9,0,0,1-.12-.7,1.673,1.673,0,0,1,.226-.872,2,2,0,0,1,.6-.636,2.805,2.805,0,0,1,.858-.386,3.805,3.805,0,0,1,.995-.13,4.016,4.016,0,0,1,1.627.314v1.135a3.171,3.171,0,0,0-1.777-.506,2.078,2.078,0,0,0-.567.072,1.389,1.389,0,0,0-.434.2.932.932,0,0,0-.28.311.819.819,0,0,0-.1.4.959.959,0,0,0,.1.458,1.008,1.008,0,0,0,.291.328,2.221,2.221,0,0,0,.465.26q.273.116.622.253a8.658,8.658,0,0,1,.834.366,2.86,2.86,0,0,1,.629.424,1.656,1.656,0,0,1,.4.543,1.753,1.753,0,0,1,.14.731,1.725,1.725,0,0,1-.229.9,1.963,1.963,0,0,1-.612.636,2.8,2.8,0,0,1-.882.376A4.354,4.354,0,0,1,154.6.164,3.971,3.971,0,0,1,152.729-.253Zm11.99-2.967h-4.942a2.618,2.618,0,0,0,.629,1.8,2.168,2.168,0,0,0,1.654.636,3.439,3.439,0,0,0,2.174-.779V-.506a4.063,4.063,0,0,1-2.44.67,2.959,2.959,0,0,1-2.331-.954,3.9,3.9,0,0,1-.848-2.683,3.828,3.828,0,0,1,.926-2.663,2.97,2.97,0,0,1,2.3-1.029,2.632,2.632,0,0,1,2.126.889,3.705,3.705,0,0,1,.752,2.468Zm-1.148-.95a2.281,2.281,0,0,0-.468-1.511,1.6,1.6,0,0,0-1.282-.54,1.811,1.811,0,0,0-1.347.567,2.575,2.575,0,0,0-.684,1.483Zm6.494-1.7a1.371,1.371,0,0,0-.848-.226,1.431,1.431,0,0,0-1.2.677,3.129,3.129,0,0,0-.482,1.846V0h-1.121V-7h1.121v1.442h.027a2.444,2.444,0,0,1,.731-1.152,1.668,1.668,0,0,1,1.1-.414,1.83,1.83,0,0,1,.67.1Zm.793,5.612v-1.2a3.318,3.318,0,0,0,2.017.677q1.477,0,1.477-.984a.854.854,0,0,0-.126-.475,1.26,1.26,0,0,0-.342-.345,2.631,2.631,0,0,0-.506-.27q-.291-.12-.625-.25a8.056,8.056,0,0,1-.817-.373,2.468,2.468,0,0,1-.588-.424,1.577,1.577,0,0,1-.355-.537,1.9,1.9,0,0,1-.12-.7,1.673,1.673,0,0,1,.226-.872,2,2,0,0,1,.6-.636,2.805,2.805,0,0,1,.858-.386,3.805,3.805,0,0,1,.995-.13,4.016,4.016,0,0,1,1.627.314v1.135a3.171,3.171,0,0,0-1.777-.506,2.078,2.078,0,0,0-.567.072,1.389,1.389,0,0,0-.434.2.932.932,0,0,0-.28.311.819.819,0,0,0-.1.4.959.959,0,0,0,.1.458,1.008,1.008,0,0,0,.291.328,2.221,2.221,0,0,0,.465.26q.273.116.622.253a8.658,8.658,0,0,1,.834.366,2.86,2.86,0,0,1,.629.424,1.656,1.656,0,0,1,.4.543,1.753,1.753,0,0,1,.14.731,1.725,1.725,0,0,1-.229.9,1.963,1.963,0,0,1-.612.636,2.8,2.8,0,0,1-.882.376,4.354,4.354,0,0,1-1.046.123A3.971,3.971,0,0,1,170.857-.253Zm14.971-.068a3.643,3.643,0,0,1-1.914.485A3.169,3.169,0,0,1,181.5-.81a3.53,3.53,0,0,1-.919-2.526,3.881,3.881,0,0,1,.991-2.779,3.468,3.468,0,0,1,2.646-1.049,3.682,3.682,0,0,1,1.627.342v1.148a2.85,2.85,0,0,0-1.668-.547,2.254,2.254,0,0,0-1.76.769,2.918,2.918,0,0,0-.687,2.02,2.779,2.779,0,0,0,.646,1.941,2.227,2.227,0,0,0,1.733.711,2.81,2.81,0,0,0,1.723-.608Zm4.621.485a3.247,3.247,0,0,1-2.478-.981,3.634,3.634,0,0,1-.926-2.6,3.785,3.785,0,0,1,.964-2.755,3.465,3.465,0,0,1,2.6-.991,3.14,3.14,0,0,1,2.444.964,3.822,3.822,0,0,1,.878,2.673,3.761,3.761,0,0,1-.947,2.683A3.317,3.317,0,0,1,190.449.164Zm.082-6.385a2.132,2.132,0,0,0-1.709.735,3.018,3.018,0,0,0-.629,2.027,2.854,2.854,0,0,0,.636,1.962,2.161,2.161,0,0,0,1.7.718,2.049,2.049,0,0,0,1.671-.7,3.055,3.055,0,0,0,.584-2A3.108,3.108,0,0,0,192.2-5.51,2.04,2.04,0,0,0,190.531-6.221ZM201.537,0h-1.121V-3.992q0-2.229-1.627-2.229a1.765,1.765,0,0,0-1.391.632,2.344,2.344,0,0,0-.55,1.6V0h-1.121V-7h1.121v1.162h.027a2.526,2.526,0,0,1,2.3-1.326,2.142,2.142,0,0,1,1.757.742,3.3,3.3,0,0,1,.608,2.143ZM206.9-.068a2.162,2.162,0,0,1-1.046.219q-1.839,0-1.839-2.051V-6.043h-1.2V-7h1.2V-8.709l1.121-.362V-7H206.9v.957h-1.764V-2.1a1.635,1.635,0,0,0,.239,1,.955.955,0,0,0,.793.3,1.179,1.179,0,0,0,.731-.232ZM213.4,0h-1.121V-1.094h-.027A2.347,2.347,0,0,1,210.1.164a2.3,2.3,0,0,1-1.637-.554,1.918,1.918,0,0,1-.591-1.47q0-1.962,2.311-2.283l2.1-.294q0-1.784-1.442-1.784a3.446,3.446,0,0,0-2.283.861V-6.508a4.338,4.338,0,0,1,2.379-.656q2.468,0,2.468,2.611Zm-1.121-3.541-1.688.232a2.741,2.741,0,0,0-1.176.386,1.114,1.114,0,0,0-.4.981,1.068,1.068,0,0,0,.366.837,1.413,1.413,0,0,0,.974.325,1.8,1.8,0,0,0,1.377-.584,2.088,2.088,0,0,0,.543-1.48Zm3.808-5.236a.71.71,0,0,1-.513-.205.692.692,0,0,1-.212-.52.7.7,0,0,1,.212-.523.7.7,0,0,1,.513-.208.724.724,0,0,1,.523.208.7.7,0,0,1,.215.523.693.693,0,0,1-.215.513A.718.718,0,0,1,216.091-8.777ZM216.638,0h-1.121V-7h1.121Zm8.08,0H223.6V-3.992q0-2.229-1.627-2.229a1.765,1.765,0,0,0-1.391.632,2.344,2.344,0,0,0-.55,1.6V0h-1.121V-7h1.121v1.162h.027a2.526,2.526,0,0,1,2.3-1.326,2.142,2.142,0,0,1,1.757.742,3.3,3.3,0,0,1,.608,2.143ZM227.4-8.777a.71.71,0,0,1-.513-.205.692.692,0,0,1-.212-.52.7.7,0,0,1,.212-.523.7.7,0,0,1,.513-.208.724.724,0,0,1,.523.208.7.7,0,0,1,.215.523.693.693,0,0,1-.215.513A.718.718,0,0,1,227.4-8.777ZM227.951,0H226.83V-7h1.121Zm8.08,0H234.91V-3.992q0-2.229-1.627-2.229a1.765,1.765,0,0,0-1.391.632,2.344,2.344,0,0,0-.55,1.6V0h-1.121V-7h1.121v1.162h.027a2.526,2.526,0,0,1,2.3-1.326,2.142,2.142,0,0,1,1.757.742,3.3,3.3,0,0,1,.608,2.143Zm8.087-.561q0,3.855-3.691,3.855a4.956,4.956,0,0,1-2.27-.492V1.682a4.661,4.661,0,0,0,2.256.656Q243,2.338,243-.41v-.766h-.027a2.622,2.622,0,0,1-2.406,1.34,2.628,2.628,0,0,1-2.1-.933,3.73,3.73,0,0,1-.8-2.505,4.358,4.358,0,0,1,.858-2.837,2.866,2.866,0,0,1,2.348-1.053,2.282,2.282,0,0,1,2.1,1.135H243V-7h1.121ZM243-3.165V-4.2a2,2,0,0,0-.564-1.429,1.857,1.857,0,0,0-1.4-.595,1.947,1.947,0,0,0-1.627.755,3.372,3.372,0,0,0-.588,2.116,2.894,2.894,0,0,0,.564,1.87,1.822,1.822,0,0,0,1.494.7,1.951,1.951,0,0,0,1.535-.67A2.5,2.5,0,0,0,243-3.165Zm8.2-6.638v3.056H250.2V-9.8ZM258.556-7,256.2-3.459,258.515,0h-1.306l-1.374-2.27q-.13-.212-.308-.533H255.5q-.034.062-.321.533L253.777,0h-1.292l2.386-3.432L252.588-7h1.306l1.354,2.393q.15.267.294.547h.027L257.318-7Zm6.884,0-3.22,8.121q-.861,2.174-2.42,2.174a2.565,2.565,0,0,1-.731-.089v-1a2.078,2.078,0,0,0,.663.123A1.374,1.374,0,0,0,261,1.313l.561-1.326L258.829-7h1.244l1.894,5.387q.034.1.144.533h.041q.034-.164.137-.52L264.277-7Zm6.084.321L267.381-.957h4.1V0h-5.749V-.349l4.143-5.694h-3.753V-7h5.4Zm2.42-3.124v3.056h-.991V-9.8ZM276.582.15a.726.726,0,0,1-.537-.226.743.743,0,0,1-.222-.54.754.754,0,0,1,.222-.543.72.72,0,0,1,.537-.229.739.739,0,0,1,.547.229.748.748,0,0,1,.226.543.737.737,0,0,1-.226.54A.745.745,0,0,1,276.582.15Z" transform="translate(101 224)" fill="#242424"/>
    </g>
  </g>
</svg>
