<svg xmlns="http://www.w3.org/2000/svg" xmlns:xlink="http://www.w3.org/1999/xlink" width="1000" height="556" viewBox="0 0 1000 556">
  <defs>
    <filter id="BG_-_main" x="25.5" y="394.5" width="949" height="137" filterUnits="userSpaceOnUse">
      <feOffset dy="1" input="SourceAlpha"/>
      <feGaussianBlur stdDeviation="1.5" result="blur"/>
      <feFlood flood-opacity="0.161"/>
      <feComposite operator="in" in2="blur"/>
      <feComposite in="SourceGraphic"/>
    </filter>
    <filter id="BG_-_main-2" x="25.5" y="233.5" width="949" height="137" filterUnits="userSpaceOnUse">
      <feOffset dy="1" input="SourceAlpha"/>
      <feGaussianBlur stdDeviation="1.5" result="blur-2"/>
      <feFlood flood-opacity="0.161"/>
      <feComposite operator="in" in2="blur-2"/>
      <feComposite in="SourceGraphic"/>
    </filter>
    <linearGradient id="linear-gradient" x1="0.447" y1="0.695" x2="0.447" gradientUnits="objectBoundingBox">
      <stop offset="0" stop-color="#fafafa"/>
      <stop offset="1" stop-color="#f4f4f6" stop-opacity="0"/>
    </linearGradient>
    <filter id="BG_-_main-3" x="25.5" y="72.5" width="949" height="137" filterUnits="userSpaceOnUse">
      <feOffset dy="1" input="SourceAlpha"/>
      <feGaussianBlur stdDeviation="1.5" result="blur-3"/>
      <feFlood flood-opacity="0.161"/>
      <feComposite operator="in" in2="blur-3"/>
      <feComposite in="SourceGraphic"/>
    </filter>
    <clipPath id="clip-table-tablelevelactions">
      <rect width="1000" height="556"/>
    </clipPath>
  </defs>
  <g id="table-tablelevelactions" clip-path="url(#clip-table-tablelevelactions)">
    <rect width="1000" height="556" fill="#fafafa"/>
    <g id="Table" transform="translate(30 398)">
      <g transform="matrix(1, 0, 0, 1, -30, -398)" filter="url(#BG_-_main)">
        <rect id="BG_-_main-4" data-name="BG - main" width="940" height="128" rx="2" transform="translate(30 398)" fill="#fff"/>
      </g>
      <rect id="Divider_-_column_header" data-name="Divider - column header" width="940" height="1" transform="translate(0 106)" fill="#cbcbd2"/>
      <g id="Column_header" data-name="Column header" transform="translate(0 -3.5)">
        <g id="phone" transform="translate(662 63.5)">
          <rect id="Clickable_area" data-name="Clickable area" width="179" height="46" fill="#fff"/>
          <g id="Sort" transform="translate(57 4)">
            <ellipse id="Ellipse_2069" data-name="Ellipse 2069" cx="16" cy="19.5" rx="16" ry="19.5" fill="none"/>
            <g id="Sort-2" data-name="Sort" transform="translate(8 9.738)">
              <g id="Group_13118" data-name="Group 13118">
                <rect id="Rectangle_6828" data-name="Rectangle 6828" width="15.953" height="15.953" transform="translate(0 0.024)" fill="none"/>
                <g id="Group_13117" data-name="Group 13117" transform="translate(2.968)">
                  <path id="Path_8841" data-name="Path 8841" d="M5.751,6.369a.266.266,0,0,0,.4,0L9.473,3.046,12.8,6.369a.266.266,0,0,0,.4,0l1.2-1.2a.266.266,0,0,0,0-.4L9.673.055a.266.266,0,0,0-.4,0L4.555,4.84a.266.266,0,0,0,0,.4Z" transform="translate(-4.465 0.035)" fill="#afafbb"/>
                  <path id="Path_8842" data-name="Path 8842" d="M13.2,14.355a.266.266,0,0,0-.4,0L9.473,17.678,6.15,14.355a.266.266,0,0,0-.4,0l-1.2,1.2a.266.266,0,0,0,0,.4l4.719,4.719a.266.266,0,0,0,.4,0l4.719-4.719a.266.266,0,0,0,0-.4Z" transform="translate(-4.465 -4.759)" fill="#afafbb"/>
                </g>
              </g>
            </g>
          </g>
          <text id="Phone-2" data-name="Phone" transform="translate(15 26)" fill="#3d3d3d" font-size="14" font-family="SegoeUI-Semibold, Segoe UI" font-weight="600"><tspan x="0" y="0">Phone</tspan></text>
        </g>
        <g id="email_address" data-name="email address" transform="translate(445 63.5)">
          <rect id="Clickable_area-2" data-name="Clickable area" width="217" height="46" fill="#fff"/>
          <g id="Sort-3" data-name="Sort" transform="translate(105 4)">
            <ellipse id="Ellipse_2069-2" data-name="Ellipse 2069" cx="16" cy="19.5" rx="16" ry="19.5" fill="none"/>
            <g id="Sort-4" data-name="Sort" transform="translate(8 9.75)">
              <g id="Group_13118-2" data-name="Group 13118">
                <rect id="Rectangle_6828-2" data-name="Rectangle 6828" width="15.953" height="15.953" transform="translate(0 0.024)" fill="none"/>
                <g id="Group_13117-2" data-name="Group 13117" transform="translate(2.968)">
                  <path id="Path_8841-2" data-name="Path 8841" d="M5.751,6.369a.266.266,0,0,0,.4,0L9.473,3.046,12.8,6.369a.266.266,0,0,0,.4,0l1.2-1.2a.266.266,0,0,0,0-.4L9.673.055a.266.266,0,0,0-.4,0L4.555,4.84a.266.266,0,0,0,0,.4Z" transform="translate(-4.465 0.035)" fill="#afafbb"/>
                  <path id="Path_8842-2" data-name="Path 8842" d="M13.2,14.355a.266.266,0,0,0-.4,0L9.473,17.678,6.15,14.355a.266.266,0,0,0-.4,0l-1.2,1.2a.266.266,0,0,0,0,.4l4.719,4.719a.266.266,0,0,0,.4,0l4.719-4.719a.266.266,0,0,0,0-.4Z" transform="translate(-4.465 -4.759)" fill="#afafbb"/>
                </g>
              </g>
            </g>
          </g>
          <text id="Email_address-2" data-name="Email address" transform="translate(16 26)" fill="#3d3d3d" font-size="14" font-family="SegoeUI-Semibold, Segoe UI" font-weight="600"><tspan x="0" y="0">Email address</tspan></text>
        </g>
        <g id="city" transform="translate(217 63.5)">
          <rect id="Clickable_area-3" data-name="Clickable area" width="226" height="46" fill="#fff"/>
          <g id="Sort-5" data-name="Sort" transform="translate(43 4)">
            <ellipse id="Ellipse_2069-3" data-name="Ellipse 2069" cx="16" cy="19.5" rx="16" ry="19.5" fill="none"/>
            <g id="Sort-6" data-name="Sort" transform="translate(8 9.75)">
              <g id="Group_13118-3" data-name="Group 13118">
                <rect id="Rectangle_6828-3" data-name="Rectangle 6828" width="15.953" height="15.953" transform="translate(0 0.024)" fill="none"/>
                <g id="Group_13117-3" data-name="Group 13117" transform="translate(2.968)">
                  <path id="Path_8841-3" data-name="Path 8841" d="M5.751,6.369a.266.266,0,0,0,.4,0L9.473,3.046,12.8,6.369a.266.266,0,0,0,.4,0l1.2-1.2a.266.266,0,0,0,0-.4L9.673.055a.266.266,0,0,0-.4,0L4.555,4.84a.266.266,0,0,0,0,.4Z" transform="translate(-4.465 0.035)" fill="#afafbb"/>
                  <path id="Path_8842-3" data-name="Path 8842" d="M13.2,14.355a.266.266,0,0,0-.4,0L9.473,17.678,6.15,14.355a.266.266,0,0,0-.4,0l-1.2,1.2a.266.266,0,0,0,0,.4l4.719,4.719a.266.266,0,0,0,.4,0l4.719-4.719a.266.266,0,0,0,0-.4Z" transform="translate(-4.465 -4.759)" fill="#afafbb"/>
                </g>
              </g>
            </g>
          </g>
          <text id="City-2" data-name="City" transform="translate(16 26)" fill="#3d3d3d" font-size="14" font-family="SegoeUI-Semibold, Segoe UI" font-weight="600"><tspan x="0" y="0">City</tspan></text>
        </g>
        <g id="name" transform="translate(20 63.5)">
          <rect id="Clickable_area-4" data-name="Clickable area" width="197" height="46" fill="#fff"/>
          <g id="Sort-7" data-name="Sort" transform="translate(40 4)">
            <ellipse id="Ellipse_2069-4" data-name="Ellipse 2069" cx="16" cy="19.5" rx="16" ry="19.5" fill="none"/>
            <g id="Sort-8" data-name="Sort" transform="translate(8 9.75)">
              <g id="Group_13118-4" data-name="Group 13118">
                <rect id="Rectangle_6828-4" data-name="Rectangle 6828" width="15.953" height="15.953" transform="translate(0 0.024)" fill="none"/>
                <g id="Group_13117-4" data-name="Group 13117" transform="translate(2.968)">
                  <path id="Path_8841-4" data-name="Path 8841" d="M5.751,6.369a.266.266,0,0,0,.4,0L9.473,3.046,12.8,6.369a.266.266,0,0,0,.4,0l1.2-1.2a.266.266,0,0,0,0-.4L9.673.055a.266.266,0,0,0-.4,0L4.555,4.84a.266.266,0,0,0,0,.4Z" transform="translate(-4.465 0.035)" fill="#2777d3"/>
                  <path id="Path_8842-4" data-name="Path 8842" d="M13.2,14.355a.266.266,0,0,0-.4,0L9.473,17.678,6.15,14.355a.266.266,0,0,0-.4,0l-1.2,1.2a.266.266,0,0,0,0,.4l4.719,4.719a.266.266,0,0,0,.4,0l4.719-4.719a.266.266,0,0,0,0-.4Z" transform="translate(-4.465 -4.759)" fill="#afafbb"/>
                </g>
              </g>
            </g>
          </g>
          <text id="Name-2" data-name="Name" transform="translate(0 25.8)" fill="#3d3d3d" font-size="14" font-family="SegoeUI-Semibold, Segoe UI" font-weight="600"><tspan x="0" y="0">Name</tspan></text>
        </g>
        <g id="phone-3" data-name="phone" transform="translate(-0.299 -63)">
          <rect id="Clickable_area-5" data-name="Clickable area" width="76" height="46" transform="translate(864.299 123)" fill="#fff"/>
          <text id="Action" transform="translate(879.299 152)" fill="#3d3d3d" font-size="14" font-family="SegoeUI-Semibold, Segoe UI" font-weight="600"><tspan x="0" y="0">Action</tspan></text>
        </g>
      </g>
      <g id="Table_header" data-name="Table header" transform="translate(-81 -63)">
        <path id="BG_-_table_header" data-name="BG - table header" d="M2,0H938a2,2,0,0,1,2,2V60a0,0,0,0,1,0,0H0a0,0,0,0,1,0,0V2A2,2,0,0,1,2,0Z" transform="translate(81 63)" fill="#fafafa"/>
        <text id="_of_items" data-name="# of items" transform="translate(699 98)" fill="#9494a4" font-size="12" font-family="SegoeUI, Segoe UI"><tspan x="0" y="0">50 users </tspan></text>
        <g id="Link_Icon" data-name="Link + Icon" transform="translate(407 75)">
          <rect id="BG" width="88" height="36" rx="18" fill="none"/>
          <g id="Content" transform="translate(0)">
            <text id="Filter" transform="translate(41 23)" fill="#2777d3" font-size="14" font-family="SegoeUI-Semibold, Segoe UI" font-weight="600"><tspan x="0" y="0">Filter</tspan></text>
            <g id="Filter-2" data-name="Filter" transform="translate(23 18)">
              <g id="filter-3" data-name="filter" transform="translate(-8 -8)">
                <rect id="Rectangle_6829" data-name="Rectangle 6829" width="16" height="16" fill="none"/>
                <path id="Path_8843" data-name="Path 8843" d="M13,4.333,10.006,8.181l-.281.361v4.163l-1.333.445V8.543l-.281-.361L5.118,4.333H13M14.363,3H3.754A.667.667,0,0,0,3.23,4.076L7.058,9v5.537a.333.333,0,0,0,.439.316L10.6,13.818a.667.667,0,0,0,.456-.633V9l3.83-4.924A.667.667,0,0,0,14.363,3Z" transform="translate(-1.03 -1)" fill="#2777d3"/>
              </g>
            </g>
          </g>
        </g>
        <g id="Search_Input" data-name="Search Input" transform="translate(97 72)">
          <g id="Rectangle_298" data-name="Rectangle 298" fill="#fff" stroke="#f4f4f6" stroke-width="1">
            <rect width="300" height="42" rx="4" stroke="none"/>
            <rect x="0.5" y="0.5" width="299" height="41" rx="3.5" fill="none"/>
          </g>
          <text id="Search" transform="translate(45 27)" fill="#cbcbd2" font-size="14" font-family="SegoeUI, Segoe UI"><tspan x="0" y="0">Search</tspan></text>
          <path id="Path_458" data-name="Path 458" d="M303.8,258.3l-5-5a6.354,6.354,0,0,0,1.1-4.9,6.471,6.471,0,0,0-5.6-5.3,6.53,6.53,0,0,0-2,12.9,6.914,6.914,0,0,0,4.9-1.1l5,5a1.088,1.088,0,0,0,1.5,0A1.222,1.222,0,0,0,303.8,258.3Zm-14.7-9.5a4.458,4.458,0,0,1,3.7-3.7,4.57,4.57,0,0,1,5.2,5.2,4.458,4.458,0,0,1-3.7,3.7A4.609,4.609,0,0,1,289.1,248.8Z" transform="translate(-271.953 -231.052)" fill="#4e92df"/>
          <path id="Path_459" data-name="Path 459" d="M284.1,240h24v24h-24Z" transform="translate(-17 -231)" fill="none"/>
          <rect id="Rectangle_243" data-name="Rectangle 243" width="24" height="24" transform="translate(267 9)" fill="none"/>
        </g>
        <g id="Rectangle_3990" data-name="Rectangle 3990" transform="translate(756 75)" fill="none" stroke="#cbcbd2" stroke-width="1">
          <path d="M18,0H81a0,0,0,0,1,0,0V36a0,0,0,0,1,0,0H18A18,18,0,0,1,0,18v0A18,18,0,0,1,18,0Z" stroke="none"/>
          <path d="M18,.5H80.5a0,0,0,0,1,0,0v35a0,0,0,0,1,0,0H18A17.5,17.5,0,0,1,.5,18v0A17.5,17.5,0,0,1,18,.5Z" fill="none"/>
        </g>
        <path id="Path_102413" data-name="Path 102413" d="M-41.446,0H-43.23l-.882-2.5h-3.855L-48.815,0h-1.777l3.671-9.8h1.832Zm-3.1-3.821-1.36-3.91a4.632,4.632,0,0,1-.13-.615h-.027a4,4,0,0,1-.137.615l-1.347,3.91Zm9.276,3.5a3.911,3.911,0,0,1-1.989.485A3.369,3.369,0,0,1-39.771-.81a3.451,3.451,0,0,1-.957-2.526A3.8,3.8,0,0,1-39.7-6.115a3.678,3.678,0,0,1,2.751-1.049,4.016,4.016,0,0,1,1.688.335v1.477A2.557,2.557,0,0,0-36.818-5.9a2.166,2.166,0,0,0-1.647.68,2.487,2.487,0,0,0-.643,1.781,2.371,2.371,0,0,0,.6,1.716,2.148,2.148,0,0,0,1.624.629A2.537,2.537,0,0,0-35.267-1.7ZM-30-.075a2.748,2.748,0,0,1-1.224.232q-2.037,0-2.037-1.955V-5.756h-1.169V-7h1.169V-8.62l1.586-.451V-7H-30v1.244h-1.675v3.5a1.379,1.379,0,0,0,.226.889A.936.936,0,0,0-30.7-1.1a1.09,1.09,0,0,0,.7-.232Zm2.167-8.395a.953.953,0,0,1-.667-.253.832.832,0,0,1-.277-.643.854.854,0,0,1,.277-.649.939.939,0,0,1,.667-.26.969.969,0,0,1,.684.26.849.849,0,0,1,.28.649.837.837,0,0,1-.28.632A.962.962,0,0,1-27.836-8.47ZM-27.05,0h-1.586V-7h1.586Zm5.175.164a3.47,3.47,0,0,1-2.587-.981,3.544,3.544,0,0,1-.967-2.6,3.687,3.687,0,0,1,1.008-2.755A3.708,3.708,0,0,1-21.7-7.164a3.358,3.358,0,0,1,2.557.964,3.723,3.723,0,0,1,.916,2.673,3.669,3.669,0,0,1-.988,2.683A3.548,3.548,0,0,1-21.875.164ZM-21.8-5.9a1.81,1.81,0,0,0-1.47.649,2.719,2.719,0,0,0-.54,1.791,2.561,2.561,0,0,0,.547,1.733,1.837,1.837,0,0,0,1.463.632,1.743,1.743,0,0,0,1.439-.622,2.754,2.754,0,0,0,.5-1.771,2.8,2.8,0,0,0-.5-1.784A1.734,1.734,0,0,0-21.8-5.9ZM-10.384,0H-11.97V-3.944q0-1.962-1.388-1.962a1.515,1.515,0,0,0-1.2.543,2.016,2.016,0,0,0-.472,1.371V0h-1.593V-7h1.593v1.162H-15a2.5,2.5,0,0,1,2.27-1.326,2.114,2.114,0,0,1,1.743.742,3.33,3.33,0,0,1,.6,2.143Zm8.955-10.021V0H-3.015V-8.08a5.052,5.052,0,0,1-.926.523,7.635,7.635,0,0,1-1.131.379V-8.531q.4-.13.766-.273t.728-.321q.359-.178.725-.4t.755-.5Z" transform="translate(822 98)" fill="#2777d3"/>
        <g id="Rectangle_3990-2" data-name="Rectangle 3990" transform="translate(836 75)" fill="none" stroke="#cbcbd2" stroke-width="1">
          <rect width="83" height="36" stroke="none"/>
          <rect x="0.5" y="0.5" width="82" height="35" fill="none"/>
        </g>
        <path id="Path_102412" data-name="Path 102412" d="M9.263,0H7.479L6.6-2.5H2.741L1.894,0H.116L3.787-9.8H5.619Zm-3.1-3.821-1.36-3.91a4.631,4.631,0,0,1-.13-.615H4.648a4,4,0,0,1-.137.615L3.165-3.821Zm9.276,3.5a3.911,3.911,0,0,1-1.989.485A3.369,3.369,0,0,1,10.938-.81,3.451,3.451,0,0,1,9.98-3.336a3.8,3.8,0,0,1,1.029-2.779,3.678,3.678,0,0,1,2.751-1.049,4.016,4.016,0,0,1,1.688.335v1.477A2.557,2.557,0,0,0,13.891-5.9a2.166,2.166,0,0,0-1.647.68A2.487,2.487,0,0,0,11.6-3.438a2.371,2.371,0,0,0,.6,1.716,2.148,2.148,0,0,0,1.624.629A2.537,2.537,0,0,0,15.442-1.7Zm5.264.246a2.748,2.748,0,0,1-1.224.232q-2.037,0-2.037-1.955V-5.756H16.276V-7h1.169V-8.62l1.586-.451V-7h1.675v1.244H19.031v3.5a1.379,1.379,0,0,0,.226.889.936.936,0,0,0,.752.267,1.09,1.09,0,0,0,.7-.232ZM22.873-8.47a.953.953,0,0,1-.667-.253.832.832,0,0,1-.277-.643.854.854,0,0,1,.277-.649.939.939,0,0,1,.667-.26.969.969,0,0,1,.684.26.849.849,0,0,1,.28.649.837.837,0,0,1-.28.632A.962.962,0,0,1,22.873-8.47ZM23.659,0H22.073V-7h1.586Zm5.175.164a3.47,3.47,0,0,1-2.587-.981,3.544,3.544,0,0,1-.967-2.6,3.687,3.687,0,0,1,1.008-2.755A3.708,3.708,0,0,1,29-7.164a3.358,3.358,0,0,1,2.557.964,3.723,3.723,0,0,1,.916,2.673A3.669,3.669,0,0,1,31.49-.844,3.548,3.548,0,0,1,28.834.164ZM28.909-5.9a1.81,1.81,0,0,0-1.47.649,2.719,2.719,0,0,0-.54,1.791,2.561,2.561,0,0,0,.547,1.733,1.837,1.837,0,0,0,1.463.632,1.743,1.743,0,0,0,1.439-.622,2.754,2.754,0,0,0,.5-1.771,2.8,2.8,0,0,0-.5-1.784A1.734,1.734,0,0,0,28.909-5.9ZM40.325,0H38.739V-3.944q0-1.962-1.388-1.962a1.515,1.515,0,0,0-1.2.543,2.016,2.016,0,0,0-.472,1.371V0H34.091V-7h1.593v1.162h.027a2.5,2.5,0,0,1,2.27-1.326,2.114,2.114,0,0,1,1.743.742,3.33,3.33,0,0,1,.6,2.143ZM51.9,0H45.746V-.759a2.849,2.849,0,0,1,.13-.872,3.526,3.526,0,0,1,.349-.766,4.265,4.265,0,0,1,.513-.677q.294-.318.629-.615t.684-.574q.349-.277.684-.557.314-.267.574-.523a3.491,3.491,0,0,0,.444-.53,2.4,2.4,0,0,0,.287-.578,2.053,2.053,0,0,0,.1-.66,1.778,1.778,0,0,0-.12-.68,1.322,1.322,0,0,0-.335-.485,1.43,1.43,0,0,0-.509-.294,2,2,0,0,0-.643-.1,2.964,2.964,0,0,0-1.224.28,4.188,4.188,0,0,0-1.2.841V-9.071a5,5,0,0,1,.608-.393,4.146,4.146,0,0,1,.636-.28,3.919,3.919,0,0,1,.69-.167,5.179,5.179,0,0,1,.772-.055,3.9,3.9,0,0,1,1.2.174,2.561,2.561,0,0,1,.923.513,2.253,2.253,0,0,1,.591.844,3.03,3.03,0,0,1,.208,1.162A3.615,3.615,0,0,1,51.6-6.2a3.462,3.462,0,0,1-.417.885,4.593,4.593,0,0,1-.653.779q-.383.369-.854.759-.4.321-.79.625t-.708.595a3.321,3.321,0,0,0-.509.581,1.042,1.042,0,0,0-.195.584v.034H51.9Z" transform="translate(851 98)" fill="#2777d3"/>
        <g id="Rectangle_3990-3" data-name="Rectangle 3990" transform="translate(918 75)" fill="none" stroke="#cbcbd2" stroke-width="1">
          <path d="M0,0H65A18,18,0,0,1,83,18v0A18,18,0,0,1,65,36H0a0,0,0,0,1,0,0V0A0,0,0,0,1,0,0Z" stroke="none"/>
          <path d="M.5.5H65A17.5,17.5,0,0,1,82.5,18v0A17.5,17.5,0,0,1,65,35.5H.5a0,0,0,0,1,0,0V.5A0,0,0,0,1,.5.5Z" fill="none"/>
        </g>
        <path id="Path_102411" data-name="Path 102411" d="M9.263,0H7.479L6.6-2.5H2.741L1.894,0H.116L3.787-9.8H5.619Zm-3.1-3.821-1.36-3.91a4.631,4.631,0,0,1-.13-.615H4.648a4,4,0,0,1-.137.615L3.165-3.821Zm9.276,3.5a3.911,3.911,0,0,1-1.989.485A3.369,3.369,0,0,1,10.938-.81,3.451,3.451,0,0,1,9.98-3.336a3.8,3.8,0,0,1,1.029-2.779,3.678,3.678,0,0,1,2.751-1.049,4.016,4.016,0,0,1,1.688.335v1.477A2.557,2.557,0,0,0,13.891-5.9a2.166,2.166,0,0,0-1.647.68A2.487,2.487,0,0,0,11.6-3.438a2.371,2.371,0,0,0,.6,1.716,2.148,2.148,0,0,0,1.624.629A2.537,2.537,0,0,0,15.442-1.7Zm5.264.246a2.748,2.748,0,0,1-1.224.232q-2.037,0-2.037-1.955V-5.756H16.276V-7h1.169V-8.62l1.586-.451V-7h1.675v1.244H19.031v3.5a1.379,1.379,0,0,0,.226.889.936.936,0,0,0,.752.267,1.09,1.09,0,0,0,.7-.232ZM22.873-8.47a.953.953,0,0,1-.667-.253.832.832,0,0,1-.277-.643.854.854,0,0,1,.277-.649.939.939,0,0,1,.667-.26.969.969,0,0,1,.684.26.849.849,0,0,1,.28.649.837.837,0,0,1-.28.632A.962.962,0,0,1,22.873-8.47ZM23.659,0H22.073V-7h1.586Zm5.175.164a3.47,3.47,0,0,1-2.587-.981,3.544,3.544,0,0,1-.967-2.6,3.687,3.687,0,0,1,1.008-2.755A3.708,3.708,0,0,1,29-7.164a3.358,3.358,0,0,1,2.557.964,3.723,3.723,0,0,1,.916,2.673A3.669,3.669,0,0,1,31.49-.844,3.548,3.548,0,0,1,28.834.164ZM28.909-5.9a1.81,1.81,0,0,0-1.47.649,2.719,2.719,0,0,0-.54,1.791,2.561,2.561,0,0,0,.547,1.733,1.837,1.837,0,0,0,1.463.632,1.743,1.743,0,0,0,1.439-.622,2.754,2.754,0,0,0,.5-1.771,2.8,2.8,0,0,0-.5-1.784A1.734,1.734,0,0,0,28.909-5.9ZM40.325,0H38.739V-3.944q0-1.962-1.388-1.962a1.515,1.515,0,0,0-1.2.543,2.016,2.016,0,0,0-.472,1.371V0H34.091V-7h1.593v1.162h.027a2.5,2.5,0,0,1,2.27-1.326,2.114,2.114,0,0,1,1.743.742,3.33,3.33,0,0,1,.6,2.143Zm5.592-.362v-1.49a3.386,3.386,0,0,0,2.16.759,2.517,2.517,0,0,0,1.562-.444,1.432,1.432,0,0,0,.584-1.2q0-1.668-2.55-1.668h-.759V-5.681h.725q2.263,0,2.263-1.572Q49.9-8.7,48.139-8.7a2.892,2.892,0,0,0-1.853.7V-9.406a4.739,4.739,0,0,1,2.358-.561,3.159,3.159,0,0,1,2.092.656,2.092,2.092,0,0,1,.786,1.682,2.4,2.4,0,0,1-1.969,2.488v.027a2.579,2.579,0,0,1,1.675.742,2.211,2.211,0,0,1,.615,1.6,2.616,2.616,0,0,1-.991,2.129,4,4,0,0,1-2.611.81A4.456,4.456,0,0,1,45.917-.362Z" transform="translate(933 98)" fill="#2777d3"/>
      </g>
    </g>
    <g id="Table-2" data-name="Table" transform="translate(30 237)">
      <g transform="matrix(1, 0, 0, 1, -30, -237)" filter="url(#BG_-_main-2)">
        <rect id="BG_-_main-5" data-name="BG - main" width="940" height="128" rx="2" transform="translate(30 237)" fill="#fff"/>
      </g>
      <rect id="Divider_-_column_header-2" data-name="Divider - column header" width="940" height="1" transform="translate(0 106)" fill="#cbcbd2"/>
      <g id="Column_header-2" data-name="Column header" transform="translate(0 -3.5)">
        <g id="phone-4" data-name="phone" transform="translate(662 63.5)">
          <rect id="Clickable_area-6" data-name="Clickable area" width="179" height="46" fill="#fff"/>
          <g id="Sort-9" data-name="Sort" transform="translate(57 4)">
            <ellipse id="Ellipse_2069-5" data-name="Ellipse 2069" cx="16" cy="19.5" rx="16" ry="19.5" fill="none"/>
            <g id="Sort-10" data-name="Sort" transform="translate(8 9.738)">
              <g id="Group_13118-5" data-name="Group 13118">
                <rect id="Rectangle_6828-5" data-name="Rectangle 6828" width="15.953" height="15.953" transform="translate(0 0.024)" fill="none"/>
                <g id="Group_13117-5" data-name="Group 13117" transform="translate(2.968)">
                  <path id="Path_8841-5" data-name="Path 8841" d="M5.751,6.369a.266.266,0,0,0,.4,0L9.473,3.046,12.8,6.369a.266.266,0,0,0,.4,0l1.2-1.2a.266.266,0,0,0,0-.4L9.673.055a.266.266,0,0,0-.4,0L4.555,4.84a.266.266,0,0,0,0,.4Z" transform="translate(-4.465 0.035)" fill="#afafbb"/>
                  <path id="Path_8842-5" data-name="Path 8842" d="M13.2,14.355a.266.266,0,0,0-.4,0L9.473,17.678,6.15,14.355a.266.266,0,0,0-.4,0l-1.2,1.2a.266.266,0,0,0,0,.4l4.719,4.719a.266.266,0,0,0,.4,0l4.719-4.719a.266.266,0,0,0,0-.4Z" transform="translate(-4.465 -4.759)" fill="#afafbb"/>
                </g>
              </g>
            </g>
          </g>
          <text id="Phone-5" data-name="Phone" transform="translate(15 26)" fill="#3d3d3d" font-size="14" font-family="SegoeUI-Semibold, Segoe UI" font-weight="600"><tspan x="0" y="0">Phone</tspan></text>
        </g>
        <g id="email_address-3" data-name="email address" transform="translate(445 63.5)">
          <rect id="Clickable_area-7" data-name="Clickable area" width="217" height="46" fill="#fff"/>
          <g id="Sort-11" data-name="Sort" transform="translate(105 4)">
            <ellipse id="Ellipse_2069-6" data-name="Ellipse 2069" cx="16" cy="19.5" rx="16" ry="19.5" fill="none"/>
            <g id="Sort-12" data-name="Sort" transform="translate(8 9.75)">
              <g id="Group_13118-6" data-name="Group 13118">
                <rect id="Rectangle_6828-6" data-name="Rectangle 6828" width="15.953" height="15.953" transform="translate(0 0.024)" fill="none"/>
                <g id="Group_13117-6" data-name="Group 13117" transform="translate(2.968)">
                  <path id="Path_8841-6" data-name="Path 8841" d="M5.751,6.369a.266.266,0,0,0,.4,0L9.473,3.046,12.8,6.369a.266.266,0,0,0,.4,0l1.2-1.2a.266.266,0,0,0,0-.4L9.673.055a.266.266,0,0,0-.4,0L4.555,4.84a.266.266,0,0,0,0,.4Z" transform="translate(-4.465 0.035)" fill="#afafbb"/>
                  <path id="Path_8842-6" data-name="Path 8842" d="M13.2,14.355a.266.266,0,0,0-.4,0L9.473,17.678,6.15,14.355a.266.266,0,0,0-.4,0l-1.2,1.2a.266.266,0,0,0,0,.4l4.719,4.719a.266.266,0,0,0,.4,0l4.719-4.719a.266.266,0,0,0,0-.4Z" transform="translate(-4.465 -4.759)" fill="#afafbb"/>
                </g>
              </g>
            </g>
          </g>
          <text id="Email_address-4" data-name="Email address" transform="translate(16 26)" fill="#3d3d3d" font-size="14" font-family="SegoeUI-Semibold, Segoe UI" font-weight="600"><tspan x="0" y="0">Email address</tspan></text>
        </g>
        <g id="city-3" data-name="city" transform="translate(217 63.5)">
          <rect id="Clickable_area-8" data-name="Clickable area" width="226" height="46" fill="#fff"/>
          <g id="Sort-13" data-name="Sort" transform="translate(43 4)">
            <ellipse id="Ellipse_2069-7" data-name="Ellipse 2069" cx="16" cy="19.5" rx="16" ry="19.5" fill="none"/>
            <g id="Sort-14" data-name="Sort" transform="translate(8 9.75)">
              <g id="Group_13118-7" data-name="Group 13118">
                <rect id="Rectangle_6828-7" data-name="Rectangle 6828" width="15.953" height="15.953" transform="translate(0 0.024)" fill="none"/>
                <g id="Group_13117-7" data-name="Group 13117" transform="translate(2.968)">
                  <path id="Path_8841-7" data-name="Path 8841" d="M5.751,6.369a.266.266,0,0,0,.4,0L9.473,3.046,12.8,6.369a.266.266,0,0,0,.4,0l1.2-1.2a.266.266,0,0,0,0-.4L9.673.055a.266.266,0,0,0-.4,0L4.555,4.84a.266.266,0,0,0,0,.4Z" transform="translate(-4.465 0.035)" fill="#afafbb"/>
                  <path id="Path_8842-7" data-name="Path 8842" d="M13.2,14.355a.266.266,0,0,0-.4,0L9.473,17.678,6.15,14.355a.266.266,0,0,0-.4,0l-1.2,1.2a.266.266,0,0,0,0,.4l4.719,4.719a.266.266,0,0,0,.4,0l4.719-4.719a.266.266,0,0,0,0-.4Z" transform="translate(-4.465 -4.759)" fill="#afafbb"/>
                </g>
              </g>
            </g>
          </g>
          <text id="City-4" data-name="City" transform="translate(16 26)" fill="#3d3d3d" font-size="14" font-family="SegoeUI-Semibold, Segoe UI" font-weight="600"><tspan x="0" y="0">City</tspan></text>
        </g>
        <g id="name-3" data-name="name" transform="translate(20 63.5)">
          <rect id="Clickable_area-9" data-name="Clickable area" width="197" height="46" fill="#fff"/>
          <g id="Sort-15" data-name="Sort" transform="translate(40 4)">
            <ellipse id="Ellipse_2069-8" data-name="Ellipse 2069" cx="16" cy="19.5" rx="16" ry="19.5" fill="none"/>
            <g id="Sort-16" data-name="Sort" transform="translate(8 9.75)">
              <g id="Group_13118-8" data-name="Group 13118">
                <rect id="Rectangle_6828-8" data-name="Rectangle 6828" width="15.953" height="15.953" transform="translate(0 0.024)" fill="none"/>
                <g id="Group_13117-8" data-name="Group 13117" transform="translate(2.968)">
                  <path id="Path_8841-8" data-name="Path 8841" d="M5.751,6.369a.266.266,0,0,0,.4,0L9.473,3.046,12.8,6.369a.266.266,0,0,0,.4,0l1.2-1.2a.266.266,0,0,0,0-.4L9.673.055a.266.266,0,0,0-.4,0L4.555,4.84a.266.266,0,0,0,0,.4Z" transform="translate(-4.465 0.035)" fill="#2777d3"/>
                  <path id="Path_8842-8" data-name="Path 8842" d="M13.2,14.355a.266.266,0,0,0-.4,0L9.473,17.678,6.15,14.355a.266.266,0,0,0-.4,0l-1.2,1.2a.266.266,0,0,0,0,.4l4.719,4.719a.266.266,0,0,0,.4,0l4.719-4.719a.266.266,0,0,0,0-.4Z" transform="translate(-4.465 -4.759)" fill="#afafbb"/>
                </g>
              </g>
            </g>
          </g>
          <text id="Name-4" data-name="Name" transform="translate(0 25.8)" fill="#3d3d3d" font-size="14" font-family="SegoeUI-Semibold, Segoe UI" font-weight="600"><tspan x="0" y="0">Name</tspan></text>
        </g>
        <g id="phone-6" data-name="phone" transform="translate(-0.299 -63)">
          <rect id="Clickable_area-10" data-name="Clickable area" width="76" height="46" transform="translate(864.299 123)" fill="#fff"/>
          <text id="Action-2" data-name="Action" transform="translate(879.299 152)" fill="#3d3d3d" font-size="14" font-family="SegoeUI-Semibold, Segoe UI" font-weight="600"><tspan x="0" y="0">Action</tspan></text>
        </g>
      </g>
      <g id="Table_header-2" data-name="Table header" transform="translate(-81 -63)">
        <path id="BG_-_table_header-2" data-name="BG - table header" d="M2,0H938a2,2,0,0,1,2,2V60a0,0,0,0,1,0,0H0a0,0,0,0,1,0,0V2A2,2,0,0,1,2,0Z" transform="translate(81 63)" fill="#fafafa"/>
        <g id="Rectangle_3991" data-name="Rectangle 3991" transform="translate(930 75)" fill="none" stroke="#cbcbd2" stroke-width="1">
          <rect width="71" height="36" rx="18" stroke="none"/>
          <rect x="0.5" y="0.5" width="70" height="35" rx="17.5" fill="none"/>
        </g>
        <path id="Path_102410" data-name="Path 102410" d="M9.263,0H7.479L6.6-2.5H2.741L1.894,0H.116L3.787-9.8H5.619Zm-3.1-3.821-1.36-3.91a4.631,4.631,0,0,1-.13-.615H4.648a4,4,0,0,1-.137.615L3.165-3.821Zm9.276,3.5a3.911,3.911,0,0,1-1.989.485A3.369,3.369,0,0,1,10.938-.81,3.451,3.451,0,0,1,9.98-3.336a3.8,3.8,0,0,1,1.029-2.779,3.678,3.678,0,0,1,2.751-1.049,4.016,4.016,0,0,1,1.688.335v1.477A2.557,2.557,0,0,0,13.891-5.9a2.166,2.166,0,0,0-1.647.68A2.487,2.487,0,0,0,11.6-3.438a2.371,2.371,0,0,0,.6,1.716,2.148,2.148,0,0,0,1.624.629A2.537,2.537,0,0,0,15.442-1.7Zm5.264.246a2.748,2.748,0,0,1-1.224.232q-2.037,0-2.037-1.955V-5.756H16.276V-7h1.169V-8.62l1.586-.451V-7h1.675v1.244H19.031v3.5a1.379,1.379,0,0,0,.226.889.936.936,0,0,0,.752.267,1.09,1.09,0,0,0,.7-.232ZM22.873-8.47a.953.953,0,0,1-.667-.253.832.832,0,0,1-.277-.643.854.854,0,0,1,.277-.649.939.939,0,0,1,.667-.26.969.969,0,0,1,.684.26.849.849,0,0,1,.28.649.837.837,0,0,1-.28.632A.962.962,0,0,1,22.873-8.47ZM23.659,0H22.073V-7h1.586Zm5.175.164a3.47,3.47,0,0,1-2.587-.981,3.544,3.544,0,0,1-.967-2.6,3.687,3.687,0,0,1,1.008-2.755A3.708,3.708,0,0,1,29-7.164a3.358,3.358,0,0,1,2.557.964,3.723,3.723,0,0,1,.916,2.673A3.669,3.669,0,0,1,31.49-.844,3.548,3.548,0,0,1,28.834.164ZM28.909-5.9a1.81,1.81,0,0,0-1.47.649,2.719,2.719,0,0,0-.54,1.791,2.561,2.561,0,0,0,.547,1.733,1.837,1.837,0,0,0,1.463.632,1.743,1.743,0,0,0,1.439-.622,2.754,2.754,0,0,0,.5-1.771,2.8,2.8,0,0,0-.5-1.784A1.734,1.734,0,0,0,28.909-5.9ZM40.325,0H38.739V-3.944q0-1.962-1.388-1.962a1.515,1.515,0,0,0-1.2.543,2.016,2.016,0,0,0-.472,1.371V0H34.091V-7h1.593v1.162h.027a2.5,2.5,0,0,1,2.27-1.326,2.114,2.114,0,0,1,1.743.742,3.33,3.33,0,0,1,.6,2.143Z" transform="translate(945 98)" fill="#2777d3"/>
        <text id="_of_items-2" data-name="# of items" transform="translate(873 98)" fill="#9494a4" font-size="12" font-family="SegoeUI, Segoe UI"><tspan x="0" y="0">50 users </tspan></text>
        <g id="Link_Icon-2" data-name="Link + Icon" transform="translate(407 75)">
          <rect id="BG-2" data-name="BG" width="88" height="36" rx="18" fill="none"/>
          <g id="Content-2" data-name="Content" transform="translate(0)">
            <text id="Filter-4" data-name="Filter" transform="translate(41 23)" fill="#2777d3" font-size="14" font-family="SegoeUI-Semibold, Segoe UI" font-weight="600"><tspan x="0" y="0">Filter</tspan></text>
            <g id="Filter-5" data-name="Filter" transform="translate(23 18)">
              <g id="filter-6" data-name="filter" transform="translate(-8 -8)">
                <rect id="Rectangle_6829-2" data-name="Rectangle 6829" width="16" height="16" fill="none"/>
                <path id="Path_8843-2" data-name="Path 8843" d="M13,4.333,10.006,8.181l-.281.361v4.163l-1.333.445V8.543l-.281-.361L5.118,4.333H13M14.363,3H3.754A.667.667,0,0,0,3.23,4.076L7.058,9v5.537a.333.333,0,0,0,.439.316L10.6,13.818a.667.667,0,0,0,.456-.633V9l3.83-4.924A.667.667,0,0,0,14.363,3Z" transform="translate(-1.03 -1)" fill="#2777d3"/>
              </g>
            </g>
          </g>
        </g>
        <g id="Search_Input-2" data-name="Search Input" transform="translate(97 72)">
          <g id="Rectangle_298-2" data-name="Rectangle 298" fill="#fff" stroke="#f4f4f6" stroke-width="1">
            <rect width="300" height="42" rx="4" stroke="none"/>
            <rect x="0.5" y="0.5" width="299" height="41" rx="3.5" fill="none"/>
          </g>
          <text id="Search-2" data-name="Search" transform="translate(45 27)" fill="#cbcbd2" font-size="14" font-family="SegoeUI, Segoe UI"><tspan x="0" y="0">Search</tspan></text>
          <path id="Path_458-2" data-name="Path 458" d="M303.8,258.3l-5-5a6.354,6.354,0,0,0,1.1-4.9,6.471,6.471,0,0,0-5.6-5.3,6.53,6.53,0,0,0-2,12.9,6.914,6.914,0,0,0,4.9-1.1l5,5a1.088,1.088,0,0,0,1.5,0A1.222,1.222,0,0,0,303.8,258.3Zm-14.7-9.5a4.458,4.458,0,0,1,3.7-3.7,4.57,4.57,0,0,1,5.2,5.2,4.458,4.458,0,0,1-3.7,3.7A4.609,4.609,0,0,1,289.1,248.8Z" transform="translate(-271.953 -231.052)" fill="#4e92df"/>
          <path id="Path_459-2" data-name="Path 459" d="M284.1,240h24v24h-24Z" transform="translate(-17 -231)" fill="none"/>
          <rect id="Rectangle_243-2" data-name="Rectangle 243" width="24" height="24" transform="translate(267 9)" fill="none"/>
        </g>
      </g>
    </g>
    <rect id="Rectangle_10510" data-name="Rectangle 10510" width="940" height="76" transform="translate(30 297)" fill="url(#linear-gradient)"/>
    <path id="Path_102258" data-name="Path 102258" d="M5.564-6.886H3.341V0h-.9V-6.886H.22V-7.7H5.564ZM9.356,0H8.476V-.859H8.454A1.844,1.844,0,0,1,6.762.129,1.808,1.808,0,0,1,5.476-.306a1.507,1.507,0,0,1-.465-1.155Q5.011-3,6.827-3.255l1.649-.231q0-1.4-1.133-1.4a2.708,2.708,0,0,0-1.794.677v-.9a3.408,3.408,0,0,1,1.869-.516q1.939,0,1.939,2.052ZM8.476-2.782,7.149-2.6a2.154,2.154,0,0,0-.924.3.875.875,0,0,0-.312.771A.839.839,0,0,0,6.2-.867a1.11,1.11,0,0,0,.765.255,1.414,1.414,0,0,0,1.082-.459,1.641,1.641,0,0,0,.427-1.163ZM11.918-.795H11.9V0h-.881V-8.143H11.9v3.609h.021a2.083,2.083,0,0,1,1.9-1.1,2.016,2.016,0,0,1,1.657.739,3.049,3.049,0,0,1,.6,1.979A3.409,3.409,0,0,1,15.4-.7a2.235,2.235,0,0,1-1.837.83A1.809,1.809,0,0,1,11.918-.795ZM11.9-3.013v.768a1.635,1.635,0,0,0,.443,1.157,1.471,1.471,0,0,0,1.125.475,1.474,1.474,0,0,0,1.254-.612,2.809,2.809,0,0,0,.454-1.7,2.217,2.217,0,0,0-.424-1.439A1.4,1.4,0,0,0,13.6-4.888a1.561,1.561,0,0,0-1.235.534A1.962,1.962,0,0,0,11.9-3.013ZM18.364,0h-.881V-8.143h.881Zm6.2-2.53H20.684a2.057,2.057,0,0,0,.494,1.418,1.7,1.7,0,0,0,1.3.5,2.7,2.7,0,0,0,1.708-.612V-.4a3.192,3.192,0,0,1-1.917.526A2.325,2.325,0,0,1,20.437-.62a3.067,3.067,0,0,1-.666-2.108A3.007,3.007,0,0,1,20.5-4.821a2.334,2.334,0,0,1,1.807-.808,2.068,2.068,0,0,1,1.67.7,2.911,2.911,0,0,1,.591,1.939Zm-.9-.747A1.792,1.792,0,0,0,23.3-4.463a1.254,1.254,0,0,0-1.007-.424,1.423,1.423,0,0,0-1.058.446,2.023,2.023,0,0,0-.537,1.166ZM36.722,0h-.881V-3.158a2.383,2.383,0,0,0-.282-1.321,1.069,1.069,0,0,0-.948-.408,1.174,1.174,0,0,0-.959.516,1.973,1.973,0,0,0-.395,1.235V0h-.881V-3.266q0-1.622-1.251-1.622a1.159,1.159,0,0,0-.956.486,2.009,2.009,0,0,0-.376,1.265V0h-.881V-5.5h.881v.87h.021a1.869,1.869,0,0,1,1.708-1,1.593,1.593,0,0,1,.983.314,1.581,1.581,0,0,1,.575.824,1.963,1.963,0,0,1,1.826-1.139q1.815,0,1.815,2.24Zm5.6,0h-.881V-.859h-.021A1.844,1.844,0,0,1,39.73.129a1.808,1.808,0,0,1-1.286-.435,1.507,1.507,0,0,1-.465-1.155q0-1.542,1.815-1.794l1.649-.231q0-1.4-1.133-1.4a2.708,2.708,0,0,0-1.794.677v-.9a3.408,3.408,0,0,1,1.869-.516q1.939,0,1.939,2.052Zm-.881-2.782L40.117-2.6a2.154,2.154,0,0,0-.924.3.875.875,0,0,0-.312.771.839.839,0,0,0,.287.658,1.11,1.11,0,0,0,.765.255,1.414,1.414,0,0,0,1.082-.459,1.641,1.641,0,0,0,.427-1.163ZM44.435-6.9a.558.558,0,0,1-.4-.161.544.544,0,0,1-.167-.408.553.553,0,0,1,.167-.411.553.553,0,0,1,.4-.164.569.569,0,0,1,.411.164.548.548,0,0,1,.169.411.544.544,0,0,1-.169.4A.564.564,0,0,1,44.435-6.9Zm.43,6.9h-.881V-5.5h.881Zm6.349,0h-.881V-3.137q0-1.751-1.278-1.751a1.387,1.387,0,0,0-1.093.5,1.841,1.841,0,0,0-.432,1.254V0h-.881V-5.5h.881v.913h.021a1.985,1.985,0,0,1,1.8-1.042,1.683,1.683,0,0,1,1.38.583,2.6,2.6,0,0,1,.478,1.684Zm8.61,0h-.881V-.859h-.021a1.844,1.844,0,0,1-1.692.988,1.808,1.808,0,0,1-1.286-.435,1.507,1.507,0,0,1-.465-1.155q0-1.542,1.815-1.794l1.649-.231q0-1.4-1.133-1.4a2.708,2.708,0,0,0-1.794.677v-.9a3.408,3.408,0,0,1,1.869-.516q1.939,0,1.939,2.052Zm-.881-2.782L57.616-2.6a2.154,2.154,0,0,0-.924.3.875.875,0,0,0-.312.771.839.839,0,0,0,.287.658,1.11,1.11,0,0,0,.765.255,1.414,1.414,0,0,0,1.082-.459,1.641,1.641,0,0,0,.427-1.163Zm6.29,2.53a2.862,2.862,0,0,1-1.5.381,2.49,2.49,0,0,1-1.9-.765,2.774,2.774,0,0,1-.722-1.985A3.049,3.049,0,0,1,61.886-4.8a2.724,2.724,0,0,1,2.079-.824,2.893,2.893,0,0,1,1.278.269v.9a2.24,2.24,0,0,0-1.311-.43,1.771,1.771,0,0,0-1.383.6,2.293,2.293,0,0,0-.54,1.587,2.183,2.183,0,0,0,.508,1.525,1.749,1.749,0,0,0,1.362.559,2.208,2.208,0,0,0,1.354-.478Zm3.883.2a1.7,1.7,0,0,1-.822.172q-1.445,0-1.445-1.611V-4.748H65.9V-5.5h.945V-6.843l.881-.285V-5.5h1.386v.752H67.729v3.1a1.285,1.285,0,0,0,.188.79.75.75,0,0,0,.623.236.926.926,0,0,0,.575-.183ZM70.743-6.9a.558.558,0,0,1-.4-.161.544.544,0,0,1-.167-.408.553.553,0,0,1,.167-.411.553.553,0,0,1,.4-.164.569.569,0,0,1,.411.164.548.548,0,0,1,.169.411.544.544,0,0,1-.169.4A.564.564,0,0,1,70.743-6.9Zm.43,6.9h-.881V-5.5h.881Zm4.082.129a2.551,2.551,0,0,1-1.947-.771,2.855,2.855,0,0,1-.728-2.044,2.974,2.974,0,0,1,.757-2.165,2.723,2.723,0,0,1,2.046-.779,2.467,2.467,0,0,1,1.92.757,3,3,0,0,1,.69,2.1A2.955,2.955,0,0,1,77.25-.663,2.607,2.607,0,0,1,75.254.129Zm.064-5.017a1.675,1.675,0,0,0-1.343.577,2.371,2.371,0,0,0-.494,1.593,2.243,2.243,0,0,0,.5,1.542,1.7,1.7,0,0,0,1.337.564,1.61,1.61,0,0,0,1.313-.553,2.4,2.4,0,0,0,.459-1.574,2.442,2.442,0,0,0-.459-1.59A1.6,1.6,0,0,0,75.319-4.888ZM83.966,0h-.881V-3.137q0-1.751-1.278-1.751a1.387,1.387,0,0,0-1.093.5,1.842,1.842,0,0,0-.432,1.254V0H79.4V-5.5h.881v.913H80.3a1.985,1.985,0,0,1,1.8-1.042,1.683,1.683,0,0,1,1.38.583,2.6,2.6,0,0,1,.478,1.684Z" transform="translate(30 224)" fill="#17987c"/>
    <path id="Path_102257" data-name="Path 102257" d="M1.01,0V-7.7H3.2a2.4,2.4,0,0,1,1.584.489A1.58,1.58,0,0,1,5.371-5.94,1.873,1.873,0,0,1,5.017-4.8a1.912,1.912,0,0,1-.978.688v.021A1.96,1.96,0,0,1,5.285-3.5a1.809,1.809,0,0,1,.467,1.292,2.014,2.014,0,0,1-.709,1.6A2.639,2.639,0,0,1,3.255,0Zm.9-6.886V-4.4h.924A1.754,1.754,0,0,0,4-4.756a1.244,1.244,0,0,0,.424-1.007q0-1.123-1.477-1.123Zm0,3.3V-.816H3.137a1.835,1.835,0,0,0,1.233-.376,1.288,1.288,0,0,0,.438-1.031q0-1.364-1.858-1.364ZM11.645,0h-.881V-.87h-.021a1.809,1.809,0,0,1-1.7,1q-1.966,0-1.966-2.342V-5.5h.875v3.147q0,1.74,1.332,1.74a1.348,1.348,0,0,0,1.061-.475,1.819,1.819,0,0,0,.416-1.243V-5.5h.881Zm4.329-.054a1.7,1.7,0,0,1-.822.172q-1.445,0-1.445-1.611V-4.748h-.945V-5.5h.945V-6.843l.881-.285V-5.5h1.386v.752H14.588v3.1a1.285,1.285,0,0,0,.188.79.75.75,0,0,0,.623.236.926.926,0,0,0,.575-.183Zm3.728,0a1.7,1.7,0,0,1-.822.172q-1.445,0-1.445-1.611V-4.748h-.945V-5.5h.945V-6.843l.881-.285V-5.5H19.7v.752H18.315v3.1a1.285,1.285,0,0,0,.188.79.75.75,0,0,0,.623.236A.926.926,0,0,0,19.7-.806Zm3.475.183a2.551,2.551,0,0,1-1.947-.771A2.855,2.855,0,0,1,20.5-2.686a2.974,2.974,0,0,1,.757-2.165,2.723,2.723,0,0,1,2.046-.779,2.467,2.467,0,0,1,1.92.757,3,3,0,0,1,.69,2.1,2.955,2.955,0,0,1-.744,2.108A2.607,2.607,0,0,1,23.176.129Zm.064-5.017A1.675,1.675,0,0,0,21.9-4.31,2.371,2.371,0,0,0,21.4-2.718a2.243,2.243,0,0,0,.5,1.542,1.7,1.7,0,0,0,1.337.564,1.61,1.61,0,0,0,1.313-.553,2.4,2.4,0,0,0,.459-1.574,2.442,2.442,0,0,0-.459-1.59A1.6,1.6,0,0,0,23.241-4.888ZM31.888,0h-.881V-3.137q0-1.751-1.278-1.751a1.387,1.387,0,0,0-1.093.5A1.842,1.842,0,0,0,28.2-3.137V0h-.881V-5.5H28.2v.913h.021a1.985,1.985,0,0,1,1.8-1.042,1.683,1.683,0,0,1,1.38.583,2.6,2.6,0,0,1,.478,1.684Zm9.367-.44q0,3.029-2.9,3.029A3.894,3.894,0,0,1,36.572,2.2V1.321a3.662,3.662,0,0,0,1.772.516q2.03,0,2.03-2.159v-.6h-.021A2.06,2.06,0,0,1,38.462.129,2.065,2.065,0,0,1,36.811-.6a2.931,2.931,0,0,1-.626-1.969A3.424,3.424,0,0,1,36.859-4.8,2.252,2.252,0,0,1,38.7-5.629a1.793,1.793,0,0,1,1.649.892h.021V-5.5h.881Zm-.881-2.046V-3.3a1.574,1.574,0,0,0-.443-1.123,1.459,1.459,0,0,0-1.1-.467,1.53,1.53,0,0,0-1.278.594,2.649,2.649,0,0,0-.462,1.662,2.274,2.274,0,0,0,.443,1.469A1.432,1.432,0,0,0,38.7-.612a1.533,1.533,0,0,0,1.206-.526A1.962,1.962,0,0,0,40.375-2.487Zm5.532-2.122a1.077,1.077,0,0,0-.666-.177,1.124,1.124,0,0,0-.943.532,2.458,2.458,0,0,0-.379,1.45V0h-.881V-5.5h.881v1.133h.021a1.921,1.921,0,0,1,.575-.905A1.311,1.311,0,0,1,45.38-5.6a1.438,1.438,0,0,1,.526.075ZM49.162.129a2.551,2.551,0,0,1-1.947-.771,2.855,2.855,0,0,1-.728-2.044,2.974,2.974,0,0,1,.757-2.165,2.723,2.723,0,0,1,2.046-.779,2.467,2.467,0,0,1,1.92.757,3,3,0,0,1,.69,2.1,2.955,2.955,0,0,1-.744,2.108A2.607,2.607,0,0,1,49.162.129Zm.064-5.017a1.675,1.675,0,0,0-1.343.577,2.371,2.371,0,0,0-.494,1.593,2.243,2.243,0,0,0,.5,1.542,1.7,1.7,0,0,0,1.337.564,1.61,1.61,0,0,0,1.313-.553A2.4,2.4,0,0,0,51-2.739a2.442,2.442,0,0,0-.459-1.59A1.6,1.6,0,0,0,49.226-4.888ZM57.755,0h-.881V-.87h-.021a1.809,1.809,0,0,1-1.7,1q-1.966,0-1.966-2.342V-5.5h.875v3.147q0,1.74,1.332,1.74a1.348,1.348,0,0,0,1.061-.475,1.819,1.819,0,0,0,.416-1.243V-5.5h.881Zm2.68-.795h-.021V2.53h-.881V-5.5h.881v.967h.021a2.083,2.083,0,0,1,1.9-1.1A2.014,2.014,0,0,1,64-4.89a3.059,3.059,0,0,1,.6,1.979A3.409,3.409,0,0,1,63.921-.7a2.235,2.235,0,0,1-1.837.83A1.84,1.84,0,0,1,60.436-.795Zm-.021-2.218v.768a1.635,1.635,0,0,0,.443,1.157,1.471,1.471,0,0,0,1.125.475,1.474,1.474,0,0,0,1.254-.612,2.809,2.809,0,0,0,.454-1.7,2.217,2.217,0,0,0-.424-1.439,1.4,1.4,0,0,0-1.149-.521,1.561,1.561,0,0,0-1.235.534A1.962,1.962,0,0,0,60.414-3.013ZM71.731-7.369a1.173,1.173,0,0,0-.585-.145q-.924,0-.924,1.166V-5.5h1.289v.752H70.222V0h-.875V-4.748h-.94V-5.5h.94v-.892a1.853,1.853,0,0,1,.5-1.367,1.686,1.686,0,0,1,1.246-.5,1.726,1.726,0,0,1,.639.1Zm3.024,7.5a2.551,2.551,0,0,1-1.947-.771,2.855,2.855,0,0,1-.728-2.044,2.974,2.974,0,0,1,.757-2.165,2.723,2.723,0,0,1,2.046-.779,2.467,2.467,0,0,1,1.92.757,3,3,0,0,1,.69,2.1A2.955,2.955,0,0,1,76.75-.663,2.607,2.607,0,0,1,74.755.129Zm.064-5.017a1.675,1.675,0,0,0-1.343.577,2.371,2.371,0,0,0-.494,1.593,2.243,2.243,0,0,0,.5,1.542,1.7,1.7,0,0,0,1.337.564,1.61,1.61,0,0,0,1.313-.553,2.4,2.4,0,0,0,.459-1.574,2.442,2.442,0,0,0-.459-1.59A1.6,1.6,0,0,0,74.819-4.888Zm6.95.279a1.077,1.077,0,0,0-.666-.177,1.124,1.124,0,0,0-.943.532,2.458,2.458,0,0,0-.379,1.45V0H78.9V-5.5h.881v1.133H79.8a1.921,1.921,0,0,1,.575-.905,1.311,1.311,0,0,1,.865-.325,1.438,1.438,0,0,1,.526.075ZM88.29-.054a1.7,1.7,0,0,1-.822.172q-1.445,0-1.445-1.611V-4.748h-.945V-5.5h.945V-6.843l.881-.285V-5.5H88.29v.752H86.9v3.1a1.285,1.285,0,0,0,.188.79.75.75,0,0,0,.623.236.926.926,0,0,0,.575-.183ZM94.032,0h-.881V-3.169q0-1.719-1.278-1.719a1.394,1.394,0,0,0-1.085.5,1.851,1.851,0,0,0-.44,1.276V0h-.881V-8.143h.881v3.556h.021a2,2,0,0,1,1.8-1.042q1.858,0,1.858,2.24ZM98.56-4.608a1.077,1.077,0,0,0-.666-.177,1.124,1.124,0,0,0-.943.532,2.458,2.458,0,0,0-.379,1.45V0h-.881V-5.5h.881v1.133h.021a1.921,1.921,0,0,1,.575-.905,1.311,1.311,0,0,1,.865-.325,1.438,1.438,0,0,1,.526.075Zm5.376,2.079h-3.883a2.057,2.057,0,0,0,.494,1.418,1.7,1.7,0,0,0,1.3.5,2.7,2.7,0,0,0,1.708-.612V-.4a3.192,3.192,0,0,1-1.917.526A2.325,2.325,0,0,1,99.806-.62a3.067,3.067,0,0,1-.666-2.108,3.007,3.007,0,0,1,.728-2.092,2.334,2.334,0,0,1,1.807-.808,2.068,2.068,0,0,1,1.67.7,2.911,2.911,0,0,1,.591,1.939Zm-.9-.747a1.792,1.792,0,0,0-.368-1.187,1.254,1.254,0,0,0-1.007-.424,1.423,1.423,0,0,0-1.058.446,2.023,2.023,0,0,0-.537,1.166Zm6.655.747h-3.883a2.057,2.057,0,0,0,.494,1.418,1.7,1.7,0,0,0,1.3.5,2.7,2.7,0,0,0,1.708-.612V-.4a3.192,3.192,0,0,1-1.917.526,2.325,2.325,0,0,1-1.832-.749,3.067,3.067,0,0,1-.666-2.108,3.007,3.007,0,0,1,.728-2.092,2.334,2.334,0,0,1,1.807-.808,2.068,2.068,0,0,1,1.67.7,2.911,2.911,0,0,1,.591,1.939Zm-.9-.747a1.792,1.792,0,0,0-.368-1.187,1.254,1.254,0,0,0-1.007-.424,1.423,1.423,0,0,0-1.058.446,2.023,2.023,0,0,0-.537,1.166ZM116.333.129a2.551,2.551,0,0,1-1.947-.771,2.855,2.855,0,0,1-.728-2.044,2.974,2.974,0,0,1,.757-2.165,2.723,2.723,0,0,1,2.046-.779,2.467,2.467,0,0,1,1.92.757,3,3,0,0,1,.69,2.1,2.955,2.955,0,0,1-.744,2.108A2.607,2.607,0,0,1,116.333.129Zm.064-5.017a1.675,1.675,0,0,0-1.343.577,2.371,2.371,0,0,0-.494,1.593,2.243,2.243,0,0,0,.5,1.542,1.7,1.7,0,0,0,1.337.564,1.61,1.61,0,0,0,1.313-.553,2.4,2.4,0,0,0,.459-1.574,2.442,2.442,0,0,0-.459-1.59A1.6,1.6,0,0,0,116.4-4.888Zm6.95.279a1.077,1.077,0,0,0-.666-.177,1.124,1.124,0,0,0-.943.532,2.458,2.458,0,0,0-.379,1.45V0h-.881V-5.5h.881v1.133h.021a1.921,1.921,0,0,1,.575-.905,1.311,1.311,0,0,1,.865-.325,1.438,1.438,0,0,1,.526.075ZM135.126,0h-.881V-3.158a2.383,2.383,0,0,0-.282-1.321,1.069,1.069,0,0,0-.948-.408,1.174,1.174,0,0,0-.959.516,1.973,1.973,0,0,0-.395,1.235V0h-.881V-3.266q0-1.622-1.251-1.622a1.159,1.159,0,0,0-.956.486,2.009,2.009,0,0,0-.376,1.265V0h-.881V-5.5h.881v.87h.021a1.869,1.869,0,0,1,1.708-1,1.593,1.593,0,0,1,.983.314,1.581,1.581,0,0,1,.575.824,1.963,1.963,0,0,1,1.826-1.139q1.815,0,1.815,2.24Zm3.964.129a2.551,2.551,0,0,1-1.947-.771,2.855,2.855,0,0,1-.728-2.044,2.974,2.974,0,0,1,.757-2.165,2.723,2.723,0,0,1,2.046-.779,2.467,2.467,0,0,1,1.92.757,3,3,0,0,1,.69,2.1,2.955,2.955,0,0,1-.744,2.108A2.607,2.607,0,0,1,139.09.129Zm.064-5.017a1.675,1.675,0,0,0-1.343.577,2.371,2.371,0,0,0-.494,1.593,2.243,2.243,0,0,0,.5,1.542,1.7,1.7,0,0,0,1.337.564,1.61,1.61,0,0,0,1.313-.553,2.4,2.4,0,0,0,.459-1.574,2.442,2.442,0,0,0-.459-1.59A1.6,1.6,0,0,0,139.154-4.888Zm6.95.279a1.077,1.077,0,0,0-.666-.177,1.124,1.124,0,0,0-.943.532,2.458,2.458,0,0,0-.379,1.45V0h-.881V-5.5h.881v1.133h.021a1.92,1.92,0,0,1,.575-.905,1.311,1.311,0,0,1,.865-.325,1.438,1.438,0,0,1,.526.075Zm5.376,2.079H147.6a2.057,2.057,0,0,0,.494,1.418,1.7,1.7,0,0,0,1.3.5,2.7,2.7,0,0,0,1.708-.612V-.4a3.192,3.192,0,0,1-1.917.526,2.325,2.325,0,0,1-1.832-.749,3.067,3.067,0,0,1-.666-2.108,3.008,3.008,0,0,1,.728-2.092,2.334,2.334,0,0,1,1.807-.808,2.068,2.068,0,0,1,1.67.7,2.911,2.911,0,0,1,.591,1.939Zm-.9-.747a1.792,1.792,0,0,0-.368-1.187,1.254,1.254,0,0,0-1.007-.424,1.423,1.423,0,0,0-1.058.446,2.023,2.023,0,0,0-.537,1.166Zm7.8,3.223a1.7,1.7,0,0,1-.822.172q-1.445,0-1.445-1.611V-4.748h-.945V-5.5h.945V-6.843l.881-.285V-5.5h1.386v.752h-1.386v3.1a1.285,1.285,0,0,0,.188.79.75.75,0,0,0,.623.236.926.926,0,0,0,.575-.183ZM163.491,0h-.881V-.859h-.021A1.844,1.844,0,0,1,160.9.129a1.808,1.808,0,0,1-1.286-.435,1.507,1.507,0,0,1-.465-1.155q0-1.542,1.815-1.794l1.649-.231q0-1.4-1.133-1.4a2.708,2.708,0,0,0-1.794.677v-.9a3.408,3.408,0,0,1,1.869-.516q1.939,0,1.939,2.052Zm-.881-2.782-1.327.183a2.154,2.154,0,0,0-.924.3.875.875,0,0,0-.312.771.839.839,0,0,0,.287.658,1.11,1.11,0,0,0,.765.255,1.414,1.414,0,0,0,1.082-.459,1.641,1.641,0,0,0,.427-1.163Zm3.443,1.987h-.021V0h-.881V-8.143h.881v3.609h.021a2.083,2.083,0,0,1,1.9-1.1,2.016,2.016,0,0,1,1.657.739,3.049,3.049,0,0,1,.6,1.979,3.409,3.409,0,0,1-.671,2.21,2.235,2.235,0,0,1-1.837.83A1.809,1.809,0,0,1,166.053-.795Zm-.021-2.218v.768a1.635,1.635,0,0,0,.443,1.157,1.471,1.471,0,0,0,1.125.475,1.474,1.474,0,0,0,1.254-.612,2.809,2.809,0,0,0,.454-1.7,2.217,2.217,0,0,0-.424-1.439,1.4,1.4,0,0,0-1.149-.521,1.561,1.561,0,0,0-1.235.534A1.962,1.962,0,0,0,166.031-3.013ZM172.5,0h-.881V-8.143h.881Zm6.2-2.53h-3.883a2.057,2.057,0,0,0,.494,1.418,1.7,1.7,0,0,0,1.3.5,2.7,2.7,0,0,0,1.708-.612V-.4A3.192,3.192,0,0,1,176.4.129a2.325,2.325,0,0,1-1.832-.749,3.067,3.067,0,0,1-.666-2.108,3.008,3.008,0,0,1,.728-2.092,2.334,2.334,0,0,1,1.807-.808,2.068,2.068,0,0,1,1.67.7,2.911,2.911,0,0,1,.591,1.939Zm-.9-.747a1.792,1.792,0,0,0-.368-1.187,1.254,1.254,0,0,0-1.007-.424,1.423,1.423,0,0,0-1.058.446,2.023,2.023,0,0,0-.537,1.166ZM186.984,0H186.1V-.859h-.021a1.844,1.844,0,0,1-1.692.988A1.808,1.808,0,0,1,183.1-.306a1.507,1.507,0,0,1-.465-1.155q0-1.542,1.815-1.794l1.649-.231q0-1.4-1.133-1.4a2.708,2.708,0,0,0-1.794.677v-.9a3.408,3.408,0,0,1,1.869-.516q1.939,0,1.939,2.052ZM186.1-2.782l-1.327.183a2.154,2.154,0,0,0-.924.3.875.875,0,0,0-.312.771.839.839,0,0,0,.287.658,1.11,1.11,0,0,0,.765.255,1.414,1.414,0,0,0,1.082-.459,1.641,1.641,0,0,0,.427-1.163Zm6.29,2.53a2.862,2.862,0,0,1-1.5.381,2.49,2.49,0,0,1-1.9-.765,2.774,2.774,0,0,1-.722-1.985,3.049,3.049,0,0,1,.779-2.183,2.724,2.724,0,0,1,2.079-.824,2.893,2.893,0,0,1,1.278.269v.9a2.24,2.24,0,0,0-1.311-.43,1.771,1.771,0,0,0-1.383.6,2.293,2.293,0,0,0-.54,1.587,2.183,2.183,0,0,0,.508,1.525,1.749,1.749,0,0,0,1.362.559,2.208,2.208,0,0,0,1.354-.478Zm3.883.2a1.7,1.7,0,0,1-.822.172q-1.445,0-1.445-1.611V-4.748h-.945V-5.5h.945V-6.843l.881-.285V-5.5h1.386v.752H194.89v3.1a1.285,1.285,0,0,0,.188.79.75.75,0,0,0,.623.236.926.926,0,0,0,.575-.183ZM197.9-6.9a.558.558,0,0,1-.4-.161.544.544,0,0,1-.167-.408.553.553,0,0,1,.167-.411.553.553,0,0,1,.4-.164.569.569,0,0,1,.411.164.548.548,0,0,1,.169.411.544.544,0,0,1-.169.4A.564.564,0,0,1,197.9-6.9Zm.43,6.9h-.881V-5.5h.881Zm4.082.129a2.551,2.551,0,0,1-1.947-.771,2.855,2.855,0,0,1-.728-2.044A2.974,2.974,0,0,1,200.5-4.85a2.723,2.723,0,0,1,2.046-.779,2.467,2.467,0,0,1,1.92.757,3,3,0,0,1,.69,2.1,2.955,2.955,0,0,1-.744,2.108A2.607,2.607,0,0,1,202.415.129Zm.064-5.017a1.675,1.675,0,0,0-1.343.577,2.371,2.371,0,0,0-.494,1.593,2.243,2.243,0,0,0,.5,1.542,1.7,1.7,0,0,0,1.337.564,1.61,1.61,0,0,0,1.313-.553,2.4,2.4,0,0,0,.459-1.574,2.442,2.442,0,0,0-.459-1.59A1.6,1.6,0,0,0,202.479-4.888ZM211.127,0h-.881V-3.137q0-1.751-1.278-1.751a1.387,1.387,0,0,0-1.093.5,1.841,1.841,0,0,0-.432,1.254V0h-.881V-5.5h.881v.913h.021a1.985,1.985,0,0,1,1.8-1.042,1.683,1.683,0,0,1,1.38.583,2.6,2.6,0,0,1,.478,1.684Zm1.327-.2v-.945a2.607,2.607,0,0,0,1.584.532q1.16,0,1.16-.773a.671.671,0,0,0-.1-.373.99.99,0,0,0-.269-.271,2.067,2.067,0,0,0-.4-.212q-.228-.094-.491-.2a6.33,6.33,0,0,1-.642-.293,1.939,1.939,0,0,1-.462-.333,1.239,1.239,0,0,1-.279-.422,1.492,1.492,0,0,1-.094-.553,1.314,1.314,0,0,1,.177-.685,1.572,1.572,0,0,1,.473-.5,2.2,2.2,0,0,1,.674-.3,2.99,2.99,0,0,1,.781-.1,3.155,3.155,0,0,1,1.278.247v.892a2.491,2.491,0,0,0-1.4-.4,1.632,1.632,0,0,0-.446.056,1.091,1.091,0,0,0-.341.158.732.732,0,0,0-.22.244.644.644,0,0,0-.078.314.754.754,0,0,0,.078.36.792.792,0,0,0,.228.258,1.745,1.745,0,0,0,.365.2q.215.091.489.2a6.8,6.8,0,0,1,.655.287,2.247,2.247,0,0,1,.494.333,1.3,1.3,0,0,1,.314.427,1.377,1.377,0,0,1,.11.575,1.355,1.355,0,0,1-.18.709,1.542,1.542,0,0,1-.481.5,2.2,2.2,0,0,1-.693.3,3.421,3.421,0,0,1-.822.1A3.12,3.12,0,0,1,212.454-.2Z" transform="translate(30 385)" fill="#17987c"/>
    <g id="Component_1" data-name="Component 1" transform="translate(884 22)">
      <rect id="Rectangle_3990-4" data-name="Rectangle 3990" width="71" height="36" rx="18" transform="translate(15 8)" fill="#2777d3"/>
      <path id="Path_102248" data-name="Path 102248" d="M9.263,0H7.479L6.6-2.5H2.741L1.894,0H.116L3.787-9.8H5.619Zm-3.1-3.821-1.36-3.91a4.631,4.631,0,0,1-.13-.615H4.648a4,4,0,0,1-.137.615L3.165-3.821Zm9.276,3.5a3.911,3.911,0,0,1-1.989.485A3.369,3.369,0,0,1,10.938-.81,3.451,3.451,0,0,1,9.98-3.336a3.8,3.8,0,0,1,1.029-2.779,3.678,3.678,0,0,1,2.751-1.049,4.016,4.016,0,0,1,1.688.335v1.477A2.557,2.557,0,0,0,13.891-5.9a2.166,2.166,0,0,0-1.647.68A2.487,2.487,0,0,0,11.6-3.438a2.371,2.371,0,0,0,.6,1.716,2.148,2.148,0,0,0,1.624.629A2.537,2.537,0,0,0,15.442-1.7Zm5.264.246a2.748,2.748,0,0,1-1.224.232q-2.037,0-2.037-1.955V-5.756H16.276V-7h1.169V-8.62l1.586-.451V-7h1.675v1.244H19.031v3.5a1.379,1.379,0,0,0,.226.889.936.936,0,0,0,.752.267,1.09,1.09,0,0,0,.7-.232ZM22.873-8.47a.953.953,0,0,1-.667-.253.832.832,0,0,1-.277-.643.854.854,0,0,1,.277-.649.939.939,0,0,1,.667-.26.969.969,0,0,1,.684.26.849.849,0,0,1,.28.649.837.837,0,0,1-.28.632A.962.962,0,0,1,22.873-8.47ZM23.659,0H22.073V-7h1.586Zm5.175.164a3.47,3.47,0,0,1-2.587-.981,3.544,3.544,0,0,1-.967-2.6,3.687,3.687,0,0,1,1.008-2.755A3.708,3.708,0,0,1,29-7.164a3.358,3.358,0,0,1,2.557.964,3.723,3.723,0,0,1,.916,2.673A3.669,3.669,0,0,1,31.49-.844,3.548,3.548,0,0,1,28.834.164ZM28.909-5.9a1.81,1.81,0,0,0-1.47.649,2.719,2.719,0,0,0-.54,1.791,2.561,2.561,0,0,0,.547,1.733,1.837,1.837,0,0,0,1.463.632,1.743,1.743,0,0,0,1.439-.622,2.754,2.754,0,0,0,.5-1.771,2.8,2.8,0,0,0-.5-1.784A1.734,1.734,0,0,0,28.909-5.9ZM40.325,0H38.739V-3.944q0-1.962-1.388-1.962a1.515,1.515,0,0,0-1.2.543,2.016,2.016,0,0,0-.472,1.371V0H34.091V-7h1.593v1.162h.027a2.5,2.5,0,0,1,2.27-1.326,2.114,2.114,0,0,1,1.743.742,3.33,3.33,0,0,1,.6,2.143Z" transform="translate(30 31)" fill="#fff"/>
    </g>
    <g id="Table-3" data-name="Table" transform="translate(30 76)">
      <g transform="matrix(1, 0, 0, 1, -30, -76)" filter="url(#BG_-_main-3)">
        <rect id="BG_-_main-6" data-name="BG - main" width="940" height="128" rx="2" transform="translate(30 76)" fill="#fff"/>
      </g>
      <rect id="Divider_-_column_header-3" data-name="Divider - column header" width="940" height="1" transform="translate(0 106)" fill="#cbcbd2"/>
      <g id="Column_header-3" data-name="Column header" transform="translate(0 -3.5)">
        <g id="phone-7" data-name="phone" transform="translate(662 63.5)">
          <rect id="Clickable_area-11" data-name="Clickable area" width="179" height="46" fill="#fff"/>
          <g id="Sort-17" data-name="Sort" transform="translate(57 4)">
            <ellipse id="Ellipse_2069-9" data-name="Ellipse 2069" cx="16" cy="19.5" rx="16" ry="19.5" fill="none"/>
            <g id="Sort-18" data-name="Sort" transform="translate(8 9.738)">
              <g id="Group_13118-9" data-name="Group 13118">
                <rect id="Rectangle_6828-9" data-name="Rectangle 6828" width="15.953" height="15.953" transform="translate(0 0.024)" fill="none"/>
                <g id="Group_13117-9" data-name="Group 13117" transform="translate(2.968)">
                  <path id="Path_8841-9" data-name="Path 8841" d="M5.751,6.369a.266.266,0,0,0,.4,0L9.473,3.046,12.8,6.369a.266.266,0,0,0,.4,0l1.2-1.2a.266.266,0,0,0,0-.4L9.673.055a.266.266,0,0,0-.4,0L4.555,4.84a.266.266,0,0,0,0,.4Z" transform="translate(-4.465 0.035)" fill="#afafbb"/>
                  <path id="Path_8842-9" data-name="Path 8842" d="M13.2,14.355a.266.266,0,0,0-.4,0L9.473,17.678,6.15,14.355a.266.266,0,0,0-.4,0l-1.2,1.2a.266.266,0,0,0,0,.4l4.719,4.719a.266.266,0,0,0,.4,0l4.719-4.719a.266.266,0,0,0,0-.4Z" transform="translate(-4.465 -4.759)" fill="#afafbb"/>
                </g>
              </g>
            </g>
          </g>
          <path id="Path_102263" data-name="Path 102263" d="M2.83-3.555V0H1.21V-9.8H4.184A3.939,3.939,0,0,1,6.8-9.017,2.741,2.741,0,0,1,7.731-6.8a3.06,3.06,0,0,1-.971,2.338,3.686,3.686,0,0,1-2.625.909Zm0-4.908v3.582H3.883a2.328,2.328,0,0,0,1.593-.485,1.732,1.732,0,0,0,.547-1.367q0-1.729-2.01-1.729ZM15.436,0H13.85V-3.828q0-2.078-1.388-2.078a1.451,1.451,0,0,0-1.176.6,2.394,2.394,0,0,0-.479,1.538V0H9.215V-10.363h1.593v4.525h.027A2.5,2.5,0,0,1,13.1-7.164q2.331,0,2.331,2.851Zm5.031.164a3.47,3.47,0,0,1-2.587-.981,3.544,3.544,0,0,1-.967-2.6A3.687,3.687,0,0,1,17.92-6.173a3.708,3.708,0,0,1,2.717-.991,3.358,3.358,0,0,1,2.557.964,3.723,3.723,0,0,1,.916,2.673,3.669,3.669,0,0,1-.988,2.683A3.548,3.548,0,0,1,20.467.164ZM20.542-5.9a1.81,1.81,0,0,0-1.47.649,2.719,2.719,0,0,0-.54,1.791,2.561,2.561,0,0,0,.547,1.733,1.837,1.837,0,0,0,1.463.632,1.743,1.743,0,0,0,1.439-.622,2.754,2.754,0,0,0,.5-1.771,2.8,2.8,0,0,0-.5-1.784A1.734,1.734,0,0,0,20.542-5.9ZM31.958,0H30.372V-3.944q0-1.962-1.388-1.962a1.515,1.515,0,0,0-1.2.543,2.016,2.016,0,0,0-.472,1.371V0H25.724V-7h1.593v1.162h.027a2.5,2.5,0,0,1,2.27-1.326,2.114,2.114,0,0,1,1.743.742,3.33,3.33,0,0,1,.6,2.143Zm7.861-3.069H35.048a2.017,2.017,0,0,0,.6,1.5,2.225,2.225,0,0,0,1.569.526,3.459,3.459,0,0,0,2.058-.67V-.437a4.7,4.7,0,0,1-2.529.6A3.131,3.131,0,0,1,34.32-.79a3.814,3.814,0,0,1-.878-2.683,3.73,3.73,0,0,1,.967-2.663,3.164,3.164,0,0,1,2.4-1.029,2.759,2.759,0,0,1,2.222.923,3.832,3.832,0,0,1,.786,2.563ZM38.288-4.19a2.044,2.044,0,0,0-.4-1.33A1.348,1.348,0,0,0,36.791-6a1.539,1.539,0,0,0-1.159.5,2.28,2.28,0,0,0-.584,1.306Z" transform="translate(15 26)" fill="#3d3d3d"/>
        </g>
        <g id="email_address-5" data-name="email address" transform="translate(445 63.5)">
          <rect id="Clickable_area-12" data-name="Clickable area" width="217" height="46" fill="#fff"/>
          <g id="Sort-19" data-name="Sort" transform="translate(105 4)">
            <ellipse id="Ellipse_2069-10" data-name="Ellipse 2069" cx="16" cy="19.5" rx="16" ry="19.5" fill="none"/>
            <g id="Sort-20" data-name="Sort" transform="translate(8 9.75)">
              <g id="Group_13118-10" data-name="Group 13118">
                <rect id="Rectangle_6828-10" data-name="Rectangle 6828" width="15.953" height="15.953" transform="translate(0 0.024)" fill="none"/>
                <g id="Group_13117-10" data-name="Group 13117" transform="translate(2.968)">
                  <path id="Path_8841-10" data-name="Path 8841" d="M5.751,6.369a.266.266,0,0,0,.4,0L9.473,3.046,12.8,6.369a.266.266,0,0,0,.4,0l1.2-1.2a.266.266,0,0,0,0-.4L9.673.055a.266.266,0,0,0-.4,0L4.555,4.84a.266.266,0,0,0,0,.4Z" transform="translate(-4.465 0.035)" fill="#afafbb"/>
                  <path id="Path_8842-10" data-name="Path 8842" d="M13.2,14.355a.266.266,0,0,0-.4,0L9.473,17.678,6.15,14.355a.266.266,0,0,0-.4,0l-1.2,1.2a.266.266,0,0,0,0,.4l4.719,4.719a.266.266,0,0,0,.4,0l4.719-4.719a.266.266,0,0,0,0-.4Z" transform="translate(-4.465 -4.759)" fill="#afafbb"/>
                </g>
              </g>
            </g>
          </g>
          <path id="Path_102262" data-name="Path 102262" d="M6.713,0H1.21V-9.8H6.494v1.381H2.837v2.775h3.37v1.374H2.837v2.9H6.713ZM18.744,0H17.158V-3.814a3.091,3.091,0,0,0-.311-1.593A1.144,1.144,0,0,0,15.8-5.9a1.265,1.265,0,0,0-1.056.622,2.538,2.538,0,0,0-.434,1.49V0H12.715V-3.944q0-1.955-1.381-1.955a1.246,1.246,0,0,0-1.056.588,2.592,2.592,0,0,0-.414,1.524V0H8.278V-7H9.864v1.107h.027A2.425,2.425,0,0,1,12.1-7.164a2.082,2.082,0,0,1,1.268.4,1.992,1.992,0,0,1,.742,1.049,2.5,2.5,0,0,1,2.324-1.449q2.311,0,2.311,2.851Zm7.308,0H24.514V-1.094h-.027A2.316,2.316,0,0,1,22.36.164,2.239,2.239,0,0,1,20.744-.4a1.961,1.961,0,0,1-.584-1.483q0-1.982,2.283-2.311l2.078-.294q0-1.5-1.422-1.5a3.378,3.378,0,0,0-2.256.861V-6.508A4.919,4.919,0,0,1,23.4-7.164a2.326,2.326,0,0,1,2.652,2.611ZM24.521-3.438l-1.47.205a2.33,2.33,0,0,0-1.029.332.969.969,0,0,0-.345.851.932.932,0,0,0,.318.728,1.231,1.231,0,0,0,.851.284,1.57,1.57,0,0,0,1.2-.509,1.806,1.806,0,0,0,.475-1.282ZM28.786-8.47a.953.953,0,0,1-.667-.253.832.832,0,0,1-.277-.643.854.854,0,0,1,.277-.649.939.939,0,0,1,.667-.26.969.969,0,0,1,.684.26.849.849,0,0,1,.28.649.837.837,0,0,1-.28.632A.962.962,0,0,1,28.786-8.47ZM29.572,0H27.986V-7h1.586Zm3.664,0H31.644V-10.363h1.593ZM44.522,0H42.984V-1.094h-.027A2.316,2.316,0,0,1,40.831.164,2.239,2.239,0,0,1,39.214-.4,1.961,1.961,0,0,1,38.63-1.88q0-1.982,2.283-2.311l2.078-.294q0-1.5-1.422-1.5a3.378,3.378,0,0,0-2.256.861V-6.508a4.919,4.919,0,0,1,2.557-.656,2.326,2.326,0,0,1,2.652,2.611ZM42.991-3.438l-1.47.205a2.33,2.33,0,0,0-1.029.332.969.969,0,0,0-.345.851.932.932,0,0,0,.318.728,1.231,1.231,0,0,0,.851.284,1.57,1.57,0,0,0,1.2-.509,1.806,1.806,0,0,0,.475-1.282ZM52.821,0H51.235V-1.189h-.027A2.53,2.53,0,0,1,48.85.164a2.546,2.546,0,0,1-2.068-.94,3.9,3.9,0,0,1-.776-2.56,4.251,4.251,0,0,1,.858-2.782A2.808,2.808,0,0,1,49.15-7.164a2.19,2.19,0,0,1,2.058,1.135h.027v-4.334h1.586ZM51.256-3.2v-.916a1.785,1.785,0,0,0-.485-1.265,1.619,1.619,0,0,0-1.237-.52,1.666,1.666,0,0,0-1.4.663A2.955,2.955,0,0,0,47.626-3.4a2.648,2.648,0,0,0,.489,1.685,1.59,1.59,0,0,0,1.316.619,1.646,1.646,0,0,0,1.319-.6A2.253,2.253,0,0,0,51.256-3.2Zm10,3.2H59.671V-1.189h-.027A2.53,2.53,0,0,1,57.285.164a2.546,2.546,0,0,1-2.068-.94,3.9,3.9,0,0,1-.776-2.56A4.251,4.251,0,0,1,55.3-6.118a2.808,2.808,0,0,1,2.287-1.046,2.19,2.19,0,0,1,2.058,1.135h.027v-4.334h1.586ZM59.691-3.2v-.916a1.785,1.785,0,0,0-.485-1.265,1.619,1.619,0,0,0-1.237-.52,1.666,1.666,0,0,0-1.4.663A2.955,2.955,0,0,0,56.062-3.4a2.648,2.648,0,0,0,.489,1.685,1.59,1.59,0,0,0,1.316.619,1.646,1.646,0,0,0,1.319-.6A2.253,2.253,0,0,0,59.691-3.2Zm7.7-2.29a1.315,1.315,0,0,0-.827-.226,1.416,1.416,0,0,0-1.176.636,2.843,2.843,0,0,0-.472,1.729V0H63.328V-7h1.586v1.442h.027a2.438,2.438,0,0,1,.714-1.152,1.612,1.612,0,0,1,1.077-.414,1.337,1.337,0,0,1,.656.13Zm6.925,2.42H69.542a2.017,2.017,0,0,0,.6,1.5,2.225,2.225,0,0,0,1.569.526,3.459,3.459,0,0,0,2.058-.67V-.437a4.7,4.7,0,0,1-2.529.6A3.131,3.131,0,0,1,68.814-.79a3.814,3.814,0,0,1-.878-2.683A3.73,3.73,0,0,1,68.9-6.135a3.164,3.164,0,0,1,2.4-1.029,2.759,2.759,0,0,1,2.222.923,3.832,3.832,0,0,1,.786,2.563ZM72.782-4.19a2.044,2.044,0,0,0-.4-1.33A1.348,1.348,0,0,0,71.285-6a1.539,1.539,0,0,0-1.159.5,2.28,2.28,0,0,0-.584,1.306Zm2.6,3.972v-1.47a3.164,3.164,0,0,0,1.962.677q1.436,0,1.436-.848a.668.668,0,0,0-.123-.407,1.175,1.175,0,0,0-.332-.3,2.607,2.607,0,0,0-.492-.232q-.284-.1-.632-.232a6.694,6.694,0,0,1-.776-.362,2.344,2.344,0,0,1-.574-.434,1.639,1.639,0,0,1-.345-.55,2.026,2.026,0,0,1-.116-.718,1.659,1.659,0,0,1,.239-.892,2.079,2.079,0,0,1,.643-.649,3.081,3.081,0,0,1,.916-.4,4.194,4.194,0,0,1,1.06-.133,4.817,4.817,0,0,1,1.736.294v1.388a2.927,2.927,0,0,0-1.7-.506,2.214,2.214,0,0,0-.543.062,1.4,1.4,0,0,0-.414.171.841.841,0,0,0-.267.263.628.628,0,0,0-.1.338.723.723,0,0,0,.1.383.869.869,0,0,0,.284.277,2.451,2.451,0,0,0,.451.219q.263.1.6.215a8.839,8.839,0,0,1,.81.376,2.737,2.737,0,0,1,.612.434,1.7,1.7,0,0,1,.39.561,1.9,1.9,0,0,1,.137.755A1.727,1.727,0,0,1,80.11-1a2.051,2.051,0,0,1-.656.656,3.072,3.072,0,0,1-.947.386,4.919,4.919,0,0,1-1.131.126A4.767,4.767,0,0,1,75.387-.219Zm6.036,0v-1.47a3.164,3.164,0,0,0,1.962.677q1.436,0,1.436-.848a.668.668,0,0,0-.123-.407,1.175,1.175,0,0,0-.332-.3,2.607,2.607,0,0,0-.492-.232q-.284-.1-.632-.232a6.694,6.694,0,0,1-.776-.362,2.344,2.344,0,0,1-.574-.434,1.639,1.639,0,0,1-.345-.55,2.026,2.026,0,0,1-.116-.718,1.659,1.659,0,0,1,.239-.892,2.079,2.079,0,0,1,.643-.649,3.081,3.081,0,0,1,.916-.4,4.194,4.194,0,0,1,1.06-.133,4.817,4.817,0,0,1,1.736.294v1.388a2.927,2.927,0,0,0-1.7-.506,2.214,2.214,0,0,0-.543.062,1.4,1.4,0,0,0-.414.171.841.841,0,0,0-.267.263.628.628,0,0,0-.1.338.723.723,0,0,0,.1.383.869.869,0,0,0,.284.277,2.451,2.451,0,0,0,.451.219q.263.1.6.215a8.839,8.839,0,0,1,.81.376,2.737,2.737,0,0,1,.612.434,1.7,1.7,0,0,1,.39.561,1.9,1.9,0,0,1,.137.755,1.727,1.727,0,0,1-.246.93,2.051,2.051,0,0,1-.656.656,3.072,3.072,0,0,1-.947.386,4.919,4.919,0,0,1-1.131.126A4.767,4.767,0,0,1,81.423-.219Z" transform="translate(16 26)" fill="#3d3d3d"/>
        </g>
        <g id="city-5" data-name="city" transform="translate(217 63.5)">
          <rect id="Clickable_area-13" data-name="Clickable area" width="226" height="46" fill="#fff"/>
          <g id="Sort-21" data-name="Sort" transform="translate(43 4)">
            <ellipse id="Ellipse_2069-11" data-name="Ellipse 2069" cx="16" cy="19.5" rx="16" ry="19.5" fill="none"/>
            <g id="Sort-22" data-name="Sort" transform="translate(8 9.75)">
              <g id="Group_13118-11" data-name="Group 13118">
                <rect id="Rectangle_6828-11" data-name="Rectangle 6828" width="15.953" height="15.953" transform="translate(0 0.024)" fill="none"/>
                <g id="Group_13117-11" data-name="Group 13117" transform="translate(2.968)">
                  <path id="Path_8841-11" data-name="Path 8841" d="M5.751,6.369a.266.266,0,0,0,.4,0L9.473,3.046,12.8,6.369a.266.266,0,0,0,.4,0l1.2-1.2a.266.266,0,0,0,0-.4L9.673.055a.266.266,0,0,0-.4,0L4.555,4.84a.266.266,0,0,0,0,.4Z" transform="translate(-4.465 0.035)" fill="#afafbb"/>
                  <path id="Path_8842-11" data-name="Path 8842" d="M13.2,14.355a.266.266,0,0,0-.4,0L9.473,17.678,6.15,14.355a.266.266,0,0,0-.4,0l-1.2,1.2a.266.266,0,0,0,0,.4l4.719,4.719a.266.266,0,0,0,.4,0l4.719-4.719a.266.266,0,0,0,0-.4Z" transform="translate(-4.465 -4.759)" fill="#afafbb"/>
                </g>
              </g>
            </g>
          </g>
          <path id="Path_102261" data-name="Path 102261" d="M8.046-.41A5.943,5.943,0,0,1,5.291.164,4.5,4.5,0,0,1,1.873-1.183,4.907,4.907,0,0,1,.588-4.717a5.146,5.146,0,0,1,1.446-3.8A4.946,4.946,0,0,1,5.688-9.967a5.988,5.988,0,0,1,2.358.4V-7.95a4.208,4.208,0,0,0-2.187-.588A3.433,3.433,0,0,0,3.278-7.52,3.742,3.742,0,0,0,2.29-4.8a3.568,3.568,0,0,0,.923,2.581,3.212,3.212,0,0,0,2.427.96,4.345,4.345,0,0,0,2.406-.656Zm2.481-8.06a.953.953,0,0,1-.667-.253.832.832,0,0,1-.277-.643.854.854,0,0,1,.277-.649.939.939,0,0,1,.667-.26.969.969,0,0,1,.684.26.849.849,0,0,1,.28.649.837.837,0,0,1-.28.632A.962.962,0,0,1,10.527-8.47ZM11.313,0H9.728V-7h1.586Zm5.763-.075a2.748,2.748,0,0,1-1.224.232q-2.037,0-2.037-1.955V-5.756H12.646V-7h1.169V-8.62L15.4-9.071V-7h1.675v1.244H15.4v3.5a1.379,1.379,0,0,0,.226.889.936.936,0,0,0,.752.267,1.09,1.09,0,0,0,.7-.232ZM24.507-7,21.349,1.121q-.984,2.174-2.762,2.174a3.311,3.311,0,0,1-.834-.089V1.887a2.218,2.218,0,0,0,.684.123,1.411,1.411,0,0,0,1.326-.875l.472-1.148L17.452-7h1.757l1.668,5.086q.027.1.123.506h.034q.034-.157.123-.492L22.907-7Z" transform="translate(16 26)" fill="#3d3d3d"/>
        </g>
        <g id="name-5" data-name="name" transform="translate(20 63.5)">
          <rect id="Clickable_area-14" data-name="Clickable area" width="197" height="46" fill="#fff"/>
          <g id="Sort-23" data-name="Sort" transform="translate(40 4)">
            <ellipse id="Ellipse_2069-12" data-name="Ellipse 2069" cx="16" cy="19.5" rx="16" ry="19.5" fill="none"/>
            <g id="Sort-24" data-name="Sort" transform="translate(8 9.75)">
              <g id="Group_13118-12" data-name="Group 13118">
                <rect id="Rectangle_6828-12" data-name="Rectangle 6828" width="15.953" height="15.953" transform="translate(0 0.024)" fill="none"/>
                <g id="Group_13117-12" data-name="Group 13117" transform="translate(2.968)">
                  <path id="Path_8841-12" data-name="Path 8841" d="M5.751,6.369a.266.266,0,0,0,.4,0L9.473,3.046,12.8,6.369a.266.266,0,0,0,.4,0l1.2-1.2a.266.266,0,0,0,0-.4L9.673.055a.266.266,0,0,0-.4,0L4.555,4.84a.266.266,0,0,0,0,.4Z" transform="translate(-4.465 0.035)" fill="#2777d3"/>
                  <path id="Path_8842-12" data-name="Path 8842" d="M13.2,14.355a.266.266,0,0,0-.4,0L9.473,17.678,6.15,14.355a.266.266,0,0,0-.4,0l-1.2,1.2a.266.266,0,0,0,0,.4l4.719,4.719a.266.266,0,0,0,.4,0l4.719-4.719a.266.266,0,0,0,0-.4Z" transform="translate(-4.465 -4.759)" fill="#afafbb"/>
                </g>
              </g>
            </g>
          </g>
          <path id="Path_102260" data-name="Path 102260" d="M9.522,0H7.745L3.063-7.205a3.2,3.2,0,0,1-.294-.567H2.728a10.092,10.092,0,0,1,.055,1.347V0H1.21V-9.8H3.1L7.629-2.769q.287.438.369.6h.027a8.71,8.71,0,0,1-.068-1.319V-9.8H9.522Zm7.622,0H15.606V-1.094h-.027A2.316,2.316,0,0,1,13.453.164,2.239,2.239,0,0,1,11.836-.4a1.961,1.961,0,0,1-.584-1.483q0-1.982,2.283-2.311l2.078-.294q0-1.5-1.422-1.5a3.378,3.378,0,0,0-2.256.861V-6.508a4.919,4.919,0,0,1,2.557-.656,2.326,2.326,0,0,1,2.652,2.611ZM15.613-3.438l-1.47.205a2.33,2.33,0,0,0-1.029.332.969.969,0,0,0-.345.851.932.932,0,0,0,.318.728,1.231,1.231,0,0,0,.851.284,1.57,1.57,0,0,0,1.2-.509,1.806,1.806,0,0,0,.475-1.282ZM29.545,0H27.959V-3.814a3.091,3.091,0,0,0-.311-1.593A1.144,1.144,0,0,0,26.6-5.9a1.265,1.265,0,0,0-1.056.622,2.538,2.538,0,0,0-.434,1.49V0H23.516V-3.944q0-1.955-1.381-1.955a1.246,1.246,0,0,0-1.056.588,2.592,2.592,0,0,0-.414,1.524V0H19.079V-7h1.586v1.107h.027A2.425,2.425,0,0,1,22.9-7.164a2.082,2.082,0,0,1,1.268.4,1.992,1.992,0,0,1,.742,1.049,2.5,2.5,0,0,1,2.324-1.449q2.311,0,2.311,2.851Zm7.861-3.069H32.635a2.017,2.017,0,0,0,.6,1.5,2.225,2.225,0,0,0,1.569.526,3.459,3.459,0,0,0,2.058-.67V-.437a4.7,4.7,0,0,1-2.529.6A3.131,3.131,0,0,1,31.907-.79a3.814,3.814,0,0,1-.878-2.683A3.73,3.73,0,0,1,32-6.135a3.164,3.164,0,0,1,2.4-1.029,2.759,2.759,0,0,1,2.222.923,3.832,3.832,0,0,1,.786,2.563ZM35.875-4.19a2.044,2.044,0,0,0-.4-1.33A1.348,1.348,0,0,0,34.378-6a1.539,1.539,0,0,0-1.159.5,2.28,2.28,0,0,0-.584,1.306Z" transform="translate(0 25.8)" fill="#3d3d3d"/>
        </g>
        <g id="phone-8" data-name="phone" transform="translate(-0.299 -63)">
          <rect id="Clickable_area-15" data-name="Clickable area" width="76" height="46" transform="translate(864.299 123)" fill="#fff"/>
          <path id="Path_102264" data-name="Path 102264" d="M9.263,0H7.479L6.6-2.5H2.741L1.894,0H.116L3.787-9.8H5.619Zm-3.1-3.821-1.36-3.91a4.631,4.631,0,0,1-.13-.615H4.648a4,4,0,0,1-.137.615L3.165-3.821Zm9.276,3.5a3.911,3.911,0,0,1-1.989.485A3.369,3.369,0,0,1,10.938-.81,3.451,3.451,0,0,1,9.98-3.336a3.8,3.8,0,0,1,1.029-2.779,3.678,3.678,0,0,1,2.751-1.049,4.016,4.016,0,0,1,1.688.335v1.477A2.557,2.557,0,0,0,13.891-5.9a2.166,2.166,0,0,0-1.647.68A2.487,2.487,0,0,0,11.6-3.438a2.371,2.371,0,0,0,.6,1.716,2.148,2.148,0,0,0,1.624.629A2.537,2.537,0,0,0,15.442-1.7Zm5.264.246a2.748,2.748,0,0,1-1.224.232q-2.037,0-2.037-1.955V-5.756H16.276V-7h1.169V-8.62l1.586-.451V-7h1.675v1.244H19.031v3.5a1.379,1.379,0,0,0,.226.889.936.936,0,0,0,.752.267,1.09,1.09,0,0,0,.7-.232ZM22.873-8.47a.953.953,0,0,1-.667-.253.832.832,0,0,1-.277-.643.854.854,0,0,1,.277-.649.939.939,0,0,1,.667-.26.969.969,0,0,1,.684.26.849.849,0,0,1,.28.649.837.837,0,0,1-.28.632A.962.962,0,0,1,22.873-8.47ZM23.659,0H22.073V-7h1.586Zm5.175.164a3.47,3.47,0,0,1-2.587-.981,3.544,3.544,0,0,1-.967-2.6,3.687,3.687,0,0,1,1.008-2.755A3.708,3.708,0,0,1,29-7.164a3.358,3.358,0,0,1,2.557.964,3.723,3.723,0,0,1,.916,2.673A3.669,3.669,0,0,1,31.49-.844,3.548,3.548,0,0,1,28.834.164ZM28.909-5.9a1.81,1.81,0,0,0-1.47.649,2.719,2.719,0,0,0-.54,1.791,2.561,2.561,0,0,0,.547,1.733,1.837,1.837,0,0,0,1.463.632,1.743,1.743,0,0,0,1.439-.622,2.754,2.754,0,0,0,.5-1.771,2.8,2.8,0,0,0-.5-1.784A1.734,1.734,0,0,0,28.909-5.9ZM40.325,0H38.739V-3.944q0-1.962-1.388-1.962a1.515,1.515,0,0,0-1.2.543,2.016,2.016,0,0,0-.472,1.371V0H34.091V-7h1.593v1.162h.027a2.5,2.5,0,0,1,2.27-1.326,2.114,2.114,0,0,1,1.743.742,3.33,3.33,0,0,1,.6,2.143Z" transform="translate(879.299 152)" fill="#3d3d3d"/>
        </g>
      </g>
      <g id="Table_header-3" data-name="Table header" transform="translate(-81 -63)">
        <path id="BG_-_table_header-3" data-name="BG - table header" d="M2,0H938a2,2,0,0,1,2,2V60a0,0,0,0,1,0,0H0a0,0,0,0,1,0,0V2A2,2,0,0,1,2,0Z" transform="translate(81 63)" fill="#fafafa"/>
        <path id="_of_items-3" data-name="# of items" d="M5.678-2.566a2.828,2.828,0,0,1-.211,1.113,2.434,2.434,0,0,1-.6.855,2.689,2.689,0,0,1-.94.551A3.678,3.678,0,0,1,2.7.146,3.383,3.383,0,0,1,.961-.205v-1.02a3.2,3.2,0,0,0,1.752.551,2.371,2.371,0,0,0,.823-.135,1.829,1.829,0,0,0,.624-.375,1.606,1.606,0,0,0,.4-.58,1.964,1.964,0,0,0,.138-.744,1.594,1.594,0,0,0-.551-1.286,2.415,2.415,0,0,0-1.6-.466q-.17,0-.357.006l-.375.015q-.187.009-.366.021t-.325.029L1.406-8.4H5.291v.867H2.238l-.17,2.467q.187-.012.4-.021T2.842-5.1a3.771,3.771,0,0,1,1.2.176,2.533,2.533,0,0,1,.894.5,2.1,2.1,0,0,1,.557.8A2.8,2.8,0,0,1,5.678-2.566Zm6.768-1.67a8.254,8.254,0,0,1-.19,1.869A4.355,4.355,0,0,1,11.7-.993a2.479,2.479,0,0,1-.885.85,2.422,2.422,0,0,1-1.192.29A2.262,2.262,0,0,1,8.5-.132a2.364,2.364,0,0,1-.835-.812,4.113,4.113,0,0,1-.516-1.31,8.1,8.1,0,0,1-.176-1.778,9.166,9.166,0,0,1,.185-1.945A4.45,4.45,0,0,1,7.7-7.392a2.412,2.412,0,0,1,.888-.861A2.492,2.492,0,0,1,9.8-8.543Q12.445-8.543,12.445-4.236Zm-.984.094q0-3.586-1.705-3.586-1.8,0-1.8,3.65,0,3.4,1.764,3.4Q11.461-.674,11.461-4.143ZM22.049,0h-.961V-.949h-.023A1.973,1.973,0,0,1,19.213.141q-2.145,0-2.145-2.555V-6h.955v3.434q0,1.9,1.453,1.9a1.47,1.47,0,0,0,1.157-.519,1.984,1.984,0,0,0,.454-1.356V-6h.961Zm1.576-.217V-1.248a2.844,2.844,0,0,0,1.729.58q1.266,0,1.266-.844a.732.732,0,0,0-.108-.407,1.08,1.08,0,0,0-.293-.3,2.255,2.255,0,0,0-.434-.231q-.249-.1-.536-.214a6.9,6.9,0,0,1-.7-.319,2.115,2.115,0,0,1-.5-.363,1.352,1.352,0,0,1-.3-.46,1.627,1.627,0,0,1-.1-.6,1.434,1.434,0,0,1,.193-.747,1.715,1.715,0,0,1,.516-.545,2.4,2.4,0,0,1,.735-.331,3.262,3.262,0,0,1,.853-.111,3.442,3.442,0,0,1,1.395.27V-4.9A2.718,2.718,0,0,0,25.8-5.332a1.781,1.781,0,0,0-.486.062,1.191,1.191,0,0,0-.372.173.8.8,0,0,0-.24.267.7.7,0,0,0-.085.343.822.822,0,0,0,.085.393.864.864,0,0,0,.249.281,1.9,1.9,0,0,0,.4.223q.234.1.533.217a7.421,7.421,0,0,1,.715.313,2.452,2.452,0,0,1,.539.363,1.42,1.42,0,0,1,.343.466,1.5,1.5,0,0,1,.12.627,1.478,1.478,0,0,1-.2.773,1.682,1.682,0,0,1-.524.545,2.4,2.4,0,0,1-.756.322,3.732,3.732,0,0,1-.9.105A3.4,3.4,0,0,1,23.625-.217ZM33.9-2.76H29.666a2.244,2.244,0,0,0,.539,1.547,1.858,1.858,0,0,0,1.418.545,2.948,2.948,0,0,0,1.863-.668v.9a3.482,3.482,0,0,1-2.092.574,2.536,2.536,0,0,1-2-.817,3.346,3.346,0,0,1-.727-2.3,3.281,3.281,0,0,1,.794-2.282,2.546,2.546,0,0,1,1.972-.882,2.256,2.256,0,0,1,1.822.762A3.176,3.176,0,0,1,33.9-3.264Zm-.984-.814a1.955,1.955,0,0,0-.4-1.295,1.368,1.368,0,0,0-1.1-.463,1.552,1.552,0,0,0-1.154.486,2.207,2.207,0,0,0-.586,1.271Zm5.566-1.453a1.175,1.175,0,0,0-.727-.193,1.226,1.226,0,0,0-1.028.58,2.682,2.682,0,0,0-.413,1.582V0h-.961V-6h.961v1.236h.023a2.1,2.1,0,0,1,.627-.987,1.43,1.43,0,0,1,.943-.354,1.569,1.569,0,0,1,.574.082Zm.68,4.811V-1.248a2.844,2.844,0,0,0,1.729.58q1.266,0,1.266-.844a.732.732,0,0,0-.108-.407,1.08,1.08,0,0,0-.293-.3,2.255,2.255,0,0,0-.434-.231q-.249-.1-.536-.214a6.9,6.9,0,0,1-.7-.319,2.115,2.115,0,0,1-.5-.363,1.352,1.352,0,0,1-.3-.46,1.627,1.627,0,0,1-.1-.6,1.434,1.434,0,0,1,.193-.747,1.715,1.715,0,0,1,.516-.545,2.4,2.4,0,0,1,.735-.331,3.262,3.262,0,0,1,.853-.111,3.442,3.442,0,0,1,1.395.27V-4.9a2.718,2.718,0,0,0-1.523-.434,1.781,1.781,0,0,0-.486.062,1.191,1.191,0,0,0-.372.173.8.8,0,0,0-.24.267.7.7,0,0,0-.085.343.822.822,0,0,0,.085.393.864.864,0,0,0,.249.281,1.9,1.9,0,0,0,.4.223q.234.1.533.217a7.421,7.421,0,0,1,.715.313,2.452,2.452,0,0,1,.539.363,1.42,1.42,0,0,1,.343.466,1.5,1.5,0,0,1,.12.627,1.478,1.478,0,0,1-.2.773,1.682,1.682,0,0,1-.524.545,2.4,2.4,0,0,1-.756.322,3.732,3.732,0,0,1-.9.105A3.4,3.4,0,0,1,39.164-.217Z" transform="translate(964 98)" fill="#9494a4"/>
        <g id="Link_Icon-3" data-name="Link + Icon" transform="translate(407 77)">
          <rect id="BG-3" data-name="BG" width="86.646" height="33" rx="16.5" fill="none"/>
          <g id="Content-3" data-name="Content" transform="translate(0 -2)">
            <path id="Path_102246" data-name="Path 102246" d="M6.5-8.422H2.837v2.946H6.214V-4.1H2.837V0H1.21V-9.8H6.5ZM8.866-8.47A.953.953,0,0,1,8.2-8.723a.832.832,0,0,1-.277-.643.854.854,0,0,1,.277-.649.939.939,0,0,1,.667-.26.969.969,0,0,1,.684.26.849.849,0,0,1,.28.649.837.837,0,0,1-.28.632A.962.962,0,0,1,8.866-8.47ZM9.652,0H8.066V-7H9.652Zm3.664,0H11.724V-10.363h1.593Zm5.756-.075a2.748,2.748,0,0,1-1.224.232q-2.037,0-2.037-1.955V-5.756H14.643V-7h1.169V-8.62L17.4-9.071V-7h1.675v1.244H17.4v3.5a1.379,1.379,0,0,0,.226.889.936.936,0,0,0,.752.267,1.09,1.09,0,0,0,.7-.232Zm7.212-2.994H21.513a2.017,2.017,0,0,0,.6,1.5,2.225,2.225,0,0,0,1.569.526,3.459,3.459,0,0,0,2.058-.67V-.437a4.7,4.7,0,0,1-2.529.6A3.131,3.131,0,0,1,20.785-.79a3.814,3.814,0,0,1-.878-2.683,3.73,3.73,0,0,1,.967-2.663,3.164,3.164,0,0,1,2.4-1.029,2.759,2.759,0,0,1,2.222.923,3.832,3.832,0,0,1,.786,2.563ZM24.753-4.19a2.044,2.044,0,0,0-.4-1.33A1.348,1.348,0,0,0,23.256-6a1.539,1.539,0,0,0-1.159.5,2.28,2.28,0,0,0-.584,1.306Zm7.1-1.3a1.315,1.315,0,0,0-.827-.226,1.416,1.416,0,0,0-1.176.636,2.843,2.843,0,0,0-.472,1.729V0H27.795V-7h1.586v1.442h.027a2.439,2.439,0,0,1,.714-1.152A1.612,1.612,0,0,1,31.2-7.123a1.337,1.337,0,0,1,.656.13Z" transform="translate(39.79 23)" fill="#2777d3"/>
            <g id="Filter-7" data-name="Filter" transform="translate(23 18)">
              <g id="filter-8" data-name="filter" transform="translate(-8 -8)">
                <rect id="Rectangle_6829-3" data-name="Rectangle 6829" width="16" height="16" fill="none"/>
                <path id="Path_8843-3" data-name="Path 8843" d="M13,4.333,10.006,8.181l-.281.361v4.163l-1.333.445V8.543l-.281-.361L5.118,4.333H13M14.363,3H3.754A.667.667,0,0,0,3.23,4.076L7.058,9v5.537a.333.333,0,0,0,.439.316L10.6,13.818a.667.667,0,0,0,.456-.633V9l3.83-4.924A.667.667,0,0,0,14.363,3Z" transform="translate(-1.03 -1)" fill="#2777d3"/>
              </g>
            </g>
          </g>
        </g>
        <g id="Search_Input-3" data-name="Search Input" transform="translate(97 72)">
          <g id="Rectangle_298-3" data-name="Rectangle 298" fill="#fff" stroke="#f4f4f6" stroke-width="1">
            <rect width="300" height="42" rx="4" stroke="none"/>
            <rect x="0.5" y="0.5" width="299" height="41" rx="3.5" fill="none"/>
          </g>
          <path id="Path_102247" data-name="Path 102247" d="M.827-.4V-1.75a2.629,2.629,0,0,0,.557.369,4.514,4.514,0,0,0,.684.277,5.442,5.442,0,0,0,.721.174,4.021,4.021,0,0,0,.67.062,2.624,2.624,0,0,0,1.583-.393,1.33,1.33,0,0,0,.523-1.131,1.328,1.328,0,0,0-.174-.69,1.964,1.964,0,0,0-.482-.537,4.782,4.782,0,0,0-.728-.465q-.42-.222-.906-.468-.513-.26-.957-.526a4.147,4.147,0,0,1-.772-.588A2.452,2.452,0,0,1,1.029-6.4a2.253,2.253,0,0,1-.188-.954,2.242,2.242,0,0,1,.294-1.166,2.521,2.521,0,0,1,.772-.817A3.5,3.5,0,0,1,3-9.81a4.992,4.992,0,0,1,1.248-.157,4.781,4.781,0,0,1,2.112.349v1.292a3.829,3.829,0,0,0-2.229-.6,3.665,3.665,0,0,0-.752.079,2.124,2.124,0,0,0-.67.256,1.484,1.484,0,0,0-.479.458,1.216,1.216,0,0,0-.185.684,1.407,1.407,0,0,0,.14.649,1.592,1.592,0,0,0,.414.5,4.119,4.119,0,0,0,.667.438q.393.212.906.465t1,.547A4.562,4.562,0,0,1,6-4.218a2.825,2.825,0,0,1,.564.772,2.171,2.171,0,0,1,.208.971,2.462,2.462,0,0,1-.284,1.227,2.328,2.328,0,0,1-.766.817A3.344,3.344,0,0,1,4.607.024a6.084,6.084,0,0,1-1.326.14A5.4,5.4,0,0,1,2.707.126Q2.365.089,2.01.017a5.689,5.689,0,0,1-.673-.178A2.1,2.1,0,0,1,.827-.4ZM14.2-3.22H9.256a2.618,2.618,0,0,0,.629,1.8,2.168,2.168,0,0,0,1.654.636,3.439,3.439,0,0,0,2.174-.779V-.506a4.063,4.063,0,0,1-2.44.67A2.959,2.959,0,0,1,8.941-.79a3.9,3.9,0,0,1-.848-2.683A3.828,3.828,0,0,1,9.02-6.135a2.97,2.97,0,0,1,2.3-1.029,2.632,2.632,0,0,1,2.126.889A3.705,3.705,0,0,1,14.2-3.808ZM13.05-4.17a2.281,2.281,0,0,0-.468-1.511,1.6,1.6,0,0,0-1.282-.54,1.811,1.811,0,0,0-1.347.567A2.575,2.575,0,0,0,9.27-4.17ZM20.9,0H19.783V-1.094h-.027A2.347,2.347,0,0,1,17.6.164,2.3,2.3,0,0,1,15.965-.39a1.918,1.918,0,0,1-.591-1.47q0-1.962,2.311-2.283l2.1-.294q0-1.784-1.442-1.784a3.446,3.446,0,0,0-2.283.861V-6.508a4.338,4.338,0,0,1,2.379-.656q2.468,0,2.468,2.611ZM19.783-3.541l-1.688.232a2.741,2.741,0,0,0-1.176.386,1.114,1.114,0,0,0-.4.981,1.068,1.068,0,0,0,.366.837,1.413,1.413,0,0,0,.974.325,1.8,1.8,0,0,0,1.377-.584,2.088,2.088,0,0,0,.543-1.48Zm6.884-2.324a1.371,1.371,0,0,0-.848-.226,1.431,1.431,0,0,0-1.2.677,3.129,3.129,0,0,0-.482,1.846V0H23.017V-7h1.121v1.442h.027A2.444,2.444,0,0,1,24.9-6.709,1.668,1.668,0,0,1,26-7.123a1.83,1.83,0,0,1,.67.1ZM32.655-.321a3.643,3.643,0,0,1-1.914.485A3.169,3.169,0,0,1,28.325-.81a3.53,3.53,0,0,1-.919-2.526A3.881,3.881,0,0,1,28.4-6.115a3.467,3.467,0,0,1,2.646-1.049,3.682,3.682,0,0,1,1.627.342v1.148A2.85,2.85,0,0,0,31-6.221a2.254,2.254,0,0,0-1.76.769,2.918,2.918,0,0,0-.687,2.02A2.779,2.779,0,0,0,29.2-1.49a2.227,2.227,0,0,0,1.733.711,2.81,2.81,0,0,0,1.723-.608ZM40.161,0H39.04V-4.033q0-2.188-1.627-2.187a1.774,1.774,0,0,0-1.381.632,2.356,2.356,0,0,0-.561,1.624V0H34.351V-10.363h1.121v4.525H35.5a2.546,2.546,0,0,1,2.3-1.326q2.365,0,2.365,2.851Z" transform="translate(45 27)" fill="#cbcbd2"/>
          <path id="Path_458-3" data-name="Path 458" d="M303.8,258.3l-5-5a6.354,6.354,0,0,0,1.1-4.9,6.471,6.471,0,0,0-5.6-5.3,6.53,6.53,0,0,0-2,12.9,6.914,6.914,0,0,0,4.9-1.1l5,5a1.088,1.088,0,0,0,1.5,0A1.222,1.222,0,0,0,303.8,258.3Zm-14.7-9.5a4.458,4.458,0,0,1,3.7-3.7,4.57,4.57,0,0,1,5.2,5.2,4.458,4.458,0,0,1-3.7,3.7A4.609,4.609,0,0,1,289.1,248.8Z" transform="translate(-271.953 -231.052)" fill="#4e92df"/>
          <path id="Path_459-3" data-name="Path 459" d="M284.1,240h24v24h-24Z" transform="translate(-17 -231)" fill="none"/>
          <rect id="Rectangle_243-3" data-name="Rectangle 243" width="24" height="24" transform="translate(267 9)" fill="none"/>
        </g>
      </g>
    </g>
    <rect id="Rectangle_10531" data-name="Rectangle 10531" width="940" height="76" transform="translate(30 136)" fill="url(#linear-gradient)"/>
    <path id="Path_102259" data-name="Path 102259" d="M1.912-2.911V0h-.9V-7.7H3.126a2.793,2.793,0,0,1,1.915.6A2.148,2.148,0,0,1,5.72-5.4a2.334,2.334,0,0,1-.755,1.794,2.883,2.883,0,0,1-2.038.7Zm0-3.975v3.158h.945a2.114,2.114,0,0,0,1.426-.427A1.512,1.512,0,0,0,4.775-5.36q0-1.525-1.8-1.525ZM10.613,0H9.732V-.859H9.711A1.844,1.844,0,0,1,8.019.129,1.808,1.808,0,0,1,6.733-.306a1.507,1.507,0,0,1-.465-1.155Q6.268-3,8.083-3.255l1.649-.231q0-1.4-1.133-1.4a2.708,2.708,0,0,0-1.794.677v-.9a3.408,3.408,0,0,1,1.869-.516q1.939,0,1.939,2.052ZM9.732-2.782,8.406-2.6a2.154,2.154,0,0,0-.924.3.875.875,0,0,0-.312.771.839.839,0,0,0,.287.658,1.11,1.11,0,0,0,.765.255,1.414,1.414,0,0,0,1.082-.459,1.641,1.641,0,0,0,.427-1.163ZM16.967-.44q0,3.029-2.9,3.029A3.894,3.894,0,0,1,12.284,2.2V1.321a3.662,3.662,0,0,0,1.772.516q2.03,0,2.03-2.159v-.6h-.021A2.06,2.06,0,0,1,14.174.129,2.065,2.065,0,0,1,12.523-.6,2.931,2.931,0,0,1,11.9-2.573,3.424,3.424,0,0,1,12.571-4.8a2.252,2.252,0,0,1,1.845-.827,1.793,1.793,0,0,1,1.649.892h.021V-5.5h.881Zm-.881-2.046V-3.3a1.574,1.574,0,0,0-.443-1.123,1.459,1.459,0,0,0-1.1-.467,1.53,1.53,0,0,0-1.278.594A2.649,2.649,0,0,0,12.8-2.632a2.274,2.274,0,0,0,.443,1.469,1.432,1.432,0,0,0,1.174.551,1.533,1.533,0,0,0,1.206-.526A1.962,1.962,0,0,0,16.086-2.487Zm7.084-.043H19.288a2.057,2.057,0,0,0,.494,1.418,1.7,1.7,0,0,0,1.3.5,2.7,2.7,0,0,0,1.708-.612V-.4a3.192,3.192,0,0,1-1.917.526A2.325,2.325,0,0,1,19.041-.62a3.067,3.067,0,0,1-.666-2.108A3.007,3.007,0,0,1,19.1-4.821a2.334,2.334,0,0,1,1.807-.808,2.068,2.068,0,0,1,1.67.7,2.911,2.911,0,0,1,.591,1.939Zm-.9-.747A1.792,1.792,0,0,0,21.9-4.463a1.254,1.254,0,0,0-1.007-.424,1.423,1.423,0,0,0-1.058.446A2.023,2.023,0,0,0,19.3-3.276ZM28.4,0h-.881V-8.143H28.4Zm6.2-2.53H30.717a2.057,2.057,0,0,0,.494,1.418,1.7,1.7,0,0,0,1.3.5,2.7,2.7,0,0,0,1.708-.612V-.4A3.192,3.192,0,0,1,32.3.129,2.325,2.325,0,0,1,30.47-.62,3.067,3.067,0,0,1,29.8-2.729a3.007,3.007,0,0,1,.728-2.092,2.334,2.334,0,0,1,1.807-.808,2.068,2.068,0,0,1,1.67.7A2.911,2.911,0,0,1,34.6-2.992Zm-.9-.747a1.792,1.792,0,0,0-.368-1.187,1.254,1.254,0,0,0-1.007-.424,1.423,1.423,0,0,0-1.058.446,2.023,2.023,0,0,0-.537,1.166ZM40.256-5.5,38.065,0H37.2L35.116-5.5h.967l1.4,4a3.587,3.587,0,0,1,.193.768h.021a3.632,3.632,0,0,1,.172-.747L39.327-5.5Zm5.366,2.97H41.739a2.057,2.057,0,0,0,.494,1.418,1.7,1.7,0,0,0,1.3.5,2.7,2.7,0,0,0,1.708-.612V-.4a3.192,3.192,0,0,1-1.917.526A2.325,2.325,0,0,1,41.492-.62a3.067,3.067,0,0,1-.666-2.108,3.007,3.007,0,0,1,.728-2.092,2.334,2.334,0,0,1,1.807-.808,2.068,2.068,0,0,1,1.67.7,2.911,2.911,0,0,1,.591,1.939Zm-.9-.747a1.792,1.792,0,0,0-.368-1.187,1.254,1.254,0,0,0-1.007-.424,1.423,1.423,0,0,0-1.058.446,2.023,2.023,0,0,0-.537,1.166ZM47.835,0h-.881V-8.143h.881Zm8.733,0h-.881V-.859h-.021a1.844,1.844,0,0,1-1.692.988,1.808,1.808,0,0,1-1.286-.435,1.507,1.507,0,0,1-.465-1.155q0-1.542,1.815-1.794l1.649-.231q0-1.4-1.133-1.4a2.708,2.708,0,0,0-1.794.677v-.9a3.408,3.408,0,0,1,1.869-.516q1.939,0,1.939,2.052Zm-.881-2.782L54.361-2.6a2.154,2.154,0,0,0-.924.3.875.875,0,0,0-.312.771.839.839,0,0,0,.287.658,1.11,1.11,0,0,0,.765.255,1.414,1.414,0,0,0,1.082-.459,1.641,1.641,0,0,0,.427-1.163Zm6.29,2.53a2.862,2.862,0,0,1-1.5.381,2.49,2.49,0,0,1-1.9-.765,2.774,2.774,0,0,1-.722-1.985A3.049,3.049,0,0,1,58.631-4.8a2.724,2.724,0,0,1,2.079-.824,2.893,2.893,0,0,1,1.278.269v.9a2.24,2.24,0,0,0-1.311-.43,1.771,1.771,0,0,0-1.383.6,2.293,2.293,0,0,0-.54,1.587,2.183,2.183,0,0,0,.508,1.525,1.749,1.749,0,0,0,1.362.559,2.208,2.208,0,0,0,1.354-.478Zm3.883.2a1.7,1.7,0,0,1-.822.172q-1.445,0-1.445-1.611V-4.748h-.945V-5.5h.945V-6.843l.881-.285V-5.5H65.86v.752H64.475v3.1a1.285,1.285,0,0,0,.188.79.75.75,0,0,0,.623.236.926.926,0,0,0,.575-.183ZM67.488-6.9a.558.558,0,0,1-.4-.161.544.544,0,0,1-.167-.408.553.553,0,0,1,.167-.411.553.553,0,0,1,.4-.164.569.569,0,0,1,.411.164.548.548,0,0,1,.169.411.544.544,0,0,1-.169.4A.564.564,0,0,1,67.488-6.9Zm.43,6.9h-.881V-5.5h.881ZM72,.129a2.551,2.551,0,0,1-1.947-.771,2.855,2.855,0,0,1-.728-2.044,2.974,2.974,0,0,1,.757-2.165,2.723,2.723,0,0,1,2.046-.779,2.467,2.467,0,0,1,1.92.757,3,3,0,0,1,.69,2.1,2.955,2.955,0,0,1-.744,2.108A2.607,2.607,0,0,1,72,.129Zm.064-5.017a1.675,1.675,0,0,0-1.343.577,2.371,2.371,0,0,0-.494,1.593,2.243,2.243,0,0,0,.5,1.542,1.7,1.7,0,0,0,1.337.564,1.61,1.61,0,0,0,1.313-.553,2.4,2.4,0,0,0,.459-1.574,2.442,2.442,0,0,0-.459-1.59A1.6,1.6,0,0,0,72.064-4.888ZM80.711,0h-.881V-3.137q0-1.751-1.278-1.751a1.387,1.387,0,0,0-1.093.5,1.842,1.842,0,0,0-.432,1.254V0h-.881V-5.5h.881v.913h.021a1.985,1.985,0,0,1,1.8-1.042,1.683,1.683,0,0,1,1.38.583,2.6,2.6,0,0,1,.478,1.684ZM88.1-7.369a1.173,1.173,0,0,0-.585-.145q-.924,0-.924,1.166V-5.5h1.289v.752H86.593V0h-.875V-4.748h-.94V-5.5h.94v-.892a1.853,1.853,0,0,1,.5-1.367,1.686,1.686,0,0,1,1.246-.5,1.726,1.726,0,0,1,.639.1Zm3.024,7.5a2.551,2.551,0,0,1-1.947-.771,2.855,2.855,0,0,1-.728-2.044,2.974,2.974,0,0,1,.757-2.165,2.723,2.723,0,0,1,2.046-.779,2.467,2.467,0,0,1,1.92.757,3,3,0,0,1,.69,2.1,2.955,2.955,0,0,1-.744,2.108A2.607,2.607,0,0,1,91.126.129Zm.064-5.017a1.675,1.675,0,0,0-1.343.577,2.371,2.371,0,0,0-.494,1.593,2.243,2.243,0,0,0,.5,1.542,1.7,1.7,0,0,0,1.337.564A1.61,1.61,0,0,0,92.5-1.166a2.4,2.4,0,0,0,.459-1.574,2.442,2.442,0,0,0-.459-1.59A1.6,1.6,0,0,0,91.19-4.888Zm6.95.279a1.077,1.077,0,0,0-.666-.177,1.124,1.124,0,0,0-.943.532,2.458,2.458,0,0,0-.379,1.45V0h-.881V-5.5h.881v1.133h.021a1.921,1.921,0,0,1,.575-.905,1.311,1.311,0,0,1,.865-.325,1.438,1.438,0,0,1,.526.075ZM104.409.129a2.551,2.551,0,0,1-1.947-.771,2.855,2.855,0,0,1-.728-2.044,2.974,2.974,0,0,1,.757-2.165,2.723,2.723,0,0,1,2.046-.779,2.467,2.467,0,0,1,1.92.757,3,3,0,0,1,.69,2.1A2.955,2.955,0,0,1,106.4-.663,2.607,2.607,0,0,1,104.409.129Zm.064-5.017a1.675,1.675,0,0,0-1.343.577,2.371,2.371,0,0,0-.494,1.593,2.243,2.243,0,0,0,.5,1.542,1.7,1.7,0,0,0,1.337.564,1.61,1.61,0,0,0,1.313-.553,2.4,2.4,0,0,0,.459-1.574,2.442,2.442,0,0,0-.459-1.59A1.6,1.6,0,0,0,104.473-4.888ZM113.121,0h-.881V-3.137q0-1.751-1.278-1.751a1.387,1.387,0,0,0-1.093.5,1.842,1.842,0,0,0-.432,1.254V0h-.881V-5.5h.881v.913h.021a1.985,1.985,0,0,1,1.8-1.042,1.683,1.683,0,0,1,1.38.583,2.6,2.6,0,0,1,.478,1.684Zm6.08-2.53h-3.883a2.057,2.057,0,0,0,.494,1.418,1.7,1.7,0,0,0,1.3.5,2.7,2.7,0,0,0,1.708-.612V-.4A3.192,3.192,0,0,1,116.9.129,2.325,2.325,0,0,1,115.07-.62a3.067,3.067,0,0,1-.666-2.108,3.007,3.007,0,0,1,.728-2.092,2.334,2.334,0,0,1,1.807-.808,2.068,2.068,0,0,1,1.67.7,2.911,2.911,0,0,1,.591,1.939Zm-.9-.747a1.792,1.792,0,0,0-.368-1.187,1.254,1.254,0,0,0-1.007-.424,1.423,1.423,0,0,0-1.058.446,2.023,2.023,0,0,0-.537,1.166Zm7.8,3.223a1.7,1.7,0,0,1-.822.172q-1.445,0-1.445-1.611V-4.748h-.945V-5.5h.945V-6.843l.881-.285V-5.5H126.1v.752h-1.386v3.1a1.285,1.285,0,0,0,.188.79.75.75,0,0,0,.623.236.926.926,0,0,0,.575-.183ZM131.21,0h-.881V-.859h-.021a1.844,1.844,0,0,1-1.692.988,1.808,1.808,0,0,1-1.286-.435,1.507,1.507,0,0,1-.465-1.155q0-1.542,1.815-1.794l1.649-.231q0-1.4-1.133-1.4a2.708,2.708,0,0,0-1.794.677v-.9a3.408,3.408,0,0,1,1.869-.516q1.939,0,1.939,2.052Zm-.881-2.782L129-2.6a2.154,2.154,0,0,0-.924.3.875.875,0,0,0-.312.771.839.839,0,0,0,.287.658,1.11,1.11,0,0,0,.765.255,1.414,1.414,0,0,0,1.082-.459,1.641,1.641,0,0,0,.427-1.163Zm3.443,1.987h-.021V0h-.881V-8.143h.881v3.609h.021a2.083,2.083,0,0,1,1.9-1.1,2.016,2.016,0,0,1,1.657.739,3.049,3.049,0,0,1,.6,1.979,3.409,3.409,0,0,1-.671,2.21,2.235,2.235,0,0,1-1.837.83A1.809,1.809,0,0,1,133.772-.795Zm-.021-2.218v.768a1.635,1.635,0,0,0,.443,1.157,1.471,1.471,0,0,0,1.125.475,1.474,1.474,0,0,0,1.254-.612,2.809,2.809,0,0,0,.454-1.7,2.217,2.217,0,0,0-.424-1.439,1.4,1.4,0,0,0-1.149-.521,1.561,1.561,0,0,0-1.235.534A1.962,1.962,0,0,0,133.751-3.013ZM140.218,0h-.881V-8.143h.881Zm6.2-2.53h-3.883a2.057,2.057,0,0,0,.494,1.418,1.7,1.7,0,0,0,1.3.5,2.7,2.7,0,0,0,1.708-.612V-.4a3.192,3.192,0,0,1-1.917.526,2.325,2.325,0,0,1-1.832-.749,3.067,3.067,0,0,1-.666-2.108,3.008,3.008,0,0,1,.728-2.092,2.334,2.334,0,0,1,1.807-.808,2.068,2.068,0,0,1,1.67.7,2.911,2.911,0,0,1,.591,1.939Zm-.9-.747a1.792,1.792,0,0,0-.368-1.187,1.254,1.254,0,0,0-1.007-.424,1.423,1.423,0,0,0-1.058.446,2.023,2.023,0,0,0-.537,1.166ZM153.065.129a2.551,2.551,0,0,1-1.947-.771,2.855,2.855,0,0,1-.728-2.044,2.974,2.974,0,0,1,.757-2.165,2.723,2.723,0,0,1,2.046-.779,2.467,2.467,0,0,1,1.92.757,3,3,0,0,1,.69,2.1,2.955,2.955,0,0,1-.744,2.108A2.607,2.607,0,0,1,153.065.129Zm.064-5.017a1.675,1.675,0,0,0-1.343.577,2.371,2.371,0,0,0-.494,1.593,2.243,2.243,0,0,0,.5,1.542,1.7,1.7,0,0,0,1.337.564,1.61,1.61,0,0,0,1.313-.553,2.4,2.4,0,0,0,.459-1.574,2.442,2.442,0,0,0-.459-1.59A1.6,1.6,0,0,0,153.13-4.888ZM161.777,0H160.9V-3.137q0-1.751-1.278-1.751a1.387,1.387,0,0,0-1.093.5,1.841,1.841,0,0,0-.432,1.254V0h-.881V-5.5h.881v.913h.021a1.985,1.985,0,0,1,1.8-1.042,1.683,1.683,0,0,1,1.38.583,2.6,2.6,0,0,1,.478,1.684ZM169-.054a1.7,1.7,0,0,1-.822.172q-1.445,0-1.445-1.611V-4.748h-.945V-5.5h.945V-6.843l.881-.285V-5.5H169v.752h-1.386v3.1a1.285,1.285,0,0,0,.188.79.75.75,0,0,0,.623.236A.926.926,0,0,0,169-.806ZM174.743,0h-.881V-3.169q0-1.719-1.278-1.719a1.394,1.394,0,0,0-1.085.5,1.851,1.851,0,0,0-.44,1.276V0h-.881V-8.143h.881v3.556h.021a2,2,0,0,1,1.8-1.042q1.858,0,1.858,2.24Zm6.08-2.53H176.94a2.057,2.057,0,0,0,.494,1.418,1.7,1.7,0,0,0,1.3.5,2.7,2.7,0,0,0,1.708-.612V-.4a3.192,3.192,0,0,1-1.917.526,2.325,2.325,0,0,1-1.832-.749,3.067,3.067,0,0,1-.666-2.108,3.008,3.008,0,0,1,.728-2.092,2.334,2.334,0,0,1,1.807-.808,2.068,2.068,0,0,1,1.67.7,2.911,2.911,0,0,1,.591,1.939Zm-.9-.747a1.792,1.792,0,0,0-.368-1.187,1.254,1.254,0,0,0-1.007-.424,1.423,1.423,0,0,0-1.058.446,2.023,2.023,0,0,0-.537,1.166ZM184.835-.2v-.945a2.607,2.607,0,0,0,1.584.532q1.16,0,1.16-.773a.671.671,0,0,0-.1-.373.99.99,0,0,0-.269-.271,2.067,2.067,0,0,0-.4-.212q-.228-.094-.491-.2a6.33,6.33,0,0,1-.642-.293,1.939,1.939,0,0,1-.462-.333,1.239,1.239,0,0,1-.279-.422,1.492,1.492,0,0,1-.094-.553,1.314,1.314,0,0,1,.177-.685,1.572,1.572,0,0,1,.473-.5,2.2,2.2,0,0,1,.674-.3,2.99,2.99,0,0,1,.781-.1,3.155,3.155,0,0,1,1.278.247v.892a2.491,2.491,0,0,0-1.4-.4,1.632,1.632,0,0,0-.446.056,1.091,1.091,0,0,0-.341.158.732.732,0,0,0-.22.244.644.644,0,0,0-.078.314.754.754,0,0,0,.078.36.792.792,0,0,0,.228.258,1.745,1.745,0,0,0,.365.2q.215.091.489.2a6.8,6.8,0,0,1,.655.287,2.247,2.247,0,0,1,.494.333,1.3,1.3,0,0,1,.314.427,1.377,1.377,0,0,1,.11.575,1.355,1.355,0,0,1-.18.709,1.542,1.542,0,0,1-.481.5,2.2,2.2,0,0,1-.693.3,3.421,3.421,0,0,1-.822.1A3.12,3.12,0,0,1,184.835-.2Zm8.75-.054a2.862,2.862,0,0,1-1.5.381,2.49,2.49,0,0,1-1.9-.765,2.774,2.774,0,0,1-.722-1.985,3.049,3.049,0,0,1,.779-2.183,2.724,2.724,0,0,1,2.079-.824,2.893,2.893,0,0,1,1.278.269v.9a2.24,2.24,0,0,0-1.311-.43,1.771,1.771,0,0,0-1.383.6,2.293,2.293,0,0,0-.54,1.587,2.183,2.183,0,0,0,.508,1.525,1.749,1.749,0,0,0,1.362.559,2.208,2.208,0,0,0,1.354-.478Zm4.2-4.356a1.077,1.077,0,0,0-.666-.177,1.124,1.124,0,0,0-.943.532A2.458,2.458,0,0,0,195.8-2.8V0h-.881V-5.5h.881v1.133h.021a1.92,1.92,0,0,1,.575-.905,1.311,1.311,0,0,1,.865-.325,1.438,1.438,0,0,1,.526.075Zm5.376,2.079h-3.883a2.057,2.057,0,0,0,.494,1.418,1.7,1.7,0,0,0,1.3.5,2.7,2.7,0,0,0,1.708-.612V-.4a3.192,3.192,0,0,1-1.917.526,2.325,2.325,0,0,1-1.832-.749,3.067,3.067,0,0,1-.666-2.108,3.008,3.008,0,0,1,.728-2.092,2.334,2.334,0,0,1,1.807-.808,2.068,2.068,0,0,1,1.67.7,2.911,2.911,0,0,1,.591,1.939Zm-.9-.747a1.792,1.792,0,0,0-.368-1.187,1.254,1.254,0,0,0-1.007-.424,1.423,1.423,0,0,0-1.058.446,2.023,2.023,0,0,0-.537,1.166Zm6.655.747h-3.883a2.057,2.057,0,0,0,.494,1.418,1.7,1.7,0,0,0,1.3.5,2.7,2.7,0,0,0,1.708-.612V-.4a3.192,3.192,0,0,1-1.917.526,2.325,2.325,0,0,1-1.832-.749,3.067,3.067,0,0,1-.666-2.108,3.008,3.008,0,0,1,.728-2.092,2.334,2.334,0,0,1,1.807-.808,2.068,2.068,0,0,1,1.67.7,2.911,2.911,0,0,1,.591,1.939Zm-.9-.747a1.792,1.792,0,0,0-.368-1.187,1.254,1.254,0,0,0-1.007-.424,1.423,1.423,0,0,0-1.058.446,2.023,2.023,0,0,0-.537,1.166ZM214.812,0h-.881V-3.137q0-1.751-1.278-1.751a1.387,1.387,0,0,0-1.093.5,1.841,1.841,0,0,0-.432,1.254V0h-.881V-5.5h.881v.913h.021a1.985,1.985,0,0,1,1.8-1.042,1.683,1.683,0,0,1,1.38.583,2.6,2.6,0,0,1,.478,1.684Z" transform="translate(30 63)" fill="#17987c"/>
    <rect id="Rectangle_10768" data-name="Rectangle 10768" width="940" height="76" transform="translate(30 450)" fill="url(#linear-gradient)"/>
  </g>
</svg>
