<svg xmlns="http://www.w3.org/2000/svg" xmlns:xlink="http://www.w3.org/1999/xlink" width="485" height="102" viewBox="0 0 485 102">
  <defs>
    <clipPath id="clip-textinput_input_suffix">
      <rect width="485" height="102"/>
    </clipPath>
  </defs>
  <g id="textinput_input_suffix" clip-path="url(#clip-textinput_input_suffix)">
    <rect width="485" height="102" fill="#f4f4f6"/>
    <g id="Search_Input" data-name="Search Input" transform="translate(143 30)">
      <g id="Rectangle_298" data-name="Rectangle 298" fill="#fff" stroke="#cbcbd2" stroke-width="1">
        <rect width="200" height="42" rx="4" stroke="none"/>
        <rect x="0.5" y="0.5" width="199" height="41" rx="3.5" fill="none"/>
      </g>
      <path id="Rectangle_299" data-name="Rectangle 299" d="M0,0H38a3,3,0,0,1,3,3V37a3,3,0,0,1-3,3H0a0,0,0,0,1,0,0V0A0,0,0,0,1,0,0Z" transform="translate(158 1)" fill="#f4f4f6"/>
      <rect id="Rectangle_300" data-name="Rectangle 300" width="1" height="40" transform="translate(158 1)" fill="#ebebeb"/>
      <path id="Path_459" data-name="Path 459" d="M284.1,240h24v24h-24Z" transform="translate(-117 -231)" fill="none"/>
      <rect id="Rectangle_243" data-name="Rectangle 243" width="24" height="24" transform="translate(167 9)" fill="none"/>
      <text id="_" data-name="%" transform="translate(175 26)" fill="#78788c" font-size="14" font-family="SegoeUI, Segoe UI"><tspan x="0" y="0">%</tspan></text>
    </g>
  </g>
</svg>
