<svg xmlns="http://www.w3.org/2000/svg" xmlns:xlink="http://www.w3.org/1999/xlink" width="1000" height="179" viewBox="0 0 1000 179">
  <defs>
    <clipPath id="clip-textinput_anatomy">
      <rect width="1000" height="179"/>
    </clipPath>
  </defs>
  <g id="textinput_anatomy" clip-path="url(#clip-textinput_anatomy)">
    <rect width="1000" height="179" fill="#f4f4f6"/>
    <g id="Group_264372" data-name="Group 264372" transform="translate(169)">
      <g id="Group_4" data-name="Group 4" transform="translate(153 -293.424)">
        <path id="Path_1" data-name="Path 1" d="M12,0A12,12,0,1,1,0,12,12,12,0,0,1,12,0Z" transform="translate(68 359)" fill="#17987c"/>
        <path id="Path_3" data-name="Path 3" d="M0,0H1V39H0Z" transform="translate(91 371) rotate(-90)" fill="#17987c"/>
        <g id="Group_5" data-name="Group 5" transform="translate(0 -2.921)">
          <g id="Group_6" data-name="Group 6" transform="translate(0 351)">
            <path id="Path_8" data-name="Path 8" d="M0,0H1V5H0Z" transform="translate(128 1) rotate(-90)" fill="#17987c"/>
            <path id="Path_9" data-name="Path 9" d="M0,0H1V5H0Z" transform="translate(128 42) rotate(-90)" fill="#17987c"/>
            <path id="Path_7" data-name="Path 7" d="M0,0H1V40.5H0Z" transform="translate(130 0.75)" fill="#17987c"/>
          </g>
        </g>
        <text id="_2" data-name="2" transform="translate(77 376)" fill="#fff" font-size="14" font-family="SegoeUI-Semibold, Segoe UI" font-weight="600"><tspan x="0" y="0">2</tspan></text>
      </g>
      <g id="Input-Top" transform="translate(292 31.576)">
        <g id="Rectangle_288" data-name="Rectangle 288" transform="translate(0 23)" fill="#fff" stroke="#cbcbd2" stroke-width="1">
          <rect width="150" height="42" rx="4" stroke="none"/>
          <rect x="0.5" y="0.5" width="149" height="41" rx="3.5" fill="none"/>
        </g>
        <text id="_555_555-5555" data-name="(555) 555-5555" transform="translate(15 50)" fill="#cbcbd2" font-size="14" font-family="SegoeUI, Segoe UI"><tspan x="0" y="0">(555) 555-5555</tspan></text>
        <text id="Phone_number" data-name="Phone number" transform="translate(0 15)" fill="#31313a" font-size="14" font-family="SegoeUI-Semibold, Segoe UI" font-weight="600"><tspan x="0" y="0">Phone number</tspan></text>
      </g>
      <g id="Group_264371" data-name="Group 264371" transform="translate(153 -337.503)">
        <path id="Path_1-2" data-name="Path 1" d="M12,0A12,12,0,1,1,0,12,12,12,0,0,1,12,0Z" transform="translate(68 367.503)" fill="#17987c"/>
        <path id="Path_3-2" data-name="Path 3" d="M0,0H1V39H0Z" transform="translate(91 379.503) rotate(-90)" fill="#17987c"/>
        <g id="Group_5-2" data-name="Group 5" transform="translate(0 17.927)">
          <g id="Group_6-2" data-name="Group 6" transform="translate(0 351)">
            <path id="Path_8-2" data-name="Path 8" d="M0,0H1V5H0Z" transform="translate(128 1) rotate(-90)" fill="#17987c"/>
            <path id="Path_9-2" data-name="Path 9" d="M0,0H1V5H0Z" transform="translate(128 21.153) rotate(-90)" fill="#17987c"/>
            <path id="Path_7-2" data-name="Path 7" d="M0,0H1V19.653H0Z" transform="translate(130 0.75)" fill="#17987c"/>
          </g>
        </g>
        <text id="_1" data-name="1" transform="translate(77 384.503)" fill="#fff" font-size="14" font-family="SegoeUI-Semibold, Segoe UI" font-weight="600"><tspan x="0" y="0">1</tspan></text>
      </g>
      <g id="Group_15376" data-name="Group 15376" transform="translate(343 86.576) rotate(90)">
        <path id="Path_4" data-name="Path 4" d="M12,0A12,12,0,1,0,24,12,12,12,0,0,0,12,0Z" transform="translate(38)" fill="#17987c"/>
        <path id="Path_6" data-name="Path 6" d="M0,39H1V0H0Z" transform="translate(0 12) rotate(-90)" fill="#17987c"/>
        <text id="_3" data-name="3" transform="translate(55.5 15.5) rotate(-90)" fill="#fff" font-size="14" font-family="SegoeUI-Semibold, Segoe UI" font-weight="600"><tspan x="0" y="0">3</tspan></text>
      </g>
    </g>
  </g>
</svg>
