<svg xmlns="http://www.w3.org/2000/svg" xmlns:xlink="http://www.w3.org/1999/xlink" width="1000" height="425" viewBox="0 0 1000 425">
  <defs>
    <clipPath id="clip-textinput_states">
      <rect width="1000" height="425"/>
    </clipPath>
  </defs>
  <g id="textinput_states" clip-path="url(#clip-textinput_states)">
    <rect width="1000" height="425" fill="#f4f4f6"/>
    <g id="Group_15379" data-name="Group 15379" transform="translate(255 -37)">
      <g id="Input-Top" transform="translate(132 267)">
        <g id="Rectangle_288" data-name="Rectangle 288" transform="translate(0 23)" fill="#fff" stroke="#4e92df" stroke-width="2">
          <rect width="300" height="42" rx="4" stroke="none"/>
          <rect x="1" y="1" width="298" height="40" rx="3" fill="none"/>
        </g>
        <text id="Hint_text" data-name="Hint text" transform="translate(15 50)" fill="#cbcbd2" font-size="14" font-family="SegoeUI, Segoe UI"><tspan x="0" y="0">Hint text</tspan></text>
        <text id="Label" transform="translate(0 15)" fill="#31313a" font-size="14" font-family="SegoeUI-Semibold, Segoe UI" font-weight="600"><tspan x="0" y="0">Label</tspan></text>
        <g id="Group_264369" data-name="Group 264369" transform="translate(1 -229.5)">
          <line id="Line_3" data-name="Line 3" y2="19" transform="translate(13.3 264.5)" fill="none" stroke="#494955" stroke-miterlimit="10" stroke-width="1"/>
        </g>
      </g>
      <g id="Input-Top-2" data-name="Input-Top" transform="translate(132 167)">
        <g id="Rectangle_288-2" data-name="Rectangle 288" transform="translate(0 23)" fill="#fff" stroke="#9494a4" stroke-width="1">
          <rect width="300" height="42" rx="4" stroke="none"/>
          <rect x="0.5" y="0.5" width="299" height="41" rx="3.5" fill="none"/>
        </g>
        <text id="Hint_text-2" data-name="Hint text" transform="translate(15 50)" fill="#cbcbd2" font-size="14" font-family="SegoeUI, Segoe UI"><tspan x="0" y="0">Hint text</tspan></text>
        <text id="Label-2" data-name="Label" transform="translate(0 15)" fill="#31313a" font-size="14" font-family="SegoeUI-Semibold, Segoe UI" font-weight="600"><tspan x="0" y="0">Label</tspan></text>
      </g>
      <g id="Input-Top-3" data-name="Input-Top" transform="translate(132 67)">
        <g id="Rectangle_288-3" data-name="Rectangle 288" transform="translate(0 23)" fill="#fff" stroke="#cbcbd2" stroke-width="1">
          <rect width="300" height="42" rx="4" stroke="none"/>
          <rect x="0.5" y="0.5" width="299" height="41" rx="3.5" fill="none"/>
        </g>
        <text id="Hint_text-3" data-name="Hint text" transform="translate(15 50)" fill="#cbcbd2" font-size="14" font-family="SegoeUI, Segoe UI"><tspan x="0" y="0">Hint text</tspan></text>
        <text id="Label-3" data-name="Label" transform="translate(0 15)" fill="#31313a" font-size="14" font-family="SegoeUI-Semibold, Segoe UI" font-weight="600"><tspan x="0" y="0">Label</tspan></text>
      </g>
      <text id="flat_light" transform="translate(112 316)" fill="#17987c" font-size="11" font-family="SegoeUI, Segoe UI"><tspan x="-40.02" y="0">Focused</tspan></text>
      <text id="flat_light-2" data-name="flat_light" transform="translate(112 412)" fill="#17987c" font-size="11" font-family="SegoeUI, Segoe UI"><tspan x="-42.002" y="0">Disabled</tspan></text>
      <text id="flat_light-3" data-name="flat_light" transform="translate(112 216)" fill="#17987c" font-size="11" font-family="SegoeUI, Segoe UI"><tspan x="-29.101" y="0">Hover</tspan></text>
      <text id="flat_light-4" data-name="flat_light" transform="translate(112 116)" fill="#17987c" font-size="11" font-family="SegoeUI, Segoe UI"><tspan x="-53.657" y="0">Unselected</tspan></text>
      <g id="Group_15344" data-name="Group 15344" transform="translate(-11500 -802)">
        <g id="noun_Pointer_44803" transform="translate(11911 1005)">
          <g id="Group_15298" data-name="Group 15298" transform="translate(0 0)" opacity="0.9">
            <path id="Path_10321" data-name="Path 10321" d="M26.5,27.034a8.04,8.04,0,0,1-7.962-7.224.347.347,0,0,1-.037-.156V14.783a1.94,1.94,0,0,1,1.9-1.97,1.854,1.854,0,0,1,1.143.395V5.385a1.906,1.906,0,1,1,3.81,0v5.468a1.854,1.854,0,0,1,1.143-.395,1.91,1.91,0,0,1,1.775,1.257,1.863,1.863,0,0,1,1.272-.5,1.919,1.919,0,0,1,1.837,1.449,1.86,1.86,0,0,1,1.211-.45,1.94,1.94,0,0,1,1.9,1.97v5.031a.375.375,0,0,1,0,.051A8.045,8.045,0,0,1,26.5,27.034Z" transform="translate(-18.501 -3.415)" fill="#fff"/>
          </g>
        </g>
        <g id="noun_Pointer_44803-2" data-name="noun_Pointer_44803" transform="translate(11911 1005)">
          <g id="Group_15298-2" data-name="Group 15298" transform="translate(0 0)" opacity="0.9">
            <path id="Path_10321-2" data-name="Path 10321" d="M26.5,27.034a8.04,8.04,0,0,1-7.962-7.224.347.347,0,0,1-.037-.156V14.783a1.94,1.94,0,0,1,1.9-1.97,1.854,1.854,0,0,1,1.143.395V5.385a1.906,1.906,0,1,1,3.81,0v5.468a1.854,1.854,0,0,1,1.143-.395,1.91,1.91,0,0,1,1.775,1.257,1.863,1.863,0,0,1,1.272-.5,1.919,1.919,0,0,1,1.837,1.449,1.86,1.86,0,0,1,1.211-.45,1.94,1.94,0,0,1,1.9,1.97v5.031a.375.375,0,0,1,0,.051A8.045,8.045,0,0,1,26.5,27.034Zm-7.238-7.51a.339.339,0,0,1,.024.1,7.238,7.238,0,0,0,14.45-.424q0-.016,0-.033V14.178a1.145,1.145,0,1,0-2.286,0,.381.381,0,0,1-.762,0v-1a1.145,1.145,0,1,0-2.286,0,.381.381,0,1,1-.762,0v-.752a1.145,1.145,0,1,0-2.286,0,.381.381,0,1,1-.762,0V5.385a1.145,1.145,0,1,0-2.286,0V18.21a.381.381,0,1,1-.762,0V14.783a1.145,1.145,0,1,0-2.286,0v4.741Z" transform="translate(-18.501 -3.415)"/>
          </g>
        </g>
      </g>
      <g id="Input-Top-4" data-name="Input-Top" transform="translate(132 367)">
        <g id="Rectangle_288-4" data-name="Rectangle 288" transform="translate(0 23)" fill="#e6e6ea" stroke="#cbcbd2" stroke-width="1">
          <rect width="300" height="42" rx="4" stroke="none"/>
          <rect x="0.5" y="0.5" width="299" height="41" rx="3.5" fill="none"/>
        </g>
        <text id="Hint_text-4" data-name="Hint text" transform="translate(15 50)" fill="#afafbb" font-size="14" font-family="SegoeUI, Segoe UI"><tspan x="0" y="0">Hint text</tspan></text>
        <text id="Label-4" data-name="Label" transform="translate(0 15)" fill="#31313a" font-size="14" font-family="SegoeUI-Semibold, Segoe UI" font-weight="600"><tspan x="0" y="0">Label</tspan></text>
      </g>
    </g>
  </g>
</svg>
