<svg xmlns="http://www.w3.org/2000/svg" xmlns:xlink="http://www.w3.org/1999/xlink" width="1000" height="208" viewBox="0 0 1000 208">
  <defs>
    <filter id="Card" x="245.5" y="26.5" width="509" height="265" filterUnits="userSpaceOnUse">
      <feOffset dy="1" input="SourceAlpha"/>
      <feGaussianBlur stdDeviation="1.5" result="blur"/>
      <feFlood flood-opacity="0.161"/>
      <feComposite operator="in" in2="blur"/>
      <feComposite in="SourceGraphic"/>
    </filter>
    <filter id="Path_7456" x="696.5" y="99.5" width="33" height="33" filterUnits="userSpaceOnUse">
      <feOffset dy="2" input="SourceAlpha"/>
      <feGaussianBlur stdDeviation="1.5" result="blur-2"/>
      <feFlood flood-opacity="0.102"/>
      <feComposite operator="in" in2="blur-2"/>
      <feComposite in="SourceGraphic"/>
    </filter>
    <filter id="Path_10242" x="672.5" y="155.5" width="33" height="33" filterUnits="userSpaceOnUse">
      <feOffset dy="2" input="SourceAlpha"/>
      <feGaussianBlur stdDeviation="1.5" result="blur-3"/>
      <feFlood flood-opacity="0.102"/>
      <feComposite operator="in" in2="blur-3"/>
      <feComposite in="SourceGraphic"/>
    </filter>
    <clipPath id="clip-toggle_layout">
      <rect width="1000" height="208"/>
    </clipPath>
  </defs>
  <g id="toggle_layout" clip-path="url(#clip-toggle_layout)">
    <rect width="1000" height="208" fill="#f4f4f6"/>
    <g id="Card-2" data-name="Card" transform="translate(250 30)">
      <g transform="matrix(1, 0, 0, 1, -250, -30)" filter="url(#Card)">
        <rect id="Card-3" data-name="Card" width="500" height="256" rx="2" transform="translate(250 30)" fill="#fff"/>
      </g>
    </g>
    <g id="Toggle" transform="translate(677 102)">
      <rect id="Rectangle_6838" data-name="Rectangle 6838" width="48" height="14" rx="7" transform="translate(0 5)" fill="#2777d3"/>
      <g transform="matrix(1, 0, 0, 1, -677, -102)" filter="url(#Path_7456)">
        <g id="Path_7456-2" data-name="Path 7456" transform="translate(701 102)" fill="#fff">
          <path d="M 12 23.75 C 8.861459732055664 23.75 5.91077995300293 22.52779006958008 3.691489934921265 20.30850982666016 C 1.472210049629211 18.08922004699707 0.25 15.13854026794434 0.25 12 C 0.25 8.861459732055664 1.472210049629211 5.91077995300293 3.691489934921265 3.691489934921265 C 5.91077995300293 1.472210049629211 8.861459732055664 0.25 12 0.25 C 15.13854026794434 0.25 18.08922004699707 1.472210049629211 20.30850982666016 3.691489934921265 C 22.52779006958008 5.91077995300293 23.75 8.861459732055664 23.75 12 C 23.75 15.13854026794434 22.52779006958008 18.08922004699707 20.30850982666016 20.30850982666016 C 18.08922004699707 22.52779006958008 15.13854026794434 23.75 12 23.75 Z" stroke="none"/>
          <path d="M 12 0.5 C 8.928239822387695 0.5 6.04033088684082 1.696210861206055 3.868270874023438 3.868270874023438 C 1.696210861206055 6.04033088684082 0.5 8.928239822387695 0.5 12 C 0.5 15.0717601776123 1.696210861206055 17.95967102050781 3.868270874023438 20.13172912597656 C 6.04033088684082 22.30378913879395 8.928239822387695 23.5 12 23.5 C 15.0717601776123 23.5 17.95967102050781 22.30378913879395 20.13172912597656 20.13172912597656 C 22.30378913879395 17.95967102050781 23.5 15.0717601776123 23.5 12 C 23.5 8.928239822387695 22.30378913879395 6.04033088684082 20.13172912597656 3.868270874023438 C 17.95967102050781 1.696210861206055 15.0717601776123 0.5 12 0.5 M 12 0 C 18.62742042541504 0 24 5.372579574584961 24 12 C 24 18.62742042541504 18.62742042541504 24 12 24 C 5.372579574584961 24 0 18.62742042541504 0 12 C 0 5.372579574584961 5.372579574584961 0 12 0 Z" stroke="none" fill="#e6e6ea"/>
        </g>
      </g>
    </g>
    <g id="Toggle-2" data-name="Toggle" transform="translate(677 158)">
      <rect id="Rectangle_8087" data-name="Rectangle 8087" width="48" height="14" rx="7" transform="translate(0 5)" fill="#9494a4"/>
      <g transform="matrix(1, 0, 0, 1, -677, -158)" filter="url(#Path_10242)">
        <g id="Path_10242-2" data-name="Path 10242" transform="translate(677 158)" fill="#fff">
          <path d="M 12 23.75 C 8.861459732055664 23.75 5.91077995300293 22.52779006958008 3.691489934921265 20.30850982666016 C 1.472210049629211 18.08922004699707 0.25 15.13854026794434 0.25 12 C 0.25 8.861459732055664 1.472210049629211 5.91077995300293 3.691489934921265 3.691489934921265 C 5.91077995300293 1.472210049629211 8.861459732055664 0.25 12 0.25 C 15.13854026794434 0.25 18.08922004699707 1.472210049629211 20.30850982666016 3.691489934921265 C 22.52779006958008 5.91077995300293 23.75 8.861459732055664 23.75 12 C 23.75 15.13854026794434 22.52779006958008 18.08922004699707 20.30850982666016 20.30850982666016 C 18.08922004699707 22.52779006958008 15.13854026794434 23.75 12 23.75 Z" stroke="none"/>
          <path d="M 12 0.5 C 8.928239822387695 0.5 6.04033088684082 1.696210861206055 3.868270874023438 3.868270874023438 C 1.696210861206055 6.04033088684082 0.5 8.928239822387695 0.5 12 C 0.5 15.0717601776123 1.696210861206055 17.95967102050781 3.868270874023438 20.13172912597656 C 6.04033088684082 22.30378913879395 8.928239822387695 23.5 12 23.5 C 15.0717601776123 23.5 17.95967102050781 22.30378913879395 20.13172912597656 20.13172912597656 C 22.30378913879395 17.95967102050781 23.5 15.0717601776123 23.5 12 C 23.5 8.928239822387695 22.30378913879395 6.04033088684082 20.13172912597656 3.868270874023438 C 17.95967102050781 1.696210861206055 15.0717601776123 0.5 12 0.5 M 12 0 C 18.62742042541504 0 24 5.372579574584961 24 12 C 24 18.62742042541504 18.62742042541504 24 12 24 C 5.372579574584961 24 0 18.62742042541504 0 12 C 0 5.372579574584961 5.372579574584961 0 12 0 Z" stroke="none" fill="#e6e6ea"/>
        </g>
      </g>
    </g>
    <path id="Path_101499" data-name="Path 101499" d="M8.313,0H6.945L5.3-2.748A5.985,5.985,0,0,0,4.867-3.4a2.494,2.494,0,0,0-.434-.441,1.5,1.5,0,0,0-.479-.25,1.968,1.968,0,0,0-.578-.079H2.434V0H1.285V-9.8H4.211A4.17,4.17,0,0,1,5.4-9.642a2.654,2.654,0,0,1,.943.489,2.271,2.271,0,0,1,.625.817,2.709,2.709,0,0,1,.226,1.145,2.757,2.757,0,0,1-.154.94,2.455,2.455,0,0,1-.437.762,2.652,2.652,0,0,1-.684.571,3.49,3.49,0,0,1-.9.366v.027a2.068,2.068,0,0,1,.427.25,2.351,2.351,0,0,1,.345.332,4.391,4.391,0,0,1,.325.434q.161.243.359.564ZM2.434-8.764v3.555H3.992a2.364,2.364,0,0,0,.8-.13,1.844,1.844,0,0,0,.632-.373,1.689,1.689,0,0,0,.417-.595,1.991,1.991,0,0,0,.15-.79,1.537,1.537,0,0,0-.509-1.227,2.188,2.188,0,0,0-1.473-.441ZM14.725-3.22H9.782a2.618,2.618,0,0,0,.629,1.8,2.168,2.168,0,0,0,1.654.636,3.439,3.439,0,0,0,2.174-.779V-.506a4.063,4.063,0,0,1-2.44.67A2.959,2.959,0,0,1,9.468-.79,3.9,3.9,0,0,1,8.62-3.473a3.828,3.828,0,0,1,.926-2.663,2.97,2.97,0,0,1,2.3-1.029,2.632,2.632,0,0,1,2.126.889,3.705,3.705,0,0,1,.752,2.468Zm-1.148-.95a2.281,2.281,0,0,0-.468-1.511,1.6,1.6,0,0,0-1.282-.54,1.811,1.811,0,0,0-1.347.567A2.575,2.575,0,0,0,9.8-4.17ZM21.191-.321a3.643,3.643,0,0,1-1.914.485A3.169,3.169,0,0,1,16.861-.81a3.53,3.53,0,0,1-.919-2.526,3.881,3.881,0,0,1,.991-2.779,3.467,3.467,0,0,1,2.646-1.049,3.682,3.682,0,0,1,1.627.342v1.148a2.85,2.85,0,0,0-1.668-.547,2.254,2.254,0,0,0-1.76.769,2.918,2.918,0,0,0-.687,2.02,2.779,2.779,0,0,0,.646,1.941,2.227,2.227,0,0,0,1.733.711,2.81,2.81,0,0,0,1.723-.608Zm7.321-2.9H23.57a2.618,2.618,0,0,0,.629,1.8,2.168,2.168,0,0,0,1.654.636,3.439,3.439,0,0,0,2.174-.779V-.506a4.063,4.063,0,0,1-2.44.67A2.959,2.959,0,0,1,23.256-.79a3.9,3.9,0,0,1-.848-2.683,3.828,3.828,0,0,1,.926-2.663,2.97,2.97,0,0,1,2.3-1.029,2.632,2.632,0,0,1,2.126.889,3.705,3.705,0,0,1,.752,2.468Zm-1.148-.95A2.281,2.281,0,0,0,26.9-5.681a1.6,1.6,0,0,0-1.282-.54,1.811,1.811,0,0,0-1.347.567,2.575,2.575,0,0,0-.684,1.483Zm3.418-4.607a.71.71,0,0,1-.513-.205.692.692,0,0,1-.212-.52.7.7,0,0,1,.212-.523.7.7,0,0,1,.513-.208.724.724,0,0,1,.523.208.7.7,0,0,1,.215.523.693.693,0,0,1-.215.513A.718.718,0,0,1,30.782-8.777ZM31.329,0H30.208V-7h1.121ZM39.1-7,36.313,0h-1.1L32.56-7h1.23l1.777,5.086a4.565,4.565,0,0,1,.246.978h.027a4.622,4.622,0,0,1,.219-.95L37.919-7Zm6.829,3.78H40.988a2.618,2.618,0,0,0,.629,1.8,2.168,2.168,0,0,0,1.654.636,3.439,3.439,0,0,0,2.174-.779V-.506A4.063,4.063,0,0,1,43,.164,2.959,2.959,0,0,1,40.674-.79a3.9,3.9,0,0,1-.848-2.683,3.828,3.828,0,0,1,.926-2.663,2.97,2.97,0,0,1,2.3-1.029,2.632,2.632,0,0,1,2.126.889,3.705,3.705,0,0,1,.752,2.468Zm-1.148-.95a2.281,2.281,0,0,0-.468-1.511,1.6,1.6,0,0,0-1.282-.54,1.811,1.811,0,0,0-1.347.567A2.575,2.575,0,0,0,41-4.17Zm12.3.95H52.145a2.618,2.618,0,0,0,.629,1.8,2.168,2.168,0,0,0,1.654.636A3.439,3.439,0,0,0,56.6-1.559V-.506a4.063,4.063,0,0,1-2.44.67A2.959,2.959,0,0,1,51.83-.79a3.9,3.9,0,0,1-.848-2.683,3.828,3.828,0,0,1,.926-2.663,2.97,2.97,0,0,1,2.3-1.029,2.632,2.632,0,0,1,2.126.889,3.705,3.705,0,0,1,.752,2.468Zm-1.148-.95a2.281,2.281,0,0,0-.468-1.511,1.6,1.6,0,0,0-1.282-.54,1.811,1.811,0,0,0-1.347.567,2.575,2.575,0,0,0-.684,1.483ZM68.722,0H67.6V-4.02A3.032,3.032,0,0,0,67.242-5.7a1.361,1.361,0,0,0-1.207-.52,1.494,1.494,0,0,0-1.22.656,2.511,2.511,0,0,0-.5,1.572V0H63.191V-4.156q0-2.064-1.593-2.064a1.475,1.475,0,0,0-1.217.619,2.557,2.557,0,0,0-.479,1.61V0H58.782V-7H59.9v1.107h.027A2.378,2.378,0,0,1,62.1-7.164a2.027,2.027,0,0,1,1.251.4,2.012,2.012,0,0,1,.731,1.049,2.5,2.5,0,0,1,2.324-1.449q2.311,0,2.311,2.851Zm7.13,0H74.73V-1.094H74.7A2.347,2.347,0,0,1,72.55.164,2.3,2.3,0,0,1,70.913-.39a1.918,1.918,0,0,1-.591-1.47q0-1.962,2.311-2.283l2.1-.294q0-1.784-1.442-1.784A3.446,3.446,0,0,0,71-5.359V-6.508a4.338,4.338,0,0,1,2.379-.656q2.468,0,2.468,2.611ZM74.73-3.541l-1.688.232a2.741,2.741,0,0,0-1.176.386,1.114,1.114,0,0,0-.4.981,1.068,1.068,0,0,0,.366.837,1.413,1.413,0,0,0,.974.325,1.8,1.8,0,0,0,1.377-.584,2.088,2.088,0,0,0,.543-1.48Zm3.808-5.236a.71.71,0,0,1-.513-.205.692.692,0,0,1-.212-.52.7.7,0,0,1,.212-.523.7.7,0,0,1,.513-.208.724.724,0,0,1,.523.208.7.7,0,0,1,.215.523.693.693,0,0,1-.215.513A.718.718,0,0,1,78.538-8.777ZM79.085,0H77.964V-7h1.121Zm3.391,0H81.354V-10.363h1.121Zm1.846-.253v-1.2a3.318,3.318,0,0,0,2.017.677q1.477,0,1.477-.984a.854.854,0,0,0-.126-.475,1.26,1.26,0,0,0-.342-.345,2.631,2.631,0,0,0-.506-.27q-.291-.12-.625-.25a8.056,8.056,0,0,1-.817-.373A2.468,2.468,0,0,1,84.81-3.9a1.577,1.577,0,0,1-.355-.537,1.9,1.9,0,0,1-.12-.7,1.673,1.673,0,0,1,.226-.872,2,2,0,0,1,.6-.636,2.805,2.805,0,0,1,.858-.386,3.805,3.805,0,0,1,.995-.13,4.016,4.016,0,0,1,1.627.314v1.135a3.171,3.171,0,0,0-1.777-.506,2.078,2.078,0,0,0-.567.072,1.389,1.389,0,0,0-.434.2.932.932,0,0,0-.28.311.819.819,0,0,0-.1.4.959.959,0,0,0,.1.458,1.008,1.008,0,0,0,.291.328,2.221,2.221,0,0,0,.465.26q.273.116.622.253a8.658,8.658,0,0,1,.834.366,2.86,2.86,0,0,1,.629.424,1.656,1.656,0,0,1,.4.543,1.753,1.753,0,0,1,.14.731,1.725,1.725,0,0,1-.229.9,1.963,1.963,0,0,1-.612.636,2.8,2.8,0,0,1-.882.376,4.354,4.354,0,0,1-1.046.123A3.971,3.971,0,0,1,84.321-.253Z" transform="translate(271 120)" fill="#31313a"/>
    <path id="Path_101500" data-name="Path 101500" d="M8.313,0H6.945L5.3-2.748A5.985,5.985,0,0,0,4.867-3.4a2.494,2.494,0,0,0-.434-.441,1.5,1.5,0,0,0-.479-.25,1.968,1.968,0,0,0-.578-.079H2.434V0H1.285V-9.8H4.211A4.17,4.17,0,0,1,5.4-9.642a2.654,2.654,0,0,1,.943.489,2.271,2.271,0,0,1,.625.817,2.709,2.709,0,0,1,.226,1.145,2.757,2.757,0,0,1-.154.94,2.455,2.455,0,0,1-.437.762,2.652,2.652,0,0,1-.684.571,3.49,3.49,0,0,1-.9.366v.027a2.068,2.068,0,0,1,.427.25,2.351,2.351,0,0,1,.345.332,4.391,4.391,0,0,1,.325.434q.161.243.359.564ZM2.434-8.764v3.555H3.992a2.364,2.364,0,0,0,.8-.13,1.844,1.844,0,0,0,.632-.373,1.689,1.689,0,0,0,.417-.595,1.991,1.991,0,0,0,.15-.79,1.537,1.537,0,0,0-.509-1.227,2.188,2.188,0,0,0-1.473-.441ZM14.725-3.22H9.782a2.618,2.618,0,0,0,.629,1.8,2.168,2.168,0,0,0,1.654.636,3.439,3.439,0,0,0,2.174-.779V-.506a4.063,4.063,0,0,1-2.44.67A2.959,2.959,0,0,1,9.468-.79,3.9,3.9,0,0,1,8.62-3.473a3.828,3.828,0,0,1,.926-2.663,2.97,2.97,0,0,1,2.3-1.029,2.632,2.632,0,0,1,2.126.889,3.705,3.705,0,0,1,.752,2.468Zm-1.148-.95a2.281,2.281,0,0,0-.468-1.511,1.6,1.6,0,0,0-1.282-.54,1.811,1.811,0,0,0-1.347.567A2.575,2.575,0,0,0,9.8-4.17ZM21.191-.321a3.643,3.643,0,0,1-1.914.485A3.169,3.169,0,0,1,16.861-.81a3.53,3.53,0,0,1-.919-2.526,3.881,3.881,0,0,1,.991-2.779,3.467,3.467,0,0,1,2.646-1.049,3.682,3.682,0,0,1,1.627.342v1.148a2.85,2.85,0,0,0-1.668-.547,2.254,2.254,0,0,0-1.76.769,2.918,2.918,0,0,0-.687,2.02,2.779,2.779,0,0,0,.646,1.941,2.227,2.227,0,0,0,1.733.711,2.81,2.81,0,0,0,1.723-.608Zm7.321-2.9H23.57a2.618,2.618,0,0,0,.629,1.8,2.168,2.168,0,0,0,1.654.636,3.439,3.439,0,0,0,2.174-.779V-.506a4.063,4.063,0,0,1-2.44.67A2.959,2.959,0,0,1,23.256-.79a3.9,3.9,0,0,1-.848-2.683,3.828,3.828,0,0,1,.926-2.663,2.97,2.97,0,0,1,2.3-1.029,2.632,2.632,0,0,1,2.126.889,3.705,3.705,0,0,1,.752,2.468Zm-1.148-.95A2.281,2.281,0,0,0,26.9-5.681a1.6,1.6,0,0,0-1.282-.54,1.811,1.811,0,0,0-1.347.567,2.575,2.575,0,0,0-.684,1.483Zm3.418-4.607a.71.71,0,0,1-.513-.205.692.692,0,0,1-.212-.52.7.7,0,0,1,.212-.523.7.7,0,0,1,.513-.208.724.724,0,0,1,.523.208.7.7,0,0,1,.215.523.693.693,0,0,1-.215.513A.718.718,0,0,1,30.782-8.777ZM31.329,0H30.208V-7h1.121ZM39.1-7,36.313,0h-1.1L32.56-7h1.23l1.777,5.086a4.565,4.565,0,0,1,.246.978h.027a4.622,4.622,0,0,1,.219-.95L37.919-7Zm6.829,3.78H40.988a2.618,2.618,0,0,0,.629,1.8,2.168,2.168,0,0,0,1.654.636,3.439,3.439,0,0,0,2.174-.779V-.506A4.063,4.063,0,0,1,43,.164,2.959,2.959,0,0,1,40.674-.79a3.9,3.9,0,0,1-.848-2.683,3.828,3.828,0,0,1,.926-2.663,2.97,2.97,0,0,1,2.3-1.029,2.632,2.632,0,0,1,2.126.889,3.705,3.705,0,0,1,.752,2.468Zm-1.148-.95a2.281,2.281,0,0,0-.468-1.511,1.6,1.6,0,0,0-1.282-.54,1.811,1.811,0,0,0-1.347.567A2.575,2.575,0,0,0,41-4.17Zm9.926,4.1A2.161,2.161,0,0,1,53.662.15Q51.823.15,51.823-1.9V-6.043h-1.2V-7h1.2V-8.709l1.121-.362V-7h1.764v.957H52.944V-2.1a1.635,1.635,0,0,0,.239,1,.955.955,0,0,0,.793.3,1.179,1.179,0,0,0,.731-.232ZM61.831-3.22H56.889a2.618,2.618,0,0,0,.629,1.8,2.168,2.168,0,0,0,1.654.636,3.439,3.439,0,0,0,2.174-.779V-.506a4.063,4.063,0,0,1-2.44.67A2.959,2.959,0,0,1,56.574-.79a3.9,3.9,0,0,1-.848-2.683,3.828,3.828,0,0,1,.926-2.663,2.97,2.97,0,0,1,2.3-1.029,2.632,2.632,0,0,1,2.126.889,3.705,3.705,0,0,1,.752,2.468Zm-1.148-.95a2.281,2.281,0,0,0-.468-1.511,1.6,1.6,0,0,0-1.282-.54,1.811,1.811,0,0,0-1.347.567A2.575,2.575,0,0,0,56.9-4.17ZM68.64-7,66.288-3.459,68.6,0H67.293L65.919-2.27q-.13-.212-.308-.533h-.027q-.034.062-.321.533L63.861,0H62.569l2.386-3.432L62.672-7h1.306l1.354,2.393q.15.267.294.547h.027L67.4-7ZM73.2-.068A2.161,2.161,0,0,1,72.153.15Q70.314.15,70.314-1.9V-6.043h-1.2V-7h1.2V-8.709l1.121-.362V-7H73.2v.957H71.436V-2.1a1.635,1.635,0,0,0,.239,1,.955.955,0,0,0,.793.3,1.179,1.179,0,0,0,.731-.232ZM88.471,0H87.35V-4.02A3.032,3.032,0,0,0,86.991-5.7a1.361,1.361,0,0,0-1.207-.52,1.494,1.494,0,0,0-1.22.656,2.511,2.511,0,0,0-.5,1.572V0H82.94V-4.156q0-2.064-1.593-2.064a1.475,1.475,0,0,0-1.217.619,2.557,2.557,0,0,0-.479,1.61V0H78.531V-7h1.121v1.107h.027a2.378,2.378,0,0,1,2.174-1.271,2.027,2.027,0,0,1,1.251.4,2.012,2.012,0,0,1,.731,1.049A2.5,2.5,0,0,1,86.16-7.164q2.311,0,2.311,2.851Zm7.745-3.22H91.273a2.618,2.618,0,0,0,.629,1.8,2.168,2.168,0,0,0,1.654.636,3.439,3.439,0,0,0,2.174-.779V-.506a4.063,4.063,0,0,1-2.44.67A2.959,2.959,0,0,1,90.959-.79a3.9,3.9,0,0,1-.848-2.683,3.828,3.828,0,0,1,.926-2.663,2.97,2.97,0,0,1,2.3-1.029,2.632,2.632,0,0,1,2.126.889,3.705,3.705,0,0,1,.752,2.468Zm-1.148-.95A2.281,2.281,0,0,0,94.6-5.681a1.6,1.6,0,0,0-1.282-.54,1.811,1.811,0,0,0-1.347.567,2.575,2.575,0,0,0-.684,1.483Zm2.42,3.917v-1.2A3.318,3.318,0,0,0,99.5-.779q1.477,0,1.477-.984a.854.854,0,0,0-.126-.475,1.26,1.26,0,0,0-.342-.345,2.631,2.631,0,0,0-.506-.27q-.291-.12-.625-.25a8.056,8.056,0,0,1-.817-.373,2.468,2.468,0,0,1-.588-.424,1.577,1.577,0,0,1-.355-.537,1.9,1.9,0,0,1-.12-.7,1.673,1.673,0,0,1,.226-.872,2,2,0,0,1,.6-.636,2.805,2.805,0,0,1,.858-.386,3.805,3.805,0,0,1,.995-.13,4.016,4.016,0,0,1,1.627.314v1.135a3.171,3.171,0,0,0-1.777-.506,2.078,2.078,0,0,0-.567.072,1.389,1.389,0,0,0-.434.2.932.932,0,0,0-.28.311.819.819,0,0,0-.1.4.959.959,0,0,0,.1.458,1.008,1.008,0,0,0,.291.328,2.221,2.221,0,0,0,.465.26q.273.116.622.253a8.658,8.658,0,0,1,.834.366,2.86,2.86,0,0,1,.629.424,1.656,1.656,0,0,1,.4.543,1.753,1.753,0,0,1,.14.731,1.725,1.725,0,0,1-.229.9,1.963,1.963,0,0,1-.612.636,2.8,2.8,0,0,1-.882.376A4.354,4.354,0,0,1,99.36.164,3.971,3.971,0,0,1,97.487-.253Zm5.94,0v-1.2a3.318,3.318,0,0,0,2.017.677q1.477,0,1.477-.984a.854.854,0,0,0-.126-.475,1.26,1.26,0,0,0-.342-.345,2.631,2.631,0,0,0-.506-.27q-.291-.12-.625-.25a8.056,8.056,0,0,1-.817-.373,2.468,2.468,0,0,1-.588-.424,1.577,1.577,0,0,1-.355-.537,1.9,1.9,0,0,1-.12-.7,1.673,1.673,0,0,1,.226-.872,2,2,0,0,1,.6-.636,2.805,2.805,0,0,1,.858-.386,3.805,3.805,0,0,1,.995-.13,4.016,4.016,0,0,1,1.627.314v1.135a3.171,3.171,0,0,0-1.777-.506,2.078,2.078,0,0,0-.567.072,1.389,1.389,0,0,0-.434.2.932.932,0,0,0-.28.311.819.819,0,0,0-.1.4.959.959,0,0,0,.1.458,1.008,1.008,0,0,0,.291.328,2.221,2.221,0,0,0,.465.26q.273.116.622.253a8.658,8.658,0,0,1,.834.366,2.86,2.86,0,0,1,.629.424,1.656,1.656,0,0,1,.4.543,1.753,1.753,0,0,1,.14.731,1.725,1.725,0,0,1-.229.9,1.963,1.963,0,0,1-.612.636,2.8,2.8,0,0,1-.882.376A4.354,4.354,0,0,1,105.3.164,3.971,3.971,0,0,1,103.428-.253ZM114.8,0h-1.121V-1.094h-.027A2.347,2.347,0,0,1,111.5.164a2.3,2.3,0,0,1-1.637-.554,1.918,1.918,0,0,1-.591-1.47q0-1.962,2.311-2.283l2.1-.294q0-1.784-1.442-1.784a3.446,3.446,0,0,0-2.283.861V-6.508a4.338,4.338,0,0,1,2.379-.656q2.468,0,2.468,2.611Zm-1.121-3.541-1.688.232a2.741,2.741,0,0,0-1.176.386,1.114,1.114,0,0,0-.4.981,1.068,1.068,0,0,0,.366.837,1.413,1.413,0,0,0,.974.325,1.8,1.8,0,0,0,1.377-.584,2.088,2.088,0,0,0,.543-1.48Zm9.208,2.98q0,3.855-3.691,3.855a4.956,4.956,0,0,1-2.27-.492V1.682a4.661,4.661,0,0,0,2.256.656q2.584,0,2.584-2.748v-.766h-.027a2.622,2.622,0,0,1-2.406,1.34,2.628,2.628,0,0,1-2.1-.933,3.73,3.73,0,0,1-.8-2.505,4.358,4.358,0,0,1,.858-2.837,2.866,2.866,0,0,1,2.348-1.053,2.282,2.282,0,0,1,2.1,1.135h.027V-7h1.121Zm-1.121-2.6V-4.2a2,2,0,0,0-.564-1.429,1.857,1.857,0,0,0-1.4-.595,1.947,1.947,0,0,0-1.627.755,3.372,3.372,0,0,0-.588,2.116,2.894,2.894,0,0,0,.564,1.87,1.822,1.822,0,0,0,1.494.7,1.951,1.951,0,0,0,1.535-.67A2.5,2.5,0,0,0,121.769-3.165Zm9.017-.055h-4.942a2.618,2.618,0,0,0,.629,1.8,2.168,2.168,0,0,0,1.654.636,3.439,3.439,0,0,0,2.174-.779V-.506a4.063,4.063,0,0,1-2.44.67,2.959,2.959,0,0,1-2.331-.954,3.9,3.9,0,0,1-.848-2.683,3.828,3.828,0,0,1,.926-2.663,2.97,2.97,0,0,1,2.3-1.029,2.632,2.632,0,0,1,2.126.889,3.705,3.705,0,0,1,.752,2.468Zm-1.148-.95a2.281,2.281,0,0,0-.468-1.511,1.6,1.6,0,0,0-1.282-.54,1.811,1.811,0,0,0-1.347.567,2.575,2.575,0,0,0-.684,1.483Z" transform="translate(271 174)" fill="#31313a"/>
    <path id="Path_101498" data-name="Path 101498" d="M11.494-.586a8.49,8.49,0,0,1-3.936.82A6.435,6.435,0,0,1,2.676-1.689,7.01,7.01,0,0,1,.84-6.738a7.352,7.352,0,0,1,2.065-5.43,7.066,7.066,0,0,1,5.22-2.07,8.554,8.554,0,0,1,3.369.576v2.3a6.012,6.012,0,0,0-3.125-.84,4.9,4.9,0,0,0-3.687,1.455A5.345,5.345,0,0,0,3.271-6.855,5.1,5.1,0,0,0,4.59-3.169,4.588,4.588,0,0,0,8.057-1.8a6.207,6.207,0,0,0,3.438-.937Zm6.836.82a4.957,4.957,0,0,1-3.7-1.4,5.062,5.062,0,0,1-1.382-3.716,5.267,5.267,0,0,1,1.44-3.936,5.3,5.3,0,0,1,3.882-1.416,4.8,4.8,0,0,1,3.652,1.377,5.319,5.319,0,0,1,1.309,3.818,5.241,5.241,0,0,1-1.411,3.833A5.069,5.069,0,0,1,18.33.234Zm.107-8.662a2.586,2.586,0,0,0-2.1.928,3.885,3.885,0,0,0-.771,2.559,3.659,3.659,0,0,0,.781,2.476,2.624,2.624,0,0,0,2.09.9,2.49,2.49,0,0,0,2.056-.889,3.934,3.934,0,0,0,.718-2.529,3.993,3.993,0,0,0-.718-2.549A2.478,2.478,0,0,0,18.438-8.428ZM40.791,0H38.525V-5.449a4.416,4.416,0,0,0-.444-2.275,1.634,1.634,0,0,0-1.5-.7,1.807,1.807,0,0,0-1.509.889,3.626,3.626,0,0,0-.62,2.129V0H32.178V-5.635q0-2.793-1.973-2.793a1.779,1.779,0,0,0-1.509.84,3.7,3.7,0,0,0-.591,2.178V0H25.84V-10h2.266v1.582h.039A3.464,3.464,0,0,1,31.3-10.234a2.974,2.974,0,0,1,1.812.571,2.845,2.845,0,0,1,1.06,1.5,3.569,3.569,0,0,1,3.32-2.07q3.3,0,3.3,4.072ZM58.506,0H56.24V-5.449A4.416,4.416,0,0,0,55.8-7.725a1.634,1.634,0,0,0-1.5-.7,1.807,1.807,0,0,0-1.509.889,3.626,3.626,0,0,0-.62,2.129V0H49.893V-5.635q0-2.793-1.973-2.793a1.779,1.779,0,0,0-1.509.84A3.7,3.7,0,0,0,45.82-5.41V0H43.555V-10H45.82v1.582h.039a3.464,3.464,0,0,1,3.154-1.816,2.974,2.974,0,0,1,1.812.571,2.845,2.845,0,0,1,1.06,1.5,3.569,3.569,0,0,1,3.32-2.07q3.3,0,3.3,4.072ZM69.99,0H67.725V-1.582h-.039A3.26,3.26,0,0,1,64.619.234q-3.545,0-3.545-4.258V-10H63.34v5.742q0,2.7,2.08,2.7A2.1,2.1,0,0,0,67.075-2.3a2.844,2.844,0,0,0,.649-1.943V-10H69.99ZM81.846,0H79.58V-5.635q0-2.8-1.982-2.8a2.164,2.164,0,0,0-1.709.776A2.88,2.88,0,0,0,75.215-5.7V0H72.939V-10h2.275v1.66h.039A3.564,3.564,0,0,1,78.5-10.234a3.02,3.02,0,0,1,2.49,1.06,4.758,4.758,0,0,1,.859,3.062Zm3.906-12.1a1.362,1.362,0,0,1-.952-.361,1.189,1.189,0,0,1-.4-.918,1.219,1.219,0,0,1,.4-.928,1.342,1.342,0,0,1,.952-.371,1.384,1.384,0,0,1,.977.371,1.212,1.212,0,0,1,.4.928,1.2,1.2,0,0,1-.4.9A1.374,1.374,0,0,1,85.752-12.1ZM86.875,0H84.609V-10h2.266ZM96.992-.459A5.587,5.587,0,0,1,94.15.234a4.813,4.813,0,0,1-3.594-1.392,4.93,4.93,0,0,1-1.367-3.608,5.426,5.426,0,0,1,1.47-3.97,5.255,5.255,0,0,1,3.931-1.5A5.738,5.738,0,0,1,97-9.756v2.109a3.653,3.653,0,0,0-2.227-.781,3.094,3.094,0,0,0-2.354.972A3.553,3.553,0,0,0,91.5-4.912a3.388,3.388,0,0,0,.864,2.451,3.068,3.068,0,0,0,2.319.9,3.625,3.625,0,0,0,2.3-.869ZM106.914,0h-2.2V-1.562h-.039a3.308,3.308,0,0,1-3.037,1.8,3.2,3.2,0,0,1-2.31-.8A2.8,2.8,0,0,1,98.5-2.686q0-2.832,3.262-3.3l2.969-.42q0-2.139-2.031-2.139a4.825,4.825,0,0,0-3.223,1.23V-9.3a7.028,7.028,0,0,1,3.652-.937q3.789,0,3.789,3.73Zm-2.187-4.912-2.1.293a3.328,3.328,0,0,0-1.47.474,1.384,1.384,0,0,0-.493,1.216,1.331,1.331,0,0,0,.454,1.04,1.758,1.758,0,0,0,1.216.405,2.243,2.243,0,0,0,1.714-.728,2.58,2.58,0,0,0,.679-1.831Zm10.225,4.8A3.926,3.926,0,0,1,113.2.225q-2.91,0-2.91-2.793V-8.223h-1.67V-10h1.67v-2.314l2.266-.645V-10h2.393v1.777h-2.393v5a1.97,1.97,0,0,0,.322,1.27,1.338,1.338,0,0,0,1.074.381,1.558,1.558,0,0,0,1-.332Zm3.1-11.992a1.362,1.362,0,0,1-.952-.361,1.189,1.189,0,0,1-.4-.918,1.219,1.219,0,0,1,.4-.928,1.342,1.342,0,0,1,.952-.371,1.384,1.384,0,0,1,.977.371,1.212,1.212,0,0,1,.4.928,1.2,1.2,0,0,1-.4.9A1.374,1.374,0,0,1,118.047-12.1ZM119.17,0H116.9V-10h2.266Zm7.393.234a4.957,4.957,0,0,1-3.7-1.4,5.062,5.062,0,0,1-1.382-3.716,5.267,5.267,0,0,1,1.44-3.936,5.3,5.3,0,0,1,3.882-1.416,4.8,4.8,0,0,1,3.652,1.377,5.319,5.319,0,0,1,1.309,3.818,5.241,5.241,0,0,1-1.411,3.833A5.069,5.069,0,0,1,126.563.234Zm.107-8.662a2.586,2.586,0,0,0-2.1.928,3.885,3.885,0,0,0-.771,2.559,3.659,3.659,0,0,0,.781,2.476,2.624,2.624,0,0,0,2.09.9,2.49,2.49,0,0,0,2.056-.889,3.934,3.934,0,0,0,.718-2.529,3.993,3.993,0,0,0-.718-2.549A2.478,2.478,0,0,0,126.67-8.428ZM142.979,0h-2.266V-5.635q0-2.8-1.982-2.8a2.164,2.164,0,0,0-1.709.776,2.88,2.88,0,0,0-.674,1.958V0h-2.275V-10h2.275v1.66h.039a3.564,3.564,0,0,1,3.242-1.895,3.02,3.02,0,0,1,2.49,1.06,4.758,4.758,0,0,1,.859,3.062Zm7.637-.312v-2.1a4.52,4.52,0,0,0,2.8.967q2.051,0,2.051-1.211a.954.954,0,0,0-.176-.581,1.678,1.678,0,0,0-.474-.425,3.723,3.723,0,0,0-.7-.332q-.405-.146-.9-.332a9.563,9.563,0,0,1-1.108-.518,3.349,3.349,0,0,1-.82-.62,2.341,2.341,0,0,1-.493-.786,2.9,2.9,0,0,1-.166-1.025,2.37,2.37,0,0,1,.342-1.274,2.97,2.97,0,0,1,.918-.928,4.4,4.4,0,0,1,1.309-.566,5.991,5.991,0,0,1,1.514-.19,6.881,6.881,0,0,1,2.48.42v1.982a4.181,4.181,0,0,0-2.422-.723,3.163,3.163,0,0,0-.776.088,2,2,0,0,0-.591.244,1.2,1.2,0,0,0-.381.376.9.9,0,0,0-.137.483,1.033,1.033,0,0,0,.137.547,1.242,1.242,0,0,0,.405.4,3.5,3.5,0,0,0,.645.313q.376.142.864.308a12.627,12.627,0,0,1,1.157.537,3.911,3.911,0,0,1,.874.62,2.431,2.431,0,0,1,.557.8,2.719,2.719,0,0,1,.2,1.079,2.467,2.467,0,0,1-.352,1.328,2.93,2.93,0,0,1-.937.938,4.389,4.389,0,0,1-1.353.552,7.026,7.026,0,0,1-1.616.181A6.81,6.81,0,0,1,150.615-.312ZM168.33-4.385h-6.816a2.881,2.881,0,0,0,.854,2.139,3.179,3.179,0,0,0,2.241.752,4.942,4.942,0,0,0,2.939-.957V-.625a6.716,6.716,0,0,1-3.613.859,4.473,4.473,0,0,1-3.462-1.362,5.449,5.449,0,0,1-1.255-3.833,5.328,5.328,0,0,1,1.382-3.8,4.52,4.52,0,0,1,3.433-1.47,3.941,3.941,0,0,1,3.174,1.318,5.474,5.474,0,0,1,1.123,3.662Zm-2.187-1.6a2.919,2.919,0,0,0-.576-1.9A1.925,1.925,0,0,0,164-8.564a2.2,2.2,0,0,0-1.655.713,3.257,3.257,0,0,0-.835,1.865Zm9.619,5.879a3.926,3.926,0,0,1-1.748.332q-2.91,0-2.91-2.793V-8.223h-1.67V-10h1.67v-2.314l2.266-.645V-10h2.393v1.777h-2.393v5a1.97,1.97,0,0,0,.322,1.27,1.338,1.338,0,0,0,1.074.381,1.558,1.558,0,0,0,1-.332Zm7.227,0a3.926,3.926,0,0,1-1.748.332q-2.91,0-2.91-2.793V-8.223h-1.67V-10h1.67v-2.314l2.266-.645V-10h2.393v1.777H180.6v5a1.97,1.97,0,0,0,.322,1.27,1.338,1.338,0,0,0,1.074.381,1.558,1.558,0,0,0,1-.332Zm3.1-11.992a1.362,1.362,0,0,1-.952-.361,1.189,1.189,0,0,1-.4-.918,1.219,1.219,0,0,1,.4-.928,1.342,1.342,0,0,1,.952-.371,1.384,1.384,0,0,1,.977.371,1.212,1.212,0,0,1,.4.928,1.2,1.2,0,0,1-.4.9A1.374,1.374,0,0,1,186.084-12.1ZM187.207,0h-2.266V-10h2.266Zm11.865,0h-2.266V-5.635q0-2.8-1.982-2.8a2.164,2.164,0,0,0-1.709.776,2.88,2.88,0,0,0-.674,1.958V0h-2.275V-10h2.275v1.66h.039a3.564,3.564,0,0,1,3.242-1.895,3.02,3.02,0,0,1,2.49,1.06,4.758,4.758,0,0,1,.859,3.062Zm11.865-.8q0,5.508-5.537,5.508a8.247,8.247,0,0,1-3.408-.654V1.982a6.307,6.307,0,0,0,3.115.938q3.564,0,3.564-3.506V-1.68h-.039A3.669,3.669,0,0,1,205.254.234,3.655,3.655,0,0,1,202.31-1.1a5.39,5.39,0,0,1-1.118-3.579,6.313,6.313,0,0,1,1.2-4.053,3.994,3.994,0,0,1,3.3-1.5,3.181,3.181,0,0,1,2.939,1.621h.039V-10h2.266ZM208.691-4.58v-1.3a2.544,2.544,0,0,0-.7-1.8,2.287,2.287,0,0,0-1.743-.747,2.4,2.4,0,0,0-2.017.952,4.3,4.3,0,0,0-.728,2.661,3.7,3.7,0,0,0,.7,2.358,2.241,2.241,0,0,0,1.851.884,2.4,2.4,0,0,0,1.9-.845A3.183,3.183,0,0,0,208.691-4.58Zm4.57,4.268v-2.1a4.52,4.52,0,0,0,2.8.967q2.051,0,2.051-1.211a.954.954,0,0,0-.176-.581,1.678,1.678,0,0,0-.474-.425,3.723,3.723,0,0,0-.7-.332q-.405-.146-.9-.332a9.563,9.563,0,0,1-1.108-.518,3.349,3.349,0,0,1-.82-.62,2.341,2.341,0,0,1-.493-.786,2.9,2.9,0,0,1-.166-1.025,2.37,2.37,0,0,1,.342-1.274,2.97,2.97,0,0,1,.918-.928,4.4,4.4,0,0,1,1.309-.566,5.991,5.991,0,0,1,1.514-.19,6.881,6.881,0,0,1,2.48.42v1.982a4.181,4.181,0,0,0-2.422-.723,3.163,3.163,0,0,0-.776.088,2,2,0,0,0-.591.244,1.2,1.2,0,0,0-.381.376.9.9,0,0,0-.137.483,1.033,1.033,0,0,0,.137.547,1.242,1.242,0,0,0,.405.4,3.5,3.5,0,0,0,.645.313q.376.142.864.308a12.627,12.627,0,0,1,1.157.537,3.911,3.911,0,0,1,.874.62,2.431,2.431,0,0,1,.557.8,2.719,2.719,0,0,1,.2,1.079,2.467,2.467,0,0,1-.352,1.328,2.93,2.93,0,0,1-.937.938,4.389,4.389,0,0,1-1.353.552A7.026,7.026,0,0,1,216.1.234,6.81,6.81,0,0,1,213.262-.312Z" transform="translate(271 72)" fill="#31313a"/>
  </g>
</svg>
