<svg xmlns="http://www.w3.org/2000/svg" xmlns:xlink="http://www.w3.org/1999/xlink" width="1000" height="115" viewBox="0 0 1000 115">
  <defs>
    <filter id="Path_7456" x="495.5" y="27.5" width="33" height="33" filterUnits="userSpaceOnUse">
      <feOffset dy="2" input="SourceAlpha"/>
      <feGaussianBlur stdDeviation="1.5" result="blur"/>
      <feFlood flood-opacity="0.102"/>
      <feComposite operator="in" in2="blur"/>
      <feComposite in="SourceGraphic"/>
    </filter>
    <clipPath id="clip-toggle_anatomy">
      <rect width="1000" height="115"/>
    </clipPath>
  </defs>
  <g id="toggle_anatomy" clip-path="url(#clip-toggle_anatomy)">
    <rect width="1000" height="115" fill="#f4f4f6"/>
    <g id="Group_4" data-name="Group 4" transform="translate(257 -324)">
      <path id="Path_1" data-name="Path 1" d="M12,0A12,12,0,1,1,0,12,12,12,0,0,1,12,0Z" transform="translate(232 385)" fill="#17987c"/>
      <path id="Path_3" data-name="Path 3" d="M0,0H1V11H0Z" transform="translate(243 377)" fill="#17987c"/>
      <g id="Group_5" data-name="Group 5" transform="translate(-134.25 507) rotate(-90)">
        <g id="Group_6" data-name="Group 6" transform="translate(0 353)">
          <path id="Path_8" data-name="Path 8" d="M0,0H1V5H0Z" transform="translate(128 1) rotate(-90)" fill="#17987c"/>
          <path id="Path_9" data-name="Path 9" d="M0,0H1V5H0Z" transform="translate(128 48) rotate(-90)" fill="#17987c"/>
          <path id="Path_7" data-name="Path 7" d="M0,0H1V46.5H0Z" transform="translate(130 0.75)" fill="#17987c"/>
        </g>
      </g>
      <path id="Path_101497" data-name="Path 101497" d="M6.822,0H.67V-.759A2.849,2.849,0,0,1,.8-1.63,3.526,3.526,0,0,1,1.148-2.4a4.265,4.265,0,0,1,.513-.677q.294-.318.629-.615t.684-.574q.349-.277.684-.557.314-.267.574-.523a3.491,3.491,0,0,0,.444-.53,2.4,2.4,0,0,0,.287-.578,2.053,2.053,0,0,0,.1-.66,1.778,1.778,0,0,0-.12-.68,1.322,1.322,0,0,0-.335-.485A1.43,1.43,0,0,0,4.1-8.569a2,2,0,0,0-.643-.1,2.964,2.964,0,0,0-1.224.28,4.188,4.188,0,0,0-1.2.841V-9.071a5,5,0,0,1,.608-.393,4.146,4.146,0,0,1,.636-.28,3.919,3.919,0,0,1,.69-.167,5.179,5.179,0,0,1,.772-.055,3.9,3.9,0,0,1,1.2.174,2.561,2.561,0,0,1,.923.513,2.253,2.253,0,0,1,.591.844,3.03,3.03,0,0,1,.208,1.162A3.614,3.614,0,0,1,6.525-6.2a3.462,3.462,0,0,1-.417.885,4.593,4.593,0,0,1-.653.779q-.383.369-.854.759-.4.321-.79.625T3.1-2.56a3.321,3.321,0,0,0-.509.581,1.042,1.042,0,0,0-.195.584v.034H6.822Z" transform="translate(240 402)" fill="#fff"/>
    </g>
    <g id="Group_2" data-name="Group 2" transform="translate(447.5 -373)">
      <path id="Path_4" data-name="Path 4" d="M12,0A12,12,0,1,1,0,12,12,12,0,0,1,12,0Z" transform="translate(84 405)" fill="#17987c"/>
      <path id="Path_6" data-name="Path 6" d="M0,0H1V10H0Z" transform="translate(76.5 416.5) rotate(-90)" fill="#17987c"/>
      <path id="Path_101496" data-name="Path 101496" d="M4.2-10.021V0H2.618V-8.08a5.052,5.052,0,0,1-.926.523,7.635,7.635,0,0,1-1.131.379V-8.531q.4-.13.766-.273t.728-.321q.359-.178.725-.4t.755-.5Z" transform="translate(93 422)" fill="#fff"/>
    </g>
    <g id="Toggle" transform="translate(476 30)">
      <rect id="Rectangle_6838" data-name="Rectangle 6838" width="48" height="14" rx="7" transform="translate(0 5)" fill="#2777d3"/>
      <g transform="matrix(1, 0, 0, 1, -476, -30)" filter="url(#Path_7456)">
        <g id="Path_7456-2" data-name="Path 7456" transform="translate(500 30)" fill="#fff">
          <path d="M 12 23.75 C 8.861459732055664 23.75 5.91077995300293 22.52779006958008 3.691489934921265 20.30850982666016 C 1.472210049629211 18.08922004699707 0.25 15.13854026794434 0.25 12 C 0.25 8.861459732055664 1.472210049629211 5.91077995300293 3.691489934921265 3.691489934921265 C 5.91077995300293 1.472210049629211 8.861459732055664 0.25 12 0.25 C 15.13854026794434 0.25 18.08922004699707 1.472210049629211 20.30850982666016 3.691489934921265 C 22.52779006958008 5.91077995300293 23.75 8.861459732055664 23.75 12 C 23.75 15.13854026794434 22.52779006958008 18.08922004699707 20.30850982666016 20.30850982666016 C 18.08922004699707 22.52779006958008 15.13854026794434 23.75 12 23.75 Z" stroke="none"/>
          <path d="M 12 0.5 C 8.928239822387695 0.5 6.04033088684082 1.696210861206055 3.868270874023438 3.868270874023438 C 1.696210861206055 6.04033088684082 0.5 8.928239822387695 0.5 12 C 0.5 15.0717601776123 1.696210861206055 17.95967102050781 3.868270874023438 20.13172912597656 C 6.04033088684082 22.30378913879395 8.928239822387695 23.5 12 23.5 C 15.0717601776123 23.5 17.95967102050781 22.30378913879395 20.13172912597656 20.13172912597656 C 22.30378913879395 17.95967102050781 23.5 15.0717601776123 23.5 12 C 23.5 8.928239822387695 22.30378913879395 6.04033088684082 20.13172912597656 3.868270874023438 C 17.95967102050781 1.696210861206055 15.0717601776123 0.5 12 0.5 M 12 0 C 18.62742042541504 0 24 5.372579574584961 24 12 C 24 18.62742042541504 18.62742042541504 24 12 24 C 5.372579574584961 24 0 18.62742042541504 0 12 C 0 5.372579574584961 5.372579574584961 0 12 0 Z" stroke="none" fill="#e6e6ea"/>
        </g>
      </g>
    </g>
  </g>
</svg>
