<svg xmlns="http://www.w3.org/2000/svg" xmlns:xlink="http://www.w3.org/1999/xlink" width="1000" height="119" viewBox="0 0 1000 119">
  <defs>
    <filter id="Path_7456" x="575.5" y="62.5" width="33" height="33" filterUnits="userSpaceOnUse">
      <feOffset dy="2" input="SourceAlpha"/>
      <feGaussianBlur stdDeviation="1.5" result="blur"/>
      <feFlood flood-opacity="0.102"/>
      <feComposite operator="in" in2="blur"/>
      <feComposite in="SourceGraphic"/>
    </filter>
    <filter id="Path_10242" x="393.5" y="62.5" width="33" height="33" filterUnits="userSpaceOnUse">
      <feOffset dy="2" input="SourceAlpha"/>
      <feGaussianBlur stdDeviation="1.5" result="blur-2"/>
      <feFlood flood-opacity="0.102"/>
      <feComposite operator="in" in2="blur-2"/>
      <feComposite in="SourceGraphic"/>
    </filter>
    <clipPath id="clip-toggle_on-off">
      <rect width="1000" height="119"/>
    </clipPath>
  </defs>
  <g id="toggle_on-off" clip-path="url(#clip-toggle_on-off)">
    <rect width="1000" height="119" fill="#f4f4f6"/>
    <g id="Toggle" transform="translate(556 65)">
      <rect id="Rectangle_6838" data-name="Rectangle 6838" width="48" height="14" rx="7" transform="translate(0 5)" fill="#2777d3"/>
      <g transform="matrix(1, 0, 0, 1, -556, -65)" filter="url(#Path_7456)">
        <g id="Path_7456-2" data-name="Path 7456" transform="translate(580 65)" fill="#fff">
          <path d="M 12 23.75 C 8.861459732055664 23.75 5.91077995300293 22.52779006958008 3.691489934921265 20.30850982666016 C 1.472210049629211 18.08922004699707 0.25 15.13854026794434 0.25 12 C 0.25 8.861459732055664 1.472210049629211 5.91077995300293 3.691489934921265 3.691489934921265 C 5.91077995300293 1.472210049629211 8.861459732055664 0.25 12 0.25 C 15.13854026794434 0.25 18.08922004699707 1.472210049629211 20.30850982666016 3.691489934921265 C 22.52779006958008 5.91077995300293 23.75 8.861459732055664 23.75 12 C 23.75 15.13854026794434 22.52779006958008 18.08922004699707 20.30850982666016 20.30850982666016 C 18.08922004699707 22.52779006958008 15.13854026794434 23.75 12 23.75 Z" stroke="none"/>
          <path d="M 12 0.5 C 8.928239822387695 0.5 6.04033088684082 1.696210861206055 3.868270874023438 3.868270874023438 C 1.696210861206055 6.04033088684082 0.5 8.928239822387695 0.5 12 C 0.5 15.0717601776123 1.696210861206055 17.95967102050781 3.868270874023438 20.13172912597656 C 6.04033088684082 22.30378913879395 8.928239822387695 23.5 12 23.5 C 15.0717601776123 23.5 17.95967102050781 22.30378913879395 20.13172912597656 20.13172912597656 C 22.30378913879395 17.95967102050781 23.5 15.0717601776123 23.5 12 C 23.5 8.928239822387695 22.30378913879395 6.04033088684082 20.13172912597656 3.868270874023438 C 17.95967102050781 1.696210861206055 15.0717601776123 0.5 12 0.5 M 12 0 C 18.62742042541504 0 24 5.372579574584961 24 12 C 24 18.62742042541504 18.62742042541504 24 12 24 C 5.372579574584961 24 0 18.62742042541504 0 12 C 0 5.372579574584961 5.372579574584961 0 12 0 Z" stroke="none" fill="#e6e6ea"/>
        </g>
      </g>
    </g>
    <g id="Toggle-2" data-name="Toggle" transform="translate(398 65)">
      <rect id="Rectangle_8087" data-name="Rectangle 8087" width="48" height="14" rx="7" transform="translate(0 5)" fill="#9494a4"/>
      <g transform="matrix(1, 0, 0, 1, -398, -65)" filter="url(#Path_10242)">
        <g id="Path_10242-2" data-name="Path 10242" transform="translate(398 65)" fill="#fff">
          <path d="M 12 23.75 C 8.861459732055664 23.75 5.91077995300293 22.52779006958008 3.691489934921265 20.30850982666016 C 1.472210049629211 18.08922004699707 0.25 15.13854026794434 0.25 12 C 0.25 8.861459732055664 1.472210049629211 5.91077995300293 3.691489934921265 3.691489934921265 C 5.91077995300293 1.472210049629211 8.861459732055664 0.25 12 0.25 C 15.13854026794434 0.25 18.08922004699707 1.472210049629211 20.30850982666016 3.691489934921265 C 22.52779006958008 5.91077995300293 23.75 8.861459732055664 23.75 12 C 23.75 15.13854026794434 22.52779006958008 18.08922004699707 20.30850982666016 20.30850982666016 C 18.08922004699707 22.52779006958008 15.13854026794434 23.75 12 23.75 Z" stroke="none"/>
          <path d="M 12 0.5 C 8.928239822387695 0.5 6.04033088684082 1.696210861206055 3.868270874023438 3.868270874023438 C 1.696210861206055 6.04033088684082 0.5 8.928239822387695 0.5 12 C 0.5 15.0717601776123 1.696210861206055 17.95967102050781 3.868270874023438 20.13172912597656 C 6.04033088684082 22.30378913879395 8.928239822387695 23.5 12 23.5 C 15.0717601776123 23.5 17.95967102050781 22.30378913879395 20.13172912597656 20.13172912597656 C 22.30378913879395 17.95967102050781 23.5 15.0717601776123 23.5 12 C 23.5 8.928239822387695 22.30378913879395 6.04033088684082 20.13172912597656 3.868270874023438 C 17.95967102050781 1.696210861206055 15.0717601776123 0.5 12 0.5 M 12 0 C 18.62742042541504 0 24 5.372579574584961 24 12 C 24 18.62742042541504 18.62742042541504 24 12 24 C 5.372579574584961 24 0 18.62742042541504 0 12 C 0 5.372579574584961 5.372579574584961 0 12 0 Z" stroke="none" fill="#e6e6ea"/>
        </g>
      </g>
    </g>
    <path id="Path_101510" data-name="Path 101510" d="M4.114.129A3.381,3.381,0,0,1,1.49-.951,4,4,0,0,1,.5-3.76a4.243,4.243,0,0,1,1-2.965A3.508,3.508,0,0,1,4.243-7.831a3.3,3.3,0,0,1,2.57,1.074,4.019,4.019,0,0,1,.975,2.809,4.257,4.257,0,0,1-1,2.981A3.443,3.443,0,0,1,4.114.129Zm.064-7.144a2.483,2.483,0,0,0-1.971.875,3.389,3.389,0,0,0-.757,2.3A3.413,3.413,0,0,0,2.189-1.55a2.409,2.409,0,0,0,1.926.867,2.529,2.529,0,0,0,2-.827,3.38,3.38,0,0,0,.73-2.315,3.532,3.532,0,0,0-.709-2.358A2.431,2.431,0,0,0,4.179-7.015ZM11.9-7.369a1.173,1.173,0,0,0-.585-.145q-.924,0-.924,1.166V-5.5h1.289v.752H10.393V0H9.518V-4.748h-.94V-5.5h.94v-.892a1.853,1.853,0,0,1,.5-1.367,1.686,1.686,0,0,1,1.246-.5,1.726,1.726,0,0,1,.639.1Zm3.443,0a1.173,1.173,0,0,0-.585-.145q-.924,0-.924,1.166V-5.5h1.289v.752H13.836V0H12.96V-4.748h-.94V-5.5h.94v-.892a1.853,1.853,0,0,1,.5-1.367,1.686,1.686,0,0,1,1.246-.5,1.726,1.726,0,0,1,.639.1ZM19.986-.795h-.021V2.53h-.881V-5.5h.881v.967h.021a2.083,2.083,0,0,1,1.9-1.1,2.014,2.014,0,0,1,1.66.739,3.059,3.059,0,0,1,.6,1.979A3.409,3.409,0,0,1,23.472-.7a2.235,2.235,0,0,1-1.837.83A1.84,1.84,0,0,1,19.986-.795Zm-.021-2.218v.768a1.635,1.635,0,0,0,.443,1.157,1.471,1.471,0,0,0,1.125.475,1.474,1.474,0,0,0,1.254-.612,2.809,2.809,0,0,0,.454-1.7,2.217,2.217,0,0,0-.424-1.439,1.4,1.4,0,0,0-1.149-.521,1.561,1.561,0,0,0-1.235.534A1.962,1.962,0,0,0,19.964-3.013ZM27.849.129A2.551,2.551,0,0,1,25.9-.642a2.855,2.855,0,0,1-.728-2.044,2.974,2.974,0,0,1,.757-2.165,2.723,2.723,0,0,1,2.046-.779,2.467,2.467,0,0,1,1.92.757,3,3,0,0,1,.69,2.1,2.955,2.955,0,0,1-.744,2.108A2.607,2.607,0,0,1,27.849.129Zm.064-5.017a1.675,1.675,0,0,0-1.343.577,2.371,2.371,0,0,0-.494,1.593,2.243,2.243,0,0,0,.5,1.542,1.7,1.7,0,0,0,1.337.564,1.61,1.61,0,0,0,1.313-.553,2.4,2.4,0,0,0,.459-1.574,2.442,2.442,0,0,0-.459-1.59A1.6,1.6,0,0,0,27.914-4.888ZM31.663-.2v-.945a2.607,2.607,0,0,0,1.584.532q1.16,0,1.16-.773a.671.671,0,0,0-.1-.373.99.99,0,0,0-.269-.271,2.067,2.067,0,0,0-.4-.212q-.228-.094-.491-.2a6.33,6.33,0,0,1-.642-.293,1.939,1.939,0,0,1-.462-.333,1.239,1.239,0,0,1-.279-.422,1.492,1.492,0,0,1-.094-.553,1.314,1.314,0,0,1,.177-.685,1.572,1.572,0,0,1,.473-.5,2.2,2.2,0,0,1,.674-.3,2.99,2.99,0,0,1,.781-.1,3.156,3.156,0,0,1,1.278.247v.892a2.491,2.491,0,0,0-1.4-.4,1.632,1.632,0,0,0-.446.056,1.091,1.091,0,0,0-.341.158.732.732,0,0,0-.22.244.644.644,0,0,0-.078.314.754.754,0,0,0,.078.36.792.792,0,0,0,.228.258,1.745,1.745,0,0,0,.365.2q.215.091.489.2a6.8,6.8,0,0,1,.655.287,2.247,2.247,0,0,1,.494.333,1.3,1.3,0,0,1,.314.427,1.377,1.377,0,0,1,.11.575,1.355,1.355,0,0,1-.18.709,1.542,1.542,0,0,1-.481.5,2.2,2.2,0,0,1-.693.3,3.421,3.421,0,0,1-.822.1A3.12,3.12,0,0,1,31.663-.2Zm5.452-6.7a.558.558,0,0,1-.4-.161.544.544,0,0,1-.167-.408.553.553,0,0,1,.167-.411.553.553,0,0,1,.4-.164.569.569,0,0,1,.411.164.548.548,0,0,1,.169.411.544.544,0,0,1-.169.4A.564.564,0,0,1,37.114-6.9Zm.43,6.9h-.881V-5.5h.881Zm4.334-.054a1.7,1.7,0,0,1-.822.172q-1.445,0-1.445-1.611V-4.748h-.945V-5.5h.945V-6.843l.881-.285V-5.5h1.386v.752H40.493v3.1a1.285,1.285,0,0,0,.188.79.75.75,0,0,0,.623.236.926.926,0,0,0,.575-.183ZM43.506-6.9a.558.558,0,0,1-.4-.161.544.544,0,0,1-.167-.408.553.553,0,0,1,.167-.411.553.553,0,0,1,.4-.164.569.569,0,0,1,.411.164.548.548,0,0,1,.169.411.544.544,0,0,1-.169.4A.564.564,0,0,1,43.506-6.9Zm.43,6.9h-.881V-5.5h.881Zm4.082.129a2.551,2.551,0,0,1-1.947-.771,2.855,2.855,0,0,1-.728-2.044A2.974,2.974,0,0,1,46.1-4.85a2.723,2.723,0,0,1,2.046-.779,2.467,2.467,0,0,1,1.92.757,3,3,0,0,1,.69,2.1,2.955,2.955,0,0,1-.744,2.108A2.607,2.607,0,0,1,48.018.129Zm.064-5.017a1.675,1.675,0,0,0-1.343.577,2.371,2.371,0,0,0-.494,1.593,2.243,2.243,0,0,0,.5,1.542,1.7,1.7,0,0,0,1.337.564A1.61,1.61,0,0,0,49.4-1.166a2.4,2.4,0,0,0,.459-1.574,2.442,2.442,0,0,0-.459-1.59A1.6,1.6,0,0,0,48.082-4.888ZM56.729,0h-.881V-3.137q0-1.751-1.278-1.751a1.387,1.387,0,0,0-1.093.5,1.841,1.841,0,0,0-.432,1.254V0h-.881V-5.5h.881v.913h.021a1.985,1.985,0,0,1,1.8-1.042,1.683,1.683,0,0,1,1.38.583,2.6,2.6,0,0,1,.478,1.684Z" transform="translate(393 42)" fill="#17987c"/>
    <path id="Path_101511" data-name="Path 101511" d="M4.114.129A3.381,3.381,0,0,1,1.49-.951,4,4,0,0,1,.5-3.76a4.243,4.243,0,0,1,1-2.965A3.508,3.508,0,0,1,4.243-7.831a3.3,3.3,0,0,1,2.57,1.074,4.019,4.019,0,0,1,.975,2.809,4.257,4.257,0,0,1-1,2.981A3.443,3.443,0,0,1,4.114.129Zm.064-7.144a2.483,2.483,0,0,0-1.971.875,3.389,3.389,0,0,0-.757,2.3A3.413,3.413,0,0,0,2.189-1.55a2.409,2.409,0,0,0,1.926.867,2.529,2.529,0,0,0,2-.827,3.38,3.38,0,0,0,.73-2.315,3.532,3.532,0,0,0-.709-2.358A2.431,2.431,0,0,0,4.179-7.015ZM13.75,0h-.881V-3.137q0-1.751-1.278-1.751a1.387,1.387,0,0,0-1.093.5,1.842,1.842,0,0,0-.432,1.254V0H9.185V-5.5h.881v.913h.021a1.985,1.985,0,0,1,1.8-1.042,1.683,1.683,0,0,1,1.38.583,2.6,2.6,0,0,1,.478,1.684Zm5.575-.795H19.3V2.53h-.881V-5.5H19.3v.967h.021a2.083,2.083,0,0,1,1.9-1.1,2.014,2.014,0,0,1,1.66.739,3.059,3.059,0,0,1,.6,1.979A3.409,3.409,0,0,1,22.811-.7a2.235,2.235,0,0,1-1.837.83A1.84,1.84,0,0,1,19.325-.795ZM19.3-3.013v.768a1.635,1.635,0,0,0,.443,1.157,1.471,1.471,0,0,0,1.125.475,1.474,1.474,0,0,0,1.254-.612,2.809,2.809,0,0,0,.454-1.7,2.217,2.217,0,0,0-.424-1.439,1.4,1.4,0,0,0-1.149-.521,1.561,1.561,0,0,0-1.235.534A1.962,1.962,0,0,0,19.3-3.013ZM27.188.129a2.551,2.551,0,0,1-1.947-.771,2.855,2.855,0,0,1-.728-2.044,2.974,2.974,0,0,1,.757-2.165,2.723,2.723,0,0,1,2.046-.779,2.467,2.467,0,0,1,1.92.757,3,3,0,0,1,.69,2.1,2.955,2.955,0,0,1-.744,2.108A2.607,2.607,0,0,1,27.188.129Zm.064-5.017a1.675,1.675,0,0,0-1.343.577,2.371,2.371,0,0,0-.494,1.593,2.243,2.243,0,0,0,.5,1.542,1.7,1.7,0,0,0,1.337.564,1.61,1.61,0,0,0,1.313-.553,2.4,2.4,0,0,0,.459-1.574,2.442,2.442,0,0,0-.459-1.59A1.6,1.6,0,0,0,27.253-4.888ZM31-.2v-.945a2.607,2.607,0,0,0,1.584.532q1.16,0,1.16-.773a.671.671,0,0,0-.1-.373.99.99,0,0,0-.269-.271,2.067,2.067,0,0,0-.4-.212q-.228-.094-.491-.2a6.33,6.33,0,0,1-.642-.293,1.939,1.939,0,0,1-.462-.333,1.239,1.239,0,0,1-.279-.422,1.492,1.492,0,0,1-.094-.553,1.314,1.314,0,0,1,.177-.685,1.572,1.572,0,0,1,.473-.5,2.2,2.2,0,0,1,.674-.3,2.99,2.99,0,0,1,.781-.1,3.156,3.156,0,0,1,1.278.247v.892a2.491,2.491,0,0,0-1.4-.4,1.632,1.632,0,0,0-.446.056,1.091,1.091,0,0,0-.341.158.732.732,0,0,0-.22.244.644.644,0,0,0-.078.314.754.754,0,0,0,.078.36.792.792,0,0,0,.228.258,1.745,1.745,0,0,0,.365.2q.215.091.489.2a6.8,6.8,0,0,1,.655.287,2.247,2.247,0,0,1,.494.333,1.3,1.3,0,0,1,.314.427,1.377,1.377,0,0,1,.11.575,1.355,1.355,0,0,1-.18.709,1.542,1.542,0,0,1-.481.5,2.2,2.2,0,0,1-.693.3,3.421,3.421,0,0,1-.822.1A3.12,3.12,0,0,1,31-.2Zm5.452-6.7a.558.558,0,0,1-.4-.161.544.544,0,0,1-.167-.408.553.553,0,0,1,.167-.411.553.553,0,0,1,.4-.164.569.569,0,0,1,.411.164.548.548,0,0,1,.169.411.544.544,0,0,1-.169.4A.564.564,0,0,1,36.454-6.9Zm.43,6.9H36V-5.5h.881Zm4.334-.054A1.7,1.7,0,0,1,40.4.118q-1.445,0-1.445-1.611V-4.748h-.945V-5.5h.945V-6.843l.881-.285V-5.5h1.386v.752H39.832v3.1a1.285,1.285,0,0,0,.188.79.75.75,0,0,0,.623.236.926.926,0,0,0,.575-.183ZM42.845-6.9a.558.558,0,0,1-.4-.161.544.544,0,0,1-.167-.408.553.553,0,0,1,.167-.411.553.553,0,0,1,.4-.164.569.569,0,0,1,.411.164.548.548,0,0,1,.169.411.544.544,0,0,1-.169.4A.564.564,0,0,1,42.845-6.9Zm.43,6.9h-.881V-5.5h.881Zm4.082.129A2.551,2.551,0,0,1,45.41-.642a2.855,2.855,0,0,1-.728-2.044,2.974,2.974,0,0,1,.757-2.165,2.723,2.723,0,0,1,2.046-.779,2.467,2.467,0,0,1,1.92.757,3,3,0,0,1,.69,2.1,2.955,2.955,0,0,1-.744,2.108A2.607,2.607,0,0,1,47.357.129Zm.064-5.017a1.675,1.675,0,0,0-1.343.577,2.371,2.371,0,0,0-.494,1.593,2.243,2.243,0,0,0,.5,1.542,1.7,1.7,0,0,0,1.337.564,1.61,1.61,0,0,0,1.313-.553,2.4,2.4,0,0,0,.459-1.574,2.442,2.442,0,0,0-.459-1.59A1.6,1.6,0,0,0,47.421-4.888ZM56.069,0h-.881V-3.137q0-1.751-1.278-1.751a1.387,1.387,0,0,0-1.093.5,1.841,1.841,0,0,0-.432,1.254V0H51.5V-5.5h.881v.913h.021a1.985,1.985,0,0,1,1.8-1.042,1.683,1.683,0,0,1,1.38.583,2.6,2.6,0,0,1,.478,1.684Z" transform="translate(550 42)" fill="#17987c"/>
  </g>
</svg>
