<svg xmlns="http://www.w3.org/2000/svg" xmlns:xlink="http://www.w3.org/1999/xlink" width="1000" height="258" viewBox="0 0 1000 258">
  <defs>
    <filter id="Path_10242" x="599.5" y="68.5" width="33" height="33" filterUnits="userSpaceOnUse">
      <feOffset dy="2" input="SourceAlpha"/>
      <feGaussianBlur stdDeviation="1.5" result="blur"/>
      <feFlood flood-opacity="0.102"/>
      <feComposite operator="in" in2="blur"/>
      <feComposite in="SourceGraphic"/>
    </filter>
    <filter id="Path_7456" x="617.5" y="195.5" width="33" height="33" filterUnits="userSpaceOnUse">
      <feOffset dy="2" input="SourceAlpha"/>
      <feGaussianBlur stdDeviation="1.5" result="blur-2"/>
      <feFlood flood-opacity="0.102"/>
      <feComposite operator="in" in2="blur-2"/>
      <feComposite in="SourceGraphic"/>
    </filter>
    <filter id="Path_10242-2" x="845.5" y="68.5" width="33" height="33" filterUnits="userSpaceOnUse">
      <feOffset dy="2" input="SourceAlpha"/>
      <feGaussianBlur stdDeviation="1.5" result="blur-3"/>
      <feFlood flood-opacity="0.102"/>
      <feComposite operator="in" in2="blur-3"/>
      <feComposite in="SourceGraphic"/>
    </filter>
    <filter id="Path_8851" x="870.5" y="195.5" width="33" height="33" filterUnits="userSpaceOnUse">
      <feOffset dy="2" input="SourceAlpha"/>
      <feGaussianBlur stdDeviation="1.5" result="blur-4"/>
      <feFlood flood-opacity="0.102"/>
      <feComposite operator="in" in2="blur-4"/>
      <feComposite in="SourceGraphic"/>
    </filter>
    <filter id="Path_10242-3" x="95.5" y="68.5" width="33" height="33" filterUnits="userSpaceOnUse">
      <feOffset dy="2" input="SourceAlpha"/>
      <feGaussianBlur stdDeviation="1.5" result="blur-5"/>
      <feFlood flood-opacity="0.102"/>
      <feComposite operator="in" in2="blur-5"/>
      <feComposite in="SourceGraphic"/>
    </filter>
    <filter id="Path_7456-2" x="120.5" y="195.5" width="33" height="33" filterUnits="userSpaceOnUse">
      <feOffset dy="2" input="SourceAlpha"/>
      <feGaussianBlur stdDeviation="1.5" result="blur-6"/>
      <feFlood flood-opacity="0.102"/>
      <feComposite operator="in" in2="blur-6"/>
      <feComposite in="SourceGraphic"/>
    </filter>
    <filter id="Path_10242-4" x="349.5" y="68.5" width="33" height="33" filterUnits="userSpaceOnUse">
      <feOffset dy="2" input="SourceAlpha"/>
      <feGaussianBlur stdDeviation="1.5" result="blur-7"/>
      <feFlood flood-opacity="0.102"/>
      <feComposite operator="in" in2="blur-7"/>
      <feComposite in="SourceGraphic"/>
    </filter>
    <filter id="Path_7456-3" x="367.5" y="195.5" width="33" height="33" filterUnits="userSpaceOnUse">
      <feOffset dy="2" input="SourceAlpha"/>
      <feGaussianBlur stdDeviation="1.5" result="blur-8"/>
      <feFlood flood-opacity="0.102"/>
      <feComposite operator="in" in2="blur-8"/>
      <feComposite in="SourceGraphic"/>
    </filter>
    <clipPath id="clip-toggle_states">
      <rect width="1000" height="258"/>
    </clipPath>
  </defs>
  <g id="toggle_states" clip-path="url(#clip-toggle_states)">
    <rect width="1000" height="258" fill="#f4f4f6"/>
    <g id="Toggle" transform="translate(598 65)">
      <rect id="Rectangle_8087" data-name="Rectangle 8087" width="48" height="14" rx="7" transform="translate(6 11)" fill="#9494a4"/>
      <circle id="Ellipse_2013" data-name="Ellipse 2013" cx="18" cy="18" r="18" fill="#606071" opacity="0.25"/>
      <g transform="matrix(1, 0, 0, 1, -598, -65)" filter="url(#Path_10242)">
        <g id="Path_10242-5" data-name="Path 10242" transform="translate(604 71)" fill="#fff">
          <path d="M 12 23.75 C 8.861459732055664 23.75 5.91077995300293 22.52779006958008 3.691489934921265 20.30850982666016 C 1.472210049629211 18.08922004699707 0.25 15.13854026794434 0.25 12 C 0.25 8.861459732055664 1.472210049629211 5.91077995300293 3.691489934921265 3.691489934921265 C 5.91077995300293 1.472210049629211 8.861459732055664 0.25 12 0.25 C 15.13854026794434 0.25 18.08922004699707 1.472210049629211 20.30850982666016 3.691489934921265 C 22.52779006958008 5.91077995300293 23.75 8.861459732055664 23.75 12 C 23.75 15.13854026794434 22.52779006958008 18.08922004699707 20.30850982666016 20.30850982666016 C 18.08922004699707 22.52779006958008 15.13854026794434 23.75 12 23.75 Z" stroke="none"/>
          <path d="M 12 0.5 C 8.928239822387695 0.5 6.04033088684082 1.696210861206055 3.868270874023438 3.868270874023438 C 1.696210861206055 6.04033088684082 0.5 8.928239822387695 0.5 12 C 0.5 15.0717601776123 1.696210861206055 17.95967102050781 3.868270874023438 20.13172912597656 C 6.04033088684082 22.30378913879395 8.928239822387695 23.5 12 23.5 C 15.0717601776123 23.5 17.95967102050781 22.30378913879395 20.13172912597656 20.13172912597656 C 22.30378913879395 17.95967102050781 23.5 15.0717601776123 23.5 12 C 23.5 8.928239822387695 22.30378913879395 6.04033088684082 20.13172912597656 3.868270874023438 C 17.95967102050781 1.696210861206055 15.0717601776123 0.5 12 0.5 M 12 0 C 18.62742042541504 0 24 5.372579574584961 24 12 C 24 18.62742042541504 18.62742042541504 24 12 24 C 5.372579574584961 24 0 18.62742042541504 0 12 C 0 5.372579574584961 5.372579574584961 0 12 0 Z" stroke="none" fill="#e6e6ea"/>
        </g>
      </g>
    </g>
    <g id="Toggle-2" data-name="Toggle" transform="translate(598 192)">
      <rect id="Rectangle_6838" data-name="Rectangle 6838" width="48" height="14" rx="7" transform="translate(0 11)" fill="#2777d3"/>
      <circle id="Ellipse_2012" data-name="Ellipse 2012" cx="18" cy="18" r="18" transform="translate(18)" fill="#1f5ea8" opacity="0.25"/>
      <g transform="matrix(1, 0, 0, 1, -598, -192)" filter="url(#Path_7456)">
        <g id="Path_7456-4" data-name="Path 7456" transform="translate(622 198)" fill="#fff">
          <path d="M 12 23.75 C 8.861459732055664 23.75 5.91077995300293 22.52779006958008 3.691489934921265 20.30850982666016 C 1.472210049629211 18.08922004699707 0.25 15.13854026794434 0.25 12 C 0.25 8.861459732055664 1.472210049629211 5.91077995300293 3.691489934921265 3.691489934921265 C 5.91077995300293 1.472210049629211 8.861459732055664 0.25 12 0.25 C 15.13854026794434 0.25 18.08922004699707 1.472210049629211 20.30850982666016 3.691489934921265 C 22.52779006958008 5.91077995300293 23.75 8.861459732055664 23.75 12 C 23.75 15.13854026794434 22.52779006958008 18.08922004699707 20.30850982666016 20.30850982666016 C 18.08922004699707 22.52779006958008 15.13854026794434 23.75 12 23.75 Z" stroke="none"/>
          <path d="M 12 0.5 C 8.928239822387695 0.5 6.04033088684082 1.696210861206055 3.868270874023438 3.868270874023438 C 1.696210861206055 6.04033088684082 0.5 8.928239822387695 0.5 12 C 0.5 15.0717601776123 1.696210861206055 17.95967102050781 3.868270874023438 20.13172912597656 C 6.04033088684082 22.30378913879395 8.928239822387695 23.5 12 23.5 C 15.0717601776123 23.5 17.95967102050781 22.30378913879395 20.13172912597656 20.13172912597656 C 22.30378913879395 17.95967102050781 23.5 15.0717601776123 23.5 12 C 23.5 8.928239822387695 22.30378913879395 6.04033088684082 20.13172912597656 3.868270874023438 C 17.95967102050781 1.696210861206055 15.0717601776123 0.5 12 0.5 M 12 0 C 18.62742042541504 0 24 5.372579574584961 24 12 C 24 18.62742042541504 18.62742042541504 24 12 24 C 5.372579574584961 24 0 18.62742042541504 0 12 C 0 5.372579574584961 5.372579574584961 0 12 0 Z" stroke="none" fill="#e6e6ea"/>
        </g>
      </g>
    </g>
    <g id="Toggle-3" data-name="Toggle" transform="translate(850 71)">
      <rect id="Rectangle_8087-2" data-name="Rectangle 8087" width="48" height="14" rx="7" transform="translate(0 5)" fill="#e6e6ea"/>
      <g transform="matrix(1, 0, 0, 1, -850, -71)" filter="url(#Path_10242-2)">
        <g id="Path_10242-6" data-name="Path 10242" transform="translate(850 71)" fill="#fff">
          <path d="M 12 23.75 C 8.861459732055664 23.75 5.91077995300293 22.52779006958008 3.691489934921265 20.30850982666016 C 1.472210049629211 18.08922004699707 0.25 15.13854026794434 0.25 12 C 0.25 8.861459732055664 1.472210049629211 5.91077995300293 3.691489934921265 3.691489934921265 C 5.91077995300293 1.472210049629211 8.861459732055664 0.25 12 0.25 C 15.13854026794434 0.25 18.08922004699707 1.472210049629211 20.30850982666016 3.691489934921265 C 22.52779006958008 5.91077995300293 23.75 8.861459732055664 23.75 12 C 23.75 15.13854026794434 22.52779006958008 18.08922004699707 20.30850982666016 20.30850982666016 C 18.08922004699707 22.52779006958008 15.13854026794434 23.75 12 23.75 Z" stroke="none"/>
          <path d="M 12 0.5 C 8.928239822387695 0.5 6.04033088684082 1.696210861206055 3.868270874023438 3.868270874023438 C 1.696210861206055 6.04033088684082 0.5 8.928239822387695 0.5 12 C 0.5 15.0717601776123 1.696210861206055 17.95967102050781 3.868270874023438 20.13172912597656 C 6.04033088684082 22.30378913879395 8.928239822387695 23.5 12 23.5 C 15.0717601776123 23.5 17.95967102050781 22.30378913879395 20.13172912597656 20.13172912597656 C 22.30378913879395 17.95967102050781 23.5 15.0717601776123 23.5 12 C 23.5 8.928239822387695 22.30378913879395 6.04033088684082 20.13172912597656 3.868270874023438 C 17.95967102050781 1.696210861206055 15.0717601776123 0.5 12 0.5 M 12 0 C 18.62742042541504 0 24 5.372579574584961 24 12 C 24 18.62742042541504 18.62742042541504 24 12 24 C 5.372579574584961 24 0 18.62742042541504 0 12 C 0 5.372579574584961 5.372579574584961 0 12 0 Z" stroke="none" fill="#e6e6ea"/>
        </g>
      </g>
    </g>
    <g id="Toggle-4" data-name="Toggle" transform="translate(851 198)">
      <g id="Group_14524" data-name="Group 14524" transform="translate(-3 -6)">
        <rect id="Rectangle_6841" data-name="Rectangle 6841" width="48" height="14" rx="7" transform="translate(3 11)" fill="#d0e2f6"/>
        <g transform="matrix(1, 0, 0, 1, -848, -192)" filter="url(#Path_8851)">
          <g id="Path_8851-2" data-name="Path 8851" transform="translate(875 198)" fill="#fff">
            <path d="M 12 23.75 C 8.861459732055664 23.75 5.91077995300293 22.52779006958008 3.691489934921265 20.30850982666016 C 1.472210049629211 18.08922004699707 0.25 15.13854026794434 0.25 12 C 0.25 8.861459732055664 1.472210049629211 5.91077995300293 3.691489934921265 3.691489934921265 C 5.91077995300293 1.472210049629211 8.861459732055664 0.25 12 0.25 C 15.13854026794434 0.25 18.08922004699707 1.472210049629211 20.30850982666016 3.691489934921265 C 22.52779006958008 5.91077995300293 23.75 8.861459732055664 23.75 12 C 23.75 15.13854026794434 22.52779006958008 18.08922004699707 20.30850982666016 20.30850982666016 C 18.08922004699707 22.52779006958008 15.13854026794434 23.75 12 23.75 Z" stroke="none"/>
            <path d="M 12 0.5 C 8.928239822387695 0.5 6.04033088684082 1.696210861206055 3.868270874023438 3.868270874023438 C 1.696210861206055 6.04033088684082 0.5 8.928239822387695 0.5 12 C 0.5 15.0717601776123 1.696210861206055 17.95967102050781 3.868270874023438 20.13172912597656 C 6.04033088684082 22.30378913879395 8.928239822387695 23.5 12 23.5 C 15.0717601776123 23.5 17.95967102050781 22.30378913879395 20.13172912597656 20.13172912597656 C 22.30378913879395 17.95967102050781 23.5 15.0717601776123 23.5 12 C 23.5 8.928239822387695 22.30378913879395 6.04033088684082 20.13172912597656 3.868270874023438 C 17.95967102050781 1.696210861206055 15.0717601776123 0.5 12 0.5 M 12 0 C 18.62742042541504 0 24 5.372579574584961 24 12 C 24 18.62742042541504 18.62742042541504 24 12 24 C 5.372579574584961 24 0 18.62742042541504 0 12 C 0 5.372579574584961 5.372579574584961 0 12 0 Z" stroke="none" fill="#e6e6ea"/>
          </g>
        </g>
      </g>
    </g>
    <g id="Toggle-5" data-name="Toggle" transform="translate(100 71)">
      <rect id="Rectangle_8087-3" data-name="Rectangle 8087" width="48" height="14" rx="7" transform="translate(0 5)" fill="#9494a4"/>
      <g transform="matrix(1, 0, 0, 1, -100, -71)" filter="url(#Path_10242-3)">
        <g id="Path_10242-7" data-name="Path 10242" transform="translate(100 71)" fill="#fff">
          <path d="M 12 23.75 C 8.861459732055664 23.75 5.91077995300293 22.52779006958008 3.691489934921265 20.30850982666016 C 1.472210049629211 18.08922004699707 0.25 15.13854026794434 0.25 12 C 0.25 8.861459732055664 1.472210049629211 5.91077995300293 3.691489934921265 3.691489934921265 C 5.91077995300293 1.472210049629211 8.861459732055664 0.25 12 0.25 C 15.13854026794434 0.25 18.08922004699707 1.472210049629211 20.30850982666016 3.691489934921265 C 22.52779006958008 5.91077995300293 23.75 8.861459732055664 23.75 12 C 23.75 15.13854026794434 22.52779006958008 18.08922004699707 20.30850982666016 20.30850982666016 C 18.08922004699707 22.52779006958008 15.13854026794434 23.75 12 23.75 Z" stroke="none"/>
          <path d="M 12 0.5 C 8.928239822387695 0.5 6.04033088684082 1.696210861206055 3.868270874023438 3.868270874023438 C 1.696210861206055 6.04033088684082 0.5 8.928239822387695 0.5 12 C 0.5 15.0717601776123 1.696210861206055 17.95967102050781 3.868270874023438 20.13172912597656 C 6.04033088684082 22.30378913879395 8.928239822387695 23.5 12 23.5 C 15.0717601776123 23.5 17.95967102050781 22.30378913879395 20.13172912597656 20.13172912597656 C 22.30378913879395 17.95967102050781 23.5 15.0717601776123 23.5 12 C 23.5 8.928239822387695 22.30378913879395 6.04033088684082 20.13172912597656 3.868270874023438 C 17.95967102050781 1.696210861206055 15.0717601776123 0.5 12 0.5 M 12 0 C 18.62742042541504 0 24 5.372579574584961 24 12 C 24 18.62742042541504 18.62742042541504 24 12 24 C 5.372579574584961 24 0 18.62742042541504 0 12 C 0 5.372579574584961 5.372579574584961 0 12 0 Z" stroke="none" fill="#e6e6ea"/>
        </g>
      </g>
    </g>
    <g id="Toggle-6" data-name="Toggle" transform="translate(101 198)">
      <rect id="Rectangle_6838-2" data-name="Rectangle 6838" width="48" height="14" rx="7" transform="translate(0 5)" fill="#2777d3"/>
      <g transform="matrix(1, 0, 0, 1, -101, -198)" filter="url(#Path_7456-2)">
        <g id="Path_7456-5" data-name="Path 7456" transform="translate(125 198)" fill="#fff">
          <path d="M 12 23.75 C 8.861459732055664 23.75 5.91077995300293 22.52779006958008 3.691489934921265 20.30850982666016 C 1.472210049629211 18.08922004699707 0.25 15.13854026794434 0.25 12 C 0.25 8.861459732055664 1.472210049629211 5.91077995300293 3.691489934921265 3.691489934921265 C 5.91077995300293 1.472210049629211 8.861459732055664 0.25 12 0.25 C 15.13854026794434 0.25 18.08922004699707 1.472210049629211 20.30850982666016 3.691489934921265 C 22.52779006958008 5.91077995300293 23.75 8.861459732055664 23.75 12 C 23.75 15.13854026794434 22.52779006958008 18.08922004699707 20.30850982666016 20.30850982666016 C 18.08922004699707 22.52779006958008 15.13854026794434 23.75 12 23.75 Z" stroke="none"/>
          <path d="M 12 0.5 C 8.928239822387695 0.5 6.04033088684082 1.696210861206055 3.868270874023438 3.868270874023438 C 1.696210861206055 6.04033088684082 0.5 8.928239822387695 0.5 12 C 0.5 15.0717601776123 1.696210861206055 17.95967102050781 3.868270874023438 20.13172912597656 C 6.04033088684082 22.30378913879395 8.928239822387695 23.5 12 23.5 C 15.0717601776123 23.5 17.95967102050781 22.30378913879395 20.13172912597656 20.13172912597656 C 22.30378913879395 17.95967102050781 23.5 15.0717601776123 23.5 12 C 23.5 8.928239822387695 22.30378913879395 6.04033088684082 20.13172912597656 3.868270874023438 C 17.95967102050781 1.696210861206055 15.0717601776123 0.5 12 0.5 M 12 0 C 18.62742042541504 0 24 5.372579574584961 24 12 C 24 18.62742042541504 18.62742042541504 24 12 24 C 5.372579574584961 24 0 18.62742042541504 0 12 C 0 5.372579574584961 5.372579574584961 0 12 0 Z" stroke="none" fill="#e6e6ea"/>
        </g>
      </g>
    </g>
    <g id="Toggle-7" data-name="Toggle" transform="translate(348 65)">
      <rect id="Rectangle_8087-4" data-name="Rectangle 8087" width="48" height="14" rx="7" transform="translate(6 11)" fill="#9494a4"/>
      <circle id="Ellipse_2013-2" data-name="Ellipse 2013" cx="18" cy="18" r="18" fill="#afafbb" opacity="0.25"/>
      <g transform="matrix(1, 0, 0, 1, -348, -65)" filter="url(#Path_10242-4)">
        <g id="Path_10242-8" data-name="Path 10242" transform="translate(354 71)" fill="#fff">
          <path d="M 12 23.75 C 8.861459732055664 23.75 5.91077995300293 22.52779006958008 3.691489934921265 20.30850982666016 C 1.472210049629211 18.08922004699707 0.25 15.13854026794434 0.25 12 C 0.25 8.861459732055664 1.472210049629211 5.91077995300293 3.691489934921265 3.691489934921265 C 5.91077995300293 1.472210049629211 8.861459732055664 0.25 12 0.25 C 15.13854026794434 0.25 18.08922004699707 1.472210049629211 20.30850982666016 3.691489934921265 C 22.52779006958008 5.91077995300293 23.75 8.861459732055664 23.75 12 C 23.75 15.13854026794434 22.52779006958008 18.08922004699707 20.30850982666016 20.30850982666016 C 18.08922004699707 22.52779006958008 15.13854026794434 23.75 12 23.75 Z" stroke="none"/>
          <path d="M 12 0.5 C 8.928239822387695 0.5 6.04033088684082 1.696210861206055 3.868270874023438 3.868270874023438 C 1.696210861206055 6.04033088684082 0.5 8.928239822387695 0.5 12 C 0.5 15.0717601776123 1.696210861206055 17.95967102050781 3.868270874023438 20.13172912597656 C 6.04033088684082 22.30378913879395 8.928239822387695 23.5 12 23.5 C 15.0717601776123 23.5 17.95967102050781 22.30378913879395 20.13172912597656 20.13172912597656 C 22.30378913879395 17.95967102050781 23.5 15.0717601776123 23.5 12 C 23.5 8.928239822387695 22.30378913879395 6.04033088684082 20.13172912597656 3.868270874023438 C 17.95967102050781 1.696210861206055 15.0717601776123 0.5 12 0.5 M 12 0 C 18.62742042541504 0 24 5.372579574584961 24 12 C 24 18.62742042541504 18.62742042541504 24 12 24 C 5.372579574584961 24 0 18.62742042541504 0 12 C 0 5.372579574584961 5.372579574584961 0 12 0 Z" stroke="none" fill="#e6e6ea"/>
        </g>
      </g>
    </g>
    <g id="Toggle-8" data-name="Toggle" transform="translate(348 192)">
      <rect id="Rectangle_6838-3" data-name="Rectangle 6838" width="48" height="14" rx="7" transform="translate(0 11)" fill="#2777d3"/>
      <circle id="Ellipse_2012-2" data-name="Ellipse 2012" cx="18" cy="18" r="18" transform="translate(18)" fill="#4e92df" opacity="0.25"/>
      <g transform="matrix(1, 0, 0, 1, -348, -192)" filter="url(#Path_7456-3)">
        <g id="Path_7456-6" data-name="Path 7456" transform="translate(372 198)" fill="#fff">
          <path d="M 12 23.75 C 8.861459732055664 23.75 5.91077995300293 22.52779006958008 3.691489934921265 20.30850982666016 C 1.472210049629211 18.08922004699707 0.25 15.13854026794434 0.25 12 C 0.25 8.861459732055664 1.472210049629211 5.91077995300293 3.691489934921265 3.691489934921265 C 5.91077995300293 1.472210049629211 8.861459732055664 0.25 12 0.25 C 15.13854026794434 0.25 18.08922004699707 1.472210049629211 20.30850982666016 3.691489934921265 C 22.52779006958008 5.91077995300293 23.75 8.861459732055664 23.75 12 C 23.75 15.13854026794434 22.52779006958008 18.08922004699707 20.30850982666016 20.30850982666016 C 18.08922004699707 22.52779006958008 15.13854026794434 23.75 12 23.75 Z" stroke="none"/>
          <path d="M 12 0.5 C 8.928239822387695 0.5 6.04033088684082 1.696210861206055 3.868270874023438 3.868270874023438 C 1.696210861206055 6.04033088684082 0.5 8.928239822387695 0.5 12 C 0.5 15.0717601776123 1.696210861206055 17.95967102050781 3.868270874023438 20.13172912597656 C 6.04033088684082 22.30378913879395 8.928239822387695 23.5 12 23.5 C 15.0717601776123 23.5 17.95967102050781 22.30378913879395 20.13172912597656 20.13172912597656 C 22.30378913879395 17.95967102050781 23.5 15.0717601776123 23.5 12 C 23.5 8.928239822387695 22.30378913879395 6.04033088684082 20.13172912597656 3.868270874023438 C 17.95967102050781 1.696210861206055 15.0717601776123 0.5 12 0.5 M 12 0 C 18.62742042541504 0 24 5.372579574584961 24 12 C 24 18.62742042541504 18.62742042541504 24 12 24 C 5.372579574584961 24 0 18.62742042541504 0 12 C 0 5.372579574584961 5.372579574584961 0 12 0 Z" stroke="none" fill="#e6e6ea"/>
        </g>
      </g>
    </g>
    <path id="Path_101512" data-name="Path 101512" d="M1.01,0V-7.7H3.137q4.071,0,4.071,3.754A3.783,3.783,0,0,1,6.077-1.082,4.194,4.194,0,0,1,3.051,0Zm.9-6.886V-.816H3.062a3.262,3.262,0,0,0,2.358-.811,3.04,3.04,0,0,0,.843-2.3q0-2.959-3.147-2.959ZM13.025-2.53H9.142a2.057,2.057,0,0,0,.494,1.418,1.7,1.7,0,0,0,1.3.5,2.7,2.7,0,0,0,1.708-.612V-.4a3.192,3.192,0,0,1-1.917.526A2.325,2.325,0,0,1,8.895-.62a3.067,3.067,0,0,1-.666-2.108,3.007,3.007,0,0,1,.728-2.092,2.334,2.334,0,0,1,1.807-.808,2.068,2.068,0,0,1,1.67.7,2.911,2.911,0,0,1,.591,1.939Zm-.9-.747a1.792,1.792,0,0,0-.368-1.187,1.254,1.254,0,0,0-1.007-.424,1.423,1.423,0,0,0-1.058.446,2.023,2.023,0,0,0-.537,1.166Zm4.952-4.093a1.173,1.173,0,0,0-.585-.145q-.924,0-.924,1.166V-5.5h1.289v.752H15.565V0H14.69V-4.748h-.94V-5.5h.94v-.892a1.853,1.853,0,0,1,.5-1.367,1.686,1.686,0,0,1,1.246-.5,1.726,1.726,0,0,1,.639.1ZM21.737,0h-.881V-.859h-.021a1.844,1.844,0,0,1-1.692.988,1.808,1.808,0,0,1-1.286-.435,1.507,1.507,0,0,1-.465-1.155q0-1.542,1.815-1.794l1.649-.231q0-1.4-1.133-1.4a2.708,2.708,0,0,0-1.794.677v-.9A3.408,3.408,0,0,1,19.8-5.629q1.939,0,1.939,2.052Zm-.881-2.782L19.529-2.6a2.154,2.154,0,0,0-.924.3.875.875,0,0,0-.312.771.839.839,0,0,0,.287.658,1.11,1.11,0,0,0,.765.255,1.414,1.414,0,0,0,1.082-.459,1.641,1.641,0,0,0,.427-1.163ZM27.844,0h-.881V-.87h-.021a1.809,1.809,0,0,1-1.7,1q-1.966,0-1.966-2.342V-5.5h.875v3.147q0,1.74,1.332,1.74a1.348,1.348,0,0,0,1.061-.475,1.819,1.819,0,0,0,.416-1.243V-5.5h.881ZM30.5,0h-.881V-8.143H30.5Zm4.334-.054a1.7,1.7,0,0,1-.822.172q-1.445,0-1.445-1.611V-4.748h-.945V-5.5h.945V-6.843l.881-.285V-5.5h1.386v.752H33.451v3.1a1.285,1.285,0,0,0,.188.79.75.75,0,0,0,.623.236.926.926,0,0,0,.575-.183Zm6.349,1.8H39.209V-7.7h1.977v.639H39.993V1.112h1.192ZM44.645.129A2.551,2.551,0,0,1,42.7-.642a2.855,2.855,0,0,1-.728-2.044,2.974,2.974,0,0,1,.757-2.165,2.723,2.723,0,0,1,2.046-.779,2.467,2.467,0,0,1,1.92.757,3,3,0,0,1,.69,2.1A2.955,2.955,0,0,1,46.64-.663,2.607,2.607,0,0,1,44.645.129Zm.064-5.017a1.675,1.675,0,0,0-1.343.577,2.371,2.371,0,0,0-.494,1.593,2.243,2.243,0,0,0,.5,1.542,1.7,1.7,0,0,0,1.337.564,1.61,1.61,0,0,0,1.313-.553,2.4,2.4,0,0,0,.459-1.574,2.442,2.442,0,0,0-.459-1.59A1.6,1.6,0,0,0,44.709-4.888Zm6.8-2.481a1.173,1.173,0,0,0-.585-.145Q50-7.514,50-6.349V-5.5h1.289v.752H50V0h-.875V-4.748h-.94V-5.5h.94v-.892a1.853,1.853,0,0,1,.5-1.367,1.686,1.686,0,0,1,1.246-.5,1.726,1.726,0,0,1,.639.1Zm3.443,0a1.173,1.173,0,0,0-.585-.145q-.924,0-.924,1.166V-5.5h1.289v.752H53.442V0h-.875V-4.748h-.94V-5.5h.94v-.892a1.853,1.853,0,0,1,.5-1.367,1.686,1.686,0,0,1,1.246-.5,1.726,1.726,0,0,1,.639.1Zm2.089,9.12H55.07V1.112h1.187V-7.063H55.07V-7.7h1.971Z" transform="translate(96 42)" fill="#17987c"/>
    <path id="Path_101516" data-name="Path 101516" d="M-27.712,0V-7.7h2.127q4.071,0,4.071,3.754a3.783,3.783,0,0,1-1.131,2.865A4.194,4.194,0,0,1-25.671,0Zm.9-6.886V-.816h1.149A3.262,3.262,0,0,0-23.3-1.627a3.04,3.04,0,0,0,.843-2.3q0-2.959-3.147-2.959ZM-15.7-2.53H-19.58a2.057,2.057,0,0,0,.494,1.418,1.7,1.7,0,0,0,1.3.5,2.7,2.7,0,0,0,1.708-.612V-.4A3.192,3.192,0,0,1-18,.129,2.325,2.325,0,0,1-19.827-.62a3.067,3.067,0,0,1-.666-2.108,3.007,3.007,0,0,1,.728-2.092,2.334,2.334,0,0,1,1.807-.808,2.068,2.068,0,0,1,1.67.7A2.911,2.911,0,0,1-15.7-2.992Zm-.9-.747a1.792,1.792,0,0,0-.368-1.187,1.254,1.254,0,0,0-1.007-.424,1.423,1.423,0,0,0-1.058.446,2.023,2.023,0,0,0-.537,1.166Zm4.952-4.093a1.173,1.173,0,0,0-.585-.145q-.924,0-.924,1.166V-5.5h1.289v.752h-1.289V0h-.875V-4.748h-.94V-5.5h.94v-.892a1.853,1.853,0,0,1,.5-1.367,1.686,1.686,0,0,1,1.246-.5,1.726,1.726,0,0,1,.639.1ZM-6.985,0h-.881V-.859h-.021A1.844,1.844,0,0,1-9.579.129a1.808,1.808,0,0,1-1.286-.435,1.507,1.507,0,0,1-.465-1.155q0-1.542,1.815-1.794l1.649-.231q0-1.4-1.133-1.4a2.708,2.708,0,0,0-1.794.677v-.9a3.408,3.408,0,0,1,1.869-.516q1.939,0,1.939,2.052Zm-.881-2.782L-9.193-2.6a2.154,2.154,0,0,0-.924.3.875.875,0,0,0-.312.771.839.839,0,0,0,.287.658,1.11,1.11,0,0,0,.765.255,1.414,1.414,0,0,0,1.082-.459,1.641,1.641,0,0,0,.427-1.163ZM-.878,0h-.881V-.87h-.021a1.809,1.809,0,0,1-1.7,1q-1.966,0-1.966-2.342V-5.5h.875v3.147q0,1.74,1.332,1.74a1.348,1.348,0,0,0,1.061-.475,1.819,1.819,0,0,0,.416-1.243V-5.5h.881ZM1.781,0H.9V-8.143h.881ZM6.115-.054a1.7,1.7,0,0,1-.822.172q-1.445,0-1.445-1.611V-4.748H2.9V-5.5h.945V-6.843l.881-.285V-5.5H6.115v.752H4.729v3.1a1.285,1.285,0,0,0,.188.79.75.75,0,0,0,.623.236.926.926,0,0,0,.575-.183Zm6.349,1.8H10.487V-7.7h1.977v.639H11.271V1.112h1.192ZM15.923.129a2.551,2.551,0,0,1-1.947-.771,2.855,2.855,0,0,1-.728-2.044,2.974,2.974,0,0,1,.757-2.165,2.723,2.723,0,0,1,2.046-.779,2.467,2.467,0,0,1,1.92.757,3,3,0,0,1,.69,2.1,2.955,2.955,0,0,1-.744,2.108A2.607,2.607,0,0,1,15.923.129Zm.064-5.017a1.675,1.675,0,0,0-1.343.577,2.371,2.371,0,0,0-.494,1.593,2.243,2.243,0,0,0,.5,1.542,1.7,1.7,0,0,0,1.337.564A1.61,1.61,0,0,0,17.3-1.166a2.4,2.4,0,0,0,.459-1.574,2.442,2.442,0,0,0-.459-1.59A1.6,1.6,0,0,0,15.987-4.888ZM24.635,0h-.881V-3.137q0-1.751-1.278-1.751a1.387,1.387,0,0,0-1.093.5,1.842,1.842,0,0,0-.432,1.254V0h-.881V-5.5h.881v.913h.021a1.985,1.985,0,0,1,1.8-1.042,1.683,1.683,0,0,1,1.38.583,2.6,2.6,0,0,1,.478,1.684Zm3.024,1.751H25.687V1.112h1.187V-7.063H25.687V-7.7h1.971Z" transform="translate(125 169)" fill="#17987c"/>
    <path id="Path_101513" data-name="Path 101513" d="M6.8,0H5.9V-3.513H1.912V0h-.9V-7.7h.9v3.378H5.9V-7.7h.9ZM11,.129A2.551,2.551,0,0,1,9.053-.642a2.855,2.855,0,0,1-.728-2.044A2.974,2.974,0,0,1,9.083-4.85a2.723,2.723,0,0,1,2.046-.779,2.467,2.467,0,0,1,1.92.757,3,3,0,0,1,.69,2.1A2.955,2.955,0,0,1,13-.663,2.607,2.607,0,0,1,11,.129Zm.064-5.017a1.675,1.675,0,0,0-1.343.577,2.371,2.371,0,0,0-.494,1.593,2.243,2.243,0,0,0,.5,1.542,1.7,1.7,0,0,0,1.337.564,1.61,1.61,0,0,0,1.313-.553,2.4,2.4,0,0,0,.459-1.574,2.442,2.442,0,0,0-.459-1.59A1.6,1.6,0,0,0,11.064-4.888ZM19.47-5.5,17.279,0h-.865L14.33-5.5H15.3l1.4,4a3.587,3.587,0,0,1,.193.768h.021a3.632,3.632,0,0,1,.172-.747L18.541-5.5Zm5.366,2.97H20.953a2.057,2.057,0,0,0,.494,1.418,1.7,1.7,0,0,0,1.3.5,2.7,2.7,0,0,0,1.708-.612V-.4a3.192,3.192,0,0,1-1.917.526A2.325,2.325,0,0,1,20.706-.62a3.067,3.067,0,0,1-.666-2.108,3.007,3.007,0,0,1,.728-2.092,2.334,2.334,0,0,1,1.807-.808,2.068,2.068,0,0,1,1.67.7,2.911,2.911,0,0,1,.591,1.939Zm-.9-.747a1.792,1.792,0,0,0-.368-1.187,1.254,1.254,0,0,0-1.007-.424,1.423,1.423,0,0,0-1.058.446,2.023,2.023,0,0,0-.537,1.166Zm5.1-1.332a1.077,1.077,0,0,0-.666-.177,1.124,1.124,0,0,0-.943.532,2.458,2.458,0,0,0-.379,1.45V0h-.881V-5.5h.881v1.133h.021a1.921,1.921,0,0,1,.575-.905A1.311,1.311,0,0,1,28.51-5.6a1.438,1.438,0,0,1,.526.075Zm6.128,6.359H33.188V-7.7h1.977v.639H33.972V1.112h1.192ZM38.624.129a2.551,2.551,0,0,1-1.947-.771,2.855,2.855,0,0,1-.728-2.044,2.974,2.974,0,0,1,.757-2.165,2.723,2.723,0,0,1,2.046-.779,2.467,2.467,0,0,1,1.92.757,3,3,0,0,1,.69,2.1,2.955,2.955,0,0,1-.744,2.108A2.607,2.607,0,0,1,38.624.129Zm.064-5.017a1.675,1.675,0,0,0-1.343.577,2.371,2.371,0,0,0-.494,1.593,2.243,2.243,0,0,0,.5,1.542,1.7,1.7,0,0,0,1.337.564A1.61,1.61,0,0,0,40-1.166a2.4,2.4,0,0,0,.459-1.574A2.442,2.442,0,0,0,40-4.329,1.6,1.6,0,0,0,38.688-4.888Zm6.8-2.481a1.173,1.173,0,0,0-.585-.145q-.924,0-.924,1.166V-5.5h1.289v.752H43.979V0H43.1V-4.748h-.94V-5.5h.94v-.892a1.853,1.853,0,0,1,.5-1.367,1.686,1.686,0,0,1,1.246-.5,1.726,1.726,0,0,1,.639.1Zm3.443,0a1.173,1.173,0,0,0-.585-.145q-.924,0-.924,1.166V-5.5H48.71v.752H47.421V0h-.875V-4.748h-.94V-5.5h.94v-.892a1.853,1.853,0,0,1,.5-1.367,1.686,1.686,0,0,1,1.246-.5,1.726,1.726,0,0,1,.639.1Zm2.089,9.12H49.049V1.112h1.187V-7.063H49.049V-7.7H51.02Z" transform="translate(349 42)" fill="#17987c"/>
    <path id="Path_101517" data-name="Path 101517" d="M-18.912,0h-.9V-3.513H-23.8V0h-.9V-7.7h.9v3.378h3.985V-7.7h.9Zm4.2.129a2.551,2.551,0,0,1-1.947-.771,2.855,2.855,0,0,1-.728-2.044,2.974,2.974,0,0,1,.757-2.165,2.723,2.723,0,0,1,2.046-.779,2.467,2.467,0,0,1,1.92.757,3,3,0,0,1,.69,2.1,2.955,2.955,0,0,1-.744,2.108A2.607,2.607,0,0,1-14.711.129Zm.064-5.017a1.675,1.675,0,0,0-1.343.577,2.371,2.371,0,0,0-.494,1.593,2.243,2.243,0,0,0,.5,1.542,1.7,1.7,0,0,0,1.337.564,1.61,1.61,0,0,0,1.313-.553,2.4,2.4,0,0,0,.459-1.574,2.442,2.442,0,0,0-.459-1.59A1.6,1.6,0,0,0-14.647-4.888ZM-6.241-5.5-8.433,0H-9.3l-2.084-5.5h.967l1.4,4a3.587,3.587,0,0,1,.193.768H-8.8a3.632,3.632,0,0,1,.172-.747L-7.17-5.5ZM-.875-2.53H-4.759a2.057,2.057,0,0,0,.494,1.418,1.7,1.7,0,0,0,1.3.5,2.7,2.7,0,0,0,1.708-.612V-.4A3.192,3.192,0,0,1-3.174.129,2.325,2.325,0,0,1-5.006-.62a3.067,3.067,0,0,1-.666-2.108,3.007,3.007,0,0,1,.728-2.092,2.334,2.334,0,0,1,1.807-.808,2.068,2.068,0,0,1,1.67.7A2.911,2.911,0,0,1-.875-2.992Zm-.9-.747a1.792,1.792,0,0,0-.368-1.187,1.254,1.254,0,0,0-1.007-.424,1.423,1.423,0,0,0-1.058.446,2.023,2.023,0,0,0-.537,1.166Zm5.1-1.332a1.077,1.077,0,0,0-.666-.177,1.124,1.124,0,0,0-.943.532A2.458,2.458,0,0,0,1.337-2.8V0H.457V-5.5h.881v1.133h.021a1.921,1.921,0,0,1,.575-.905A1.311,1.311,0,0,1,2.8-5.6a1.438,1.438,0,0,1,.526.075ZM9.453,1.751H7.477V-7.7H9.453v.639H8.261V1.112H9.453ZM12.912.129a2.551,2.551,0,0,1-1.947-.771,2.855,2.855,0,0,1-.728-2.044,2.974,2.974,0,0,1,.757-2.165,2.723,2.723,0,0,1,2.046-.779,2.467,2.467,0,0,1,1.92.757,3,3,0,0,1,.69,2.1,2.955,2.955,0,0,1-.744,2.108A2.607,2.607,0,0,1,12.912.129Zm.064-5.017a1.675,1.675,0,0,0-1.343.577,2.371,2.371,0,0,0-.494,1.593,2.243,2.243,0,0,0,.5,1.542,1.7,1.7,0,0,0,1.337.564,1.61,1.61,0,0,0,1.313-.553,2.4,2.4,0,0,0,.459-1.574,2.442,2.442,0,0,0-.459-1.59A1.6,1.6,0,0,0,12.977-4.888ZM21.624,0h-.881V-3.137q0-1.751-1.278-1.751a1.387,1.387,0,0,0-1.093.5,1.842,1.842,0,0,0-.432,1.254V0h-.881V-5.5h.881v.913h.021a1.985,1.985,0,0,1,1.8-1.042,1.683,1.683,0,0,1,1.38.583,2.6,2.6,0,0,1,.478,1.684Zm3.024,1.751H22.677V1.112h1.187V-7.063H22.677V-7.7h1.971Z" transform="translate(375 169)" fill="#17987c"/>
    <path id="Path_101514" data-name="Path 101514" d="M4.92-6.886H1.912v2.664H4.694v.811H1.912V0h-.9V-7.7H4.92ZM8.562.129A2.551,2.551,0,0,1,6.615-.642a2.855,2.855,0,0,1-.728-2.044A2.974,2.974,0,0,1,6.644-4.85,2.723,2.723,0,0,1,8.69-5.629a2.467,2.467,0,0,1,1.92.757,3,3,0,0,1,.69,2.1,2.955,2.955,0,0,1-.744,2.108A2.607,2.607,0,0,1,8.562.129Zm.064-5.017a1.675,1.675,0,0,0-1.343.577,2.371,2.371,0,0,0-.494,1.593,2.243,2.243,0,0,0,.5,1.542,1.7,1.7,0,0,0,1.337.564,1.61,1.61,0,0,0,1.313-.553A2.4,2.4,0,0,0,10.4-2.739a2.442,2.442,0,0,0-.459-1.59A1.6,1.6,0,0,0,8.626-4.888ZM16.457-.252a2.862,2.862,0,0,1-1.5.381,2.49,2.49,0,0,1-1.9-.765,2.774,2.774,0,0,1-.722-1.985A3.049,3.049,0,0,1,13.111-4.8a2.724,2.724,0,0,1,2.079-.824,2.893,2.893,0,0,1,1.278.269v.9a2.24,2.24,0,0,0-1.311-.43,1.771,1.771,0,0,0-1.383.6,2.293,2.293,0,0,0-.54,1.587,2.183,2.183,0,0,0,.508,1.525A1.749,1.749,0,0,0,15.1-.612a2.208,2.208,0,0,0,1.354-.478ZM22.236,0h-.881V-.87h-.021a1.809,1.809,0,0,1-1.7,1q-1.966,0-1.966-2.342V-5.5h.875v3.147q0,1.74,1.332,1.74a1.348,1.348,0,0,0,1.061-.475,1.819,1.819,0,0,0,.416-1.243V-5.5h.881Zm1.445-.2v-.945a2.607,2.607,0,0,0,1.584.532q1.16,0,1.16-.773a.671.671,0,0,0-.1-.373.99.99,0,0,0-.269-.271,2.067,2.067,0,0,0-.4-.212q-.228-.094-.491-.2a6.33,6.33,0,0,1-.642-.293,1.939,1.939,0,0,1-.462-.333,1.239,1.239,0,0,1-.279-.422,1.492,1.492,0,0,1-.094-.553,1.314,1.314,0,0,1,.177-.685,1.572,1.572,0,0,1,.473-.5,2.2,2.2,0,0,1,.674-.3,2.99,2.99,0,0,1,.781-.1,3.156,3.156,0,0,1,1.278.247v.892a2.491,2.491,0,0,0-1.4-.4,1.632,1.632,0,0,0-.446.056,1.091,1.091,0,0,0-.341.158.732.732,0,0,0-.22.244.644.644,0,0,0-.078.314.754.754,0,0,0,.078.36A.792.792,0,0,0,24.9-3.5a1.745,1.745,0,0,0,.365.2q.215.091.489.2a6.8,6.8,0,0,1,.655.287,2.247,2.247,0,0,1,.494.333,1.3,1.3,0,0,1,.314.427,1.377,1.377,0,0,1,.11.575,1.355,1.355,0,0,1-.18.709,1.542,1.542,0,0,1-.481.5,2.2,2.2,0,0,1-.693.3,3.421,3.421,0,0,1-.822.1A3.12,3.12,0,0,1,23.681-.2Zm10.173,1.95H31.877V-7.7h1.977v.639H32.662V1.112h1.192ZM37.313.129a2.551,2.551,0,0,1-1.947-.771,2.855,2.855,0,0,1-.728-2.044A2.974,2.974,0,0,1,35.4-4.85a2.723,2.723,0,0,1,2.046-.779,2.467,2.467,0,0,1,1.92.757,3,3,0,0,1,.69,2.1,2.955,2.955,0,0,1-.744,2.108A2.607,2.607,0,0,1,37.313.129Zm.064-5.017a1.675,1.675,0,0,0-1.343.577,2.371,2.371,0,0,0-.494,1.593,2.243,2.243,0,0,0,.5,1.542,1.7,1.7,0,0,0,1.337.564,1.61,1.61,0,0,0,1.313-.553,2.4,2.4,0,0,0,.459-1.574,2.442,2.442,0,0,0-.459-1.59A1.6,1.6,0,0,0,37.377-4.888Zm6.8-2.481a1.173,1.173,0,0,0-.585-.145q-.924,0-.924,1.166V-5.5h1.289v.752H42.668V0h-.875V-4.748h-.94V-5.5h.94v-.892a1.853,1.853,0,0,1,.5-1.367,1.686,1.686,0,0,1,1.246-.5,1.726,1.726,0,0,1,.639.1Zm3.443,0a1.173,1.173,0,0,0-.585-.145q-.924,0-.924,1.166V-5.5H47.4v.752H46.111V0h-.875V-4.748H44.3V-5.5h.94v-.892a1.853,1.853,0,0,1,.5-1.367,1.686,1.686,0,0,1,1.246-.5,1.726,1.726,0,0,1,.639.1Zm2.089,9.12H47.738V1.112h1.187V-7.063H47.738V-7.7h1.971Z" transform="translate(606 42)" fill="#17987c"/>
    <path id="Path_101518" data-name="Path 101518" d="M-20.136-6.886h-3.008v2.664h2.782v.811h-2.782V0h-.9V-7.7h3.91ZM-16.495.129a2.551,2.551,0,0,1-1.947-.771,2.855,2.855,0,0,1-.728-2.044,2.974,2.974,0,0,1,.757-2.165,2.723,2.723,0,0,1,2.046-.779,2.467,2.467,0,0,1,1.92.757,3,3,0,0,1,.69,2.1A2.955,2.955,0,0,1-14.5-.663,2.607,2.607,0,0,1-16.495.129Zm.064-5.017a1.675,1.675,0,0,0-1.343.577,2.371,2.371,0,0,0-.494,1.593,2.243,2.243,0,0,0,.5,1.542,1.7,1.7,0,0,0,1.337.564,1.61,1.61,0,0,0,1.313-.553,2.4,2.4,0,0,0,.459-1.574,2.442,2.442,0,0,0-.459-1.59A1.6,1.6,0,0,0-16.43-4.888ZM-8.6-.252a2.862,2.862,0,0,1-1.5.381A2.49,2.49,0,0,1-12-.636a2.774,2.774,0,0,1-.722-1.985A3.049,3.049,0,0,1-11.945-4.8a2.724,2.724,0,0,1,2.079-.824,2.893,2.893,0,0,1,1.278.269v.9A2.24,2.24,0,0,0-9.9-4.888a1.771,1.771,0,0,0-1.383.6,2.293,2.293,0,0,0-.54,1.587,2.183,2.183,0,0,0,.508,1.525,1.749,1.749,0,0,0,1.362.559A2.208,2.208,0,0,0-8.6-1.09ZM-2.82,0H-3.7V-.87h-.021a1.809,1.809,0,0,1-1.7,1q-1.966,0-1.966-2.342V-5.5h.875v3.147q0,1.74,1.332,1.74a1.348,1.348,0,0,0,1.061-.475A1.819,1.819,0,0,0-3.7-2.331V-5.5h.881Zm1.445-.2v-.945A2.607,2.607,0,0,0,.209-.612q1.16,0,1.16-.773a.671.671,0,0,0-.1-.373A.99.99,0,0,0,1-2.03a2.067,2.067,0,0,0-.4-.212q-.228-.094-.491-.2a6.33,6.33,0,0,1-.642-.293,1.939,1.939,0,0,1-.462-.333,1.239,1.239,0,0,1-.279-.422,1.492,1.492,0,0,1-.094-.553,1.314,1.314,0,0,1,.177-.685,1.572,1.572,0,0,1,.473-.5,2.2,2.2,0,0,1,.674-.3,2.99,2.99,0,0,1,.781-.1,3.156,3.156,0,0,1,1.278.247v.892a2.491,2.491,0,0,0-1.4-.4,1.632,1.632,0,0,0-.446.056,1.091,1.091,0,0,0-.341.158.732.732,0,0,0-.22.244.644.644,0,0,0-.078.314.754.754,0,0,0,.078.36A.792.792,0,0,0-.156-3.5a1.745,1.745,0,0,0,.365.2q.215.091.489.2a6.8,6.8,0,0,1,.655.287,2.247,2.247,0,0,1,.494.333,1.3,1.3,0,0,1,.314.427,1.377,1.377,0,0,1,.11.575,1.355,1.355,0,0,1-.18.709,1.542,1.542,0,0,1-.481.5,2.2,2.2,0,0,1-.693.3A3.421,3.421,0,0,1,.1.129,3.12,3.12,0,0,1-1.375-.2ZM8.8,1.751H6.821V-7.7H8.8v.639H7.605V1.112H8.8ZM12.257.129A2.551,2.551,0,0,1,10.31-.642a2.855,2.855,0,0,1-.728-2.044,2.974,2.974,0,0,1,.757-2.165,2.723,2.723,0,0,1,2.046-.779,2.467,2.467,0,0,1,1.92.757,3,3,0,0,1,.69,2.1,2.955,2.955,0,0,1-.744,2.108A2.607,2.607,0,0,1,12.257.129Zm.064-5.017a1.675,1.675,0,0,0-1.343.577,2.371,2.371,0,0,0-.494,1.593,2.243,2.243,0,0,0,.5,1.542,1.7,1.7,0,0,0,1.337.564,1.61,1.61,0,0,0,1.313-.553,2.4,2.4,0,0,0,.459-1.574,2.442,2.442,0,0,0-.459-1.59A1.6,1.6,0,0,0,12.321-4.888ZM20.969,0h-.881V-3.137q0-1.751-1.278-1.751a1.387,1.387,0,0,0-1.093.5,1.842,1.842,0,0,0-.432,1.254V0H16.4V-5.5h.881v.913h.021a1.985,1.985,0,0,1,1.8-1.042,1.683,1.683,0,0,1,1.38.583,2.6,2.6,0,0,1,.478,1.684Zm3.024,1.751H22.021V1.112h1.187V-7.063H22.021V-7.7h1.971Z" transform="translate(625 169)" fill="#17987c"/>
    <path id="Path_101515" data-name="Path 101515" d="M1.01,0V-7.7H3.137q4.071,0,4.071,3.754A3.783,3.783,0,0,1,6.077-1.082,4.194,4.194,0,0,1,3.051,0Zm.9-6.886V-.816H3.062a3.262,3.262,0,0,0,2.358-.811,3.04,3.04,0,0,0,.843-2.3q0-2.959-3.147-2.959ZM9.056-6.9a.558.558,0,0,1-.4-.161.544.544,0,0,1-.167-.408.553.553,0,0,1,.167-.411.553.553,0,0,1,.4-.164.569.569,0,0,1,.411.164.548.548,0,0,1,.169.411.544.544,0,0,1-.169.4A.564.564,0,0,1,9.056-6.9ZM9.485,0H8.6V-5.5h.881Zm1.45-.2v-.945a2.607,2.607,0,0,0,1.584.532q1.16,0,1.16-.773a.671.671,0,0,0-.1-.373.99.99,0,0,0-.269-.271,2.067,2.067,0,0,0-.4-.212q-.228-.094-.491-.2a6.33,6.33,0,0,1-.642-.293,1.939,1.939,0,0,1-.462-.333,1.239,1.239,0,0,1-.279-.422,1.492,1.492,0,0,1-.094-.553,1.314,1.314,0,0,1,.177-.685,1.572,1.572,0,0,1,.473-.5,2.2,2.2,0,0,1,.674-.3,2.99,2.99,0,0,1,.781-.1,3.156,3.156,0,0,1,1.278.247v.892a2.491,2.491,0,0,0-1.4-.4,1.632,1.632,0,0,0-.446.056,1.091,1.091,0,0,0-.341.158.732.732,0,0,0-.22.244.644.644,0,0,0-.078.314.754.754,0,0,0,.078.36.792.792,0,0,0,.228.258,1.745,1.745,0,0,0,.365.2q.215.091.489.2a6.8,6.8,0,0,1,.655.287,2.247,2.247,0,0,1,.494.333,1.3,1.3,0,0,1,.314.427,1.377,1.377,0,0,1,.11.575,1.355,1.355,0,0,1-.18.709,1.542,1.542,0,0,1-.481.5,2.2,2.2,0,0,1-.693.3,3.421,3.421,0,0,1-.822.1A3.12,3.12,0,0,1,10.936-.2Zm8.938.2h-.881V-.859h-.021a1.844,1.844,0,0,1-1.692.988,1.808,1.808,0,0,1-1.286-.435,1.507,1.507,0,0,1-.465-1.155q0-1.542,1.815-1.794l1.649-.231q0-1.4-1.133-1.4a2.708,2.708,0,0,0-1.794.677v-.9a3.408,3.408,0,0,1,1.869-.516q1.939,0,1.939,2.052Zm-.881-2.782L17.666-2.6a2.154,2.154,0,0,0-.924.3.875.875,0,0,0-.312.771.839.839,0,0,0,.287.658,1.11,1.11,0,0,0,.765.255,1.414,1.414,0,0,0,1.082-.459,1.641,1.641,0,0,0,.427-1.163ZM22.435-.795h-.021V0h-.881V-8.143h.881v3.609h.021a2.083,2.083,0,0,1,1.9-1.1,2.016,2.016,0,0,1,1.657.739,3.049,3.049,0,0,1,.6,1.979A3.409,3.409,0,0,1,25.921-.7a2.235,2.235,0,0,1-1.837.83A1.809,1.809,0,0,1,22.435-.795Zm-.021-2.218v.768a1.635,1.635,0,0,0,.443,1.157,1.471,1.471,0,0,0,1.125.475,1.474,1.474,0,0,0,1.254-.612,2.809,2.809,0,0,0,.454-1.7,2.217,2.217,0,0,0-.424-1.439,1.4,1.4,0,0,0-1.149-.521,1.561,1.561,0,0,0-1.235.534A1.962,1.962,0,0,0,22.414-3.013ZM28.88,0H28V-8.143h.881Zm6.2-2.53H31.2a2.057,2.057,0,0,0,.494,1.418,1.7,1.7,0,0,0,1.3.5A2.7,2.7,0,0,0,34.7-1.225V-.4a3.192,3.192,0,0,1-1.917.526A2.325,2.325,0,0,1,30.954-.62a3.067,3.067,0,0,1-.666-2.108,3.007,3.007,0,0,1,.728-2.092,2.334,2.334,0,0,1,1.807-.808,2.068,2.068,0,0,1,1.67.7,2.911,2.911,0,0,1,.591,1.939Zm-.9-.747a1.792,1.792,0,0,0-.368-1.187,1.254,1.254,0,0,0-1.007-.424,1.423,1.423,0,0,0-1.058.446,2.023,2.023,0,0,0-.537,1.166ZM41.11,0h-.881V-.935h-.021A2.033,2.033,0,0,1,38.317.129,2.054,2.054,0,0,1,36.66-.61a3.03,3.03,0,0,1-.62-2.011,3.3,3.3,0,0,1,.688-2.186,2.268,2.268,0,0,1,1.832-.822,1.763,1.763,0,0,1,1.649.892h.021V-8.143h.881Zm-.881-2.487V-3.3a1.573,1.573,0,0,0-.44-1.128,1.477,1.477,0,0,0-1.117-.462A1.521,1.521,0,0,0,37.4-4.3a2.589,2.589,0,0,0-.462,1.633,2.329,2.329,0,0,0,.443,1.5,1.448,1.448,0,0,0,1.19.551,1.5,1.5,0,0,0,1.2-.532A1.981,1.981,0,0,0,40.229-2.487Zm7.836,4.238H46.089V-7.7h1.977v.639H46.874V1.112h1.192ZM51.525.129a2.551,2.551,0,0,1-1.947-.771,2.855,2.855,0,0,1-.728-2.044,2.974,2.974,0,0,1,.757-2.165,2.723,2.723,0,0,1,2.046-.779,2.467,2.467,0,0,1,1.92.757,3,3,0,0,1,.69,2.1A2.955,2.955,0,0,1,53.52-.663,2.607,2.607,0,0,1,51.525.129Zm.064-5.017a1.675,1.675,0,0,0-1.343.577,2.371,2.371,0,0,0-.494,1.593,2.243,2.243,0,0,0,.5,1.542,1.7,1.7,0,0,0,1.337.564A1.61,1.61,0,0,0,52.9-1.166a2.4,2.4,0,0,0,.459-1.574,2.442,2.442,0,0,0-.459-1.59A1.6,1.6,0,0,0,51.589-4.888Zm6.8-2.481a1.173,1.173,0,0,0-.585-.145q-.924,0-.924,1.166V-5.5h1.289v.752H56.88V0H56V-4.748h-.94V-5.5H56v-.892a1.853,1.853,0,0,1,.5-1.367,1.686,1.686,0,0,1,1.246-.5,1.726,1.726,0,0,1,.639.1Zm3.443,0a1.173,1.173,0,0,0-.585-.145q-.924,0-.924,1.166V-5.5h1.289v.752H60.323V0h-.875V-4.748h-.94V-5.5h.94v-.892a1.853,1.853,0,0,1,.5-1.367,1.686,1.686,0,0,1,1.246-.5,1.726,1.726,0,0,1,.639.1Zm2.089,9.12H61.95V1.112h1.187V-7.063H61.95V-7.7h1.971Z" transform="translate(843 40)" fill="#17987c"/>
    <path id="Path_101519" data-name="Path 101519" d="M-31.152,0V-7.7h2.127q4.071,0,4.071,3.754a3.783,3.783,0,0,1-1.131,2.865A4.194,4.194,0,0,1-29.111,0Zm.9-6.886V-.816H-29.1a3.262,3.262,0,0,0,2.358-.811,3.04,3.04,0,0,0,.843-2.3q0-2.959-3.147-2.959Zm7.144-.011a.558.558,0,0,1-.4-.161.544.544,0,0,1-.167-.408.553.553,0,0,1,.167-.411.553.553,0,0,1,.4-.164.569.569,0,0,1,.411.164.548.548,0,0,1,.169.411.544.544,0,0,1-.169.4A.564.564,0,0,1-23.106-6.9Zm.43,6.9h-.881V-5.5h.881Zm1.45-.2v-.945a2.607,2.607,0,0,0,1.584.532q1.16,0,1.16-.773a.671.671,0,0,0-.1-.373.99.99,0,0,0-.269-.271,2.067,2.067,0,0,0-.4-.212q-.228-.094-.491-.2a6.33,6.33,0,0,1-.642-.293,1.939,1.939,0,0,1-.462-.333,1.239,1.239,0,0,1-.279-.422,1.492,1.492,0,0,1-.094-.553,1.314,1.314,0,0,1,.177-.685,1.572,1.572,0,0,1,.473-.5,2.2,2.2,0,0,1,.674-.3,2.99,2.99,0,0,1,.781-.1,3.156,3.156,0,0,1,1.278.247v.892a2.491,2.491,0,0,0-1.4-.4,1.632,1.632,0,0,0-.446.056,1.091,1.091,0,0,0-.341.158.732.732,0,0,0-.22.244.644.644,0,0,0-.078.314.754.754,0,0,0,.078.36.792.792,0,0,0,.228.258,1.745,1.745,0,0,0,.365.2q.215.091.489.2a6.8,6.8,0,0,1,.655.287A2.247,2.247,0,0,1-18-2.473a1.3,1.3,0,0,1,.314.427,1.377,1.377,0,0,1,.11.575,1.355,1.355,0,0,1-.18.709,1.542,1.542,0,0,1-.481.5,2.2,2.2,0,0,1-.693.3,3.421,3.421,0,0,1-.822.1A3.12,3.12,0,0,1-21.227-.2Zm8.938.2h-.881V-.859h-.021a1.844,1.844,0,0,1-1.692.988A1.808,1.808,0,0,1-16.17-.306a1.507,1.507,0,0,1-.465-1.155q0-1.542,1.815-1.794l1.649-.231q0-1.4-1.133-1.4a2.708,2.708,0,0,0-1.794.677v-.9a3.408,3.408,0,0,1,1.869-.516q1.939,0,1.939,2.052Zm-.881-2.782L-14.5-2.6a2.154,2.154,0,0,0-.924.3.875.875,0,0,0-.312.771.839.839,0,0,0,.287.658,1.11,1.11,0,0,0,.765.255A1.414,1.414,0,0,0-13.6-1.072a1.641,1.641,0,0,0,.427-1.163ZM-9.727-.795h-.021V0h-.881V-8.143h.881v3.609h.021a2.083,2.083,0,0,1,1.9-1.1,2.016,2.016,0,0,1,1.657.739,3.049,3.049,0,0,1,.6,1.979A3.409,3.409,0,0,1-6.241-.7a2.235,2.235,0,0,1-1.837.83A1.809,1.809,0,0,1-9.727-.795Zm-.021-2.218v.768a1.635,1.635,0,0,0,.443,1.157A1.471,1.471,0,0,0-8.18-.612a1.474,1.474,0,0,0,1.254-.612,2.809,2.809,0,0,0,.454-1.7A2.217,2.217,0,0,0-6.9-4.367a1.4,1.4,0,0,0-1.149-.521,1.561,1.561,0,0,0-1.235.534A1.962,1.962,0,0,0-9.749-3.013ZM-3.282,0h-.881V-8.143h.881Zm6.2-2.53H-.961A2.057,2.057,0,0,0-.467-1.112a1.7,1.7,0,0,0,1.3.5,2.7,2.7,0,0,0,1.708-.612V-.4A3.192,3.192,0,0,1,.623.129,2.325,2.325,0,0,1-1.208-.62a3.067,3.067,0,0,1-.666-2.108,3.007,3.007,0,0,1,.728-2.092A2.334,2.334,0,0,1,.661-5.629a2.068,2.068,0,0,1,1.67.7,2.911,2.911,0,0,1,.591,1.939Zm-.9-.747a1.792,1.792,0,0,0-.368-1.187A1.254,1.254,0,0,0,.645-4.888a1.423,1.423,0,0,0-1.058.446A2.023,2.023,0,0,0-.951-3.276ZM8.948,0H8.067V-.935H8.046A2.033,2.033,0,0,1,6.155.129,2.054,2.054,0,0,1,4.5-.61a3.03,3.03,0,0,1-.62-2.011,3.3,3.3,0,0,1,.688-2.186A2.268,2.268,0,0,1,6.4-5.629a1.763,1.763,0,0,1,1.649.892h.021V-8.143h.881ZM8.067-2.487V-3.3a1.573,1.573,0,0,0-.44-1.128A1.477,1.477,0,0,0,6.51-4.888,1.521,1.521,0,0,0,5.242-4.3,2.589,2.589,0,0,0,4.78-2.664a2.329,2.329,0,0,0,.443,1.5,1.448,1.448,0,0,0,1.19.551,1.5,1.5,0,0,0,1.2-.532A1.981,1.981,0,0,0,8.067-2.487ZM15.9,1.751H13.927V-7.7H15.9v.639H14.711V1.112H15.9ZM19.363.129a2.551,2.551,0,0,1-1.947-.771,2.855,2.855,0,0,1-.728-2.044,2.974,2.974,0,0,1,.757-2.165,2.723,2.723,0,0,1,2.046-.779,2.467,2.467,0,0,1,1.92.757,3,3,0,0,1,.69,2.1,2.955,2.955,0,0,1-.744,2.108A2.607,2.607,0,0,1,19.363.129Zm.064-5.017a1.675,1.675,0,0,0-1.343.577,2.371,2.371,0,0,0-.494,1.593,2.243,2.243,0,0,0,.5,1.542,1.7,1.7,0,0,0,1.337.564,1.61,1.61,0,0,0,1.313-.553A2.4,2.4,0,0,0,21.2-2.739a2.442,2.442,0,0,0-.459-1.59A1.6,1.6,0,0,0,19.427-4.888ZM28.075,0h-.881V-3.137q0-1.751-1.278-1.751a1.387,1.387,0,0,0-1.093.5,1.842,1.842,0,0,0-.432,1.254V0h-.881V-5.5h.881v.913h.021a1.985,1.985,0,0,1,1.8-1.042,1.683,1.683,0,0,1,1.38.583,2.6,2.6,0,0,1,.478,1.684ZM31.1,1.751H29.127V1.112h1.187V-7.063H29.127V-7.7H31.1Z" transform="translate(875 167)" fill="#17987c"/>
  </g>
</svg>
