<svg xmlns="http://www.w3.org/2000/svg" xmlns:xlink="http://www.w3.org/1999/xlink" width="485" height="311" viewBox="0 0 485 311">
  <defs>
    <filter id="Card" x="25.5" y="26.5" width="434" height="259" filterUnits="userSpaceOnUse">
      <feOffset dy="1" input="SourceAlpha"/>
      <feGaussianBlur stdDeviation="1.5" result="blur"/>
      <feFlood flood-opacity="0.161"/>
      <feComposite operator="in" in2="blur"/>
      <feComposite in="SourceGraphic"/>
    </filter>
    <clipPath id="clip-vertical_column_chart">
      <rect width="485" height="311"/>
    </clipPath>
  </defs>
  <g id="vertical_column_chart" data-name="vertical column chart" clip-path="url(#clip-vertical_column_chart)">
    <rect width="485" height="311" fill="#f4f4f6"/>
    <g id="Group_270708" data-name="Group 270708" transform="translate(-799 -292)">
      <g transform="matrix(1, 0, 0, 1, 799, 292)" filter="url(#Card)">
        <rect id="Card-2" data-name="Card" width="425" height="250" rx="2" transform="translate(30 30)" fill="#fff"/>
      </g>
      <g id="Group_270710" data-name="Group 270710" transform="translate(20 29)">
        <rect id="Rectangle_10409" data-name="Rectangle 10409" width="75" height="30" transform="translate(849 493) rotate(-90)" fill="#30bbb1"/>
        <rect id="Rectangle_10410" data-name="Rectangle 10410" width="75" height="30" transform="translate(894 493) rotate(-90)" fill="#30bbb1"/>
        <rect id="Rectangle_10411" data-name="Rectangle 10411" width="125" height="30" transform="translate(939 493) rotate(-90)" fill="#30bbb1"/>
        <rect id="Rectangle_10412" data-name="Rectangle 10412" width="150" height="30" transform="translate(984 493) rotate(-90)" fill="#30bbb1"/>
        <rect id="Rectangle_10413" data-name="Rectangle 10413" width="100" height="30" transform="translate(1029 493) rotate(-90)" fill="#30bbb1"/>
        <rect id="Rectangle_10414" data-name="Rectangle 10414" width="50" height="30" transform="translate(1074 493) rotate(-90)" fill="#30bbb1"/>
        <rect id="Rectangle_10415" data-name="Rectangle 10415" width="75" height="30" transform="translate(1119 493) rotate(-90)" fill="#30bbb1"/>
        <rect id="Rectangle_11686" data-name="Rectangle 11686" width="100" height="30" transform="translate(1164 493) rotate(-90)" fill="#30bbb1"/>
      </g>
    </g>
  </g>
</svg>
