<svg xmlns="http://www.w3.org/2000/svg" xmlns:xlink="http://www.w3.org/1999/xlink" width="1000" height="138" viewBox="0 0 1000 138">
  <defs>
    <clipPath id="clip-Warning_Well_1">
      <rect width="1000" height="138"/>
    </clipPath>
  </defs>
  <g id="Warning_Well_1" data-name="Warning_Well – 1" clip-path="url(#clip-Warning_Well_1)">
    <rect width="1000" height="138" fill="#f4f4f6"/>
    <g id="Group_11892" data-name="Group 11892" transform="translate(255.2 30)">
      <g id="Rectangle_3830" data-name="Rectangle 3830" transform="translate(0)" fill="#fff" stroke="#fbac0e" stroke-width="1">
        <rect width="490.8" height="77" rx="4" stroke="none"/>
        <rect x="0.5" y="0.5" width="489.8" height="76" rx="3.5" fill="none"/>
      </g>
      <path id="Rectangle_5239" data-name="Rectangle 5239" d="M4,0H50a0,0,0,0,1,0,0V77a0,0,0,0,1,0,0H4a4,4,0,0,1-4-4V4A4,4,0,0,1,4,0Z" transform="translate(-0.2)" fill="#fbac0e"/>
      <g id="Icon" transform="translate(12.8 26.5)">
        <path id="Path_8227" data-name="Path 8227" d="M23.889,20.441,13.061.6a1.217,1.217,0,0,0-2.1,0L.13,20.441a1.02,1.02,0,0,0,.421,1.382,1,1,0,0,0,.451.12H23.018a1.021,1.021,0,0,0,.871-1.5ZM11.049,7.51h1.8a.285.285,0,0,1,.3.269v.032l-.6,7.209a.3.3,0,0,1-.3.3h-.6a.3.3,0,0,1-.3-.3l-.6-7.209a.285.285,0,0,1,.269-.3ZM13.181,17.8a1.231,1.231,0,0,1-1.231,1.216h-.18a1.2,1.2,0,0,1-.991-.871,1.23,1.23,0,0,1,.931-1.472,1.169,1.169,0,0,1,.24-.03h.06a1.231,1.231,0,0,1,1.216,1.216Z" transform="translate(-0.01 1.003)" fill="#fff"/>
        <rect id="Rectangle_6378" data-name="Rectangle 6378" width="24" height="24" transform="translate(0)" fill="none"/>
      </g>
    </g>
    <path id="Path_101511" data-name="Path 101511" d="M8.313,15H6.945L5.3,12.252a5.985,5.985,0,0,0-.437-.653,2.494,2.494,0,0,0-.434-.441,1.5,1.5,0,0,0-.479-.25,1.968,1.968,0,0,0-.578-.079H2.434V15H1.285V5.2H4.211A4.17,4.17,0,0,1,5.4,5.358a2.654,2.654,0,0,1,.943.489,2.271,2.271,0,0,1,.625.817,2.709,2.709,0,0,1,.226,1.145,2.757,2.757,0,0,1-.154.94,2.455,2.455,0,0,1-.437.762,2.652,2.652,0,0,1-.684.571,3.49,3.49,0,0,1-.9.366v.027a2.068,2.068,0,0,1,.427.25,2.351,2.351,0,0,1,.345.332,4.391,4.391,0,0,1,.325.434q.161.243.359.564ZM2.434,6.236V9.791H3.992a2.364,2.364,0,0,0,.8-.13,1.844,1.844,0,0,0,.632-.373,1.69,1.69,0,0,0,.417-.595,1.991,1.991,0,0,0,.15-.79,1.537,1.537,0,0,0-.509-1.227,2.188,2.188,0,0,0-1.473-.441ZM14.725,11.78H9.782a2.618,2.618,0,0,0,.629,1.8,2.168,2.168,0,0,0,1.654.636,3.439,3.439,0,0,0,2.174-.779v1.053a4.063,4.063,0,0,1-2.44.67,2.959,2.959,0,0,1-2.331-.954,3.9,3.9,0,0,1-.848-2.683,3.828,3.828,0,0,1,.926-2.663,2.97,2.97,0,0,1,2.3-1.029,2.632,2.632,0,0,1,2.126.889,3.705,3.705,0,0,1,.752,2.468Zm-1.148-.95a2.281,2.281,0,0,0-.468-1.511,1.6,1.6,0,0,0-1.282-.54,1.811,1.811,0,0,0-1.347.567A2.575,2.575,0,0,0,9.8,10.83ZM21.923,8l-2.789,7h-1.1L15.381,8h1.23l1.777,5.086a4.565,4.565,0,0,1,.246.978h.027a4.622,4.622,0,0,1,.219-.95L20.74,8ZM23.7,6.223a.71.71,0,0,1-.513-.205.692.692,0,0,1-.212-.52.718.718,0,0,1,.725-.731.724.724,0,0,1,.523.208.73.73,0,0,1,0,1.036A.718.718,0,0,1,23.7,6.223ZM24.247,15H23.126V8h1.121Zm7.9-3.22H27.2a2.618,2.618,0,0,0,.629,1.8,2.168,2.168,0,0,0,1.654.636,3.439,3.439,0,0,0,2.174-.779v1.053a4.063,4.063,0,0,1-2.44.67,2.959,2.959,0,0,1-2.331-.954,3.9,3.9,0,0,1-.848-2.683,3.828,3.828,0,0,1,.926-2.663,2.97,2.97,0,0,1,2.3-1.029,2.632,2.632,0,0,1,2.126.889,3.705,3.705,0,0,1,.752,2.468Zm-1.148-.95a2.281,2.281,0,0,0-.468-1.511,1.6,1.6,0,0,0-1.282-.54,1.811,1.811,0,0,0-1.347.567,2.575,2.575,0,0,0-.684,1.483ZM42.656,8l-2.1,7H39.4L37.953,9.989a3.265,3.265,0,0,1-.109-.649h-.027a3.065,3.065,0,0,1-.144.636L36.107,15H34.986L32.867,8h1.176l1.449,5.264a3.171,3.171,0,0,1,.1.629h.055a2.942,2.942,0,0,1,.123-.643L37.379,8H38.4l1.449,5.277a3.767,3.767,0,0,1,.1.629h.055a2.909,2.909,0,0,1,.116-.629L41.549,8Zm10.76,3.78H48.474a2.618,2.618,0,0,0,.629,1.8,2.168,2.168,0,0,0,1.654.636,3.439,3.439,0,0,0,2.174-.779v1.053a4.063,4.063,0,0,1-2.44.67,2.959,2.959,0,0,1-2.331-.954,3.9,3.9,0,0,1-.848-2.683,3.828,3.828,0,0,1,.926-2.663,2.97,2.97,0,0,1,2.3-1.029,2.632,2.632,0,0,1,2.126.889,3.705,3.705,0,0,1,.752,2.468Zm-1.148-.95A2.281,2.281,0,0,0,51.8,9.319a1.6,1.6,0,0,0-1.282-.54,1.811,1.811,0,0,0-1.347.567,2.575,2.575,0,0,0-.684,1.483ZM60.922,15H59.8V11.008q0-2.229-1.627-2.229a1.765,1.765,0,0,0-1.391.632,2.344,2.344,0,0,0-.55,1.6V15H55.111V8h1.121V9.162h.027a2.526,2.526,0,0,1,2.3-1.326,2.142,2.142,0,0,1,1.757.742,3.3,3.3,0,0,1,.608,2.143Zm5.763-5.865a1.371,1.371,0,0,0-.848-.226,1.431,1.431,0,0,0-1.2.677,3.129,3.129,0,0,0-.482,1.846V15H63.034V8h1.121V9.442h.027a2.444,2.444,0,0,1,.731-1.152,1.668,1.668,0,0,1,1.1-.414,1.83,1.83,0,0,1,.67.1Zm4.143,6.029a3.247,3.247,0,0,1-2.478-.981,3.633,3.633,0,0,1-.926-2.6,3.785,3.785,0,0,1,.964-2.755,3.465,3.465,0,0,1,2.6-.991,3.14,3.14,0,0,1,2.444.964,3.822,3.822,0,0,1,.878,2.673,3.761,3.761,0,0,1-.947,2.683A3.317,3.317,0,0,1,70.827,15.164Zm.082-6.385a2.132,2.132,0,0,0-1.709.735,3.018,3.018,0,0,0-.629,2.027,2.854,2.854,0,0,0,.636,1.962,2.161,2.161,0,0,0,1.7.718,2.049,2.049,0,0,0,1.671-.7,3.055,3.055,0,0,0,.584-2,3.108,3.108,0,0,0-.584-2.023A2.04,2.04,0,0,0,70.909,8.779ZM77.226,15H76.1V4.637h1.121Zm3.391,0H79.5V4.637h1.121Zm12.209,0H91.7V10.98A3.032,3.032,0,0,0,91.345,9.3a1.361,1.361,0,0,0-1.207-.52,1.494,1.494,0,0,0-1.22.656,2.511,2.511,0,0,0-.5,1.572V15H87.295V10.844q0-2.064-1.593-2.064a1.475,1.475,0,0,0-1.217.619,2.557,2.557,0,0,0-.479,1.61V15H82.886V8h1.121V9.107h.027a2.378,2.378,0,0,1,2.174-1.271A2.022,2.022,0,0,1,88.19,9.285a2.5,2.5,0,0,1,2.324-1.449q2.311,0,2.311,2.851Zm7.745-3.22H95.628a2.618,2.618,0,0,0,.629,1.8,2.168,2.168,0,0,0,1.654.636,3.439,3.439,0,0,0,2.174-.779v1.053a4.063,4.063,0,0,1-2.44.67,2.959,2.959,0,0,1-2.331-.954,3.9,3.9,0,0,1-.848-2.683,3.828,3.828,0,0,1,.926-2.663,2.97,2.97,0,0,1,2.3-1.029,2.632,2.632,0,0,1,2.126.889,3.705,3.705,0,0,1,.752,2.468Zm-1.148-.95a2.281,2.281,0,0,0-.468-1.511,1.6,1.6,0,0,0-1.282-.54,1.811,1.811,0,0,0-1.347.567,2.575,2.575,0,0,0-.684,1.483ZM108.076,15h-1.121V11.008q0-2.229-1.627-2.229a1.765,1.765,0,0,0-1.391.632,2.344,2.344,0,0,0-.55,1.6V15h-1.121V8h1.121V9.162h.027a2.526,2.526,0,0,1,2.3-1.326,2.142,2.142,0,0,1,1.757.742,3.3,3.3,0,0,1,.608,2.143Zm5.359-.068a2.161,2.161,0,0,1-1.046.219q-1.839,0-1.839-2.051V8.957h-1.2V8h1.2V6.291l1.121-.362V8h1.764v.957h-1.764V12.9a1.635,1.635,0,0,0,.239,1,.955.955,0,0,0,.793.3,1.179,1.179,0,0,0,.731-.232Zm8.791-9.311a1.493,1.493,0,0,0-.745-.185q-1.176,0-1.176,1.483V8h1.641v.957h-1.641V15h-1.114V8.957H118V8h1.2V6.865a2.358,2.358,0,0,1,.636-1.74,2.146,2.146,0,0,1,1.586-.639,2.2,2.2,0,0,1,.813.123Zm3.849,9.543a3.247,3.247,0,0,1-2.478-.981,3.633,3.633,0,0,1-.926-2.6,3.785,3.785,0,0,1,.964-2.755,3.465,3.465,0,0,1,2.6-.991,3.14,3.14,0,0,1,2.444.964,3.822,3.822,0,0,1,.878,2.673,3.761,3.761,0,0,1-.947,2.683A3.317,3.317,0,0,1,126.075,15.164Zm.082-6.385a2.132,2.132,0,0,0-1.709.735,3.018,3.018,0,0,0-.629,2.027,2.854,2.854,0,0,0,.636,1.962,2.161,2.161,0,0,0,1.7.718,2.049,2.049,0,0,0,1.671-.7,3.055,3.055,0,0,0,.584-2,3.108,3.108,0,0,0-.584-2.023A2.04,2.04,0,0,0,126.157,8.779ZM135,9.135a1.371,1.371,0,0,0-.848-.226,1.431,1.431,0,0,0-1.2.677,3.129,3.129,0,0,0-.482,1.846V15h-1.121V8h1.121V9.442h.027a2.444,2.444,0,0,1,.731-1.152,1.668,1.668,0,0,1,1.1-.414,1.83,1.83,0,0,1,.67.1ZM146.159,15h-1.121V10.98a3.032,3.032,0,0,0-.359-1.682,1.361,1.361,0,0,0-1.207-.52,1.494,1.494,0,0,0-1.22.656,2.511,2.511,0,0,0-.5,1.572V15h-1.121V10.844q0-2.064-1.593-2.064a1.475,1.475,0,0,0-1.217.619,2.557,2.557,0,0,0-.479,1.61V15H136.22V8h1.121V9.107h.027a2.378,2.378,0,0,1,2.174-1.271,2.022,2.022,0,0,1,1.982,1.449,2.5,2.5,0,0,1,2.324-1.449q2.311,0,2.311,2.851Zm6.528-8.777a.71.71,0,0,1-.513-.205.692.692,0,0,1-.212-.52.718.718,0,0,1,.725-.731.724.724,0,0,1,.523.208.73.73,0,0,1,0,1.036A.718.718,0,0,1,152.688,6.223ZM153.234,15h-1.121V8h1.121Zm8.08,0h-1.121V11.008q0-2.229-1.627-2.229a1.765,1.765,0,0,0-1.391.632,2.344,2.344,0,0,0-.55,1.6V15H155.5V8h1.121V9.162h.027a2.526,2.526,0,0,1,2.3-1.326,2.142,2.142,0,0,1,1.757.742,3.3,3.3,0,0,1,.608,2.143Zm5.571-9.379a1.493,1.493,0,0,0-.745-.185q-1.176,0-1.176,1.483V8h1.641v.957h-1.641V15h-1.114V8.957h-1.2V8h1.2V6.865a2.358,2.358,0,0,1,.636-1.74,2.146,2.146,0,0,1,1.586-.639,2.2,2.2,0,0,1,.813.123Zm3.849,9.543a3.247,3.247,0,0,1-2.478-.981,3.634,3.634,0,0,1-.926-2.6,3.785,3.785,0,0,1,.964-2.755,3.465,3.465,0,0,1,2.6-.991,3.14,3.14,0,0,1,2.444.964,3.822,3.822,0,0,1,.878,2.673,3.761,3.761,0,0,1-.947,2.683A3.317,3.317,0,0,1,170.734,15.164Zm.082-6.385a2.132,2.132,0,0,0-1.709.735,3.018,3.018,0,0,0-.629,2.027,2.854,2.854,0,0,0,.636,1.962,2.161,2.161,0,0,0,1.7.718,2.049,2.049,0,0,0,1.671-.7,3.055,3.055,0,0,0,.584-2,3.108,3.108,0,0,0-.584-2.023A2.04,2.04,0,0,0,170.816,8.779Zm8.846.355a1.371,1.371,0,0,0-.848-.226,1.431,1.431,0,0,0-1.2.677,3.129,3.129,0,0,0-.482,1.846V15h-1.121V8h1.121V9.442h.027a2.444,2.444,0,0,1,.731-1.152,1.668,1.668,0,0,1,1.1-.414,1.83,1.83,0,0,1,.67.1ZM190.818,15H189.7V10.98a3.032,3.032,0,0,0-.359-1.682,1.361,1.361,0,0,0-1.207-.52,1.494,1.494,0,0,0-1.22.656,2.511,2.511,0,0,0-.5,1.572V15h-1.121V10.844q0-2.064-1.593-2.064a1.475,1.475,0,0,0-1.217.619,2.557,2.557,0,0,0-.479,1.61V15h-1.121V8H182V9.107h.027A2.378,2.378,0,0,1,184.2,7.836a2.022,2.022,0,0,1,1.982,1.449,2.5,2.5,0,0,1,2.324-1.449q2.311,0,2.311,2.851Zm7.13,0h-1.121V13.906H196.8a2.347,2.347,0,0,1-2.153,1.258,2.3,2.3,0,0,1-1.637-.554,1.918,1.918,0,0,1-.591-1.47q0-1.962,2.311-2.283l2.1-.294q0-1.784-1.442-1.784a3.446,3.446,0,0,0-2.283.861V8.492a4.338,4.338,0,0,1,2.379-.656q2.468,0,2.468,2.611Zm-1.121-3.541-1.688.232a2.741,2.741,0,0,0-1.176.386,1.114,1.114,0,0,0-.4.981,1.068,1.068,0,0,0,.366.837,1.413,1.413,0,0,0,.974.325,1.8,1.8,0,0,0,1.377-.584,2.088,2.088,0,0,0,.543-1.48Zm6.48,3.473a2.162,2.162,0,0,1-1.046.219q-1.839,0-1.839-2.051V8.957h-1.2V8h1.2V6.291l1.121-.362V8h1.764v.957h-1.764V12.9a1.635,1.635,0,0,0,.239,1,.955.955,0,0,0,.793.3,1.179,1.179,0,0,0,.731-.232Zm2.071-8.709a.71.71,0,0,1-.513-.205.692.692,0,0,1-.212-.52.718.718,0,0,1,.725-.731.724.724,0,0,1,.523.208.73.73,0,0,1,0,1.036A.718.718,0,0,1,205.379,6.223ZM205.926,15H204.8V8h1.121Zm5.2.164a3.247,3.247,0,0,1-2.478-.981,3.634,3.634,0,0,1-.926-2.6,3.785,3.785,0,0,1,.964-2.755,3.465,3.465,0,0,1,2.6-.991,3.14,3.14,0,0,1,2.444.964,3.822,3.822,0,0,1,.878,2.673,3.761,3.761,0,0,1-.947,2.683A3.317,3.317,0,0,1,211.121,15.164Zm.082-6.385a2.132,2.132,0,0,0-1.709.735,3.018,3.018,0,0,0-.629,2.027A2.854,2.854,0,0,0,209.5,13.5a2.161,2.161,0,0,0,1.7.718,2.049,2.049,0,0,0,1.671-.7,3.055,3.055,0,0,0,.584-2,3.108,3.108,0,0,0-.584-2.023A2.04,2.04,0,0,0,211.2,8.779ZM222.209,15h-1.121V11.008q0-2.229-1.627-2.229a1.765,1.765,0,0,0-1.391.632,2.344,2.344,0,0,0-.55,1.6V15H216.4V8h1.121V9.162h.027a2.526,2.526,0,0,1,2.3-1.326,2.142,2.142,0,0,1,1.757.742,3.3,3.3,0,0,1,.608,2.143Zm7.1-1.012h-.027V18.22h-1.121V8h1.121V9.23h.027a2.651,2.651,0,0,1,2.42-1.395,2.563,2.563,0,0,1,2.112.94,3.893,3.893,0,0,1,.759,2.519,4.339,4.339,0,0,1-.854,2.813,2.845,2.845,0,0,1-2.338,1.056A2.342,2.342,0,0,1,229.3,13.988Zm-.027-2.823v.978a2.081,2.081,0,0,0,.564,1.473,2.012,2.012,0,0,0,3.028-.174,3.575,3.575,0,0,0,.578-2.167,2.822,2.822,0,0,0-.54-1.832,1.787,1.787,0,0,0-1.463-.663,1.986,1.986,0,0,0-1.572.68A2.5,2.5,0,0,0,229.277,11.165Zm10.76-2.03a1.371,1.371,0,0,0-.848-.226,1.431,1.431,0,0,0-1.2.677,3.129,3.129,0,0,0-.482,1.846V15h-1.121V8h1.121V9.442h.027a2.444,2.444,0,0,1,.731-1.152,1.668,1.668,0,0,1,1.1-.414,1.83,1.83,0,0,1,.67.1Zm1.791-2.912a.71.71,0,0,1-.513-.205.692.692,0,0,1-.212-.52.718.718,0,0,1,.725-.731.724.724,0,0,1,.523.208.73.73,0,0,1,0,1.036A.718.718,0,0,1,241.828,6.223ZM242.375,15h-1.121V8h1.121Zm5.2.164a3.247,3.247,0,0,1-2.478-.981,3.634,3.634,0,0,1-.926-2.6,3.785,3.785,0,0,1,.964-2.755,3.465,3.465,0,0,1,2.6-.991,3.14,3.14,0,0,1,2.444.964,3.822,3.822,0,0,1,.878,2.673,3.761,3.761,0,0,1-.947,2.683A3.317,3.317,0,0,1,247.57,15.164Zm.082-6.385a2.132,2.132,0,0,0-1.709.735,3.018,3.018,0,0,0-.629,2.027,2.854,2.854,0,0,0,.636,1.962,2.161,2.161,0,0,0,1.7.718,2.049,2.049,0,0,0,1.671-.7,3.055,3.055,0,0,0,.584-2,3.108,3.108,0,0,0-.584-2.023A2.04,2.04,0,0,0,247.652,8.779Zm8.846.355a1.371,1.371,0,0,0-.848-.226,1.431,1.431,0,0,0-1.2.677,3.129,3.129,0,0,0-.482,1.846V15h-1.121V8h1.121V9.442H254a2.444,2.444,0,0,1,.731-1.152,1.668,1.668,0,0,1,1.1-.414,1.83,1.83,0,0,1,.67.1Zm8.3,5.8a2.161,2.161,0,0,1-1.046.219q-1.839,0-1.839-2.051V8.957h-1.2V8h1.2V6.291l1.121-.362V8H264.8v.957h-1.764V12.9a1.635,1.635,0,0,0,.239,1,.955.955,0,0,0,.793.3,1.179,1.179,0,0,0,.731-.232Zm4.423.232a3.247,3.247,0,0,1-2.478-.981,3.633,3.633,0,0,1-.926-2.6,3.785,3.785,0,0,1,.964-2.755,3.465,3.465,0,0,1,2.6-.991,3.14,3.14,0,0,1,2.444.964,3.822,3.822,0,0,1,.878,2.673,3.761,3.761,0,0,1-.947,2.683A3.317,3.317,0,0,1,269.22,15.164Zm.082-6.385a2.132,2.132,0,0,0-1.709.735,3.018,3.018,0,0,0-.629,2.027A2.854,2.854,0,0,0,267.6,13.5a2.161,2.161,0,0,0,1.7.718,2.049,2.049,0,0,0,1.671-.7,3.055,3.055,0,0,0,.584-2,3.108,3.108,0,0,0-.584-2.023A2.04,2.04,0,0,0,269.3,8.779Zm8.606,5.968v-1.2a3.318,3.318,0,0,0,2.017.677q1.477,0,1.477-.984a.854.854,0,0,0-.126-.475,1.261,1.261,0,0,0-.342-.345,2.631,2.631,0,0,0-.506-.27q-.291-.12-.625-.25a8.056,8.056,0,0,1-.817-.373,2.468,2.468,0,0,1-.588-.424,1.577,1.577,0,0,1-.355-.537,1.9,1.9,0,0,1-.12-.7,1.673,1.673,0,0,1,.226-.872,2,2,0,0,1,.6-.636,2.805,2.805,0,0,1,.858-.386,3.805,3.805,0,0,1,.995-.13,4.016,4.016,0,0,1,1.627.314V9.285a3.171,3.171,0,0,0-1.777-.506,2.078,2.078,0,0,0-.567.072,1.389,1.389,0,0,0-.434.2.932.932,0,0,0-.28.311.819.819,0,0,0-.1.4.959.959,0,0,0,.1.458,1.008,1.008,0,0,0,.291.328,2.221,2.221,0,0,0,.465.26q.273.116.622.253a8.657,8.657,0,0,1,.834.366,2.861,2.861,0,0,1,.629.424,1.656,1.656,0,0,1,.4.543,1.753,1.753,0,0,1,.14.731,1.724,1.724,0,0,1-.229.9,1.963,1.963,0,0,1-.612.636,2.8,2.8,0,0,1-.882.376,4.354,4.354,0,0,1-1.046.123A3.971,3.971,0,0,1,277.908,14.747Zm6.938-8.524a.71.71,0,0,1-.513-.205.692.692,0,0,1-.212-.52.718.718,0,0,1,.725-.731.724.724,0,0,1,.523.208.73.73,0,0,1,0,1.036A.718.718,0,0,1,284.847,6.223ZM285.394,15h-1.121V8h1.121Zm8.244-.561q0,3.855-3.691,3.855a4.956,4.956,0,0,1-2.27-.492V16.682a4.661,4.661,0,0,0,2.256.656q2.584,0,2.584-2.748v-.766h-.027a2.832,2.832,0,0,1-4.508.407,3.73,3.73,0,0,1-.8-2.505,4.358,4.358,0,0,1,.858-2.837,2.866,2.866,0,0,1,2.348-1.053,2.282,2.282,0,0,1,2.1,1.135h.027V8h1.121Zm-1.121-2.6V10.8a2,2,0,0,0-.564-1.429,1.857,1.857,0,0,0-1.4-.595,1.947,1.947,0,0,0-1.627.755,3.372,3.372,0,0,0-.588,2.116,2.894,2.894,0,0,0,.564,1.87,1.822,1.822,0,0,0,1.494.7,1.951,1.951,0,0,0,1.535-.67A2.5,2.5,0,0,0,292.517,11.835Zm9.2,3.165H300.6V11.008q0-2.229-1.627-2.229a1.765,1.765,0,0,0-1.391.632,2.344,2.344,0,0,0-.55,1.6V15h-1.121V8h1.121V9.162h.027a2.526,2.526,0,0,1,2.3-1.326,2.142,2.142,0,0,1,1.757.742,3.3,3.3,0,0,1,.608,2.143ZM304.4,6.223a.71.71,0,0,1-.513-.205.692.692,0,0,1-.212-.52.718.718,0,0,1,.725-.731.724.724,0,0,1,.523.208.73.73,0,0,1,0,1.036A.718.718,0,0,1,304.4,6.223ZM304.951,15H303.83V8h1.121Zm8.08,0H311.91V11.008q0-2.229-1.627-2.229a1.765,1.765,0,0,0-1.391.632,2.344,2.344,0,0,0-.55,1.6V15h-1.121V8h1.121V9.162h.027a2.526,2.526,0,0,1,2.3-1.326,2.142,2.142,0,0,1,1.757.742,3.3,3.3,0,0,1,.608,2.143Zm8.087-.561q0,3.855-3.691,3.855a4.956,4.956,0,0,1-2.27-.492V16.682a4.661,4.661,0,0,0,2.256.656q2.584,0,2.584-2.748v-.766h-.027a2.832,2.832,0,0,1-4.508.407,3.73,3.73,0,0,1-.8-2.505,4.358,4.358,0,0,1,.858-2.837,2.866,2.866,0,0,1,2.348-1.053,2.282,2.282,0,0,1,2.1,1.135H320V8h1.121ZM320,11.835V10.8a2,2,0,0,0-.564-1.429,1.857,1.857,0,0,0-1.4-.595,1.947,1.947,0,0,0-1.627.755,3.372,3.372,0,0,0-.588,2.116,2.894,2.894,0,0,0,.564,1.87,1.822,1.822,0,0,0,1.494.7,1.951,1.951,0,0,0,1.535-.67A2.5,2.5,0,0,0,320,11.835ZM332.233,15h-1.121V13.906h-.027a2.347,2.347,0,0,1-2.153,1.258,2.3,2.3,0,0,1-1.637-.554,1.918,1.918,0,0,1-.591-1.47q0-1.962,2.311-2.283l2.1-.294q0-1.784-1.442-1.784a3.446,3.446,0,0,0-2.283.861V8.492a4.338,4.338,0,0,1,2.379-.656q2.468,0,2.468,2.611Zm-1.121-3.541-1.688.232a2.741,2.741,0,0,0-1.176.386,1.114,1.114,0,0,0-.4.981,1.068,1.068,0,0,0,.366.837,1.413,1.413,0,0,0,.974.325,1.8,1.8,0,0,0,1.377-.584,2.088,2.088,0,0,0,.543-1.48ZM340.156,15h-1.121V11.008q0-2.229-1.627-2.229a1.765,1.765,0,0,0-1.391.632,2.344,2.344,0,0,0-.55,1.6V15h-1.121V8h1.121V9.162h.027a2.526,2.526,0,0,1,2.3-1.326,2.142,2.142,0,0,1,1.757.742,3.3,3.3,0,0,1,.608,2.143Zm8.087,0h-1.121V13.811h-.027a2.588,2.588,0,0,1-2.406,1.354,2.615,2.615,0,0,1-2.109-.94,3.856,3.856,0,0,1-.79-2.56,4.2,4.2,0,0,1,.875-2.782A2.886,2.886,0,0,1,345,7.836a2.244,2.244,0,0,1,2.1,1.135h.027V4.637h1.121Zm-1.121-3.165V10.8a2,2,0,0,0-.561-1.436,1.88,1.88,0,0,0-1.422-.588,1.936,1.936,0,0,0-1.613.752,3.3,3.3,0,0,0-.588,2.078,2.964,2.964,0,0,0,.564,1.911,1.843,1.843,0,0,0,1.514.7,1.915,1.915,0,0,0,1.521-.677A2.521,2.521,0,0,0,347.122,11.835ZM.711,33.747v-1.2a3.318,3.318,0,0,0,2.017.677q1.477,0,1.477-.984a.854.854,0,0,0-.126-.475,1.26,1.26,0,0,0-.342-.345,2.631,2.631,0,0,0-.506-.27q-.291-.12-.625-.25a8.056,8.056,0,0,1-.817-.373A2.468,2.468,0,0,1,1.2,30.1a1.577,1.577,0,0,1-.355-.537,1.9,1.9,0,0,1-.12-.7,1.673,1.673,0,0,1,.226-.872,2,2,0,0,1,.6-.636,2.805,2.805,0,0,1,.858-.386,3.805,3.805,0,0,1,.995-.13,4.016,4.016,0,0,1,1.627.314v1.135a3.171,3.171,0,0,0-1.777-.506,2.078,2.078,0,0,0-.567.072,1.389,1.389,0,0,0-.434.2.932.932,0,0,0-.28.311.819.819,0,0,0-.1.4.959.959,0,0,0,.1.458,1.008,1.008,0,0,0,.291.328,2.221,2.221,0,0,0,.465.26q.273.116.622.253a8.658,8.658,0,0,1,.834.366,2.86,2.86,0,0,1,.629.424,1.656,1.656,0,0,1,.4.543,1.753,1.753,0,0,1,.14.731,1.725,1.725,0,0,1-.229.9,1.963,1.963,0,0,1-.612.636,2.8,2.8,0,0,1-.882.376,4.354,4.354,0,0,1-1.046.123A3.971,3.971,0,0,1,.711,33.747ZM12.7,30.78H7.759a2.618,2.618,0,0,0,.629,1.8,2.168,2.168,0,0,0,1.654.636,3.439,3.439,0,0,0,2.174-.779v1.053a4.063,4.063,0,0,1-2.44.67,2.959,2.959,0,0,1-2.331-.954A3.9,3.9,0,0,1,6.6,30.527a3.828,3.828,0,0,1,.926-2.663,2.97,2.97,0,0,1,2.3-1.029,2.632,2.632,0,0,1,2.126.889,3.705,3.705,0,0,1,.752,2.468Zm-1.148-.95a2.281,2.281,0,0,0-.468-1.511,1.6,1.6,0,0,0-1.282-.54,1.811,1.811,0,0,0-1.347.567,2.575,2.575,0,0,0-.684,1.483ZM20.207,34H19.086V30.008q0-2.229-1.627-2.229a1.765,1.765,0,0,0-1.391.632,2.344,2.344,0,0,0-.55,1.6V34H14.4V27h1.121v1.162h.027a2.526,2.526,0,0,1,2.3-1.326,2.142,2.142,0,0,1,1.757.742,3.3,3.3,0,0,1,.608,2.143Zm8.087,0H27.173V32.811h-.027a2.588,2.588,0,0,1-2.406,1.354,2.615,2.615,0,0,1-2.109-.94,3.856,3.856,0,0,1-.79-2.56,4.2,4.2,0,0,1,.875-2.782,2.886,2.886,0,0,1,2.331-1.046,2.244,2.244,0,0,1,2.1,1.135h.027V23.637h1.121Zm-1.121-3.165V29.8a2,2,0,0,0-.561-1.436,1.88,1.88,0,0,0-1.422-.588,1.936,1.936,0,0,0-1.613.752,3.3,3.3,0,0,0-.588,2.078,2.964,2.964,0,0,0,.564,1.911,1.843,1.843,0,0,0,1.514.7,1.915,1.915,0,0,0,1.521-.677A2.521,2.521,0,0,0,27.173,30.835Zm3.965-5.612a.71.71,0,0,1-.513-.205.692.692,0,0,1-.212-.52.718.718,0,0,1,.725-.731.724.724,0,0,1,.523.208.73.73,0,0,1,0,1.036A.718.718,0,0,1,31.138,25.223ZM31.685,34H30.563V27h1.121Zm8.08,0H38.644V30.008q0-2.229-1.627-2.229a1.765,1.765,0,0,0-1.391.632,2.344,2.344,0,0,0-.55,1.6V34H33.954V27h1.121v1.162H35.1a2.526,2.526,0,0,1,2.3-1.326,2.142,2.142,0,0,1,1.757.742,3.3,3.3,0,0,1,.608,2.143Zm8.087-.561q0,3.855-3.691,3.855a4.956,4.956,0,0,1-2.27-.492V35.682a4.661,4.661,0,0,0,2.256.656q2.584,0,2.584-2.748v-.766H46.7a2.832,2.832,0,0,1-4.508.407,3.73,3.73,0,0,1-.8-2.505,4.358,4.358,0,0,1,.858-2.837A2.866,2.866,0,0,1,44.6,26.836a2.282,2.282,0,0,1,2.1,1.135h.027V27h1.121Zm-1.121-2.6V29.8a2,2,0,0,0-.564-1.429,1.857,1.857,0,0,0-1.4-.595,1.947,1.947,0,0,0-1.627.755,3.372,3.372,0,0,0-.588,2.116,2.894,2.894,0,0,0,.564,1.87,1.822,1.822,0,0,0,1.494.7,1.951,1.951,0,0,0,1.535-.67A2.5,2.5,0,0,0,46.73,30.835Zm10.473,3.1a2.162,2.162,0,0,1-1.046.219q-1.839,0-1.839-2.051V27.957h-1.2V27h1.2V25.291l1.121-.362V27H57.2v.957H55.439V31.9a1.635,1.635,0,0,0,.239,1,.955.955,0,0,0,.793.3,1.179,1.179,0,0,0,.731-.232Zm4.423.232a3.247,3.247,0,0,1-2.478-.981,3.634,3.634,0,0,1-.926-2.6,3.785,3.785,0,0,1,.964-2.755,3.465,3.465,0,0,1,2.6-.991,3.14,3.14,0,0,1,2.444.964,3.822,3.822,0,0,1,.878,2.673,3.761,3.761,0,0,1-.947,2.683A3.318,3.318,0,0,1,61.626,34.164Zm.082-6.385A2.132,2.132,0,0,0,60,28.514a3.018,3.018,0,0,0-.629,2.027,2.854,2.854,0,0,0,.636,1.962,2.161,2.161,0,0,0,1.7.718,2.049,2.049,0,0,0,1.671-.7,3.055,3.055,0,0,0,.584-2,3.108,3.108,0,0,0-.584-2.023A2.04,2.04,0,0,0,61.708,27.779ZM76.31,27l-3.22,8.121q-.861,2.174-2.42,2.174a2.565,2.565,0,0,1-.731-.089v-1a2.078,2.078,0,0,0,.663.123,1.374,1.374,0,0,0,1.271-1.012l.561-1.326L69.7,27h1.244l1.894,5.387q.034.1.144.533h.041q.034-.164.137-.52L75.147,27Zm4.129,7.164a3.247,3.247,0,0,1-2.478-.981,3.633,3.633,0,0,1-.926-2.6A3.785,3.785,0,0,1,78,27.827a3.465,3.465,0,0,1,2.6-.991,3.14,3.14,0,0,1,2.444.964,3.822,3.822,0,0,1,.878,2.673,3.761,3.761,0,0,1-.947,2.683A3.318,3.318,0,0,1,80.438,34.164Zm.082-6.385a2.132,2.132,0,0,0-1.709.735,3.018,3.018,0,0,0-.629,2.027,2.854,2.854,0,0,0,.636,1.962,2.161,2.161,0,0,0,1.7.718,2.049,2.049,0,0,0,1.671-.7,3.055,3.055,0,0,0,.584-2,3.108,3.108,0,0,0-.584-2.023A2.04,2.04,0,0,0,80.521,27.779ZM91.376,34H90.255V32.893h-.027a2.3,2.3,0,0,1-2.16,1.271q-2.5,0-2.5-2.98V27H86.68v4.006q0,2.215,1.7,2.215a1.715,1.715,0,0,0,1.35-.6,2.315,2.315,0,0,0,.53-1.583V27h1.121Zm5.913-5.865a1.371,1.371,0,0,0-.848-.226,1.431,1.431,0,0,0-1.2.677,3.129,3.129,0,0,0-.482,1.846V34H93.639V27H94.76v1.442h.027a2.444,2.444,0,0,1,.731-1.152,1.668,1.668,0,0,1,1.1-.414,1.83,1.83,0,0,1,.67.1ZM107.352,34H106.23V32.906H106.2a2.347,2.347,0,0,1-2.153,1.258,2.3,2.3,0,0,1-1.637-.554,1.918,1.918,0,0,1-.591-1.47q0-1.962,2.311-2.283l2.1-.294q0-1.784-1.442-1.784a3.446,3.446,0,0,0-2.283.861V27.492a4.338,4.338,0,0,1,2.379-.656q2.468,0,2.468,2.611Zm-1.121-3.541-1.688.232a2.741,2.741,0,0,0-1.176.386,1.114,1.114,0,0,0-.4.981,1.068,1.068,0,0,0,.366.837,1.413,1.413,0,0,0,.974.325,1.8,1.8,0,0,0,1.377-.584,2.088,2.088,0,0,0,.543-1.48ZM115.438,34h-1.121V32.811h-.027a2.588,2.588,0,0,1-2.406,1.354,2.615,2.615,0,0,1-2.109-.94,3.856,3.856,0,0,1-.79-2.56,4.2,4.2,0,0,1,.875-2.782,2.886,2.886,0,0,1,2.331-1.046,2.244,2.244,0,0,1,2.1,1.135h.027V23.637h1.121Zm-1.121-3.165V29.8a2,2,0,0,0-.561-1.436,1.88,1.88,0,0,0-1.422-.588,1.936,1.936,0,0,0-1.613.752,3.3,3.3,0,0,0-.588,2.078,2.964,2.964,0,0,0,.564,1.911,1.843,1.843,0,0,0,1.514.7,1.915,1.915,0,0,0,1.521-.677A2.521,2.521,0,0,0,114.317,30.835ZM127.647,34h-1.121V29.98a3.032,3.032,0,0,0-.359-1.682,1.361,1.361,0,0,0-1.207-.52,1.494,1.494,0,0,0-1.22.656,2.511,2.511,0,0,0-.5,1.572V34h-1.121V29.844q0-2.064-1.593-2.064a1.475,1.475,0,0,0-1.217.619,2.557,2.557,0,0,0-.479,1.61V34h-1.121V27h1.121v1.107h.027a2.378,2.378,0,0,1,2.174-1.271,2.022,2.022,0,0,1,1.982,1.449,2.5,2.5,0,0,1,2.324-1.449q2.311,0,2.311,2.851Zm2.693-8.777a.71.71,0,0,1-.513-.205.692.692,0,0,1-.212-.52.718.718,0,0,1,.725-.731.724.724,0,0,1,.523.208.73.73,0,0,1,0,1.036A.718.718,0,0,1,130.341,25.223ZM130.888,34h-1.121V27h1.121Zm8.08,0h-1.121V30.008q0-2.229-1.627-2.229a1.765,1.765,0,0,0-1.391.632,2.344,2.344,0,0,0-.55,1.6V34h-1.121V27h1.121v1.162h.027a2.526,2.526,0,0,1,2.3-1.326,2.142,2.142,0,0,1,1.757.742,3.3,3.3,0,0,1,.608,2.143Zm2.687-8.777a.71.71,0,0,1-.513-.205.692.692,0,0,1-.212-.52.718.718,0,0,1,.725-.731.724.724,0,0,1,.523.208.73.73,0,0,1,0,1.036A.718.718,0,0,1,141.654,25.223ZM142.2,34H141.08V27H142.2Zm1.846-.253v-1.2a3.318,3.318,0,0,0,2.017.677q1.477,0,1.477-.984a.854.854,0,0,0-.126-.475,1.26,1.26,0,0,0-.342-.345,2.631,2.631,0,0,0-.506-.27q-.291-.12-.625-.25a8.056,8.056,0,0,1-.817-.373,2.468,2.468,0,0,1-.588-.424,1.577,1.577,0,0,1-.355-.537,1.9,1.9,0,0,1-.12-.7,1.673,1.673,0,0,1,.226-.872,2,2,0,0,1,.6-.636,2.805,2.805,0,0,1,.858-.386,3.805,3.805,0,0,1,.995-.13,4.016,4.016,0,0,1,1.627.314v1.135a3.171,3.171,0,0,0-1.777-.506,2.078,2.078,0,0,0-.567.072,1.389,1.389,0,0,0-.434.2.932.932,0,0,0-.28.311.819.819,0,0,0-.1.4.959.959,0,0,0,.1.458,1.008,1.008,0,0,0,.291.328,2.221,2.221,0,0,0,.465.26q.273.116.622.253a8.658,8.658,0,0,1,.834.366,2.86,2.86,0,0,1,.629.424,1.656,1.656,0,0,1,.4.543,1.753,1.753,0,0,1,.14.731,1.725,1.725,0,0,1-.229.9,1.963,1.963,0,0,1-.612.636,2.8,2.8,0,0,1-.882.376,4.354,4.354,0,0,1-1.046.123A3.971,3.971,0,0,1,144.047,33.747Zm9.611.185a2.162,2.162,0,0,1-1.046.219q-1.839,0-1.839-2.051V27.957h-1.2V27h1.2V25.291l1.121-.362V27h1.764v.957h-1.764V31.9a1.635,1.635,0,0,0,.239,1,.955.955,0,0,0,.793.3,1.179,1.179,0,0,0,.731-.232Zm5.147-5.8a1.371,1.371,0,0,0-.848-.226,1.431,1.431,0,0,0-1.2.677,3.129,3.129,0,0,0-.482,1.846V34h-1.121V27h1.121v1.442h.027a2.444,2.444,0,0,1,.731-1.152,1.668,1.668,0,0,1,1.1-.414,1.83,1.83,0,0,1,.67.1ZM165.033,34h-1.121V32.906h-.027a2.347,2.347,0,0,1-2.153,1.258,2.3,2.3,0,0,1-1.637-.554,1.918,1.918,0,0,1-.591-1.47q0-1.962,2.311-2.283l2.1-.294q0-1.784-1.442-1.784a3.446,3.446,0,0,0-2.283.861V27.492a4.338,4.338,0,0,1,2.379-.656q2.468,0,2.468,2.611Zm-1.121-3.541-1.688.232a2.741,2.741,0,0,0-1.176.386,1.114,1.114,0,0,0-.4.981,1.068,1.068,0,0,0,.366.837,1.413,1.413,0,0,0,.974.325,1.8,1.8,0,0,0,1.377-.584,2.088,2.088,0,0,0,.543-1.48Zm6.48,3.473a2.162,2.162,0,0,1-1.046.219q-1.839,0-1.839-2.051V27.957h-1.2V27h1.2V25.291l1.121-.362V27h1.764v.957h-1.764V31.9a1.635,1.635,0,0,0,.239,1,.955.955,0,0,0,.793.3,1.179,1.179,0,0,0,.731-.232Zm4.423.232a3.247,3.247,0,0,1-2.478-.981,3.634,3.634,0,0,1-.926-2.6,3.785,3.785,0,0,1,.964-2.755,3.465,3.465,0,0,1,2.6-.991,3.14,3.14,0,0,1,2.444.964,3.822,3.822,0,0,1,.878,2.673,3.761,3.761,0,0,1-.947,2.683A3.318,3.318,0,0,1,174.815,34.164Zm.082-6.385a2.132,2.132,0,0,0-1.709.735,3.018,3.018,0,0,0-.629,2.027A2.854,2.854,0,0,0,173.2,32.5a2.161,2.161,0,0,0,1.7.718,2.049,2.049,0,0,0,1.671-.7,3.055,3.055,0,0,0,.584-2,3.108,3.108,0,0,0-.584-2.023A2.04,2.04,0,0,0,174.9,27.779Zm8.846.355a1.371,1.371,0,0,0-.848-.226,1.431,1.431,0,0,0-1.2.677,3.129,3.129,0,0,0-.482,1.846V34h-1.121V27h1.121v1.442h.027a2.444,2.444,0,0,1,.731-1.152,1.668,1.668,0,0,1,1.1-.414,1.83,1.83,0,0,1,.67.1Z" transform="translate(326 50)" fill="#31313a"/>
  </g>
</svg>
