<svg xmlns="http://www.w3.org/2000/svg" viewBox="0 0 178.2 180.51"><path d="M50.41,143.55a13.29,13.29,0,0,1-8,5.32,23.61,23.61,0,0,0-11.2,3.61,1.68,1.68,0,0,1-2.66-.95,14.69,14.69,0,0,1,2.08-10.06,4.22,4.22,0,0,0-2.08.57,1.78,1.78,0,0,1-2.34-.93,1.72,1.72,0,0,1-.13-1A20.63,20.63,0,0,1,34.47,128l-7.21-7.21-1.33-1.34c-14,3-22.78,19.75-25.83,31.14A3.89,3.89,0,0,0,5.61,155a10.33,10.33,0,0,1,4.78-1.14,34.3,34.3,0,0,0-4.78,23.55,3.89,3.89,0,0,0,4.56,3.08,4,4,0,0,0,1.71-.8,56.2,56.2,0,0,1,26.2-8.35,29.26,29.26,0,0,0,21.64-18.42,22.5,22.5,0,0,1-2.28-2.08Z" fill="#fff"/><path d="M143.26,98.17A153.75,153.75,0,0,0,178.2,5.51a5.48,5.48,0,0,0-1.71-3.8A6.39,6.39,0,0,0,172.69,0,152.48,152.48,0,0,0,80,34.94l-10.25-3.8a28.9,28.9,0,0,0-31.9,8.35L20,60.57a5.66,5.66,0,0,0,2.28,8.92l22.78,8.35A277.58,277.58,0,0,0,31.8,102.52a10.81,10.81,0,0,0,2.08,11.78l30,30a10.42,10.42,0,0,0,11.77,2.09,230.75,230.75,0,0,0,24.68-13.3l8.35,22.79a5.57,5.57,0,0,0,7.14,3.33,5.51,5.51,0,0,0,1.79-1.06l20.9-17.85a28.89,28.89,0,0,0,8.32-31.85ZM130.91,72.72a18.26,18.26,0,1,1,0-25.82h0a18.11,18.11,0,0,1,.21,25.61Z" fill="#fff"/></svg>